<svg xmlns="http://www.w3.org/2000/svg" version="1.1" width="682" height="612" class="tree" data-char="155"><text x="678" y="16" text-anchor="end" class="stepsLabel">Character adds <tspan class="score">2</tspan> to tree score</text><text x="678" y="29" text-anchor="end" class="stepsLabel"><tspan class="score">0</tspan> additional regions</text><text x="678" y="42" text-anchor="end" class="stepsLabel">CI = 0.5; Fitch CI = 0.5; Fitch RI = 0.5</text><text x="678" y="68" text-anchor="end" class="stepsLabel"><tspan dy="16">An optimal tree under:</tspan><tspan x="680" style="font-style:italic" class="thisAn" dy="1.2em">Equal weights</tspan><tspan x="680" style="font-style:italic" class="notThisAn" dy="1.2em">Implied weights, k = 2</tspan><tspan x="680" style="font-style:italic" class="notThisAn" dy="1.2em">IW, k = 3</tspan><tspan x="680" style="font-style:italic" class="notThisAn" dy="1.2em">IW, k = 4.5</tspan><tspan x="680" style="font-style:italic" class="notThisAn" dy="1.2em">IW, k = 7</tspan><tspan x="680" style="font-style:italic" class="notThisAn" dy="1.2em">IW, k = 10.5</tspan><tspan x="680" style="font-style:italic" class="notThisAn" dy="1.2em">IW, k = 16</tspan><tspan x="680" style="font-style:italic" class="notThisAn" dy="1.2em">IW, k = 24</tspan></text><text x="105.4" y="593.7" fill="grey" class="flag">[?]</text><text x="127.4" y="593.7" fill="grey" class="taxonLabel">Wiwaxia corrugata</text><text x="105.4" y="607" fill="#fc8d59" class="flag">[0]</text><text x="127.4" y="607" fill="#000" class="taxonLabel">Tonicella</text><text x="80.3" y="580.5" fill="#fc8d59" class="flag">[0]</text><text x="102.3" y="580.5" fill="#000" class="taxonLabel">Dentalium</text><text x="80.3" y="553.9" fill="#91bfdb" class="flag">[1]</text><text x="102.3" y="553.9" fill="#000" class="taxonLabel">Serpula</text><text x="80.3" y="567.2" fill="#fc8d59" class="flag">[0]</text><text x="102.3" y="567.2" fill="#000" class="taxonLabel">Sipunculus</text><text x="256.1" y="514.1" fill="grey" class="flag">[?]</text><text x="278.1" y="514.1" fill="grey" class="taxonLabel">Haplophrentis carinatus</text><text x="256.1" y="527.4" fill="grey" class="flag">[?]</text><text x="278.1" y="527.4" fill="grey" class="taxonLabel">Pedunculotheca diania</text><text x="230.9" y="500.9" fill="grey" class="flag">[?]</text><text x="252.9" y="500.9" fill="grey" class="taxonLabel">Paterimitra</text><text x="331.4" y="474.3" fill="#91bfdb" class="flag">[1]</text><text x="353.4" y="474.3" fill="#000" class="taxonLabel">Novocrania</text><text x="331.4" y="487.6" fill="grey" class="flag">[?]</text><text x="353.4" y="487.6" fill="grey" class="taxonLabel">Craniops</text><text x="306.3" y="461.1" fill="grey" class="flag">[?]</text><text x="328.3" y="461.1" fill="grey" class="taxonLabel">Ussunia</text><text x="281.2" y="447.8" fill="grey" class="flag">[?]</text><text x="303.2" y="447.8" fill="grey" class="taxonLabel">Gasconsia</text><text x="381.6" y="421.3" fill="grey" class="flag">[?]</text><text x="403.6" y="421.3" fill="grey" class="taxonLabel">Antigonambonites planus</text><text x="381.6" y="434.5" fill="grey" class="flag">[?]</text><text x="403.6" y="434.5" fill="grey" class="taxonLabel">Coolinia pecten</text><text x="482" y="394.7" fill="grey" class="flag">[?]</text><text x="504" y="394.7" fill="grey" class="taxonLabel">Alisina</text><text x="482" y="408" fill="grey" class="flag">[?]</text><text x="504" y="408" fill="grey" class="taxonLabel">Terebratulina</text><text x="456.9" y="381.5" fill="grey" class="flag">[?]</text><text x="478.9" y="381.5" fill="grey" class="taxonLabel">Orthis</text><text x="431.8" y="368.2" fill="grey" class="flag">[?]</text><text x="453.8" y="368.2" fill="grey" class="taxonLabel">Glyptoria</text><text x="406.7" y="354.9" fill="grey" class="flag">[?]</text><text x="428.7" y="354.9" fill="grey" class="taxonLabel">Nisusia sulcata</text><text x="381.6" y="341.7" fill="grey" class="flag">[?]</text><text x="403.6" y="341.7" fill="grey" class="taxonLabel">Kutorgina chengjiangensis</text><text x="331.4" y="328.4" fill="grey" class="flag">[?]</text><text x="353.4" y="328.4" fill="grey" class="taxonLabel">Longtancunella chengjiangensis</text><text x="356.5" y="301.9" fill="grey" class="flag">[?]</text><text x="378.5" y="301.9" fill="grey" class="taxonLabel">Tomteluva perturbata</text><text x="356.5" y="315.1" fill="grey" class="flag">[?]</text><text x="378.5" y="315.1" fill="grey" class="taxonLabel">Yuganotheca elegans</text><text x="331.4" y="288.6" fill="grey" class="flag">[?]</text><text x="353.4" y="288.6" fill="grey" class="taxonLabel">Salanygolina</text><text x="306.3" y="262.1" fill="grey" class="flag">[?]</text><text x="328.3" y="262.1" fill="grey" class="taxonLabel">Micromitra</text><text x="306.3" y="275.3" fill="grey" class="flag">[?]</text><text x="328.3" y="275.3" fill="grey" class="taxonLabel">Askepasma toddense</text><text x="456.9" y="235.5" fill="grey" class="flag">[?]</text><text x="478.9" y="235.5" fill="grey" class="taxonLabel">Acanthotretella spinosa</text><text x="456.9" y="248.8" fill="grey" class="flag">[?]</text><text x="478.9" y="248.8" fill="grey" class="taxonLabel">Siphonobolus priscus</text><text x="431.8" y="222.3" fill="grey" class="flag">[?]</text><text x="453.8" y="222.3" fill="grey" class="taxonLabel">Lingulosacculus</text><text x="406.7" y="209" fill="grey" class="flag">[?]</text><text x="428.7" y="209" fill="grey" class="taxonLabel">Clupeafumosus socialis</text><text x="381.6" y="195.7" fill="grey" class="flag">[?]</text><text x="403.6" y="195.7" fill="grey" class="taxonLabel">Lingulellotreta malongensis</text><text x="356.5" y="182.5" fill="grey" class="flag">[?]</text><text x="378.5" y="182.5" fill="grey" class="taxonLabel">Botsfordia</text><text x="331.4" y="169.2" fill="grey" class="flag">[?]</text><text x="353.4" y="169.2" fill="grey" class="taxonLabel">Mummpikia nuda</text><text x="306.3" y="155.9" fill="grey" class="flag">[?]</text><text x="328.3" y="155.9" fill="grey" class="taxonLabel">Eoobolus</text><text x="281.2" y="142.7" fill="#91bfdb" class="flag">[1]</text><text x="303.2" y="142.7" fill="#000" class="taxonLabel">Lingula</text><text x="306.3" y="116.1" fill="grey" class="flag">[?]</text><text x="328.3" y="116.1" fill="grey" class="taxonLabel">Pelagodiscus atlanticus</text><text x="306.3" y="129.4" fill="grey" class="flag">[?]</text><text x="328.3" y="129.4" fill="grey" class="taxonLabel">Mickwitzia muralensis</text><text x="281.2" y="102.9" fill="grey" class="flag">[?]</text><text x="303.2" y="102.9" fill="grey" class="taxonLabel">Micrina</text><text x="180.7" y="89.6" fill="grey" class="flag">[?]</text><text x="202.7" y="89.6" fill="grey" class="taxonLabel">Heliomedusa orienta</text><text x="180.7" y="63.1" fill="grey" class="flag">[?]</text><text x="202.7" y="63.1" fill="grey" class="taxonLabel">Halkieria evangelista</text><text x="180.7" y="76.3" fill="grey" class="flag">[?]</text><text x="202.7" y="76.3" fill="grey" class="taxonLabel">Dailyatia</text><text x="155.6" y="36.5" fill="grey" class="flag">[?]</text><text x="177.6" y="36.5" fill="grey" class="taxonLabel">Cotyledion tylodes</text><text x="155.6" y="49.8" fill="grey" class="flag">[?]</text><text x="177.6" y="49.8" fill="grey" class="taxonLabel">Eccentrotheca</text><text x="105.4" y="23.3" fill="#fc8d59" class="flag">[0]</text><text x="127.4" y="23.3" fill="#000" class="taxonLabel">Phoronis</text><text x="80.3" y="10" fill="#fc8d59" class="flag">[0]</text><text x="102.3" y="10" fill="#000" class="taxonLabel">Flustra</text><text x="55.2" y="540.7" fill="#fc8d59" class="flag">[0]</text><text x="77.2" y="540.7" fill="#000" class="taxonLabel">Loxosomella</text><path d="M5,428.8V285H30.1M30.1,285V32.4H55.2M55.2,32.4V7H80.3M55.2,32.4V57.7H80.3M80.3,57.7V20.3H105.4M80.3,57.7V95.2H105.4M30.1,285V537.7H55.2M5,428.8V572.5H30.1M30.1,572.5V557.6H55.2M55.2,557.6V564.2H80.3M30.1,572.5V587.4H55.2M55.2,587.4V577.5H80.3M55.2,587.4V597.4H80.3M80.3,597.4V590.7H105.4M80.3,597.4V604H105.4" stroke="#fc8d59"></path><path d="M105.4,95.2V40.2H130.5M130.5,40.2V33.5H155.6M130.5,40.2V46.8H155.6M105.4,95.2V150.2H130.5M130.5,150.2V66.7H155.6M155.6,66.7V60.1H180.7M155.6,66.7V73.3H180.7M130.5,150.2V233.7H155.6M155.6,233.7V86.6H180.7M155.6,233.7V380.8H180.7M180.7,380.8V507.8H205.8M205.8,507.8V497.9H230.9M205.8,507.8V517.8H230.9M230.9,517.8V511.1H256.1M230.9,517.8V524.4H256.1" stroke="darkgrey"></path><path d="M180.7,380.8V253.8H205.8M205.8,253.8V131.3H230.9M230.9,131.3V109.8H256.1M256.1,109.8V99.9H281.2M256.1,109.8V119.8H281.2M281.2,119.8V113.1H306.3M281.2,119.8V126.4H306.3M230.9,131.3V152.9H256.1M256.1,152.9V139.7H281.2M256.1,152.9V166.1H281.2M281.2,166.1V152.9H306.3M281.2,166.1V179.3H306.3M306.3,179.3V166.2H331.4M306.3,179.3V192.3H331.4M331.4,192.3V179.5H356.5M331.4,192.3V205.2H356.5M356.5,205.2V192.7H381.6M356.5,205.2V217.6H381.6M381.6,217.6V206H406.7M381.6,217.6V229.2H406.7M406.7,229.2V219.3H431.8M406.7,229.2V239.2H431.8M431.8,239.2V232.5H456.9M431.8,239.2V245.8H456.9M205.8,253.8V376.2H230.9M230.9,376.2V295.9H256.1M256.1,295.9V265.7H281.2M281.2,265.7V259.1H306.3M281.2,265.7V272.3H306.3M256.1,295.9V326.2H281.2M281.2,326.2V295.6H306.3M306.3,295.6V285.6H331.4M306.3,295.6V305.5H331.4M331.4,305.5V298.9H356.5M331.4,305.5V312.1H356.5M281.2,326.2V356.8H306.3M306.3,356.8V325.4H331.4M306.3,356.8V388.2H331.4M331.4,388.2V351.5H356.5M356.5,351.5V338.7H381.6M356.5,351.5V364.4H381.6M381.6,364.4V351.9H406.7M381.6,364.4V376.8H406.7M406.7,376.8V365.2H431.8M406.7,376.8V388.4H431.8M431.8,388.4V378.5H456.9M431.8,388.4V398.4H456.9M456.9,398.4V391.7H482M456.9,398.4V405H482M331.4,388.2V424.9H356.5M356.5,424.9V418.3H381.6M356.5,424.9V431.5H381.6M230.9,376.2V456.4H256.1M256.1,456.4V444.8H281.2M256.1,456.4V468H281.2M281.2,468V458.1H306.3M281.2,468V478H306.3M306.3,478V471.3H331.4M306.3,478V484.6H331.4M55.2,557.6V550.9H80.3" stroke="#91bfdb"></path><text x="7" y="431.8" class="node" fill="#4A6FE3">1</text><text x="32.1" y="288" class="node" fill="#4A6FE3">1</text><text x="57.2" y="35.4" class="node" fill="#4A6FE3">1</text><text x="82.3" y="60.7" class="node" fill="#4A6FE3">1</text><text x="107.4" y="98.2" class="node" fill="#4A6FE3">1</text><text x="132.5" y="43.2" class="node" fill="#E6BDC5">0.38</text><text x="132.5" y="153.2" class="node" fill="#4A6FE3">1</text><text x="157.6" y="69.7" class="node" fill="#4A6FE3">1</text><text x="157.6" y="236.7" class="node" fill="#4A6FE3">1</text><text x="182.7" y="383.8" class="node" fill="#9DA8E2">0.75</text><text x="207.8" y="256.8" class="node" fill="#9DA8E2">0.75</text><text x="232.9" y="134.3" class="node" fill="#B4BBE3">0.67</text><text x="258.1" y="112.8" class="node" fill="#B4BBE3">0.67</text><text x="283.2" y="122.8" class="node" fill="#9DA8E2">0.75</text><text x="258.1" y="155.9" class="node" fill="#9DA8E2">0.75</text><text x="283.2" y="169.1" class="node" fill="#B4BBE3">0.67</text><text x="308.3" y="182.3" class="node" fill="#B4BBE3">0.67</text><text x="333.4" y="195.3" class="node" fill="#B4BBE3">0.67</text><text x="358.5" y="208.2" class="node" fill="#B4BBE3">0.67</text><text x="383.6" y="220.6" class="node" fill="#E3DCDD">0.48</text><text x="408.7" y="232.2" class="node" fill="#E5A8B3">0.31</text><text x="433.8" y="242.2" class="node" fill="#4A6FE3">1</text><text x="232.9" y="379.2" class="node" fill="#4A6FE3">1</text><text x="258.1" y="298.9" class="node" fill="#8C9BE1">0.81</text><text x="283.2" y="268.7" class="node" fill="#4A6FE3">1</text><text x="283.2" y="329.2" class="node" fill="#667FE1">0.93</text><text x="308.3" y="298.6" class="node" fill="#A0ABE2">0.74</text><text x="333.4" y="308.5" class="node" fill="#7388E1">0.89</text><text x="308.3" y="359.8" class="node" fill="#4A6FE3">1</text><text x="333.4" y="391.2" class="node" fill="#DD6F88">0.13</text><text x="358.5" y="354.5" class="node" fill="#DD6F88">0.13</text><text x="383.6" y="367.4" class="node" fill="#DD6F88">0.13</text><text x="408.7" y="379.8" class="node" fill="#DD6F88">0.13</text><text x="433.8" y="391.4" class="node" fill="#4A6FE3">1</text><text x="458.9" y="401.4" class="node" fill="#D64F73">0.04</text><text x="358.5" y="427.9" class="node" fill="#4A6FE3">1</text><text x="258.1" y="459.4" class="node" fill="#4A6FE3">1</text><text x="283.2" y="471" class="node" fill="#4A6FE3">1</text><text x="308.3" y="481" class="node" fill="#4A6FE3">1</text><text x="207.8" y="510.8" class="node" fill="#B4BBE3">0.67</text><text x="232.9" y="520.8" class="node" fill="#4A6FE3">1</text><text x="32.1" y="575.5" class="node" fill="#4A6FE3">1</text><text x="57.2" y="560.6" class="node" fill="#4A6FE3">1</text><text x="57.2" y="590.4" class="node" fill="#4A6FE3">1</text><text x="82.3" y="600.4" class="node" fill="#97A4E2">0.77</text></svg>
