<svg xmlns="http://www.w3.org/2000/svg" version="1.1" width="682" height="682" class="tree" data-char="97"><text x="678" y="15.4" text-anchor="end" class="stepsLabel">Character adds <tspan class="score">6</tspan> to tree score</text><text x="678" y="27.8" text-anchor="end" class="stepsLabel"><tspan class="score">0</tspan> additional regions</text><text x="678" y="40.2" text-anchor="end" class="stepsLabel">CI = 0.17; Fitch CI = 0.17; Fitch RI = 0.44</text><text x="678" y="65" text-anchor="end" class="stepsLabel"><tspan dy="16" fill="#34caaf">An optimal tree under:</tspan><tspan x="680" style="font-style:italic" class="thisAn" dy="1.2em">Equal weights</tspan><tspan x="680" style="font-style:italic" class="notThisAn" dy="1.2em">Implied weights, k = 2</tspan><tspan x="680" style="font-style:italic" class="notThisAn" dy="1.2em">IW, k = 3</tspan><tspan x="680" style="font-style:italic" class="notThisAn" dy="1.2em">IW, k = 4.5</tspan><tspan x="680" style="font-style:italic" class="notThisAn" dy="1.2em">IW, k = 7</tspan><tspan x="680" style="font-style:italic" class="notThisAn" dy="1.2em">IW, k = 10.5</tspan><tspan x="680" style="font-style:italic" class="notThisAn" dy="1.2em">IW, k = 16</tspan><tspan x="680" style="font-style:italic" class="notThisAn" dy="1.2em">IW, k = 24</tspan></text><text x="67.2" y="664.4" fill="#fc8d59" class="flag">[0]</text><text x="89.2" y="664.4" fill="#000" class="taxonLabel">Sipunculus</text><text x="67.2" y="677" fill="#fc8d59" class="flag">[0]</text><text x="89.2" y="677" fill="#000" class="taxonLabel">Serpula</text><text x="88" y="639.2" fill="#fc8d59" class="flag">[0]</text><text x="110" y="639.2" fill="#000" class="taxonLabel">Tonicella</text><text x="88" y="651.8" fill="#fc8d59" class="flag">[0]</text><text x="110" y="651.8" fill="#000" class="taxonLabel">Dentalium</text><text x="67.2" y="626.7" fill="#fc8d59" class="flag">[0]</text><text x="89.2" y="626.7" fill="#000" class="taxonLabel">Wiwaxia corrugata</text><text x="316.1" y="601.5" fill="#fc8d59" class="flag">[0]</text><text x="338.1" y="601.5" fill="#000" class="taxonLabel">Micromitra</text><text x="316.1" y="614.1" fill="#fc8d59" class="flag">[0]</text><text x="338.1" y="614.1" fill="#000" class="taxonLabel">Askepasma toddense</text><text x="419.8" y="576.3" fill="#fc8d59" class="flag">[0]</text><text x="441.8" y="576.3" fill="#000" class="taxonLabel">Coolinia pecten</text><text x="419.8" y="588.9" fill="#91bfdb" class="flag">[1]</text><text x="441.8" y="588.9" fill="#000" class="taxonLabel">Antigonambonites planus</text><text x="482" y="551.2" fill="#fc8d59" class="flag">[0]</text><text x="504" y="551.2" fill="#000" class="taxonLabel">Terebratulina</text><text x="482" y="563.7" fill="#91bfdb" class="flag">[1]</text><text x="504" y="563.7" fill="#000" class="taxonLabel">Orthis</text><text x="461.3" y="538.6" fill="#fc8d59" class="flag">[0]</text><text x="483.3" y="538.6" fill="#000" class="taxonLabel">Alisina</text><text x="440.5" y="526" fill="#fc8d59" class="flag">[0]</text><text x="462.5" y="526" fill="#000" class="taxonLabel">Glyptoria</text><text x="440.5" y="500.8" fill="#fc8d59" class="flag">[0]</text><text x="462.5" y="500.8" fill="#000" class="taxonLabel">Nisusia sulcata</text><text x="440.5" y="513.4" fill="#fc8d59" class="flag">[0]</text><text x="462.5" y="513.4" fill="#000" class="taxonLabel">Kutorgina chengjiangensis</text><text x="378.3" y="488.2" fill="#fc8d59" class="flag">[0]</text><text x="400.3" y="488.2" fill="#000" class="taxonLabel">Longtancunella chengjiangensis</text><text x="357.6" y="475.6" fill="grey" class="flag">[?]</text><text x="379.6" y="475.6" fill="#999" class="taxonLabel">Yuganotheca elegans</text><text x="336.8" y="463.1" fill="#fc8d59" class="flag">[0]</text><text x="358.8" y="463.1" fill="#000" class="taxonLabel">Tomteluva perturbata</text><text x="316.1" y="450.5" fill="#fc8d59" class="flag">[0]</text><text x="338.1" y="450.5" fill="#000" class="taxonLabel">Salanygolina</text><text x="378.3" y="425.3" fill="#91bfdb" class="flag">[1]</text><text x="400.3" y="425.3" fill="#000" class="taxonLabel">Novocrania</text><text x="378.3" y="437.9" fill="#fc8d59" class="flag">[0]</text><text x="400.3" y="437.9" fill="#000" class="taxonLabel">Craniops</text><text x="357.6" y="412.7" fill="#fc8d59" class="flag">[0]</text><text x="379.6" y="412.7" fill="#000" class="taxonLabel">Ussunia</text><text x="336.8" y="400.1" fill="#fc8d59" class="flag">[0]</text><text x="358.8" y="400.1" fill="#000" class="taxonLabel">Gasconsia</text><text x="316.1" y="387.5" fill="#91bfdb" class="flag">[1]</text><text x="338.1" y="387.5" fill="#000" class="taxonLabel">Heliomedusa orienta</text><text x="399" y="362.4" fill="grey" class="flag">[?]</text><text x="421" y="362.4" fill="#999" class="taxonLabel">Acanthotretella spinosa</text><text x="399" y="375" fill="#91bfdb" class="flag">[1]</text><text x="421" y="375" fill="#000" class="taxonLabel">Siphonobolus priscus</text><text x="482" y="337.2" fill="#fc8d59" class="flag">[0]</text><text x="504" y="337.2" fill="#000" class="taxonLabel">Mummpikia nuda</text><text x="482" y="349.8" fill="#91bfdb" class="flag">[1]</text><text x="504" y="349.8" fill="#000" class="taxonLabel">Lingula</text><text x="461.3" y="324.6" fill="#91bfdb" class="flag">[1]</text><text x="483.3" y="324.6" fill="#000" class="taxonLabel">Eoobolus</text><text x="440.5" y="312" fill="#91bfdb" class="flag">[1]</text><text x="462.5" y="312" fill="#000" class="taxonLabel">Botsfordia</text><text x="419.8" y="299.5" fill="grey" class="flag">[?]</text><text x="441.8" y="299.5" fill="#999" class="taxonLabel">Lingulosacculus</text><text x="399" y="286.9" fill="#91bfdb" class="flag">[1]</text><text x="421" y="286.9" fill="#000" class="taxonLabel">Lingulellotreta malongensis</text><text x="357.6" y="274.3" fill="#91bfdb" class="flag">[1]</text><text x="379.6" y="274.3" fill="#000" class="taxonLabel">Clupeafumosus socialis</text><text x="336.8" y="261.7" fill="#fc8d59" class="flag">[0]</text><text x="358.8" y="261.7" fill="#000" class="taxonLabel">Pelagodiscus atlanticus</text><text x="316.1" y="249.1" fill="#fc8d59" class="flag">[0]</text><text x="338.1" y="249.1" fill="#000" class="taxonLabel">Mickwitzia muralensis</text><text x="253.9" y="236.5" fill="#fc8d59" class="flag">[0]</text><text x="275.9" y="236.5" fill="#000" class="taxonLabel">Micrina</text><text x="357.6" y="211.4" fill="#fc8d59" class="flag">[0]</text><text x="379.6" y="211.4" fill="#000" class="taxonLabel">Pauxillites</text><text x="357.6" y="223.9" fill="#fc8d59" class="flag">[0]</text><text x="379.6" y="223.9" fill="#000" class="taxonLabel">Maxilites</text><text x="336.8" y="198.8" fill="#fc8d59" class="flag">[0]</text><text x="358.8" y="198.8" fill="#000" class="taxonLabel">Haplophrentis carinatus</text><text x="316.1" y="186.2" fill="#fc8d59" class="flag">[0]</text><text x="338.1" y="186.2" fill="#000" class="taxonLabel">Paramicrocornus</text><text x="316.1" y="161" fill="#fc8d59" class="flag">[0]</text><text x="338.1" y="161" fill="#000" class="taxonLabel">Bactrotheca</text><text x="316.1" y="173.6" fill="#fc8d59" class="flag">[0]</text><text x="338.1" y="173.6" fill="#000" class="taxonLabel">Conotheca</text><text x="274.6" y="148.4" fill="#fc8d59" class="flag">[0]</text><text x="296.6" y="148.4" fill="#000" class="taxonLabel">Cupitheca holocyclata</text><text x="253.9" y="135.8" fill="#fc8d59" class="flag">[0]</text><text x="275.9" y="135.8" fill="#000" class="taxonLabel">Pedunculotheca diania</text><text x="212.4" y="123.3" fill="#fc8d59" class="flag">[0]</text><text x="234.4" y="123.3" fill="#000" class="taxonLabel">Paterimitra</text><text x="191.7" y="110.7" fill="#fc8d59" class="flag">[0]</text><text x="213.7" y="110.7" fill="#000" class="taxonLabel">Halkieria evangelista</text><text x="170.9" y="98.1" fill="#fc8d59" class="flag">[0]</text><text x="192.9" y="98.1" fill="#000" class="taxonLabel">Dailyatia</text><text x="150.2" y="85.5" fill="#fc8d59" class="flag">[0]</text><text x="172.2" y="85.5" fill="#000" class="taxonLabel">Eccentrotheca</text><text x="129.4" y="72.9" fill="#fc8d59" class="flag">[0]</text><text x="151.4" y="72.9" fill="#000" class="taxonLabel">Cotyledion tylodes</text><text x="108.7" y="60.3" fill="#fc8d59" class="flag">[0]</text><text x="130.7" y="60.3" fill="#000" class="taxonLabel">Phoronis</text><text x="88" y="47.8" fill="#fc8d59" class="flag">[0]</text><text x="110" y="47.8" fill="#000" class="taxonLabel">Namacalathus</text><text x="88" y="22.6" fill="#fc8d59" class="flag">[0]</text><text x="110" y="22.6" fill="#000" class="taxonLabel">Amathia</text><text x="88" y="35.2" fill="#fc8d59" class="flag">[0]</text><text x="110" y="35.2" fill="#000" class="taxonLabel">Flustra</text><text x="46.5" y="10" fill="#fc8d59" class="flag">[0]</text><text x="68.5" y="10" fill="#000" class="taxonLabel">Loxosomella</text><path d="M5,337.4V24.5H25.7M25.7,24.5V7H46.5M25.7,24.5V42H46.5M46.5,42V25.9H67.2M67.2,25.9V19.6H88M67.2,25.9V32.2H88M46.5,42V58.1H67.2M67.2,58.1V44.8H88M67.2,58.1V71.4H88M88,71.4V57.3H108.7M88,71.4V85.5H108.7M108.7,85.5V69.9H129.4M108.7,85.5V101H129.4M129.4,101V82.5H150.2M129.4,101V119.5H150.2M150.2,119.5V95.1H170.9M150.2,119.5V143.9H170.9M170.9,143.9V107.7H191.7M170.9,143.9V180.2H191.7M191.7,180.2V120.3H212.4M191.7,180.2V240.1H212.4M212.4,240.1V147.6H233.1M233.1,147.6V132.8H253.9M233.1,147.6V162.3H253.9M253.9,162.3V145.4H274.6M253.9,162.3V179.3H274.6M274.6,179.3V164.3H295.3M295.3,164.3V158H316.1M295.3,164.3V170.6H316.1M274.6,179.3V194.2H295.3M295.3,194.2V183.2H316.1M295.3,194.2V205.2H316.1M316.1,205.2V195.8H336.8M316.1,205.2V214.7H336.8M336.8,214.7V208.4H357.6M336.8,214.7V220.9H357.6M212.4,240.1V332.6H233.1M233.1,332.6V233.5H253.9M233.1,332.6V431.7H253.9M253.9,431.7V329.7H274.6M274.6,329.7V263H295.3M295.3,263V246.1H316.1M295.3,263V279.9H316.1M316.1,279.9V258.7H336.8M461.3,340.5V334.2H482M274.6,329.7V396.3H295.3M295.3,396.3V408.1H316.1M316.1,408.1V397.1H336.8M316.1,408.1V419.2H336.8M336.8,419.2V409.7H357.6M336.8,419.2V428.6H357.6M357.6,428.6V434.9H378.3M253.9,431.7V533.6H274.6M274.6,533.6V462.5H295.3M295.3,462.5V447.5H316.1M295.3,462.5V477.5H316.1M316.1,477.5V460.1H336.8M316.1,477.5V495H336.8M336.8,495V472.6H357.6M336.8,495V517.3H357.6M357.6,517.3V485.2H378.3M357.6,517.3V549.3H378.3M378.3,549.3V519H399M399,519V504.1H419.8M419.8,504.1V497.8H440.5M419.8,504.1V510.4H440.5M399,519V534H419.8M419.8,534V523H440.5M419.8,534V545H440.5M440.5,545V535.6H461.3M440.5,545V554.4H461.3M461.3,554.4V548.2H482M378.3,549.3V579.6H399M399,579.6V573.3H419.8M274.6,533.6V604.8H295.3M295.3,604.8V598.5H316.1M295.3,604.8V611.1H316.1M5,337.4V650.4H25.7M25.7,650.4V633.1H46.5M46.5,633.1V623.7H67.2M46.5,633.1V642.5H67.2M67.2,642.5V636.2H88M67.2,642.5V648.8H88M25.7,650.4V667.7H46.5M46.5,667.7V661.4H67.2M46.5,667.7V674H67.2" stroke="#fc8d59"></path><path d="M316.1,279.9V301.1H336.8M336.8,301.1V271.3H357.6M336.8,301.1V330.9H357.6M357.6,330.9V296.1H378.3M378.3,296.1V283.9H399M378.3,296.1V308.3H399M399,308.3V296.5H419.8M399,308.3V320H419.8M419.8,320V309H440.5M419.8,320V331.1H440.5M440.5,331.1V321.6H461.3M440.5,331.1V340.5H461.3M461.3,340.5V346.8H482M357.6,330.9V365.7H378.3M378.3,365.7V359.4H399M378.3,365.7V372H399M295.3,396.3V384.5H316.1M357.6,428.6V422.3H378.3M461.3,554.4V560.7H482M399,579.6V585.9H419.8" stroke="#91bfdb"></path><text x="7" y="340.4" class="node" fill="#4A6FE3">1</text><text x="27.7" y="27.5" class="node" fill="#4A6FE3">1</text><text x="48.5" y="45" class="node" fill="#4A6FE3">1</text><text x="69.2" y="28.9" class="node" fill="#4A6FE3">1</text><text x="69.2" y="61.1" class="node" fill="#4A6FE3">1</text><text x="90" y="74.4" class="node" fill="#E6BDC5">0.38</text><text x="110.7" y="88.5" class="node" fill="#4A6FE3">1</text><text x="131.4" y="104" class="node" fill="#E5A5B1">0.3</text><text x="152.2" y="122.5" class="node" fill="#4A6FE3">1</text><text x="172.9" y="146.9" class="node" fill="#4A6FE3">1</text><text x="193.7" y="183.2" class="node" fill="#4A6FE3">1</text><text x="214.4" y="243.1" class="node" fill="#4A6FE3">1</text><text x="235.1" y="150.6" class="node" fill="#4A6FE3">1</text><text x="255.9" y="165.3" class="node" fill="#4A6FE3">1</text><text x="276.6" y="182.3" class="node" fill="#D7D9E3">0.54</text><text x="297.3" y="167.3" class="node" fill="#4A6FE3">1</text><text x="297.3" y="197.2" class="node" fill="#4A6FE3">1</text><text x="318.1" y="208.2" class="node" fill="#4A6FE3">1</text><text x="338.8" y="217.7" class="node" fill="#4A6FE3">1</text><text x="235.1" y="335.6" class="node" fill="#4A6FE3">1</text><text x="255.9" y="434.7" class="node" fill="#4A6FE3">1</text><text x="276.6" y="332.7" class="node" fill="#4A6FE3">1</text><text x="297.3" y="266" class="node" fill="#4A6FE3">1</text><text x="318.1" y="282.9" class="node" fill="#5F7BE1">0.95</text><text x="338.8" y="304.1" class="node" fill="#4A6FE3">1</text><text x="359.6" y="333.9" class="node" fill="#7388E1">0.89</text><text x="380.3" y="299.1" class="node" fill="#E3DCDD">0.48</text><text x="401" y="311.3" class="node" fill="#DD6C86">0.12</text><text x="421.8" y="323" class="node" fill="#9DA8E2">0.75</text><text x="442.5" y="334.1" class="node" fill="#9DA8E2">0.75</text><text x="463.3" y="343.5" class="node" fill="#E59FAC">0.29</text><text x="380.3" y="368.7" class="node" fill="#4A6FE3">1</text><text x="297.3" y="399.3" class="node" fill="#4A6FE3">1</text><text x="318.1" y="411.1" class="node" fill="#5F7BE1">0.95</text><text x="338.8" y="422.2" class="node" fill="#4A6FE3">1</text><text x="359.6" y="431.6" class="node" fill="#4A6FE3">1</text><text x="276.6" y="536.6" class="node" fill="#4A6FE3">1</text><text x="297.3" y="465.5" class="node" fill="#4A6FE3">1</text><text x="318.1" y="480.5" class="node" fill="#A8B1E2">0.71</text><text x="338.8" y="498" class="node" fill="#E5A5B1">0.3</text><text x="359.6" y="520.3" class="node" fill="#5F7BE1">0.95</text><text x="380.3" y="552.3" class="node" fill="#5F7BE1">0.95</text><text x="401" y="522" class="node" fill="#5F7BE1">0.95</text><text x="421.8" y="507.1" class="node" fill="#D2D4E3">0.57</text><text x="421.8" y="537" class="node" fill="#4A6FE3">1</text><text x="442.5" y="548" class="node" fill="#4A6FE3">1</text><text x="463.3" y="557.4" class="node" fill="#D5D7E3">0.55</text><text x="401" y="582.6" class="node" fill="#4A6FE3">1</text><text x="297.3" y="607.8" class="node" fill="#4A6FE3">1</text><text x="27.7" y="653.4" class="node" fill="#4A6FE3">1</text><text x="48.5" y="636.1" class="node" fill="#4A6FE3">1</text><text x="69.2" y="645.5" class="node" fill="#4A6FE3">1</text><text x="48.5" y="670.7" class="node" fill="#4A6FE3">1</text></svg>
