<svg xmlns="http://www.w3.org/2000/svg" version="1.1" width="682" height="682" class="tree" data-char="149"><text x="678" y="15.6" text-anchor="end" class="stepsLabel">Character adds <tspan class="score">4</tspan> to tree score</text><text x="678" y="28.2" text-anchor="end" class="stepsLabel"><tspan class="score">0</tspan> additional regions</text><text x="678" y="40.8" text-anchor="end" class="stepsLabel">CI = 0.25; Fitch CI = 0.25; Fitch RI = 0.25</text><text x="678" y="66" text-anchor="end" class="stepsLabel"><tspan dy="16" fill="#34caaf">An optimal tree under:</tspan><tspan x="680" style="font-style:italic" class="notThisAn" dy="1.2em">Equal weights</tspan><tspan x="680" style="font-style:italic" class="notThisAn" dy="1.2em">Implied weights, k = 2</tspan><tspan x="680" style="font-style:italic" class="notThisAn" dy="1.2em">IW, k = 3</tspan><tspan x="680" style="font-style:italic" class="notThisAn" dy="1.2em">IW, k = 4.5</tspan><tspan x="680" style="font-style:italic" class="notThisAn" dy="1.2em">IW, k = 7</tspan><tspan x="680" style="font-style:italic" class="notThisAn" dy="1.2em">IW, k = 10.5</tspan><tspan x="680" style="font-style:italic" class="thisAn" dy="1.2em">IW, k = 16</tspan><tspan x="680" style="font-style:italic" class="notThisAn" dy="1.2em">IW, k = 24</tspan></text><text x="95.9" y="664.2" fill="#fc8d59" class="flag">[0]</text><text x="117.9" y="664.2" fill="#000" class="taxonLabel">Tonicella</text><text x="95.9" y="677" fill="#91bfdb" class="flag">[1]</text><text x="117.9" y="677" fill="#000" class="taxonLabel">Dentalium</text><text x="73.1" y="651.3" fill="grey" class="flag">[?]</text><text x="95.1" y="651.3" fill="#999" class="taxonLabel">Wiwaxia corrugata</text><text x="73.1" y="625.7" fill="#91bfdb" class="flag">[1]</text><text x="95.1" y="625.7" fill="#000" class="taxonLabel">Sipunculus</text><text x="73.1" y="638.5" fill="#91bfdb" class="flag">[1]</text><text x="95.1" y="638.5" fill="#000" class="taxonLabel">Serpula</text><text x="368.4" y="587.2" fill="grey" class="flag">[?]</text><text x="390.4" y="587.2" fill="#999" class="taxonLabel">Pauxillites</text><text x="368.4" y="600" fill="grey" class="flag">[?]</text><text x="390.4" y="600" fill="#999" class="taxonLabel">Maxilites</text><text x="345.7" y="574.4" fill="grey" class="flag">[?]</text><text x="367.7" y="574.4" fill="#999" class="taxonLabel">Haplophrentis carinatus</text><text x="323" y="561.6" fill="grey" class="flag">[?]</text><text x="345" y="561.6" fill="#999" class="taxonLabel">Paramicrocornus</text><text x="300.3" y="548.7" fill="grey" class="flag">[?]</text><text x="322.3" y="548.7" fill="#999" class="taxonLabel">Conotheca</text><text x="277.6" y="535.9" fill="grey" class="flag">[?]</text><text x="299.6" y="535.9" fill="#999" class="taxonLabel">Bactrotheca</text><text x="254.9" y="523.1" fill="grey" class="flag">[?]</text><text x="276.9" y="523.1" fill="#999" class="taxonLabel">Pedunculotheca diania</text><text x="323" y="497.4" fill="grey" class="flag">[?]</text><text x="345" y="497.4" fill="#999" class="taxonLabel">Askepasma toddense</text><text x="323" y="510.2" fill="grey" class="flag">[?]</text><text x="345" y="510.2" fill="#999" class="taxonLabel">Micromitra</text><text x="368.4" y="471.8" fill="grey" class="flag">[?]</text><text x="390.4" y="471.8" fill="#999" class="taxonLabel">Yuganotheca elegans</text><text x="368.4" y="484.6" fill="grey" class="flag">[?]</text><text x="390.4" y="484.6" fill="#999" class="taxonLabel">Tomteluva perturbata</text><text x="345.7" y="458.9" fill="grey" class="flag">[?]</text><text x="367.7" y="458.9" fill="#999" class="taxonLabel">Salanygolina</text><text x="391.1" y="433.3" fill="grey" class="flag">[?]</text><text x="413.1" y="433.3" fill="#999" class="taxonLabel">Antigonambonites planus</text><text x="391.1" y="446.1" fill="grey" class="flag">[?]</text><text x="413.1" y="446.1" fill="#999" class="taxonLabel">Coolinia pecten</text><text x="482" y="407.6" fill="grey" class="flag">[?]</text><text x="504" y="407.6" fill="#999" class="taxonLabel">Orthis</text><text x="482" y="420.5" fill="#fc8d59" class="flag">[0]</text><text x="504" y="420.5" fill="#000" class="taxonLabel">Terebratulina</text><text x="459.3" y="394.8" fill="grey" class="flag">[?]</text><text x="481.3" y="394.8" fill="#999" class="taxonLabel">Alisina</text><text x="436.6" y="382" fill="grey" class="flag">[?]</text><text x="458.6" y="382" fill="#999" class="taxonLabel">Glyptoria</text><text x="413.9" y="369.2" fill="grey" class="flag">[?]</text><text x="435.9" y="369.2" fill="#999" class="taxonLabel">Nisusia sulcata</text><text x="391.1" y="356.3" fill="grey" class="flag">[?]</text><text x="413.1" y="356.3" fill="#999" class="taxonLabel">Kutorgina chengjiangensis</text><text x="345.7" y="343.5" fill="grey" class="flag">[?]</text><text x="367.7" y="343.5" fill="#999" class="taxonLabel">Longtancunella chengjiangensis</text><text x="391.1" y="317.8" fill="grey" class="flag">[?]</text><text x="413.1" y="317.8" fill="#999" class="taxonLabel">Craniops</text><text x="391.1" y="330.7" fill="#91bfdb" class="flag">[1]</text><text x="413.1" y="330.7" fill="#000" class="taxonLabel">Novocrania</text><text x="368.4" y="305" fill="grey" class="flag">[?]</text><text x="390.4" y="305" fill="#999" class="taxonLabel">Ussunia</text><text x="345.7" y="292.2" fill="grey" class="flag">[?]</text><text x="367.7" y="292.2" fill="#999" class="taxonLabel">Heliomedusa orienta</text><text x="323" y="279.4" fill="grey" class="flag">[?]</text><text x="345" y="279.4" fill="#999" class="taxonLabel">Gasconsia</text><text x="345.7" y="253.7" fill="#fc8d59" class="flag">[0]</text><text x="367.7" y="253.7" fill="#000" class="taxonLabel">Pelagodiscus atlanticus</text><text x="345.7" y="266.5" fill="grey" class="flag">[?]</text><text x="367.7" y="266.5" fill="#999" class="taxonLabel">Mickwitzia muralensis</text><text x="391.1" y="228.1" fill="grey" class="flag">[?]</text><text x="413.1" y="228.1" fill="#999" class="taxonLabel">Mummpikia nuda</text><text x="391.1" y="240.9" fill="grey" class="flag">[?]</text><text x="413.1" y="240.9" fill="#999" class="taxonLabel">Botsfordia</text><text x="368.4" y="215.2" fill="grey" class="flag">[?]</text><text x="390.4" y="215.2" fill="#999" class="taxonLabel">Eoobolus</text><text x="391.1" y="189.6" fill="grey" class="flag">[?]</text><text x="413.1" y="189.6" fill="#999" class="taxonLabel">Lingulellotreta malongensis</text><text x="391.1" y="202.4" fill="#91bfdb" class="flag">[1]</text><text x="413.1" y="202.4" fill="#000" class="taxonLabel">Lingula</text><text x="436.6" y="163.9" fill="grey" class="flag">[?]</text><text x="458.6" y="163.9" fill="#999" class="taxonLabel">Acanthotretella spinosa</text><text x="436.6" y="176.8" fill="grey" class="flag">[?]</text><text x="458.6" y="176.8" fill="#999" class="taxonLabel">Siphonobolus priscus</text><text x="413.9" y="151.1" fill="grey" class="flag">[?]</text><text x="435.9" y="151.1" fill="#999" class="taxonLabel">Clupeafumosus socialis</text><text x="391.1" y="138.3" fill="grey" class="flag">[?]</text><text x="413.1" y="138.3" fill="#999" class="taxonLabel">Lingulosacculus</text><text x="254.9" y="125.4" fill="grey" class="flag">[?]</text><text x="276.9" y="125.4" fill="#999" class="taxonLabel">Micrina</text><text x="209.4" y="112.6" fill="grey" class="flag">[?]</text><text x="231.4" y="112.6" fill="#999" class="taxonLabel">Paterimitra</text><text x="186.7" y="99.8" fill="grey" class="flag">[?]</text><text x="208.7" y="99.8" fill="#999" class="taxonLabel">Halkieria evangelista</text><text x="164" y="87" fill="grey" class="flag">[?]</text><text x="186" y="87" fill="#999" class="taxonLabel">Dailyatia</text><text x="164" y="61.3" fill="grey" class="flag">[?]</text><text x="186" y="61.3" fill="#999" class="taxonLabel">Eccentrotheca</text><text x="164" y="74.1" fill="grey" class="flag">[?]</text><text x="186" y="74.1" fill="#999" class="taxonLabel">Cotyledion tylodes</text><text x="118.6" y="48.5" fill="grey" class="flag">[?]</text><text x="140.6" y="48.5" fill="#999" class="taxonLabel">Namacalathus</text><text x="95.9" y="35.7" fill="#91bfdb" class="flag">[1]</text><text x="117.9" y="35.7" fill="#000" class="taxonLabel">Phoronis</text><text x="95.9" y="10" fill="#fc8d59" class="flag">[0]</text><text x="117.9" y="10" fill="#000" class="taxonLabel">Flustra</text><text x="95.9" y="22.8" fill="#fc8d59" class="flag">[0]</text><text x="117.9" y="22.8" fill="#000" class="taxonLabel">Amathia</text><text x="50.4" y="612.9" fill="#91bfdb" class="flag">[1]</text><text x="72.4" y="612.9" fill="#000" class="taxonLabel">Loxosomella</text><path d="M5,482.4V321.2H27.7M27.7,321.2V32.6H50.4M50.4,32.6V51.8H73.1M73.1,51.8V32.7H95.9M73.1,51.8V71H95.9M95.9,71V45.5H118.6M95.9,71V96.5H118.6M118.6,96.5V64.7H141.3M141.3,64.7V58.3H164M141.3,64.7V71.1H164M118.6,96.5V128.2H141.3M141.3,128.2V84H164M141.3,128.2V172.4H164M164,172.4V96.8H186.7M164,172.4V248.1H186.7M186.7,248.1V109.6H209.4M186.7,248.1V386.6H209.4M209.4,386.6V240.5H232.1M232.1,240.5V122.4H254.9M232.1,240.5V358.5H254.9M254.9,358.5V257.4H277.6M277.6,257.4V226.5H300.3M300.3,226.5V195.8H323M323,195.8V169.7H345.7M345.7,169.7V146.5H368.4M368.4,146.5V135.3H391.1M368.4,146.5V157.7H391.1M391.1,157.7V148.1H413.9M391.1,157.7V167.3H413.9M413.9,167.3V160.9H436.6M413.9,167.3V173.8H436.6M345.7,169.7V193H368.4M368.4,193V186.6H391.1M368.4,193V199.4H391.1M323,195.8V221.9H345.7M345.7,221.9V212.2H368.4M345.7,221.9V231.5H368.4M368.4,231.5V225.1H391.1M368.4,231.5V237.9H391.1M300.3,226.5V257.1H323M277.6,257.4V288.4H300.3M300.3,288.4V276.4H323M300.3,288.4V300.4H323M323,300.4V289.2H345.7M323,300.4V311.6H345.7M345.7,311.6V302H368.4M345.7,311.6V321.3H368.4M368.4,321.3V314.8H391.1M368.4,321.3V327.7H391.1M254.9,358.5V459.5H277.6M209.4,386.6V532.7H232.1M232.1,532.7V520.1H254.9M232.1,532.7V545.3H254.9M254.9,545.3V532.9H277.6M254.9,545.3V557.8H277.6M277.6,557.8V545.7H300.3M277.6,557.8V569.8H300.3M300.3,569.8V558.6H323M300.3,569.8V581H323M323,581V571.4H345.7M323,581V590.6H345.7M345.7,590.6V584.2H368.4M345.7,590.6V597H368.4M27.7,321.2V609.9H50.4M5,482.4V643.5H27.7M27.7,643.5V629.1H50.4M50.4,629.1V622.7H73.1M50.4,629.1V635.5H73.1M27.7,643.5V658H50.4M50.4,658V648.3H73.1M50.4,658V667.6H73.1M73.1,667.6V674H95.9" stroke="#91bfdb"></path><path d="M50.4,32.6V13.4H73.1M73.1,13.4V7H95.9M73.1,13.4V19.8H95.9M323,257.1V250.7H345.7M459.3,411V417.5H482M73.1,667.6V661.2H95.9" stroke="#fc8d59"></path><path d="M323,257.1V263.5H345.7M277.6,459.5V418.2H300.3M300.3,418.2V370.9H323M323,370.9V340.5H345.7M323,370.9V401.2H345.7M345.7,401.2V365.8H368.4M368.4,365.8V353.3H391.1M368.4,365.8V378.2H391.1M391.1,378.2V366.2H413.9M391.1,378.2V390.2H413.9M413.9,390.2V379H436.6M413.9,390.2V401.4H436.6M436.6,401.4V391.8H459.3M436.6,401.4V411H459.3M459.3,411V404.6H482M345.7,401.2V436.7H368.4M368.4,436.7V430.3H391.1M368.4,436.7V443.1H391.1M300.3,418.2V465.6H323M323,465.6V455.9H345.7M323,465.6V475.2H345.7M345.7,475.2V468.8H368.4M345.7,475.2V481.6H368.4M277.6,459.5V500.8H300.3M300.3,500.8V494.4H323M300.3,500.8V507.2H323" stroke="darkgrey"></path><text x="7" y="485.4" class="node" fill="#4A6FE3">1</text><text x="29.7" y="324.2" class="node" fill="#4A6FE3">1</text><text x="52.4" y="35.6" class="node" fill="#4A6FE3">1</text><text x="75.1" y="16.4" class="node" fill="#4A6FE3">1</text><text x="75.1" y="54.8" class="node" fill="#4A6FE3">1</text><text x="97.9" y="74" class="node" fill="#E59FAC">0.29</text><text x="120.6" y="99.5" class="node" fill="#8998E1">0.82</text><text x="143.3" y="67.7" class="node" fill="#E5A8B3">0.31</text><text x="143.3" y="131.2" class="node" fill="#8998E1">0.82</text><text x="166" y="175.4" class="node" fill="#8998E1">0.82</text><text x="188.7" y="251.1" class="node" fill="#4F72E2">0.99</text><text x="211.4" y="389.6" class="node" fill="#4F72E2">0.99</text><text x="234.1" y="243.5" class="node" fill="#8998E1">0.82</text><text x="256.9" y="361.5" class="node" fill="#DADBE3">0.53</text><text x="279.6" y="260.4" class="node" fill="#E495A5">0.25</text><text x="302.3" y="229.5" class="node" fill="#E495A5">0.25</text><text x="325" y="198.8" class="node" fill="#E49CAA">0.27</text><text x="347.7" y="172.7" class="node" fill="#E6B1BB">0.34</text><text x="370.4" y="149.5" class="node" fill="#97A4E2">0.77</text><text x="393.1" y="160.7" class="node" fill="#E5A5B1">0.3</text><text x="415.9" y="170.3" class="node" fill="#4F72E2">0.99</text><text x="370.4" y="196" class="node" fill="#E6ABB6">0.32</text><text x="347.7" y="224.9" class="node" fill="#E0E0E2">0.51</text><text x="370.4" y="234.5" class="node" fill="#E6ABB6">0.32</text><text x="325" y="260.1" class="node" fill="#E495A5">0.25</text><text x="302.3" y="291.4" class="node" fill="#E5CACE">0.42</text><text x="325" y="303.4" class="node" fill="#8696E1">0.83</text><text x="347.7" y="314.6" class="node" fill="#4A6FE3">1</text><text x="370.4" y="324.3" class="node" fill="#4A6FE3">1</text><text x="279.6" y="462.5" class="node" fill="#E6B7C0">0.36</text><text x="302.3" y="421.2" class="node" fill="#9AA6E2">0.76</text><text x="325" y="373.9" class="node" fill="#E498A7">0.26</text><text x="347.7" y="404.2" class="node" fill="#E5C7CC">0.41</text><text x="370.4" y="368.8" class="node" fill="#E6BDC5">0.38</text><text x="393.1" y="381.2" class="node" fill="#E38C9E">0.22</text><text x="415.9" y="393.2" class="node" fill="#E4D3D6">0.45</text><text x="438.6" y="404.4" class="node" fill="#5B78E2">0.96</text><text x="461.3" y="414" class="node" fill="#BFC4E3">0.63</text><text x="370.4" y="439.7" class="node" fill="#4A6FE3">1</text><text x="325" y="468.6" class="node" fill="#E5C7CC">0.41</text><text x="347.7" y="478.2" class="node" fill="#B9BFE3">0.65</text><text x="302.3" y="503.8" class="node" fill="#CACDE3">0.59</text><text x="234.1" y="535.7" class="node" fill="#4F72E2">0.99</text><text x="256.9" y="548.3" class="node" fill="#8696E1">0.83</text><text x="279.6" y="560.8" class="node" fill="#E495A5">0.25</text><text x="302.3" y="572.8" class="node" fill="#4A6FE3">1</text><text x="325" y="584" class="node" fill="#4A6FE3">1</text><text x="347.7" y="593.6" class="node" fill="#4A6FE3">1</text><text x="29.7" y="646.5" class="node" fill="#4A6FE3">1</text><text x="52.4" y="632.1" class="node" fill="#4A6FE3">1</text><text x="52.4" y="661" class="node" fill="#4A6FE3">1</text><text x="75.1" y="670.6" class="node" fill="#4A6FE3">1</text></svg>
