<svg xmlns="http://www.w3.org/2000/svg" version="1.1" width="682" height="682" class="tree" data-char="223"><text x="678" y="15.4" text-anchor="end" class="stepsLabel">Character adds <tspan class="score">2</tspan> to tree score</text><text x="678" y="27.8" text-anchor="end" class="stepsLabel"><tspan class="score">0</tspan> additional regions</text><text x="678" y="40.2" text-anchor="end" class="stepsLabel">CI = 0.5; Fitch CI = 0.5; Fitch RI = 0</text><text x="678" y="65" text-anchor="end" class="stepsLabel"><tspan dy="16" fill="#34caaf">An optimal tree under:</tspan><tspan x="680" style="font-style:italic" class="notThisAn" dy="1.2em">Equal weights</tspan><tspan x="680" style="font-style:italic" class="notThisAn" dy="1.2em">Implied weights, k = 2</tspan><tspan x="680" style="font-style:italic" class="notThisAn" dy="1.2em">IW, k = 3</tspan><tspan x="680" style="font-style:italic" class="notThisAn" dy="1.2em">IW, k = 4.5</tspan><tspan x="680" style="font-style:italic" class="notThisAn" dy="1.2em">IW, k = 7</tspan><tspan x="680" style="font-style:italic" class="notThisAn" dy="1.2em">IW, k = 10.5</tspan><tspan x="680" style="font-style:italic" class="notThisAn" dy="1.2em">IW, k = 16</tspan><tspan x="680" style="font-style:italic" class="thisAn" dy="1.2em">IW, k = 24</tspan></text><text x="111" y="664.4" fill="#91bfdb" class="flag">[2]</text><text x="133" y="664.4" fill="#000" class="taxonLabel">Tonicella</text><text x="111" y="677" fill="#e2e2a2" class="flag">[1]</text><text x="133" y="677" fill="#000" class="taxonLabel">Dentalium</text><text x="84.5" y="651.8" fill="grey" class="flag">[?]</text><text x="106.5" y="651.8" fill="#999" class="taxonLabel">Wiwaxia corrugata</text><text x="84.5" y="626.7" fill="#91bfdb" class="flag">[2]</text><text x="106.5" y="626.7" fill="#000" class="taxonLabel">Serpula</text><text x="84.5" y="639.2" fill="#91bfdb" class="flag">[2]</text><text x="106.5" y="639.2" fill="#000" class="taxonLabel">Sipunculus</text><text x="455.5" y="601.5" fill="grey" class="flag">[?]</text><text x="477.5" y="601.5" fill="#999" class="taxonLabel">Mummpikia nuda</text><text x="455.5" y="614.1" fill="grey" class="flag">[?]</text><text x="477.5" y="614.1" fill="#999" class="taxonLabel">Eoobolus</text><text x="429" y="588.9" fill="grey" class="flag">[?]</text><text x="451" y="588.9" fill="#999" class="taxonLabel">Botsfordia</text><text x="402.5" y="576.3" fill="grey" class="flag">[?]</text><text x="424.5" y="576.3" fill="#999" class="taxonLabel">Lingulellotreta malongensis</text><text x="455.5" y="551.2" fill="grey" class="flag">[?]</text><text x="477.5" y="551.2" fill="#999" class="taxonLabel">Acanthotretella spinosa</text><text x="455.5" y="563.7" fill="grey" class="flag">[?]</text><text x="477.5" y="563.7" fill="#999" class="taxonLabel">Siphonobolus priscus</text><text x="429" y="538.6" fill="grey" class="flag">[?]</text><text x="451" y="538.6" fill="#999" class="taxonLabel">Clupeafumosus socialis</text><text x="402.5" y="526" fill="grey" class="flag">[?]</text><text x="424.5" y="526" fill="#999" class="taxonLabel">Lingulosacculus</text><text x="349.5" y="513.4" fill="lightgrey" class="flag">[-]</text><text x="371.5" y="513.4" fill="#ccc" class="taxonLabel">Lingula</text><text x="349.5" y="488.2" fill="lightgrey" class="flag">[-]</text><text x="371.5" y="488.2" fill="#ccc" class="taxonLabel">Pelagodiscus atlanticus</text><text x="349.5" y="500.8" fill="grey" class="flag">[?]</text><text x="371.5" y="500.8" fill="#999" class="taxonLabel">Mickwitzia muralensis</text><text x="349.5" y="463.1" fill="lightgrey" class="flag">[-]</text><text x="371.5" y="463.1" fill="#ccc" class="taxonLabel">Novocrania</text><text x="349.5" y="475.6" fill="grey" class="flag">[?]</text><text x="371.5" y="475.6" fill="#999" class="taxonLabel">Heliomedusa orienta</text><text x="323" y="450.5" fill="grey" class="flag">[?]</text><text x="345" y="450.5" fill="#999" class="taxonLabel">Micrina</text><text x="402.5" y="425.3" fill="grey" class="flag">[?]</text><text x="424.5" y="425.3" fill="#999" class="taxonLabel">Nisusia sulcata</text><text x="402.5" y="437.9" fill="grey" class="flag">[?]</text><text x="424.5" y="437.9" fill="#999" class="taxonLabel">Kutorgina chengjiangensis</text><text x="482" y="400.1" fill="lightgrey" class="flag">[-]</text><text x="504" y="400.1" fill="#ccc" class="taxonLabel">Terebratulina</text><text x="482" y="412.7" fill="grey" class="flag">[?]</text><text x="504" y="412.7" fill="#999" class="taxonLabel">Orthis</text><text x="455.5" y="387.5" fill="grey" class="flag">[?]</text><text x="477.5" y="387.5" fill="#999" class="taxonLabel">Alisina</text><text x="429" y="375" fill="grey" class="flag">[?]</text><text x="451" y="375" fill="#999" class="taxonLabel">Glyptoria</text><text x="402.5" y="362.4" fill="grey" class="flag">[?]</text><text x="424.5" y="362.4" fill="#999" class="taxonLabel">Tomteluva perturbata</text><text x="429" y="337.2" fill="grey" class="flag">[?]</text><text x="451" y="337.2" fill="#999" class="taxonLabel">Coolinia pecten</text><text x="429" y="349.8" fill="grey" class="flag">[?]</text><text x="451" y="349.8" fill="#999" class="taxonLabel">Antigonambonites planus</text><text x="402.5" y="324.6" fill="grey" class="flag">[?]</text><text x="424.5" y="324.6" fill="#999" class="taxonLabel">Yuganotheca elegans</text><text x="376" y="312" fill="grey" class="flag">[?]</text><text x="398" y="312" fill="#999" class="taxonLabel">Longtancunella chengjiangensis</text><text x="323" y="299.5" fill="grey" class="flag">[?]</text><text x="345" y="299.5" fill="#999" class="taxonLabel">Salanygolina</text><text x="323" y="274.3" fill="grey" class="flag">[?]</text><text x="345" y="274.3" fill="#999" class="taxonLabel">Askepasma toddense</text><text x="323" y="286.9" fill="grey" class="flag">[?]</text><text x="345" y="286.9" fill="#999" class="taxonLabel">Micromitra</text><text x="376" y="249.1" fill="grey" class="flag">[?]</text><text x="398" y="249.1" fill="#999" class="taxonLabel">Bactrotheca</text><text x="376" y="261.7" fill="grey" class="flag">[?]</text><text x="398" y="261.7" fill="#999" class="taxonLabel">Conotheca</text><text x="429" y="223.9" fill="grey" class="flag">[?]</text><text x="451" y="223.9" fill="#999" class="taxonLabel">Pauxillites</text><text x="429" y="236.5" fill="grey" class="flag">[?]</text><text x="451" y="236.5" fill="#999" class="taxonLabel">Maxilites</text><text x="402.5" y="211.4" fill="grey" class="flag">[?]</text><text x="424.5" y="211.4" fill="#999" class="taxonLabel">Haplophrentis carinatus</text><text x="376" y="198.8" fill="grey" class="flag">[?]</text><text x="398" y="198.8" fill="#999" class="taxonLabel">Paramicrocornus</text><text x="323" y="186.2" fill="grey" class="flag">[?]</text><text x="345" y="186.2" fill="#999" class="taxonLabel">Cupitheca holocyclata</text><text x="296.5" y="173.6" fill="grey" class="flag">[?]</text><text x="318.5" y="173.6" fill="#999" class="taxonLabel">Pedunculotheca diania</text><text x="270" y="161" fill="grey" class="flag">[?]</text><text x="292" y="161" fill="#999" class="taxonLabel">Paterimitra</text><text x="217" y="148.4" fill="grey" class="flag">[?]</text><text x="239" y="148.4" fill="#999" class="taxonLabel">Gasconsia</text><text x="217" y="123.3" fill="grey" class="flag">[?]</text><text x="239" y="123.3" fill="#999" class="taxonLabel">Ussunia</text><text x="217" y="135.8" fill="grey" class="flag">[?]</text><text x="239" y="135.8" fill="#999" class="taxonLabel">Craniops</text><text x="164" y="110.7" fill="grey" class="flag">[?]</text><text x="186" y="110.7" fill="#999" class="taxonLabel">Halkieria evangelista</text><text x="190.5" y="85.5" fill="grey" class="flag">[?]</text><text x="212.5" y="85.5" fill="#999" class="taxonLabel">Eccentrotheca</text><text x="190.5" y="98.1" fill="grey" class="flag">[?]</text><text x="212.5" y="98.1" fill="#999" class="taxonLabel">Cotyledion tylodes</text><text x="164" y="72.9" fill="grey" class="flag">[?]</text><text x="186" y="72.9" fill="#999" class="taxonLabel">Dailyatia</text><text x="137.5" y="47.8" fill="#91bfdb" class="flag">[2]</text><text x="159.5" y="47.8" fill="#000" class="taxonLabel">Phoronis</text><text x="137.5" y="60.3" fill="grey" class="flag">[?]</text><text x="159.5" y="60.3" fill="#999" class="taxonLabel">Namacalathus</text><text x="111" y="22.6" fill="#91bfdb" class="flag">[2]</text><text x="133" y="22.6" fill="#000" class="taxonLabel">Amathia</text><text x="111" y="35.2" fill="#e2e2a2" class="flag">[1]</text><text x="133" y="35.2" fill="#000" class="taxonLabel">Flustra</text><text x="58" y="10" fill="#91bfdb" class="flag">[2]</text><text x="80" y="10" fill="#000" class="taxonLabel">Loxosomella</text><path d="M5,337.1V30H31.5M31.5,30V7H58M31.5,30V53H58M58,53V25.9H84.5M84.5,25.9V19.6H111M58,53V80.1H84.5M84.5,80.1V51H111M111,51V44.8H137.5M111,51V57.3H137.5M84.5,80.1V109.2H111M111,109.2V79.4H137.5M137.5,79.4V69.9H164M137.5,79.4V88.8H164M164,88.8V82.5H190.5M164,88.8V95.1H190.5M111,109.2V139.1H137.5M137.5,139.1V107.7H164M137.5,139.1V170.5H164M164,170.5V126.6H190.5M190.5,126.6V120.3H217M190.5,126.6V132.8H217M164,170.5V214.5H190.5M190.5,214.5V145.4H217M190.5,214.5V283.6H217M217,283.6V173.3H243.5M243.5,173.3V158H270M243.5,173.3V188.5H270M270,188.5V170.6H296.5M270,188.5V206.4H296.5M296.5,206.4V183.2H323M296.5,206.4V229.6H323M323,229.6V206.8H349.5M349.5,206.8V195.8H376M349.5,206.8V217.8H376M376,217.8V208.4H402.5M376,217.8V227.2H402.5M402.5,227.2V220.9H429M402.5,227.2V233.5H429M323,229.6V252.4H349.5M349.5,252.4V246.1H376M349.5,252.4V258.7H376M5,337.1V644.1H31.5M31.5,644.1V630H58M58,630V623.7H84.5M58,630V636.2H84.5M31.5,644.1V658.3H58M58,658.3V648.8H84.5M58,658.3V667.7H84.5M84.5,667.7V661.4H111" stroke="#91bfdb"></path><path d="M84.5,25.9V32.2H111M84.5,667.7V674H111" stroke="#e2e2a2"></path><path d="M217,283.6V394H243.5M243.5,394V302.9H270M270,302.9V277.6H296.5M296.5,277.6V271.3H323M296.5,277.6V283.9H323M270,302.9V328.2H296.5M296.5,328.2V296.5H323M296.5,328.2V360H323M323,360V320H349.5M349.5,320V309H376M349.5,320V331.1H376M376,331.1V321.6H402.5M376,331.1V340.5H402.5M402.5,340.5V334.2H429M402.5,340.5V346.8H429M323,360V399.9H349.5M349.5,399.9V371.2H376M376,371.2V359.4H402.5M376,371.2V383H402.5M402.5,383V372H429M402.5,383V394H429M429,394V384.5H455.5M429,394V403.4H455.5M455.5,403.4V397.1H482M455.5,403.4V409.7H482M349.5,399.9V428.6H376M376,428.6V422.3H402.5M376,428.6V434.9H402.5M243.5,394V485H270M270,485V456.9H296.5M296.5,456.9V447.5H323M296.5,456.9V466.3H323M323,466.3V460.1H349.5M323,466.3V472.6H349.5M270,485V513.1H296.5M296.5,513.1V491.5H323M323,491.5V485.2H349.5M323,491.5V497.8H349.5M296.5,513.1V534.8H323M323,534.8V510.4H349.5M323,534.8V559.2H349.5M349.5,559.2V534H376M376,534V523H402.5M376,534V545H402.5M402.5,545V535.6H429M402.5,545V554.4H429M429,554.4V548.2H455.5M429,554.4V560.7H455.5M349.5,559.2V584.3H376M376,584.3V573.3H402.5M376,584.3V595.3H402.5M402.5,595.3V585.9H429M402.5,595.3V604.8H429M429,604.8V598.5H455.5M429,604.8V611.1H455.5" stroke="lightgrey" class="inapplicable"></path><text x="7" y="340.1" class="node" fill="#4A6FE3">1</text><text x="33.5" y="33" class="node" fill="#4A6FE3">1</text><text x="60" y="56" class="node" fill="#4A6FE3">1</text><text x="86.5" y="28.9" class="node" fill="#4A6FE3">1</text><text x="86.5" y="83.1" class="node" fill="#4A6FE3">1</text><text x="113" y="54" class="node" fill="#E6C1C7">0.39</text><text x="113" y="112.2" class="node" fill="#7388E1">0.89</text><text x="139.5" y="82.4" class="node" fill="#DB6581">0.1</text><text x="166" y="91.8" class="node" fill="#E59FAC">0.29</text><text x="139.5" y="142.1" class="node" fill="#7388E1">0.89</text><text x="166" y="173.5" class="node" fill="#7388E1">0.89</text><text x="192.5" y="129.6" class="node" fill="#E17F94">0.18</text><text x="192.5" y="217.5" class="node" fill="#E17F94">0.18</text><text x="219" y="286.6" class="node" fill="#E17F94">0.18</text><text x="245.5" y="176.3" class="node" fill="#E17F94">0.18</text><text x="272" y="191.5" class="node" fill="#7388E1">0.89</text><text x="298.5" y="209.4" class="node" fill="#7388E1">0.89</text><text x="325" y="232.6" class="node" fill="#D2D4E3">0.57</text><text x="351.5" y="209.8" class="node" fill="#4A6FE3">1</text><text x="378" y="220.8" class="node" fill="#4A6FE3">1</text><text x="404.5" y="230.2" class="node" fill="#4A6FE3">1</text><text x="351.5" y="255.4" class="node" fill="#667FE1">0.93</text><text x="245.5" y="397" class="node" fill="#E17F94">0.18</text><text x="272" y="305.9" class="node" fill="#9AA6E2">0.76</text><text x="298.5" y="280.6" class="node" fill="#768BE1">0.88</text><text x="298.5" y="331.2" class="node" fill="#7A8DE1">0.87</text><text x="325" y="363" class="node" fill="#BCC2E3">0.64</text><text x="351.5" y="323" class="node" fill="#E6BAC2">0.37</text><text x="378" y="334.1" class="node" fill="#E6BAC2">0.37</text><text x="404.5" y="343.5" class="node" fill="#4A6FE3">1</text><text x="351.5" y="402.9" class="node" fill="#E6BAC2">0.37</text><text x="378" y="374.2" class="node" fill="#E6BAC2">0.37</text><text x="404.5" y="386" class="node" fill="#9AA6E2">0.76</text><text x="431" y="397" class="node" fill="#4A6FE3">1</text><text x="457.5" y="406.4" class="node" fill="#8C9BE1">0.81</text><text x="378" y="431.6" class="node" fill="#8998E1">0.82</text><text x="272" y="488" class="node" fill="#E17F94">0.18</text><text x="298.5" y="459.9" class="node" fill="#E17F94">0.18</text><text x="325" y="469.3" class="node" fill="#E17F94">0.18</text><text x="298.5" y="516.1" class="node" fill="#7A8DE1">0.87</text><text x="325" y="494.5" class="node" fill="#E6BAC2">0.37</text><text x="325" y="537.8" class="node" fill="#9AA6E2">0.76</text><text x="351.5" y="562.2" class="node" fill="#E38C9E">0.22</text><text x="378" y="537" class="node" fill="#DDDEE3">0.52</text><text x="404.5" y="548" class="node" fill="#DE728B">0.14</text><text x="431" y="557.4" class="node" fill="#4A6FE3">1</text><text x="378" y="587.3" class="node" fill="#E6ABB6">0.32</text><text x="404.5" y="598.3" class="node" fill="#D2D4E3">0.57</text><text x="431" y="607.8" class="node" fill="#E4D6D8">0.46</text><text x="33.5" y="647.1" class="node" fill="#4A6FE3">1</text><text x="60" y="633" class="node" fill="#4A6FE3">1</text><text x="60" y="661.3" class="node" fill="#4A6FE3">1</text><text x="86.5" y="670.7" class="node" fill="#4A6FE3">1</text></svg>
