<svg xmlns="http://www.w3.org/2000/svg" version="1.1" width="682" height="612" class="tree" data-char="90"><text x="678" y="16" text-anchor="end" class="stepsLabel">Character adds <tspan class="score">2</tspan> to tree score</text><text x="678" y="29" text-anchor="end" class="stepsLabel"><tspan class="score">1</tspan> additional region</text><text x="678" y="42" text-anchor="end" class="stepsLabel">CI = 0.5; Fitch CI = 1; Fitch RI = 1</text><text x="678" y="68" text-anchor="end" class="stepsLabel"><tspan dy="16">An optimal tree under:</tspan><tspan x="680" style="font-style:italic" class="notThisAn" dy="1.2em">Equal weights</tspan><tspan x="680" style="font-style:italic" class="notThisAn" dy="1.2em">Implied weights, k = 2</tspan><tspan x="680" style="font-style:italic" class="thisAn" dy="1.2em">IW, k = 3</tspan><tspan x="680" style="font-style:italic" class="notThisAn" dy="1.2em">IW, k = 4.5</tspan><tspan x="680" style="font-style:italic" class="notThisAn" dy="1.2em">IW, k = 7</tspan><tspan x="680" style="font-style:italic" class="notThisAn" dy="1.2em">IW, k = 10.5</tspan><tspan x="680" style="font-style:italic" class="notThisAn" dy="1.2em">IW, k = 16</tspan><tspan x="680" style="font-style:italic" class="notThisAn" dy="1.2em">IW, k = 24</tspan></text><text x="91.7" y="593.7" fill="#91bfdb" class="flag">[2]</text><text x="113.7" y="593.7" fill="#000" class="taxonLabel">Tonicella</text><text x="91.7" y="607" fill="lightgrey" class="flag">[-]</text><text x="113.7" y="607" fill="lightgrey" class="taxonLabel">Wiwaxia corrugata</text><text x="70" y="580.5" fill="lightgrey" class="flag">[-]</text><text x="92" y="580.5" fill="lightgrey" class="taxonLabel">Dentalium</text><text x="70" y="553.9" fill="lightgrey" class="flag">[-]</text><text x="92" y="553.9" fill="lightgrey" class="taxonLabel">Sipunculus</text><text x="70" y="567.2" fill="lightgrey" class="flag">[-]</text><text x="92" y="567.2" fill="lightgrey" class="taxonLabel">Serpula</text><text x="286.9" y="514.1" fill="#91bfdb" class="flag">[2]</text><text x="308.9" y="514.1" fill="#000" class="taxonLabel">Haplophrentis carinatus</text><text x="286.9" y="527.4" fill="#91bfdb" class="flag">[2]</text><text x="308.9" y="527.4" fill="#000" class="taxonLabel">Pedunculotheca diania</text><text x="482" y="487.6" fill="#91bfdb" class="flag">[2]</text><text x="504" y="487.6" fill="#000" class="taxonLabel">Terebratulina</text><text x="482" y="500.9" fill="#91bfdb" class="flag">[2]</text><text x="504" y="500.9" fill="#000" class="taxonLabel">Orthis</text><text x="460.3" y="474.3" fill="#91bfdb" class="flag">[2]</text><text x="482.3" y="474.3" fill="#000" class="taxonLabel">Alisina</text><text x="438.6" y="461.1" fill="#91bfdb" class="flag">[2]</text><text x="460.6" y="461.1" fill="#000" class="taxonLabel">Longtancunella chengjiangensis</text><text x="417" y="447.8" fill="#91bfdb" class="flag">[2]</text><text x="439" y="447.8" fill="#000" class="taxonLabel">Glyptoria</text><text x="395.3" y="434.5" fill="#91bfdb" class="flag">[2]</text><text x="417.3" y="434.5" fill="#000" class="taxonLabel">Nisusia sulcata</text><text x="373.6" y="421.3" fill="#91bfdb" class="flag">[2]</text><text x="395.6" y="421.3" fill="#000" class="taxonLabel">Kutorgina chengjiangensis</text><text x="373.6" y="394.7" fill="#91bfdb" class="flag">[2]</text><text x="395.6" y="394.7" fill="#000" class="taxonLabel">Coolinia pecten</text><text x="373.6" y="408" fill="#91bfdb" class="flag">[2]</text><text x="395.6" y="408" fill="#000" class="taxonLabel">Antigonambonites planus</text><text x="373.6" y="368.2" fill="#91bfdb" class="flag">[2]</text><text x="395.6" y="368.2" fill="#000" class="taxonLabel">Tomteluva perturbata</text><text x="373.6" y="381.5" fill="#91bfdb" class="flag">[2]</text><text x="395.6" y="381.5" fill="#000" class="taxonLabel">Yuganotheca elegans</text><text x="351.9" y="354.9" fill="#91bfdb" class="flag">[2]</text><text x="373.9" y="354.9" fill="#000" class="taxonLabel">Salanygolina</text><text x="351.9" y="328.4" fill="#91bfdb" class="flag">[2]</text><text x="373.9" y="328.4" fill="#000" class="taxonLabel">Askepasma toddense</text><text x="351.9" y="341.7" fill="#91bfdb" class="flag">[2]</text><text x="373.9" y="341.7" fill="#000" class="taxonLabel">Micromitra</text><text x="395.3" y="301.9" fill="lightgrey" class="flag">[-]</text><text x="417.3" y="301.9" fill="lightgrey" class="taxonLabel">Craniops</text><text x="395.3" y="315.1" fill="lightgrey" class="flag">[-]</text><text x="417.3" y="315.1" fill="lightgrey" class="taxonLabel">Novocrania</text><text x="373.6" y="288.6" fill="lightgrey" class="flag">[-]</text><text x="395.6" y="288.6" fill="lightgrey" class="taxonLabel">Ussunia</text><text x="351.9" y="275.3" fill="#91bfdb" class="flag">[2]</text><text x="373.9" y="275.3" fill="#000" class="taxonLabel">Gasconsia</text><text x="373.6" y="248.8" fill="#91bfdb" class="flag">[2]</text><text x="395.6" y="248.8" fill="#000" class="taxonLabel">Acanthotretella spinosa</text><text x="373.6" y="262.1" fill="#91bfdb" class="flag">[2]</text><text x="395.6" y="262.1" fill="#000" class="taxonLabel">Siphonobolus priscus</text><text x="395.3" y="222.3" fill="#91bfdb" class="flag">[2]</text><text x="417.3" y="222.3" fill="#000" class="taxonLabel">Lingula</text><text x="395.3" y="235.5" fill="lightgrey" class="flag">[-]</text><text x="417.3" y="235.5" fill="lightgrey" class="taxonLabel">Pelagodiscus atlanticus</text><text x="438.6" y="195.7" fill="#e2e2a2" class="flag">[1]</text><text x="460.6" y="195.7" fill="#000" class="taxonLabel">Mummpikia nuda</text><text x="438.6" y="209" fill="#e2e2a2" class="flag">[1]</text><text x="460.6" y="209" fill="#000" class="taxonLabel">Eoobolus</text><text x="417" y="182.5" fill="#e2e2a2" class="flag">[1]</text><text x="439" y="182.5" fill="#000" class="taxonLabel">Botsfordia</text><text x="395.3" y="169.2" fill="#e2e2a2" class="flag">[1]</text><text x="417.3" y="169.2" fill="#000" class="taxonLabel">Lingulellotreta malongensis</text><text x="330.2" y="155.9" fill="grey" class="flag">[?]</text><text x="352.2" y="155.9" fill="grey" class="taxonLabel">Lingulosacculus</text><text x="308.5" y="142.7" fill="#91bfdb" class="flag">[2]</text><text x="330.5" y="142.7" fill="#000" class="taxonLabel">Clupeafumosus socialis</text><text x="243.5" y="129.4" fill="#91bfdb" class="flag">[2]</text><text x="265.5" y="129.4" fill="#000" class="taxonLabel">Micrina</text><text x="221.8" y="116.1" fill="#91bfdb" class="flag">[2]</text><text x="243.8" y="116.1" fill="#000" class="taxonLabel">Heliomedusa orienta</text><text x="200.1" y="102.9" fill="#91bfdb" class="flag">[2]</text><text x="222.1" y="102.9" fill="#000" class="taxonLabel">Mickwitzia muralensis</text><text x="178.5" y="89.6" fill="#91bfdb" class="flag">[2]</text><text x="200.5" y="89.6" fill="#000" class="taxonLabel">Paterimitra</text><text x="178.5" y="63.1" fill="#91bfdb" class="flag">[2]</text><text x="200.5" y="63.1" fill="#000" class="taxonLabel">Halkieria evangelista</text><text x="178.5" y="76.3" fill="lightgrey" class="flag">[-]</text><text x="200.5" y="76.3" fill="lightgrey" class="taxonLabel">Dailyatia</text><text x="135.1" y="49.8" fill="lightgrey" class="flag">[-]</text><text x="157.1" y="49.8" fill="lightgrey" class="taxonLabel">Cotyledion tylodes</text><text x="113.4" y="36.5" fill="lightgrey" class="flag">[-]</text><text x="135.4" y="36.5" fill="lightgrey" class="taxonLabel">Eccentrotheca</text><text x="91.7" y="23.3" fill="lightgrey" class="flag">[-]</text><text x="113.7" y="23.3" fill="lightgrey" class="taxonLabel">Phoronis</text><text x="70" y="10" fill="lightgrey" class="flag">[-]</text><text x="92" y="10" fill="lightgrey" class="taxonLabel">Flustra</text><text x="48.4" y="540.7" fill="lightgrey" class="flag">[-]</text><text x="70.4" y="540.7" fill="lightgrey" class="taxonLabel">Loxosomella</text><path d="M5,426V279.5H26.7M26.7,279.5V21.3H48.4M48.4,21.3V7H70M48.4,21.3V35.7H70M70,35.7V20.3H91.7M70,35.7V51.1H91.7M91.7,51.1V33.5H113.4M91.7,51.1V68.7H113.4M113.4,68.7V46.8H135.1M156.8,66.7V73.3H178.5M373.6,225.9V232.5H395.3M330.2,283.9V295.6H351.9M351.9,295.6V285.6H373.6M351.9,295.6V305.5H373.6M373.6,305.5V298.9H395.3M373.6,305.5V312.1H395.3M26.7,279.5V537.7H48.4M5,426V572.5H26.7M26.7,572.5V557.6H48.4M48.4,557.6V550.9H70M48.4,557.6V564.2H70M26.7,572.5V587.4H48.4M48.4,587.4V577.5H70M48.4,587.4V597.4H70M70,597.4V604H91.7" stroke="lightgrey" class="inapplicable"></path><path d="M113.4,68.7V90.6H135.1M135.1,90.6V66.7H156.8M156.8,66.7V60.1H178.5M135.1,90.6V114.5H156.8M156.8,114.5V86.6H178.5M156.8,114.5V142.4H178.5M178.5,142.4V99.9H200.1M178.5,142.4V185H200.1M200.1,185V113.1H221.8M200.1,185V256.8H221.8M221.8,256.8V126.4H243.5M221.8,256.8V387.1H243.5M243.5,387.1V256.5H265.2M265.2,256.5V164.9H286.9M286.9,164.9V139.7H308.5M286.9,164.9V190H308.5M308.5,190V152.9H330.2M308.5,190V227.1H330.2M330.2,227.1V201.9H351.9M351.9,201.9V225.9H373.6M373.6,225.9V219.3H395.3M330.2,227.1V252.4H351.9M351.9,252.4V245.8H373.6M351.9,252.4V259.1H373.6M265.2,256.5V348.2H286.9M286.9,348.2V308H308.5M308.5,308V283.9H330.2M330.2,283.9V272.3H351.9M308.5,308V332H330.2M330.2,332V325.4H351.9M330.2,332V338.7H351.9M286.9,348.2V388.4H308.5M308.5,388.4V361.9H330.2M330.2,361.9V351.9H351.9M330.2,361.9V371.8H351.9M351.9,371.8V365.2H373.6M351.9,371.8V378.5H373.6M308.5,388.4V414.8H330.2M330.2,414.8V398.4H351.9M351.9,398.4V391.7H373.6M351.9,398.4V405H373.6M330.2,414.8V431.3H351.9M351.9,431.3V418.3H373.6M351.9,431.3V444.4H373.6M373.6,444.4V431.5H395.3M373.6,444.4V457.2H395.3M395.3,457.2V444.8H417M395.3,457.2V469.7H417M417,469.7V458.1H438.6M417,469.7V481.3H438.6M438.6,481.3V471.3H460.3M438.6,481.3V491.2H460.3M460.3,491.2V484.6H482M460.3,491.2V497.9H482M243.5,387.1V517.8H265.2M265.2,517.8V511.1H286.9M265.2,517.8V524.4H286.9M70,597.4V590.7H91.7" stroke="#91bfdb"></path><path d="M351.9,201.9V177.8H373.6M373.6,177.8V166.2H395.3M373.6,177.8V189.4H395.3M395.3,189.4V179.5H417M395.3,189.4V199.4H417M417,199.4V192.7H438.6M417,199.4V206H438.6" stroke="#e2e2a2"></path><text x="7" y="429" class="node" fill="#4A6FE3">1</text><text x="28.7" y="282.5" class="node" fill="#4A6FE3">1</text><text x="50.4" y="24.3" class="node" fill="#4A6FE3">1</text><text x="72" y="38.7" class="node" fill="#4A6FE3">1</text><text x="93.7" y="54.1" class="node" fill="#4A6FE3">1</text><text x="115.4" y="71.7" class="node" fill="#E5A5B1">0.3</text><text x="137.1" y="93.6" class="node" fill="#4A6FE3">1</text><text x="158.8" y="69.7" class="node" fill="#4A6FE3">1</text><text x="158.8" y="117.5" class="node" fill="#4A6FE3">1</text><text x="180.5" y="145.4" class="node" fill="#E495A5">0.25</text><text x="202.1" y="188" class="node" fill="#E495A5">0.25</text><text x="223.8" y="259.8" class="node" fill="#E495A5">0.25</text><text x="245.5" y="390.1" class="node" fill="#E495A5">0.25</text><text x="267.2" y="259.5" class="node" fill="#E495A5">0.25</text><text x="288.9" y="167.9" class="node" fill="#E495A5">0.25</text><text x="310.5" y="193" class="node" fill="#E495A5">0.25</text><text x="332.2" y="230.1" class="node" fill="#DA5E7D">0.08</text><text x="353.9" y="204.9" class="node" fill="#E495A5">0.25</text><text x="375.6" y="180.8" class="node" fill="#E495A5">0.25</text><text x="397.3" y="192.4" class="node" fill="#E6AEB8">0.33</text><text x="419" y="202.4" class="node" fill="#E495A5">0.25</text><text x="375.6" y="228.9" class="node" fill="#E495A5">0.25</text><text x="353.9" y="255.4" class="node" fill="#4A6FE3">1</text><text x="288.9" y="351.2" class="node" fill="#4A6FE3">1</text><text x="310.5" y="311" class="node" fill="#DD6F88">0.13</text><text x="332.2" y="286.9" class="node" fill="#4A6FE3">1</text><text x="353.9" y="298.6" class="node" fill="#4A6FE3">1</text><text x="375.6" y="308.5" class="node" fill="#4A6FE3">1</text><text x="332.2" y="335" class="node" fill="#4A6FE3">1</text><text x="310.5" y="391.4" class="node" fill="#667FE1">0.93</text><text x="332.2" y="364.9" class="node" fill="#A0ABE2">0.74</text><text x="353.9" y="374.8" class="node" fill="#7388E1">0.89</text><text x="332.2" y="417.8" class="node" fill="#4A6FE3">1</text><text x="353.9" y="401.4" class="node" fill="#4A6FE3">1</text><text x="353.9" y="434.3" class="node" fill="#7A8DE1">0.87</text><text x="375.6" y="447.4" class="node" fill="#7A8DE1">0.87</text><text x="397.3" y="460.2" class="node" fill="#7A8DE1">0.87</text><text x="419" y="472.7" class="node" fill="#7A8DE1">0.87</text><text x="440.6" y="484.3" class="node" fill="#4A6FE3">1</text><text x="462.3" y="494.2" class="node" fill="#5B78E2">0.96</text><text x="267.2" y="520.8" class="node" fill="#4A6FE3">1</text><text x="28.7" y="575.5" class="node" fill="#4A6FE3">1</text><text x="50.4" y="560.6" class="node" fill="#4A6FE3">1</text><text x="50.4" y="590.4" class="node" fill="#4A6FE3">1</text><text x="72" y="600.4" class="node" fill="#97A4E2">0.77</text></svg>
