<svg xmlns="http://www.w3.org/2000/svg" version="1.1" width="682" height="682" class="tree" data-char="154"><text x="678" y="15.4" text-anchor="end" class="stepsLabel">Character adds <tspan class="score">4</tspan> to tree score</text><text x="678" y="27.8" text-anchor="end" class="stepsLabel"><tspan class="score">0</tspan> additional regions</text><text x="678" y="40.2" text-anchor="end" class="stepsLabel">CI = 0.25; Fitch CI = 0.25; Fitch RI = 0.25</text><text x="678" y="65" text-anchor="end" class="stepsLabel"><tspan dy="16" fill="#34caaf">An optimal tree under:</tspan><tspan x="680" style="font-style:italic" class="thisAn" dy="1.2em">Equal weights</tspan><tspan x="680" style="font-style:italic" class="notThisAn" dy="1.2em">Implied weights, k = 3</tspan><tspan x="680" style="font-style:italic" class="notThisAn" dy="1.2em">IW, k = 4.5</tspan><tspan x="680" style="font-style:italic" class="notThisAn" dy="1.2em">IW, k = 7</tspan><tspan x="680" style="font-style:italic" class="thisAn" dy="1.2em">IW, k = 10.5</tspan><tspan x="680" style="font-style:italic" class="thisAn" dy="1.2em">IW, k = 16</tspan><tspan x="680" style="font-style:italic" class="thisAn" dy="1.2em">IW, k = 24</tspan></text><text x="88" y="664.4" fill="#fc8d59" class="flag">[0]</text><text x="110" y="664.4" fill="#000" class="taxonLabel">Tonicella</text><text x="88" y="677" fill="#91bfdb" class="flag">[1]</text><text x="110" y="677" fill="#000" class="taxonLabel">Dentalium</text><text x="67.2" y="651.8" fill="grey" class="flag">[?]</text><text x="89.2" y="651.8" fill="#999" class="taxonLabel">Wiwaxia corrugata</text><text x="67.2" y="626.7" fill="#91bfdb" class="flag">[1]</text><text x="89.2" y="626.7" fill="#000" class="taxonLabel">Serpula</text><text x="67.2" y="639.2" fill="#91bfdb" class="flag">[1]</text><text x="89.2" y="639.2" fill="#000" class="taxonLabel">Sipunculus</text><text x="316.1" y="601.5" fill="grey" class="flag">[?]</text><text x="338.1" y="601.5" fill="#999" class="taxonLabel">Mickwitzia muralensis</text><text x="316.1" y="614.1" fill="grey" class="flag">[?]</text><text x="338.1" y="614.1" fill="#999" class="taxonLabel">Heliomedusa orienta</text><text x="295.3" y="588.9" fill="grey" class="flag">[?]</text><text x="317.3" y="588.9" fill="#999" class="taxonLabel">Micrina</text><text x="336.8" y="563.7" fill="grey" class="flag">[?]</text><text x="358.8" y="563.7" fill="#999" class="taxonLabel">Askepasma toddense</text><text x="336.8" y="576.3" fill="grey" class="flag">[?]</text><text x="358.8" y="576.3" fill="#999" class="taxonLabel">Micromitra</text><text x="399" y="538.6" fill="grey" class="flag">[?]</text><text x="421" y="538.6" fill="#999" class="taxonLabel">Kutorgina chengjiangensis</text><text x="399" y="551.2" fill="grey" class="flag">[?]</text><text x="421" y="551.2" fill="#999" class="taxonLabel">Nisusia sulcata</text><text x="482" y="513.4" fill="#fc8d59" class="flag">[0]</text><text x="504" y="513.4" fill="#000" class="taxonLabel">Terebratulina</text><text x="482" y="526" fill="grey" class="flag">[?]</text><text x="504" y="526" fill="#999" class="taxonLabel">Orthis</text><text x="461.3" y="500.8" fill="grey" class="flag">[?]</text><text x="483.3" y="500.8" fill="#999" class="taxonLabel">Alisina</text><text x="440.5" y="488.2" fill="grey" class="flag">[?]</text><text x="462.5" y="488.2" fill="#999" class="taxonLabel">Longtancunella chengjiangensis</text><text x="419.8" y="475.6" fill="grey" class="flag">[?]</text><text x="441.8" y="475.6" fill="#999" class="taxonLabel">Glyptoria</text><text x="399" y="463.1" fill="grey" class="flag">[?]</text><text x="421" y="463.1" fill="#999" class="taxonLabel">Tomteluva perturbata</text><text x="378.3" y="437.9" fill="grey" class="flag">[?]</text><text x="400.3" y="437.9" fill="#999" class="taxonLabel">Antigonambonites planus</text><text x="378.3" y="450.5" fill="grey" class="flag">[?]</text><text x="400.3" y="450.5" fill="#999" class="taxonLabel">Coolinia pecten</text><text x="336.8" y="425.3" fill="grey" class="flag">[?]</text><text x="358.8" y="425.3" fill="#999" class="taxonLabel">Salanygolina</text><text x="482" y="400.1" fill="grey" class="flag">[?]</text><text x="504" y="400.1" fill="#999" class="taxonLabel">Siphonobolus priscus</text><text x="482" y="412.7" fill="grey" class="flag">[?]</text><text x="504" y="412.7" fill="#999" class="taxonLabel">Acanthotretella spinosa</text><text x="461.3" y="387.5" fill="grey" class="flag">[?]</text><text x="483.3" y="387.5" fill="#999" class="taxonLabel">Lingulosacculus</text><text x="440.5" y="375" fill="grey" class="flag">[?]</text><text x="462.5" y="375" fill="#999" class="taxonLabel">Clupeafumosus socialis</text><text x="419.8" y="362.4" fill="grey" class="flag">[?]</text><text x="441.8" y="362.4" fill="#999" class="taxonLabel">Lingulellotreta malongensis</text><text x="419.8" y="337.2" fill="grey" class="flag">[?]</text><text x="441.8" y="337.2" fill="#999" class="taxonLabel">Mummpikia nuda</text><text x="419.8" y="349.8" fill="#fc8d59" class="flag">[0]</text><text x="441.8" y="349.8" fill="#000" class="taxonLabel">Pelagodiscus atlanticus</text><text x="378.3" y="324.6" fill="grey" class="flag">[?]</text><text x="400.3" y="324.6" fill="#999" class="taxonLabel">Botsfordia</text><text x="357.6" y="312" fill="grey" class="flag">[?]</text><text x="379.6" y="312" fill="#999" class="taxonLabel">Eoobolus</text><text x="336.8" y="299.5" fill="#91bfdb" class="flag">[1]</text><text x="358.8" y="299.5" fill="#000" class="taxonLabel">Lingula</text><text x="378.3" y="274.3" fill="#91bfdb" class="flag">[1]</text><text x="400.3" y="274.3" fill="#000" class="taxonLabel">Novocrania</text><text x="378.3" y="286.9" fill="grey" class="flag">[?]</text><text x="400.3" y="286.9" fill="#999" class="taxonLabel">Craniops</text><text x="357.6" y="261.7" fill="grey" class="flag">[?]</text><text x="379.6" y="261.7" fill="#999" class="taxonLabel">Ussunia</text><text x="336.8" y="249.1" fill="grey" class="flag">[?]</text><text x="358.8" y="249.1" fill="#999" class="taxonLabel">Gasconsia</text><text x="253.9" y="236.5" fill="grey" class="flag">[?]</text><text x="275.9" y="236.5" fill="#999" class="taxonLabel">Yuganotheca elegans</text><text x="316.1" y="211.4" fill="grey" class="flag">[?]</text><text x="338.1" y="211.4" fill="#999" class="taxonLabel">Bactrotheca</text><text x="316.1" y="223.9" fill="grey" class="flag">[?]</text><text x="338.1" y="223.9" fill="#999" class="taxonLabel">Conotheca</text><text x="295.3" y="198.8" fill="grey" class="flag">[?]</text><text x="317.3" y="198.8" fill="#999" class="taxonLabel">Cupitheca holocyclata</text><text x="336.8" y="173.6" fill="grey" class="flag">[?]</text><text x="358.8" y="173.6" fill="#999" class="taxonLabel">Pauxillites</text><text x="336.8" y="186.2" fill="grey" class="flag">[?]</text><text x="358.8" y="186.2" fill="#999" class="taxonLabel">Maxilites</text><text x="316.1" y="161" fill="grey" class="flag">[?]</text><text x="338.1" y="161" fill="#999" class="taxonLabel">Haplophrentis carinatus</text><text x="295.3" y="148.4" fill="grey" class="flag">[?]</text><text x="317.3" y="148.4" fill="#999" class="taxonLabel">Paramicrocornus</text><text x="253.9" y="135.8" fill="grey" class="flag">[?]</text><text x="275.9" y="135.8" fill="#999" class="taxonLabel">Pedunculotheca diania</text><text x="212.4" y="123.3" fill="grey" class="flag">[?]</text><text x="234.4" y="123.3" fill="#999" class="taxonLabel">Paterimitra</text><text x="191.7" y="110.7" fill="grey" class="flag">[?]</text><text x="213.7" y="110.7" fill="#999" class="taxonLabel">Halkieria evangelista</text><text x="170.9" y="98.1" fill="grey" class="flag">[?]</text><text x="192.9" y="98.1" fill="#999" class="taxonLabel">Dailyatia</text><text x="150.2" y="85.5" fill="grey" class="flag">[?]</text><text x="172.2" y="85.5" fill="#999" class="taxonLabel">Eccentrotheca</text><text x="129.4" y="72.9" fill="grey" class="flag">[?]</text><text x="151.4" y="72.9" fill="#999" class="taxonLabel">Cotyledion tylodes</text><text x="108.7" y="60.3" fill="grey" class="flag">[?]</text><text x="130.7" y="60.3" fill="#999" class="taxonLabel">Namacalathus</text><text x="88" y="47.8" fill="#91bfdb" class="flag">[1]</text><text x="110" y="47.8" fill="#000" class="taxonLabel">Phoronis</text><text x="88" y="22.6" fill="#fc8d59" class="flag">[0]</text><text x="110" y="22.6" fill="#000" class="taxonLabel">Amathia</text><text x="88" y="35.2" fill="#fc8d59" class="flag">[0]</text><text x="110" y="35.2" fill="#000" class="taxonLabel">Flustra</text><text x="46.5" y="10" fill="#91bfdb" class="flag">[1]</text><text x="68.5" y="10" fill="#000" class="taxonLabel">Loxosomella</text><path d="M5,334.3V24.5H25.7M25.7,24.5V7H46.5M25.7,24.5V42.1H46.5M46.5,42.1V58.2H67.2M67.2,58.2V44.8H88M67.2,58.2V71.7H88M88,71.7V57.3H108.7M88,71.7V86.1H108.7M108.7,86.1V69.9H129.4M108.7,86.1V102.3H129.4M129.4,102.3V82.5H150.2M129.4,102.3V122.1H150.2M150.2,122.1V95.1H170.9M150.2,122.1V149.1H170.9M170.9,149.1V107.7H191.7M170.9,149.1V190.5H191.7M191.7,190.5V120.3H212.4M191.7,190.5V260.7H212.4M212.4,260.7V156.8H233.1M233.1,156.8V132.8H253.9M233.1,156.8V180.8H253.9M253.9,180.8V156.4H274.6M274.6,156.4V145.4H295.3M274.6,156.4V167.5H295.3M295.3,167.5V158H316.1M295.3,167.5V176.9H316.1M316.1,176.9V170.6H336.8M316.1,176.9V183.2H336.8M253.9,180.8V205.2H274.6M274.6,205.2V195.8H295.3M274.6,205.2V214.7H295.3M295.3,214.7V208.4H316.1M295.3,214.7V220.9H316.1M212.4,260.7V364.5H233.1M233.1,364.5V233.5H253.9M233.1,364.5V495.5H253.9M253.9,495.5V395.6H274.6M274.6,395.6V283.6H295.3M295.3,283.6V257.1H316.1M316.1,257.1V246.1H336.8M316.1,257.1V268.1H336.8M336.8,268.1V258.7H357.6M336.8,268.1V277.6H357.6M357.6,277.6V271.3H378.3M357.6,277.6V283.9H378.3M295.3,283.6V310.2H316.1M316.1,310.2V296.5H336.8M316.1,310.2V323.9H336.8M274.6,395.6V507.6H295.3M253.9,495.5V595.3H274.6M274.6,595.3V585.9H295.3M274.6,595.3V604.8H295.3M295.3,604.8V598.5H316.1M295.3,604.8V611.1H316.1M5,334.3V644.1H25.7M25.7,644.1V630H46.5M46.5,630V623.7H67.2M46.5,630V636.2H67.2M25.7,644.1V658.3H46.5M46.5,658.3V648.8H67.2M46.5,658.3V667.7H67.2M67.2,667.7V674H88" stroke="#91bfdb"></path><path d="M46.5,42.1V25.9H67.2M67.2,25.9V19.6H88M67.2,25.9V32.2H88M399,340.5V346.8H419.8M461.3,516.7V510.4H482M67.2,667.7V661.4H88" stroke="#fc8d59"></path><path d="M336.8,323.9V309H357.6M336.8,323.9V338.7H357.6M357.6,338.7V321.6H378.3M357.6,338.7V355.8H378.3M378.3,355.8V340.5H399M399,340.5V334.2H419.8M378.3,355.8V371.2H399M399,371.2V359.4H419.8M399,371.2V383H419.8M419.8,383V372H440.5M419.8,383V394H440.5M440.5,394V384.5H461.3M440.5,394V403.4H461.3M461.3,403.4V397.1H482M461.3,403.4V409.7H482M295.3,507.6V448.2H316.1M316.1,448.2V422.3H336.8M316.1,448.2V474.1H336.8M336.8,474.1V441.2H357.6M357.6,441.2V434.9H378.3M357.6,441.2V447.5H378.3M336.8,474.1V507.1H357.6M357.6,507.1V472.2H378.3M378.3,472.2V460.1H399M378.3,472.2V484.4H399M399,484.4V472.6H419.8M399,484.4V496.2H419.8M419.8,496.2V485.2H440.5M419.8,496.2V507.3H440.5M440.5,507.3V497.8H461.3M440.5,507.3V516.7H461.3M461.3,516.7V523H482M357.6,507.1V541.9H378.3M378.3,541.9V535.6H399M378.3,541.9V548.2H399M295.3,507.6V567H316.1M316.1,567V560.7H336.8M316.1,567V573.3H336.8" stroke="darkgrey"></path><text x="27.7" y="27.5" class="node" fill="#4A6FE3">1</text><text x="48.5" y="45.1" class="node" fill="#4A6FE3">1</text><text x="69.2" y="28.9" class="node" fill="red">NA</text><text x="69.2" y="61.2" class="node" fill="red">NA</text><text x="90" y="74.7" class="node" fill="#4A6FE3">1</text><text x="110.7" y="89.1" class="node" fill="red">NA</text><text x="131.4" y="105.3" class="node" fill="red">NA</text><text x="152.2" y="125.1" class="node" fill="red">NA</text><text x="172.9" y="152.1" class="node" fill="red">NA</text><text x="193.7" y="193.5" class="node" fill="red">NA</text><text x="214.4" y="263.7" class="node" fill="red">NA</text><text x="235.1" y="159.8" class="node" fill="red">NA</text><text x="255.9" y="183.8" class="node" fill="red">NA</text><text x="276.6" y="159.4" class="node" fill="red">NA</text><text x="297.3" y="170.5" class="node" fill="red">NA</text><text x="318.1" y="179.9" class="node" fill="red">NA</text><text x="276.6" y="208.2" class="node" fill="red">NA</text><text x="297.3" y="217.7" class="node" fill="red">NA</text><text x="235.1" y="367.5" class="node" fill="#5F7BE1">0.95</text><text x="255.9" y="498.5" class="node" fill="#4A6FE3">1</text><text x="276.6" y="398.6" class="node" fill="red">NA</text><text x="297.3" y="286.6" class="node" fill="red">NA</text><text x="318.1" y="260.1" class="node" fill="red">NA</text><text x="338.8" y="271.1" class="node" fill="red">NA</text><text x="359.6" y="280.6" class="node" fill="red">NA</text><text x="318.1" y="313.2" class="node" fill="red">NA</text><text x="338.8" y="326.9" class="node" fill="red">NA</text><text x="359.6" y="341.7" class="node" fill="red">NA</text><text x="380.3" y="358.8" class="node" fill="red">NA</text><text x="401" y="343.5" class="node" fill="red">NA</text><text x="401" y="374.2" class="node" fill="red">NA</text><text x="421.8" y="386" class="node" fill="red">NA</text><text x="442.5" y="397" class="node" fill="red">NA</text><text x="463.3" y="406.4" class="node" fill="red">NA</text><text x="297.3" y="510.6" class="node" fill="red">NA</text><text x="318.1" y="451.2" class="node" fill="red">NA</text><text x="338.8" y="477.1" class="node" fill="red">NA</text><text x="359.6" y="444.2" class="node" fill="red">NA</text><text x="359.6" y="510.1" class="node" fill="red">NA</text><text x="380.3" y="475.2" class="node" fill="#4A6FE3">1</text><text x="401" y="487.4" class="node" fill="red">NA</text><text x="421.8" y="499.2" class="node" fill="red">NA</text><text x="442.5" y="510.3" class="node" fill="red">NA</text><text x="463.3" y="519.7" class="node" fill="red">NA</text><text x="380.3" y="544.9" class="node" fill="red">NA</text><text x="318.1" y="570" class="node" fill="red">NA</text><text x="276.6" y="598.3" class="node" fill="red">NA</text><text x="297.3" y="607.8" class="node" fill="red">NA</text><text x="27.7" y="647.1" class="node" fill="#5F7BE1">0.95</text><text x="48.5" y="633" class="node" fill="#5F7BE1">0.95</text><text x="48.5" y="661.3" class="node" fill="red">NA</text><text x="69.2" y="670.7" class="node" fill="red">NA</text></svg>
