<svg xmlns="http://www.w3.org/2000/svg" version="1.1" width="682" height="612" class="tree" data-char="56"><text x="678" y="16" text-anchor="end" class="stepsLabel">Character adds <tspan class="score">2</tspan> to tree score</text><text x="678" y="29" text-anchor="end" class="stepsLabel"><tspan class="score">0</tspan> additional regions</text><text x="678" y="42" text-anchor="end" class="stepsLabel">CI = 0.5; Fitch CI = 0.5; Fitch RI = 0.8</text><text x="678" y="68" text-anchor="end" class="stepsLabel"><tspan dy="16">An optimal tree under:</tspan><tspan x="680" style="font-style:italic" class="thisAn" dy="1.2em">Equal weights</tspan><tspan x="680" style="font-style:italic" class="notThisAn" dy="1.2em">Implied weights, k = 2</tspan><tspan x="680" style="font-style:italic" class="notThisAn" dy="1.2em">IW, k = 3</tspan><tspan x="680" style="font-style:italic" class="notThisAn" dy="1.2em">IW, k = 4.5</tspan><tspan x="680" style="font-style:italic" class="notThisAn" dy="1.2em">IW, k = 7</tspan><tspan x="680" style="font-style:italic" class="notThisAn" dy="1.2em">IW, k = 10.5</tspan><tspan x="680" style="font-style:italic" class="notThisAn" dy="1.2em">IW, k = 16</tspan><tspan x="680" style="font-style:italic" class="notThisAn" dy="1.2em">IW, k = 24</tspan></text><text x="91.7" y="593.7" fill="#91bfdb" class="flag">[1]</text><text x="113.7" y="593.7" fill="#000" class="taxonLabel">Tonicella</text><text x="91.7" y="607" fill="#91bfdb" class="flag">[1]</text><text x="113.7" y="607" fill="#000" class="taxonLabel">Dentalium</text><text x="70" y="580.5" fill="#fc8d59" class="flag">[0]</text><text x="92" y="580.5" fill="#000" class="taxonLabel">Wiwaxia corrugata</text><text x="70" y="553.9" fill="#fc8d59" class="flag">[0]</text><text x="92" y="553.9" fill="#000" class="taxonLabel">Serpula</text><text x="70" y="567.2" fill="#fc8d59" class="flag">[0]</text><text x="92" y="567.2" fill="#000" class="taxonLabel">Sipunculus</text><text x="417" y="514.1" fill="#91bfdb" class="flag">[1]</text><text x="439" y="514.1" fill="#000" class="taxonLabel">Siphonobolus priscus</text><text x="417" y="527.4" fill="#91bfdb" class="flag">[1]</text><text x="439" y="527.4" fill="#000" class="taxonLabel">Acanthotretella spinosa</text><text x="395.3" y="500.9" fill="#91bfdb" class="flag">[1]</text><text x="417.3" y="500.9" fill="#000" class="taxonLabel">Clupeafumosus socialis</text><text x="373.6" y="487.6" fill="#91bfdb" class="flag">[1]</text><text x="395.6" y="487.6" fill="#000" class="taxonLabel">Lingulellotreta malongensis</text><text x="351.9" y="474.3" fill="#91bfdb" class="flag">[1]</text><text x="373.9" y="474.3" fill="#000" class="taxonLabel">Lingulosacculus</text><text x="330.2" y="461.1" fill="#91bfdb" class="flag">[1]</text><text x="352.2" y="461.1" fill="#000" class="taxonLabel">Botsfordia</text><text x="308.5" y="447.8" fill="#91bfdb" class="flag">[1]</text><text x="330.5" y="447.8" fill="#000" class="taxonLabel">Mummpikia nuda</text><text x="286.9" y="434.5" fill="#91bfdb" class="flag">[1]</text><text x="308.9" y="434.5" fill="#000" class="taxonLabel">Eoobolus</text><text x="265.2" y="421.3" fill="#91bfdb" class="flag">[1]</text><text x="287.2" y="421.3" fill="#000" class="taxonLabel">Lingula</text><text x="286.9" y="394.7" fill="#91bfdb" class="flag">[1]</text><text x="308.9" y="394.7" fill="#000" class="taxonLabel">Pelagodiscus atlanticus</text><text x="286.9" y="408" fill="#91bfdb" class="flag">[1]</text><text x="308.9" y="408" fill="#000" class="taxonLabel">Mickwitzia muralensis</text><text x="265.2" y="381.5" fill="#91bfdb" class="flag">[1]</text><text x="287.2" y="381.5" fill="#000" class="taxonLabel">Micrina</text><text x="482" y="354.9" fill="#91bfdb" class="flag">[1]</text><text x="504" y="354.9" fill="#000" class="taxonLabel">Orthis</text><text x="482" y="368.2" fill="#91bfdb" class="flag">[1]</text><text x="504" y="368.2" fill="#000" class="taxonLabel">Terebratulina</text><text x="460.3" y="341.7" fill="#91bfdb" class="flag">[1]</text><text x="482.3" y="341.7" fill="#000" class="taxonLabel">Alisina</text><text x="438.6" y="328.4" fill="#91bfdb" class="flag">[1]</text><text x="460.6" y="328.4" fill="#000" class="taxonLabel">Longtancunella chengjiangensis</text><text x="417" y="315.1" fill="#91bfdb" class="flag">[1]</text><text x="439" y="315.1" fill="#000" class="taxonLabel">Glyptoria</text><text x="395.3" y="301.9" fill="#91bfdb" class="flag">[1]</text><text x="417.3" y="301.9" fill="#000" class="taxonLabel">Nisusia sulcata</text><text x="373.6" y="288.6" fill="#91bfdb" class="flag">[1]</text><text x="395.6" y="288.6" fill="#000" class="taxonLabel">Kutorgina chengjiangensis</text><text x="373.6" y="262.1" fill="#91bfdb" class="flag">[1]</text><text x="395.6" y="262.1" fill="#000" class="taxonLabel">Coolinia pecten</text><text x="373.6" y="275.3" fill="#91bfdb" class="flag">[1]</text><text x="395.6" y="275.3" fill="#000" class="taxonLabel">Antigonambonites planus</text><text x="330.2" y="248.8" fill="#91bfdb" class="flag">[1]</text><text x="352.2" y="248.8" fill="#000" class="taxonLabel">Tomteluva perturbata</text><text x="308.5" y="235.5" fill="#91bfdb" class="flag">[1]</text><text x="330.5" y="235.5" fill="#000" class="taxonLabel">Yuganotheca elegans</text><text x="286.9" y="222.3" fill="#91bfdb" class="flag">[1]</text><text x="308.9" y="222.3" fill="#000" class="taxonLabel">Salanygolina</text><text x="286.9" y="195.7" fill="#91bfdb" class="flag">[1]</text><text x="308.9" y="195.7" fill="#000" class="taxonLabel">Askepasma toddense</text><text x="286.9" y="209" fill="#91bfdb" class="flag">[1]</text><text x="308.9" y="209" fill="#000" class="taxonLabel">Micromitra</text><text x="308.5" y="169.2" fill="#91bfdb" class="flag">[1]</text><text x="330.5" y="169.2" fill="#000" class="taxonLabel">Craniops</text><text x="308.5" y="182.5" fill="#91bfdb" class="flag">[1]</text><text x="330.5" y="182.5" fill="#000" class="taxonLabel">Novocrania</text><text x="286.9" y="155.9" fill="#91bfdb" class="flag">[1]</text><text x="308.9" y="155.9" fill="#000" class="taxonLabel">Ussunia</text><text x="265.2" y="142.7" fill="#91bfdb" class="flag">[1]</text><text x="287.2" y="142.7" fill="#000" class="taxonLabel">Gasconsia</text><text x="243.5" y="116.1" fill="#91bfdb" class="flag">[1]</text><text x="265.5" y="116.1" fill="#000" class="taxonLabel">Pedunculotheca diania</text><text x="243.5" y="129.4" fill="#91bfdb" class="flag">[1]</text><text x="265.5" y="129.4" fill="#000" class="taxonLabel">Haplophrentis carinatus</text><text x="221.8" y="102.9" fill="#91bfdb" class="flag">[1]</text><text x="243.8" y="102.9" fill="#000" class="taxonLabel">Paterimitra</text><text x="178.5" y="89.6" fill="#91bfdb" class="flag">[1]</text><text x="200.5" y="89.6" fill="#000" class="taxonLabel">Heliomedusa orienta</text><text x="178.5" y="63.1" fill="#91bfdb" class="flag">[1]</text><text x="200.5" y="63.1" fill="#000" class="taxonLabel">Dailyatia</text><text x="178.5" y="76.3" fill="#91bfdb" class="flag">[1]</text><text x="200.5" y="76.3" fill="#000" class="taxonLabel">Halkieria evangelista</text><text x="135.1" y="49.8" fill="#91bfdb" class="flag">[1]</text><text x="157.1" y="49.8" fill="#000" class="taxonLabel">Eccentrotheca</text><text x="113.4" y="36.5" fill="#91bfdb" class="flag">[1]</text><text x="135.4" y="36.5" fill="#000" class="taxonLabel">Cotyledion tylodes</text><text x="91.7" y="23.3" fill="#fc8d59" class="flag">[0]</text><text x="113.7" y="23.3" fill="#000" class="taxonLabel">Phoronis</text><text x="70" y="10" fill="#fc8d59" class="flag">[0]</text><text x="92" y="10" fill="#000" class="taxonLabel">Flustra</text><text x="48.4" y="540.7" fill="#fc8d59" class="flag">[0]</text><text x="70.4" y="540.7" fill="#000" class="taxonLabel">Loxosomella</text><path d="M5,426.2V280H26.7M26.7,280V22.3H48.4M48.4,22.3V7H70M48.4,22.3V37.6H70M70,37.6V20.3H91.7M26.7,280V537.7H48.4M5,426.2V572.5H26.7M26.7,572.5V557.6H48.4M48.4,557.6V550.9H70M48.4,557.6V564.2H70M26.7,572.5V587.4H48.4M48.4,587.4V577.5H70" stroke="#fc8d59"></path><path d="M70,37.6V54.9H91.7M91.7,54.9V33.5H113.4M91.7,54.9V76.3H113.4M113.4,76.3V46.8H135.1M113.4,76.3V105.8H135.1M135.1,105.8V66.7H156.8M156.8,66.7V60.1H178.5M156.8,66.7V73.3H178.5M135.1,105.8V145H156.8M156.8,145V86.6H178.5M156.8,145V203.4H178.5M178.5,203.4V109.8H200.1M200.1,109.8V99.9H221.8M200.1,109.8V119.8H221.8M221.8,119.8V113.1H243.5M221.8,119.8V126.4H243.5M178.5,203.4V296.9H200.1M200.1,296.9V183.9H221.8M221.8,183.9V151.3H243.5M243.5,151.3V139.7H265.2M243.5,151.3V162.9H265.2M265.2,162.9V152.9H286.9M265.2,162.9V172.8H286.9M286.9,172.8V166.2H308.5M286.9,172.8V179.5H308.5M221.8,183.9V216.6H243.5M243.5,216.6V199.4H265.2M265.2,199.4V192.7H286.9M265.2,199.4V206H286.9M243.5,216.6V233.8H265.2M265.2,233.8V219.3H286.9M265.2,233.8V248.3H286.9M286.9,248.3V232.5H308.5M286.9,248.3V264H308.5M308.5,264V245.8H330.2M308.5,264V282.2H330.2M330.2,282.2V265.7H351.9M351.9,265.7V259.1H373.6M351.9,265.7V272.3H373.6M330.2,282.2V298.7H351.9M351.9,298.7V285.6H373.6M351.9,298.7V311.7H373.6M373.6,311.7V298.9H395.3M373.6,311.7V324.6H395.3M395.3,324.6V312.1H417M395.3,324.6V337H417M417,337V325.4H438.6M417,337V348.6H438.6M438.6,348.6V338.7H460.3M438.6,348.6V358.6H460.3M460.3,358.6V351.9H482M460.3,358.6V365.2H482M200.1,296.9V409.9H221.8M221.8,409.9V388.4H243.5M243.5,388.4V378.5H265.2M243.5,388.4V398.4H265.2M265.2,398.4V391.7H286.9M265.2,398.4V405H286.9M221.8,409.9V431.5H243.5M243.5,431.5V418.3H265.2M243.5,431.5V444.7H265.2M265.2,444.7V431.5H286.9M265.2,444.7V457.9H286.9M286.9,457.9V444.8H308.5M286.9,457.9V470.9H308.5M308.5,470.9V458.1H330.2M308.5,470.9V483.8H330.2M330.2,483.8V471.3H351.9M330.2,483.8V496.2H351.9M351.9,496.2V484.6H373.6M351.9,496.2V507.8H373.6M373.6,507.8V497.9H395.3M373.6,507.8V517.8H395.3M395.3,517.8V511.1H417M395.3,517.8V524.4H417M48.4,587.4V597.4H70M70,597.4V590.7H91.7M70,597.4V604H91.7" stroke="#91bfdb"></path><text x="7" y="429.2" class="node" fill="#4A6FE3">1</text><text x="28.7" y="283" class="node" fill="#4A6FE3">1</text><text x="50.4" y="25.3" class="node" fill="#4A6FE3">1</text><text x="72" y="40.6" class="node" fill="#4A6FE3">1</text><text x="93.7" y="57.9" class="node" fill="#4A6FE3">1</text><text x="115.4" y="79.3" class="node" fill="#E6ABB6">0.32</text><text x="137.1" y="108.8" class="node" fill="#4A6FE3">1</text><text x="158.8" y="69.7" class="node" fill="#4A6FE3">1</text><text x="158.8" y="148" class="node" fill="#4A6FE3">1</text><text x="180.5" y="206.4" class="node" fill="#9DA8E2">0.75</text><text x="202.1" y="112.8" class="node" fill="#B4BBE3">0.67</text><text x="223.8" y="122.8" class="node" fill="#4A6FE3">1</text><text x="202.1" y="299.9" class="node" fill="#9DA8E2">0.75</text><text x="223.8" y="186.9" class="node" fill="#4A6FE3">1</text><text x="245.5" y="154.3" class="node" fill="#4A6FE3">1</text><text x="267.2" y="165.9" class="node" fill="#4A6FE3">1</text><text x="288.9" y="175.8" class="node" fill="#4A6FE3">1</text><text x="245.5" y="219.6" class="node" fill="#8C9BE1">0.81</text><text x="267.2" y="202.4" class="node" fill="#4A6FE3">1</text><text x="267.2" y="236.8" class="node" fill="#667FE1">0.93</text><text x="288.9" y="251.3" class="node" fill="#E498A7">0.26</text><text x="310.5" y="267" class="node" fill="#DC6884">0.11</text><text x="332.2" y="285.2" class="node" fill="#4A6FE3">1</text><text x="353.9" y="268.7" class="node" fill="#4A6FE3">1</text><text x="353.9" y="301.7" class="node" fill="#7A8DE1">0.87</text><text x="375.6" y="314.7" class="node" fill="#7A8DE1">0.87</text><text x="397.3" y="327.6" class="node" fill="#7A8DE1">0.87</text><text x="419" y="340" class="node" fill="#7A8DE1">0.87</text><text x="440.6" y="351.6" class="node" fill="#4A6FE3">1</text><text x="462.3" y="361.6" class="node" fill="#5B78E2">0.96</text><text x="223.8" y="412.9" class="node" fill="#B4BBE3">0.67</text><text x="245.5" y="391.4" class="node" fill="#B4BBE3">0.67</text><text x="267.2" y="401.4" class="node" fill="#9DA8E2">0.75</text><text x="245.5" y="434.5" class="node" fill="#9DA8E2">0.75</text><text x="267.2" y="447.7" class="node" fill="#B4BBE3">0.67</text><text x="288.9" y="460.9" class="node" fill="#B4BBE3">0.67</text><text x="310.5" y="473.9" class="node" fill="#B4BBE3">0.67</text><text x="332.2" y="486.8" class="node" fill="#B4BBE3">0.67</text><text x="353.9" y="499.2" class="node" fill="#DB6581">0.1</text><text x="375.6" y="510.8" class="node" fill="#E6BAC2">0.37</text><text x="397.3" y="520.8" class="node" fill="#4A6FE3">1</text><text x="28.7" y="575.5" class="node" fill="#4A6FE3">1</text><text x="50.4" y="560.6" class="node" fill="#4A6FE3">1</text><text x="50.4" y="590.4" class="node" fill="#4A6FE3">1</text><text x="72" y="600.4" class="node" fill="#E38FA0">0.23</text></svg>
