<svg xmlns="http://www.w3.org/2000/svg" version="1.1" width="682" height="612" class="tree" data-char="53"><text x="678" y="14.1" text-anchor="end" class="stepsLabel">Character adds <tspan class="score">1</tspan> to tree score</text><text x="678" y="25.2" text-anchor="end" class="stepsLabel"><tspan class="score">0</tspan> additional regions</text><text x="678" y="36.3" text-anchor="end" class="stepsLabel">CI = 1; Fitch CI = 1; Fitch RI = 1</text><text x="678" y="58.5" text-anchor="end" class="stepsLabel"><tspan dy="16" fill="#34caaf">An optimal tree under:</tspan><tspan x="680" style="font-style:italic" class="thisAn" dy="1.2em">Equal weights</tspan><tspan x="680" style="font-style:italic" class="notThisAn" dy="1.2em">Implied weights, k = 2</tspan><tspan x="680" style="font-style:italic" class="notThisAn" dy="1.2em">IW, k = 3</tspan><tspan x="680" style="font-style:italic" class="notThisAn" dy="1.2em">IW, k = 4.5</tspan><tspan x="680" style="font-style:italic" class="notThisAn" dy="1.2em">IW, k = 7</tspan><tspan x="680" style="font-style:italic" class="notThisAn" dy="1.2em">IW, k = 10.5</tspan><tspan x="680" style="font-style:italic" class="notThisAn" dy="1.2em">IW, k = 16</tspan><tspan x="680" style="font-style:italic" class="notThisAn" dy="1.2em">IW, k = 24</tspan></text><text x="100.4" y="595.7" fill="#91bfdb" class="flag">[1]</text><text x="122.4" y="595.7" fill="#000" class="taxonLabel">Wiwaxia corrugata</text><text x="100.4" y="607" fill="#91bfdb" class="flag">[1]</text><text x="122.4" y="607" fill="#000" class="taxonLabel">Dentalium</text><text x="76.6" y="584.5" fill="#91bfdb" class="flag">[1]</text><text x="98.6" y="584.5" fill="#000" class="taxonLabel">Tonicella</text><text x="76.6" y="561.9" fill="#fc8d59" class="flag">[0]</text><text x="98.6" y="561.9" fill="#000" class="taxonLabel">Sipunculus</text><text x="76.6" y="573.2" fill="#fc8d59" class="flag">[0]</text><text x="98.6" y="573.2" fill="#000" class="taxonLabel">Serpula</text><text x="362.8" y="528.2" fill="grey" class="flag">[?]</text><text x="384.8" y="528.2" fill="#999" class="taxonLabel">Coolinia pecten</text><text x="362.8" y="539.4" fill="grey" class="flag">[?]</text><text x="384.8" y="539.4" fill="#999" class="taxonLabel">Antigonambonites planus</text><text x="482" y="505.6" fill="grey" class="flag">[?]</text><text x="504" y="505.6" fill="#999" class="taxonLabel">Orthis</text><text x="482" y="516.9" fill="#fc8d59" class="flag">[0]</text><text x="504" y="516.9" fill="#000" class="taxonLabel">Terebratulina</text><text x="458.2" y="494.4" fill="grey" class="flag">[?]</text><text x="480.2" y="494.4" fill="#999" class="taxonLabel">Alisina</text><text x="434.3" y="483.1" fill="grey" class="flag">[?]</text><text x="456.3" y="483.1" fill="#999" class="taxonLabel">Longtancunella chengjiangensis</text><text x="410.5" y="471.8" fill="grey" class="flag">[?]</text><text x="432.5" y="471.8" fill="#999" class="taxonLabel">Glyptoria</text><text x="386.6" y="460.6" fill="grey" class="flag">[?]</text><text x="408.6" y="460.6" fill="#999" class="taxonLabel">Nisusia sulcata</text><text x="362.8" y="449.3" fill="grey" class="flag">[?]</text><text x="384.8" y="449.3" fill="#999" class="taxonLabel">Kutorgina chengjiangensis</text><text x="315.1" y="438" fill="grey" class="flag">[?]</text><text x="337.1" y="438" fill="#999" class="taxonLabel">Tomteluva perturbata</text><text x="291.2" y="426.8" fill="grey" class="flag">[?]</text><text x="313.2" y="426.8" fill="#999" class="taxonLabel">Yuganotheca elegans</text><text x="267.4" y="415.5" fill="grey" class="flag">[?]</text><text x="289.4" y="415.5" fill="#999" class="taxonLabel">Salanygolina</text><text x="243.5" y="404.2" fill="grey" class="flag">[?]</text><text x="265.5" y="404.2" fill="#999" class="taxonLabel">Askepasma toddense</text><text x="362.8" y="381.7" fill="#fc8d59" class="flag">[0]</text><text x="384.8" y="381.7" fill="#000" class="taxonLabel">Pelagodiscus atlanticus</text><text x="362.8" y="393" fill="grey" class="flag">[?]</text><text x="384.8" y="393" fill="#999" class="taxonLabel">Mummpikia nuda</text><text x="338.9" y="370.5" fill="#fc8d59" class="flag">[0]</text><text x="360.9" y="370.5" fill="#000" class="taxonLabel">Lingula</text><text x="410.5" y="347.9" fill="grey" class="flag">[?]</text><text x="432.5" y="347.9" fill="#999" class="taxonLabel">Acanthotretella spinosa</text><text x="410.5" y="359.2" fill="grey" class="flag">[?]</text><text x="432.5" y="359.2" fill="#999" class="taxonLabel">Siphonobolus priscus</text><text x="386.6" y="336.7" fill="grey" class="flag">[?]</text><text x="408.6" y="336.7" fill="#999" class="taxonLabel">Clupeafumosus socialis</text><text x="362.8" y="325.4" fill="grey" class="flag">[?]</text><text x="384.8" y="325.4" fill="#999" class="taxonLabel">Lingulellotreta malongensis</text><text x="338.9" y="314.1" fill="grey" class="flag">[?]</text><text x="360.9" y="314.1" fill="#999" class="taxonLabel">Lingulosacculus</text><text x="315.1" y="291.6" fill="grey" class="flag">[?]</text><text x="337.1" y="291.6" fill="#999" class="taxonLabel">Eoobolus</text><text x="315.1" y="302.9" fill="grey" class="flag">[?]</text><text x="337.1" y="302.9" fill="#999" class="taxonLabel">Botsfordia</text><text x="315.1" y="269.1" fill="grey" class="flag">[?]</text><text x="337.1" y="269.1" fill="#999" class="taxonLabel">Gasconsia</text><text x="315.1" y="280.3" fill="grey" class="flag">[?]</text><text x="337.1" y="280.3" fill="#999" class="taxonLabel">Micromitra</text><text x="386.6" y="246.5" fill="grey" class="flag">[?]</text><text x="408.6" y="246.5" fill="#999" class="taxonLabel">Craniops</text><text x="386.6" y="257.8" fill="#fc8d59" class="flag">[0]</text><text x="408.6" y="257.8" fill="#000" class="taxonLabel">Novocrania</text><text x="362.8" y="235.3" fill="grey" class="flag">[?]</text><text x="384.8" y="235.3" fill="#999" class="taxonLabel">Ussunia</text><text x="338.9" y="224" fill="grey" class="flag">[?]</text><text x="360.9" y="224" fill="#999" class="taxonLabel">Heliomedusa orienta</text><text x="315.1" y="212.8" fill="grey" class="flag">[?]</text><text x="337.1" y="212.8" fill="#999" class="taxonLabel">Mickwitzia muralensis</text><text x="243.5" y="201.5" fill="grey" class="flag">[?]</text><text x="265.5" y="201.5" fill="#999" class="taxonLabel">Micrina</text><text x="267.4" y="179" fill="grey" class="flag">[?]</text><text x="289.4" y="179" fill="#999" class="taxonLabel">Probactrotheca</text><text x="267.4" y="190.2" fill="grey" class="flag">[?]</text><text x="289.4" y="190.2" fill="#999" class="taxonLabel">Decoritheca</text><text x="338.9" y="156.4" fill="grey" class="flag">[?]</text><text x="360.9" y="156.4" fill="#999" class="taxonLabel">Maxilites</text><text x="338.9" y="167.7" fill="grey" class="flag">[?]</text><text x="360.9" y="167.7" fill="#999" class="taxonLabel">Pauxillites</text><text x="315.1" y="145.2" fill="grey" class="flag">[?]</text><text x="337.1" y="145.2" fill="#999" class="taxonLabel">Paramicrocornus</text><text x="291.2" y="133.9" fill="grey" class="flag">[?]</text><text x="313.2" y="133.9" fill="#999" class="taxonLabel">Haplophrentis carinatus</text><text x="267.4" y="122.6" fill="grey" class="flag">[?]</text><text x="289.4" y="122.6" fill="#999" class="taxonLabel">Conotheca</text><text x="219.7" y="111.4" fill="grey" class="flag">[?]</text><text x="241.7" y="111.4" fill="#999" class="taxonLabel">Pedunculotheca diania</text><text x="172" y="100.1" fill="grey" class="flag">[?]</text><text x="194" y="100.1" fill="#999" class="taxonLabel">Paterimitra</text><text x="148.1" y="88.8" fill="grey" class="flag">[?]</text><text x="170.1" y="88.8" fill="#999" class="taxonLabel">Halkieria evangelista</text><text x="195.8" y="66.3" fill="#fc8d59" class="flag">[0]</text><text x="217.8" y="66.3" fill="#000" class="taxonLabel">Cotyledion tylodes</text><text x="195.8" y="77.6" fill="grey" class="flag">[?]</text><text x="217.8" y="77.6" fill="#999" class="taxonLabel">Dailyatia</text><text x="172" y="55.1" fill="grey" class="flag">[?]</text><text x="194" y="55.1" fill="#999" class="taxonLabel">Namacalathus</text><text x="148.1" y="43.8" fill="grey" class="flag">[?]</text><text x="170.1" y="43.8" fill="#999" class="taxonLabel">Eccentrotheca</text><text x="100.4" y="32.5" fill="#fc8d59" class="flag">[0]</text><text x="122.4" y="32.5" fill="#000" class="taxonLabel">Phoronis</text><text x="100.4" y="10" fill="#fc8d59" class="flag">[0]</text><text x="122.4" y="10" fill="#000" class="taxonLabel">Flustra</text><text x="100.4" y="21.3" fill="#fc8d59" class="flag">[0]</text><text x="122.4" y="21.3" fill="#000" class="taxonLabel">Amathia</text><text x="52.7" y="550.7" fill="#fc8d59" class="flag">[0]</text><text x="74.7" y="550.7" fill="#000" class="taxonLabel">Loxosomella</text><path d="M5,434.4V291.6H28.9M28.9,291.6V35.6H52.7M52.7,35.6V12.6H76.6M76.6,12.6V7H100.4M76.6,12.6V18.3H100.4M52.7,35.6V58.6H76.6M76.6,58.6V29.5H100.4M76.6,58.6V87.7H100.4M100.4,87.7V50.6H124.2M124.2,50.6V40.8H148.1M124.2,50.6V60.5H148.1M148.1,60.5V52.1H172M148.1,60.5V69H172M172,69V63.3H195.8M172,69V74.6H195.8M100.4,87.7V124.7H124.2M124.2,124.7V85.8H148.1M124.2,124.7V163.6H148.1M148.1,163.6V97.1H172M148.1,163.6V230H172M172,230V132.1H195.8M195.8,132.1V108.4H219.7M195.8,132.1V155.9H219.7M219.7,155.9V130.2H243.5M243.5,130.2V119.6H267.4M243.5,130.2V140.8H267.4M267.4,140.8V130.9H291.2M267.4,140.8V150.6H291.2M291.2,150.6V142.2H315.1M291.2,150.6V159.1H315.1M315.1,159.1V153.4H338.9M315.1,159.1V164.7H338.9M219.7,155.9V181.6H243.5M243.5,181.6V176H267.4M243.5,181.6V187.2H267.4M172,230V328H195.8M195.8,328V241.1H219.7M219.7,241.1V198.5H243.5M219.7,241.1V283.8H243.5M243.5,283.8V246H267.4M267.4,246V220.3H291.2M291.2,220.3V209.8H315.1M291.2,220.3V230.9H315.1M315.1,230.9V221H338.9M315.1,230.9V240.7H338.9M338.9,240.7V232.3H362.8M338.9,240.7V249.2H362.8M362.8,249.2V243.5H386.6M362.8,249.2V254.8H386.6M267.4,246V271.7H291.2M291.2,271.7V266.1H315.1M291.2,271.7V277.3H315.1M243.5,283.8V321.5H267.4M267.4,321.5V294.2H291.2M291.2,294.2V288.6H315.1M291.2,294.2V299.9H315.1M267.4,321.5V348.8H291.2M291.2,348.8V321.7H315.1M315.1,321.7V311.1H338.9M315.1,321.7V332.3H338.9M338.9,332.3V322.4H362.8M338.9,332.3V342.1H362.8M362.8,342.1V333.7H386.6M362.8,342.1V350.6H386.6M386.6,350.6V344.9H410.5M386.6,350.6V356.2H410.5M291.2,348.8V375.9H315.1M315.1,375.9V367.5H338.9M315.1,375.9V384.3H338.9M338.9,384.3V378.7H362.8M338.9,384.3V390H362.8M195.8,328V414.8H219.7M219.7,414.8V401.2H243.5M219.7,414.8V428.3H243.5M243.5,428.3V412.5H267.4M243.5,428.3V444.2H267.4M267.4,444.2V423.8H291.2M267.4,444.2V464.6H291.2M291.2,464.6V435H315.1M291.2,464.6V494.1H315.1M315.1,494.1V457.4H338.9M338.9,457.4V446.3H362.8M338.9,457.4V468.5H362.8M362.8,468.5V457.6H386.6M362.8,468.5V479.4H386.6M386.6,479.4V468.8H410.5M386.6,479.4V490H410.5M410.5,490V480.1H434.3M410.5,490V499.8H434.3M434.3,499.8V491.4H458.2M434.3,499.8V508.3H458.2M458.2,508.3V502.6H482M458.2,508.3V513.9H482M315.1,494.1V530.8H338.9M338.9,530.8V525.2H362.8M338.9,530.8V536.4H362.8M28.9,291.6V547.7H52.7M5,434.4V577.2H28.9M28.9,577.2V564.6H52.7M52.7,564.6V558.9H76.6M52.7,564.6V570.2H76.6" stroke="#fc8d59"></path><path d="M28.9,577.2V589.9H52.7M52.7,589.9V581.5H76.6M52.7,589.9V598.4H76.6M76.6,598.4V592.7H100.4M76.6,598.4V604H100.4" stroke="#91bfdb"></path><text x="7" y="437.4" class="node" fill="#4A6FE3">1</text><text x="30.9" y="294.6" class="node" fill="#4A6FE3">1</text><text x="54.7" y="38.6" class="node" fill="#4A6FE3">1</text><text x="78.6" y="15.6" class="node" fill="#4A6FE3">1</text><text x="78.6" y="61.6" class="node" fill="#B6BDE3">0.66</text><text x="102.4" y="90.7" class="node" fill="#DD6F88">0.13</text><text x="126.2" y="53.6" class="node" fill="#D4486F">0.02</text><text x="150.1" y="63.5" class="node" fill="#D54C71">0.03</text><text x="174" y="72" class="node" fill="#E28699">0.2</text><text x="126.2" y="127.7" class="node" fill="#A8B1E2">0.71</text><text x="150.1" y="166.6" class="node" fill="#A8B1E2">0.71</text><text x="174" y="233" class="node" fill="#A8B1E2">0.71</text><text x="197.8" y="135.1" class="node" fill="#A8B1E2">0.71</text><text x="221.7" y="158.9" class="node" fill="#4A6FE3">1</text><text x="245.5" y="133.2" class="node" fill="#E07C92">0.17</text><text x="269.4" y="143.8" class="node" fill="#7A8DE1">0.87</text><text x="293.2" y="153.6" class="node" fill="#C1C6E3">0.62</text><text x="317.1" y="162.1" class="node" fill="#4A6FE3">1</text><text x="245.5" y="184.6" class="node" fill="#E6B1BB">0.34</text><text x="197.8" y="331" class="node" fill="#667FE1">0.93</text><text x="221.7" y="244.1" class="node" fill="#DB6581">0.1</text><text x="245.5" y="286.8" class="node" fill="#B9BFE3">0.65</text><text x="269.4" y="249" class="node" fill="#D2D4E3">0.57</text><text x="293.2" y="223.3" class="node" fill="#D2D4E3">0.57</text><text x="317.1" y="233.9" class="node" fill="#7A8DE1">0.87</text><text x="340.9" y="243.7" class="node" fill="#4A6FE3">1</text><text x="364.8" y="252.2" class="node" fill="#4A6FE3">1</text><text x="293.2" y="274.7" class="node" fill="#BCC2E3">0.64</text><text x="269.4" y="324.5" class="node" fill="#A3ADE2">0.73</text><text x="293.2" y="297.2" class="node" fill="#E5C7CC">0.41</text><text x="293.2" y="351.8" class="node" fill="#DDDEE3">0.52</text><text x="317.1" y="324.7" class="node" fill="#E392A2">0.24</text><text x="340.9" y="335.3" class="node" fill="#D95A7A">0.07</text><text x="364.8" y="345.1" class="node" fill="#E6B1BB">0.34</text><text x="388.6" y="353.6" class="node" fill="#5776E2">0.97</text><text x="317.1" y="378.9" class="node" fill="#E6AEB8">0.33</text><text x="340.9" y="387.3" class="node" fill="#D2D4E3">0.56</text><text x="221.7" y="417.8" class="node" fill="#ABB4E2">0.7</text><text x="245.5" y="431.3" class="node" fill="#97A4E2">0.77</text><text x="269.4" y="447.2" class="node" fill="#D2D4E3">0.57</text><text x="293.2" y="467.6" class="node" fill="#E495A5">0.25</text><text x="317.1" y="497.1" class="node" fill="#9AA6E2">0.76</text><text x="340.9" y="460.4" class="node" fill="#929FE1">0.79</text><text x="364.8" y="471.5" class="node" fill="#929FE1">0.79</text><text x="388.6" y="482.4" class="node" fill="#929FE1">0.79</text><text x="412.5" y="493" class="node" fill="#7A8DE1">0.87</text><text x="436.3" y="502.8" class="node" fill="#4A6FE3">1</text><text x="460.2" y="511.3" class="node" fill="#929FE1">0.79</text><text x="340.9" y="533.8" class="node" fill="#4A6FE3">1</text><text x="30.9" y="580.2" class="node" fill="#4A6FE3">1</text><text x="54.7" y="567.6" class="node" fill="#4A6FE3">1</text><text x="54.7" y="592.9" class="node" fill="#4A6FE3">1</text><text x="78.6" y="601.4" class="node" fill="#6D84E1">0.91</text></svg>
