<svg xmlns="http://www.w3.org/2000/svg" version="1.1" width="682" height="555" class="tree" char="63">
 <text x="678" y="17.6" text-anchor="end" class="stepsLabel">Character adds <tspan class="score">1</tspan> to tree score</text>
 <text x="678" y="32.2" text-anchor="end" class="stepsLabel"><tspan class="score"></tspan> additional region</text>
 <text x="678" y="46.8" text-anchor="end" class="stepsLabel">CI = 1; Fitch CI = 1; Fitch RI = 1</text>
 <text x="678" y="76" text-anchor="end" class="stepsLabel"><tspan dy="16">An optimal tree under:</tspan><tspan x="680" style="font-style:italic" class="thisAn" dy="1.2em">Equal weights</tspan><tspan x="680" style="font-style:italic" class="notThisAn" dy="1.2em">Implied weights, k = 2</tspan><tspan x="680" style="font-style:italic" class="notThisAn" dy="1.2em">IW, k = 3</tspan><tspan x="680" style="font-style:italic" class="notThisAn" dy="1.2em">IW, k = 4.5</tspan><tspan x="680" style="font-style:italic" class="notThisAn" dy="1.2em">IW, k = 7</tspan><tspan x="680" style="font-style:italic" class="notThisAn" dy="1.2em">IW, k = 10.5</tspan><tspan x="680" style="font-style:italic" class="notThisAn" dy="1.2em">IW, k = 16</tspan><tspan x="680" style="font-style:italic" class="notThisAn" dy="1.2em">IW, k = 24</tspan></text>
 <text x="31.5" y="10" fill="#fc8d59" class="flag">[0]</text>
 <text x="53.5" y="10" class="taxonLabel">Dailyatia</text>
 <text x="84.5" y="40" fill="#fc8d59" class="flag">[0]</text>
 <text x="106.5" y="40" class="taxonLabel">Eccentrotheca</text>
 <text x="58" y="25" fill="lightgrey" class="flag">[-]</text>
 <text x="80" y="25" class="taxonLabel">Phoronis</text>
 <text x="111" y="55" fill="#fc8d59" class="flag">[0]</text>
 <text x="133" y="55" class="taxonLabel">Paterimitra</text>
 <text x="164" y="85" fill="#fc8d59" class="flag">[0]</text>
 <text x="186" y="85" class="taxonLabel">Pedunculotheca diania</text>
 <text x="164" y="70" fill="#fc8d59" class="flag">[0]</text>
 <text x="186" y="70" class="taxonLabel">Haplophrentis carinatus</text>
 <text x="217" y="310" fill="#fc8d59" class="flag">[0]</text>
 <text x="239" y="310" class="taxonLabel">Gasconsia</text>
 <text x="243.5" y="325" fill="#fc8d59" class="flag">[0]</text>
 <text x="265.5" y="325" class="taxonLabel">Heliomedusa orienta</text>
 <text x="270" y="340" fill="#fc8d59" class="flag">[0]</text>
 <text x="292" y="340" class="taxonLabel">Ussunia</text>
 <text x="296.5" y="370" fill="#fc8d59" class="flag">[0]</text>
 <text x="318.5" y="370" class="taxonLabel">Craniops</text>
 <text x="296.5" y="355" fill="#fc8d59" class="flag">[0]</text>
 <text x="318.5" y="355" class="taxonLabel">Novocrania</text>
 <text x="217" y="385" fill="#fc8d59" class="flag">[0]</text>
 <text x="239" y="385" class="taxonLabel">Pelagodiscus atlanticus</text>
 <text x="243.5" y="400" fill="#fc8d59" class="flag">[0]</text>
 <text x="265.5" y="400" class="taxonLabel">Mickwitzia muralensis</text>
 <text x="270" y="415" fill="#fc8d59" class="flag">[0]</text>
 <text x="292" y="415" class="taxonLabel">Micrina</text>
 <text x="296.5" y="430" fill="#fc8d59" class="flag">[0]</text>
 <text x="318.5" y="430" class="taxonLabel">Lingula</text>
 <text x="323" y="445" fill="#fc8d59" class="flag">[0]</text>
 <text x="345" y="445" class="taxonLabel">Eoobolus</text>
 <text x="349.5" y="460" fill="#fc8d59" class="flag">[0]</text>
 <text x="371.5" y="460" class="taxonLabel">Mummpikia nuda</text>
 <text x="376" y="475" fill="#fc8d59" class="flag">[0]</text>
 <text x="398" y="475" class="taxonLabel">Botsfordia</text>
 <text x="455.5" y="520" fill="#fc8d59" class="flag">[0]</text>
 <text x="477.5" y="520" class="taxonLabel">Lingulosacculus</text>
 <text x="402.5" y="490" fill="#fc8d59" class="flag">[0]</text>
 <text x="424.5" y="490" class="taxonLabel">Lingulellotreta malongensis</text>
 <text x="429" y="505" fill="#fc8d59" class="flag">[0]</text>
 <text x="451" y="505" class="taxonLabel">Clupeafumosus socialis</text>
 <text x="482" y="550" fill="#fc8d59" class="flag">[0]</text>
 <text x="504" y="550" class="taxonLabel">Acanthotretella spinosa</text>
 <text x="482" y="535" fill="#fc8d59" class="flag">[0]</text>
 <text x="504" y="535" class="taxonLabel">Siphonobolus priscus</text>
 <text x="217" y="295" fill="#fc8d59" class="flag">[0]</text>
 <text x="239" y="295" class="taxonLabel">Askepasma toddense</text>
 <text x="217" y="280" fill="#fc8d59" class="flag">[0]</text>
 <text x="239" y="280" class="taxonLabel">Micromitra</text>
 <text x="243.5" y="100" fill="#fc8d59" class="flag">[0]</text>
 <text x="265.5" y="100" class="taxonLabel">Salanygolina</text>
 <text x="270" y="115" fill="#fc8d59" class="flag">[0]</text>
 <text x="292" y="115" class="taxonLabel">Tomteluva perturbata</text>
 <text x="270" y="130" fill="grey" class="flag">[?]</text>
 <text x="292" y="130" class="taxonLabel">Yuganotheca elegans</text>
 <text x="296.5" y="190" fill="#fc8d59" class="flag">[0]</text>
 <text x="318.5" y="190" class="taxonLabel">Kutorgina chengjiangensis</text>
 <text x="323" y="205" fill="#fc8d59" class="flag">[0]</text>
 <text x="345" y="205" class="taxonLabel">Nisusia sulcata</text>
 <text x="349.5" y="220" fill="#fc8d59" class="flag">[0]</text>
 <text x="371.5" y="220" class="taxonLabel">Glyptoria</text>
 <text x="243.5" y="145" fill="#fc8d59" class="flag">[0]</text>
 <text x="265.5" y="145" class="taxonLabel">Longtancunella chengjiangensis</text>
 <text x="402.5" y="265" fill="#fc8d59" class="flag">[0]</text>
 <text x="424.5" y="265" class="taxonLabel">Alisina</text>
 <text x="376" y="235" fill="#fc8d59" class="flag">[0]</text>
 <text x="398" y="235" class="taxonLabel">Orthis</text>
 <text x="402.5" y="250" fill="#fc8d59" class="flag">[0]</text>
 <text x="424.5" y="250" class="taxonLabel">Terebratulina</text>
 <text x="296.5" y="175" fill="#91bfdb" class="flag">[1]</text>
 <text x="318.5" y="175" class="taxonLabel">Coolinia pecten</text>
 <text x="296.5" y="160" fill="#91bfdb" class="flag">[1]</text>
 <text x="318.5" y="160" class="taxonLabel">Antigonambonites planus</text>
 <path d="M5,28.1V7H31.5M5,28.1V49.2H31.5M31.5,49.2V76.4H58M58,76.4V37H84.5M58,76.4V115.7H84.5M84.5,115.7V52H111M84.5,115.7V179.5H111M111,179.5V74.5H137.5M137.5,74.5V67H164M137.5,74.5V82H164M111,179.5V284.5H137.5M137.5,284.5V209.9H164M164,209.9V135.4H190.5M190.5,135.4V108.2H217M217,108.2V97H243.5M217,108.2V119.5H243.5M243.5,119.5V112H270M243.5,119.5V127H270M190.5,135.4V162.5H217M217,162.5V142H243.5M217,162.5V183H243.5M243.5,183V201.5H270M270,201.5V187H296.5M270,201.5V216.1H296.5M296.5,216.1V202H323M296.5,216.1V230.1H323M323,230.1V217H349.5M323,230.1V243.2H349.5M349.5,243.2V232H376M349.5,243.2V254.5H376M376,254.5V247H402.5M376,254.5V262H402.5M164,209.9V284.5H190.5M190.5,284.5V277H217M190.5,284.5V292H217M137.5,284.5V359H164M164,359V321.1H190.5M190.5,321.1V307H217M190.5,321.1V335.1H217M217,335.1V322H243.5M217,335.1V348.2H243.5M243.5,348.2V337H270M243.5,348.2V359.5H270M270,359.5V352H296.5M270,359.5V367H296.5M164,359V397H190.5M190.5,397V382H217M190.5,397V412H217M217,412V397H243.5M217,412V427H243.5M243.5,427V412H270M243.5,427V441.9H270M270,441.9V427H296.5M270,441.9V456.9H296.5M296.5,456.9V442H323M296.5,456.9V471.8H323M323,471.8V457H349.5M323,471.8V486.5H349.5M349.5,486.5V472H376M349.5,486.5V501.1H376M376,501.1V487H402.5M376,501.1V515.1H402.5M402.5,515.1V502H429M402.5,515.1V528.2H429M429,528.2V517H455.5M429,528.2V539.5H455.5M455.5,539.5V532H482M455.5,539.5V547H482" stroke="#fc8d59"></path>
 <path d="M31.5,49.2V22H58" stroke="lightgrey" class="inapplicable"></path>
 <path d="M243.5,183V164.5H270M270,164.5V157H296.5M270,164.5V172H296.5" stroke="#91bfdb"></path>
 <text x="7" y="31.1" class="node" fill="red">NA</text>
 <text x="33.5" y="52.2" class="node" fill="red">NA</text>
 <text x="60" y="79.4" class="node" fill="red">NA</text>
 <text x="86.5" y="118.7" class="node" fill="#4A6FE3">1</text>
 <text x="113" y="182.5" class="node" fill="#4A6FE3">1</text>
 <text x="139.5" y="77.5" class="node" fill="#E6B1BB">0.34</text>
 <text x="139.5" y="287.5" class="node" fill="#4A6FE3">1</text>
 <text x="166" y="212.9" class="node" fill="#4A6FE3">1</text>
 <text x="192.5" y="138.4" class="node" fill="#4A6FE3">1</text>
 <text x="219" y="111.2" class="node" fill="#7A8DE1">0.87</text>
 <text x="245.5" y="122.5" class="node" fill="#4A6FE3">1</text>
 <text x="219" y="165.5" class="node" fill="#4A6FE3">1</text>
 <text x="245.5" y="186" class="node" fill="#8C9BE1">0.81</text>
 <text x="272" y="167.5" class="node" fill="#6D84E1">0.91</text>
 <text x="272" y="204.5" class="node" fill="#4A6FE3">1</text>
 <text x="298.5" y="219.1" class="node" fill="#DD6C86">0.12</text>
 <text x="325" y="233.1" class="node" fill="#4A6FE3">1</text>
 <text x="351.5" y="246.2" class="node" fill="#DD6C86">0.12</text>
 <text x="378" y="257.5" class="node" fill="#DD6C86">0.12</text>
 <text x="192.5" y="287.5" class="node" fill="#DD6C86">0.12</text>
 <text x="166" y="362" class="node" fill="#4A6FE3">1</text>
 <text x="192.5" y="324.1" class="node" fill="#D95A7A">0.07</text>
 <text x="219" y="338.1" class="node" fill="#4A6FE3">1</text>
 <text x="245.5" y="351.2" class="node" fill="#A0ABE2">0.74</text>
 <text x="272" y="362.5" class="node" fill="#7A8DE1">0.87</text>
 <text x="192.5" y="400" class="node" fill="#7A8DE1">0.87</text>
 <text x="219" y="415" class="node" fill="#4A6FE3">1</text>
 <text x="245.5" y="430" class="node" fill="#4A6FE3">1</text>
 <text x="272" y="444.9" class="node" fill="#A0ABE2">0.74</text>
 <text x="298.5" y="459.9" class="node" fill="#A0ABE2">0.74</text>
 <text x="325" y="474.8" class="node" fill="#A0ABE2">0.74</text>
 <text x="351.5" y="489.5" class="node" fill="#7A8DE1">0.87</text>
 <text x="378" y="504.1" class="node" fill="#7A8DE1">0.87</text>
 <text x="404.5" y="518.1" class="node" fill="#A0ABE2">0.74</text>
 <text x="431" y="531.2" class="node" fill="#A0ABE2">0.74</text>
 <text x="457.5" y="542.5" class="node" fill="#A0ABE2">0.74</text></svg>
