<svg xmlns="http://www.w3.org/2000/svg" version="1.1" width="682" height="612" class="tree" data-char="203"><text x="678" y="14.1" text-anchor="end" class="stepsLabel">Character adds <tspan class="score">2</tspan> to tree score</text><text x="678" y="25.2" text-anchor="end" class="stepsLabel"><tspan class="score">0</tspan> additional regions</text><text x="678" y="36.3" text-anchor="end" class="stepsLabel">CI = 0.5; Fitch CI = 0.5; Fitch RI = 0.67</text><text x="678" y="58.5" text-anchor="end" class="stepsLabel"><tspan dy="16" fill="#34caaf">An optimal tree under:</tspan><tspan x="680" style="font-style:italic" class="thisAn" dy="1.2em">Equal weights</tspan><tspan x="680" style="font-style:italic" class="notThisAn" dy="1.2em">Implied weights, k = 2</tspan><tspan x="680" style="font-style:italic" class="notThisAn" dy="1.2em">IW, k = 3</tspan><tspan x="680" style="font-style:italic" class="notThisAn" dy="1.2em">IW, k = 4.5</tspan><tspan x="680" style="font-style:italic" class="notThisAn" dy="1.2em">IW, k = 7</tspan><tspan x="680" style="font-style:italic" class="notThisAn" dy="1.2em">IW, k = 10.5</tspan><tspan x="680" style="font-style:italic" class="notThisAn" dy="1.2em">IW, k = 16</tspan><tspan x="680" style="font-style:italic" class="notThisAn" dy="1.2em">IW, k = 24</tspan></text><text x="95.9" y="595.7" fill="grey" class="flag">[?]</text><text x="117.9" y="595.7" fill="#999" class="taxonLabel">Wiwaxia corrugata</text><text x="95.9" y="607" fill="#fc8d59" class="flag">[0]</text><text x="117.9" y="607" fill="#000" class="taxonLabel">Dentalium</text><text x="73.1" y="584.5" fill="#fc8d59" class="flag">[0]</text><text x="95.1" y="584.5" fill="#000" class="taxonLabel">Tonicella</text><text x="73.1" y="561.9" fill="#91bfdb" class="flag">[1]</text><text x="95.1" y="561.9" fill="#000" class="taxonLabel">Serpula</text><text x="73.1" y="573.2" fill="#91bfdb" class="flag">[1]</text><text x="95.1" y="573.2" fill="#000" class="taxonLabel">Sipunculus</text><text x="141.3" y="528.2" fill="grey" class="flag">[?]</text><text x="163.3" y="528.2" fill="#999" class="taxonLabel">Cotyledion tylodes</text><text x="141.3" y="539.4" fill="grey" class="flag">[?]</text><text x="163.3" y="539.4" fill="#999" class="taxonLabel">Dailyatia</text><text x="118.6" y="516.9" fill="#91bfdb" class="flag">[1]</text><text x="140.6" y="516.9" fill="#000" class="taxonLabel">Phoronis</text><text x="368.4" y="494.4" fill="grey" class="flag">[?]</text><text x="390.4" y="494.4" fill="#999" class="taxonLabel">Coolinia pecten</text><text x="368.4" y="505.6" fill="grey" class="flag">[?]</text><text x="390.4" y="505.6" fill="#999" class="taxonLabel">Antigonambonites planus</text><text x="482" y="471.8" fill="#91bfdb" class="flag">[1]</text><text x="504" y="471.8" fill="#000" class="taxonLabel">Terebratulina</text><text x="482" y="483.1" fill="grey" class="flag">[?]</text><text x="504" y="483.1" fill="#999" class="taxonLabel">Orthis</text><text x="459.3" y="460.6" fill="grey" class="flag">[?]</text><text x="481.3" y="460.6" fill="#999" class="taxonLabel">Alisina</text><text x="436.6" y="449.3" fill="grey" class="flag">[?]</text><text x="458.6" y="449.3" fill="#999" class="taxonLabel">Longtancunella chengjiangensis</text><text x="413.9" y="438" fill="grey" class="flag">[?]</text><text x="435.9" y="438" fill="#999" class="taxonLabel">Glyptoria</text><text x="391.1" y="426.8" fill="grey" class="flag">[?]</text><text x="413.1" y="426.8" fill="#999" class="taxonLabel">Nisusia sulcata</text><text x="368.4" y="415.5" fill="grey" class="flag">[?]</text><text x="390.4" y="415.5" fill="#999" class="taxonLabel">Kutorgina chengjiangensis</text><text x="323" y="404.2" fill="grey" class="flag">[?]</text><text x="345" y="404.2" fill="#999" class="taxonLabel">Tomteluva perturbata</text><text x="300.3" y="393" fill="grey" class="flag">[?]</text><text x="322.3" y="393" fill="#999" class="taxonLabel">Yuganotheca elegans</text><text x="277.6" y="381.7" fill="grey" class="flag">[?]</text><text x="299.6" y="381.7" fill="#999" class="taxonLabel">Salanygolina</text><text x="254.9" y="370.5" fill="grey" class="flag">[?]</text><text x="276.9" y="370.5" fill="#999" class="taxonLabel">Askepasma toddense</text><text x="368.4" y="347.9" fill="grey" class="flag">[?]</text><text x="390.4" y="347.9" fill="#999" class="taxonLabel">Acanthotretella spinosa</text><text x="368.4" y="359.2" fill="grey" class="flag">[?]</text><text x="390.4" y="359.2" fill="#999" class="taxonLabel">Siphonobolus priscus</text><text x="345.7" y="336.7" fill="grey" class="flag">[?]</text><text x="367.7" y="336.7" fill="#999" class="taxonLabel">Clupeafumosus socialis</text><text x="323" y="325.4" fill="grey" class="flag">[?]</text><text x="345" y="325.4" fill="#999" class="taxonLabel">Lingulosacculus</text><text x="368.4" y="302.9" fill="#91bfdb" class="flag">[1]</text><text x="390.4" y="302.9" fill="#000" class="taxonLabel">Pelagodiscus atlanticus</text><text x="368.4" y="314.1" fill="grey" class="flag">[?]</text><text x="390.4" y="314.1" fill="#999" class="taxonLabel">Mummpikia nuda</text><text x="345.7" y="291.6" fill="#91bfdb" class="flag">[1]</text><text x="367.7" y="291.6" fill="#000" class="taxonLabel">Lingula</text><text x="323" y="280.3" fill="grey" class="flag">[?]</text><text x="345" y="280.3" fill="#999" class="taxonLabel">Lingulellotreta malongensis</text><text x="300.3" y="257.8" fill="grey" class="flag">[?]</text><text x="322.3" y="257.8" fill="#999" class="taxonLabel">Eoobolus</text><text x="300.3" y="269.1" fill="grey" class="flag">[?]</text><text x="322.3" y="269.1" fill="#999" class="taxonLabel">Botsfordia</text><text x="300.3" y="235.3" fill="grey" class="flag">[?]</text><text x="322.3" y="235.3" fill="#999" class="taxonLabel">Gasconsia</text><text x="300.3" y="246.5" fill="grey" class="flag">[?]</text><text x="322.3" y="246.5" fill="#999" class="taxonLabel">Micromitra</text><text x="368.4" y="212.8" fill="grey" class="flag">[?]</text><text x="390.4" y="212.8" fill="#999" class="taxonLabel">Craniops</text><text x="368.4" y="224" fill="#91bfdb" class="flag">[1]</text><text x="390.4" y="224" fill="#000" class="taxonLabel">Novocrania</text><text x="345.7" y="201.5" fill="grey" class="flag">[?]</text><text x="367.7" y="201.5" fill="#999" class="taxonLabel">Ussunia</text><text x="323" y="190.2" fill="grey" class="flag">[?]</text><text x="345" y="190.2" fill="#999" class="taxonLabel">Heliomedusa orienta</text><text x="300.3" y="179" fill="grey" class="flag">[?]</text><text x="322.3" y="179" fill="#999" class="taxonLabel">Mickwitzia muralensis</text><text x="209.4" y="167.7" fill="grey" class="flag">[?]</text><text x="231.4" y="167.7" fill="#999" class="taxonLabel">Micrina</text><text x="345.7" y="145.2" fill="grey" class="flag">[?]</text><text x="367.7" y="145.2" fill="#999" class="taxonLabel">Pauxillites</text><text x="345.7" y="156.4" fill="grey" class="flag">[?]</text><text x="367.7" y="156.4" fill="#999" class="taxonLabel">Maxilites</text><text x="323" y="133.9" fill="grey" class="flag">[?]</text><text x="345" y="133.9" fill="#999" class="taxonLabel">Haplophrentis carinatus</text><text x="300.3" y="122.6" fill="grey" class="flag">[?]</text><text x="322.3" y="122.6" fill="#999" class="taxonLabel">Paramicrocornus</text><text x="277.6" y="111.4" fill="grey" class="flag">[?]</text><text x="299.6" y="111.4" fill="#999" class="taxonLabel">Probactrotheca</text><text x="254.9" y="100.1" fill="grey" class="flag">[?]</text><text x="276.9" y="100.1" fill="#999" class="taxonLabel">Decoritheca</text><text x="232.1" y="88.8" fill="grey" class="flag">[?]</text><text x="254.1" y="88.8" fill="#999" class="taxonLabel">Conotheca</text><text x="209.4" y="77.6" fill="grey" class="flag">[?]</text><text x="231.4" y="77.6" fill="#999" class="taxonLabel">Pedunculotheca diania</text><text x="164" y="66.3" fill="grey" class="flag">[?]</text><text x="186" y="66.3" fill="#999" class="taxonLabel">Paterimitra</text><text x="141.3" y="55.1" fill="grey" class="flag">[?]</text><text x="163.3" y="55.1" fill="#999" class="taxonLabel">Halkieria evangelista</text><text x="118.6" y="43.8" fill="grey" class="flag">[?]</text><text x="140.6" y="43.8" fill="#999" class="taxonLabel">Eccentrotheca</text><text x="118.6" y="10" fill="#fc8d59" class="flag">[0]</text><text x="140.6" y="10" fill="#000" class="taxonLabel">Flustra</text><text x="118.6" y="21.3" fill="grey" class="flag">[?]</text><text x="140.6" y="21.3" fill="#999" class="taxonLabel">Amathia</text><text x="95.9" y="32.5" fill="grey" class="flag">[?]</text><text x="117.9" y="32.5" fill="#999" class="taxonLabel">Namacalathus</text><text x="50.4" y="550.7" fill="#fc8d59" class="flag">[0]</text><text x="72.4" y="550.7" fill="#000" class="taxonLabel">Loxosomella</text><path d="M5,464.7V352.1H27.7M27.7,352.1V156.5H50.4M50.4,156.5V21.1H73.1M73.1,21.1V12.6H95.9M95.9,12.6V7H118.6M95.9,12.6V18.3H118.6M73.1,21.1V29.5H95.9M27.7,352.1V547.7H50.4M5,464.7V577.2H27.7M27.7,577.2V589.9H50.4M50.4,589.9V581.5H73.1M50.4,589.9V598.4H73.1M73.1,598.4V592.7H95.9M73.1,598.4V604H95.9" stroke="#fc8d59"></path><path d="M50.4,156.5V292H73.1M73.1,292V61.7H95.9M95.9,61.7V40.8H118.6M95.9,61.7V82.5H118.6M118.6,82.5V52.1H141.3M118.6,82.5V113H141.3M141.3,113V63.3H164M141.3,113V162.8H164M164,162.8V85.8H186.7M186.7,85.8V74.6H209.4M186.7,85.8V96.9H209.4M209.4,96.9V85.8H232.1M209.4,96.9V108H232.1M232.1,108V97.1H254.9M232.1,108V118.9H254.9M254.9,118.9V108.4H277.6M254.9,118.9V129.5H277.6M277.6,129.5V119.6H300.3M277.6,129.5V139.4H300.3M300.3,139.4V130.9H323M300.3,139.4V147.8H323M323,147.8V142.2H345.7M323,147.8V153.4H345.7M164,162.8V239.8H186.7M186.7,239.8V164.7H209.4M186.7,239.8V314.8H209.4M209.4,314.8V248.7H232.1M232.1,248.7V212.2H254.9M254.9,212.2V186.5H277.6M277.6,186.5V176H300.3M277.6,186.5V197.1H300.3M300.3,197.1V187.2H323M300.3,197.1V206.9H323M323,206.9V198.5H345.7M323,206.9V215.4H345.7M345.7,215.4V209.8H368.4M345.7,215.4V221H368.4M254.9,212.2V237.9H277.6M277.6,237.9V232.3H300.3M277.6,237.9V243.5H300.3M232.1,248.7V285.1H254.9M254.9,285.1V260.4H277.6M277.6,260.4V254.8H300.3M277.6,260.4V266.1H300.3M254.9,285.1V309.7H277.6M277.6,309.7V287.2H300.3M300.3,287.2V277.3H323M300.3,287.2V297.1H323M323,297.1V288.6H345.7M323,297.1V305.5H345.7M345.7,305.5V299.9H368.4M345.7,305.5V311.1H368.4M277.6,309.7V332.3H300.3M300.3,332.3V322.4H323M300.3,332.3V342.1H323M323,342.1V333.7H345.7M323,342.1V350.6H345.7M345.7,350.6V344.9H368.4M345.7,350.6V356.2H368.4M209.4,314.8V381H232.1M232.1,381V367.5H254.9M232.1,381V394.5H254.9M254.9,394.5V378.7H277.6M254.9,394.5V410.4H277.6M277.6,410.4V390H300.3M277.6,410.4V430.8H300.3M300.3,430.8V401.2H323M300.3,430.8V460.3H323M323,460.3V423.6H345.7M345.7,423.6V412.5H368.4M345.7,423.6V434.7H368.4M368.4,434.7V423.8H391.1M368.4,434.7V445.6H391.1M391.1,445.6V435H413.9M391.1,445.6V456.2H413.9M413.9,456.2V446.3H436.6M413.9,456.2V466H436.6M436.6,466V457.6H459.3M436.6,466V474.5H459.3M459.3,474.5V468.8H482M459.3,474.5V480.1H482M323,460.3V497H345.7M345.7,497V491.4H368.4M345.7,497V502.6H368.4M73.1,292V522.3H95.9M95.9,522.3V513.9H118.6M95.9,522.3V530.8H118.6M118.6,530.8V525.2H141.3M118.6,530.8V536.4H141.3M27.7,577.2V564.6H50.4M50.4,564.6V558.9H73.1M50.4,564.6V570.2H73.1" stroke="#91bfdb"></path><text x="7" y="467.7" class="node" fill="#4A6FE3">1</text><text x="29.7" y="355.1" class="node" fill="#4A6FE3">1</text><text x="52.4" y="159.5" class="node" fill="#4A6FE3">1</text><text x="75.1" y="24.1" class="node" fill="#E6B1BB">0.34</text><text x="97.9" y="15.6" class="node" fill="#4A6FE3">1</text><text x="75.1" y="295" class="node" fill="#E3DFE0">0.49</text><text x="97.9" y="64.7" class="node" fill="#DA5E7D">0.08</text><text x="120.6" y="85.5" class="node" fill="#A8B1E2">0.71</text><text x="143.3" y="116" class="node" fill="#A8B1E2">0.71</text><text x="166" y="165.8" class="node" fill="#A8B1E2">0.71</text><text x="188.7" y="88.8" class="node" fill="#A8B1E2">0.71</text><text x="211.4" y="99.9" class="node" fill="#4A6FE3">1</text><text x="234.1" y="111" class="node" fill="#E17F94">0.18</text><text x="256.9" y="121.9" class="node" fill="#DB6581">0.1</text><text x="279.6" y="132.5" class="node" fill="#7A8DE1">0.87</text><text x="302.3" y="142.4" class="node" fill="#E6B1BB">0.34</text><text x="325" y="150.8" class="node" fill="#4A6FE3">1</text><text x="188.7" y="242.8" class="node" fill="#667FE1">0.93</text><text x="211.4" y="317.8" class="node" fill="#D5D7E3">0.55</text><text x="234.1" y="251.7" class="node" fill="#B9BFE3">0.65</text><text x="256.9" y="215.2" class="node" fill="#D2D4E3">0.57</text><text x="279.6" y="189.5" class="node" fill="#D2D4E3">0.57</text><text x="302.3" y="200.1" class="node" fill="#7A8DE1">0.87</text><text x="325" y="209.9" class="node" fill="#4A6FE3">1</text><text x="347.7" y="218.4" class="node" fill="#4A6FE3">1</text><text x="279.6" y="240.9" class="node" fill="#BCC2E3">0.64</text><text x="256.9" y="288.1" class="node" fill="#A3ADE2">0.73</text><text x="279.6" y="263.4" class="node" fill="#E5C7CC">0.41</text><text x="279.6" y="312.7" class="node" fill="#DDDEE3">0.52</text><text x="302.3" y="290.2" class="node" fill="#DB617F">0.09</text><text x="325" y="300.1" class="node" fill="#E6AEB8">0.33</text><text x="347.7" y="308.5" class="node" fill="#D2D4E3">0.56</text><text x="302.3" y="335.3" class="node" fill="#AEB6E2">0.69</text><text x="325" y="345.1" class="node" fill="#E6B1BB">0.34</text><text x="347.7" y="353.6" class="node" fill="#5776E2">0.97</text><text x="234.1" y="384" class="node" fill="#ABB4E2">0.7</text><text x="256.9" y="397.5" class="node" fill="#97A4E2">0.77</text><text x="279.6" y="413.4" class="node" fill="#D2D4E3">0.57</text><text x="302.3" y="433.8" class="node" fill="#E495A5">0.25</text><text x="325" y="463.3" class="node" fill="#9AA6E2">0.76</text><text x="347.7" y="426.6" class="node" fill="#929FE1">0.79</text><text x="370.4" y="437.7" class="node" fill="#929FE1">0.79</text><text x="393.1" y="448.6" class="node" fill="#929FE1">0.79</text><text x="415.9" y="459.2" class="node" fill="#7A8DE1">0.87</text><text x="438.6" y="469" class="node" fill="#4A6FE3">1</text><text x="461.3" y="477.5" class="node" fill="#929FE1">0.79</text><text x="347.7" y="500" class="node" fill="#4A6FE3">1</text><text x="97.9" y="525.3" class="node" fill="#D54C71">0.03</text><text x="120.6" y="533.8" class="node" fill="#E28699">0.2</text><text x="29.7" y="580.2" class="node" fill="#4A6FE3">1</text><text x="52.4" y="567.6" class="node" fill="#4A6FE3">1</text><text x="52.4" y="592.9" class="node" fill="#4A6FE3">1</text><text x="75.1" y="601.4" class="node" fill="#6D84E1">0.91</text></svg>
