<svg xmlns="http://www.w3.org/2000/svg" version="1.1" width="682" height="682" class="tree" data-char="96"><text x="678" y="15.4" text-anchor="end" class="stepsLabel">Character adds <tspan class="score">2</tspan> to tree score</text><text x="678" y="27.8" text-anchor="end" class="stepsLabel"><tspan class="score">1</tspan> additional region</text><text x="678" y="40.2" text-anchor="end" class="stepsLabel">CI = 0.5; Fitch CI = 0.5; Fitch RI = 0.75</text><text x="678" y="65" text-anchor="end" class="stepsLabel"><tspan dy="16" fill="#34caaf">An optimal tree under:</tspan><tspan x="680" style="font-style:italic" class="thisAn" dy="1.2em">Equal weights</tspan><tspan x="680" style="font-style:italic" class="notThisAn" dy="1.2em">Implied weights, k = 2</tspan><tspan x="680" style="font-style:italic" class="notThisAn" dy="1.2em">IW, k = 3</tspan><tspan x="680" style="font-style:italic" class="notThisAn" dy="1.2em">IW, k = 4.5</tspan><tspan x="680" style="font-style:italic" class="notThisAn" dy="1.2em">IW, k = 7</tspan><tspan x="680" style="font-style:italic" class="notThisAn" dy="1.2em">IW, k = 10.5</tspan><tspan x="680" style="font-style:italic" class="notThisAn" dy="1.2em">IW, k = 16</tspan><tspan x="680" style="font-style:italic" class="notThisAn" dy="1.2em">IW, k = 24</tspan></text><text x="73.1" y="664.4" fill="lightgrey" class="flag">[-]</text><text x="95.1" y="664.4" fill="#ccc" class="taxonLabel">Sipunculus</text><text x="73.1" y="677" fill="lightgrey" class="flag">[-]</text><text x="95.1" y="677" fill="#ccc" class="taxonLabel">Serpula</text><text x="95.9" y="639.2" fill="#e2e2a2" class="flag">[1]</text><text x="117.9" y="639.2" fill="#000" class="taxonLabel">Tonicella</text><text x="95.9" y="651.8" fill="lightgrey" class="flag">[-]</text><text x="117.9" y="651.8" fill="#ccc" class="taxonLabel">Dentalium</text><text x="73.1" y="626.7" fill="lightgrey" class="flag">[-]</text><text x="95.1" y="626.7" fill="#ccc" class="taxonLabel">Wiwaxia corrugata</text><text x="391.1" y="601.5" fill="#91bfdb" class="flag">[2]</text><text x="413.1" y="601.5" fill="#000" class="taxonLabel">Coolinia pecten</text><text x="391.1" y="614.1" fill="#91bfdb" class="flag">[2]</text><text x="413.1" y="614.1" fill="#000" class="taxonLabel">Antigonambonites planus</text><text x="482" y="576.3" fill="lightgrey" class="flag">[-]</text><text x="504" y="576.3" fill="#ccc" class="taxonLabel">Terebratulina</text><text x="482" y="588.9" fill="#e2e2a2" class="flag">[1]</text><text x="504" y="588.9" fill="#000" class="taxonLabel">Alisina</text><text x="459.3" y="563.7" fill="#e2e2a2" class="flag">[1]</text><text x="481.3" y="563.7" fill="#000" class="taxonLabel">Orthis</text><text x="436.6" y="551.2" fill="#e2e2a2" class="flag">[1]</text><text x="458.6" y="551.2" fill="#000" class="taxonLabel">Glyptoria</text><text x="413.9" y="538.6" fill="#e2e2a2" class="flag">[1]</text><text x="435.9" y="538.6" fill="#000" class="taxonLabel">Nisusia sulcata</text><text x="391.1" y="526" fill="#91bfdb" class="flag">[2]</text><text x="413.1" y="526" fill="#000" class="taxonLabel">Kutorgina chengjiangensis</text><text x="345.7" y="513.4" fill="lightgrey" class="flag">[-]</text><text x="367.7" y="513.4" fill="#ccc" class="taxonLabel">Longtancunella chengjiangensis</text><text x="345.7" y="488.2" fill="#91bfdb" class="flag">[2]</text><text x="367.7" y="488.2" fill="#000" class="taxonLabel">Tomteluva perturbata</text><text x="345.7" y="500.8" fill="lightgrey" class="flag">[-]</text><text x="367.7" y="500.8" fill="#ccc" class="taxonLabel">Yuganotheca elegans</text><text x="300.3" y="475.6" fill="#91bfdb" class="flag">[2]</text><text x="322.3" y="475.6" fill="#000" class="taxonLabel">Salanygolina</text><text x="300.3" y="450.5" fill="lightgrey" class="flag">[-]</text><text x="322.3" y="450.5" fill="#ccc" class="taxonLabel">Micromitra</text><text x="300.3" y="463.1" fill="lightgrey" class="flag">[-]</text><text x="322.3" y="463.1" fill="#ccc" class="taxonLabel">Askepasma toddense</text><text x="368.4" y="425.3" fill="lightgrey" class="flag">[-]</text><text x="390.4" y="425.3" fill="#ccc" class="taxonLabel">Novocrania</text><text x="368.4" y="437.9" fill="lightgrey" class="flag">[-]</text><text x="390.4" y="437.9" fill="#ccc" class="taxonLabel">Craniops</text><text x="345.7" y="412.7" fill="lightgrey" class="flag">[-]</text><text x="367.7" y="412.7" fill="#ccc" class="taxonLabel">Ussunia</text><text x="323" y="400.1" fill="lightgrey" class="flag">[-]</text><text x="345" y="400.1" fill="#ccc" class="taxonLabel">Gasconsia</text><text x="300.3" y="387.5" fill="lightgrey" class="flag">[-]</text><text x="322.3" y="387.5" fill="#ccc" class="taxonLabel">Heliomedusa orienta</text><text x="459.3" y="362.4" fill="grey" class="flag">[?]</text><text x="481.3" y="362.4" fill="#999" class="taxonLabel">Mummpikia nuda</text><text x="459.3" y="375" fill="lightgrey" class="flag">[-]</text><text x="481.3" y="375" fill="#ccc" class="taxonLabel">Lingula</text><text x="436.6" y="349.8" fill="lightgrey" class="flag">[-]</text><text x="458.6" y="349.8" fill="#ccc" class="taxonLabel">Eoobolus</text><text x="413.9" y="337.2" fill="lightgrey" class="flag">[-]</text><text x="435.9" y="337.2" fill="#ccc" class="taxonLabel">Botsfordia</text><text x="391.1" y="324.6" fill="lightgrey" class="flag">[-]</text><text x="413.1" y="324.6" fill="#ccc" class="taxonLabel">Lingulellotreta malongensis</text><text x="413.9" y="299.5" fill="lightgrey" class="flag">[-]</text><text x="435.9" y="299.5" fill="#ccc" class="taxonLabel">Acanthotretella spinosa</text><text x="413.9" y="312" fill="lightgrey" class="flag">[-]</text><text x="435.9" y="312" fill="#ccc" class="taxonLabel">Siphonobolus priscus</text><text x="391.1" y="286.9" fill="lightgrey" class="flag">[-]</text><text x="413.1" y="286.9" fill="#ccc" class="taxonLabel">Lingulosacculus</text><text x="345.7" y="274.3" fill="lightgrey" class="flag">[-]</text><text x="367.7" y="274.3" fill="#ccc" class="taxonLabel">Clupeafumosus socialis</text><text x="323" y="261.7" fill="lightgrey" class="flag">[-]</text><text x="345" y="261.7" fill="#ccc" class="taxonLabel">Pelagodiscus atlanticus</text><text x="300.3" y="249.1" fill="lightgrey" class="flag">[-]</text><text x="322.3" y="249.1" fill="#ccc" class="taxonLabel">Mickwitzia muralensis</text><text x="232.1" y="236.5" fill="lightgrey" class="flag">[-]</text><text x="254.1" y="236.5" fill="#ccc" class="taxonLabel">Micrina</text><text x="345.7" y="211.4" fill="lightgrey" class="flag">[-]</text><text x="367.7" y="211.4" fill="#ccc" class="taxonLabel">Maxilites</text><text x="345.7" y="223.9" fill="lightgrey" class="flag">[-]</text><text x="367.7" y="223.9" fill="#ccc" class="taxonLabel">Pauxillites</text><text x="323" y="198.8" fill="lightgrey" class="flag">[-]</text><text x="345" y="198.8" fill="#ccc" class="taxonLabel">Haplophrentis carinatus</text><text x="300.3" y="186.2" fill="lightgrey" class="flag">[-]</text><text x="322.3" y="186.2" fill="#ccc" class="taxonLabel">Paramicrocornus</text><text x="300.3" y="161" fill="lightgrey" class="flag">[-]</text><text x="322.3" y="161" fill="#ccc" class="taxonLabel">Bactrotheca</text><text x="300.3" y="173.6" fill="lightgrey" class="flag">[-]</text><text x="322.3" y="173.6" fill="#ccc" class="taxonLabel">Conotheca</text><text x="254.9" y="148.4" fill="lightgrey" class="flag">[-]</text><text x="276.9" y="148.4" fill="#ccc" class="taxonLabel">Cupitheca holocyclata</text><text x="232.1" y="135.8" fill="lightgrey" class="flag">[-]</text><text x="254.1" y="135.8" fill="#ccc" class="taxonLabel">Pedunculotheca diania</text><text x="186.7" y="123.3" fill="lightgrey" class="flag">[-]</text><text x="208.7" y="123.3" fill="#ccc" class="taxonLabel">Paterimitra</text><text x="164" y="110.7" fill="lightgrey" class="flag">[-]</text><text x="186" y="110.7" fill="#ccc" class="taxonLabel">Halkieria evangelista</text><text x="141.3" y="98.1" fill="lightgrey" class="flag">[-]</text><text x="163.3" y="98.1" fill="#ccc" class="taxonLabel">Dailyatia</text><text x="141.3" y="72.9" fill="lightgrey" class="flag">[-]</text><text x="163.3" y="72.9" fill="#ccc" class="taxonLabel">Eccentrotheca</text><text x="141.3" y="85.5" fill="lightgrey" class="flag">[-]</text><text x="163.3" y="85.5" fill="#ccc" class="taxonLabel">Cotyledion tylodes</text><text x="118.6" y="47.8" fill="lightgrey" class="flag">[-]</text><text x="140.6" y="47.8" fill="#ccc" class="taxonLabel">Namacalathus</text><text x="118.6" y="60.3" fill="lightgrey" class="flag">[-]</text><text x="140.6" y="60.3" fill="#ccc" class="taxonLabel">Phoronis</text><text x="95.9" y="22.6" fill="lightgrey" class="flag">[-]</text><text x="117.9" y="22.6" fill="#ccc" class="taxonLabel">Flustra</text><text x="95.9" y="35.2" fill="lightgrey" class="flag">[-]</text><text x="117.9" y="35.2" fill="#ccc" class="taxonLabel">Amathia</text><text x="50.4" y="10" fill="lightgrey" class="flag">[-]</text><text x="72.4" y="10" fill="#ccc" class="taxonLabel">Loxosomella</text><path d="M5,339.5V28.5H27.7M27.7,28.5V7H50.4M27.7,28.5V50H50.4M50.4,50V25.9H73.1M73.1,25.9V19.6H95.9M73.1,25.9V32.2H95.9M50.4,50V74.2H73.1M73.1,74.2V51H95.9M95.9,51V44.8H118.6M95.9,51V57.3H118.6M73.1,74.2V97.4H95.9M95.9,97.4V76.2H118.6M118.6,76.2V69.9H141.3M118.6,76.2V82.5H141.3M95.9,97.4V118.6H118.6M118.6,118.6V95.1H141.3M118.6,118.6V142H141.3M141.3,142V107.7H164M141.3,142V176.4H164M164,176.4V120.3H186.7M164,176.4V232.5H186.7M186.7,232.5V147.6H209.4M209.4,147.6V132.8H232.1M209.4,147.6V162.3H232.1M232.1,162.3V145.4H254.9M232.1,162.3V179.3H254.9M254.9,179.3V164.3H277.6M277.6,164.3V158H300.3M277.6,164.3V170.6H300.3M254.9,179.3V194.2H277.6M277.6,194.2V183.2H300.3M277.6,194.2V205.2H300.3M300.3,205.2V195.8H323M300.3,205.2V214.7H323M323,214.7V208.4H345.7M323,214.7V220.9H345.7M186.7,232.5V317.4H209.4M209.4,317.4V233.5H232.1M209.4,317.4V401.3H232.1M232.1,401.3V328.6H254.9M254.9,328.6V260.8H277.6M277.6,260.8V246.1H300.3M277.6,260.8V275.5H300.3M300.3,275.5V258.7H323M300.3,275.5V292.3H323M323,292.3V271.3H345.7M323,292.3V313.4H345.7M345.7,313.4V293.3H368.4M368.4,293.3V283.9H391.1M368.4,293.3V302.7H391.1M391.1,302.7V296.5H413.9M391.1,302.7V309H413.9M345.7,313.4V333.4H368.4M368.4,333.4V321.6H391.1M368.4,333.4V345.2H391.1M391.1,345.2V334.2H413.9M391.1,345.2V356.2H413.9M413.9,356.2V346.8H436.6M413.9,356.2V365.7H436.6M436.6,365.7V359.4H459.3M436.6,365.7V372H459.3M254.9,328.6V396.3H277.6M277.6,396.3V384.5H300.3M277.6,396.3V408.1H300.3M300.3,408.1V397.1H323M300.3,408.1V419.2H323M323,419.2V409.7H345.7M323,419.2V428.6H345.7M345.7,428.6V422.3H368.4M345.7,428.6V434.9H368.4M232.1,401.3V474H254.9M254.9,474V453.8H277.6M277.6,453.8V447.5H300.3M277.6,453.8V460.1H300.3M323,491.5V497.8H345.7M323,540.2V510.4H345.7M459.3,579.6V573.3H482M5,339.5V650.4H27.7M27.7,650.4V633.1H50.4M50.4,633.1V623.7H73.1M50.4,633.1V642.5H73.1M73.1,642.5V648.8H95.9M27.7,650.4V667.7H50.4M50.4,667.7V661.4H73.1M50.4,667.7V674H73.1" stroke="lightgrey" class="inapplicable"></path><path d="M254.9,474V494.2H277.6M277.6,494.2V472.6H300.3M277.6,494.2V515.9H300.3M300.3,515.9V491.5H323M323,491.5V485.2H345.7M300.3,515.9V540.2H323M323,540.2V570H345.7M345.7,570V535.2H368.4M368.4,535.2V523H391.1M345.7,570V604.8H368.4M368.4,604.8V598.5H391.1M368.4,604.8V611.1H391.1" stroke="#91bfdb"></path><path d="M368.4,535.2V547.4H391.1M391.1,547.4V535.6H413.9M391.1,547.4V559.2H413.9M413.9,559.2V548.2H436.6M413.9,559.2V570.2H436.6M436.6,570.2V560.7H459.3M436.6,570.2V579.6H459.3M459.3,579.6V585.9H482M73.1,642.5V636.2H95.9" stroke="#e2e2a2"></path><text x="7" y="342.5" class="node" fill="#4A6FE3">1</text><text x="29.7" y="31.5" class="node" fill="#4A6FE3">1</text><text x="52.4" y="53" class="node" fill="#4A6FE3">1</text><text x="75.1" y="28.9" class="node" fill="#4A6FE3">1</text><text x="75.1" y="77.2" class="node" fill="#4A6FE3">1</text><text x="97.9" y="54" class="node" fill="#E6C1C7">0.39</text><text x="97.9" y="100.4" class="node" fill="#7388E1">0.89</text><text x="120.6" y="79.2" class="node" fill="#E59FAC">0.29</text><text x="120.6" y="121.6" class="node" fill="#A8B1E2">0.71</text><text x="143.3" y="145" class="node" fill="#7388E1">0.89</text><text x="166" y="179.4" class="node" fill="#7388E1">0.89</text><text x="188.7" y="235.5" class="node" fill="#A8B1E2">0.71</text><text x="211.4" y="150.6" class="node" fill="#7388E1">0.89</text><text x="234.1" y="165.3" class="node" fill="#7388E1">0.89</text><text x="256.9" y="182.3" class="node" fill="#D2D4E3">0.57</text><text x="279.6" y="167.3" class="node" fill="#667FE1">0.93</text><text x="279.6" y="197.2" class="node" fill="#4A6FE3">1</text><text x="302.3" y="208.2" class="node" fill="#4A6FE3">1</text><text x="325" y="217.7" class="node" fill="#4A6FE3">1</text><text x="211.4" y="320.4" class="node" fill="#8998E1">0.82</text><text x="234.1" y="404.3" class="node" fill="#CFD2E3">0.58</text><text x="256.9" y="331.6" class="node" fill="#CFD2E3">0.58</text><text x="279.6" y="263.8" class="node" fill="#7A8DE1">0.87</text><text x="302.3" y="278.5" class="node" fill="#BFC4E3">0.63</text><text x="325" y="295.3" class="node" fill="#9AA6E2">0.76</text><text x="347.7" y="316.4" class="node" fill="#E6BAC2">0.37</text><text x="370.4" y="296.3" class="node" fill="#E59FAC">0.29</text><text x="393.1" y="305.7" class="node" fill="#4A6FE3">1</text><text x="370.4" y="336.4" class="node" fill="#E2899B">0.21</text><text x="393.1" y="348.2" class="node" fill="#E5A8B3">0.31</text><text x="415.9" y="359.2" class="node" fill="#E5A8B3">0.31</text><text x="438.6" y="368.7" class="node" fill="#DD6C86">0.12</text><text x="279.6" y="399.3" class="node" fill="#AEB6E2">0.69</text><text x="302.3" y="411.1" class="node" fill="#DDDEE3">0.52</text><text x="325" y="422.2" class="node" fill="#8998E1">0.82</text><text x="347.7" y="431.6" class="node" fill="#8998E1">0.82</text><text x="256.9" y="477" class="node" fill="#9AA6E2">0.76</text><text x="279.6" y="456.8" class="node" fill="#768BE1">0.88</text><text x="279.6" y="497.2" class="node" fill="#7A8DE1">0.87</text><text x="302.3" y="518.9" class="node" fill="#BCC2E3">0.64</text><text x="325" y="494.5" class="node" fill="#E6BDC5">0.38</text><text x="325" y="543.2" class="node" fill="#E6C1C7">0.39</text><text x="347.7" y="573" class="node" fill="#E6C1C7">0.39</text><text x="370.4" y="538.2" class="node" fill="#E6C1C7">0.39</text><text x="393.1" y="550.4" class="node" fill="#E17F94">0.18</text><text x="415.9" y="562.2" class="node" fill="#9AA6E2">0.76</text><text x="438.6" y="573.2" class="node" fill="#4A6FE3">1</text><text x="461.3" y="582.6" class="node" fill="#E18297">0.19</text><text x="370.4" y="607.8" class="node" fill="#4A6FE3">1</text><text x="29.7" y="653.4" class="node" fill="#4A6FE3">1</text><text x="52.4" y="636.1" class="node" fill="#4A6FE3">1</text><text x="75.1" y="645.5" class="node" fill="#4A6FE3">1</text><text x="52.4" y="670.7" class="node" fill="#4A6FE3">1</text><circle cx="5" cy="339.5"/><text x="2" y="342.5" class="dud-step">Nonsensical Fitch step</text></svg>
