<svg xmlns="http://www.w3.org/2000/svg" version="1.1" width="682" height="612" class="tree" data-char="162"><text x="678" y="15.7" text-anchor="end" class="stepsLabel">Character adds <tspan class="score">1</tspan> to tree score</text><text x="678" y="28.4" text-anchor="end" class="stepsLabel"><tspan class="score">0</tspan> additional regions</text><text x="678" y="41.1" text-anchor="end" class="stepsLabel">CI = 1; Fitch CI = 1; Fitch RI = n/a</text><text x="678" y="66.5" text-anchor="end" class="stepsLabel"><tspan dy="16">An optimal tree under:</tspan><tspan x="680" style="font-style:italic" class="thisAn" dy="1.2em">Equal weights</tspan><tspan x="680" style="font-style:italic" class="notThisAn" dy="1.2em">Implied weights, k = 2</tspan><tspan x="680" style="font-style:italic" class="notThisAn" dy="1.2em">IW, k = 3</tspan><tspan x="680" style="font-style:italic" class="notThisAn" dy="1.2em">IW, k = 4.5</tspan><tspan x="680" style="font-style:italic" class="notThisAn" dy="1.2em">IW, k = 7</tspan><tspan x="680" style="font-style:italic" class="notThisAn" dy="1.2em">IW, k = 10.5</tspan><tspan x="680" style="font-style:italic" class="notThisAn" dy="1.2em">IW, k = 16</tspan><tspan x="680" style="font-style:italic" class="notThisAn" dy="1.2em">IW, k = 24</tspan></text><text x="80.3" y="594" fill="grey" class="flag">[?]</text><text x="102.3" y="594" fill="grey" class="taxonLabel">Serpula</text><text x="80.3" y="607" fill="#91bfdb" class="flag">[2]</text><text x="102.3" y="607" fill="#000" class="taxonLabel">Sipunculus</text><text x="105.4" y="568.1" fill="#e2e2a2" class="flag">[1]</text><text x="127.4" y="568.1" fill="#000" class="taxonLabel">Dentalium</text><text x="105.4" y="581" fill="#91bfdb" class="flag">[2]</text><text x="127.4" y="581" fill="#000" class="taxonLabel">Tonicella</text><text x="80.3" y="555.1" fill="grey" class="flag">[?]</text><text x="102.3" y="555.1" fill="grey" class="taxonLabel">Wiwaxia corrugata</text><text x="482" y="516.2" fill="grey" class="flag">[?]</text><text x="504" y="516.2" fill="grey" class="taxonLabel">Acanthotretella spinosa</text><text x="482" y="529.1" fill="grey" class="flag">[?]</text><text x="504" y="529.1" fill="grey" class="taxonLabel">Siphonobolus priscus</text><text x="456.9" y="503.2" fill="grey" class="flag">[?]</text><text x="478.9" y="503.2" fill="grey" class="taxonLabel">Lingulosacculus</text><text x="431.8" y="490.2" fill="grey" class="flag">[?]</text><text x="453.8" y="490.2" fill="grey" class="taxonLabel">Clupeafumosus socialis</text><text x="406.7" y="477.2" fill="grey" class="flag">[?]</text><text x="428.7" y="477.2" fill="grey" class="taxonLabel">Lingulellotreta malongensis</text><text x="381.6" y="464.2" fill="grey" class="flag">[?]</text><text x="403.6" y="464.2" fill="grey" class="taxonLabel">Botsfordia</text><text x="356.5" y="451.3" fill="grey" class="flag">[?]</text><text x="378.5" y="451.3" fill="grey" class="taxonLabel">Mummpikia nuda</text><text x="331.4" y="438.3" fill="grey" class="flag">[?]</text><text x="353.4" y="438.3" fill="grey" class="taxonLabel">Eoobolus</text><text x="306.3" y="425.3" fill="grey" class="flag">[?]</text><text x="328.3" y="425.3" fill="grey" class="taxonLabel">Lingula</text><text x="331.4" y="399.3" fill="grey" class="flag">[?]</text><text x="353.4" y="399.3" fill="grey" class="taxonLabel">Mickwitzia muralensis</text><text x="331.4" y="412.3" fill="grey" class="flag">[?]</text><text x="353.4" y="412.3" fill="grey" class="taxonLabel">Pelagodiscus atlanticus</text><text x="306.3" y="386.4" fill="grey" class="flag">[?]</text><text x="328.3" y="386.4" fill="grey" class="taxonLabel">Micrina</text><text x="356.5" y="360.4" fill="grey" class="flag">[?]</text><text x="378.5" y="360.4" fill="grey" class="taxonLabel">Yuganotheca elegans</text><text x="356.5" y="373.4" fill="grey" class="flag">[?]</text><text x="378.5" y="373.4" fill="grey" class="taxonLabel">Tomteluva perturbata</text><text x="331.4" y="347.4" fill="grey" class="flag">[?]</text><text x="353.4" y="347.4" fill="grey" class="taxonLabel">Salanygolina</text><text x="482" y="321.5" fill="grey" class="flag">[?]</text><text x="504" y="321.5" fill="grey" class="taxonLabel">Alisina</text><text x="482" y="334.5" fill="grey" class="flag">[?]</text><text x="504" y="334.5" fill="grey" class="taxonLabel">Terebratulina</text><text x="456.9" y="308.5" fill="grey" class="flag">[?]</text><text x="478.9" y="308.5" fill="grey" class="taxonLabel">Orthis</text><text x="431.8" y="295.5" fill="grey" class="flag">[?]</text><text x="453.8" y="295.5" fill="grey" class="taxonLabel">Glyptoria</text><text x="406.7" y="282.5" fill="grey" class="flag">[?]</text><text x="428.7" y="282.5" fill="grey" class="taxonLabel">Nisusia sulcata</text><text x="381.6" y="269.6" fill="grey" class="flag">[?]</text><text x="403.6" y="269.6" fill="grey" class="taxonLabel">Kutorgina chengjiangensis</text><text x="381.6" y="243.6" fill="grey" class="flag">[?]</text><text x="403.6" y="243.6" fill="grey" class="taxonLabel">Coolinia pecten</text><text x="381.6" y="256.6" fill="grey" class="flag">[?]</text><text x="403.6" y="256.6" fill="grey" class="taxonLabel">Antigonambonites planus</text><text x="331.4" y="230.6" fill="grey" class="flag">[?]</text><text x="353.4" y="230.6" fill="grey" class="taxonLabel">Longtancunella chengjiangensis</text><text x="331.4" y="204.7" fill="grey" class="flag">[?]</text><text x="353.4" y="204.7" fill="grey" class="taxonLabel">Gasconsia</text><text x="331.4" y="217.7" fill="grey" class="flag">[?]</text><text x="353.4" y="217.7" fill="grey" class="taxonLabel">Micromitra</text><text x="306.3" y="191.7" fill="grey" class="flag">[?]</text><text x="328.3" y="191.7" fill="grey" class="taxonLabel">Askepasma toddense</text><text x="281.2" y="165.7" fill="grey" class="flag">[?]</text><text x="303.2" y="165.7" fill="grey" class="taxonLabel">Haplophrentis carinatus</text><text x="281.2" y="178.7" fill="grey" class="flag">[?]</text><text x="303.2" y="178.7" fill="grey" class="taxonLabel">Pedunculotheca diania</text><text x="256.1" y="152.8" fill="grey" class="flag">[?]</text><text x="278.1" y="152.8" fill="grey" class="taxonLabel">Paterimitra</text><text x="205.8" y="139.8" fill="grey" class="flag">[?]</text><text x="227.8" y="139.8" fill="grey" class="taxonLabel">Heliomedusa orienta</text><text x="230.9" y="113.8" fill="grey" class="flag">[?]</text><text x="252.9" y="113.8" fill="grey" class="taxonLabel">Novocrania</text><text x="230.9" y="126.8" fill="grey" class="flag">[?]</text><text x="252.9" y="126.8" fill="grey" class="taxonLabel">Craniops</text><text x="205.8" y="100.8" fill="grey" class="flag">[?]</text><text x="227.8" y="100.8" fill="grey" class="taxonLabel">Ussunia</text><text x="180.7" y="74.9" fill="grey" class="flag">[?]</text><text x="202.7" y="74.9" fill="grey" class="taxonLabel">Dailyatia</text><text x="180.7" y="87.9" fill="grey" class="flag">[?]</text><text x="202.7" y="87.9" fill="grey" class="taxonLabel">Halkieria evangelista</text><text x="155.6" y="48.9" fill="grey" class="flag">[?]</text><text x="177.6" y="48.9" fill="grey" class="taxonLabel">Eccentrotheca</text><text x="155.6" y="61.9" fill="grey" class="flag">[?]</text><text x="177.6" y="61.9" fill="grey" class="taxonLabel">Cotyledion tylodes</text><text x="130.5" y="23" fill="grey" class="flag">[?]</text><text x="152.5" y="23" fill="grey" class="taxonLabel">Namacalathus</text><text x="130.5" y="36" fill="grey" class="flag">[?]</text><text x="152.5" y="36" fill="grey" class="taxonLabel">Phoronis</text><text x="80.3" y="10" fill="grey" class="flag">[?]</text><text x="102.3" y="10" fill="grey" class="taxonLabel">Flustra</text><text x="55.2" y="542.1" fill="#91bfdb" class="flag">[2]</text><text x="77.2" y="542.1" fill="#000" class="taxonLabel">Loxosomella</text><path d="M5,432.3V285H30.1M30.1,285V30.9H55.2M55.2,30.9V7H80.3M55.2,30.9V54.8H80.3M80.3,54.8V26.5H105.4M105.4,26.5V20H130.5M105.4,26.5V33H130.5M80.3,54.8V83.2H105.4M105.4,83.2V52.4H130.5M130.5,52.4V45.9H155.6M130.5,52.4V58.9H155.6M105.4,83.2V113.9H130.5M130.5,113.9V78.4H155.6M155.6,78.4V71.9H180.7M155.6,78.4V84.9H180.7M130.5,113.9V149.4H155.6M155.6,149.4V107.6H180.7M180.7,107.6V97.8H205.8M180.7,107.6V117.3H205.8M205.8,117.3V110.8H230.9M205.8,117.3V123.8H230.9M155.6,149.4V191.2H180.7M180.7,191.2V136.8H205.8M180.7,191.2V245.6H205.8M205.8,245.6V159.5H230.9M230.9,159.5V149.8H256.1M230.9,159.5V169.2H256.1M256.1,169.2V162.7H281.2M256.1,169.2V175.7H281.2M205.8,245.6V331.6H230.9M230.9,331.6V249.1H256.1M256.1,249.1V198.4H281.2M281.2,198.4V188.7H306.3M281.2,198.4V208.2H306.3M306.3,208.2V201.7H331.4M306.3,208.2V214.7H331.4M256.1,249.1V299.8H281.2M281.2,299.8V245.4H306.3M306.3,245.4V227.6H331.4M306.3,245.4V263.1H331.4M331.4,263.1V247.1H356.5M356.5,247.1V240.6H381.6M356.5,247.1V253.6H381.6M331.4,263.1V279.1H356.5M356.5,279.1V266.6H381.6M356.5,279.1V291.7H381.6M381.6,291.7V279.5H406.7M381.6,291.7V303.9H406.7M406.7,303.9V292.5H431.8M406.7,303.9V315.2H431.8M431.8,315.2V305.5H456.9M431.8,315.2V325H456.9M456.9,325V318.5H482M456.9,325V331.5H482M281.2,299.8V354.2H306.3M306.3,354.2V344.4H331.4M306.3,354.2V363.9H331.4M331.4,363.9V357.4H356.5M331.4,363.9V370.4H356.5M230.9,331.6V414.2H256.1M256.1,414.2V393.1H281.2M281.2,393.1V383.4H306.3M281.2,393.1V402.8H306.3M306.3,402.8V396.3H331.4M306.3,402.8V409.3H331.4M256.1,414.2V435.2H281.2M281.2,435.2V422.3H306.3M281.2,435.2V448.2H306.3M306.3,448.2V435.3H331.4M306.3,448.2V461H331.4M331.4,461V448.3H356.5M331.4,461V473.8H356.5M356.5,473.8V461.2H381.6M356.5,473.8V486.4H381.6M381.6,486.4V474.2H406.7M381.6,486.4V498.6H406.7M406.7,498.6V487.2H431.8M406.7,498.6V509.9H431.8M431.8,509.9V500.2H456.9M431.8,509.9V519.6H456.9M456.9,519.6V513.2H482M456.9,519.6V526.1H482M30.1,285V539.1H55.2M5,432.3V579.7H30.1M30.1,579.7V561.8H55.2M55.2,561.8V552.1H80.3M55.2,561.8V571.6H80.3M80.3,571.6V578H105.4M30.1,579.7V597.5H55.2M55.2,597.5V591H80.3M55.2,597.5V604H80.3" stroke="#91bfdb"></path><path d="M80.3,571.6V565.1H105.4" stroke="#e2e2a2"></path><text x="7" y="435.3" class="node" fill="#4A6FE3">1</text><text x="32.1" y="288" class="node" fill="#4A6FE3">1</text><text x="57.2" y="33.9" class="node" fill="#6D84E1">0.91</text><text x="82.3" y="57.8" class="node" fill="#5B78E2">0.96</text><text x="107.4" y="29.5" class="node" fill="#7086E1">0.9</text><text x="107.4" y="86.2" class="node" fill="#6D84E1">0.91</text><text x="132.5" y="55.4" class="node" fill="#E18297">0.19</text><text x="132.5" y="116.9" class="node" fill="#8C9BE1">0.81</text><text x="157.6" y="81.4" class="node" fill="#A8B1E2">0.71</text><text x="157.6" y="152.4" class="node" fill="#4A6FE3">1</text><text x="182.7" y="110.6" class="node" fill="#9AA6E2">0.76</text><text x="207.8" y="120.3" class="node" fill="#4A6FE3">1</text><text x="182.7" y="194.2" class="node" fill="#97A4E2">0.77</text><text x="207.8" y="248.6" class="node" fill="#97A4E2">0.77</text><text x="232.9" y="162.5" class="node" fill="#E6B1BB">0.34</text><text x="258.1" y="172.2" class="node" fill="#4A6FE3">1</text><text x="232.9" y="334.6" class="node" fill="#97A4E2">0.77</text><text x="258.1" y="252.1" class="node" fill="#97A4E2">0.77</text><text x="283.2" y="201.4" class="node" fill="#E49CAA">0.27</text><text x="308.3" y="211.2" class="node" fill="#DADBE3">0.53</text><text x="283.2" y="302.8" class="node" fill="#4A6FE3">1</text><text x="308.3" y="248.4" class="node" fill="#7086E1">0.9</text><text x="333.4" y="266.1" class="node" fill="#BFC4E3">0.63</text><text x="358.5" y="250.1" class="node" fill="#4A6FE3">1</text><text x="358.5" y="282.1" class="node" fill="#BFC4E3">0.63</text><text x="383.6" y="294.7" class="node" fill="#BFC4E3">0.63</text><text x="408.7" y="306.9" class="node" fill="#BFC4E3">0.63</text><text x="433.8" y="318.2" class="node" fill="#4A6FE3">1</text><text x="458.9" y="328" class="node" fill="#E5A8B3">0.31</text><text x="308.3" y="357.2" class="node" fill="#8C9BE1">0.81</text><text x="333.4" y="366.9" class="node" fill="#5B78E2">0.96</text><text x="258.1" y="417.2" class="node" fill="#95A1E2">0.78</text><text x="283.2" y="396.1" class="node" fill="#95A1E2">0.78</text><text x="308.3" y="405.8" class="node" fill="#4A6FE3">1</text><text x="283.2" y="438.2" class="node" fill="#4A6FE3">1</text><text x="308.3" y="451.2" class="node" fill="#6D84E1">0.91</text><text x="333.4" y="464" class="node" fill="#95A1E2">0.78</text><text x="358.5" y="476.8" class="node" fill="#95A1E2">0.78</text><text x="383.6" y="489.4" class="node" fill="#95A1E2">0.78</text><text x="408.7" y="501.6" class="node" fill="#9DA8E2">0.75</text><text x="433.8" y="512.9" class="node" fill="#E495A5">0.25</text><text x="458.9" y="522.6" class="node" fill="#4A6FE3">1</text><text x="32.1" y="582.7" class="node" fill="#4A6FE3">1</text><text x="57.2" y="564.8" class="node" fill="#4A6FE3">1</text><text x="82.3" y="574.6" class="node" fill="#4A6FE3">1</text><text x="57.2" y="600.5" class="node" fill="#4A6FE3">1</text></svg>
