<svg xmlns="http://www.w3.org/2000/svg" version="1.1" width="682" height="612" class="tree" data-char="204"><text x="678" y="15.4" text-anchor="end" class="stepsLabel">Character adds <tspan class="score">1</tspan> to tree score</text><text x="678" y="27.8" text-anchor="end" class="stepsLabel"><tspan class="score">0</tspan> additional regions</text><text x="678" y="40.2" text-anchor="end" class="stepsLabel">CI = 1; Fitch CI = 1; Fitch RI = 1</text><text x="678" y="65" text-anchor="end" class="stepsLabel"><tspan dy="16" fill="#34caaf">An optimal tree under:</tspan><tspan x="680" style="font-style:italic" class="notThisAn" dy="1.2em">Equal weights</tspan><tspan x="680" style="font-style:italic" class="notThisAn" dy="1.2em">Implied weights, k = 2</tspan><tspan x="680" style="font-style:italic" class="notThisAn" dy="1.2em">IW, k = 3</tspan><tspan x="680" style="font-style:italic" class="notThisAn" dy="1.2em">IW, k = 4.5</tspan><tspan x="680" style="font-style:italic" class="notThisAn" dy="1.2em">IW, k = 7</tspan><tspan x="680" style="font-style:italic" class="thisAn" dy="1.2em">IW, k = 10.5</tspan><tspan x="680" style="font-style:italic" class="notThisAn" dy="1.2em">IW, k = 16</tspan><tspan x="680" style="font-style:italic" class="notThisAn" dy="1.2em">IW, k = 24</tspan></text><text x="111" y="594.3" fill="grey" class="flag">[?]</text><text x="133" y="594.3" fill="#999" class="taxonLabel">Wiwaxia corrugata</text><text x="111" y="607" fill="#91bfdb" class="flag">[1]</text><text x="133" y="607" fill="#000" class="taxonLabel">Dentalium</text><text x="84.5" y="581.6" fill="#91bfdb" class="flag">[1]</text><text x="106.5" y="581.6" fill="#000" class="taxonLabel">Tonicella</text><text x="84.5" y="556.2" fill="#91bfdb" class="flag">[1]</text><text x="106.5" y="556.2" fill="#000" class="taxonLabel">Sipunculus</text><text x="84.5" y="568.9" fill="#91bfdb" class="flag">[1]</text><text x="106.5" y="568.9" fill="#000" class="taxonLabel">Serpula</text><text x="323" y="518.1" fill="grey" class="flag">[?]</text><text x="345" y="518.1" fill="#999" class="taxonLabel">Haplophrentis carinatus</text><text x="323" y="530.8" fill="grey" class="flag">[?]</text><text x="345" y="530.8" fill="#999" class="taxonLabel">Pedunculotheca diania</text><text x="376" y="492.7" fill="grey" class="flag">[?]</text><text x="398" y="492.7" fill="#999" class="taxonLabel">Craniops</text><text x="376" y="505.4" fill="#fc8d59" class="flag">[0]</text><text x="398" y="505.4" fill="#000" class="taxonLabel">Novocrania</text><text x="349.5" y="480" fill="grey" class="flag">[?]</text><text x="371.5" y="480" fill="#999" class="taxonLabel">Ussunia</text><text x="323" y="467.3" fill="grey" class="flag">[?]</text><text x="345" y="467.3" fill="#999" class="taxonLabel">Gasconsia</text><text x="402.5" y="441.9" fill="grey" class="flag">[?]</text><text x="424.5" y="441.9" fill="#999" class="taxonLabel">Lingulellotreta malongensis</text><text x="402.5" y="454.6" fill="#fc8d59" class="flag">[0]</text><text x="424.5" y="454.6" fill="#000" class="taxonLabel">Lingula</text><text x="455.5" y="416.5" fill="grey" class="flag">[?]</text><text x="477.5" y="416.5" fill="#999" class="taxonLabel">Acanthotretella spinosa</text><text x="455.5" y="429.2" fill="grey" class="flag">[?]</text><text x="477.5" y="429.2" fill="#999" class="taxonLabel">Siphonobolus priscus</text><text x="429" y="403.8" fill="grey" class="flag">[?]</text><text x="451" y="403.8" fill="#999" class="taxonLabel">Lingulosacculus</text><text x="402.5" y="391.1" fill="grey" class="flag">[?]</text><text x="424.5" y="391.1" fill="#999" class="taxonLabel">Clupeafumosus socialis</text><text x="376" y="365.7" fill="#fc8d59" class="flag">[0]</text><text x="398" y="365.7" fill="#000" class="taxonLabel">Pelagodiscus atlanticus</text><text x="376" y="378.4" fill="grey" class="flag">[?]</text><text x="398" y="378.4" fill="#999" class="taxonLabel">Mummpikia nuda</text><text x="323" y="353" fill="grey" class="flag">[?]</text><text x="345" y="353" fill="#999" class="taxonLabel">Botsfordia</text><text x="296.5" y="340.3" fill="grey" class="flag">[?]</text><text x="318.5" y="340.3" fill="#999" class="taxonLabel">Eoobolus</text><text x="349.5" y="314.9" fill="grey" class="flag">[?]</text><text x="371.5" y="314.9" fill="#999" class="taxonLabel">Tomteluva perturbata</text><text x="349.5" y="327.6" fill="grey" class="flag">[?]</text><text x="371.5" y="327.6" fill="#999" class="taxonLabel">Yuganotheca elegans</text><text x="323" y="302.1" fill="grey" class="flag">[?]</text><text x="345" y="302.1" fill="#999" class="taxonLabel">Salanygolina</text><text x="482" y="276.7" fill="#fc8d59" class="flag">[0]</text><text x="504" y="276.7" fill="#000" class="taxonLabel">Terebratulina</text><text x="482" y="289.4" fill="grey" class="flag">[?]</text><text x="504" y="289.4" fill="#999" class="taxonLabel">Orthis</text><text x="455.5" y="264" fill="grey" class="flag">[?]</text><text x="477.5" y="264" fill="#999" class="taxonLabel">Alisina</text><text x="429" y="251.3" fill="grey" class="flag">[?]</text><text x="451" y="251.3" fill="#999" class="taxonLabel">Longtancunella chengjiangensis</text><text x="402.5" y="238.6" fill="grey" class="flag">[?]</text><text x="424.5" y="238.6" fill="#999" class="taxonLabel">Glyptoria</text><text x="376" y="225.9" fill="grey" class="flag">[?]</text><text x="398" y="225.9" fill="#999" class="taxonLabel">Nisusia sulcata</text><text x="349.5" y="213.2" fill="grey" class="flag">[?]</text><text x="371.5" y="213.2" fill="#999" class="taxonLabel">Kutorgina chengjiangensis</text><text x="349.5" y="187.8" fill="grey" class="flag">[?]</text><text x="371.5" y="187.8" fill="#999" class="taxonLabel">Coolinia pecten</text><text x="349.5" y="200.5" fill="grey" class="flag">[?]</text><text x="371.5" y="200.5" fill="#999" class="taxonLabel">Antigonambonites planus</text><text x="296.5" y="162.4" fill="grey" class="flag">[?]</text><text x="318.5" y="162.4" fill="#999" class="taxonLabel">Micromitra</text><text x="296.5" y="175.1" fill="grey" class="flag">[?]</text><text x="318.5" y="175.1" fill="#999" class="taxonLabel">Askepasma toddense</text><text x="217" y="149.7" fill="grey" class="flag">[?]</text><text x="239" y="149.7" fill="#999" class="taxonLabel">Micrina</text><text x="190.5" y="137" fill="grey" class="flag">[?]</text><text x="212.5" y="137" fill="#999" class="taxonLabel">Heliomedusa orienta</text><text x="164" y="124.3" fill="grey" class="flag">[?]</text><text x="186" y="124.3" fill="#999" class="taxonLabel">Mickwitzia muralensis</text><text x="190.5" y="98.9" fill="grey" class="flag">[?]</text><text x="212.5" y="98.9" fill="#999" class="taxonLabel">Dailyatia</text><text x="190.5" y="111.6" fill="grey" class="flag">[?]</text><text x="212.5" y="111.6" fill="#999" class="taxonLabel">Halkieria evangelista</text><text x="164" y="86.2" fill="grey" class="flag">[?]</text><text x="186" y="86.2" fill="#999" class="taxonLabel">Paterimitra</text><text x="164" y="60.8" fill="#fc8d59" class="flag">[0]</text><text x="186" y="60.8" fill="#000" class="taxonLabel">Phoronis</text><text x="164" y="73.5" fill="grey" class="flag">[?]</text><text x="186" y="73.5" fill="#999" class="taxonLabel">Namacalathus</text><text x="164" y="35.4" fill="grey" class="flag">[?]</text><text x="186" y="35.4" fill="#999" class="taxonLabel">Cotyledion tylodes</text><text x="164" y="48.1" fill="grey" class="flag">[?]</text><text x="186" y="48.1" fill="#999" class="taxonLabel">Eccentrotheca</text><text x="111" y="10" fill="#fc8d59" class="flag">[0]</text><text x="133" y="10" fill="#000" class="taxonLabel">Flustra</text><text x="111" y="22.7" fill="grey" class="flag">[?]</text><text x="133" y="22.7" fill="#999" class="taxonLabel">Amathia</text><text x="58" y="543.5" fill="#91bfdb" class="flag">[1]</text><text x="80" y="543.5" fill="#000" class="taxonLabel">Loxosomella</text><path d="M5,434.6V295.3H31.5M31.5,295.3V540.5H58M5,434.6V573.8H31.5M31.5,573.8V559.5H58M58,559.5V553.2H84.5M58,559.5V565.9H84.5M31.5,573.8V588.1H58M58,588.1V578.6H84.5M58,588.1V597.6H84.5M84.5,597.6V591.3H111M84.5,597.6V604H111" stroke="#91bfdb"></path><path d="M31.5,295.3V50.2H58M58,50.2V13.4H84.5M84.5,13.4V7H111M84.5,13.4V19.7H111M58,50.2V87H84.5M84.5,87V51.5H111M111,51.5V38.8H137.5M137.5,38.8V32.4H164M137.5,38.8V45.1H164M111,51.5V64.2H137.5M137.5,64.2V57.8H164M137.5,64.2V70.5H164M84.5,87V122.6H111M111,122.6V92.7H137.5M137.5,92.7V83.2H164M137.5,92.7V102.3H164M164,102.3V95.9H190.5M164,102.3V108.6H190.5M111,122.6V152.4H137.5M137.5,152.4V121.3H164M137.5,152.4V183.5H164M164,183.5V134H190.5M164,183.5V233H190.5M190.5,233V146.7H217M190.5,233V319.3H217M217,319.3V211.8H243.5M243.5,211.8V165.8H270M270,165.8V159.4H296.5M270,165.8V172.1H296.5M243.5,211.8V257.8H270M270,257.8V207H296.5M296.5,207V191.2H323M323,191.2V184.8H349.5M323,191.2V197.5H349.5M296.5,207V222.7H323M323,222.7V210.2H349.5M323,222.7V235.2H349.5M349.5,235.2V222.9H376M349.5,235.2V247.5H376M376,247.5V235.6H402.5M376,247.5V259.5H402.5M402.5,259.5V248.3H429M402.5,259.5V270.6H429M429,270.6V261H455.5M429,270.6V280.1H455.5M455.5,280.1V273.7H482M455.5,280.1V286.4H482M270,257.8V308.7H296.5M296.5,308.7V299.1H323M296.5,308.7V318.2H323M323,318.2V311.9H349.5M323,318.2V324.6H349.5M217,319.3V426.7H243.5M243.5,426.7V355H270M270,355V337.3H296.5M270,355V372.8H296.5M296.5,372.8V350H323M296.5,372.8V395.6H323M323,395.6V369H349.5M349.5,369V362.7H376M349.5,369V375.4H376M323,395.6V422.2H349.5M349.5,422.2V399.2H376M376,399.2V388.1H402.5M376,399.2V410.3H402.5M402.5,410.3V400.8H429M402.5,410.3V419.8H429M429,419.8V413.5H455.5M429,419.8V426.2H455.5M349.5,422.2V445.2H376M376,445.2V438.9H402.5M376,445.2V451.6H402.5M243.5,426.7V498.4H270M270,498.4V475.4H296.5M296.5,475.4V464.3H323M296.5,475.4V486.5H323M323,486.5V477H349.5M323,486.5V496H349.5M349.5,496V489.7H376M349.5,496V502.4H376M270,498.4V521.4H296.5M296.5,521.4V515.1H323M296.5,521.4V527.8H323" stroke="#fc8d59"></path><text x="7" y="437.6" class="node" fill="#4A6FE3">1</text><text x="33.5" y="298.3" class="node" fill="#4A6FE3">1</text><text x="60" y="53.2" class="node" fill="#E5CACE">0.42</text><text x="86.5" y="16.4" class="node" fill="#4A6FE3">1</text><text x="86.5" y="90" class="node" fill="#E5CACE">0.42</text><text x="113" y="54.5" class="node" fill="#E5A8B3">0.31</text><text x="139.5" y="41.8" class="node" fill="#DC6884">0.11</text><text x="139.5" y="67.2" class="node" fill="#5B78E2">0.96</text><text x="113" y="125.6" class="node" fill="#E4D6D8">0.46</text><text x="139.5" y="95.7" class="node" fill="#E5C7CC">0.41</text><text x="166" y="105.3" class="node" fill="#E5C7CC">0.41</text><text x="139.5" y="155.4" class="node" fill="#E4D6D8">0.46</text><text x="166" y="186.5" class="node" fill="#E38C9E">0.22</text><text x="192.5" y="236" class="node" fill="#E07C92">0.17</text><text x="219" y="322.3" class="node" fill="#E07C92">0.17</text><text x="245.5" y="214.8" class="node" fill="#DD6F88">0.13</text><text x="272" y="168.8" class="node" fill="#AEB6E2">0.69</text><text x="272" y="260.8" class="node" fill="#A6AFE2">0.72</text><text x="298.5" y="210" class="node" fill="#5374E2">0.98</text><text x="325" y="194.2" class="node" fill="#4A6FE3">1</text><text x="325" y="225.7" class="node" fill="#CACDE3">0.59</text><text x="351.5" y="238.2" class="node" fill="#CACDE3">0.59</text><text x="378" y="250.5" class="node" fill="#C7CBE3">0.6</text><text x="404.5" y="262.5" class="node" fill="#C7CBE3">0.6</text><text x="431" y="273.6" class="node" fill="#4A6FE3">1</text><text x="457.5" y="283.1" class="node" fill="#929FE1">0.79</text><text x="298.5" y="311.7" class="node" fill="#E6BAC2">0.37</text><text x="325" y="321.2" class="node" fill="#B1B8E2">0.68</text><text x="245.5" y="429.7" class="node" fill="#DD6F88">0.13</text><text x="272" y="358" class="node" fill="#E4D6D8">0.46</text><text x="298.5" y="375.8" class="node" fill="#DD6F88">0.13</text><text x="325" y="398.6" class="node" fill="#DD6F88">0.13</text><text x="351.5" y="372" class="node" fill="#DE728B">0.14</text><text x="351.5" y="425.2" class="node" fill="#E6C1C7">0.39</text><text x="378" y="402.2" class="node" fill="#95A1E2">0.78</text><text x="404.5" y="413.3" class="node" fill="#E498A7">0.26</text><text x="431" y="422.8" class="node" fill="#4A6FE3">1</text><text x="378" y="448.2" class="node" fill="#E5CDD1">0.43</text><text x="272" y="501.4" class="node" fill="#E17F94">0.18</text><text x="298.5" y="478.4" class="node" fill="#E28699">0.2</text><text x="325" y="489.5" class="node" fill="#E4D6D8">0.46</text><text x="351.5" y="499" class="node" fill="#E4D6D8">0.46</text><text x="298.5" y="524.4" class="node" fill="#4A6FE3">1</text><text x="33.5" y="576.8" class="node" fill="#4A6FE3">1</text><text x="60" y="562.5" class="node" fill="#4A6FE3">1</text><text x="60" y="591.1" class="node" fill="#4A6FE3">1</text><text x="86.5" y="600.6" class="node" fill="#4A6FE3">1</text></svg>
