<svg xmlns="http://www.w3.org/2000/svg" version="1.1" width="682" height="612" class="tree" data-char="81"><text x="678" y="15.4" text-anchor="end" class="stepsLabel">Character adds <tspan class="score">1</tspan> to tree score</text><text x="678" y="27.8" text-anchor="end" class="stepsLabel"><tspan class="score">0</tspan> additional regions</text><text x="678" y="40.2" text-anchor="end" class="stepsLabel">CI = 1; Fitch CI = 1; Fitch RI = 1</text><text x="678" y="65" text-anchor="end" class="stepsLabel"><tspan dy="16" fill="#34caaf">An optimal tree under:</tspan><tspan x="680" style="font-style:italic" class="thisAn" dy="1.2em">Equal weights</tspan><tspan x="680" style="font-style:italic" class="notThisAn" dy="1.2em">Implied weights, k = 2</tspan><tspan x="680" style="font-style:italic" class="notThisAn" dy="1.2em">IW, k = 3</tspan><tspan x="680" style="font-style:italic" class="notThisAn" dy="1.2em">IW, k = 4.5</tspan><tspan x="680" style="font-style:italic" class="notThisAn" dy="1.2em">IW, k = 7</tspan><tspan x="680" style="font-style:italic" class="notThisAn" dy="1.2em">IW, k = 10.5</tspan><tspan x="680" style="font-style:italic" class="notThisAn" dy="1.2em">IW, k = 16</tspan><tspan x="680" style="font-style:italic" class="notThisAn" dy="1.2em">IW, k = 24</tspan></text><text x="76.6" y="594.3" fill="#fc8d59" class="flag">[0]</text><text x="98.6" y="594.3" fill="#000" class="taxonLabel">Serpula</text><text x="76.6" y="607" fill="#fc8d59" class="flag">[0]</text><text x="98.6" y="607" fill="#000" class="taxonLabel">Sipunculus</text><text x="100.4" y="568.9" fill="#fc8d59" class="flag">[0]</text><text x="122.4" y="568.9" fill="#000" class="taxonLabel">Wiwaxia corrugata</text><text x="100.4" y="581.6" fill="#fc8d59" class="flag">[0]</text><text x="122.4" y="581.6" fill="#000" class="taxonLabel">Dentalium</text><text x="76.6" y="556.2" fill="#fc8d59" class="flag">[0]</text><text x="98.6" y="556.2" fill="#000" class="taxonLabel">Tonicella</text><text x="100.4" y="530.8" fill="#fc8d59" class="flag">[0]</text><text x="122.4" y="530.8" fill="#000" class="taxonLabel">Loxosomella</text><text x="100.4" y="543.5" fill="#fc8d59" class="flag">[0]</text><text x="122.4" y="543.5" fill="#000" class="taxonLabel">Dailyatia</text><text x="76.6" y="518.1" fill="#fc8d59" class="flag">[0]</text><text x="98.6" y="518.1" fill="#000" class="taxonLabel">Eccentrotheca</text><text x="148.1" y="492.7" fill="#fc8d59" class="flag">[0]</text><text x="170.1" y="492.7" fill="#000" class="taxonLabel">Namacalathus</text><text x="148.1" y="505.4" fill="#fc8d59" class="flag">[0]</text><text x="170.1" y="505.4" fill="#000" class="taxonLabel">Phoronis</text><text x="124.2" y="480" fill="#fc8d59" class="flag">[0]</text><text x="146.2" y="480" fill="#000" class="taxonLabel">Cotyledion tylodes</text><text x="172" y="454.6" fill="grey" class="flag">[?]</text><text x="194" y="454.6" fill="#999" class="taxonLabel">Craniops</text><text x="172" y="467.3" fill="grey" class="flag">[?]</text><text x="194" y="467.3" fill="#999" class="taxonLabel">Ussunia</text><text x="267.4" y="429.2" fill="grey" class="flag">[?]</text><text x="289.4" y="429.2" fill="#999" class="taxonLabel">Tomteluva perturbata</text><text x="267.4" y="441.9" fill="grey" class="flag">[?]</text><text x="289.4" y="441.9" fill="#999" class="taxonLabel">Yuganotheca elegans</text><text x="434.3" y="403.8" fill="#fc8d59" class="flag">[0]</text><text x="456.3" y="403.8" fill="#000" class="taxonLabel">Terebratulina</text><text x="434.3" y="416.5" fill="#fc8d59" class="flag">[0]</text><text x="456.3" y="416.5" fill="#000" class="taxonLabel">Orthis</text><text x="410.5" y="391.1" fill="#fc8d59" class="flag">[0]</text><text x="432.5" y="391.1" fill="#000" class="taxonLabel">Alisina</text><text x="386.6" y="378.4" fill="#fc8d59" class="flag">[0]</text><text x="408.6" y="378.4" fill="#000" class="taxonLabel">Glyptoria</text><text x="362.8" y="365.7" fill="#fc8d59" class="flag">[0]</text><text x="384.8" y="365.7" fill="#000" class="taxonLabel">Nisusia sulcata</text><text x="338.9" y="353" fill="#fc8d59" class="flag">[0]</text><text x="360.9" y="353" fill="#000" class="taxonLabel">Kutorgina chengjiangensis</text><text x="338.9" y="327.6" fill="#fc8d59" class="flag">[0]</text><text x="360.9" y="327.6" fill="#000" class="taxonLabel">Antigonambonites planus</text><text x="338.9" y="340.3" fill="#fc8d59" class="flag">[0]</text><text x="360.9" y="340.3" fill="#000" class="taxonLabel">Coolinia pecten</text><text x="291.2" y="314.9" fill="grey" class="flag">[?]</text><text x="313.2" y="314.9" fill="#999" class="taxonLabel">Longtancunella chengjiangensis</text><text x="267.4" y="302.1" fill="#fc8d59" class="flag">[0]</text><text x="289.4" y="302.1" fill="#000" class="taxonLabel">Salanygolina</text><text x="315.1" y="276.7" fill="#91bfdb" class="flag">[1]</text><text x="337.1" y="276.7" fill="#000" class="taxonLabel">Pelagodiscus atlanticus</text><text x="315.1" y="289.4" fill="grey" class="flag">[?]</text><text x="337.1" y="289.4" fill="#999" class="taxonLabel">Mickwitzia muralensis</text><text x="482" y="251.3" fill="grey" class="flag">[?]</text><text x="504" y="251.3" fill="#999" class="taxonLabel">Siphonobolus priscus</text><text x="482" y="264" fill="#91bfdb" class="flag">[1]</text><text x="504" y="264" fill="#000" class="taxonLabel">Acanthotretella spinosa</text><text x="458.2" y="238.6" fill="#91bfdb" class="flag">[1]</text><text x="480.2" y="238.6" fill="#000" class="taxonLabel">Clupeafumosus socialis</text><text x="458.2" y="213.2" fill="#91bfdb" class="flag">[1]</text><text x="480.2" y="213.2" fill="#000" class="taxonLabel">Lingulosacculus</text><text x="458.2" y="225.9" fill="#91bfdb" class="flag">[1]</text><text x="480.2" y="225.9" fill="#000" class="taxonLabel">Lingulellotreta malongensis</text><text x="410.5" y="200.5" fill="grey" class="flag">[?]</text><text x="432.5" y="200.5" fill="#999" class="taxonLabel">Botsfordia</text><text x="386.6" y="187.8" fill="grey" class="flag">[?]</text><text x="408.6" y="187.8" fill="#999" class="taxonLabel">Mummpikia nuda</text><text x="362.8" y="175.1" fill="grey" class="flag">[?]</text><text x="384.8" y="175.1" fill="#999" class="taxonLabel">Eoobolus</text><text x="338.9" y="162.4" fill="#91bfdb" class="flag">[1]</text><text x="360.9" y="162.4" fill="#000" class="taxonLabel">Lingula</text><text x="315.1" y="149.7" fill="grey" class="flag">[?]</text><text x="337.1" y="149.7" fill="#999" class="taxonLabel">Micrina</text><text x="291.2" y="124.3" fill="grey" class="flag">[?]</text><text x="313.2" y="124.3" fill="#999" class="taxonLabel">Heliomedusa orienta</text><text x="291.2" y="137" fill="#fc8d59" class="flag">[0]</text><text x="313.2" y="137" fill="#000" class="taxonLabel">Novocrania</text><text x="267.4" y="98.9" fill="#fc8d59" class="flag">[0]</text><text x="289.4" y="98.9" fill="#000" class="taxonLabel">Micromitra</text><text x="267.4" y="111.6" fill="grey" class="flag">[?]</text><text x="289.4" y="111.6" fill="#999" class="taxonLabel">Askepasma toddense</text><text x="243.5" y="73.5" fill="grey" class="flag">[?]</text><text x="265.5" y="73.5" fill="#999" class="taxonLabel">Haplophrentis carinatus</text><text x="243.5" y="86.2" fill="grey" class="flag">[?]</text><text x="265.5" y="86.2" fill="#999" class="taxonLabel">Pedunculotheca diania</text><text x="219.7" y="60.8" fill="grey" class="flag">[?]</text><text x="241.7" y="60.8" fill="#999" class="taxonLabel">Paterimitra</text><text x="172" y="48.1" fill="#fc8d59" class="flag">[0]</text><text x="194" y="48.1" fill="#000" class="taxonLabel">Gasconsia</text><text x="124.2" y="35.4" fill="#fc8d59" class="flag">[0]</text><text x="146.2" y="35.4" fill="#000" class="taxonLabel">Halkieria evangelista</text><text x="100.4" y="10" fill="#fc8d59" class="flag">[0]</text><text x="122.4" y="10" fill="#000" class="taxonLabel">Flustra</text><text x="100.4" y="22.7" fill="#fc8d59" class="flag">[0]</text><text x="122.4" y="22.7" fill="#000" class="taxonLabel">Amathia</text><path d="M5,463.1V346H28.9M28.9,346V167.4H52.7M52.7,167.4V13.4H76.6M76.6,13.4V7H100.4M76.6,13.4V19.7H100.4M52.7,167.4V321.5H76.6M76.6,321.5V156.5H100.4M100.4,156.5V32.4H124.2M100.4,156.5V280.6H124.2M124.2,280.6V103.3H148.1M148.1,103.3V45.1H172M148.1,103.3V161.5H172M172,161.5V67.3H195.8M195.8,67.3V57.8H219.7M195.8,67.3V76.9H219.7M219.7,76.9V70.5H243.5M219.7,76.9V83.2H243.5M172,161.5V255.7H195.8M195.8,255.7V138H219.7M219.7,138V102.3H243.5M243.5,102.3V95.9H267.4M243.5,102.3V108.6H267.4M219.7,138V173.8H243.5M243.5,173.8V127.7H267.4M267.4,127.7V121.3H291.2M267.4,127.7V134H291.2M195.8,255.7V373.4H219.7M219.7,373.4V314.2H243.5M243.5,314.2V299.1H267.4M243.5,314.2V329.2H267.4M267.4,329.2V311.9H291.2M267.4,329.2V346.6H291.2M291.2,346.6V330.9H315.1M315.1,330.9V324.6H338.9M315.1,330.9V337.3H338.9M291.2,346.6V362.3H315.1M315.1,362.3V350H338.9M315.1,362.3V374.6H338.9M338.9,374.6V362.7H362.8M338.9,374.6V386.5H362.8M362.8,386.5V375.4H386.6M362.8,386.5V397.6H386.6M386.6,397.6V388.1H410.5M386.6,397.6V407.1H410.5M410.5,407.1V400.8H434.3M410.5,407.1V413.5H434.3M219.7,373.4V432.5H243.5M243.5,432.5V426.2H267.4M243.5,432.5V438.9H267.4M124.2,280.6V457.9H148.1M148.1,457.9V451.6H172M148.1,457.9V464.3H172M76.6,321.5V486.5H100.4M100.4,486.5V477H124.2M100.4,486.5V496H124.2M124.2,496V489.7H148.1M124.2,496V502.4H148.1M28.9,346V524.6H52.7M52.7,524.6V515.1H76.6M52.7,524.6V534.1H76.6M76.6,534.1V527.8H100.4M76.6,534.1V540.5H100.4M5,463.1V580.2H28.9M28.9,580.2V562.7H52.7M52.7,562.7V553.2H76.6M52.7,562.7V572.2H76.6M76.6,572.2V565.9H100.4M76.6,572.2V578.6H100.4M28.9,580.2V597.6H52.7M52.7,597.6V591.3H76.6M52.7,597.6V604H76.6" stroke="#fc8d59"></path><path d="M243.5,173.8V219.9H267.4M267.4,219.9V159.7H291.2M291.2,159.7V146.7H315.1M291.2,159.7V172.6H315.1M315.1,172.6V159.4H338.9M315.1,172.6V185.8H338.9M338.9,185.8V172.1H362.8M338.9,185.8V199.5H362.8M362.8,199.5V184.8H386.6M362.8,199.5V214.2H386.6M386.6,214.2V197.5H410.5M386.6,214.2V230.9H410.5M410.5,230.9V216.6H434.3M434.3,216.6V210.2H458.2M434.3,216.6V222.9H458.2M410.5,230.9V245.2H434.3M434.3,245.2V235.6H458.2M434.3,245.2V254.7H458.2M458.2,254.7V248.3H482M458.2,254.7V261H482M267.4,219.9V280.1H291.2M291.2,280.1V273.7H315.1M291.2,280.1V286.4H315.1" stroke="#91bfdb"></path><text x="7" y="466.1" class="node" fill="#4A6FE3">1</text><text x="30.9" y="349" class="node" fill="#4A6FE3">1</text><text x="54.7" y="170.4" class="node" fill="#E0E0E2">0.51</text><text x="78.6" y="16.4" class="node" fill="#4A6FE3">1</text><text x="78.6" y="324.5" class="node" fill="#E0E0E2">0.51</text><text x="102.4" y="159.5" class="node" fill="#B9BFE3">0.65</text><text x="126.2" y="283.6" class="node" fill="#4A6FE3">1</text><text x="150.1" y="106.3" class="node" fill="#E0E0E2">0.51</text><text x="174" y="164.5" class="node" fill="#E0E0E2">0.51</text><text x="197.8" y="70.3" class="node" fill="#E0E0E2">0.51</text><text x="221.7" y="79.9" class="node" fill="#4A6FE3">1</text><text x="197.8" y="258.7" class="node" fill="#E0E0E2">0.51</text><text x="221.7" y="141" class="node" fill="#E0E0E2">0.51</text><text x="245.5" y="105.3" class="node" fill="#4A6FE3">1</text><text x="245.5" y="176.8" class="node" fill="#E0E0E2">0.51</text><text x="269.4" y="130.7" class="node" fill="#E0E0E2">0.51</text><text x="269.4" y="222.9" class="node" fill="#E0E0E2">0.51</text><text x="293.2" y="162.7" class="node" fill="#E59FAC">0.28</text><text x="317.1" y="175.6" class="node" fill="#7D8FE1">0.86</text><text x="340.9" y="188.8" class="node" fill="#E0E0E2">0.51</text><text x="364.8" y="202.5" class="node" fill="#E0E0E2">0.51</text><text x="388.6" y="217.2" class="node" fill="#E0E0E2">0.51</text><text x="412.5" y="233.9" class="node" fill="#E0E0E2">0.51</text><text x="436.3" y="219.6" class="node" fill="#D95A7A">0.07</text><text x="436.3" y="248.2" class="node" fill="#E4D9DB">0.47</text><text x="460.2" y="257.7" class="node" fill="#4A6FE3">1</text><text x="293.2" y="283.1" class="node" fill="#7D8FE1">0.86</text><text x="221.7" y="376.4" class="node" fill="#7D8FE1">0.86</text><text x="245.5" y="317.2" class="node" fill="#DF758D">0.15</text><text x="269.4" y="332.2" class="node" fill="#A3ADE2">0.73</text><text x="293.2" y="349.6" class="node" fill="#E6B7C0">0.36</text><text x="317.1" y="333.9" class="node" fill="#4A6FE3">1</text><text x="317.1" y="365.3" class="node" fill="#E6B7C0">0.36</text><text x="340.9" y="377.6" class="node" fill="#E6B7C0">0.36</text><text x="364.8" y="389.5" class="node" fill="#E6B7C0">0.36</text><text x="388.6" y="400.6" class="node" fill="#4A6FE3">1</text><text x="412.5" y="410.1" class="node" fill="#8C9BE1">0.81</text><text x="245.5" y="435.5" class="node" fill="#D5D7E3">0.55</text><text x="150.1" y="460.9" class="node" fill="#E0E0E2">0.51</text><text x="102.4" y="489.5" class="node" fill="#8C9BE1">0.81</text><text x="126.2" y="499" class="node" fill="#4A6FE3">1</text><text x="54.7" y="527.6" class="node" fill="#E0E0E2">0.51</text><text x="78.6" y="537.1" class="node" fill="#E0E0E2">0.51</text><text x="30.9" y="583.2" class="node" fill="#4A6FE3">1</text><text x="54.7" y="565.7" class="node" fill="#4A6FE3">1</text><text x="78.6" y="575.2" class="node" fill="#E0E0E2">0.51</text><text x="54.7" y="600.6" class="node" fill="#4A6FE3">1</text></svg>
