<svg xmlns="http://www.w3.org/2000/svg" version="1.1" width="682" height="682" class="tree" data-char="39"><text x="678" y="15.4" text-anchor="end" class="stepsLabel">Character adds <tspan class="score">1</tspan> to tree score</text><text x="678" y="27.8" text-anchor="end" class="stepsLabel"><tspan class="score">0</tspan> additional regions</text><text x="678" y="40.2" text-anchor="end" class="stepsLabel">CI = 1; Fitch CI = 1; Fitch RI = 1</text><text x="678" y="65" text-anchor="end" class="stepsLabel"><tspan dy="16" fill="#34caaf">An optimal tree under:</tspan><tspan x="680" style="font-style:italic" class="notThisAn" dy="1.2em">Implied weights, k = 3</tspan><tspan x="680" style="font-style:italic" class="notThisAn" dy="1.2em">IW, k = 4.5</tspan><tspan x="680" style="font-style:italic" class="notThisAn" dy="1.2em">IW, k = 7</tspan><tspan x="680" style="font-style:italic" class="thisAn" dy="1.2em">IW, k = 10.5</tspan><tspan x="680" style="font-style:italic" class="thisAn" dy="1.2em">IW, k = 16</tspan><tspan x="680" style="font-style:italic" class="thisAn" dy="1.2em">IW, k = 24</tspan><tspan x="680" style="font-style:italic" class="notThisAn" dy="1.2em">Equal weights</tspan></text><text x="300.3" y="664.4" fill="grey" class="flag">[?]</text><text x="322.3" y="664.4" fill="#999" class="taxonLabel">Mickwitzia muralensis</text><text x="300.3" y="677" fill="#e2e2a2" class="flag">[1]</text><text x="322.3" y="677" fill="#000" class="taxonLabel">Heliomedusa orienta</text><text x="277.6" y="651.8" fill="grey" class="flag">[?]</text><text x="299.6" y="651.8" fill="#999" class="taxonLabel">Micrina</text><text x="368.4" y="626.7" fill="grey" class="flag">[?]</text><text x="390.4" y="626.7" fill="#999" class="taxonLabel">Antigonambonites planus</text><text x="368.4" y="639.2" fill="grey" class="flag">[?]</text><text x="390.4" y="639.2" fill="#999" class="taxonLabel">Coolinia pecten</text><text x="482" y="601.5" fill="#e2e2a2" class="flag">[1]</text><text x="504" y="601.5" fill="#000" class="taxonLabel">Terebratulina</text><text x="482" y="614.1" fill="#e2e2a2" class="flag">[1]</text><text x="504" y="614.1" fill="#000" class="taxonLabel">Orthis</text><text x="459.3" y="588.9" fill="#e2e2a2" class="flag">[1]</text><text x="481.3" y="588.9" fill="#000" class="taxonLabel">Alisina</text><text x="436.6" y="576.3" fill="grey" class="flag">[?]</text><text x="458.6" y="576.3" fill="#999" class="taxonLabel">Longtancunella chengjiangensis</text><text x="413.9" y="563.7" fill="#e2e2a2" class="flag">[1]</text><text x="435.9" y="563.7" fill="#000" class="taxonLabel">Glyptoria</text><text x="391.1" y="551.2" fill="grey" class="flag">[?]</text><text x="413.1" y="551.2" fill="#999" class="taxonLabel">Tomteluva perturbata</text><text x="391.1" y="526" fill="grey" class="flag">[?]</text><text x="413.1" y="526" fill="#999" class="taxonLabel">Nisusia sulcata</text><text x="391.1" y="538.6" fill="grey" class="flag">[?]</text><text x="413.1" y="538.6" fill="#999" class="taxonLabel">Kutorgina chengjiangensis</text><text x="323" y="513.4" fill="grey" class="flag">[?]</text><text x="345" y="513.4" fill="#999" class="taxonLabel">Salanygolina</text><text x="323" y="488.2" fill="#e2e2a2" class="flag">[1]</text><text x="345" y="488.2" fill="#000" class="taxonLabel">Micromitra</text><text x="323" y="500.8" fill="#e2e2a2" class="flag">[1]</text><text x="345" y="500.8" fill="#000" class="taxonLabel">Askepasma toddense</text><text x="482" y="463.1" fill="grey" class="flag">[?]</text><text x="504" y="463.1" fill="#999" class="taxonLabel">Acanthotretella spinosa</text><text x="482" y="475.6" fill="grey" class="flag">[?]</text><text x="504" y="475.6" fill="#999" class="taxonLabel">Siphonobolus priscus</text><text x="459.3" y="450.5" fill="#91bfdb" class="flag">[2]</text><text x="481.3" y="450.5" fill="#000" class="taxonLabel">Lingulosacculus</text><text x="436.6" y="437.9" fill="grey" class="flag">[?]</text><text x="458.6" y="437.9" fill="#999" class="taxonLabel">Clupeafumosus socialis</text><text x="413.9" y="425.3" fill="grey" class="flag">[?]</text><text x="435.9" y="425.3" fill="#999" class="taxonLabel">Lingulellotreta malongensis</text><text x="413.9" y="400.1" fill="#91bfdb" class="flag">[2]</text><text x="435.9" y="400.1" fill="#000" class="taxonLabel">Pelagodiscus atlanticus</text><text x="413.9" y="412.7" fill="grey" class="flag">[?]</text><text x="435.9" y="412.7" fill="#999" class="taxonLabel">Mummpikia nuda</text><text x="368.4" y="387.5" fill="#91bfdb" class="flag">[2]</text><text x="390.4" y="387.5" fill="#000" class="taxonLabel">Botsfordia</text><text x="345.7" y="375" fill="#91bfdb" class="flag">[2]</text><text x="367.7" y="375" fill="#000" class="taxonLabel">Eoobolus</text><text x="323" y="362.4" fill="#91bfdb" class="flag">[2]</text><text x="345" y="362.4" fill="#000" class="taxonLabel">Lingula</text><text x="368.4" y="337.2" fill="#e2e2a2" class="flag">[1]</text><text x="390.4" y="337.2" fill="#000" class="taxonLabel">Novocrania</text><text x="368.4" y="349.8" fill="grey" class="flag">[?]</text><text x="390.4" y="349.8" fill="#999" class="taxonLabel">Craniops</text><text x="345.7" y="324.6" fill="grey" class="flag">[?]</text><text x="367.7" y="324.6" fill="#999" class="taxonLabel">Ussunia</text><text x="323" y="312" fill="grey" class="flag">[?]</text><text x="345" y="312" fill="#999" class="taxonLabel">Gasconsia</text><text x="232.1" y="299.5" fill="#e2e2a2" class="flag">[1]</text><text x="254.1" y="299.5" fill="#000" class="taxonLabel">Yuganotheca elegans</text><text x="300.3" y="274.3" fill="grey" class="flag">[?]</text><text x="322.3" y="274.3" fill="#999" class="taxonLabel">Bactrotheca</text><text x="300.3" y="286.9" fill="grey" class="flag">[?]</text><text x="322.3" y="286.9" fill="#999" class="taxonLabel">Conotheca</text><text x="277.6" y="261.7" fill="lightgrey" class="flag">[-]</text><text x="299.6" y="261.7" fill="#ccc" class="taxonLabel">Cupitheca holocyclata</text><text x="323" y="236.5" fill="grey" class="flag">[?]</text><text x="345" y="236.5" fill="#999" class="taxonLabel">Pauxillites</text><text x="323" y="249.1" fill="grey" class="flag">[?]</text><text x="345" y="249.1" fill="#999" class="taxonLabel">Maxilites</text><text x="300.3" y="223.9" fill="grey" class="flag">[?]</text><text x="322.3" y="223.9" fill="#999" class="taxonLabel">Haplophrentis carinatus</text><text x="277.6" y="211.4" fill="lightgrey" class="flag">[-]</text><text x="299.6" y="211.4" fill="#ccc" class="taxonLabel">Paramicrocornus</text><text x="232.1" y="198.8" fill="grey" class="flag">[?]</text><text x="254.1" y="198.8" fill="#999" class="taxonLabel">Pedunculotheca diania</text><text x="186.7" y="186.2" fill="lightgrey" class="flag">[-]</text><text x="208.7" y="186.2" fill="#ccc" class="taxonLabel">Paterimitra</text><text x="164" y="173.6" fill="lightgrey" class="flag">[-]</text><text x="186" y="173.6" fill="#ccc" class="taxonLabel">Halkieria evangelista</text><text x="141.3" y="161" fill="lightgrey" class="flag">[-]</text><text x="163.3" y="161" fill="#ccc" class="taxonLabel">Dailyatia</text><text x="141.3" y="135.8" fill="lightgrey" class="flag">[-]</text><text x="163.3" y="135.8" fill="#ccc" class="taxonLabel">Eccentrotheca</text><text x="141.3" y="148.4" fill="lightgrey" class="flag">[-]</text><text x="163.3" y="148.4" fill="#ccc" class="taxonLabel">Cotyledion tylodes</text><text x="95.9" y="123.3" fill="lightgrey" class="flag">[-]</text><text x="117.9" y="123.3" fill="#ccc" class="taxonLabel">Namacalathus</text><text x="73.1" y="110.7" fill="lightgrey" class="flag">[-]</text><text x="95.1" y="110.7" fill="#ccc" class="taxonLabel">Phoronis</text><text x="73.1" y="85.5" fill="lightgrey" class="flag">[-]</text><text x="95.1" y="85.5" fill="#ccc" class="taxonLabel">Flustra</text><text x="73.1" y="98.1" fill="lightgrey" class="flag">[-]</text><text x="95.1" y="98.1" fill="#ccc" class="taxonLabel">Amathia</text><text x="118.6" y="60.3" fill="lightgrey" class="flag">[-]</text><text x="140.6" y="60.3" fill="#ccc" class="taxonLabel">Tonicella</text><text x="118.6" y="72.9" fill="lightgrey" class="flag">[-]</text><text x="140.6" y="72.9" fill="#ccc" class="taxonLabel">Dentalium</text><text x="95.9" y="47.8" fill="lightgrey" class="flag">[-]</text><text x="117.9" y="47.8" fill="#ccc" class="taxonLabel">Wiwaxia corrugata</text><text x="95.9" y="22.6" fill="lightgrey" class="flag">[-]</text><text x="117.9" y="22.6" fill="#ccc" class="taxonLabel">Sipunculus</text><text x="95.9" y="35.2" fill="lightgrey" class="flag">[-]</text><text x="117.9" y="35.2" fill="#ccc" class="taxonLabel">Serpula</text><text x="50.4" y="10" fill="lightgrey" class="flag">[-]</text><text x="72.4" y="10" fill="#ccc" class="taxonLabel">Loxosomella</text><path d="M5,65.1V23.5H27.7M27.7,23.5V7H50.4M27.7,23.5V40H50.4M50.4,40V25.9H73.1M73.1,25.9V19.6H95.9M73.1,25.9V32.2H95.9M50.4,40V54.2H73.1M73.1,54.2V44.8H95.9M73.1,54.2V63.6H95.9M95.9,63.6V57.3H118.6M95.9,63.6V69.9H118.6M5,65.1V106.6H27.7M27.7,106.6V88.8H50.4M50.4,88.8V82.5H73.1M50.4,88.8V95.1H73.1M27.7,106.6V124.4H50.4M50.4,124.4V107.7H73.1M50.4,124.4V141.1H73.1M73.1,141.1V120.3H95.9M73.1,141.1V161.9H95.9M95.9,161.9V139.1H118.6M118.6,139.1V132.8H141.3M118.6,139.1V145.4H141.3M95.9,161.9V184.6H118.6M118.6,184.6V158H141.3M118.6,184.6V211.2H141.3M141.3,211.2V170.6H164M141.3,211.2V251.8H164M164,251.8V183.2H186.7M164,251.8V320.5H186.7M186.7,320.5V219.8H209.4M209.4,219.8V195.8H232.1M209.4,219.8V243.8H232.1M232.1,243.8V219.4H254.9M254.9,219.4V208.4H277.6M254.9,219.4V230.4H277.6M277.6,230.4V220.9H300.3M277.6,230.4V239.8H300.3M300.3,239.8V233.5H323M300.3,239.8V246.1H323M232.1,243.8V268.1H254.9M254.9,268.1V258.7H277.6M254.9,268.1V277.6H277.6M277.6,277.6V271.3H300.3M277.6,277.6V283.9H300.3" stroke="lightgrey" class="inapplicable"></path><path d="M186.7,320.5V421.1H209.4M209.4,421.1V296.5H232.1M209.4,421.1V545.8H232.1M232.1,545.8V433.4H254.9M254.9,433.4V346.6H277.6M277.6,346.6V320H300.3M300.3,320V309H323M300.3,320V331.1H323M323,331.1V321.6H345.7M323,331.1V340.5H345.7M345.7,340.5V334.2H368.4M345.7,340.5V346.8H368.4M254.9,433.4V520.2H277.6M277.6,520.2V491.5H300.3M300.3,491.5V485.2H323M300.3,491.5V497.8H323M277.6,520.2V548.9H300.3M300.3,548.9V510.4H323M300.3,548.9V587.4H323M323,587.4V544.8H345.7M345.7,544.8V529.3H368.4M368.4,529.3V523H391.1M368.4,529.3V535.6H391.1M345.7,544.8V560.3H368.4M368.4,560.3V548.2H391.1M368.4,560.3V572.5H391.1M391.1,572.5V560.7H413.9M391.1,572.5V584.3H413.9M413.9,584.3V573.3H436.6M413.9,584.3V595.3H436.6M436.6,595.3V585.9H459.3M436.6,595.3V604.8H459.3M459.3,604.8V598.5H482M459.3,604.8V611.1H482M323,587.4V630H345.7M345.7,630V623.7H368.4M345.7,630V636.2H368.4M232.1,545.8V658.3H254.9M254.9,658.3V648.8H277.6M254.9,658.3V667.7H277.6M277.6,667.7V661.4H300.3M277.6,667.7V674H300.3" stroke="#e2e2a2"></path><path d="M277.6,346.6V373.1H300.3M300.3,373.1V359.4H323M300.3,373.1V386.8H323M323,386.8V372H345.7M323,386.8V401.7H345.7M345.7,401.7V384.5H368.4M345.7,401.7V418.8H368.4M368.4,418.8V403.4H391.1M391.1,403.4V397.1H413.9M391.1,403.4V409.7H413.9M368.4,418.8V434.1H391.1M391.1,434.1V422.3H413.9M391.1,434.1V445.9H413.9M413.9,445.9V434.9H436.6M413.9,445.9V456.9H436.6M436.6,456.9V447.5H459.3M436.6,456.9V466.3H459.3M459.3,466.3V460.1H482M459.3,466.3V472.6H482" stroke="#91bfdb"></path><text x="29.7" y="26.5" class="node" fill="#4A6FE3">1</text><text x="52.4" y="43" class="node" fill="#4A6FE3">1</text><text x="75.1" y="28.9" class="node" fill="#4A6FE3">1</text><text x="75.1" y="57.2" class="node" fill="#4A6FE3">1</text><text x="97.9" y="66.6" class="node" fill="#4A6FE3">1</text><text x="29.7" y="109.6" class="node" fill="#4A6FE3">1</text><text x="52.4" y="91.8" class="node" fill="#4A6FE3">1</text><text x="52.4" y="127.4" class="node" fill="#4A6FE3">1</text><text x="75.1" y="144.1" class="node" fill="#E5A8B3">0.31</text><text x="97.9" y="164.9" class="node" fill="#627DE1">0.94</text><text x="120.6" y="142.1" class="node" fill="#E5A5B1">0.3</text><text x="120.6" y="187.6" class="node" fill="#627DE1">0.94</text><text x="143.3" y="214.2" class="node" fill="#627DE1">0.94</text><text x="166" y="254.8" class="node" fill="#627DE1">0.94</text><text x="188.7" y="323.5" class="node" fill="#627DE1">0.94</text><text x="211.4" y="222.8" class="node" fill="#627DE1">0.94</text><text x="234.1" y="246.8" class="node" fill="#627DE1">0.94</text><text x="256.9" y="222.4" class="node" fill="#929FE1">0.79</text><text x="279.6" y="233.4" class="node" fill="#4A6FE3">1</text><text x="302.3" y="242.8" class="node" fill="#4A6FE3">1</text><text x="256.9" y="271.1" class="node" fill="#627DE1">0.94</text><text x="279.6" y="280.6" class="node" fill="#4A6FE3">1</text><text x="211.4" y="424.1" class="node" fill="#4A6FE3">1</text><text x="234.1" y="548.8" class="node" fill="#5374E2">0.98</text><text x="256.9" y="436.4" class="node" fill="#627DE1">0.94</text><text x="279.6" y="349.6" class="node" fill="#627DE1">0.94</text><text x="302.3" y="323" class="node" fill="#627DE1">0.94</text><text x="325" y="334.1" class="node" fill="#4A6FE3">1</text><text x="347.7" y="343.5" class="node" fill="#4A6FE3">1</text><text x="302.3" y="376.1" class="node" fill="#627DE1">0.94</text><text x="325" y="389.8" class="node" fill="#667FE1">0.93</text><text x="347.7" y="404.7" class="node" fill="#667FE1">0.93</text><text x="370.4" y="421.8" class="node" fill="#667FE1">0.93</text><text x="393.1" y="406.4" class="node" fill="#667FE1">0.93</text><text x="393.1" y="437.1" class="node" fill="#627DE1">0.94</text><text x="415.9" y="448.9" class="node" fill="#4A6FE3">1</text><text x="438.6" y="459.9" class="node" fill="#E6AEB8">0.33</text><text x="461.3" y="469.3" class="node" fill="#4A6FE3">1</text><text x="279.6" y="523.2" class="node" fill="#5B78E2">0.96</text><text x="302.3" y="494.5" class="node" fill="#5B78E2">0.96</text><text x="302.3" y="551.9" class="node" fill="#4A6FE3">1</text><text x="325" y="590.4" class="node" fill="#5B78E2">0.96</text><text x="347.7" y="547.8" class="node" fill="#5F7BE1">0.95</text><text x="370.4" y="532.3" class="node" fill="#95A1E2">0.78</text><text x="370.4" y="563.3" class="node" fill="#B4BBE3">0.67</text><text x="393.1" y="575.5" class="node" fill="#4A6FE3">1</text><text x="415.9" y="587.3" class="node" fill="#4A6FE3">1</text><text x="438.6" y="598.3" class="node" fill="#4A6FE3">1</text><text x="461.3" y="607.8" class="node" fill="#5B78E2">0.96</text><text x="347.7" y="633" class="node" fill="#4A6FE3">1</text><text x="256.9" y="661.3" class="node" fill="#627DE1">0.94</text><text x="279.6" y="670.7" class="node" fill="#627DE1">0.94</text></svg>
