<svg xmlns="http://www.w3.org/2000/svg" version="1.1" width="682" height="555" class="tree" char="2">
 <text x="678" y="17.6" text-anchor="end" class="stepsLabel">Character adds <tspan class="score">1</tspan> to tree score</text>
 <text x="678" y="32.2" text-anchor="end" class="stepsLabel"><tspan class="score"></tspan> additional region</text>
 <text x="678" y="46.8" text-anchor="end" class="stepsLabel">CI = 1; Fitch CI = 1; Fitch RI = 1</text>
 <text x="678" y="76" text-anchor="end" class="stepsLabel"><tspan dy="16">An optimal tree under:</tspan><tspan x="680" style="font-style:italic" class="thisAn" dy="1.2em">Equal weights</tspan><tspan x="680" style="font-style:italic" class="notThisAn" dy="1.2em">Implied weights, k = 2</tspan><tspan x="680" style="font-style:italic" class="notThisAn" dy="1.2em">IW, k = 3</tspan><tspan x="680" style="font-style:italic" class="notThisAn" dy="1.2em">IW, k = 4.5</tspan><tspan x="680" style="font-style:italic" class="notThisAn" dy="1.2em">IW, k = 7</tspan><tspan x="680" style="font-style:italic" class="notThisAn" dy="1.2em">IW, k = 10.5</tspan><tspan x="680" style="font-style:italic" class="notThisAn" dy="1.2em">IW, k = 16</tspan><tspan x="680" style="font-style:italic" class="notThisAn" dy="1.2em">IW, k = 24</tspan></text>
 <text x="33.5" y="10" fill="#fc8d59" class="flag">[0]</text>
 <text x="53.5" y="10" class="taxonLabel">Dailyatia</text>
 <text x="60" y="25" fill="#fc8d59" class="flag">[0]</text>
 <text x="80" y="25" class="taxonLabel">Eccentrotheca</text>
 <text x="86.5" y="40" fill="#fc8d59" class="flag">[0]</text>
 <text x="106.5" y="40" class="taxonLabel">Phoronis</text>
 <text x="113" y="55" fill="#91bfdb" class="flag">[1]</text>
 <text x="133" y="55" class="taxonLabel">Paterimitra</text>
 <text x="166" y="70" fill="#91bfdb" class="flag">[1]</text>
 <text x="186" y="70" class="taxonLabel">Pedunculotheca diania</text>
 <text x="166" y="85" fill="#91bfdb" class="flag">[1]</text>
 <text x="186" y="85" class="taxonLabel">Haplophrentis carinatus</text>
 <text x="219" y="100" fill="#91bfdb" class="flag">[1]</text>
 <text x="239" y="100" class="taxonLabel">Gasconsia</text>
 <text x="245.5" y="115" fill="#91bfdb" class="flag">[1]</text>
 <text x="265.5" y="115" class="taxonLabel">Heliomedusa orienta</text>
 <text x="272" y="130" fill="#91bfdb" class="flag">[1]</text>
 <text x="292" y="130" class="taxonLabel">Ussunia</text>
 <text x="298.5" y="145" fill="#91bfdb" class="flag">[1]</text>
 <text x="318.5" y="145" class="taxonLabel">Craniops</text>
 <text x="298.5" y="160" fill="#91bfdb" class="flag">[1]</text>
 <text x="318.5" y="160" class="taxonLabel">Novocrania</text>
 <text x="219" y="175" fill="#91bfdb" class="flag">[1]</text>
 <text x="239" y="175" class="taxonLabel">Pelagodiscus atlanticus</text>
 <text x="245.5" y="190" fill="#91bfdb" class="flag">[1]</text>
 <text x="265.5" y="190" class="taxonLabel">Mickwitzia muralensis</text>
 <text x="272" y="205" fill="#91bfdb" class="flag">[1]</text>
 <text x="292" y="205" class="taxonLabel">Micrina</text>
 <text x="298.5" y="220" fill="#91bfdb" class="flag">[1]</text>
 <text x="318.5" y="220" class="taxonLabel">Lingula</text>
 <text x="325" y="235" fill="#91bfdb" class="flag">[1]</text>
 <text x="345" y="235" class="taxonLabel">Eoobolus</text>
 <text x="351.5" y="250" fill="#91bfdb" class="flag">[1]</text>
 <text x="371.5" y="250" class="taxonLabel">Mummpikia nuda</text>
 <text x="378" y="265" fill="#91bfdb" class="flag">[1]</text>
 <text x="398" y="265" class="taxonLabel">Botsfordia</text>
 <text x="457.5" y="310" fill="#91bfdb" class="flag">[1]</text>
 <text x="477.5" y="310" class="taxonLabel">Lingulosacculus</text>
 <text x="404.5" y="280" fill="#91bfdb" class="flag">[1]</text>
 <text x="424.5" y="280" class="taxonLabel">Lingulellotreta malongensis</text>
 <text x="431" y="295" fill="#91bfdb" class="flag">[1]</text>
 <text x="451" y="295" class="taxonLabel">Clupeafumosus socialis</text>
 <text x="484" y="325" fill="#91bfdb" class="flag">[1]</text>
 <text x="504" y="325" class="taxonLabel">Acanthotretella spinosa</text>
 <text x="484" y="340" fill="#91bfdb" class="flag">[1]</text>
 <text x="504" y="340" class="taxonLabel">Siphonobolus priscus</text>
 <text x="219" y="355" fill="#91bfdb" class="flag">[1]</text>
 <text x="239" y="355" class="taxonLabel">Askepasma toddense</text>
 <text x="219" y="370" fill="#91bfdb" class="flag">[1]</text>
 <text x="239" y="370" class="taxonLabel">Micromitra</text>
 <text x="219" y="385" fill="#91bfdb" class="flag">[1]</text>
 <text x="239" y="385" class="taxonLabel">Salanygolina</text>
 <text x="272" y="415" fill="#91bfdb" class="flag">[1]</text>
 <text x="292" y="415" class="taxonLabel">Tomteluva perturbata</text>
 <text x="245.5" y="400" fill="#91bfdb" class="flag">[1]</text>
 <text x="265.5" y="400" class="taxonLabel">Yuganotheca elegans</text>
 <text x="325" y="460" fill="#91bfdb" class="flag">[1]</text>
 <text x="345" y="460" class="taxonLabel">Kutorgina chengjiangensis</text>
 <text x="351.5" y="475" fill="#91bfdb" class="flag">[1]</text>
 <text x="371.5" y="475" class="taxonLabel">Nisusia sulcata</text>
 <text x="378" y="490" fill="#91bfdb" class="flag">[1]</text>
 <text x="398" y="490" class="taxonLabel">Glyptoria</text>
 <text x="404.5" y="505" fill="#91bfdb" class="flag">[1]</text>
 <text x="424.5" y="505" class="taxonLabel">Longtancunella chengjiangensis</text>
 <text x="431" y="520" fill="#91bfdb" class="flag">[1]</text>
 <text x="451" y="520" class="taxonLabel">Alisina</text>
 <text x="457.5" y="535" fill="#91bfdb" class="flag">[1]</text>
 <text x="477.5" y="535" class="taxonLabel">Orthis</text>
 <text x="457.5" y="550" fill="#91bfdb" class="flag">[1]</text>
 <text x="477.5" y="550" class="taxonLabel">Terebratulina</text>
 <text x="325" y="430" fill="#91bfdb" class="flag">[1]</text>
 <text x="345" y="430" class="taxonLabel">Coolinia pecten</text>
 <text x="325" y="445" fill="#91bfdb" class="flag">[1]</text>
 <text x="345" y="445" class="taxonLabel">Antigonambonites planus</text>
 <path d="M5,27.5V7H31.5M5,27.5V47.9H31.5M31.5,47.9V22H58M31.5,47.9V73.8H58M58,73.8V37H84.5" stroke="#fc8d59"></path>
 <path d="M58,73.8V110.6H84.5M84.5,110.6V52H111M84.5,110.6V169.2H111M111,169.2V74.5H137.5M137.5,74.5V67H164M137.5,74.5V82H164M111,169.2V264H137.5M137.5,264V149H164M164,149V111.1H190.5M190.5,111.1V97H217M190.5,111.1V125.1H217M217,125.1V112H243.5M217,125.1V138.2H243.5M243.5,138.2V127H270M243.5,138.2V149.5H270M270,149.5V142H296.5M270,149.5V157H296.5M164,149V187H190.5M190.5,187V172H217M190.5,187V202H217M217,202V187H243.5M217,202V217H243.5M243.5,217V202H270M243.5,217V231.9H270M270,231.9V217H296.5M270,231.9V246.9H296.5M296.5,246.9V232H323M296.5,246.9V261.8H323M323,261.8V247H349.5M323,261.8V276.5H349.5M349.5,276.5V262H376M349.5,276.5V291.1H376M376,291.1V277H402.5M376,291.1V305.1H402.5M402.5,305.1V292H429M402.5,305.1V318.2H429M429,318.2V307H455.5M429,318.2V329.5H455.5M455.5,329.5V322H482M455.5,329.5V337H482M137.5,264V378.9H164M164,378.9V359.5H190.5M190.5,359.5V352H217M190.5,359.5V367H217M164,378.9V398.4H190.5M190.5,398.4V382H217M190.5,398.4V414.8H217M217,414.8V397H243.5M217,414.8V432.6H243.5M243.5,432.6V412H270M243.5,432.6V453.1H270M270,453.1V434.5H296.5M296.5,434.5V427H323M296.5,434.5V442H323M270,453.1V471.8H296.5M296.5,471.8V457H323M296.5,471.8V486.5H323M323,486.5V472H349.5M323,486.5V501.1H349.5M349.5,501.1V487H376M349.5,501.1V515.1H376M376,515.1V502H402.5M376,515.1V528.2H402.5M402.5,528.2V517H429M402.5,528.2V539.5H429M429,539.5V532H455.5M429,539.5V547H455.5" stroke="#91bfdb"></path></svg>
