<svg xmlns="http://www.w3.org/2000/svg" version="1.1" width="682" height="612" class="tree" data-char="136"><text x="678" y="15.7" text-anchor="end" class="stepsLabel">Character adds <tspan class="score">4</tspan> to tree score</text><text x="678" y="28.4" text-anchor="end" class="stepsLabel"><tspan class="score">0</tspan> additional regions</text><text x="678" y="41.1" text-anchor="end" class="stepsLabel">CI = 0.75; Fitch CI = 0.75; Fitch RI = 0.75</text><text x="678" y="66.5" text-anchor="end" class="stepsLabel"><tspan dy="16">An optimal tree under:</tspan><tspan x="680" style="font-style:italic" class="notThisAn" dy="1.2em">Equal weights</tspan><tspan x="680" style="font-style:italic" class="notThisAn" dy="1.2em">Implied weights, k = 2</tspan><tspan x="680" style="font-style:italic" class="notThisAn" dy="1.2em">IW, k = 3</tspan><tspan x="680" style="font-style:italic" class="notThisAn" dy="1.2em">IW, k = 4.5</tspan><tspan x="680" style="font-style:italic" class="thisAn" dy="1.2em">IW, k = 7</tspan><tspan x="680" style="font-style:italic" class="notThisAn" dy="1.2em">IW, k = 10.5</tspan><tspan x="680" style="font-style:italic" class="notThisAn" dy="1.2em">IW, k = 16</tspan><tspan x="680" style="font-style:italic" class="notThisAn" dy="1.2em">IW, k = 24</tspan></text><text x="80.3" y="594" fill="#abd9e9" class="flag">[3]</text><text x="102.3" y="594" fill="#000" class="taxonLabel">Serpula</text><text x="80.3" y="607" fill="#abd9e9" class="flag">[3]</text><text x="102.3" y="607" fill="#000" class="taxonLabel">Sipunculus</text><text x="105.4" y="568.1" fill="#2c7bb6" class="flag">[4]</text><text x="127.4" y="568.1" fill="#000" class="taxonLabel">Dentalium</text><text x="105.4" y="581" fill="#2c7bb6" class="flag">[4]</text><text x="127.4" y="581" fill="#000" class="taxonLabel">Tonicella</text><text x="80.3" y="555.1" fill="grey" class="flag">[?]</text><text x="102.3" y="555.1" fill="grey" class="taxonLabel">Wiwaxia corrugata</text><text x="180.7" y="529.1" fill="grey" class="flag">[?]</text><text x="202.7" y="529.1" fill="grey" class="taxonLabel">Haplophrentis carinatus</text><text x="180.7" y="542.1" fill="grey" class="flag">[?]</text><text x="202.7" y="542.1" fill="grey" class="taxonLabel">Pedunculotheca diania</text><text x="331.4" y="503.2" fill="grey" class="flag">[?]</text><text x="353.4" y="503.2" fill="grey" class="taxonLabel">Mummpikia nuda</text><text x="331.4" y="516.2" fill="grey" class="flag">[?]</text><text x="353.4" y="516.2" fill="grey" class="taxonLabel">Botsfordia</text><text x="306.3" y="490.2" fill="grey" class="flag">[?]</text><text x="328.3" y="490.2" fill="grey" class="taxonLabel">Eoobolus</text><text x="331.4" y="464.2" fill="grey" class="flag">[?]</text><text x="353.4" y="464.2" fill="grey" class="taxonLabel">Lingulellotreta malongensis</text><text x="331.4" y="477.2" fill="#fdae61" class="flag">[1]</text><text x="353.4" y="477.2" fill="#000" class="taxonLabel">Lingula</text><text x="356.5" y="438.3" fill="grey" class="flag">[?]</text><text x="378.5" y="438.3" fill="grey" class="taxonLabel">Acanthotretella spinosa</text><text x="356.5" y="451.3" fill="grey" class="flag">[?]</text><text x="378.5" y="451.3" fill="grey" class="taxonLabel">Siphonobolus priscus</text><text x="356.5" y="412.3" fill="grey" class="flag">[?]</text><text x="378.5" y="412.3" fill="grey" class="taxonLabel">Lingulosacculus</text><text x="356.5" y="425.3" fill="grey" class="flag">[?]</text><text x="378.5" y="425.3" fill="grey" class="taxonLabel">Clupeafumosus socialis</text><text x="281.2" y="386.4" fill="grey" class="flag">[?]</text><text x="303.2" y="386.4" fill="grey" class="taxonLabel">Mickwitzia muralensis</text><text x="281.2" y="399.3" fill="#fdae61" class="flag">[1]</text><text x="303.2" y="399.3" fill="#000" class="taxonLabel">Pelagodiscus atlanticus</text><text x="356.5" y="360.4" fill="grey" class="flag">[?]</text><text x="378.5" y="360.4" fill="grey" class="taxonLabel">Antigonambonites planus</text><text x="356.5" y="373.4" fill="grey" class="flag">[?]</text><text x="378.5" y="373.4" fill="grey" class="taxonLabel">Coolinia pecten</text><text x="482" y="334.5" fill="grey" class="flag">[?]</text><text x="504" y="334.5" fill="grey" class="taxonLabel">Orthis</text><text x="482" y="347.4" fill="#abd9e9" class="flag">[3]</text><text x="504" y="347.4" fill="#000" class="taxonLabel">Terebratulina</text><text x="456.9" y="321.5" fill="grey" class="flag">[?]</text><text x="478.9" y="321.5" fill="grey" class="taxonLabel">Alisina</text><text x="431.8" y="308.5" fill="grey" class="flag">[?]</text><text x="453.8" y="308.5" fill="grey" class="taxonLabel">Longtancunella chengjiangensis</text><text x="406.7" y="295.5" fill="grey" class="flag">[?]</text><text x="428.7" y="295.5" fill="grey" class="taxonLabel">Glyptoria</text><text x="381.6" y="282.5" fill="grey" class="flag">[?]</text><text x="403.6" y="282.5" fill="grey" class="taxonLabel">Nisusia sulcata</text><text x="356.5" y="269.6" fill="grey" class="flag">[?]</text><text x="378.5" y="269.6" fill="grey" class="taxonLabel">Kutorgina chengjiangensis</text><text x="356.5" y="243.6" fill="grey" class="flag">[?]</text><text x="378.5" y="243.6" fill="grey" class="taxonLabel">Tomteluva perturbata</text><text x="356.5" y="256.6" fill="grey" class="flag">[?]</text><text x="378.5" y="256.6" fill="grey" class="taxonLabel">Yuganotheca elegans</text><text x="331.4" y="230.6" fill="grey" class="flag">[?]</text><text x="353.4" y="230.6" fill="grey" class="taxonLabel">Salanygolina</text><text x="306.3" y="204.7" fill="grey" class="flag">[?]</text><text x="328.3" y="204.7" fill="grey" class="taxonLabel">Micromitra</text><text x="306.3" y="217.7" fill="grey" class="flag">[?]</text><text x="328.3" y="217.7" fill="grey" class="taxonLabel">Askepasma toddense</text><text x="331.4" y="178.7" fill="grey" class="flag">[?]</text><text x="353.4" y="178.7" fill="grey" class="taxonLabel">Craniops</text><text x="331.4" y="191.7" fill="#e2e2a2" class="flag">[2]</text><text x="353.4" y="191.7" fill="#000" class="taxonLabel">Novocrania</text><text x="306.3" y="165.7" fill="grey" class="flag">[?]</text><text x="328.3" y="165.7" fill="grey" class="taxonLabel">Ussunia</text><text x="281.2" y="152.8" fill="grey" class="flag">[?]</text><text x="303.2" y="152.8" fill="grey" class="taxonLabel">Gasconsia</text><text x="205.8" y="139.8" fill="grey" class="flag">[?]</text><text x="227.8" y="139.8" fill="grey" class="taxonLabel">Micrina</text><text x="180.7" y="126.8" fill="grey" class="flag">[?]</text><text x="202.7" y="126.8" fill="grey" class="taxonLabel">Paterimitra</text><text x="130.5" y="113.8" fill="grey" class="flag">[?]</text><text x="152.5" y="113.8" fill="grey" class="taxonLabel">Heliomedusa orienta</text><text x="130.5" y="87.9" fill="grey" class="flag">[?]</text><text x="152.5" y="87.9" fill="grey" class="taxonLabel">Dailyatia</text><text x="130.5" y="100.8" fill="grey" class="flag">[?]</text><text x="152.5" y="100.8" fill="grey" class="taxonLabel">Halkieria evangelista</text><text x="155.6" y="61.9" fill="grey" class="flag">[?]</text><text x="177.6" y="61.9" fill="grey" class="taxonLabel">Namacalathus</text><text x="155.6" y="74.9" fill="#e2e2a2" class="flag">[2]</text><text x="177.6" y="74.9" fill="#000" class="taxonLabel">Phoronis</text><text x="130.5" y="48.9" fill="grey" class="flag">[?]</text><text x="152.5" y="48.9" fill="grey" class="taxonLabel">Eccentrotheca</text><text x="105.4" y="36" fill="grey" class="flag">[?]</text><text x="127.4" y="36" fill="grey" class="taxonLabel">Cotyledion tylodes</text><text x="80.3" y="10" fill="#2c7bb6" class="flag">[4]</text><text x="102.3" y="10" fill="#000" class="taxonLabel">Flustra</text><text x="80.3" y="23" fill="#2c7bb6" class="flag">[4]</text><text x="102.3" y="23" fill="#000" class="taxonLabel">Loxosomella</text><path d="M5,319V58.3H30.1M30.1,58.3V13.5H55.2M55.2,13.5V7H80.3M55.2,13.5V20H80.3M5,319V579.7H30.1M30.1,579.7V561.8H55.2M55.2,561.8V552.1H80.3M55.2,561.8V571.6H80.3M80.3,571.6V565.1H105.4M80.3,571.6V578H105.4" stroke="#2c7bb6"></path><path d="M30.1,58.3V103.1H55.2M55.2,103.1V44.3H80.3M80.3,44.3V33H105.4M80.3,44.3V55.7H105.4M105.4,55.7V45.9H130.5M105.4,55.7V65.4H130.5M130.5,65.4V58.9H155.6M130.5,65.4V71.9H155.6M55.2,103.1V161.9H80.3M80.3,161.9V91.4H105.4M105.4,91.4V84.9H130.5M105.4,91.4V97.8H130.5M80.3,161.9V232.4H105.4M105.4,232.4V110.8H130.5M105.4,232.4V354H130.5M130.5,354V175.3H155.6M155.6,175.3V123.8H180.7M155.6,175.3V226.8H180.7M180.7,226.8V136.8H205.8M180.7,226.8V316.8H205.8M205.8,316.8V202.5H230.9M230.9,202.5V161.1H256.1M256.1,161.1V149.8H281.2M256.1,161.1V172.5H281.2M281.2,172.5V162.7H306.3M281.2,172.5V182.2H306.3M306.3,182.2V175.7H331.4M306.3,182.2V188.7H331.4M230.9,202.5V243.8H256.1M130.5,354V532.6H155.6M155.6,532.6V526.1H180.7M155.6,532.6V539.1H180.7" stroke="#e2e2a2"></path><path d="M256.1,243.8V208.2H281.2M281.2,208.2V201.7H306.3M281.2,208.2V214.7H306.3M256.1,243.8V279.5H281.2M281.2,279.5V237.4H306.3M306.3,237.4V227.6H331.4M306.3,237.4V247.1H331.4M331.4,247.1V240.6H356.5M331.4,247.1V253.6H356.5M281.2,279.5V321.6H306.3M306.3,321.6V279.3H331.4M331.4,279.3V266.6H356.5M331.4,279.3V292.1H356.5M356.5,292.1V279.5H381.6M356.5,292.1V304.7H381.6M381.6,304.7V292.5H406.7M381.6,304.7V316.9H406.7M406.7,316.9V305.5H431.8M406.7,316.9V328.2H431.8M431.8,328.2V318.5H456.9M431.8,328.2V337.9H456.9M456.9,337.9V331.5H482M306.3,321.6V363.9H331.4M331.4,363.9V357.4H356.5M331.4,363.9V370.4H356.5" stroke="darkgrey"></path><path d="M456.9,337.9V344.4H482M30.1,579.7V597.5H55.2M55.2,597.5V591H80.3M55.2,597.5V604H80.3" stroke="#abd9e9"></path><path d="M205.8,316.8V431.2H230.9M230.9,431.2V389.9H256.1M256.1,389.9V383.4H281.2M256.1,389.9V396.3H281.2M230.9,431.2V472.6H256.1M256.1,472.6V448.3H281.2M281.2,448.3V428.8H306.3M306.3,428.8V415.8H331.4M331.4,415.8V409.3H356.5M331.4,415.8V422.3H356.5M306.3,428.8V441.8H331.4M331.4,441.8V435.3H356.5M331.4,441.8V448.3H356.5M281.2,448.3V467.7H306.3M306.3,467.7V461.2H331.4M306.3,467.7V474.2H331.4M256.1,472.6V496.9H281.2M281.2,496.9V487.2H306.3M281.2,496.9V506.7H306.3M306.3,506.7V500.2H331.4M306.3,506.7V513.2H331.4" stroke="#fdae61"></path><text x="7" y="322" class="node" fill="#4A6FE3">1</text><text x="32.1" y="61.3" class="node" fill="#4A6FE3">1</text><text x="57.2" y="16.5" class="node" fill="#DB617F">0.09</text><text x="57.2" y="106.1" class="node" fill="#5B78E2">0.96</text><text x="82.3" y="47.3" class="node" fill="#D75376">0.05</text><text x="107.4" y="58.7" class="node" fill="#D75376">0.05</text><text x="132.5" y="68.4" class="node" fill="#7086E1">0.9</text><text x="82.3" y="164.9" class="node" fill="#8C9BE1">0.81</text><text x="107.4" y="94.4" class="node" fill="#A8B1E2">0.71</text><text x="107.4" y="235.4" class="node" fill="#4A6FE3">1</text><text x="132.5" y="357" class="node" fill="#E38FA0">0.23</text><text x="157.6" y="178.3" class="node" fill="#E38C9E">0.22</text><text x="182.7" y="229.8" class="node" fill="#E38FA0">0.23</text><text x="207.8" y="319.8" class="node" fill="#E38C9E">0.22</text><text x="232.9" y="205.5" class="node" fill="#E38FA0">0.23</text><text x="258.1" y="164.1" class="node" fill="#E38FA0">0.23</text><text x="283.2" y="175.5" class="node" fill="#9AA6E2">0.76</text><text x="308.3" y="185.2" class="node" fill="#4A6FE3">1</text><text x="258.1" y="246.8" class="node" fill="#E49CAA">0.27</text><text x="283.2" y="211.2" class="node" fill="#E5D0D3">0.44</text><text x="283.2" y="282.5" class="node" fill="#4A6FE3">1</text><text x="308.3" y="240.4" class="node" fill="#8C9BE1">0.81</text><text x="333.4" y="250.1" class="node" fill="#5B78E2">0.96</text><text x="308.3" y="324.6" class="node" fill="#7086E1">0.9</text><text x="333.4" y="282.3" class="node" fill="#E6B1BB">0.34</text><text x="358.5" y="295.1" class="node" fill="#E6B1BB">0.34</text><text x="383.6" y="307.7" class="node" fill="#E6BAC2">0.37</text><text x="408.7" y="319.9" class="node" fill="#E6BAC2">0.37</text><text x="433.8" y="331.2" class="node" fill="#4A6FE3">1</text><text x="458.9" y="340.9" class="node" fill="#AEB6E2">0.69</text><text x="333.4" y="366.9" class="node" fill="#4A6FE3">1</text><text x="232.9" y="434.2" class="node" fill="#E38C9E">0.22</text><text x="258.1" y="392.9" class="node" fill="#4A6FE3">1</text><text x="258.1" y="475.6" class="node" fill="#4A6FE3">1</text><text x="283.2" y="451.3" class="node" fill="#DB617F">0.09</text><text x="308.3" y="431.8" class="node" fill="#9DA8E2">0.75</text><text x="333.4" y="418.8" class="node" fill="#E495A5">0.25</text><text x="333.4" y="444.8" class="node" fill="#4A6FE3">1</text><text x="308.3" y="470.7" class="node" fill="#DB617F">0.09</text><text x="283.2" y="499.9" class="node" fill="#E38C9E">0.22</text><text x="308.3" y="509.7" class="node" fill="#DB617F">0.09</text><text x="157.6" y="535.6" class="node" fill="#4A6FE3">1</text><text x="32.1" y="582.7" class="node" fill="#4A6FE3">1</text><text x="57.2" y="564.8" class="node" fill="#4A6FE3">1</text><text x="82.3" y="574.6" class="node" fill="#4A6FE3">1</text><text x="57.2" y="600.5" class="node" fill="#4A6FE3">1</text></svg>
