<svg xmlns="http://www.w3.org/2000/svg" version="1.1" width="682" height="682" class="tree" data-char="37"><text x="678" y="15.6" text-anchor="end" class="stepsLabel">Character adds <tspan class="score">1</tspan> to tree score</text><text x="678" y="28.2" text-anchor="end" class="stepsLabel"><tspan class="score">0</tspan> additional regions</text><text x="678" y="40.8" text-anchor="end" class="stepsLabel">CI = 1; Fitch CI = 1; Fitch RI = 1</text><text x="678" y="66" text-anchor="end" class="stepsLabel"><tspan dy="16" fill="#34caaf">An optimal tree under:</tspan><tspan x="680" style="font-style:italic" class="thisAn" dy="1.2em">Equal weights</tspan><tspan x="680" style="font-style:italic" class="notThisAn" dy="1.2em">Implied weights, k = 2</tspan><tspan x="680" style="font-style:italic" class="notThisAn" dy="1.2em">IW, k = 3</tspan><tspan x="680" style="font-style:italic" class="notThisAn" dy="1.2em">IW, k = 4.5</tspan><tspan x="680" style="font-style:italic" class="notThisAn" dy="1.2em">IW, k = 7</tspan><tspan x="680" style="font-style:italic" class="notThisAn" dy="1.2em">IW, k = 10.5</tspan><tspan x="680" style="font-style:italic" class="notThisAn" dy="1.2em">IW, k = 16</tspan><tspan x="680" style="font-style:italic" class="notThisAn" dy="1.2em">IW, k = 24</tspan></text><text x="67.2" y="664.2" fill="lightgrey" class="flag">[-]</text><text x="89.2" y="664.2" fill="#ccc" class="taxonLabel">Serpula</text><text x="67.2" y="677" fill="lightgrey" class="flag">[-]</text><text x="89.2" y="677" fill="#ccc" class="taxonLabel">Sipunculus</text><text x="88" y="638.5" fill="lightgrey" class="flag">[-]</text><text x="110" y="638.5" fill="#ccc" class="taxonLabel">Tonicella</text><text x="88" y="651.3" fill="lightgrey" class="flag">[-]</text><text x="110" y="651.3" fill="#ccc" class="taxonLabel">Dentalium</text><text x="67.2" y="625.7" fill="lightgrey" class="flag">[-]</text><text x="89.2" y="625.7" fill="#ccc" class="taxonLabel">Wiwaxia corrugata</text><text x="336.8" y="587.2" fill="grey" class="flag">[?]</text><text x="358.8" y="587.2" fill="#999" class="taxonLabel">Pauxillites</text><text x="336.8" y="600" fill="grey" class="flag">[?]</text><text x="358.8" y="600" fill="#999" class="taxonLabel">Maxilites</text><text x="316.1" y="574.4" fill="grey" class="flag">[?]</text><text x="338.1" y="574.4" fill="#999" class="taxonLabel">Haplophrentis carinatus</text><text x="295.3" y="561.6" fill="lightgrey" class="flag">[-]</text><text x="317.3" y="561.6" fill="#ccc" class="taxonLabel">Paramicrocornus</text><text x="295.3" y="535.9" fill="grey" class="flag">[?]</text><text x="317.3" y="535.9" fill="#999" class="taxonLabel">Bactrotheca</text><text x="295.3" y="548.7" fill="grey" class="flag">[?]</text><text x="317.3" y="548.7" fill="#999" class="taxonLabel">Conotheca</text><text x="253.9" y="523.1" fill="grey" class="flag">[?]</text><text x="275.9" y="523.1" fill="#999" class="taxonLabel">Pedunculotheca diania</text><text x="419.8" y="497.4" fill="grey" class="flag">[?]</text><text x="441.8" y="497.4" fill="#999" class="taxonLabel">Siphonobolus priscus</text><text x="419.8" y="510.2" fill="grey" class="flag">[?]</text><text x="441.8" y="510.2" fill="#999" class="taxonLabel">Acanthotretella spinosa</text><text x="419.8" y="471.8" fill="#91bfdb" class="flag">[2]</text><text x="441.8" y="471.8" fill="#000" class="taxonLabel">Lingulosacculus</text><text x="419.8" y="484.6" fill="grey" class="flag">[?]</text><text x="441.8" y="484.6" fill="#999" class="taxonLabel">Clupeafumosus socialis</text><text x="378.3" y="458.9" fill="grey" class="flag">[?]</text><text x="400.3" y="458.9" fill="#999" class="taxonLabel">Lingulellotreta malongensis</text><text x="378.3" y="433.3" fill="grey" class="flag">[?]</text><text x="400.3" y="433.3" fill="#999" class="taxonLabel">Mummpikia nuda</text><text x="378.3" y="446.1" fill="#91bfdb" class="flag">[2]</text><text x="400.3" y="446.1" fill="#000" class="taxonLabel">Pelagodiscus atlanticus</text><text x="336.8" y="420.5" fill="#91bfdb" class="flag">[2]</text><text x="358.8" y="420.5" fill="#000" class="taxonLabel">Botsfordia</text><text x="316.1" y="407.6" fill="#91bfdb" class="flag">[2]</text><text x="338.1" y="407.6" fill="#000" class="taxonLabel">Eoobolus</text><text x="295.3" y="394.8" fill="#91bfdb" class="flag">[2]</text><text x="317.3" y="394.8" fill="#000" class="taxonLabel">Lingula</text><text x="378.3" y="369.2" fill="#e2e2a2" class="flag">[1]</text><text x="400.3" y="369.2" fill="#000" class="taxonLabel">Novocrania</text><text x="378.3" y="382" fill="grey" class="flag">[?]</text><text x="400.3" y="382" fill="#999" class="taxonLabel">Craniops</text><text x="357.6" y="356.3" fill="grey" class="flag">[?]</text><text x="379.6" y="356.3" fill="#999" class="taxonLabel">Ussunia</text><text x="336.8" y="343.5" fill="#e2e2a2" class="flag">[1]</text><text x="358.8" y="343.5" fill="#000" class="taxonLabel">Heliomedusa orienta</text><text x="316.1" y="330.7" fill="grey" class="flag">[?]</text><text x="338.1" y="330.7" fill="#999" class="taxonLabel">Mickwitzia muralensis</text><text x="316.1" y="305" fill="#e2e2a2" class="flag">[1]</text><text x="338.1" y="305" fill="#000" class="taxonLabel">Micromitra</text><text x="316.1" y="317.8" fill="grey" class="flag">[?]</text><text x="338.1" y="317.8" fill="#999" class="taxonLabel">Gasconsia</text><text x="378.3" y="279.4" fill="grey" class="flag">[?]</text><text x="400.3" y="279.4" fill="#999" class="taxonLabel">Antigonambonites planus</text><text x="378.3" y="292.2" fill="grey" class="flag">[?]</text><text x="400.3" y="292.2" fill="#999" class="taxonLabel">Coolinia pecten</text><text x="399" y="253.7" fill="grey" class="flag">[?]</text><text x="421" y="253.7" fill="#999" class="taxonLabel">Nisusia sulcata</text><text x="399" y="266.5" fill="grey" class="flag">[?]</text><text x="421" y="266.5" fill="#999" class="taxonLabel">Kutorgina chengjiangensis</text><text x="482" y="228.1" fill="#e2e2a2" class="flag">[1]</text><text x="504" y="228.1" fill="#000" class="taxonLabel">Orthis</text><text x="482" y="240.9" fill="#e2e2a2" class="flag">[1]</text><text x="504" y="240.9" fill="#000" class="taxonLabel">Terebratulina</text><text x="461.3" y="215.2" fill="#e2e2a2" class="flag">[1]</text><text x="483.3" y="215.2" fill="#000" class="taxonLabel">Alisina</text><text x="440.5" y="202.4" fill="grey" class="flag">[?]</text><text x="462.5" y="202.4" fill="#999" class="taxonLabel">Longtancunella chengjiangensis</text><text x="419.8" y="189.6" fill="#e2e2a2" class="flag">[1]</text><text x="441.8" y="189.6" fill="#000" class="taxonLabel">Glyptoria</text><text x="399" y="176.8" fill="grey" class="flag">[?]</text><text x="421" y="176.8" fill="#999" class="taxonLabel">Tomteluva perturbata</text><text x="336.8" y="163.9" fill="#e2e2a2" class="flag">[1]</text><text x="358.8" y="163.9" fill="#000" class="taxonLabel">Yuganotheca elegans</text><text x="316.1" y="151.1" fill="grey" class="flag">[?]</text><text x="338.1" y="151.1" fill="#999" class="taxonLabel">Salanygolina</text><text x="295.3" y="138.3" fill="#e2e2a2" class="flag">[1]</text><text x="317.3" y="138.3" fill="#000" class="taxonLabel">Askepasma toddense</text><text x="274.6" y="125.4" fill="grey" class="flag">[?]</text><text x="296.6" y="125.4" fill="#999" class="taxonLabel">Micrina</text><text x="212.4" y="112.6" fill="lightgrey" class="flag">[-]</text><text x="234.4" y="112.6" fill="#ccc" class="taxonLabel">Paterimitra</text><text x="191.7" y="99.8" fill="lightgrey" class="flag">[-]</text><text x="213.7" y="99.8" fill="#ccc" class="taxonLabel">Halkieria evangelista</text><text x="170.9" y="87" fill="lightgrey" class="flag">[-]</text><text x="192.9" y="87" fill="#ccc" class="taxonLabel">Dailyatia</text><text x="150.2" y="74.1" fill="lightgrey" class="flag">[-]</text><text x="172.2" y="74.1" fill="#ccc" class="taxonLabel">Eccentrotheca</text><text x="129.4" y="61.3" fill="lightgrey" class="flag">[-]</text><text x="151.4" y="61.3" fill="#ccc" class="taxonLabel">Cotyledion tylodes</text><text x="108.7" y="48.5" fill="lightgrey" class="flag">[-]</text><text x="130.7" y="48.5" fill="#ccc" class="taxonLabel">Namacalathus</text><text x="88" y="35.7" fill="lightgrey" class="flag">[-]</text><text x="110" y="35.7" fill="#ccc" class="taxonLabel">Phoronis</text><text x="88" y="10" fill="lightgrey" class="flag">[-]</text><text x="110" y="10" fill="#ccc" class="taxonLabel">Flustra</text><text x="88" y="22.8" fill="lightgrey" class="flag">[-]</text><text x="110" y="22.8" fill="#ccc" class="taxonLabel">Amathia</text><text x="46.5" y="612.9" fill="lightgrey" class="flag">[-]</text><text x="68.5" y="612.9" fill="#ccc" class="taxonLabel">Loxosomella</text><path d="M5,485.1V320.2H25.7M25.7,320.2V30.5H46.5M46.5,30.5V13.4H67.2M67.2,13.4V7H88M67.2,13.4V19.8H88M46.5,30.5V47.5H67.2M67.2,47.5V32.7H88M67.2,47.5V62.4H88M88,62.4V45.5H108.7M88,62.4V79.2H108.7M108.7,79.2V58.3H129.4M108.7,79.2V100.2H129.4M129.4,100.2V71.1H150.2M129.4,100.2V129.2H150.2M150.2,129.2V84H170.9M150.2,129.2V174.5H170.9M170.9,174.5V96.8H191.7M170.9,174.5V252.2H191.7M191.7,252.2V109.6H212.4M191.7,252.2V394.8H212.4M212.4,394.8V537.3H233.1M233.1,537.3V520.1H253.9M233.1,537.3V554.5H253.9M253.9,554.5V539.3H274.6M274.6,539.3V532.9H295.3M274.6,539.3V545.7H295.3M253.9,554.5V569.8H274.6M274.6,569.8V558.6H295.3M274.6,569.8V581H295.3M295.3,581V571.4H316.1M295.3,581V590.6H316.1M316.1,590.6V584.2H336.8M316.1,590.6V597H336.8M25.7,320.2V609.9H46.5M5,485.1V649.9H25.7M25.7,649.9V632.3H46.5M46.5,632.3V622.7H67.2M46.5,632.3V641.9H67.2M67.2,641.9V635.5H88M67.2,641.9V648.3H88M25.7,649.9V667.6H46.5M46.5,667.6V661.2H67.2M46.5,667.6V674H67.2" stroke="lightgrey" class="inapplicable"></path><path d="M212.4,394.8V252.2H233.1M233.1,252.2V139.4H253.9M253.9,139.4V122.4H274.6M253.9,139.4V156.3H274.6M274.6,156.3V135.3H295.3M274.6,156.3V177.3H295.3M295.3,177.3V148.1H316.1M295.3,177.3V206.6H316.1M316.1,206.6V160.9H336.8M316.1,206.6V252.2H336.8M336.8,252.2V221.7H357.6M357.6,221.7V186.2H378.3M378.3,186.2V173.8H399M378.3,186.2V198.6H399M399,198.6V186.6H419.8M399,198.6V210.6H419.8M419.8,210.6V199.4H440.5M419.8,210.6V221.9H440.5M440.5,221.9V212.2H461.3M440.5,221.9V231.5H461.3M461.3,231.5V225.1H482M461.3,231.5V237.9H482M357.6,221.7V257.1H378.3M378.3,257.1V250.7H399M378.3,257.1V263.5H399M336.8,252.2V282.8H357.6M357.6,282.8V276.4H378.3M357.6,282.8V289.2H378.3M233.1,252.2V365.1H253.9M253.9,365.1V324.1H274.6M274.6,324.1V308.4H295.3M295.3,308.4V302H316.1M295.3,308.4V314.8H316.1M274.6,324.1V339.7H295.3M295.3,339.7V327.7H316.1M295.3,339.7V351.7H316.1M316.1,351.7V340.5H336.8M316.1,351.7V362.9H336.8M336.8,362.9V353.3H357.6M336.8,362.9V372.6H357.6M357.6,372.6V366.2H378.3M357.6,372.6V379H378.3" stroke="#e2e2a2"></path><path d="M253.9,365.1V406H274.6M274.6,406V391.8H295.3M274.6,406V420.3H295.3M295.3,420.3V404.6H316.1M295.3,420.3V435.9H316.1M316.1,435.9V417.5H336.8M316.1,435.9V454.3H336.8M336.8,454.3V436.7H357.6M357.6,436.7V430.3H378.3M357.6,436.7V443.1H378.3M336.8,454.3V472H357.6M357.6,472V455.9H378.3M357.6,472V488H378.3M378.3,488V475.2H399M399,475.2V468.8H419.8M399,475.2V481.6H419.8M378.3,488V500.8H399M399,500.8V494.4H419.8M399,500.8V507.2H419.8" stroke="#91bfdb"></path><text x="7" y="488.1" class="node" fill="#4A6FE3">1</text><text x="27.7" y="323.2" class="node" fill="#4A6FE3">1</text><text x="48.5" y="33.5" class="node" fill="#4A6FE3">1</text><text x="69.2" y="16.4" class="node" fill="#4A6FE3">1</text><text x="69.2" y="50.5" class="node" fill="#4A6FE3">1</text><text x="90" y="65.4" class="node" fill="#E59FAC">0.29</text><text x="110.7" y="82.2" class="node" fill="#8998E1">0.82</text><text x="131.4" y="103.2" class="node" fill="#E5A5B1">0.3</text><text x="152.2" y="132.2" class="node" fill="#8998E1">0.82</text><text x="172.9" y="177.5" class="node" fill="#8998E1">0.82</text><text x="193.7" y="255.2" class="node" fill="#4F72E2">0.99</text><text x="214.4" y="397.8" class="node" fill="#4F72E2">0.99</text><text x="235.1" y="255.2" class="node" fill="#8998E1">0.82</text><text x="255.9" y="142.4" class="node" fill="#DD6C86">0.12</text><text x="276.6" y="159.3" class="node" fill="#E6C4C9">0.4</text><text x="297.3" y="180.3" class="node" fill="#9AA6E2">0.76</text><text x="318.1" y="209.6" class="node" fill="#E6B1BB">0.34</text><text x="338.8" y="255.2" class="node" fill="#DB6581">0.1</text><text x="359.6" y="224.7" class="node" fill="#E495A5">0.25</text><text x="380.3" y="189.2" class="node" fill="#E495A5">0.25</text><text x="401" y="201.6" class="node" fill="#E6BDC5">0.38</text><text x="421.8" y="213.6" class="node" fill="#E5D0D3">0.44</text><text x="442.5" y="224.9" class="node" fill="#5B78E2">0.96</text><text x="463.3" y="234.5" class="node" fill="#BFC4E3">0.63</text><text x="380.3" y="260.1" class="node" fill="#E2E2E2">0.5</text><text x="359.6" y="285.8" class="node" fill="#4A6FE3">1</text><text x="255.9" y="368.1" class="node" fill="#E5C7CC">0.41</text><text x="276.6" y="327.1" class="node" fill="#E5C7CC">0.41</text><text x="297.3" y="311.4" class="node" fill="#E6C4C9">0.4</text><text x="297.3" y="342.7" class="node" fill="#E5C7CC">0.41</text><text x="318.1" y="354.7" class="node" fill="#8696E1">0.83</text><text x="338.8" y="365.9" class="node" fill="#4A6FE3">1</text><text x="359.6" y="375.6" class="node" fill="#4A6FE3">1</text><text x="276.6" y="409" class="node" fill="#9DA8E2">0.75</text><text x="297.3" y="423.3" class="node" fill="#E6B4BD">0.35</text><text x="318.1" y="438.9" class="node" fill="#E6B4BD">0.35</text><text x="338.8" y="457.3" class="node" fill="#E6B4BD">0.35</text><text x="359.6" y="439.7" class="node" fill="#E3DFE0">0.49</text><text x="359.6" y="475" class="node" fill="#E6BAC2">0.37</text><text x="380.3" y="491" class="node" fill="#97A4E2">0.77</text><text x="401" y="478.2" class="node" fill="#E5A5B1">0.3</text><text x="401" y="503.8" class="node" fill="#4F72E2">0.99</text><text x="235.1" y="540.3" class="node" fill="#4F72E2">0.99</text><text x="255.9" y="557.5" class="node" fill="#8696E1">0.83</text><text x="276.6" y="542.3" class="node" fill="#E4D3D6">0.45</text><text x="276.6" y="572.8" class="node" fill="#4A6FE3">1</text><text x="297.3" y="584" class="node" fill="#4A6FE3">1</text><text x="318.1" y="593.6" class="node" fill="#4A6FE3">1</text><text x="27.7" y="652.9" class="node" fill="#4A6FE3">1</text><text x="48.5" y="635.3" class="node" fill="#4A6FE3">1</text><text x="69.2" y="644.9" class="node" fill="#4A6FE3">1</text><text x="48.5" y="670.6" class="node" fill="#4A6FE3">1</text></svg>
