<svg xmlns="http://www.w3.org/2000/svg" version="1.1" width="682" height="682" class="tree" data-char="4"><text x="678" y="15.6" text-anchor="end" class="stepsLabel">Character adds <tspan class="score">6</tspan> to tree score</text><text x="678" y="28.2" text-anchor="end" class="stepsLabel"><tspan class="score">0</tspan> additional regions</text><text x="678" y="40.8" text-anchor="end" class="stepsLabel">CI = 0.5; Fitch CI = 0.5; Fitch RI = 0</text><text x="678" y="66" text-anchor="end" class="stepsLabel"><tspan dy="16" fill="#34caaf">An optimal tree under:</tspan><tspan x="680" style="font-style:italic" class="thisAn" dy="1.2em">Equal weights</tspan><tspan x="680" style="font-style:italic" class="notThisAn" dy="1.2em">Implied weights, k = 2</tspan><tspan x="680" style="font-style:italic" class="notThisAn" dy="1.2em">IW, k = 3</tspan><tspan x="680" style="font-style:italic" class="notThisAn" dy="1.2em">IW, k = 4.5</tspan><tspan x="680" style="font-style:italic" class="notThisAn" dy="1.2em">IW, k = 7</tspan><tspan x="680" style="font-style:italic" class="notThisAn" dy="1.2em">IW, k = 10.5</tspan><tspan x="680" style="font-style:italic" class="notThisAn" dy="1.2em">IW, k = 16</tspan><tspan x="680" style="font-style:italic" class="notThisAn" dy="1.2em">IW, k = 24</tspan></text><text x="91.7" y="664.2" fill="lightgrey" class="flag">[-]</text><text x="113.7" y="664.2" fill="#ccc" class="taxonLabel">Tonicella</text><text x="91.7" y="677" fill="lightgrey" class="flag">[-]</text><text x="113.7" y="677" fill="#ccc" class="taxonLabel">Dentalium</text><text x="70" y="651.3" fill="grey" class="flag">[?]</text><text x="92" y="651.3" fill="#999" class="taxonLabel">Wiwaxia corrugata</text><text x="70" y="625.7" fill="lightgrey" class="flag">[-]</text><text x="92" y="625.7" fill="#ccc" class="taxonLabel">Serpula</text><text x="70" y="638.5" fill="lightgrey" class="flag">[-]</text><text x="92" y="638.5" fill="#ccc" class="taxonLabel">Sipunculus</text><text x="373.6" y="587.2" fill="#fdae61" class="flag">[1]</text><text x="395.6" y="587.2" fill="#000" class="taxonLabel">Pauxillites</text><text x="373.6" y="600" fill="grey" class="flag">[?]</text><text x="395.6" y="600" fill="#999" class="taxonLabel">Maxilites</text><text x="351.9" y="574.4" fill="#fdae61" class="flag">[1]</text><text x="373.9" y="574.4" fill="#000" class="taxonLabel">Haplophrentis carinatus</text><text x="330.2" y="561.6" fill="grey" class="flag">[?]</text><text x="352.2" y="561.6" fill="#999" class="taxonLabel">Paramicrocornus</text><text x="308.5" y="548.7" fill="#fdae61" class="flag">[1]</text><text x="330.5" y="548.7" fill="#000" class="taxonLabel">Bactrotheca</text><text x="286.9" y="535.9" fill="#fdae61" class="flag">[1]</text><text x="308.9" y="535.9" fill="#000" class="taxonLabel">Conotheca</text><text x="265.2" y="523.1" fill="#fdae61" class="flag">[1]</text><text x="287.2" y="523.1" fill="#000" class="taxonLabel">Pedunculotheca diania</text><text x="460.3" y="497.4" fill="#fdae61" class="flag">[1]</text><text x="482.3" y="497.4" fill="#000" class="taxonLabel">Siphonobolus priscus</text><text x="460.3" y="510.2" fill="grey" class="flag">[?]</text><text x="482.3" y="510.2" fill="#999" class="taxonLabel">Acanthotretella spinosa</text><text x="460.3" y="471.8" fill="#e2e2a2" class="flag">[2]</text><text x="482.3" y="471.8" fill="#000" class="taxonLabel">Clupeafumosus socialis</text><text x="460.3" y="484.6" fill="grey" class="flag">[?]</text><text x="482.3" y="484.6" fill="#999" class="taxonLabel">Lingulosacculus</text><text x="417" y="458.9" fill="#fdae61" class="flag">[1]</text><text x="439" y="458.9" fill="#000" class="taxonLabel">Lingulellotreta malongensis</text><text x="417" y="433.3" fill="grey" class="flag">[?]</text><text x="439" y="433.3" fill="#999" class="taxonLabel">Mummpikia nuda</text><text x="417" y="446.1" fill="#fdae61" class="flag">[1]</text><text x="439" y="446.1" fill="#000" class="taxonLabel">Pelagodiscus atlanticus</text><text x="373.6" y="420.5" fill="#e2e2a2" class="flag">[2]</text><text x="395.6" y="420.5" fill="#000" class="taxonLabel">Botsfordia</text><text x="351.9" y="407.6" fill="#e2e2a2" class="flag">[2]</text><text x="373.9" y="407.6" fill="#000" class="taxonLabel">Eoobolus</text><text x="330.2" y="394.8" fill="#fdae61" class="flag">[1]</text><text x="352.2" y="394.8" fill="#000" class="taxonLabel">Lingula</text><text x="417" y="369.2" fill="lightgrey" class="flag">[-]</text><text x="439" y="369.2" fill="#ccc" class="taxonLabel">Novocrania</text><text x="417" y="382" fill="#fdae61" class="flag">[1]</text><text x="439" y="382" fill="#000" class="taxonLabel">Craniops</text><text x="395.3" y="356.3" fill="grey" class="flag">[?]</text><text x="417.3" y="356.3" fill="#999" class="taxonLabel">Ussunia</text><text x="373.6" y="343.5" fill="grey" class="flag">[?]</text><text x="395.6" y="343.5" fill="#999" class="taxonLabel">Heliomedusa orienta</text><text x="351.9" y="330.7" fill="grey" class="flag">[?]</text><text x="373.9" y="330.7" fill="#999" class="taxonLabel">Mickwitzia muralensis</text><text x="351.9" y="305" fill="#2c7bb6" class="flag">[4]</text><text x="373.9" y="305" fill="#000" class="taxonLabel">Micromitra</text><text x="351.9" y="317.8" fill="grey" class="flag">[?]</text><text x="373.9" y="317.8" fill="#999" class="taxonLabel">Gasconsia</text><text x="373.6" y="279.4" fill="grey" class="flag">[?]</text><text x="395.6" y="279.4" fill="#999" class="taxonLabel">Longtancunella chengjiangensis</text><text x="373.6" y="292.2" fill="grey" class="flag">[?]</text><text x="395.6" y="292.2" fill="#999" class="taxonLabel">Yuganotheca elegans</text><text x="395.3" y="253.7" fill="#fdae61" class="flag">[1]</text><text x="417.3" y="253.7" fill="#000" class="taxonLabel">Antigonambonites planus</text><text x="395.3" y="266.5" fill="#fdae61" class="flag">[1]</text><text x="417.3" y="266.5" fill="#000" class="taxonLabel">Coolinia pecten</text><text x="482" y="228.1" fill="lightgrey" class="flag">[-]</text><text x="504" y="228.1" fill="#ccc" class="taxonLabel">Alisina</text><text x="482" y="240.9" fill="lightgrey" class="flag">[-]</text><text x="504" y="240.9" fill="#ccc" class="taxonLabel">Terebratulina</text><text x="460.3" y="215.2" fill="lightgrey" class="flag">[-]</text><text x="482.3" y="215.2" fill="#ccc" class="taxonLabel">Orthis</text><text x="438.6" y="202.4" fill="lightgrey" class="flag">[-]</text><text x="460.6" y="202.4" fill="#ccc" class="taxonLabel">Glyptoria</text><text x="417" y="189.6" fill="lightgrey" class="flag">[-]</text><text x="439" y="189.6" fill="#ccc" class="taxonLabel">Tomteluva perturbata</text><text x="417" y="163.9" fill="lightgrey" class="flag">[-]</text><text x="439" y="163.9" fill="#ccc" class="taxonLabel">Kutorgina chengjiangensis</text><text x="417" y="176.8" fill="lightgrey" class="flag">[-]</text><text x="439" y="176.8" fill="#ccc" class="taxonLabel">Nisusia sulcata</text><text x="330.2" y="151.1" fill="#fdae61" class="flag">[1]</text><text x="352.2" y="151.1" fill="#000" class="taxonLabel">Salanygolina</text><text x="308.5" y="138.3" fill="#abd9e9" class="flag">[3]</text><text x="330.5" y="138.3" fill="#000" class="taxonLabel">Askepasma toddense</text><text x="265.2" y="125.4" fill="#fdae61" class="flag">[1]</text><text x="287.2" y="125.4" fill="#000" class="taxonLabel">Micrina</text><text x="221.8" y="112.6" fill="#abd9e9" class="flag">[3]</text><text x="243.8" y="112.6" fill="#000" class="taxonLabel">Paterimitra</text><text x="200.1" y="99.8" fill="grey" class="flag">[?]</text><text x="222.1" y="99.8" fill="#999" class="taxonLabel">Halkieria evangelista</text><text x="178.5" y="87" fill="grey" class="flag">[?]</text><text x="200.5" y="87" fill="#999" class="taxonLabel">Eccentrotheca</text><text x="156.8" y="74.1" fill="lightgrey" class="flag">[-]</text><text x="178.8" y="74.1" fill="#ccc" class="taxonLabel">Dailyatia</text><text x="135.1" y="61.3" fill="grey" class="flag">[?]</text><text x="157.1" y="61.3" fill="#999" class="taxonLabel">Cotyledion tylodes</text><text x="113.4" y="48.5" fill="grey" class="flag">[?]</text><text x="135.4" y="48.5" fill="#999" class="taxonLabel">Namacalathus</text><text x="91.7" y="35.7" fill="lightgrey" class="flag">[-]</text><text x="113.7" y="35.7" fill="#ccc" class="taxonLabel">Phoronis</text><text x="91.7" y="10" fill="lightgrey" class="flag">[-]</text><text x="113.7" y="10" fill="#ccc" class="taxonLabel">Flustra</text><text x="91.7" y="22.8" fill="lightgrey" class="flag">[-]</text><text x="113.7" y="22.8" fill="#ccc" class="taxonLabel">Amathia</text><text x="48.4" y="612.9" fill="lightgrey" class="flag">[-]</text><text x="70.4" y="612.9" fill="#ccc" class="taxonLabel">Loxosomella</text><path d="M5,481.8V320.1H26.7M26.7,320.1V30.3H48.4M48.4,30.3V13.4H70M70,13.4V7H91.7M70,13.4V19.8H91.7M48.4,30.3V47.3H70M70,47.3V32.7H91.7M70,47.3V61.9H91.7M91.7,61.9V45.5H113.4M91.7,61.9V78.3H113.4M113.4,78.3V58.3H135.1M113.4,78.3V98.2H135.1M135.1,98.2V71.1H156.8M351.9,220V183H373.6M373.6,183V167.3H395.3M395.3,167.3V160.9H417M395.3,167.3V173.8H417M373.6,183V198.6H395.3M395.3,198.6V186.6H417M395.3,198.6V210.6H417M417,210.6V199.4H438.6M417,210.6V221.9H438.6M438.6,221.9V212.2H460.3M438.6,221.9V231.5H460.3M460.3,231.5V225.1H482M460.3,231.5V237.9H482M395.3,372.6V366.2H417M26.7,320.1V609.9H48.4M5,481.8V643.5H26.7M26.7,643.5V629.1H48.4M48.4,629.1V622.7H70M48.4,629.1V635.5H70M26.7,643.5V658H48.4M48.4,658V648.3H70M48.4,658V667.6H70M70,667.6V661.2H91.7M70,667.6V674H91.7" stroke="lightgrey" class="inapplicable"></path><path d="M135.1,98.2V125.3H156.8M156.8,125.3V84H178.5M156.8,125.3V166.7H178.5M178.5,166.7V96.8H200.1M178.5,166.7V236.6H200.1M330.2,308.4V314.8H351.9M330.2,420.3V435.9H351.9M438.6,475.2V481.6H460.3" stroke="darkgrey"></path><path d="M200.1,236.6V109.6H221.8M286.9,167.5V135.3H308.5" stroke="#abd9e9"></path><path d="M200.1,236.6V363.5H221.8M221.8,363.5V194.4H243.5M243.5,194.4V122.4H265.2M243.5,194.4V266.3H265.2M265.2,266.3V167.5H286.9M286.9,167.5V199.8H308.5M308.5,199.8V148.1H330.2M308.5,199.8V251.4H330.2M330.2,251.4V220H351.9M351.9,220V257.1H373.6M373.6,257.1V250.7H395.3M373.6,257.1V263.5H395.3M330.2,251.4V282.8H351.9M351.9,282.8V276.4H373.6M351.9,282.8V289.2H373.6M265.2,266.3V365.1H286.9M286.9,365.1V324.1H308.5M308.5,324.1V308.4H330.2M308.5,324.1V339.7H330.2M330.2,339.7V327.7H351.9M330.2,339.7V351.7H351.9M351.9,351.7V340.5H373.6M351.9,351.7V362.9H373.6M373.6,362.9V353.3H395.3M373.6,362.9V372.6H395.3M395.3,372.6V379H417M286.9,365.1V406H308.5M308.5,406V391.8H330.2M308.5,406V420.3H330.2M351.9,435.9V454.3H373.6M373.6,454.3V436.7H395.3M395.3,436.7V430.3H417M395.3,436.7V443.1H417M373.6,454.3V472H395.3M395.3,472V455.9H417M395.3,472V488H417M417,488V475.2H438.6M417,488V500.8H438.6M438.6,500.8V494.4H460.3M438.6,500.8V507.2H460.3M221.8,363.5V532.7H243.5M243.5,532.7V520.1H265.2M243.5,532.7V545.3H265.2M265.2,545.3V532.9H286.9M265.2,545.3V557.8H286.9M286.9,557.8V545.7H308.5M286.9,557.8V569.8H308.5M308.5,569.8V558.6H330.2M308.5,569.8V581H330.2M330.2,581V571.4H351.9M330.2,581V590.6H351.9M351.9,590.6V584.2H373.6M351.9,590.6V597H373.6" stroke="#fdae61"></path><path d="M330.2,308.4V302H351.9" stroke="#2c7bb6"></path><path d="M330.2,420.3V404.6H351.9M351.9,435.9V417.5H373.6M438.6,475.2V468.8H460.3" stroke="#e2e2a2"></path><text x="7" y="484.8" class="node" fill="#4A6FE3">1</text><text x="28.7" y="323.1" class="node" fill="#4A6FE3">1</text><text x="50.4" y="33.3" class="node" fill="#4A6FE3">1</text><text x="72" y="16.4" class="node" fill="#4A6FE3">1</text><text x="72" y="50.3" class="node" fill="#4A6FE3">1</text><text x="93.7" y="64.9" class="node" fill="#E6C1C7">0.39</text><text x="115.4" y="81.3" class="node" fill="#4A6FE3">1</text><text x="137.1" y="101.2" class="node" fill="#E59FAC">0.28</text><text x="158.8" y="128.3" class="node" fill="#E28699">0.2</text><text x="180.5" y="169.7" class="node" fill="#4A6FE3">1</text><text x="202.1" y="239.6" class="node" fill="#4A6FE3">1</text><text x="223.8" y="366.5" class="node" fill="#4A6FE3">1</text><text x="245.5" y="197.4" class="node" fill="#4A6FE3">1</text><text x="267.2" y="269.3" class="node" fill="#AEB6E2">0.69</text><text x="288.9" y="170.5" class="node" fill="#4A6FE3">1</text><text x="310.5" y="202.8" class="node" fill="#4A6FE3">1</text><text x="332.2" y="254.4" class="node" fill="#8091E1">0.85</text><text x="353.9" y="223" class="node" fill="#DF758D">0.15</text><text x="375.6" y="186" class="node" fill="#D95A7A">0.07</text><text x="397.3" y="170.3" class="node" fill="#BCC2E3">0.64</text><text x="397.3" y="201.6" class="node" fill="#D95A7A">0.07</text><text x="419" y="213.6" class="node" fill="#7388E1">0.89</text><text x="440.6" y="224.9" class="node" fill="#7388E1">0.89</text><text x="462.3" y="234.5" class="node" fill="#E3DFE0">0.49</text><text x="375.6" y="260.1" class="node" fill="#4A6FE3">1</text><text x="353.9" y="285.8" class="node" fill="#DF758D">0.15</text><text x="288.9" y="368.1" class="node" fill="#4A6FE3">1</text><text x="310.5" y="327.1" class="node" fill="#4A6FE3">1</text><text x="332.2" y="311.4" class="node" fill="#4A6FE3">1</text><text x="332.2" y="342.7" class="node" fill="#4A6FE3">1</text><text x="353.9" y="354.7" class="node" fill="#4A6FE3">1</text><text x="375.6" y="365.9" class="node" fill="#4A6FE3">1</text><text x="397.3" y="375.6" class="node" fill="#4A6FE3">1</text><text x="310.5" y="409" class="node" fill="#4A6FE3">1</text><text x="332.2" y="423.3" class="node" fill="#7D8FE1">0.86</text><text x="353.9" y="438.9" class="node" fill="#7D8FE1">0.86</text><text x="375.6" y="457.3" class="node" fill="#7D8FE1">0.86</text><text x="397.3" y="439.7" class="node" fill="#5B78E2">0.96</text><text x="397.3" y="475" class="node" fill="#6982E1">0.92</text><text x="419" y="491" class="node" fill="#4F72E2">0.99</text><text x="440.6" y="478.2" class="node" fill="#E6C1C7">0.39</text><text x="440.6" y="503.8" class="node" fill="#4F72E2">0.99</text><text x="245.5" y="535.7" class="node" fill="#4A6FE3">1</text><text x="267.2" y="548.3" class="node" fill="#4A6FE3">1</text><text x="288.9" y="560.8" class="node" fill="#E5A5B1">0.3</text><text x="310.5" y="572.8" class="node" fill="#4A6FE3">1</text><text x="332.2" y="584" class="node" fill="#4A6FE3">1</text><text x="353.9" y="593.6" class="node" fill="#4A6FE3">1</text><text x="28.7" y="646.5" class="node" fill="#4A6FE3">1</text><text x="50.4" y="632.1" class="node" fill="#4A6FE3">1</text><text x="50.4" y="661" class="node" fill="#4A6FE3">1</text><text x="72" y="670.6" class="node" fill="#4A6FE3">1</text></svg>
