<svg xmlns="http://www.w3.org/2000/svg" version="1.1" width="682" height="682" class="tree" data-char="112"><text x="678" y="15.4" text-anchor="end" class="stepsLabel">Character adds <tspan class="score">6</tspan> to tree score</text><text x="678" y="27.8" text-anchor="end" class="stepsLabel"><tspan class="score">0</tspan> additional regions</text><text x="678" y="40.2" text-anchor="end" class="stepsLabel">CI = 0.17; Fitch CI = 0.17; Fitch RI = 0.8</text><text x="678" y="65" text-anchor="end" class="stepsLabel"><tspan dy="16" fill="#34caaf">An optimal tree under:</tspan><tspan x="680" style="font-style:italic" class="notThisAn" dy="1.2em">Implied weights, k = 3</tspan><tspan x="680" style="font-style:italic" class="notThisAn" dy="1.2em">IW, k = 4.5</tspan><tspan x="680" style="font-style:italic" class="notThisAn" dy="1.2em">IW, k = 7</tspan><tspan x="680" style="font-style:italic" class="notThisAn" dy="1.2em">IW, k = 10.5</tspan><tspan x="680" style="font-style:italic" class="notThisAn" dy="1.2em">IW, k = 16</tspan><tspan x="680" style="font-style:italic" class="notThisAn" dy="1.2em">IW, k = 24</tspan><tspan x="680" style="font-style:italic" class="thisAn" dy="1.2em">Equal weights</tspan></text><text x="76.6" y="664.4" fill="#fc8d59" class="flag">[0]</text><text x="98.6" y="664.4" fill="#000" class="taxonLabel">Flustra</text><text x="76.6" y="677" fill="#fc8d59" class="flag">[0]</text><text x="98.6" y="677" fill="#000" class="taxonLabel">Amathia</text><text x="100.4" y="639.2" fill="#fc8d59" class="flag">[0]</text><text x="122.4" y="639.2" fill="#000" class="taxonLabel">Phoronis</text><text x="100.4" y="651.8" fill="#fc8d59" class="flag">[0]</text><text x="122.4" y="651.8" fill="#000" class="taxonLabel">Namacalathus</text><text x="124.2" y="614.1" fill="#fc8d59" class="flag">[0]</text><text x="146.2" y="614.1" fill="#000" class="taxonLabel">Eccentrotheca</text><text x="124.2" y="626.7" fill="#fc8d59" class="flag">[0]</text><text x="146.2" y="626.7" fill="#000" class="taxonLabel">Cotyledion tylodes</text><text x="291.2" y="526" fill="#fc8d59" class="flag">[0]</text><text x="313.2" y="526" fill="#000" class="taxonLabel">Pauxillites</text><text x="291.2" y="538.6" fill="#fc8d59" class="flag">[0]</text><text x="313.2" y="538.6" fill="#000" class="taxonLabel">Maxilites</text><text x="267.4" y="551.2" fill="#fc8d59" class="flag">[0]</text><text x="289.4" y="551.2" fill="#000" class="taxonLabel">Haplophrentis carinatus</text><text x="315.1" y="475.6" fill="#fc8d59" class="flag">[0]</text><text x="337.1" y="475.6" fill="#000" class="taxonLabel">Conotheca</text><text x="315.1" y="488.2" fill="#fc8d59" class="flag">[0]</text><text x="337.1" y="488.2" fill="#000" class="taxonLabel">Bactrotheca</text><text x="291.2" y="500.8" fill="#fc8d59" class="flag">[0]</text><text x="313.2" y="500.8" fill="#000" class="taxonLabel">Cupitheca holocyclata</text><text x="267.4" y="513.4" fill="#fc8d59" class="flag">[0]</text><text x="289.4" y="513.4" fill="#000" class="taxonLabel">Paramicrocornus</text><text x="219.7" y="563.7" fill="#fc8d59" class="flag">[0]</text><text x="241.7" y="563.7" fill="#000" class="taxonLabel">Pedunculotheca diania</text><text x="291.2" y="425.3" fill="#91bfdb" class="flag">[1]</text><text x="313.2" y="425.3" fill="#000" class="taxonLabel">Mickwitzia muralensis</text><text x="291.2" y="437.9" fill="#fc8d59" class="flag">[0]</text><text x="313.2" y="437.9" fill="#000" class="taxonLabel">Heliomedusa orienta</text><text x="267.4" y="450.5" fill="#91bfdb" class="flag">[1]</text><text x="289.4" y="450.5" fill="#000" class="taxonLabel">Micrina</text><text x="315.1" y="400.1" fill="#91bfdb" class="flag">[1]</text><text x="337.1" y="400.1" fill="#000" class="taxonLabel">Micromitra</text><text x="315.1" y="412.7" fill="#91bfdb" class="flag">[1]</text><text x="337.1" y="412.7" fill="#000" class="taxonLabel">Askepasma toddense</text><text x="362.8" y="362.4" fill="#91bfdb" class="flag">[1]</text><text x="384.8" y="362.4" fill="#000" class="taxonLabel">Coolinia pecten</text><text x="362.8" y="375" fill="#91bfdb" class="flag">[1]</text><text x="384.8" y="375" fill="#000" class="taxonLabel">Antigonambonites planus</text><text x="410.5" y="324.6" fill="#91bfdb" class="flag">[1]</text><text x="432.5" y="324.6" fill="#000" class="taxonLabel">Nisusia sulcata</text><text x="410.5" y="337.2" fill="#91bfdb" class="flag">[1]</text><text x="432.5" y="337.2" fill="#000" class="taxonLabel">Kutorgina chengjiangensis</text><text x="386.6" y="349.8" fill="#91bfdb" class="flag">[1]</text><text x="408.6" y="349.8" fill="#000" class="taxonLabel">Tomteluva perturbata</text><text x="458.2" y="261.7" fill="#91bfdb" class="flag">[1]</text><text x="480.2" y="261.7" fill="#000" class="taxonLabel">Terebratulina</text><text x="458.2" y="274.3" fill="#91bfdb" class="flag">[1]</text><text x="480.2" y="274.3" fill="#000" class="taxonLabel">Orthis</text><text x="434.3" y="286.9" fill="#91bfdb" class="flag">[1]</text><text x="456.3" y="286.9" fill="#000" class="taxonLabel">Alisina</text><text x="410.5" y="299.5" fill="grey" class="flag">[?]</text><text x="432.5" y="299.5" fill="#999" class="taxonLabel">Longtancunella chengjiangensis</text><text x="386.6" y="312" fill="#91bfdb" class="flag">[1]</text><text x="408.6" y="312" fill="#000" class="taxonLabel">Glyptoria</text><text x="315.1" y="387.5" fill="#91bfdb" class="flag">[1]</text><text x="337.1" y="387.5" fill="#000" class="taxonLabel">Salanygolina</text><text x="362.8" y="211.4" fill="#fc8d59" class="flag">[0]</text><text x="384.8" y="211.4" fill="#000" class="taxonLabel">Novocrania</text><text x="362.8" y="223.9" fill="#fc8d59" class="flag">[0]</text><text x="384.8" y="223.9" fill="#000" class="taxonLabel">Craniops</text><text x="338.9" y="236.5" fill="#fc8d59" class="flag">[0]</text><text x="360.9" y="236.5" fill="#000" class="taxonLabel">Ussunia</text><text x="315.1" y="249.1" fill="#91bfdb" class="flag">[1]</text><text x="337.1" y="249.1" fill="#000" class="taxonLabel">Gasconsia</text><text x="410.5" y="148.4" fill="#91bfdb" class="flag">[1]</text><text x="432.5" y="148.4" fill="#000" class="taxonLabel">Pelagodiscus atlanticus</text><text x="410.5" y="161" fill="#91bfdb" class="flag">[1]</text><text x="432.5" y="161" fill="#000" class="taxonLabel">Mummpikia nuda</text><text x="482" y="85.5" fill="#91bfdb" class="flag">[1]</text><text x="504" y="85.5" fill="#000" class="taxonLabel">Siphonobolus priscus</text><text x="482" y="98.1" fill="#91bfdb" class="flag">[1]</text><text x="504" y="98.1" fill="#000" class="taxonLabel">Acanthotretella spinosa</text><text x="458.2" y="110.7" fill="#91bfdb" class="flag">[1]</text><text x="480.2" y="110.7" fill="#000" class="taxonLabel">Clupeafumosus socialis</text><text x="434.3" y="123.3" fill="#91bfdb" class="flag">[1]</text><text x="456.3" y="123.3" fill="#000" class="taxonLabel">Lingulosacculus</text><text x="410.5" y="135.8" fill="#91bfdb" class="flag">[1]</text><text x="432.5" y="135.8" fill="#000" class="taxonLabel">Lingulellotreta malongensis</text><text x="362.8" y="173.6" fill="#91bfdb" class="flag">[1]</text><text x="384.8" y="173.6" fill="#000" class="taxonLabel">Botsfordia</text><text x="338.9" y="186.2" fill="#91bfdb" class="flag">[1]</text><text x="360.9" y="186.2" fill="#000" class="taxonLabel">Eoobolus</text><text x="315.1" y="198.8" fill="#fc8d59" class="flag">[0]</text><text x="337.1" y="198.8" fill="#000" class="taxonLabel">Lingula</text><text x="219.7" y="463.1" fill="grey" class="flag">[?]</text><text x="241.7" y="463.1" fill="#999" class="taxonLabel">Yuganotheca elegans</text><text x="172" y="576.3" fill="#91bfdb" class="flag">[1]</text><text x="194" y="576.3" fill="#000" class="taxonLabel">Paterimitra</text><text x="148.1" y="588.9" fill="#fc8d59" class="flag">[0]</text><text x="170.1" y="588.9" fill="#000" class="taxonLabel">Halkieria evangelista</text><text x="124.2" y="601.5" fill="#fc8d59" class="flag">[0]</text><text x="146.2" y="601.5" fill="#000" class="taxonLabel">Dailyatia</text><text x="100.4" y="47.8" fill="#fc8d59" class="flag">[0]</text><text x="122.4" y="47.8" fill="#000" class="taxonLabel">Sipunculus</text><text x="100.4" y="60.3" fill="#fc8d59" class="flag">[0]</text><text x="122.4" y="60.3" fill="#000" class="taxonLabel">Serpula</text><text x="124.2" y="10" fill="#91bfdb" class="flag">[1]</text><text x="146.2" y="10" fill="#000" class="taxonLabel">Tonicella</text><text x="124.2" y="22.6" fill="#fc8d59" class="flag">[0]</text><text x="146.2" y="22.6" fill="#000" class="taxonLabel">Dentalium</text><text x="100.4" y="35.2" fill="#fc8d59" class="flag">[0]</text><text x="122.4" y="35.2" fill="#000" class="taxonLabel">Wiwaxia corrugata</text><text x="52.7" y="72.9" fill="#fc8d59" class="flag">[0]</text><text x="74.7" y="72.9" fill="#000" class="taxonLabel">Loxosomella</text><path d="M5,348.6V53.4H28.9M28.9,53.4V36.9H52.7M52.7,36.9V22.7H76.6M76.6,22.7V13.3H100.4M100.4,13.3V19.6H124.2M76.6,22.7V32.2H100.4M52.7,36.9V51H76.6M76.6,51V44.8H100.4M76.6,51V57.3H100.4M28.9,53.4V69.9H52.7M5,348.6V643.8H28.9M28.9,643.8V619.9H52.7M52.7,619.9V597.2H76.6M76.6,597.2V577H100.4M100.4,577V555.5H124.2M124.2,555.5V525H148.1M291.2,182.1V195.8H315.1M291.2,235.1V224.1H315.1M315.1,224.1V214.7H338.9M338.9,214.7V208.4H362.8M338.9,214.7V220.9H362.8M315.1,224.1V233.5H338.9M267.4,428.6V434.9H291.2M172,476.7V539.9H195.8M195.8,539.9V519H219.7M219.7,519V499.4H243.5M243.5,499.4V488.4H267.4M267.4,488.4V478.9H291.2M291.2,478.9V472.6H315.1M291.2,478.9V485.2H315.1M267.4,488.4V497.8H291.2M243.5,499.4V510.4H267.4M219.7,519V538.7H243.5M243.5,538.7V529.3H267.4M267.4,529.3V523H291.2M267.4,529.3V535.6H291.2M243.5,538.7V548.2H267.4M195.8,539.9V560.7H219.7M124.2,555.5V585.9H148.1M100.4,577V598.5H124.2M76.6,597.2V617.4H100.4M100.4,617.4V611.1H124.2M100.4,617.4V623.7H124.2M52.7,619.9V642.5H76.6M76.6,642.5V636.2H100.4M76.6,642.5V648.8H100.4M28.9,643.8V667.7H52.7M52.7,667.7V661.4H76.6M52.7,667.7V674H76.6" stroke="#fc8d59"></path><path d="M100.4,13.3V7H124.2M195.8,413.5V367H219.7M219.7,367V295.9H243.5M243.5,295.9V208.6H267.4M267.4,208.6V182.1H291.2M291.2,182.1V168.3H315.1M315.1,168.3V153.5H338.9M338.9,153.5V136.4H362.8M362.8,136.4V121.1H386.6M386.6,121.1V109.3H410.5M410.5,109.3V98.2H434.3M434.3,98.2V88.8H458.2M458.2,88.8V82.5H482M458.2,88.8V95.1H482M434.3,98.2V107.7H458.2M410.5,109.3V120.3H434.3M386.6,121.1V132.8H410.5M362.8,136.4V151.7H386.6M386.6,151.7V145.4H410.5M386.6,151.7V158H410.5M338.9,153.5V170.6H362.8M315.1,168.3V183.2H338.9M267.4,208.6V235.1H291.2M291.2,235.1V246.1H315.1M243.5,295.9V383.2H267.4M267.4,383.2V363H291.2M291.2,363V341.5H315.1M315.1,341.5V317.3H338.9M338.9,317.3V297.2H362.8M362.8,297.2V285.4H386.6M386.6,285.4V274.4H410.5M410.5,274.4V265H434.3M434.3,265V258.7H458.2M434.3,265V271.3H458.2M410.5,274.4V283.9H434.3M386.6,285.4V296.5H410.5M362.8,297.2V309H386.6M338.9,317.3V337.4H362.8M362.8,337.4V327.9H386.6M386.6,327.9V321.6H410.5M386.6,327.9V334.2H410.5M362.8,337.4V346.8H386.6M315.1,341.5V365.7H338.9M338.9,365.7V359.4H362.8M338.9,365.7V372H362.8M291.2,363V384.5H315.1M267.4,383.2V403.4H291.2M291.2,403.4V397.1H315.1M291.2,403.4V409.7H315.1M219.7,367V438H243.5M243.5,438V428.6H267.4M267.4,428.6V422.3H291.2M243.5,438V447.5H267.4M148.1,525V573.3H172" stroke="#91bfdb"></path><path d="M148.1,525V476.7H172M172,476.7V413.5H195.8M195.8,413.5V460.1H219.7" stroke="darkgrey"></path><text x="30.9" y="56.4" class="node" fill="#4A6FE3">1</text><text x="54.7" y="39.9" class="node" fill="#4A6FE3">1</text><text x="78.6" y="25.7" class="node" fill="#4A6FE3">1</text><text x="102.4" y="16.3" class="node" fill="#4A6FE3">1</text><text x="78.6" y="54" class="node" fill="#4A6FE3">1</text><text x="30.9" y="646.8" class="node" fill="#4A6FE3">1</text><text x="54.7" y="622.9" class="node" fill="#4A6FE3">1</text><text x="78.6" y="600.2" class="node" fill="#627DE1">0.94</text><text x="102.4" y="580" class="node" fill="#627DE1">0.94</text><text x="126.2" y="558.5" class="node" fill="#627DE1">0.94</text><text x="150.1" y="528" class="node" fill="#627DE1">0.94</text><text x="174" y="479.7" class="node" fill="#627DE1">0.94</text><text x="197.8" y="416.5" class="node" fill="#4A6FE3">1</text><text x="221.7" y="370" class="node" fill="#5374E2">0.98</text><text x="245.5" y="298.9" class="node" fill="#627DE1">0.94</text><text x="269.4" y="211.6" class="node" fill="#627DE1">0.94</text><text x="293.2" y="185.1" class="node" fill="#627DE1">0.94</text><text x="317.1" y="171.3" class="node" fill="#667FE1">0.93</text><text x="340.9" y="156.5" class="node" fill="#667FE1">0.93</text><text x="364.8" y="139.4" class="node" fill="#667FE1">0.93</text><text x="388.6" y="124.1" class="node" fill="#627DE1">0.94</text><text x="412.5" y="112.3" class="node" fill="#4A6FE3">1</text><text x="436.3" y="101.2" class="node" fill="#E6B7C0">0.36</text><text x="460.2" y="91.8" class="node" fill="#4A6FE3">1</text><text x="388.6" y="154.7" class="node" fill="#667FE1">0.93</text><text x="293.2" y="238.1" class="node" fill="#627DE1">0.94</text><text x="317.1" y="227.1" class="node" fill="#4A6FE3">1</text><text x="340.9" y="217.7" class="node" fill="#4A6FE3">1</text><text x="269.4" y="386.2" class="node" fill="#5B78E2">0.96</text><text x="293.2" y="366" class="node" fill="#4A6FE3">1</text><text x="317.1" y="344.5" class="node" fill="#5B78E2">0.96</text><text x="340.9" y="320.3" class="node" fill="#5F7BE1">0.95</text><text x="364.8" y="300.2" class="node" fill="#4A6FE3">1</text><text x="388.6" y="288.4" class="node" fill="#4A6FE3">1</text><text x="412.5" y="277.4" class="node" fill="#4A6FE3">1</text><text x="436.3" y="268" class="node" fill="#5B78E2">0.96</text><text x="364.8" y="340.4" class="node" fill="#E59FAC">0.28</text><text x="388.6" y="330.9" class="node" fill="#95A1E2">0.78</text><text x="340.9" y="368.7" class="node" fill="#4A6FE3">1</text><text x="293.2" y="406.4" class="node" fill="#5B78E2">0.96</text><text x="245.5" y="441" class="node" fill="#627DE1">0.94</text><text x="269.4" y="431.6" class="node" fill="#627DE1">0.94</text><text x="197.8" y="542.9" class="node" fill="#627DE1">0.94</text><text x="221.7" y="522" class="node" fill="#627DE1">0.94</text><text x="245.5" y="502.4" class="node" fill="#E2899B">0.21</text><text x="269.4" y="491.4" class="node" fill="#627DE1">0.94</text><text x="293.2" y="481.9" class="node" fill="#4A6FE3">1</text><text x="245.5" y="541.7" class="node" fill="#4A6FE3">1</text><text x="269.4" y="532.3" class="node" fill="#4A6FE3">1</text><text x="102.4" y="620.4" class="node" fill="#E5A5B1">0.3</text><text x="78.6" y="645.5" class="node" fill="#E6B4BD">0.35</text><text x="54.7" y="670.7" class="node" fill="#4A6FE3">1</text></svg>
