<svg xmlns="http://www.w3.org/2000/svg" version="1.1" width="682" height="612" class="tree" data-char="99"><text x="678" y="16" text-anchor="end" class="stepsLabel">Character adds <tspan class="score">5</tspan> to tree score</text><text x="678" y="29" text-anchor="end" class="stepsLabel"><tspan class="score">1</tspan> additional region</text><text x="678" y="42" text-anchor="end" class="stepsLabel">CI = 0.2; Fitch CI = 0.25; Fitch RI = 0.25</text><text x="678" y="68" text-anchor="end" class="stepsLabel"><tspan dy="16">An optimal tree under:</tspan><tspan x="680" style="font-style:italic" class="thisAn" dy="1.2em">Equal weights</tspan><tspan x="680" style="font-style:italic" class="notThisAn" dy="1.2em">Implied weights, k = 2</tspan><tspan x="680" style="font-style:italic" class="notThisAn" dy="1.2em">IW, k = 3</tspan><tspan x="680" style="font-style:italic" class="notThisAn" dy="1.2em">IW, k = 4.5</tspan><tspan x="680" style="font-style:italic" class="thisAn" dy="1.2em">IW, k = 7</tspan><tspan x="680" style="font-style:italic" class="thisAn" dy="1.2em">IW, k = 10.5</tspan><tspan x="680" style="font-style:italic" class="notThisAn" dy="1.2em">IW, k = 16</tspan><tspan x="680" style="font-style:italic" class="notThisAn" dy="1.2em">IW, k = 24</tspan></text><text x="105.4" y="593.7" fill="lightgrey" class="flag">[-]</text><text x="127.4" y="593.7" fill="lightgrey" class="taxonLabel">Wiwaxia corrugata</text><text x="105.4" y="607" fill="#91bfdb" class="flag">[2]</text><text x="127.4" y="607" fill="#000" class="taxonLabel">Tonicella</text><text x="80.3" y="580.5" fill="lightgrey" class="flag">[-]</text><text x="102.3" y="580.5" fill="lightgrey" class="taxonLabel">Dentalium</text><text x="80.3" y="553.9" fill="lightgrey" class="flag">[-]</text><text x="102.3" y="553.9" fill="lightgrey" class="taxonLabel">Sipunculus</text><text x="80.3" y="567.2" fill="lightgrey" class="flag">[-]</text><text x="102.3" y="567.2" fill="lightgrey" class="taxonLabel">Serpula</text><text x="356.5" y="514.1" fill="#91bfdb" class="flag">[2]</text><text x="378.5" y="514.1" fill="#000" class="taxonLabel">Antigonambonites planus</text><text x="356.5" y="527.4" fill="#91bfdb" class="flag">[2]</text><text x="378.5" y="527.4" fill="#000" class="taxonLabel">Coolinia pecten</text><text x="482" y="487.6" fill="#91bfdb" class="flag">[2]</text><text x="504" y="487.6" fill="#000" class="taxonLabel">Terebratulina</text><text x="482" y="500.9" fill="#e2e2a2" class="flag">[1]</text><text x="504" y="500.9" fill="#000" class="taxonLabel">Orthis</text><text x="456.9" y="474.3" fill="#91bfdb" class="flag">[2]</text><text x="478.9" y="474.3" fill="#000" class="taxonLabel">Alisina</text><text x="431.8" y="461.1" fill="grey" class="flag">[?]</text><text x="453.8" y="461.1" fill="grey" class="taxonLabel">Longtancunella chengjiangensis</text><text x="406.7" y="447.8" fill="#e2e2a2" class="flag">[1]</text><text x="428.7" y="447.8" fill="#000" class="taxonLabel">Glyptoria</text><text x="381.6" y="434.5" fill="#91bfdb" class="flag">[2]</text><text x="403.6" y="434.5" fill="#000" class="taxonLabel">Nisusia sulcata</text><text x="356.5" y="421.3" fill="#91bfdb" class="flag">[2]</text><text x="378.5" y="421.3" fill="#000" class="taxonLabel">Kutorgina chengjiangensis</text><text x="356.5" y="394.7" fill="grey" class="flag">[?]</text><text x="378.5" y="394.7" fill="grey" class="taxonLabel">Yuganotheca elegans</text><text x="356.5" y="408" fill="#91bfdb" class="flag">[2]</text><text x="378.5" y="408" fill="#000" class="taxonLabel">Tomteluva perturbata</text><text x="331.4" y="381.5" fill="#91bfdb" class="flag">[2]</text><text x="353.4" y="381.5" fill="#000" class="taxonLabel">Salanygolina</text><text x="306.3" y="354.9" fill="#91bfdb" class="flag">[2]</text><text x="328.3" y="354.9" fill="#000" class="taxonLabel">Micromitra</text><text x="306.3" y="368.2" fill="#e2e2a2" class="flag">[1]</text><text x="328.3" y="368.2" fill="#000" class="taxonLabel">Askepasma toddense</text><text x="331.4" y="328.4" fill="lightgrey" class="flag">[-]</text><text x="353.4" y="328.4" fill="lightgrey" class="taxonLabel">Novocrania</text><text x="331.4" y="341.7" fill="lightgrey" class="flag">[-]</text><text x="353.4" y="341.7" fill="lightgrey" class="taxonLabel">Craniops</text><text x="306.3" y="315.1" fill="lightgrey" class="flag">[-]</text><text x="328.3" y="315.1" fill="lightgrey" class="taxonLabel">Ussunia</text><text x="281.2" y="301.9" fill="#91bfdb" class="flag">[2]</text><text x="303.2" y="301.9" fill="#000" class="taxonLabel">Gasconsia</text><text x="431.8" y="275.3" fill="lightgrey" class="flag">[-]</text><text x="453.8" y="275.3" fill="lightgrey" class="taxonLabel">Acanthotretella spinosa</text><text x="431.8" y="288.6" fill="lightgrey" class="flag">[-]</text><text x="453.8" y="288.6" fill="lightgrey" class="taxonLabel">Siphonobolus priscus</text><text x="431.8" y="248.8" fill="lightgrey" class="flag">[-]</text><text x="453.8" y="248.8" fill="lightgrey" class="taxonLabel">Clupeafumosus socialis</text><text x="431.8" y="262.1" fill="lightgrey" class="flag">[-]</text><text x="453.8" y="262.1" fill="lightgrey" class="taxonLabel">Lingulosacculus</text><text x="381.6" y="235.5" fill="lightgrey" class="flag">[-]</text><text x="403.6" y="235.5" fill="lightgrey" class="taxonLabel">Lingulellotreta malongensis</text><text x="356.5" y="222.3" fill="#e2e2a2" class="flag">[1]</text><text x="378.5" y="222.3" fill="#000" class="taxonLabel">Botsfordia</text><text x="331.4" y="209" fill="#e2e2a2" class="flag">[1]</text><text x="353.4" y="209" fill="#000" class="taxonLabel">Mummpikia nuda</text><text x="306.3" y="195.7" fill="#91bfdb" class="flag">[2]</text><text x="328.3" y="195.7" fill="#000" class="taxonLabel">Eoobolus</text><text x="281.2" y="182.5" fill="lightgrey" class="flag">[-]</text><text x="303.2" y="182.5" fill="lightgrey" class="taxonLabel">Lingula</text><text x="306.3" y="155.9" fill="lightgrey" class="flag">[-]</text><text x="328.3" y="155.9" fill="lightgrey" class="taxonLabel">Pelagodiscus atlanticus</text><text x="306.3" y="169.2" fill="#91bfdb" class="flag">[2]</text><text x="328.3" y="169.2" fill="#000" class="taxonLabel">Mickwitzia muralensis</text><text x="281.2" y="142.7" fill="#91bfdb" class="flag">[2]</text><text x="303.2" y="142.7" fill="#000" class="taxonLabel">Micrina</text><text x="256.1" y="116.1" fill="lightgrey" class="flag">[-]</text><text x="278.1" y="116.1" fill="lightgrey" class="taxonLabel">Haplophrentis carinatus</text><text x="256.1" y="129.4" fill="lightgrey" class="flag">[-]</text><text x="278.1" y="129.4" fill="lightgrey" class="taxonLabel">Pedunculotheca diania</text><text x="230.9" y="102.9" fill="#91bfdb" class="flag">[2]</text><text x="252.9" y="102.9" fill="#000" class="taxonLabel">Paterimitra</text><text x="180.7" y="89.6" fill="lightgrey" class="flag">[-]</text><text x="202.7" y="89.6" fill="lightgrey" class="taxonLabel">Heliomedusa orienta</text><text x="180.7" y="63.1" fill="lightgrey" class="flag">[-]</text><text x="202.7" y="63.1" fill="lightgrey" class="taxonLabel">Halkieria evangelista</text><text x="180.7" y="76.3" fill="lightgrey" class="flag">[-]</text><text x="202.7" y="76.3" fill="lightgrey" class="taxonLabel">Dailyatia</text><text x="155.6" y="36.5" fill="lightgrey" class="flag">[-]</text><text x="177.6" y="36.5" fill="lightgrey" class="taxonLabel">Eccentrotheca</text><text x="155.6" y="49.8" fill="lightgrey" class="flag">[-]</text><text x="177.6" y="49.8" fill="lightgrey" class="taxonLabel">Cotyledion tylodes</text><text x="105.4" y="23.3" fill="lightgrey" class="flag">[-]</text><text x="127.4" y="23.3" fill="lightgrey" class="taxonLabel">Phoronis</text><text x="80.3" y="10" fill="lightgrey" class="flag">[-]</text><text x="102.3" y="10" fill="lightgrey" class="taxonLabel">Flustra</text><text x="55.2" y="540.7" fill="lightgrey" class="flag">[-]</text><text x="77.2" y="540.7" fill="lightgrey" class="taxonLabel">Loxosomella</text><path d="M5,427.2V282H30.1M30.1,282V26.3H55.2M55.2,26.3V7H80.3M55.2,26.3V45.5H80.3M80.3,45.5V20.3H105.4M80.3,45.5V70.8H105.4M105.4,70.8V40.2H130.5M130.5,40.2V33.5H155.6M130.5,40.2V46.8H155.6M105.4,70.8V101.5H130.5M130.5,101.5V66.7H155.6M155.6,66.7V60.1H180.7M155.6,66.7V73.3H180.7M130.5,101.5V136.3H155.6M155.6,136.3V86.6H180.7M205.8,109.8V119.8H230.9M230.9,119.8V113.1H256.1M230.9,119.8V126.4H256.1M281.2,159.6V152.9H306.3M256.1,192.9V179.5H281.2M331.4,234.2V249.1H356.5M356.5,249.1V232.5H381.6M356.5,249.1V265.7H381.6M381.6,265.7V252.4H406.7M406.7,252.4V245.8H431.8M406.7,252.4V259.1H431.8M381.6,265.7V279H406.7M406.7,279V272.3H431.8M406.7,279V285.6H431.8M256.1,310.5V322.1H281.2M281.2,322.1V312.1H306.3M281.2,322.1V332H306.3M306.3,332V325.4H331.4M306.3,332V338.7H331.4M30.1,282V537.7H55.2M5,427.2V572.5H30.1M30.1,572.5V557.6H55.2M55.2,557.6V550.9H80.3M55.2,557.6V564.2H80.3M30.1,572.5V587.4H55.2M55.2,587.4V577.5H80.3M55.2,587.4V597.4H80.3M80.3,597.4V590.7H105.4" stroke="lightgrey" class="inapplicable"></path><path d="M155.6,136.3V185.9H180.7M180.7,185.9V109.8H205.8M205.8,109.8V99.9H230.9M180.7,185.9V262H205.8M205.8,262V171.3H230.9M230.9,171.3V149.6H256.1M256.1,149.6V139.7H281.2M256.1,149.6V159.6H281.2M281.2,159.6V166.2H306.3M230.9,171.3V192.9H256.1M256.1,192.9V206.4H281.2M281.2,206.4V192.7H306.3M205.8,262V352.7H230.9M230.9,352.7V310.5H256.1M256.1,310.5V298.9H281.2M230.9,352.7V395H256.1M256.1,395V358.6H281.2M281.2,358.6V351.9H306.3M256.1,395V431.5H281.2M281.2,431.5V388.4H306.3M306.3,388.4V378.5H331.4M306.3,388.4V398.4H331.4M331.4,398.4V391.7H356.5M331.4,398.4V405H356.5M281.2,431.5V474.5H306.3M306.3,474.5V431.3H331.4M331.4,431.3V418.3H356.5M331.4,431.3V444.4H356.5M356.5,444.4V431.5H381.6M356.5,444.4V457.2H381.6M381.6,457.2V469.7H406.7M406.7,469.7V458.1H431.8M406.7,469.7V481.3H431.8M431.8,481.3V471.3H456.9M431.8,481.3V491.2H456.9M456.9,491.2V484.6H482M306.3,474.5V517.8H331.4M331.4,517.8V511.1H356.5M331.4,517.8V524.4H356.5M80.3,597.4V604H105.4" stroke="#91bfdb"></path><path d="M281.2,206.4V220.1H306.3M306.3,220.1V206H331.4M306.3,220.1V234.2H331.4M331.4,234.2V219.3H356.5M281.2,358.6V365.2H306.3M381.6,457.2V444.8H406.7M456.9,491.2V497.9H482" stroke="#e2e2a2"></path><text x="7" y="430.2" class="node" fill="#4A6FE3">1</text><text x="32.1" y="285" class="node" fill="#4A6FE3">1</text><text x="57.2" y="29.3" class="node" fill="#4A6FE3">1</text><text x="82.3" y="48.5" class="node" fill="#4A6FE3">1</text><text x="107.4" y="73.8" class="node" fill="#4A6FE3">1</text><text x="132.5" y="43.2" class="node" fill="#E6BDC5">0.38</text><text x="132.5" y="104.5" class="node" fill="#4A6FE3">1</text><text x="157.6" y="69.7" class="node" fill="#4A6FE3">1</text><text x="157.6" y="139.3" class="node" fill="#4A6FE3">1</text><text x="182.7" y="188.9" class="node" fill="#9DA8E2">0.75</text><text x="207.8" y="112.8" class="node" fill="#B4BBE3">0.67</text><text x="232.9" y="122.8" class="node" fill="#4A6FE3">1</text><text x="207.8" y="265" class="node" fill="#9DA8E2">0.75</text><text x="232.9" y="174.3" class="node" fill="#B4BBE3">0.67</text><text x="258.1" y="152.6" class="node" fill="#B4BBE3">0.67</text><text x="283.2" y="162.6" class="node" fill="#9DA8E2">0.75</text><text x="258.1" y="195.9" class="node" fill="#9DA8E2">0.75</text><text x="283.2" y="209.4" class="node" fill="#B4BBE3">0.67</text><text x="308.3" y="223.1" class="node" fill="#B4BBE3">0.67</text><text x="333.4" y="237.2" class="node" fill="#B4BBE3">0.67</text><text x="358.5" y="252.1" class="node" fill="#B4BBE3">0.67</text><text x="383.6" y="268.7" class="node" fill="#E3DCDD">0.48</text><text x="408.7" y="255.4" class="node" fill="#DF798F">0.16</text><text x="408.7" y="282" class="node" fill="#4A6FE3">1</text><text x="232.9" y="355.7" class="node" fill="#4A6FE3">1</text><text x="258.1" y="313.5" class="node" fill="#4A6FE3">1</text><text x="283.2" y="325.1" class="node" fill="#4A6FE3">1</text><text x="308.3" y="335" class="node" fill="#4A6FE3">1</text><text x="258.1" y="398" class="node" fill="#8C9BE1">0.81</text><text x="283.2" y="361.6" class="node" fill="#4A6FE3">1</text><text x="283.2" y="434.5" class="node" fill="#667FE1">0.93</text><text x="308.3" y="391.4" class="node" fill="#A0ABE2">0.74</text><text x="333.4" y="401.4" class="node" fill="#7388E1">0.89</text><text x="308.3" y="477.5" class="node" fill="#4A6FE3">1</text><text x="333.4" y="434.3" class="node" fill="#7A8DE1">0.87</text><text x="358.5" y="447.4" class="node" fill="#7A8DE1">0.87</text><text x="383.6" y="460.2" class="node" fill="#7A8DE1">0.87</text><text x="408.7" y="472.7" class="node" fill="#7A8DE1">0.87</text><text x="433.8" y="484.3" class="node" fill="#4A6FE3">1</text><text x="458.9" y="494.2" class="node" fill="#5B78E2">0.96</text><text x="333.4" y="520.8" class="node" fill="#4A6FE3">1</text><text x="32.1" y="575.5" class="node" fill="#4A6FE3">1</text><text x="57.2" y="560.6" class="node" fill="#4A6FE3">1</text><text x="57.2" y="590.4" class="node" fill="#4A6FE3">1</text><text x="82.3" y="600.4" class="node" fill="#97A4E2">0.77</text></svg>
