<svg xmlns="http://www.w3.org/2000/svg" version="1.1" width="682" height="612" class="tree" data-char="108"><text x="678" y="15.7" text-anchor="end" class="stepsLabel">Character adds <tspan class="score">5</tspan> to tree score</text><text x="678" y="28.4" text-anchor="end" class="stepsLabel"><tspan class="score">0</tspan> additional regions</text><text x="678" y="41.1" text-anchor="end" class="stepsLabel">CI = 0.2; Fitch CI = 0.2; Fitch RI = 0.33</text><text x="678" y="66.5" text-anchor="end" class="stepsLabel"><tspan dy="16">An optimal tree under:</tspan><tspan x="680" style="font-style:italic" class="thisAn" dy="1.2em">Equal weights</tspan><tspan x="680" style="font-style:italic" class="notThisAn" dy="1.2em">Implied weights, k = 2</tspan><tspan x="680" style="font-style:italic" class="notThisAn" dy="1.2em">IW, k = 3</tspan><tspan x="680" style="font-style:italic" class="notThisAn" dy="1.2em">IW, k = 4.5</tspan><tspan x="680" style="font-style:italic" class="notThisAn" dy="1.2em">IW, k = 7</tspan><tspan x="680" style="font-style:italic" class="notThisAn" dy="1.2em">IW, k = 10.5</tspan><tspan x="680" style="font-style:italic" class="notThisAn" dy="1.2em">IW, k = 16</tspan><tspan x="680" style="font-style:italic" class="notThisAn" dy="1.2em">IW, k = 24</tspan></text><text x="91.7" y="594" fill="#fc8d59" class="flag">[0]</text><text x="113.7" y="594" fill="#000" class="taxonLabel">Dentalium</text><text x="91.7" y="607" fill="#fc8d59" class="flag">[0]</text><text x="113.7" y="607" fill="#000" class="taxonLabel">Tonicella</text><text x="70" y="581" fill="#fc8d59" class="flag">[0]</text><text x="92" y="581" fill="#000" class="taxonLabel">Wiwaxia corrugata</text><text x="70" y="555.1" fill="#fc8d59" class="flag">[0]</text><text x="92" y="555.1" fill="#000" class="taxonLabel">Sipunculus</text><text x="70" y="568.1" fill="#fc8d59" class="flag">[0]</text><text x="92" y="568.1" fill="#000" class="taxonLabel">Serpula</text><text x="221.8" y="516.2" fill="grey" class="flag">[?]</text><text x="243.8" y="516.2" fill="grey" class="taxonLabel">Pedunculotheca diania</text><text x="221.8" y="529.1" fill="#fc8d59" class="flag">[0]</text><text x="243.8" y="529.1" fill="#000" class="taxonLabel">Haplophrentis carinatus</text><text x="482" y="490.2" fill="#fc8d59" class="flag">[0]</text><text x="504" y="490.2" fill="#000" class="taxonLabel">Terebratulina</text><text x="482" y="503.2" fill="#fc8d59" class="flag">[0]</text><text x="504" y="503.2" fill="#000" class="taxonLabel">Orthis</text><text x="460.3" y="477.2" fill="#fc8d59" class="flag">[0]</text><text x="482.3" y="477.2" fill="#000" class="taxonLabel">Alisina</text><text x="438.6" y="464.2" fill="#91bfdb" class="flag">[1]</text><text x="460.6" y="464.2" fill="#000" class="taxonLabel">Longtancunella chengjiangensis</text><text x="417" y="451.3" fill="#fc8d59" class="flag">[0]</text><text x="439" y="451.3" fill="#000" class="taxonLabel">Glyptoria</text><text x="395.3" y="438.3" fill="#fc8d59" class="flag">[0]</text><text x="417.3" y="438.3" fill="#000" class="taxonLabel">Nisusia sulcata</text><text x="373.6" y="425.3" fill="#fc8d59" class="flag">[0]</text><text x="395.6" y="425.3" fill="#000" class="taxonLabel">Kutorgina chengjiangensis</text><text x="373.6" y="399.3" fill="#91bfdb" class="flag">[1]</text><text x="395.6" y="399.3" fill="#000" class="taxonLabel">Coolinia pecten</text><text x="373.6" y="412.3" fill="#91bfdb" class="flag">[1]</text><text x="395.6" y="412.3" fill="#000" class="taxonLabel">Antigonambonites planus</text><text x="330.2" y="386.4" fill="grey" class="flag">[?]</text><text x="352.2" y="386.4" fill="grey" class="taxonLabel">Tomteluva perturbata</text><text x="308.5" y="373.4" fill="#91bfdb" class="flag">[1]</text><text x="330.5" y="373.4" fill="#000" class="taxonLabel">Yuganotheca elegans</text><text x="286.9" y="360.4" fill="#91bfdb" class="flag">[1]</text><text x="308.9" y="360.4" fill="#000" class="taxonLabel">Salanygolina</text><text x="308.5" y="334.5" fill="#fc8d59" class="flag">[0]</text><text x="330.5" y="334.5" fill="#000" class="taxonLabel">Micromitra</text><text x="308.5" y="347.4" fill="#fc8d59" class="flag">[0]</text><text x="330.5" y="347.4" fill="#000" class="taxonLabel">Gasconsia</text><text x="286.9" y="321.5" fill="#fc8d59" class="flag">[0]</text><text x="308.9" y="321.5" fill="#000" class="taxonLabel">Askepasma toddense</text><text x="438.6" y="295.5" fill="#91bfdb" class="flag">[1]</text><text x="460.6" y="295.5" fill="#000" class="taxonLabel">Siphonobolus priscus</text><text x="438.6" y="308.5" fill="#fc8d59" class="flag">[0]</text><text x="460.6" y="308.5" fill="#000" class="taxonLabel">Acanthotretella spinosa</text><text x="417" y="282.5" fill="#fc8d59" class="flag">[0]</text><text x="439" y="282.5" fill="#000" class="taxonLabel">Clupeafumosus socialis</text><text x="395.3" y="269.6" fill="#fc8d59" class="flag">[0]</text><text x="417.3" y="269.6" fill="#000" class="taxonLabel">Lingulellotreta malongensis</text><text x="373.6" y="256.6" fill="#fc8d59" class="flag">[0]</text><text x="395.6" y="256.6" fill="#000" class="taxonLabel">Lingulosacculus</text><text x="351.9" y="243.6" fill="#fc8d59" class="flag">[0]</text><text x="373.9" y="243.6" fill="#000" class="taxonLabel">Botsfordia</text><text x="330.2" y="230.6" fill="#fc8d59" class="flag">[0]</text><text x="352.2" y="230.6" fill="#000" class="taxonLabel">Mummpikia nuda</text><text x="308.5" y="217.7" fill="#fc8d59" class="flag">[0]</text><text x="330.5" y="217.7" fill="#000" class="taxonLabel">Eoobolus</text><text x="286.9" y="204.7" fill="#fc8d59" class="flag">[0]</text><text x="308.9" y="204.7" fill="#000" class="taxonLabel">Lingula</text><text x="308.5" y="178.7" fill="#fc8d59" class="flag">[0]</text><text x="330.5" y="178.7" fill="#000" class="taxonLabel">Pelagodiscus atlanticus</text><text x="308.5" y="191.7" fill="#fc8d59" class="flag">[0]</text><text x="330.5" y="191.7" fill="#000" class="taxonLabel">Mickwitzia muralensis</text><text x="286.9" y="165.7" fill="#fc8d59" class="flag">[0]</text><text x="308.9" y="165.7" fill="#000" class="taxonLabel">Micrina</text><text x="221.8" y="152.8" fill="#fc8d59" class="flag">[0]</text><text x="243.8" y="152.8" fill="#000" class="taxonLabel">Paterimitra</text><text x="178.5" y="139.8" fill="grey" class="flag">[?]</text><text x="200.5" y="139.8" fill="grey" class="taxonLabel">Heliomedusa orienta</text><text x="200.1" y="113.8" fill="#91bfdb" class="flag">[1]</text><text x="222.1" y="113.8" fill="#000" class="taxonLabel">Craniops</text><text x="200.1" y="126.8" fill="#fc8d59" class="flag">[0]</text><text x="222.1" y="126.8" fill="#000" class="taxonLabel">Novocrania</text><text x="178.5" y="100.8" fill="#fc8d59" class="flag">[0]</text><text x="200.5" y="100.8" fill="#000" class="taxonLabel">Ussunia</text><text x="135.1" y="87.9" fill="#fc8d59" class="flag">[0]</text><text x="157.1" y="87.9" fill="#000" class="taxonLabel">Halkieria evangelista</text><text x="156.8" y="61.9" fill="#fc8d59" class="flag">[0]</text><text x="178.8" y="61.9" fill="#000" class="taxonLabel">Eccentrotheca</text><text x="156.8" y="74.9" fill="#fc8d59" class="flag">[0]</text><text x="178.8" y="74.9" fill="#000" class="taxonLabel">Cotyledion tylodes</text><text x="135.1" y="48.9" fill="#fc8d59" class="flag">[0]</text><text x="157.1" y="48.9" fill="#000" class="taxonLabel">Dailyatia</text><text x="113.4" y="23" fill="#fc8d59" class="flag">[0]</text><text x="135.4" y="23" fill="#000" class="taxonLabel">Namacalathus</text><text x="113.4" y="36" fill="#fc8d59" class="flag">[0]</text><text x="135.4" y="36" fill="#000" class="taxonLabel">Phoronis</text><text x="70" y="10" fill="#fc8d59" class="flag">[0]</text><text x="92" y="10" fill="#000" class="taxonLabel">Flustra</text><text x="48.4" y="542.1" fill="#fc8d59" class="flag">[0]</text><text x="70.4" y="542.1" fill="#000" class="taxonLabel">Loxosomella</text><path d="M5,429.8V286.3H26.7M26.7,286.3V33.6H48.4M48.4,33.6V7H70M48.4,33.6V60.2H70M70,60.2V26.5H91.7M91.7,26.5V20H113.4M91.7,26.5V33H113.4M70,60.2V93.9H91.7M91.7,93.9V55.7H113.4M113.4,55.7V45.9H135.1M113.4,55.7V65.4H135.1M135.1,65.4V58.9H156.8M135.1,65.4V71.9H156.8M91.7,93.9V132.1H113.4M113.4,132.1V84.9H135.1M113.4,132.1V179.3H135.1M135.1,179.3V107.6H156.8M156.8,107.6V97.8H178.5M156.8,107.6V117.3H178.5M178.5,117.3V123.8H200.1M135.1,179.3V251H156.8M156.8,251V136.8H178.5M156.8,251V365.2H178.5M178.5,365.2V210.7H200.1M200.1,210.7V149.8H221.8M200.1,210.7V271.7H221.8M221.8,271.7V193.5H243.5M243.5,193.5V172.5H265.2M265.2,172.5V162.7H286.9M265.2,172.5V182.2H286.9M286.9,182.2V175.7H308.5M286.9,182.2V188.7H308.5M243.5,193.5V214.6H265.2M265.2,214.6V201.7H286.9M265.2,214.6V227.5H286.9M286.9,227.5V214.7H308.5M286.9,227.5V240.4H308.5M308.5,240.4V227.6H330.2M308.5,240.4V253.2H330.2M330.2,253.2V240.6H351.9M330.2,253.2V265.8H351.9M351.9,265.8V253.6H373.6M351.9,265.8V277.9H373.6M373.6,277.9V266.6H395.3M373.6,277.9V289.3H395.3M395.3,289.3V279.5H417M395.3,289.3V299H417M417,299V305.5H438.6M221.8,271.7V349.9H243.5M243.5,349.9V328.2H265.2M265.2,328.2V318.5H286.9M265.2,328.2V337.9H286.9M286.9,337.9V331.5H308.5M286.9,337.9V344.4H308.5M330.2,419V435.1H351.9M351.9,435.1V422.3H373.6M351.9,435.1V447.9H373.6M373.6,447.9V435.3H395.3M373.6,447.9V460.4H395.3M395.3,460.4V448.3H417M395.3,460.4V472.6H417M417,472.6V484H438.6M438.6,484V474.2H460.3M438.6,484V493.7H460.3M460.3,493.7V487.2H482M460.3,493.7V500.2H482M178.5,365.2V519.6H200.1M200.1,519.6V513.2H221.8M200.1,519.6V526.1H221.8M26.7,286.3V539.1H48.4M5,429.8V573.2H26.7M26.7,573.2V558.6H48.4M48.4,558.6V552.1H70M48.4,558.6V565.1H70M26.7,573.2V587.8H48.4M48.4,587.8V578H70M48.4,587.8V597.5H70M70,597.5V591H91.7M70,597.5V604H91.7" stroke="#fc8d59"></path><path d="M178.5,117.3V110.8H200.1M417,299V292.5H438.6M243.5,349.9V371.6H265.2M265.2,371.6V357.4H286.9M265.2,371.6V385.8H286.9M286.9,385.8V370.4H308.5M286.9,385.8V401.2H308.5M308.5,401.2V383.4H330.2M308.5,401.2V419H330.2M330.2,419V402.8H351.9M351.9,402.8V396.3H373.6M351.9,402.8V409.3H373.6M417,472.6V461.2H438.6" stroke="#91bfdb"></path><text x="7" y="432.8" class="node" fill="#4A6FE3">1</text><text x="28.7" y="289.3" class="node" fill="#4A6FE3">1</text><text x="50.4" y="36.6" class="node" fill="#6D84E1">0.91</text><text x="72" y="63.2" class="node" fill="#6D84E1">0.91</text><text x="93.7" y="29.5" class="node" fill="#E6BAC2">0.37</text><text x="93.7" y="96.9" class="node" fill="#6D84E1">0.91</text><text x="115.4" y="58.7" class="node" fill="#DB617F">0.09</text><text x="137.1" y="68.4" class="node" fill="#E498A7">0.26</text><text x="115.4" y="135.1" class="node" fill="#E5CACE">0.42</text><text x="137.1" y="182.3" class="node" fill="#4A6FE3">1</text><text x="158.8" y="110.6" class="node" fill="#667FE1">0.93</text><text x="180.5" y="120.3" class="node" fill="#4A6FE3">1</text><text x="158.8" y="254" class="node" fill="#D2D4E3">0.56</text><text x="180.5" y="368.2" class="node" fill="#D2D4E3">0.56</text><text x="202.1" y="213.7" class="node" fill="#E6AEB8">0.33</text><text x="223.8" y="274.7" class="node" fill="#D2D4E3">0.56</text><text x="245.5" y="196.5" class="node" fill="#D2D4E3">0.56</text><text x="267.2" y="175.5" class="node" fill="#D2D4E3">0.56</text><text x="288.9" y="185.2" class="node" fill="#4A6FE3">1</text><text x="267.2" y="217.6" class="node" fill="#4A6FE3">1</text><text x="288.9" y="230.5" class="node" fill="#D2D4E3">0.57</text><text x="310.5" y="243.4" class="node" fill="#D2D4E3">0.56</text><text x="332.2" y="256.2" class="node" fill="#D2D4E3">0.56</text><text x="353.9" y="268.8" class="node" fill="#D2D4E3">0.56</text><text x="375.6" y="280.9" class="node" fill="#DB6581">0.1</text><text x="397.3" y="292.3" class="node" fill="#DDDEE3">0.52</text><text x="419" y="302" class="node" fill="#4A6FE3">1</text><text x="245.5" y="352.9" class="node" fill="#D2D4E3">0.56</text><text x="267.2" y="331.2" class="node" fill="#E38FA0">0.23</text><text x="288.9" y="340.9" class="node" fill="#E6B1BB">0.34</text><text x="267.2" y="374.6" class="node" fill="#4A6FE3">1</text><text x="288.9" y="388.8" class="node" fill="#E392A2">0.24</text><text x="310.5" y="404.2" class="node" fill="#DF798F">0.16</text><text x="332.2" y="422" class="node" fill="#8998E1">0.82</text><text x="353.9" y="405.8" class="node" fill="#4A6FE3">1</text><text x="353.9" y="438.1" class="node" fill="#929FE1">0.79</text><text x="375.6" y="450.9" class="node" fill="#929FE1">0.79</text><text x="397.3" y="463.4" class="node" fill="#768BE1">0.88</text><text x="419" y="475.6" class="node" fill="#768BE1">0.88</text><text x="440.6" y="487" class="node" fill="#4A6FE3">1</text><text x="462.3" y="496.7" class="node" fill="#6982E1">0.92</text><text x="202.1" y="522.6" class="node" fill="#4A6FE3">1</text><text x="28.7" y="576.2" class="node" fill="#4A6FE3">1</text><text x="50.4" y="561.6" class="node" fill="#4A6FE3">1</text><text x="50.4" y="590.8" class="node" fill="#4A6FE3">1</text><text x="72" y="600.5" class="node" fill="#8F9DE1">0.8</text></svg>
