<svg xmlns="http://www.w3.org/2000/svg" version="1.1" width="682" height="612" class="tree" data-char="4"><text x="678" y="14.3" text-anchor="end" class="stepsLabel">Character adds <tspan class="score">6</tspan> to tree score</text><text x="678" y="25.6" text-anchor="end" class="stepsLabel"><tspan class="score">0</tspan> additional regions</text><text x="678" y="36.9" text-anchor="end" class="stepsLabel">CI = 0.5; Fitch CI = 0.5; Fitch RI = 0</text><text x="678" y="59.5" text-anchor="end" class="stepsLabel"><tspan dy="16" fill="#34caaf">An optimal tree under:</tspan><tspan x="680" style="font-style:italic" class="thisAn" dy="1.2em">Equal weights</tspan><tspan x="680" style="font-style:italic" class="notThisAn" dy="1.2em">Implied weights, k = 2</tspan><tspan x="680" style="font-style:italic" class="notThisAn" dy="1.2em">IW, k = 3</tspan><tspan x="680" style="font-style:italic" class="notThisAn" dy="1.2em">IW, k = 4.5</tspan><tspan x="680" style="font-style:italic" class="notThisAn" dy="1.2em">IW, k = 7</tspan><tspan x="680" style="font-style:italic" class="notThisAn" dy="1.2em">IW, k = 10.5</tspan><tspan x="680" style="font-style:italic" class="notThisAn" dy="1.2em">IW, k = 16</tspan><tspan x="680" style="font-style:italic" class="notThisAn" dy="1.2em">IW, k = 24</tspan></text><text x="91.7" y="595.5" fill="grey" class="flag">[?]</text><text x="113.7" y="595.5" fill="#999" class="taxonLabel">Wiwaxia corrugata</text><text x="91.7" y="607" fill="lightgrey" class="flag">[-]</text><text x="113.7" y="607" fill="#ccc" class="taxonLabel">Dentalium</text><text x="70" y="584" fill="lightgrey" class="flag">[-]</text><text x="92" y="584" fill="#ccc" class="taxonLabel">Tonicella</text><text x="70" y="561.1" fill="lightgrey" class="flag">[-]</text><text x="92" y="561.1" fill="#ccc" class="taxonLabel">Serpula</text><text x="70" y="572.6" fill="lightgrey" class="flag">[-]</text><text x="92" y="572.6" fill="#ccc" class="taxonLabel">Sipunculus</text><text x="395.3" y="526.6" fill="#fdae61" class="flag">[1]</text><text x="417.3" y="526.6" fill="#000" class="taxonLabel">Coolinia pecten</text><text x="395.3" y="538.1" fill="#fdae61" class="flag">[1]</text><text x="417.3" y="538.1" fill="#000" class="taxonLabel">Antigonambonites planus</text><text x="482" y="503.7" fill="lightgrey" class="flag">[-]</text><text x="504" y="503.7" fill="#ccc" class="taxonLabel">Terebratulina</text><text x="482" y="515.2" fill="lightgrey" class="flag">[-]</text><text x="504" y="515.2" fill="#ccc" class="taxonLabel">Orthis</text><text x="460.3" y="492.2" fill="lightgrey" class="flag">[-]</text><text x="482.3" y="492.2" fill="#ccc" class="taxonLabel">Alisina</text><text x="438.6" y="480.7" fill="lightgrey" class="flag">[-]</text><text x="460.6" y="480.7" fill="#ccc" class="taxonLabel">Glyptoria</text><text x="417" y="469.2" fill="lightgrey" class="flag">[-]</text><text x="439" y="469.2" fill="#ccc" class="taxonLabel">Nisusia sulcata</text><text x="395.3" y="457.7" fill="lightgrey" class="flag">[-]</text><text x="417.3" y="457.7" fill="#ccc" class="taxonLabel">Kutorgina chengjiangensis</text><text x="395.3" y="434.8" fill="grey" class="flag">[?]</text><text x="417.3" y="434.8" fill="#999" class="taxonLabel">Yuganotheca elegans</text><text x="395.3" y="446.3" fill="lightgrey" class="flag">[-]</text><text x="417.3" y="446.3" fill="#ccc" class="taxonLabel">Tomteluva perturbata</text><text x="373.6" y="423.3" fill="#fdae61" class="flag">[1]</text><text x="395.6" y="423.3" fill="#000" class="taxonLabel">Salanygolina</text><text x="330.2" y="411.8" fill="grey" class="flag">[?]</text><text x="352.2" y="411.8" fill="#999" class="taxonLabel">Longtancunella chengjiangensis</text><text x="330.2" y="388.9" fill="#2c7bb6" class="flag">[4]</text><text x="352.2" y="388.9" fill="#000" class="taxonLabel">Micromitra</text><text x="330.2" y="400.3" fill="#abd9e9" class="flag">[3]</text><text x="352.2" y="400.3" fill="#000" class="taxonLabel">Askepasma toddense</text><text x="460.3" y="365.9" fill="#fdae61" class="flag">[1]</text><text x="482.3" y="365.9" fill="#000" class="taxonLabel">Siphonobolus priscus</text><text x="460.3" y="377.4" fill="grey" class="flag">[?]</text><text x="482.3" y="377.4" fill="#999" class="taxonLabel">Acanthotretella spinosa</text><text x="438.6" y="354.4" fill="#e2e2a2" class="flag">[2]</text><text x="460.6" y="354.4" fill="#000" class="taxonLabel">Clupeafumosus socialis</text><text x="438.6" y="331.5" fill="grey" class="flag">[?]</text><text x="460.6" y="331.5" fill="#999" class="taxonLabel">Lingulosacculus</text><text x="438.6" y="342.9" fill="#fdae61" class="flag">[1]</text><text x="460.6" y="342.9" fill="#000" class="taxonLabel">Lingulellotreta malongensis</text><text x="395.3" y="320" fill="#e2e2a2" class="flag">[2]</text><text x="417.3" y="320" fill="#000" class="taxonLabel">Botsfordia</text><text x="373.6" y="308.5" fill="grey" class="flag">[?]</text><text x="395.6" y="308.5" fill="#999" class="taxonLabel">Mummpikia nuda</text><text x="351.9" y="297" fill="#e2e2a2" class="flag">[2]</text><text x="373.9" y="297" fill="#000" class="taxonLabel">Eoobolus</text><text x="330.2" y="285.5" fill="#fdae61" class="flag">[1]</text><text x="352.2" y="285.5" fill="#000" class="taxonLabel">Lingula</text><text x="330.2" y="262.6" fill="grey" class="flag">[?]</text><text x="352.2" y="262.6" fill="#999" class="taxonLabel">Mickwitzia muralensis</text><text x="330.2" y="274.1" fill="#fdae61" class="flag">[1]</text><text x="352.2" y="274.1" fill="#000" class="taxonLabel">Pelagodiscus atlanticus</text><text x="417" y="239.6" fill="grey" class="flag">[?]</text><text x="439" y="239.6" fill="#999" class="taxonLabel">Probactrotheca</text><text x="417" y="251.1" fill="#fdae61" class="flag">[1]</text><text x="439" y="251.1" fill="#000" class="taxonLabel">Conotheca</text><text x="417" y="216.7" fill="grey" class="flag">[?]</text><text x="439" y="216.7" fill="#999" class="taxonLabel">Maxilites</text><text x="417" y="228.1" fill="#fdae61" class="flag">[1]</text><text x="439" y="228.1" fill="#000" class="taxonLabel">Pauxillites</text><text x="373.6" y="205.2" fill="grey" class="flag">[?]</text><text x="395.6" y="205.2" fill="#999" class="taxonLabel">Decoritheca</text><text x="351.9" y="193.7" fill="#fdae61" class="flag">[1]</text><text x="373.9" y="193.7" fill="#000" class="taxonLabel">Haplophrentis carinatus</text><text x="330.2" y="182.2" fill="#fdae61" class="flag">[1]</text><text x="352.2" y="182.2" fill="#000" class="taxonLabel">Pedunculotheca diania</text><text x="308.5" y="170.7" fill="#abd9e9" class="flag">[3]</text><text x="330.5" y="170.7" fill="#000" class="taxonLabel">Paterimitra</text><text x="286.9" y="159.2" fill="#fdae61" class="flag">[1]</text><text x="308.9" y="159.2" fill="#000" class="taxonLabel">Micrina</text><text x="243.5" y="147.8" fill="grey" class="flag">[?]</text><text x="265.5" y="147.8" fill="#999" class="taxonLabel">Heliomedusa orienta</text><text x="221.8" y="136.3" fill="grey" class="flag">[?]</text><text x="243.8" y="136.3" fill="#999" class="taxonLabel">Gasconsia</text><text x="243.5" y="113.3" fill="lightgrey" class="flag">[-]</text><text x="265.5" y="113.3" fill="#ccc" class="taxonLabel">Novocrania</text><text x="243.5" y="124.8" fill="#fdae61" class="flag">[1]</text><text x="265.5" y="124.8" fill="#000" class="taxonLabel">Craniops</text><text x="221.8" y="101.8" fill="grey" class="flag">[?]</text><text x="243.8" y="101.8" fill="#999" class="taxonLabel">Ussunia</text><text x="178.5" y="90.4" fill="grey" class="flag">[?]</text><text x="200.5" y="90.4" fill="#999" class="taxonLabel">Halkieria evangelista</text><text x="178.5" y="67.4" fill="grey" class="flag">[?]</text><text x="200.5" y="67.4" fill="#999" class="taxonLabel">Namacalathus</text><text x="178.5" y="78.9" fill="grey" class="flag">[?]</text><text x="200.5" y="78.9" fill="#999" class="taxonLabel">Cotyledion tylodes</text><text x="135.1" y="55.9" fill="lightgrey" class="flag">[-]</text><text x="157.1" y="55.9" fill="#ccc" class="taxonLabel">Dailyatia</text><text x="113.4" y="44.4" fill="grey" class="flag">[?]</text><text x="135.4" y="44.4" fill="#999" class="taxonLabel">Eccentrotheca</text><text x="91.7" y="33" fill="lightgrey" class="flag">[-]</text><text x="113.7" y="33" fill="#ccc" class="taxonLabel">Phoronis</text><text x="91.7" y="10" fill="lightgrey" class="flag">[-]</text><text x="113.7" y="10" fill="#ccc" class="taxonLabel">Flustra</text><text x="91.7" y="21.5" fill="lightgrey" class="flag">[-]</text><text x="113.7" y="21.5" fill="#ccc" class="taxonLabel">Amathia</text><text x="48.4" y="549.6" fill="lightgrey" class="flag">[-]</text><text x="70.4" y="549.6" fill="#ccc" class="taxonLabel">Loxosomella</text><path d="M5,432V287.3H26.7M26.7,287.3V28.1H48.4M48.4,28.1V12.7H70M70,12.7V7H91.7M70,12.7V18.5H91.7M48.4,28.1V43.4H70M70,43.4V30H91.7M70,43.4V56.8H91.7M91.7,56.8V41.4H113.4M91.7,56.8V72.1H113.4M113.4,72.1V52.9H135.1M221.8,116.1V110.3H243.5M351.9,428.9V437.5H373.6M373.6,437.5V431.8H395.3M373.6,437.5V443.3H395.3M351.9,497.6V465.9H373.6M373.6,465.9V454.7H395.3M373.6,465.9V477H395.3M395.3,477V466.2H417M395.3,477V487.8H417M417,487.8V477.7H438.6M417,487.8V497.8H438.6M438.6,497.8V489.2H460.3M438.6,497.8V506.4H460.3M460.3,506.4V500.7H482M460.3,506.4V512.2H482M26.7,287.3V546.6H48.4M5,432V576.7H26.7M26.7,576.7V563.8H48.4M48.4,563.8V558.1H70M48.4,563.8V569.6H70M26.7,576.7V589.6H48.4M48.4,589.6V581H70M48.4,589.6V598.3H70M70,598.3V592.5H91.7M70,598.3V604H91.7" stroke="lightgrey" class="inapplicable"></path><path d="M113.4,72.1V91.2H135.1M135.1,91.2V70.1H156.8M156.8,70.1V64.4H178.5M156.8,70.1V75.9H178.5M135.1,91.2V112.3H156.8M156.8,112.3V87.4H178.5M156.8,112.3V137.3H178.5M178.5,137.3V107.5H200.1M200.1,107.5V98.8H221.8M200.1,107.5V116.1H221.8M221.8,116.1V121.8H243.5M178.5,137.3V167.2H200.1M200.1,167.2V133.3H221.8M200.1,167.2V201.1H221.8M221.8,201.1V144.8H243.5M221.8,201.1V257.4H243.5M243.5,257.4V167.9H265.2M265.2,167.9V156.2H286.9M265.2,167.9V179.6H286.9M286.9,179.6V191.4H308.5M308.5,191.4V179.2H330.2M308.5,191.4V203.6H330.2M330.2,203.6V190.7H351.9M330.2,203.6V216.5H351.9M351.9,216.5V202.2H373.6M351.9,216.5V230.9H373.6M373.6,230.9V219.4H395.3M395.3,219.4V213.7H417M395.3,219.4V225.1H417M373.6,230.9V242.4H395.3M395.3,242.4V236.6H417M395.3,242.4V248.1H417M243.5,257.4V346.9H265.2M265.2,346.9V279.9H286.9M286.9,279.9V265.3H308.5M308.5,265.3V259.6H330.2M308.5,265.3V271.1H330.2M286.9,279.9V294.5H308.5M308.5,294.5V282.5H330.2M308.5,294.5V306.4H330.2M417,334.2V339.9H438.6M438.6,368.6V362.9H460.3M265.2,346.9V413.8H286.9M286.9,413.8V391.6H308.5M286.9,413.8V436H308.5M308.5,436V408.8H330.2M308.5,436V463.3H330.2M330.2,463.3V428.9H351.9M351.9,428.9V420.3H373.6M330.2,463.3V497.6H351.9M351.9,497.6V529.4H373.6M373.6,529.4V523.6H395.3M373.6,529.4V535.1H395.3" stroke="#fdae61"></path><path d="M286.9,179.6V167.7H308.5M308.5,391.6V397.3H330.2" stroke="#abd9e9"></path><path d="M330.2,306.4V294H351.9M373.6,332V317H395.3M417,360V351.4H438.6" stroke="#e2e2a2"></path><path d="M330.2,306.4V318.8H351.9M351.9,318.8V305.5H373.6M351.9,318.8V332H373.6M373.6,332V347.1H395.3M395.3,347.1V334.2H417M417,334.2V328.5H438.6M395.3,347.1V360H417M417,360V368.6H438.6M438.6,368.6V374.4H460.3" stroke="darkgrey"></path><path d="M308.5,391.6V385.9H330.2" stroke="#2c7bb6"></path><text x="7" y="435" class="node" fill="#4A6FE3">1</text><text x="28.7" y="290.3" class="node" fill="#4A6FE3">1</text><text x="50.4" y="31.1" class="node" fill="#4A6FE3">1</text><text x="72" y="15.7" class="node" fill="#4A6FE3">1</text><text x="72" y="46.4" class="node" fill="#4A6FE3">1</text><text x="93.7" y="59.8" class="node" fill="#4A6FE3">1</text><text x="115.4" y="75.1" class="node" fill="#E3DCDD">0.48</text><text x="137.1" y="94.2" class="node" fill="#7388E1">0.89</text><text x="158.8" y="73.1" class="node" fill="#7388E1">0.89</text><text x="158.8" y="115.3" class="node" fill="#4A6FE3">1</text><text x="180.5" y="140.3" class="node" fill="#4A6FE3">1</text><text x="202.1" y="110.5" class="node" fill="#4A6FE3">1</text><text x="223.8" y="119.1" class="node" fill="#4A6FE3">1</text><text x="202.1" y="170.2" class="node" fill="#4A6FE3">1</text><text x="223.8" y="204.1" class="node" fill="#4A6FE3">1</text><text x="245.5" y="260.4" class="node" fill="#4A6FE3">1</text><text x="267.2" y="170.9" class="node" fill="#4A6FE3">1</text><text x="288.9" y="182.6" class="node" fill="#4A6FE3">1</text><text x="310.5" y="194.4" class="node" fill="#4A6FE3">1</text><text x="332.2" y="206.6" class="node" fill="#4A6FE3">1</text><text x="353.9" y="219.5" class="node" fill="#E28699">0.2</text><text x="375.6" y="233.9" class="node" fill="#E0E0E2">0.51</text><text x="397.3" y="222.4" class="node" fill="#4A6FE3">1</text><text x="397.3" y="245.4" class="node" fill="#4A6FE3">1</text><text x="267.2" y="349.9" class="node" fill="#4A6FE3">1</text><text x="288.9" y="282.9" class="node" fill="#4A6FE3">1</text><text x="310.5" y="268.3" class="node" fill="#4A6FE3">1</text><text x="310.5" y="297.5" class="node" fill="#4A6FE3">1</text><text x="332.2" y="309.4" class="node" fill="#4A6FE3">1</text><text x="353.9" y="321.8" class="node" fill="#8091E1">0.85</text><text x="375.6" y="335" class="node" fill="#8091E1">0.85</text><text x="397.3" y="350.1" class="node" fill="#8091E1">0.85</text><text x="419" y="337.2" class="node" fill="#E38FA0">0.23</text><text x="419" y="363" class="node" fill="#D2D4E3">0.57</text><text x="440.6" y="371.6" class="node" fill="#4A6FE3">1</text><text x="288.9" y="416.8" class="node" fill="#6982E1">0.92</text><text x="310.5" y="394.6" class="node" fill="#4A6FE3">1</text><text x="310.5" y="439" class="node" fill="#4A6FE3">1</text><text x="332.2" y="466.3" class="node" fill="#DA5E7D">0.08</text><text x="353.9" y="431.9" class="node" fill="#E5D0D3">0.44</text><text x="375.6" y="440.5" class="node" fill="#5374E2">0.98</text><text x="353.9" y="500.6" class="node" fill="#8F9DE1">0.8</text><text x="375.6" y="468.9" class="node" fill="#8394E1">0.84</text><text x="397.3" y="480" class="node" fill="#C7CBE3">0.6</text><text x="419" y="490.8" class="node" fill="#6D84E1">0.91</text><text x="440.6" y="500.8" class="node" fill="#667FE1">0.93</text><text x="462.3" y="509.4" class="node" fill="#C4C9E3">0.61</text><text x="375.6" y="532.4" class="node" fill="#4A6FE3">1</text><text x="28.7" y="579.7" class="node" fill="#4A6FE3">1</text><text x="50.4" y="566.8" class="node" fill="#4A6FE3">1</text><text x="50.4" y="592.6" class="node" fill="#4A6FE3">1</text><text x="72" y="601.3" class="node" fill="#4A6FE3">1</text></svg>
