<svg xmlns="http://www.w3.org/2000/svg" version="1.1" width="682" height="612" class="tree" data-char="185"><text x="678" y="15.4" text-anchor="end" class="stepsLabel">Character adds <tspan class="score">1</tspan> to tree score</text><text x="678" y="27.8" text-anchor="end" class="stepsLabel"><tspan class="score">0</tspan> additional regions</text><text x="678" y="40.2" text-anchor="end" class="stepsLabel">CI = 1; Fitch CI = 1; Fitch RI = 1</text><text x="678" y="65" text-anchor="end" class="stepsLabel"><tspan dy="16" fill="#34caaf">An optimal tree under:</tspan><tspan x="680" style="font-style:italic" class="thisAn" dy="1.2em">Equal weights</tspan><tspan x="680" style="font-style:italic" class="notThisAn" dy="1.2em">Implied weights, k = 2</tspan><tspan x="680" style="font-style:italic" class="notThisAn" dy="1.2em">IW, k = 3</tspan><tspan x="680" style="font-style:italic" class="notThisAn" dy="1.2em">IW, k = 4.5</tspan><tspan x="680" style="font-style:italic" class="notThisAn" dy="1.2em">IW, k = 7</tspan><tspan x="680" style="font-style:italic" class="notThisAn" dy="1.2em">IW, k = 10.5</tspan><tspan x="680" style="font-style:italic" class="notThisAn" dy="1.2em">IW, k = 16</tspan><tspan x="680" style="font-style:italic" class="notThisAn" dy="1.2em">IW, k = 24</tspan></text><text x="80.3" y="594.3" fill="#91bfdb" class="flag">[2]</text><text x="102.3" y="594.3" fill="#000" class="taxonLabel">Sipunculus</text><text x="80.3" y="607" fill="#91bfdb" class="flag">[2]</text><text x="102.3" y="607" fill="#000" class="taxonLabel">Serpula</text><text x="105.4" y="568.9" fill="#91bfdb" class="flag">[2]</text><text x="127.4" y="568.9" fill="#000" class="taxonLabel">Dentalium</text><text x="105.4" y="581.6" fill="grey" class="flag">[?]</text><text x="127.4" y="581.6" fill="#999" class="taxonLabel">Wiwaxia corrugata</text><text x="80.3" y="556.2" fill="#91bfdb" class="flag">[2]</text><text x="102.3" y="556.2" fill="#000" class="taxonLabel">Tonicella</text><text x="105.4" y="530.8" fill="grey" class="flag">[?]</text><text x="127.4" y="530.8" fill="#999" class="taxonLabel">Dailyatia</text><text x="105.4" y="543.5" fill="#e2e2a2" class="flag">[1]</text><text x="127.4" y="543.5" fill="#000" class="taxonLabel">Loxosomella</text><text x="80.3" y="518.1" fill="grey" class="flag">[?]</text><text x="102.3" y="518.1" fill="#999" class="taxonLabel">Eccentrotheca</text><text x="155.6" y="492.7" fill="grey" class="flag">[?]</text><text x="177.6" y="492.7" fill="#999" class="taxonLabel">Namacalathus</text><text x="155.6" y="505.4" fill="#e2e2a2" class="flag">[1]</text><text x="177.6" y="505.4" fill="#000" class="taxonLabel">Phoronis</text><text x="130.5" y="480" fill="grey" class="flag">[?]</text><text x="152.5" y="480" fill="#999" class="taxonLabel">Cotyledion tylodes</text><text x="180.7" y="454.6" fill="grey" class="flag">[?]</text><text x="202.7" y="454.6" fill="#999" class="taxonLabel">Ussunia</text><text x="180.7" y="467.3" fill="grey" class="flag">[?]</text><text x="202.7" y="467.3" fill="#999" class="taxonLabel">Craniops</text><text x="306.3" y="429.2" fill="grey" class="flag">[?]</text><text x="328.3" y="429.2" fill="#999" class="taxonLabel">Tomteluva perturbata</text><text x="306.3" y="441.9" fill="grey" class="flag">[?]</text><text x="328.3" y="441.9" fill="#999" class="taxonLabel">Yuganotheca elegans</text><text x="356.5" y="403.8" fill="grey" class="flag">[?]</text><text x="378.5" y="403.8" fill="#999" class="taxonLabel">Coolinia pecten</text><text x="356.5" y="416.5" fill="grey" class="flag">[?]</text><text x="378.5" y="416.5" fill="#999" class="taxonLabel">Antigonambonites planus</text><text x="456.9" y="378.4" fill="#e2e2a2" class="flag">[1]</text><text x="478.9" y="378.4" fill="#000" class="taxonLabel">Terebratulina</text><text x="456.9" y="391.1" fill="grey" class="flag">[?]</text><text x="478.9" y="391.1" fill="#999" class="taxonLabel">Alisina</text><text x="431.8" y="365.7" fill="grey" class="flag">[?]</text><text x="453.8" y="365.7" fill="#999" class="taxonLabel">Orthis</text><text x="406.7" y="353" fill="grey" class="flag">[?]</text><text x="428.7" y="353" fill="#999" class="taxonLabel">Glyptoria</text><text x="381.6" y="340.3" fill="grey" class="flag">[?]</text><text x="403.6" y="340.3" fill="#999" class="taxonLabel">Nisusia sulcata</text><text x="356.5" y="327.6" fill="grey" class="flag">[?]</text><text x="378.5" y="327.6" fill="#999" class="taxonLabel">Kutorgina chengjiangensis</text><text x="306.3" y="314.9" fill="grey" class="flag">[?]</text><text x="328.3" y="314.9" fill="#999" class="taxonLabel">Longtancunella chengjiangensis</text><text x="256.1" y="302.1" fill="grey" class="flag">[?]</text><text x="278.1" y="302.1" fill="#999" class="taxonLabel">Salanygolina</text><text x="482" y="276.7" fill="grey" class="flag">[?]</text><text x="504" y="276.7" fill="#999" class="taxonLabel">Acanthotretella spinosa</text><text x="482" y="289.4" fill="grey" class="flag">[?]</text><text x="504" y="289.4" fill="#999" class="taxonLabel">Siphonobolus priscus</text><text x="456.9" y="264" fill="grey" class="flag">[?]</text><text x="478.9" y="264" fill="#999" class="taxonLabel">Clupeafumosus socialis</text><text x="456.9" y="238.6" fill="grey" class="flag">[?]</text><text x="478.9" y="238.6" fill="#999" class="taxonLabel">Lingulellotreta malongensis</text><text x="456.9" y="251.3" fill="grey" class="flag">[?]</text><text x="478.9" y="251.3" fill="#999" class="taxonLabel">Lingulosacculus</text><text x="406.7" y="225.9" fill="grey" class="flag">[?]</text><text x="428.7" y="225.9" fill="#999" class="taxonLabel">Botsfordia</text><text x="381.6" y="213.2" fill="grey" class="flag">[?]</text><text x="403.6" y="213.2" fill="#999" class="taxonLabel">Mummpikia nuda</text><text x="356.5" y="200.5" fill="grey" class="flag">[?]</text><text x="378.5" y="200.5" fill="#999" class="taxonLabel">Eoobolus</text><text x="331.4" y="187.8" fill="#e2e2a2" class="flag">[1]</text><text x="353.4" y="187.8" fill="#000" class="taxonLabel">Lingula</text><text x="356.5" y="162.4" fill="grey" class="flag">[?]</text><text x="378.5" y="162.4" fill="#999" class="taxonLabel">Mickwitzia muralensis</text><text x="356.5" y="175.1" fill="grey" class="flag">[?]</text><text x="378.5" y="175.1" fill="#999" class="taxonLabel">Pelagodiscus atlanticus</text><text x="331.4" y="149.7" fill="grey" class="flag">[?]</text><text x="353.4" y="149.7" fill="#999" class="taxonLabel">Micrina</text><text x="306.3" y="124.3" fill="#e2e2a2" class="flag">[1]</text><text x="328.3" y="124.3" fill="#000" class="taxonLabel">Novocrania</text><text x="306.3" y="137" fill="grey" class="flag">[?]</text><text x="328.3" y="137" fill="#999" class="taxonLabel">Heliomedusa orienta</text><text x="281.2" y="98.9" fill="grey" class="flag">[?]</text><text x="303.2" y="98.9" fill="#999" class="taxonLabel">Askepasma toddense</text><text x="281.2" y="111.6" fill="grey" class="flag">[?]</text><text x="303.2" y="111.6" fill="#999" class="taxonLabel">Micromitra</text><text x="256.1" y="73.5" fill="grey" class="flag">[?]</text><text x="278.1" y="73.5" fill="#999" class="taxonLabel">Haplophrentis carinatus</text><text x="256.1" y="86.2" fill="grey" class="flag">[?]</text><text x="278.1" y="86.2" fill="#999" class="taxonLabel">Pedunculotheca diania</text><text x="230.9" y="60.8" fill="grey" class="flag">[?]</text><text x="252.9" y="60.8" fill="#999" class="taxonLabel">Paterimitra</text><text x="180.7" y="48.1" fill="grey" class="flag">[?]</text><text x="202.7" y="48.1" fill="#999" class="taxonLabel">Gasconsia</text><text x="130.5" y="35.4" fill="grey" class="flag">[?]</text><text x="152.5" y="35.4" fill="#999" class="taxonLabel">Halkieria evangelista</text><text x="105.4" y="10" fill="#e2e2a2" class="flag">[1]</text><text x="127.4" y="10" fill="#000" class="taxonLabel">Flustra</text><text x="105.4" y="22.7" fill="#e2e2a2" class="flag">[1]</text><text x="127.4" y="22.7" fill="#000" class="taxonLabel">Amathia</text><path d="M5,463V345.9H30.1M30.1,345.9V167.1H55.2M55.2,167.1V13.4H80.3M80.3,13.4V7H105.4M80.3,13.4V19.7H105.4M55.2,167.1V320.9H80.3M80.3,320.9V155.2H105.4M105.4,155.2V32.4H130.5M105.4,155.2V278.1H130.5M130.5,278.1V98.2H155.6M155.6,98.2V45.1H180.7M155.6,98.2V151.3H180.7M180.7,151.3V67.3H205.8M205.8,67.3V57.8H230.9M205.8,67.3V76.9H230.9M230.9,76.9V70.5H256.1M230.9,76.9V83.2H256.1M180.7,151.3V235.3H205.8M205.8,235.3V127.3H230.9M230.9,127.3V102.3H256.1M256.1,102.3V95.9H281.2M256.1,102.3V108.6H281.2M230.9,127.3V152.4H256.1M256.1,152.4V127.7H281.2M281.2,127.7V121.3H306.3M281.2,127.7V134H306.3M256.1,152.4V177.1H281.2M281.2,177.1V156.2H306.3M306.3,156.2V146.7H331.4M306.3,156.2V165.8H331.4M331.4,165.8V159.4H356.5M331.4,165.8V172.1H356.5M281.2,177.1V198H306.3M306.3,198V184.8H331.4M306.3,198V211.2H331.4M331.4,211.2V197.5H356.5M331.4,211.2V224.9H356.5M356.5,224.9V210.2H381.6M356.5,224.9V239.6H381.6M381.6,239.6V222.9H406.7M381.6,239.6V256.3H406.7M406.7,256.3V242H431.8M431.8,242V235.6H456.9M431.8,242V248.3H456.9M406.7,256.3V270.6H431.8M431.8,270.6V261H456.9M431.8,270.6V280.1H456.9M456.9,280.1V273.7H482M456.9,280.1V286.4H482M205.8,235.3V343.2H230.9M230.9,343.2V299.1H256.1M230.9,343.2V387.2H256.1M256.1,387.2V341.9H281.2M281.2,341.9V311.9H306.3M281.2,341.9V372H306.3M306.3,372V336.9H331.4M331.4,336.9V324.6H356.5M331.4,336.9V349.2H356.5M356.5,349.2V337.3H381.6M356.5,349.2V361.1H381.6M381.6,361.1V350H406.7M381.6,361.1V372.2H406.7M406.7,372.2V362.7H431.8M406.7,372.2V381.7H431.8M431.8,381.7V375.4H456.9M431.8,381.7V388.1H456.9M306.3,372V407.1H331.4M331.4,407.1V400.8H356.5M331.4,407.1V413.5H356.5M256.1,387.2V432.5H281.2M281.2,432.5V426.2H306.3M281.2,432.5V438.9H306.3M130.5,278.1V457.9H155.6M155.6,457.9V451.6H180.7M155.6,457.9V464.3H180.7M80.3,320.9V486.5H105.4M105.4,486.5V477H130.5M105.4,486.5V496H130.5M130.5,496V489.7H155.6M130.5,496V502.4H155.6M30.1,345.9V524.6H55.2M55.2,524.6V515.1H80.3M55.2,524.6V534.1H80.3M80.3,534.1V527.8H105.4M80.3,534.1V540.5H105.4" stroke="#e2e2a2"></path><path d="M5,463V580.2H30.1M30.1,580.2V562.7H55.2M55.2,562.7V553.2H80.3M55.2,562.7V572.2H80.3M80.3,572.2V565.9H105.4M80.3,572.2V578.6H105.4M30.1,580.2V597.6H55.2M55.2,597.6V591.3H80.3M55.2,597.6V604H80.3" stroke="#91bfdb"></path><text x="7" y="466" class="node" fill="#4A6FE3">1</text><text x="32.1" y="348.9" class="node" fill="#4A6FE3">1</text><text x="57.2" y="170.1" class="node" fill="#E0E0E2">0.51</text><text x="82.3" y="16.4" class="node" fill="#4A6FE3">1</text><text x="82.3" y="323.9" class="node" fill="#E0E0E2">0.51</text><text x="107.4" y="158.2" class="node" fill="#B9BFE3">0.65</text><text x="132.5" y="281.1" class="node" fill="#4A6FE3">1</text><text x="157.6" y="101.2" class="node" fill="#E0E0E2">0.51</text><text x="182.7" y="154.3" class="node" fill="#E0E0E2">0.51</text><text x="207.8" y="70.3" class="node" fill="#E0E0E2">0.51</text><text x="232.9" y="79.9" class="node" fill="#4A6FE3">1</text><text x="207.8" y="238.3" class="node" fill="#E0E0E2">0.51</text><text x="232.9" y="130.3" class="node" fill="#E0E0E2">0.51</text><text x="258.1" y="105.3" class="node" fill="#4A6FE3">1</text><text x="258.1" y="155.4" class="node" fill="#E0E0E2">0.51</text><text x="283.2" y="130.7" class="node" fill="#E0E0E2">0.51</text><text x="283.2" y="180.1" class="node" fill="#E0E0E2">0.51</text><text x="308.3" y="159.2" class="node" fill="#E38FA0">0.23</text><text x="333.4" y="168.8" class="node" fill="#7D8FE1">0.86</text><text x="308.3" y="201" class="node" fill="#7D8FE1">0.86</text><text x="333.4" y="214.2" class="node" fill="#E0E0E2">0.51</text><text x="358.5" y="227.9" class="node" fill="#E0E0E2">0.51</text><text x="383.6" y="242.6" class="node" fill="#E0E0E2">0.51</text><text x="408.7" y="259.3" class="node" fill="#E0E0E2">0.51</text><text x="433.8" y="245" class="node" fill="#D95A7A">0.07</text><text x="433.8" y="273.6" class="node" fill="#E4D9DB">0.47</text><text x="458.9" y="283.1" class="node" fill="#4A6FE3">1</text><text x="232.9" y="346.2" class="node" fill="#7D8FE1">0.86</text><text x="258.1" y="390.2" class="node" fill="#E4D6D8">0.46</text><text x="283.2" y="344.9" class="node" fill="#A3ADE2">0.73</text><text x="308.3" y="375" class="node" fill="#E6B7C0">0.36</text><text x="333.4" y="339.9" class="node" fill="#E6B7C0">0.36</text><text x="358.5" y="352.2" class="node" fill="#E6B7C0">0.36</text><text x="383.6" y="364.1" class="node" fill="#E6B7C0">0.36</text><text x="408.7" y="375.2" class="node" fill="#4A6FE3">1</text><text x="433.8" y="384.7" class="node" fill="#E18297">0.19</text><text x="333.4" y="410.1" class="node" fill="#4A6FE3">1</text><text x="283.2" y="435.5" class="node" fill="#D5D7E3">0.55</text><text x="157.6" y="460.9" class="node" fill="#E0E0E2">0.51</text><text x="107.4" y="489.5" class="node" fill="#8C9BE1">0.81</text><text x="132.5" y="499" class="node" fill="#4A6FE3">1</text><text x="57.2" y="527.6" class="node" fill="#E0E0E2">0.51</text><text x="82.3" y="537.1" class="node" fill="#E0E0E2">0.51</text><text x="32.1" y="583.2" class="node" fill="#4A6FE3">1</text><text x="57.2" y="565.7" class="node" fill="#4A6FE3">1</text><text x="82.3" y="575.2" class="node" fill="#E0E0E2">0.51</text><text x="57.2" y="600.6" class="node" fill="#4A6FE3">1</text></svg>
