<svg xmlns="http://www.w3.org/2000/svg" version="1.1" width="682" height="612" class="tree" data-char="25"><text x="678" y="15.7" text-anchor="end" class="stepsLabel">Character adds <tspan class="score">4</tspan> to tree score</text><text x="678" y="28.4" text-anchor="end" class="stepsLabel"><tspan class="score">0</tspan> additional regions</text><text x="678" y="41.1" text-anchor="end" class="stepsLabel">CI = 0.25; Fitch CI = 0.25; Fitch RI = 0.4</text><text x="678" y="66.5" text-anchor="end" class="stepsLabel"><tspan dy="16">An optimal tree under:</tspan><tspan x="680" style="font-style:italic" class="thisAn" dy="1.2em">Equal weights</tspan><tspan x="680" style="font-style:italic" class="notThisAn" dy="1.2em">Implied weights, k = 2</tspan><tspan x="680" style="font-style:italic" class="notThisAn" dy="1.2em">IW, k = 3</tspan><tspan x="680" style="font-style:italic" class="notThisAn" dy="1.2em">IW, k = 4.5</tspan><tspan x="680" style="font-style:italic" class="notThisAn" dy="1.2em">IW, k = 7</tspan><tspan x="680" style="font-style:italic" class="notThisAn" dy="1.2em">IW, k = 10.5</tspan><tspan x="680" style="font-style:italic" class="notThisAn" dy="1.2em">IW, k = 16</tspan><tspan x="680" style="font-style:italic" class="notThisAn" dy="1.2em">IW, k = 24</tspan></text><text x="73.1" y="594" fill="lightgrey" class="flag">[-]</text><text x="95.1" y="594" fill="lightgrey" class="taxonLabel">Serpula</text><text x="73.1" y="607" fill="lightgrey" class="flag">[-]</text><text x="95.1" y="607" fill="lightgrey" class="taxonLabel">Sipunculus</text><text x="95.9" y="568.1" fill="lightgrey" class="flag">[-]</text><text x="117.9" y="568.1" fill="lightgrey" class="taxonLabel">Dentalium</text><text x="95.9" y="581" fill="lightgrey" class="flag">[-]</text><text x="117.9" y="581" fill="lightgrey" class="taxonLabel">Tonicella</text><text x="73.1" y="555.1" fill="lightgrey" class="flag">[-]</text><text x="95.1" y="555.1" fill="lightgrey" class="taxonLabel">Wiwaxia corrugata</text><text x="482" y="516.2" fill="#e2e2a2" class="flag">[1]</text><text x="504" y="516.2" fill="#000" class="taxonLabel">Acanthotretella spinosa</text><text x="482" y="529.1" fill="grey" class="flag">[?]</text><text x="504" y="529.1" fill="grey" class="taxonLabel">Siphonobolus priscus</text><text x="459.3" y="503.2" fill="grey" class="flag">[?]</text><text x="481.3" y="503.2" fill="grey" class="taxonLabel">Lingulosacculus</text><text x="436.6" y="490.2" fill="grey" class="flag">[?]</text><text x="458.6" y="490.2" fill="grey" class="taxonLabel">Clupeafumosus socialis</text><text x="413.9" y="477.2" fill="#e2e2a2" class="flag">[1]</text><text x="435.9" y="477.2" fill="#000" class="taxonLabel">Lingulellotreta malongensis</text><text x="391.1" y="464.2" fill="grey" class="flag">[?]</text><text x="413.1" y="464.2" fill="grey" class="taxonLabel">Botsfordia</text><text x="368.4" y="451.3" fill="grey" class="flag">[?]</text><text x="390.4" y="451.3" fill="grey" class="taxonLabel">Mummpikia nuda</text><text x="345.7" y="438.3" fill="grey" class="flag">[?]</text><text x="367.7" y="438.3" fill="grey" class="taxonLabel">Eoobolus</text><text x="323" y="425.3" fill="#91bfdb" class="flag">[2]</text><text x="345" y="425.3" fill="#000" class="taxonLabel">Lingula</text><text x="345.7" y="399.3" fill="grey" class="flag">[?]</text><text x="367.7" y="399.3" fill="grey" class="taxonLabel">Mickwitzia muralensis</text><text x="345.7" y="412.3" fill="#e2e2a2" class="flag">[1]</text><text x="367.7" y="412.3" fill="#000" class="taxonLabel">Pelagodiscus atlanticus</text><text x="323" y="386.4" fill="grey" class="flag">[?]</text><text x="345" y="386.4" fill="grey" class="taxonLabel">Micrina</text><text x="482" y="360.4" fill="grey" class="flag">[?]</text><text x="504" y="360.4" fill="grey" class="taxonLabel">Orthis</text><text x="482" y="373.4" fill="#e2e2a2" class="flag">[1]</text><text x="504" y="373.4" fill="#000" class="taxonLabel">Terebratulina</text><text x="459.3" y="347.4" fill="#91bfdb" class="flag">[2]</text><text x="481.3" y="347.4" fill="#000" class="taxonLabel">Alisina</text><text x="436.6" y="334.5" fill="#91bfdb" class="flag">[2]</text><text x="458.6" y="334.5" fill="#000" class="taxonLabel">Longtancunella chengjiangensis</text><text x="413.9" y="321.5" fill="grey" class="flag">[?]</text><text x="435.9" y="321.5" fill="grey" class="taxonLabel">Glyptoria</text><text x="391.1" y="308.5" fill="#91bfdb" class="flag">[2]</text><text x="413.1" y="308.5" fill="#000" class="taxonLabel">Nisusia sulcata</text><text x="368.4" y="295.5" fill="#e2e2a2" class="flag">[1]</text><text x="390.4" y="295.5" fill="#000" class="taxonLabel">Kutorgina chengjiangensis</text><text x="413.9" y="269.6" fill="#91bfdb" class="flag">[2]</text><text x="435.9" y="269.6" fill="#000" class="taxonLabel">Yuganotheca elegans</text><text x="413.9" y="282.5" fill="grey" class="flag">[?]</text><text x="435.9" y="282.5" fill="grey" class="taxonLabel">Tomteluva perturbata</text><text x="391.1" y="256.6" fill="grey" class="flag">[?]</text><text x="413.1" y="256.6" fill="grey" class="taxonLabel">Salanygolina</text><text x="391.1" y="230.6" fill="grey" class="flag">[?]</text><text x="413.1" y="230.6" fill="grey" class="taxonLabel">Coolinia pecten</text><text x="391.1" y="243.6" fill="#91bfdb" class="flag">[2]</text><text x="413.1" y="243.6" fill="#000" class="taxonLabel">Antigonambonites planus</text><text x="345.7" y="204.7" fill="grey" class="flag">[?]</text><text x="367.7" y="204.7" fill="grey" class="taxonLabel">Askepasma toddense</text><text x="345.7" y="217.7" fill="grey" class="flag">[?]</text><text x="367.7" y="217.7" fill="grey" class="taxonLabel">Micromitra</text><text x="300.3" y="191.7" fill="lightgrey" class="flag">[-]</text><text x="322.3" y="191.7" fill="lightgrey" class="taxonLabel">Gasconsia</text><text x="300.3" y="165.7" fill="lightgrey" class="flag">[-]</text><text x="322.3" y="165.7" fill="lightgrey" class="taxonLabel">Haplophrentis carinatus</text><text x="300.3" y="178.7" fill="#e2e2a2" class="flag">[1]</text><text x="322.3" y="178.7" fill="#000" class="taxonLabel">Pedunculotheca diania</text><text x="277.6" y="152.8" fill="grey" class="flag">[?]</text><text x="299.6" y="152.8" fill="grey" class="taxonLabel">Paterimitra</text><text x="232.1" y="139.8" fill="lightgrey" class="flag">[-]</text><text x="254.1" y="139.8" fill="lightgrey" class="taxonLabel">Heliomedusa orienta</text><text x="254.9" y="113.8" fill="lightgrey" class="flag">[-]</text><text x="276.9" y="113.8" fill="lightgrey" class="taxonLabel">Novocrania</text><text x="254.9" y="126.8" fill="lightgrey" class="flag">[-]</text><text x="276.9" y="126.8" fill="lightgrey" class="taxonLabel">Craniops</text><text x="232.1" y="100.8" fill="lightgrey" class="flag">[-]</text><text x="254.1" y="100.8" fill="lightgrey" class="taxonLabel">Ussunia</text><text x="186.7" y="87.9" fill="lightgrey" class="flag">[-]</text><text x="208.7" y="87.9" fill="lightgrey" class="taxonLabel">Halkieria evangelista</text><text x="164" y="74.9" fill="grey" class="flag">[?]</text><text x="186" y="74.9" fill="grey" class="taxonLabel">Dailyatia</text><text x="141.3" y="61.9" fill="lightgrey" class="flag">[-]</text><text x="163.3" y="61.9" fill="lightgrey" class="taxonLabel">Cotyledion tylodes</text><text x="118.6" y="48.9" fill="grey" class="flag">[?]</text><text x="140.6" y="48.9" fill="grey" class="taxonLabel">Eccentrotheca</text><text x="118.6" y="23" fill="lightgrey" class="flag">[-]</text><text x="140.6" y="23" fill="lightgrey" class="taxonLabel">Phoronis</text><text x="118.6" y="36" fill="lightgrey" class="flag">[-]</text><text x="140.6" y="36" fill="lightgrey" class="taxonLabel">Namacalathus</text><text x="73.1" y="10" fill="lightgrey" class="flag">[-]</text><text x="95.1" y="10" fill="lightgrey" class="taxonLabel">Flustra</text><text x="50.4" y="542.1" fill="lightgrey" class="flag">[-]</text><text x="72.4" y="542.1" fill="lightgrey" class="taxonLabel">Loxosomella</text><path d="M5,431V282.3H27.7M27.7,282.3V25.4H50.4M50.4,25.4V7H73.1M50.4,25.4V43.8H73.1M73.1,43.8V26.5H95.9M95.9,26.5V20H118.6M95.9,26.5V33H118.6M73.1,43.8V61.2H95.9M95.9,61.2V45.9H118.6M95.9,61.2V76.4H118.6M118.6,76.4V58.9H141.3M118.6,76.4V94H141.3M141.3,94V71.9H164M141.3,94V116.1H164M164,116.1V84.9H186.7M164,116.1V147.3H186.7M186.7,147.3V107.6H209.4M209.4,107.6V97.8H232.1M209.4,107.6V117.3H232.1M232.1,117.3V110.8H254.9M232.1,117.3V123.8H254.9M186.7,147.3V187H209.4M209.4,187V136.8H232.1M277.6,169.2V162.7H300.3M277.6,215.6V188.7H300.3M27.7,282.3V539.1H50.4M5,431V579.7H27.7M27.7,579.7V561.8H50.4M50.4,561.8V552.1H73.1M50.4,561.8V571.6H73.1M73.1,571.6V565.1H95.9M73.1,571.6V578H95.9M27.7,579.7V597.5H50.4M50.4,597.5V591H73.1M50.4,597.5V604H73.1" stroke="lightgrey" class="inapplicable"></path><path d="M209.4,187V237.2H232.1M232.1,237.2V159.5H254.9M254.9,159.5V149.8H277.6M254.9,159.5V169.2H277.6M277.6,169.2V175.7H300.3M232.1,237.2V314.9H254.9M254.9,314.9V215.6H277.6M345.7,305.3V292.5H368.4M459.3,363.9V370.4H482M254.9,314.9V414.2H277.6M277.6,414.2V393.1H300.3M300.3,393.1V383.4H323M300.3,393.1V402.8H323M323,402.8V396.3H345.7M323,402.8V409.3H345.7M277.6,414.2V435.2H300.3M300.3,435.2V448.2H323M323,448.2V435.3H345.7M323,448.2V461H345.7M345.7,461V448.3H368.4M345.7,461V473.8H368.4M368.4,473.8V461.2H391.1M368.4,473.8V486.4H391.1M391.1,486.4V474.2H413.9M391.1,486.4V498.6H413.9M413.9,498.6V487.2H436.6M413.9,498.6V509.9H436.6M436.6,509.9V500.2H459.3M436.6,509.9V519.6H459.3M459.3,519.6V513.2H482M459.3,519.6V526.1H482" stroke="#e2e2a2"></path><path d="M277.6,215.6V242.6H300.3M300.3,242.6V208.2H323M323,208.2V201.7H345.7M323,208.2V214.7H345.7M300.3,242.6V277H323M323,277V305.3H345.7M459.3,363.9V357.4H482" stroke="darkgrey"></path><path d="M323,277V248.7H345.7M345.7,248.7V234.1H368.4M368.4,234.1V227.6H391.1M368.4,234.1V240.6H391.1M345.7,248.7V263.3H368.4M368.4,263.3V253.6H391.1M368.4,263.3V273.1H391.1M391.1,273.1V266.6H413.9M391.1,273.1V279.5H413.9M345.7,305.3V318.1H368.4M368.4,318.1V305.5H391.1M368.4,318.1V330.6H391.1M391.1,330.6V318.5H413.9M391.1,330.6V342.8H413.9M413.9,342.8V331.5H436.6M413.9,342.8V354.2H436.6M436.6,354.2V344.4H459.3M436.6,354.2V363.9H459.3M300.3,435.2V422.3H323" stroke="#91bfdb"></path><text x="7" y="434" class="node" fill="#4A6FE3">1</text><text x="29.7" y="285.3" class="node" fill="#4A6FE3">1</text><text x="52.4" y="28.4" class="node" fill="#6D84E1">0.91</text><text x="75.1" y="46.8" class="node" fill="#5B78E2">0.96</text><text x="97.9" y="29.5" class="node" fill="#7086E1">0.9</text><text x="97.9" y="64.2" class="node" fill="#6D84E1">0.91</text><text x="120.6" y="79.4" class="node" fill="#E5D0D3">0.44</text><text x="143.3" y="97" class="node" fill="#8C9BE1">0.81</text><text x="166" y="119.1" class="node" fill="#E59FAC">0.29</text><text x="188.7" y="150.3" class="node" fill="#4A6FE3">1</text><text x="211.4" y="110.6" class="node" fill="#9AA6E2">0.76</text><text x="234.1" y="120.3" class="node" fill="#4A6FE3">1</text><text x="211.4" y="190" class="node" fill="#97A4E2">0.77</text><text x="234.1" y="240.2" class="node" fill="#97A4E2">0.77</text><text x="256.9" y="162.5" class="node" fill="#E6B1BB">0.34</text><text x="279.6" y="172.2" class="node" fill="#4A6FE3">1</text><text x="256.9" y="317.9" class="node" fill="#97A4E2">0.77</text><text x="279.6" y="218.6" class="node" fill="#97A4E2">0.77</text><text x="302.3" y="245.6" class="node" fill="#E49CAA">0.27</text><text x="325" y="211.2" class="node" fill="#E5D0D3">0.44</text><text x="325" y="280" class="node" fill="#4A6FE3">1</text><text x="347.7" y="251.7" class="node" fill="#D95A7A">0.07</text><text x="370.4" y="237.1" class="node" fill="#4A6FE3">1</text><text x="370.4" y="266.3" class="node" fill="#8C9BE1">0.81</text><text x="393.1" y="276.1" class="node" fill="#5B78E2">0.96</text><text x="347.7" y="308.3" class="node" fill="#E6B1BB">0.34</text><text x="370.4" y="321.1" class="node" fill="#E6B1BB">0.34</text><text x="393.1" y="333.6" class="node" fill="#E6BAC2">0.37</text><text x="415.9" y="345.8" class="node" fill="#E6BAC2">0.37</text><text x="438.6" y="357.2" class="node" fill="#4A6FE3">1</text><text x="461.3" y="366.9" class="node" fill="#AEB6E2">0.69</text><text x="279.6" y="417.2" class="node" fill="#95A1E2">0.78</text><text x="302.3" y="396.1" class="node" fill="#95A1E2">0.78</text><text x="325" y="405.8" class="node" fill="#4A6FE3">1</text><text x="302.3" y="438.2" class="node" fill="#4A6FE3">1</text><text x="325" y="451.2" class="node" fill="#6D84E1">0.91</text><text x="347.7" y="464" class="node" fill="#95A1E2">0.78</text><text x="370.4" y="476.8" class="node" fill="#95A1E2">0.78</text><text x="393.1" y="489.4" class="node" fill="#95A1E2">0.78</text><text x="415.9" y="501.6" class="node" fill="#9DA8E2">0.75</text><text x="438.6" y="512.9" class="node" fill="#E495A5">0.25</text><text x="461.3" y="522.6" class="node" fill="#4A6FE3">1</text><text x="29.7" y="582.7" class="node" fill="#4A6FE3">1</text><text x="52.4" y="564.8" class="node" fill="#4A6FE3">1</text><text x="75.1" y="574.6" class="node" fill="#4A6FE3">1</text><text x="52.4" y="600.5" class="node" fill="#4A6FE3">1</text></svg>
