<svg xmlns="http://www.w3.org/2000/svg" version="1.1" width="682" height="612" class="tree" data-char="118"><text x="678" y="15.4" text-anchor="end" class="stepsLabel">Character adds <tspan class="score">8</tspan> to tree score</text><text x="678" y="27.8" text-anchor="end" class="stepsLabel"><tspan class="score">0</tspan> additional regions</text><text x="678" y="40.2" text-anchor="end" class="stepsLabel">CI = 0.12; Fitch CI = 0.12; Fitch RI = 0.59</text><text x="678" y="65" text-anchor="end" class="stepsLabel"><tspan dy="16">An optimal tree under:</tspan><tspan x="680" style="font-style:italic" class="notThisAn" dy="1.2em">Equal weights</tspan><tspan x="680" style="font-style:italic" class="notThisAn" dy="1.2em">Implied weights, k = 2</tspan><tspan x="680" style="font-style:italic" class="notThisAn" dy="1.2em">IW, k = 3</tspan><tspan x="680" style="font-style:italic" class="notThisAn" dy="1.2em">IW, k = 4.5</tspan><tspan x="680" style="font-style:italic" class="notThisAn" dy="1.2em">IW, k = 7</tspan><tspan x="680" style="font-style:italic" class="thisAn" dy="1.2em">IW, k = 10.5</tspan><tspan x="680" style="font-style:italic" class="notThisAn" dy="1.2em">IW, k = 16</tspan><tspan x="680" style="font-style:italic" class="notThisAn" dy="1.2em">IW, k = 24</tspan></text><text x="105.4" y="594.3" fill="#fc8d59" class="flag">[0]</text><text x="127.4" y="594.3" fill="#000" class="taxonLabel">Dentalium</text><text x="105.4" y="607" fill="#fc8d59" class="flag">[0]</text><text x="127.4" y="607" fill="#000" class="taxonLabel">Tonicella</text><text x="80.3" y="581.6" fill="#fc8d59" class="flag">[0]</text><text x="102.3" y="581.6" fill="#000" class="taxonLabel">Wiwaxia corrugata</text><text x="80.3" y="556.2" fill="#fc8d59" class="flag">[0]</text><text x="102.3" y="556.2" fill="#000" class="taxonLabel">Serpula</text><text x="80.3" y="568.9" fill="#fc8d59" class="flag">[0]</text><text x="102.3" y="568.9" fill="#000" class="taxonLabel">Sipunculus</text><text x="230.9" y="518.1" fill="#91bfdb" class="flag">[1]</text><text x="252.9" y="518.1" fill="#000" class="taxonLabel">Pedunculotheca diania</text><text x="230.9" y="530.8" fill="#91bfdb" class="flag">[1]</text><text x="252.9" y="530.8" fill="#000" class="taxonLabel">Haplophrentis carinatus</text><text x="381.6" y="492.7" fill="#91bfdb" class="flag">[1]</text><text x="403.6" y="492.7" fill="#000" class="taxonLabel">Novocrania</text><text x="381.6" y="505.4" fill="#91bfdb" class="flag">[1]</text><text x="403.6" y="505.4" fill="#000" class="taxonLabel">Craniops</text><text x="356.5" y="480" fill="#fc8d59" class="flag">[0]</text><text x="378.5" y="480" fill="#000" class="taxonLabel">Ussunia</text><text x="331.4" y="467.3" fill="#91bfdb" class="flag">[1]</text><text x="353.4" y="467.3" fill="#000" class="taxonLabel">Heliomedusa orienta</text><text x="306.3" y="454.6" fill="#91bfdb" class="flag">[1]</text><text x="328.3" y="454.6" fill="#000" class="taxonLabel">Gasconsia</text><text x="356.5" y="429.2" fill="#fc8d59" class="flag">[0]</text><text x="378.5" y="429.2" fill="#000" class="taxonLabel">Mummpikia nuda</text><text x="356.5" y="441.9" fill="#fc8d59" class="flag">[0]</text><text x="378.5" y="441.9" fill="#000" class="taxonLabel">Botsfordia</text><text x="331.4" y="416.5" fill="#fc8d59" class="flag">[0]</text><text x="353.4" y="416.5" fill="#000" class="taxonLabel">Eoobolus</text><text x="431.8" y="391.1" fill="#fc8d59" class="flag">[0]</text><text x="453.8" y="391.1" fill="#000" class="taxonLabel">Acanthotretella spinosa</text><text x="431.8" y="403.8" fill="grey" class="flag">[?]</text><text x="453.8" y="403.8" fill="#999" class="taxonLabel">Siphonobolus priscus</text><text x="406.7" y="378.4" fill="#fc8d59" class="flag">[0]</text><text x="428.7" y="378.4" fill="#000" class="taxonLabel">Lingulosacculus</text><text x="381.6" y="365.7" fill="#fc8d59" class="flag">[0]</text><text x="403.6" y="365.7" fill="#000" class="taxonLabel">Clupeafumosus socialis</text><text x="381.6" y="340.3" fill="#fc8d59" class="flag">[0]</text><text x="403.6" y="340.3" fill="#000" class="taxonLabel">Lingulellotreta malongensis</text><text x="381.6" y="353" fill="#fc8d59" class="flag">[0]</text><text x="403.6" y="353" fill="#000" class="taxonLabel">Lingula</text><text x="331.4" y="327.6" fill="#fc8d59" class="flag">[0]</text><text x="353.4" y="327.6" fill="#000" class="taxonLabel">Pelagodiscus atlanticus</text><text x="306.3" y="302.1" fill="#91bfdb" class="flag">[1]</text><text x="328.3" y="302.1" fill="#000" class="taxonLabel">Askepasma toddense</text><text x="306.3" y="314.9" fill="#91bfdb" class="flag">[1]</text><text x="328.3" y="314.9" fill="#000" class="taxonLabel">Micromitra</text><text x="356.5" y="276.7" fill="#91bfdb" class="flag">[1]</text><text x="378.5" y="276.7" fill="#000" class="taxonLabel">Antigonambonites planus</text><text x="356.5" y="289.4" fill="#fc8d59" class="flag">[0]</text><text x="378.5" y="289.4" fill="#000" class="taxonLabel">Coolinia pecten</text><text x="482" y="251.3" fill="#fc8d59" class="flag">[0]</text><text x="504" y="251.3" fill="#000" class="taxonLabel">Terebratulina</text><text x="482" y="264" fill="#fc8d59" class="flag">[0]</text><text x="504" y="264" fill="#000" class="taxonLabel">Orthis</text><text x="456.9" y="238.6" fill="#91bfdb" class="flag">[1]</text><text x="478.9" y="238.6" fill="#000" class="taxonLabel">Alisina</text><text x="431.8" y="225.9" fill="#fc8d59" class="flag">[0]</text><text x="453.8" y="225.9" fill="#000" class="taxonLabel">Longtancunella chengjiangensis</text><text x="406.7" y="213.2" fill="#fc8d59" class="flag">[0]</text><text x="428.7" y="213.2" fill="#000" class="taxonLabel">Glyptoria</text><text x="381.6" y="200.5" fill="#fc8d59" class="flag">[0]</text><text x="403.6" y="200.5" fill="#000" class="taxonLabel">Nisusia sulcata</text><text x="356.5" y="187.8" fill="#fc8d59" class="flag">[0]</text><text x="378.5" y="187.8" fill="#000" class="taxonLabel">Kutorgina chengjiangensis</text><text x="356.5" y="162.4" fill="#fc8d59" class="flag">[0]</text><text x="378.5" y="162.4" fill="#000" class="taxonLabel">Yuganotheca elegans</text><text x="356.5" y="175.1" fill="#fc8d59" class="flag">[0]</text><text x="378.5" y="175.1" fill="#000" class="taxonLabel">Tomteluva perturbata</text><text x="331.4" y="149.7" fill="#91bfdb" class="flag">[1]</text><text x="353.4" y="149.7" fill="#000" class="taxonLabel">Salanygolina</text><text x="256.1" y="124.3" fill="#91bfdb" class="flag">[1]</text><text x="278.1" y="124.3" fill="#000" class="taxonLabel">Mickwitzia muralensis</text><text x="256.1" y="137" fill="#91bfdb" class="flag">[1]</text><text x="278.1" y="137" fill="#000" class="taxonLabel">Micrina</text><text x="180.7" y="111.6" fill="#91bfdb" class="flag">[1]</text><text x="202.7" y="111.6" fill="#000" class="taxonLabel">Paterimitra</text><text x="155.6" y="98.9" fill="#91bfdb" class="flag">[1]</text><text x="177.6" y="98.9" fill="#000" class="taxonLabel">Halkieria evangelista</text><text x="130.5" y="86.2" fill="#91bfdb" class="flag">[1]</text><text x="152.5" y="86.2" fill="#000" class="taxonLabel">Dailyatia</text><text x="180.7" y="60.8" fill="#fc8d59" class="flag">[0]</text><text x="202.7" y="60.8" fill="#000" class="taxonLabel">Namacalathus</text><text x="180.7" y="73.5" fill="#fc8d59" class="flag">[0]</text><text x="202.7" y="73.5" fill="#000" class="taxonLabel">Phoronis</text><text x="155.6" y="48.1" fill="#91bfdb" class="flag">[1]</text><text x="177.6" y="48.1" fill="#000" class="taxonLabel">Cotyledion tylodes</text><text x="130.5" y="35.4" fill="#91bfdb" class="flag">[1]</text><text x="152.5" y="35.4" fill="#000" class="taxonLabel">Eccentrotheca</text><text x="105.4" y="10" fill="#fc8d59" class="flag">[0]</text><text x="127.4" y="10" fill="#000" class="taxonLabel">Flustra</text><text x="105.4" y="22.7" fill="#fc8d59" class="flag">[0]</text><text x="127.4" y="22.7" fill="#000" class="taxonLabel">Amathia</text><text x="55.2" y="543.5" fill="#fc8d59" class="flag">[0]</text><text x="77.2" y="543.5" fill="#000" class="taxonLabel">Loxosomella</text><path d="M5,434.3V294.8H30.1M30.1,294.8V49.1H55.2M55.2,49.1V13.4H80.3M80.3,13.4V7H105.4M80.3,13.4V19.7H105.4M130.5,54.6V64.2H155.6M155.6,64.2V57.8H180.7M155.6,64.2V70.5H180.7M306.3,156.2V165.8H331.4M331.4,165.8V159.4H356.5M331.4,165.8V172.1H356.5M306.3,238.7V197.3H331.4M331.4,197.3V184.8H356.5M331.4,197.3V209.8H356.5M356.5,209.8V197.5H381.6M356.5,209.8V222.1H381.6M381.6,222.1V210.2H406.7M381.6,222.1V234.1H406.7M406.7,234.1V222.9H431.8M406.7,234.1V245.2H431.8M431.8,245.2V254.7H456.9M456.9,254.7V248.3H482M456.9,254.7V261H482M331.4,280.1V286.4H356.5M256.1,422.9V382.3H281.2M281.2,382.3V341.6H306.3M306.3,341.6V324.6H331.4M306.3,341.6V358.7H331.4M331.4,358.7V343.6H356.5M356.5,343.6V337.3H381.6M356.5,343.6V350H381.6M331.4,358.7V373.8H356.5M356.5,373.8V362.7H381.6M356.5,373.8V384.9H381.6M381.6,384.9V375.4H406.7M381.6,384.9V394.4H406.7M406.7,394.4V388.1H431.8M406.7,394.4V400.8H431.8M281.2,382.3V423H306.3M306.3,423V413.5H331.4M306.3,423V432.5H331.4M331.4,432.5V426.2H356.5M331.4,432.5V438.9H356.5M331.4,486.5V477H356.5M30.1,294.8V540.5H55.2M5,434.3V573.8H30.1M30.1,573.8V559.5H55.2M55.2,559.5V553.2H80.3M55.2,559.5V565.9H80.3M30.1,573.8V588.1H55.2M55.2,588.1V578.6H80.3M55.2,588.1V597.6H80.3M80.3,597.6V591.3H105.4M80.3,597.6V604H105.4" stroke="#fc8d59"></path><path d="M55.2,49.1V84.9H80.3M80.3,84.9V43.5H105.4M105.4,43.5V32.4H130.5M105.4,43.5V54.6H130.5M130.5,54.6V45.1H155.6M80.3,84.9V126.3H105.4M105.4,126.3V83.2H130.5M105.4,126.3V169.3H130.5M130.5,169.3V95.9H155.6M130.5,169.3V242.8H155.6M155.6,242.8V108.6H180.7M155.6,242.8V376.9H180.7M180.7,376.9V232.4H205.8M205.8,232.4V127.7H230.9M230.9,127.7V121.3H256.1M230.9,127.7V134H256.1M205.8,232.4V337.2H230.9M230.9,337.2V251.5H256.1M256.1,251.5V197.5H281.2M306.3,156.2V146.7H331.4M431.8,245.2V235.6H456.9M331.4,280.1V273.7H356.5M256.1,251.5V305.5H281.2M281.2,305.5V299.1H306.3M281.2,305.5V311.9H306.3M230.9,337.2V422.9H256.1M256.1,422.9V463.5H281.2M281.2,463.5V451.6H306.3M281.2,463.5V475.4H306.3M306.3,475.4V464.3H331.4M306.3,475.4V486.5H331.4M331.4,486.5V496H356.5M356.5,496V489.7H381.6M356.5,496V502.4H381.6M180.7,376.9V521.4H205.8M205.8,521.4V515.1H230.9M205.8,521.4V527.8H230.9" stroke="#91bfdb"></path><path d="M281.2,197.5V156.2H306.3M281.2,197.5V238.7H306.3M306.3,238.7V280.1H331.4" stroke="darkgrey"></path><text x="7" y="437.3" class="node" fill="#4A6FE3">1</text><text x="32.1" y="297.8" class="node" fill="#4A6FE3">1</text><text x="57.2" y="52.1" class="node" fill="#E0E0E2">0.51</text><text x="82.3" y="16.4" class="node" fill="#4A6FE3">1</text><text x="82.3" y="87.9" class="node" fill="#E0E0E2">0.51</text><text x="107.4" y="46.5" class="node" fill="#E5A5B1">0.3</text><text x="132.5" y="57.6" class="node" fill="#E59FAC">0.29</text><text x="157.6" y="67.2" class="node" fill="#4A6FE3">1</text><text x="107.4" y="129.3" class="node" fill="#A8B1E2">0.71</text><text x="132.5" y="172.3" class="node" fill="#D2D4E3">0.57</text><text x="157.6" y="245.8" class="node" fill="#4F72E2">0.99</text><text x="182.7" y="379.9" class="node" fill="#BFC4E3">0.63</text><text x="207.8" y="235.4" class="node" fill="#E3DFE0">0.49</text><text x="232.9" y="130.7" class="node" fill="#E38FA0">0.23</text><text x="232.9" y="340.2" class="node" fill="#E5A5B1">0.3</text><text x="258.1" y="254.5" class="node" fill="#8091E1">0.85</text><text x="283.2" y="200.5" class="node" fill="#8091E1">0.85</text><text x="308.3" y="159.2" class="node" fill="#D2D4E3">0.57</text><text x="333.4" y="168.8" class="node" fill="#CACDE3">0.59</text><text x="308.3" y="241.7" class="node" fill="#A3ADE2">0.73</text><text x="333.4" y="200.3" class="node" fill="#A6AFE2">0.72</text><text x="358.5" y="212.8" class="node" fill="#A6AFE2">0.72</text><text x="383.6" y="225.1" class="node" fill="#4F72E2">0.99</text><text x="408.7" y="237.1" class="node" fill="#4F72E2">0.99</text><text x="433.8" y="248.2" class="node" fill="#4A6FE3">1</text><text x="458.9" y="257.7" class="node" fill="#4F72E2">0.99</text><text x="333.4" y="283.1" class="node" fill="#4A6FE3">1</text><text x="283.2" y="308.5" class="node" fill="#4A6FE3">1</text><text x="258.1" y="425.9" class="node" fill="#E5A5B1">0.3</text><text x="283.2" y="385.3" class="node" fill="#DDDEE3">0.52</text><text x="308.3" y="344.6" class="node" fill="#DDDEE3">0.52</text><text x="333.4" y="361.7" class="node" fill="#929FE1">0.79</text><text x="358.5" y="346.6" class="node" fill="#929FE1">0.79</text><text x="358.5" y="376.8" class="node" fill="#4A6FE3">1</text><text x="383.6" y="387.9" class="node" fill="#E6ABB6">0.32</text><text x="408.7" y="397.4" class="node" fill="#4A6FE3">1</text><text x="308.3" y="426" class="node" fill="#4F72E2">0.99</text><text x="333.4" y="435.5" class="node" fill="#929FE1">0.79</text><text x="283.2" y="466.5" class="node" fill="#E3DFE0">0.49</text><text x="308.3" y="478.4" class="node" fill="#E3DFE0">0.49</text><text x="333.4" y="489.5" class="node" fill="#4F72E2">0.99</text><text x="358.5" y="499" class="node" fill="#4A6FE3">1</text><text x="207.8" y="524.4" class="node" fill="#4A6FE3">1</text><text x="32.1" y="576.8" class="node" fill="#4A6FE3">1</text><text x="57.2" y="562.5" class="node" fill="#4A6FE3">1</text><text x="57.2" y="591.1" class="node" fill="#4A6FE3">1</text><text x="82.3" y="600.6" class="node" fill="#A3ADE2">0.73</text></svg>
