<svg xmlns="http://www.w3.org/2000/svg" version="1.1" width="682" height="612" class="tree" data-char="108"><text x="678" y="16" text-anchor="end" class="stepsLabel">Character adds <tspan class="score">2</tspan> to tree score</text><text x="678" y="29" text-anchor="end" class="stepsLabel"><tspan class="score">0</tspan> additional regions</text><text x="678" y="42" text-anchor="end" class="stepsLabel">CI = 0.5; Fitch CI = 0.5; Fitch RI = 0.5</text><text x="678" y="68" text-anchor="end" class="stepsLabel"><tspan dy="16">An optimal tree under:</tspan><tspan x="680" style="font-style:italic" class="notThisAn" dy="1.2em">Equal weights</tspan><tspan x="680" style="font-style:italic" class="thisAn" dy="1.2em">Implied weights, k = 2</tspan><tspan x="680" style="font-style:italic" class="notThisAn" dy="1.2em">IW, k = 3</tspan><tspan x="680" style="font-style:italic" class="notThisAn" dy="1.2em">IW, k = 4.5</tspan><tspan x="680" style="font-style:italic" class="notThisAn" dy="1.2em">IW, k = 7</tspan><tspan x="680" style="font-style:italic" class="notThisAn" dy="1.2em">IW, k = 10.5</tspan></text><text x="124.2" y="593.7" fill="#fc8d59" class="flag">[0]</text><text x="146.2" y="593.7" fill="#000" class="taxonLabel">Wiwaxia corrugata</text><text x="124.2" y="607" fill="#fc8d59" class="flag">[0]</text><text x="146.2" y="607" fill="#000" class="taxonLabel">Dentalium</text><text x="94.4" y="580.5" fill="#fc8d59" class="flag">[0]</text><text x="116.4" y="580.5" fill="#000" class="taxonLabel">Tonicella</text><text x="94.4" y="553.9" fill="#fc8d59" class="flag">[0]</text><text x="116.4" y="553.9" fill="#000" class="taxonLabel">Serpula</text><text x="94.4" y="567.2" fill="#fc8d59" class="flag">[0]</text><text x="116.4" y="567.2" fill="#000" class="taxonLabel">Sipunculus</text><text x="124.2" y="527.4" fill="#fc8d59" class="flag">[0]</text><text x="146.2" y="527.4" fill="#000" class="taxonLabel">Dailyatia</text><text x="124.2" y="540.7" fill="#fc8d59" class="flag">[0]</text><text x="146.2" y="540.7" fill="#000" class="taxonLabel">Halkieria evangelista</text><text x="94.4" y="514.1" fill="#fc8d59" class="flag">[0]</text><text x="116.4" y="514.1" fill="#000" class="taxonLabel">Paterimitra</text><text x="183.9" y="487.6" fill="#fc8d59" class="flag">[0]</text><text x="205.9" y="487.6" fill="#000" class="taxonLabel">Haplophrentis carinatus</text><text x="183.9" y="500.9" fill="#fc8d59" class="flag">[0]</text><text x="205.9" y="500.9" fill="#000" class="taxonLabel">Pedunculotheca diania</text><text x="332.9" y="461.1" fill="#fc8d59" class="flag">[0]</text><text x="354.9" y="461.1" fill="#000" class="taxonLabel">Lingula</text><text x="332.9" y="474.3" fill="#fc8d59" class="flag">[0]</text><text x="354.9" y="474.3" fill="#000" class="taxonLabel">Pelagodiscus atlanticus</text><text x="392.6" y="434.5" fill="#fc8d59" class="flag">[0]</text><text x="414.6" y="434.5" fill="#000" class="taxonLabel">Mummpikia nuda</text><text x="392.6" y="447.8" fill="#fc8d59" class="flag">[0]</text><text x="414.6" y="447.8" fill="#000" class="taxonLabel">Eoobolus</text><text x="362.8" y="421.3" fill="#fc8d59" class="flag">[0]</text><text x="384.8" y="421.3" fill="#000" class="taxonLabel">Botsfordia</text><text x="332.9" y="408" fill="#fc8d59" class="flag">[0]</text><text x="354.9" y="408" fill="#000" class="taxonLabel">Lingulellotreta malongensis</text><text x="332.9" y="381.5" fill="#91bfdb" class="flag">[1]</text><text x="354.9" y="381.5" fill="#000" class="taxonLabel">Acanthotretella spinosa</text><text x="332.9" y="394.7" fill="#91bfdb" class="flag">[1]</text><text x="354.9" y="394.7" fill="#000" class="taxonLabel">Siphonobolus priscus</text><text x="303.1" y="368.2" fill="#fc8d59" class="flag">[0]</text><text x="325.1" y="368.2" fill="#000" class="taxonLabel">Lingulosacculus</text><text x="243.5" y="354.9" fill="#fc8d59" class="flag">[0]</text><text x="265.5" y="354.9" fill="#000" class="taxonLabel">Clupeafumosus socialis</text><text x="303.1" y="328.4" fill="#fc8d59" class="flag">[0]</text><text x="325.1" y="328.4" fill="#000" class="taxonLabel">Yuganotheca elegans</text><text x="303.1" y="341.7" fill="#fc8d59" class="flag">[0]</text><text x="325.1" y="341.7" fill="#000" class="taxonLabel">Tomteluva perturbata</text><text x="273.3" y="315.1" fill="#fc8d59" class="flag">[0]</text><text x="295.3" y="315.1" fill="#000" class="taxonLabel">Salanygolina</text><text x="332.9" y="288.6" fill="#fc8d59" class="flag">[0]</text><text x="354.9" y="288.6" fill="#000" class="taxonLabel">Antigonambonites planus</text><text x="332.9" y="301.9" fill="#fc8d59" class="flag">[0]</text><text x="354.9" y="301.9" fill="#000" class="taxonLabel">Coolinia pecten</text><text x="482" y="262.1" fill="#fc8d59" class="flag">[0]</text><text x="504" y="262.1" fill="#000" class="taxonLabel">Orthis</text><text x="482" y="275.3" fill="#fc8d59" class="flag">[0]</text><text x="504" y="275.3" fill="#000" class="taxonLabel">Terebratulina</text><text x="452.2" y="248.8" fill="#fc8d59" class="flag">[0]</text><text x="474.2" y="248.8" fill="#000" class="taxonLabel">Alisina</text><text x="422.4" y="235.5" fill="#fc8d59" class="flag">[0]</text><text x="444.4" y="235.5" fill="#000" class="taxonLabel">Longtancunella chengjiangensis</text><text x="392.6" y="222.3" fill="#fc8d59" class="flag">[0]</text><text x="414.6" y="222.3" fill="#000" class="taxonLabel">Glyptoria</text><text x="362.8" y="209" fill="#91bfdb" class="flag">[1]</text><text x="384.8" y="209" fill="#000" class="taxonLabel">Nisusia sulcata</text><text x="332.9" y="195.7" fill="#fc8d59" class="flag">[0]</text><text x="354.9" y="195.7" fill="#000" class="taxonLabel">Kutorgina chengjiangensis</text><text x="332.9" y="169.2" fill="#fc8d59" class="flag">[0]</text><text x="354.9" y="169.2" fill="#000" class="taxonLabel">Askepasma toddense</text><text x="332.9" y="182.5" fill="#fc8d59" class="flag">[0]</text><text x="354.9" y="182.5" fill="#000" class="taxonLabel">Micromitra</text><text x="392.6" y="142.7" fill="#fc8d59" class="flag">[0]</text><text x="414.6" y="142.7" fill="#000" class="taxonLabel">Novocrania</text><text x="392.6" y="155.9" fill="#fc8d59" class="flag">[0]</text><text x="414.6" y="155.9" fill="#000" class="taxonLabel">Craniops</text><text x="362.8" y="129.4" fill="#fc8d59" class="flag">[0]</text><text x="384.8" y="129.4" fill="#000" class="taxonLabel">Ussunia</text><text x="332.9" y="116.1" fill="#fc8d59" class="flag">[0]</text><text x="354.9" y="116.1" fill="#000" class="taxonLabel">Gasconsia</text><text x="213.7" y="89.6" fill="#fc8d59" class="flag">[0]</text><text x="235.7" y="89.6" fill="#000" class="taxonLabel">Micrina</text><text x="213.7" y="102.9" fill="#fc8d59" class="flag">[0]</text><text x="235.7" y="102.9" fill="#000" class="taxonLabel">Mickwitzia muralensis</text><text x="124.2" y="76.3" fill="#fc8d59" class="flag">[0]</text><text x="146.2" y="76.3" fill="#000" class="taxonLabel">Heliomedusa orienta</text><text x="154.1" y="49.8" fill="#fc8d59" class="flag">[0]</text><text x="176.1" y="49.8" fill="#000" class="taxonLabel">Eccentrotheca</text><text x="154.1" y="63.1" fill="#fc8d59" class="flag">[0]</text><text x="176.1" y="63.1" fill="#000" class="taxonLabel">Cotyledion tylodes</text><text x="183.9" y="10" fill="#fc8d59" class="flag">[0]</text><text x="205.9" y="10" fill="#000" class="taxonLabel">Flustra</text><text x="183.9" y="23.3" fill="#fc8d59" class="flag">[0]</text><text x="205.9" y="23.3" fill="#000" class="taxonLabel">Loxosomella</text><text x="154.1" y="36.5" fill="lightgrey" class="flag">[-]</text><text x="176.1" y="36.5" fill="lightgrey" class="taxonLabel">Phoronis</text><path d="M5,447.7V323H34.8M34.8,323V124.8H64.6M64.6,124.8V38.5H94.4M94.4,38.5V23.6H124.2M124.2,23.6V13.6H154.1M154.1,13.6V7H183.9M154.1,13.6V20.3H183.9M94.4,38.5V53.4H124.2M124.2,53.4V46.8H154.1M124.2,53.4V60.1H154.1M64.6,124.8V211.2H94.4M94.4,211.2V73.3H124.2M94.4,211.2V349H124.2M124.2,349V206.7H154.1M154.1,206.7V93.2H183.9M183.9,93.2V86.6H213.7M183.9,93.2V99.9H213.7M154.1,206.7V320.2H183.9M183.9,320.2V260.5H213.7M213.7,260.5V198.9H243.5M243.5,198.9V148.8H273.3M273.3,148.8V124.7H303.1M303.1,124.7V113.1H332.9M303.1,124.7V136.4H332.9M332.9,136.4V126.4H362.8M332.9,136.4V146.3H362.8M362.8,146.3V139.7H392.6M362.8,146.3V152.9H392.6M273.3,148.8V172.8H303.1M303.1,172.8V166.2H332.9M303.1,172.8V179.5H332.9M243.5,198.9V249H273.3M273.3,249V205.8H303.1M303.1,205.8V192.7H332.9M303.1,205.8V218.9H332.9M332.9,218.9V231.7H362.8M362.8,231.7V219.3H392.6M362.8,231.7V244.1H392.6M392.6,244.1V232.5H422.4M392.6,244.1V255.8H422.4M422.4,255.8V245.8H452.2M422.4,255.8V265.7H452.2M452.2,265.7V259.1H482M452.2,265.7V272.3H482M273.3,249V292.2H303.1M303.1,292.2V285.6H332.9M303.1,292.2V298.9H332.9M213.7,260.5V322.1H243.5M243.5,322.1V312.1H273.3M243.5,322.1V332H273.3M273.3,332V325.4H303.1M273.3,332V338.7H303.1M183.9,320.2V379.9H213.7M213.7,379.9V351.9H243.5M213.7,379.9V407.9H243.5M243.5,407.9V375.2H273.3M273.3,375.2V365.2H303.1M243.5,407.9V440.7H273.3M273.3,440.7V416.6H303.1M303.1,416.6V405H332.9M303.1,416.6V428.2H332.9M332.9,428.2V418.3H362.8M332.9,428.2V438.2H362.8M362.8,438.2V431.5H392.6M362.8,438.2V444.8H392.6M273.3,440.7V464.7H303.1M303.1,464.7V458.1H332.9M303.1,464.7V471.3H332.9M124.2,349V491.2H154.1M154.1,491.2V484.6H183.9M154.1,491.2V497.9H183.9M34.8,323V521.1H64.6M64.6,521.1V511.1H94.4M64.6,521.1V531H94.4M94.4,531V524.4H124.2M94.4,531V537.7H124.2M5,447.7V572.5H34.8M34.8,572.5V557.6H64.6M64.6,557.6V550.9H94.4M64.6,557.6V564.2H94.4M34.8,572.5V587.4H64.6M64.6,587.4V577.5H94.4M64.6,587.4V597.4H94.4M94.4,597.4V590.7H124.2M94.4,597.4V604H124.2" stroke="#fc8d59"></path><path d="M124.2,23.6V33.5H154.1" stroke="lightgrey" class="inapplicable"></path><path d="M332.9,218.9V206H362.8M273.3,375.2V385.1H303.1M303.1,385.1V378.5H332.9M303.1,385.1V391.7H332.9" stroke="#91bfdb"></path><text x="7" y="450.7" class="node" fill="#4A6FE3">1</text><text x="36.8" y="326" class="node" fill="#4A6FE3">1</text><text x="66.6" y="127.8" class="node" fill="#D64F73">0.04</text><text x="96.4" y="41.5" class="node" fill="#DF758D">0.15</text><text x="126.2" y="26.6" class="node" fill="#4A6FE3">1</text><text x="156.1" y="16.6" class="node" fill="#4A6FE3">1</text><text x="126.2" y="56.4" class="node" fill="#D95A7A">0.07</text><text x="96.4" y="214.2" class="node" fill="#DF758D">0.15</text><text x="126.2" y="352" class="node" fill="#DF758D">0.15</text><text x="156.1" y="209.7" class="node" fill="#4A6FE3">1</text><text x="185.9" y="96.2" class="node" fill="#E5A5B1">0.3</text><text x="185.9" y="323.2" class="node" fill="#E5A5B1">0.3</text><text x="215.7" y="263.5" class="node" fill="#4A6FE3">1</text><text x="245.5" y="201.9" class="node" fill="#E18297">0.19</text><text x="275.3" y="151.8" class="node" fill="#E38C9E">0.22</text><text x="305.1" y="127.7" class="node" fill="#4A6FE3">1</text><text x="334.9" y="139.4" class="node" fill="#4A6FE3">1</text><text x="364.8" y="149.3" class="node" fill="#4A6FE3">1</text><text x="305.1" y="175.8" class="node" fill="#4A6FE3">1</text><text x="275.3" y="252" class="node" fill="#4A6FE3">1</text><text x="305.1" y="208.8" class="node" fill="#DADBE3">0.53</text><text x="334.9" y="221.9" class="node" fill="#DADBE3">0.53</text><text x="364.8" y="234.7" class="node" fill="#DADBE3">0.53</text><text x="394.6" y="247.1" class="node" fill="#DADBE3">0.53</text><text x="424.4" y="258.8" class="node" fill="#4A6FE3">1</text><text x="454.2" y="268.7" class="node" fill="#97A4E2">0.77</text><text x="305.1" y="295.2" class="node" fill="#4A6FE3">1</text><text x="245.5" y="325.1" class="node" fill="#BFC4E3">0.63</text><text x="275.3" y="335" class="node" fill="#627DE1">0.94</text><text x="215.7" y="382.9" class="node" fill="#E5A5B1">0.3</text><text x="245.5" y="410.9" class="node" fill="#E5A5B1">0.3</text><text x="275.3" y="378.2" class="node" fill="#E38FA0">0.23</text><text x="305.1" y="388.1" class="node" fill="#4A6FE3">1</text><text x="275.3" y="443.7" class="node" fill="#E5A5B1">0.3</text><text x="305.1" y="419.6" class="node" fill="#E6AEB8">0.33</text><text x="334.9" y="431.2" class="node" fill="#E6AEB8">0.33</text><text x="364.8" y="441.2" class="node" fill="#E6AEB8">0.33</text><text x="305.1" y="467.7" class="node" fill="#E5A5B1">0.3</text><text x="156.1" y="494.2" class="node" fill="#4A6FE3">1</text><text x="66.6" y="524.1" class="node" fill="#DF758D">0.15</text><text x="96.4" y="534" class="node" fill="#DF758D">0.15</text><text x="36.8" y="575.5" class="node" fill="#4A6FE3">1</text><text x="66.6" y="560.6" class="node" fill="#A6AFE2">0.72</text><text x="66.6" y="590.4" class="node" fill="#E4D9DB">0.47</text><text x="96.4" y="600.4" class="node" fill="#E4D9DB">0.47</text></svg>
