<svg xmlns="http://www.w3.org/2000/svg" version="1.1" width="682" height="555" class="tree" char="61">
 <text x="678" y="17.6" text-anchor="end" class="stepsLabel">Character adds <tspan class="score">6</tspan> to tree score</text>
 <text x="678" y="32.2" text-anchor="end" class="stepsLabel"><tspan class="score"></tspan> additional region</text>
 <text x="678" y="46.8" text-anchor="end" class="stepsLabel">CI = 0.17; Fitch CI = 0.17; Fitch RI = 0.29</text>
 <text x="678" y="76" text-anchor="end" class="stepsLabel"><tspan dy="16">An optimal tree under:</tspan><tspan x="680" style="font-style:italic" class="thisAn" dy="1.2em">Equal weights</tspan><tspan x="680" style="font-style:italic" class="notThisAn" dy="1.2em">Implied weights, k = 2</tspan><tspan x="680" style="font-style:italic" class="notThisAn" dy="1.2em">IW, k = 3</tspan><tspan x="680" style="font-style:italic" class="notThisAn" dy="1.2em">IW, k = 4.5</tspan><tspan x="680" style="font-style:italic" class="thisAn" dy="1.2em">IW, k = 7</tspan><tspan x="680" style="font-style:italic" class="thisAn" dy="1.2em">IW, k = 10.5</tspan><tspan x="680" style="font-style:italic" class="thisAn" dy="1.2em">IW, k = 16</tspan><tspan x="680" style="font-style:italic" class="thisAn" dy="1.2em">IW, k = 24</tspan></text>
 <text x="33.1" y="10" fill="#fc8d59" class="flag">[0]</text>
 <text x="55.1" y="10" class="taxonLabel">Dailyatia</text>
 <text x="89.2" y="40" fill="#fc8d59" class="flag">[0]</text>
 <text x="111.2" y="40" class="taxonLabel">Eccentrotheca</text>
 <text x="61.1" y="25" fill="lightgrey" class="flag">[-]</text>
 <text x="83.1" y="25" class="taxonLabel">Phoronis</text>
 <text x="117.2" y="55" fill="#fc8d59" class="flag">[0]</text>
 <text x="139.2" y="55" class="taxonLabel">Paterimitra</text>
 <text x="173.4" y="535" fill="#fc8d59" class="flag">[0]</text>
 <text x="195.4" y="535" class="taxonLabel">Pedunculotheca diania</text>
 <text x="173.4" y="550" fill="#fc8d59" class="flag">[0]</text>
 <text x="195.4" y="550" class="taxonLabel">Haplophrentis carinatus</text>
 <text x="229.5" y="70" fill="#fc8d59" class="flag">[0]</text>
 <text x="251.5" y="70" class="taxonLabel">Gasconsia</text>
 <text x="257.5" y="85" fill="#91bfdb" class="flag">[1]</text>
 <text x="279.5" y="85" class="taxonLabel">Heliomedusa orienta</text>
 <text x="285.6" y="100" fill="grey" class="flag">[?]</text>
 <text x="307.6" y="100" class="taxonLabel">Ussunia</text>
 <text x="313.6" y="115" fill="#fc8d59" class="flag">[0]</text>
 <text x="335.6" y="115" class="taxonLabel">Craniops</text>
 <text x="313.6" y="130" fill="#91bfdb" class="flag">[1]</text>
 <text x="335.6" y="130" class="taxonLabel">Novocrania</text>
 <text x="229.5" y="145" fill="#fc8d59" class="flag">[0]</text>
 <text x="251.5" y="145" class="taxonLabel">Pelagodiscus atlanticus</text>
 <text x="257.5" y="160" fill="#91bfdb" class="flag">[1]</text>
 <text x="279.5" y="160" class="taxonLabel">Mickwitzia muralensis</text>
 <text x="285.6" y="175" fill="#91bfdb" class="flag">[1]</text>
 <text x="307.6" y="175" class="taxonLabel">Micrina</text>
 <text x="313.6" y="190" fill="#91bfdb" class="flag">[1]</text>
 <text x="335.6" y="190" class="taxonLabel">Lingula</text>
 <text x="341.7" y="205" fill="#fc8d59" class="flag">[0]</text>
 <text x="363.7" y="205" class="taxonLabel">Eoobolus</text>
 <text x="369.8" y="220" fill="#fc8d59" class="flag">[0]</text>
 <text x="391.8" y="220" class="taxonLabel">Mummpikia nuda</text>
 <text x="397.8" y="235" fill="#fc8d59" class="flag">[0]</text>
 <text x="419.8" y="235" class="taxonLabel">Botsfordia</text>
 <text x="453.9" y="250" fill="#fc8d59" class="flag">[0]</text>
 <text x="475.9" y="250" class="taxonLabel">Lingulosacculus</text>
 <text x="453.9" y="265" fill="#fc8d59" class="flag">[0]</text>
 <text x="475.9" y="265" class="taxonLabel">Lingulellotreta malongensis</text>
 <text x="453.9" y="280" fill="#fc8d59" class="flag">[0]</text>
 <text x="475.9" y="280" class="taxonLabel">Clupeafumosus socialis</text>
 <text x="482" y="295" fill="#91bfdb" class="flag">[1]</text>
 <text x="504" y="295" class="taxonLabel">Acanthotretella spinosa</text>
 <text x="482" y="310" fill="#91bfdb" class="flag">[1]</text>
 <text x="504" y="310" class="taxonLabel">Siphonobolus priscus</text>
 <text x="229.5" y="325" fill="#fc8d59" class="flag">[0]</text>
 <text x="251.5" y="325" class="taxonLabel">Askepasma toddense</text>
 <text x="229.5" y="340" fill="#fc8d59" class="flag">[0]</text>
 <text x="251.5" y="340" class="taxonLabel">Micromitra</text>
 <text x="257.5" y="355" fill="#fc8d59" class="flag">[0]</text>
 <text x="279.5" y="355" class="taxonLabel">Salanygolina</text>
 <text x="285.6" y="370" fill="#fc8d59" class="flag">[0]</text>
 <text x="307.6" y="370" class="taxonLabel">Tomteluva perturbata</text>
 <text x="285.6" y="385" fill="grey" class="flag">[?]</text>
 <text x="307.6" y="385" class="taxonLabel">Yuganotheca elegans</text>
 <text x="285.6" y="400" fill="#fc8d59" class="flag">[0]</text>
 <text x="307.6" y="400" class="taxonLabel">Kutorgina chengjiangensis</text>
 <text x="313.6" y="415" fill="#fc8d59" class="flag">[0]</text>
 <text x="335.6" y="415" class="taxonLabel">Nisusia sulcata</text>
 <text x="341.7" y="430" fill="#fc8d59" class="flag">[0]</text>
 <text x="363.7" y="430" class="taxonLabel">Glyptoria</text>
 <text x="369.8" y="445" fill="#fc8d59" class="flag">[0]</text>
 <text x="391.8" y="445" class="taxonLabel">Longtancunella chengjiangensis</text>
 <text x="397.8" y="460" fill="#fc8d59" class="flag">[0]</text>
 <text x="419.8" y="460" class="taxonLabel">Alisina</text>
 <text x="425.9" y="475" fill="#fc8d59" class="flag">[0]</text>
 <text x="447.9" y="475" class="taxonLabel">Orthis</text>
 <text x="425.9" y="490" fill="#91bfdb" class="flag">[1]</text>
 <text x="447.9" y="490" class="taxonLabel">Terebratulina</text>
 <text x="285.6" y="505" fill="#fc8d59" class="flag">[0]</text>
 <text x="307.6" y="505" class="taxonLabel">Coolinia pecten</text>
 <text x="285.6" y="520" fill="#fc8d59" class="flag">[0]</text>
 <text x="307.6" y="520" class="taxonLabel">Antigonambonites planus</text>
 <path d="M5,41.4V7H33.1M5,41.4V75.8H33.1M33.1,75.8V129.5H61.1M61.1,129.5V37H89.2M61.1,129.5V222.1H89.2M89.2,222.1V52H117.2M89.2,222.1V392.2H117.2M117.2,392.2V244.9H145.3M145.3,244.9V119.1H173.4M173.4,119.1V81.1H201.4M201.4,81.1V67H229.5M201.4,81.1V95.1H229.5M285.6,119.5V112H313.6M173.4,119.1V157.1H201.4M201.4,157.1V142H229.5M285.6,202.6V218.2H313.6M313.6,218.2V202H341.7M313.6,218.2V234.3H341.7M341.7,234.3V217H369.8M341.7,234.3V251.7H369.8M369.8,251.7V232H397.8M369.8,251.7V271.4H397.8M397.8,271.4V254.5H425.9M425.9,254.5V247H453.9M425.9,254.5V262H453.9M397.8,271.4V288.2H425.9M425.9,288.2V277H453.9M145.3,244.9V370.7H173.4M173.4,370.7V329.5H201.4M201.4,329.5V322H229.5M201.4,329.5V337H229.5M173.4,370.7V411.9H201.4M201.4,411.9V363.2H229.5M229.5,363.2V352H257.5M229.5,363.2V374.5H257.5M257.5,374.5V367H285.6M257.5,374.5V382H285.6M201.4,411.9V460.6H229.5M229.5,460.6V411.8H257.5M257.5,411.8V397H285.6M257.5,411.8V426.5H285.6M285.6,426.5V412H313.6M285.6,426.5V441.1H313.6M313.6,441.1V427H341.7M313.6,441.1V455.1H341.7M341.7,455.1V442H369.8M341.7,455.1V468.2H369.8M369.8,468.2V457H397.8M369.8,468.2V479.5H397.8M397.8,479.5V472H425.9M229.5,460.6V509.5H257.5M257.5,509.5V502H285.6M257.5,509.5V517H285.6M117.2,392.2V539.5H145.3M145.3,539.5V532H173.4M145.3,539.5V547H173.4" stroke="#fc8d59"></path>
 <path d="M33.1,75.8V22H61.1" stroke="lightgrey" class="inapplicable"></path>
 <path d="M229.5,95.1V82H257.5M285.6,119.5V127H313.6M201.4,157.1V172.1H229.5M229.5,172.1V157H257.5M229.5,172.1V187.3H257.5M257.5,187.3V172H285.6M257.5,187.3V202.6H285.6M285.6,202.6V187H313.6M425.9,288.2V299.5H453.9M453.9,299.5V292H482M453.9,299.5V307H482M397.8,479.5V487H425.9" stroke="#91bfdb"></path>
 <path d="M229.5,95.1V108.2H257.5M257.5,108.2V97H285.6M257.5,108.2V119.5H285.6" stroke="darkgrey"></path>
 <text x="7" y="44.4" class="node" fill="#4A6FE3">1</text>
 <text x="35.1" y="78.8" class="node" fill="#4A6FE3">1</text>
 <text x="63.1" y="132.5" class="node" fill="#E6B1BB">0.34</text>
 <text x="91.2" y="225.1" class="node" fill="#4A6FE3">1</text>
 <text x="119.2" y="395.2" class="node" fill="#4A6FE3">1</text>
 <text x="147.3" y="247.9" class="node" fill="#7A8DE1">0.87</text>
 <text x="175.4" y="122.1" class="node" fill="#A0ABE2">0.74</text>
 <text x="203.4" y="84.1" class="node" fill="#7A8DE1">0.87</text>
 <text x="231.5" y="98.1" class="node" fill="#7A8DE1">0.87</text>
 <text x="259.5" y="111.2" class="node" fill="#4A6FE3">1</text>
 <text x="287.6" y="122.5" class="node" fill="#4A6FE3">1</text>
 <text x="203.4" y="160.1" class="node" fill="#A0ABE2">0.74</text>
 <text x="231.5" y="175.1" class="node" fill="#A0ABE2">0.74</text>
 <text x="259.5" y="190.3" class="node" fill="#A0ABE2">0.74</text>
 <text x="287.6" y="205.6" class="node" fill="#7A8DE1">0.87</text>
 <text x="315.6" y="221.2" class="node" fill="#7A8DE1">0.87</text>
 <text x="343.7" y="237.3" class="node" fill="#A0ABE2">0.74</text>
 <text x="371.8" y="254.7" class="node" fill="#A0ABE2">0.74</text>
 <text x="399.8" y="274.4" class="node" fill="#A0ABE2">0.74</text>
 <text x="427.9" y="257.5" class="node" fill="#DF758D">0.15</text>
 <text x="427.9" y="291.2" class="node" fill="#E2E2E2">0.5</text>
 <text x="455.9" y="302.5" class="node" fill="#4A6FE3">1</text>
 <text x="175.4" y="373.7" class="node" fill="#4A6FE3">1</text>
 <text x="203.4" y="332.5" class="node" fill="#4A6FE3">1</text>
 <text x="203.4" y="414.9" class="node" fill="#4A6FE3">1</text>
 <text x="231.5" y="366.2" class="node" fill="#8C9BE1">0.81</text>
 <text x="259.5" y="377.5" class="node" fill="#6D84E1">0.91</text>
 <text x="231.5" y="463.6" class="node" fill="#4A6FE3">1</text>
 <text x="259.5" y="414.8" class="node" fill="#768BE1">0.88</text>
 <text x="287.6" y="429.5" class="node" fill="#768BE1">0.88</text>
 <text x="315.6" y="444.1" class="node" fill="#768BE1">0.88</text>
 <text x="343.7" y="458.1" class="node" fill="#768BE1">0.88</text>
 <text x="371.8" y="471.2" class="node" fill="#4A6FE3">1</text>
 <text x="399.8" y="482.5" class="node" fill="#667FE1">0.93</text>
 <text x="259.5" y="512.5" class="node" fill="#4A6FE3">1</text>
 <text x="147.3" y="542.5" class="node" fill="#4A6FE3">1</text></svg>
