<svg xmlns="http://www.w3.org/2000/svg" version="1.1" width="682" height="612" class="tree" data-char="160"><text x="678" y="16" text-anchor="end" class="stepsLabel">Character adds <tspan class="score">1</tspan> to tree score</text><text x="678" y="29" text-anchor="end" class="stepsLabel"><tspan class="score">0</tspan> additional regions</text><text x="678" y="42" text-anchor="end" class="stepsLabel">CI = 1; Fitch CI = 1; Fitch RI = n/a</text><text x="678" y="68" text-anchor="end" class="stepsLabel"><tspan dy="16">An optimal tree under:</tspan><tspan x="680" style="font-style:italic" class="notThisAn" dy="1.2em">Equal weights</tspan><tspan x="680" style="font-style:italic" class="notThisAn" dy="1.2em">Implied weights, k = 2</tspan><tspan x="680" style="font-style:italic" class="thisAn" dy="1.2em">IW, k = 3</tspan><tspan x="680" style="font-style:italic" class="notThisAn" dy="1.2em">IW, k = 4.5</tspan><tspan x="680" style="font-style:italic" class="notThisAn" dy="1.2em">IW, k = 7</tspan><tspan x="680" style="font-style:italic" class="notThisAn" dy="1.2em">IW, k = 10.5</tspan><tspan x="680" style="font-style:italic" class="notThisAn" dy="1.2em">IW, k = 16</tspan><tspan x="680" style="font-style:italic" class="notThisAn" dy="1.2em">IW, k = 24</tspan></text><text x="73.1" y="593.7" fill="#91bfdb" class="flag">[2]</text><text x="95.1" y="593.7" fill="#000" class="taxonLabel">Sipunculus</text><text x="73.1" y="607" fill="grey" class="flag">[?]</text><text x="95.1" y="607" fill="grey" class="taxonLabel">Serpula</text><text x="95.9" y="567.2" fill="#91bfdb" class="flag">[2]</text><text x="117.9" y="567.2" fill="#000" class="taxonLabel">Tonicella</text><text x="95.9" y="580.5" fill="grey" class="flag">[?]</text><text x="117.9" y="580.5" fill="grey" class="taxonLabel">Wiwaxia corrugata</text><text x="73.1" y="553.9" fill="#e2e2a2" class="flag">[1]</text><text x="95.1" y="553.9" fill="#000" class="taxonLabel">Dentalium</text><text x="164" y="514.1" fill="grey" class="flag">[?]</text><text x="186" y="514.1" fill="grey" class="taxonLabel">Halkieria evangelista</text><text x="164" y="527.4" fill="grey" class="flag">[?]</text><text x="186" y="527.4" fill="grey" class="taxonLabel">Dailyatia</text><text x="277.6" y="487.6" fill="grey" class="flag">[?]</text><text x="299.6" y="487.6" fill="grey" class="taxonLabel">Haplophrentis carinatus</text><text x="277.6" y="500.9" fill="grey" class="flag">[?]</text><text x="299.6" y="500.9" fill="grey" class="taxonLabel">Pedunculotheca diania</text><text x="391.1" y="461.1" fill="grey" class="flag">[?]</text><text x="413.1" y="461.1" fill="grey" class="taxonLabel">Lingula</text><text x="391.1" y="474.3" fill="grey" class="flag">[?]</text><text x="413.1" y="474.3" fill="grey" class="taxonLabel">Pelagodiscus atlanticus</text><text x="436.6" y="434.5" fill="grey" class="flag">[?]</text><text x="458.6" y="434.5" fill="grey" class="taxonLabel">Eoobolus</text><text x="436.6" y="447.8" fill="grey" class="flag">[?]</text><text x="458.6" y="447.8" fill="grey" class="taxonLabel">Mummpikia nuda</text><text x="413.9" y="421.3" fill="grey" class="flag">[?]</text><text x="435.9" y="421.3" fill="grey" class="taxonLabel">Botsfordia</text><text x="391.1" y="408" fill="grey" class="flag">[?]</text><text x="413.1" y="408" fill="grey" class="taxonLabel">Lingulellotreta malongensis</text><text x="368.4" y="381.5" fill="grey" class="flag">[?]</text><text x="390.4" y="381.5" fill="grey" class="taxonLabel">Acanthotretella spinosa</text><text x="368.4" y="394.7" fill="grey" class="flag">[?]</text><text x="390.4" y="394.7" fill="grey" class="taxonLabel">Siphonobolus priscus</text><text x="323" y="368.2" fill="grey" class="flag">[?]</text><text x="345" y="368.2" fill="grey" class="taxonLabel">Lingulosacculus</text><text x="300.3" y="354.9" fill="grey" class="flag">[?]</text><text x="322.3" y="354.9" fill="grey" class="taxonLabel">Clupeafumosus socialis</text><text x="368.4" y="328.4" fill="grey" class="flag">[?]</text><text x="390.4" y="328.4" fill="grey" class="taxonLabel">Tomteluva perturbata</text><text x="368.4" y="341.7" fill="grey" class="flag">[?]</text><text x="390.4" y="341.7" fill="grey" class="taxonLabel">Yuganotheca elegans</text><text x="345.7" y="315.1" fill="grey" class="flag">[?]</text><text x="367.7" y="315.1" fill="grey" class="taxonLabel">Salanygolina</text><text x="482" y="288.6" fill="grey" class="flag">[?]</text><text x="504" y="288.6" fill="grey" class="taxonLabel">Orthis</text><text x="482" y="301.9" fill="grey" class="flag">[?]</text><text x="504" y="301.9" fill="grey" class="taxonLabel">Terebratulina</text><text x="459.3" y="275.3" fill="grey" class="flag">[?]</text><text x="481.3" y="275.3" fill="grey" class="taxonLabel">Alisina</text><text x="436.6" y="262.1" fill="grey" class="flag">[?]</text><text x="458.6" y="262.1" fill="grey" class="taxonLabel">Longtancunella chengjiangensis</text><text x="413.9" y="248.8" fill="grey" class="flag">[?]</text><text x="435.9" y="248.8" fill="grey" class="taxonLabel">Glyptoria</text><text x="391.1" y="235.5" fill="grey" class="flag">[?]</text><text x="413.1" y="235.5" fill="grey" class="taxonLabel">Nisusia sulcata</text><text x="368.4" y="222.3" fill="grey" class="flag">[?]</text><text x="390.4" y="222.3" fill="grey" class="taxonLabel">Kutorgina chengjiangensis</text><text x="368.4" y="195.7" fill="grey" class="flag">[?]</text><text x="390.4" y="195.7" fill="grey" class="taxonLabel">Coolinia pecten</text><text x="368.4" y="209" fill="grey" class="flag">[?]</text><text x="390.4" y="209" fill="grey" class="taxonLabel">Antigonambonites planus</text><text x="391.1" y="169.2" fill="grey" class="flag">[?]</text><text x="413.1" y="169.2" fill="grey" class="taxonLabel">Craniops</text><text x="391.1" y="182.5" fill="grey" class="flag">[?]</text><text x="413.1" y="182.5" fill="grey" class="taxonLabel">Novocrania</text><text x="368.4" y="155.9" fill="grey" class="flag">[?]</text><text x="390.4" y="155.9" fill="grey" class="taxonLabel">Ussunia</text><text x="345.7" y="142.7" fill="grey" class="flag">[?]</text><text x="367.7" y="142.7" fill="grey" class="taxonLabel">Gasconsia</text><text x="345.7" y="116.1" fill="grey" class="flag">[?]</text><text x="367.7" y="116.1" fill="grey" class="taxonLabel">Micromitra</text><text x="345.7" y="129.4" fill="grey" class="flag">[?]</text><text x="367.7" y="129.4" fill="grey" class="taxonLabel">Askepasma toddense</text><text x="232.1" y="102.9" fill="grey" class="flag">[?]</text><text x="254.1" y="102.9" fill="grey" class="taxonLabel">Micrina</text><text x="209.4" y="89.6" fill="grey" class="flag">[?]</text><text x="231.4" y="89.6" fill="grey" class="taxonLabel">Heliomedusa orienta</text><text x="186.7" y="76.3" fill="grey" class="flag">[?]</text><text x="208.7" y="76.3" fill="grey" class="taxonLabel">Mickwitzia muralensis</text><text x="164" y="63.1" fill="grey" class="flag">[?]</text><text x="186" y="63.1" fill="grey" class="taxonLabel">Paterimitra</text><text x="141.3" y="36.5" fill="grey" class="flag">[?]</text><text x="163.3" y="36.5" fill="grey" class="taxonLabel">Eccentrotheca</text><text x="141.3" y="49.8" fill="grey" class="flag">[?]</text><text x="163.3" y="49.8" fill="grey" class="taxonLabel">Cotyledion tylodes</text><text x="95.9" y="23.3" fill="grey" class="flag">[?]</text><text x="117.9" y="23.3" fill="grey" class="taxonLabel">Phoronis</text><text x="73.1" y="10" fill="grey" class="flag">[?]</text><text x="95.1" y="10" fill="grey" class="taxonLabel">Flustra</text><text x="50.4" y="540.7" fill="#91bfdb" class="flag">[2]</text><text x="72.4" y="540.7" fill="#000" class="taxonLabel">Loxosomella</text><path d="M5,436.9V294.6H27.7M27.7,294.6V51.6H50.4M50.4,51.6V7H73.1M50.4,51.6V96.1H73.1M73.1,96.1V20.3H95.9M73.1,96.1V172H95.9M95.9,172V40.2H118.6M118.6,40.2V33.5H141.3M118.6,40.2V46.8H141.3M95.9,172V303.7H118.6M118.6,303.7V89.7H141.3M141.3,89.7V60.1H164M141.3,89.7V119.4H164M164,119.4V73.3H186.7M164,119.4V165.5H186.7M186.7,165.5V86.6H209.4M186.7,165.5V244.3H209.4M209.4,244.3V99.9H232.1M209.4,244.3V388.8H232.1M232.1,388.8V286.4H254.9M254.9,286.4V202.2H277.6M277.6,202.2V135.5H300.3M300.3,135.5V119.8H323M323,119.8V113.1H345.7M323,119.8V126.4H345.7M300.3,135.5V151.3H323M323,151.3V139.7H345.7M323,151.3V162.9H345.7M345.7,162.9V152.9H368.4M345.7,162.9V172.8H368.4M368.4,172.8V166.2H391.1M368.4,172.8V179.5H391.1M277.6,202.2V269H300.3M300.3,269V215.8H323M323,215.8V199.4H345.7M345.7,199.4V192.7H368.4M345.7,199.4V206H368.4M323,215.8V232.3H345.7M345.7,232.3V219.3H368.4M345.7,232.3V245.4H368.4M368.4,245.4V232.5H391.1M368.4,245.4V258.2H391.1M391.1,258.2V245.8H413.9M391.1,258.2V270.7H413.9M413.9,270.7V259.1H436.6M413.9,270.7V282.3H436.6M436.6,282.3V272.3H459.3M436.6,282.3V292.2H459.3M459.3,292.2V285.6H482M459.3,292.2V298.9H482M300.3,269V322.1H323M323,322.1V312.1H345.7M323,322.1V332H345.7M345.7,332V325.4H368.4M345.7,332V338.7H368.4M254.9,286.4V370.5H277.6M277.6,370.5V351.9H300.3M277.6,370.5V389H300.3M300.3,389V365.2H323M300.3,389V412.9H323M323,412.9V385.1H345.7M345.7,385.1V378.5H368.4M345.7,385.1V391.7H368.4M323,412.9V440.7H345.7M345.7,440.7V416.6H368.4M368.4,416.6V405H391.1M368.4,416.6V428.2H391.1M391.1,428.2V418.3H413.9M391.1,428.2V438.2H413.9M413.9,438.2V431.5H436.6M413.9,438.2V444.8H436.6M345.7,440.7V464.7H368.4M368.4,464.7V458.1H391.1M368.4,464.7V471.3H391.1M232.1,388.8V491.2H254.9M254.9,491.2V484.6H277.6M254.9,491.2V497.9H277.6M118.6,303.7V517.8H141.3M141.3,517.8V511.1H164M141.3,517.8V524.4H164M27.7,294.6V537.7H50.4M5,436.9V579.1H27.7M27.7,579.1V560.9H50.4M50.4,560.9V570.8H73.1M73.1,570.8V564.2H95.9M73.1,570.8V577.5H95.9M27.7,579.1V597.4H50.4M50.4,597.4V590.7H73.1M50.4,597.4V604H73.1" stroke="#91bfdb"></path><path d="M50.4,560.9V550.9H73.1" stroke="#e2e2a2"></path><text x="7" y="439.9" class="node" fill="#4A6FE3">1</text><text x="29.7" y="297.6" class="node" fill="#4A6FE3">1</text><text x="52.4" y="54.6" class="node" fill="#4A6FE3">1</text><text x="75.1" y="99.1" class="node" fill="#4A6FE3">1</text><text x="97.9" y="175" class="node" fill="#4A6FE3">1</text><text x="120.6" y="43.2" class="node" fill="#E6BDC5">0.38</text><text x="120.6" y="306.7" class="node" fill="#4A6FE3">1</text><text x="143.3" y="92.7" class="node" fill="#4A6FE3">1</text><text x="166" y="122.4" class="node" fill="#E495A5">0.25</text><text x="188.7" y="168.5" class="node" fill="#E495A5">0.25</text><text x="211.4" y="247.3" class="node" fill="#E495A5">0.25</text><text x="234.1" y="391.8" class="node" fill="#E495A5">0.25</text><text x="256.9" y="289.4" class="node" fill="#E495A5">0.25</text><text x="279.6" y="205.2" class="node" fill="#4A6FE3">1</text><text x="302.3" y="138.5" class="node" fill="#DD6F88">0.13</text><text x="325" y="122.8" class="node" fill="#4A6FE3">1</text><text x="325" y="154.3" class="node" fill="#4A6FE3">1</text><text x="347.7" y="165.9" class="node" fill="#4A6FE3">1</text><text x="370.4" y="175.8" class="node" fill="#4A6FE3">1</text><text x="302.3" y="272" class="node" fill="#667FE1">0.93</text><text x="325" y="218.8" class="node" fill="#4A6FE3">1</text><text x="347.7" y="202.4" class="node" fill="#4A6FE3">1</text><text x="347.7" y="235.3" class="node" fill="#7A8DE1">0.87</text><text x="370.4" y="248.4" class="node" fill="#7A8DE1">0.87</text><text x="393.1" y="261.2" class="node" fill="#7A8DE1">0.87</text><text x="415.9" y="273.7" class="node" fill="#7A8DE1">0.87</text><text x="438.6" y="285.3" class="node" fill="#4A6FE3">1</text><text x="461.3" y="295.2" class="node" fill="#5B78E2">0.96</text><text x="325" y="325.1" class="node" fill="#A0ABE2">0.74</text><text x="347.7" y="335" class="node" fill="#7388E1">0.89</text><text x="279.6" y="373.5" class="node" fill="#E495A5">0.25</text><text x="302.3" y="392" class="node" fill="#E495A5">0.25</text><text x="325" y="415.9" class="node" fill="#DA5E7D">0.08</text><text x="347.7" y="388.1" class="node" fill="#4A6FE3">1</text><text x="347.7" y="443.7" class="node" fill="#E495A5">0.25</text><text x="370.4" y="419.6" class="node" fill="#E495A5">0.25</text><text x="393.1" y="431.2" class="node" fill="#E6AEB8">0.33</text><text x="415.9" y="441.2" class="node" fill="#E495A5">0.25</text><text x="370.4" y="467.7" class="node" fill="#E495A5">0.25</text><text x="256.9" y="494.2" class="node" fill="#4A6FE3">1</text><text x="143.3" y="520.8" class="node" fill="#4A6FE3">1</text><text x="29.7" y="582.1" class="node" fill="#4A6FE3">1</text><text x="52.4" y="563.9" class="node" fill="#4A6FE3">1</text><text x="75.1" y="573.8" class="node" fill="#97A4E2">0.77</text><text x="52.4" y="600.4" class="node" fill="#4A6FE3">1</text></svg>
