<svg xmlns="http://www.w3.org/2000/svg" version="1.1" width="682" height="555" class="tree" char="27">
 <text x="678" y="14.7" text-anchor="end" class="stepsLabel">Character adds <tspan class="score">2</tspan> to tree score</text>
 <text x="678" y="26.4" text-anchor="end" class="stepsLabel"><tspan class="score"></tspan> additional region</text>
 <text x="678" y="38.1" text-anchor="end" class="stepsLabel">CI = 0.5; Fitch CI = 0.5; Fitch RI = 0.88</text>
 <text x="678" y="61.5" text-anchor="end" class="stepsLabel"><tspan dy="16">An optimal tree under:</tspan><tspan x="680" style="font-style:italic" class="thisAn" dy="1.2em">Equal weights</tspan><tspan x="680" style="font-style:italic" class="notThisAn" dy="1.2em">Implied weights, k = 2</tspan><tspan x="680" style="font-style:italic" class="notThisAn" dy="1.2em">IW, k = 3</tspan><tspan x="680" style="font-style:italic" class="notThisAn" dy="1.2em">IW, k = 4.5</tspan></text>
 <text x="31.5" y="10" fill="#fc8d59" class="flag">[0]</text>
 <text x="53.5" y="10" class="taxonLabel">Dailyatia</text>
 <text x="58" y="22" fill="#fc8d59" class="flag">[0]</text>
 <text x="80" y="22" class="taxonLabel">Halkieria evangelista</text>
 <text x="111" y="442" fill="#fc8d59" class="flag">[0]</text>
 <text x="133" y="442" class="taxonLabel">Eccentrotheca</text>
 <text x="137.5" y="454" fill="#fc8d59" class="flag">[0]</text>
 <text x="159.5" y="454" class="taxonLabel">Cotyledion tylodes</text>
 <text x="164" y="466" fill="#fc8d59" class="flag">[0]</text>
 <text x="186" y="466" class="taxonLabel">Phoronis</text>
 <text x="190.5" y="478" fill="#fc8d59" class="flag">[0]</text>
 <text x="212.5" y="478" class="taxonLabel">Flustra</text>
 <text x="217" y="490" fill="#fc8d59" class="flag">[0]</text>
 <text x="239" y="490" class="taxonLabel">Loxosomella</text>
 <text x="270" y="526" fill="#fc8d59" class="flag">[0]</text>
 <text x="292" y="526" class="taxonLabel">Dentalium</text>
 <text x="296.5" y="550" fill="#fc8d59" class="flag">[0]</text>
 <text x="318.5" y="550" class="taxonLabel">Wiwaxia corrugata</text>
 <text x="296.5" y="538" fill="#fc8d59" class="flag">[0]</text>
 <text x="318.5" y="538" class="taxonLabel">Chiton</text>
 <text x="270" y="514" fill="#fc8d59" class="flag">[0]</text>
 <text x="292" y="514" class="taxonLabel">Serpula</text>
 <text x="270" y="502" fill="#fc8d59" class="flag">[0]</text>
 <text x="292" y="502" class="taxonLabel">Sipunculus</text>
 <text x="111" y="34" fill="#fc8d59" class="flag">[0]</text>
 <text x="133" y="34" class="taxonLabel">Heliomedusa orienta</text>
 <text x="164" y="46" fill="#fc8d59" class="flag">[0]</text>
 <text x="186" y="46" class="taxonLabel">Paterimitra</text>
 <text x="190.5" y="70" fill="#fc8d59" class="flag">[0]</text>
 <text x="212.5" y="70" class="taxonLabel">Haplophrentis carinatus</text>
 <text x="190.5" y="58" fill="#fc8d59" class="flag">[0]</text>
 <text x="212.5" y="58" class="taxonLabel">Pedunculotheca diania</text>
 <text x="243.5" y="370" fill="#fc8d59" class="flag">[0]</text>
 <text x="265.5" y="370" class="taxonLabel">Askepasma toddense</text>
 <text x="243.5" y="382" fill="#fc8d59" class="flag">[0]</text>
 <text x="265.5" y="382" class="taxonLabel">Micromitra</text>
 <text x="243.5" y="226" fill="#91bfdb" class="flag">[1]</text>
 <text x="265.5" y="226" class="taxonLabel">Salanygolina</text>
 <text x="296.5" y="250" fill="#91bfdb" class="flag">[1]</text>
 <text x="318.5" y="250" class="taxonLabel">Tomteluva perturbata</text>
 <text x="270" y="238" fill="grey" class="flag">[?]</text>
 <text x="292" y="238" class="taxonLabel">Yuganotheca elegans</text>
 <text x="429" y="298" fill="grey" class="flag">[?]</text>
 <text x="451" y="298" class="taxonLabel">Longtancunella chengjiangensis</text>
 <text x="349.5" y="262" fill="#91bfdb" class="flag">[1]</text>
 <text x="371.5" y="262" class="taxonLabel">Kutorgina chengjiangensis</text>
 <text x="376" y="274" fill="#91bfdb" class="flag">[1]</text>
 <text x="398" y="274" class="taxonLabel">Nisusia sulcata</text>
 <text x="402.5" y="286" fill="#91bfdb" class="flag">[1]</text>
 <text x="424.5" y="286" class="taxonLabel">Glyptoria</text>
 <text x="482" y="322" fill="#91bfdb" class="flag">[1]</text>
 <text x="504" y="322" class="taxonLabel">Orthis</text>
 <text x="482" y="334" fill="#fc8d59" class="flag">[0]</text>
 <text x="504" y="334" class="taxonLabel">Terebratulina</text>
 <text x="455.5" y="310" fill="#91bfdb" class="flag">[1]</text>
 <text x="477.5" y="310" class="taxonLabel">Alisina</text>
 <text x="349.5" y="358" fill="#91bfdb" class="flag">[1]</text>
 <text x="371.5" y="358" class="taxonLabel">Antigonambonites planus</text>
 <text x="349.5" y="346" fill="#91bfdb" class="flag">[1]</text>
 <text x="371.5" y="346" class="taxonLabel">Coolinia pecten</text>
 <text x="217" y="394" fill="#fc8d59" class="flag">[0]</text>
 <text x="239" y="394" class="taxonLabel">Gasconsia</text>
 <text x="243.5" y="406" fill="#fc8d59" class="flag">[0]</text>
 <text x="265.5" y="406" class="taxonLabel">Ussunia</text>
 <text x="270" y="430" fill="#fc8d59" class="flag">[0]</text>
 <text x="292" y="430" class="taxonLabel">Craniops</text>
 <text x="270" y="418" fill="#fc8d59" class="flag">[0]</text>
 <text x="292" y="418" class="taxonLabel">Novocrania</text>
 <text x="217" y="82" fill="#fc8d59" class="flag">[0]</text>
 <text x="239" y="82" class="taxonLabel">Micrina</text>
 <text x="243.5" y="106" fill="#fc8d59" class="flag">[0]</text>
 <text x="265.5" y="106" class="taxonLabel">Pelagodiscus atlanticus</text>
 <text x="243.5" y="94" fill="#fc8d59" class="flag">[0]</text>
 <text x="265.5" y="94" class="taxonLabel">Mickwitzia muralensis</text>
 <text x="217" y="118" fill="#fc8d59" class="flag">[0]</text>
 <text x="239" y="118" class="taxonLabel">Lingula</text>
 <text x="243.5" y="130" fill="#fc8d59" class="flag">[0]</text>
 <text x="265.5" y="130" class="taxonLabel">Eoobolus</text>
 <text x="270" y="142" fill="grey" class="flag">[?]</text>
 <text x="292" y="142" class="taxonLabel">Mummpikia nuda</text>
 <text x="296.5" y="154" fill="#fc8d59" class="flag">[0]</text>
 <text x="318.5" y="154" class="taxonLabel">Botsfordia</text>
 <text x="376" y="190" fill="#fc8d59" class="flag">[0]</text>
 <text x="398" y="190" class="taxonLabel">Lingulosacculus</text>
 <text x="323" y="166" fill="#fc8d59" class="flag">[0]</text>
 <text x="345" y="166" class="taxonLabel">Lingulellotreta malongensis</text>
 <text x="376" y="178" fill="#fc8d59" class="flag">[0]</text>
 <text x="398" y="178" class="taxonLabel">Clupeafumosus socialis</text>
 <text x="376" y="214" fill="#fc8d59" class="flag">[0]</text>
 <text x="398" y="214" class="taxonLabel">Siphonobolus priscus</text>
 <text x="376" y="202" fill="#fc8d59" class="flag">[0]</text>
 <text x="398" y="202" class="taxonLabel">Acanthotretella spinosa</text>
 <path d="M5,75.4V7H31.5M5,75.4V143.9H31.5M31.5,143.9V19H58M31.5,143.9V268.7H58M58,268.7V86.2H84.5M84.5,86.2V31H111M84.5,86.2V141.4H111M111,141.4V52H137.5M137.5,52V43H164M137.5,52V61H164M164,61V55H190.5M164,61V67H190.5M111,141.4V230.8H137.5M137.5,230.8V107.6H164M164,107.6V88H190.5M190.5,88V79H217M190.5,88V97H217M217,97V91H243.5M217,97V103H243.5M164,107.6V127.2H190.5M190.5,127.2V115H217M190.5,127.2V139.4H217M217,139.4V127H243.5M217,139.4V151.8H243.5M243.5,151.8V139H270M243.5,151.8V164.5H270M270,164.5V151H296.5M270,164.5V178H296.5M296.5,178V163H323M296.5,178V193H323M323,193V181H349.5M349.5,181V175H376M349.5,181V187H376M323,193V205H349.5M349.5,205V199H376M349.5,205V211H376M137.5,230.8V354H164M164,354V306.4H190.5M455.5,325V331H482M190.5,306.4V373H217M217,373V367H243.5M217,373V379H243.5M164,354V401.5H190.5M190.5,401.5V391H217M190.5,401.5V412H217M217,412V403H243.5M217,412V421H243.5M243.5,421V415H270M243.5,421V427H270M58,268.7V451.2H84.5M84.5,451.2V439H111M84.5,451.2V463.5H111M111,463.5V451H137.5M111,463.5V475.9H137.5M137.5,475.9V463H164M137.5,475.9V488.9H164M164,488.9V475H190.5M164,488.9V502.8H190.5M190.5,502.8V487H217M190.5,502.8V518.5H217M217,518.5V505H243.5M243.5,505V499H270M243.5,505V511H270M217,518.5V532H243.5M243.5,532V523H270M243.5,532V541H270M270,541V535H296.5M270,541V547H296.5" stroke="#fc8d59"></path>
 <path d="M190.5,306.4V239.9H217M217,239.9V223H243.5M217,239.9V256.7H243.5M243.5,256.7V235H270M243.5,256.7V278.5H270M270,278.5V247H296.5M270,278.5V309.9H296.5M296.5,309.9V270.8H323M323,270.8V259H349.5M323,270.8V282.6H349.5M349.5,282.6V271H376M349.5,282.6V294.2H376M376,294.2V283H402.5M376,294.2V305.5H402.5M402.5,305.5V295H429M402.5,305.5V316H429M429,316V307H455.5M429,316V325H455.5M455.5,325V319H482M296.5,309.9V349H323M323,349V343H349.5M323,349V355H349.5" stroke="#91bfdb"></path>
 <text x="7" y="78.4" class="node" fill="#4A6FE3">1</text>
 <text x="33.5" y="146.9" class="node" fill="#ABB4E2">0.7</text>
 <text x="60" y="271.7" class="node" fill="#CACDE3">0.59</text>
 <text x="86.5" y="89.2" class="node" fill="#4A6FE3">1</text>
 <text x="113" y="144.4" class="node" fill="#5B78E2">0.96</text>
 <text x="139.5" y="55" class="node" fill="#ABB4E2">0.7</text>
 <text x="166" y="64" class="node" fill="#4A6FE3">1</text>
 <text x="139.5" y="233.8" class="node" fill="#5B78E2">0.96</text>
 <text x="166" y="110.6" class="node" fill="#ABB4E2">0.7</text>
 <text x="192.5" y="91" class="node" fill="#ABB4E2">0.7</text>
 <text x="219" y="100" class="node" fill="#ABB4E2">0.7</text>
 <text x="192.5" y="130.2" class="node" fill="#ABB4E2">0.7</text>
 <text x="219" y="142.4" class="node" fill="#ABB4E2">0.7</text>
 <text x="245.5" y="154.8" class="node" fill="#ABB4E2">0.7</text>
 <text x="272" y="167.5" class="node" fill="#ABB4E2">0.7</text>
 <text x="298.5" y="181" class="node" fill="#ABB4E2">0.7</text>
 <text x="325" y="196" class="node" fill="#E6AEB8">0.33</text>
 <text x="351.5" y="184" class="node" fill="#DB6581">0.1</text>
 <text x="351.5" y="208" class="node" fill="#4A6FE3">1</text>
 <text x="166" y="357" class="node" fill="#4A6FE3">1</text>
 <text x="192.5" y="309.4" class="node" fill="#929FE1">0.79</text>
 <text x="219" y="242.9" class="node" fill="#5B78E2">0.96</text>
 <text x="245.5" y="259.7" class="node" fill="#E6C1C7">0.39</text>
 <text x="272" y="281.5" class="node" fill="#D85778">0.06</text>
 <text x="298.5" y="312.9" class="node" fill="#4A6FE3">1</text>
 <text x="325" y="273.8" class="node" fill="#E0E0E2">0.51</text>
 <text x="351.5" y="285.6" class="node" fill="#E0E0E2">0.51</text>
 <text x="378" y="297.2" class="node" fill="#E0E0E2">0.51</text>
 <text x="404.5" y="308.5" class="node" fill="#E0E0E2">0.51</text>
 <text x="431" y="319" class="node" fill="#4A6FE3">1</text>
 <text x="457.5" y="328" class="node" fill="#8F9DE1">0.8</text>
 <text x="325" y="352" class="node" fill="#4A6FE3">1</text>
 <text x="219" y="376" class="node" fill="#4A6FE3">1</text>
 <text x="192.5" y="404.5" class="node" fill="#4A6FE3">1</text>
 <text x="219" y="415" class="node" fill="#4A6FE3">1</text>
 <text x="245.5" y="424" class="node" fill="#4A6FE3">1</text>
 <text x="86.5" y="454.2" class="node" fill="#CACDE3">0.59</text>
 <text x="113" y="466.5" class="node" fill="#E28699">0.2</text>
 <text x="139.5" y="478.9" class="node" fill="#ABB4E2">0.7</text>
 <text x="166" y="491.9" class="node" fill="#ABB4E2">0.7</text>
 <text x="192.5" y="505.8" class="node" fill="#ABB4E2">0.7</text>
 <text x="219" y="521.5" class="node" fill="#ABB4E2">0.7</text>
 <text x="245.5" y="508" class="node" fill="#4A6FE3">1</text>
 <text x="245.5" y="535" class="node" fill="#ABB4E2">0.7</text>
 <text x="272" y="544" class="node" fill="#ABB4E2">0.7</text></svg>
