<svg xmlns="http://www.w3.org/2000/svg" version="1.1" width="682" height="595" class="tree" char="3">
 <text x="678" y="16.6" text-anchor="end" class="stepsLabel">Character adds <tspan class="score">1</tspan> to tree score</text>
 <text x="678" y="30.2" text-anchor="end" class="stepsLabel"><tspan class="score"></tspan> additional region</text>
 <text x="678" y="43.8" text-anchor="end" class="stepsLabel">CI = 1; Fitch CI = 1; Fitch RI = 1</text>
 <text x="678" y="71" text-anchor="end" class="stepsLabel"><tspan dy="16">A most parsimonious tree under:</tspan><tspan x="680" style="font-style:italic" class="thisAn" dy="1.2em">Equal weights</tspan><tspan x="680" style="font-style:italic" class="notThisAn" dy="1.2em">Implied weights, k = 2</tspan><tspan x="680" style="font-style:italic" class="notThisAn" dy="1.2em">Implied weights, k = 3</tspan><tspan x="680" style="font-style:italic" class="notThisAn" dy="1.2em">Implied weights, k = 4.5</tspan><tspan x="680" style="font-style:italic" class="thisAn" dy="1.2em">Implied weights, k = 7</tspan><tspan x="680" style="font-style:italic" class="thisAn" dy="1.2em">Implied weights, k = 10.5</tspan><tspan x="680" style="font-style:italic" class="thisAn" dy="1.2em">Implied weights, k = 16</tspan><tspan x="680" style="font-style:italic" class="thisAn" dy="1.2em">Implied weights, k = 24</tspan></text>
 <text x="42.8" y="15" fill="#fc8d59" class="flag">[0]</text>
 <text x="62.8" y="15" class="taxonLabel">Dailyatia</text>
 <text x="104.2" y="29" fill="#fc8d59" class="flag">[0]</text>
 <text x="124.2" y="29" class="taxonLabel">Eccentrotheca</text>
 <text x="104.2" y="42.9" fill="lightgrey" class="flag">[-]</text>
 <text x="124.2" y="42.9" class="taxonLabel">Phoronis</text>
 <text x="104.2" y="56.9" fill="#fc8d59" class="flag">[0]</text>
 <text x="124.2" y="56.9" class="taxonLabel">Paterimitra</text>
 <text x="165.8" y="84.9" fill="#91bfdb" class="flag">[1]</text>
 <text x="185.8" y="84.9" class="taxonLabel">Pedunculotheca diania</text>
 <text x="165.8" y="70.9" fill="grey" class="flag">[01]</text>
 <text x="185.8" y="70.9" class="taxonLabel">Haplophrentis carinatus</text>
 <text x="227.2" y="98.8" fill="#91bfdb" class="flag">[1]</text>
 <text x="247.2" y="98.8" class="taxonLabel">Gasconsia</text>
 <text x="258" y="112.8" fill="#91bfdb" class="flag">[1]</text>
 <text x="278" y="112.8" class="taxonLabel">Heliomedusa orienta</text>
 <text x="288.8" y="126.8" fill="#91bfdb" class="flag">[1]</text>
 <text x="308.8" y="126.8" class="taxonLabel">Ussunia</text>
 <text x="319.5" y="154.7" fill="#91bfdb" class="flag">[1]</text>
 <text x="339.5" y="154.7" class="taxonLabel">Craniops</text>
 <text x="319.5" y="140.8" fill="#91bfdb" class="flag">[1]</text>
 <text x="339.5" y="140.8" class="taxonLabel">Novocrania</text>
 <text x="227.2" y="168.7" fill="#91bfdb" class="flag">[1]</text>
 <text x="247.2" y="168.7" class="taxonLabel">Pelagodiscus atlanticus</text>
 <text x="258" y="182.7" fill="#91bfdb" class="flag">[1]</text>
 <text x="278" y="182.7" class="taxonLabel">Mickwitzia muralensis</text>
 <text x="288.8" y="196.6" fill="#91bfdb" class="flag">[1]</text>
 <text x="308.8" y="196.6" class="taxonLabel">Micrina</text>
 <text x="319.5" y="210.6" fill="#91bfdb" class="flag">[1]</text>
 <text x="339.5" y="210.6" class="taxonLabel">Lingula</text>
 <text x="350.2" y="224.6" fill="#91bfdb" class="flag">[1]</text>
 <text x="370.2" y="224.6" class="taxonLabel">Eoobolus</text>
 <text x="381" y="238.6" fill="#91bfdb" class="flag">[1]</text>
 <text x="401" y="238.6" class="taxonLabel">Mummpikia nuda</text>
 <text x="411.8" y="252.5" fill="#91bfdb" class="flag">[1]</text>
 <text x="431.8" y="252.5" class="taxonLabel">Botsfordia</text>
 <text x="504" y="294.4" fill="#91bfdb" class="flag">[1]</text>
 <text x="524" y="294.4" class="taxonLabel">Lingulosacculus</text>
 <text x="442.5" y="266.5" fill="#91bfdb" class="flag">[1]</text>
 <text x="462.5" y="266.5" class="taxonLabel">Lingulellotreta malongensis</text>
 <text x="504" y="280.5" fill="#91bfdb" class="flag">[1]</text>
 <text x="524" y="280.5" class="taxonLabel">Clupeafumosus socialis</text>
 <text x="504" y="322.4" fill="#91bfdb" class="flag">[1]</text>
 <text x="524" y="322.4" class="taxonLabel">Acanthotretella spinosa</text>
 <text x="504" y="308.4" fill="#91bfdb" class="flag">[1]</text>
 <text x="524" y="308.4" class="taxonLabel">Siphonobolus priscus</text>
 <text x="227.2" y="518" fill="#91bfdb" class="flag">[1]</text>
 <text x="247.2" y="518" class="taxonLabel">Askepasma toddense</text>
 <text x="227.2" y="504" fill="#91bfdb" class="flag">[1]</text>
 <text x="247.2" y="504" class="taxonLabel">Micromitra</text>
 <text x="258" y="336.4" fill="#91bfdb" class="flag">[1]</text>
 <text x="278" y="336.4" class="taxonLabel">Salanygolina</text>
 <text x="288.8" y="350.3" fill="#91bfdb" class="flag">[1]</text>
 <text x="308.8" y="350.3" class="taxonLabel">Tomteluva perturbata</text>
 <text x="288.8" y="364.3" fill="#91bfdb" class="flag">[1]</text>
 <text x="308.8" y="364.3" class="taxonLabel">Yuganotheca elegans</text>
 <text x="288.8" y="406.2" fill="#91bfdb" class="flag">[1]</text>
 <text x="308.8" y="406.2" class="taxonLabel">Kutorgina chengjiangensis</text>
 <text x="319.5" y="420.2" fill="#91bfdb" class="flag">[1]</text>
 <text x="339.5" y="420.2" class="taxonLabel">Nisusia sulcata</text>
 <text x="350.2" y="434.2" fill="#91bfdb" class="flag">[1]</text>
 <text x="370.2" y="434.2" class="taxonLabel">Glyptoria</text>
 <text x="381" y="448.1" fill="#91bfdb" class="flag">[1]</text>
 <text x="401" y="448.1" class="taxonLabel">Longtancunella chengjiangensis</text>
 <text x="411.8" y="462.1" fill="#91bfdb" class="flag">[1]</text>
 <text x="431.8" y="462.1" class="taxonLabel">Alisina</text>
 <text x="442.5" y="490.1" fill="#91bfdb" class="flag">[1]</text>
 <text x="462.5" y="490.1" class="taxonLabel">Orthis</text>
 <text x="442.5" y="476.1" fill="#91bfdb" class="flag">[1]</text>
 <text x="462.5" y="476.1" class="taxonLabel">Terebratulina</text>
 <text x="288.8" y="392.2" fill="#91bfdb" class="flag">[1]</text>
 <text x="308.8" y="392.2" class="taxonLabel">Coolinia pecten</text>
 <text x="288.8" y="378.3" fill="#91bfdb" class="flag">[1]</text>
 <text x="308.8" y="378.3" class="taxonLabel">Antigonambonites planus</text>
 <path d="M10,43.9V12H40.8M10,43.9V75.8H40.8M40.8,75.8V33H71.5M71.5,33V26H102.2M40.8,75.8V118.7H71.5M71.5,118.7V53.9H102.2" stroke="#fc8d59"></path>
 <path d="M71.5,33V39.9H102.2" stroke="lightgrey" class="inapplicable"></path>
 <path d="M71.5,118.7V183.5H102.2M102.2,183.5V74.9H133M133,74.9V67.9H163.8M133,74.9V81.9H163.8M102.2,183.5V292.1H133M133,292.1V144.3H163.8M163.8,144.3V108.9H194.5M194.5,108.9V95.8H225.2M194.5,108.9V122H225.2M225.2,122V109.8H256M225.2,122V134.3H256M256,134.3V123.8H286.8M256,134.3V144.7H286.8M286.8,144.7V137.8H317.5M286.8,144.7V151.7H317.5M163.8,144.3V179.7H194.5M194.5,179.7V165.7H225.2M194.5,179.7V193.7H225.2M225.2,193.7V179.7H256M225.2,193.7V207.7H256M256,207.7V193.6H286.8M256,207.7V221.8H286.8M286.8,221.8V207.6H317.5M286.8,221.8V236H317.5M317.5,236V221.6H348.2M317.5,236V250.4H348.2M348.2,250.4V235.6H379M348.2,250.4V265.2H379M379,265.2V249.5H409.8M379,265.2V281H409.8M409.8,281V263.5H440.5M409.8,281V298.4H440.5M440.5,298.4V284.5H471.2M471.2,284.5V277.5H502M471.2,284.5V291.4H502M440.5,298.4V312.4H471.2M471.2,312.4V305.4H502M471.2,312.4V319.4H502M133,292.1V439.9H163.8M163.8,439.9V371.7H194.5M194.5,371.7V343.8H225.2M225.2,343.8V333.4H256M225.2,343.8V354.3H256M256,354.3V347.3H286.8M256,354.3V361.3H286.8M194.5,371.7V399.6H225.2M225.2,399.6V382.3H256M256,382.3V375.3H286.8M256,382.3V389.2H286.8M225.2,399.6V417H256M256,417V403.2H286.8M256,417V430.7H286.8M286.8,430.7V417.2H317.5M286.8,430.7V444.3H317.5M317.5,444.3V431.2H348.2M317.5,444.3V457.4H348.2M348.2,457.4V445.1H379M348.2,457.4V469.6H379M379,469.6V459.1H409.8M379,469.6V480.1H409.8M409.8,480.1V473.1H440.5M409.8,480.1V487.1H440.5M163.8,439.9V508H194.5M194.5,508V501H225.2M194.5,508V515H225.2" stroke="#91bfdb"></path></svg>
