<svg xmlns="http://www.w3.org/2000/svg" version="1.1" width="682" height="682" class="tree" data-char="214"><text x="678" y="15.4" text-anchor="end" class="stepsLabel">Character adds <tspan class="score">1</tspan> to tree score</text><text x="678" y="27.8" text-anchor="end" class="stepsLabel"><tspan class="score">0</tspan> additional regions</text><text x="678" y="40.2" text-anchor="end" class="stepsLabel">CI = 1; Fitch CI = 1; Fitch RI = 1</text><text x="678" y="65" text-anchor="end" class="stepsLabel"><tspan dy="16" fill="#34caaf">An optimal tree under:</tspan><tspan x="680" style="font-style:italic" class="notThisAn" dy="1.2em">Equal weights</tspan><tspan x="680" style="font-style:italic" class="notThisAn" dy="1.2em">Implied weights, k = 2</tspan><tspan x="680" style="font-style:italic" class="notThisAn" dy="1.2em">IW, k = 3</tspan><tspan x="680" style="font-style:italic" class="notThisAn" dy="1.2em">IW, k = 4.5</tspan><tspan x="680" style="font-style:italic" class="notThisAn" dy="1.2em">IW, k = 7</tspan><tspan x="680" style="font-style:italic" class="notThisAn" dy="1.2em">IW, k = 10.5</tspan><tspan x="680" style="font-style:italic" class="thisAn" dy="1.2em">IW, k = 16</tspan><tspan x="680" style="font-style:italic" class="notThisAn" dy="1.2em">IW, k = 24</tspan></text><text x="105.4" y="664.4" fill="#fc8d59" class="flag">[0]</text><text x="127.4" y="664.4" fill="#000" class="taxonLabel">Dentalium</text><text x="105.4" y="677" fill="#fc8d59" class="flag">[0]</text><text x="127.4" y="677" fill="#000" class="taxonLabel">Tonicella</text><text x="80.3" y="651.8" fill="grey" class="flag">[?]</text><text x="102.3" y="651.8" fill="#999" class="taxonLabel">Wiwaxia corrugata</text><text x="80.3" y="626.7" fill="#91bfdb" class="flag">[1]</text><text x="102.3" y="626.7" fill="#000" class="taxonLabel">Serpula</text><text x="80.3" y="639.2" fill="#91bfdb" class="flag">[1]</text><text x="102.3" y="639.2" fill="#000" class="taxonLabel">Sipunculus</text><text x="105.4" y="601.5" fill="grey" class="flag">[?]</text><text x="127.4" y="601.5" fill="#999" class="taxonLabel">Amathia</text><text x="105.4" y="614.1" fill="#fc8d59" class="flag">[0]</text><text x="127.4" y="614.1" fill="#000" class="taxonLabel">Flustra</text><text x="381.6" y="576.3" fill="grey" class="flag">[?]</text><text x="403.6" y="576.3" fill="#999" class="taxonLabel">Pauxillites</text><text x="381.6" y="588.9" fill="grey" class="flag">[?]</text><text x="403.6" y="588.9" fill="#999" class="taxonLabel">Maxilites</text><text x="356.5" y="563.7" fill="grey" class="flag">[?]</text><text x="378.5" y="563.7" fill="#999" class="taxonLabel">Haplophrentis carinatus</text><text x="331.4" y="551.2" fill="grey" class="flag">[?]</text><text x="353.4" y="551.2" fill="#999" class="taxonLabel">Paramicrocornus</text><text x="331.4" y="526" fill="grey" class="flag">[?]</text><text x="353.4" y="526" fill="#999" class="taxonLabel">Bactrotheca</text><text x="331.4" y="538.6" fill="grey" class="flag">[?]</text><text x="353.4" y="538.6" fill="#999" class="taxonLabel">Conotheca</text><text x="281.2" y="513.4" fill="grey" class="flag">[?]</text><text x="303.2" y="513.4" fill="#999" class="taxonLabel">Cupitheca holocyclata</text><text x="256.1" y="500.8" fill="grey" class="flag">[?]</text><text x="278.1" y="500.8" fill="#999" class="taxonLabel">Pedunculotheca diania</text><text x="331.4" y="475.6" fill="grey" class="flag">[?]</text><text x="353.4" y="475.6" fill="#999" class="taxonLabel">Micromitra</text><text x="331.4" y="488.2" fill="grey" class="flag">[?]</text><text x="353.4" y="488.2" fill="#999" class="taxonLabel">Askepasma toddense</text><text x="482" y="450.5" fill="grey" class="flag">[?]</text><text x="504" y="450.5" fill="#999" class="taxonLabel">Orthis</text><text x="482" y="463.1" fill="#fc8d59" class="flag">[0]</text><text x="504" y="463.1" fill="#000" class="taxonLabel">Terebratulina</text><text x="456.9" y="437.9" fill="grey" class="flag">[?]</text><text x="478.9" y="437.9" fill="#999" class="taxonLabel">Alisina</text><text x="431.8" y="425.3" fill="grey" class="flag">[?]</text><text x="453.8" y="425.3" fill="#999" class="taxonLabel">Glyptoria</text><text x="406.7" y="412.7" fill="grey" class="flag">[?]</text><text x="428.7" y="412.7" fill="#999" class="taxonLabel">Tomteluva perturbata</text><text x="406.7" y="387.5" fill="grey" class="flag">[?]</text><text x="428.7" y="387.5" fill="#999" class="taxonLabel">Nisusia sulcata</text><text x="406.7" y="400.1" fill="grey" class="flag">[?]</text><text x="428.7" y="400.1" fill="#999" class="taxonLabel">Kutorgina chengjiangensis</text><text x="431.8" y="362.4" fill="grey" class="flag">[?]</text><text x="453.8" y="362.4" fill="#999" class="taxonLabel">Coolinia pecten</text><text x="431.8" y="375" fill="grey" class="flag">[?]</text><text x="453.8" y="375" fill="#999" class="taxonLabel">Antigonambonites planus</text><text x="406.7" y="349.8" fill="grey" class="flag">[?]</text><text x="428.7" y="349.8" fill="#999" class="taxonLabel">Yuganotheca elegans</text><text x="381.6" y="337.2" fill="grey" class="flag">[?]</text><text x="403.6" y="337.2" fill="#999" class="taxonLabel">Longtancunella chengjiangensis</text><text x="331.4" y="324.6" fill="grey" class="flag">[?]</text><text x="353.4" y="324.6" fill="#999" class="taxonLabel">Salanygolina</text><text x="406.7" y="299.5" fill="grey" class="flag">[?]</text><text x="428.7" y="299.5" fill="#999" class="taxonLabel">Mummpikia nuda</text><text x="406.7" y="312" fill="grey" class="flag">[?]</text><text x="428.7" y="312" fill="#999" class="taxonLabel">Botsfordia</text><text x="381.6" y="286.9" fill="grey" class="flag">[?]</text><text x="403.6" y="286.9" fill="#999" class="taxonLabel">Eoobolus</text><text x="431.8" y="261.7" fill="grey" class="flag">[?]</text><text x="453.8" y="261.7" fill="#999" class="taxonLabel">Acanthotretella spinosa</text><text x="431.8" y="274.3" fill="grey" class="flag">[?]</text><text x="453.8" y="274.3" fill="#999" class="taxonLabel">Siphonobolus priscus</text><text x="431.8" y="236.5" fill="grey" class="flag">[?]</text><text x="453.8" y="236.5" fill="#999" class="taxonLabel">Lingulosacculus</text><text x="431.8" y="249.1" fill="grey" class="flag">[?]</text><text x="453.8" y="249.1" fill="#999" class="taxonLabel">Clupeafumosus socialis</text><text x="406.7" y="211.4" fill="grey" class="flag">[?]</text><text x="428.7" y="211.4" fill="#999" class="taxonLabel">Lingulellotreta malongensis</text><text x="406.7" y="223.9" fill="#fc8d59" class="flag">[0]</text><text x="428.7" y="223.9" fill="#000" class="taxonLabel">Lingula</text><text x="356.5" y="186.2" fill="#fc8d59" class="flag">[0]</text><text x="378.5" y="186.2" fill="#000" class="taxonLabel">Pelagodiscus atlanticus</text><text x="356.5" y="198.8" fill="grey" class="flag">[?]</text><text x="378.5" y="198.8" fill="#999" class="taxonLabel">Mickwitzia muralensis</text><text x="406.7" y="161" fill="#fc8d59" class="flag">[0]</text><text x="428.7" y="161" fill="#000" class="taxonLabel">Novocrania</text><text x="406.7" y="173.6" fill="grey" class="flag">[?]</text><text x="428.7" y="173.6" fill="#999" class="taxonLabel">Craniops</text><text x="381.6" y="148.4" fill="grey" class="flag">[?]</text><text x="403.6" y="148.4" fill="#999" class="taxonLabel">Ussunia</text><text x="356.5" y="135.8" fill="grey" class="flag">[?]</text><text x="378.5" y="135.8" fill="#999" class="taxonLabel">Heliomedusa orienta</text><text x="331.4" y="123.3" fill="grey" class="flag">[?]</text><text x="353.4" y="123.3" fill="#999" class="taxonLabel">Gasconsia</text><text x="256.1" y="110.7" fill="grey" class="flag">[?]</text><text x="278.1" y="110.7" fill="#999" class="taxonLabel">Micrina</text><text x="205.8" y="98.1" fill="grey" class="flag">[?]</text><text x="227.8" y="98.1" fill="#999" class="taxonLabel">Paterimitra</text><text x="180.7" y="85.5" fill="grey" class="flag">[?]</text><text x="202.7" y="85.5" fill="#999" class="taxonLabel">Halkieria evangelista</text><text x="155.6" y="72.9" fill="grey" class="flag">[?]</text><text x="177.6" y="72.9" fill="#999" class="taxonLabel">Dailyatia</text><text x="155.6" y="47.8" fill="grey" class="flag">[?]</text><text x="177.6" y="47.8" fill="#999" class="taxonLabel">Cotyledion tylodes</text><text x="155.6" y="60.3" fill="grey" class="flag">[?]</text><text x="177.6" y="60.3" fill="#999" class="taxonLabel">Eccentrotheca</text><text x="130.5" y="22.6" fill="grey" class="flag">[?]</text><text x="152.5" y="22.6" fill="#999" class="taxonLabel">Namacalathus</text><text x="130.5" y="35.2" fill="#fc8d59" class="flag">[0]</text><text x="152.5" y="35.2" fill="#000" class="taxonLabel">Phoronis</text><text x="55.2" y="10" fill="grey" class="flag">[?]</text><text x="77.2" y="10" fill="#999" class="taxonLabel">Loxosomella</text><path d="M5,406.1V168.1H30.1M30.1,168.1V7H55.2M30.1,168.1V329.3H55.2M55.2,329.3V53.7H80.3M80.3,53.7V25.9H105.4M105.4,25.9V19.6H130.5M105.4,25.9V32.2H130.5M80.3,53.7V81.6H105.4M105.4,81.6V51H130.5M130.5,51V44.8H155.6M130.5,51V57.3H155.6M105.4,81.6V112.1H130.5M130.5,112.1V69.9H155.6M130.5,112.1V154.4H155.6M155.6,154.4V82.5H180.7M155.6,154.4V226.2H180.7M180.7,226.2V95.1H205.8M180.7,226.2V357.3H205.8M205.8,357.3V202.1H230.9M230.9,202.1V107.7H256.1M230.9,202.1V296.5H256.1M256.1,296.5V179.3H281.2M281.2,179.3V132.1H306.3M306.3,132.1V120.3H331.4M306.3,132.1V143.9H331.4M331.4,143.9V132.8H356.5M331.4,143.9V154.9H356.5M356.5,154.9V145.4H381.6M356.5,154.9V164.3H381.6M381.6,164.3V158H406.7M381.6,164.3V170.6H406.7M281.2,179.3V226.4H306.3M306.3,226.4V189.5H331.4M331.4,189.5V183.2H356.5M331.4,189.5V195.8H356.5M306.3,226.4V263.4H331.4M331.4,263.4V233.5H356.5M356.5,233.5V214.7H381.6M381.6,214.7V208.4H406.7M381.6,214.7V220.9H406.7M356.5,233.5V252.4H381.6M381.6,252.4V239.8H406.7M406.7,239.8V233.5H431.8M406.7,239.8V246.1H431.8M381.6,252.4V265H406.7M406.7,265V258.7H431.8M406.7,265V271.3H431.8M331.4,263.4V293.3H356.5M356.5,293.3V283.9H381.6M356.5,293.3V302.7H381.6M381.6,302.7V296.5H406.7M381.6,302.7V309H406.7M256.1,296.5V413.8H281.2M281.2,413.8V348.7H306.3M306.3,348.7V321.6H331.4M306.3,348.7V375.7H331.4M331.4,375.7V345.2H356.5M356.5,345.2V334.2H381.6M356.5,345.2V356.2H381.6M381.6,356.2V346.8H406.7M381.6,356.2V365.7H406.7M406.7,365.7V359.4H431.8M406.7,365.7V372H431.8M331.4,375.7V406.2H356.5M356.5,406.2V390.8H381.6M381.6,390.8V384.5H406.7M381.6,390.8V397.1H406.7M356.5,406.2V421.5H381.6M381.6,421.5V409.7H406.7M381.6,421.5V433.3H406.7M406.7,433.3V422.3H431.8M406.7,433.3V444.3H431.8M431.8,444.3V434.9H456.9M431.8,444.3V453.8H456.9M456.9,453.8V447.5H482M456.9,453.8V460.1H482M281.2,413.8V478.9H306.3M306.3,478.9V472.6H331.4M306.3,478.9V485.2H331.4M205.8,357.3V512.6H230.9M230.9,512.6V497.8H256.1M230.9,512.6V527.3H256.1M256.1,527.3V510.4H281.2M256.1,527.3V544.2H281.2M281.2,544.2V529.3H306.3M306.3,529.3V523H331.4M306.3,529.3V535.6H331.4M281.2,544.2V559.2H306.3M306.3,559.2V548.2H331.4M306.3,559.2V570.2H331.4M331.4,570.2V560.7H356.5M331.4,570.2V579.6H356.5M356.5,579.6V573.3H381.6M356.5,579.6V585.9H381.6M55.2,329.3V604.8H80.3M80.3,604.8V598.5H105.4M80.3,604.8V611.1H105.4M5,406.1V644.1H30.1M30.1,644.1V658.3H55.2M55.2,658.3V648.8H80.3M55.2,658.3V667.7H80.3M80.3,667.7V661.4H105.4M80.3,667.7V674H105.4" stroke="#fc8d59"></path><path d="M30.1,644.1V630H55.2M55.2,630V623.7H80.3M55.2,630V636.2H80.3" stroke="#91bfdb"></path><text x="7" y="409.1" class="node" fill="#4A6FE3">1</text><text x="32.1" y="171.1" class="node" fill="#4A6FE3">1</text><text x="57.2" y="332.3" class="node" fill="#4A6FE3">1</text><text x="82.3" y="56.7" class="node" fill="#4A6FE3">1</text><text x="107.4" y="28.9" class="node" fill="#E6C1C7">0.39</text><text x="107.4" y="84.6" class="node" fill="#7388E1">0.89</text><text x="132.5" y="54" class="node" fill="#E59FAC">0.29</text><text x="132.5" y="115.1" class="node" fill="#A8B1E2">0.71</text><text x="157.6" y="157.4" class="node" fill="#7388E1">0.89</text><text x="182.7" y="229.2" class="node" fill="#7388E1">0.89</text><text x="207.8" y="360.3" class="node" fill="#A8B1E2">0.71</text><text x="232.9" y="205.1" class="node" fill="#8998E1">0.82</text><text x="258.1" y="299.5" class="node" fill="#CFD2E3">0.58</text><text x="283.2" y="182.3" class="node" fill="#CFD2E3">0.58</text><text x="308.3" y="135.1" class="node" fill="#AEB6E2">0.69</text><text x="333.4" y="146.9" class="node" fill="#E5A5B1">0.3</text><text x="358.5" y="157.9" class="node" fill="#8998E1">0.82</text><text x="383.6" y="167.3" class="node" fill="#8998E1">0.82</text><text x="308.3" y="229.4" class="node" fill="#7A8DE1">0.87</text><text x="333.4" y="192.5" class="node" fill="#E6BAC2">0.37</text><text x="333.4" y="266.4" class="node" fill="#9AA6E2">0.76</text><text x="358.5" y="236.5" class="node" fill="#E17F94">0.18</text><text x="383.6" y="217.7" class="node" fill="#E17F94">0.18</text><text x="383.6" y="255.4" class="node" fill="#DDDEE3">0.52</text><text x="408.7" y="242.8" class="node" fill="#E2899B">0.21</text><text x="408.7" y="268" class="node" fill="#4A6FE3">1</text><text x="358.5" y="296.3" class="node" fill="#D2D4E3">0.57</text><text x="383.6" y="305.7" class="node" fill="#E17F94">0.18</text><text x="283.2" y="416.8" class="node" fill="#9AA6E2">0.76</text><text x="308.3" y="351.7" class="node" fill="#7A8DE1">0.87</text><text x="333.4" y="378.7" class="node" fill="#BCC2E3">0.64</text><text x="358.5" y="348.2" class="node" fill="#E6BAC2">0.37</text><text x="383.6" y="359.2" class="node" fill="#E6BAC2">0.37</text><text x="408.7" y="368.7" class="node" fill="#4A6FE3">1</text><text x="358.5" y="409.2" class="node" fill="#E6BAC2">0.37</text><text x="383.6" y="393.8" class="node" fill="#8998E1">0.82</text><text x="383.6" y="424.5" class="node" fill="#E6BAC2">0.37</text><text x="408.7" y="436.3" class="node" fill="#9AA6E2">0.76</text><text x="433.8" y="447.3" class="node" fill="#4A6FE3">1</text><text x="458.9" y="456.8" class="node" fill="#8C9BE1">0.81</text><text x="308.3" y="481.9" class="node" fill="#768BE1">0.88</text><text x="232.9" y="515.6" class="node" fill="#7388E1">0.89</text><text x="258.1" y="530.3" class="node" fill="#7388E1">0.89</text><text x="283.2" y="547.2" class="node" fill="#D2D4E3">0.57</text><text x="308.3" y="532.3" class="node" fill="#667FE1">0.93</text><text x="308.3" y="562.2" class="node" fill="#4A6FE3">1</text><text x="333.4" y="573.2" class="node" fill="#4A6FE3">1</text><text x="358.5" y="582.6" class="node" fill="#4A6FE3">1</text><text x="82.3" y="607.8" class="node" fill="#4A6FE3">1</text><text x="32.1" y="647.1" class="node" fill="#4A6FE3">1</text><text x="57.2" y="633" class="node" fill="#4A6FE3">1</text><text x="57.2" y="661.3" class="node" fill="#4A6FE3">1</text><text x="82.3" y="670.7" class="node" fill="#4A6FE3">1</text></svg>
