<svg xmlns="http://www.w3.org/2000/svg" version="1.1" width="682" height="612" class="tree" data-char="145"><text x="678" y="15.7" text-anchor="end" class="stepsLabel">Character adds <tspan class="score">2</tspan> to tree score</text><text x="678" y="28.4" text-anchor="end" class="stepsLabel"><tspan class="score">0</tspan> additional regions</text><text x="678" y="41.1" text-anchor="end" class="stepsLabel">CI = 1; Fitch CI = 1; Fitch RI = 1</text><text x="678" y="66.5" text-anchor="end" class="stepsLabel"><tspan dy="16">An optimal tree under:</tspan><tspan x="680" style="font-style:italic" class="thisAn" dy="1.2em">Equal weights</tspan><tspan x="680" style="font-style:italic" class="notThisAn" dy="1.2em">Implied weights, k = 2</tspan><tspan x="680" style="font-style:italic" class="notThisAn" dy="1.2em">IW, k = 3</tspan><tspan x="680" style="font-style:italic" class="notThisAn" dy="1.2em">IW, k = 4.5</tspan><tspan x="680" style="font-style:italic" class="notThisAn" dy="1.2em">IW, k = 7</tspan><tspan x="680" style="font-style:italic" class="notThisAn" dy="1.2em">IW, k = 10.5</tspan><tspan x="680" style="font-style:italic" class="notThisAn" dy="1.2em">IW, k = 16</tspan><tspan x="680" style="font-style:italic" class="notThisAn" dy="1.2em">IW, k = 24</tspan></text><text x="88" y="594" fill="#fdae61" class="flag">[1]</text><text x="110" y="594" fill="#000" class="taxonLabel">Dentalium</text><text x="88" y="607" fill="#fdae61" class="flag">[1]</text><text x="110" y="607" fill="#000" class="taxonLabel">Tonicella</text><text x="67.2" y="581" fill="grey" class="flag">[?]</text><text x="89.2" y="581" fill="grey" class="taxonLabel">Wiwaxia corrugata</text><text x="67.2" y="555.1" fill="#fdae61" class="flag">[1]</text><text x="89.2" y="555.1" fill="#000" class="taxonLabel">Serpula</text><text x="67.2" y="568.1" fill="#fdae61" class="flag">[1]</text><text x="89.2" y="568.1" fill="#000" class="taxonLabel">Sipunculus</text><text x="253.9" y="516.2" fill="grey" class="flag">[?]</text><text x="275.9" y="516.2" fill="grey" class="taxonLabel">Haplophrentis carinatus</text><text x="253.9" y="529.1" fill="grey" class="flag">[?]</text><text x="275.9" y="529.1" fill="grey" class="taxonLabel">Pedunculotheca diania</text><text x="482" y="490.2" fill="grey" class="flag">[?]</text><text x="504" y="490.2" fill="grey" class="taxonLabel">Orthis</text><text x="482" y="503.2" fill="grey" class="flag">[?]</text><text x="504" y="503.2" fill="grey" class="taxonLabel">Terebratulina</text><text x="461.3" y="477.2" fill="grey" class="flag">[?]</text><text x="483.3" y="477.2" fill="grey" class="taxonLabel">Alisina</text><text x="440.5" y="464.2" fill="grey" class="flag">[?]</text><text x="462.5" y="464.2" fill="grey" class="taxonLabel">Longtancunella chengjiangensis</text><text x="419.8" y="451.3" fill="grey" class="flag">[?]</text><text x="441.8" y="451.3" fill="grey" class="taxonLabel">Glyptoria</text><text x="399" y="438.3" fill="grey" class="flag">[?]</text><text x="421" y="438.3" fill="grey" class="taxonLabel">Nisusia sulcata</text><text x="378.3" y="425.3" fill="grey" class="flag">[?]</text><text x="400.3" y="425.3" fill="grey" class="taxonLabel">Kutorgina chengjiangensis</text><text x="378.3" y="399.3" fill="grey" class="flag">[?]</text><text x="400.3" y="399.3" fill="grey" class="taxonLabel">Antigonambonites planus</text><text x="378.3" y="412.3" fill="grey" class="flag">[?]</text><text x="400.3" y="412.3" fill="grey" class="taxonLabel">Coolinia pecten</text><text x="357.6" y="373.4" fill="grey" class="flag">[?]</text><text x="379.6" y="373.4" fill="grey" class="taxonLabel">Tomteluva perturbata</text><text x="357.6" y="386.4" fill="grey" class="flag">[?]</text><text x="379.6" y="386.4" fill="grey" class="taxonLabel">Yuganotheca elegans</text><text x="316.1" y="360.4" fill="grey" class="flag">[?]</text><text x="338.1" y="360.4" fill="grey" class="taxonLabel">Salanygolina</text><text x="336.8" y="334.5" fill="grey" class="flag">[?]</text><text x="358.8" y="334.5" fill="grey" class="taxonLabel">Gasconsia</text><text x="336.8" y="347.4" fill="grey" class="flag">[?]</text><text x="358.8" y="347.4" fill="grey" class="taxonLabel">Micromitra</text><text x="316.1" y="321.5" fill="grey" class="flag">[?]</text><text x="338.1" y="321.5" fill="grey" class="taxonLabel">Askepasma toddense</text><text x="440.5" y="295.5" fill="grey" class="flag">[?]</text><text x="462.5" y="295.5" fill="grey" class="taxonLabel">Acanthotretella spinosa</text><text x="440.5" y="308.5" fill="grey" class="flag">[?]</text><text x="462.5" y="308.5" fill="grey" class="taxonLabel">Siphonobolus priscus</text><text x="419.8" y="282.5" fill="grey" class="flag">[?]</text><text x="441.8" y="282.5" fill="grey" class="taxonLabel">Clupeafumosus socialis</text><text x="419.8" y="256.6" fill="grey" class="flag">[?]</text><text x="441.8" y="256.6" fill="grey" class="taxonLabel">Lingulosacculus</text><text x="419.8" y="269.6" fill="grey" class="flag">[?]</text><text x="441.8" y="269.6" fill="grey" class="taxonLabel">Lingulellotreta malongensis</text><text x="378.3" y="243.6" fill="grey" class="flag">[?]</text><text x="400.3" y="243.6" fill="grey" class="taxonLabel">Botsfordia</text><text x="357.6" y="230.6" fill="grey" class="flag">[?]</text><text x="379.6" y="230.6" fill="grey" class="taxonLabel">Mummpikia nuda</text><text x="336.8" y="217.7" fill="grey" class="flag">[?]</text><text x="358.8" y="217.7" fill="grey" class="taxonLabel">Eoobolus</text><text x="316.1" y="204.7" fill="#2c7bb6" class="flag">[3]</text><text x="338.1" y="204.7" fill="#000" class="taxonLabel">Lingula</text><text x="336.8" y="178.7" fill="grey" class="flag">[?]</text><text x="358.8" y="178.7" fill="grey" class="taxonLabel">Mickwitzia muralensis</text><text x="336.8" y="191.7" fill="grey" class="flag">[?]</text><text x="358.8" y="191.7" fill="grey" class="taxonLabel">Pelagodiscus atlanticus</text><text x="316.1" y="165.7" fill="grey" class="flag">[?]</text><text x="338.1" y="165.7" fill="grey" class="taxonLabel">Micrina</text><text x="253.9" y="152.8" fill="grey" class="flag">[?]</text><text x="275.9" y="152.8" fill="grey" class="taxonLabel">Paterimitra</text><text x="212.4" y="139.8" fill="grey" class="flag">[?]</text><text x="234.4" y="139.8" fill="grey" class="taxonLabel">Heliomedusa orienta</text><text x="233.1" y="113.8" fill="#2c7bb6" class="flag">[3]</text><text x="255.1" y="113.8" fill="#000" class="taxonLabel">Novocrania</text><text x="233.1" y="126.8" fill="grey" class="flag">[?]</text><text x="255.1" y="126.8" fill="grey" class="taxonLabel">Craniops</text><text x="212.4" y="100.8" fill="grey" class="flag">[?]</text><text x="234.4" y="100.8" fill="grey" class="taxonLabel">Ussunia</text><text x="170.9" y="87.9" fill="grey" class="flag">[?]</text><text x="192.9" y="87.9" fill="grey" class="taxonLabel">Halkieria evangelista</text><text x="170.9" y="61.9" fill="grey" class="flag">[?]</text><text x="192.9" y="61.9" fill="grey" class="taxonLabel">Eccentrotheca</text><text x="170.9" y="74.9" fill="grey" class="flag">[?]</text><text x="192.9" y="74.9" fill="grey" class="taxonLabel">Dailyatia</text><text x="129.4" y="48.9" fill="grey" class="flag">[?]</text><text x="151.4" y="48.9" fill="grey" class="taxonLabel">Cotyledion tylodes</text><text x="108.7" y="36" fill="grey" class="flag">[?]</text><text x="130.7" y="36" fill="grey" class="taxonLabel">Namacalathus</text><text x="88" y="23" fill="#abd9e9" class="flag">[2]</text><text x="110" y="23" fill="#000" class="taxonLabel">Phoronis</text><text x="67.2" y="10" fill="#abd9e9" class="flag">[2]</text><text x="89.2" y="10" fill="#000" class="taxonLabel">Flustra</text><text x="46.5" y="542.1" fill="#abd9e9" class="flag">[2]</text><text x="68.5" y="542.1" fill="#000" class="taxonLabel">Loxosomella</text><path d="M5,426.8V280.4H25.7M25.7,280.4V21.7H46.5M46.5,21.7V7H67.2M46.5,21.7V36.3H67.2M67.2,36.3V20H88M67.2,36.3V52.7H88M25.7,280.4V539.1H46.5" stroke="#abd9e9"></path><path d="M88,52.7V33H108.7M88,52.7V72.4H108.7M108.7,72.4V45.9H129.4M108.7,72.4V98.8H129.4M129.4,98.8V65.4H150.2M150.2,65.4V58.9H170.9M150.2,65.4V71.9H170.9M129.4,98.8V132.1H150.2M150.2,132.1V84.9H170.9" stroke="darkgrey"></path><path d="M150.2,132.1V179.4H170.9M170.9,179.4V107.6H191.7M191.7,107.6V97.8H212.4M191.7,107.6V117.3H212.4M212.4,117.3V110.8H233.1M212.4,117.3V123.8H233.1M170.9,179.4V251.2H191.7M191.7,251.2V136.8H212.4M191.7,251.2V365.6H212.4M212.4,365.6V211.6H233.1M233.1,211.6V149.8H253.9M233.1,211.6V273.4H253.9M253.9,273.4V193.8H274.6M274.6,193.8V172.5H295.3M295.3,172.5V162.7H316.1M295.3,172.5V182.2H316.1M316.1,182.2V175.7H336.8M316.1,182.2V188.7H336.8M274.6,193.8V215.2H295.3M295.3,215.2V201.7H316.1M295.3,215.2V228.6H316.1M316.1,228.6V214.7H336.8M316.1,228.6V242.6H336.8M336.8,242.6V227.6H357.6M336.8,242.6V257.6H357.6M357.6,257.6V240.6H378.3M357.6,257.6V274.7H378.3M378.3,274.7V260.1H399M399,260.1V253.6H419.8M399,260.1V266.6H419.8M378.3,274.7V289.3H399M399,289.3V279.5H419.8M399,289.3V299H419.8M419.8,299V292.5H440.5M419.8,299V305.5H440.5M253.9,273.4V352.9H274.6M274.6,352.9V328.2H295.3M295.3,328.2V318.5H316.1M295.3,328.2V337.9H316.1M316.1,337.9V331.5H336.8M316.1,337.9V344.4H336.8M274.6,352.9V377.7H295.3M295.3,377.7V357.4H316.1M295.3,377.7V397.9H316.1M316.1,397.9V376.9H336.8M336.8,376.9V370.4H357.6M336.8,376.9V383.4H357.6M316.1,397.9V419H336.8M336.8,419V402.8H357.6M357.6,402.8V396.3H378.3M357.6,402.8V409.3H378.3M336.8,419V435.1H357.6M357.6,435.1V422.3H378.3M357.6,435.1V447.9H378.3M378.3,447.9V435.3H399M378.3,447.9V460.4H399M399,460.4V448.3H419.8M399,460.4V472.6H419.8M419.8,472.6V461.2H440.5M419.8,472.6V484H440.5M440.5,484V474.2H461.3M440.5,484V493.7H461.3M461.3,493.7V487.2H482M461.3,493.7V500.2H482M212.4,365.6V519.6H233.1M233.1,519.6V513.2H253.9M233.1,519.6V526.1H253.9" stroke="#2c7bb6"></path><path d="M5,426.8V573.2H25.7M25.7,573.2V558.6H46.5M46.5,558.6V552.1H67.2M46.5,558.6V565.1H67.2M25.7,573.2V587.8H46.5M46.5,587.8V578H67.2M46.5,587.8V597.5H67.2M67.2,597.5V591H88M67.2,597.5V604H88" stroke="#fdae61"></path><text x="7" y="429.8" class="node" fill="#4A6FE3">1</text><text x="27.7" y="283.4" class="node" fill="#4A6FE3">1</text><text x="48.5" y="24.7" class="node" fill="#6D84E1">0.91</text><text x="69.2" y="39.3" class="node" fill="#6D84E1">0.91</text><text x="90" y="55.7" class="node" fill="#E38FA0">0.23</text><text x="110.7" y="75.4" class="node" fill="#6D84E1">0.91</text><text x="131.4" y="101.8" class="node" fill="#E5A8B3">0.31</text><text x="152.2" y="68.4" class="node" fill="#DD6C86">0.12</text><text x="152.2" y="135.1" class="node" fill="#E5CACE">0.42</text><text x="172.9" y="182.4" class="node" fill="#4A6FE3">1</text><text x="193.7" y="110.6" class="node" fill="#667FE1">0.93</text><text x="214.4" y="120.3" class="node" fill="#4A6FE3">1</text><text x="193.7" y="254.2" class="node" fill="#D2D4E3">0.56</text><text x="214.4" y="368.6" class="node" fill="#D2D4E3">0.56</text><text x="235.1" y="214.6" class="node" fill="#E6AEB8">0.33</text><text x="255.9" y="276.4" class="node" fill="#D2D4E3">0.56</text><text x="276.6" y="196.8" class="node" fill="#D2D4E3">0.56</text><text x="297.3" y="175.5" class="node" fill="#D2D4E3">0.56</text><text x="318.1" y="185.2" class="node" fill="#4A6FE3">1</text><text x="297.3" y="218.2" class="node" fill="#4A6FE3">1</text><text x="318.1" y="231.6" class="node" fill="#D2D4E3">0.57</text><text x="338.8" y="245.6" class="node" fill="#D2D4E3">0.56</text><text x="359.6" y="260.6" class="node" fill="#D2D4E3">0.56</text><text x="380.3" y="277.7" class="node" fill="#D2D4E3">0.56</text><text x="401" y="263.1" class="node" fill="#DD6F88">0.13</text><text x="401" y="292.3" class="node" fill="#DDDEE3">0.52</text><text x="421.8" y="302" class="node" fill="#4A6FE3">1</text><text x="276.6" y="355.9" class="node" fill="#D2D4E3">0.56</text><text x="297.3" y="331.2" class="node" fill="#E38FA0">0.23</text><text x="318.1" y="340.9" class="node" fill="#E6B1BB">0.34</text><text x="297.3" y="380.7" class="node" fill="#4A6FE3">1</text><text x="318.1" y="400.9" class="node" fill="#E392A2">0.24</text><text x="338.8" y="379.9" class="node" fill="#8394E1">0.84</text><text x="338.8" y="422" class="node" fill="#8998E1">0.82</text><text x="359.6" y="405.8" class="node" fill="#4A6FE3">1</text><text x="359.6" y="438.1" class="node" fill="#929FE1">0.79</text><text x="380.3" y="450.9" class="node" fill="#929FE1">0.79</text><text x="401" y="463.4" class="node" fill="#768BE1">0.88</text><text x="421.8" y="475.6" class="node" fill="#768BE1">0.88</text><text x="442.5" y="487" class="node" fill="#4A6FE3">1</text><text x="463.3" y="496.7" class="node" fill="#6982E1">0.92</text><text x="235.1" y="522.6" class="node" fill="#4A6FE3">1</text><text x="27.7" y="576.2" class="node" fill="#4A6FE3">1</text><text x="48.5" y="561.6" class="node" fill="#4A6FE3">1</text><text x="48.5" y="590.8" class="node" fill="#4A6FE3">1</text><text x="69.2" y="600.5" class="node" fill="#8F9DE1">0.8</text></svg>
