<svg xmlns="http://www.w3.org/2000/svg" version="1.1" width="682" height="612" class="tree" data-char="60"><text x="678" y="15.7" text-anchor="end" class="stepsLabel">Character adds <tspan class="score">3</tspan> to tree score</text><text x="678" y="28.4" text-anchor="end" class="stepsLabel"><tspan class="score">0</tspan> additional regions</text><text x="678" y="41.1" text-anchor="end" class="stepsLabel">CI = 0.33; Fitch CI = 0.33; Fitch RI = 0</text><text x="678" y="66.5" text-anchor="end" class="stepsLabel"><tspan dy="16">An optimal tree under:</tspan><tspan x="680" style="font-style:italic" class="thisAn" dy="1.2em">Equal weights</tspan><tspan x="680" style="font-style:italic" class="notThisAn" dy="1.2em">Implied weights, k = 2</tspan><tspan x="680" style="font-style:italic" class="notThisAn" dy="1.2em">IW, k = 3</tspan><tspan x="680" style="font-style:italic" class="notThisAn" dy="1.2em">IW, k = 4.5</tspan><tspan x="680" style="font-style:italic" class="notThisAn" dy="1.2em">IW, k = 7</tspan><tspan x="680" style="font-style:italic" class="notThisAn" dy="1.2em">IW, k = 10.5</tspan><tspan x="680" style="font-style:italic" class="notThisAn" dy="1.2em">IW, k = 16</tspan><tspan x="680" style="font-style:italic" class="notThisAn" dy="1.2em">IW, k = 24</tspan></text><text x="76.6" y="594" fill="#fc8d59" class="flag">[0]</text><text x="98.6" y="594" fill="#000" class="taxonLabel">Sipunculus</text><text x="76.6" y="607" fill="#fc8d59" class="flag">[0]</text><text x="98.6" y="607" fill="#000" class="taxonLabel">Serpula</text><text x="100.4" y="568.1" fill="#fc8d59" class="flag">[0]</text><text x="122.4" y="568.1" fill="#000" class="taxonLabel">Tonicella</text><text x="100.4" y="581" fill="#fc8d59" class="flag">[0]</text><text x="122.4" y="581" fill="#000" class="taxonLabel">Dentalium</text><text x="76.6" y="555.1" fill="#fc8d59" class="flag">[0]</text><text x="98.6" y="555.1" fill="#000" class="taxonLabel">Wiwaxia corrugata</text><text x="458.2" y="516.2" fill="#fc8d59" class="flag">[0]</text><text x="480.2" y="516.2" fill="#000" class="taxonLabel">Siphonobolus priscus</text><text x="458.2" y="529.1" fill="#fc8d59" class="flag">[0]</text><text x="480.2" y="529.1" fill="#000" class="taxonLabel">Acanthotretella spinosa</text><text x="434.3" y="503.2" fill="#fc8d59" class="flag">[0]</text><text x="456.3" y="503.2" fill="#000" class="taxonLabel">Clupeafumosus socialis</text><text x="410.5" y="490.2" fill="#fc8d59" class="flag">[0]</text><text x="432.5" y="490.2" fill="#000" class="taxonLabel">Lingulosacculus</text><text x="386.6" y="477.2" fill="#fc8d59" class="flag">[0]</text><text x="408.6" y="477.2" fill="#000" class="taxonLabel">Lingulellotreta malongensis</text><text x="362.8" y="464.2" fill="#fc8d59" class="flag">[0]</text><text x="384.8" y="464.2" fill="#000" class="taxonLabel">Botsfordia</text><text x="338.9" y="451.3" fill="#fc8d59" class="flag">[0]</text><text x="360.9" y="451.3" fill="#000" class="taxonLabel">Mummpikia nuda</text><text x="315.1" y="438.3" fill="#fc8d59" class="flag">[0]</text><text x="337.1" y="438.3" fill="#000" class="taxonLabel">Eoobolus</text><text x="291.2" y="425.3" fill="#fc8d59" class="flag">[0]</text><text x="313.2" y="425.3" fill="#000" class="taxonLabel">Lingula</text><text x="315.1" y="399.3" fill="#fc8d59" class="flag">[0]</text><text x="337.1" y="399.3" fill="#000" class="taxonLabel">Pelagodiscus atlanticus</text><text x="315.1" y="412.3" fill="#fc8d59" class="flag">[0]</text><text x="337.1" y="412.3" fill="#000" class="taxonLabel">Mickwitzia muralensis</text><text x="291.2" y="386.4" fill="#fc8d59" class="flag">[0]</text><text x="313.2" y="386.4" fill="#000" class="taxonLabel">Micrina</text><text x="315.1" y="360.4" fill="#fc8d59" class="flag">[0]</text><text x="337.1" y="360.4" fill="#000" class="taxonLabel">Micromitra</text><text x="315.1" y="373.4" fill="#fc8d59" class="flag">[0]</text><text x="337.1" y="373.4" fill="#000" class="taxonLabel">Askepasma toddense</text><text x="362.8" y="334.5" fill="#fc8d59" class="flag">[0]</text><text x="384.8" y="334.5" fill="#000" class="taxonLabel">Tomteluva perturbata</text><text x="362.8" y="347.4" fill="#fc8d59" class="flag">[0]</text><text x="384.8" y="347.4" fill="#000" class="taxonLabel">Yuganotheca elegans</text><text x="338.9" y="321.5" fill="#fc8d59" class="flag">[0]</text><text x="360.9" y="321.5" fill="#000" class="taxonLabel">Salanygolina</text><text x="482" y="295.5" fill="#fc8d59" class="flag">[0]</text><text x="504" y="295.5" fill="#000" class="taxonLabel">Alisina</text><text x="482" y="308.5" fill="#fc8d59" class="flag">[0]</text><text x="504" y="308.5" fill="#000" class="taxonLabel">Terebratulina</text><text x="458.2" y="282.5" fill="#fc8d59" class="flag">[0]</text><text x="480.2" y="282.5" fill="#000" class="taxonLabel">Orthis</text><text x="434.3" y="269.6" fill="#fc8d59" class="flag">[0]</text><text x="456.3" y="269.6" fill="#000" class="taxonLabel">Glyptoria</text><text x="410.5" y="256.6" fill="#fc8d59" class="flag">[0]</text><text x="432.5" y="256.6" fill="#000" class="taxonLabel">Nisusia sulcata</text><text x="386.6" y="243.6" fill="#fc8d59" class="flag">[0]</text><text x="408.6" y="243.6" fill="#000" class="taxonLabel">Kutorgina chengjiangensis</text><text x="386.6" y="217.7" fill="#fc8d59" class="flag">[0]</text><text x="408.6" y="217.7" fill="#000" class="taxonLabel">Antigonambonites planus</text><text x="386.6" y="230.6" fill="#fc8d59" class="flag">[0]</text><text x="408.6" y="230.6" fill="#000" class="taxonLabel">Coolinia pecten</text><text x="338.9" y="204.7" fill="#fc8d59" class="flag">[0]</text><text x="360.9" y="204.7" fill="#000" class="taxonLabel">Longtancunella chengjiangensis</text><text x="267.4" y="191.7" fill="#fc8d59" class="flag">[0]</text><text x="289.4" y="191.7" fill="#000" class="taxonLabel">Gasconsia</text><text x="267.4" y="165.7" fill="#fc8d59" class="flag">[0]</text><text x="289.4" y="165.7" fill="#000" class="taxonLabel">Pedunculotheca diania</text><text x="267.4" y="178.7" fill="grey" class="flag">[?]</text><text x="289.4" y="178.7" fill="grey" class="taxonLabel">Haplophrentis carinatus</text><text x="243.5" y="152.8" fill="#91bfdb" class="flag">[1]</text><text x="265.5" y="152.8" fill="#000" class="taxonLabel">Paterimitra</text><text x="195.8" y="139.8" fill="#fc8d59" class="flag">[0]</text><text x="217.8" y="139.8" fill="#000" class="taxonLabel">Heliomedusa orienta</text><text x="219.7" y="113.8" fill="#fc8d59" class="flag">[0]</text><text x="241.7" y="113.8" fill="#000" class="taxonLabel">Craniops</text><text x="219.7" y="126.8" fill="#fc8d59" class="flag">[0]</text><text x="241.7" y="126.8" fill="#000" class="taxonLabel">Novocrania</text><text x="195.8" y="100.8" fill="#fc8d59" class="flag">[0]</text><text x="217.8" y="100.8" fill="#000" class="taxonLabel">Ussunia</text><text x="148.1" y="87.9" fill="#91bfdb" class="flag">[1]</text><text x="170.1" y="87.9" fill="#000" class="taxonLabel">Halkieria evangelista</text><text x="172" y="61.9" fill="#91bfdb" class="flag">[1]</text><text x="194" y="61.9" fill="#000" class="taxonLabel">Dailyatia</text><text x="172" y="74.9" fill="#fc8d59" class="flag">[0]</text><text x="194" y="74.9" fill="#000" class="taxonLabel">Eccentrotheca</text><text x="148.1" y="48.9" fill="#fc8d59" class="flag">[0]</text><text x="170.1" y="48.9" fill="#000" class="taxonLabel">Cotyledion tylodes</text><text x="124.2" y="23" fill="#fc8d59" class="flag">[0]</text><text x="146.2" y="23" fill="#000" class="taxonLabel">Phoronis</text><text x="124.2" y="36" fill="#fc8d59" class="flag">[0]</text><text x="146.2" y="36" fill="#000" class="taxonLabel">Namacalathus</text><text x="76.6" y="10" fill="#fc8d59" class="flag">[0]</text><text x="98.6" y="10" fill="#000" class="taxonLabel">Flustra</text><text x="52.7" y="542.1" fill="#fc8d59" class="flag">[0]</text><text x="74.7" y="542.1" fill="#000" class="taxonLabel">Loxosomella</text><path d="M5,432.5V285.4H28.9M28.9,285.4V31.7H52.7M52.7,31.7V7H76.6M52.7,31.7V56.5H76.6M76.6,56.5V26.5H100.4M100.4,26.5V20H124.2M100.4,26.5V33H124.2M76.6,56.5V86.5H100.4M100.4,86.5V55.7H124.2M124.2,55.7V45.9H148.1M124.2,55.7V65.4H148.1M148.1,65.4V71.9H172M100.4,86.5V117.3H124.2M124.2,117.3V149.7H148.1M148.1,149.7V107.6H172M172,107.6V97.8H195.8M172,107.6V117.3H195.8M195.8,117.3V110.8H219.7M195.8,117.3V123.8H219.7M148.1,149.7V191.8H172M172,191.8V136.8H195.8M172,191.8V246.7H195.8M195.8,246.7V159.5H219.7M219.7,159.5V169.2H243.5M243.5,169.2V162.7H267.4M243.5,169.2V175.7H267.4M195.8,246.7V334H219.7M219.7,334V253.8H243.5M243.5,253.8V188.7H267.4M243.5,253.8V318.9H267.4M267.4,318.9V273.8H291.2M291.2,273.8V219.4H315.1M315.1,219.4V201.7H338.9M315.1,219.4V237.2H338.9M338.9,237.2V221.1H362.8M362.8,221.1V214.7H386.6M362.8,221.1V227.6H386.6M338.9,237.2V253.2H362.8M362.8,253.2V240.6H386.6M362.8,253.2V265.8H386.6M386.6,265.8V253.6H410.5M386.6,265.8V277.9H410.5M410.5,277.9V266.6H434.3M410.5,277.9V289.3H434.3M434.3,289.3V279.5H458.2M434.3,289.3V299H458.2M458.2,299V292.5H482M458.2,299V305.5H482M291.2,273.8V328.2H315.1M315.1,328.2V318.5H338.9M315.1,328.2V337.9H338.9M338.9,337.9V331.5H362.8M338.9,337.9V344.4H362.8M267.4,318.9V363.9H291.2M291.2,363.9V357.4H315.1M291.2,363.9V370.4H315.1M219.7,334V414.2H243.5M243.5,414.2V393.1H267.4M267.4,393.1V383.4H291.2M267.4,393.1V402.8H291.2M291.2,402.8V396.3H315.1M291.2,402.8V409.3H315.1M243.5,414.2V435.2H267.4M267.4,435.2V422.3H291.2M267.4,435.2V448.2H291.2M291.2,448.2V435.3H315.1M291.2,448.2V461H315.1M315.1,461V448.3H338.9M315.1,461V473.8H338.9M338.9,473.8V461.2H362.8M338.9,473.8V486.4H362.8M362.8,486.4V474.2H386.6M362.8,486.4V498.6H386.6M386.6,498.6V487.2H410.5M386.6,498.6V509.9H410.5M410.5,509.9V500.2H434.3M410.5,509.9V519.6H434.3M434.3,519.6V513.2H458.2M434.3,519.6V526.1H458.2M28.9,285.4V539.1H52.7M5,432.5V579.7H28.9M28.9,579.7V561.8H52.7M52.7,561.8V552.1H76.6M52.7,561.8V571.6H76.6M76.6,571.6V565.1H100.4M76.6,571.6V578H100.4M28.9,579.7V597.5H52.7M52.7,597.5V591H76.6M52.7,597.5V604H76.6" stroke="#fc8d59"></path><path d="M148.1,65.4V58.9H172M124.2,117.3V84.9H148.1M219.7,159.5V149.8H243.5" stroke="#91bfdb"></path><text x="7" y="435.5" class="node" fill="#4A6FE3">1</text><text x="30.9" y="288.4" class="node" fill="#4A6FE3">1</text><text x="54.7" y="34.7" class="node" fill="#4A6FE3">1</text><text x="78.6" y="59.5" class="node" fill="#4A6FE3">1</text><text x="102.4" y="29.5" class="node" fill="#627DE1">0.94</text><text x="102.4" y="89.5" class="node" fill="#4A6FE3">1</text><text x="126.2" y="58.7" class="node" fill="#D54C71">0.03</text><text x="150.1" y="68.4" class="node" fill="#DA5E7D">0.08</text><text x="126.2" y="120.3" class="node" fill="#E5A8B3">0.31</text><text x="150.1" y="152.7" class="node" fill="#4A6FE3">1</text><text x="174" y="110.6" class="node" fill="#A0ABE2">0.74</text><text x="197.8" y="120.3" class="node" fill="#4A6FE3">1</text><text x="174" y="194.8" class="node" fill="#8394E1">0.84</text><text x="197.8" y="249.7" class="node" fill="#8394E1">0.84</text><text x="221.7" y="162.5" class="node" fill="#E6BAC2">0.37</text><text x="245.5" y="172.2" class="node" fill="#4A6FE3">1</text><text x="221.7" y="337" class="node" fill="#8394E1">0.84</text><text x="245.5" y="256.8" class="node" fill="#8394E1">0.84</text><text x="269.4" y="321.9" class="node" fill="#E28699">0.2</text><text x="293.2" y="276.8" class="node" fill="#4A6FE3">1</text><text x="317.1" y="222.4" class="node" fill="#6982E1">0.92</text><text x="340.9" y="240.2" class="node" fill="#ABB4E2">0.7</text><text x="364.8" y="224.1" class="node" fill="#4A6FE3">1</text><text x="364.8" y="256.2" class="node" fill="#ABB4E2">0.7</text><text x="388.6" y="268.8" class="node" fill="#ABB4E2">0.7</text><text x="412.5" y="280.9" class="node" fill="#ABB4E2">0.7</text><text x="436.3" y="292.3" class="node" fill="#4A6FE3">1</text><text x="460.2" y="302" class="node" fill="#E6B1BB">0.34</text><text x="317.1" y="331.2" class="node" fill="#8998E1">0.82</text><text x="340.9" y="340.9" class="node" fill="#5374E2">0.98</text><text x="293.2" y="366.9" class="node" fill="#E6BDC5">0.38</text><text x="245.5" y="417.2" class="node" fill="#8091E1">0.85</text><text x="269.4" y="396.1" class="node" fill="#8091E1">0.85</text><text x="293.2" y="405.8" class="node" fill="#4A6FE3">1</text><text x="269.4" y="438.2" class="node" fill="#4A6FE3">1</text><text x="293.2" y="451.2" class="node" fill="#4A6FE3">1</text><text x="317.1" y="464" class="node" fill="#8091E1">0.85</text><text x="340.9" y="476.8" class="node" fill="#8091E1">0.85</text><text x="364.8" y="489.4" class="node" fill="#8091E1">0.85</text><text x="388.6" y="501.6" class="node" fill="#A6AFE2">0.72</text><text x="412.5" y="512.9" class="node" fill="#DDDEE3">0.52</text><text x="436.3" y="522.6" class="node" fill="#4A6FE3">1</text><text x="30.9" y="582.7" class="node" fill="#4A6FE3">1</text><text x="54.7" y="564.8" class="node" fill="#4A6FE3">1</text><text x="78.6" y="574.6" class="node" fill="#4A6FE3">1</text><text x="54.7" y="600.5" class="node" fill="#4A6FE3">1</text></svg>
