<svg xmlns="http://www.w3.org/2000/svg" version="1.1" width="682" height="682" class="tree" data-char="108"><text x="678" y="15.4" text-anchor="end" class="stepsLabel">Character adds <tspan class="score">3</tspan> to tree score (<tspan class="score fitch">2</tspan> with Fitch)</text><text x="678" y="27.8" text-anchor="end" class="stepsLabel"><tspan class="score">1</tspan> additional region (not counted by Fitch)</text><text x="678" y="40.2" text-anchor="end" class="stepsLabel">CI = 0.33; Fitch CI = 0.5; Fitch RI = 0.67</text><text x="678" y="65" text-anchor="end" class="stepsLabel"><tspan dy="16" fill="#34caaf">An optimal tree under:</tspan><tspan x="680" style="font-style:italic" class="thisAn" dy="1.2em">Equal weights</tspan><tspan x="680" style="font-style:italic" class="notThisAn" dy="1.2em">Implied weights, k = 3</tspan><tspan x="680" style="font-style:italic" class="notThisAn" dy="1.2em">IW, k = 4.5</tspan><tspan x="680" style="font-style:italic" class="notThisAn" dy="1.2em">IW, k = 7</tspan><tspan x="680" style="font-style:italic" class="notThisAn" dy="1.2em">IW, k = 10.5</tspan><tspan x="680" style="font-style:italic" class="notThisAn" dy="1.2em">IW, k = 16</tspan><tspan x="680" style="font-style:italic" class="notThisAn" dy="1.2em">IW, k = 24</tspan></text><text x="67.2" y="664.4" fill="lightgrey" class="flag">[-]</text><text x="89.2" y="664.4" fill="#ccc" class="taxonLabel">Sipunculus</text><text x="67.2" y="677" fill="lightgrey" class="flag">[-]</text><text x="89.2" y="677" fill="#ccc" class="taxonLabel">Serpula</text><text x="88" y="639.2" fill="#91bfdb" class="flag">[2]</text><text x="110" y="639.2" fill="#000" class="taxonLabel">Tonicella</text><text x="88" y="651.8" fill="lightgrey" class="flag">[-]</text><text x="110" y="651.8" fill="#ccc" class="taxonLabel">Dentalium</text><text x="67.2" y="626.7" fill="lightgrey" class="flag">[-]</text><text x="89.2" y="626.7" fill="#ccc" class="taxonLabel">Wiwaxia corrugata</text><text x="482" y="601.5" fill="#91bfdb" class="flag">[2]</text><text x="504" y="601.5" fill="#000" class="taxonLabel">Terebratulina</text><text x="482" y="614.1" fill="#91bfdb" class="flag">[2]</text><text x="504" y="614.1" fill="#000" class="taxonLabel">Orthis</text><text x="461.3" y="588.9" fill="#91bfdb" class="flag">[2]</text><text x="483.3" y="588.9" fill="#000" class="taxonLabel">Alisina</text><text x="440.5" y="576.3" fill="#91bfdb" class="flag">[2]</text><text x="462.5" y="576.3" fill="#000" class="taxonLabel">Longtancunella chengjiangensis</text><text x="419.8" y="563.7" fill="#91bfdb" class="flag">[2]</text><text x="441.8" y="563.7" fill="#000" class="taxonLabel">Glyptoria</text><text x="399" y="551.2" fill="#91bfdb" class="flag">[2]</text><text x="421" y="551.2" fill="#000" class="taxonLabel">Tomteluva perturbata</text><text x="399" y="526" fill="#91bfdb" class="flag">[2]</text><text x="421" y="526" fill="#000" class="taxonLabel">Kutorgina chengjiangensis</text><text x="399" y="538.6" fill="#91bfdb" class="flag">[2]</text><text x="421" y="538.6" fill="#000" class="taxonLabel">Nisusia sulcata</text><text x="378.3" y="500.8" fill="#91bfdb" class="flag">[2]</text><text x="400.3" y="500.8" fill="#000" class="taxonLabel">Antigonambonites planus</text><text x="378.3" y="513.4" fill="#91bfdb" class="flag">[2]</text><text x="400.3" y="513.4" fill="#000" class="taxonLabel">Coolinia pecten</text><text x="336.8" y="488.2" fill="#91bfdb" class="flag">[2]</text><text x="358.8" y="488.2" fill="#000" class="taxonLabel">Salanygolina</text><text x="336.8" y="463.1" fill="#91bfdb" class="flag">[2]</text><text x="358.8" y="463.1" fill="#000" class="taxonLabel">Askepasma toddense</text><text x="336.8" y="475.6" fill="#91bfdb" class="flag">[2]</text><text x="358.8" y="475.6" fill="#000" class="taxonLabel">Micromitra</text><text x="419.8" y="437.9" fill="#e2e2a2" class="flag">[1]</text><text x="441.8" y="437.9" fill="#000" class="taxonLabel">Mummpikia nuda</text><text x="419.8" y="450.5" fill="lightgrey" class="flag">[-]</text><text x="441.8" y="450.5" fill="#ccc" class="taxonLabel">Pelagodiscus atlanticus</text><text x="482" y="412.7" fill="#91bfdb" class="flag">[2]</text><text x="504" y="412.7" fill="#000" class="taxonLabel">Siphonobolus priscus</text><text x="482" y="425.3" fill="#91bfdb" class="flag">[2]</text><text x="504" y="425.3" fill="#000" class="taxonLabel">Acanthotretella spinosa</text><text x="461.3" y="400.1" fill="grey" class="flag">[?]</text><text x="483.3" y="400.1" fill="#999" class="taxonLabel">Lingulosacculus</text><text x="440.5" y="387.5" fill="#91bfdb" class="flag">[2]</text><text x="462.5" y="387.5" fill="#000" class="taxonLabel">Clupeafumosus socialis</text><text x="419.8" y="375" fill="#e2e2a2" class="flag">[1]</text><text x="441.8" y="375" fill="#000" class="taxonLabel">Lingulellotreta malongensis</text><text x="378.3" y="362.4" fill="#e2e2a2" class="flag">[1]</text><text x="400.3" y="362.4" fill="#000" class="taxonLabel">Botsfordia</text><text x="357.6" y="349.8" fill="#e2e2a2" class="flag">[1]</text><text x="379.6" y="349.8" fill="#000" class="taxonLabel">Eoobolus</text><text x="336.8" y="337.2" fill="#91bfdb" class="flag">[2]</text><text x="358.8" y="337.2" fill="#000" class="taxonLabel">Lingula</text><text x="378.3" y="312" fill="lightgrey" class="flag">[-]</text><text x="400.3" y="312" fill="#ccc" class="taxonLabel">Novocrania</text><text x="378.3" y="324.6" fill="lightgrey" class="flag">[-]</text><text x="400.3" y="324.6" fill="#ccc" class="taxonLabel">Craniops</text><text x="357.6" y="299.5" fill="lightgrey" class="flag">[-]</text><text x="379.6" y="299.5" fill="#ccc" class="taxonLabel">Ussunia</text><text x="336.8" y="286.9" fill="#91bfdb" class="flag">[2]</text><text x="358.8" y="286.9" fill="#000" class="taxonLabel">Gasconsia</text><text x="316.1" y="261.7" fill="#91bfdb" class="flag">[2]</text><text x="338.1" y="261.7" fill="#000" class="taxonLabel">Mickwitzia muralensis</text><text x="316.1" y="274.3" fill="#91bfdb" class="flag">[2]</text><text x="338.1" y="274.3" fill="#000" class="taxonLabel">Heliomedusa orienta</text><text x="295.3" y="249.1" fill="#91bfdb" class="flag">[2]</text><text x="317.3" y="249.1" fill="#000" class="taxonLabel">Micrina</text><text x="253.9" y="236.5" fill="#91bfdb" class="flag">[2]</text><text x="275.9" y="236.5" fill="#000" class="taxonLabel">Yuganotheca elegans</text><text x="316.1" y="211.4" fill="#91bfdb" class="flag">[2]</text><text x="338.1" y="211.4" fill="#000" class="taxonLabel">Pauxillites</text><text x="316.1" y="223.9" fill="#91bfdb" class="flag">[2]</text><text x="338.1" y="223.9" fill="#000" class="taxonLabel">Maxilites</text><text x="295.3" y="198.8" fill="#91bfdb" class="flag">[2]</text><text x="317.3" y="198.8" fill="#000" class="taxonLabel">Haplophrentis carinatus</text><text x="336.8" y="173.6" fill="lightgrey" class="flag">[-]</text><text x="358.8" y="173.6" fill="#ccc" class="taxonLabel">Bactrotheca</text><text x="336.8" y="186.2" fill="lightgrey" class="flag">[-]</text><text x="358.8" y="186.2" fill="#ccc" class="taxonLabel">Conotheca</text><text x="316.1" y="161" fill="lightgrey" class="flag">[-]</text><text x="338.1" y="161" fill="#ccc" class="taxonLabel">Cupitheca holocyclata</text><text x="295.3" y="148.4" fill="#91bfdb" class="flag">[2]</text><text x="317.3" y="148.4" fill="#000" class="taxonLabel">Paramicrocornus</text><text x="253.9" y="135.8" fill="#91bfdb" class="flag">[2]</text><text x="275.9" y="135.8" fill="#000" class="taxonLabel">Pedunculotheca diania</text><text x="212.4" y="123.3" fill="#91bfdb" class="flag">[2]</text><text x="234.4" y="123.3" fill="#000" class="taxonLabel">Paterimitra</text><text x="191.7" y="110.7" fill="#91bfdb" class="flag">[2]</text><text x="213.7" y="110.7" fill="#000" class="taxonLabel">Halkieria evangelista</text><text x="170.9" y="98.1" fill="lightgrey" class="flag">[-]</text><text x="192.9" y="98.1" fill="#ccc" class="taxonLabel">Dailyatia</text><text x="150.2" y="85.5" fill="lightgrey" class="flag">[-]</text><text x="172.2" y="85.5" fill="#ccc" class="taxonLabel">Eccentrotheca</text><text x="129.4" y="72.9" fill="lightgrey" class="flag">[-]</text><text x="151.4" y="72.9" fill="#ccc" class="taxonLabel">Cotyledion tylodes</text><text x="108.7" y="60.3" fill="lightgrey" class="flag">[-]</text><text x="130.7" y="60.3" fill="#ccc" class="taxonLabel">Phoronis</text><text x="88" y="47.8" fill="lightgrey" class="flag">[-]</text><text x="110" y="47.8" fill="#ccc" class="taxonLabel">Namacalathus</text><text x="88" y="22.6" fill="lightgrey" class="flag">[-]</text><text x="110" y="22.6" fill="#ccc" class="taxonLabel">Amathia</text><text x="88" y="35.2" fill="lightgrey" class="flag">[-]</text><text x="110" y="35.2" fill="#ccc" class="taxonLabel">Flustra</text><text x="46.5" y="10" fill="lightgrey" class="flag">[-]</text><text x="68.5" y="10" fill="#ccc" class="taxonLabel">Loxosomella</text><path d="M5,337.4V24.4H25.7M25.7,24.4V7H46.5M25.7,24.4V41.9H46.5M46.5,41.9V25.9H67.2M67.2,25.9V19.6H88M67.2,25.9V32.2H88M46.5,41.9V57.9H67.2M67.2,57.9V44.8H88M67.2,57.9V71.1H88M88,71.1V57.3H108.7M88,71.1V84.8H108.7M108.7,84.8V69.9H129.4M108.7,84.8V99.7H129.4M129.4,99.7V82.5H150.2M129.4,99.7V116.9H150.2M150.2,116.9V95.1H170.9M274.6,156.4V167.5H295.3M295.3,167.5V158H316.1M295.3,167.5V176.9H316.1M316.1,176.9V170.6H336.8M316.1,176.9V183.2H336.8M316.1,294.9V305.9H336.8M336.8,305.9V296.5H357.6M336.8,305.9V315.3H357.6M357.6,315.3V309H378.3M357.6,315.3V321.6H378.3M399,441.2V447.5H419.8M5,337.4V650.4H25.7M25.7,650.4V633.1H46.5M46.5,633.1V623.7H67.2M46.5,633.1V642.5H67.2M67.2,642.5V648.8H88M25.7,650.4V667.7H46.5M46.5,667.7V661.4H67.2M46.5,667.7V674H67.2" stroke="lightgrey" class="inapplicable"></path><path d="M150.2,116.9V138.7H170.9M170.9,138.7V107.7H191.7M170.9,138.7V169.8H191.7M191.7,169.8V120.3H212.4M191.7,169.8V219.3H212.4M212.4,219.3V156.8H233.1M233.1,156.8V132.8H253.9M233.1,156.8V180.8H253.9M253.9,180.8V156.4H274.6M274.6,156.4V145.4H295.3M253.9,180.8V205.2H274.6M274.6,205.2V195.8H295.3M274.6,205.2V214.7H295.3M295.3,214.7V208.4H316.1M295.3,214.7V220.9H316.1M212.4,219.3V281.7H233.1M233.1,281.7V233.5H253.9M233.1,281.7V329.8H253.9M253.9,329.8V255.6H274.6M274.6,255.6V246.1H295.3M274.6,255.6V265H295.3M295.3,265V258.7H316.1M295.3,265V271.3H316.1M253.9,329.8V404.1H274.6M274.6,404.1V322.6H295.3M295.3,322.6V294.9H316.1M316.1,294.9V283.9H336.8M295.3,322.6V350.3H316.1M316.1,350.3V334.2H336.8M399,383.8V395.6H419.8M419.8,395.6V384.5H440.5M419.8,395.6V406.6H440.5M440.5,406.6V397.1H461.3M440.5,406.6V416H461.3M461.3,416V409.7H482M461.3,416V422.3H482M274.6,404.1V485.6H295.3M295.3,485.6V466.3H316.1M316.1,466.3V460.1H336.8M316.1,466.3V472.6H336.8M295.3,485.6V504.8H316.1M316.1,504.8V485.2H336.8M316.1,504.8V524.5H336.8M336.8,524.5V504.1H357.6M357.6,504.1V497.8H378.3M357.6,504.1V510.4H378.3M336.8,524.5V544.8H357.6M357.6,544.8V529.3H378.3M378.3,529.3V523H399M378.3,529.3V535.6H399M357.6,544.8V560.3H378.3M378.3,560.3V548.2H399M378.3,560.3V572.5H399M399,572.5V560.7H419.8M399,572.5V584.3H419.8M419.8,584.3V573.3H440.5M419.8,584.3V595.3H440.5M440.5,595.3V585.9H461.3M440.5,595.3V604.8H461.3M461.3,604.8V598.5H482M461.3,604.8V611.1H482M67.2,642.5V636.2H88" stroke="#91bfdb"></path><path d="M316.1,350.3V366.4H336.8M336.8,366.4V346.8H357.6M336.8,366.4V385.9H357.6M357.6,385.9V359.4H378.3M357.6,385.9V412.5H378.3M378.3,412.5V383.8H399M399,383.8V372H419.8M378.3,412.5V441.2H399M399,441.2V434.9H419.8" stroke="#e2e2a2"></path><text x="27.7" y="27.4" class="node" fill="#4A6FE3">1</text><text x="48.5" y="44.9" class="node" fill="#4A6FE3">1</text><text x="69.2" y="28.9" class="node" fill="red">NA</text><text x="69.2" y="60.9" class="node" fill="red">NA</text><text x="90" y="74.1" class="node" fill="#4A6FE3">1</text><text x="110.7" y="87.8" class="node" fill="red">NA</text><text x="131.4" y="102.7" class="node" fill="red">NA</text><text x="152.2" y="119.9" class="node" fill="red">NA</text><text x="172.9" y="141.7" class="node" fill="red">NA</text><text x="193.7" y="172.8" class="node" fill="red">NA</text><text x="214.4" y="222.3" class="node" fill="red">NA</text><text x="235.1" y="159.8" class="node" fill="red">NA</text><text x="255.9" y="183.8" class="node" fill="red">NA</text><text x="276.6" y="159.4" class="node" fill="red">NA</text><text x="297.3" y="170.5" class="node" fill="red">NA</text><text x="318.1" y="179.9" class="node" fill="red">NA</text><text x="276.6" y="208.2" class="node" fill="#5F7BE1">0.95</text><text x="297.3" y="217.7" class="node" fill="#4A6FE3">1</text><text x="235.1" y="284.7" class="node" fill="red">NA</text><text x="255.9" y="332.8" class="node" fill="red">NA</text><text x="276.6" y="258.6" class="node" fill="red">NA</text><text x="297.3" y="268" class="node" fill="red">NA</text><text x="276.6" y="407.1" class="node" fill="#5F7BE1">0.95</text><text x="297.3" y="325.6" class="node" fill="#5F7BE1">0.95</text><text x="318.1" y="297.9" class="node" fill="red">NA</text><text x="338.8" y="308.9" class="node" fill="red">NA</text><text x="359.6" y="318.3" class="node" fill="red">NA</text><text x="318.1" y="353.3" class="node" fill="red">NA</text><text x="338.8" y="369.4" class="node" fill="red">NA</text><text x="359.6" y="388.9" class="node" fill="red">NA</text><text x="380.3" y="415.5" class="node" fill="red">NA</text><text x="401" y="386.8" class="node" fill="red">NA</text><text x="421.8" y="398.6" class="node" fill="red">NA</text><text x="442.5" y="409.6" class="node" fill="red">NA</text><text x="463.3" y="419" class="node" fill="red">NA</text><text x="401" y="444.2" class="node" fill="red">NA</text><text x="297.3" y="488.6" class="node" fill="red">NA</text><text x="318.1" y="469.3" class="node" fill="red">NA</text><text x="318.1" y="507.8" class="node" fill="red">NA</text><text x="338.8" y="527.5" class="node" fill="red">NA</text><text x="359.6" y="507.1" class="node" fill="red">NA</text><text x="359.6" y="547.8" class="node" fill="red">NA</text><text x="380.3" y="532.3" class="node" fill="#4A6FE3">1</text><text x="380.3" y="563.3" class="node" fill="red">NA</text><text x="401" y="575.5" class="node" fill="red">NA</text><text x="421.8" y="587.3" class="node" fill="red">NA</text><text x="442.5" y="598.3" class="node" fill="red">NA</text><text x="463.3" y="607.8" class="node" fill="red">NA</text><text x="27.7" y="653.4" class="node" fill="red">NA</text><text x="48.5" y="636.1" class="node" fill="red">NA</text><text x="69.2" y="645.5" class="node" fill="red">NA</text><text x="48.5" y="670.7" class="node" fill="red">NA</text></svg>
