<svg xmlns="http://www.w3.org/2000/svg" version="1.1" width="682" height="555" class="tree" char="57">
 <text x="678" y="17.6" text-anchor="end" class="stepsLabel">Character adds <tspan class="score">2</tspan> to tree score</text>
 <text x="678" y="32.2" text-anchor="end" class="stepsLabel"><tspan class="score"></tspan> additional region</text>
 <text x="678" y="46.8" text-anchor="end" class="stepsLabel">CI = 0.5; Fitch CI = 0.5; Fitch RI = 0</text>
 <text x="678" y="76" text-anchor="end" class="stepsLabel"><tspan dy="16">An optimal tree under:</tspan><tspan x="680" style="font-style:italic" class="thisAn" dy="1.2em">Equal weights</tspan><tspan x="680" style="font-style:italic" class="notThisAn" dy="1.2em">Implied weights, k = 2</tspan><tspan x="680" style="font-style:italic" class="notThisAn" dy="1.2em">IW, k = 3</tspan><tspan x="680" style="font-style:italic" class="notThisAn" dy="1.2em">IW, k = 4.5</tspan><tspan x="680" style="font-style:italic" class="notThisAn" dy="1.2em">IW, k = 7</tspan><tspan x="680" style="font-style:italic" class="notThisAn" dy="1.2em">IW, k = 10.5</tspan><tspan x="680" style="font-style:italic" class="notThisAn" dy="1.2em">IW, k = 16</tspan><tspan x="680" style="font-style:italic" class="notThisAn" dy="1.2em">IW, k = 24</tspan></text>
 <text x="31.5" y="10" fill="#fc8d59" class="flag">[0]</text>
 <text x="53.5" y="10" class="taxonLabel">Dailyatia</text>
 <text x="58" y="25" fill="#fc8d59" class="flag">[0]</text>
 <text x="80" y="25" class="taxonLabel">Eccentrotheca</text>
 <text x="84.5" y="40" fill="#91bfdb" class="flag">[1]</text>
 <text x="106.5" y="40" class="taxonLabel">Phoronis</text>
 <text x="111" y="55" fill="#fc8d59" class="flag">[0]</text>
 <text x="133" y="55" class="taxonLabel">Paterimitra</text>
 <text x="164" y="535" fill="#fc8d59" class="flag">[0]</text>
 <text x="186" y="535" class="taxonLabel">Pedunculotheca diania</text>
 <text x="164" y="550" fill="#fc8d59" class="flag">[0]</text>
 <text x="186" y="550" class="taxonLabel">Haplophrentis carinatus</text>
 <text x="217" y="280" fill="#fc8d59" class="flag">[0]</text>
 <text x="239" y="280" class="taxonLabel">Gasconsia</text>
 <text x="243.5" y="295" fill="#fc8d59" class="flag">[0]</text>
 <text x="265.5" y="295" class="taxonLabel">Heliomedusa orienta</text>
 <text x="270" y="310" fill="#fc8d59" class="flag">[0]</text>
 <text x="292" y="310" class="taxonLabel">Ussunia</text>
 <text x="296.5" y="340" fill="#fc8d59" class="flag">[0]</text>
 <text x="318.5" y="340" class="taxonLabel">Craniops</text>
 <text x="296.5" y="325" fill="#fc8d59" class="flag">[0]</text>
 <text x="318.5" y="325" class="taxonLabel">Novocrania</text>
 <text x="217" y="355" fill="#fc8d59" class="flag">[0]</text>
 <text x="239" y="355" class="taxonLabel">Pelagodiscus atlanticus</text>
 <text x="243.5" y="370" fill="#fc8d59" class="flag">[0]</text>
 <text x="265.5" y="370" class="taxonLabel">Mickwitzia muralensis</text>
 <text x="270" y="385" fill="#fc8d59" class="flag">[0]</text>
 <text x="292" y="385" class="taxonLabel">Micrina</text>
 <text x="296.5" y="400" fill="#fc8d59" class="flag">[0]</text>
 <text x="318.5" y="400" class="taxonLabel">Lingula</text>
 <text x="323" y="415" fill="#fc8d59" class="flag">[0]</text>
 <text x="345" y="415" class="taxonLabel">Eoobolus</text>
 <text x="349.5" y="430" fill="#fc8d59" class="flag">[0]</text>
 <text x="371.5" y="430" class="taxonLabel">Mummpikia nuda</text>
 <text x="376" y="445" fill="#fc8d59" class="flag">[0]</text>
 <text x="398" y="445" class="taxonLabel">Botsfordia</text>
 <text x="429" y="475" fill="#fc8d59" class="flag">[0]</text>
 <text x="451" y="475" class="taxonLabel">Lingulosacculus</text>
 <text x="402.5" y="460" fill="#fc8d59" class="flag">[0]</text>
 <text x="424.5" y="460" class="taxonLabel">Lingulellotreta malongensis</text>
 <text x="455.5" y="490" fill="#fc8d59" class="flag">[0]</text>
 <text x="477.5" y="490" class="taxonLabel">Clupeafumosus socialis</text>
 <text x="482" y="505" fill="#fc8d59" class="flag">[0]</text>
 <text x="504" y="505" class="taxonLabel">Acanthotretella spinosa</text>
 <text x="482" y="520" fill="#fc8d59" class="flag">[0]</text>
 <text x="504" y="520" class="taxonLabel">Siphonobolus priscus</text>
 <text x="217" y="250" fill="#fc8d59" class="flag">[0]</text>
 <text x="239" y="250" class="taxonLabel">Askepasma toddense</text>
 <text x="217" y="265" fill="#fc8d59" class="flag">[0]</text>
 <text x="239" y="265" class="taxonLabel">Micromitra</text>
 <text x="217" y="70" fill="#fc8d59" class="flag">[0]</text>
 <text x="239" y="70" class="taxonLabel">Salanygolina</text>
 <text x="270" y="100" fill="#fc8d59" class="flag">[0]</text>
 <text x="292" y="100" class="taxonLabel">Tomteluva perturbata</text>
 <text x="243.5" y="85" fill="#91bfdb" class="flag">[1]</text>
 <text x="265.5" y="85" class="taxonLabel">Yuganotheca elegans</text>
 <text x="323" y="115" fill="#fc8d59" class="flag">[0]</text>
 <text x="345" y="115" class="taxonLabel">Kutorgina chengjiangensis</text>
 <text x="349.5" y="130" fill="#fc8d59" class="flag">[0]</text>
 <text x="371.5" y="130" class="taxonLabel">Nisusia sulcata</text>
 <text x="376" y="145" fill="#fc8d59" class="flag">[0]</text>
 <text x="398" y="145" class="taxonLabel">Glyptoria</text>
 <text x="402.5" y="160" fill="#fc8d59" class="flag">[0]</text>
 <text x="424.5" y="160" class="taxonLabel">Longtancunella chengjiangensis</text>
 <text x="429" y="175" fill="#fc8d59" class="flag">[0]</text>
 <text x="451" y="175" class="taxonLabel">Alisina</text>
 <text x="455.5" y="190" fill="#fc8d59" class="flag">[0]</text>
 <text x="477.5" y="190" class="taxonLabel">Orthis</text>
 <text x="455.5" y="205" fill="#fc8d59" class="flag">[0]</text>
 <text x="477.5" y="205" class="taxonLabel">Terebratulina</text>
 <text x="323" y="220" fill="#fc8d59" class="flag">[0]</text>
 <text x="345" y="220" class="taxonLabel">Coolinia pecten</text>
 <text x="323" y="235" fill="#fc8d59" class="flag">[0]</text>
 <text x="345" y="235" class="taxonLabel">Antigonambonites planus</text>
 <path d="M5,41.6V7H31.5M5,41.6V76.1H31.5M31.5,76.1V22H58M31.5,76.1V130.2H58M58,130.2V223.4H84.5M84.5,223.4V52H111M84.5,223.4V394.8H111M111,394.8V250.2H137.5M137.5,250.2V171.3H164M164,171.3V88.1H190.5M190.5,88.1V67H217M190.5,88.1V109.2H217M217,109.2V136.3H243.5M243.5,136.3V97H270M243.5,136.3V175.6H270M270,175.6V126.8H296.5M296.5,126.8V112H323M296.5,126.8V141.5H323M323,141.5V127H349.5M323,141.5V156.1H349.5M349.5,156.1V142H376M349.5,156.1V170.1H376M376,170.1V157H402.5M376,170.1V183.2H402.5M402.5,183.2V172H429M402.5,183.2V194.5H429M429,194.5V187H455.5M429,194.5V202H455.5M270,175.6V224.5H296.5M296.5,224.5V217H323M296.5,224.5V232H323M164,171.3V254.5H190.5M190.5,254.5V247H217M190.5,254.5V262H217M137.5,250.2V329H164M164,329V291.1H190.5M190.5,291.1V277H217M190.5,291.1V305.1H217M217,305.1V292H243.5M217,305.1V318.2H243.5M243.5,318.2V307H270M243.5,318.2V329.5H270M270,329.5V322H296.5M270,329.5V337H296.5M164,329V367H190.5M190.5,367V352H217M190.5,367V382H217M217,382V367H243.5M217,382V397H243.5M243.5,397V382H270M243.5,397V411.9H270M270,411.9V397H296.5M270,411.9V426.9H296.5M296.5,426.9V412H323M296.5,426.9V441.8H323M323,441.8V427H349.5M323,441.8V456.5H349.5M349.5,456.5V442H376M349.5,456.5V471.1H376M376,471.1V457H402.5M376,471.1V485.1H402.5M402.5,485.1V472H429M402.5,485.1V498.2H429M429,498.2V487H455.5M429,498.2V509.5H455.5M455.5,509.5V502H482M455.5,509.5V517H482M111,394.8V539.5H137.5M137.5,539.5V532H164M137.5,539.5V547H164" stroke="#fc8d59"></path>
 <path d="M58,130.2V37H84.5M217,109.2V82H243.5" stroke="#91bfdb"></path>
 <text x="7" y="44.6" class="node" fill="red">NA</text>
 <text x="33.5" y="79.1" class="node" fill="red">NA</text>
 <text x="60" y="133.2" class="node" fill="red">NA</text>
 <text x="86.5" y="226.4" class="node" fill="#4A6FE3">1</text>
 <text x="113" y="397.8" class="node" fill="#4A6FE3">1</text>
 <text x="139.5" y="253.2" class="node" fill="#E6B1BB">0.34</text>
 <text x="166" y="174.3" class="node" fill="#4A6FE3">1</text>
 <text x="192.5" y="91.1" class="node" fill="#4A6FE3">1</text>
 <text x="219" y="112.2" class="node" fill="#7A8DE1">0.87</text>
 <text x="245.5" y="139.3" class="node" fill="#4A6FE3">1</text>
 <text x="272" y="178.6" class="node" fill="#4A6FE3">1</text>
 <text x="298.5" y="129.8" class="node" fill="#E18297">0.19</text>
 <text x="325" y="144.5" class="node" fill="#DB617F">0.09</text>
 <text x="351.5" y="159.1" class="node" fill="#4A6FE3">1</text>
 <text x="378" y="173.1" class="node" fill="#768BE1">0.88</text>
 <text x="404.5" y="186.2" class="node" fill="#768BE1">0.88</text>
 <text x="431" y="197.5" class="node" fill="#768BE1">0.88</text>
 <text x="298.5" y="227.5" class="node" fill="#768BE1">0.88</text>
 <text x="192.5" y="257.5" class="node" fill="#4A6FE3">1</text>
 <text x="166" y="332" class="node" fill="#667FE1">0.93</text>
 <text x="192.5" y="294.1" class="node" fill="#4A6FE3">1</text>
 <text x="219" y="308.1" class="node" fill="#4A6FE3">1</text>
 <text x="245.5" y="321.2" class="node" fill="#A0ABE2">0.74</text>
 <text x="272" y="332.5" class="node" fill="#7A8DE1">0.87</text>
 <text x="192.5" y="370" class="node" fill="#7A8DE1">0.87</text>
 <text x="219" y="385" class="node" fill="#4A6FE3">1</text>
 <text x="245.5" y="400" class="node" fill="#4A6FE3">1</text>
 <text x="272" y="414.9" class="node" fill="#A0ABE2">0.74</text>
 <text x="298.5" y="429.9" class="node" fill="#A0ABE2">0.74</text>
 <text x="325" y="444.8" class="node" fill="#A0ABE2">0.74</text>
 <text x="351.5" y="459.5" class="node" fill="#7A8DE1">0.87</text>
 <text x="378" y="474.1" class="node" fill="#7A8DE1">0.87</text>
 <text x="404.5" y="488.1" class="node" fill="#A0ABE2">0.74</text>
 <text x="431" y="501.2" class="node" fill="#A0ABE2">0.74</text>
 <text x="457.5" y="512.5" class="node" fill="#A0ABE2">0.74</text>
 <text x="139.5" y="542.5" class="node" fill="#D7D9E3">0.54</text></svg>
