<svg xmlns="http://www.w3.org/2000/svg" version="1.1" width="682" height="612" class="tree" data-char="139"><text x="678" y="16" text-anchor="end" class="stepsLabel">Character adds <tspan class="score">2</tspan> to tree score</text><text x="678" y="29" text-anchor="end" class="stepsLabel"><tspan class="score">0</tspan> additional regions</text><text x="678" y="42" text-anchor="end" class="stepsLabel">CI = 0.5; Fitch CI = 0.5; Fitch RI = 0</text><text x="678" y="68" text-anchor="end" class="stepsLabel"><tspan dy="16">An optimal tree under:</tspan><tspan x="680" style="font-style:italic" class="thisAn" dy="1.2em">Equal weights</tspan><tspan x="680" style="font-style:italic" class="notThisAn" dy="1.2em">Implied weights, k = 2</tspan><tspan x="680" style="font-style:italic" class="notThisAn" dy="1.2em">IW, k = 3</tspan><tspan x="680" style="font-style:italic" class="notThisAn" dy="1.2em">IW, k = 4.5</tspan><tspan x="680" style="font-style:italic" class="notThisAn" dy="1.2em">IW, k = 7</tspan><tspan x="680" style="font-style:italic" class="notThisAn" dy="1.2em">IW, k = 10.5</tspan><tspan x="680" style="font-style:italic" class="notThisAn" dy="1.2em">IW, k = 16</tspan><tspan x="680" style="font-style:italic" class="notThisAn" dy="1.2em">IW, k = 24</tspan></text><text x="100.4" y="593.7" fill="#fc8d59" class="flag">[0]</text><text x="122.4" y="593.7" fill="#000" class="taxonLabel">Dentalium</text><text x="100.4" y="607" fill="#fc8d59" class="flag">[0]</text><text x="122.4" y="607" fill="#000" class="taxonLabel">Tonicella</text><text x="76.6" y="580.5" fill="grey" class="flag">[?]</text><text x="98.6" y="580.5" fill="grey" class="taxonLabel">Wiwaxia corrugata</text><text x="76.6" y="553.9" fill="#91bfdb" class="flag">[1]</text><text x="98.6" y="553.9" fill="#000" class="taxonLabel">Sipunculus</text><text x="76.6" y="567.2" fill="#fc8d59" class="flag">[0]</text><text x="98.6" y="567.2" fill="#000" class="taxonLabel">Serpula</text><text x="267.4" y="514.1" fill="grey" class="flag">[?]</text><text x="289.4" y="514.1" fill="grey" class="taxonLabel">Haplophrentis carinatus</text><text x="267.4" y="527.4" fill="grey" class="flag">[?]</text><text x="289.4" y="527.4" fill="grey" class="taxonLabel">Pedunculotheca diania</text><text x="243.5" y="500.9" fill="grey" class="flag">[?]</text><text x="265.5" y="500.9" fill="grey" class="taxonLabel">Paterimitra</text><text x="338.9" y="474.3" fill="#fc8d59" class="flag">[0]</text><text x="360.9" y="474.3" fill="#000" class="taxonLabel">Novocrania</text><text x="338.9" y="487.6" fill="grey" class="flag">[?]</text><text x="360.9" y="487.6" fill="grey" class="taxonLabel">Craniops</text><text x="315.1" y="461.1" fill="grey" class="flag">[?]</text><text x="337.1" y="461.1" fill="grey" class="taxonLabel">Ussunia</text><text x="291.2" y="447.8" fill="grey" class="flag">[?]</text><text x="313.2" y="447.8" fill="grey" class="taxonLabel">Gasconsia</text><text x="482" y="421.3" fill="grey" class="flag">[?]</text><text x="504" y="421.3" fill="grey" class="taxonLabel">Terebratulina</text><text x="482" y="434.5" fill="grey" class="flag">[?]</text><text x="504" y="434.5" fill="grey" class="taxonLabel">Orthis</text><text x="458.2" y="408" fill="grey" class="flag">[?]</text><text x="480.2" y="408" fill="grey" class="taxonLabel">Alisina</text><text x="434.3" y="394.7" fill="grey" class="flag">[?]</text><text x="456.3" y="394.7" fill="grey" class="taxonLabel">Longtancunella chengjiangensis</text><text x="410.5" y="381.5" fill="grey" class="flag">[?]</text><text x="432.5" y="381.5" fill="grey" class="taxonLabel">Glyptoria</text><text x="386.6" y="368.2" fill="grey" class="flag">[?]</text><text x="408.6" y="368.2" fill="grey" class="taxonLabel">Nisusia sulcata</text><text x="362.8" y="354.9" fill="grey" class="flag">[?]</text><text x="384.8" y="354.9" fill="grey" class="taxonLabel">Kutorgina chengjiangensis</text><text x="362.8" y="328.4" fill="grey" class="flag">[?]</text><text x="384.8" y="328.4" fill="grey" class="taxonLabel">Antigonambonites planus</text><text x="362.8" y="341.7" fill="grey" class="flag">[?]</text><text x="384.8" y="341.7" fill="grey" class="taxonLabel">Coolinia pecten</text><text x="362.8" y="301.9" fill="grey" class="flag">[?]</text><text x="384.8" y="301.9" fill="grey" class="taxonLabel">Yuganotheca elegans</text><text x="362.8" y="315.1" fill="grey" class="flag">[?]</text><text x="384.8" y="315.1" fill="grey" class="taxonLabel">Tomteluva perturbata</text><text x="338.9" y="288.6" fill="grey" class="flag">[?]</text><text x="360.9" y="288.6" fill="grey" class="taxonLabel">Salanygolina</text><text x="315.1" y="262.1" fill="grey" class="flag">[?]</text><text x="337.1" y="262.1" fill="grey" class="taxonLabel">Micromitra</text><text x="315.1" y="275.3" fill="grey" class="flag">[?]</text><text x="337.1" y="275.3" fill="grey" class="taxonLabel">Askepasma toddense</text><text x="434.3" y="235.5" fill="grey" class="flag">[?]</text><text x="456.3" y="235.5" fill="grey" class="taxonLabel">Acanthotretella spinosa</text><text x="434.3" y="248.8" fill="grey" class="flag">[?]</text><text x="456.3" y="248.8" fill="grey" class="taxonLabel">Siphonobolus priscus</text><text x="434.3" y="209" fill="grey" class="flag">[?]</text><text x="456.3" y="209" fill="grey" class="taxonLabel">Lingulosacculus</text><text x="434.3" y="222.3" fill="grey" class="flag">[?]</text><text x="456.3" y="222.3" fill="grey" class="taxonLabel">Clupeafumosus socialis</text><text x="386.6" y="195.7" fill="grey" class="flag">[?]</text><text x="408.6" y="195.7" fill="grey" class="taxonLabel">Lingulellotreta malongensis</text><text x="362.8" y="182.5" fill="grey" class="flag">[?]</text><text x="384.8" y="182.5" fill="grey" class="taxonLabel">Botsfordia</text><text x="338.9" y="169.2" fill="grey" class="flag">[?]</text><text x="360.9" y="169.2" fill="grey" class="taxonLabel">Mummpikia nuda</text><text x="315.1" y="155.9" fill="grey" class="flag">[?]</text><text x="337.1" y="155.9" fill="grey" class="taxonLabel">Eoobolus</text><text x="291.2" y="142.7" fill="#fc8d59" class="flag">[0]</text><text x="313.2" y="142.7" fill="#000" class="taxonLabel">Lingula</text><text x="315.1" y="116.1" fill="grey" class="flag">[?]</text><text x="337.1" y="116.1" fill="grey" class="taxonLabel">Pelagodiscus atlanticus</text><text x="315.1" y="129.4" fill="grey" class="flag">[?]</text><text x="337.1" y="129.4" fill="grey" class="taxonLabel">Mickwitzia muralensis</text><text x="291.2" y="102.9" fill="grey" class="flag">[?]</text><text x="313.2" y="102.9" fill="grey" class="taxonLabel">Micrina</text><text x="195.8" y="89.6" fill="grey" class="flag">[?]</text><text x="217.8" y="89.6" fill="grey" class="taxonLabel">Heliomedusa orienta</text><text x="195.8" y="63.1" fill="grey" class="flag">[?]</text><text x="217.8" y="63.1" fill="grey" class="taxonLabel">Halkieria evangelista</text><text x="195.8" y="76.3" fill="grey" class="flag">[?]</text><text x="217.8" y="76.3" fill="grey" class="taxonLabel">Dailyatia</text><text x="148.1" y="49.8" fill="grey" class="flag">[?]</text><text x="170.1" y="49.8" fill="grey" class="taxonLabel">Eccentrotheca</text><text x="124.2" y="36.5" fill="grey" class="flag">[?]</text><text x="146.2" y="36.5" fill="grey" class="taxonLabel">Cotyledion tylodes</text><text x="100.4" y="23.3" fill="grey" class="flag">[?]</text><text x="122.4" y="23.3" fill="grey" class="taxonLabel">Phoronis</text><text x="76.6" y="10" fill="#fc8d59" class="flag">[0]</text><text x="98.6" y="10" fill="#000" class="taxonLabel">Flustra</text><text x="52.7" y="540.7" fill="#91bfdb" class="flag">[1]</text><text x="74.7" y="540.7" fill="#000" class="taxonLabel">Loxosomella</text><path d="M5,426.9V281.4H28.9M28.9,281.4V25.1H52.7M52.7,25.1V7H76.6M52.7,25.1V43.1H76.6M76.6,43.1V20.3H100.4M76.6,43.1V66H100.4M100.4,66V33.5H124.2M100.4,66V98.5H124.2M124.2,98.5V46.8H148.1M124.2,98.5V150.1H148.1M148.1,150.1V66.7H172M172,66.7V60.1H195.8M172,66.7V73.3H195.8M148.1,150.1V233.6H172M172,233.6V86.6H195.8M172,233.6V380.6H195.8M195.8,380.6V253.3H219.7M219.7,253.3V131.5H243.5M243.5,131.5V109.8H267.4M267.4,109.8V99.9H291.2M267.4,109.8V119.8H291.2M291.2,119.8V113.1H315.1M291.2,119.8V126.4H315.1M243.5,131.5V153.1H267.4M267.4,153.1V139.7H291.2M267.4,153.1V166.6H291.2M291.2,166.6V152.9H315.1M291.2,166.6V180.3H315.1M315.1,180.3V166.2H338.9M315.1,180.3V194.4H338.9M338.9,194.4V179.5H362.8M338.9,194.4V209.3H362.8M362.8,209.3V192.7H386.6M362.8,209.3V225.9H386.6M386.6,225.9V212.6H410.5M410.5,212.6V206H434.3M410.5,212.6V219.3H434.3M386.6,225.9V239.2H410.5M410.5,239.2V232.5H434.3M410.5,239.2V245.8H434.3M219.7,253.3V375.1H243.5M243.5,375.1V293.9H267.4M267.4,293.9V265.7H291.2M291.2,265.7V259.1H315.1M291.2,265.7V272.3H315.1M267.4,293.9V322H291.2M291.2,322V295.6H315.1M315.1,295.6V285.6H338.9M315.1,295.6V305.5H338.9M338.9,305.5V298.9H362.8M338.9,305.5V312.1H362.8M291.2,322V348.5H315.1M315.1,348.5V332H338.9M338.9,332V325.4H362.8M338.9,332V338.7H362.8M315.1,348.5V365H338.9M338.9,365V351.9H362.8M338.9,365V378.1H362.8M362.8,378.1V365.2H386.6M362.8,378.1V390.9H386.6M386.6,390.9V378.5H410.5M386.6,390.9V403.3H410.5M410.5,403.3V391.7H434.3M410.5,403.3V415H434.3M434.3,415V405H458.2M434.3,415V424.9H458.2M458.2,424.9V418.3H482M458.2,424.9V431.5H482M243.5,375.1V456.4H267.4M267.4,456.4V444.8H291.2M267.4,456.4V468H291.2M291.2,468V458.1H315.1M291.2,468V478H315.1M315.1,478V471.3H338.9M315.1,478V484.6H338.9M195.8,380.6V507.8H219.7M219.7,507.8V497.9H243.5M219.7,507.8V517.8H243.5M243.5,517.8V511.1H267.4M243.5,517.8V524.4H267.4M5,426.9V572.5H28.9M28.9,572.5V557.6H52.7M52.7,557.6V564.2H76.6M28.9,572.5V587.4H52.7M52.7,587.4V577.5H76.6M52.7,587.4V597.4H76.6M76.6,597.4V590.7H100.4M76.6,597.4V604H100.4" stroke="#fc8d59"></path><path d="M28.9,281.4V537.7H52.7M52.7,557.6V550.9H76.6" stroke="#91bfdb"></path><text x="7" y="429.9" class="node" fill="#4A6FE3">1</text><text x="30.9" y="284.4" class="node" fill="#4A6FE3">1</text><text x="54.7" y="28.1" class="node" fill="#4A6FE3">1</text><text x="78.6" y="46.1" class="node" fill="#4A6FE3">1</text><text x="102.4" y="69" class="node" fill="#4A6FE3">1</text><text x="126.2" y="101.5" class="node" fill="#E6ABB6">0.32</text><text x="150.1" y="153.1" class="node" fill="#4A6FE3">1</text><text x="174" y="69.7" class="node" fill="#4A6FE3">1</text><text x="174" y="236.6" class="node" fill="#4A6FE3">1</text><text x="197.8" y="383.6" class="node" fill="#9DA8E2">0.75</text><text x="221.7" y="256.3" class="node" fill="#9DA8E2">0.75</text><text x="245.5" y="134.5" class="node" fill="#B4BBE3">0.67</text><text x="269.4" y="112.8" class="node" fill="#B4BBE3">0.67</text><text x="293.2" y="122.8" class="node" fill="#9DA8E2">0.75</text><text x="269.4" y="156.1" class="node" fill="#9DA8E2">0.75</text><text x="293.2" y="169.6" class="node" fill="#B4BBE3">0.67</text><text x="317.1" y="183.3" class="node" fill="#B4BBE3">0.67</text><text x="340.9" y="197.4" class="node" fill="#B4BBE3">0.67</text><text x="364.8" y="212.3" class="node" fill="#B4BBE3">0.67</text><text x="388.6" y="228.9" class="node" fill="#E3DCDD">0.48</text><text x="412.5" y="215.6" class="node" fill="#DF798F">0.16</text><text x="412.5" y="242.2" class="node" fill="#4A6FE3">1</text><text x="245.5" y="378.1" class="node" fill="#4A6FE3">1</text><text x="269.4" y="296.9" class="node" fill="#8C9BE1">0.81</text><text x="293.2" y="268.7" class="node" fill="#4A6FE3">1</text><text x="293.2" y="325" class="node" fill="#667FE1">0.93</text><text x="317.1" y="298.6" class="node" fill="#A0ABE2">0.74</text><text x="340.9" y="308.5" class="node" fill="#7388E1">0.89</text><text x="317.1" y="351.5" class="node" fill="#4A6FE3">1</text><text x="340.9" y="335" class="node" fill="#4A6FE3">1</text><text x="340.9" y="368" class="node" fill="#7A8DE1">0.87</text><text x="364.8" y="381.1" class="node" fill="#7A8DE1">0.87</text><text x="388.6" y="393.9" class="node" fill="#7A8DE1">0.87</text><text x="412.5" y="406.3" class="node" fill="#7A8DE1">0.87</text><text x="436.3" y="418" class="node" fill="#4A6FE3">1</text><text x="460.2" y="427.9" class="node" fill="#5B78E2">0.96</text><text x="269.4" y="459.4" class="node" fill="#4A6FE3">1</text><text x="293.2" y="471" class="node" fill="#4A6FE3">1</text><text x="317.1" y="481" class="node" fill="#4A6FE3">1</text><text x="221.7" y="510.8" class="node" fill="#B4BBE3">0.67</text><text x="245.5" y="520.8" class="node" fill="#4A6FE3">1</text><text x="30.9" y="575.5" class="node" fill="#4A6FE3">1</text><text x="54.7" y="560.6" class="node" fill="#4A6FE3">1</text><text x="54.7" y="590.4" class="node" fill="#4A6FE3">1</text><text x="78.6" y="600.4" class="node" fill="#E38FA0">0.23</text></svg>
