<svg xmlns="http://www.w3.org/2000/svg" version="1.1" width="682" height="682" class="tree" data-char="126"><text x="678" y="15.4" text-anchor="end" class="stepsLabel">Character adds <tspan class="score">8</tspan> to tree score</text><text x="678" y="27.8" text-anchor="end" class="stepsLabel"><tspan class="score">0</tspan> additional regions</text><text x="678" y="40.2" text-anchor="end" class="stepsLabel">CI = 0.12; Fitch CI = 0.12; Fitch RI = 0.36</text><text x="678" y="65" text-anchor="end" class="stepsLabel"><tspan dy="16" fill="#34caaf">An optimal tree under:</tspan><tspan x="680" style="font-style:italic" class="thisAn" dy="1.2em">Equal weights</tspan><tspan x="680" style="font-style:italic" class="notThisAn" dy="1.2em">Implied weights, k = 3</tspan><tspan x="680" style="font-style:italic" class="notThisAn" dy="1.2em">IW, k = 4.5</tspan><tspan x="680" style="font-style:italic" class="notThisAn" dy="1.2em">IW, k = 7</tspan><tspan x="680" style="font-style:italic" class="notThisAn" dy="1.2em">IW, k = 10.5</tspan><tspan x="680" style="font-style:italic" class="notThisAn" dy="1.2em">IW, k = 16</tspan><tspan x="680" style="font-style:italic" class="notThisAn" dy="1.2em">IW, k = 24</tspan></text><text x="308.5" y="664.4" fill="#fc8d59" class="flag">[0]</text><text x="330.5" y="664.4" fill="#000" class="taxonLabel">Conotheca</text><text x="308.5" y="677" fill="#fc8d59" class="flag">[0]</text><text x="330.5" y="677" fill="#000" class="taxonLabel">Bactrotheca</text><text x="286.9" y="651.8" fill="#fc8d59" class="flag">[0]</text><text x="308.9" y="651.8" fill="#000" class="taxonLabel">Cupitheca holocyclata</text><text x="330.2" y="626.7" fill="#91bfdb" class="flag">[1]</text><text x="352.2" y="626.7" fill="#000" class="taxonLabel">Maxilites</text><text x="330.2" y="639.2" fill="#fc8d59" class="flag">[0]</text><text x="352.2" y="639.2" fill="#000" class="taxonLabel">Pauxillites</text><text x="308.5" y="614.1" fill="#fc8d59" class="flag">[0]</text><text x="330.5" y="614.1" fill="#000" class="taxonLabel">Haplophrentis carinatus</text><text x="286.9" y="601.5" fill="#fc8d59" class="flag">[0]</text><text x="308.9" y="601.5" fill="#000" class="taxonLabel">Paramicrocornus</text><text x="243.5" y="588.9" fill="#fc8d59" class="flag">[0]</text><text x="265.5" y="588.9" fill="#000" class="taxonLabel">Pedunculotheca diania</text><text x="308.5" y="563.7" fill="#fc8d59" class="flag">[0]</text><text x="330.5" y="563.7" fill="#000" class="taxonLabel">Heliomedusa orienta</text><text x="308.5" y="576.3" fill="#91bfdb" class="flag">[1]</text><text x="330.5" y="576.3" fill="#000" class="taxonLabel">Mickwitzia muralensis</text><text x="286.9" y="551.2" fill="#fc8d59" class="flag">[0]</text><text x="308.9" y="551.2" fill="#000" class="taxonLabel">Micrina</text><text x="460.3" y="526" fill="#91bfdb" class="flag">[1]</text><text x="482.3" y="526" fill="#000" class="taxonLabel">Orthis</text><text x="460.3" y="538.6" fill="#fc8d59" class="flag">[0]</text><text x="482.3" y="538.6" fill="#000" class="taxonLabel">Terebratulina</text><text x="438.6" y="513.4" fill="#fc8d59" class="flag">[0]</text><text x="460.6" y="513.4" fill="#000" class="taxonLabel">Alisina</text><text x="417" y="500.8" fill="#fc8d59" class="flag">[0]</text><text x="439" y="500.8" fill="#000" class="taxonLabel">Longtancunella chengjiangensis</text><text x="395.3" y="488.2" fill="#91bfdb" class="flag">[1]</text><text x="417.3" y="488.2" fill="#000" class="taxonLabel">Glyptoria</text><text x="417" y="463.1" fill="#91bfdb" class="flag">[1]</text><text x="439" y="463.1" fill="#000" class="taxonLabel">Nisusia sulcata</text><text x="417" y="475.6" fill="#91bfdb" class="flag">[1]</text><text x="439" y="475.6" fill="#000" class="taxonLabel">Tomteluva perturbata</text><text x="395.3" y="450.5" fill="#91bfdb" class="flag">[1]</text><text x="417.3" y="450.5" fill="#000" class="taxonLabel">Kutorgina chengjiangensis</text><text x="373.6" y="425.3" fill="#91bfdb" class="flag">[1]</text><text x="395.6" y="425.3" fill="#000" class="taxonLabel">Coolinia pecten</text><text x="373.6" y="437.9" fill="#91bfdb" class="flag">[1]</text><text x="395.6" y="437.9" fill="#000" class="taxonLabel">Antigonambonites planus</text><text x="330.2" y="412.7" fill="#fc8d59" class="flag">[0]</text><text x="352.2" y="412.7" fill="#000" class="taxonLabel">Salanygolina</text><text x="330.2" y="387.5" fill="#91bfdb" class="flag">[1]</text><text x="352.2" y="387.5" fill="#000" class="taxonLabel">Micromitra</text><text x="330.2" y="400.1" fill="#fc8d59" class="flag">[0]</text><text x="352.2" y="400.1" fill="#000" class="taxonLabel">Askepasma toddense</text><text x="482" y="362.4" fill="#fc8d59" class="flag">[0]</text><text x="504" y="362.4" fill="#000" class="taxonLabel">Acanthotretella spinosa</text><text x="482" y="375" fill="#91bfdb" class="flag">[1]</text><text x="504" y="375" fill="#000" class="taxonLabel">Siphonobolus priscus</text><text x="460.3" y="349.8" fill="#fc8d59" class="flag">[0]</text><text x="482.3" y="349.8" fill="#000" class="taxonLabel">Clupeafumosus socialis</text><text x="438.6" y="337.2" fill="#fc8d59" class="flag">[0]</text><text x="460.6" y="337.2" fill="#000" class="taxonLabel">Lingulosacculus</text><text x="417" y="324.6" fill="#fc8d59" class="flag">[0]</text><text x="439" y="324.6" fill="#000" class="taxonLabel">Lingulellotreta malongensis</text><text x="417" y="299.5" fill="#fc8d59" class="flag">[0]</text><text x="439" y="299.5" fill="#000" class="taxonLabel">Pelagodiscus atlanticus</text><text x="417" y="312" fill="#fc8d59" class="flag">[0]</text><text x="439" y="312" fill="#000" class="taxonLabel">Mummpikia nuda</text><text x="373.6" y="286.9" fill="#fc8d59" class="flag">[0]</text><text x="395.6" y="286.9" fill="#000" class="taxonLabel">Botsfordia</text><text x="351.9" y="274.3" fill="#fc8d59" class="flag">[0]</text><text x="373.9" y="274.3" fill="#000" class="taxonLabel">Eoobolus</text><text x="330.2" y="261.7" fill="#fc8d59" class="flag">[0]</text><text x="352.2" y="261.7" fill="#000" class="taxonLabel">Lingula</text><text x="373.6" y="236.5" fill="#fc8d59" class="flag">[0]</text><text x="395.6" y="236.5" fill="#000" class="taxonLabel">Craniops</text><text x="373.6" y="249.1" fill="#fc8d59" class="flag">[0]</text><text x="395.6" y="249.1" fill="#000" class="taxonLabel">Novocrania</text><text x="351.9" y="223.9" fill="#fc8d59" class="flag">[0]</text><text x="373.9" y="223.9" fill="#000" class="taxonLabel">Ussunia</text><text x="330.2" y="211.4" fill="#91bfdb" class="flag">[1]</text><text x="352.2" y="211.4" fill="#000" class="taxonLabel">Gasconsia</text><text x="243.5" y="198.8" fill="#fc8d59" class="flag">[0]</text><text x="265.5" y="198.8" fill="#000" class="taxonLabel">Yuganotheca elegans</text><text x="200.1" y="186.2" fill="#fc8d59" class="flag">[0]</text><text x="222.1" y="186.2" fill="#000" class="taxonLabel">Paterimitra</text><text x="178.5" y="173.6" fill="#fc8d59" class="flag">[0]</text><text x="200.5" y="173.6" fill="#000" class="taxonLabel">Halkieria evangelista</text><text x="156.8" y="161" fill="#fc8d59" class="flag">[0]</text><text x="178.8" y="161" fill="#000" class="taxonLabel">Dailyatia</text><text x="135.1" y="148.4" fill="#fc8d59" class="flag">[0]</text><text x="157.1" y="148.4" fill="#000" class="taxonLabel">Cotyledion tylodes</text><text x="113.4" y="135.8" fill="#fc8d59" class="flag">[0]</text><text x="135.4" y="135.8" fill="#000" class="taxonLabel">Eccentrotheca</text><text x="91.7" y="123.3" fill="#fc8d59" class="flag">[0]</text><text x="113.7" y="123.3" fill="#000" class="taxonLabel">Namacalathus</text><text x="70" y="110.7" fill="#fc8d59" class="flag">[0]</text><text x="92" y="110.7" fill="#000" class="taxonLabel">Phoronis</text><text x="70" y="85.5" fill="#fc8d59" class="flag">[0]</text><text x="92" y="85.5" fill="#000" class="taxonLabel">Amathia</text><text x="70" y="98.1" fill="#fc8d59" class="flag">[0]</text><text x="92" y="98.1" fill="#000" class="taxonLabel">Flustra</text><text x="91.7" y="60.3" fill="#fc8d59" class="flag">[0]</text><text x="113.7" y="60.3" fill="#000" class="taxonLabel">Serpula</text><text x="91.7" y="72.9" fill="#fc8d59" class="flag">[0]</text><text x="113.7" y="72.9" fill="#000" class="taxonLabel">Sipunculus</text><text x="113.4" y="35.2" fill="#fc8d59" class="flag">[0]</text><text x="135.4" y="35.2" fill="#000" class="taxonLabel">Dentalium</text><text x="113.4" y="47.8" fill="#fc8d59" class="flag">[0]</text><text x="135.4" y="47.8" fill="#000" class="taxonLabel">Tonicella</text><text x="91.7" y="22.6" fill="#fc8d59" class="flag">[0]</text><text x="113.7" y="22.6" fill="#000" class="taxonLabel">Wiwaxia corrugata</text><text x="48.4" y="10" fill="#fc8d59" class="flag">[0]</text><text x="70.4" y="10" fill="#000" class="taxonLabel">Loxosomella</text><path d="M5,66.1V26.7H26.7M26.7,26.7V7H48.4M26.7,26.7V46.3H48.4M48.4,46.3V29H70M70,29V19.6H91.7M70,29V38.5H91.7M91.7,38.5V32.2H113.4M91.7,38.5V44.8H113.4M48.4,46.3V63.6H70M70,63.6V57.3H91.7M70,63.6V69.9H91.7M5,66.1V105.5H26.7M26.7,105.5V88.8H48.4M48.4,88.8V82.5H70M48.4,88.8V95.1H70M26.7,105.5V122.3H48.4M48.4,122.3V107.7H70M48.4,122.3V136.9H70M70,136.9V120.3H91.7M70,136.9V153.4H91.7M91.7,153.4V132.8H113.4M91.7,153.4V174H113.4M113.4,174V145.4H135.1M113.4,174V202.6H135.1M135.1,202.6V158H156.8M135.1,202.6V247.3H156.8M156.8,247.3V170.6H178.5M156.8,247.3V323.9H178.5M178.5,323.9V183.2H200.1M178.5,323.9V464.6H200.1M200.1,464.6V319.4H221.8M221.8,319.4V195.8H243.5M221.8,319.4V443H243.5M243.5,443V328.5H265.2M265.2,328.5V245.9H286.9M286.9,245.9V219.4H308.5M308.5,219.4V230.4H330.2M330.2,230.4V220.9H351.9M330.2,230.4V239.8H351.9M351.9,239.8V233.5H373.6M351.9,239.8V246.1H373.6M286.9,245.9V272.4H308.5M308.5,272.4V258.7H330.2M308.5,272.4V286.1H330.2M330.2,286.1V271.3H351.9M330.2,286.1V301H351.9M351.9,301V283.9H373.6M351.9,301V318.1H373.6M373.6,318.1V302.7H395.3M395.3,302.7V296.5H417M395.3,302.7V309H417M373.6,318.1V333.4H395.3M395.3,333.4V321.6H417M395.3,333.4V345.2H417M417,345.2V334.2H438.6M417,345.2V356.2H438.6M438.6,356.2V346.8H460.3M438.6,356.2V365.7H460.3M460.3,365.7V359.4H482M265.2,328.5V411H286.9M286.9,411V390.8H308.5M308.5,390.8V397.1H330.2M286.9,411V431.2H308.5M308.5,431.2V409.7H330.2M373.6,497V508.8H395.3M395.3,508.8V497.8H417M395.3,508.8V519.8H417M417,519.8V510.4H438.6M417,519.8V529.3H438.6M438.6,529.3V535.6H460.3M243.5,443V557.6H265.2M265.2,557.6V548.2H286.9M265.2,557.6V567H286.9M286.9,567V560.7H308.5M200.1,464.6V609.9H221.8M221.8,609.9V585.9H243.5M221.8,609.9V633.9H243.5M243.5,633.9V609.5H265.2M265.2,609.5V598.5H286.9M265.2,609.5V620.5H286.9M286.9,620.5V611.1H308.5M286.9,620.5V630H308.5M308.5,630V636.2H330.2M243.5,633.9V658.3H265.2M265.2,658.3V648.8H286.9M265.2,658.3V667.7H286.9M286.9,667.7V661.4H308.5M286.9,667.7V674H308.5" stroke="#fc8d59"></path><path d="M308.5,219.4V208.4H330.2M460.3,365.7V372H482M308.5,390.8V384.5H330.2M308.5,431.2V452.8H330.2M330.2,452.8V428.6H351.9M351.9,428.6V422.3H373.6M351.9,428.6V434.9H373.6M330.2,452.8V477H351.9M351.9,477V456.9H373.6M373.6,456.9V447.5H395.3M373.6,456.9V466.3H395.3M395.3,466.3V460.1H417M395.3,466.3V472.6H417M351.9,477V497H373.6M373.6,497V485.2H395.3M438.6,529.3V523H460.3M286.9,567V573.3H308.5M308.5,630V623.7H330.2" stroke="#91bfdb"></path><text x="28.7" y="29.7" class="node" fill="#4A6FE3">1</text><text x="50.4" y="49.3" class="node" fill="#4A6FE3">1</text><text x="72" y="32" class="node" fill="#4A6FE3">1</text><text x="93.7" y="41.5" class="node" fill="#4A6FE3">1</text><text x="72" y="66.6" class="node" fill="#4A6FE3">1</text><text x="28.7" y="108.5" class="node" fill="#4A6FE3">1</text><text x="50.4" y="91.8" class="node" fill="#4A6FE3">1</text><text x="50.4" y="125.3" class="node" fill="#4A6FE3">1</text><text x="72" y="139.9" class="node" fill="#E5A8B3">0.31</text><text x="93.7" y="156.4" class="node" fill="#627DE1">0.94</text><text x="115.4" y="177" class="node" fill="#E6AEB8">0.33</text><text x="137.1" y="205.6" class="node" fill="#627DE1">0.94</text><text x="158.8" y="250.3" class="node" fill="#627DE1">0.94</text><text x="180.5" y="326.9" class="node" fill="#627DE1">0.94</text><text x="202.1" y="467.6" class="node" fill="#627DE1">0.94</text><text x="223.8" y="322.4" class="node" fill="#4A6FE3">1</text><text x="245.5" y="446" class="node" fill="#5374E2">0.98</text><text x="267.2" y="331.5" class="node" fill="#627DE1">0.94</text><text x="288.9" y="248.9" class="node" fill="#627DE1">0.94</text><text x="310.5" y="222.4" class="node" fill="#627DE1">0.94</text><text x="332.2" y="233.4" class="node" fill="#4A6FE3">1</text><text x="353.9" y="242.8" class="node" fill="#4A6FE3">1</text><text x="310.5" y="275.4" class="node" fill="#627DE1">0.94</text><text x="332.2" y="289.1" class="node" fill="#667FE1">0.93</text><text x="353.9" y="304" class="node" fill="#667FE1">0.93</text><text x="375.6" y="321.1" class="node" fill="#667FE1">0.93</text><text x="397.3" y="305.7" class="node" fill="#667FE1">0.93</text><text x="397.3" y="336.4" class="node" fill="#627DE1">0.94</text><text x="419" y="348.2" class="node" fill="#4A6FE3">1</text><text x="440.6" y="359.2" class="node" fill="#E6B7C0">0.36</text><text x="462.3" y="368.7" class="node" fill="#4A6FE3">1</text><text x="288.9" y="414" class="node" fill="#5B78E2">0.96</text><text x="310.5" y="393.8" class="node" fill="#5B78E2">0.96</text><text x="310.5" y="434.2" class="node" fill="#4A6FE3">1</text><text x="332.2" y="455.8" class="node" fill="#5B78E2">0.96</text><text x="353.9" y="431.6" class="node" fill="#4A6FE3">1</text><text x="353.9" y="480" class="node" fill="#5F7BE1">0.95</text><text x="375.6" y="459.9" class="node" fill="#E59FAC">0.28</text><text x="397.3" y="469.3" class="node" fill="#DB6581">0.1</text><text x="375.6" y="500" class="node" fill="#4A6FE3">1</text><text x="397.3" y="511.8" class="node" fill="#4A6FE3">1</text><text x="419" y="522.8" class="node" fill="#4A6FE3">1</text><text x="440.6" y="532.3" class="node" fill="#5B78E2">0.96</text><text x="267.2" y="560.6" class="node" fill="#627DE1">0.94</text><text x="288.9" y="570" class="node" fill="#627DE1">0.94</text><text x="223.8" y="612.9" class="node" fill="#627DE1">0.94</text><text x="245.5" y="636.9" class="node" fill="#627DE1">0.94</text><text x="267.2" y="612.5" class="node" fill="#929FE1">0.79</text><text x="288.9" y="623.5" class="node" fill="#4A6FE3">1</text><text x="310.5" y="633" class="node" fill="#4A6FE3">1</text><text x="267.2" y="661.3" class="node" fill="#627DE1">0.94</text><text x="288.9" y="670.7" class="node" fill="#4A6FE3">1</text></svg>
