<svg xmlns="http://www.w3.org/2000/svg" version="1.1" width="682" height="612" class="tree" data-char="27"><text x="678" y="15.4" text-anchor="end" class="stepsLabel">Character adds <tspan class="score">1</tspan> to tree score</text><text x="678" y="27.8" text-anchor="end" class="stepsLabel"><tspan class="score">0</tspan> additional regions</text><text x="678" y="40.2" text-anchor="end" class="stepsLabel">CI = 1; Fitch CI = 1; Fitch RI = 1</text><text x="678" y="65" text-anchor="end" class="stepsLabel"><tspan dy="16">An optimal tree under:</tspan><tspan x="680" style="font-style:italic" class="notThisAn" dy="1.2em">Equal weights</tspan><tspan x="680" style="font-style:italic" class="notThisAn" dy="1.2em">Implied weights, k = 2</tspan><tspan x="680" style="font-style:italic" class="notThisAn" dy="1.2em">IW, k = 3</tspan><tspan x="680" style="font-style:italic" class="notThisAn" dy="1.2em">IW, k = 4.5</tspan><tspan x="680" style="font-style:italic" class="notThisAn" dy="1.2em">IW, k = 7</tspan><tspan x="680" style="font-style:italic" class="notThisAn" dy="1.2em">IW, k = 10.5</tspan><tspan x="680" style="font-style:italic" class="thisAn" dy="1.2em">IW, k = 16</tspan><tspan x="680" style="font-style:italic" class="notThisAn" dy="1.2em">IW, k = 24</tspan></text><text x="80.3" y="594.3" fill="lightgrey" class="flag">[-]</text><text x="102.3" y="594.3" fill="#ccc" class="taxonLabel">Sipunculus</text><text x="80.3" y="607" fill="lightgrey" class="flag">[-]</text><text x="102.3" y="607" fill="#ccc" class="taxonLabel">Serpula</text><text x="105.4" y="568.9" fill="lightgrey" class="flag">[-]</text><text x="127.4" y="568.9" fill="#ccc" class="taxonLabel">Dentalium</text><text x="105.4" y="581.6" fill="lightgrey" class="flag">[-]</text><text x="127.4" y="581.6" fill="#ccc" class="taxonLabel">Tonicella</text><text x="80.3" y="556.2" fill="lightgrey" class="flag">[-]</text><text x="102.3" y="556.2" fill="#ccc" class="taxonLabel">Wiwaxia corrugata</text><text x="230.9" y="518.1" fill="lightgrey" class="flag">[-]</text><text x="252.9" y="518.1" fill="#ccc" class="taxonLabel">Haplophrentis carinatus</text><text x="230.9" y="530.8" fill="#91bfdb" class="flag">[2]</text><text x="252.9" y="530.8" fill="#000" class="taxonLabel">Pedunculotheca diania</text><text x="356.5" y="492.7" fill="grey" class="flag">[?]</text><text x="378.5" y="492.7" fill="#999" class="taxonLabel">Coolinia pecten</text><text x="356.5" y="505.4" fill="#91bfdb" class="flag">[2]</text><text x="378.5" y="505.4" fill="#000" class="taxonLabel">Antigonambonites planus</text><text x="482" y="467.3" fill="grey" class="flag">[?]</text><text x="504" y="467.3" fill="#999" class="taxonLabel">Orthis</text><text x="482" y="480" fill="#e2e2a2" class="flag">[1]</text><text x="504" y="480" fill="#000" class="taxonLabel">Terebratulina</text><text x="456.9" y="454.6" fill="#e2e2a2" class="flag">[1]</text><text x="478.9" y="454.6" fill="#000" class="taxonLabel">Alisina</text><text x="431.8" y="441.9" fill="#e2e2a2" class="flag">[1]</text><text x="453.8" y="441.9" fill="#000" class="taxonLabel">Longtancunella chengjiangensis</text><text x="406.7" y="429.2" fill="grey" class="flag">[?]</text><text x="428.7" y="429.2" fill="#999" class="taxonLabel">Glyptoria</text><text x="381.6" y="416.5" fill="#91bfdb" class="flag">[2]</text><text x="403.6" y="416.5" fill="#000" class="taxonLabel">Nisusia sulcata</text><text x="356.5" y="403.8" fill="#91bfdb" class="flag">[2]</text><text x="378.5" y="403.8" fill="#000" class="taxonLabel">Kutorgina chengjiangensis</text><text x="356.5" y="378.4" fill="grey" class="flag">[?]</text><text x="378.5" y="378.4" fill="#999" class="taxonLabel">Tomteluva perturbata</text><text x="356.5" y="391.1" fill="#91bfdb" class="flag">[2]</text><text x="378.5" y="391.1" fill="#000" class="taxonLabel">Yuganotheca elegans</text><text x="331.4" y="365.7" fill="grey" class="flag">[?]</text><text x="353.4" y="365.7" fill="#999" class="taxonLabel">Salanygolina</text><text x="306.3" y="340.3" fill="grey" class="flag">[?]</text><text x="328.3" y="340.3" fill="#999" class="taxonLabel">Micromitra</text><text x="306.3" y="353" fill="grey" class="flag">[?]</text><text x="328.3" y="353" fill="#999" class="taxonLabel">Askepasma toddense</text><text x="431.8" y="314.9" fill="grey" class="flag">[?]</text><text x="453.8" y="314.9" fill="#999" class="taxonLabel">Eoobolus</text><text x="431.8" y="327.6" fill="#91bfdb" class="flag">[2]</text><text x="453.8" y="327.6" fill="#000" class="taxonLabel">Mummpikia nuda</text><text x="406.7" y="302.1" fill="grey" class="flag">[?]</text><text x="428.7" y="302.1" fill="#999" class="taxonLabel">Botsfordia</text><text x="381.6" y="289.4" fill="#91bfdb" class="flag">[2]</text><text x="403.6" y="289.4" fill="#000" class="taxonLabel">Lingulellotreta malongensis</text><text x="431.8" y="264" fill="grey" class="flag">[?]</text><text x="453.8" y="264" fill="#999" class="taxonLabel">Siphonobolus priscus</text><text x="431.8" y="276.7" fill="#91bfdb" class="flag">[2]</text><text x="453.8" y="276.7" fill="#000" class="taxonLabel">Acanthotretella spinosa</text><text x="406.7" y="251.3" fill="grey" class="flag">[?]</text><text x="428.7" y="251.3" fill="#999" class="taxonLabel">Clupeafumosus socialis</text><text x="381.6" y="238.6" fill="grey" class="flag">[?]</text><text x="403.6" y="238.6" fill="#999" class="taxonLabel">Lingulosacculus</text><text x="331.4" y="225.9" fill="#91bfdb" class="flag">[2]</text><text x="353.4" y="225.9" fill="#000" class="taxonLabel">Lingula</text><text x="331.4" y="200.5" fill="grey" class="flag">[?]</text><text x="353.4" y="200.5" fill="#999" class="taxonLabel">Mickwitzia muralensis</text><text x="331.4" y="213.2" fill="#91bfdb" class="flag">[2]</text><text x="353.4" y="213.2" fill="#000" class="taxonLabel">Pelagodiscus atlanticus</text><text x="381.6" y="175.1" fill="lightgrey" class="flag">[-]</text><text x="403.6" y="175.1" fill="#ccc" class="taxonLabel">Craniops</text><text x="381.6" y="187.8" fill="lightgrey" class="flag">[-]</text><text x="403.6" y="187.8" fill="#ccc" class="taxonLabel">Novocrania</text><text x="356.5" y="162.4" fill="lightgrey" class="flag">[-]</text><text x="378.5" y="162.4" fill="#ccc" class="taxonLabel">Ussunia</text><text x="331.4" y="149.7" fill="lightgrey" class="flag">[-]</text><text x="353.4" y="149.7" fill="#ccc" class="taxonLabel">Heliomedusa orienta</text><text x="306.3" y="137" fill="lightgrey" class="flag">[-]</text><text x="328.3" y="137" fill="#ccc" class="taxonLabel">Gasconsia</text><text x="230.9" y="124.3" fill="grey" class="flag">[?]</text><text x="252.9" y="124.3" fill="#999" class="taxonLabel">Micrina</text><text x="180.7" y="111.6" fill="grey" class="flag">[?]</text><text x="202.7" y="111.6" fill="#999" class="taxonLabel">Paterimitra</text><text x="155.6" y="98.9" fill="lightgrey" class="flag">[-]</text><text x="177.6" y="98.9" fill="#ccc" class="taxonLabel">Halkieria evangelista</text><text x="130.5" y="86.2" fill="grey" class="flag">[?]</text><text x="152.5" y="86.2" fill="#999" class="taxonLabel">Dailyatia</text><text x="155.6" y="60.8" fill="lightgrey" class="flag">[-]</text><text x="177.6" y="60.8" fill="#ccc" class="taxonLabel">Namacalathus</text><text x="155.6" y="73.5" fill="lightgrey" class="flag">[-]</text><text x="177.6" y="73.5" fill="#ccc" class="taxonLabel">Phoronis</text><text x="155.6" y="35.4" fill="lightgrey" class="flag">[-]</text><text x="177.6" y="35.4" fill="#ccc" class="taxonLabel">Cotyledion tylodes</text><text x="155.6" y="48.1" fill="grey" class="flag">[?]</text><text x="177.6" y="48.1" fill="#999" class="taxonLabel">Eccentrotheca</text><text x="105.4" y="10" fill="lightgrey" class="flag">[-]</text><text x="127.4" y="10" fill="#ccc" class="taxonLabel">Flustra</text><text x="105.4" y="22.7" fill="lightgrey" class="flag">[-]</text><text x="127.4" y="22.7" fill="#ccc" class="taxonLabel">Amathia</text><text x="55.2" y="543.5" fill="lightgrey" class="flag">[-]</text><text x="77.2" y="543.5" fill="#ccc" class="taxonLabel">Loxosomella</text><path d="M5,437.9V295.6H30.1M30.1,295.6V50.6H55.2M55.2,50.6V13.4H80.3M80.3,13.4V7H105.4M80.3,13.4V19.7H105.4M55.2,50.6V87.9H80.3M80.3,87.9V51.5H105.4M105.4,51.5V38.8H130.5M130.5,38.8V32.4H155.6M130.5,38.8V45.1H155.6M105.4,51.5V64.2H130.5M130.5,64.2V57.8H155.6M130.5,64.2V70.5H155.6M80.3,87.9V124.4H105.4M105.4,124.4V83.2H130.5M105.4,124.4V165.5H130.5M130.5,165.5V95.9H155.6M256.1,185.8V145.9H281.2M281.2,145.9V134H306.3M281.2,145.9V157.8H306.3M306.3,157.8V146.7H331.4M306.3,157.8V169H331.4M331.4,169V159.4H356.5M331.4,169V178.5H356.5M356.5,178.5V172.1H381.6M356.5,178.5V184.8H381.6M205.8,521.4V515.1H230.9M30.1,295.6V540.5H55.2M5,437.9V580.2H30.1M30.1,580.2V562.7H55.2M55.2,562.7V553.2H80.3M55.2,562.7V572.2H80.3M80.3,572.2V565.9H105.4M80.3,572.2V578.6H105.4M30.1,580.2V597.6H55.2M55.2,597.6V591.3H80.3M55.2,597.6V604H80.3" stroke="lightgrey" class="inapplicable"></path><path d="M130.5,165.5V235.1H155.6M155.6,235.1V108.6H180.7M155.6,235.1V361.6H180.7M180.7,361.6V201.7H205.8M205.8,201.7V121.3H230.9M205.8,201.7V282.2H230.9M230.9,282.2V185.8H256.1M256.1,185.8V225.7H281.2M281.2,225.7V203.9H306.3M306.3,203.9V197.5H331.4M306.3,203.9V210.2H331.4M281.2,225.7V247.5H306.3M306.3,247.5V222.9H331.4M306.3,247.5V272.2H331.4M331.4,272.2V246.8H356.5M356.5,246.8V235.6H381.6M356.5,246.8V257.9H381.6M381.6,257.9V248.3H406.7M381.6,257.9V267.4H406.7M406.7,267.4V261H431.8M406.7,267.4V273.7H431.8M331.4,272.2V297.6H356.5M356.5,297.6V286.4H381.6M356.5,297.6V308.7H381.6M381.6,308.7V299.1H406.7M381.6,308.7V318.2H406.7M406.7,318.2V311.9H431.8M406.7,318.2V324.6H431.8M230.9,282.2V378.5H256.1M256.1,378.5V343.6H281.2M281.2,343.6V337.3H306.3M281.2,343.6V350H306.3M256.1,378.5V413.4H281.2M281.2,413.4V372.2H306.3M306.3,372.2V362.7H331.4M306.3,372.2V381.7H331.4M331.4,381.7V375.4H356.5M331.4,381.7V388.1H356.5M281.2,413.4V454.7H306.3M306.3,454.7V413.3H331.4M331.4,413.3V400.8H356.5M331.4,413.3V425.8H356.5M356.5,425.8V413.5H381.6M356.5,425.8V438.1H381.6M306.3,454.7V496H331.4M331.4,496V489.7H356.5M331.4,496V502.4H356.5M180.7,361.6V521.4H205.8M205.8,521.4V527.8H230.9" stroke="#91bfdb"></path><path d="M381.6,438.1V426.2H406.7" stroke="darkgrey"></path><path d="M381.6,438.1V450H406.7M406.7,450V438.9H431.8M406.7,450V461.1H431.8M431.8,461.1V451.6H456.9M431.8,461.1V470.6H456.9M456.9,470.6V464.3H482M456.9,470.6V477H482" stroke="#e2e2a2"></path><text x="7" y="440.9" class="node" fill="#4A6FE3">1</text><text x="32.1" y="298.6" class="node" fill="#4A6FE3">1</text><text x="57.2" y="53.6" class="node" fill="#97A4E2">0.77</text><text x="82.3" y="16.4" class="node" fill="#4A6FE3">1</text><text x="82.3" y="90.9" class="node" fill="#97A4E2">0.77</text><text x="107.4" y="54.5" class="node" fill="#E5A8B3">0.31</text><text x="132.5" y="41.8" class="node" fill="#E28699">0.2</text><text x="132.5" y="67.2" class="node" fill="#4A6FE3">1</text><text x="107.4" y="127.4" class="node" fill="#E6B1BB">0.34</text><text x="132.5" y="168.5" class="node" fill="#E49CAA">0.27</text><text x="157.6" y="238.1" class="node" fill="#E4D9DB">0.47</text><text x="182.7" y="364.6" class="node" fill="#E5A5B1">0.3</text><text x="207.8" y="204.7" class="node" fill="#E38FA0">0.23</text><text x="232.9" y="285.2" class="node" fill="#DF798F">0.16</text><text x="258.1" y="188.8" class="node" fill="#DB617F">0.09</text><text x="283.2" y="148.9" class="node" fill="#E38FA0">0.23</text><text x="308.3" y="160.8" class="node" fill="#E38FA0">0.23</text><text x="333.4" y="172" class="node" fill="#E4D9DB">0.47</text><text x="358.5" y="181.5" class="node" fill="#4A6FE3">1</text><text x="283.2" y="228.7" class="node" fill="#E38C9E">0.22</text><text x="308.3" y="206.9" class="node" fill="#9DA8E2">0.75</text><text x="308.3" y="250.5" class="node" fill="#9DA8E2">0.75</text><text x="333.4" y="275.2" class="node" fill="#C1C6E3">0.62</text><text x="358.5" y="249.8" class="node" fill="#8F9DE1">0.8</text><text x="383.6" y="260.9" class="node" fill="#E5D0D3">0.44</text><text x="408.7" y="270.4" class="node" fill="#4A6FE3">1</text><text x="358.5" y="300.6" class="node" fill="#DB617F">0.09</text><text x="383.6" y="311.7" class="node" fill="#E4D9DB">0.47</text><text x="408.7" y="321.2" class="node" fill="#DB617F">0.09</text><text x="258.1" y="381.5" class="node" fill="#667FE1">0.93</text><text x="283.2" y="346.6" class="node" fill="#4A6FE3">1</text><text x="283.2" y="416.4" class="node" fill="#667FE1">0.93</text><text x="308.3" y="375.2" class="node" fill="#E3DFE0">0.49</text><text x="333.4" y="384.7" class="node" fill="#9AA6E2">0.76</text><text x="308.3" y="457.7" class="node" fill="#7A8DE1">0.87</text><text x="333.4" y="416.3" class="node" fill="#E4D9DB">0.47</text><text x="358.5" y="428.8" class="node" fill="#E4D9DB">0.47</text><text x="383.6" y="441.1" class="node" fill="#C7CBE3">0.6</text><text x="408.7" y="453" class="node" fill="#C7CBE3">0.6</text><text x="433.8" y="464.1" class="node" fill="#4A6FE3">1</text><text x="458.9" y="473.6" class="node" fill="#8696E1">0.83</text><text x="333.4" y="499" class="node" fill="#4A6FE3">1</text><text x="207.8" y="524.4" class="node" fill="#4A6FE3">1</text><text x="32.1" y="583.2" class="node" fill="#4A6FE3">1</text><text x="57.2" y="565.7" class="node" fill="#4A6FE3">1</text><text x="82.3" y="575.2" class="node" fill="#7A8DE1">0.87</text><text x="57.2" y="600.6" class="node" fill="#4A6FE3">1</text></svg>
