<svg xmlns="http://www.w3.org/2000/svg" version="1.1" width="682" height="612" class="tree" data-char="40"><text x="678" y="16" text-anchor="end" class="stepsLabel">Character adds <tspan class="score">1</tspan> to tree score</text><text x="678" y="29" text-anchor="end" class="stepsLabel"><tspan class="score">0</tspan> additional regions</text><text x="678" y="42" text-anchor="end" class="stepsLabel">CI = 1; Fitch CI = 1; Fitch RI = 1</text><text x="678" y="68" text-anchor="end" class="stepsLabel"><tspan dy="16">An optimal tree under:</tspan><tspan x="680" style="font-style:italic" class="notThisAn" dy="1.2em">Equal weights</tspan><tspan x="680" style="font-style:italic" class="notThisAn" dy="1.2em">Implied weights, k = 2</tspan><tspan x="680" style="font-style:italic" class="notThisAn" dy="1.2em">IW, k = 3</tspan><tspan x="680" style="font-style:italic" class="notThisAn" dy="1.2em">IW, k = 4.5</tspan><tspan x="680" style="font-style:italic" class="thisAn" dy="1.2em">IW, k = 7</tspan><tspan x="680" style="font-style:italic" class="notThisAn" dy="1.2em">IW, k = 10.5</tspan></text><text x="111" y="593.7" fill="lightgrey" class="flag">[-]</text><text x="133" y="593.7" fill="lightgrey" class="taxonLabel">Dentalium</text><text x="111" y="607" fill="lightgrey" class="flag">[-]</text><text x="133" y="607" fill="lightgrey" class="taxonLabel">Wiwaxia corrugata</text><text x="84.5" y="580.5" fill="lightgrey" class="flag">[-]</text><text x="106.5" y="580.5" fill="lightgrey" class="taxonLabel">Tonicella</text><text x="84.5" y="553.9" fill="#91bfdb" class="flag">[2]</text><text x="106.5" y="553.9" fill="#111" class="taxonLabel">Sipunculus</text><text x="84.5" y="567.2" fill="#91bfdb" class="flag">[2]</text><text x="106.5" y="567.2" fill="#111" class="taxonLabel">Serpula</text><text x="164" y="514.1" fill="grey" class="flag">[?]</text><text x="186" y="514.1" fill="grey" class="taxonLabel">Pedunculotheca diania</text><text x="164" y="527.4" fill="#91bfdb" class="flag">[2]</text><text x="186" y="527.4" fill="#111" class="taxonLabel">Haplophrentis carinatus</text><text x="376" y="487.6" fill="grey" class="flag">[?]</text><text x="398" y="487.6" fill="grey" class="taxonLabel">Mummpikia nuda</text><text x="376" y="500.9" fill="grey" class="flag">[?]</text><text x="398" y="500.9" fill="grey" class="taxonLabel">Eoobolus</text><text x="349.5" y="474.3" fill="grey" class="flag">[?]</text><text x="371.5" y="474.3" fill="grey" class="taxonLabel">Botsfordia</text><text x="323" y="461.1" fill="#e2e2a2" class="flag">[1]</text><text x="345" y="461.1" fill="#111" class="taxonLabel">Lingulellotreta malongensis</text><text x="349.5" y="434.5" fill="grey" class="flag">[?]</text><text x="371.5" y="434.5" fill="grey" class="taxonLabel">Siphonobolus priscus</text><text x="349.5" y="447.8" fill="#e2e2a2" class="flag">[1]</text><text x="371.5" y="447.8" fill="#111" class="taxonLabel">Acanthotretella spinosa</text><text x="349.5" y="408" fill="#e2e2a2" class="flag">[1]</text><text x="371.5" y="408" fill="#111" class="taxonLabel">Lingulosacculus</text><text x="349.5" y="421.3" fill="grey" class="flag">[?]</text><text x="371.5" y="421.3" fill="grey" class="taxonLabel">Clupeafumosus socialis</text><text x="270" y="394.7" fill="#e2e2a2" class="flag">[1]</text><text x="292" y="394.7" fill="#111" class="taxonLabel">Lingula</text><text x="270" y="368.2" fill="grey" class="flag">[?]</text><text x="292" y="368.2" fill="grey" class="taxonLabel">Mickwitzia muralensis</text><text x="270" y="381.5" fill="#e2e2a2" class="flag">[1]</text><text x="292" y="381.5" fill="#111" class="taxonLabel">Pelagodiscus atlanticus</text><text x="323" y="341.7" fill="grey" class="flag">[?]</text><text x="345" y="341.7" fill="grey" class="taxonLabel">Craniops</text><text x="323" y="354.9" fill="#e2e2a2" class="flag">[1]</text><text x="345" y="354.9" fill="#111" class="taxonLabel">Novocrania</text><text x="296.5" y="328.4" fill="grey" class="flag">[?]</text><text x="318.5" y="328.4" fill="grey" class="taxonLabel">Ussunia</text><text x="270" y="315.1" fill="grey" class="flag">[?]</text><text x="292" y="315.1" fill="grey" class="taxonLabel">Gasconsia</text><text x="349.5" y="288.6" fill="#e2e2a2" class="flag">[1]</text><text x="371.5" y="288.6" fill="#111" class="taxonLabel">Yuganotheca elegans</text><text x="349.5" y="301.9" fill="grey" class="flag">[?]</text><text x="371.5" y="301.9" fill="grey" class="taxonLabel">Tomteluva perturbata</text><text x="323" y="275.3" fill="grey" class="flag">[?]</text><text x="345" y="275.3" fill="grey" class="taxonLabel">Salanygolina</text><text x="482" y="248.8" fill="#e2e2a2" class="flag">[1]</text><text x="504" y="248.8" fill="#111" class="taxonLabel">Terebratulina</text><text x="482" y="262.1" fill="grey" class="flag">[?]</text><text x="504" y="262.1" fill="grey" class="taxonLabel">Orthis</text><text x="455.5" y="235.5" fill="#e2e2a2" class="flag">[1]</text><text x="477.5" y="235.5" fill="#111" class="taxonLabel">Alisina</text><text x="429" y="222.3" fill="#e2e2a2" class="flag">[1]</text><text x="451" y="222.3" fill="#111" class="taxonLabel">Longtancunella chengjiangensis</text><text x="402.5" y="209" fill="grey" class="flag">[?]</text><text x="424.5" y="209" fill="grey" class="taxonLabel">Glyptoria</text><text x="376" y="195.7" fill="grey" class="flag">[?]</text><text x="398" y="195.7" fill="grey" class="taxonLabel">Nisusia sulcata</text><text x="349.5" y="182.5" fill="#e2e2a2" class="flag">[1]</text><text x="371.5" y="182.5" fill="#111" class="taxonLabel">Kutorgina chengjiangensis</text><text x="349.5" y="155.9" fill="grey" class="flag">[?]</text><text x="371.5" y="155.9" fill="grey" class="taxonLabel">Coolinia pecten</text><text x="349.5" y="169.2" fill="grey" class="flag">[?]</text><text x="371.5" y="169.2" fill="grey" class="taxonLabel">Antigonambonites planus</text><text x="296.5" y="129.4" fill="grey" class="flag">[?]</text><text x="318.5" y="129.4" fill="grey" class="taxonLabel">Micromitra</text><text x="296.5" y="142.7" fill="grey" class="flag">[?]</text><text x="318.5" y="142.7" fill="grey" class="taxonLabel">Askepasma toddense</text><text x="190.5" y="116.1" fill="grey" class="flag">[?]</text><text x="212.5" y="116.1" fill="grey" class="taxonLabel">Micrina</text><text x="164" y="102.9" fill="grey" class="flag">[?]</text><text x="186" y="102.9" fill="grey" class="taxonLabel">Paterimitra</text><text x="111" y="89.6" fill="#91bfdb" class="flag">[2]</text><text x="133" y="89.6" fill="#111" class="taxonLabel">Heliomedusa orienta</text><text x="164" y="63.1" fill="grey" class="flag">[?]</text><text x="186" y="63.1" fill="grey" class="taxonLabel">Eccentrotheca</text><text x="164" y="76.3" fill="grey" class="flag">[?]</text><text x="186" y="76.3" fill="grey" class="taxonLabel">Dailyatia</text><text x="137.5" y="49.8" fill="grey" class="flag">[?]</text><text x="159.5" y="49.8" fill="grey" class="taxonLabel">Cotyledion tylodes</text><text x="164" y="10" fill="#91bfdb" class="flag">[2]</text><text x="186" y="10" fill="#111" class="taxonLabel">Flustra</text><text x="164" y="23.3" fill="#91bfdb" class="flag">[2]</text><text x="186" y="23.3" fill="#111" class="taxonLabel">Loxosomella</text><text x="137.5" y="36.5" fill="#91bfdb" class="flag">[2]</text><text x="159.5" y="36.5" fill="#111" class="taxonLabel">Phoronis</text><text x="58" y="540.7" fill="grey" class="flag">[?]</text><text x="80" y="540.7" fill="grey" class="taxonLabel">Halkieria evangelista</text><path d="M5,452.3V332H31.5M31.5,332V126.4H58M58,126.4V40.2H84.5M84.5,40.2V23.6H111M111,23.6V13.6H137.5M137.5,13.6V7H164M137.5,13.6V20.3H164M111,23.6V33.5H137.5M84.5,40.2V56.8H111M111,56.8V46.8H137.5M111,56.8V66.7H137.5M137.5,66.7V60.1H164M137.5,66.7V73.3H164M58,126.4V212.5H84.5M84.5,212.5V86.6H111M84.5,212.5V338.5H111M111,338.5V159.2H137.5M111,338.5V517.8H137.5M137.5,517.8V511.1H164M137.5,517.8V524.4H164M31.5,332V537.7H58M5,452.3V572.5H31.5M31.5,572.5V557.6H58M58,557.6V550.9H84.5M58,557.6V564.2H84.5" stroke="#91bfdb"></path><path d="M137.5,159.2V99.9H164M137.5,159.2V218.6H164M164,218.6V113.1H190.5" stroke="darkgrey"></path><path d="M164,218.6V324H190.5M190.5,324V252.4H217M217,252.4V181.1H243.5M243.5,181.1V133H270M270,133V126.4H296.5M270,133V139.7H296.5M243.5,181.1V229.2H270M270,229.2V176H296.5M296.5,176V159.6H323M323,159.6V152.9H349.5M323,159.6V166.2H349.5M296.5,176V192.5H323M323,192.5V179.5H349.5M323,192.5V205.6H349.5M349.5,205.6V192.7H376M349.5,205.6V218.4H376M376,218.4V206H402.5M376,218.4V230.9H402.5M402.5,230.9V219.3H429M402.5,230.9V242.5H429M429,242.5V232.5H455.5M429,242.5V252.4H455.5M455.5,252.4V245.8H482M455.5,252.4V259.1H482M270,229.2V282.3H296.5M296.5,282.3V272.3H323M296.5,282.3V292.2H323M323,292.2V285.6H349.5M323,292.2V298.9H349.5M217,252.4V323.7H243.5M243.5,323.7V312.1H270M243.5,323.7V335.4H270M270,335.4V325.4H296.5M270,335.4V345.3H296.5M296.5,345.3V338.7H323M296.5,345.3V351.9H323M190.5,324V395.7H217M217,395.7V371.8H243.5M243.5,371.8V365.2H270M243.5,371.8V378.5H270M217,395.7V419.5H243.5M243.5,419.5V391.7H270M243.5,419.5V447.3H270M270,447.3V424.9H296.5M296.5,424.9V411.6H323M323,411.6V405H349.5M323,411.6V418.3H349.5M296.5,424.9V438.2H323M323,438.2V431.5H349.5M323,438.2V444.8H349.5M270,447.3V469.7H296.5M296.5,469.7V458.1H323M296.5,469.7V481.3H323M323,481.3V471.3H349.5M323,481.3V491.2H349.5M349.5,491.2V484.6H376M349.5,491.2V497.9H376" stroke="#e2e2a2"></path><path d="M31.5,572.5V587.4H58M58,587.4V577.5H84.5M58,587.4V597.4H84.5M84.5,597.4V590.7H111M84.5,597.4V604H111" stroke="lightgrey" class="inapplicable"></path><text x="7" y="455.3" class="node" fill="#4A6FE3">1</text><text x="33.5" y="335" class="node" fill="#4A6FE3">1</text><text x="60" y="129.4" class="node" fill="#8091E1">0.85</text><text x="86.5" y="43.2" class="node" fill="#8091E1">0.85</text><text x="113" y="26.6" class="node" fill="#4A6FE3">1</text><text x="139.5" y="16.6" class="node" fill="#4A6FE3">1</text><text x="113" y="59.8" class="node" fill="#8091E1">0.85</text><text x="139.5" y="69.7" class="node" fill="#8091E1">0.85</text><text x="86.5" y="215.5" class="node" fill="#8091E1">0.85</text><text x="113" y="341.5" class="node" fill="#8091E1">0.85</text><text x="139.5" y="162.2" class="node" fill="#E18297">0.19</text><text x="166" y="221.6" class="node" fill="#4A6FE3">1</text><text x="192.5" y="327" class="node" fill="#D64F73">0.04</text><text x="219" y="255.4" class="node" fill="#4A6FE3">1</text><text x="245.5" y="184.1" class="node" fill="#A0ABE2">0.74</text><text x="272" y="136" class="node" fill="#4A6FE3">1</text><text x="272" y="232.2" class="node" fill="#8C9BE1">0.81</text><text x="298.5" y="179" class="node" fill="#4A6FE3">1</text><text x="325" y="162.6" class="node" fill="#4A6FE3">1</text><text x="325" y="195.5" class="node" fill="#DADBE3">0.53</text><text x="351.5" y="208.6" class="node" fill="#DADBE3">0.53</text><text x="378" y="221.4" class="node" fill="#DADBE3">0.53</text><text x="404.5" y="233.9" class="node" fill="#DADBE3">0.53</text><text x="431" y="245.5" class="node" fill="#4A6FE3">1</text><text x="457.5" y="255.4" class="node" fill="#97A4E2">0.77</text><text x="298.5" y="285.3" class="node" fill="#BFC4E3">0.63</text><text x="325" y="295.2" class="node" fill="#627DE1">0.94</text><text x="245.5" y="326.7" class="node" fill="#4A6FE3">1</text><text x="272" y="338.4" class="node" fill="#4A6FE3">1</text><text x="298.5" y="348.3" class="node" fill="#4A6FE3">1</text><text x="219" y="398.7" class="node" fill="#D64F73">0.04</text><text x="245.5" y="374.8" class="node" fill="#ABB4E2">0.7</text><text x="245.5" y="422.5" class="node" fill="#ABB4E2">0.7</text><text x="272" y="450.3" class="node" fill="#ABB4E2">0.7</text><text x="298.5" y="427.9" class="node" fill="#E5CACE">0.42</text><text x="325" y="414.6" class="node" fill="#E07C92">0.17</text><text x="325" y="441.2" class="node" fill="#4A6FE3">1</text><text x="298.5" y="472.7" class="node" fill="#E6AEB8">0.33</text><text x="325" y="484.3" class="node" fill="#E6AEB8">0.33</text><text x="351.5" y="494.2" class="node" fill="#E6AEB8">0.33</text><text x="139.5" y="520.8" class="node" fill="#4A6FE3">1</text><text x="33.5" y="575.5" class="node" fill="#4A6FE3">1</text><text x="60" y="560.6" class="node" fill="#A6AFE2">0.72</text><text x="60" y="590.4" class="node" fill="#E4D9DB">0.47</text><text x="86.5" y="600.4" class="node" fill="#E4D9DB">0.47</text></svg>
