<svg xmlns="http://www.w3.org/2000/svg" version="1.1" width="682" height="555" class="tree" char="101">
 <text x="678" y="17.6" text-anchor="end" class="stepsLabel">Character adds <tspan class="score">1</tspan> to tree score</text>
 <text x="678" y="32.2" text-anchor="end" class="stepsLabel"><tspan class="score"></tspan> additional region</text>
 <text x="678" y="46.8" text-anchor="end" class="stepsLabel">CI = 1; Fitch CI = 1; Fitch RI = 1</text>
 <text x="678" y="76" text-anchor="end" class="stepsLabel"><tspan dy="16">An optimal tree under:</tspan><tspan x="680" style="font-style:italic" class="notThisAn" dy="1.2em">Equal weights</tspan><tspan x="680" style="font-style:italic" class="thisAn" dy="1.2em">Implied weights, k = 2</tspan><tspan x="680" style="font-style:italic" class="thisAn" dy="1.2em">IW, k = 3</tspan><tspan x="680" style="font-style:italic" class="notThisAn" dy="1.2em">IW, k = 4.5</tspan><tspan x="680" style="font-style:italic" class="notThisAn" dy="1.2em">IW, k = 7</tspan><tspan x="680" style="font-style:italic" class="notThisAn" dy="1.2em">IW, k = 10.5</tspan><tspan x="680" style="font-style:italic" class="notThisAn" dy="1.2em">IW, k = 16</tspan><tspan x="680" style="font-style:italic" class="notThisAn" dy="1.2em">IW, k = 24</tspan></text>
 <text x="31.5" y="10" fill="grey" class="flag">[?]</text>
 <text x="53.5" y="10" class="taxonLabel">Dailyatia</text>
 <text x="84.5" y="40" fill="grey" class="flag">[?]</text>
 <text x="106.5" y="40" class="taxonLabel">Eccentrotheca</text>
 <text x="58" y="25" fill="#91bfdb" class="flag">[2]</text>
 <text x="80" y="25" class="taxonLabel">Phoronis</text>
 <text x="111" y="55" fill="grey" class="flag">[?]</text>
 <text x="133" y="55" class="taxonLabel">Paterimitra</text>
 <text x="137.5" y="70" fill="grey" class="flag">[?]</text>
 <text x="159.5" y="70" class="taxonLabel">Micrina</text>
 <text x="164" y="85" fill="#91bfdb" class="flag">[2]</text>
 <text x="186" y="85" class="taxonLabel">Heliomedusa orienta</text>
 <text x="217" y="520" fill="grey" class="flag">[?]</text>
 <text x="239" y="520" class="taxonLabel">Mickwitzia muralensis</text>
 <text x="243.5" y="550" fill="#91bfdb" class="flag">[2]</text>
 <text x="265.5" y="550" class="taxonLabel">Haplophrentis carinatus</text>
 <text x="243.5" y="535" fill="grey" class="flag">[?]</text>
 <text x="265.5" y="535" class="taxonLabel">Pedunculotheca diania</text>
 <text x="243.5" y="100" fill="grey" class="flag">[?]</text>
 <text x="265.5" y="100" class="taxonLabel">Clupeafumosus socialis</text>
 <text x="296.5" y="115" fill="#e2e2a2" class="flag">[1]</text>
 <text x="318.5" y="115" class="taxonLabel">Lingulosacculus</text>
 <text x="296.5" y="235" fill="grey" class="flag">[?]</text>
 <text x="318.5" y="235" class="taxonLabel">Siphonobolus priscus</text>
 <text x="296.5" y="220" fill="#e2e2a2" class="flag">[1]</text>
 <text x="318.5" y="220" class="taxonLabel">Acanthotretella spinosa</text>
 <text x="349.5" y="130" fill="#e2e2a2" class="flag">[1]</text>
 <text x="371.5" y="130" class="taxonLabel">Lingulellotreta malongensis</text>
 <text x="376" y="145" fill="grey" class="flag">[?]</text>
 <text x="398" y="145" class="taxonLabel">Botsfordia</text>
 <text x="402.5" y="175" fill="grey" class="flag">[?]</text>
 <text x="424.5" y="175" class="taxonLabel">Mummpikia nuda</text>
 <text x="402.5" y="160" fill="grey" class="flag">[?]</text>
 <text x="424.5" y="160" class="taxonLabel">Eoobolus</text>
 <text x="349.5" y="205" fill="#e2e2a2" class="flag">[1]</text>
 <text x="371.5" y="205" class="taxonLabel">Pelagodiscus atlanticus</text>
 <text x="349.5" y="190" fill="#e2e2a2" class="flag">[1]</text>
 <text x="371.5" y="190" class="taxonLabel">Lingula</text>
 <text x="323" y="250" fill="grey" class="flag">[?]</text>
 <text x="345" y="250" class="taxonLabel">Salanygolina</text>
 <text x="349.5" y="280" fill="grey" class="flag">[?]</text>
 <text x="371.5" y="280" class="taxonLabel">Tomteluva perturbata</text>
 <text x="349.5" y="265" fill="#e2e2a2" class="flag">[1]</text>
 <text x="371.5" y="265" class="taxonLabel">Yuganotheca elegans</text>
 <text x="349.5" y="295" fill="#e2e2a2" class="flag">[1]</text>
 <text x="371.5" y="295" class="taxonLabel">Kutorgina chengjiangensis</text>
 <text x="376" y="310" fill="grey" class="flag">[?]</text>
 <text x="398" y="310" class="taxonLabel">Nisusia sulcata</text>
 <text x="402.5" y="325" fill="grey" class="flag">[?]</text>
 <text x="424.5" y="325" class="taxonLabel">Glyptoria</text>
 <text x="429" y="340" fill="#e2e2a2" class="flag">[1]</text>
 <text x="451" y="340" class="taxonLabel">Longtancunella chengjiangensis</text>
 <text x="455.5" y="355" fill="#e2e2a2" class="flag">[1]</text>
 <text x="477.5" y="355" class="taxonLabel">Alisina</text>
 <text x="482" y="385" fill="grey" class="flag">[?]</text>
 <text x="504" y="385" class="taxonLabel">Orthis</text>
 <text x="482" y="370" fill="#e2e2a2" class="flag">[1]</text>
 <text x="504" y="370" class="taxonLabel">Terebratulina</text>
 <text x="349.5" y="415" fill="grey" class="flag">[?]</text>
 <text x="371.5" y="415" class="taxonLabel">Coolinia pecten</text>
 <text x="349.5" y="400" fill="grey" class="flag">[?]</text>
 <text x="371.5" y="400" class="taxonLabel">Antigonambonites planus</text>
 <text x="296.5" y="445" fill="grey" class="flag">[?]</text>
 <text x="318.5" y="445" class="taxonLabel">Micromitra</text>
 <text x="296.5" y="430" fill="grey" class="flag">[?]</text>
 <text x="318.5" y="430" class="taxonLabel">Askepasma toddense</text>
 <text x="270" y="460" fill="grey" class="flag">[?]</text>
 <text x="292" y="460" class="taxonLabel">Gasconsia</text>
 <text x="296.5" y="475" fill="grey" class="flag">[?]</text>
 <text x="318.5" y="475" class="taxonLabel">Ussunia</text>
 <text x="323" y="505" fill="grey" class="flag">[?]</text>
 <text x="345" y="505" class="taxonLabel">Craniops</text>
 <text x="323" y="490" fill="#e2e2a2" class="flag">[1]</text>
 <text x="345" y="490" class="taxonLabel">Novocrania</text>
 <path d="M5,26.6V7H31.5M5,26.6V46.1H31.5M31.5,46.1V22H58M31.5,46.1V70.3H58M58,70.3V37H84.5M58,70.3V103.5H84.5M84.5,103.5V52H111M84.5,103.5V155H111M111,155V67H137.5M111,155V243.1H137.5M137.5,243.1V82H164M137.5,243.1V404.1H164M164,404.1V528.2H190.5M190.5,528.2V517H217M190.5,528.2V539.5H217M217,539.5V532H243.5M217,539.5V547H243.5" stroke="#91bfdb"></path>
 <path d="M164,404.1V280H190.5M190.5,280V139.5H217M217,139.5V97H243.5M217,139.5V182.1H243.5M243.5,182.1V139.7H270M270,139.7V112H296.5M270,139.7V167.3H296.5M296.5,167.3V140.1H323M323,140.1V127H349.5M323,140.1V153.2H349.5M349.5,153.2V142H376M349.5,153.2V164.5H376M376,164.5V157H402.5M376,164.5V172H402.5M296.5,167.3V194.5H323M323,194.5V187H349.5M323,194.5V202H349.5M243.5,182.1V224.5H270M270,224.5V217H296.5M270,224.5V232H296.5M190.5,280V420.4H217M217,420.4V370.7H243.5M243.5,370.7V306.9H270M270,306.9V258.2H296.5M296.5,258.2V247H323M296.5,258.2V269.5H323M323,269.5V262H349.5M323,269.5V277H349.5M270,306.9V355.6H296.5M296.5,355.6V306.8H323M323,306.8V292H349.5M323,306.8V321.5H349.5M349.5,321.5V307H376M349.5,321.5V336.1H376M376,336.1V322H402.5M376,336.1V350.1H402.5M402.5,350.1V337H429M402.5,350.1V363.2H429M429,363.2V352H455.5M429,363.2V374.5H455.5M455.5,374.5V367H482M455.5,374.5V382H482M296.5,355.6V404.5H323M323,404.5V397H349.5M323,404.5V412H349.5M243.5,370.7V434.5H270M270,434.5V427H296.5M270,434.5V442H296.5M217,420.4V470.1H243.5M243.5,470.1V457H270M243.5,470.1V483.2H270M270,483.2V472H296.5M270,483.2V494.5H296.5M296.5,494.5V487H323M296.5,494.5V502H323" stroke="#e2e2a2"></path>
 <text x="7" y="29.6" class="node" fill="red">NA</text>
 <text x="33.5" y="49.1" class="node" fill="red">NA</text>
 <text x="60" y="73.3" class="node" fill="red">NA</text>
 <text x="86.5" y="106.5" class="node" fill="#4A6FE3">1</text>
 <text x="113" y="158" class="node" fill="#4A6FE3">1</text>
 <text x="139.5" y="246.1" class="node" fill="#E6B1BB">0.34</text>
 <text x="166" y="407.1" class="node" fill="#4A6FE3">1</text>
 <text x="192.5" y="283" class="node" fill="#4A6FE3">1</text>
 <text x="219" y="142.5" class="node" fill="#DD6F88">0.13</text>
 <text x="245.5" y="185.1" class="node" fill="#DD6F88">0.13</text>
 <text x="272" y="142.7" class="node" fill="#DD6F88">0.13</text>
 <text x="298.5" y="170.3" class="node" fill="#DD6F88">0.13</text>
 <text x="325" y="143.1" class="node" fill="#DD6F88">0.13</text>
 <text x="351.5" y="156.2" class="node" fill="#D64F73">0.04</text>
 <text x="378" y="167.5" class="node" fill="#DD6F88">0.13</text>
 <text x="325" y="197.5" class="node" fill="#E498A7">0.26</text>
 <text x="272" y="227.5" class="node" fill="#E498A7">0.26</text>
 <text x="219" y="423.4" class="node" fill="#E498A7">0.26</text>
 <text x="245.5" y="373.7" class="node" fill="#DD6F88">0.13</text>
 <text x="272" y="309.9" class="node" fill="#4A6FE3">1</text>
 <text x="298.5" y="261.2" class="node" fill="#DD6F88">0.13</text>
 <text x="325" y="272.5" class="node" fill="#4A6FE3">1</text>
 <text x="298.5" y="358.6" class="node" fill="#4A6FE3">1</text>
 <text x="325" y="309.8" class="node" fill="#8C9BE1">0.81</text>
 <text x="351.5" y="324.5" class="node" fill="#6D84E1">0.91</text>
 <text x="378" y="339.1" class="node" fill="#4A6FE3">1</text>
 <text x="404.5" y="353.1" class="node" fill="#768BE1">0.88</text>
 <text x="431" y="366.2" class="node" fill="#768BE1">0.88</text>
 <text x="457.5" y="377.5" class="node" fill="#768BE1">0.88</text>
 <text x="325" y="407.5" class="node" fill="#768BE1">0.88</text>
 <text x="272" y="437.5" class="node" fill="#4A6FE3">1</text>
 <text x="245.5" y="473.1" class="node" fill="#667FE1">0.93</text>
 <text x="272" y="486.2" class="node" fill="#4A6FE3">1</text>
 <text x="298.5" y="497.5" class="node" fill="#4A6FE3">1</text>
 <text x="192.5" y="531.2" class="node" fill="#DD6F88">0.13</text>
 <text x="219" y="542.5" class="node" fill="#4A6FE3">1</text></svg>
