<svg xmlns="http://www.w3.org/2000/svg" version="1.1" width="682" height="612" class="tree" data-char="31"><text x="678" y="15.4" text-anchor="end" class="stepsLabel">Character adds <tspan class="score">6</tspan> to tree score</text><text x="678" y="27.8" text-anchor="end" class="stepsLabel"><tspan class="score">0</tspan> additional regions</text><text x="678" y="40.2" text-anchor="end" class="stepsLabel">CI = 0.5; Fitch CI = 0.5; Fitch RI = 0.62</text><text x="678" y="65" text-anchor="end" class="stepsLabel"><tspan dy="16">An optimal tree under:</tspan><tspan x="680" style="font-style:italic" class="notThisAn" dy="1.2em">Equal weights</tspan><tspan x="680" style="font-style:italic" class="notThisAn" dy="1.2em">Implied weights, k = 2</tspan><tspan x="680" style="font-style:italic" class="notThisAn" dy="1.2em">IW, k = 3</tspan><tspan x="680" style="font-style:italic" class="notThisAn" dy="1.2em">IW, k = 4.5</tspan><tspan x="680" style="font-style:italic" class="notThisAn" dy="1.2em">IW, k = 7</tspan><tspan x="680" style="font-style:italic" class="notThisAn" dy="1.2em">IW, k = 10.5</tspan><tspan x="680" style="font-style:italic" class="thisAn" dy="1.2em">IW, k = 16</tspan><tspan x="680" style="font-style:italic" class="notThisAn" dy="1.2em">IW, k = 24</tspan></text><text x="105.4" y="594.3" fill="lightgrey" class="flag">[-]</text><text x="127.4" y="594.3" fill="#ccc" class="taxonLabel">Tonicella</text><text x="105.4" y="607" fill="lightgrey" class="flag">[-]</text><text x="127.4" y="607" fill="#ccc" class="taxonLabel">Dentalium</text><text x="80.3" y="581.6" fill="lightgrey" class="flag">[-]</text><text x="102.3" y="581.6" fill="#ccc" class="taxonLabel">Wiwaxia corrugata</text><text x="80.3" y="556.2" fill="lightgrey" class="flag">[-]</text><text x="102.3" y="556.2" fill="#ccc" class="taxonLabel">Serpula</text><text x="80.3" y="568.9" fill="lightgrey" class="flag">[-]</text><text x="102.3" y="568.9" fill="#ccc" class="taxonLabel">Sipunculus</text><text x="180.7" y="518.1" fill="lightgrey" class="flag">[-]</text><text x="202.7" y="518.1" fill="#ccc" class="taxonLabel">Phoronis</text><text x="180.7" y="530.8" fill="lightgrey" class="flag">[-]</text><text x="202.7" y="530.8" fill="#ccc" class="taxonLabel">Namacalathus</text><text x="155.6" y="505.4" fill="lightgrey" class="flag">[-]</text><text x="177.6" y="505.4" fill="#ccc" class="taxonLabel">Cotyledion tylodes</text><text x="130.5" y="492.7" fill="lightgrey" class="flag">[-]</text><text x="152.5" y="492.7" fill="#ccc" class="taxonLabel">Eccentrotheca</text><text x="230.9" y="467.3" fill="grey" class="flag">[?]</text><text x="252.9" y="467.3" fill="#999" class="taxonLabel">Haplophrentis carinatus</text><text x="230.9" y="480" fill="grey" class="flag">[?]</text><text x="252.9" y="480" fill="#999" class="taxonLabel">Pedunculotheca diania</text><text x="356.5" y="441.9" fill="grey" class="flag">[?]</text><text x="378.5" y="441.9" fill="#999" class="taxonLabel">Coolinia pecten</text><text x="356.5" y="454.6" fill="grey" class="flag">[?]</text><text x="378.5" y="454.6" fill="#999" class="taxonLabel">Antigonambonites planus</text><text x="482" y="416.5" fill="#2c7bb6" class="flag">[4]</text><text x="504" y="416.5" fill="#000" class="taxonLabel">Orthis</text><text x="482" y="429.2" fill="#fdae61" class="flag">[1]</text><text x="504" y="429.2" fill="#000" class="taxonLabel">Terebratulina</text><text x="456.9" y="403.8" fill="#abd9e9" class="flag">[3]</text><text x="478.9" y="403.8" fill="#000" class="taxonLabel">Alisina</text><text x="431.8" y="391.1" fill="#fdae61" class="flag">[1]</text><text x="453.8" y="391.1" fill="#000" class="taxonLabel">Longtancunella chengjiangensis</text><text x="406.7" y="378.4" fill="#fdae61" class="flag">[1]</text><text x="428.7" y="378.4" fill="#000" class="taxonLabel">Glyptoria</text><text x="381.6" y="365.7" fill="#fdae61" class="flag">[1]</text><text x="403.6" y="365.7" fill="#000" class="taxonLabel">Nisusia sulcata</text><text x="356.5" y="353" fill="grey" class="flag">[?]</text><text x="378.5" y="353" fill="#999" class="taxonLabel">Kutorgina chengjiangensis</text><text x="356.5" y="327.6" fill="grey" class="flag">[?]</text><text x="378.5" y="327.6" fill="#999" class="taxonLabel">Tomteluva perturbata</text><text x="356.5" y="340.3" fill="#fdae61" class="flag">[1]</text><text x="378.5" y="340.3" fill="#000" class="taxonLabel">Yuganotheca elegans</text><text x="331.4" y="314.9" fill="grey" class="flag">[?]</text><text x="353.4" y="314.9" fill="#999" class="taxonLabel">Salanygolina</text><text x="306.3" y="289.4" fill="#2c7bb6" class="flag">[4]</text><text x="328.3" y="289.4" fill="#000" class="taxonLabel">Micromitra</text><text x="306.3" y="302.1" fill="#fdae61" class="flag">[1]</text><text x="328.3" y="302.1" fill="#000" class="taxonLabel">Askepasma toddense</text><text x="431.8" y="264" fill="#abd9e9" class="flag">[3]</text><text x="453.8" y="264" fill="#000" class="taxonLabel">Eoobolus</text><text x="431.8" y="276.7" fill="grey" class="flag">[?]</text><text x="453.8" y="276.7" fill="#999" class="taxonLabel">Mummpikia nuda</text><text x="406.7" y="251.3" fill="#abd9e9" class="flag">[3]</text><text x="428.7" y="251.3" fill="#000" class="taxonLabel">Botsfordia</text><text x="381.6" y="238.6" fill="#abd9e9" class="flag">[3]</text><text x="403.6" y="238.6" fill="#000" class="taxonLabel">Lingulellotreta malongensis</text><text x="431.8" y="213.2" fill="#abd9e9" class="flag">[3]</text><text x="453.8" y="213.2" fill="#000" class="taxonLabel">Siphonobolus priscus</text><text x="431.8" y="225.9" fill="#abd9e9" class="flag">[3]</text><text x="453.8" y="225.9" fill="#000" class="taxonLabel">Acanthotretella spinosa</text><text x="406.7" y="200.5" fill="#fdae61" class="flag">[1]</text><text x="428.7" y="200.5" fill="#000" class="taxonLabel">Clupeafumosus socialis</text><text x="381.6" y="187.8" fill="#abd9e9" class="flag">[3]</text><text x="403.6" y="187.8" fill="#000" class="taxonLabel">Lingulosacculus</text><text x="331.4" y="175.1" fill="#e2e2a2" class="flag">[2]</text><text x="353.4" y="175.1" fill="#000" class="taxonLabel">Lingula</text><text x="331.4" y="149.7" fill="grey" class="flag">[?]</text><text x="353.4" y="149.7" fill="#999" class="taxonLabel">Mickwitzia muralensis</text><text x="331.4" y="162.4" fill="#e2e2a2" class="flag">[2]</text><text x="353.4" y="162.4" fill="#000" class="taxonLabel">Pelagodiscus atlanticus</text><text x="381.6" y="124.3" fill="grey" class="flag">[?]</text><text x="403.6" y="124.3" fill="#999" class="taxonLabel">Craniops</text><text x="381.6" y="137" fill="#fdae61" class="flag">[1]</text><text x="403.6" y="137" fill="#000" class="taxonLabel">Novocrania</text><text x="356.5" y="111.6" fill="grey" class="flag">[?]</text><text x="378.5" y="111.6" fill="#999" class="taxonLabel">Ussunia</text><text x="331.4" y="98.9" fill="#fdae61" class="flag">[1]</text><text x="353.4" y="98.9" fill="#000" class="taxonLabel">Heliomedusa orienta</text><text x="306.3" y="86.2" fill="grey" class="flag">[?]</text><text x="328.3" y="86.2" fill="#999" class="taxonLabel">Gasconsia</text><text x="230.9" y="73.5" fill="grey" class="flag">[?]</text><text x="252.9" y="73.5" fill="#999" class="taxonLabel">Micrina</text><text x="180.7" y="60.8" fill="grey" class="flag">[?]</text><text x="202.7" y="60.8" fill="#999" class="taxonLabel">Paterimitra</text><text x="155.6" y="48.1" fill="lightgrey" class="flag">[-]</text><text x="177.6" y="48.1" fill="#ccc" class="taxonLabel">Halkieria evangelista</text><text x="130.5" y="35.4" fill="lightgrey" class="flag">[-]</text><text x="152.5" y="35.4" fill="#ccc" class="taxonLabel">Dailyatia</text><text x="105.4" y="10" fill="lightgrey" class="flag">[-]</text><text x="127.4" y="10" fill="#ccc" class="taxonLabel">Flustra</text><text x="105.4" y="22.7" fill="lightgrey" class="flag">[-]</text><text x="127.4" y="22.7" fill="#ccc" class="taxonLabel">Amathia</text><text x="55.2" y="543.5" fill="lightgrey" class="flag">[-]</text><text x="77.2" y="543.5" fill="#ccc" class="taxonLabel">Loxosomella</text><path d="M5,459.6V345.4H30.1M30.1,345.4V150.3H55.2M55.2,150.3V13.4H80.3M80.3,13.4V7H105.4M80.3,13.4V19.7H105.4M55.2,150.3V287.2H80.3M80.3,287.2V73.6H105.4M105.4,73.6V32.4H130.5M105.4,73.6V114.7H130.5M130.5,114.7V45.1H155.6M80.3,287.2V500.8H105.4M105.4,500.8V489.7H130.5M105.4,500.8V511.9H130.5M130.5,511.9V502.4H155.6M130.5,511.9V521.4H155.6M155.6,521.4V515.1H180.7M155.6,521.4V527.8H180.7M30.1,345.4V540.5H55.2M5,459.6V573.8H30.1M30.1,573.8V559.5H55.2M55.2,559.5V553.2H80.3M55.2,559.5V565.9H80.3M30.1,573.8V588.1H55.2M55.2,588.1V578.6H80.3M55.2,588.1V597.6H80.3M80.3,597.6V591.3H105.4M80.3,597.6V604H105.4" stroke="lightgrey" class="inapplicable"></path><path d="M130.5,114.7V184.3H155.6M155.6,184.3V57.8H180.7M155.6,184.3V310.8H180.7M180.7,310.8V150.9H205.8M205.8,150.9V70.5H230.9M205.8,150.9V231.4H230.9M230.9,231.4V135H256.1M256.1,135V95.1H281.2M281.2,95.1V83.2H306.3M281.2,95.1V107H306.3M306.3,107V95.9H331.4M306.3,107V118.1H331.4M331.4,118.1V108.6H356.5M331.4,118.1V127.7H356.5M356.5,127.7V121.3H381.6M356.5,127.7V134H381.6M381.6,207.1V197.5H406.7M230.9,231.4V327.7H256.1M256.1,327.7V292.8H281.2M281.2,292.8V299.1H306.3M256.1,327.7V362.6H281.2M281.2,362.6V321.4H306.3M306.3,321.4V311.9H331.4M306.3,321.4V330.9H331.4M331.4,330.9V324.6H356.5M331.4,330.9V337.3H356.5M281.2,362.6V403.8H306.3M306.3,403.8V362.5H331.4M331.4,362.5V350H356.5M331.4,362.5V375H356.5M356.5,375V362.7H381.6M356.5,375V387.3H381.6M381.6,387.3V375.4H406.7M381.6,387.3V399.2H406.7M406.7,399.2V388.1H431.8M406.7,399.2V410.3H431.8M431.8,410.3V419.8H456.9M456.9,419.8V426.2H482M306.3,403.8V445.2H331.4M331.4,445.2V438.9H356.5M331.4,445.2V451.6H356.5M180.7,310.8V470.6H205.8M205.8,470.6V464.3H230.9M205.8,470.6V477H230.9" stroke="#fdae61"></path><path d="M256.1,135V174.9H281.2M281.2,174.9V153.1H306.3M306.3,153.1V146.7H331.4M306.3,153.1V159.4H331.4M281.2,174.9V196.7H306.3M306.3,196.7V172.1H331.4" stroke="#e2e2a2"></path><path d="M306.3,196.7V221.3H331.4M331.4,221.3V195.9H356.5M356.5,195.9V184.8H381.6M356.5,195.9V207.1H381.6M381.6,207.1V216.6H406.7M406.7,216.6V210.2H431.8M406.7,216.6V222.9H431.8M331.4,221.3V246.8H356.5M356.5,246.8V235.6H381.6M356.5,246.8V257.9H381.6M381.6,257.9V248.3H406.7M381.6,257.9V267.4H406.7M406.7,267.4V261H431.8M406.7,267.4V273.7H431.8M431.8,410.3V400.8H456.9" stroke="#abd9e9"></path><path d="M281.2,292.8V286.4H306.3M456.9,419.8V413.5H482" stroke="#2c7bb6"></path><text x="7" y="462.6" class="node" fill="#4A6FE3">1</text><text x="32.1" y="348.4" class="node" fill="#4A6FE3">1</text><text x="57.2" y="153.3" class="node" fill="#97A4E2">0.77</text><text x="82.3" y="16.4" class="node" fill="#4A6FE3">1</text><text x="82.3" y="290.2" class="node" fill="#97A4E2">0.77</text><text x="107.4" y="76.6" class="node" fill="#E6B1BB">0.34</text><text x="132.5" y="117.7" class="node" fill="#E49CAA">0.27</text><text x="157.6" y="187.3" class="node" fill="#E4D9DB">0.47</text><text x="182.7" y="313.8" class="node" fill="#E5A5B1">0.3</text><text x="207.8" y="153.9" class="node" fill="#E38FA0">0.23</text><text x="232.9" y="234.4" class="node" fill="#DF798F">0.16</text><text x="258.1" y="138" class="node" fill="#DB617F">0.09</text><text x="283.2" y="98.1" class="node" fill="#E38FA0">0.23</text><text x="308.3" y="110" class="node" fill="#E38FA0">0.23</text><text x="333.4" y="121.1" class="node" fill="#E4D9DB">0.47</text><text x="358.5" y="130.7" class="node" fill="#4A6FE3">1</text><text x="283.2" y="177.9" class="node" fill="#E38C9E">0.22</text><text x="308.3" y="156.1" class="node" fill="#9DA8E2">0.75</text><text x="308.3" y="199.7" class="node" fill="#9DA8E2">0.75</text><text x="333.4" y="224.3" class="node" fill="#C1C6E3">0.62</text><text x="358.5" y="198.9" class="node" fill="#8F9DE1">0.8</text><text x="383.6" y="210.1" class="node" fill="#E5D0D3">0.44</text><text x="408.7" y="219.6" class="node" fill="#4A6FE3">1</text><text x="358.5" y="249.8" class="node" fill="#DB617F">0.09</text><text x="383.6" y="260.9" class="node" fill="#E4D9DB">0.47</text><text x="408.7" y="270.4" class="node" fill="#DB617F">0.09</text><text x="258.1" y="330.7" class="node" fill="#667FE1">0.93</text><text x="283.2" y="295.8" class="node" fill="#4A6FE3">1</text><text x="283.2" y="365.6" class="node" fill="#667FE1">0.93</text><text x="308.3" y="324.4" class="node" fill="#E3DFE0">0.49</text><text x="333.4" y="333.9" class="node" fill="#9AA6E2">0.76</text><text x="308.3" y="406.8" class="node" fill="#7A8DE1">0.87</text><text x="333.4" y="365.5" class="node" fill="#E4D9DB">0.47</text><text x="358.5" y="378" class="node" fill="#E4D9DB">0.47</text><text x="383.6" y="390.3" class="node" fill="#C7CBE3">0.6</text><text x="408.7" y="402.2" class="node" fill="#C7CBE3">0.6</text><text x="433.8" y="413.3" class="node" fill="#4A6FE3">1</text><text x="458.9" y="422.8" class="node" fill="#8696E1">0.83</text><text x="333.4" y="448.2" class="node" fill="#4A6FE3">1</text><text x="207.8" y="473.6" class="node" fill="#4A6FE3">1</text><text x="107.4" y="503.8" class="node" fill="#E5A8B3">0.31</text><text x="132.5" y="514.9" class="node" fill="#E5A5B1">0.3</text><text x="157.6" y="524.4" class="node" fill="#4A6FE3">1</text><text x="32.1" y="576.8" class="node" fill="#4A6FE3">1</text><text x="57.2" y="562.5" class="node" fill="#4A6FE3">1</text><text x="57.2" y="591.1" class="node" fill="#4A6FE3">1</text><text x="82.3" y="600.6" class="node" fill="#7A8DE1">0.87</text></svg>
