<svg xmlns="http://www.w3.org/2000/svg" version="1.1" width="682" height="555" class="tree" data-char="147">
 <text x="678" y="14.7" text-anchor="end" class="stepsLabel">Character adds <tspan class="score">2</tspan> to tree score</text>
 <text x="678" y="26.4" text-anchor="end" class="stepsLabel"><tspan class="score">0</tspan> additional regions</text>
 <text x="678" y="38.1" text-anchor="end" class="stepsLabel">CI = 0.5; Fitch CI = 0.5; Fitch RI = 0.67</text>
 <text x="678" y="61.5" text-anchor="end" class="stepsLabel"><tspan dy="16">An optimal tree under:</tspan><tspan x="680" style="font-style:italic" class="thisAn" dy="1.2em">Equal weights</tspan><tspan x="680" style="font-style:italic" class="notThisAn" dy="1.2em">Implied weights, k = 2</tspan><tspan x="680" style="font-style:italic" class="notThisAn" dy="1.2em">IW, k = 3</tspan><tspan x="680" style="font-style:italic" class="notThisAn" dy="1.2em">IW, k = 4.5</tspan><tspan x="680" style="font-style:italic" class="notThisAn" dy="1.2em">IW, k = 7</tspan><tspan x="680" style="font-style:italic" class="notThisAn" dy="1.2em">IW, k = 10.5</tspan><tspan x="680" style="font-style:italic" class="notThisAn" dy="1.2em">IW, k = 16</tspan><tspan x="680" style="font-style:italic" class="notThisAn" dy="1.2em">IW, k = 24</tspan></text>
 <text x="76.6" y="538" fill="#91bfdb" class="flag">[1]</text>
 <text x="98.6" y="538" fill="#111" class="taxonLabel">Serpula</text>
 <text x="76.6" y="550" fill="#fc8d59" class="flag">[0]</text>
 <text x="98.6" y="550" fill="#111" class="taxonLabel">Sipunculus</text>
 <text x="100.4" y="514" fill="grey" class="flag">[?]</text>
 <text x="122.4" y="514" fill="#111" class="taxonLabel">Wiwaxia corrugata</text>
 <text x="100.4" y="526" fill="#91bfdb" class="flag">[1]</text>
 <text x="122.4" y="526" fill="#111" class="taxonLabel">Tonicella</text>
 <text x="76.6" y="502" fill="#91bfdb" class="flag">[1]</text>
 <text x="98.6" y="502" fill="#111" class="taxonLabel">Dentalium</text>
 <text x="434.3" y="418" fill="grey" class="flag">[?]</text>
 <text x="456.3" y="418" fill="#111" class="taxonLabel">Siphonobolus priscus</text>
 <text x="434.3" y="430" fill="grey" class="flag">[?]</text>
 <text x="456.3" y="430" fill="#111" class="taxonLabel">Acanthotretella spinosa</text>
 <text x="410.5" y="406" fill="grey" class="flag">[?]</text>
 <text x="432.5" y="406" fill="#111" class="taxonLabel">Clupeafumosus socialis</text>
 <text x="410.5" y="382" fill="grey" class="flag">[?]</text>
 <text x="432.5" y="382" fill="#111" class="taxonLabel">Lingulosacculus</text>
 <text x="410.5" y="394" fill="grey" class="flag">[?]</text>
 <text x="432.5" y="394" fill="#111" class="taxonLabel">Lingulellotreta malongensis</text>
 <text x="362.8" y="370" fill="grey" class="flag">[?]</text>
 <text x="384.8" y="370" fill="#111" class="taxonLabel">Botsfordia</text>
 <text x="338.9" y="358" fill="grey" class="flag">[?]</text>
 <text x="360.9" y="358" fill="#111" class="taxonLabel">Mummpikia nuda</text>
 <text x="315.1" y="346" fill="grey" class="flag">[?]</text>
 <text x="337.1" y="346" fill="#111" class="taxonLabel">Eoobolus</text>
 <text x="291.2" y="334" fill="#fc8d59" class="flag">[0]</text>
 <text x="313.2" y="334" fill="#111" class="taxonLabel">Lingula</text>
 <text x="315.1" y="310" fill="grey" class="flag">[?]</text>
 <text x="337.1" y="310" fill="#111" class="taxonLabel">Pelagodiscus atlanticus</text>
 <text x="315.1" y="322" fill="grey" class="flag">[?]</text>
 <text x="337.1" y="322" fill="#111" class="taxonLabel">Mickwitzia muralensis</text>
 <text x="291.2" y="298" fill="grey" class="flag">[?]</text>
 <text x="313.2" y="298" fill="#111" class="taxonLabel">Micrina</text>
 <text x="315.1" y="274" fill="grey" class="flag">[?]</text>
 <text x="337.1" y="274" fill="#111" class="taxonLabel">Micromitra</text>
 <text x="315.1" y="286" fill="grey" class="flag">[?]</text>
 <text x="337.1" y="286" fill="#111" class="taxonLabel">Askepasma toddense</text>
 <text x="386.6" y="250" fill="grey" class="flag">[?]</text>
 <text x="408.6" y="250" fill="#111" class="taxonLabel">Antigonambonites planus</text>
 <text x="386.6" y="262" fill="grey" class="flag">[?]</text>
 <text x="408.6" y="262" fill="#111" class="taxonLabel">Coolinia pecten</text>
 <text x="482" y="226" fill="grey" class="flag">[?]</text>
 <text x="504" y="226" fill="#111" class="taxonLabel">Terebratulina</text>
 <text x="482" y="238" fill="grey" class="flag">[?]</text>
 <text x="504" y="238" fill="#111" class="taxonLabel">Orthis</text>
 <text x="458.2" y="214" fill="grey" class="flag">[?]</text>
 <text x="480.2" y="214" fill="#111" class="taxonLabel">Alisina</text>
 <text x="434.3" y="202" fill="grey" class="flag">[?]</text>
 <text x="456.3" y="202" fill="#111" class="taxonLabel">Glyptoria</text>
 <text x="410.5" y="190" fill="grey" class="flag">[?]</text>
 <text x="432.5" y="190" fill="#111" class="taxonLabel">Nisusia sulcata</text>
 <text x="386.6" y="178" fill="grey" class="flag">[?]</text>
 <text x="408.6" y="178" fill="#111" class="taxonLabel">Kutorgina chengjiangensis</text>
 <text x="338.9" y="166" fill="grey" class="flag">[?]</text>
 <text x="360.9" y="166" fill="#111" class="taxonLabel">Longtancunella chengjiangensis</text>
 <text x="362.8" y="142" fill="grey" class="flag">[?]</text>
 <text x="384.8" y="142" fill="#111" class="taxonLabel">Tomteluva perturbata</text>
 <text x="362.8" y="154" fill="grey" class="flag">[?]</text>
 <text x="384.8" y="154" fill="#111" class="taxonLabel">Yuganotheca elegans</text>
 <text x="338.9" y="130" fill="grey" class="flag">[?]</text>
 <text x="360.9" y="130" fill="#111" class="taxonLabel">Salanygolina</text>
 <text x="338.9" y="106" fill="grey" class="flag">[?]</text>
 <text x="360.9" y="106" fill="#111" class="taxonLabel">Craniops</text>
 <text x="338.9" y="118" fill="#fc8d59" class="flag">[0]</text>
 <text x="360.9" y="118" fill="#111" class="taxonLabel">Novocrania</text>
 <text x="315.1" y="94" fill="grey" class="flag">[?]</text>
 <text x="337.1" y="94" fill="#111" class="taxonLabel">Ussunia</text>
 <text x="291.2" y="82" fill="grey" class="flag">[?]</text>
 <text x="313.2" y="82" fill="#111" class="taxonLabel">Gasconsia</text>
 <text x="267.4" y="58" fill="grey" class="flag">[?]</text>
 <text x="289.4" y="58" fill="#111" class="taxonLabel">Haplophrentis carinatus</text>
 <text x="267.4" y="70" fill="grey" class="flag">[?]</text>
 <text x="289.4" y="70" fill="#111" class="taxonLabel">Pedunculotheca diania</text>
 <text x="243.5" y="46" fill="grey" class="flag">[?]</text>
 <text x="265.5" y="46" fill="#111" class="taxonLabel">Paterimitra</text>
 <text x="195.8" y="34" fill="grey" class="flag">[?]</text>
 <text x="217.8" y="34" fill="#111" class="taxonLabel">Heliomedusa orienta</text>
 <text x="195.8" y="10" fill="grey" class="flag">[?]</text>
 <text x="217.8" y="10" fill="#111" class="taxonLabel">Dailyatia</text>
 <text x="195.8" y="22" fill="grey" class="flag">[?]</text>
 <text x="217.8" y="22" fill="#111" class="taxonLabel">Halkieria evangelista</text>
 <text x="148.1" y="442" fill="grey" class="flag">[?]</text>
 <text x="170.1" y="442" fill="#111" class="taxonLabel">Cotyledion tylodes</text>
 <text x="124.2" y="454" fill="grey" class="flag">[?]</text>
 <text x="146.2" y="454" fill="#111" class="taxonLabel">Eccentrotheca</text>
 <text x="100.4" y="466" fill="#fc8d59" class="flag">[0]</text>
 <text x="122.4" y="466" fill="#111" class="taxonLabel">Phoronis</text>
 <text x="76.6" y="478" fill="#fc8d59" class="flag">[0]</text>
 <text x="98.6" y="478" fill="#111" class="taxonLabel">Flustra</text>
 <text x="52.7" y="490" fill="#91bfdb" class="flag">[1]</text>
 <text x="74.7" y="490" fill="#111" class="taxonLabel">Loxosomella</text>
 <path d="M5,494.1V463.6H28.9M28.9,463.6V487H52.7M5,494.1V524.5H28.9M28.9,524.5V508H52.7M52.7,508V499H76.6M52.7,508V517H76.6M76.6,517V511H100.4M76.6,517V523H100.4M28.9,524.5V541H52.7M52.7,541V535H76.6" stroke="#91bfdb"></path>
 <path d="M28.9,463.6V440.2H52.7M52.7,440.2V405.5H76.6M76.6,405.5V347.9H100.4M100.4,347.9V244.8H124.2M124.2,244.8V50.7H148.1M148.1,50.7V13H172M172,13V7H195.8M172,13V19H195.8M148.1,50.7V88.3H172M172,88.3V31H195.8M172,88.3V145.7H195.8M195.8,145.7V52H219.7M219.7,52V43H243.5M219.7,52V61H243.5M243.5,61V55H267.4M243.5,61V67H267.4M195.8,145.7V239.3H219.7M219.7,239.3V154.9H243.5M243.5,154.9V89.5H267.4M267.4,89.5V79H291.2M267.4,89.5V100H291.2M291.2,100V91H315.1M291.2,100V109H315.1M315.1,109V103H338.9M315.1,109V115H338.9M243.5,154.9V220.4H267.4M267.4,220.4V163.7H291.2M291.2,163.7V136H315.1M315.1,136V127H338.9M315.1,136V145H338.9M338.9,145V139H362.8M338.9,145V151H362.8M291.2,163.7V191.4H315.1M315.1,191.4V163H338.9M315.1,191.4V219.8H338.9M338.9,219.8V186.6H362.8M362.8,186.6V175H386.6M362.8,186.6V198.2H386.6M386.6,198.2V187H410.5M386.6,198.2V209.5H410.5M410.5,209.5V199H434.3M410.5,209.5V220H434.3M434.3,220V211H458.2M434.3,220V229H458.2M458.2,229V223H482M458.2,229V235H482M338.9,219.8V253H362.8M362.8,253V247H386.6M362.8,253V259H386.6M267.4,220.4V277H291.2M291.2,277V271H315.1M291.2,277V283H315.1M219.7,239.3V323.7H243.5M243.5,323.7V304H267.4M267.4,304V295H291.2M267.4,304V313H291.2M291.2,313V307H315.1M291.2,313V319H315.1M243.5,323.7V343.5H267.4M267.4,343.5V331H291.2M267.4,343.5V355.9H291.2M291.2,355.9V343H315.1M291.2,355.9V368.9H315.1M315.1,368.9V355H338.9M315.1,368.9V382.8H338.9M338.9,382.8V367H362.8M338.9,382.8V398.5H362.8M362.8,398.5V385H386.6M386.6,385V379H410.5M386.6,385V391H410.5M362.8,398.5V412H386.6M386.6,412V403H410.5M386.6,412V421H410.5M410.5,421V415H434.3M410.5,421V427H434.3M124.2,244.8V439H148.1M100.4,347.9V451H124.2M76.6,405.5V463H100.4M52.7,440.2V475H76.6M52.7,541V547H76.6" stroke="#fc8d59"></path>
 <text x="7" y="497.1" class="node" fill="#4A6FE3">1</text>
 <text x="30.9" y="466.6" class="node" fill="#8998E1">0.82</text>
 <text x="54.7" y="443.2" class="node" fill="#8998E1">0.82</text>
 <text x="78.6" y="408.5" class="node" fill="#8998E1">0.82</text>
 <text x="102.4" y="350.9" class="node" fill="#8998E1">0.82</text>
 <text x="126.2" y="247.8" class="node" fill="#E498A7">0.26</text>
 <text x="150.1" y="53.7" class="node" fill="#9DA8E2">0.75</text>
 <text x="174" y="16" class="node" fill="#667FE1">0.93</text>
 <text x="174" y="91.3" class="node" fill="#4A6FE3">1</text>
 <text x="197.8" y="148.7" class="node" fill="#5776E2">0.97</text>
 <text x="221.7" y="55" class="node" fill="#8C9BE1">0.81</text>
 <text x="245.5" y="64" class="node" fill="#4A6FE3">1</text>
 <text x="221.7" y="242.3" class="node" fill="#5776E2">0.97</text>
 <text x="245.5" y="157.9" class="node" fill="#4A6FE3">1</text>
 <text x="269.4" y="92.5" class="node" fill="#4A6FE3">1</text>
 <text x="293.2" y="103" class="node" fill="#4A6FE3">1</text>
 <text x="317.1" y="112" class="node" fill="#4A6FE3">1</text>
 <text x="269.4" y="223.4" class="node" fill="#7A8DE1">0.87</text>
 <text x="293.2" y="166.7" class="node" fill="#5776E2">0.97</text>
 <text x="317.1" y="139" class="node" fill="#9AA6E2">0.76</text>
 <text x="340.9" y="148" class="node" fill="#5B78E2">0.96</text>
 <text x="317.1" y="194.4" class="node" fill="#4A6FE3">1</text>
 <text x="340.9" y="222.8" class="node" fill="#E5A5B1">0.3</text>
 <text x="364.8" y="189.6" class="node" fill="#E5A5B1">0.3</text>
 <text x="388.6" y="201.2" class="node" fill="#E5A5B1">0.3</text>
 <text x="412.5" y="212.5" class="node" fill="#E5A5B1">0.3</text>
 <text x="436.3" y="223" class="node" fill="#4A6FE3">1</text>
 <text x="460.2" y="232" class="node" fill="#768BE1">0.88</text>
 <text x="364.8" y="256" class="node" fill="#4A6FE3">1</text>
 <text x="293.2" y="280" class="node" fill="#4A6FE3">1</text>
 <text x="245.5" y="326.7" class="node" fill="#8C9BE1">0.81</text>
 <text x="269.4" y="307" class="node" fill="#8C9BE1">0.81</text>
 <text x="293.2" y="316" class="node" fill="#8998E1">0.82</text>
 <text x="269.4" y="346.5" class="node" fill="#8998E1">0.82</text>
 <text x="293.2" y="358.9" class="node" fill="#8998E1">0.82</text>
 <text x="317.1" y="371.9" class="node" fill="#8C9BE1">0.81</text>
 <text x="340.9" y="385.8" class="node" fill="#8C9BE1">0.81</text>
 <text x="364.8" y="401.5" class="node" fill="#8C9BE1">0.81</text>
 <text x="388.6" y="388" class="node" fill="#E17F94">0.18</text>
 <text x="388.6" y="415" class="node" fill="#D5D7E3">0.55</text>
 <text x="412.5" y="424" class="node" fill="#4A6FE3">1</text>
 <text x="30.9" y="527.5" class="node" fill="#8998E1">0.82</text>
 <text x="54.7" y="511" class="node" fill="#8998E1">0.82</text>
 <text x="78.6" y="520" class="node" fill="#8998E1">0.82</text>
 <text x="54.7" y="544" class="node" fill="#4A6FE3">1</text></svg>
