<svg xmlns="http://www.w3.org/2000/svg" version="1.1" width="682" height="682" class="tree" data-char="107"><text x="678" y="15.4" text-anchor="end" class="stepsLabel">Character adds <tspan class="score">5</tspan> to tree score</text><text x="678" y="27.8" text-anchor="end" class="stepsLabel"><tspan class="score">0</tspan> additional regions</text><text x="678" y="40.2" text-anchor="end" class="stepsLabel">CI = 0.2; Fitch CI = 0.2; Fitch RI = 0.78</text><text x="678" y="65" text-anchor="end" class="stepsLabel"><tspan dy="16" fill="#34caaf">An optimal tree under:</tspan><tspan x="680" style="font-style:italic" class="thisAn" dy="1.2em">Equal weights</tspan><tspan x="680" style="font-style:italic" class="notThisAn" dy="1.2em">Implied weights, k = 3</tspan><tspan x="680" style="font-style:italic" class="notThisAn" dy="1.2em">IW, k = 4.5</tspan><tspan x="680" style="font-style:italic" class="notThisAn" dy="1.2em">IW, k = 7</tspan><tspan x="680" style="font-style:italic" class="notThisAn" dy="1.2em">IW, k = 10.5</tspan><tspan x="680" style="font-style:italic" class="notThisAn" dy="1.2em">IW, k = 16</tspan><tspan x="680" style="font-style:italic" class="notThisAn" dy="1.2em">IW, k = 24</tspan></text><text x="70" y="664.4" fill="#fc8d59" class="flag">[0]</text><text x="92" y="664.4" fill="#000" class="taxonLabel">Flustra</text><text x="70" y="677" fill="#fc8d59" class="flag">[0]</text><text x="92" y="677" fill="#000" class="taxonLabel">Amathia</text><text x="308.5" y="639.2" fill="#91bfdb" class="flag">[1]</text><text x="330.5" y="639.2" fill="#000" class="taxonLabel">Heliomedusa orienta</text><text x="308.5" y="651.8" fill="#91bfdb" class="flag">[1]</text><text x="330.5" y="651.8" fill="#000" class="taxonLabel">Mickwitzia muralensis</text><text x="286.9" y="626.7" fill="#91bfdb" class="flag">[1]</text><text x="308.9" y="626.7" fill="#000" class="taxonLabel">Micrina</text><text x="373.6" y="601.5" fill="#91bfdb" class="flag">[1]</text><text x="395.6" y="601.5" fill="#000" class="taxonLabel">Coolinia pecten</text><text x="373.6" y="614.1" fill="#91bfdb" class="flag">[1]</text><text x="395.6" y="614.1" fill="#000" class="taxonLabel">Antigonambonites planus</text><text x="460.3" y="576.3" fill="#91bfdb" class="flag">[1]</text><text x="482.3" y="576.3" fill="#000" class="taxonLabel">Orthis</text><text x="460.3" y="588.9" fill="#91bfdb" class="flag">[1]</text><text x="482.3" y="588.9" fill="#000" class="taxonLabel">Terebratulina</text><text x="438.6" y="563.7" fill="#91bfdb" class="flag">[1]</text><text x="460.6" y="563.7" fill="#000" class="taxonLabel">Alisina</text><text x="417" y="551.2" fill="#91bfdb" class="flag">[1]</text><text x="439" y="551.2" fill="#000" class="taxonLabel">Longtancunella chengjiangensis</text><text x="395.3" y="538.6" fill="#91bfdb" class="flag">[1]</text><text x="417.3" y="538.6" fill="#000" class="taxonLabel">Glyptoria</text><text x="417" y="513.4" fill="#91bfdb" class="flag">[1]</text><text x="439" y="513.4" fill="#000" class="taxonLabel">Tomteluva perturbata</text><text x="417" y="526" fill="#91bfdb" class="flag">[1]</text><text x="439" y="526" fill="#000" class="taxonLabel">Kutorgina chengjiangensis</text><text x="395.3" y="500.8" fill="#91bfdb" class="flag">[1]</text><text x="417.3" y="500.8" fill="#000" class="taxonLabel">Nisusia sulcata</text><text x="330.2" y="488.2" fill="#91bfdb" class="flag">[1]</text><text x="352.2" y="488.2" fill="#000" class="taxonLabel">Salanygolina</text><text x="330.2" y="463.1" fill="#91bfdb" class="flag">[1]</text><text x="352.2" y="463.1" fill="#000" class="taxonLabel">Askepasma toddense</text><text x="330.2" y="475.6" fill="#91bfdb" class="flag">[1]</text><text x="352.2" y="475.6" fill="#000" class="taxonLabel">Micromitra</text><text x="482" y="437.9" fill="#91bfdb" class="flag">[1]</text><text x="504" y="437.9" fill="#000" class="taxonLabel">Acanthotretella spinosa</text><text x="482" y="450.5" fill="#91bfdb" class="flag">[1]</text><text x="504" y="450.5" fill="#000" class="taxonLabel">Siphonobolus priscus</text><text x="460.3" y="425.3" fill="#91bfdb" class="flag">[1]</text><text x="482.3" y="425.3" fill="#000" class="taxonLabel">Lingulosacculus</text><text x="438.6" y="412.7" fill="#91bfdb" class="flag">[1]</text><text x="460.6" y="412.7" fill="#000" class="taxonLabel">Clupeafumosus socialis</text><text x="417" y="400.1" fill="#91bfdb" class="flag">[1]</text><text x="439" y="400.1" fill="#000" class="taxonLabel">Lingulellotreta malongensis</text><text x="417" y="375" fill="#91bfdb" class="flag">[1]</text><text x="439" y="375" fill="#000" class="taxonLabel">Mummpikia nuda</text><text x="417" y="387.5" fill="#fc8d59" class="flag">[0]</text><text x="439" y="387.5" fill="#000" class="taxonLabel">Pelagodiscus atlanticus</text><text x="373.6" y="362.4" fill="#91bfdb" class="flag">[1]</text><text x="395.6" y="362.4" fill="#000" class="taxonLabel">Botsfordia</text><text x="351.9" y="349.8" fill="#91bfdb" class="flag">[1]</text><text x="373.9" y="349.8" fill="#000" class="taxonLabel">Eoobolus</text><text x="330.2" y="337.2" fill="#91bfdb" class="flag">[1]</text><text x="352.2" y="337.2" fill="#000" class="taxonLabel">Lingula</text><text x="373.6" y="312" fill="#fc8d59" class="flag">[0]</text><text x="395.6" y="312" fill="#000" class="taxonLabel">Craniops</text><text x="373.6" y="324.6" fill="#fc8d59" class="flag">[0]</text><text x="395.6" y="324.6" fill="#000" class="taxonLabel">Novocrania</text><text x="351.9" y="299.5" fill="#fc8d59" class="flag">[0]</text><text x="373.9" y="299.5" fill="#000" class="taxonLabel">Ussunia</text><text x="330.2" y="286.9" fill="#91bfdb" class="flag">[1]</text><text x="352.2" y="286.9" fill="#000" class="taxonLabel">Gasconsia</text><text x="243.5" y="274.3" fill="grey" class="flag">[?]</text><text x="265.5" y="274.3" fill="#999" class="taxonLabel">Yuganotheca elegans</text><text x="308.5" y="249.1" fill="#91bfdb" class="flag">[1]</text><text x="330.5" y="249.1" fill="#000" class="taxonLabel">Pauxillites</text><text x="308.5" y="261.7" fill="#91bfdb" class="flag">[1]</text><text x="330.5" y="261.7" fill="#000" class="taxonLabel">Maxilites</text><text x="286.9" y="236.5" fill="#91bfdb" class="flag">[1]</text><text x="308.9" y="236.5" fill="#000" class="taxonLabel">Haplophrentis carinatus</text><text x="330.2" y="211.4" fill="#fc8d59" class="flag">[0]</text><text x="352.2" y="211.4" fill="#000" class="taxonLabel">Conotheca</text><text x="330.2" y="223.9" fill="#fc8d59" class="flag">[0]</text><text x="352.2" y="223.9" fill="#000" class="taxonLabel">Bactrotheca</text><text x="308.5" y="198.8" fill="#fc8d59" class="flag">[0]</text><text x="330.5" y="198.8" fill="#000" class="taxonLabel">Cupitheca holocyclata</text><text x="286.9" y="186.2" fill="#91bfdb" class="flag">[1]</text><text x="308.9" y="186.2" fill="#000" class="taxonLabel">Paramicrocornus</text><text x="243.5" y="173.6" fill="grey" class="flag">[?]</text><text x="265.5" y="173.6" fill="#999" class="taxonLabel">Pedunculotheca diania</text><text x="200.1" y="161" fill="#91bfdb" class="flag">[1]</text><text x="222.1" y="161" fill="#000" class="taxonLabel">Paterimitra</text><text x="178.5" y="148.4" fill="#91bfdb" class="flag">[1]</text><text x="200.5" y="148.4" fill="#000" class="taxonLabel">Halkieria evangelista</text><text x="156.8" y="135.8" fill="#fc8d59" class="flag">[0]</text><text x="178.8" y="135.8" fill="#000" class="taxonLabel">Dailyatia</text><text x="135.1" y="123.3" fill="#fc8d59" class="flag">[0]</text><text x="157.1" y="123.3" fill="#000" class="taxonLabel">Eccentrotheca</text><text x="113.4" y="110.7" fill="#fc8d59" class="flag">[0]</text><text x="135.4" y="110.7" fill="#000" class="taxonLabel">Cotyledion tylodes</text><text x="91.7" y="98.1" fill="#fc8d59" class="flag">[0]</text><text x="113.7" y="98.1" fill="#000" class="taxonLabel">Phoronis</text><text x="70" y="85.5" fill="#fc8d59" class="flag">[0]</text><text x="92" y="85.5" fill="#000" class="taxonLabel">Namacalathus</text><text x="91.7" y="60.3" fill="#fc8d59" class="flag">[0]</text><text x="113.7" y="60.3" fill="#000" class="taxonLabel">Serpula</text><text x="91.7" y="72.9" fill="#fc8d59" class="flag">[0]</text><text x="113.7" y="72.9" fill="#000" class="taxonLabel">Sipunculus</text><text x="113.4" y="35.2" fill="#fc8d59" class="flag">[0]</text><text x="135.4" y="35.2" fill="#000" class="taxonLabel">Dentalium</text><text x="113.4" y="47.8" fill="#91bfdb" class="flag">[1]</text><text x="135.4" y="47.8" fill="#000" class="taxonLabel">Tonicella</text><text x="91.7" y="22.6" fill="#fc8d59" class="flag">[0]</text><text x="113.7" y="22.6" fill="#000" class="taxonLabel">Wiwaxia corrugata</text><text x="48.4" y="10" fill="#fc8d59" class="flag">[0]</text><text x="70.4" y="10" fill="#000" class="taxonLabel">Loxosomella</text><path d="M5,204.3V26.7H26.7M26.7,26.7V7H48.4M26.7,26.7V46.3H48.4M48.4,46.3V29H70M70,29V19.6H91.7M70,29V38.5H91.7M91.7,38.5V32.2H113.4M48.4,46.3V63.6H70M70,63.6V57.3H91.7M70,63.6V69.9H91.7M5,204.3V381.8H26.7M26.7,381.8V96H48.4M48.4,96V82.5H70M48.4,96V109.4H70M70,109.4V95.1H91.7M70,109.4V123.8H91.7M91.7,123.8V107.7H113.4M91.7,123.8V139.9H113.4M113.4,139.9V120.3H135.1M113.4,139.9V159.5H135.1M135.1,159.5V132.8H156.8M265.2,194.2V205.2H286.9M286.9,205.2V195.8H308.5M286.9,205.2V214.7H308.5M308.5,214.7V208.4H330.2M308.5,214.7V220.9H330.2M308.5,294.9V305.9H330.2M330.2,305.9V296.5H351.9M330.2,305.9V315.3H351.9M351.9,315.3V309H373.6M351.9,315.3V321.6H373.6M395.3,378.3V384.5H417M26.7,381.8V667.7H48.4M48.4,667.7V661.4H70M48.4,667.7V674H70" stroke="#fc8d59"></path><path d="M91.7,38.5V44.8H113.4M135.1,159.5V186.1H156.8M156.8,186.1V145.4H178.5M156.8,186.1V226.7H178.5M178.5,226.7V158H200.1M178.5,226.7V295.3H200.1M200.1,295.3V194.6H221.8M221.8,194.6V170.6H243.5M221.8,194.6V218.6H243.5M243.5,218.6V194.2H265.2M265.2,194.2V183.2H286.9M243.5,218.6V243H265.2M265.2,243V233.5H286.9M265.2,243V252.4H286.9M286.9,252.4V246.1H308.5M286.9,252.4V258.7H308.5M200.1,295.3V396.1H221.8M221.8,396.1V271.3H243.5M221.8,396.1V520.9H243.5M243.5,520.9V408.7H265.2M265.2,408.7V321.4H286.9M286.9,321.4V294.9H308.5M308.5,294.9V283.9H330.2M286.9,321.4V347.9H308.5M308.5,347.9V334.2H330.2M308.5,347.9V361.6H330.2M330.2,361.6V346.8H351.9M330.2,361.6V376.5H351.9M351.9,376.5V359.4H373.6M351.9,376.5V393.6H373.6M373.6,393.6V378.3H395.3M395.3,378.3V372H417M373.6,393.6V408.9H395.3M395.3,408.9V397.1H417M395.3,408.9V420.7H417M417,420.7V409.7H438.6M417,420.7V431.7H438.6M438.6,431.7V422.3H460.3M438.6,431.7V441.2H460.3M460.3,441.2V434.9H482M460.3,441.2V447.5H482M265.2,408.7V496H286.9M286.9,496V466.3H308.5M308.5,466.3V460.1H330.2M308.5,466.3V472.6H330.2M286.9,496V525.6H308.5M308.5,525.6V485.2H330.2M308.5,525.6V566H330.2M330.2,566V527.3H351.9M351.9,527.3V507.3H373.6M373.6,507.3V497.8H395.3M373.6,507.3V516.7H395.3M395.3,516.7V510.4H417M395.3,516.7V523H417M351.9,527.3V547.4H373.6M373.6,547.4V535.6H395.3M373.6,547.4V559.2H395.3M395.3,559.2V548.2H417M395.3,559.2V570.2H417M417,570.2V560.7H438.6M417,570.2V579.6H438.6M438.6,579.6V573.3H460.3M438.6,579.6V585.9H460.3M330.2,566V604.8H351.9M351.9,604.8V598.5H373.6M351.9,604.8V611.1H373.6M243.5,520.9V633.1H265.2M265.2,633.1V623.7H286.9M265.2,633.1V642.5H286.9M286.9,642.5V636.2H308.5M286.9,642.5V648.8H308.5" stroke="#91bfdb"></path><text x="28.7" y="29.7" class="node" fill="#4A6FE3">1</text><text x="50.4" y="49.3" class="node" fill="#4A6FE3">1</text><text x="72" y="32" class="node" fill="red">NA</text><text x="93.7" y="41.5" class="node" fill="red">NA</text><text x="72" y="66.6" class="node" fill="red">NA</text><text x="28.7" y="384.8" class="node" fill="red">NA</text><text x="50.4" y="99" class="node" fill="red">NA</text><text x="72" y="112.4" class="node" fill="red">NA</text><text x="93.7" y="126.8" class="node" fill="red">NA</text><text x="115.4" y="142.9" class="node" fill="red">NA</text><text x="137.1" y="162.5" class="node" fill="red">NA</text><text x="158.8" y="189.1" class="node" fill="red">NA</text><text x="180.5" y="229.7" class="node" fill="red">NA</text><text x="202.1" y="298.3" class="node" fill="red">NA</text><text x="223.8" y="197.6" class="node" fill="red">NA</text><text x="245.5" y="221.6" class="node" fill="red">NA</text><text x="267.2" y="197.2" class="node" fill="red">NA</text><text x="288.9" y="208.2" class="node" fill="red">NA</text><text x="310.5" y="217.7" class="node" fill="red">NA</text><text x="267.2" y="246" class="node" fill="#5F7BE1">0.95</text><text x="288.9" y="255.4" class="node" fill="#4A6FE3">1</text><text x="223.8" y="399.1" class="node" fill="red">NA</text><text x="245.5" y="523.9" class="node" fill="red">NA</text><text x="267.2" y="411.7" class="node" fill="red">NA</text><text x="288.9" y="324.4" class="node" fill="red">NA</text><text x="310.5" y="297.9" class="node" fill="red">NA</text><text x="332.2" y="308.9" class="node" fill="red">NA</text><text x="353.9" y="318.3" class="node" fill="red">NA</text><text x="310.5" y="350.9" class="node" fill="red">NA</text><text x="332.2" y="364.6" class="node" fill="red">NA</text><text x="353.9" y="379.5" class="node" fill="red">NA</text><text x="375.6" y="396.6" class="node" fill="red">NA</text><text x="397.3" y="381.3" class="node" fill="red">NA</text><text x="397.3" y="411.9" class="node" fill="red">NA</text><text x="419" y="423.7" class="node" fill="red">NA</text><text x="440.6" y="434.7" class="node" fill="red">NA</text><text x="462.3" y="444.2" class="node" fill="red">NA</text><text x="288.9" y="499" class="node" fill="red">NA</text><text x="310.5" y="469.3" class="node" fill="red">NA</text><text x="310.5" y="528.6" class="node" fill="red">NA</text><text x="332.2" y="569" class="node" fill="red">NA</text><text x="353.9" y="530.3" class="node" fill="red">NA</text><text x="375.6" y="510.3" class="node" fill="red">NA</text><text x="397.3" y="519.7" class="node" fill="red">NA</text><text x="375.6" y="550.4" class="node" fill="red">NA</text><text x="397.3" y="562.2" class="node" fill="red">NA</text><text x="419" y="573.2" class="node" fill="red">NA</text><text x="440.6" y="582.6" class="node" fill="red">NA</text><text x="353.9" y="607.8" class="node" fill="red">NA</text><text x="267.2" y="636.1" class="node" fill="red">NA</text><text x="288.9" y="645.5" class="node" fill="#4A6FE3">1</text><text x="50.4" y="670.7" class="node" fill="#5F7BE1">0.95</text></svg>
