<svg xmlns="http://www.w3.org/2000/svg" version="1.1" width="682" height="682" class="tree" data-char="139"><text x="678" y="15.4" text-anchor="end" class="stepsLabel">Character adds <tspan class="score">1</tspan> to tree score</text><text x="678" y="27.8" text-anchor="end" class="stepsLabel"><tspan class="score">0</tspan> additional regions</text><text x="678" y="40.2" text-anchor="end" class="stepsLabel">CI = 1; Fitch CI = 1; Fitch RI = 1</text><text x="678" y="65" text-anchor="end" class="stepsLabel"><tspan dy="16" fill="#34caaf">An optimal tree under:</tspan><tspan x="680" style="font-style:italic" class="notThisAn" dy="1.2em">Implied weights, k = 3</tspan><tspan x="680" style="font-style:italic" class="notThisAn" dy="1.2em">IW, k = 4.5</tspan><tspan x="680" style="font-style:italic" class="notThisAn" dy="1.2em">IW, k = 7</tspan><tspan x="680" style="font-style:italic" class="notThisAn" dy="1.2em">IW, k = 10.5</tspan><tspan x="680" style="font-style:italic" class="notThisAn" dy="1.2em">IW, k = 16</tspan><tspan x="680" style="font-style:italic" class="notThisAn" dy="1.2em">IW, k = 24</tspan><tspan x="680" style="font-style:italic" class="thisAn" dy="1.2em">Equal weights</tspan></text><text x="300.3" y="664.4" fill="grey" class="flag">[?]</text><text x="322.3" y="664.4" fill="#999" class="taxonLabel">Pauxillites</text><text x="300.3" y="677" fill="#fc8d59" class="flag">[0]</text><text x="322.3" y="677" fill="#000" class="taxonLabel">Maxilites</text><text x="277.6" y="651.8" fill="grey" class="flag">[?]</text><text x="299.6" y="651.8" fill="#999" class="taxonLabel">Haplophrentis carinatus</text><text x="323" y="626.7" fill="grey" class="flag">[?]</text><text x="345" y="626.7" fill="#999" class="taxonLabel">Conotheca</text><text x="323" y="639.2" fill="grey" class="flag">[?]</text><text x="345" y="639.2" fill="#999" class="taxonLabel">Bactrotheca</text><text x="300.3" y="614.1" fill="#fc8d59" class="flag">[0]</text><text x="322.3" y="614.1" fill="#000" class="taxonLabel">Cupitheca holocyclata</text><text x="277.6" y="601.5" fill="#fc8d59" class="flag">[0]</text><text x="299.6" y="601.5" fill="#000" class="taxonLabel">Paramicrocornus</text><text x="232.1" y="588.9" fill="grey" class="flag">[?]</text><text x="254.1" y="588.9" fill="#999" class="taxonLabel">Pedunculotheca diania</text><text x="300.3" y="563.7" fill="#fc8d59" class="flag">[0]</text><text x="322.3" y="563.7" fill="#000" class="taxonLabel">Mickwitzia muralensis</text><text x="300.3" y="576.3" fill="#fc8d59" class="flag">[0]</text><text x="322.3" y="576.3" fill="#000" class="taxonLabel">Heliomedusa orienta</text><text x="277.6" y="551.2" fill="#fc8d59" class="flag">[0]</text><text x="299.6" y="551.2" fill="#000" class="taxonLabel">Micrina</text><text x="459.3" y="526" fill="#fc8d59" class="flag">[0]</text><text x="481.3" y="526" fill="#000" class="taxonLabel">Terebratulina</text><text x="459.3" y="538.6" fill="#fc8d59" class="flag">[0]</text><text x="481.3" y="538.6" fill="#000" class="taxonLabel">Orthis</text><text x="436.6" y="513.4" fill="#fc8d59" class="flag">[0]</text><text x="458.6" y="513.4" fill="#000" class="taxonLabel">Alisina</text><text x="413.9" y="500.8" fill="#fc8d59" class="flag">[0]</text><text x="435.9" y="500.8" fill="#000" class="taxonLabel">Longtancunella chengjiangensis</text><text x="391.1" y="488.2" fill="#fc8d59" class="flag">[0]</text><text x="413.1" y="488.2" fill="#000" class="taxonLabel">Glyptoria</text><text x="413.9" y="463.1" fill="#fc8d59" class="flag">[0]</text><text x="435.9" y="463.1" fill="#000" class="taxonLabel">Tomteluva perturbata</text><text x="413.9" y="475.6" fill="#fc8d59" class="flag">[0]</text><text x="435.9" y="475.6" fill="#000" class="taxonLabel">Nisusia sulcata</text><text x="391.1" y="450.5" fill="#fc8d59" class="flag">[0]</text><text x="413.1" y="450.5" fill="#000" class="taxonLabel">Kutorgina chengjiangensis</text><text x="368.4" y="425.3" fill="#91bfdb" class="flag">[1]</text><text x="390.4" y="425.3" fill="#000" class="taxonLabel">Coolinia pecten</text><text x="368.4" y="437.9" fill="#91bfdb" class="flag">[1]</text><text x="390.4" y="437.9" fill="#000" class="taxonLabel">Antigonambonites planus</text><text x="323" y="412.7" fill="#fc8d59" class="flag">[0]</text><text x="345" y="412.7" fill="#000" class="taxonLabel">Salanygolina</text><text x="323" y="387.5" fill="#fc8d59" class="flag">[0]</text><text x="345" y="387.5" fill="#000" class="taxonLabel">Micromitra</text><text x="323" y="400.1" fill="#fc8d59" class="flag">[0]</text><text x="345" y="400.1" fill="#000" class="taxonLabel">Askepasma toddense</text><text x="482" y="362.4" fill="#fc8d59" class="flag">[0]</text><text x="504" y="362.4" fill="#000" class="taxonLabel">Siphonobolus priscus</text><text x="482" y="375" fill="#fc8d59" class="flag">[0]</text><text x="504" y="375" fill="#000" class="taxonLabel">Acanthotretella spinosa</text><text x="459.3" y="349.8" fill="#fc8d59" class="flag">[0]</text><text x="481.3" y="349.8" fill="#000" class="taxonLabel">Lingulosacculus</text><text x="436.6" y="337.2" fill="#fc8d59" class="flag">[0]</text><text x="458.6" y="337.2" fill="#000" class="taxonLabel">Clupeafumosus socialis</text><text x="413.9" y="324.6" fill="#fc8d59" class="flag">[0]</text><text x="435.9" y="324.6" fill="#000" class="taxonLabel">Lingulellotreta malongensis</text><text x="413.9" y="299.5" fill="#fc8d59" class="flag">[0]</text><text x="435.9" y="299.5" fill="#000" class="taxonLabel">Pelagodiscus atlanticus</text><text x="413.9" y="312" fill="#fc8d59" class="flag">[0]</text><text x="435.9" y="312" fill="#000" class="taxonLabel">Mummpikia nuda</text><text x="368.4" y="286.9" fill="#fc8d59" class="flag">[0]</text><text x="390.4" y="286.9" fill="#000" class="taxonLabel">Botsfordia</text><text x="345.7" y="274.3" fill="#fc8d59" class="flag">[0]</text><text x="367.7" y="274.3" fill="#000" class="taxonLabel">Eoobolus</text><text x="323" y="261.7" fill="#fc8d59" class="flag">[0]</text><text x="345" y="261.7" fill="#000" class="taxonLabel">Lingula</text><text x="368.4" y="236.5" fill="#fc8d59" class="flag">[0]</text><text x="390.4" y="236.5" fill="#000" class="taxonLabel">Novocrania</text><text x="368.4" y="249.1" fill="#fc8d59" class="flag">[0]</text><text x="390.4" y="249.1" fill="#000" class="taxonLabel">Craniops</text><text x="345.7" y="223.9" fill="grey" class="flag">[?]</text><text x="367.7" y="223.9" fill="#999" class="taxonLabel">Ussunia</text><text x="323" y="211.4" fill="#fc8d59" class="flag">[0]</text><text x="345" y="211.4" fill="#000" class="taxonLabel">Gasconsia</text><text x="232.1" y="198.8" fill="grey" class="flag">[?]</text><text x="254.1" y="198.8" fill="#999" class="taxonLabel">Yuganotheca elegans</text><text x="186.7" y="186.2" fill="#fc8d59" class="flag">[0]</text><text x="208.7" y="186.2" fill="#000" class="taxonLabel">Paterimitra</text><text x="164" y="173.6" fill="#fc8d59" class="flag">[0]</text><text x="186" y="173.6" fill="#000" class="taxonLabel">Halkieria evangelista</text><text x="141.3" y="161" fill="#fc8d59" class="flag">[0]</text><text x="163.3" y="161" fill="#000" class="taxonLabel">Dailyatia</text><text x="118.6" y="148.4" fill="#fc8d59" class="flag">[0]</text><text x="140.6" y="148.4" fill="#000" class="taxonLabel">Eccentrotheca</text><text x="95.9" y="135.8" fill="grey" class="flag">[?]</text><text x="117.9" y="135.8" fill="#999" class="taxonLabel">Cotyledion tylodes</text><text x="95.9" y="110.7" fill="#fc8d59" class="flag">[0]</text><text x="117.9" y="110.7" fill="#000" class="taxonLabel">Phoronis</text><text x="95.9" y="123.3" fill="#fc8d59" class="flag">[0]</text><text x="117.9" y="123.3" fill="#000" class="taxonLabel">Namacalathus</text><text x="73.1" y="85.5" fill="#fc8d59" class="flag">[0]</text><text x="95.1" y="85.5" fill="#000" class="taxonLabel">Flustra</text><text x="73.1" y="98.1" fill="#fc8d59" class="flag">[0]</text><text x="95.1" y="98.1" fill="#000" class="taxonLabel">Amathia</text><text x="118.6" y="60.3" fill="#fc8d59" class="flag">[0]</text><text x="140.6" y="60.3" fill="#000" class="taxonLabel">Tonicella</text><text x="118.6" y="72.9" fill="#fc8d59" class="flag">[0]</text><text x="140.6" y="72.9" fill="#000" class="taxonLabel">Dentalium</text><text x="95.9" y="47.8" fill="#fc8d59" class="flag">[0]</text><text x="117.9" y="47.8" fill="#000" class="taxonLabel">Wiwaxia corrugata</text><text x="95.9" y="22.6" fill="#fc8d59" class="flag">[0]</text><text x="117.9" y="22.6" fill="#000" class="taxonLabel">Sipunculus</text><text x="95.9" y="35.2" fill="#fc8d59" class="flag">[0]</text><text x="117.9" y="35.2" fill="#000" class="taxonLabel">Serpula</text><text x="50.4" y="10" fill="#fc8d59" class="flag">[0]</text><text x="72.4" y="10" fill="#000" class="taxonLabel">Loxosomella</text><path d="M5,67.4V23.5H27.7M27.7,23.5V7H50.4M27.7,23.5V40H50.4M50.4,40V25.9H73.1M73.1,25.9V19.6H95.9M73.1,25.9V32.2H95.9M50.4,40V54.2H73.1M73.1,54.2V44.8H95.9M73.1,54.2V63.6H95.9M95.9,63.6V57.3H118.6M95.9,63.6V69.9H118.6M5,67.4V111.3H27.7M27.7,111.3V88.8H50.4M50.4,88.8V82.5H73.1M50.4,88.8V95.1H73.1M27.7,111.3V133.7H50.4M50.4,133.7V114H73.1M73.1,114V107.7H95.9M73.1,114V120.3H95.9M50.4,133.7V153.4H73.1M73.1,153.4V132.8H95.9M73.1,153.4V174H95.9M95.9,174V145.4H118.6M95.9,174V202.6H118.6M118.6,202.6V158H141.3M118.6,202.6V247.3H141.3M141.3,247.3V170.6H164M141.3,247.3V323.9H164M164,323.9V183.2H186.7M164,323.9V464.6H186.7M186.7,464.6V319.4H209.4M209.4,319.4V195.8H232.1M209.4,319.4V443H232.1M232.1,443V328.5H254.9M254.9,328.5V245.9H277.6M277.6,245.9V219.4H300.3M300.3,219.4V208.4H323M300.3,219.4V230.4H323M323,230.4V220.9H345.7M323,230.4V239.8H345.7M345.7,239.8V233.5H368.4M345.7,239.8V246.1H368.4M277.6,245.9V272.4H300.3M300.3,272.4V258.7H323M300.3,272.4V286.1H323M323,286.1V271.3H345.7M323,286.1V301H345.7M345.7,301V283.9H368.4M345.7,301V318.1H368.4M368.4,318.1V302.7H391.1M391.1,302.7V296.5H413.9M391.1,302.7V309H413.9M368.4,318.1V333.4H391.1M391.1,333.4V321.6H413.9M391.1,333.4V345.2H413.9M413.9,345.2V334.2H436.6M413.9,345.2V356.2H436.6M436.6,356.2V346.8H459.3M436.6,356.2V365.7H459.3M459.3,365.7V359.4H482M459.3,365.7V372H482M254.9,328.5V411H277.6M277.6,411V390.8H300.3M300.3,390.8V384.5H323M300.3,390.8V397.1H323M277.6,411V431.2H300.3M300.3,431.2V409.7H323M300.3,431.2V452.8H323M323,452.8V477H345.7M345.7,477V456.9H368.4M368.4,456.9V447.5H391.1M368.4,456.9V466.3H391.1M391.1,466.3V460.1H413.9M391.1,466.3V472.6H413.9M345.7,477V497H368.4M368.4,497V485.2H391.1M368.4,497V508.8H391.1M391.1,508.8V497.8H413.9M391.1,508.8V519.8H413.9M413.9,519.8V510.4H436.6M413.9,519.8V529.3H436.6M436.6,529.3V523H459.3M436.6,529.3V535.6H459.3M232.1,443V557.6H254.9M254.9,557.6V548.2H277.6M254.9,557.6V567H277.6M277.6,567V560.7H300.3M277.6,567V573.3H300.3M186.7,464.6V609.9H209.4M209.4,609.9V585.9H232.1M209.4,609.9V633.9H232.1M232.1,633.9V609.5H254.9M254.9,609.5V598.5H277.6M254.9,609.5V620.5H277.6M277.6,620.5V611.1H300.3M277.6,620.5V630H300.3M300.3,630V623.7H323M300.3,630V636.2H323M232.1,633.9V658.3H254.9M254.9,658.3V648.8H277.6M254.9,658.3V667.7H277.6M277.6,667.7V661.4H300.3M277.6,667.7V674H300.3" stroke="#fc8d59"></path><path d="M323,452.8V428.6H345.7M345.7,428.6V422.3H368.4M345.7,428.6V434.9H368.4" stroke="#91bfdb"></path><text x="29.7" y="26.5" class="node" fill="#4A6FE3">1</text><text x="52.4" y="43" class="node" fill="#4A6FE3">1</text><text x="75.1" y="28.9" class="node" fill="#4A6FE3">1</text><text x="75.1" y="57.2" class="node" fill="#4A6FE3">1</text><text x="97.9" y="66.6" class="node" fill="#4A6FE3">1</text><text x="29.7" y="114.3" class="node" fill="#4A6FE3">1</text><text x="52.4" y="91.8" class="node" fill="#4A6FE3">1</text><text x="52.4" y="136.7" class="node" fill="#4A6FE3">1</text><text x="75.1" y="117" class="node" fill="#E6B4BD">0.35</text><text x="75.1" y="156.4" class="node" fill="#627DE1">0.94</text><text x="97.9" y="177" class="node" fill="#E5A8B3">0.31</text><text x="120.6" y="205.6" class="node" fill="#627DE1">0.94</text><text x="143.3" y="250.3" class="node" fill="#627DE1">0.94</text><text x="166" y="326.9" class="node" fill="#627DE1">0.94</text><text x="188.7" y="467.6" class="node" fill="#627DE1">0.94</text><text x="211.4" y="322.4" class="node" fill="#4A6FE3">1</text><text x="234.1" y="446" class="node" fill="#5374E2">0.98</text><text x="256.9" y="331.5" class="node" fill="#627DE1">0.94</text><text x="279.6" y="248.9" class="node" fill="#627DE1">0.94</text><text x="302.3" y="222.4" class="node" fill="#627DE1">0.94</text><text x="325" y="233.4" class="node" fill="#4A6FE3">1</text><text x="347.7" y="242.8" class="node" fill="#4A6FE3">1</text><text x="302.3" y="275.4" class="node" fill="#627DE1">0.94</text><text x="325" y="289.1" class="node" fill="#667FE1">0.93</text><text x="347.7" y="304" class="node" fill="#667FE1">0.93</text><text x="370.4" y="321.1" class="node" fill="#667FE1">0.93</text><text x="393.1" y="305.7" class="node" fill="#667FE1">0.93</text><text x="393.1" y="336.4" class="node" fill="#627DE1">0.94</text><text x="415.9" y="348.2" class="node" fill="#4A6FE3">1</text><text x="438.6" y="359.2" class="node" fill="#E6AEB8">0.33</text><text x="461.3" y="368.7" class="node" fill="#4A6FE3">1</text><text x="279.6" y="414" class="node" fill="#5B78E2">0.96</text><text x="302.3" y="393.8" class="node" fill="#5B78E2">0.96</text><text x="302.3" y="434.2" class="node" fill="#4A6FE3">1</text><text x="325" y="455.8" class="node" fill="#5B78E2">0.96</text><text x="347.7" y="431.6" class="node" fill="#4A6FE3">1</text><text x="347.7" y="480" class="node" fill="#5F7BE1">0.95</text><text x="370.4" y="459.9" class="node" fill="#E59FAC">0.28</text><text x="393.1" y="469.3" class="node" fill="#DB6581">0.1</text><text x="370.4" y="500" class="node" fill="#4A6FE3">1</text><text x="393.1" y="511.8" class="node" fill="#4A6FE3">1</text><text x="415.9" y="522.8" class="node" fill="#4A6FE3">1</text><text x="438.6" y="532.3" class="node" fill="#5B78E2">0.96</text><text x="256.9" y="560.6" class="node" fill="#627DE1">0.94</text><text x="279.6" y="570" class="node" fill="#627DE1">0.94</text><text x="211.4" y="612.9" class="node" fill="#627DE1">0.94</text><text x="234.1" y="636.9" class="node" fill="#627DE1">0.94</text><text x="256.9" y="612.5" class="node" fill="#E2899B">0.21</text><text x="279.6" y="623.5" class="node" fill="#627DE1">0.94</text><text x="302.3" y="633" class="node" fill="#4A6FE3">1</text><text x="256.9" y="661.3" class="node" fill="#4A6FE3">1</text><text x="279.6" y="670.7" class="node" fill="#4A6FE3">1</text></svg>
