<svg xmlns="http://www.w3.org/2000/svg" version="1.1" width="682" height="555" class="tree" data-char="35">
 <text x="678" y="14.7" text-anchor="end" class="stepsLabel">Character adds <tspan class="score">5</tspan> to tree score</text>
 <text x="678" y="26.4" text-anchor="end" class="stepsLabel"><tspan class="score">0</tspan> additional regions</text>
 <text x="678" y="38.1" text-anchor="end" class="stepsLabel">CI = 0.2; Fitch CI = 0.2; Fitch RI = 0</text>
 <text x="678" y="61.5" text-anchor="end" class="stepsLabel"><tspan dy="16">An optimal tree under:</tspan><tspan x="680" style="font-style:italic" class="notThisAn" dy="1.2em">Equal weights</tspan><tspan x="680" style="font-style:italic" class="notThisAn" dy="1.2em">Implied weights, k = 2</tspan><tspan x="680" style="font-style:italic" class="notThisAn" dy="1.2em">IW, k = 3</tspan><tspan x="680" style="font-style:italic" class="notThisAn" dy="1.2em">IW, k = 4.5</tspan><tspan x="680" style="font-style:italic" class="notThisAn" dy="1.2em">IW, k = 7</tspan><tspan x="680" style="font-style:italic" class="thisAn" dy="1.2em">IW, k = 10.5</tspan><tspan x="680" style="font-style:italic" class="thisAn" dy="1.2em">IW, k = 16</tspan><tspan x="680" style="font-style:italic" class="notThisAn" dy="1.2em">IW, k = 24</tspan></text>
 <text x="100.4" y="538" fill="lightgrey" class="flag">[-]</text>
 <text x="122.4" y="538" fill="#d3d3d3" class="taxonLabel">Wiwaxia corrugata</text>
 <text x="100.4" y="550" fill="lightgrey" class="flag">[-]</text>
 <text x="122.4" y="550" fill="#d3d3d3" class="taxonLabel">Tonicella</text>
 <text x="76.6" y="526" fill="lightgrey" class="flag">[-]</text>
 <text x="98.6" y="526" fill="#d3d3d3" class="taxonLabel">Dentalium</text>
 <text x="76.6" y="502" fill="lightgrey" class="flag">[-]</text>
 <text x="98.6" y="502" fill="#d3d3d3" class="taxonLabel">Sipunculus</text>
 <text x="76.6" y="514" fill="lightgrey" class="flag">[-]</text>
 <text x="98.6" y="514" fill="#d3d3d3" class="taxonLabel">Serpula</text>
 <text x="458.2" y="466" fill="#91bfdb" class="flag">[2]</text>
 <text x="480.2" y="466" fill="#111" class="taxonLabel">Acanthotretella spinosa</text>
 <text x="458.2" y="478" fill="grey" class="flag">[?]</text>
 <text x="480.2" y="478" fill="#111" class="taxonLabel">Siphonobolus priscus</text>
 <text x="434.3" y="454" fill="#91bfdb" class="flag">[2]</text>
 <text x="456.3" y="454" fill="#111" class="taxonLabel">Lingulosacculus</text>
 <text x="410.5" y="442" fill="grey" class="flag">[?]</text>
 <text x="432.5" y="442" fill="#111" class="taxonLabel">Clupeafumosus socialis</text>
 <text x="386.6" y="430" fill="#91bfdb" class="flag">[2]</text>
 <text x="408.6" y="430" fill="#111" class="taxonLabel">Lingulellotreta malongensis</text>
 <text x="362.8" y="418" fill="grey" class="flag">[?]</text>
 <text x="384.8" y="418" fill="#111" class="taxonLabel">Botsfordia</text>
 <text x="338.9" y="406" fill="grey" class="flag">[?]</text>
 <text x="360.9" y="406" fill="#111" class="taxonLabel">Mummpikia nuda</text>
 <text x="315.1" y="394" fill="grey" class="flag">[?]</text>
 <text x="337.1" y="394" fill="#111" class="taxonLabel">Eoobolus</text>
 <text x="291.2" y="382" fill="#91bfdb" class="flag">[2]</text>
 <text x="313.2" y="382" fill="#111" class="taxonLabel">Lingula</text>
 <text x="315.1" y="358" fill="grey" class="flag">[?]</text>
 <text x="337.1" y="358" fill="#111" class="taxonLabel">Mickwitzia muralensis</text>
 <text x="315.1" y="370" fill="#e2e2a2" class="flag">[1]</text>
 <text x="337.1" y="370" fill="#111" class="taxonLabel">Pelagodiscus atlanticus</text>
 <text x="291.2" y="346" fill="grey" class="flag">[?]</text>
 <text x="313.2" y="346" fill="#111" class="taxonLabel">Micrina</text>
 <text x="338.9" y="322" fill="#91bfdb" class="flag">[2]</text>
 <text x="360.9" y="322" fill="#111" class="taxonLabel">Novocrania</text>
 <text x="338.9" y="334" fill="grey" class="flag">[?]</text>
 <text x="360.9" y="334" fill="#111" class="taxonLabel">Craniops</text>
 <text x="315.1" y="310" fill="grey" class="flag">[?]</text>
 <text x="337.1" y="310" fill="#111" class="taxonLabel">Ussunia</text>
 <text x="291.2" y="298" fill="grey" class="flag">[?]</text>
 <text x="313.2" y="298" fill="#111" class="taxonLabel">Gasconsia</text>
 <text x="315.1" y="274" fill="grey" class="flag">[?]</text>
 <text x="337.1" y="274" fill="#111" class="taxonLabel">Askepasma toddense</text>
 <text x="315.1" y="286" fill="grey" class="flag">[?]</text>
 <text x="337.1" y="286" fill="#111" class="taxonLabel">Micromitra</text>
 <text x="362.8" y="250" fill="#e2e2a2" class="flag">[1]</text>
 <text x="384.8" y="250" fill="#111" class="taxonLabel">Yuganotheca elegans</text>
 <text x="362.8" y="262" fill="grey" class="flag">[?]</text>
 <text x="384.8" y="262" fill="#111" class="taxonLabel">Tomteluva perturbata</text>
 <text x="338.9" y="238" fill="grey" class="flag">[?]</text>
 <text x="360.9" y="238" fill="#111" class="taxonLabel">Salanygolina</text>
 <text x="482" y="214" fill="grey" class="flag">[?]</text>
 <text x="504" y="214" fill="#111" class="taxonLabel">Orthis</text>
 <text x="482" y="226" fill="#91bfdb" class="flag">[2]</text>
 <text x="504" y="226" fill="#111" class="taxonLabel">Terebratulina</text>
 <text x="458.2" y="202" fill="#91bfdb" class="flag">[2]</text>
 <text x="480.2" y="202" fill="#111" class="taxonLabel">Alisina</text>
 <text x="434.3" y="190" fill="#e2e2a2" class="flag">[1]</text>
 <text x="456.3" y="190" fill="#111" class="taxonLabel">Longtancunella chengjiangensis</text>
 <text x="410.5" y="178" fill="grey" class="flag">[?]</text>
 <text x="432.5" y="178" fill="#111" class="taxonLabel">Glyptoria</text>
 <text x="386.6" y="166" fill="grey" class="flag">[?]</text>
 <text x="408.6" y="166" fill="#111" class="taxonLabel">Nisusia sulcata</text>
 <text x="362.8" y="154" fill="#91bfdb" class="flag">[2]</text>
 <text x="384.8" y="154" fill="#111" class="taxonLabel">Kutorgina chengjiangensis</text>
 <text x="362.8" y="130" fill="grey" class="flag">[?]</text>
 <text x="384.8" y="130" fill="#111" class="taxonLabel">Antigonambonites planus</text>
 <text x="362.8" y="142" fill="grey" class="flag">[?]</text>
 <text x="384.8" y="142" fill="#111" class="taxonLabel">Coolinia pecten</text>
 <text x="267.4" y="106" fill="#e2e2a2" class="flag">[1]</text>
 <text x="289.4" y="106" fill="#111" class="taxonLabel">Haplophrentis carinatus</text>
 <text x="267.4" y="118" fill="grey" class="flag">[?]</text>
 <text x="289.4" y="118" fill="#111" class="taxonLabel">Pedunculotheca diania</text>
 <text x="243.5" y="94" fill="grey" class="flag">[?]</text>
 <text x="265.5" y="94" fill="#111" class="taxonLabel">Paterimitra</text>
 <text x="195.8" y="82" fill="#e2e2a2" class="flag">[1]</text>
 <text x="217.8" y="82" fill="#111" class="taxonLabel">Heliomedusa orienta</text>
 <text x="195.8" y="58" fill="grey" class="flag">[?]</text>
 <text x="217.8" y="58" fill="#111" class="taxonLabel">Halkieria evangelista</text>
 <text x="195.8" y="70" fill="grey" class="flag">[?]</text>
 <text x="217.8" y="70" fill="#111" class="taxonLabel">Dailyatia</text>
 <text x="148.1" y="46" fill="grey" class="flag">[?]</text>
 <text x="170.1" y="46" fill="#111" class="taxonLabel">Eccentrotheca</text>
 <text x="124.2" y="34" fill="grey" class="flag">[12]</text>
 <text x="146.2" y="34" fill="#111" class="taxonLabel">Cotyledion tylodes</text>
 <text x="100.4" y="22" fill="#91bfdb" class="flag">[2]</text>
 <text x="122.4" y="22" fill="#111" class="taxonLabel">Phoronis</text>
 <text x="76.6" y="10" fill="#91bfdb" class="flag">[2]</text>
 <text x="98.6" y="10" fill="#111" class="taxonLabel">Flustra</text>
 <text x="52.7" y="490" fill="#91bfdb" class="flag">[2]</text>
 <text x="74.7" y="490" fill="#111" class="taxonLabel">Loxosomella</text>
 <path d="M5,386.3V254.1H28.9M28.9,254.1V21.2H52.7M52.7,21.2V7H76.6M52.7,21.2V35.5H76.6M76.6,35.5V19H100.4M76.6,35.5V52H100.4M338.9,162.8V151H362.8M410.5,197.5V208H434.3M434.3,208V199H458.2M434.3,208V217H458.2M458.2,217V211H482M458.2,217V223H482M315.1,325V319H338.9M243.5,371.5V391H267.4M267.4,391V379H291.2M267.4,391V402.9H291.2M291.2,402.9V391H315.1M291.2,402.9V414.8H315.1M315.1,414.8V403H338.9M315.1,414.8V426.6H338.9M338.9,426.6V415H362.8M338.9,426.6V438.2H362.8M362.8,438.2V427H386.6M362.8,438.2V449.5H386.6M386.6,449.5V439H410.5M386.6,449.5V460H410.5M410.5,460V451H434.3M410.5,460V469H434.3M434.3,469V463H458.2M434.3,469V475H458.2M28.9,254.1V487H52.7" stroke="#91bfdb"></path>
 <path d="M100.4,52V31H124.2M100.4,52V73H124.2M124.2,73V43H148.1M124.2,73V102.9H148.1M148.1,102.9V61H172M172,61V55H195.8M172,61V67H195.8M148.1,102.9V144.8H172M172,144.8V210.6H195.8M195.8,210.6V100H219.7M219.7,100V91H243.5M219.7,100V109H243.5M243.5,109V115H267.4M195.8,210.6V321.2H219.7M219.7,321.2V271H243.5M243.5,271V236.5H267.4M267.4,236.5V196H291.2M291.2,196V147.9H315.1M315.1,147.9V133H338.9M338.9,133V127H362.8M338.9,133V139H362.8M315.1,147.9V162.8H338.9M338.9,162.8V174.6H362.8M362.8,174.6V163H386.6M362.8,174.6V186.2H386.6M386.6,186.2V175H410.5M386.6,186.2V197.5H410.5M291.2,196V244H315.1M315.1,244V235H338.9M315.1,244V253H338.9M338.9,253V259H362.8M267.4,236.5V277H291.2M291.2,277V271H315.1M291.2,277V283H315.1M243.5,271V305.5H267.4M267.4,305.5V295H291.2M267.4,305.5V316H291.2M291.2,316V307H315.1M291.2,316V325H315.1M315.1,325V331H338.9M219.7,321.2V371.5H243.5M243.5,371.5V352H267.4M267.4,352V343H291.2M267.4,352V361H291.2M291.2,361V355H315.1" stroke="darkgrey"></path>
 <path d="M172,144.8V79H195.8M243.5,109V103H267.4M410.5,197.5V187H434.3M338.9,253V247H362.8M291.2,361V367H315.1" stroke="#e2e2a2"></path>
 <path d="M5,386.3V518.5H28.9M28.9,518.5V505H52.7M52.7,505V499H76.6M52.7,505V511H76.6M28.9,518.5V532H52.7M52.7,532V523H76.6M52.7,532V541H76.6M76.6,541V535H100.4M76.6,541V547H100.4" stroke="lightgrey" class="inapplicable"></path>
 <text x="7" y="389.3" class="node" fill="#4A6FE3">1</text>
 <text x="30.9" y="257.1" class="node" fill="#8998E1">0.82</text>
 <text x="54.7" y="24.2" class="node" fill="#8998E1">0.82</text>
 <text x="78.6" y="38.5" class="node" fill="#8998E1">0.82</text>
 <text x="102.4" y="55" class="node" fill="#8998E1">0.82</text>
 <text x="126.2" y="76" class="node" fill="#E498A7">0.26</text>
 <text x="150.1" y="105.9" class="node" fill="#9DA8E2">0.75</text>
 <text x="174" y="64" class="node" fill="#667FE1">0.93</text>
 <text x="174" y="147.8" class="node" fill="#4A6FE3">1</text>
 <text x="197.8" y="213.6" class="node" fill="#5776E2">0.97</text>
 <text x="221.7" y="103" class="node" fill="#8C9BE1">0.81</text>
 <text x="245.5" y="112" class="node" fill="#4A6FE3">1</text>
 <text x="221.7" y="324.2" class="node" fill="#5776E2">0.97</text>
 <text x="245.5" y="274" class="node" fill="#4A6FE3">1</text>
 <text x="269.4" y="239.5" class="node" fill="#7A8DE1">0.87</text>
 <text x="293.2" y="199" class="node" fill="#5776E2">0.97</text>
 <text x="317.1" y="150.9" class="node" fill="#4A6FE3">1</text>
 <text x="340.9" y="136" class="node" fill="#4A6FE3">1</text>
 <text x="340.9" y="165.8" class="node" fill="#ABB4E2">0.7</text>
 <text x="364.8" y="177.6" class="node" fill="#ABB4E2">0.7</text>
 <text x="388.6" y="189.2" class="node" fill="#ABB4E2">0.7</text>
 <text x="412.5" y="200.5" class="node" fill="#ABB4E2">0.7</text>
 <text x="436.3" y="211" class="node" fill="#4A6FE3">1</text>
 <text x="460.2" y="220" class="node" fill="#768BE1">0.88</text>
 <text x="317.1" y="247" class="node" fill="#9AA6E2">0.76</text>
 <text x="340.9" y="256" class="node" fill="#5B78E2">0.96</text>
 <text x="293.2" y="280" class="node" fill="#4A6FE3">1</text>
 <text x="269.4" y="308.5" class="node" fill="#4A6FE3">1</text>
 <text x="293.2" y="319" class="node" fill="#4A6FE3">1</text>
 <text x="317.1" y="328" class="node" fill="#4A6FE3">1</text>
 <text x="245.5" y="374.5" class="node" fill="#8C9BE1">0.81</text>
 <text x="269.4" y="355" class="node" fill="#8C9BE1">0.81</text>
 <text x="293.2" y="364" class="node" fill="#8998E1">0.82</text>
 <text x="269.4" y="394" class="node" fill="#8998E1">0.82</text>
 <text x="293.2" y="405.9" class="node" fill="#8998E1">0.82</text>
 <text x="317.1" y="417.8" class="node" fill="#8C9BE1">0.81</text>
 <text x="340.9" y="429.6" class="node" fill="#8C9BE1">0.81</text>
 <text x="364.8" y="441.2" class="node" fill="#8C9BE1">0.81</text>
 <text x="388.6" y="452.5" class="node" fill="#E5CDD1">0.43</text>
 <text x="412.5" y="463" class="node" fill="#E17F94">0.18</text>
 <text x="436.3" y="472" class="node" fill="#4A6FE3">1</text>
 <text x="30.9" y="521.5" class="node" fill="#8998E1">0.82</text>
 <text x="54.7" y="508" class="node" fill="#4A6FE3">1</text>
 <text x="54.7" y="535" class="node" fill="#8998E1">0.82</text>
 <text x="78.6" y="544" class="node" fill="#8998E1">0.82</text></svg>
