<svg xmlns="http://www.w3.org/2000/svg" version="1.1" width="682" height="612" class="tree" data-char="187"><text x="678" y="15.7" text-anchor="end" class="stepsLabel">Character adds <tspan class="score">2</tspan> to tree score</text><text x="678" y="28.4" text-anchor="end" class="stepsLabel"><tspan class="score">0</tspan> additional regions</text><text x="678" y="41.1" text-anchor="end" class="stepsLabel">CI = 0.5; Fitch CI = 0.5; Fitch RI = 0</text><text x="678" y="66.5" text-anchor="end" class="stepsLabel"><tspan dy="16">An optimal tree under:</tspan><tspan x="680" style="font-style:italic" class="thisAn" dy="1.2em">Equal weights</tspan><tspan x="680" style="font-style:italic" class="notThisAn" dy="1.2em">Implied weights, k = 2</tspan><tspan x="680" style="font-style:italic" class="notThisAn" dy="1.2em">IW, k = 3</tspan><tspan x="680" style="font-style:italic" class="notThisAn" dy="1.2em">IW, k = 4.5</tspan><tspan x="680" style="font-style:italic" class="notThisAn" dy="1.2em">IW, k = 7</tspan><tspan x="680" style="font-style:italic" class="notThisAn" dy="1.2em">IW, k = 10.5</tspan><tspan x="680" style="font-style:italic" class="notThisAn" dy="1.2em">IW, k = 16</tspan><tspan x="680" style="font-style:italic" class="notThisAn" dy="1.2em">IW, k = 24</tspan></text><text x="70" y="594" fill="#91bfdb" class="flag">[1]</text><text x="92" y="594" fill="#000" class="taxonLabel">Sipunculus</text><text x="70" y="607" fill="#91bfdb" class="flag">[1]</text><text x="92" y="607" fill="#000" class="taxonLabel">Serpula</text><text x="91.7" y="568.1" fill="#91bfdb" class="flag">[1]</text><text x="113.7" y="568.1" fill="#000" class="taxonLabel">Tonicella</text><text x="91.7" y="581" fill="#91bfdb" class="flag">[1]</text><text x="113.7" y="581" fill="#000" class="taxonLabel">Dentalium</text><text x="70" y="555.1" fill="grey" class="flag">[?]</text><text x="92" y="555.1" fill="grey" class="taxonLabel">Wiwaxia corrugata</text><text x="438.6" y="516.2" fill="grey" class="flag">[?]</text><text x="460.6" y="516.2" fill="grey" class="taxonLabel">Siphonobolus priscus</text><text x="438.6" y="529.1" fill="grey" class="flag">[?]</text><text x="460.6" y="529.1" fill="grey" class="taxonLabel">Acanthotretella spinosa</text><text x="417" y="503.2" fill="grey" class="flag">[?]</text><text x="439" y="503.2" fill="grey" class="taxonLabel">Clupeafumosus socialis</text><text x="417" y="477.2" fill="grey" class="flag">[?]</text><text x="439" y="477.2" fill="grey" class="taxonLabel">Lingulellotreta malongensis</text><text x="417" y="490.2" fill="grey" class="flag">[?]</text><text x="439" y="490.2" fill="grey" class="taxonLabel">Lingulosacculus</text><text x="373.6" y="464.2" fill="grey" class="flag">[?]</text><text x="395.6" y="464.2" fill="grey" class="taxonLabel">Botsfordia</text><text x="351.9" y="451.3" fill="grey" class="flag">[?]</text><text x="373.9" y="451.3" fill="grey" class="taxonLabel">Mummpikia nuda</text><text x="330.2" y="438.3" fill="grey" class="flag">[?]</text><text x="352.2" y="438.3" fill="grey" class="taxonLabel">Eoobolus</text><text x="308.5" y="425.3" fill="#91bfdb" class="flag">[1]</text><text x="330.5" y="425.3" fill="#000" class="taxonLabel">Lingula</text><text x="330.2" y="399.3" fill="grey" class="flag">[?]</text><text x="352.2" y="399.3" fill="grey" class="taxonLabel">Pelagodiscus atlanticus</text><text x="330.2" y="412.3" fill="grey" class="flag">[?]</text><text x="352.2" y="412.3" fill="grey" class="taxonLabel">Mickwitzia muralensis</text><text x="308.5" y="386.4" fill="grey" class="flag">[?]</text><text x="330.5" y="386.4" fill="grey" class="taxonLabel">Micrina</text><text x="308.5" y="360.4" fill="grey" class="flag">[?]</text><text x="330.5" y="360.4" fill="grey" class="taxonLabel">Micromitra</text><text x="308.5" y="373.4" fill="grey" class="flag">[?]</text><text x="330.5" y="373.4" fill="grey" class="taxonLabel">Askepasma toddense</text><text x="395.3" y="334.5" fill="grey" class="flag">[?]</text><text x="417.3" y="334.5" fill="grey" class="taxonLabel">Antigonambonites planus</text><text x="395.3" y="347.4" fill="grey" class="flag">[?]</text><text x="417.3" y="347.4" fill="grey" class="taxonLabel">Coolinia pecten</text><text x="482" y="308.5" fill="grey" class="flag">[?]</text><text x="504" y="308.5" fill="grey" class="taxonLabel">Terebratulina</text><text x="482" y="321.5" fill="grey" class="flag">[?]</text><text x="504" y="321.5" fill="grey" class="taxonLabel">Alisina</text><text x="460.3" y="295.5" fill="grey" class="flag">[?]</text><text x="482.3" y="295.5" fill="grey" class="taxonLabel">Orthis</text><text x="438.6" y="282.5" fill="grey" class="flag">[?]</text><text x="460.6" y="282.5" fill="grey" class="taxonLabel">Glyptoria</text><text x="417" y="269.6" fill="grey" class="flag">[?]</text><text x="439" y="269.6" fill="grey" class="taxonLabel">Nisusia sulcata</text><text x="395.3" y="256.6" fill="grey" class="flag">[?]</text><text x="417.3" y="256.6" fill="grey" class="taxonLabel">Kutorgina chengjiangensis</text><text x="351.9" y="243.6" fill="grey" class="flag">[?]</text><text x="373.9" y="243.6" fill="grey" class="taxonLabel">Longtancunella chengjiangensis</text><text x="373.6" y="217.7" fill="grey" class="flag">[?]</text><text x="395.6" y="217.7" fill="grey" class="taxonLabel">Tomteluva perturbata</text><text x="373.6" y="230.6" fill="grey" class="flag">[?]</text><text x="395.6" y="230.6" fill="grey" class="taxonLabel">Yuganotheca elegans</text><text x="351.9" y="204.7" fill="grey" class="flag">[?]</text><text x="373.9" y="204.7" fill="grey" class="taxonLabel">Salanygolina</text><text x="308.5" y="191.7" fill="grey" class="flag">[?]</text><text x="330.5" y="191.7" fill="grey" class="taxonLabel">Gasconsia</text><text x="286.9" y="165.7" fill="grey" class="flag">[?]</text><text x="308.9" y="165.7" fill="grey" class="taxonLabel">Pedunculotheca diania</text><text x="286.9" y="178.7" fill="grey" class="flag">[?]</text><text x="308.9" y="178.7" fill="grey" class="taxonLabel">Haplophrentis carinatus</text><text x="265.2" y="152.8" fill="grey" class="flag">[?]</text><text x="287.2" y="152.8" fill="grey" class="taxonLabel">Paterimitra</text><text x="221.8" y="139.8" fill="grey" class="flag">[?]</text><text x="243.8" y="139.8" fill="grey" class="taxonLabel">Heliomedusa orienta</text><text x="221.8" y="113.8" fill="grey" class="flag">[?]</text><text x="243.8" y="113.8" fill="grey" class="taxonLabel">Craniops</text><text x="221.8" y="126.8" fill="#91bfdb" class="flag">[1]</text><text x="243.8" y="126.8" fill="#000" class="taxonLabel">Novocrania</text><text x="178.5" y="100.8" fill="grey" class="flag">[?]</text><text x="200.5" y="100.8" fill="grey" class="taxonLabel">Ussunia</text><text x="178.5" y="74.9" fill="grey" class="flag">[?]</text><text x="200.5" y="74.9" fill="grey" class="taxonLabel">Halkieria evangelista</text><text x="178.5" y="87.9" fill="grey" class="flag">[?]</text><text x="200.5" y="87.9" fill="grey" class="taxonLabel">Dailyatia</text><text x="135.1" y="61.9" fill="grey" class="flag">[?]</text><text x="157.1" y="61.9" fill="grey" class="taxonLabel">Eccentrotheca</text><text x="113.4" y="48.9" fill="grey" class="flag">[?]</text><text x="135.4" y="48.9" fill="grey" class="taxonLabel">Cotyledion tylodes</text><text x="113.4" y="23" fill="#91bfdb" class="flag">[1]</text><text x="135.4" y="23" fill="#000" class="taxonLabel">Phoronis</text><text x="113.4" y="36" fill="grey" class="flag">[?]</text><text x="135.4" y="36" fill="grey" class="taxonLabel">Namacalathus</text><text x="70" y="10" fill="#fc8d59" class="flag">[0]</text><text x="92" y="10" fill="#000" class="taxonLabel">Flustra</text><text x="48.4" y="542.1" fill="#fc8d59" class="flag">[0]</text><text x="70.4" y="542.1" fill="#000" class="taxonLabel">Loxosomella</text><path d="M5,431.1V282.5H26.7M26.7,282.5V26H48.4" stroke="darkgrey"></path><path d="M48.4,26V7H70M26.7,282.5V539.1H48.4" stroke="#fc8d59"></path><path d="M48.4,26V44.9H70M70,44.9V26.5H91.7M91.7,26.5V20H113.4M91.7,26.5V33H113.4M70,44.9V63.4H91.7M91.7,63.4V45.9H113.4M91.7,63.4V80.9H113.4M113.4,80.9V58.9H135.1M113.4,80.9V102.8H135.1M135.1,102.8V78.4H156.8M156.8,78.4V71.9H178.5M156.8,78.4V84.9H178.5M135.1,102.8V127.3H156.8M156.8,127.3V97.8H178.5M156.8,127.3V156.8H178.5M178.5,156.8V117.3H200.1M200.1,117.3V110.8H221.8M200.1,117.3V123.8H221.8M178.5,156.8V196.3H200.1M200.1,196.3V136.8H221.8M200.1,196.3V255.7H221.8M221.8,255.7V159.5H243.5M243.5,159.5V149.8H265.2M243.5,159.5V169.2H265.2M265.2,169.2V162.7H286.9M265.2,169.2V175.7H286.9M221.8,255.7V352H243.5M243.5,352V289.5H265.2M265.2,289.5V215H286.9M286.9,215V188.7H308.5M286.9,215V241.4H308.5M308.5,241.4V211.4H330.2M330.2,211.4V201.7H351.9M330.2,211.4V221.1H351.9M351.9,221.1V214.7H373.6M351.9,221.1V227.6H373.6M308.5,241.4V271.3H330.2M330.2,271.3V240.6H351.9M330.2,271.3V302.1H351.9M351.9,302.1V266.2H373.6M373.6,266.2V253.6H395.3M373.6,266.2V278.7H395.3M395.3,278.7V266.6H417M395.3,278.7V290.9H417M417,290.9V279.5H438.6M417,290.9V302.3H438.6M438.6,302.3V292.5H460.3M438.6,302.3V312H460.3M460.3,312V305.5H482M460.3,312V318.5H482M351.9,302.1V337.9H373.6M373.6,337.9V331.5H395.3M373.6,337.9V344.4H395.3M265.2,289.5V363.9H286.9M286.9,363.9V357.4H308.5M286.9,363.9V370.4H308.5M243.5,352V414.4H265.2M265.2,414.4V393.1H286.9M286.9,393.1V383.4H308.5M286.9,393.1V402.8H308.5M308.5,402.8V396.3H330.2M308.5,402.8V409.3H330.2M265.2,414.4V435.8H286.9M286.9,435.8V422.3H308.5M286.9,435.8V449.3H308.5M308.5,449.3V435.3H330.2M308.5,449.3V463.3H330.2M330.2,463.3V448.3H351.9M330.2,463.3V478.3H351.9M351.9,478.3V461.2H373.6M351.9,478.3V495.3H373.6M373.6,495.3V480.7H395.3M395.3,480.7V474.2H417M395.3,480.7V487.2H417M373.6,495.3V509.9H395.3M395.3,509.9V500.2H417M395.3,509.9V519.6H417M417,519.6V513.2H438.6M417,519.6V526.1H438.6M5,431.1V579.7H26.7M26.7,579.7V561.8H48.4M48.4,561.8V552.1H70M48.4,561.8V571.6H70M70,571.6V565.1H91.7M70,571.6V578H91.7M26.7,579.7V597.5H48.4M48.4,597.5V591H70M48.4,597.5V604H70" stroke="#91bfdb"></path><text x="7" y="434.1" class="node" fill="#4A6FE3">1</text><text x="28.7" y="285.5" class="node" fill="#4A6FE3">1</text><text x="50.4" y="29" class="node" fill="#4A6FE3">1</text><text x="72" y="47.9" class="node" fill="#4A6FE3">1</text><text x="93.7" y="29.5" class="node" fill="#627DE1">0.94</text><text x="93.7" y="66.4" class="node" fill="#4A6FE3">1</text><text x="115.4" y="83.9" class="node" fill="#E498A7">0.26</text><text x="137.1" y="105.8" class="node" fill="#929FE1">0.79</text><text x="158.8" y="81.4" class="node" fill="#AEB6E2">0.69</text><text x="158.8" y="130.3" class="node" fill="#4A6FE3">1</text><text x="180.5" y="159.8" class="node" fill="#E498A7">0.26</text><text x="202.1" y="120.3" class="node" fill="#4A6FE3">1</text><text x="202.1" y="199.3" class="node" fill="#8394E1">0.84</text><text x="223.8" y="258.7" class="node" fill="#8394E1">0.84</text><text x="245.5" y="162.5" class="node" fill="#E6BAC2">0.37</text><text x="267.2" y="172.2" class="node" fill="#4A6FE3">1</text><text x="245.5" y="355" class="node" fill="#8394E1">0.84</text><text x="267.2" y="292.5" class="node" fill="#8394E1">0.84</text><text x="288.9" y="218" class="node" fill="#E38C9E">0.22</text><text x="310.5" y="244.4" class="node" fill="#4A6FE3">1</text><text x="332.2" y="214.4" class="node" fill="#8998E1">0.82</text><text x="353.9" y="224.1" class="node" fill="#5374E2">0.98</text><text x="332.2" y="274.3" class="node" fill="#6982E1">0.92</text><text x="353.9" y="305.1" class="node" fill="#ABB4E2">0.7</text><text x="375.6" y="269.2" class="node" fill="#ABB4E2">0.7</text><text x="397.3" y="281.7" class="node" fill="#ABB4E2">0.7</text><text x="419" y="293.9" class="node" fill="#ABB4E2">0.7</text><text x="440.6" y="305.3" class="node" fill="#4A6FE3">1</text><text x="462.3" y="315" class="node" fill="#E6B1BB">0.34</text><text x="375.6" y="340.9" class="node" fill="#4A6FE3">1</text><text x="288.9" y="366.9" class="node" fill="#E6BDC5">0.38</text><text x="267.2" y="417.4" class="node" fill="#8091E1">0.85</text><text x="288.9" y="396.1" class="node" fill="#8091E1">0.85</text><text x="310.5" y="405.8" class="node" fill="#4A6FE3">1</text><text x="288.9" y="438.8" class="node" fill="#4A6FE3">1</text><text x="310.5" y="452.3" class="node" fill="#4A6FE3">1</text><text x="332.2" y="466.3" class="node" fill="#8091E1">0.85</text><text x="353.9" y="481.3" class="node" fill="#8091E1">0.85</text><text x="375.6" y="498.3" class="node" fill="#8091E1">0.85</text><text x="397.3" y="483.7" class="node" fill="#DB6581">0.1</text><text x="397.3" y="512.9" class="node" fill="#DDDEE3">0.52</text><text x="419" y="522.6" class="node" fill="#4A6FE3">1</text><text x="28.7" y="582.7" class="node" fill="#4A6FE3">1</text><text x="50.4" y="564.8" class="node" fill="#4A6FE3">1</text><text x="72" y="574.6" class="node" fill="#4A6FE3">1</text><text x="50.4" y="600.5" class="node" fill="#4A6FE3">1</text></svg>
