<svg xmlns="http://www.w3.org/2000/svg" version="1.1" width="682" height="682" class="tree" data-char="215"><text x="678" y="15.4" text-anchor="end" class="stepsLabel">Character adds <tspan class="score">2</tspan> to tree score</text><text x="678" y="27.8" text-anchor="end" class="stepsLabel"><tspan class="score">0</tspan> additional regions</text><text x="678" y="40.2" text-anchor="end" class="stepsLabel">CI = 0.5; Fitch CI = 0.5; Fitch RI = 0.5</text><text x="678" y="65" text-anchor="end" class="stepsLabel"><tspan dy="16" fill="#34caaf">An optimal tree under:</tspan><tspan x="680" style="font-style:italic" class="notThisAn" dy="1.2em">Equal weights</tspan><tspan x="680" style="font-style:italic" class="thisAn" dy="1.2em">Implied weights, k = 2</tspan><tspan x="680" style="font-style:italic" class="notThisAn" dy="1.2em">IW, k = 3</tspan><tspan x="680" style="font-style:italic" class="notThisAn" dy="1.2em">IW, k = 4.5</tspan><tspan x="680" style="font-style:italic" class="notThisAn" dy="1.2em">IW, k = 7</tspan><tspan x="680" style="font-style:italic" class="notThisAn" dy="1.2em">IW, k = 10.5</tspan><tspan x="680" style="font-style:italic" class="notThisAn" dy="1.2em">IW, k = 16</tspan><tspan x="680" style="font-style:italic" class="notThisAn" dy="1.2em">IW, k = 24</tspan></text><text x="105.4" y="664.4" fill="#91bfdb" class="flag">[1]</text><text x="127.4" y="664.4" fill="#000" class="taxonLabel">Dentalium</text><text x="105.4" y="677" fill="#91bfdb" class="flag">[1]</text><text x="127.4" y="677" fill="#000" class="taxonLabel">Tonicella</text><text x="80.3" y="651.8" fill="grey" class="flag">[?]</text><text x="102.3" y="651.8" fill="#999" class="taxonLabel">Wiwaxia corrugata</text><text x="80.3" y="626.7" fill="#fc8d59" class="flag">[0]</text><text x="102.3" y="626.7" fill="#000" class="taxonLabel">Serpula</text><text x="80.3" y="639.2" fill="#fc8d59" class="flag">[0]</text><text x="102.3" y="639.2" fill="#000" class="taxonLabel">Sipunculus</text><text x="105.4" y="601.5" fill="grey" class="flag">[?]</text><text x="127.4" y="601.5" fill="#999" class="taxonLabel">Amathia</text><text x="105.4" y="614.1" fill="#fc8d59" class="flag">[0]</text><text x="127.4" y="614.1" fill="#000" class="taxonLabel">Flustra</text><text x="230.9" y="576.3" fill="grey" class="flag">[?]</text><text x="252.9" y="576.3" fill="#999" class="taxonLabel">Maxilites</text><text x="230.9" y="588.9" fill="grey" class="flag">[?]</text><text x="252.9" y="588.9" fill="#999" class="taxonLabel">Pauxillites</text><text x="205.8" y="563.7" fill="grey" class="flag">[?]</text><text x="227.8" y="563.7" fill="#999" class="taxonLabel">Haplophrentis carinatus</text><text x="180.7" y="551.2" fill="grey" class="flag">[?]</text><text x="202.7" y="551.2" fill="#999" class="taxonLabel">Paramicrocornus</text><text x="256.1" y="526" fill="grey" class="flag">[?]</text><text x="278.1" y="526" fill="#999" class="taxonLabel">Namacalathus</text><text x="256.1" y="538.6" fill="#fc8d59" class="flag">[0]</text><text x="278.1" y="538.6" fill="#000" class="taxonLabel">Phoronis</text><text x="230.9" y="513.4" fill="grey" class="flag">[?]</text><text x="252.9" y="513.4" fill="#999" class="taxonLabel">Cotyledion tylodes</text><text x="205.8" y="500.8" fill="grey" class="flag">[?]</text><text x="227.8" y="500.8" fill="#999" class="taxonLabel">Eccentrotheca</text><text x="205.8" y="475.6" fill="grey" class="flag">[?]</text><text x="227.8" y="475.6" fill="#999" class="taxonLabel">Dailyatia</text><text x="205.8" y="488.2" fill="grey" class="flag">[?]</text><text x="227.8" y="488.2" fill="#999" class="taxonLabel">Halkieria evangelista</text><text x="306.3" y="450.5" fill="grey" class="flag">[?]</text><text x="328.3" y="450.5" fill="#999" class="taxonLabel">Botsfordia</text><text x="306.3" y="463.1" fill="grey" class="flag">[?]</text><text x="328.3" y="463.1" fill="#999" class="taxonLabel">Mummpikia nuda</text><text x="281.2" y="437.9" fill="grey" class="flag">[?]</text><text x="303.2" y="437.9" fill="#999" class="taxonLabel">Eoobolus</text><text x="356.5" y="412.7" fill="grey" class="flag">[?]</text><text x="378.5" y="412.7" fill="#999" class="taxonLabel">Acanthotretella spinosa</text><text x="356.5" y="425.3" fill="grey" class="flag">[?]</text><text x="378.5" y="425.3" fill="#999" class="taxonLabel">Siphonobolus priscus</text><text x="331.4" y="400.1" fill="grey" class="flag">[?]</text><text x="353.4" y="400.1" fill="#999" class="taxonLabel">Lingulosacculus</text><text x="306.3" y="387.5" fill="grey" class="flag">[?]</text><text x="328.3" y="387.5" fill="#999" class="taxonLabel">Clupeafumosus socialis</text><text x="306.3" y="362.4" fill="grey" class="flag">[?]</text><text x="328.3" y="362.4" fill="#999" class="taxonLabel">Lingulellotreta malongensis</text><text x="306.3" y="375" fill="#fc8d59" class="flag">[0]</text><text x="328.3" y="375" fill="#000" class="taxonLabel">Lingula</text><text x="256.1" y="337.2" fill="#fc8d59" class="flag">[0]</text><text x="278.1" y="337.2" fill="#000" class="taxonLabel">Pelagodiscus atlanticus</text><text x="256.1" y="349.8" fill="grey" class="flag">[?]</text><text x="278.1" y="349.8" fill="#999" class="taxonLabel">Mickwitzia muralensis</text><text x="381.6" y="312" fill="grey" class="flag">[?]</text><text x="403.6" y="312" fill="#999" class="taxonLabel">Antigonambonites planus</text><text x="381.6" y="324.6" fill="grey" class="flag">[?]</text><text x="403.6" y="324.6" fill="#999" class="taxonLabel">Coolinia pecten</text><text x="381.6" y="286.9" fill="grey" class="flag">[?]</text><text x="403.6" y="286.9" fill="#999" class="taxonLabel">Salanygolina</text><text x="381.6" y="299.5" fill="grey" class="flag">[?]</text><text x="403.6" y="299.5" fill="#999" class="taxonLabel">Yuganotheca elegans</text><text x="482" y="261.7" fill="#fc8d59" class="flag">[0]</text><text x="504" y="261.7" fill="#000" class="taxonLabel">Terebratulina</text><text x="482" y="274.3" fill="grey" class="flag">[?]</text><text x="504" y="274.3" fill="#999" class="taxonLabel">Alisina</text><text x="456.9" y="249.1" fill="grey" class="flag">[?]</text><text x="478.9" y="249.1" fill="#999" class="taxonLabel">Orthis</text><text x="431.8" y="236.5" fill="grey" class="flag">[?]</text><text x="453.8" y="236.5" fill="#999" class="taxonLabel">Longtancunella chengjiangensis</text><text x="406.7" y="223.9" fill="grey" class="flag">[?]</text><text x="428.7" y="223.9" fill="#999" class="taxonLabel">Glyptoria</text><text x="381.6" y="211.4" fill="grey" class="flag">[?]</text><text x="403.6" y="211.4" fill="#999" class="taxonLabel">Tomteluva perturbata</text><text x="381.6" y="186.2" fill="grey" class="flag">[?]</text><text x="403.6" y="186.2" fill="#999" class="taxonLabel">Kutorgina chengjiangensis</text><text x="381.6" y="198.8" fill="grey" class="flag">[?]</text><text x="403.6" y="198.8" fill="#999" class="taxonLabel">Nisusia sulcata</text><text x="306.3" y="173.6" fill="grey" class="flag">[?]</text><text x="328.3" y="173.6" fill="#999" class="taxonLabel">Micrina</text><text x="281.2" y="161" fill="grey" class="flag">[?]</text><text x="303.2" y="161" fill="#999" class="taxonLabel">Askepasma toddense</text><text x="256.1" y="148.4" fill="grey" class="flag">[?]</text><text x="278.1" y="148.4" fill="#999" class="taxonLabel">Micromitra</text><text x="331.4" y="123.3" fill="#fc8d59" class="flag">[0]</text><text x="353.4" y="123.3" fill="#000" class="taxonLabel">Novocrania</text><text x="331.4" y="135.8" fill="grey" class="flag">[?]</text><text x="353.4" y="135.8" fill="#999" class="taxonLabel">Craniops</text><text x="306.3" y="110.7" fill="grey" class="flag">[?]</text><text x="328.3" y="110.7" fill="#999" class="taxonLabel">Ussunia</text><text x="281.2" y="98.1" fill="grey" class="flag">[?]</text><text x="303.2" y="98.1" fill="#999" class="taxonLabel">Heliomedusa orienta</text><text x="256.1" y="85.5" fill="grey" class="flag">[?]</text><text x="278.1" y="85.5" fill="#999" class="taxonLabel">Gasconsia</text><text x="180.7" y="72.9" fill="grey" class="flag">[?]</text><text x="202.7" y="72.9" fill="#999" class="taxonLabel">Paterimitra</text><text x="105.4" y="664.4" fill="#91bfdb" class="flag">[1]</text><text x="127.4" y="664.4" fill="#999" class="taxonLabel">Dentalium</text><text x="105.4" y="677" fill="#91bfdb" class="flag">[1]</text><text x="127.4" y="677" fill="#999" class="taxonLabel">Tonicella</text><text x="80.3" y="651.8" fill="grey" class="flag">[?]</text><text x="102.3" y="651.8" fill="#999" class="taxonLabel">Wiwaxia corrugata</text><text x="80.3" y="626.7" fill="#fc8d59" class="flag">[0]</text><text x="102.3" y="626.7" fill="#999" class="taxonLabel">Serpula</text><text x="80.3" y="639.2" fill="#fc8d59" class="flag">[0]</text><text x="102.3" y="639.2" fill="#000" class="taxonLabel">Sipunculus</text><path d="M5,420.8V197.5H30.1M5,420.8V644.1H30.1M30.1,644.1V658.3H55.2M55.2,658.3V648.8H80.3" stroke="darkgrey"></path><path d="M30.1,197.5V7H55.2M55.2,658.3V667.7H80.3M80.3,667.7V661.4H105.4M80.3,667.7V674H105.4" stroke="#91bfdb"></path><path d="M30.1,197.5V388H55.2M55.2,388V171.1H80.3M80.3,171.1V25.9H105.4M105.4,25.9V19.6H130.5M105.4,25.9V32.2H130.5M80.3,171.1V316.4H105.4M105.4,316.4V106.3H130.5M130.5,106.3V51H155.6M155.6,51V44.8H180.7M155.6,51V57.3H180.7M130.5,106.3V161.5H155.6M155.6,161.5V69.9H180.7M155.6,161.5V253.1H180.7M180.7,253.1V129.8H205.8M205.8,129.8V94.3H230.9M230.9,94.3V82.5H256.1M230.9,94.3V106.1H256.1M256.1,106.1V95.1H281.2M256.1,106.1V117.1H281.2M281.2,117.1V107.7H306.3M281.2,117.1V126.6H306.3M306.3,126.6V120.3H331.4M306.3,126.6V132.8H331.4M205.8,129.8V165.3H230.9M230.9,165.3V145.4H256.1M230.9,165.3V185.1H256.1M256.1,185.1V158H281.2M256.1,185.1V212.2H281.2M281.2,212.2V170.6H306.3M281.2,212.2V253.9H306.3M306.3,253.9V205H331.4M331.4,205V189.5H356.5M356.5,189.5V183.2H381.6M356.5,189.5V195.8H381.6M331.4,205V220.6H356.5M356.5,220.6V208.4H381.6M356.5,220.6V232.7H381.6M381.6,232.7V220.9H406.7M381.6,232.7V244.5H406.7M406.7,244.5V233.5H431.8M406.7,244.5V255.6H431.8M431.8,255.6V246.1H456.9M431.8,255.6V265H456.9M456.9,265V258.7H482M456.9,265V271.3H482M306.3,253.9V302.7H331.4M331.4,302.7V290.2H356.5M356.5,290.2V283.9H381.6M356.5,290.2V296.5H381.6M331.4,302.7V315.3H356.5M356.5,315.3V309H381.6M356.5,315.3V321.6H381.6M180.7,253.1V376.5H205.8M205.8,376.5V340.5H230.9M230.9,340.5V334.2H256.1M230.9,340.5V346.8H256.1M205.8,376.5V412.5H230.9M230.9,412.5V380.6H256.1M256.1,380.6V365.7H281.2M281.2,365.7V359.4H306.3M281.2,365.7V372H306.3M256.1,380.6V395.6H281.2M281.2,395.6V384.5H306.3M281.2,395.6V406.6H306.3M306.3,406.6V397.1H331.4M306.3,406.6V416H331.4M331.4,416V409.7H356.5M331.4,416V422.3H356.5M230.9,412.5V444.3H256.1M256.1,444.3V434.9H281.2M256.1,444.3V453.8H281.2M281.2,453.8V447.5H306.3M281.2,453.8V460.1H306.3M105.4,316.4V526.5H130.5M130.5,526.5V493.9H155.6M155.6,493.9V478.9H180.7M180.7,478.9V472.6H205.8M180.7,478.9V485.2H205.8M155.6,493.9V508.8H180.7M180.7,508.8V497.8H205.8M180.7,508.8V519.8H205.8M205.8,519.8V510.4H230.9M205.8,519.8V529.3H230.9M230.9,529.3V523H256.1M230.9,529.3V535.6H256.1M130.5,526.5V559.2H155.6M155.6,559.2V548.2H180.7M155.6,559.2V570.2H180.7M180.7,570.2V560.7H205.8M180.7,570.2V579.6H205.8M205.8,579.6V573.3H230.9M205.8,579.6V585.9H230.9M55.2,388V604.8H80.3M80.3,604.8V598.5H105.4M80.3,604.8V611.1H105.4M30.1,644.1V630H55.2M55.2,630V623.7H80.3M55.2,630V636.2H80.3" stroke="#fc8d59"></path><text x="182.7" y="60.3" class="node" fill="#4A6FE3">1</text><text x="132.5" y="22.6" class="node" fill="#4A6FE3">1</text><text x="132.5" y="35.2" class="node" fill="#4A6FE3">1</text><text x="57.2" y="10" class="node" fill="#4A6FE3">1</text><text x="7" y="423.8" class="node" fill="#D3446C">0.01</text><text x="32.1" y="200.5" class="node" fill="#D3446C">0.01</text><text x="57.2" y="391" class="node" fill="#D3446C">0.01</text><text x="82.3" y="174.1" class="node" fill="#D3446C">0.01</text><text x="107.4" y="28.9" class="node" fill="#4A6FE3">1</text><text x="107.4" y="319.4" class="node" fill="#D3446C">0.01</text><text x="132.5" y="109.3" class="node" fill="#D85778">0.06</text><text x="157.6" y="54" class="node" fill="#D85778">0.06</text><text x="157.6" y="164.5" class="node" fill="#4A6FE3">1</text><text x="182.7" y="256.1" class="node" fill="#4A6FE3">1</text><text x="207.8" y="132.8" class="node" fill="#D3446C">0.01</text><text x="232.9" y="97.3" class="node" fill="#D3446C">0.01</text><text x="258.1" y="109.1" class="node" fill="#D3446C">0.01</text><text x="283.2" y="120.1" class="node" fill="#D3446C">0.01</text><text x="308.3" y="129.6" class="node" fill="#5F7BE1">0.95</text><text x="232.9" y="168.3" class="node" fill="#95A1E2">0.78</text><text x="258.1" y="188.1" class="node" fill="#B6BDE3">0.66</text><text x="283.2" y="215.2" class="node" fill="#4A6FE3">1</text><text x="308.3" y="256.9" class="node" fill="#4A6FE3">1</text><text x="333.4" y="208" class="node" fill="#4A6FE3">1</text><text x="358.5" y="192.5" class="node" fill="#D75376">0.05</text><text x="358.5" y="223.6" class="node" fill="#D3446C">0.01</text><text x="383.6" y="235.7" class="node" fill="#D3446C">0.01</text><text x="408.7" y="247.5" class="node" fill="#4A6FE3">1</text><text x="433.8" y="258.6" class="node" fill="#D85778">0.06</text><text x="458.9" y="268" class="node" fill="#D85778">0.06</text><text x="333.4" y="305.7" class="node" fill="#D85778">0.06</text><text x="358.5" y="293.2" class="node" fill="#D85778">0.06</text><text x="358.5" y="318.3" class="node" fill="#D85778">0.06</text><text x="207.8" y="379.5" class="node" fill="#4A6FE3">1</text><text x="232.9" y="343.5" class="node" fill="#E6B1BB">0.34</text><text x="232.9" y="415.5" class="node" fill="#4A6FE3">1</text><text x="258.1" y="383.6" class="node" fill="#D85778">0.06</text><text x="283.2" y="368.7" class="node" fill="#D85778">0.06</text><text x="283.2" y="398.6" class="node" fill="#D3446C">0.01</text><text x="308.3" y="409.6" class="node" fill="#D3446C">0.01</text><text x="333.4" y="419" class="node" fill="#D3446C">0.01</text><text x="258.1" y="447.3" class="node" fill="#D3446C">0.01</text><text x="283.2" y="456.8" class="node" fill="#D85778">0.06</text><text x="132.5" y="529.5" class="node" fill="#E6B1BB">0.34</text><text x="182.7" y="60.3" class="node" fill="#929FE1">0.79</text><text x="132.5" y="22.6" class="node" fill="#4A6FE3">1</text><text x="132.5" y="35.2" class="node" fill="#4A6FE3">1</text><text x="57.2" y="10" class="node" fill="#4A6FE3">1</text><text x="7" y="423.8" class="node" fill="#4A6FE3">1</text><text x="32.1" y="200.5" class="node" fill="#4A6FE3">1</text><text x="57.2" y="391" class="node" fill="#4A6FE3">1</text><text x="82.3" y="174.1" class="node" fill="#4A6FE3">1</text></svg>
