<svg xmlns="http://www.w3.org/2000/svg" version="1.1" width="682" height="682" class="tree" data-char="4"><text x="678" y="15.4" text-anchor="end" class="stepsLabel">Character adds <tspan class="score">6</tspan> to tree score</text><text x="678" y="27.8" text-anchor="end" class="stepsLabel"><tspan class="score">0</tspan> additional regions</text><text x="678" y="40.2" text-anchor="end" class="stepsLabel">CI = 0.5; Fitch CI = 0.5; Fitch RI = 0</text><text x="678" y="65" text-anchor="end" class="stepsLabel"><tspan dy="16" fill="#34caaf">An optimal tree under:</tspan><tspan x="680" style="font-style:italic" class="notThisAn" dy="1.2em">Equal weights</tspan><tspan x="680" style="font-style:italic" class="notThisAn" dy="1.2em">Implied weights, k = 3</tspan><tspan x="680" style="font-style:italic" class="notThisAn" dy="1.2em">IW, k = 4.5</tspan><tspan x="680" style="font-style:italic" class="notThisAn" dy="1.2em">IW, k = 7</tspan><tspan x="680" style="font-style:italic" class="thisAn" dy="1.2em">IW, k = 10.5</tspan><tspan x="680" style="font-style:italic" class="thisAn" dy="1.2em">IW, k = 16</tspan><tspan x="680" style="font-style:italic" class="thisAn" dy="1.2em">IW, k = 24</tspan></text><text x="91.7" y="664.4" fill="lightgrey" class="flag">[-]</text><text x="113.7" y="664.4" fill="#ccc" class="taxonLabel">Tonicella</text><text x="91.7" y="677" fill="lightgrey" class="flag">[-]</text><text x="113.7" y="677" fill="#ccc" class="taxonLabel">Dentalium</text><text x="70" y="651.8" fill="grey" class="flag">[?]</text><text x="92" y="651.8" fill="#999" class="taxonLabel">Wiwaxia corrugata</text><text x="70" y="626.7" fill="lightgrey" class="flag">[-]</text><text x="92" y="626.7" fill="#ccc" class="taxonLabel">Sipunculus</text><text x="70" y="639.2" fill="lightgrey" class="flag">[-]</text><text x="92" y="639.2" fill="#ccc" class="taxonLabel">Serpula</text><text x="91.7" y="601.5" fill="lightgrey" class="flag">[-]</text><text x="113.7" y="601.5" fill="#ccc" class="taxonLabel">Amathia</text><text x="91.7" y="614.1" fill="lightgrey" class="flag">[-]</text><text x="113.7" y="614.1" fill="#ccc" class="taxonLabel">Flustra</text><text x="308.5" y="576.3" fill="grey" class="flag">[?]</text><text x="330.5" y="576.3" fill="#999" class="taxonLabel">Mickwitzia muralensis</text><text x="308.5" y="588.9" fill="grey" class="flag">[?]</text><text x="330.5" y="588.9" fill="#999" class="taxonLabel">Heliomedusa orienta</text><text x="286.9" y="563.7" fill="#fdae61" class="flag">[1]</text><text x="308.9" y="563.7" fill="#000" class="taxonLabel">Micrina</text><text x="395.3" y="538.6" fill="lightgrey" class="flag">[-]</text><text x="417.3" y="538.6" fill="#ccc" class="taxonLabel">Nisusia sulcata</text><text x="395.3" y="551.2" fill="lightgrey" class="flag">[-]</text><text x="417.3" y="551.2" fill="#ccc" class="taxonLabel">Kutorgina chengjiangensis</text><text x="482" y="513.4" fill="lightgrey" class="flag">[-]</text><text x="504" y="513.4" fill="#ccc" class="taxonLabel">Terebratulina</text><text x="482" y="526" fill="lightgrey" class="flag">[-]</text><text x="504" y="526" fill="#ccc" class="taxonLabel">Orthis</text><text x="460.3" y="500.8" fill="lightgrey" class="flag">[-]</text><text x="482.3" y="500.8" fill="#ccc" class="taxonLabel">Alisina</text><text x="438.6" y="488.2" fill="grey" class="flag">[?]</text><text x="460.6" y="488.2" fill="#999" class="taxonLabel">Longtancunella chengjiangensis</text><text x="417" y="475.6" fill="lightgrey" class="flag">[-]</text><text x="439" y="475.6" fill="#ccc" class="taxonLabel">Glyptoria</text><text x="395.3" y="463.1" fill="lightgrey" class="flag">[-]</text><text x="417.3" y="463.1" fill="#ccc" class="taxonLabel">Tomteluva perturbata</text><text x="373.6" y="437.9" fill="#fdae61" class="flag">[1]</text><text x="395.6" y="437.9" fill="#000" class="taxonLabel">Antigonambonites planus</text><text x="373.6" y="450.5" fill="#fdae61" class="flag">[1]</text><text x="395.6" y="450.5" fill="#000" class="taxonLabel">Coolinia pecten</text><text x="330.2" y="425.3" fill="#fdae61" class="flag">[1]</text><text x="352.2" y="425.3" fill="#000" class="taxonLabel">Salanygolina</text><text x="330.2" y="400.1" fill="#2c7bb6" class="flag">[4]</text><text x="352.2" y="400.1" fill="#000" class="taxonLabel">Micromitra</text><text x="330.2" y="412.7" fill="#abd9e9" class="flag">[3]</text><text x="352.2" y="412.7" fill="#000" class="taxonLabel">Askepasma toddense</text><text x="482" y="375" fill="grey" class="flag">[?]</text><text x="504" y="375" fill="#999" class="taxonLabel">Acanthotretella spinosa</text><text x="482" y="387.5" fill="#fdae61" class="flag">[1]</text><text x="504" y="387.5" fill="#000" class="taxonLabel">Siphonobolus priscus</text><text x="460.3" y="362.4" fill="grey" class="flag">[?]</text><text x="482.3" y="362.4" fill="#999" class="taxonLabel">Lingulosacculus</text><text x="438.6" y="349.8" fill="#e2e2a2" class="flag">[2]</text><text x="460.6" y="349.8" fill="#000" class="taxonLabel">Clupeafumosus socialis</text><text x="417" y="337.2" fill="#fdae61" class="flag">[1]</text><text x="439" y="337.2" fill="#000" class="taxonLabel">Lingulellotreta malongensis</text><text x="417" y="312" fill="grey" class="flag">[?]</text><text x="439" y="312" fill="#999" class="taxonLabel">Mummpikia nuda</text><text x="417" y="324.6" fill="#fdae61" class="flag">[1]</text><text x="439" y="324.6" fill="#000" class="taxonLabel">Pelagodiscus atlanticus</text><text x="373.6" y="299.5" fill="#e2e2a2" class="flag">[2]</text><text x="395.6" y="299.5" fill="#000" class="taxonLabel">Botsfordia</text><text x="351.9" y="286.9" fill="#e2e2a2" class="flag">[2]</text><text x="373.9" y="286.9" fill="#000" class="taxonLabel">Eoobolus</text><text x="330.2" y="274.3" fill="#fdae61" class="flag">[1]</text><text x="352.2" y="274.3" fill="#000" class="taxonLabel">Lingula</text><text x="373.6" y="249.1" fill="lightgrey" class="flag">[-]</text><text x="395.6" y="249.1" fill="#ccc" class="taxonLabel">Novocrania</text><text x="373.6" y="261.7" fill="#fdae61" class="flag">[1]</text><text x="395.6" y="261.7" fill="#000" class="taxonLabel">Craniops</text><text x="351.9" y="236.5" fill="grey" class="flag">[?]</text><text x="373.9" y="236.5" fill="#999" class="taxonLabel">Ussunia</text><text x="330.2" y="223.9" fill="grey" class="flag">[?]</text><text x="352.2" y="223.9" fill="#999" class="taxonLabel">Gasconsia</text><text x="243.5" y="211.4" fill="grey" class="flag">[?]</text><text x="265.5" y="211.4" fill="#999" class="taxonLabel">Yuganotheca elegans</text><text x="330.2" y="186.2" fill="#fdae61" class="flag">[1]</text><text x="352.2" y="186.2" fill="#000" class="taxonLabel">Pauxillites</text><text x="330.2" y="198.8" fill="grey" class="flag">[?]</text><text x="352.2" y="198.8" fill="#999" class="taxonLabel">Maxilites</text><text x="308.5" y="173.6" fill="#fdae61" class="flag">[1]</text><text x="330.5" y="173.6" fill="#000" class="taxonLabel">Haplophrentis carinatus</text><text x="286.9" y="161" fill="grey" class="flag">[?]</text><text x="308.9" y="161" fill="#999" class="taxonLabel">Paramicrocornus</text><text x="308.5" y="135.8" fill="#fdae61" class="flag">[1]</text><text x="330.5" y="135.8" fill="#000" class="taxonLabel">Bactrotheca</text><text x="308.5" y="148.4" fill="#fdae61" class="flag">[1]</text><text x="330.5" y="148.4" fill="#000" class="taxonLabel">Conotheca</text><text x="286.9" y="123.3" fill="#fdae61" class="flag">[1]</text><text x="308.9" y="123.3" fill="#000" class="taxonLabel">Cupitheca holocyclata</text><text x="243.5" y="110.7" fill="#fdae61" class="flag">[1]</text><text x="265.5" y="110.7" fill="#000" class="taxonLabel">Pedunculotheca diania</text><text x="200.1" y="98.1" fill="#abd9e9" class="flag">[3]</text><text x="222.1" y="98.1" fill="#000" class="taxonLabel">Paterimitra</text><text x="178.5" y="85.5" fill="grey" class="flag">[?]</text><text x="200.5" y="85.5" fill="#999" class="taxonLabel">Halkieria evangelista</text><text x="156.8" y="72.9" fill="lightgrey" class="flag">[-]</text><text x="178.8" y="72.9" fill="#ccc" class="taxonLabel">Dailyatia</text><text x="156.8" y="47.8" fill="grey" class="flag">[?]</text><text x="178.8" y="47.8" fill="#999" class="taxonLabel">Cotyledion tylodes</text><text x="156.8" y="60.3" fill="grey" class="flag">[?]</text><text x="178.8" y="60.3" fill="#999" class="taxonLabel">Eccentrotheca</text><text x="113.4" y="35.2" fill="lightgrey" class="flag">[-]</text><text x="135.4" y="35.2" fill="#ccc" class="taxonLabel">Phoronis</text><text x="91.7" y="22.6" fill="grey" class="flag">[?]</text><text x="113.7" y="22.6" fill="#999" class="taxonLabel">Namacalathus</text><text x="48.4" y="10" fill="lightgrey" class="flag">[-]</text><text x="70.4" y="10" fill="#ccc" class="taxonLabel">Loxosomella</text><path d="M5,403.9V163.8H26.7M26.7,163.8V7H48.4M26.7,163.8V320.5H48.4M48.4,320.5V36.3H70M70,36.3V19.6H91.7M70,36.3V52.9H91.7M91.7,52.9V32.2H113.4M91.7,52.9V73.7H113.4M113.4,73.7V51H135.1M135.1,51V44.8H156.8M135.1,51V57.3H156.8M113.4,73.7V96.3H135.1M135.1,96.3V69.9H156.8M351.9,252.4V246.1H373.6M330.2,474.1V507.1H351.9M351.9,507.1V472.2H373.6M373.6,472.2V460.1H395.3M373.6,472.2V484.4H395.3M395.3,484.4V472.6H417M395.3,484.4V496.2H417M417,496.2V485.2H438.6M417,496.2V507.3H438.6M438.6,507.3V497.8H460.3M438.6,507.3V516.7H460.3M460.3,516.7V510.4H482M460.3,516.7V523H482M351.9,507.1V541.9H373.6M373.6,541.9V535.6H395.3M373.6,541.9V548.2H395.3M48.4,320.5V604.8H70M70,604.8V598.5H91.7M70,604.8V611.1H91.7M5,403.9V644.1H26.7M26.7,644.1V630H48.4M48.4,630V623.7H70M48.4,630V636.2H70M26.7,644.1V658.3H48.4M48.4,658.3V648.8H70M48.4,658.3V667.7H70M70,667.7V661.4H91.7M70,667.7V674H91.7" stroke="lightgrey" class="inapplicable"></path><path d="M135.1,96.3V122.6H156.8M156.8,122.6V82.5H178.5M156.8,122.6V162.7H178.5M330.2,298.7V313.6H351.9" stroke="darkgrey"></path><path d="M178.5,162.7V95.1H200.1M308.5,403.4V409.7H330.2" stroke="#abd9e9"></path><path d="M178.5,162.7V230.4H200.1M200.1,230.4V128.5H221.8M221.8,128.5V107.7H243.5M221.8,128.5V149.4H243.5M243.5,149.4V129.7H265.2M265.2,129.7V120.3H286.9M265.2,129.7V139.1H286.9M286.9,139.1V132.8H308.5M286.9,139.1V145.4H308.5M243.5,149.4V169H265.2M265.2,169V158H286.9M265.2,169V180H286.9M286.9,180V170.6H308.5M286.9,180V189.5H308.5M308.5,189.5V183.2H330.2M308.5,189.5V195.8H330.2M200.1,230.4V332.3H221.8M221.8,332.3V208.4H243.5M221.8,332.3V456.2H243.5M243.5,456.2V342.1H265.2M265.2,342.1V258.5H286.9M286.9,258.5V232H308.5M308.5,232V220.9H330.2M308.5,232V243H330.2M330.2,243V233.5H351.9M330.2,243V252.4H351.9M351.9,252.4V258.7H373.6M286.9,258.5V285H308.5M308.5,285V271.3H330.2M308.5,285V298.7H330.2M351.9,313.6V330.7H373.6M373.6,330.7V315.3H395.3M395.3,315.3V309H417M395.3,315.3V321.6H417M373.6,330.7V346H395.3M395.3,346V334.2H417M395.3,346V357.8H417M417,357.8V368.8H438.6M438.6,368.8V359.4H460.3M438.6,368.8V378.3H460.3M460.3,378.3V372H482M460.3,378.3V384.5H482M265.2,342.1V425.8H286.9M286.9,425.8V403.4H308.5M286.9,425.8V448.2H308.5M308.5,448.2V422.3H330.2M308.5,448.2V474.1H330.2M330.2,474.1V441.2H351.9M351.9,441.2V434.9H373.6M351.9,441.2V447.5H373.6M243.5,456.2V570.2H265.2M265.2,570.2V560.7H286.9M265.2,570.2V579.6H286.9M286.9,579.6V573.3H308.5M286.9,579.6V585.9H308.5" stroke="#fdae61"></path><path d="M330.2,298.7V283.9H351.9M351.9,313.6V296.5H373.6M417,357.8V346.8H438.6" stroke="#e2e2a2"></path><path d="M308.5,403.4V397.1H330.2" stroke="#2c7bb6"></path><text x="28.7" y="166.8" class="node" fill="#4A6FE3">1</text><text x="50.4" y="323.5" class="node" fill="#4A6FE3">1</text><text x="72" y="39.3" class="node" fill="red">NA</text><text x="93.7" y="55.9" class="node" fill="red">NA</text><text x="115.4" y="76.7" class="node" fill="red">NA</text><text x="137.1" y="54" class="node" fill="red">NA</text><text x="137.1" y="99.3" class="node" fill="red">NA</text><text x="158.8" y="125.6" class="node" fill="#E5A5B1">0.3</text><text x="180.5" y="165.7" class="node" fill="red">NA</text><text x="202.1" y="233.4" class="node" fill="red">NA</text><text x="223.8" y="131.5" class="node" fill="red">NA</text><text x="245.5" y="152.4" class="node" fill="red">NA</text><text x="267.2" y="132.7" class="node" fill="red">NA</text><text x="288.9" y="142.1" class="node" fill="red">NA</text><text x="267.2" y="172" class="node" fill="#5F7BE1">0.95</text><text x="288.9" y="183" class="node" fill="#4A6FE3">1</text><text x="310.5" y="192.5" class="node" fill="red">NA</text><text x="223.8" y="335.3" class="node" fill="red">NA</text><text x="245.5" y="459.2" class="node" fill="red">NA</text><text x="267.2" y="345.1" class="node" fill="red">NA</text><text x="288.9" y="261.5" class="node" fill="red">NA</text><text x="310.5" y="235" class="node" fill="red">NA</text><text x="332.2" y="246" class="node" fill="red">NA</text><text x="353.9" y="255.4" class="node" fill="red">NA</text><text x="310.5" y="288" class="node" fill="red">NA</text><text x="332.2" y="301.7" class="node" fill="red">NA</text><text x="353.9" y="316.6" class="node" fill="red">NA</text><text x="375.6" y="333.7" class="node" fill="red">NA</text><text x="397.3" y="318.3" class="node" fill="red">NA</text><text x="397.3" y="349" class="node" fill="red">NA</text><text x="419" y="360.8" class="node" fill="red">NA</text><text x="440.6" y="371.8" class="node" fill="red">NA</text><text x="462.3" y="381.3" class="node" fill="red">NA</text><text x="288.9" y="428.8" class="node" fill="red">NA</text><text x="310.5" y="406.4" class="node" fill="red">NA</text><text x="310.5" y="451.2" class="node" fill="red">NA</text><text x="332.2" y="477.1" class="node" fill="red">NA</text><text x="353.9" y="444.2" class="node" fill="red">NA</text><text x="353.9" y="510.1" class="node" fill="red">NA</text><text x="375.6" y="475.2" class="node" fill="#4A6FE3">1</text><text x="397.3" y="487.4" class="node" fill="red">NA</text><text x="419" y="499.2" class="node" fill="red">NA</text><text x="440.6" y="510.3" class="node" fill="red">NA</text><text x="462.3" y="519.7" class="node" fill="red">NA</text><text x="375.6" y="544.9" class="node" fill="red">NA</text><text x="267.2" y="573.2" class="node" fill="red">NA</text><text x="288.9" y="582.6" class="node" fill="red">NA</text><text x="72" y="607.8" class="node" fill="#5F7BE1">0.95</text><text x="28.7" y="647.1" class="node" fill="#5F7BE1">0.95</text><text x="50.4" y="633" class="node" fill="#4A6FE3">1</text><text x="50.4" y="661.3" class="node" fill="red">NA</text><text x="72" y="670.7" class="node" fill="red">NA</text></svg>
