<svg xmlns="http://www.w3.org/2000/svg" version="1.1" width="682" height="612" class="tree" data-char="72"><text x="678" y="16" text-anchor="end" class="stepsLabel">Character adds <tspan class="score">1</tspan> to tree score</text><text x="678" y="29" text-anchor="end" class="stepsLabel"><tspan class="score">0</tspan> additional regions</text><text x="678" y="42" text-anchor="end" class="stepsLabel">CI = 1; Fitch CI = 1; Fitch RI = 1</text><text x="678" y="68" text-anchor="end" class="stepsLabel"><tspan dy="16">An optimal tree under:</tspan><tspan x="680" style="font-style:italic" class="thisAn" dy="1.2em">Equal weights</tspan><tspan x="680" style="font-style:italic" class="notThisAn" dy="1.2em">Implied weights, k = 2</tspan><tspan x="680" style="font-style:italic" class="notThisAn" dy="1.2em">IW, k = 3</tspan><tspan x="680" style="font-style:italic" class="notThisAn" dy="1.2em">IW, k = 4.5</tspan><tspan x="680" style="font-style:italic" class="notThisAn" dy="1.2em">IW, k = 7</tspan><tspan x="680" style="font-style:italic" class="notThisAn" dy="1.2em">IW, k = 10.5</tspan></text><text x="100.4" y="593.7" fill="#fc8d59" class="flag">[0]</text><text x="122.4" y="593.7" fill="#111" class="taxonLabel">Tonicella</text><text x="100.4" y="607" fill="#fc8d59" class="flag">[0]</text><text x="122.4" y="607" fill="#111" class="taxonLabel">Wiwaxia corrugata</text><text x="76.6" y="580.5" fill="#fc8d59" class="flag">[0]</text><text x="98.6" y="580.5" fill="#111" class="taxonLabel">Dentalium</text><text x="76.6" y="553.9" fill="#fc8d59" class="flag">[0]</text><text x="98.6" y="553.9" fill="#111" class="taxonLabel">Serpula</text><text x="76.6" y="567.2" fill="#fc8d59" class="flag">[0]</text><text x="98.6" y="567.2" fill="#111" class="taxonLabel">Sipunculus</text><text x="458.2" y="461.1" fill="grey" class="flag">[?]</text><text x="480.2" y="461.1" fill="grey" class="taxonLabel">Acanthotretella spinosa</text><text x="458.2" y="474.3" fill="grey" class="flag">[?]</text><text x="480.2" y="474.3" fill="grey" class="taxonLabel">Siphonobolus priscus</text><text x="434.3" y="447.8" fill="#fc8d59" class="flag">[0]</text><text x="456.3" y="447.8" fill="#111" class="taxonLabel">Clupeafumosus socialis</text><text x="410.5" y="434.5" fill="grey" class="flag">[?]</text><text x="432.5" y="434.5" fill="grey" class="taxonLabel">Lingulosacculus</text><text x="386.6" y="421.3" fill="#fc8d59" class="flag">[0]</text><text x="408.6" y="421.3" fill="#111" class="taxonLabel">Lingulellotreta malongensis</text><text x="362.8" y="408" fill="#fc8d59" class="flag">[0]</text><text x="384.8" y="408" fill="#111" class="taxonLabel">Botsfordia</text><text x="338.9" y="394.7" fill="grey" class="flag">[?]</text><text x="360.9" y="394.7" fill="grey" class="taxonLabel">Mummpikia nuda</text><text x="315.1" y="381.5" fill="#fc8d59" class="flag">[0]</text><text x="337.1" y="381.5" fill="#111" class="taxonLabel">Eoobolus</text><text x="291.2" y="368.2" fill="#fc8d59" class="flag">[0]</text><text x="313.2" y="368.2" fill="#111" class="taxonLabel">Lingula</text><text x="315.1" y="341.7" fill="#fc8d59" class="flag">[0]</text><text x="337.1" y="341.7" fill="#111" class="taxonLabel">Pelagodiscus atlanticus</text><text x="315.1" y="354.9" fill="#fc8d59" class="flag">[0]</text><text x="337.1" y="354.9" fill="#111" class="taxonLabel">Mickwitzia muralensis</text><text x="291.2" y="328.4" fill="grey" class="flag">[?]</text><text x="313.2" y="328.4" fill="grey" class="taxonLabel">Micrina</text><text x="315.1" y="301.9" fill="#fc8d59" class="flag">[0]</text><text x="337.1" y="301.9" fill="#111" class="taxonLabel">Askepasma toddense</text><text x="315.1" y="315.1" fill="grey" class="flag">[?]</text><text x="337.1" y="315.1" fill="grey" class="taxonLabel">Micromitra</text><text x="386.6" y="275.3" fill="#fc8d59" class="flag">[0]</text><text x="408.6" y="275.3" fill="#111" class="taxonLabel">Coolinia pecten</text><text x="386.6" y="288.6" fill="grey" class="flag">[?]</text><text x="408.6" y="288.6" fill="grey" class="taxonLabel">Antigonambonites planus</text><text x="482" y="248.8" fill="#fc8d59" class="flag">[0]</text><text x="504" y="248.8" fill="#111" class="taxonLabel">Terebratulina</text><text x="482" y="262.1" fill="#fc8d59" class="flag">[0]</text><text x="504" y="262.1" fill="#111" class="taxonLabel">Alisina</text><text x="458.2" y="235.5" fill="#fc8d59" class="flag">[0]</text><text x="480.2" y="235.5" fill="#111" class="taxonLabel">Orthis</text><text x="434.3" y="222.3" fill="#fc8d59" class="flag">[0]</text><text x="456.3" y="222.3" fill="#111" class="taxonLabel">Glyptoria</text><text x="410.5" y="209" fill="#fc8d59" class="flag">[0]</text><text x="432.5" y="209" fill="#111" class="taxonLabel">Nisusia sulcata</text><text x="386.6" y="195.7" fill="#fc8d59" class="flag">[0]</text><text x="408.6" y="195.7" fill="#111" class="taxonLabel">Kutorgina chengjiangensis</text><text x="338.9" y="182.5" fill="grey" class="flag">[?]</text><text x="360.9" y="182.5" fill="grey" class="taxonLabel">Longtancunella chengjiangensis</text><text x="362.8" y="155.9" fill="grey" class="flag">[?]</text><text x="384.8" y="155.9" fill="grey" class="taxonLabel">Yuganotheca elegans</text><text x="362.8" y="169.2" fill="grey" class="flag">[?]</text><text x="384.8" y="169.2" fill="grey" class="taxonLabel">Tomteluva perturbata</text><text x="338.9" y="142.7" fill="#fc8d59" class="flag">[0]</text><text x="360.9" y="142.7" fill="#111" class="taxonLabel">Salanygolina</text><text x="338.9" y="116.1" fill="#91bfdb" class="flag">[1]</text><text x="360.9" y="116.1" fill="#111" class="taxonLabel">Novocrania</text><text x="338.9" y="129.4" fill="#91bfdb" class="flag">[1]</text><text x="360.9" y="129.4" fill="#111" class="taxonLabel">Craniops</text><text x="315.1" y="102.9" fill="#91bfdb" class="flag">[1]</text><text x="337.1" y="102.9" fill="#111" class="taxonLabel">Ussunia</text><text x="291.2" y="89.6" fill="#fc8d59" class="flag">[0]</text><text x="313.2" y="89.6" fill="#111" class="taxonLabel">Gasconsia</text><text x="267.4" y="63.1" fill="grey" class="flag">[?]</text><text x="289.4" y="63.1" fill="grey" class="taxonLabel">Pedunculotheca diania</text><text x="267.4" y="76.3" fill="grey" class="flag">[?]</text><text x="289.4" y="76.3" fill="grey" class="taxonLabel">Haplophrentis carinatus</text><text x="243.5" y="49.8" fill="grey" class="flag">[?]</text><text x="265.5" y="49.8" fill="grey" class="taxonLabel">Paterimitra</text><text x="195.8" y="36.5" fill="grey" class="flag">[?]</text><text x="217.8" y="36.5" fill="grey" class="taxonLabel">Heliomedusa orienta</text><text x="195.8" y="10" fill="lightgrey" class="flag">[-]</text><text x="217.8" y="10" fill="lightgrey" class="taxonLabel">Dailyatia</text><text x="195.8" y="23.3" fill="#fc8d59" class="flag">[0]</text><text x="217.8" y="23.3" fill="#111" class="taxonLabel">Halkieria evangelista</text><text x="148.1" y="487.6" fill="lightgrey" class="flag">[-]</text><text x="170.1" y="487.6" fill="lightgrey" class="taxonLabel">Eccentrotheca</text><text x="124.2" y="500.9" fill="#fc8d59" class="flag">[0]</text><text x="146.2" y="500.9" fill="#111" class="taxonLabel">Cotyledion tylodes</text><text x="100.4" y="514.1" fill="lightgrey" class="flag">[-]</text><text x="122.4" y="514.1" fill="lightgrey" class="taxonLabel">Phoronis</text><text x="76.6" y="527.4" fill="#fc8d59" class="flag">[0]</text><text x="98.6" y="527.4" fill="#111" class="taxonLabel">Flustra</text><text x="52.7" y="540.7" fill="#fc8d59" class="flag">[0]</text><text x="74.7" y="540.7" fill="#111" class="taxonLabel">Loxosomella</text><path d="M5,542.2V511.8H28.9M28.9,511.8V486H52.7M52.7,486V447.5H76.6M76.6,447.5V383.9H100.4M100.4,383.9V269.9H124.2M124.2,269.9V55.3H148.1M148.1,55.3V13.6H172M172,13.6V20.3H195.8M148.1,55.3V96.9H172M172,96.9V33.5H195.8M172,96.9V160.2H195.8M195.8,160.2V56.8H219.7M219.7,56.8V46.8H243.5M219.7,56.8V66.7H243.5M243.5,66.7V60.1H267.4M243.5,66.7V73.3H267.4M195.8,160.2V263.7H219.7M219.7,263.7V170.5H243.5M243.5,170.5V98.2H267.4M267.4,98.2V86.6H291.2M243.5,170.5V242.9H267.4M267.4,242.9V180.2H291.2M291.2,180.2V149.6H315.1M315.1,149.6V139.7H338.9M315.1,149.6V159.6H338.9M338.9,159.6V152.9H362.8M338.9,159.6V166.2H362.8M291.2,180.2V210.9H315.1M315.1,210.9V179.5H338.9M315.1,210.9V242.3H338.9M338.9,242.3V205.6H362.8M362.8,205.6V192.7H386.6M362.8,205.6V218.4H386.6M386.6,218.4V206H410.5M386.6,218.4V230.9H410.5M410.5,230.9V219.3H434.3M410.5,230.9V242.5H434.3M434.3,242.5V232.5H458.2M434.3,242.5V252.4H458.2M458.2,252.4V245.8H482M458.2,252.4V259.1H482M338.9,242.3V279H362.8M362.8,279V272.3H386.6M362.8,279V285.6H386.6M267.4,242.9V305.5H291.2M291.2,305.5V298.9H315.1M291.2,305.5V312.1H315.1M219.7,263.7V356.9H243.5M243.5,356.9V335.4H267.4M267.4,335.4V325.4H291.2M267.4,335.4V345.3H291.2M291.2,345.3V338.7H315.1M291.2,345.3V351.9H315.1M243.5,356.9V378.4H267.4M267.4,378.4V365.2H291.2M267.4,378.4V391.6H291.2M291.2,391.6V378.5H315.1M291.2,391.6V404.8H315.1M315.1,404.8V391.7H338.9M315.1,404.8V417.9H338.9M338.9,417.9V405H362.8M338.9,417.9V430.7H362.8M362.8,430.7V418.3H386.6M362.8,430.7V443.1H386.6M386.6,443.1V431.5H410.5M386.6,443.1V454.8H410.5M410.5,454.8V444.8H434.3M410.5,454.8V464.7H434.3M434.3,464.7V458.1H458.2M434.3,464.7V471.3H458.2M100.4,383.9V497.9H124.2M52.7,486V524.4H76.6M28.9,511.8V537.7H52.7M5,542.2V572.5H28.9M28.9,572.5V557.6H52.7M52.7,557.6V550.9H76.6M52.7,557.6V564.2H76.6M28.9,572.5V587.4H52.7M52.7,587.4V577.5H76.6M52.7,587.4V597.4H76.6M76.6,597.4V590.7H100.4M76.6,597.4V604H100.4" stroke="#fc8d59"></path><path d="M172,13.6V7H195.8M124.2,269.9V484.6H148.1M76.6,447.5V511.1H100.4" stroke="lightgrey" class="inapplicable"></path><path d="M267.4,98.2V109.8H291.2M291.2,109.8V99.9H315.1M291.2,109.8V119.8H315.1M315.1,119.8V113.1H338.9M315.1,119.8V126.4H338.9" stroke="#91bfdb"></path><text x="7" y="545.2" class="node" fill="#4A6FE3">1</text><text x="30.9" y="514.8" class="node" fill="#9DA8E2">0.75</text><text x="54.7" y="489" class="node" fill="#9DA8E2">0.75</text><text x="78.6" y="450.5" class="node" fill="#9DA8E2">0.75</text><text x="102.4" y="386.9" class="node" fill="#9DA8E2">0.75</text><text x="126.2" y="272.9" class="node" fill="#E392A2">0.24</text><text x="150.1" y="58.3" class="node" fill="#B6BDE3">0.66</text><text x="174" y="16.6" class="node" fill="#6D84E1">0.91</text><text x="174" y="99.9" class="node" fill="#4A6FE3">1</text><text x="197.8" y="163.2" class="node" fill="#5B78E2">0.96</text><text x="221.7" y="59.8" class="node" fill="#A0ABE2">0.74</text><text x="245.5" y="69.7" class="node" fill="#4A6FE3">1</text><text x="221.7" y="266.7" class="node" fill="#5B78E2">0.96</text><text x="245.5" y="173.5" class="node" fill="#4A6FE3">1</text><text x="269.4" y="101.2" class="node" fill="#4A6FE3">1</text><text x="293.2" y="112.8" class="node" fill="#4A6FE3">1</text><text x="317.1" y="122.8" class="node" fill="#4A6FE3">1</text><text x="269.4" y="245.9" class="node" fill="#8998E1">0.82</text><text x="293.2" y="183.2" class="node" fill="#5B78E2">0.96</text><text x="317.1" y="152.6" class="node" fill="#B1B8E2">0.68</text><text x="340.9" y="162.6" class="node" fill="#5F7BE1">0.95</text><text x="317.1" y="213.9" class="node" fill="#4A6FE3">1</text><text x="340.9" y="245.3" class="node" fill="#E6C4C9">0.4</text><text x="364.8" y="208.6" class="node" fill="#E6C4C9">0.4</text><text x="388.6" y="221.4" class="node" fill="#E6C4C9">0.4</text><text x="412.5" y="233.9" class="node" fill="#E6C4C9">0.4</text><text x="436.3" y="245.5" class="node" fill="#4A6FE3">1</text><text x="460.2" y="255.4" class="node" fill="#DF798F">0.16</text><text x="364.8" y="282" class="node" fill="#4A6FE3">1</text><text x="293.2" y="308.5" class="node" fill="#4A6FE3">1</text><text x="245.5" y="359.9" class="node" fill="#A0ABE2">0.74</text><text x="269.4" y="338.4" class="node" fill="#A0ABE2">0.74</text><text x="293.2" y="348.3" class="node" fill="#9DA8E2">0.75</text><text x="269.4" y="381.4" class="node" fill="#9DA8E2">0.75</text><text x="293.2" y="394.6" class="node" fill="#9DA8E2">0.75</text><text x="317.1" y="407.8" class="node" fill="#A0ABE2">0.74</text><text x="340.9" y="420.9" class="node" fill="#A0ABE2">0.74</text><text x="364.8" y="433.7" class="node" fill="#A0ABE2">0.74</text><text x="388.6" y="446.1" class="node" fill="#E6BDC5">0.38</text><text x="412.5" y="457.8" class="node" fill="#DADBE3">0.53</text><text x="436.3" y="467.7" class="node" fill="#4A6FE3">1</text><text x="30.9" y="575.5" class="node" fill="#9DA8E2">0.75</text><text x="54.7" y="560.6" class="node" fill="#4A6FE3">1</text><text x="54.7" y="590.4" class="node" fill="#9DA8E2">0.75</text><text x="78.6" y="600.4" class="node" fill="#9DA8E2">0.75</text></svg>
