<svg xmlns="http://www.w3.org/2000/svg" version="1.1" width="682" height="612" class="tree" data-char="61"><text x="678" y="15.7" text-anchor="end" class="stepsLabel">Character adds <tspan class="score">2</tspan> to tree score</text><text x="678" y="28.4" text-anchor="end" class="stepsLabel"><tspan class="score">0</tspan> additional regions</text><text x="678" y="41.1" text-anchor="end" class="stepsLabel">CI = 0.5; Fitch CI = 0.5; Fitch RI = 0</text><text x="678" y="66.5" text-anchor="end" class="stepsLabel"><tspan dy="16">An optimal tree under:</tspan><tspan x="680" style="font-style:italic" class="notThisAn" dy="1.2em">Equal weights</tspan><tspan x="680" style="font-style:italic" class="notThisAn" dy="1.2em">Implied weights, k = 2</tspan><tspan x="680" style="font-style:italic" class="notThisAn" dy="1.2em">IW, k = 3</tspan><tspan x="680" style="font-style:italic" class="notThisAn" dy="1.2em">IW, k = 4.5</tspan><tspan x="680" style="font-style:italic" class="notThisAn" dy="1.2em">IW, k = 7</tspan><tspan x="680" style="font-style:italic" class="notThisAn" dy="1.2em">IW, k = 10.5</tspan><tspan x="680" style="font-style:italic" class="notThisAn" dy="1.2em">IW, k = 16</tspan><tspan x="680" style="font-style:italic" class="thisAn" dy="1.2em">IW, k = 24</tspan></text><text x="88" y="594" fill="#fc8d59" class="flag">[0]</text><text x="110" y="594" fill="#000" class="taxonLabel">Tonicella</text><text x="88" y="607" fill="#fc8d59" class="flag">[0]</text><text x="110" y="607" fill="#000" class="taxonLabel">Dentalium</text><text x="67.2" y="581" fill="#fc8d59" class="flag">[0]</text><text x="89.2" y="581" fill="#000" class="taxonLabel">Wiwaxia corrugata</text><text x="67.2" y="555.1" fill="#fc8d59" class="flag">[0]</text><text x="89.2" y="555.1" fill="#000" class="taxonLabel">Sipunculus</text><text x="67.2" y="568.1" fill="#fc8d59" class="flag">[0]</text><text x="89.2" y="568.1" fill="#000" class="taxonLabel">Serpula</text><text x="378.3" y="516.2" fill="#fc8d59" class="flag">[0]</text><text x="400.3" y="516.2" fill="#000" class="taxonLabel">Novocrania</text><text x="378.3" y="529.1" fill="#fc8d59" class="flag">[0]</text><text x="400.3" y="529.1" fill="#000" class="taxonLabel">Craniops</text><text x="357.6" y="503.2" fill="#fc8d59" class="flag">[0]</text><text x="379.6" y="503.2" fill="#000" class="taxonLabel">Ussunia</text><text x="336.8" y="490.2" fill="#fc8d59" class="flag">[0]</text><text x="358.8" y="490.2" fill="#000" class="taxonLabel">Heliomedusa orienta</text><text x="316.1" y="477.2" fill="#fc8d59" class="flag">[0]</text><text x="338.1" y="477.2" fill="#000" class="taxonLabel">Gasconsia</text><text x="482" y="451.3" fill="#fc8d59" class="flag">[0]</text><text x="504" y="451.3" fill="#000" class="taxonLabel">Terebratulina</text><text x="482" y="464.2" fill="#fc8d59" class="flag">[0]</text><text x="504" y="464.2" fill="#000" class="taxonLabel">Orthis</text><text x="461.3" y="438.3" fill="#fc8d59" class="flag">[0]</text><text x="483.3" y="438.3" fill="#000" class="taxonLabel">Alisina</text><text x="440.5" y="425.3" fill="#fc8d59" class="flag">[0]</text><text x="462.5" y="425.3" fill="#000" class="taxonLabel">Longtancunella chengjiangensis</text><text x="419.8" y="412.3" fill="#fc8d59" class="flag">[0]</text><text x="441.8" y="412.3" fill="#000" class="taxonLabel">Glyptoria</text><text x="399" y="399.3" fill="#fc8d59" class="flag">[0]</text><text x="421" y="399.3" fill="#000" class="taxonLabel">Nisusia sulcata</text><text x="378.3" y="386.4" fill="#fc8d59" class="flag">[0]</text><text x="400.3" y="386.4" fill="#000" class="taxonLabel">Kutorgina chengjiangensis</text><text x="378.3" y="360.4" fill="#fc8d59" class="flag">[0]</text><text x="400.3" y="360.4" fill="#000" class="taxonLabel">Coolinia pecten</text><text x="378.3" y="373.4" fill="#fc8d59" class="flag">[0]</text><text x="400.3" y="373.4" fill="#000" class="taxonLabel">Antigonambonites planus</text><text x="378.3" y="334.5" fill="#fc8d59" class="flag">[0]</text><text x="400.3" y="334.5" fill="#000" class="taxonLabel">Yuganotheca elegans</text><text x="378.3" y="347.4" fill="#fc8d59" class="flag">[0]</text><text x="400.3" y="347.4" fill="#000" class="taxonLabel">Tomteluva perturbata</text><text x="357.6" y="321.5" fill="#fc8d59" class="flag">[0]</text><text x="379.6" y="321.5" fill="#000" class="taxonLabel">Salanygolina</text><text x="336.8" y="295.5" fill="#fc8d59" class="flag">[0]</text><text x="358.8" y="295.5" fill="#000" class="taxonLabel">Askepasma toddense</text><text x="336.8" y="308.5" fill="#fc8d59" class="flag">[0]</text><text x="358.8" y="308.5" fill="#000" class="taxonLabel">Micromitra</text><text x="316.1" y="269.6" fill="#fc8d59" class="flag">[0]</text><text x="338.1" y="269.6" fill="#000" class="taxonLabel">Pelagodiscus atlanticus</text><text x="316.1" y="282.5" fill="#fc8d59" class="flag">[0]</text><text x="338.1" y="282.5" fill="#000" class="taxonLabel">Mickwitzia muralensis</text><text x="378.3" y="243.6" fill="#fc8d59" class="flag">[0]</text><text x="400.3" y="243.6" fill="#000" class="taxonLabel">Acanthotretella spinosa</text><text x="378.3" y="256.6" fill="#fc8d59" class="flag">[0]</text><text x="400.3" y="256.6" fill="#000" class="taxonLabel">Siphonobolus priscus</text><text x="378.3" y="217.7" fill="#fc8d59" class="flag">[0]</text><text x="400.3" y="217.7" fill="#000" class="taxonLabel">Clupeafumosus socialis</text><text x="378.3" y="230.6" fill="#fc8d59" class="flag">[0]</text><text x="400.3" y="230.6" fill="#000" class="taxonLabel">Lingulosacculus</text><text x="399" y="191.7" fill="#fc8d59" class="flag">[0]</text><text x="421" y="191.7" fill="#000" class="taxonLabel">Eoobolus</text><text x="399" y="204.7" fill="#fc8d59" class="flag">[0]</text><text x="421" y="204.7" fill="#000" class="taxonLabel">Mummpikia nuda</text><text x="378.3" y="178.7" fill="#fc8d59" class="flag">[0]</text><text x="400.3" y="178.7" fill="#000" class="taxonLabel">Botsfordia</text><text x="357.6" y="165.7" fill="#fc8d59" class="flag">[0]</text><text x="379.6" y="165.7" fill="#000" class="taxonLabel">Lingulellotreta malongensis</text><text x="316.1" y="152.8" fill="#fc8d59" class="flag">[0]</text><text x="338.1" y="152.8" fill="#000" class="taxonLabel">Lingula</text><text x="253.9" y="139.8" fill="#fc8d59" class="flag">[0]</text><text x="275.9" y="139.8" fill="#000" class="taxonLabel">Micrina</text><text x="253.9" y="113.8" fill="#fc8d59" class="flag">[0]</text><text x="275.9" y="113.8" fill="#000" class="taxonLabel">Pedunculotheca diania</text><text x="253.9" y="126.8" fill="#fc8d59" class="flag">[0]</text><text x="275.9" y="126.8" fill="#000" class="taxonLabel">Haplophrentis carinatus</text><text x="212.4" y="100.8" fill="#fc8d59" class="flag">[0]</text><text x="234.4" y="100.8" fill="#000" class="taxonLabel">Paterimitra</text><text x="191.7" y="87.9" fill="#91bfdb" class="flag">[1]</text><text x="213.7" y="87.9" fill="#000" class="taxonLabel">Halkieria evangelista</text><text x="170.9" y="74.9" fill="#91bfdb" class="flag">[1]</text><text x="192.9" y="74.9" fill="#000" class="taxonLabel">Dailyatia</text><text x="150.2" y="61.9" fill="#fc8d59" class="flag">[0]</text><text x="172.2" y="61.9" fill="#000" class="taxonLabel">Eccentrotheca</text><text x="129.4" y="48.9" fill="#fc8d59" class="flag">[0]</text><text x="151.4" y="48.9" fill="#000" class="taxonLabel">Cotyledion tylodes</text><text x="108.7" y="36" fill="#fc8d59" class="flag">[0]</text><text x="130.7" y="36" fill="#000" class="taxonLabel">Phoronis</text><text x="88" y="23" fill="#fc8d59" class="flag">[0]</text><text x="110" y="23" fill="#000" class="taxonLabel">Namacalathus</text><text x="67.2" y="10" fill="#fc8d59" class="flag">[0]</text><text x="89.2" y="10" fill="#000" class="taxonLabel">Flustra</text><text x="46.5" y="542.1" fill="#fc8d59" class="flag">[0]</text><text x="68.5" y="542.1" fill="#000" class="taxonLabel">Loxosomella</text><path d="M5,426.4V279.6H25.7M25.7,279.6V20.2H46.5M46.5,20.2V7H67.2M46.5,20.2V33.3H67.2M67.2,33.3V20H88M67.2,33.3V46.7H88M88,46.7V33H108.7M88,46.7V60.4H108.7M108.7,60.4V45.9H129.4M108.7,60.4V74.9H129.4M129.4,74.9V58.9H150.2M129.4,74.9V90.9H150.2M170.9,109.8V134.8H191.7M191.7,134.8V97.8H212.4M191.7,134.8V171.8H212.4M212.4,171.8V117.3H233.1M233.1,117.3V110.8H253.9M233.1,117.3V123.8H253.9M212.4,171.8V226.3H233.1M233.1,226.3V136.8H253.9M233.1,226.3V315.7H253.9M253.9,315.7V225H274.6M274.6,225V176.9H295.3M295.3,176.9V149.8H316.1M295.3,176.9V204.1H316.1M316.1,204.1V174.1H336.8M336.8,174.1V162.7H357.6M336.8,174.1V185.5H357.6M357.6,185.5V175.7H378.3M357.6,185.5V195.2H378.3M378.3,195.2V188.7H399M378.3,195.2V201.7H399M316.1,204.1V234.1H336.8M336.8,234.1V221.1H357.6M357.6,221.1V214.7H378.3M357.6,221.1V227.6H378.3M336.8,234.1V247.1H357.6M357.6,247.1V240.6H378.3M357.6,247.1V253.6H378.3M274.6,225V273.1H295.3M295.3,273.1V266.6H316.1M295.3,273.1V279.5H316.1M253.9,315.7V406.5H274.6M274.6,406.5V326.6H295.3M295.3,326.6V299H316.1M316.1,299V292.5H336.8M316.1,299V305.5H336.8M295.3,326.6V354.1H316.1M316.1,354.1V328.2H336.8M336.8,328.2V318.5H357.6M336.8,328.2V337.9H357.6M357.6,337.9V331.5H378.3M357.6,337.9V344.4H378.3M316.1,354.1V380H336.8M336.8,380V363.9H357.6M357.6,363.9V357.4H378.3M357.6,363.9V370.4H378.3M336.8,380V396.1H357.6M357.6,396.1V383.4H378.3M357.6,396.1V408.9H378.3M378.3,408.9V396.3H399M378.3,408.9V421.5H399M399,421.5V409.3H419.8M399,421.5V433.7H419.8M419.8,433.7V422.3H440.5M419.8,433.7V445H440.5M440.5,445V435.3H461.3M440.5,445V454.8H461.3M461.3,454.8V448.3H482M461.3,454.8V461.2H482M274.6,406.5V486.4H295.3M295.3,486.4V474.2H316.1M295.3,486.4V498.6H316.1M316.1,498.6V487.2H336.8M316.1,498.6V509.9H336.8M336.8,509.9V500.2H357.6M336.8,509.9V519.6H357.6M357.6,519.6V513.2H378.3M357.6,519.6V526.1H378.3M25.7,279.6V539.1H46.5M5,426.4V573.2H25.7M25.7,573.2V558.6H46.5M46.5,558.6V552.1H67.2M46.5,558.6V565.1H67.2M25.7,573.2V587.8H46.5M46.5,587.8V578H67.2M46.5,587.8V597.5H67.2M67.2,597.5V591H88M67.2,597.5V604H88" stroke="#fc8d59"></path><path d="M150.2,90.9V71.9H170.9M170.9,109.8V84.9H191.7" stroke="#91bfdb"></path><path d="M150.2,90.9V109.8H170.9" stroke="darkgrey"></path><text x="7" y="429.4" class="node" fill="#4A6FE3">1</text><text x="27.7" y="282.6" class="node" fill="#4A6FE3">1</text><text x="48.5" y="23.2" class="node" fill="#6982E1">0.92</text><text x="69.2" y="36.3" class="node" fill="#6982E1">0.92</text><text x="90" y="49.7" class="node" fill="#E6ABB6">0.32</text><text x="110.7" y="63.4" class="node" fill="#6982E1">0.92</text><text x="131.4" y="77.9" class="node" fill="#E5A8B3">0.31</text><text x="152.2" y="93.9" class="node" fill="#BFC4E3">0.63</text><text x="172.9" y="112.8" class="node" fill="#E3DFE0">0.49</text><text x="193.7" y="137.8" class="node" fill="#4A6FE3">1</text><text x="214.4" y="174.8" class="node" fill="#DD6F88">0.13</text><text x="235.1" y="120.3" class="node" fill="#4A6FE3">1</text><text x="235.1" y="229.3" class="node" fill="#DD6F88">0.13</text><text x="255.9" y="318.7" class="node" fill="#DD6F88">0.13</text><text x="276.6" y="228" class="node" fill="#E0E0E2">0.51</text><text x="297.3" y="179.9" class="node" fill="#4A6FE3">1</text><text x="318.1" y="207.1" class="node" fill="#C1C6E3">0.62</text><text x="338.8" y="177.1" class="node" fill="#DD6F88">0.13</text><text x="359.6" y="188.5" class="node" fill="#E0E0E2">0.51</text><text x="380.3" y="198.2" class="node" fill="#DD6F88">0.13</text><text x="338.8" y="237.1" class="node" fill="#8F9DE1">0.8</text><text x="359.6" y="224.1" class="node" fill="#E495A5">0.25</text><text x="359.6" y="250.1" class="node" fill="#4A6FE3">1</text><text x="297.3" y="276.1" class="node" fill="#4A6FE3">1</text><text x="276.6" y="409.5" class="node" fill="#DD6F88">0.13</text><text x="297.3" y="329.6" class="node" fill="#D7D9E3">0.54</text><text x="318.1" y="302" class="node" fill="#B9BFE3">0.65</text><text x="318.1" y="357.1" class="node" fill="#4A6FE3">1</text><text x="338.8" y="331.2" class="node" fill="#929FE1">0.79</text><text x="359.6" y="340.9" class="node" fill="#7D8FE1">0.86</text><text x="338.8" y="383" class="node" fill="#8394E1">0.84</text><text x="359.6" y="366.9" class="node" fill="#4A6FE3">1</text><text x="359.6" y="399.1" class="node" fill="#8C9BE1">0.81</text><text x="380.3" y="411.9" class="node" fill="#8C9BE1">0.81</text><text x="401" y="424.5" class="node" fill="#7388E1">0.89</text><text x="421.8" y="436.7" class="node" fill="#7388E1">0.89</text><text x="442.5" y="448" class="node" fill="#4A6FE3">1</text><text x="463.3" y="457.8" class="node" fill="#667FE1">0.93</text><text x="297.3" y="489.4" class="node" fill="#DD6F88">0.13</text><text x="318.1" y="501.6" class="node" fill="#DD6F88">0.13</text><text x="338.8" y="512.9" class="node" fill="#627DE1">0.94</text><text x="359.6" y="522.6" class="node" fill="#4A6FE3">1</text><text x="27.7" y="576.2" class="node" fill="#4A6FE3">1</text><text x="48.5" y="561.6" class="node" fill="#4A6FE3">1</text><text x="48.5" y="590.8" class="node" fill="#4A6FE3">1</text><text x="69.2" y="600.5" class="node" fill="#8696E1">0.83</text></svg>
