<svg xmlns="http://www.w3.org/2000/svg" version="1.1" width="682" height="682" class="tree" data-char="126"><text x="678" y="15.4" text-anchor="end" class="stepsLabel">Character adds <tspan class="score">8</tspan> to tree score</text><text x="678" y="27.8" text-anchor="end" class="stepsLabel"><tspan class="score">0</tspan> additional regions</text><text x="678" y="40.2" text-anchor="end" class="stepsLabel">CI = 0.12; Fitch CI = 0.12; Fitch RI = 0.36</text><text x="678" y="65" text-anchor="end" class="stepsLabel"><tspan dy="16" fill="#34caaf">An optimal tree under:</tspan><tspan x="680" style="font-style:italic" class="notThisAn" dy="1.2em">Implied weights, k = 3</tspan><tspan x="680" style="font-style:italic" class="notThisAn" dy="1.2em">IW, k = 4.5</tspan><tspan x="680" style="font-style:italic" class="notThisAn" dy="1.2em">IW, k = 7</tspan><tspan x="680" style="font-style:italic" class="thisAn" dy="1.2em">IW, k = 10.5</tspan><tspan x="680" style="font-style:italic" class="thisAn" dy="1.2em">IW, k = 16</tspan><tspan x="680" style="font-style:italic" class="notThisAn" dy="1.2em">IW, k = 24</tspan><tspan x="680" style="font-style:italic" class="notThisAn" dy="1.2em">Equal weights</tspan></text><text x="95.9" y="664.4" fill="#fc8d59" class="flag">[0]</text><text x="117.9" y="664.4" fill="#000" class="taxonLabel">Phoronis</text><text x="95.9" y="677" fill="#fc8d59" class="flag">[0]</text><text x="117.9" y="677" fill="#000" class="taxonLabel">Namacalathus</text><text x="482" y="639.2" fill="#91bfdb" class="flag">[1]</text><text x="504" y="639.2" fill="#000" class="taxonLabel">Orthis</text><text x="482" y="651.8" fill="#fc8d59" class="flag">[0]</text><text x="504" y="651.8" fill="#000" class="taxonLabel">Terebratulina</text><text x="459.3" y="626.7" fill="#fc8d59" class="flag">[0]</text><text x="481.3" y="626.7" fill="#000" class="taxonLabel">Alisina</text><text x="436.6" y="614.1" fill="#fc8d59" class="flag">[0]</text><text x="458.6" y="614.1" fill="#000" class="taxonLabel">Longtancunella chengjiangensis</text><text x="413.9" y="601.5" fill="#91bfdb" class="flag">[1]</text><text x="435.9" y="601.5" fill="#000" class="taxonLabel">Glyptoria</text><text x="391.1" y="588.9" fill="#91bfdb" class="flag">[1]</text><text x="413.1" y="588.9" fill="#000" class="taxonLabel">Tomteluva perturbata</text><text x="391.1" y="563.7" fill="#91bfdb" class="flag">[1]</text><text x="413.1" y="563.7" fill="#000" class="taxonLabel">Kutorgina chengjiangensis</text><text x="391.1" y="576.3" fill="#91bfdb" class="flag">[1]</text><text x="413.1" y="576.3" fill="#000" class="taxonLabel">Nisusia sulcata</text><text x="368.4" y="538.6" fill="#91bfdb" class="flag">[1]</text><text x="390.4" y="538.6" fill="#000" class="taxonLabel">Coolinia pecten</text><text x="368.4" y="551.2" fill="#91bfdb" class="flag">[1]</text><text x="390.4" y="551.2" fill="#000" class="taxonLabel">Antigonambonites planus</text><text x="323" y="526" fill="#fc8d59" class="flag">[0]</text><text x="345" y="526" fill="#000" class="taxonLabel">Salanygolina</text><text x="323" y="500.8" fill="#fc8d59" class="flag">[0]</text><text x="345" y="500.8" fill="#000" class="taxonLabel">Askepasma toddense</text><text x="323" y="513.4" fill="#91bfdb" class="flag">[1]</text><text x="345" y="513.4" fill="#000" class="taxonLabel">Micromitra</text><text x="482" y="475.6" fill="#91bfdb" class="flag">[1]</text><text x="504" y="475.6" fill="#000" class="taxonLabel">Siphonobolus priscus</text><text x="482" y="488.2" fill="#fc8d59" class="flag">[0]</text><text x="504" y="488.2" fill="#000" class="taxonLabel">Acanthotretella spinosa</text><text x="459.3" y="463.1" fill="#fc8d59" class="flag">[0]</text><text x="481.3" y="463.1" fill="#000" class="taxonLabel">Lingulosacculus</text><text x="436.6" y="450.5" fill="#fc8d59" class="flag">[0]</text><text x="458.6" y="450.5" fill="#000" class="taxonLabel">Clupeafumosus socialis</text><text x="413.9" y="437.9" fill="#fc8d59" class="flag">[0]</text><text x="435.9" y="437.9" fill="#000" class="taxonLabel">Lingulellotreta malongensis</text><text x="413.9" y="412.7" fill="#fc8d59" class="flag">[0]</text><text x="435.9" y="412.7" fill="#000" class="taxonLabel">Mummpikia nuda</text><text x="413.9" y="425.3" fill="#fc8d59" class="flag">[0]</text><text x="435.9" y="425.3" fill="#000" class="taxonLabel">Pelagodiscus atlanticus</text><text x="368.4" y="400.1" fill="#fc8d59" class="flag">[0]</text><text x="390.4" y="400.1" fill="#000" class="taxonLabel">Botsfordia</text><text x="345.7" y="387.5" fill="#fc8d59" class="flag">[0]</text><text x="367.7" y="387.5" fill="#000" class="taxonLabel">Eoobolus</text><text x="323" y="375" fill="#fc8d59" class="flag">[0]</text><text x="345" y="375" fill="#000" class="taxonLabel">Lingula</text><text x="368.4" y="349.8" fill="#fc8d59" class="flag">[0]</text><text x="390.4" y="349.8" fill="#000" class="taxonLabel">Craniops</text><text x="368.4" y="362.4" fill="#fc8d59" class="flag">[0]</text><text x="390.4" y="362.4" fill="#000" class="taxonLabel">Novocrania</text><text x="345.7" y="337.2" fill="#fc8d59" class="flag">[0]</text><text x="367.7" y="337.2" fill="#000" class="taxonLabel">Ussunia</text><text x="323" y="324.6" fill="#91bfdb" class="flag">[1]</text><text x="345" y="324.6" fill="#000" class="taxonLabel">Gasconsia</text><text x="300.3" y="299.5" fill="#fc8d59" class="flag">[0]</text><text x="322.3" y="299.5" fill="#000" class="taxonLabel">Heliomedusa orienta</text><text x="300.3" y="312" fill="#91bfdb" class="flag">[1]</text><text x="322.3" y="312" fill="#000" class="taxonLabel">Mickwitzia muralensis</text><text x="277.6" y="286.9" fill="#fc8d59" class="flag">[0]</text><text x="299.6" y="286.9" fill="#000" class="taxonLabel">Micrina</text><text x="232.1" y="274.3" fill="#fc8d59" class="flag">[0]</text><text x="254.1" y="274.3" fill="#000" class="taxonLabel">Yuganotheca elegans</text><text x="323" y="249.1" fill="#91bfdb" class="flag">[1]</text><text x="345" y="249.1" fill="#000" class="taxonLabel">Maxilites</text><text x="323" y="261.7" fill="#fc8d59" class="flag">[0]</text><text x="345" y="261.7" fill="#000" class="taxonLabel">Pauxillites</text><text x="300.3" y="236.5" fill="#fc8d59" class="flag">[0]</text><text x="322.3" y="236.5" fill="#000" class="taxonLabel">Haplophrentis carinatus</text><text x="277.6" y="223.9" fill="#fc8d59" class="flag">[0]</text><text x="299.6" y="223.9" fill="#000" class="taxonLabel">Paramicrocornus</text><text x="300.3" y="198.8" fill="#fc8d59" class="flag">[0]</text><text x="322.3" y="198.8" fill="#000" class="taxonLabel">Bactrotheca</text><text x="300.3" y="211.4" fill="#fc8d59" class="flag">[0]</text><text x="322.3" y="211.4" fill="#000" class="taxonLabel">Conotheca</text><text x="277.6" y="186.2" fill="#fc8d59" class="flag">[0]</text><text x="299.6" y="186.2" fill="#000" class="taxonLabel">Cupitheca holocyclata</text><text x="232.1" y="173.6" fill="#fc8d59" class="flag">[0]</text><text x="254.1" y="173.6" fill="#000" class="taxonLabel">Pedunculotheca diania</text><text x="186.7" y="161" fill="#fc8d59" class="flag">[0]</text><text x="208.7" y="161" fill="#000" class="taxonLabel">Paterimitra</text><text x="164" y="148.4" fill="#fc8d59" class="flag">[0]</text><text x="186" y="148.4" fill="#000" class="taxonLabel">Halkieria evangelista</text><text x="141.3" y="135.8" fill="#fc8d59" class="flag">[0]</text><text x="163.3" y="135.8" fill="#000" class="taxonLabel">Dailyatia</text><text x="118.6" y="123.3" fill="#fc8d59" class="flag">[0]</text><text x="140.6" y="123.3" fill="#000" class="taxonLabel">Eccentrotheca</text><text x="95.9" y="110.7" fill="#fc8d59" class="flag">[0]</text><text x="117.9" y="110.7" fill="#000" class="taxonLabel">Cotyledion tylodes</text><text x="73.1" y="85.5" fill="#fc8d59" class="flag">[0]</text><text x="95.1" y="85.5" fill="#000" class="taxonLabel">Amathia</text><text x="73.1" y="98.1" fill="#fc8d59" class="flag">[0]</text><text x="95.1" y="98.1" fill="#000" class="taxonLabel">Flustra</text><text x="118.6" y="60.3" fill="#fc8d59" class="flag">[0]</text><text x="140.6" y="60.3" fill="#000" class="taxonLabel">Dentalium</text><text x="118.6" y="72.9" fill="#fc8d59" class="flag">[0]</text><text x="140.6" y="72.9" fill="#000" class="taxonLabel">Tonicella</text><text x="95.9" y="47.8" fill="#fc8d59" class="flag">[0]</text><text x="117.9" y="47.8" fill="#000" class="taxonLabel">Wiwaxia corrugata</text><text x="95.9" y="22.6" fill="#fc8d59" class="flag">[0]</text><text x="117.9" y="22.6" fill="#000" class="taxonLabel">Serpula</text><text x="95.9" y="35.2" fill="#fc8d59" class="flag">[0]</text><text x="117.9" y="35.2" fill="#000" class="taxonLabel">Sipunculus</text><text x="50.4" y="10" fill="#fc8d59" class="flag">[0]</text><text x="72.4" y="10" fill="#000" class="taxonLabel">Loxosomella</text><path d="M5,132.7V23.5H27.7M27.7,23.5V7H50.4M27.7,23.5V40H50.4M50.4,40V25.9H73.1M73.1,25.9V19.6H95.9M73.1,25.9V32.2H95.9M50.4,40V54.2H73.1M73.1,54.2V44.8H95.9M73.1,54.2V63.6H95.9M95.9,63.6V57.3H118.6M95.9,63.6V69.9H118.6M5,132.7V242H27.7M27.7,242V88.8H50.4M50.4,88.8V82.5H73.1M50.4,88.8V95.1H73.1M27.7,242V395.1H50.4M50.4,395.1V122.5H73.1M73.1,122.5V107.7H95.9M73.1,122.5V137.4H95.9M95.9,137.4V120.3H118.6M95.9,137.4V154.5H118.6M118.6,154.5V132.8H141.3M118.6,154.5V176.1H141.3M141.3,176.1V145.4H164M141.3,176.1V206.7H164M164,206.7V158H186.7M164,206.7V255.4H186.7M186.7,255.4V191.4H209.4M209.4,191.4V170.6H232.1M209.4,191.4V212.3H232.1M232.1,212.3V192.6H254.9M254.9,192.6V183.2H277.6M254.9,192.6V202.1H277.6M277.6,202.1V195.8H300.3M277.6,202.1V208.4H300.3M232.1,212.3V232H254.9M254.9,232V220.9H277.6M254.9,232V243H277.6M277.6,243V233.5H300.3M277.6,243V252.4H300.3M300.3,252.4V258.7H323M186.7,255.4V319.3H209.4M209.4,319.3V271.3H232.1M209.4,319.3V367.3H232.1M232.1,367.3V293.3H254.9M254.9,293.3V283.9H277.6M254.9,293.3V302.7H277.6M277.6,302.7V296.5H300.3M232.1,367.3V441.3H254.9M254.9,441.3V359.2H277.6M277.6,359.2V332.6H300.3M300.3,332.6V343.6H323M323,343.6V334.2H345.7M323,343.6V353.1H345.7M345.7,353.1V346.8H368.4M345.7,353.1V359.4H368.4M277.6,359.2V385.7H300.3M300.3,385.7V372H323M300.3,385.7V399.4H323M323,399.4V384.5H345.7M323,399.4V414.2H345.7M345.7,414.2V397.1H368.4M345.7,414.2V431.3H368.4M368.4,431.3V416H391.1M391.1,416V409.7H413.9M391.1,416V422.3H413.9M368.4,431.3V446.7H391.1M391.1,446.7V434.9H413.9M391.1,446.7V458.5H413.9M413.9,458.5V447.5H436.6M413.9,458.5V469.5H436.6M436.6,469.5V460.1H459.3M436.6,469.5V478.9H459.3M459.3,478.9V485.2H482M254.9,441.3V523.3H277.6M277.6,523.3V504.1H300.3M300.3,504.1V497.8H323M277.6,523.3V542.6H300.3M300.3,542.6V523H323M391.1,610.3V622.1H413.9M413.9,622.1V611.1H436.6M413.9,622.1V633.1H436.6M436.6,633.1V623.7H459.3M436.6,633.1V642.5H459.3M459.3,642.5V648.8H482M50.4,395.1V667.7H73.1M73.1,667.7V661.4H95.9M73.1,667.7V674H95.9" stroke="#fc8d59"></path><path d="M300.3,252.4V246.1H323M277.6,302.7V309H300.3M300.3,332.6V321.6H323M459.3,478.9V472.6H482M300.3,504.1V510.4H323M300.3,542.6V562.2H323M323,562.2V541.9H345.7M345.7,541.9V535.6H368.4M345.7,541.9V548.2H368.4M323,562.2V582.6H345.7M345.7,582.6V567H368.4M368.4,567V560.7H391.1M368.4,567V573.3H391.1M345.7,582.6V598.1H368.4M368.4,598.1V585.9H391.1M368.4,598.1V610.3H391.1M391.1,610.3V598.5H413.9M459.3,642.5V636.2H482" stroke="#91bfdb"></path><text x="29.7" y="26.5" class="node" fill="#4A6FE3">1</text><text x="52.4" y="43" class="node" fill="#4A6FE3">1</text><text x="75.1" y="28.9" class="node" fill="#4A6FE3">1</text><text x="75.1" y="57.2" class="node" fill="#4A6FE3">1</text><text x="97.9" y="66.6" class="node" fill="#4A6FE3">1</text><text x="29.7" y="245" class="node" fill="#4A6FE3">1</text><text x="52.4" y="91.8" class="node" fill="#4A6FE3">1</text><text x="52.4" y="398.1" class="node" fill="#4A6FE3">1</text><text x="75.1" y="125.5" class="node" fill="#627DE1">0.94</text><text x="97.9" y="140.4" class="node" fill="#E5A8B3">0.31</text><text x="120.6" y="157.5" class="node" fill="#627DE1">0.94</text><text x="143.3" y="179.1" class="node" fill="#627DE1">0.94</text><text x="166" y="209.7" class="node" fill="#627DE1">0.94</text><text x="188.7" y="258.4" class="node" fill="#627DE1">0.94</text><text x="211.4" y="194.4" class="node" fill="#627DE1">0.94</text><text x="234.1" y="215.3" class="node" fill="#627DE1">0.94</text><text x="256.9" y="195.6" class="node" fill="#627DE1">0.94</text><text x="279.6" y="205.1" class="node" fill="#4A6FE3">1</text><text x="256.9" y="235" class="node" fill="#929FE1">0.79</text><text x="279.6" y="246" class="node" fill="#4A6FE3">1</text><text x="302.3" y="255.4" class="node" fill="#4A6FE3">1</text><text x="211.4" y="322.3" class="node" fill="#4A6FE3">1</text><text x="234.1" y="370.3" class="node" fill="#5374E2">0.98</text><text x="256.9" y="296.3" class="node" fill="#627DE1">0.94</text><text x="279.6" y="305.7" class="node" fill="#627DE1">0.94</text><text x="256.9" y="444.3" class="node" fill="#627DE1">0.94</text><text x="279.6" y="362.2" class="node" fill="#627DE1">0.94</text><text x="302.3" y="335.6" class="node" fill="#627DE1">0.94</text><text x="325" y="346.6" class="node" fill="#4A6FE3">1</text><text x="347.7" y="356.1" class="node" fill="#4A6FE3">1</text><text x="302.3" y="388.7" class="node" fill="#627DE1">0.94</text><text x="325" y="402.4" class="node" fill="#667FE1">0.93</text><text x="347.7" y="417.2" class="node" fill="#667FE1">0.93</text><text x="370.4" y="434.3" class="node" fill="#667FE1">0.93</text><text x="393.1" y="419" class="node" fill="#667FE1">0.93</text><text x="393.1" y="449.7" class="node" fill="#627DE1">0.94</text><text x="415.9" y="461.5" class="node" fill="#4A6FE3">1</text><text x="438.6" y="472.5" class="node" fill="#E6AEB8">0.33</text><text x="461.3" y="481.9" class="node" fill="#4A6FE3">1</text><text x="279.6" y="526.3" class="node" fill="#5B78E2">0.96</text><text x="302.3" y="507.1" class="node" fill="#5B78E2">0.96</text><text x="302.3" y="545.6" class="node" fill="#4A6FE3">1</text><text x="325" y="565.2" class="node" fill="#5B78E2">0.96</text><text x="347.7" y="544.9" class="node" fill="#4A6FE3">1</text><text x="347.7" y="585.6" class="node" fill="#5F7BE1">0.95</text><text x="370.4" y="570" class="node" fill="#95A1E2">0.78</text><text x="370.4" y="601.1" class="node" fill="#B4BBE3">0.67</text><text x="393.1" y="613.3" class="node" fill="#4A6FE3">1</text><text x="415.9" y="625.1" class="node" fill="#4A6FE3">1</text><text x="438.6" y="636.1" class="node" fill="#4A6FE3">1</text><text x="461.3" y="645.5" class="node" fill="#5B78E2">0.96</text><text x="75.1" y="670.7" class="node" fill="#E6B4BD">0.35</text></svg>
