<svg xmlns="http://www.w3.org/2000/svg" version="1.1" width="682" height="612" class="tree" data-char="118"><text x="678" y="14.1" text-anchor="end" class="stepsLabel">Character adds <tspan class="score">8</tspan> to tree score</text><text x="678" y="25.2" text-anchor="end" class="stepsLabel"><tspan class="score">1</tspan> additional region</text><text x="678" y="36.3" text-anchor="end" class="stepsLabel">CI = 0.12; Fitch CI = 0.12; Fitch RI = 0.61</text><text x="678" y="58.5" text-anchor="end" class="stepsLabel"><tspan dy="16" fill="#34caaf">An optimal tree under:</tspan><tspan x="680" style="font-style:italic" class="thisAn" dy="1.2em">Equal weights</tspan><tspan x="680" style="font-style:italic" class="notThisAn" dy="1.2em">Implied weights, k = 2</tspan><tspan x="680" style="font-style:italic" class="notThisAn" dy="1.2em">IW, k = 3</tspan><tspan x="680" style="font-style:italic" class="notThisAn" dy="1.2em">IW, k = 4.5</tspan><tspan x="680" style="font-style:italic" class="notThisAn" dy="1.2em">IW, k = 7</tspan><tspan x="680" style="font-style:italic" class="notThisAn" dy="1.2em">IW, k = 10.5</tspan><tspan x="680" style="font-style:italic" class="notThisAn" dy="1.2em">IW, k = 16</tspan><tspan x="680" style="font-style:italic" class="notThisAn" dy="1.2em">IW, k = 24</tspan></text><text x="105.4" y="595.7" fill="#e2e2a2" class="flag">[1]</text><text x="127.4" y="595.7" fill="#000" class="taxonLabel">Dentalium</text><text x="105.4" y="607" fill="lightgrey" class="flag">[-]</text><text x="127.4" y="607" fill="#ccc" class="taxonLabel">Wiwaxia corrugata</text><text x="80.3" y="584.5" fill="#e2e2a2" class="flag">[1]</text><text x="102.3" y="584.5" fill="#000" class="taxonLabel">Tonicella</text><text x="80.3" y="561.9" fill="lightgrey" class="flag">[-]</text><text x="102.3" y="561.9" fill="#ccc" class="taxonLabel">Sipunculus</text><text x="80.3" y="573.2" fill="lightgrey" class="flag">[-]</text><text x="102.3" y="573.2" fill="#ccc" class="taxonLabel">Serpula</text><text x="130.5" y="528.2" fill="#91bfdb" class="flag">[2]</text><text x="152.5" y="528.2" fill="#000" class="taxonLabel">Dailyatia</text><text x="130.5" y="539.4" fill="lightgrey" class="flag">[-]</text><text x="152.5" y="539.4" fill="#ccc" class="taxonLabel">Phoronis</text><text x="331.4" y="505.6" fill="#e2e2a2" class="flag">[1]</text><text x="353.4" y="505.6" fill="#000" class="taxonLabel">Tomteluva perturbata</text><text x="331.4" y="516.9" fill="#e2e2a2" class="flag">[1]</text><text x="353.4" y="516.9" fill="#000" class="taxonLabel">Yuganotheca elegans</text><text x="381.6" y="483.1" fill="#91bfdb" class="flag">[2]</text><text x="403.6" y="483.1" fill="#000" class="taxonLabel">Antigonambonites planus</text><text x="381.6" y="494.4" fill="#e2e2a2" class="flag">[1]</text><text x="403.6" y="494.4" fill="#000" class="taxonLabel">Coolinia pecten</text><text x="482" y="460.6" fill="#91bfdb" class="flag">[2]</text><text x="504" y="460.6" fill="#000" class="taxonLabel">Alisina</text><text x="482" y="471.8" fill="#e2e2a2" class="flag">[1]</text><text x="504" y="471.8" fill="#000" class="taxonLabel">Terebratulina</text><text x="456.9" y="449.3" fill="#e2e2a2" class="flag">[1]</text><text x="478.9" y="449.3" fill="#000" class="taxonLabel">Orthis</text><text x="431.8" y="438" fill="#e2e2a2" class="flag">[1]</text><text x="453.8" y="438" fill="#000" class="taxonLabel">Glyptoria</text><text x="406.7" y="426.8" fill="#e2e2a2" class="flag">[1]</text><text x="428.7" y="426.8" fill="#000" class="taxonLabel">Nisusia sulcata</text><text x="381.6" y="415.5" fill="#e2e2a2" class="flag">[1]</text><text x="403.6" y="415.5" fill="#000" class="taxonLabel">Kutorgina chengjiangensis</text><text x="331.4" y="404.2" fill="#e2e2a2" class="flag">[1]</text><text x="353.4" y="404.2" fill="#000" class="taxonLabel">Longtancunella chengjiangensis</text><text x="281.2" y="393" fill="#91bfdb" class="flag">[2]</text><text x="303.2" y="393" fill="#000" class="taxonLabel">Salanygolina</text><text x="256.1" y="381.7" fill="#91bfdb" class="flag">[2]</text><text x="278.1" y="381.7" fill="#000" class="taxonLabel">Askepasma toddense</text><text x="381.6" y="359.2" fill="#e2e2a2" class="flag">[1]</text><text x="403.6" y="359.2" fill="#000" class="taxonLabel">Mummpikia nuda</text><text x="381.6" y="370.5" fill="#e2e2a2" class="flag">[1]</text><text x="403.6" y="370.5" fill="#000" class="taxonLabel">Pelagodiscus atlanticus</text><text x="456.9" y="336.7" fill="#e2e2a2" class="flag">[1]</text><text x="478.9" y="336.7" fill="#000" class="taxonLabel">Acanthotretella spinosa</text><text x="456.9" y="347.9" fill="grey" class="flag">[12]</text><text x="478.9" y="347.9" fill="#999" class="taxonLabel">Siphonobolus priscus</text><text x="431.8" y="325.4" fill="#e2e2a2" class="flag">[1]</text><text x="453.8" y="325.4" fill="#000" class="taxonLabel">Lingulosacculus</text><text x="406.7" y="314.1" fill="#e2e2a2" class="flag">[1]</text><text x="428.7" y="314.1" fill="#000" class="taxonLabel">Clupeafumosus socialis</text><text x="406.7" y="291.6" fill="#e2e2a2" class="flag">[1]</text><text x="428.7" y="291.6" fill="#000" class="taxonLabel">Lingula</text><text x="406.7" y="302.9" fill="#e2e2a2" class="flag">[1]</text><text x="428.7" y="302.9" fill="#000" class="taxonLabel">Lingulellotreta malongensis</text><text x="331.4" y="280.3" fill="#e2e2a2" class="flag">[1]</text><text x="353.4" y="280.3" fill="#000" class="taxonLabel">Botsfordia</text><text x="306.3" y="269.1" fill="#e2e2a2" class="flag">[1]</text><text x="328.3" y="269.1" fill="#000" class="taxonLabel">Eoobolus</text><text x="406.7" y="246.5" fill="#91bfdb" class="flag">[2]</text><text x="428.7" y="246.5" fill="#000" class="taxonLabel">Novocrania</text><text x="406.7" y="257.8" fill="#91bfdb" class="flag">[2]</text><text x="428.7" y="257.8" fill="#000" class="taxonLabel">Craniops</text><text x="381.6" y="235.3" fill="#e2e2a2" class="flag">[1]</text><text x="403.6" y="235.3" fill="#000" class="taxonLabel">Ussunia</text><text x="356.5" y="224" fill="#91bfdb" class="flag">[2]</text><text x="378.5" y="224" fill="#000" class="taxonLabel">Heliomedusa orienta</text><text x="331.4" y="212.8" fill="#91bfdb" class="flag">[2]</text><text x="353.4" y="212.8" fill="#000" class="taxonLabel">Mickwitzia muralensis</text><text x="331.4" y="190.2" fill="#91bfdb" class="flag">[2]</text><text x="353.4" y="190.2" fill="#000" class="taxonLabel">Gasconsia</text><text x="331.4" y="201.5" fill="#91bfdb" class="flag">[2]</text><text x="353.4" y="201.5" fill="#000" class="taxonLabel">Micromitra</text><text x="256.1" y="179" fill="#91bfdb" class="flag">[2]</text><text x="278.1" y="179" fill="#000" class="taxonLabel">Micrina</text><text x="281.2" y="156.4" fill="#e2e2a2" class="flag">[1]</text><text x="303.2" y="156.4" fill="#000" class="taxonLabel">Conotheca</text><text x="281.2" y="167.7" fill="#e2e2a2" class="flag">[1]</text><text x="303.2" y="167.7" fill="#000" class="taxonLabel">Probactrotheca</text><text x="356.5" y="133.9" fill="#e2e2a2" class="flag">[1]</text><text x="378.5" y="133.9" fill="#000" class="taxonLabel">Maxilites</text><text x="356.5" y="145.2" fill="#e2e2a2" class="flag">[1]</text><text x="378.5" y="145.2" fill="#000" class="taxonLabel">Pauxillites</text><text x="331.4" y="122.6" fill="#e2e2a2" class="flag">[1]</text><text x="353.4" y="122.6" fill="#000" class="taxonLabel">Paramicrocornus</text><text x="306.3" y="111.4" fill="#91bfdb" class="flag">[2]</text><text x="328.3" y="111.4" fill="#000" class="taxonLabel">Haplophrentis carinatus</text><text x="281.2" y="100.1" fill="#91bfdb" class="flag">[2]</text><text x="303.2" y="100.1" fill="#000" class="taxonLabel">Decoritheca</text><text x="230.9" y="88.8" fill="#91bfdb" class="flag">[2]</text><text x="252.9" y="88.8" fill="#000" class="taxonLabel">Pedunculotheca diania</text><text x="180.7" y="77.6" fill="#91bfdb" class="flag">[2]</text><text x="202.7" y="77.6" fill="#000" class="taxonLabel">Paterimitra</text><text x="155.6" y="66.3" fill="#91bfdb" class="flag">[2]</text><text x="177.6" y="66.3" fill="#000" class="taxonLabel">Halkieria evangelista</text><text x="155.6" y="43.8" fill="#91bfdb" class="flag">[2]</text><text x="177.6" y="43.8" fill="#000" class="taxonLabel">Eccentrotheca</text><text x="155.6" y="55.1" fill="#91bfdb" class="flag">[2]</text><text x="177.6" y="55.1" fill="#000" class="taxonLabel">Cotyledion tylodes</text><text x="130.5" y="10" fill="lightgrey" class="flag">[-]</text><text x="152.5" y="10" fill="#ccc" class="taxonLabel">Flustra</text><text x="130.5" y="21.3" fill="lightgrey" class="flag">[-]</text><text x="152.5" y="21.3" fill="#ccc" class="taxonLabel">Amathia</text><text x="105.4" y="32.5" fill="lightgrey" class="flag">[-]</text><text x="127.4" y="32.5" fill="#ccc" class="taxonLabel">Namacalathus</text><text x="55.2" y="550.7" fill="lightgrey" class="flag">[-]</text><text x="77.2" y="550.7" fill="#ccc" class="taxonLabel">Loxosomella</text><path d="M5,466V354.8H30.1M30.1,354.8V161.8H55.2M55.2,161.8V21.1H80.3M80.3,21.1V12.6H105.4M105.4,12.6V7H130.5M105.4,12.6V18.3H130.5M80.3,21.1V29.5H105.4M105.4,530.8V536.4H130.5M30.1,354.8V547.7H55.2M5,466V577.2H30.1M30.1,577.2V564.6H55.2M55.2,564.6V558.9H80.3M55.2,564.6V570.2H80.3M80.3,598.4V604H105.4" stroke="lightgrey" class="inapplicable"></path><path d="M55.2,161.8V302.6H80.3M80.3,302.6V74.4H105.4M105.4,74.4V46.4H130.5M130.5,46.4V40.8H155.6M130.5,46.4V52.1H155.6M105.4,74.4V102.4H130.5M130.5,102.4V63.3H155.6M130.5,102.4V141.6H155.6M155.6,141.6V74.6H180.7M155.6,141.6V208.6H180.7M180.7,208.6V109.6H205.8M205.8,109.6V85.8H230.9M205.8,109.6V133.4H230.9M230.9,133.4V107.7H256.1M256.1,107.7V97.1H281.2M256.1,107.7V118.2H281.2M281.2,118.2V108.4H306.3M180.7,208.6V307.5H205.8M205.8,307.5V211.1H230.9M230.9,211.1V176H256.1M230.9,211.1V246.3H256.1M256.1,246.3V206.6H281.2M281.2,206.6V192.9H306.3M306.3,192.9V187.2H331.4M306.3,192.9V198.5H331.4M281.2,206.6V220.3H306.3M306.3,220.3V209.8H331.4M306.3,220.3V230.9H331.4M331.4,230.9V221H356.5M331.4,230.9V240.7H356.5M356.5,240.7V249.2H381.6M381.6,249.2V243.5H406.7M381.6,249.2V254.8H406.7M205.8,307.5V403.9H230.9M230.9,403.9V378.7H256.1M230.9,403.9V429H256.1M256.1,429V390H281.2M456.9,463.2V457.6H482M356.5,485.7V480.1H381.6M80.3,302.6V530.8H105.4M105.4,530.8V525.2H130.5" stroke="#91bfdb"></path><path d="M281.2,118.2V128.1H306.3M306.3,128.1V119.6H331.4M306.3,128.1V136.5H331.4M331.4,136.5V130.9H356.5M331.4,136.5V142.2H356.5M230.9,133.4V159.1H256.1M256.1,159.1V153.4H281.2M256.1,159.1V164.7H281.2M356.5,240.7V232.3H381.6M256.1,246.3V286.1H281.2M281.2,286.1V266.1H306.3M281.2,286.1V306H306.3M306.3,306V277.3H331.4M306.3,306V334.7H331.4M331.4,334.7V307.6H356.5M356.5,307.6V294.2H381.6M381.6,294.2V288.6H406.7M381.6,294.2V299.9H406.7M356.5,307.6V321H381.6M381.6,321V311.1H406.7M381.6,321V330.8H406.7M406.7,330.8V322.4H431.8M406.7,330.8V339.3H431.8M431.8,339.3V333.7H456.9M431.8,339.3V344.9H456.9M331.4,334.7V361.8H356.5M356.5,361.8V356.2H381.6M356.5,361.8V367.5H381.6M256.1,429V468.1H281.2M281.2,468.1V427.9H306.3M306.3,427.9V401.2H331.4M306.3,427.9V454.6H331.4M331.4,454.6V423.4H356.5M356.5,423.4V412.5H381.6M356.5,423.4V434.3H381.6M381.6,434.3V423.8H406.7M381.6,434.3V444.9H406.7M406.7,444.9V435H431.8M406.7,444.9V454.8H431.8M431.8,454.8V446.3H456.9M431.8,454.8V463.2H456.9M456.9,463.2V468.8H482M331.4,454.6V485.7H356.5M356.5,485.7V491.4H381.6M281.2,468.1V508.3H306.3M306.3,508.3V502.6H331.4M306.3,508.3V513.9H331.4M30.1,577.2V589.9H55.2M55.2,589.9V581.5H80.3M55.2,589.9V598.4H80.3M80.3,598.4V592.7H105.4" stroke="#e2e2a2"></path><text x="7" y="469" class="node" fill="#4A6FE3">1</text><text x="32.1" y="357.8" class="node" fill="#4A6FE3">1</text><text x="57.2" y="164.8" class="node" fill="#4A6FE3">1</text><text x="82.3" y="24.1" class="node" fill="#E6B1BB">0.34</text><text x="107.4" y="15.6" class="node" fill="#4A6FE3">1</text><text x="82.3" y="305.6" class="node" fill="#E3DFE0">0.49</text><text x="107.4" y="77.4" class="node" fill="#DA5E7D">0.08</text><text x="132.5" y="49.4" class="node" fill="#E392A2">0.24</text><text x="132.5" y="105.4" class="node" fill="#A8B1E2">0.71</text><text x="157.6" y="144.6" class="node" fill="#A8B1E2">0.71</text><text x="182.7" y="211.6" class="node" fill="#A8B1E2">0.71</text><text x="207.8" y="112.6" class="node" fill="#A8B1E2">0.71</text><text x="232.9" y="136.4" class="node" fill="#4A6FE3">1</text><text x="258.1" y="110.7" class="node" fill="#E59FAC">0.29</text><text x="283.2" y="121.2" class="node" fill="#7A8DE1">0.87</text><text x="308.3" y="131.1" class="node" fill="#C1C6E3">0.62</text><text x="333.4" y="139.5" class="node" fill="#4A6FE3">1</text><text x="258.1" y="162.1" class="node" fill="#D7D9E3">0.54</text><text x="207.8" y="310.5" class="node" fill="#667FE1">0.93</text><text x="232.9" y="214.1" class="node" fill="#DB6581">0.1</text><text x="258.1" y="249.3" class="node" fill="#B9BFE3">0.65</text><text x="283.2" y="209.6" class="node" fill="#D2D4E3">0.57</text><text x="308.3" y="195.9" class="node" fill="#BCC2E3">0.64</text><text x="308.3" y="223.3" class="node" fill="#D2D4E3">0.57</text><text x="333.4" y="233.9" class="node" fill="#7A8DE1">0.87</text><text x="358.5" y="243.7" class="node" fill="#4A6FE3">1</text><text x="383.6" y="252.2" class="node" fill="#4A6FE3">1</text><text x="283.2" y="289.1" class="node" fill="#A3ADE2">0.73</text><text x="308.3" y="309" class="node" fill="#DC6884">0.11</text><text x="333.4" y="337.7" class="node" fill="#DDDEE3">0.52</text><text x="358.5" y="310.6" class="node" fill="#E4D6D8">0.46</text><text x="383.6" y="297.2" class="node" fill="#E6B4BD">0.35</text><text x="383.6" y="324" class="node" fill="#AEB6E2">0.69</text><text x="408.7" y="333.8" class="node" fill="#E59FAC">0.29</text><text x="433.8" y="342.3" class="node" fill="#5776E2">0.97</text><text x="358.5" y="364.8" class="node" fill="#D2D4E3">0.56</text><text x="232.9" y="406.9" class="node" fill="#ABB4E2">0.7</text><text x="258.1" y="432" class="node" fill="#97A4E2">0.77</text><text x="283.2" y="471.1" class="node" fill="#D2D4E3">0.57</text><text x="308.3" y="430.9" class="node" fill="#9AA6E2">0.76</text><text x="333.4" y="457.6" class="node" fill="#D75376">0.05</text><text x="358.5" y="426.4" class="node" fill="#D75376">0.05</text><text x="383.6" y="437.3" class="node" fill="#D75376">0.05</text><text x="408.7" y="447.9" class="node" fill="#D75376">0.05</text><text x="433.8" y="457.8" class="node" fill="#4A6FE3">1</text><text x="458.9" y="466.2" class="node" fill="#E2899B">0.21</text><text x="358.5" y="488.7" class="node" fill="#4A6FE3">1</text><text x="308.3" y="511.3" class="node" fill="#DDDEE3">0.52</text><text x="107.4" y="533.8" class="node" fill="#D54C71">0.03</text><text x="32.1" y="580.2" class="node" fill="#4A6FE3">1</text><text x="57.2" y="567.6" class="node" fill="#4A6FE3">1</text><text x="57.2" y="592.9" class="node" fill="#4A6FE3">1</text><text x="82.3" y="601.4" class="node" fill="#6D84E1">0.91</text></svg>
