<svg xmlns="http://www.w3.org/2000/svg" version="1.1" width="682" height="555" class="tree" char="77">
 <text x="678" y="17.6" text-anchor="end" class="stepsLabel">Character adds <tspan class="score">3</tspan> to tree score</text>
 <text x="678" y="32.2" text-anchor="end" class="stepsLabel"><tspan class="score"></tspan> additional region</text>
 <text x="678" y="46.8" text-anchor="end" class="stepsLabel">CI = 0.33; Fitch CI = 0.33; Fitch RI = 0.6</text>
 <text x="678" y="76" text-anchor="end" class="stepsLabel"><tspan dy="16">An optimal tree under:</tspan><tspan x="680" style="font-style:italic" class="thisAn" dy="1.2em">Equal weights</tspan><tspan x="680" style="font-style:italic" class="notThisAn" dy="1.2em">Implied weights, k = 2</tspan><tspan x="680" style="font-style:italic" class="notThisAn" dy="1.2em">IW, k = 3</tspan><tspan x="680" style="font-style:italic" class="notThisAn" dy="1.2em">IW, k = 4.5</tspan><tspan x="680" style="font-style:italic" class="notThisAn" dy="1.2em">IW, k = 7</tspan><tspan x="680" style="font-style:italic" class="notThisAn" dy="1.2em">IW, k = 10.5</tspan><tspan x="680" style="font-style:italic" class="notThisAn" dy="1.2em">IW, k = 16</tspan><tspan x="680" style="font-style:italic" class="notThisAn" dy="1.2em">IW, k = 24</tspan></text>
 <text x="31.5" y="10" fill="lightgrey" class="flag">[-]</text>
 <text x="53.5" y="10" class="taxonLabel">Dailyatia</text>
 <text x="58" y="25" fill="grey" class="flag">[?]</text>
 <text x="80" y="25" class="taxonLabel">Eccentrotheca</text>
 <text x="84.5" y="40" fill="lightgrey" class="flag">[-]</text>
 <text x="106.5" y="40" class="taxonLabel">Phoronis</text>
 <text x="111" y="55" fill="#fc8d59" class="flag">[0]</text>
 <text x="133" y="55" class="taxonLabel">Paterimitra</text>
 <text x="164" y="85" fill="#fc8d59" class="flag">[0]</text>
 <text x="186" y="85" class="taxonLabel">Pedunculotheca diania</text>
 <text x="164" y="70" fill="#fc8d59" class="flag">[0]</text>
 <text x="186" y="70" class="taxonLabel">Haplophrentis carinatus</text>
 <text x="217" y="100" fill="grey" class="flag">[?]</text>
 <text x="239" y="100" class="taxonLabel">Gasconsia</text>
 <text x="243.5" y="115" fill="grey" class="flag">[?]</text>
 <text x="265.5" y="115" class="taxonLabel">Heliomedusa orienta</text>
 <text x="270" y="130" fill="grey" class="flag">[?]</text>
 <text x="292" y="130" class="taxonLabel">Ussunia</text>
 <text x="296.5" y="160" fill="#fc8d59" class="flag">[0]</text>
 <text x="318.5" y="160" class="taxonLabel">Craniops</text>
 <text x="296.5" y="145" fill="#fc8d59" class="flag">[0]</text>
 <text x="318.5" y="145" class="taxonLabel">Novocrania</text>
 <text x="217" y="175" fill="#91bfdb" class="flag">[1]</text>
 <text x="239" y="175" class="taxonLabel">Pelagodiscus atlanticus</text>
 <text x="243.5" y="190" fill="#91bfdb" class="flag">[1]</text>
 <text x="265.5" y="190" class="taxonLabel">Mickwitzia muralensis</text>
 <text x="270" y="205" fill="#91bfdb" class="flag">[1]</text>
 <text x="292" y="205" class="taxonLabel">Micrina</text>
 <text x="296.5" y="220" fill="#91bfdb" class="flag">[1]</text>
 <text x="318.5" y="220" class="taxonLabel">Lingula</text>
 <text x="323" y="235" fill="#91bfdb" class="flag">[1]</text>
 <text x="345" y="235" class="taxonLabel">Eoobolus</text>
 <text x="349.5" y="250" fill="grey" class="flag">[?]</text>
 <text x="371.5" y="250" class="taxonLabel">Mummpikia nuda</text>
 <text x="376" y="265" fill="grey" class="flag">[?]</text>
 <text x="398" y="265" class="taxonLabel">Botsfordia</text>
 <text x="455.5" y="310" fill="grey" class="flag">[?]</text>
 <text x="477.5" y="310" class="taxonLabel">Lingulosacculus</text>
 <text x="402.5" y="280" fill="grey" class="flag">[?]</text>
 <text x="424.5" y="280" class="taxonLabel">Lingulellotreta malongensis</text>
 <text x="429" y="295" fill="#91bfdb" class="flag">[1]</text>
 <text x="451" y="295" class="taxonLabel">Clupeafumosus socialis</text>
 <text x="482" y="340" fill="grey" class="flag">[?]</text>
 <text x="504" y="340" class="taxonLabel">Acanthotretella spinosa</text>
 <text x="482" y="325" fill="#fc8d59" class="flag">[0]</text>
 <text x="504" y="325" class="taxonLabel">Siphonobolus priscus</text>
 <text x="217" y="370" fill="grey" class="flag">[?]</text>
 <text x="239" y="370" class="taxonLabel">Askepasma toddense</text>
 <text x="217" y="355" fill="grey" class="flag">[?]</text>
 <text x="239" y="355" class="taxonLabel">Micromitra</text>
 <text x="243.5" y="385" fill="#91bfdb" class="flag">[1]</text>
 <text x="265.5" y="385" class="taxonLabel">Salanygolina</text>
 <text x="270" y="415" fill="grey" class="flag">[?]</text>
 <text x="292" y="415" class="taxonLabel">Tomteluva perturbata</text>
 <text x="270" y="400" fill="grey" class="flag">[?]</text>
 <text x="292" y="400" class="taxonLabel">Yuganotheca elegans</text>
 <text x="296.5" y="475" fill="#91bfdb" class="flag">[1]</text>
 <text x="318.5" y="475" class="taxonLabel">Kutorgina chengjiangensis</text>
 <text x="323" y="490" fill="#91bfdb" class="flag">[1]</text>
 <text x="345" y="490" class="taxonLabel">Nisusia sulcata</text>
 <text x="349.5" y="505" fill="grey" class="flag">[?]</text>
 <text x="371.5" y="505" class="taxonLabel">Glyptoria</text>
 <text x="243.5" y="430" fill="grey" class="flag">[?]</text>
 <text x="265.5" y="430" class="taxonLabel">Longtancunella chengjiangensis</text>
 <text x="402.5" y="535" fill="grey" class="flag">[?]</text>
 <text x="424.5" y="535" class="taxonLabel">Alisina</text>
 <text x="376" y="520" fill="grey" class="flag">[?]</text>
 <text x="398" y="520" class="taxonLabel">Orthis</text>
 <text x="402.5" y="550" fill="#91bfdb" class="flag">[1]</text>
 <text x="424.5" y="550" class="taxonLabel">Terebratulina</text>
 <text x="296.5" y="460" fill="#91bfdb" class="flag">[1]</text>
 <text x="318.5" y="460" class="taxonLabel">Coolinia pecten</text>
 <text x="296.5" y="445" fill="#91bfdb" class="flag">[1]</text>
 <text x="318.5" y="445" class="taxonLabel">Antigonambonites planus</text>
 <path d="M5,27.6V7H31.5M5,27.6V48.2H31.5M31.5,48.2V22H58M31.5,48.2V74.5H58M58,74.5V37H84.5" stroke="lightgrey" class="inapplicable"></path>
 <path d="M58,74.5V112H84.5M84.5,112V52H111M84.5,112V172H111M111,172V74.5H137.5M137.5,74.5V67H164M137.5,74.5V82H164M111,172V269.5H137.5M243.5,138.2V149.5H270M270,149.5V142H296.5M270,149.5V157H296.5M455.5,329.5V322H482" stroke="#fc8d59"></path>
 <path d="M137.5,269.5V149H164M164,149V111.1H190.5M190.5,111.1V97H217M190.5,111.1V125.1H217M217,125.1V112H243.5M217,125.1V138.2H243.5M243.5,138.2V127H270M429,318.2V307H455.5M429,318.2V329.5H455.5M455.5,329.5V337H482M137.5,269.5V389.9H164M164,389.9V359.5H190.5M190.5,359.5V352H217M190.5,359.5V367H217" stroke="darkgrey"></path>
 <path d="M164,149V187H190.5M190.5,187V172H217M190.5,187V202H217M217,202V187H243.5M217,202V217H243.5M243.5,217V202H270M243.5,217V231.9H270M270,231.9V217H296.5M270,231.9V246.9H296.5M296.5,246.9V232H323M296.5,246.9V261.8H323M323,261.8V247H349.5M323,261.8V276.5H349.5M349.5,276.5V262H376M349.5,276.5V291.1H376M376,291.1V277H402.5M376,291.1V305.1H402.5M402.5,305.1V292H429M402.5,305.1V318.2H429M164,389.9V420.4H190.5M190.5,420.4V393.2H217M217,393.2V382H243.5M217,393.2V404.5H243.5M243.5,404.5V397H270M243.5,404.5V412H270M190.5,420.4V447.5H217M217,447.5V427H243.5M217,447.5V468H243.5M243.5,468V449.5H270M270,449.5V442H296.5M270,449.5V457H296.5M243.5,468V486.5H270M270,486.5V472H296.5M270,486.5V501.1H296.5M296.5,501.1V487H323M296.5,501.1V515.1H323M323,515.1V502H349.5M323,515.1V528.2H349.5M349.5,528.2V517H376M349.5,528.2V539.5H376M376,539.5V532H402.5M376,539.5V547H402.5" stroke="#91bfdb"></path>
 <text x="7" y="30.6" class="node" fill="red">NA</text>
 <text x="33.5" y="51.2" class="node" fill="red">NA</text>
 <text x="60" y="77.5" class="node" fill="red">NA</text>
 <text x="86.5" y="115" class="node" fill="#4A6FE3">1</text>
 <text x="113" y="175" class="node" fill="#4A6FE3">1</text>
 <text x="139.5" y="77.5" class="node" fill="#E6B1BB">0.34</text>
 <text x="139.5" y="272.5" class="node" fill="#4A6FE3">1</text>
 <text x="166" y="152" class="node" fill="#4A6FE3">1</text>
 <text x="192.5" y="114.1" class="node" fill="#4A6FE3">1</text>
 <text x="219" y="128.1" class="node" fill="#7A8DE1">0.87</text>
 <text x="245.5" y="141.2" class="node" fill="#A0ABE2">0.74</text>
 <text x="272" y="152.5" class="node" fill="#7A8DE1">0.87</text>
 <text x="192.5" y="190" class="node" fill="#7A8DE1">0.87</text>
 <text x="219" y="205" class="node" fill="#4A6FE3">1</text>
 <text x="245.5" y="220" class="node" fill="#4A6FE3">1</text>
 <text x="272" y="234.9" class="node" fill="#A0ABE2">0.74</text>
 <text x="298.5" y="249.9" class="node" fill="#A0ABE2">0.74</text>
 <text x="325" y="264.8" class="node" fill="#A0ABE2">0.74</text>
 <text x="351.5" y="279.5" class="node" fill="#7A8DE1">0.87</text>
 <text x="378" y="294.1" class="node" fill="#7A8DE1">0.87</text>
 <text x="404.5" y="308.1" class="node" fill="#A0ABE2">0.74</text>
 <text x="431" y="321.2" class="node" fill="#A0ABE2">0.74</text>
 <text x="457.5" y="332.5" class="node" fill="#A0ABE2">0.74</text>
 <text x="166" y="392.9" class="node" fill="#D7D9E3">0.54</text>
 <text x="192.5" y="362.5" class="node" fill="#E392A2">0.24</text>
 <text x="192.5" y="423.4" class="node" fill="#4A6FE3">1</text>
 <text x="219" y="396.2" class="node" fill="#4A6FE3">1</text>
 <text x="245.5" y="407.5" class="node" fill="#4A6FE3">1</text>
 <text x="219" y="450.5" class="node" fill="#4A6FE3">1</text>
 <text x="245.5" y="471" class="node" fill="#8C9BE1">0.81</text>
 <text x="272" y="452.5" class="node" fill="#6D84E1">0.91</text>
 <text x="272" y="489.5" class="node" fill="#4A6FE3">1</text>
 <text x="298.5" y="504.1" class="node" fill="#DD6C86">0.12</text>
 <text x="325" y="518.1" class="node" fill="#4A6FE3">1</text>
 <text x="351.5" y="531.2" class="node" fill="#DD6C86">0.12</text>
 <text x="378" y="542.5" class="node" fill="#DD6C86">0.12</text></svg>
