<svg xmlns="http://www.w3.org/2000/svg" version="1.1" width="682" height="682" class="tree" data-char="157"><text x="678" y="15.4" text-anchor="end" class="stepsLabel">Character adds <tspan class="score">2</tspan> to tree score</text><text x="678" y="27.8" text-anchor="end" class="stepsLabel"><tspan class="score">0</tspan> additional regions</text><text x="678" y="40.2" text-anchor="end" class="stepsLabel">CI = 0.5; Fitch CI = 0.5; Fitch RI = 0.67</text><text x="678" y="65" text-anchor="end" class="stepsLabel"><tspan dy="16" fill="#34caaf">An optimal tree under:</tspan><tspan x="680" style="font-style:italic" class="notThisAn" dy="1.2em">Implied weights, k = 3</tspan><tspan x="680" style="font-style:italic" class="notThisAn" dy="1.2em">IW, k = 4.5</tspan><tspan x="680" style="font-style:italic" class="notThisAn" dy="1.2em">IW, k = 7</tspan><tspan x="680" style="font-style:italic" class="notThisAn" dy="1.2em">IW, k = 10.5</tspan><tspan x="680" style="font-style:italic" class="notThisAn" dy="1.2em">IW, k = 16</tspan><tspan x="680" style="font-style:italic" class="notThisAn" dy="1.2em">IW, k = 24</tspan><tspan x="680" style="font-style:italic" class="thisAn" dy="1.2em">Equal weights</tspan></text><text x="291.2" y="664.4" fill="grey" class="flag">[?]</text><text x="313.2" y="664.4" fill="#999" class="taxonLabel">Mickwitzia muralensis</text><text x="291.2" y="677" fill="grey" class="flag">[?]</text><text x="313.2" y="677" fill="#999" class="taxonLabel">Heliomedusa orienta</text><text x="267.4" y="651.8" fill="grey" class="flag">[?]</text><text x="289.4" y="651.8" fill="#999" class="taxonLabel">Micrina</text><text x="315.1" y="626.7" fill="grey" class="flag">[?]</text><text x="337.1" y="626.7" fill="#999" class="taxonLabel">Askepasma toddense</text><text x="315.1" y="639.2" fill="grey" class="flag">[?]</text><text x="337.1" y="639.2" fill="#999" class="taxonLabel">Micromitra</text><text x="362.8" y="601.5" fill="grey" class="flag">[?]</text><text x="384.8" y="601.5" fill="#999" class="taxonLabel">Antigonambonites planus</text><text x="362.8" y="614.1" fill="grey" class="flag">[?]</text><text x="384.8" y="614.1" fill="#999" class="taxonLabel">Coolinia pecten</text><text x="458.2" y="576.3" fill="grey" class="flag">[?]</text><text x="480.2" y="576.3" fill="#999" class="taxonLabel">Terebratulina</text><text x="458.2" y="588.9" fill="grey" class="flag">[?]</text><text x="480.2" y="588.9" fill="#999" class="taxonLabel">Orthis</text><text x="434.3" y="563.7" fill="grey" class="flag">[?]</text><text x="456.3" y="563.7" fill="#999" class="taxonLabel">Alisina</text><text x="410.5" y="551.2" fill="grey" class="flag">[?]</text><text x="432.5" y="551.2" fill="#999" class="taxonLabel">Longtancunella chengjiangensis</text><text x="386.6" y="538.6" fill="grey" class="flag">[?]</text><text x="408.6" y="538.6" fill="#999" class="taxonLabel">Glyptoria</text><text x="410.5" y="513.4" fill="grey" class="flag">[?]</text><text x="432.5" y="513.4" fill="#999" class="taxonLabel">Nisusia sulcata</text><text x="410.5" y="526" fill="grey" class="flag">[?]</text><text x="432.5" y="526" fill="#999" class="taxonLabel">Kutorgina chengjiangensis</text><text x="386.6" y="500.8" fill="grey" class="flag">[?]</text><text x="408.6" y="500.8" fill="#999" class="taxonLabel">Tomteluva perturbata</text><text x="315.1" y="488.2" fill="grey" class="flag">[?]</text><text x="337.1" y="488.2" fill="#999" class="taxonLabel">Salanygolina</text><text x="362.8" y="463.1" fill="#fc8d59" class="flag">[0]</text><text x="384.8" y="463.1" fill="#000" class="taxonLabel">Novocrania</text><text x="362.8" y="475.6" fill="grey" class="flag">[?]</text><text x="384.8" y="475.6" fill="#999" class="taxonLabel">Craniops</text><text x="338.9" y="450.5" fill="grey" class="flag">[?]</text><text x="360.9" y="450.5" fill="#999" class="taxonLabel">Ussunia</text><text x="315.1" y="437.9" fill="grey" class="flag">[?]</text><text x="337.1" y="437.9" fill="#999" class="taxonLabel">Gasconsia</text><text x="482" y="412.7" fill="grey" class="flag">[?]</text><text x="504" y="412.7" fill="#999" class="taxonLabel">Siphonobolus priscus</text><text x="482" y="425.3" fill="grey" class="flag">[?]</text><text x="504" y="425.3" fill="#999" class="taxonLabel">Acanthotretella spinosa</text><text x="458.2" y="400.1" fill="grey" class="flag">[?]</text><text x="480.2" y="400.1" fill="#999" class="taxonLabel">Clupeafumosus socialis</text><text x="434.3" y="387.5" fill="grey" class="flag">[?]</text><text x="456.3" y="387.5" fill="#999" class="taxonLabel">Lingulosacculus</text><text x="410.5" y="375" fill="grey" class="flag">[?]</text><text x="432.5" y="375" fill="#999" class="taxonLabel">Lingulellotreta malongensis</text><text x="410.5" y="349.8" fill="grey" class="flag">[?]</text><text x="432.5" y="349.8" fill="#999" class="taxonLabel">Mummpikia nuda</text><text x="410.5" y="362.4" fill="grey" class="flag">[?]</text><text x="432.5" y="362.4" fill="#999" class="taxonLabel">Pelagodiscus atlanticus</text><text x="362.8" y="337.2" fill="grey" class="flag">[?]</text><text x="384.8" y="337.2" fill="#999" class="taxonLabel">Botsfordia</text><text x="338.9" y="324.6" fill="grey" class="flag">[?]</text><text x="360.9" y="324.6" fill="#999" class="taxonLabel">Eoobolus</text><text x="315.1" y="312" fill="#fc8d59" class="flag">[0]</text><text x="337.1" y="312" fill="#000" class="taxonLabel">Lingula</text><text x="219.7" y="299.5" fill="grey" class="flag">[?]</text><text x="241.7" y="299.5" fill="#999" class="taxonLabel">Yuganotheca elegans</text><text x="315.1" y="274.3" fill="grey" class="flag">[?]</text><text x="337.1" y="274.3" fill="#999" class="taxonLabel">Bactrotheca</text><text x="315.1" y="286.9" fill="grey" class="flag">[?]</text><text x="337.1" y="286.9" fill="#999" class="taxonLabel">Conotheca</text><text x="291.2" y="261.7" fill="grey" class="flag">[?]</text><text x="313.2" y="261.7" fill="#999" class="taxonLabel">Cupitheca holocyclata</text><text x="267.4" y="249.1" fill="grey" class="flag">[?]</text><text x="289.4" y="249.1" fill="#999" class="taxonLabel">Paramicrocornus</text><text x="291.2" y="223.9" fill="grey" class="flag">[?]</text><text x="313.2" y="223.9" fill="#999" class="taxonLabel">Pauxillites</text><text x="291.2" y="236.5" fill="grey" class="flag">[?]</text><text x="313.2" y="236.5" fill="#999" class="taxonLabel">Maxilites</text><text x="267.4" y="211.4" fill="grey" class="flag">[?]</text><text x="289.4" y="211.4" fill="#999" class="taxonLabel">Haplophrentis carinatus</text><text x="219.7" y="198.8" fill="grey" class="flag">[?]</text><text x="241.7" y="198.8" fill="#999" class="taxonLabel">Pedunculotheca diania</text><text x="172" y="186.2" fill="grey" class="flag">[?]</text><text x="194" y="186.2" fill="#999" class="taxonLabel">Paterimitra</text><text x="148.1" y="173.6" fill="grey" class="flag">[?]</text><text x="170.1" y="173.6" fill="#999" class="taxonLabel">Halkieria evangelista</text><text x="124.2" y="161" fill="grey" class="flag">[?]</text><text x="146.2" y="161" fill="#999" class="taxonLabel">Dailyatia</text><text x="124.2" y="135.8" fill="grey" class="flag">[?]</text><text x="146.2" y="135.8" fill="#999" class="taxonLabel">Cotyledion tylodes</text><text x="124.2" y="148.4" fill="grey" class="flag">[?]</text><text x="146.2" y="148.4" fill="#999" class="taxonLabel">Eccentrotheca</text><text x="100.4" y="110.7" fill="grey" class="flag">[?]</text><text x="122.4" y="110.7" fill="#999" class="taxonLabel">Namacalathus</text><text x="100.4" y="123.3" fill="#fc8d59" class="flag">[0]</text><text x="122.4" y="123.3" fill="#000" class="taxonLabel">Phoronis</text><text x="76.6" y="85.5" fill="#91bfdb" class="flag">[1]</text><text x="98.6" y="85.5" fill="#000" class="taxonLabel">Flustra</text><text x="76.6" y="98.1" fill="#91bfdb" class="flag">[1]</text><text x="98.6" y="98.1" fill="#000" class="taxonLabel">Amathia</text><text x="124.2" y="60.3" fill="#91bfdb" class="flag">[1]</text><text x="146.2" y="60.3" fill="#000" class="taxonLabel">Tonicella</text><text x="124.2" y="72.9" fill="#91bfdb" class="flag">[1]</text><text x="146.2" y="72.9" fill="#000" class="taxonLabel">Dentalium</text><text x="100.4" y="47.8" fill="grey" class="flag">[?]</text><text x="122.4" y="47.8" fill="#999" class="taxonLabel">Wiwaxia corrugata</text><text x="100.4" y="22.6" fill="#91bfdb" class="flag">[1]</text><text x="122.4" y="22.6" fill="#000" class="taxonLabel">Sipunculus</text><text x="100.4" y="35.2" fill="grey" class="flag">[?]</text><text x="122.4" y="35.2" fill="#999" class="taxonLabel">Serpula</text><text x="52.7" y="10" fill="#fc8d59" class="flag">[0]</text><text x="74.7" y="10" fill="#000" class="taxonLabel">Loxosomella</text><path d="M5,68.5V23.5H28.9M5,68.5V113.4H28.9" stroke="darkgrey"></path><path d="M28.9,23.5V7H52.7M28.9,113.4V138.1H52.7M52.7,138.1V114H76.6M76.6,114V107.7H100.4M76.6,114V120.3H100.4M52.7,138.1V162.2H76.6M76.6,162.2V139.1H100.4M100.4,139.1V132.8H124.2M100.4,139.1V145.4H124.2M76.6,162.2V185.2H100.4M100.4,185.2V158H124.2M100.4,185.2V212.3H124.2M124.2,212.3V170.6H148.1M124.2,212.3V254H148.1M148.1,254V183.2H172M148.1,254V324.8H172M172,324.8V216.6H195.8M195.8,216.6V195.8H219.7M195.8,216.6V237.5H219.7M219.7,237.5V217.8H243.5M243.5,217.8V208.4H267.4M243.5,217.8V227.2H267.4M267.4,227.2V220.9H291.2M267.4,227.2V233.5H291.2M219.7,237.5V257.1H243.5M243.5,257.1V246.1H267.4M243.5,257.1V268.1H267.4M267.4,268.1V258.7H291.2M267.4,268.1V277.6H291.2M291.2,277.6V271.3H315.1M291.2,277.6V283.9H315.1M172,324.8V433.1H195.8M195.8,433.1V296.5H219.7M195.8,433.1V569.7H219.7M219.7,569.7V481.1H243.5M243.5,481.1V384.3H267.4M267.4,384.3V322.8H291.2M291.2,322.8V309H315.1M291.2,322.8V336.5H315.1M315.1,336.5V321.6H338.9M315.1,336.5V351.3H338.9M338.9,351.3V334.2H362.8M338.9,351.3V368.4H362.8M362.8,368.4V353.1H386.6M386.6,353.1V346.8H410.5M386.6,353.1V359.4H410.5M362.8,368.4V383.8H386.6M386.6,383.8V372H410.5M386.6,383.8V395.6H410.5M410.5,395.6V384.5H434.3M410.5,395.6V406.6H434.3M434.3,406.6V397.1H458.2M434.3,406.6V416H458.2M458.2,416V409.7H482M458.2,416V422.3H482M267.4,384.3V445.9H291.2M291.2,445.9V434.9H315.1M291.2,445.9V456.9H315.1M315.1,456.9V447.5H338.9M315.1,456.9V466.3H338.9M338.9,466.3V460.1H362.8M338.9,466.3V472.6H362.8M243.5,481.1V577.8H267.4M267.4,577.8V525.6H291.2M291.2,525.6V485.2H315.1M291.2,525.6V566H315.1M315.1,566V527.3H338.9M338.9,527.3V507.3H362.8M362.8,507.3V497.8H386.6M362.8,507.3V516.7H386.6M386.6,516.7V510.4H410.5M386.6,516.7V523H410.5M338.9,527.3V547.4H362.8M362.8,547.4V535.6H386.6M362.8,547.4V559.2H386.6M386.6,559.2V548.2H410.5M386.6,559.2V570.2H410.5M410.5,570.2V560.7H434.3M410.5,570.2V579.6H434.3M434.3,579.6V573.3H458.2M434.3,579.6V585.9H458.2M315.1,566V604.8H338.9M338.9,604.8V598.5H362.8M338.9,604.8V611.1H362.8M267.4,577.8V630H291.2M291.2,630V623.7H315.1M291.2,630V636.2H315.1M219.7,569.7V658.3H243.5M243.5,658.3V648.8H267.4M243.5,658.3V667.7H267.4M267.4,667.7V661.4H291.2M267.4,667.7V674H291.2" stroke="#fc8d59"></path><path d="M28.9,23.5V40H52.7M52.7,40V25.9H76.6M76.6,25.9V19.6H100.4M76.6,25.9V32.2H100.4M52.7,40V54.2H76.6M76.6,54.2V44.8H100.4M76.6,54.2V63.6H100.4M100.4,63.6V57.3H124.2M100.4,63.6V69.9H124.2M28.9,113.4V88.8H52.7M52.7,88.8V82.5H76.6M52.7,88.8V95.1H76.6" stroke="#91bfdb"></path><text x="30.9" y="26.5" class="node" fill="#4A6FE3">1</text><text x="54.7" y="43" class="node" fill="#4A6FE3">1</text><text x="78.6" y="28.9" class="node" fill="#4A6FE3">1</text><text x="78.6" y="57.2" class="node" fill="#4A6FE3">1</text><text x="102.4" y="66.6" class="node" fill="#4A6FE3">1</text><text x="30.9" y="116.4" class="node" fill="#4A6FE3">1</text><text x="54.7" y="91.8" class="node" fill="#4A6FE3">1</text><text x="54.7" y="141.1" class="node" fill="#4A6FE3">1</text><text x="78.6" y="117" class="node" fill="#E6B4BD">0.35</text><text x="78.6" y="165.2" class="node" fill="#627DE1">0.94</text><text x="102.4" y="142.1" class="node" fill="#E5A5B1">0.3</text><text x="102.4" y="188.2" class="node" fill="#627DE1">0.94</text><text x="126.2" y="215.3" class="node" fill="#627DE1">0.94</text><text x="150.1" y="257" class="node" fill="#627DE1">0.94</text><text x="174" y="327.8" class="node" fill="#627DE1">0.94</text><text x="197.8" y="219.6" class="node" fill="#627DE1">0.94</text><text x="221.7" y="240.5" class="node" fill="#627DE1">0.94</text><text x="245.5" y="220.8" class="node" fill="#4A6FE3">1</text><text x="269.4" y="230.2" class="node" fill="#4A6FE3">1</text><text x="245.5" y="260.1" class="node" fill="#E2899B">0.21</text><text x="269.4" y="271.1" class="node" fill="#627DE1">0.94</text><text x="293.2" y="280.6" class="node" fill="#4A6FE3">1</text><text x="197.8" y="436.1" class="node" fill="#4A6FE3">1</text><text x="221.7" y="572.7" class="node" fill="#5374E2">0.98</text><text x="245.5" y="484.1" class="node" fill="#627DE1">0.94</text><text x="269.4" y="387.3" class="node" fill="#627DE1">0.94</text><text x="293.2" y="325.8" class="node" fill="#627DE1">0.94</text><text x="317.1" y="339.5" class="node" fill="#667FE1">0.93</text><text x="340.9" y="354.3" class="node" fill="#667FE1">0.93</text><text x="364.8" y="371.4" class="node" fill="#667FE1">0.93</text><text x="388.6" y="356.1" class="node" fill="#667FE1">0.93</text><text x="388.6" y="386.8" class="node" fill="#627DE1">0.94</text><text x="412.5" y="398.6" class="node" fill="#4A6FE3">1</text><text x="436.3" y="409.6" class="node" fill="#E6B7C0">0.36</text><text x="460.2" y="419" class="node" fill="#4A6FE3">1</text><text x="293.2" y="448.9" class="node" fill="#627DE1">0.94</text><text x="317.1" y="459.9" class="node" fill="#4A6FE3">1</text><text x="340.9" y="469.3" class="node" fill="#4A6FE3">1</text><text x="269.4" y="580.8" class="node" fill="#5B78E2">0.96</text><text x="293.2" y="528.6" class="node" fill="#4A6FE3">1</text><text x="317.1" y="569" class="node" fill="#5B78E2">0.96</text><text x="340.9" y="530.3" class="node" fill="#5F7BE1">0.95</text><text x="364.8" y="510.3" class="node" fill="#E59FAC">0.28</text><text x="388.6" y="519.7" class="node" fill="#95A1E2">0.78</text><text x="364.8" y="550.4" class="node" fill="#4A6FE3">1</text><text x="388.6" y="562.2" class="node" fill="#4A6FE3">1</text><text x="412.5" y="573.2" class="node" fill="#4A6FE3">1</text><text x="436.3" y="582.6" class="node" fill="#5B78E2">0.96</text><text x="340.9" y="607.8" class="node" fill="#4A6FE3">1</text><text x="293.2" y="633" class="node" fill="#5B78E2">0.96</text><text x="245.5" y="661.3" class="node" fill="#627DE1">0.94</text><text x="269.4" y="670.7" class="node" fill="#627DE1">0.94</text></svg>
