<svg xmlns="http://www.w3.org/2000/svg" version="1.1" width="682" height="682" class="tree" data-char="180"><text x="678" y="15.4" text-anchor="end" class="stepsLabel">Character adds <tspan class="score">2</tspan> to tree score</text><text x="678" y="27.8" text-anchor="end" class="stepsLabel"><tspan class="score">0</tspan> additional regions</text><text x="678" y="40.2" text-anchor="end" class="stepsLabel">CI = 0.5; Fitch CI = 0.5; Fitch RI = 0</text><text x="678" y="65" text-anchor="end" class="stepsLabel"><tspan dy="16" fill="#34caaf">An optimal tree under:</tspan><tspan x="680" style="font-style:italic" class="thisAn" dy="1.2em">Equal weights</tspan><tspan x="680" style="font-style:italic" class="notThisAn" dy="1.2em">Implied weights, k = 2</tspan><tspan x="680" style="font-style:italic" class="notThisAn" dy="1.2em">IW, k = 3</tspan><tspan x="680" style="font-style:italic" class="notThisAn" dy="1.2em">IW, k = 4.5</tspan><tspan x="680" style="font-style:italic" class="notThisAn" dy="1.2em">IW, k = 7</tspan><tspan x="680" style="font-style:italic" class="notThisAn" dy="1.2em">IW, k = 10.5</tspan><tspan x="680" style="font-style:italic" class="notThisAn" dy="1.2em">IW, k = 16</tspan><tspan x="680" style="font-style:italic" class="notThisAn" dy="1.2em">IW, k = 24</tspan></text><text x="95.9" y="664.4" fill="#fc8d59" class="flag">[0]</text><text x="117.9" y="664.4" fill="#000" class="taxonLabel">Tonicella</text><text x="95.9" y="677" fill="#91bfdb" class="flag">[1]</text><text x="117.9" y="677" fill="#000" class="taxonLabel">Dentalium</text><text x="73.1" y="651.8" fill="grey" class="flag">[?]</text><text x="95.1" y="651.8" fill="#999" class="taxonLabel">Wiwaxia corrugata</text><text x="73.1" y="626.7" fill="#91bfdb" class="flag">[1]</text><text x="95.1" y="626.7" fill="#000" class="taxonLabel">Serpula</text><text x="73.1" y="639.2" fill="#fc8d59" class="flag">[0]</text><text x="95.1" y="639.2" fill="#000" class="taxonLabel">Sipunculus</text><text x="95.9" y="601.5" fill="#fc8d59" class="flag">[0]</text><text x="117.9" y="601.5" fill="#000" class="taxonLabel">Flustra</text><text x="95.9" y="614.1" fill="#fc8d59" class="flag">[0]</text><text x="117.9" y="614.1" fill="#000" class="taxonLabel">Amathia</text><text x="459.3" y="576.3" fill="grey" class="flag">[?]</text><text x="481.3" y="576.3" fill="#999" class="taxonLabel">Orthis</text><text x="459.3" y="588.9" fill="#fc8d59" class="flag">[0]</text><text x="481.3" y="588.9" fill="#000" class="taxonLabel">Terebratulina</text><text x="436.6" y="563.7" fill="grey" class="flag">[?]</text><text x="458.6" y="563.7" fill="#999" class="taxonLabel">Alisina</text><text x="413.9" y="551.2" fill="grey" class="flag">[?]</text><text x="435.9" y="551.2" fill="#999" class="taxonLabel">Longtancunella chengjiangensis</text><text x="391.1" y="538.6" fill="grey" class="flag">[?]</text><text x="413.1" y="538.6" fill="#999" class="taxonLabel">Glyptoria</text><text x="413.9" y="513.4" fill="grey" class="flag">[?]</text><text x="435.9" y="513.4" fill="#999" class="taxonLabel">Tomteluva perturbata</text><text x="413.9" y="526" fill="grey" class="flag">[?]</text><text x="435.9" y="526" fill="#999" class="taxonLabel">Nisusia sulcata</text><text x="391.1" y="500.8" fill="grey" class="flag">[?]</text><text x="413.1" y="500.8" fill="#999" class="taxonLabel">Kutorgina chengjiangensis</text><text x="368.4" y="475.6" fill="grey" class="flag">[?]</text><text x="390.4" y="475.6" fill="#999" class="taxonLabel">Antigonambonites planus</text><text x="368.4" y="488.2" fill="grey" class="flag">[?]</text><text x="390.4" y="488.2" fill="#999" class="taxonLabel">Coolinia pecten</text><text x="323" y="463.1" fill="grey" class="flag">[?]</text><text x="345" y="463.1" fill="#999" class="taxonLabel">Salanygolina</text><text x="323" y="437.9" fill="grey" class="flag">[?]</text><text x="345" y="437.9" fill="#999" class="taxonLabel">Micromitra</text><text x="323" y="450.5" fill="grey" class="flag">[?]</text><text x="345" y="450.5" fill="#999" class="taxonLabel">Askepasma toddense</text><text x="482" y="412.7" fill="grey" class="flag">[?]</text><text x="504" y="412.7" fill="#999" class="taxonLabel">Siphonobolus priscus</text><text x="482" y="425.3" fill="grey" class="flag">[?]</text><text x="504" y="425.3" fill="#999" class="taxonLabel">Acanthotretella spinosa</text><text x="459.3" y="400.1" fill="grey" class="flag">[?]</text><text x="481.3" y="400.1" fill="#999" class="taxonLabel">Clupeafumosus socialis</text><text x="436.6" y="387.5" fill="grey" class="flag">[?]</text><text x="458.6" y="387.5" fill="#999" class="taxonLabel">Lingulosacculus</text><text x="413.9" y="375" fill="grey" class="flag">[?]</text><text x="435.9" y="375" fill="#999" class="taxonLabel">Lingulellotreta malongensis</text><text x="413.9" y="349.8" fill="grey" class="flag">[?]</text><text x="435.9" y="349.8" fill="#999" class="taxonLabel">Pelagodiscus atlanticus</text><text x="413.9" y="362.4" fill="grey" class="flag">[?]</text><text x="435.9" y="362.4" fill="#999" class="taxonLabel">Mummpikia nuda</text><text x="368.4" y="337.2" fill="grey" class="flag">[?]</text><text x="390.4" y="337.2" fill="#999" class="taxonLabel">Botsfordia</text><text x="345.7" y="324.6" fill="grey" class="flag">[?]</text><text x="367.7" y="324.6" fill="#999" class="taxonLabel">Eoobolus</text><text x="323" y="312" fill="#fc8d59" class="flag">[0]</text><text x="345" y="312" fill="#000" class="taxonLabel">Lingula</text><text x="368.4" y="286.9" fill="#fc8d59" class="flag">[0]</text><text x="390.4" y="286.9" fill="#000" class="taxonLabel">Novocrania</text><text x="368.4" y="299.5" fill="grey" class="flag">[?]</text><text x="390.4" y="299.5" fill="#999" class="taxonLabel">Craniops</text><text x="345.7" y="274.3" fill="grey" class="flag">[?]</text><text x="367.7" y="274.3" fill="#999" class="taxonLabel">Ussunia</text><text x="323" y="261.7" fill="grey" class="flag">[?]</text><text x="345" y="261.7" fill="#999" class="taxonLabel">Gasconsia</text><text x="300.3" y="236.5" fill="grey" class="flag">[?]</text><text x="322.3" y="236.5" fill="#999" class="taxonLabel">Mickwitzia muralensis</text><text x="300.3" y="249.1" fill="grey" class="flag">[?]</text><text x="322.3" y="249.1" fill="#999" class="taxonLabel">Heliomedusa orienta</text><text x="277.6" y="223.9" fill="grey" class="flag">[?]</text><text x="299.6" y="223.9" fill="#999" class="taxonLabel">Micrina</text><text x="232.1" y="211.4" fill="grey" class="flag">[?]</text><text x="254.1" y="211.4" fill="#999" class="taxonLabel">Yuganotheca elegans</text><text x="300.3" y="186.2" fill="grey" class="flag">[?]</text><text x="322.3" y="186.2" fill="#999" class="taxonLabel">Conotheca</text><text x="300.3" y="198.8" fill="grey" class="flag">[?]</text><text x="322.3" y="198.8" fill="#999" class="taxonLabel">Bactrotheca</text><text x="277.6" y="173.6" fill="grey" class="flag">[?]</text><text x="299.6" y="173.6" fill="#999" class="taxonLabel">Cupitheca holocyclata</text><text x="323" y="148.4" fill="grey" class="flag">[?]</text><text x="345" y="148.4" fill="#999" class="taxonLabel">Pauxillites</text><text x="323" y="161" fill="grey" class="flag">[?]</text><text x="345" y="161" fill="#999" class="taxonLabel">Maxilites</text><text x="300.3" y="135.8" fill="grey" class="flag">[?]</text><text x="322.3" y="135.8" fill="#999" class="taxonLabel">Haplophrentis carinatus</text><text x="277.6" y="123.3" fill="grey" class="flag">[?]</text><text x="299.6" y="123.3" fill="#999" class="taxonLabel">Paramicrocornus</text><text x="232.1" y="110.7" fill="grey" class="flag">[?]</text><text x="254.1" y="110.7" fill="#999" class="taxonLabel">Pedunculotheca diania</text><text x="186.7" y="98.1" fill="grey" class="flag">[?]</text><text x="208.7" y="98.1" fill="#999" class="taxonLabel">Paterimitra</text><text x="164" y="85.5" fill="grey" class="flag">[?]</text><text x="186" y="85.5" fill="#999" class="taxonLabel">Halkieria evangelista</text><text x="141.3" y="72.9" fill="grey" class="flag">[?]</text><text x="163.3" y="72.9" fill="#999" class="taxonLabel">Dailyatia</text><text x="141.3" y="47.8" fill="grey" class="flag">[?]</text><text x="163.3" y="47.8" fill="#999" class="taxonLabel">Eccentrotheca</text><text x="141.3" y="60.3" fill="grey" class="flag">[?]</text><text x="163.3" y="60.3" fill="#999" class="taxonLabel">Cotyledion tylodes</text><text x="118.6" y="22.6" fill="grey" class="flag">[?]</text><text x="140.6" y="22.6" fill="#999" class="taxonLabel">Namacalathus</text><text x="118.6" y="35.2" fill="#fc8d59" class="flag">[0]</text><text x="140.6" y="35.2" fill="#000" class="taxonLabel">Phoronis</text><text x="50.4" y="10" fill="#fc8d59" class="flag">[0]</text><text x="72.4" y="10" fill="#000" class="taxonLabel">Loxosomella</text><path d="M5,405.5V166.9H27.7M27.7,166.9V7H50.4M27.7,166.9V326.7H50.4M50.4,326.7V48.6H73.1M73.1,48.6V25.9H95.9M95.9,25.9V19.6H118.6M95.9,25.9V32.2H118.6M73.1,48.6V71.4H95.9M95.9,71.4V51H118.6M118.6,51V44.8H141.3M118.6,51V57.3H141.3M95.9,71.4V91.7H118.6M118.6,91.7V69.9H141.3M118.6,91.7V113.5H141.3M141.3,113.5V82.5H164M141.3,113.5V144.6H164M164,144.6V95.1H186.7M164,144.6V194.1H186.7M186.7,194.1V131.7H209.4M209.4,131.7V107.7H232.1M209.4,131.7V155.7H232.1M232.1,155.7V131.3H254.9M254.9,131.3V120.3H277.6M254.9,131.3V142.3H277.6M277.6,142.3V132.8H300.3M277.6,142.3V151.7H300.3M300.3,151.7V145.4H323M300.3,151.7V158H323M232.1,155.7V180H254.9M254.9,180V170.6H277.6M254.9,180V189.5H277.6M277.6,189.5V183.2H300.3M277.6,189.5V195.8H300.3M186.7,194.1V256.5H209.4M209.4,256.5V208.4H232.1M209.4,256.5V304.6H232.1M232.1,304.6V230.4H254.9M254.9,230.4V220.9H277.6M254.9,230.4V239.8H277.6M277.6,239.8V233.5H300.3M277.6,239.8V246.1H300.3M232.1,304.6V378.8H254.9M254.9,378.8V296.2H277.6M277.6,296.2V269.7H300.3M300.3,269.7V258.7H323M300.3,269.7V280.7H323M323,280.7V271.3H345.7M323,280.7V290.2H345.7M345.7,290.2V283.9H368.4M345.7,290.2V296.5H368.4M277.6,296.2V322.8H300.3M300.3,322.8V309H323M300.3,322.8V336.5H323M323,336.5V321.6H345.7M323,336.5V351.3H345.7M345.7,351.3V334.2H368.4M345.7,351.3V368.4H368.4M368.4,368.4V353.1H391.1M391.1,353.1V346.8H413.9M391.1,353.1V359.4H413.9M368.4,368.4V383.8H391.1M391.1,383.8V372H413.9M391.1,383.8V395.6H413.9M413.9,395.6V384.5H436.6M413.9,395.6V406.6H436.6M436.6,406.6V397.1H459.3M436.6,406.6V416H459.3M459.3,416V409.7H482M459.3,416V422.3H482M254.9,378.8V461.4H277.6M277.6,461.4V441.2H300.3M300.3,441.2V434.9H323M300.3,441.2V447.5H323M277.6,461.4V481.6H300.3M300.3,481.6V460.1H323M300.3,481.6V503.1H323M323,503.1V478.9H345.7M345.7,478.9V472.6H368.4M345.7,478.9V485.2H368.4M323,503.1V527.3H345.7M345.7,527.3V507.3H368.4M368.4,507.3V497.8H391.1M368.4,507.3V516.7H391.1M391.1,516.7V510.4H413.9M391.1,516.7V523H413.9M345.7,527.3V547.4H368.4M368.4,547.4V535.6H391.1M368.4,547.4V559.2H391.1M391.1,559.2V548.2H413.9M391.1,559.2V570.2H413.9M413.9,570.2V560.7H436.6M413.9,570.2V579.6H436.6M436.6,579.6V573.3H459.3M436.6,579.6V585.9H459.3M50.4,326.7V604.8H73.1M73.1,604.8V598.5H95.9M73.1,604.8V611.1H95.9M5,405.5V644.1H27.7M27.7,644.1V630H50.4M50.4,630V636.2H73.1M27.7,644.1V658.3H50.4M50.4,658.3V648.8H73.1M50.4,658.3V667.7H73.1M73.1,667.7V661.4H95.9" stroke="#fc8d59"></path><path d="M50.4,630V623.7H73.1M73.1,667.7V674H95.9" stroke="#91bfdb"></path><text x="7" y="408.5" class="node" fill="#4A6FE3">1</text><text x="29.7" y="169.9" class="node" fill="#4A6FE3">1</text><text x="52.4" y="329.7" class="node" fill="#4A6FE3">1</text><text x="75.1" y="51.6" class="node" fill="#4A6FE3">1</text><text x="97.9" y="28.9" class="node" fill="#E6BAC2">0.37</text><text x="97.9" y="74.4" class="node" fill="#7086E1">0.9</text><text x="120.6" y="54" class="node" fill="#E49CAA">0.27</text><text x="120.6" y="94.7" class="node" fill="#A3ADE2">0.73</text><text x="143.3" y="116.5" class="node" fill="#7086E1">0.9</text><text x="166" y="147.6" class="node" fill="#7086E1">0.9</text><text x="188.7" y="197.1" class="node" fill="#A3ADE2">0.73</text><text x="211.4" y="134.7" class="node" fill="#7086E1">0.9</text><text x="234.1" y="158.7" class="node" fill="#7086E1">0.9</text><text x="256.9" y="134.3" class="node" fill="#95A1E2">0.78</text><text x="279.6" y="145.3" class="node" fill="#4A6FE3">1</text><text x="302.3" y="154.7" class="node" fill="#4A6FE3">1</text><text x="256.9" y="183" class="node" fill="#CFD2E3">0.58</text><text x="279.6" y="192.5" class="node" fill="#627DE1">0.94</text><text x="211.4" y="259.5" class="node" fill="#8394E1">0.84</text><text x="234.1" y="307.6" class="node" fill="#CFD2E3">0.58</text><text x="256.9" y="233.4" class="node" fill="#D2D4E3">0.57</text><text x="279.6" y="242.8" class="node" fill="#CFD2E3">0.58</text><text x="256.9" y="381.8" class="node" fill="#D2D4E3">0.57</text><text x="279.6" y="299.2" class="node" fill="#CFD2E3">0.58</text><text x="302.3" y="272.7" class="node" fill="#CFD2E3">0.58</text><text x="325" y="283.7" class="node" fill="#8394E1">0.84</text><text x="347.7" y="293.2" class="node" fill="#8394E1">0.84</text><text x="302.3" y="325.8" class="node" fill="#B1B8E2">0.68</text><text x="325" y="339.5" class="node" fill="#D2D4E3">0.57</text><text x="347.7" y="354.3" class="node" fill="#D2D4E3">0.57</text><text x="370.4" y="371.4" class="node" fill="#D2D4E3">0.57</text><text x="393.1" y="356.1" class="node" fill="#D2D4E3">0.57</text><text x="393.1" y="386.8" class="node" fill="#D2D4E3">0.57</text><text x="415.9" y="398.6" class="node" fill="#7086E1">0.9</text><text x="438.6" y="409.6" class="node" fill="#E59FAC">0.28</text><text x="461.3" y="419" class="node" fill="#4A6FE3">1</text><text x="279.6" y="464.4" class="node" fill="#D2D4E3">0.57</text><text x="302.3" y="444.2" class="node" fill="#7388E1">0.89</text><text x="302.3" y="484.6" class="node" fill="#CFD2E3">0.58</text><text x="325" y="506.1" class="node" fill="#D2D4E3">0.57</text><text x="347.7" y="481.9" class="node" fill="#4A6FE3">1</text><text x="347.7" y="530.3" class="node" fill="#DDDEE3">0.52</text><text x="370.4" y="510.3" class="node" fill="#E59FAC">0.29</text><text x="393.1" y="519.7" class="node" fill="#DC6884">0.11</text><text x="370.4" y="550.4" class="node" fill="#B1B8E2">0.68</text><text x="393.1" y="562.2" class="node" fill="#D2D4E3">0.57</text><text x="415.9" y="573.2" class="node" fill="#4A6FE3">1</text><text x="438.6" y="582.6" class="node" fill="#4F72E2">0.99</text><text x="75.1" y="607.8" class="node" fill="#4A6FE3">1</text><text x="29.7" y="647.1" class="node" fill="#4A6FE3">1</text><text x="52.4" y="633" class="node" fill="#4A6FE3">1</text><text x="52.4" y="661.3" class="node" fill="#4A6FE3">1</text><text x="75.1" y="670.7" class="node" fill="#4A6FE3">1</text></svg>
