<svg xmlns="http://www.w3.org/2000/svg" version="1.1" width="682" height="682" class="tree" data-char="109"><text x="678" y="15.4" text-anchor="end" class="stepsLabel">Character adds <tspan class="score">11</tspan> to tree score</text><text x="678" y="27.8" text-anchor="end" class="stepsLabel"><tspan class="score">0</tspan> additional regions</text><text x="678" y="40.2" text-anchor="end" class="stepsLabel">CI = 0.091; Fitch CI = 0.091; Fitch RI = 0.47</text><text x="678" y="65" text-anchor="end" class="stepsLabel"><tspan dy="16" fill="#34caaf">An optimal tree under:</tspan><tspan x="680" style="font-style:italic" class="notThisAn" dy="1.2em">Equal weights</tspan><tspan x="680" style="font-style:italic" class="thisAn" dy="1.2em">Implied weights, k = 3</tspan><tspan x="680" style="font-style:italic" class="notThisAn" dy="1.2em">IW, k = 4.5</tspan><tspan x="680" style="font-style:italic" class="notThisAn" dy="1.2em">IW, k = 7</tspan><tspan x="680" style="font-style:italic" class="notThisAn" dy="1.2em">IW, k = 10.5</tspan><tspan x="680" style="font-style:italic" class="notThisAn" dy="1.2em">IW, k = 16</tspan><tspan x="680" style="font-style:italic" class="notThisAn" dy="1.2em">IW, k = 24</tspan></text><text x="117.2" y="664.4" fill="#fc8d59" class="flag">[0]</text><text x="139.2" y="664.4" fill="#000" class="taxonLabel">Dentalium</text><text x="117.2" y="677" fill="#fc8d59" class="flag">[0]</text><text x="139.2" y="677" fill="#000" class="taxonLabel">Tonicella</text><text x="89.2" y="651.8" fill="#fc8d59" class="flag">[0]</text><text x="111.2" y="651.8" fill="#000" class="taxonLabel">Wiwaxia corrugata</text><text x="89.2" y="626.7" fill="#fc8d59" class="flag">[0]</text><text x="111.2" y="626.7" fill="#000" class="taxonLabel">Serpula</text><text x="89.2" y="639.2" fill="#fc8d59" class="flag">[0]</text><text x="111.2" y="639.2" fill="#000" class="taxonLabel">Sipunculus</text><text x="117.2" y="601.5" fill="#fc8d59" class="flag">[0]</text><text x="139.2" y="601.5" fill="#000" class="taxonLabel">Amathia</text><text x="117.2" y="614.1" fill="#fc8d59" class="flag">[0]</text><text x="139.2" y="614.1" fill="#000" class="taxonLabel">Flustra</text><text x="369.8" y="576.3" fill="#fc8d59" class="flag">[0]</text><text x="391.8" y="576.3" fill="#000" class="taxonLabel">Maxilites</text><text x="369.8" y="588.9" fill="#91bfdb" class="flag">[1]</text><text x="391.8" y="588.9" fill="#000" class="taxonLabel">Pauxillites</text><text x="341.7" y="563.7" fill="#91bfdb" class="flag">[1]</text><text x="363.7" y="563.7" fill="#000" class="taxonLabel">Haplophrentis carinatus</text><text x="313.6" y="551.2" fill="#91bfdb" class="flag">[1]</text><text x="335.6" y="551.2" fill="#000" class="taxonLabel">Paramicrocornus</text><text x="397.8" y="526" fill="#fc8d59" class="flag">[0]</text><text x="419.8" y="526" fill="#000" class="taxonLabel">Phoronis</text><text x="397.8" y="538.6" fill="#fc8d59" class="flag">[0]</text><text x="419.8" y="538.6" fill="#000" class="taxonLabel">Namacalathus</text><text x="369.8" y="513.4" fill="#fc8d59" class="flag">[0]</text><text x="391.8" y="513.4" fill="#000" class="taxonLabel">Cotyledion tylodes</text><text x="369.8" y="488.2" fill="#fc8d59" class="flag">[0]</text><text x="391.8" y="488.2" fill="#000" class="taxonLabel">Conotheca</text><text x="369.8" y="500.8" fill="#fc8d59" class="flag">[0]</text><text x="391.8" y="500.8" fill="#000" class="taxonLabel">Bactrotheca</text><text x="313.6" y="475.6" fill="#fc8d59" class="flag">[0]</text><text x="335.6" y="475.6" fill="#000" class="taxonLabel">Cupitheca holocyclata</text><text x="257.5" y="463.1" fill="#91bfdb" class="flag">[1]</text><text x="279.5" y="463.1" fill="#000" class="taxonLabel">Pedunculotheca diania</text><text x="482" y="437.9" fill="#91bfdb" class="flag">[1]</text><text x="504" y="437.9" fill="#000" class="taxonLabel">Terebratulina</text><text x="482" y="450.5" fill="#91bfdb" class="flag">[1]</text><text x="504" y="450.5" fill="#000" class="taxonLabel">Alisina</text><text x="453.9" y="425.3" fill="#91bfdb" class="flag">[1]</text><text x="475.9" y="425.3" fill="#000" class="taxonLabel">Orthis</text><text x="425.9" y="412.7" fill="#91bfdb" class="flag">[1]</text><text x="447.9" y="412.7" fill="#000" class="taxonLabel">Longtancunella chengjiangensis</text><text x="397.8" y="400.1" fill="#91bfdb" class="flag">[1]</text><text x="419.8" y="400.1" fill="#000" class="taxonLabel">Glyptoria</text><text x="369.8" y="387.5" fill="#fc8d59" class="flag">[0]</text><text x="391.8" y="387.5" fill="#000" class="taxonLabel">Tomteluva perturbata</text><text x="369.8" y="362.4" fill="#91bfdb" class="flag">[1]</text><text x="391.8" y="362.4" fill="#000" class="taxonLabel">Kutorgina chengjiangensis</text><text x="369.8" y="375" fill="#91bfdb" class="flag">[1]</text><text x="391.8" y="375" fill="#000" class="taxonLabel">Nisusia sulcata</text><text x="369.8" y="337.2" fill="#91bfdb" class="flag">[1]</text><text x="391.8" y="337.2" fill="#000" class="taxonLabel">Coolinia pecten</text><text x="369.8" y="349.8" fill="#91bfdb" class="flag">[1]</text><text x="391.8" y="349.8" fill="#000" class="taxonLabel">Antigonambonites planus</text><text x="341.7" y="324.6" fill="#fc8d59" class="flag">[0]</text><text x="363.7" y="324.6" fill="#000" class="taxonLabel">Salanygolina</text><text x="397.8" y="299.5" fill="#fc8d59" class="flag">[0]</text><text x="419.8" y="299.5" fill="#000" class="taxonLabel">Pelagodiscus atlanticus</text><text x="397.8" y="312" fill="#fc8d59" class="flag">[0]</text><text x="419.8" y="312" fill="#000" class="taxonLabel">Mickwitzia muralensis</text><text x="453.9" y="274.3" fill="#fc8d59" class="flag">[0]</text><text x="475.9" y="274.3" fill="#000" class="taxonLabel">Botsfordia</text><text x="453.9" y="286.9" fill="#91bfdb" class="flag">[1]</text><text x="475.9" y="286.9" fill="#000" class="taxonLabel">Mummpikia nuda</text><text x="425.9" y="261.7" fill="#fc8d59" class="flag">[0]</text><text x="447.9" y="261.7" fill="#000" class="taxonLabel">Eoobolus</text><text x="482" y="236.5" fill="grey" class="flag">[?]</text><text x="504" y="236.5" fill="#999" class="taxonLabel">Siphonobolus priscus</text><text x="482" y="249.1" fill="#91bfdb" class="flag">[1]</text><text x="504" y="249.1" fill="#000" class="taxonLabel">Acanthotretella spinosa</text><text x="482" y="211.4" fill="grey" class="flag">[?]</text><text x="504" y="211.4" fill="#999" class="taxonLabel">Lingulosacculus</text><text x="482" y="223.9" fill="#91bfdb" class="flag">[1]</text><text x="504" y="223.9" fill="#000" class="taxonLabel">Clupeafumosus socialis</text><text x="453.9" y="186.2" fill="#fc8d59" class="flag">[0]</text><text x="475.9" y="186.2" fill="#000" class="taxonLabel">Lingula</text><text x="453.9" y="198.8" fill="#fc8d59" class="flag">[0]</text><text x="475.9" y="198.8" fill="#000" class="taxonLabel">Lingulellotreta malongensis</text><text x="482" y="161" fill="#fc8d59" class="flag">[0]</text><text x="504" y="161" fill="#000" class="taxonLabel">Novocrania</text><text x="482" y="173.6" fill="#fc8d59" class="flag">[0]</text><text x="504" y="173.6" fill="#000" class="taxonLabel">Craniops</text><text x="453.9" y="148.4" fill="#fc8d59" class="flag">[0]</text><text x="475.9" y="148.4" fill="#000" class="taxonLabel">Ussunia</text><text x="425.9" y="135.8" fill="#fc8d59" class="flag">[0]</text><text x="447.9" y="135.8" fill="#000" class="taxonLabel">Heliomedusa orienta</text><text x="397.8" y="123.3" fill="#91bfdb" class="flag">[1]</text><text x="419.8" y="123.3" fill="#000" class="taxonLabel">Gasconsia</text><text x="369.8" y="110.7" fill="#91bfdb" class="flag">[1]</text><text x="391.8" y="110.7" fill="#000" class="taxonLabel">Micromitra</text><text x="313.6" y="98.1" fill="#91bfdb" class="flag">[1]</text><text x="335.6" y="98.1" fill="#000" class="taxonLabel">Askepasma toddense</text><text x="285.6" y="72.9" fill="#fc8d59" class="flag">[0]</text><text x="307.6" y="72.9" fill="#000" class="taxonLabel">Yuganotheca elegans</text><text x="285.6" y="85.5" fill="#fc8d59" class="flag">[0]</text><text x="307.6" y="85.5" fill="#000" class="taxonLabel">Micrina</text><text x="201.4" y="60.3" fill="#fc8d59" class="flag">[0]</text><text x="223.4" y="60.3" fill="#000" class="taxonLabel">Paterimitra</text><text x="173.4" y="47.8" fill="#91bfdb" class="flag">[1]</text><text x="195.4" y="47.8" fill="#000" class="taxonLabel">Halkieria evangelista</text><text x="145.3" y="35.2" fill="#fc8d59" class="flag">[0]</text><text x="167.3" y="35.2" fill="#000" class="taxonLabel">Dailyatia</text><text x="117.2" y="22.6" fill="#fc8d59" class="flag">[0]</text><text x="139.2" y="22.6" fill="#000" class="taxonLabel">Eccentrotheca</text><text x="61.1" y="10" fill="#fc8d59" class="flag">[0]</text><text x="83.1" y="10" fill="#000" class="taxonLabel">Loxosomella</text><path d="M5,405.3V166.6H33.1M33.1,166.6V7H61.1M33.1,166.6V326.1H61.1M61.1,326.1V47.5H89.2M89.2,47.5V19.6H117.2M89.2,47.5V75.4H117.2M117.2,75.4V32.2H145.3M117.2,75.4V118.7H145.3M173.4,192.6V57.3H201.4M229.5,163.4V76.2H257.5M257.5,76.2V69.9H285.6M257.5,76.2V82.5H285.6M369.8,132.1V143.9H397.8M397.8,143.9V132.8H425.9M397.8,143.9V154.9H425.9M425.9,154.9V145.4H453.9M425.9,154.9V164.3H453.9M453.9,164.3V158H482M453.9,164.3V170.6H482M313.6,195.2V270.5H341.7M341.7,270.5V238.2H369.8M369.8,238.2V208.4H397.8M397.8,208.4V189.5H425.9M425.9,189.5V183.2H453.9M425.9,189.5V195.8H453.9M369.8,238.2V268.1H397.8M397.8,268.1V258.7H425.9M397.8,268.1V277.6H425.9M425.9,277.6V271.3H453.9M341.7,270.5V302.7H369.8M369.8,302.7V296.5H397.8M369.8,302.7V309H397.8M313.6,331.1V321.6H341.7M341.7,396.7V384.5H369.8M257.5,524.2V489.2H285.6M285.6,489.2V472.6H313.6M285.6,489.2V505.7H313.6M313.6,505.7V491.5H341.7M341.7,491.5V485.2H369.8M341.7,491.5V497.8H369.8M313.6,505.7V519.8H341.7M341.7,519.8V510.4H369.8M341.7,519.8V529.3H369.8M369.8,529.3V523H397.8M369.8,529.3V535.6H397.8M341.7,579.6V573.3H369.8M61.1,326.1V604.8H89.2M89.2,604.8V598.5H117.2M89.2,604.8V611.1H117.2M5,405.3V644.1H33.1M33.1,644.1V630H61.1M61.1,630V623.7H89.2M61.1,630V636.2H89.2M33.1,644.1V658.3H61.1M61.1,658.3V648.8H89.2M61.1,658.3V667.7H89.2M89.2,667.7V661.4H117.2M89.2,667.7V674H117.2" stroke="#fc8d59"></path><path d="M145.3,118.7V44.8H173.4M229.5,163.4V250.6H257.5M257.5,250.6V145.1H285.6M285.6,145.1V95.1H313.6M285.6,145.1V195.2H313.6M313.6,195.2V119.9H341.7M341.7,119.9V107.7H369.8M341.7,119.9V132.1H369.8M369.8,132.1V120.3H397.8M397.8,208.4V227.2H425.9M425.9,227.2V214.7H453.9M453.9,214.7V208.4H482M453.9,214.7V220.9H482M425.9,227.2V239.8H453.9M453.9,239.8V233.5H482M453.9,239.8V246.1H482M425.9,277.6V283.9H453.9M257.5,250.6V356.1H285.6M285.6,356.1V331.1H313.6M313.6,331.1V340.5H341.7M341.7,340.5V334.2H369.8M341.7,340.5V346.8H369.8M285.6,356.1V381.2H313.6M313.6,381.2V365.7H341.7M341.7,365.7V359.4H369.8M341.7,365.7V372H369.8M313.6,381.2V396.7H341.7M341.7,396.7V408.9H369.8M369.8,408.9V397.1H397.8M369.8,408.9V420.7H397.8M397.8,420.7V409.7H425.9M397.8,420.7V431.7H425.9M425.9,431.7V422.3H453.9M425.9,431.7V441.2H453.9M453.9,441.2V434.9H482M453.9,441.2V447.5H482M229.5,492.1V460.1H257.5M257.5,524.2V559.2H285.6M285.6,559.2V548.2H313.6M285.6,559.2V570.2H313.6M313.6,570.2V560.7H341.7M313.6,570.2V579.6H341.7M341.7,579.6V585.9H369.8" stroke="#91bfdb"></path><path d="M145.3,118.7V192.6H173.4M173.4,192.6V327.8H201.4M201.4,327.8V163.4H229.5M201.4,327.8V492.1H229.5M229.5,492.1V524.2H257.5" stroke="darkgrey"></path><text x="35.1" y="169.6" class="node" fill="#4A6FE3">1</text><text x="63.1" y="329.1" class="node" fill="#4A6FE3">1</text><text x="91.2" y="50.5" class="node" fill="red">NA</text><text x="119.2" y="78.4" class="node" fill="red">NA</text><text x="147.3" y="121.7" class="node" fill="red">NA</text><text x="175.4" y="195.6" class="node" fill="red">NA</text><text x="203.4" y="330.8" class="node" fill="red">NA</text><text x="231.5" y="166.4" class="node" fill="red">NA</text><text x="259.5" y="79.2" class="node" fill="red">NA</text><text x="259.5" y="253.6" class="node" fill="red">NA</text><text x="287.6" y="148.1" class="node" fill="red">NA</text><text x="315.6" y="198.2" class="node" fill="red">NA</text><text x="343.7" y="122.9" class="node" fill="red">NA</text><text x="371.8" y="135.1" class="node" fill="red">NA</text><text x="399.8" y="146.9" class="node" fill="red">NA</text><text x="427.9" y="157.9" class="node" fill="red">NA</text><text x="455.9" y="167.3" class="node" fill="red">NA</text><text x="343.7" y="273.5" class="node" fill="red">NA</text><text x="371.8" y="241.2" class="node" fill="red">NA</text><text x="399.8" y="211.4" class="node" fill="red">NA</text><text x="427.9" y="192.5" class="node" fill="red">NA</text><text x="427.9" y="230.2" class="node" fill="red">NA</text><text x="455.9" y="217.7" class="node" fill="#D75376">0.05</text><text x="455.9" y="242.8" class="node" fill="red">NA</text><text x="399.8" y="271.1" class="node" fill="#E5A5B1">0.3</text><text x="427.9" y="280.6" class="node" fill="red">NA</text><text x="371.8" y="305.7" class="node" fill="red">NA</text><text x="287.6" y="359.1" class="node" fill="red">NA</text><text x="315.6" y="334.1" class="node" fill="red">NA</text><text x="343.7" y="343.5" class="node" fill="red">NA</text><text x="315.6" y="384.2" class="node" fill="red">NA</text><text x="343.7" y="368.7" class="node" fill="#4A6FE3">1</text><text x="343.7" y="399.7" class="node" fill="red">NA</text><text x="371.8" y="411.9" class="node" fill="red">NA</text><text x="399.8" y="423.7" class="node" fill="red">NA</text><text x="427.9" y="434.7" class="node" fill="red">NA</text><text x="455.9" y="444.2" class="node" fill="red">NA</text><text x="231.5" y="495.1" class="node" fill="red">NA</text><text x="259.5" y="527.2" class="node" fill="red">NA</text><text x="287.6" y="492.2" class="node" fill="red">NA</text><text x="315.6" y="508.7" class="node" fill="red">NA</text><text x="343.7" y="494.5" class="node" fill="red">NA</text><text x="343.7" y="522.8" class="node" fill="red">NA</text><text x="371.8" y="532.3" class="node" fill="#4A6FE3">1</text><text x="287.6" y="562.2" class="node" fill="red">NA</text><text x="315.6" y="573.2" class="node" fill="red">NA</text><text x="343.7" y="582.6" class="node" fill="red">NA</text><text x="91.2" y="607.8" class="node" fill="red">NA</text><text x="35.1" y="647.1" class="node" fill="red">NA</text><text x="63.1" y="633" class="node" fill="#4A6FE3">1</text><text x="63.1" y="661.3" class="node" fill="red">NA</text><text x="91.2" y="670.7" class="node" fill="red">NA</text></svg>
