<svg xmlns="http://www.w3.org/2000/svg" version="1.1" width="682" height="555" class="tree" data-char="28">
 <text x="678" y="14.7" text-anchor="end" class="stepsLabel">Character adds <tspan class="score">3</tspan> to tree score</text>
 <text x="678" y="26.4" text-anchor="end" class="stepsLabel"><tspan class="score">0</tspan> additional regions</text>
 <text x="678" y="38.1" text-anchor="end" class="stepsLabel">CI = 0.33; Fitch CI = 0.33; Fitch RI = 0.85</text>
 <text x="678" y="61.5" text-anchor="end" class="stepsLabel"><tspan dy="16">An optimal tree under:</tspan><tspan x="680" style="font-style:italic" class="notThisAn" dy="1.2em">Equal weights</tspan><tspan x="680" style="font-style:italic" class="notThisAn" dy="1.2em">Implied weights, k = 2</tspan><tspan x="680" style="font-style:italic" class="notThisAn" dy="1.2em">IW, k = 3</tspan><tspan x="680" style="font-style:italic" class="notThisAn" dy="1.2em">IW, k = 4.5</tspan><tspan x="680" style="font-style:italic" class="notThisAn" dy="1.2em">IW, k = 7</tspan><tspan x="680" style="font-style:italic" class="thisAn" dy="1.2em">IW, k = 10.5</tspan><tspan x="680" style="font-style:italic" class="thisAn" dy="1.2em">IW, k = 16</tspan><tspan x="680" style="font-style:italic" class="thisAn" dy="1.2em">IW, k = 24</tspan></text>
 <text x="100.4" y="538" fill="#fc8d59" class="flag">[0]</text>
 <text x="122.4" y="538" fill="#111" class="taxonLabel">Wiwaxia corrugata</text>
 <text x="100.4" y="550" fill="#fc8d59" class="flag">[0]</text>
 <text x="122.4" y="550" fill="#111" class="taxonLabel">Tonicella</text>
 <text x="76.6" y="526" fill="#fc8d59" class="flag">[0]</text>
 <text x="98.6" y="526" fill="#111" class="taxonLabel">Dentalium</text>
 <text x="76.6" y="502" fill="#fc8d59" class="flag">[0]</text>
 <text x="98.6" y="502" fill="#111" class="taxonLabel">Serpula</text>
 <text x="76.6" y="514" fill="#fc8d59" class="flag">[0]</text>
 <text x="98.6" y="514" fill="#111" class="taxonLabel">Sipunculus</text>
 <text x="434.3" y="466" fill="#91bfdb" class="flag">[1]</text>
 <text x="456.3" y="466" fill="#111" class="taxonLabel">Siphonobolus priscus</text>
 <text x="434.3" y="478" fill="#91bfdb" class="flag">[1]</text>
 <text x="456.3" y="478" fill="#111" class="taxonLabel">Acanthotretella spinosa</text>
 <text x="410.5" y="454" fill="#91bfdb" class="flag">[1]</text>
 <text x="432.5" y="454" fill="#111" class="taxonLabel">Clupeafumosus socialis</text>
 <text x="410.5" y="430" fill="#91bfdb" class="flag">[1]</text>
 <text x="432.5" y="430" fill="#111" class="taxonLabel">Lingulellotreta malongensis</text>
 <text x="410.5" y="442" fill="#91bfdb" class="flag">[1]</text>
 <text x="432.5" y="442" fill="#111" class="taxonLabel">Lingulosacculus</text>
 <text x="362.8" y="418" fill="#91bfdb" class="flag">[1]</text>
 <text x="384.8" y="418" fill="#111" class="taxonLabel">Botsfordia</text>
 <text x="338.9" y="406" fill="grey" class="flag">[?]</text>
 <text x="360.9" y="406" fill="#111" class="taxonLabel">Mummpikia nuda</text>
 <text x="315.1" y="394" fill="#91bfdb" class="flag">[1]</text>
 <text x="337.1" y="394" fill="#111" class="taxonLabel">Eoobolus</text>
 <text x="291.2" y="382" fill="#fc8d59" class="flag">[0]</text>
 <text x="313.2" y="382" fill="#111" class="taxonLabel">Lingula</text>
 <text x="315.1" y="358" fill="#91bfdb" class="flag">[1]</text>
 <text x="337.1" y="358" fill="#111" class="taxonLabel">Pelagodiscus atlanticus</text>
 <text x="315.1" y="370" fill="grey" class="flag">[?]</text>
 <text x="337.1" y="370" fill="#111" class="taxonLabel">Mickwitzia muralensis</text>
 <text x="291.2" y="346" fill="grey" class="flag">[?]</text>
 <text x="313.2" y="346" fill="#111" class="taxonLabel">Micrina</text>
 <text x="338.9" y="322" fill="grey" class="flag">[?]</text>
 <text x="360.9" y="322" fill="#111" class="taxonLabel">Craniops</text>
 <text x="338.9" y="334" fill="grey" class="flag">[?]</text>
 <text x="360.9" y="334" fill="#111" class="taxonLabel">Novocrania</text>
 <text x="315.1" y="310" fill="grey" class="flag">[?]</text>
 <text x="337.1" y="310" fill="#111" class="taxonLabel">Ussunia</text>
 <text x="291.2" y="298" fill="grey" class="flag">[?]</text>
 <text x="313.2" y="298" fill="#111" class="taxonLabel">Gasconsia</text>
 <text x="362.8" y="274" fill="grey" class="flag">[?]</text>
 <text x="384.8" y="274" fill="#111" class="taxonLabel">Tomteluva perturbata</text>
 <text x="362.8" y="286" fill="#fc8d59" class="flag">[0]</text>
 <text x="384.8" y="286" fill="#111" class="taxonLabel">Yuganotheca elegans</text>
 <text x="338.9" y="262" fill="grey" class="flag">[?]</text>
 <text x="360.9" y="262" fill="#111" class="taxonLabel">Salanygolina</text>
 <text x="362.8" y="238" fill="grey" class="flag">[?]</text>
 <text x="384.8" y="238" fill="#111" class="taxonLabel">Coolinia pecten</text>
 <text x="362.8" y="250" fill="grey" class="flag">[?]</text>
 <text x="384.8" y="250" fill="#111" class="taxonLabel">Antigonambonites planus</text>
 <text x="482" y="214" fill="#91bfdb" class="flag">[1]</text>
 <text x="504" y="214" fill="#111" class="taxonLabel">Terebratulina</text>
 <text x="482" y="226" fill="#91bfdb" class="flag">[1]</text>
 <text x="504" y="226" fill="#111" class="taxonLabel">Orthis</text>
 <text x="458.2" y="202" fill="#91bfdb" class="flag">[1]</text>
 <text x="480.2" y="202" fill="#111" class="taxonLabel">Alisina</text>
 <text x="434.3" y="190" fill="#91bfdb" class="flag">[1]</text>
 <text x="456.3" y="190" fill="#111" class="taxonLabel">Longtancunella chengjiangensis</text>
 <text x="410.5" y="178" fill="#91bfdb" class="flag">[1]</text>
 <text x="432.5" y="178" fill="#111" class="taxonLabel">Glyptoria</text>
 <text x="386.6" y="166" fill="grey" class="flag">[?]</text>
 <text x="408.6" y="166" fill="#111" class="taxonLabel">Nisusia sulcata</text>
 <text x="362.8" y="154" fill="grey" class="flag">[?]</text>
 <text x="384.8" y="154" fill="#111" class="taxonLabel">Kutorgina chengjiangensis</text>
 <text x="315.1" y="130" fill="#91bfdb" class="flag">[1]</text>
 <text x="337.1" y="130" fill="#111" class="taxonLabel">Askepasma toddense</text>
 <text x="315.1" y="142" fill="#91bfdb" class="flag">[1]</text>
 <text x="337.1" y="142" fill="#111" class="taxonLabel">Micromitra</text>
 <text x="267.4" y="106" fill="grey" class="flag">[?]</text>
 <text x="289.4" y="106" fill="#111" class="taxonLabel">Pedunculotheca diania</text>
 <text x="267.4" y="118" fill="grey" class="flag">[?]</text>
 <text x="289.4" y="118" fill="#111" class="taxonLabel">Haplophrentis carinatus</text>
 <text x="243.5" y="94" fill="grey" class="flag">[?]</text>
 <text x="265.5" y="94" fill="#111" class="taxonLabel">Paterimitra</text>
 <text x="195.8" y="82" fill="#91bfdb" class="flag">[1]</text>
 <text x="217.8" y="82" fill="#111" class="taxonLabel">Heliomedusa orienta</text>
 <text x="195.8" y="58" fill="#fc8d59" class="flag">[0]</text>
 <text x="217.8" y="58" fill="#111" class="taxonLabel">Dailyatia</text>
 <text x="195.8" y="70" fill="#fc8d59" class="flag">[0]</text>
 <text x="217.8" y="70" fill="#111" class="taxonLabel">Halkieria evangelista</text>
 <text x="148.1" y="46" fill="#fc8d59" class="flag">[0]</text>
 <text x="170.1" y="46" fill="#111" class="taxonLabel">Cotyledion tylodes</text>
 <text x="124.2" y="34" fill="#fc8d59" class="flag">[0]</text>
 <text x="146.2" y="34" fill="#111" class="taxonLabel">Eccentrotheca</text>
 <text x="100.4" y="22" fill="#fc8d59" class="flag">[0]</text>
 <text x="122.4" y="22" fill="#111" class="taxonLabel">Phoronis</text>
 <text x="76.6" y="10" fill="#fc8d59" class="flag">[0]</text>
 <text x="98.6" y="10" fill="#111" class="taxonLabel">Flustra</text>
 <text x="52.7" y="490" fill="#fc8d59" class="flag">[0]</text>
 <text x="74.7" y="490" fill="#111" class="taxonLabel">Loxosomella</text>
 <path d="M5,386.3V254.1H28.9M28.9,254.1V21.1H52.7M52.7,21.1V7H76.6M52.7,21.1V35.3H76.6M76.6,35.3V19H100.4M76.6,35.3V51.6H100.4M100.4,51.6V31H124.2M100.4,51.6V72.1H124.2M124.2,72.1V43H148.1M124.2,72.1V101.3H148.1M148.1,101.3V61H172M172,61V55H195.8M172,61V67H195.8M338.9,277V283H362.8M267.4,391.5V379H291.2M28.9,254.1V487H52.7M5,386.3V518.5H28.9M28.9,518.5V505H52.7M52.7,505V499H76.6M52.7,505V511H76.6M28.9,518.5V532H52.7M52.7,532V523H76.6M52.7,532V541H76.6M76.6,541V535H100.4M76.6,541V547H100.4" stroke="#fc8d59"></path>
 <path d="M148.1,101.3V141.6H172M172,141.6V79H195.8M172,141.6V204.1H195.8M195.8,204.1V100H219.7M219.7,100V91H243.5M219.7,100V109H243.5M243.5,109V103H267.4M243.5,109V115H267.4M195.8,204.1V308.2H219.7M219.7,308.2V244.7H243.5M243.5,244.7V184H267.4M267.4,184V133H291.2M291.2,133V127H315.1M291.2,133V139H315.1M267.4,184V235H291.2M291.2,235V201.9H315.1M315.1,201.9V162.8H338.9M338.9,162.8V151H362.8M338.9,162.8V174.6H362.8M362.8,174.6V163H386.6M362.8,174.6V186.2H386.6M386.6,186.2V175H410.5M386.6,186.2V197.5H410.5M410.5,197.5V187H434.3M410.5,197.5V208H434.3M434.3,208V199H458.2M434.3,208V217H458.2M458.2,217V211H482M458.2,217V223H482M315.1,201.9V241H338.9M338.9,241V235H362.8M338.9,241V247H362.8M291.2,235V268H315.1M243.5,244.7V305.5H267.4M267.4,305.5V295H291.2M267.4,305.5V316H291.2M291.2,316V307H315.1M291.2,316V325H315.1M315.1,325V319H338.9M315.1,325V331H338.9M219.7,308.2V371.7H243.5M243.5,371.7V352H267.4M267.4,352V343H291.2M267.4,352V361H291.2M291.2,361V355H315.1M291.2,361V367H315.1M243.5,371.7V391.5H267.4M267.4,391.5V403.9H291.2M291.2,403.9V391H315.1M291.2,403.9V416.9H315.1M315.1,416.9V403H338.9M315.1,416.9V430.8H338.9M338.9,430.8V415H362.8M338.9,430.8V446.5H362.8M362.8,446.5V433H386.6M386.6,433V427H410.5M386.6,433V439H410.5M362.8,446.5V460H386.6M386.6,460V451H410.5M386.6,460V469H410.5M410.5,469V463H434.3M410.5,469V475H434.3" stroke="#91bfdb"></path>
 <path d="M315.1,268V259H338.9M315.1,268V277H338.9M338.9,277V271H362.8" stroke="darkgrey"></path>
 <text x="7" y="389.3" class="node" fill="#4A6FE3">1</text>
 <text x="30.9" y="257.1" class="node" fill="#8998E1">0.82</text>
 <text x="54.7" y="24.1" class="node" fill="#8998E1">0.82</text>
 <text x="78.6" y="38.3" class="node" fill="#8998E1">0.82</text>
 <text x="102.4" y="54.6" class="node" fill="#8998E1">0.82</text>
 <text x="126.2" y="75.1" class="node" fill="#E498A7">0.26</text>
 <text x="150.1" y="104.3" class="node" fill="#9DA8E2">0.75</text>
 <text x="174" y="64" class="node" fill="#667FE1">0.93</text>
 <text x="174" y="144.6" class="node" fill="#4A6FE3">1</text>
 <text x="197.8" y="207.1" class="node" fill="#5776E2">0.97</text>
 <text x="221.7" y="103" class="node" fill="#8C9BE1">0.81</text>
 <text x="245.5" y="112" class="node" fill="#4A6FE3">1</text>
 <text x="221.7" y="311.2" class="node" fill="#5776E2">0.97</text>
 <text x="245.5" y="247.7" class="node" fill="#4A6FE3">1</text>
 <text x="269.4" y="187" class="node" fill="#7A8DE1">0.87</text>
 <text x="293.2" y="136" class="node" fill="#4A6FE3">1</text>
 <text x="293.2" y="238" class="node" fill="#5776E2">0.97</text>
 <text x="317.1" y="204.9" class="node" fill="#4A6FE3">1</text>
 <text x="340.9" y="165.8" class="node" fill="#ABB4E2">0.7</text>
 <text x="364.8" y="177.6" class="node" fill="#ABB4E2">0.7</text>
 <text x="388.6" y="189.2" class="node" fill="#ABB4E2">0.7</text>
 <text x="412.5" y="200.5" class="node" fill="#ABB4E2">0.7</text>
 <text x="436.3" y="211" class="node" fill="#4A6FE3">1</text>
 <text x="460.2" y="220" class="node" fill="#768BE1">0.88</text>
 <text x="340.9" y="244" class="node" fill="#4A6FE3">1</text>
 <text x="317.1" y="271" class="node" fill="#9AA6E2">0.76</text>
 <text x="340.9" y="280" class="node" fill="#5B78E2">0.96</text>
 <text x="269.4" y="308.5" class="node" fill="#4A6FE3">1</text>
 <text x="293.2" y="319" class="node" fill="#4A6FE3">1</text>
 <text x="317.1" y="328" class="node" fill="#4A6FE3">1</text>
 <text x="245.5" y="374.7" class="node" fill="#8C9BE1">0.81</text>
 <text x="269.4" y="355" class="node" fill="#8C9BE1">0.81</text>
 <text x="293.2" y="364" class="node" fill="#8998E1">0.82</text>
 <text x="269.4" y="394.5" class="node" fill="#8998E1">0.82</text>
 <text x="293.2" y="406.9" class="node" fill="#8998E1">0.82</text>
 <text x="317.1" y="419.9" class="node" fill="#8C9BE1">0.81</text>
 <text x="340.9" y="433.8" class="node" fill="#8C9BE1">0.81</text>
 <text x="364.8" y="449.5" class="node" fill="#8C9BE1">0.81</text>
 <text x="388.6" y="436" class="node" fill="#E17F94">0.18</text>
 <text x="388.6" y="463" class="node" fill="#D5D7E3">0.55</text>
 <text x="412.5" y="472" class="node" fill="#4A6FE3">1</text>
 <text x="30.9" y="521.5" class="node" fill="#8998E1">0.82</text>
 <text x="54.7" y="508" class="node" fill="#4A6FE3">1</text>
 <text x="54.7" y="535" class="node" fill="#8998E1">0.82</text>
 <text x="78.6" y="544" class="node" fill="#8998E1">0.82</text></svg>
