<svg xmlns="http://www.w3.org/2000/svg" version="1.1" width="682" height="612" class="tree" data-char="88"><text x="678" y="15.4" text-anchor="end" class="stepsLabel">Character adds <tspan class="score">3</tspan> to tree score</text><text x="678" y="27.8" text-anchor="end" class="stepsLabel"><tspan class="score">0</tspan> additional regions</text><text x="678" y="40.2" text-anchor="end" class="stepsLabel">CI = 0.33; Fitch CI = 0.33; Fitch RI = 0.78</text><text x="678" y="65" text-anchor="end" class="stepsLabel"><tspan dy="16">An optimal tree under:</tspan><tspan x="680" style="font-style:italic" class="thisAn" dy="1.2em">Equal weights</tspan><tspan x="680" style="font-style:italic" class="notThisAn" dy="1.2em">Implied weights, k = 2</tspan><tspan x="680" style="font-style:italic" class="notThisAn" dy="1.2em">IW, k = 3</tspan><tspan x="680" style="font-style:italic" class="notThisAn" dy="1.2em">IW, k = 4.5</tspan><tspan x="680" style="font-style:italic" class="notThisAn" dy="1.2em">IW, k = 7</tspan><tspan x="680" style="font-style:italic" class="notThisAn" dy="1.2em">IW, k = 10.5</tspan><tspan x="680" style="font-style:italic" class="notThisAn" dy="1.2em">IW, k = 16</tspan><tspan x="680" style="font-style:italic" class="notThisAn" dy="1.2em">IW, k = 24</tspan></text><text x="76.6" y="594.3" fill="#fc8d59" class="flag">[0]</text><text x="98.6" y="594.3" fill="#000" class="taxonLabel">Serpula</text><text x="76.6" y="607" fill="#fc8d59" class="flag">[0]</text><text x="98.6" y="607" fill="#000" class="taxonLabel">Sipunculus</text><text x="100.4" y="568.9" fill="#fc8d59" class="flag">[0]</text><text x="122.4" y="568.9" fill="#000" class="taxonLabel">Dentalium</text><text x="100.4" y="581.6" fill="#91bfdb" class="flag">[1]</text><text x="122.4" y="581.6" fill="#000" class="taxonLabel">Tonicella</text><text x="76.6" y="556.2" fill="#fc8d59" class="flag">[0]</text><text x="98.6" y="556.2" fill="#000" class="taxonLabel">Wiwaxia corrugata</text><text x="195.8" y="518.1" fill="#fc8d59" class="flag">[0]</text><text x="217.8" y="518.1" fill="#000" class="taxonLabel">Haplophrentis carinatus</text><text x="195.8" y="530.8" fill="#fc8d59" class="flag">[0]</text><text x="217.8" y="530.8" fill="#000" class="taxonLabel">Pedunculotheca diania</text><text x="291.2" y="492.7" fill="#fc8d59" class="flag">[0]</text><text x="313.2" y="492.7" fill="#000" class="taxonLabel">Novocrania</text><text x="291.2" y="505.4" fill="#fc8d59" class="flag">[0]</text><text x="313.2" y="505.4" fill="#000" class="taxonLabel">Craniops</text><text x="267.4" y="480" fill="#fc8d59" class="flag">[0]</text><text x="289.4" y="480" fill="#000" class="taxonLabel">Heliomedusa orienta</text><text x="291.2" y="454.6" fill="#fc8d59" class="flag">[0]</text><text x="313.2" y="454.6" fill="#000" class="taxonLabel">Mickwitzia muralensis</text><text x="291.2" y="467.3" fill="#fc8d59" class="flag">[0]</text><text x="313.2" y="467.3" fill="#000" class="taxonLabel">Pelagodiscus atlanticus</text><text x="482" y="429.2" fill="#fc8d59" class="flag">[0]</text><text x="504" y="429.2" fill="#000" class="taxonLabel">Siphonobolus priscus</text><text x="482" y="441.9" fill="#fc8d59" class="flag">[0]</text><text x="504" y="441.9" fill="#000" class="taxonLabel">Acanthotretella spinosa</text><text x="458.2" y="416.5" fill="#fc8d59" class="flag">[0]</text><text x="480.2" y="416.5" fill="#000" class="taxonLabel">Clupeafumosus socialis</text><text x="434.3" y="403.8" fill="#fc8d59" class="flag">[0]</text><text x="456.3" y="403.8" fill="#000" class="taxonLabel">Lingulosacculus</text><text x="410.5" y="391.1" fill="#fc8d59" class="flag">[0]</text><text x="432.5" y="391.1" fill="#000" class="taxonLabel">Lingulellotreta malongensis</text><text x="386.6" y="378.4" fill="#fc8d59" class="flag">[0]</text><text x="408.6" y="378.4" fill="#000" class="taxonLabel">Botsfordia</text><text x="362.8" y="365.7" fill="grey" class="flag">[?]</text><text x="384.8" y="365.7" fill="#999" class="taxonLabel">Mummpikia nuda</text><text x="338.9" y="353" fill="#fc8d59" class="flag">[0]</text><text x="360.9" y="353" fill="#000" class="taxonLabel">Eoobolus</text><text x="315.1" y="340.3" fill="#fc8d59" class="flag">[0]</text><text x="337.1" y="340.3" fill="#000" class="taxonLabel">Lingula</text><text x="291.2" y="327.6" fill="#fc8d59" class="flag">[0]</text><text x="313.2" y="327.6" fill="#000" class="taxonLabel">Micrina</text><text x="267.4" y="302.1" fill="#fc8d59" class="flag">[0]</text><text x="289.4" y="302.1" fill="#000" class="taxonLabel">Micromitra</text><text x="267.4" y="314.9" fill="#fc8d59" class="flag">[0]</text><text x="289.4" y="314.9" fill="#000" class="taxonLabel">Askepasma toddense</text><text x="362.8" y="276.7" fill="#91bfdb" class="flag">[1]</text><text x="384.8" y="276.7" fill="#000" class="taxonLabel">Antigonambonites planus</text><text x="362.8" y="289.4" fill="#91bfdb" class="flag">[1]</text><text x="384.8" y="289.4" fill="#000" class="taxonLabel">Coolinia pecten</text><text x="458.2" y="251.3" fill="#fc8d59" class="flag">[0]</text><text x="480.2" y="251.3" fill="#000" class="taxonLabel">Terebratulina</text><text x="458.2" y="264" fill="#91bfdb" class="flag">[1]</text><text x="480.2" y="264" fill="#000" class="taxonLabel">Alisina</text><text x="434.3" y="238.6" fill="#91bfdb" class="flag">[1]</text><text x="456.3" y="238.6" fill="#000" class="taxonLabel">Orthis</text><text x="410.5" y="225.9" fill="#91bfdb" class="flag">[1]</text><text x="432.5" y="225.9" fill="#000" class="taxonLabel">Glyptoria</text><text x="386.6" y="213.2" fill="#91bfdb" class="flag">[1]</text><text x="408.6" y="213.2" fill="#000" class="taxonLabel">Nisusia sulcata</text><text x="362.8" y="200.5" fill="#91bfdb" class="flag">[1]</text><text x="384.8" y="200.5" fill="#000" class="taxonLabel">Kutorgina chengjiangensis</text><text x="315.1" y="187.8" fill="grey" class="flag">[?]</text><text x="337.1" y="187.8" fill="#999" class="taxonLabel">Longtancunella chengjiangensis</text><text x="315.1" y="162.4" fill="grey" class="flag">[?]</text><text x="337.1" y="162.4" fill="#999" class="taxonLabel">Yuganotheca elegans</text><text x="315.1" y="175.1" fill="#91bfdb" class="flag">[1]</text><text x="337.1" y="175.1" fill="#000" class="taxonLabel">Tomteluva perturbata</text><text x="267.4" y="149.7" fill="#91bfdb" class="flag">[1]</text><text x="289.4" y="149.7" fill="#000" class="taxonLabel">Salanygolina</text><text x="195.8" y="137" fill="#fc8d59" class="flag">[0]</text><text x="217.8" y="137" fill="#000" class="taxonLabel">Paterimitra</text><text x="148.1" y="124.3" fill="#fc8d59" class="flag">[0]</text><text x="170.1" y="124.3" fill="#000" class="taxonLabel">Gasconsia</text><text x="195.8" y="98.9" fill="#fc8d59" class="flag">[0]</text><text x="217.8" y="98.9" fill="#000" class="taxonLabel">Eccentrotheca</text><text x="195.8" y="111.6" fill="#fc8d59" class="flag">[0]</text><text x="217.8" y="111.6" fill="#000" class="taxonLabel">Dailyatia</text><text x="219.7" y="73.5" fill="#fc8d59" class="flag">[0]</text><text x="241.7" y="73.5" fill="#000" class="taxonLabel">Namacalathus</text><text x="219.7" y="86.2" fill="#fc8d59" class="flag">[0]</text><text x="241.7" y="86.2" fill="#000" class="taxonLabel">Phoronis</text><text x="195.8" y="60.8" fill="#fc8d59" class="flag">[0]</text><text x="217.8" y="60.8" fill="#000" class="taxonLabel">Cotyledion tylodes</text><text x="148.1" y="48.1" fill="#fc8d59" class="flag">[0]</text><text x="170.1" y="48.1" fill="#000" class="taxonLabel">Halkieria evangelista</text><text x="100.4" y="35.4" fill="#fc8d59" class="flag">[0]</text><text x="122.4" y="35.4" fill="#000" class="taxonLabel">Ussunia</text><text x="100.4" y="10" fill="#fc8d59" class="flag">[0]</text><text x="122.4" y="10" fill="#000" class="taxonLabel">Flustra</text><text x="100.4" y="22.7" fill="#fc8d59" class="flag">[0]</text><text x="122.4" y="22.7" fill="#000" class="taxonLabel">Amathia</text><text x="52.7" y="543.5" fill="#fc8d59" class="flag">[0]</text><text x="74.7" y="543.5" fill="#000" class="taxonLabel">Loxosomella</text><path d="M5,438.8V297.3H28.9M28.9,297.3V54.2H52.7M52.7,54.2V13.4H76.6M76.6,13.4V7H100.4M76.6,13.4V19.7H100.4M52.7,54.2V95H76.6M76.6,95V32.4H100.4M76.6,95V157.6H100.4M100.4,157.6V65H124.2M124.2,65V45.1H148.1M124.2,65V84.8H148.1M148.1,84.8V67.3H172M172,67.3V57.8H195.8M172,67.3V76.9H195.8M195.8,76.9V70.5H219.7M195.8,76.9V83.2H219.7M148.1,84.8V102.3H172M172,102.3V95.9H195.8M172,102.3V108.6H195.8M100.4,157.6V250.2H124.2M124.2,250.2V121.3H148.1M124.2,250.2V379.1H148.1M148.1,379.1V236.8H172M172,236.8V134H195.8M172,236.8V339.5H195.8M195.8,339.5V237H219.7M434.3,254.7V248.3H458.2M219.7,237V305.5H243.5M243.5,305.5V299.1H267.4M243.5,305.5V311.9H267.4M195.8,339.5V442H219.7M219.7,442V397.6H243.5M243.5,397.6V337.2H267.4M267.4,337.2V324.6H291.2M267.4,337.2V349.9H291.2M291.2,349.9V337.3H315.1M291.2,349.9V362.6H315.1M315.1,362.6V350H338.9M315.1,362.6V375.2H338.9M338.9,375.2V362.7H362.8M338.9,375.2V387.7H362.8M362.8,387.7V375.4H386.6M362.8,387.7V400H386.6M386.6,400V388.1H410.5M386.6,400V411.9H410.5M410.5,411.9V400.8H434.3M410.5,411.9V423H434.3M434.3,423V413.5H458.2M434.3,423V432.5H458.2M458.2,432.5V426.2H482M458.2,432.5V438.9H482M243.5,397.6V457.9H267.4M267.4,457.9V451.6H291.2M267.4,457.9V464.3H291.2M219.7,442V486.5H243.5M243.5,486.5V477H267.4M243.5,486.5V496H267.4M267.4,496V489.7H291.2M267.4,496V502.4H291.2M148.1,379.1V521.4H172M172,521.4V515.1H195.8M172,521.4V527.8H195.8M28.9,297.3V540.5H52.7M5,438.8V580.2H28.9M28.9,580.2V562.7H52.7M52.7,562.7V553.2H76.6M52.7,562.7V572.2H76.6M76.6,572.2V565.9H100.4M28.9,580.2V597.6H52.7M52.7,597.6V591.3H76.6M52.7,597.6V604H76.6" stroke="#fc8d59"></path><path d="M219.7,237V168.5H243.5M243.5,168.5V146.7H267.4M243.5,168.5V190.3H267.4M267.4,190.3V165.8H291.2M291.2,165.8V159.4H315.1M291.2,165.8V172.1H315.1M267.4,190.3V214.9H291.2M291.2,214.9V184.8H315.1M291.2,214.9V245H315.1M315.1,245V209.8H338.9M338.9,209.8V197.5H362.8M338.9,209.8V222.1H362.8M362.8,222.1V210.2H386.6M362.8,222.1V234.1H386.6M386.6,234.1V222.9H410.5M386.6,234.1V245.2H410.5M410.5,245.2V235.6H434.3M410.5,245.2V254.7H434.3M434.3,254.7V261H458.2M315.1,245V280.1H338.9M338.9,280.1V273.7H362.8M338.9,280.1V286.4H362.8M76.6,572.2V578.6H100.4" stroke="#91bfdb"></path><text x="7" y="441.8" class="node" fill="#4A6FE3">1</text><text x="30.9" y="300.3" class="node" fill="#4A6FE3">1</text><text x="54.7" y="57.2" class="node" fill="#97A4E2">0.77</text><text x="78.6" y="16.4" class="node" fill="#4A6FE3">1</text><text x="78.6" y="98" class="node" fill="#97A4E2">0.77</text><text x="102.4" y="160.6" class="node" fill="#DADBE3">0.53</text><text x="126.2" y="68" class="node" fill="#DADBE3">0.53</text><text x="150.1" y="87.8" class="node" fill="#DADBE3">0.53</text><text x="174" y="70.3" class="node" fill="#E5A5B1">0.3</text><text x="197.8" y="79.9" class="node" fill="#4A6FE3">1</text><text x="174" y="105.3" class="node" fill="#DB6581">0.1</text><text x="126.2" y="253.2" class="node" fill="#DADBE3">0.53</text><text x="150.1" y="382.1" class="node" fill="#DADBE3">0.53</text><text x="174" y="239.8" class="node" fill="#DF798F">0.16</text><text x="197.8" y="342.5" class="node" fill="#DADBE3">0.53</text><text x="221.7" y="240" class="node" fill="#667FE1">0.93</text><text x="245.5" y="171.5" class="node" fill="#667FE1">0.93</text><text x="269.4" y="193.3" class="node" fill="#E5D0D3">0.44</text><text x="293.2" y="168.8" class="node" fill="#9AA6E2">0.76</text><text x="293.2" y="217.9" class="node" fill="#7A8DE1">0.87</text><text x="317.1" y="248" class="node" fill="#E6C4C9">0.4</text><text x="340.9" y="212.8" class="node" fill="#E6C4C9">0.4</text><text x="364.8" y="225.1" class="node" fill="#E6C4C9">0.4</text><text x="388.6" y="237.1" class="node" fill="#E6C4C9">0.4</text><text x="412.5" y="248.2" class="node" fill="#4A6FE3">1</text><text x="436.3" y="257.7" class="node" fill="#E07C92">0.17</text><text x="340.9" y="283.1" class="node" fill="#4A6FE3">1</text><text x="245.5" y="308.5" class="node" fill="#4A6FE3">1</text><text x="221.7" y="445" class="node" fill="#DADBE3">0.53</text><text x="245.5" y="400.6" class="node" fill="#DADBE3">0.53</text><text x="269.4" y="340.2" class="node" fill="#E6B7C0">0.36</text><text x="293.2" y="352.9" class="node" fill="#9DA8E2">0.75</text><text x="317.1" y="365.6" class="node" fill="#C1C6E3">0.62</text><text x="340.9" y="378.2" class="node" fill="#DADBE3">0.53</text><text x="364.8" y="390.7" class="node" fill="#DADBE3">0.53</text><text x="388.6" y="403" class="node" fill="#DADBE3">0.53</text><text x="412.5" y="414.9" class="node" fill="#8F9DE1">0.8</text><text x="436.3" y="426" class="node" fill="#E5D0D3">0.44</text><text x="460.2" y="435.5" class="node" fill="#4A6FE3">1</text><text x="269.4" y="460.9" class="node" fill="#9DA8E2">0.75</text><text x="245.5" y="489.5" class="node" fill="#DADBE3">0.53</text><text x="269.4" y="499" class="node" fill="#4A6FE3">1</text><text x="174" y="524.4" class="node" fill="#4A6FE3">1</text><text x="30.9" y="583.2" class="node" fill="#4A6FE3">1</text><text x="54.7" y="565.7" class="node" fill="#4A6FE3">1</text><text x="78.6" y="575.2" class="node" fill="#7A8DE1">0.87</text><text x="54.7" y="600.6" class="node" fill="#4A6FE3">1</text></svg>
