<svg xmlns="http://www.w3.org/2000/svg" version="1.1" width="682" height="612" class="tree" data-char="66"><text x="678" y="15.4" text-anchor="end" class="stepsLabel">Character adds <tspan class="score">3</tspan> to tree score</text><text x="678" y="27.8" text-anchor="end" class="stepsLabel"><tspan class="score">0</tspan> additional regions</text><text x="678" y="40.2" text-anchor="end" class="stepsLabel">CI = 0.33; Fitch CI = 0.33; Fitch RI = 0.78</text><text x="678" y="65" text-anchor="end" class="stepsLabel"><tspan dy="16">An optimal tree under:</tspan><tspan x="680" style="font-style:italic" class="thisAn" dy="1.2em">Equal weights</tspan><tspan x="680" style="font-style:italic" class="notThisAn" dy="1.2em">Implied weights, k = 2</tspan><tspan x="680" style="font-style:italic" class="notThisAn" dy="1.2em">IW, k = 3</tspan><tspan x="680" style="font-style:italic" class="notThisAn" dy="1.2em">IW, k = 4.5</tspan><tspan x="680" style="font-style:italic" class="notThisAn" dy="1.2em">IW, k = 7</tspan><tspan x="680" style="font-style:italic" class="notThisAn" dy="1.2em">IW, k = 10.5</tspan><tspan x="680" style="font-style:italic" class="notThisAn" dy="1.2em">IW, k = 16</tspan><tspan x="680" style="font-style:italic" class="notThisAn" dy="1.2em">IW, k = 24</tspan></text><text x="100.4" y="594.3" fill="#91bfdb" class="flag">[1]</text><text x="122.4" y="594.3" fill="#000" class="taxonLabel">Tonicella</text><text x="100.4" y="607" fill="#fc8d59" class="flag">[0]</text><text x="122.4" y="607" fill="#000" class="taxonLabel">Dentalium</text><text x="76.6" y="581.6" fill="#fc8d59" class="flag">[0]</text><text x="98.6" y="581.6" fill="#000" class="taxonLabel">Wiwaxia corrugata</text><text x="76.6" y="556.2" fill="#fc8d59" class="flag">[0]</text><text x="98.6" y="556.2" fill="#000" class="taxonLabel">Serpula</text><text x="76.6" y="568.9" fill="#fc8d59" class="flag">[0]</text><text x="98.6" y="568.9" fill="#000" class="taxonLabel">Sipunculus</text><text x="315.1" y="518.1" fill="#fc8d59" class="flag">[0]</text><text x="337.1" y="518.1" fill="#000" class="taxonLabel">Craniops</text><text x="315.1" y="530.8" fill="#fc8d59" class="flag">[0]</text><text x="337.1" y="530.8" fill="#000" class="taxonLabel">Novocrania</text><text x="291.2" y="505.4" fill="#fc8d59" class="flag">[0]</text><text x="313.2" y="505.4" fill="#000" class="taxonLabel">Ussunia</text><text x="267.4" y="492.7" fill="#fc8d59" class="flag">[0]</text><text x="289.4" y="492.7" fill="#000" class="taxonLabel">Gasconsia</text><text x="386.6" y="467.3" fill="#fc8d59" class="flag">[0]</text><text x="408.6" y="467.3" fill="#000" class="taxonLabel">Acanthotretella spinosa</text><text x="386.6" y="480" fill="#fc8d59" class="flag">[0]</text><text x="408.6" y="480" fill="#000" class="taxonLabel">Siphonobolus priscus</text><text x="386.6" y="441.9" fill="#fc8d59" class="flag">[0]</text><text x="408.6" y="441.9" fill="#000" class="taxonLabel">Clupeafumosus socialis</text><text x="386.6" y="454.6" fill="#fc8d59" class="flag">[0]</text><text x="408.6" y="454.6" fill="#000" class="taxonLabel">Lingulosacculus</text><text x="338.9" y="429.2" fill="#fc8d59" class="flag">[0]</text><text x="360.9" y="429.2" fill="#000" class="taxonLabel">Lingulellotreta malongensis</text><text x="315.1" y="416.5" fill="#fc8d59" class="flag">[0]</text><text x="337.1" y="416.5" fill="#000" class="taxonLabel">Lingula</text><text x="291.2" y="403.8" fill="#fc8d59" class="flag">[0]</text><text x="313.2" y="403.8" fill="#000" class="taxonLabel">Pelagodiscus atlanticus</text><text x="315.1" y="378.4" fill="#fc8d59" class="flag">[0]</text><text x="337.1" y="378.4" fill="#000" class="taxonLabel">Botsfordia</text><text x="315.1" y="391.1" fill="#fc8d59" class="flag">[0]</text><text x="337.1" y="391.1" fill="#000" class="taxonLabel">Mummpikia nuda</text><text x="291.2" y="365.7" fill="#fc8d59" class="flag">[0]</text><text x="313.2" y="365.7" fill="#000" class="taxonLabel">Eoobolus</text><text x="482" y="340.3" fill="#91bfdb" class="flag">[1]</text><text x="504" y="340.3" fill="#000" class="taxonLabel">Orthis</text><text x="482" y="353" fill="#91bfdb" class="flag">[1]</text><text x="504" y="353" fill="#000" class="taxonLabel">Terebratulina</text><text x="458.2" y="327.6" fill="#91bfdb" class="flag">[1]</text><text x="480.2" y="327.6" fill="#000" class="taxonLabel">Alisina</text><text x="434.3" y="314.9" fill="grey" class="flag">[?]</text><text x="456.3" y="314.9" fill="#999" class="taxonLabel">Longtancunella chengjiangensis</text><text x="410.5" y="302.1" fill="#91bfdb" class="flag">[1]</text><text x="432.5" y="302.1" fill="#000" class="taxonLabel">Glyptoria</text><text x="386.6" y="289.4" fill="#91bfdb" class="flag">[1]</text><text x="408.6" y="289.4" fill="#000" class="taxonLabel">Nisusia sulcata</text><text x="362.8" y="276.7" fill="#91bfdb" class="flag">[1]</text><text x="384.8" y="276.7" fill="#000" class="taxonLabel">Kutorgina chengjiangensis</text><text x="362.8" y="251.3" fill="#91bfdb" class="flag">[1]</text><text x="384.8" y="251.3" fill="#000" class="taxonLabel">Antigonambonites planus</text><text x="362.8" y="264" fill="#91bfdb" class="flag">[1]</text><text x="384.8" y="264" fill="#000" class="taxonLabel">Coolinia pecten</text><text x="315.1" y="238.6" fill="#fc8d59" class="flag">[0]</text><text x="337.1" y="238.6" fill="#000" class="taxonLabel">Tomteluva perturbata</text><text x="291.2" y="225.9" fill="grey" class="flag">[?]</text><text x="313.2" y="225.9" fill="#999" class="taxonLabel">Yuganotheca elegans</text><text x="267.4" y="213.2" fill="#fc8d59" class="flag">[0]</text><text x="289.4" y="213.2" fill="#000" class="taxonLabel">Salanygolina</text><text x="267.4" y="187.8" fill="#fc8d59" class="flag">[0]</text><text x="289.4" y="187.8" fill="#000" class="taxonLabel">Askepasma toddense</text><text x="267.4" y="200.5" fill="#fc8d59" class="flag">[0]</text><text x="289.4" y="200.5" fill="#000" class="taxonLabel">Micromitra</text><text x="219.7" y="162.4" fill="#91bfdb" class="flag">[1]</text><text x="241.7" y="162.4" fill="#000" class="taxonLabel">Micrina</text><text x="219.7" y="175.1" fill="#fc8d59" class="flag">[0]</text><text x="241.7" y="175.1" fill="#000" class="taxonLabel">Mickwitzia muralensis</text><text x="219.7" y="137" fill="#fc8d59" class="flag">[0]</text><text x="241.7" y="137" fill="#000" class="taxonLabel">Haplophrentis carinatus</text><text x="219.7" y="149.7" fill="#fc8d59" class="flag">[0]</text><text x="241.7" y="149.7" fill="#000" class="taxonLabel">Pedunculotheca diania</text><text x="195.8" y="124.3" fill="#fc8d59" class="flag">[0]</text><text x="217.8" y="124.3" fill="#000" class="taxonLabel">Paterimitra</text><text x="148.1" y="111.6" fill="#fc8d59" class="flag">[0]</text><text x="170.1" y="111.6" fill="#000" class="taxonLabel">Heliomedusa orienta</text><text x="124.2" y="98.9" fill="#fc8d59" class="flag">[0]</text><text x="146.2" y="98.9" fill="#000" class="taxonLabel">Halkieria evangelista</text><text x="172" y="73.5" fill="#fc8d59" class="flag">[0]</text><text x="194" y="73.5" fill="#000" class="taxonLabel">Namacalathus</text><text x="172" y="86.2" fill="#fc8d59" class="flag">[0]</text><text x="194" y="86.2" fill="#000" class="taxonLabel">Phoronis</text><text x="172" y="48.1" fill="#fc8d59" class="flag">[0]</text><text x="194" y="48.1" fill="#000" class="taxonLabel">Cotyledion tylodes</text><text x="172" y="60.8" fill="#fc8d59" class="flag">[0]</text><text x="194" y="60.8" fill="#000" class="taxonLabel">Dailyatia</text><text x="124.2" y="35.4" fill="#fc8d59" class="flag">[0]</text><text x="146.2" y="35.4" fill="#000" class="taxonLabel">Eccentrotheca</text><text x="100.4" y="10" fill="#fc8d59" class="flag">[0]</text><text x="122.4" y="10" fill="#000" class="taxonLabel">Flustra</text><text x="100.4" y="22.7" fill="#fc8d59" class="flag">[0]</text><text x="122.4" y="22.7" fill="#000" class="taxonLabel">Amathia</text><text x="52.7" y="543.5" fill="#fc8d59" class="flag">[0]</text><text x="74.7" y="543.5" fill="#000" class="taxonLabel">Loxosomella</text><path d="M5,434.4V294.9H28.9M28.9,294.9V49.3H52.7M52.7,49.3V13.4H76.6M76.6,13.4V7H100.4M76.6,13.4V19.7H100.4M52.7,49.3V85.3H76.6M76.6,85.3V48.3H100.4M100.4,48.3V32.4H124.2M100.4,48.3V64.2H124.2M124.2,64.2V51.5H148.1M148.1,51.5V45.1H172M148.1,51.5V57.8H172M124.2,64.2V76.9H148.1M148.1,76.9V70.5H172M148.1,76.9V83.2H172M76.6,85.3V122.3H100.4M100.4,122.3V95.9H124.2M100.4,122.3V148.7H124.2M124.2,148.7V108.6H148.1M124.2,148.7V188.7H148.1M148.1,188.7V130.8H172M172,130.8V121.3H195.8M172,130.8V140.4H195.8M195.8,140.4V134H219.7M195.8,140.4V146.7H219.7M148.1,188.7V246.6H172M172,246.6V165.8H195.8M195.8,165.8V172.1H219.7M172,246.6V327.3H195.8M195.8,327.3V207.6H219.7M219.7,207.6V191.2H243.5M243.5,191.2V184.8H267.4M243.5,191.2V197.5H267.4M219.7,207.6V224.1H243.5M243.5,224.1V210.2H267.4M243.5,224.1V238H267.4M267.4,238V222.9H291.2M267.4,238V253.1H291.2M291.2,253.1V235.6H315.1M195.8,327.3V447H219.7M219.7,447V393.2H243.5M243.5,393.2V372.2H267.4M267.4,372.2V362.7H291.2M267.4,372.2V381.7H291.2M291.2,381.7V375.4H315.1M291.2,381.7V388.1H315.1M243.5,393.2V414.3H267.4M267.4,414.3V400.8H291.2M267.4,414.3V427.8H291.2M291.2,427.8V413.5H315.1M291.2,427.8V442H315.1M315.1,442V426.2H338.9M315.1,442V457.9H338.9M338.9,457.9V445.2H362.8M362.8,445.2V438.9H386.6M362.8,445.2V451.6H386.6M338.9,457.9V470.6H362.8M362.8,470.6V464.3H386.6M362.8,470.6V477H386.6M219.7,447V500.8H243.5M243.5,500.8V489.7H267.4M243.5,500.8V511.9H267.4M267.4,511.9V502.4H291.2M267.4,511.9V521.4H291.2M291.2,521.4V515.1H315.1M291.2,521.4V527.8H315.1M28.9,294.9V540.5H52.7M5,434.4V573.8H28.9M28.9,573.8V559.5H52.7M52.7,559.5V553.2H76.6M52.7,559.5V565.9H76.6M28.9,573.8V588.1H52.7M52.7,588.1V578.6H76.6M52.7,588.1V597.6H76.6M76.6,597.6V604H100.4" stroke="#fc8d59"></path><path d="M195.8,165.8V159.4H219.7M291.2,253.1V270.5H315.1M315.1,270.5V254.7H338.9M338.9,254.7V248.3H362.8M338.9,254.7V261H362.8M315.1,270.5V286.2H338.9M338.9,286.2V273.7H362.8M338.9,286.2V298.8H362.8M362.8,298.8V286.4H386.6M362.8,298.8V311.1H386.6M386.6,311.1V299.1H410.5M386.6,311.1V323H410.5M410.5,323V311.9H434.3M410.5,323V334.1H434.3M434.3,334.1V324.6H458.2M434.3,334.1V343.6H458.2M458.2,343.6V337.3H482M458.2,343.6V350H482M76.6,597.6V591.3H100.4" stroke="#91bfdb"></path><text x="7" y="437.4" class="node" fill="#4A6FE3">1</text><text x="30.9" y="297.9" class="node" fill="#4A6FE3">1</text><text x="54.7" y="52.3" class="node" fill="#4A6FE3">1</text><text x="78.6" y="16.4" class="node" fill="#4A6FE3">1</text><text x="78.6" y="88.3" class="node" fill="#4A6FE3">1</text><text x="102.4" y="51.3" class="node" fill="#E49CAA">0.27</text><text x="126.2" y="67.2" class="node" fill="#E38FA0">0.23</text><text x="150.1" y="54.5" class="node" fill="#DC6884">0.11</text><text x="150.1" y="79.9" class="node" fill="#4A6FE3">1</text><text x="102.4" y="125.3" class="node" fill="#D2D4E3">0.56</text><text x="126.2" y="151.7" class="node" fill="#4A6FE3">1</text><text x="150.1" y="191.7" class="node" fill="#E3DCDD">0.48</text><text x="174" y="133.8" class="node" fill="#C7CBE3">0.6</text><text x="197.8" y="143.4" class="node" fill="#4A6FE3">1</text><text x="174" y="249.6" class="node" fill="#E4D6D8">0.46</text><text x="197.8" y="168.8" class="node" fill="#DA5E7D">0.08</text><text x="197.8" y="330.3" class="node" fill="#DB6581">0.1</text><text x="221.7" y="210.6" class="node" fill="#4A6FE3">1</text><text x="245.5" y="194.2" class="node" fill="#4A6FE3">1</text><text x="245.5" y="227.1" class="node" fill="#4A6FE3">1</text><text x="269.4" y="241" class="node" fill="#E6BAC2">0.37</text><text x="293.2" y="256.1" class="node" fill="#E6B7C0">0.36</text><text x="317.1" y="273.5" class="node" fill="#A8B1E2">0.71</text><text x="340.9" y="257.7" class="node" fill="#4A6FE3">1</text><text x="340.9" y="289.2" class="node" fill="#A8B1E2">0.71</text><text x="364.8" y="301.8" class="node" fill="#A8B1E2">0.71</text><text x="388.6" y="314.1" class="node" fill="#4A6FE3">1</text><text x="412.5" y="326" class="node" fill="#4A6FE3">1</text><text x="436.3" y="337.1" class="node" fill="#4A6FE3">1</text><text x="460.2" y="346.6" class="node" fill="#4A6FE3">1</text><text x="221.7" y="450" class="node" fill="#C1C6E3">0.62</text><text x="245.5" y="396.2" class="node" fill="#C1C6E3">0.62</text><text x="269.4" y="375.2" class="node" fill="#E6C1C7">0.39</text><text x="293.2" y="384.7" class="node" fill="#E6C1C7">0.39</text><text x="269.4" y="417.3" class="node" fill="#D3446C">0.01</text><text x="293.2" y="430.8" class="node" fill="#E6C1C7">0.39</text><text x="317.1" y="445" class="node" fill="#C1C6E3">0.62</text><text x="340.9" y="460.9" class="node" fill="#8394E1">0.84</text><text x="364.8" y="448.2" class="node" fill="#E6ABB6">0.32</text><text x="364.8" y="473.6" class="node" fill="#4A6FE3">1</text><text x="245.5" y="503.8" class="node" fill="#4A6FE3">1</text><text x="269.4" y="514.9" class="node" fill="#4A6FE3">1</text><text x="293.2" y="524.4" class="node" fill="#4A6FE3">1</text><text x="30.9" y="576.8" class="node" fill="#4A6FE3">1</text><text x="54.7" y="562.5" class="node" fill="#4A6FE3">1</text><text x="54.7" y="591.1" class="node" fill="#4A6FE3">1</text><text x="78.6" y="600.6" class="node" fill="#C1C6E3">0.62</text></svg>
