<svg xmlns="http://www.w3.org/2000/svg" version="1.1" width="682" height="612" class="tree" data-char="14"><text x="678" y="16" text-anchor="end" class="stepsLabel">Character adds <tspan class="score">2</tspan> to tree score</text><text x="678" y="29" text-anchor="end" class="stepsLabel"><tspan class="score">0</tspan> additional regions</text><text x="678" y="42" text-anchor="end" class="stepsLabel">CI = 0.5; Fitch CI = 0.5; Fitch RI = 0.67</text><text x="678" y="68" text-anchor="end" class="stepsLabel"><tspan dy="16">An optimal tree under:</tspan><tspan x="680" style="font-style:italic" class="thisAn" dy="1.2em">Equal weights</tspan><tspan x="680" style="font-style:italic" class="notThisAn" dy="1.2em">Implied weights, k = 2</tspan><tspan x="680" style="font-style:italic" class="notThisAn" dy="1.2em">IW, k = 3</tspan><tspan x="680" style="font-style:italic" class="notThisAn" dy="1.2em">IW, k = 4.5</tspan><tspan x="680" style="font-style:italic" class="notThisAn" dy="1.2em">IW, k = 7</tspan><tspan x="680" style="font-style:italic" class="notThisAn" dy="1.2em">IW, k = 10.5</tspan><tspan x="680" style="font-style:italic" class="notThisAn" dy="1.2em">IW, k = 16</tspan><tspan x="680" style="font-style:italic" class="notThisAn" dy="1.2em">IW, k = 24</tspan></text><text x="95.9" y="593.7" fill="#fc8d59" class="flag">[0]</text><text x="117.9" y="593.7" fill="#000" class="taxonLabel">Dentalium</text><text x="95.9" y="607" fill="#91bfdb" class="flag">[1]</text><text x="117.9" y="607" fill="#000" class="taxonLabel">Tonicella</text><text x="73.1" y="580.5" fill="#91bfdb" class="flag">[1]</text><text x="95.1" y="580.5" fill="#000" class="taxonLabel">Wiwaxia corrugata</text><text x="73.1" y="553.9" fill="#91bfdb" class="flag">[1]</text><text x="95.1" y="553.9" fill="#000" class="taxonLabel">Sipunculus</text><text x="73.1" y="567.2" fill="#91bfdb" class="flag">[1]</text><text x="95.1" y="567.2" fill="#000" class="taxonLabel">Serpula</text><text x="323" y="514.1" fill="#fc8d59" class="flag">[0]</text><text x="345" y="514.1" fill="#000" class="taxonLabel">Novocrania</text><text x="323" y="527.4" fill="grey" class="flag">[?]</text><text x="345" y="527.4" fill="grey" class="taxonLabel">Craniops</text><text x="300.3" y="500.9" fill="grey" class="flag">[?]</text><text x="322.3" y="500.9" fill="grey" class="taxonLabel">Ussunia</text><text x="277.6" y="487.6" fill="grey" class="flag">[?]</text><text x="299.6" y="487.6" fill="grey" class="taxonLabel">Gasconsia</text><text x="482" y="461.1" fill="#fc8d59" class="flag">[0]</text><text x="504" y="461.1" fill="#000" class="taxonLabel">Terebratulina</text><text x="482" y="474.3" fill="grey" class="flag">[?]</text><text x="504" y="474.3" fill="grey" class="taxonLabel">Orthis</text><text x="459.3" y="447.8" fill="grey" class="flag">[?]</text><text x="481.3" y="447.8" fill="grey" class="taxonLabel">Alisina</text><text x="436.6" y="434.5" fill="grey" class="flag">[?]</text><text x="458.6" y="434.5" fill="grey" class="taxonLabel">Longtancunella chengjiangensis</text><text x="413.9" y="421.3" fill="grey" class="flag">[?]</text><text x="435.9" y="421.3" fill="grey" class="taxonLabel">Glyptoria</text><text x="391.1" y="408" fill="grey" class="flag">[?]</text><text x="413.1" y="408" fill="grey" class="taxonLabel">Nisusia sulcata</text><text x="368.4" y="394.7" fill="grey" class="flag">[?]</text><text x="390.4" y="394.7" fill="grey" class="taxonLabel">Kutorgina chengjiangensis</text><text x="368.4" y="368.2" fill="grey" class="flag">[?]</text><text x="390.4" y="368.2" fill="grey" class="taxonLabel">Antigonambonites planus</text><text x="368.4" y="381.5" fill="grey" class="flag">[?]</text><text x="390.4" y="381.5" fill="grey" class="taxonLabel">Coolinia pecten</text><text x="345.7" y="341.7" fill="grey" class="flag">[?]</text><text x="367.7" y="341.7" fill="grey" class="taxonLabel">Yuganotheca elegans</text><text x="345.7" y="354.9" fill="grey" class="flag">[?]</text><text x="367.7" y="354.9" fill="grey" class="taxonLabel">Tomteluva perturbata</text><text x="300.3" y="328.4" fill="grey" class="flag">[?]</text><text x="322.3" y="328.4" fill="grey" class="taxonLabel">Salanygolina</text><text x="300.3" y="301.9" fill="grey" class="flag">[?]</text><text x="322.3" y="301.9" fill="grey" class="taxonLabel">Micromitra</text><text x="300.3" y="315.1" fill="grey" class="flag">[?]</text><text x="322.3" y="315.1" fill="grey" class="taxonLabel">Askepasma toddense</text><text x="413.9" y="275.3" fill="grey" class="flag">[?]</text><text x="435.9" y="275.3" fill="grey" class="taxonLabel">Acanthotretella spinosa</text><text x="413.9" y="288.6" fill="grey" class="flag">[?]</text><text x="435.9" y="288.6" fill="grey" class="taxonLabel">Siphonobolus priscus</text><text x="391.1" y="262.1" fill="grey" class="flag">[?]</text><text x="413.1" y="262.1" fill="grey" class="taxonLabel">Clupeafumosus socialis</text><text x="391.1" y="235.5" fill="grey" class="flag">[?]</text><text x="413.1" y="235.5" fill="grey" class="taxonLabel">Lingulellotreta malongensis</text><text x="391.1" y="248.8" fill="grey" class="flag">[?]</text><text x="413.1" y="248.8" fill="grey" class="taxonLabel">Lingulosacculus</text><text x="345.7" y="222.3" fill="grey" class="flag">[?]</text><text x="367.7" y="222.3" fill="grey" class="taxonLabel">Botsfordia</text><text x="323" y="209" fill="grey" class="flag">[?]</text><text x="345" y="209" fill="grey" class="taxonLabel">Mummpikia nuda</text><text x="300.3" y="195.7" fill="grey" class="flag">[?]</text><text x="322.3" y="195.7" fill="grey" class="taxonLabel">Eoobolus</text><text x="277.6" y="182.5" fill="#fc8d59" class="flag">[0]</text><text x="299.6" y="182.5" fill="#000" class="taxonLabel">Lingula</text><text x="300.3" y="155.9" fill="#fc8d59" class="flag">[0]</text><text x="322.3" y="155.9" fill="#000" class="taxonLabel">Pelagodiscus atlanticus</text><text x="300.3" y="169.2" fill="grey" class="flag">[?]</text><text x="322.3" y="169.2" fill="grey" class="taxonLabel">Mickwitzia muralensis</text><text x="277.6" y="142.7" fill="grey" class="flag">[?]</text><text x="299.6" y="142.7" fill="grey" class="taxonLabel">Micrina</text><text x="254.9" y="116.1" fill="grey" class="flag">[?]</text><text x="276.9" y="116.1" fill="grey" class="taxonLabel">Haplophrentis carinatus</text><text x="254.9" y="129.4" fill="grey" class="flag">[?]</text><text x="276.9" y="129.4" fill="grey" class="taxonLabel">Pedunculotheca diania</text><text x="232.1" y="102.9" fill="grey" class="flag">[?]</text><text x="254.1" y="102.9" fill="grey" class="taxonLabel">Paterimitra</text><text x="186.7" y="89.6" fill="grey" class="flag">[?]</text><text x="208.7" y="89.6" fill="grey" class="taxonLabel">Heliomedusa orienta</text><text x="186.7" y="63.1" fill="#fc8d59" class="flag">[0]</text><text x="208.7" y="63.1" fill="#000" class="taxonLabel">Halkieria evangelista</text><text x="186.7" y="76.3" fill="grey" class="flag">[?]</text><text x="208.7" y="76.3" fill="grey" class="taxonLabel">Dailyatia</text><text x="141.3" y="49.8" fill="#fc8d59" class="flag">[0]</text><text x="163.3" y="49.8" fill="#000" class="taxonLabel">Cotyledion tylodes</text><text x="118.6" y="36.5" fill="grey" class="flag">[?]</text><text x="140.6" y="36.5" fill="grey" class="taxonLabel">Eccentrotheca</text><text x="95.9" y="23.3" fill="#fc8d59" class="flag">[0]</text><text x="117.9" y="23.3" fill="#000" class="taxonLabel">Phoronis</text><text x="73.1" y="10" fill="#fc8d59" class="flag">[0]</text><text x="95.1" y="10" fill="#000" class="taxonLabel">Flustra</text><text x="50.4" y="540.7" fill="#fc8d59" class="flag">[0]</text><text x="72.4" y="540.7" fill="#000" class="taxonLabel">Loxosomella</text><path d="M5,426.2V280H27.7M27.7,280V22.3H50.4M50.4,22.3V7H73.1M50.4,22.3V37.5H73.1M73.1,37.5V20.3H95.9M73.1,37.5V54.7H95.9M95.9,54.7V33.5H118.6M95.9,54.7V76H118.6M118.6,76V46.8H141.3M118.6,76V105.1H141.3M141.3,105.1V66.7H164M164,66.7V60.1H186.7M164,66.7V73.3H186.7M141.3,105.1V143.6H164M164,143.6V86.6H186.7M164,143.6V200.5H186.7M186.7,200.5V109.8H209.4M209.4,109.8V99.9H232.1M209.4,109.8V119.8H232.1M232.1,119.8V113.1H254.9M232.1,119.8V126.4H254.9M186.7,200.5V291.2H209.4M209.4,291.2V171.4H232.1M232.1,171.4V149.6H254.9M254.9,149.6V139.7H277.6M254.9,149.6V159.6H277.6M277.6,159.6V152.9H300.3M277.6,159.6V166.2H300.3M232.1,171.4V193.3H254.9M254.9,193.3V179.5H277.6M254.9,193.3V207H277.6M277.6,207V192.7H300.3M277.6,207V221.3H300.3M300.3,221.3V206H323M300.3,221.3V236.7H323M323,236.7V219.3H345.7M323,236.7V254.1H345.7M345.7,254.1V239.2H368.4M368.4,239.2V232.5H391.1M368.4,239.2V245.8H391.1M345.7,254.1V269H368.4M368.4,269V259.1H391.1M368.4,269V279H391.1M391.1,279V272.3H413.9M391.1,279V285.6H413.9M209.4,291.2V411H232.1M232.1,411V325.8H254.9M254.9,325.8V305.5H277.6M277.6,305.5V298.9H300.3M277.6,305.5V312.1H300.3M254.9,325.8V346.1H277.6M277.6,346.1V325.4H300.3M277.6,346.1V366.8H300.3M300.3,366.8V345.3H323M323,345.3V338.7H345.7M323,345.3V351.9H345.7M300.3,366.8V388.3H323M323,388.3V371.8H345.7M345.7,371.8V365.2H368.4M345.7,371.8V378.5H368.4M323,388.3V404.8H345.7M345.7,404.8V391.7H368.4M345.7,404.8V417.9H368.4M368.4,417.9V405H391.1M368.4,417.9V430.7H391.1M391.1,430.7V418.3H413.9M391.1,430.7V443.1H413.9M413.9,443.1V431.5H436.6M413.9,443.1V454.8H436.6M436.6,454.8V444.8H459.3M436.6,454.8V464.7H459.3M459.3,464.7V458.1H482M459.3,464.7V471.3H482M232.1,411V496.2H254.9M254.9,496.2V484.6H277.6M254.9,496.2V507.8H277.6M277.6,507.8V497.9H300.3M277.6,507.8V517.8H300.3M300.3,517.8V511.1H323M300.3,517.8V524.4H323M27.7,280V537.7H50.4M73.1,597.4V590.7H95.9" stroke="#fc8d59"></path><path d="M5,426.2V572.5H27.7M27.7,572.5V557.6H50.4M50.4,557.6V550.9H73.1M50.4,557.6V564.2H73.1M27.7,572.5V587.4H50.4M50.4,587.4V577.5H73.1M50.4,587.4V597.4H73.1M73.1,597.4V604H95.9" stroke="#91bfdb"></path><text x="7" y="429.2" class="node" fill="#4A6FE3">1</text><text x="29.7" y="283" class="node" fill="#4A6FE3">1</text><text x="52.4" y="25.3" class="node" fill="#4A6FE3">1</text><text x="75.1" y="40.5" class="node" fill="#4A6FE3">1</text><text x="97.9" y="57.7" class="node" fill="#4A6FE3">1</text><text x="120.6" y="79" class="node" fill="#E5A5B1">0.3</text><text x="143.3" y="108.1" class="node" fill="#4A6FE3">1</text><text x="166" y="69.7" class="node" fill="#4A6FE3">1</text><text x="166" y="146.6" class="node" fill="#4A6FE3">1</text><text x="188.7" y="203.5" class="node" fill="#9DA8E2">0.75</text><text x="211.4" y="112.8" class="node" fill="#B4BBE3">0.67</text><text x="234.1" y="122.8" class="node" fill="#4A6FE3">1</text><text x="211.4" y="294.2" class="node" fill="#9DA8E2">0.75</text><text x="234.1" y="174.4" class="node" fill="#B4BBE3">0.67</text><text x="256.9" y="152.6" class="node" fill="#B4BBE3">0.67</text><text x="279.6" y="162.6" class="node" fill="#9DA8E2">0.75</text><text x="256.9" y="196.3" class="node" fill="#9DA8E2">0.75</text><text x="279.6" y="210" class="node" fill="#B4BBE3">0.67</text><text x="302.3" y="224.3" class="node" fill="#B4BBE3">0.67</text><text x="325" y="239.7" class="node" fill="#B4BBE3">0.67</text><text x="347.7" y="257.1" class="node" fill="#B4BBE3">0.67</text><text x="370.4" y="242.2" class="node" fill="#DF798F">0.16</text><text x="370.4" y="272" class="node" fill="#E6BAC2">0.37</text><text x="393.1" y="282" class="node" fill="#4A6FE3">1</text><text x="234.1" y="414" class="node" fill="#4A6FE3">1</text><text x="256.9" y="328.8" class="node" fill="#8C9BE1">0.81</text><text x="279.6" y="308.5" class="node" fill="#4A6FE3">1</text><text x="279.6" y="349.1" class="node" fill="#667FE1">0.93</text><text x="302.3" y="369.8" class="node" fill="#E498A7">0.26</text><text x="325" y="348.3" class="node" fill="#7388E1">0.89</text><text x="325" y="391.3" class="node" fill="#4A6FE3">1</text><text x="347.7" y="374.8" class="node" fill="#4A6FE3">1</text><text x="347.7" y="407.8" class="node" fill="#7A8DE1">0.87</text><text x="370.4" y="420.9" class="node" fill="#7A8DE1">0.87</text><text x="393.1" y="433.7" class="node" fill="#7A8DE1">0.87</text><text x="415.9" y="446.1" class="node" fill="#7A8DE1">0.87</text><text x="438.6" y="457.8" class="node" fill="#4A6FE3">1</text><text x="461.3" y="467.7" class="node" fill="#5B78E2">0.96</text><text x="256.9" y="499.2" class="node" fill="#4A6FE3">1</text><text x="279.6" y="510.8" class="node" fill="#4A6FE3">1</text><text x="302.3" y="520.8" class="node" fill="#4A6FE3">1</text><text x="29.7" y="575.5" class="node" fill="#4A6FE3">1</text><text x="52.4" y="560.6" class="node" fill="#4A6FE3">1</text><text x="52.4" y="590.4" class="node" fill="#4A6FE3">1</text><text x="75.1" y="600.4" class="node" fill="#E38FA0">0.23</text></svg>
