<svg xmlns="http://www.w3.org/2000/svg" version="1.1" width="682" height="612" class="tree" data-char="130"><text x="678" y="14.3" text-anchor="end" class="stepsLabel">Character adds <tspan class="score">5</tspan> to tree score</text><text x="678" y="25.6" text-anchor="end" class="stepsLabel"><tspan class="score">0</tspan> additional regions</text><text x="678" y="36.9" text-anchor="end" class="stepsLabel">CI = 0.2; Fitch CI = 0.2; Fitch RI = 0.2</text><text x="678" y="59.5" text-anchor="end" class="stepsLabel"><tspan dy="16" fill="#34caaf">An optimal tree under:</tspan><tspan x="680" style="font-style:italic" class="thisAn" dy="1.2em">Equal weights</tspan><tspan x="680" style="font-style:italic" class="notThisAn" dy="1.2em">Implied weights, k = 2</tspan><tspan x="680" style="font-style:italic" class="notThisAn" dy="1.2em">IW, k = 3</tspan><tspan x="680" style="font-style:italic" class="notThisAn" dy="1.2em">IW, k = 4.5</tspan><tspan x="680" style="font-style:italic" class="notThisAn" dy="1.2em">IW, k = 7</tspan><tspan x="680" style="font-style:italic" class="notThisAn" dy="1.2em">IW, k = 10.5</tspan><tspan x="680" style="font-style:italic" class="notThisAn" dy="1.2em">IW, k = 16</tspan><tspan x="680" style="font-style:italic" class="notThisAn" dy="1.2em">IW, k = 24</tspan></text><text x="95.9" y="595.5" fill="lightgrey" class="flag">[-]</text><text x="117.9" y="595.5" fill="#ccc" class="taxonLabel">Wiwaxia corrugata</text><text x="95.9" y="607" fill="lightgrey" class="flag">[-]</text><text x="117.9" y="607" fill="#ccc" class="taxonLabel">Dentalium</text><text x="73.1" y="584" fill="lightgrey" class="flag">[-]</text><text x="95.1" y="584" fill="#ccc" class="taxonLabel">Tonicella</text><text x="73.1" y="561.1" fill="lightgrey" class="flag">[-]</text><text x="95.1" y="561.1" fill="#ccc" class="taxonLabel">Serpula</text><text x="73.1" y="572.6" fill="lightgrey" class="flag">[-]</text><text x="95.1" y="572.6" fill="#ccc" class="taxonLabel">Sipunculus</text><text x="482" y="526.6" fill="#e2e2a2" class="flag">[1]</text><text x="504" y="526.6" fill="#000" class="taxonLabel">Siphonobolus priscus</text><text x="482" y="538.1" fill="lightgrey" class="flag">[-]</text><text x="504" y="538.1" fill="#ccc" class="taxonLabel">Acanthotretella spinosa</text><text x="459.3" y="515.2" fill="#91bfdb" class="flag">[2]</text><text x="481.3" y="515.2" fill="#000" class="taxonLabel">Clupeafumosus socialis</text><text x="459.3" y="492.2" fill="lightgrey" class="flag">[-]</text><text x="481.3" y="492.2" fill="#ccc" class="taxonLabel">Lingulosacculus</text><text x="459.3" y="503.7" fill="grey" class="flag">[?]</text><text x="481.3" y="503.7" fill="#999" class="taxonLabel">Lingulellotreta malongensis</text><text x="413.9" y="480.7" fill="#e2e2a2" class="flag">[1]</text><text x="435.9" y="480.7" fill="#000" class="taxonLabel">Botsfordia</text><text x="391.1" y="469.2" fill="grey" class="flag">[12]</text><text x="413.1" y="469.2" fill="#999" class="taxonLabel">Mummpikia nuda</text><text x="368.4" y="457.7" fill="#e2e2a2" class="flag">[1]</text><text x="390.4" y="457.7" fill="#000" class="taxonLabel">Eoobolus</text><text x="345.7" y="446.3" fill="grey" class="flag">[12]</text><text x="367.7" y="446.3" fill="#999" class="taxonLabel">Lingula</text><text x="345.7" y="423.3" fill="#e2e2a2" class="flag">[1]</text><text x="367.7" y="423.3" fill="#000" class="taxonLabel">Mickwitzia muralensis</text><text x="345.7" y="434.8" fill="#e2e2a2" class="flag">[1]</text><text x="367.7" y="434.8" fill="#000" class="taxonLabel">Pelagodiscus atlanticus</text><text x="391.1" y="400.3" fill="grey" class="flag">[?]</text><text x="413.1" y="400.3" fill="#999" class="taxonLabel">Yuganotheca elegans</text><text x="391.1" y="411.8" fill="grey" class="flag">[?]</text><text x="413.1" y="411.8" fill="#999" class="taxonLabel">Tomteluva perturbata</text><text x="368.4" y="388.9" fill="#91bfdb" class="flag">[2]</text><text x="390.4" y="388.9" fill="#000" class="taxonLabel">Salanygolina</text><text x="413.9" y="365.9" fill="#e2e2a2" class="flag">[1]</text><text x="435.9" y="365.9" fill="#000" class="taxonLabel">Coolinia pecten</text><text x="413.9" y="377.4" fill="#e2e2a2" class="flag">[1]</text><text x="435.9" y="377.4" fill="#000" class="taxonLabel">Antigonambonites planus</text><text x="482" y="342.9" fill="lightgrey" class="flag">[-]</text><text x="504" y="342.9" fill="#ccc" class="taxonLabel">Orthis</text><text x="482" y="354.4" fill="lightgrey" class="flag">[-]</text><text x="504" y="354.4" fill="#ccc" class="taxonLabel">Terebratulina</text><text x="459.3" y="331.5" fill="grey" class="flag">[?]</text><text x="481.3" y="331.5" fill="#999" class="taxonLabel">Alisina</text><text x="436.6" y="320" fill="lightgrey" class="flag">[-]</text><text x="458.6" y="320" fill="#ccc" class="taxonLabel">Glyptoria</text><text x="436.6" y="297" fill="lightgrey" class="flag">[-]</text><text x="458.6" y="297" fill="#ccc" class="taxonLabel">Nisusia sulcata</text><text x="436.6" y="308.5" fill="lightgrey" class="flag">[-]</text><text x="458.6" y="308.5" fill="#ccc" class="taxonLabel">Kutorgina chengjiangensis</text><text x="368.4" y="285.5" fill="grey" class="flag">[?]</text><text x="390.4" y="285.5" fill="#999" class="taxonLabel">Longtancunella chengjiangensis</text><text x="345.7" y="262.6" fill="#e2e2a2" class="flag">[1]</text><text x="367.7" y="262.6" fill="#000" class="taxonLabel">Micromitra</text><text x="345.7" y="274.1" fill="#91bfdb" class="flag">[2]</text><text x="367.7" y="274.1" fill="#000" class="taxonLabel">Askepasma toddense</text><text x="436.6" y="239.6" fill="grey" class="flag">[?]</text><text x="458.6" y="239.6" fill="#999" class="taxonLabel">Probactrotheca</text><text x="436.6" y="251.1" fill="grey" class="flag">[?]</text><text x="458.6" y="251.1" fill="#999" class="taxonLabel">Conotheca</text><text x="436.6" y="216.7" fill="grey" class="flag">[?]</text><text x="458.6" y="216.7" fill="#999" class="taxonLabel">Maxilites</text><text x="436.6" y="228.1" fill="grey" class="flag">[?]</text><text x="458.6" y="228.1" fill="#999" class="taxonLabel">Pauxillites</text><text x="391.1" y="205.2" fill="grey" class="flag">[?]</text><text x="413.1" y="205.2" fill="#999" class="taxonLabel">Decoritheca</text><text x="368.4" y="193.7" fill="grey" class="flag">[?]</text><text x="390.4" y="193.7" fill="#999" class="taxonLabel">Haplophrentis carinatus</text><text x="345.7" y="182.2" fill="grey" class="flag">[?]</text><text x="367.7" y="182.2" fill="#999" class="taxonLabel">Pedunculotheca diania</text><text x="323" y="170.7" fill="#91bfdb" class="flag">[2]</text><text x="345" y="170.7" fill="#000" class="taxonLabel">Paterimitra</text><text x="300.3" y="159.2" fill="#91bfdb" class="flag">[2]</text><text x="322.3" y="159.2" fill="#000" class="taxonLabel">Micrina</text><text x="254.9" y="147.8" fill="grey" class="flag">[?]</text><text x="276.9" y="147.8" fill="#999" class="taxonLabel">Heliomedusa orienta</text><text x="232.1" y="136.3" fill="#e2e2a2" class="flag">[1]</text><text x="254.1" y="136.3" fill="#000" class="taxonLabel">Gasconsia</text><text x="254.9" y="113.3" fill="#e2e2a2" class="flag">[1]</text><text x="276.9" y="113.3" fill="#000" class="taxonLabel">Novocrania</text><text x="254.9" y="124.8" fill="#e2e2a2" class="flag">[1]</text><text x="276.9" y="124.8" fill="#000" class="taxonLabel">Craniops</text><text x="232.1" y="101.8" fill="grey" class="flag">[?]</text><text x="254.1" y="101.8" fill="#999" class="taxonLabel">Ussunia</text><text x="186.7" y="90.4" fill="lightgrey" class="flag">[-]</text><text x="208.7" y="90.4" fill="#ccc" class="taxonLabel">Halkieria evangelista</text><text x="164" y="78.9" fill="#e2e2a2" class="flag">[1]</text><text x="186" y="78.9" fill="#000" class="taxonLabel">Namacalathus</text><text x="164" y="55.9" fill="#e2e2a2" class="flag">[1]</text><text x="186" y="55.9" fill="#000" class="taxonLabel">Dailyatia</text><text x="164" y="67.4" fill="grey" class="flag">[?]</text><text x="186" y="67.4" fill="#999" class="taxonLabel">Cotyledion tylodes</text><text x="118.6" y="44.4" fill="#91bfdb" class="flag">[2]</text><text x="140.6" y="44.4" fill="#000" class="taxonLabel">Eccentrotheca</text><text x="95.9" y="33" fill="lightgrey" class="flag">[-]</text><text x="117.9" y="33" fill="#ccc" class="taxonLabel">Phoronis</text><text x="95.9" y="10" fill="lightgrey" class="flag">[-]</text><text x="117.9" y="10" fill="#ccc" class="taxonLabel">Flustra</text><text x="95.9" y="21.5" fill="lightgrey" class="flag">[-]</text><text x="117.9" y="21.5" fill="#ccc" class="taxonLabel">Amathia</text><text x="50.4" y="549.6" fill="lightgrey" class="flag">[-]</text><text x="72.4" y="549.6" fill="#ccc" class="taxonLabel">Loxosomella</text><path d="M5,432.2V287.6H27.7M27.7,287.6V28.6H50.4M50.4,28.6V12.7H73.1M73.1,12.7V7H95.9M73.1,12.7V18.5H95.9M50.4,28.6V44.5H73.1M73.1,44.5V30H95.9M164,113.2V87.4H186.7M368.4,341V313.4H391.1M391.1,313.4V299.8H413.9M413.9,299.8V294H436.6M413.9,299.8V305.5H436.6M391.1,313.4V327H413.9M413.9,327V317H436.6M413.9,327V337.1H436.6M436.6,337.1V328.5H459.3M436.6,337.1V345.7H459.3M459.3,345.7V339.9H482M459.3,345.7V351.4H482M413.9,507.8V494.9H436.6M436.6,494.9V489.2H459.3M436.6,494.9V500.7H459.3M459.3,529.4V535.1H482M27.7,287.6V546.6H50.4M5,432.2V576.7H27.7M27.7,576.7V563.8H50.4M50.4,563.8V558.1H73.1M50.4,563.8V569.6H73.1M27.7,576.7V589.6H50.4M50.4,589.6V581H73.1M50.4,589.6V598.3H73.1M73.1,598.3V592.5H95.9M73.1,598.3V604H95.9" stroke="lightgrey" class="inapplicable"></path><path d="M73.1,44.5V59H95.9M345.7,394.5V403.1H368.4M368.4,403.1V397.3H391.1M368.4,403.1V408.8H391.1" stroke="darkgrey"></path><path d="M95.9,59V41.4H118.6M254.9,271.4V167.9H277.6M277.6,167.9V156.2H300.3M277.6,167.9V179.6H300.3M300.3,179.6V167.7H323M300.3,179.6V191.4H323M323,191.4V179.2H345.7M323,191.4V203.6H345.7M345.7,203.6V190.7H368.4M345.7,203.6V216.5H368.4M368.4,216.5V202.2H391.1M368.4,216.5V230.9H391.1M391.1,230.9V219.4H413.9M413.9,219.4V213.7H436.6M413.9,219.4V225.1H436.6M391.1,230.9V242.4H413.9M413.9,242.4V236.6H436.6M413.9,242.4V248.1H436.6M323,265.3V271.1H345.7M345.7,394.5V385.9H368.4M436.6,520.8V512.2H459.3" stroke="#91bfdb"></path><path d="M95.9,59V76.6H118.6M118.6,76.6V58.7H141.3M141.3,58.7V52.9H164M141.3,58.7V64.4H164M118.6,76.6V94.6H141.3M141.3,94.6V75.9H164M141.3,94.6V113.2H164M164,113.2V139.1H186.7M186.7,139.1V107.5H209.4M209.4,107.5V98.8H232.1M209.4,107.5V116.1H232.1M232.1,116.1V110.3H254.9M232.1,116.1V121.8H254.9M186.7,139.1V170.7H209.4M209.4,170.7V133.3H232.1M209.4,170.7V208.1H232.1M232.1,208.1V144.8H254.9M232.1,208.1V271.4H254.9M254.9,271.4V374.9H277.6M277.6,374.9V309.2H300.3M300.3,309.2V265.3H323M323,265.3V259.6H345.7M300.3,309.2V353.1H323M323,353.1V311.8H345.7M345.7,311.8V282.5H368.4M345.7,311.8V341H368.4M368.4,341V368.6H391.1M391.1,368.6V362.9H413.9M391.1,368.6V374.4H413.9M323,353.1V394.5H345.7M277.6,374.9V440.6H300.3M300.3,440.6V426H323M323,426V420.3H345.7M323,426V431.8H345.7M300.3,440.6V455.2H323M323,455.2V443.3H345.7M323,455.2V467.1H345.7M345.7,467.1V454.7H368.4M345.7,467.1V479.5H368.4M368.4,479.5V466.2H391.1M368.4,479.5V492.8H391.1M391.1,492.8V477.7H413.9M391.1,492.8V507.8H413.9M413.9,507.8V520.8H436.6M436.6,520.8V529.4H459.3M459.3,529.4V523.6H482" stroke="#e2e2a2"></path><text x="7" y="435.2" class="node" fill="#4A6FE3">1</text><text x="29.7" y="290.6" class="node" fill="#4A6FE3">1</text><text x="52.4" y="31.6" class="node" fill="#4A6FE3">1</text><text x="75.1" y="15.7" class="node" fill="#4A6FE3">1</text><text x="75.1" y="47.5" class="node" fill="#4A6FE3">1</text><text x="97.9" y="62" class="node" fill="#4A6FE3">1</text><text x="120.6" y="79.6" class="node" fill="#E3DCDD">0.48</text><text x="143.3" y="61.7" class="node" fill="#DC6884">0.11</text><text x="143.3" y="97.6" class="node" fill="#DC6884">0.11</text><text x="166" y="116.2" class="node" fill="#4A6FE3">1</text><text x="188.7" y="142.1" class="node" fill="#4A6FE3">1</text><text x="211.4" y="110.5" class="node" fill="#4A6FE3">1</text><text x="234.1" y="119.1" class="node" fill="#4A6FE3">1</text><text x="211.4" y="173.7" class="node" fill="#4A6FE3">1</text><text x="234.1" y="211.1" class="node" fill="#4A6FE3">1</text><text x="256.9" y="274.4" class="node" fill="#4A6FE3">1</text><text x="279.6" y="170.9" class="node" fill="#4A6FE3">1</text><text x="302.3" y="182.6" class="node" fill="#4A6FE3">1</text><text x="325" y="194.4" class="node" fill="#4A6FE3">1</text><text x="347.7" y="206.6" class="node" fill="#4A6FE3">1</text><text x="370.4" y="219.5" class="node" fill="#E28699">0.2</text><text x="393.1" y="233.9" class="node" fill="#E0E0E2">0.51</text><text x="415.9" y="222.4" class="node" fill="#4A6FE3">1</text><text x="415.9" y="245.4" class="node" fill="#4A6FE3">1</text><text x="279.6" y="377.9" class="node" fill="#4A6FE3">1</text><text x="302.3" y="312.2" class="node" fill="#6982E1">0.92</text><text x="325" y="268.3" class="node" fill="#4A6FE3">1</text><text x="325" y="356.1" class="node" fill="#4A6FE3">1</text><text x="347.7" y="314.8" class="node" fill="#B1B8E2">0.68</text><text x="370.4" y="344" class="node" fill="#8F9DE1">0.8</text><text x="393.1" y="316.4" class="node" fill="#8394E1">0.84</text><text x="415.9" y="302.8" class="node" fill="#E5A8B3">0.31</text><text x="415.9" y="330" class="node" fill="#6D84E1">0.91</text><text x="438.6" y="340.1" class="node" fill="#667FE1">0.93</text><text x="461.3" y="348.7" class="node" fill="#C4C9E3">0.61</text><text x="393.1" y="371.6" class="node" fill="#4A6FE3">1</text><text x="347.7" y="397.5" class="node" fill="#E5D0D3">0.44</text><text x="370.4" y="406.1" class="node" fill="#5374E2">0.98</text><text x="302.3" y="443.6" class="node" fill="#4A6FE3">1</text><text x="325" y="429" class="node" fill="#4A6FE3">1</text><text x="325" y="458.2" class="node" fill="#4A6FE3">1</text><text x="347.7" y="470.1" class="node" fill="#4A6FE3">1</text><text x="370.4" y="482.5" class="node" fill="#8091E1">0.85</text><text x="393.1" y="495.8" class="node" fill="#8091E1">0.85</text><text x="415.9" y="510.8" class="node" fill="#8091E1">0.85</text><text x="438.6" y="497.9" class="node" fill="#E38FA0">0.23</text><text x="438.6" y="523.8" class="node" fill="#D2D4E3">0.57</text><text x="461.3" y="532.4" class="node" fill="#4A6FE3">1</text><text x="29.7" y="579.7" class="node" fill="#4A6FE3">1</text><text x="52.4" y="566.8" class="node" fill="#4A6FE3">1</text><text x="52.4" y="592.6" class="node" fill="#4A6FE3">1</text><text x="75.1" y="601.3" class="node" fill="#4A6FE3">1</text></svg>
