<svg xmlns="http://www.w3.org/2000/svg" version="1.1" width="682" height="555" class="tree" char="141">
 <text x="678" y="14.7" text-anchor="end" class="stepsLabel">Character adds <tspan class="score">5</tspan> to tree score</text>
 <text x="678" y="26.4" text-anchor="end" class="stepsLabel"><tspan class="score">47</tspan> additional regions</text>
 <text x="678" y="38.1" text-anchor="end" class="stepsLabel">CI = 0.4; Fitch CI = 0.5; Fitch RI = 0</text>
 <text x="678" y="61.5" text-anchor="end" class="stepsLabel"><tspan dy="16">An optimal tree under:</tspan><tspan x="680" style="font-style:italic" class="thisAn" dy="1.2em">Equal weights</tspan><tspan x="680" style="font-style:italic" class="notThisAn" dy="1.2em">Implied weights, k = 2</tspan><tspan x="680" style="font-style:italic" class="notThisAn" dy="1.2em">IW, k = 3</tspan><tspan x="680" style="font-style:italic" class="notThisAn" dy="1.2em">IW, k = 4.5</tspan></text>
 <text x="33.1" y="10" fill="lightgrey" class="flag">[-]</text>
 <text x="55.1" y="10" class="taxonLabel">Dailyatia</text>
 <text x="61.1" y="22" fill="lightgrey" class="flag">[-]</text>
 <text x="83.1" y="22" class="taxonLabel">Halkieria evangelista</text>
 <text x="117.2" y="34" fill="grey" class="flag">[?]</text>
 <text x="139.2" y="34" class="taxonLabel">Eccentrotheca</text>
 <text x="145.3" y="46" fill="#fdae61" class="flag">[1]</text>
 <text x="167.3" y="46" class="taxonLabel">Cotyledion tylodes</text>
 <text x="173.4" y="58" fill="#fdae61" class="flag">[1]</text>
 <text x="195.4" y="58" class="taxonLabel">Phoronis</text>
 <text x="201.4" y="70" fill="#fdae61" class="flag">[1]</text>
 <text x="223.4" y="70" class="taxonLabel">Flustra</text>
 <text x="229.5" y="82" fill="lightgrey" class="flag">[-]</text>
 <text x="251.5" y="82" class="taxonLabel">Loxosomella</text>
 <text x="285.6" y="94" fill="grey" class="flag">[?]</text>
 <text x="307.6" y="94" class="taxonLabel">Dentalium</text>
 <text x="313.6" y="106" fill="lightgrey" class="flag">[-]</text>
 <text x="335.6" y="106" class="taxonLabel">Wiwaxia corrugata</text>
 <text x="313.6" y="118" fill="#fdae61" class="flag">[1]</text>
 <text x="335.6" y="118" class="taxonLabel">Chiton</text>
 <text x="285.6" y="130" fill="#fdae61" class="flag">[1]</text>
 <text x="307.6" y="130" class="taxonLabel">Serpula</text>
 <text x="285.6" y="142" fill="lightgrey" class="flag">[-]</text>
 <text x="307.6" y="142" class="taxonLabel">Sipunculus</text>
 <text x="117.2" y="154" fill="lightgrey" class="flag">[-]</text>
 <text x="139.2" y="154" class="taxonLabel">Heliomedusa orienta</text>
 <text x="173.4" y="166" fill="lightgrey" class="flag">[-]</text>
 <text x="195.4" y="166" class="taxonLabel">Paterimitra</text>
 <text x="201.4" y="178" fill="grey" class="flag">[?]</text>
 <text x="223.4" y="178" class="taxonLabel">Haplophrentis carinatus</text>
 <text x="201.4" y="190" fill="lightgrey" class="flag">[-]</text>
 <text x="223.4" y="190" class="taxonLabel">Pedunculotheca diania</text>
 <text x="257.5" y="358" fill="lightgrey" class="flag">[-]</text>
 <text x="279.5" y="358" class="taxonLabel">Askepasma toddense</text>
 <text x="257.5" y="346" fill="lightgrey" class="flag">[-]</text>
 <text x="279.5" y="346" class="taxonLabel">Micromitra</text>
 <text x="257.5" y="370" fill="lightgrey" class="flag">[-]</text>
 <text x="279.5" y="370" class="taxonLabel">Salanygolina</text>
 <text x="313.6" y="382" fill="grey" class="flag">[?]</text>
 <text x="335.6" y="382" class="taxonLabel">Tomteluva perturbata</text>
 <text x="313.6" y="394" fill="#abd9e9" class="flag">[2]</text>
 <text x="335.6" y="394" class="taxonLabel">Yuganotheca elegans</text>
 <text x="425.9" y="442" fill="#fdae61" class="flag">[1]</text>
 <text x="447.9" y="442" class="taxonLabel">Longtancunella chengjiangensis</text>
 <text x="341.7" y="406" fill="#fdae61" class="flag">[1]</text>
 <text x="363.7" y="406" class="taxonLabel">Kutorgina chengjiangensis</text>
 <text x="369.8" y="418" fill="#fdae61" class="flag">[1]</text>
 <text x="391.8" y="418" class="taxonLabel">Nisusia sulcata</text>
 <text x="397.8" y="430" fill="grey" class="flag">[?]</text>
 <text x="419.8" y="430" class="taxonLabel">Glyptoria</text>
 <text x="482" y="478" fill="#fdae61" class="flag">[1]</text>
 <text x="504" y="478" class="taxonLabel">Orthis</text>
 <text x="482" y="466" fill="grey" class="flag">[?]</text>
 <text x="504" y="466" class="taxonLabel">Terebratulina</text>
 <text x="453.9" y="454" fill="grey" class="flag">[?]</text>
 <text x="475.9" y="454" class="taxonLabel">Alisina</text>
 <text x="341.7" y="490" fill="#fdae61" class="flag">[1]</text>
 <text x="363.7" y="490" class="taxonLabel">Antigonambonites planus</text>
 <text x="341.7" y="502" fill="grey" class="flag">[?]</text>
 <text x="363.7" y="502" class="taxonLabel">Coolinia pecten</text>
 <text x="229.5" y="514" fill="#fdae61" class="flag">[1]</text>
 <text x="251.5" y="514" class="taxonLabel">Gasconsia</text>
 <text x="257.5" y="526" fill="#fdae61" class="flag">[1]</text>
 <text x="279.5" y="526" class="taxonLabel">Ussunia</text>
 <text x="285.6" y="538" fill="#fdae61" class="flag">[1]</text>
 <text x="307.6" y="538" class="taxonLabel">Craniops</text>
 <text x="285.6" y="550" fill="#abd9e9" class="flag">[2]</text>
 <text x="307.6" y="550" class="taxonLabel">Novocrania</text>
 <text x="229.5" y="202" fill="#fdae61" class="flag">[1]</text>
 <text x="251.5" y="202" class="taxonLabel">Micrina</text>
 <text x="257.5" y="214" fill="#2c7bb6" class="flag">[3]</text>
 <text x="279.5" y="214" class="taxonLabel">Pelagodiscus atlanticus</text>
 <text x="257.5" y="226" fill="#fdae61" class="flag">[1]</text>
 <text x="279.5" y="226" class="taxonLabel">Mickwitzia muralensis</text>
 <text x="229.5" y="238" fill="#abd9e9" class="flag">[2]</text>
 <text x="251.5" y="238" class="taxonLabel">Lingula</text>
 <text x="257.5" y="250" fill="grey" class="flag">[?]</text>
 <text x="279.5" y="250" class="taxonLabel">Eoobolus</text>
 <text x="285.6" y="262" fill="lightgrey" class="flag">[-]</text>
 <text x="307.6" y="262" class="taxonLabel">Mummpikia nuda</text>
 <text x="313.6" y="274" fill="grey" class="flag">[?]</text>
 <text x="335.6" y="274" class="taxonLabel">Botsfordia</text>
 <text x="369.8" y="286" fill="grey" class="flag">[?]</text>
 <text x="391.8" y="286" class="taxonLabel">Lingulosacculus</text>
 <text x="369.8" y="298" fill="grey" class="flag">[?]</text>
 <text x="391.8" y="298" class="taxonLabel">Lingulellotreta malongensis</text>
 <text x="369.8" y="310" fill="lightgrey" class="flag">[-]</text>
 <text x="391.8" y="310" class="taxonLabel">Clupeafumosus socialis</text>
 <text x="397.8" y="322" fill="lightgrey" class="flag">[-]</text>
 <text x="419.8" y="322" class="taxonLabel">Siphonobolus priscus</text>
 <text x="397.8" y="334" fill="lightgrey" class="flag">[-]</text>
 <text x="419.8" y="334" class="taxonLabel">Acanthotretella spinosa</text>
 <path d="M5,39V7H33.1M5,39V71H33.1M33.1,71V19H61.1M33.1,71V123.1H61.1M61.1,123.1V43.4H89.2M89.2,43.4V31H117.2M89.2,43.4V55.8H117.2M117.2,55.8V43H145.3M117.2,55.8V68.7H145.3M341.7,289V295H369.8M313.6,302.5V316H341.7M341.7,316V307H369.8M369.8,325V319H397.8M369.8,325V331H397.8M145.3,337V446.3H173.4M173.4,446.3V371.1H201.4M201.4,371.1V349H229.5M229.5,349V343H257.5M229.5,349V355H257.5M201.4,371.1V393.2H229.5M229.5,393.2V367H257.5M229.5,393.2V419.5H257.5M257.5,419.5V385H285.6M285.6,385V379H313.6M285.6,385V391H313.6M341.7,426.6V415H369.8M397.8,449.5V460H425.9M425.9,460V451H453.9M425.9,460V469H453.9M453.9,469V463H482M453.9,469V475H482M285.6,453.9V493H313.6M313.6,493V487H341.7M229.5,532V541H257.5M257.5,541V535H285.6M257.5,541V547H285.6" stroke="lightgrey" class="inapplicable"></path>
 <path d="M145.3,68.7V55H173.4M145.3,68.7V82.4H173.4M173.4,82.4V67H201.4M173.4,82.4V97.8H201.4M201.4,97.8V116.5H229.5M257.5,100V91H285.6M257.5,100V109H285.6M285.6,109V103H313.6M285.6,109V115H313.6M229.5,116.5V133H257.5M257.5,133V127H285.6M257.5,133V139H285.6M89.2,202.8V151H117.2M89.2,202.8V254.5H117.2M117.2,254.5V172H145.3M145.3,172V163H173.4M145.3,172V181H173.4M173.4,181V175H201.4M173.4,181V187H201.4M117.2,254.5V337H145.3M145.3,337V227.7H173.4M173.4,227.7V208H201.4M201.4,208V199H229.5M201.4,208V217H229.5M229.5,217V211H257.5M229.5,217V223H257.5M173.4,227.7V247.5H201.4M201.4,247.5V235H229.5M201.4,247.5V259.9H229.5M229.5,259.9V247H257.5M229.5,259.9V272.9H257.5M257.5,272.9V259H285.6M257.5,272.9V286.8H285.6M285.6,286.8V271H313.6M285.6,286.8V302.5H313.6M341.7,289V283H369.8M341.7,316V325H369.8M257.5,419.5V453.9H285.6M285.6,453.9V414.8H313.6M313.6,414.8V403H341.7M313.6,414.8V426.6H341.7M341.7,426.6V438.2H369.8M369.8,438.2V427H397.8M369.8,438.2V449.5H397.8M397.8,449.5V439H425.9M313.6,493V499H341.7M173.4,446.3V521.5H201.4M201.4,521.5V511H229.5M201.4,521.5V532H229.5M229.5,532V523H257.5" stroke="#fdae61"></path>
 <path d="M201.4,97.8V79H229.5M61.1,123.1V202.8H89.2M313.6,302.5V289H341.7" stroke="#abd9e9"></path>
 <path d="M229.5,116.5V100H257.5" stroke="#2c7bb6"></path>
 <text x="7" y="42" class="node" fill="#4A6FE3">1</text>
 <text x="35.1" y="74" class="node" fill="#ABB4E2">0.7</text>
 <text x="63.1" y="126.1" class="node" fill="#ABB4E2">0.7</text>
 <text x="91.2" y="46.4" class="node" fill="#ABB4E2">0.7</text>
 <text x="119.2" y="58.8" class="node" fill="#ABB4E2">0.7</text>
 <text x="147.3" y="71.7" class="node" fill="#E28699">0.2</text>
 <text x="175.4" y="85.4" class="node" fill="#CACDE3">0.59</text>
 <text x="203.4" y="100.8" class="node" fill="#7388E1">0.89</text>
 <text x="231.5" y="119.5" class="node" fill="#4A6FE3">1</text>
 <text x="259.5" y="103" class="node" fill="#5B78E2">0.96</text>
 <text x="287.6" y="112" class="node" fill="#ABB4E2">0.7</text>
 <text x="259.5" y="136" class="node" fill="#4A6FE3">1</text>
 <text x="91.2" y="205.8" class="node" fill="#5B78E2">0.96</text>
 <text x="119.2" y="257.5" class="node" fill="#ABB4E2">0.7</text>
 <text x="147.3" y="175" class="node" fill="#ABB4E2">0.7</text>
 <text x="175.4" y="184" class="node" fill="#ABB4E2">0.7</text>
 <text x="147.3" y="340" class="node" fill="#ABB4E2">0.7</text>
 <text x="175.4" y="230.7" class="node" fill="#ABB4E2">0.7</text>
 <text x="203.4" y="211" class="node" fill="#ABB4E2">0.7</text>
 <text x="231.5" y="220" class="node" fill="#ABB4E2">0.7</text>
 <text x="203.4" y="250.5" class="node" fill="#ABB4E2">0.7</text>
 <text x="231.5" y="262.9" class="node" fill="#E07C92">0.17</text>
 <text x="259.5" y="275.9" class="node" fill="#E0E0E2">0.51</text>
 <text x="287.6" y="289.8" class="node" fill="#4A6FE3">1</text>
 <text x="315.6" y="305.5" class="node" fill="#4A6FE3">1</text>
 <text x="343.7" y="292" class="node" fill="#929FE1">0.79</text>
 <text x="343.7" y="319" class="node" fill="#4A6FE3">1</text>
 <text x="371.8" y="328" class="node" fill="#5B78E2">0.96</text>
 <text x="175.4" y="449.3" class="node" fill="#E6C1C7">0.39</text>
 <text x="203.4" y="374.1" class="node" fill="#627DE1">0.94</text>
 <text x="231.5" y="352" class="node" fill="#4A6FE3">1</text>
 <text x="231.5" y="396.2" class="node" fill="#E0E0E2">0.51</text>
 <text x="259.5" y="422.5" class="node" fill="#E0E0E2">0.51</text>
 <text x="287.6" y="388" class="node" fill="#E0E0E2">0.51</text>
 <text x="287.6" y="456.9" class="node" fill="#E0E0E2">0.51</text>
 <text x="315.6" y="417.8" class="node" fill="#4A6FE3">1</text>
 <text x="343.7" y="429.6" class="node" fill="#8F9DE1">0.8</text>
 <text x="371.8" y="441.2" class="node" fill="#4A6FE3">1</text>
 <text x="399.8" y="452.5" class="node" fill="#4A6FE3">1</text>
 <text x="427.9" y="463" class="node" fill="#4A6FE3">1</text>
 <text x="455.9" y="472" class="node" fill="#4A6FE3">1</text>
 <text x="315.6" y="496" class="node" fill="#ABB4E2">0.7</text>
 <text x="203.4" y="524.5" class="node" fill="#ABB4E2">0.7</text>
 <text x="231.5" y="535" class="node" fill="#ABB4E2">0.7</text>
 <text x="259.5" y="544" class="node" fill="#4A6FE3">1</text></svg>
