<svg xmlns="http://www.w3.org/2000/svg" version="1.1" width="682" height="612" class="tree" data-char="65"><text x="678" y="15.7" text-anchor="end" class="stepsLabel">Character adds <tspan class="score">6</tspan> to tree score</text><text x="678" y="28.4" text-anchor="end" class="stepsLabel"><tspan class="score">2</tspan> additional regions</text><text x="678" y="41.1" text-anchor="end" class="stepsLabel">CI = 0.33; Fitch CI = 0.5; Fitch RI = 0</text><text x="678" y="66.5" text-anchor="end" class="stepsLabel"><tspan dy="16">An optimal tree under:</tspan><tspan x="680" style="font-style:italic" class="notThisAn" dy="1.2em">Equal weights</tspan><tspan x="680" style="font-style:italic" class="notThisAn" dy="1.2em">Implied weights, k = 2</tspan><tspan x="680" style="font-style:italic" class="notThisAn" dy="1.2em">IW, k = 3</tspan><tspan x="680" style="font-style:italic" class="thisAn" dy="1.2em">IW, k = 4.5</tspan><tspan x="680" style="font-style:italic" class="notThisAn" dy="1.2em">IW, k = 7</tspan><tspan x="680" style="font-style:italic" class="notThisAn" dy="1.2em">IW, k = 10.5</tspan><tspan x="680" style="font-style:italic" class="notThisAn" dy="1.2em">IW, k = 16</tspan><tspan x="680" style="font-style:italic" class="notThisAn" dy="1.2em">IW, k = 24</tspan></text><text x="88" y="594" fill="lightgrey" class="flag">[-]</text><text x="110" y="594" fill="#ccc" class="taxonLabel">Dentalium</text><text x="88" y="607" fill="#fdae61" class="flag">[1]</text><text x="110" y="607" fill="#000" class="taxonLabel">Tonicella</text><text x="67.2" y="581" fill="lightgrey" class="flag">[-]</text><text x="89.2" y="581" fill="#ccc" class="taxonLabel">Wiwaxia corrugata</text><text x="67.2" y="555.1" fill="lightgrey" class="flag">[-]</text><text x="89.2" y="555.1" fill="#ccc" class="taxonLabel">Serpula</text><text x="67.2" y="568.1" fill="lightgrey" class="flag">[-]</text><text x="89.2" y="568.1" fill="#ccc" class="taxonLabel">Sipunculus</text><text x="233.1" y="516.2" fill="lightgrey" class="flag">[-]</text><text x="255.1" y="516.2" fill="#ccc" class="taxonLabel">Pedunculotheca diania</text><text x="233.1" y="529.1" fill="lightgrey" class="flag">[-]</text><text x="255.1" y="529.1" fill="#ccc" class="taxonLabel">Haplophrentis carinatus</text><text x="316.1" y="490.2" fill="lightgrey" class="flag">[-]</text><text x="338.1" y="490.2" fill="#ccc" class="taxonLabel">Pelagodiscus atlanticus</text><text x="316.1" y="503.2" fill="lightgrey" class="flag">[-]</text><text x="338.1" y="503.2" fill="#ccc" class="taxonLabel">Mickwitzia muralensis</text><text x="357.6" y="464.2" fill="lightgrey" class="flag">[-]</text><text x="379.6" y="464.2" fill="#ccc" class="taxonLabel">Mummpikia nuda</text><text x="357.6" y="477.2" fill="lightgrey" class="flag">[-]</text><text x="379.6" y="477.2" fill="#ccc" class="taxonLabel">Botsfordia</text><text x="336.8" y="451.3" fill="lightgrey" class="flag">[-]</text><text x="358.8" y="451.3" fill="#ccc" class="taxonLabel">Eoobolus</text><text x="378.3" y="425.3" fill="lightgrey" class="flag">[-]</text><text x="400.3" y="425.3" fill="#ccc" class="taxonLabel">Siphonobolus priscus</text><text x="378.3" y="438.3" fill="lightgrey" class="flag">[-]</text><text x="400.3" y="438.3" fill="#ccc" class="taxonLabel">Acanthotretella spinosa</text><text x="378.3" y="399.3" fill="lightgrey" class="flag">[-]</text><text x="400.3" y="399.3" fill="#ccc" class="taxonLabel">Lingulosacculus</text><text x="378.3" y="412.3" fill="lightgrey" class="flag">[-]</text><text x="400.3" y="412.3" fill="#ccc" class="taxonLabel">Clupeafumosus socialis</text><text x="357.6" y="373.4" fill="lightgrey" class="flag">[-]</text><text x="379.6" y="373.4" fill="#ccc" class="taxonLabel">Lingulellotreta malongensis</text><text x="357.6" y="386.4" fill="lightgrey" class="flag">[-]</text><text x="379.6" y="386.4" fill="#ccc" class="taxonLabel">Lingula</text><text x="357.6" y="347.4" fill="lightgrey" class="flag">[-]</text><text x="379.6" y="347.4" fill="#ccc" class="taxonLabel">Novocrania</text><text x="357.6" y="360.4" fill="lightgrey" class="flag">[-]</text><text x="379.6" y="360.4" fill="#ccc" class="taxonLabel">Craniops</text><text x="336.8" y="334.5" fill="lightgrey" class="flag">[-]</text><text x="358.8" y="334.5" fill="#ccc" class="taxonLabel">Ussunia</text><text x="316.1" y="321.5" fill="lightgrey" class="flag">[-]</text><text x="338.1" y="321.5" fill="#ccc" class="taxonLabel">Gasconsia</text><text x="336.8" y="295.5" fill="lightgrey" class="flag">[-]</text><text x="358.8" y="295.5" fill="#ccc" class="taxonLabel">Askepasma toddense</text><text x="336.8" y="308.5" fill="lightgrey" class="flag">[-]</text><text x="358.8" y="308.5" fill="#ccc" class="taxonLabel">Micromitra</text><text x="378.3" y="269.6" fill="lightgrey" class="flag">[-]</text><text x="400.3" y="269.6" fill="#ccc" class="taxonLabel">Tomteluva perturbata</text><text x="378.3" y="282.5" fill="grey" class="flag">[?]</text><text x="400.3" y="282.5" fill="#999" class="taxonLabel">Yuganotheca elegans</text><text x="357.6" y="256.6" fill="lightgrey" class="flag">[-]</text><text x="379.6" y="256.6" fill="#ccc" class="taxonLabel">Salanygolina</text><text x="378.3" y="230.6" fill="#fdae61" class="flag">[1]</text><text x="400.3" y="230.6" fill="#000" class="taxonLabel">Antigonambonites planus</text><text x="378.3" y="243.6" fill="#fdae61" class="flag">[1]</text><text x="400.3" y="243.6" fill="#000" class="taxonLabel">Coolinia pecten</text><text x="482" y="204.7" fill="#fdae61" class="flag">[1]</text><text x="504" y="204.7" fill="#000" class="taxonLabel">Orthis</text><text x="482" y="217.7" fill="#abd9e9" class="flag">[2]</text><text x="504" y="217.7" fill="#000" class="taxonLabel">Terebratulina</text><text x="461.3" y="191.7" fill="#abd9e9" class="flag">[2]</text><text x="483.3" y="191.7" fill="#000" class="taxonLabel">Alisina</text><text x="440.5" y="178.7" fill="grey" class="flag">[?]</text><text x="462.5" y="178.7" fill="#999" class="taxonLabel">Longtancunella chengjiangensis</text><text x="419.8" y="165.7" fill="#fdae61" class="flag">[1]</text><text x="441.8" y="165.7" fill="#000" class="taxonLabel">Glyptoria</text><text x="399" y="152.8" fill="#2c7bb6" class="flag">[3]</text><text x="421" y="152.8" fill="#000" class="taxonLabel">Nisusia sulcata</text><text x="378.3" y="139.8" fill="#2c7bb6" class="flag">[3]</text><text x="400.3" y="139.8" fill="#000" class="taxonLabel">Kutorgina chengjiangensis</text><text x="253.9" y="126.8" fill="#fdae61" class="flag">[1]</text><text x="275.9" y="126.8" fill="#000" class="taxonLabel">Micrina</text><text x="233.1" y="113.8" fill="lightgrey" class="flag">[-]</text><text x="255.1" y="113.8" fill="#ccc" class="taxonLabel">Paterimitra</text><text x="191.7" y="100.8" fill="lightgrey" class="flag">[-]</text><text x="213.7" y="100.8" fill="#ccc" class="taxonLabel">Heliomedusa orienta</text><text x="191.7" y="74.9" fill="lightgrey" class="flag">[-]</text><text x="213.7" y="74.9" fill="#ccc" class="taxonLabel">Halkieria evangelista</text><text x="191.7" y="87.9" fill="lightgrey" class="flag">[-]</text><text x="213.7" y="87.9" fill="#ccc" class="taxonLabel">Dailyatia</text><text x="150.2" y="61.9" fill="lightgrey" class="flag">[-]</text><text x="172.2" y="61.9" fill="#ccc" class="taxonLabel">Cotyledion tylodes</text><text x="129.4" y="48.9" fill="lightgrey" class="flag">[-]</text><text x="151.4" y="48.9" fill="#ccc" class="taxonLabel">Eccentrotheca</text><text x="108.7" y="36" fill="lightgrey" class="flag">[-]</text><text x="130.7" y="36" fill="#ccc" class="taxonLabel">Phoronis</text><text x="88" y="23" fill="lightgrey" class="flag">[-]</text><text x="110" y="23" fill="#ccc" class="taxonLabel">Namacalathus</text><text x="67.2" y="10" fill="lightgrey" class="flag">[-]</text><text x="89.2" y="10" fill="#ccc" class="taxonLabel">Flustra</text><text x="46.5" y="542.1" fill="lightgrey" class="flag">[-]</text><text x="68.5" y="542.1" fill="#ccc" class="taxonLabel">Loxosomella</text><path d="M5,426.9V280.6H25.7M25.7,280.6V22.1H46.5M46.5,22.1V7H67.2M46.5,22.1V37.1H67.2M67.2,37.1V20H88M67.2,37.1V54.2H88M88,54.2V33H108.7M88,54.2V75.5H108.7M108.7,75.5V45.9H129.4M108.7,75.5V105.1H129.4M129.4,105.1V58.9H150.2M129.4,105.1V151.2H150.2M150.2,151.2V78.4H170.9M170.9,78.4V71.9H191.7M170.9,78.4V84.9H191.7M150.2,151.2V224.1H170.9M170.9,224.1V97.8H191.7M170.9,224.1V350.3H191.7M191.7,350.3V181H212.4M212.4,181V110.8H233.1M212.4,181V251.2H233.1M233.1,251.2V378.5H253.9M253.9,378.5V296.6H274.6M274.6,296.6V263.3H295.3M295.3,263.3V227.6H316.1M316.1,227.6V263.3H336.8M336.8,263.3V253.6H357.6M336.8,263.3V273.1H357.6M357.6,273.1V266.6H378.3M357.6,273.1V279.5H378.3M295.3,263.3V299H316.1M316.1,299V292.5H336.8M316.1,299V305.5H336.8M274.6,296.6V329.8H295.3M295.3,329.8V318.5H316.1M295.3,329.8V341.2H316.1M316.1,341.2V331.5H336.8M316.1,341.2V350.9H336.8M336.8,350.9V344.4H357.6M336.8,350.9V357.4H357.6M253.9,378.5V460.4H274.6M274.6,460.4V427.2H295.3M295.3,427.2V396.3H316.1M316.1,396.3V376.9H336.8M336.8,376.9V370.4H357.6M336.8,376.9V383.4H357.6M316.1,396.3V415.8H336.8M336.8,415.8V402.8H357.6M357.6,402.8V396.3H378.3M357.6,402.8V409.3H378.3M336.8,415.8V428.8H357.6M357.6,428.8V422.3H378.3M357.6,428.8V435.3H378.3M295.3,427.2V458H316.1M316.1,458V448.3H336.8M316.1,458V467.7H336.8M336.8,467.7V461.2H357.6M336.8,467.7V474.2H357.6M274.6,460.4V493.7H295.3M295.3,493.7V487.2H316.1M295.3,493.7V500.2H316.1M191.7,350.3V519.6H212.4M212.4,519.6V513.2H233.1M212.4,519.6V526.1H233.1M25.7,280.6V539.1H46.5M5,426.9V573.2H25.7M25.7,573.2V558.6H46.5M46.5,558.6V552.1H67.2M46.5,558.6V565.1H67.2M25.7,573.2V587.8H46.5M46.5,587.8V578H67.2M46.5,587.8V597.5H67.2M67.2,597.5V591H88" stroke="lightgrey" class="inapplicable"></path><path d="M233.1,251.2V123.8H253.9M399,174.9V162.7H419.8M461.3,208.2V201.7H482M336.8,191.8V234.1H357.6M357.6,234.1V227.6H378.3M357.6,234.1V240.6H378.3M67.2,597.5V604H88" stroke="#fdae61"></path><path d="M316.1,227.6V191.8H336.8M336.8,191.8V149.6H357.6M357.6,149.6V162.3H378.3M378.3,162.3V174.9H399M399,174.9V187.1H419.8M419.8,187.1V175.7H440.5M419.8,187.1V198.4H440.5M440.5,198.4V208.2H461.3" stroke="darkgrey"></path><path d="M357.6,149.6V136.8H378.3M378.3,162.3V149.8H399" stroke="#2c7bb6"></path><path d="M440.5,198.4V188.7H461.3M461.3,208.2V214.7H482" stroke="#abd9e9"></path><text x="7" y="429.9" class="node" fill="#4A6FE3">1</text><text x="27.7" y="283.6" class="node" fill="#4A6FE3">1</text><text x="48.5" y="25.1" class="node" fill="#6982E1">0.92</text><text x="69.2" y="40.1" class="node" fill="#6982E1">0.92</text><text x="90" y="57.2" class="node" fill="#E6ABB6">0.32</text><text x="110.7" y="78.5" class="node" fill="#6982E1">0.92</text><text x="131.4" y="108.1" class="node" fill="#E392A2">0.24</text><text x="152.2" y="154.2" class="node" fill="#BFC4E3">0.63</text><text x="172.9" y="81.4" class="node" fill="#E0E0E2">0.51</text><text x="172.9" y="227.1" class="node" fill="#4A6FE3">1</text><text x="193.7" y="353.3" class="node" fill="#E6BDC5">0.38</text><text x="214.4" y="184" class="node" fill="#E6BDC5">0.38</text><text x="235.1" y="254.2" class="node" fill="#E6BDC5">0.38</text><text x="255.9" y="381.5" class="node" fill="#E6BDC5">0.38</text><text x="276.6" y="299.6" class="node" fill="#E6BDC5">0.38</text><text x="297.3" y="266.3" class="node" fill="#D7D9E3">0.54</text><text x="318.1" y="230.6" class="node" fill="#4A6FE3">1</text><text x="338.8" y="194.8" class="node" fill="#8394E1">0.84</text><text x="359.6" y="152.6" class="node" fill="#8C9BE1">0.81</text><text x="380.3" y="165.3" class="node" fill="#8C9BE1">0.81</text><text x="401" y="177.9" class="node" fill="#7388E1">0.89</text><text x="421.8" y="190.1" class="node" fill="#7388E1">0.89</text><text x="442.5" y="201.4" class="node" fill="#4A6FE3">1</text><text x="463.3" y="211.2" class="node" fill="#667FE1">0.93</text><text x="359.6" y="237.1" class="node" fill="#4A6FE3">1</text><text x="338.8" y="266.3" class="node" fill="#929FE1">0.79</text><text x="359.6" y="276.1" class="node" fill="#7D8FE1">0.86</text><text x="318.1" y="302" class="node" fill="#B9BFE3">0.65</text><text x="297.3" y="332.8" class="node" fill="#E6BDC5">0.38</text><text x="318.1" y="344.2" class="node" fill="#627DE1">0.94</text><text x="338.8" y="353.9" class="node" fill="#4A6FE3">1</text><text x="276.6" y="463.4" class="node" fill="#E0E0E2">0.51</text><text x="297.3" y="430.2" class="node" fill="#4A6FE3">1</text><text x="318.1" y="399.3" class="node" fill="#E6BDC5">0.38</text><text x="338.8" y="379.9" class="node" fill="#E6BDC5">0.38</text><text x="338.8" y="418.8" class="node" fill="#8F9DE1">0.8</text><text x="359.6" y="405.8" class="node" fill="#E495A5">0.25</text><text x="359.6" y="431.8" class="node" fill="#4A6FE3">1</text><text x="318.1" y="461" class="node" fill="#E0E0E2">0.51</text><text x="338.8" y="470.7" class="node" fill="#E6BDC5">0.38</text><text x="297.3" y="496.7" class="node" fill="#4A6FE3">1</text><text x="214.4" y="522.6" class="node" fill="#4A6FE3">1</text><text x="27.7" y="576.2" class="node" fill="#4A6FE3">1</text><text x="48.5" y="561.6" class="node" fill="#4A6FE3">1</text><text x="48.5" y="590.8" class="node" fill="#4A6FE3">1</text><text x="69.2" y="600.5" class="node" fill="#8696E1">0.83</text></svg>
