<svg xmlns="http://www.w3.org/2000/svg" version="1.1" viewBox="0 0 682 520" preserveAspectRatio="xMidYMid meet" class="tree" data-char=""><text x="678" y="12.4" text-anchor="end" class="stepsLabel">Character adds <tspan class="score">1</tspan> to tree score</text><text x="678" y="21.8" text-anchor="end" class="stepsLabel"><tspan class="score">0</tspan> additional regions</text><text x="678" y="31.2" text-anchor="end" class="stepsLabel"></text><text x="678" y="50" text-anchor="end" class="stepsLabel"><tspan dy="16" fill="#34caaf">An optimal tree under:</tspan><tspan x="680" style="font-style:italic" class="notThisAn" dy="1.2em">Implied weights, k = 3</tspan><tspan x="680" style="font-style:italic" class="notThisAn" dy="1.2em">IW, k = 4.5</tspan><tspan x="680" style="font-style:italic" class="notThisAn" dy="1.2em">IW, k = 7</tspan><tspan x="680" style="font-style:italic" class="notThisAn" dy="1.2em">IW, k = 10.5</tspan><tspan x="680" style="font-style:italic" class="notThisAn" dy="1.2em">IW, k = 16</tspan><tspan x="680" style="font-style:italic" class="notThisAn" dy="1.2em">IW, k = 24</tspan><tspan x="680" style="font-style:italic" class="thisAn" dy="1.2em">Equal weights</tspan></text><text x="76.6" y="505.5" fill="#fc8d59" class="flag">[0]</text><text x="98.6" y="505.5" fill="#000" class="taxonLabel">Flustra</text><text x="76.6" y="515" fill="grey" class="flag">[?]</text><text x="98.6" y="515" fill="#999" class="taxonLabel">Amathia</text><text x="100.4" y="486.4" fill="#fc8d59" class="flag">[0]</text><text x="122.4" y="486.4" fill="#000" class="taxonLabel">Phoronis</text><text x="100.4" y="495.9" fill="grey" class="flag">[?]</text><text x="122.4" y="495.9" fill="#999" class="taxonLabel">Namacalathus</text><text x="124.2" y="467.4" fill="grey" class="flag">[?]</text><text x="146.2" y="467.4" fill="#999" class="taxonLabel">Eccentrotheca</text><text x="124.2" y="476.9" fill="grey" class="flag">[?]</text><text x="146.2" y="476.9" fill="#999" class="taxonLabel">Cotyledion tylodes</text><text x="291.2" y="400.7" fill="grey" class="flag">[?]</text><text x="313.2" y="400.7" fill="#999" class="taxonLabel">Pauxillites</text><text x="291.2" y="410.2" fill="grey" class="flag">[?]</text><text x="313.2" y="410.2" fill="#999" class="taxonLabel">Maxilites</text><text x="267.4" y="419.7" fill="grey" class="flag">[?]</text><text x="289.4" y="419.7" fill="#999" class="taxonLabel">Haplophrentis carinatus</text><text x="315.1" y="362.5" fill="grey" class="flag">[?]</text><text x="337.1" y="362.5" fill="#999" class="taxonLabel">Conotheca</text><text x="315.1" y="372.1" fill="grey" class="flag">[?]</text><text x="337.1" y="372.1" fill="#999" class="taxonLabel">Bactrotheca</text><text x="291.2" y="381.6" fill="grey" class="flag">[?]</text><text x="313.2" y="381.6" fill="#999" class="taxonLabel">Cupitheca holocyclata</text><text x="267.4" y="391.1" fill="grey" class="flag">[?]</text><text x="289.4" y="391.1" fill="#999" class="taxonLabel">Paramicrocornus</text><text x="219.7" y="429.2" fill="grey" class="flag">[?]</text><text x="241.7" y="429.2" fill="#999" class="taxonLabel">Pedunculotheca diania</text><text x="291.2" y="324.4" fill="grey" class="flag">[?]</text><text x="313.2" y="324.4" fill="#999" class="taxonLabel">Mickwitzia muralensis</text><text x="291.2" y="334" fill="grey" class="flag">[?]</text><text x="313.2" y="334" fill="#999" class="taxonLabel">Heliomedusa orienta</text><text x="267.4" y="343.5" fill="grey" class="flag">[?]</text><text x="289.4" y="343.5" fill="#999" class="taxonLabel">Micrina</text><text x="315.1" y="305.4" fill="grey" class="flag">[?]</text><text x="337.1" y="305.4" fill="#999" class="taxonLabel">Micromitra</text><text x="315.1" y="314.9" fill="grey" class="flag">[?]</text><text x="337.1" y="314.9" fill="#999" class="taxonLabel">Askepasma toddense</text><text x="362.8" y="276.8" fill="grey" class="flag">[?]</text><text x="384.8" y="276.8" fill="#999" class="taxonLabel">Coolinia pecten</text><text x="362.8" y="286.3" fill="grey" class="flag">[?]</text><text x="384.8" y="286.3" fill="#999" class="taxonLabel">Antigonambonites planus</text><text x="410.5" y="248.2" fill="grey" class="flag">[?]</text><text x="432.5" y="248.2" fill="#999" class="taxonLabel">Tomteluva perturbata</text><text x="410.5" y="257.7" fill="grey" class="flag">[?]</text><text x="432.5" y="257.7" fill="#999" class="taxonLabel">Nisusia sulcata</text><text x="386.6" y="267.3" fill="grey" class="flag">[?]</text><text x="408.6" y="267.3" fill="#999" class="taxonLabel">Kutorgina chengjiangensis</text><text x="458.2" y="200.6" fill="#fc8d59" class="flag">[0]</text><text x="480.2" y="200.6" fill="#000" class="taxonLabel">Terebratulina</text><text x="458.2" y="210.1" fill="grey" class="flag">[?]</text><text x="480.2" y="210.1" fill="#999" class="taxonLabel">Orthis</text><text x="434.3" y="219.6" fill="grey" class="flag">[?]</text><text x="456.3" y="219.6" fill="#999" class="taxonLabel">Alisina</text><text x="410.5" y="229.2" fill="grey" class="flag">[?]</text><text x="432.5" y="229.2" fill="#999" class="taxonLabel">Longtancunella chengjiangensis</text><text x="386.6" y="238.7" fill="grey" class="flag">[?]</text><text x="408.6" y="238.7" fill="#999" class="taxonLabel">Glyptoria</text><text x="315.1" y="295.8" fill="grey" class="flag">[?]</text><text x="337.1" y="295.8" fill="#999" class="taxonLabel">Salanygolina</text><text x="362.8" y="162.5" fill="#fc8d59" class="flag">[0]</text><text x="384.8" y="162.5" fill="#000" class="taxonLabel">Novocrania</text><text x="362.8" y="172" fill="grey" class="flag">[?]</text><text x="384.8" y="172" fill="#999" class="taxonLabel">Craniops</text><text x="338.9" y="181.5" fill="grey" class="flag">[?]</text><text x="360.9" y="181.5" fill="#999" class="taxonLabel">Ussunia</text><text x="315.1" y="191" fill="grey" class="flag">[?]</text><text x="337.1" y="191" fill="#999" class="taxonLabel">Gasconsia</text><text x="410.5" y="114.8" fill="#fc8d59" class="flag">[0]</text><text x="432.5" y="114.8" fill="#000" class="taxonLabel">Pelagodiscus atlanticus</text><text x="410.5" y="124.3" fill="grey" class="flag">[?]</text><text x="432.5" y="124.3" fill="#999" class="taxonLabel">Mummpikia nuda</text><text x="482" y="67.2" fill="grey" class="flag">[?]</text><text x="504" y="67.2" fill="#999" class="taxonLabel">Siphonobolus priscus</text><text x="482" y="76.7" fill="grey" class="flag">[?]</text><text x="504" y="76.7" fill="#999" class="taxonLabel">Acanthotretella spinosa</text><text x="458.2" y="86.2" fill="grey" class="flag">[?]</text><text x="480.2" y="86.2" fill="#999" class="taxonLabel">Clupeafumosus socialis</text><text x="434.3" y="95.8" fill="grey" class="flag">[?]</text><text x="456.3" y="95.8" fill="#999" class="taxonLabel">Lingulosacculus</text><text x="410.5" y="105.3" fill="grey" class="flag">[?]</text><text x="432.5" y="105.3" fill="#999" class="taxonLabel">Lingulellotreta malongensis</text><text x="362.8" y="133.9" fill="grey" class="flag">[?]</text><text x="384.8" y="133.9" fill="#999" class="taxonLabel">Botsfordia</text><text x="338.9" y="143.4" fill="grey" class="flag">[?]</text><text x="360.9" y="143.4" fill="#999" class="taxonLabel">Eoobolus</text><text x="315.1" y="152.9" fill="#fc8d59" class="flag">[0]</text><text x="337.1" y="152.9" fill="#000" class="taxonLabel">Lingula</text><text x="219.7" y="353" fill="grey" class="flag">[?]</text><text x="241.7" y="353" fill="#999" class="taxonLabel">Yuganotheca elegans</text><text x="172" y="438.8" fill="grey" class="flag">[?]</text><text x="194" y="438.8" fill="#999" class="taxonLabel">Paterimitra</text><text x="148.1" y="448.3" fill="grey" class="flag">[?]</text><text x="170.1" y="448.3" fill="#999" class="taxonLabel">Halkieria evangelista</text><text x="124.2" y="457.8" fill="grey" class="flag">[?]</text><text x="146.2" y="457.8" fill="#999" class="taxonLabel">Dailyatia</text><text x="100.4" y="38.6" fill="#91bfdb" class="flag">[1]</text><text x="122.4" y="38.6" fill="#000" class="taxonLabel">Sipunculus</text><text x="100.4" y="48.1" fill="#91bfdb" class="flag">[1]</text><text x="122.4" y="48.1" fill="#000" class="taxonLabel">Serpula</text><text x="124.2" y="10" fill="#fc8d59" class="flag">[0]</text><text x="146.2" y="10" fill="#000" class="taxonLabel">Tonicella</text><text x="124.2" y="19.5" fill="#fc8d59" class="flag">[0]</text><text x="146.2" y="19.5" fill="#000" class="taxonLabel">Dentalium</text><text x="100.4" y="29.1" fill="grey" class="flag">[?]</text><text x="122.4" y="29.1" fill="#999" class="taxonLabel">Wiwaxia corrugata</text><text x="52.7" y="57.6" fill="grey" class="flag">[?]</text><text x="74.7" y="57.6" fill="#999" class="taxonLabel">Loxosomella</text><path d="M5,265.6V42.1H28.9M28.9,42.1V29.6H52.7M52.7,29.6V18.9H76.6M76.6,18.9V11.8H100.4M100.4,11.8V7H124.2M100.4,11.8V16.5H124.2M76.6,18.9V26.1H100.4M28.9,42.1V54.6H52.7M5,265.6V489.1H28.9M28.9,489.1V471H52.7M52.7,471V453.8H76.6M76.6,453.8V438.5H100.4M100.4,438.5V422.2H124.2M124.2,422.2V399.2H148.1M148.1,399.2V362.6H172M172,362.6V314.8H195.8M195.8,314.8V279.5H219.7M219.7,279.5V225.7H243.5M243.5,225.7V159.6H267.4M267.4,159.6V139.5H291.2M291.2,139.5V129.2H315.1M315.1,129.2V117.9H338.9M338.9,117.9V105H362.8M362.8,105V93.4H386.6M386.6,93.4V84.4H410.5M410.5,84.4V76.1H434.3M434.3,76.1V68.9H458.2M458.2,68.9V64.2H482M458.2,68.9V73.7H482M434.3,76.1V83.2H458.2M410.5,84.4V92.8H434.3M386.6,93.4V102.3H410.5M362.8,105V116.6H386.6M386.6,116.6V111.8H410.5M386.6,116.6V121.3H410.5M338.9,117.9V130.9H362.8M315.1,129.2V140.4H338.9M291.2,139.5V149.9H315.1M267.4,159.6V179.7H291.2M291.2,179.7V171.4H315.1M315.1,171.4V164.2H338.9M338.9,164.2V159.5H362.8M338.9,164.2V169H362.8M315.1,171.4V178.5H338.9M291.2,179.7V188H315.1M243.5,225.7V291.8H267.4M267.4,291.8V276.5H291.2M291.2,276.5V260.2H315.1M315.1,260.2V241.9H338.9M338.9,241.9V226.7H362.8M362.8,226.7V217.8H386.6M386.6,217.8V209.5H410.5M410.5,209.5V202.3H434.3M434.3,202.3V197.6H458.2M434.3,202.3V207.1H458.2M410.5,209.5V216.6H434.3M386.6,217.8V226.2H410.5M362.8,226.7V235.7H386.6M338.9,241.9V257.1H362.8M362.8,257.1V250H386.6M386.6,250V245.2H410.5M386.6,250V254.7H410.5M362.8,257.1V264.3H386.6M315.1,260.2V278.6H338.9M338.9,278.6V273.8H362.8M338.9,278.6V283.3H362.8M291.2,276.5V292.8H315.1M267.4,291.8V307.1H291.2M291.2,307.1V302.4H315.1M291.2,307.1V311.9H315.1M219.7,279.5V333.3H243.5M243.5,333.3V326.2H267.4M267.4,326.2V321.4H291.2M267.4,326.2V331H291.2M243.5,333.3V340.5H267.4M195.8,314.8V350H219.7M172,362.6V410.5H195.8M195.8,410.5V394.7H219.7M219.7,394.7V379.8H243.5M243.5,379.8V371.5H267.4M267.4,371.5V364.3H291.2M291.2,364.3V359.5H315.1M291.2,364.3V369.1H315.1M267.4,371.5V378.6H291.2M243.5,379.8V388.1H267.4M219.7,394.7V409.6H243.5M243.5,409.6V402.4H267.4M267.4,402.4V397.7H291.2M267.4,402.4V407.2H291.2M243.5,409.6V416.7H267.4M195.8,410.5V426.2H219.7M148.1,399.2V435.8H172M124.2,422.2V445.3H148.1M100.4,438.5V454.8H124.2M76.6,453.8V469.1H100.4M100.4,469.1V464.4H124.2M100.4,469.1V473.9H124.2M52.7,471V488.2H76.6M76.6,488.2V483.4H100.4M76.6,488.2V492.9H100.4M28.9,489.1V507.2H52.7M52.7,507.2V502.5H76.6M52.7,507.2V512H76.6" stroke="#fc8d59"></path><path d="M52.7,29.6V40.3H76.6M76.6,40.3V35.6H100.4M76.6,40.3V45.1H100.4" stroke="#91bfdb"></path><text x="30.9" y="45.1" class="node" fill="#4A6FE3">1</text><text x="54.7" y="32.6" class="node" fill="#4A6FE3">1</text><text x="78.6" y="21.9" class="node" fill="#4A6FE3">1</text><text x="102.4" y="14.8" class="node" fill="#4A6FE3">1</text><text x="78.6" y="43.3" class="node" fill="#4A6FE3">1</text><text x="30.9" y="492.1" class="node" fill="#4A6FE3">1</text><text x="54.7" y="474" class="node" fill="#627DE1">0.94</text><text x="78.6" y="456.8" class="node" fill="#627DE1">0.94</text><text x="102.4" y="441.5" class="node" fill="#627DE1">0.94</text><text x="126.2" y="425.2" class="node" fill="#627DE1">0.94</text><text x="150.1" y="402.2" class="node" fill="#627DE1">0.94</text><text x="174" y="365.6" class="node" fill="#4A6FE3">1</text><text x="197.8" y="317.8" class="node" fill="#5374E2">0.98</text><text x="221.7" y="282.5" class="node" fill="#627DE1">0.94</text><text x="245.5" y="228.7" class="node" fill="#627DE1">0.94</text><text x="269.4" y="162.6" class="node" fill="#627DE1">0.94</text><text x="293.2" y="142.5" class="node" fill="#667FE1">0.93</text><text x="317.1" y="132.2" class="node" fill="#667FE1">0.93</text><text x="340.9" y="120.9" class="node" fill="#667FE1">0.93</text><text x="364.8" y="108" class="node" fill="#627DE1">0.94</text><text x="388.6" y="96.4" class="node" fill="#4A6FE3">1</text><text x="412.5" y="87.4" class="node" fill="#E6B7C0">0.36</text><text x="436.3" y="79.1" class="node" fill="#4A6FE3">1</text><text x="460.2" y="71.9" class="node" fill="#667FE1">0.93</text><text x="388.6" y="119.6" class="node" fill="#627DE1">0.94</text><text x="293.2" y="182.7" class="node" fill="#4A6FE3">1</text><text x="317.1" y="174.4" class="node" fill="#4A6FE3">1</text><text x="340.9" y="167.2" class="node" fill="#5B78E2">0.96</text><text x="269.4" y="294.8" class="node" fill="#4A6FE3">1</text><text x="293.2" y="279.5" class="node" fill="#5B78E2">0.96</text><text x="317.1" y="263.2" class="node" fill="#5F7BE1">0.95</text><text x="340.9" y="244.9" class="node" fill="#4A6FE3">1</text><text x="364.8" y="229.7" class="node" fill="#4A6FE3">1</text><text x="388.6" y="220.8" class="node" fill="#4A6FE3">1</text><text x="412.5" y="212.5" class="node" fill="#5B78E2">0.96</text><text x="436.3" y="205.3" class="node" fill="#E59FAC">0.28</text><text x="364.8" y="260.1" class="node" fill="#DB6581">0.1</text><text x="388.6" y="253" class="node" fill="#4A6FE3">1</text><text x="340.9" y="281.6" class="node" fill="#5B78E2">0.96</text><text x="293.2" y="310.1" class="node" fill="#627DE1">0.94</text><text x="245.5" y="336.3" class="node" fill="#627DE1">0.94</text><text x="269.4" y="329.2" class="node" fill="#627DE1">0.94</text><text x="197.8" y="413.5" class="node" fill="#627DE1">0.94</text><text x="221.7" y="397.7" class="node" fill="#E2899B">0.21</text><text x="245.5" y="382.8" class="node" fill="#627DE1">0.94</text><text x="269.4" y="374.5" class="node" fill="#4A6FE3">1</text><text x="293.2" y="367.3" class="node" fill="#4A6FE3">1</text><text x="245.5" y="412.6" class="node" fill="#4A6FE3">1</text><text x="269.4" y="405.4" class="node" fill="#E5A5B1">0.3</text><text x="102.4" y="472.1" class="node" fill="#E6B4BD">0.35</text><text x="78.6" y="491.2" class="node" fill="#4A6FE3">1</text><text x="54.7" y="510.2" class="node" fill="#4A6FE3">1</text></svg>
