<svg xmlns="http://www.w3.org/2000/svg" version="1.1" width="682" height="612" class="tree" data-char="170"><text x="678" y="16" text-anchor="end" class="stepsLabel">Character adds <tspan class="score">2</tspan> to tree score</text><text x="678" y="29" text-anchor="end" class="stepsLabel"><tspan class="score">0</tspan> additional regions</text><text x="678" y="42" text-anchor="end" class="stepsLabel">CI = 0.5; Fitch CI = 0.5; Fitch RI = 0.5</text><text x="678" y="68" text-anchor="end" class="stepsLabel"><tspan dy="16">An optimal tree under:</tspan><tspan x="680" style="font-style:italic" class="thisAn" dy="1.2em">Equal weights</tspan><tspan x="680" style="font-style:italic" class="notThisAn" dy="1.2em">Implied weights, k = 2</tspan><tspan x="680" style="font-style:italic" class="notThisAn" dy="1.2em">IW, k = 3</tspan><tspan x="680" style="font-style:italic" class="notThisAn" dy="1.2em">IW, k = 4.5</tspan><tspan x="680" style="font-style:italic" class="notThisAn" dy="1.2em">IW, k = 7</tspan><tspan x="680" style="font-style:italic" class="notThisAn" dy="1.2em">IW, k = 10.5</tspan><tspan x="680" style="font-style:italic" class="notThisAn" dy="1.2em">IW, k = 16</tspan><tspan x="680" style="font-style:italic" class="notThisAn" dy="1.2em">IW, k = 24</tspan></text><text x="95.9" y="593.7" fill="#91bfdb" class="flag">[1]</text><text x="117.9" y="593.7" fill="#000" class="taxonLabel">Dentalium</text><text x="95.9" y="607" fill="#91bfdb" class="flag">[1]</text><text x="117.9" y="607" fill="#000" class="taxonLabel">Tonicella</text><text x="73.1" y="580.5" fill="grey" class="flag">[?]</text><text x="95.1" y="580.5" fill="grey" class="taxonLabel">Wiwaxia corrugata</text><text x="73.1" y="553.9" fill="#91bfdb" class="flag">[1]</text><text x="95.1" y="553.9" fill="#000" class="taxonLabel">Sipunculus</text><text x="73.1" y="567.2" fill="#fc8d59" class="flag">[0]</text><text x="95.1" y="567.2" fill="#000" class="taxonLabel">Serpula</text><text x="323" y="514.1" fill="#fc8d59" class="flag">[0]</text><text x="345" y="514.1" fill="#000" class="taxonLabel">Novocrania</text><text x="323" y="527.4" fill="grey" class="flag">[?]</text><text x="345" y="527.4" fill="grey" class="taxonLabel">Craniops</text><text x="300.3" y="500.9" fill="grey" class="flag">[?]</text><text x="322.3" y="500.9" fill="grey" class="taxonLabel">Ussunia</text><text x="277.6" y="487.6" fill="grey" class="flag">[?]</text><text x="299.6" y="487.6" fill="grey" class="taxonLabel">Gasconsia</text><text x="391.1" y="461.1" fill="grey" class="flag">[?]</text><text x="413.1" y="461.1" fill="grey" class="taxonLabel">Antigonambonites planus</text><text x="391.1" y="474.3" fill="grey" class="flag">[?]</text><text x="413.1" y="474.3" fill="grey" class="taxonLabel">Coolinia pecten</text><text x="482" y="434.5" fill="#fc8d59" class="flag">[0]</text><text x="504" y="434.5" fill="#000" class="taxonLabel">Terebratulina</text><text x="482" y="447.8" fill="grey" class="flag">[?]</text><text x="504" y="447.8" fill="grey" class="taxonLabel">Orthis</text><text x="459.3" y="421.3" fill="grey" class="flag">[?]</text><text x="481.3" y="421.3" fill="grey" class="taxonLabel">Alisina</text><text x="436.6" y="408" fill="grey" class="flag">[?]</text><text x="458.6" y="408" fill="grey" class="taxonLabel">Glyptoria</text><text x="413.9" y="394.7" fill="grey" class="flag">[?]</text><text x="435.9" y="394.7" fill="grey" class="taxonLabel">Nisusia sulcata</text><text x="391.1" y="381.5" fill="grey" class="flag">[?]</text><text x="413.1" y="381.5" fill="grey" class="taxonLabel">Kutorgina chengjiangensis</text><text x="345.7" y="368.2" fill="grey" class="flag">[?]</text><text x="367.7" y="368.2" fill="grey" class="taxonLabel">Longtancunella chengjiangensis</text><text x="345.7" y="341.7" fill="grey" class="flag">[?]</text><text x="367.7" y="341.7" fill="grey" class="taxonLabel">Tomteluva perturbata</text><text x="345.7" y="354.9" fill="grey" class="flag">[?]</text><text x="367.7" y="354.9" fill="grey" class="taxonLabel">Yuganotheca elegans</text><text x="300.3" y="328.4" fill="grey" class="flag">[?]</text><text x="322.3" y="328.4" fill="grey" class="taxonLabel">Salanygolina</text><text x="300.3" y="301.9" fill="grey" class="flag">[?]</text><text x="322.3" y="301.9" fill="grey" class="taxonLabel">Micromitra</text><text x="300.3" y="315.1" fill="grey" class="flag">[?]</text><text x="322.3" y="315.1" fill="grey" class="taxonLabel">Askepasma toddense</text><text x="413.9" y="275.3" fill="grey" class="flag">[?]</text><text x="435.9" y="275.3" fill="grey" class="taxonLabel">Acanthotretella spinosa</text><text x="413.9" y="288.6" fill="grey" class="flag">[?]</text><text x="435.9" y="288.6" fill="grey" class="taxonLabel">Siphonobolus priscus</text><text x="413.9" y="248.8" fill="grey" class="flag">[?]</text><text x="435.9" y="248.8" fill="grey" class="taxonLabel">Clupeafumosus socialis</text><text x="413.9" y="262.1" fill="grey" class="flag">[?]</text><text x="435.9" y="262.1" fill="grey" class="taxonLabel">Lingulosacculus</text><text x="368.4" y="235.5" fill="grey" class="flag">[?]</text><text x="390.4" y="235.5" fill="grey" class="taxonLabel">Lingulellotreta malongensis</text><text x="345.7" y="222.3" fill="grey" class="flag">[?]</text><text x="367.7" y="222.3" fill="grey" class="taxonLabel">Botsfordia</text><text x="323" y="209" fill="grey" class="flag">[?]</text><text x="345" y="209" fill="grey" class="taxonLabel">Mummpikia nuda</text><text x="300.3" y="195.7" fill="grey" class="flag">[?]</text><text x="322.3" y="195.7" fill="grey" class="taxonLabel">Eoobolus</text><text x="277.6" y="182.5" fill="#fc8d59" class="flag">[0]</text><text x="299.6" y="182.5" fill="#000" class="taxonLabel">Lingula</text><text x="300.3" y="155.9" fill="#fc8d59" class="flag">[0]</text><text x="322.3" y="155.9" fill="#000" class="taxonLabel">Pelagodiscus atlanticus</text><text x="300.3" y="169.2" fill="grey" class="flag">[?]</text><text x="322.3" y="169.2" fill="grey" class="taxonLabel">Mickwitzia muralensis</text><text x="277.6" y="142.7" fill="grey" class="flag">[?]</text><text x="299.6" y="142.7" fill="grey" class="taxonLabel">Micrina</text><text x="254.9" y="116.1" fill="grey" class="flag">[?]</text><text x="276.9" y="116.1" fill="grey" class="taxonLabel">Haplophrentis carinatus</text><text x="254.9" y="129.4" fill="grey" class="flag">[?]</text><text x="276.9" y="129.4" fill="grey" class="taxonLabel">Pedunculotheca diania</text><text x="232.1" y="102.9" fill="grey" class="flag">[?]</text><text x="254.1" y="102.9" fill="grey" class="taxonLabel">Paterimitra</text><text x="186.7" y="89.6" fill="grey" class="flag">[?]</text><text x="208.7" y="89.6" fill="grey" class="taxonLabel">Heliomedusa orienta</text><text x="186.7" y="63.1" fill="grey" class="flag">[?]</text><text x="208.7" y="63.1" fill="grey" class="taxonLabel">Halkieria evangelista</text><text x="186.7" y="76.3" fill="grey" class="flag">[?]</text><text x="208.7" y="76.3" fill="grey" class="taxonLabel">Dailyatia</text><text x="141.3" y="49.8" fill="grey" class="flag">[?]</text><text x="163.3" y="49.8" fill="grey" class="taxonLabel">Cotyledion tylodes</text><text x="118.6" y="36.5" fill="grey" class="flag">[?]</text><text x="140.6" y="36.5" fill="grey" class="taxonLabel">Eccentrotheca</text><text x="95.9" y="23.3" fill="#fc8d59" class="flag">[0]</text><text x="117.9" y="23.3" fill="#000" class="taxonLabel">Phoronis</text><text x="73.1" y="10" fill="#fc8d59" class="flag">[0]</text><text x="95.1" y="10" fill="#000" class="taxonLabel">Flustra</text><text x="50.4" y="540.7" fill="#fc8d59" class="flag">[0]</text><text x="72.4" y="540.7" fill="#000" class="taxonLabel">Loxosomella</text><path d="M5,426.2V280H27.7M27.7,280V22.3H50.4M50.4,22.3V7H73.1M50.4,22.3V37.5H73.1M73.1,37.5V20.3H95.9M73.1,37.5V54.8H95.9M95.9,54.8V33.5H118.6M95.9,54.8V76H118.6M118.6,76V46.8H141.3M118.6,76V105.2H141.3M141.3,105.2V66.7H164M164,66.7V60.1H186.7M164,66.7V73.3H186.7M141.3,105.2V143.6H164M164,143.6V86.6H186.7M164,143.6V200.6H186.7M186.7,200.6V109.8H209.4M209.4,109.8V99.9H232.1M209.4,109.8V119.8H232.1M232.1,119.8V113.1H254.9M232.1,119.8V126.4H254.9M186.7,200.6V291.4H209.4M209.4,291.4V171.3H232.1M232.1,171.3V149.6H254.9M254.9,149.6V139.7H277.6M254.9,149.6V159.6H277.6M277.6,159.6V152.9H300.3M277.6,159.6V166.2H300.3M232.1,171.3V192.9H254.9M254.9,192.9V179.5H277.6M254.9,192.9V206.4H277.6M277.6,206.4V192.7H300.3M277.6,206.4V220.1H300.3M300.3,220.1V206H323M300.3,220.1V234.2H323M323,234.2V219.3H345.7M323,234.2V249.1H345.7M345.7,249.1V232.5H368.4M345.7,249.1V265.7H368.4M368.4,265.7V252.4H391.1M391.1,252.4V245.8H413.9M391.1,252.4V259.1H413.9M368.4,265.7V279H391.1M391.1,279V272.3H413.9M391.1,279V285.6H413.9M209.4,291.4V411.5H232.1M232.1,411.5V326.8H254.9M254.9,326.8V305.5H277.6M277.6,305.5V298.9H300.3M277.6,305.5V312.1H300.3M254.9,326.8V348.2H277.6M277.6,348.2V325.4H300.3M277.6,348.2V371H300.3M300.3,371V345.3H323M323,345.3V338.7H345.7M323,345.3V351.9H345.7M300.3,371V396.6H323M323,396.6V365.2H345.7M323,396.6V428H345.7M345.7,428V391.3H368.4M368.4,391.3V378.5H391.1M368.4,391.3V404.2H391.1M391.1,404.2V391.7H413.9M391.1,404.2V416.6H413.9M413.9,416.6V405H436.6M413.9,416.6V428.2H436.6M436.6,428.2V418.3H459.3M436.6,428.2V438.2H459.3M459.3,438.2V431.5H482M459.3,438.2V444.8H482M345.7,428V464.7H368.4M368.4,464.7V458.1H391.1M368.4,464.7V471.3H391.1M232.1,411.5V496.2H254.9M254.9,496.2V484.6H277.6M254.9,496.2V507.8H277.6M277.6,507.8V497.9H300.3M277.6,507.8V517.8H300.3M300.3,517.8V511.1H323M300.3,517.8V524.4H323M27.7,280V537.7H50.4M50.4,557.6V564.2H73.1" stroke="#fc8d59"></path><path d="M5,426.2V572.5H27.7M27.7,572.5V557.6H50.4M27.7,572.5V587.4H50.4M50.4,587.4V577.5H73.1" stroke="darkgrey"></path><path d="M50.4,557.6V550.9H73.1M50.4,587.4V597.4H73.1M73.1,597.4V590.7H95.9M73.1,597.4V604H95.9" stroke="#91bfdb"></path><text x="7" y="429.2" class="node" fill="#4A6FE3">1</text><text x="29.7" y="283" class="node" fill="#4A6FE3">1</text><text x="52.4" y="25.3" class="node" fill="#4A6FE3">1</text><text x="75.1" y="40.5" class="node" fill="#4A6FE3">1</text><text x="97.9" y="57.8" class="node" fill="#4A6FE3">1</text><text x="120.6" y="79" class="node" fill="#E5A5B1">0.3</text><text x="143.3" y="108.2" class="node" fill="#4A6FE3">1</text><text x="166" y="69.7" class="node" fill="#4A6FE3">1</text><text x="166" y="146.6" class="node" fill="#4A6FE3">1</text><text x="188.7" y="203.6" class="node" fill="#9DA8E2">0.75</text><text x="211.4" y="112.8" class="node" fill="#B4BBE3">0.67</text><text x="234.1" y="122.8" class="node" fill="#4A6FE3">1</text><text x="211.4" y="294.4" class="node" fill="#9DA8E2">0.75</text><text x="234.1" y="174.3" class="node" fill="#B4BBE3">0.67</text><text x="256.9" y="152.6" class="node" fill="#B4BBE3">0.67</text><text x="279.6" y="162.6" class="node" fill="#9DA8E2">0.75</text><text x="256.9" y="195.9" class="node" fill="#9DA8E2">0.75</text><text x="279.6" y="209.4" class="node" fill="#B4BBE3">0.67</text><text x="302.3" y="223.1" class="node" fill="#B4BBE3">0.67</text><text x="325" y="237.2" class="node" fill="#B4BBE3">0.67</text><text x="347.7" y="252.1" class="node" fill="#B4BBE3">0.67</text><text x="370.4" y="268.7" class="node" fill="#E3DCDD">0.48</text><text x="393.1" y="255.4" class="node" fill="#DF798F">0.16</text><text x="393.1" y="282" class="node" fill="#4A6FE3">1</text><text x="234.1" y="414.5" class="node" fill="#4A6FE3">1</text><text x="256.9" y="329.8" class="node" fill="#8C9BE1">0.81</text><text x="279.6" y="308.5" class="node" fill="#4A6FE3">1</text><text x="279.6" y="351.2" class="node" fill="#667FE1">0.93</text><text x="302.3" y="374" class="node" fill="#E498A7">0.26</text><text x="325" y="348.3" class="node" fill="#7388E1">0.89</text><text x="325" y="399.6" class="node" fill="#4A6FE3">1</text><text x="347.7" y="431" class="node" fill="#DD6F88">0.13</text><text x="370.4" y="394.3" class="node" fill="#DD6F88">0.13</text><text x="393.1" y="407.2" class="node" fill="#DD6F88">0.13</text><text x="415.9" y="419.6" class="node" fill="#DD6F88">0.13</text><text x="438.6" y="431.2" class="node" fill="#4A6FE3">1</text><text x="461.3" y="441.2" class="node" fill="#5B78E2">0.96</text><text x="370.4" y="467.7" class="node" fill="#4A6FE3">1</text><text x="256.9" y="499.2" class="node" fill="#4A6FE3">1</text><text x="279.6" y="510.8" class="node" fill="#4A6FE3">1</text><text x="302.3" y="520.8" class="node" fill="#4A6FE3">1</text><text x="29.7" y="575.5" class="node" fill="#4A6FE3">1</text><text x="52.4" y="560.6" class="node" fill="#4A6FE3">1</text><text x="52.4" y="590.4" class="node" fill="#4A6FE3">1</text><text x="75.1" y="600.4" class="node" fill="#E38FA0">0.23</text></svg>
