<svg xmlns="http://www.w3.org/2000/svg" version="1.1" width="682" height="612" class="tree" data-char="112"><text x="678" y="14.3" text-anchor="end" class="stepsLabel">Character adds <tspan class="score">3</tspan> to tree score</text><text x="678" y="25.6" text-anchor="end" class="stepsLabel"><tspan class="score">1</tspan> additional region</text><text x="678" y="36.9" text-anchor="end" class="stepsLabel">CI = 0.33; Fitch CI = 0.33; Fitch RI = 0</text><text x="678" y="59.5" text-anchor="end" class="stepsLabel"><tspan dy="16" fill="#34caaf">An optimal tree under:</tspan><tspan x="680" style="font-style:italic" class="thisAn" dy="1.2em">Equal weights</tspan><tspan x="680" style="font-style:italic" class="notThisAn" dy="1.2em">Implied weights, k = 2</tspan><tspan x="680" style="font-style:italic" class="notThisAn" dy="1.2em">IW, k = 3</tspan><tspan x="680" style="font-style:italic" class="notThisAn" dy="1.2em">IW, k = 4.5</tspan><tspan x="680" style="font-style:italic" class="notThisAn" dy="1.2em">IW, k = 7</tspan><tspan x="680" style="font-style:italic" class="notThisAn" dy="1.2em">IW, k = 10.5</tspan><tspan x="680" style="font-style:italic" class="notThisAn" dy="1.2em">IW, k = 16</tspan><tspan x="680" style="font-style:italic" class="notThisAn" dy="1.2em">IW, k = 24</tspan></text><text x="91.7" y="595.5" fill="lightgrey" class="flag">[-]</text><text x="113.7" y="595.5" fill="#ccc" class="taxonLabel">Wiwaxia corrugata</text><text x="91.7" y="607" fill="lightgrey" class="flag">[-]</text><text x="113.7" y="607" fill="#ccc" class="taxonLabel">Dentalium</text><text x="70" y="584" fill="lightgrey" class="flag">[-]</text><text x="92" y="584" fill="#ccc" class="taxonLabel">Tonicella</text><text x="70" y="561.1" fill="lightgrey" class="flag">[-]</text><text x="92" y="561.1" fill="#ccc" class="taxonLabel">Serpula</text><text x="70" y="572.6" fill="lightgrey" class="flag">[-]</text><text x="92" y="572.6" fill="#ccc" class="taxonLabel">Sipunculus</text><text x="156.8" y="526.6" fill="lightgrey" class="flag">[-]</text><text x="178.8" y="526.6" fill="#ccc" class="taxonLabel">Cotyledion tylodes</text><text x="156.8" y="538.1" fill="lightgrey" class="flag">[-]</text><text x="178.8" y="538.1" fill="#ccc" class="taxonLabel">Namacalathus</text><text x="438.6" y="503.7" fill="lightgrey" class="flag">[-]</text><text x="460.6" y="503.7" fill="#ccc" class="taxonLabel">Siphonobolus priscus</text><text x="438.6" y="515.2" fill="lightgrey" class="flag">[-]</text><text x="460.6" y="515.2" fill="#ccc" class="taxonLabel">Acanthotretella spinosa</text><text x="417" y="492.2" fill="lightgrey" class="flag">[-]</text><text x="439" y="492.2" fill="#ccc" class="taxonLabel">Clupeafumosus socialis</text><text x="417" y="469.2" fill="lightgrey" class="flag">[-]</text><text x="439" y="469.2" fill="#ccc" class="taxonLabel">Lingulosacculus</text><text x="417" y="480.7" fill="lightgrey" class="flag">[-]</text><text x="439" y="480.7" fill="#ccc" class="taxonLabel">Lingulellotreta malongensis</text><text x="373.6" y="457.7" fill="lightgrey" class="flag">[-]</text><text x="395.6" y="457.7" fill="#ccc" class="taxonLabel">Botsfordia</text><text x="351.9" y="446.3" fill="lightgrey" class="flag">[-]</text><text x="373.9" y="446.3" fill="#ccc" class="taxonLabel">Mummpikia nuda</text><text x="330.2" y="434.8" fill="#e2e2a2" class="flag">[1]</text><text x="352.2" y="434.8" fill="#000" class="taxonLabel">Eoobolus</text><text x="308.5" y="423.3" fill="lightgrey" class="flag">[-]</text><text x="330.5" y="423.3" fill="#ccc" class="taxonLabel">Lingula</text><text x="308.5" y="400.3" fill="#91bfdb" class="flag">[2]</text><text x="330.5" y="400.3" fill="#000" class="taxonLabel">Mickwitzia muralensis</text><text x="308.5" y="411.8" fill="lightgrey" class="flag">[-]</text><text x="330.5" y="411.8" fill="#ccc" class="taxonLabel">Pelagodiscus atlanticus</text><text x="373.6" y="377.4" fill="#91bfdb" class="flag">[2]</text><text x="395.6" y="377.4" fill="#000" class="taxonLabel">Coolinia pecten</text><text x="373.6" y="388.9" fill="#91bfdb" class="flag">[2]</text><text x="395.6" y="388.9" fill="#000" class="taxonLabel">Antigonambonites planus</text><text x="395.3" y="354.4" fill="grey" class="flag">[?]</text><text x="417.3" y="354.4" fill="#999" class="taxonLabel">Yuganotheca elegans</text><text x="395.3" y="365.9" fill="#91bfdb" class="flag">[2]</text><text x="417.3" y="365.9" fill="#000" class="taxonLabel">Tomteluva perturbata</text><text x="482" y="331.5" fill="#e2e2a2" class="flag">[1]</text><text x="504" y="331.5" fill="#000" class="taxonLabel">Alisina</text><text x="482" y="342.9" fill="lightgrey" class="flag">[-]</text><text x="504" y="342.9" fill="#ccc" class="taxonLabel">Terebratulina</text><text x="460.3" y="320" fill="lightgrey" class="flag">[-]</text><text x="482.3" y="320" fill="#ccc" class="taxonLabel">Orthis</text><text x="438.6" y="308.5" fill="lightgrey" class="flag">[-]</text><text x="460.6" y="308.5" fill="#ccc" class="taxonLabel">Glyptoria</text><text x="417" y="297" fill="#91bfdb" class="flag">[2]</text><text x="439" y="297" fill="#000" class="taxonLabel">Nisusia sulcata</text><text x="395.3" y="285.5" fill="grey" class="flag">[?]</text><text x="417.3" y="285.5" fill="#999" class="taxonLabel">Kutorgina chengjiangensis</text><text x="330.2" y="274.1" fill="grey" class="flag">[?]</text><text x="352.2" y="274.1" fill="#999" class="taxonLabel">Longtancunella chengjiangensis</text><text x="308.5" y="262.6" fill="#91bfdb" class="flag">[2]</text><text x="330.5" y="262.6" fill="#000" class="taxonLabel">Salanygolina</text><text x="308.5" y="239.6" fill="#91bfdb" class="flag">[2]</text><text x="330.5" y="239.6" fill="#000" class="taxonLabel">Micromitra</text><text x="308.5" y="251.1" fill="lightgrey" class="flag">[-]</text><text x="330.5" y="251.1" fill="#ccc" class="taxonLabel">Askepasma toddense</text><text x="395.3" y="216.7" fill="lightgrey" class="flag">[-]</text><text x="417.3" y="216.7" fill="#ccc" class="taxonLabel">Conotheca</text><text x="395.3" y="228.1" fill="lightgrey" class="flag">[-]</text><text x="417.3" y="228.1" fill="#ccc" class="taxonLabel">Probactrotheca</text><text x="395.3" y="193.7" fill="lightgrey" class="flag">[-]</text><text x="417.3" y="193.7" fill="#ccc" class="taxonLabel">Maxilites</text><text x="395.3" y="205.2" fill="lightgrey" class="flag">[-]</text><text x="417.3" y="205.2" fill="#ccc" class="taxonLabel">Pauxillites</text><text x="351.9" y="182.2" fill="lightgrey" class="flag">[-]</text><text x="373.9" y="182.2" fill="#ccc" class="taxonLabel">Haplophrentis carinatus</text><text x="330.2" y="170.7" fill="lightgrey" class="flag">[-]</text><text x="352.2" y="170.7" fill="#ccc" class="taxonLabel">Decoritheca</text><text x="308.5" y="159.2" fill="lightgrey" class="flag">[-]</text><text x="330.5" y="159.2" fill="#ccc" class="taxonLabel">Pedunculotheca diania</text><text x="286.9" y="147.8" fill="#91bfdb" class="flag">[2]</text><text x="308.9" y="147.8" fill="#000" class="taxonLabel">Paterimitra</text><text x="265.2" y="136.3" fill="#91bfdb" class="flag">[2]</text><text x="287.2" y="136.3" fill="#000" class="taxonLabel">Micrina</text><text x="221.8" y="124.8" fill="lightgrey" class="flag">[-]</text><text x="243.8" y="124.8" fill="#ccc" class="taxonLabel">Heliomedusa orienta</text><text x="200.1" y="113.3" fill="#e2e2a2" class="flag">[1]</text><text x="222.1" y="113.3" fill="#000" class="taxonLabel">Gasconsia</text><text x="221.8" y="90.4" fill="lightgrey" class="flag">[-]</text><text x="243.8" y="90.4" fill="#ccc" class="taxonLabel">Novocrania</text><text x="221.8" y="101.8" fill="lightgrey" class="flag">[-]</text><text x="243.8" y="101.8" fill="#ccc" class="taxonLabel">Craniops</text><text x="200.1" y="78.9" fill="lightgrey" class="flag">[-]</text><text x="222.1" y="78.9" fill="#ccc" class="taxonLabel">Ussunia</text><text x="156.8" y="67.4" fill="lightgrey" class="flag">[-]</text><text x="178.8" y="67.4" fill="#ccc" class="taxonLabel">Halkieria evangelista</text><text x="135.1" y="44.4" fill="lightgrey" class="flag">[-]</text><text x="157.1" y="44.4" fill="#ccc" class="taxonLabel">Dailyatia</text><text x="135.1" y="55.9" fill="lightgrey" class="flag">[-]</text><text x="157.1" y="55.9" fill="#ccc" class="taxonLabel">Eccentrotheca</text><text x="91.7" y="33" fill="lightgrey" class="flag">[-]</text><text x="113.7" y="33" fill="#ccc" class="taxonLabel">Phoronis</text><text x="91.7" y="10" fill="lightgrey" class="flag">[-]</text><text x="113.7" y="10" fill="#ccc" class="taxonLabel">Flustra</text><text x="91.7" y="21.5" fill="lightgrey" class="flag">[-]</text><text x="113.7" y="21.5" fill="#ccc" class="taxonLabel">Amathia</text><text x="48.4" y="549.6" fill="lightgrey" class="flag">[-]</text><text x="70.4" y="549.6" fill="#ccc" class="taxonLabel">Loxosomella</text><path d="M5,439.6V302.5H26.7M26.7,302.5V58.5H48.4M48.4,58.5V12.7H70M70,12.7V7H91.7M70,12.7V18.5H91.7M48.4,58.5V104.2H70M70,104.2V30H91.7M70,104.2V178.4H91.7M91.7,178.4V47.2H113.4M113.4,47.2V41.4H135.1M113.4,47.2V52.9H135.1M91.7,178.4V309.6H113.4M113.4,309.6V89.9H135.1M135.1,89.9V64.4H156.8M135.1,89.9V115.4H156.8M156.8,115.4V84.5H178.5M178.5,84.5V75.9H200.1M178.5,84.5V93.1H200.1M200.1,93.1V87.4H221.8M200.1,93.1V98.8H221.8M200.1,182.4V121.8H221.8M265.2,156.6V168.4H286.9M286.9,168.4V156.2H308.5M286.9,168.4V180.6H308.5M308.5,180.6V167.7H330.2M308.5,180.6V193.6H330.2M330.2,193.6V179.2H351.9M330.2,193.6V207.9H351.9M351.9,207.9V196.4H373.6M373.6,196.4V190.7H395.3M373.6,196.4V202.2H395.3M351.9,207.9V219.4H373.6M373.6,219.4V213.7H395.3M373.6,219.4V225.1H395.3M286.9,242.4V248.1H308.5M395.3,304.8V315.5H417M417,315.5V305.5H438.6M417,315.5V325.6H438.6M438.6,325.6V317H460.3M438.6,325.6V334.2H460.3M460.3,334.2V339.9H482M286.9,403.1V408.8H308.5M286.9,432.2V420.3H308.5M308.5,444.2V456.5H330.2M330.2,456.5V443.3H351.9M330.2,456.5V469.8H351.9M351.9,469.8V454.7H373.6M351.9,469.8V484.9H373.6M373.6,484.9V472H395.3M395.3,472V466.2H417M395.3,472V477.7H417M373.6,484.9V497.8H395.3M395.3,497.8V489.2H417M395.3,497.8V506.4H417M417,506.4V500.7H438.6M417,506.4V512.2H438.6M113.4,309.6V529.4H135.1M135.1,529.4V523.6H156.8M135.1,529.4V535.1H156.8M26.7,302.5V546.6H48.4M5,439.6V576.7H26.7M26.7,576.7V563.8H48.4M48.4,563.8V558.1H70M48.4,563.8V569.6H70M26.7,576.7V589.6H48.4M48.4,589.6V581H70M48.4,589.6V598.3H70M70,598.3V592.5H91.7M70,598.3V604H91.7" stroke="lightgrey" class="inapplicable"></path><path d="M156.8,115.4V146.3H178.5M178.5,146.3V182.4H200.1M286.9,432.2V444.2H308.5" stroke="darkgrey"></path><path d="M178.5,146.3V110.3H200.1M460.3,334.2V328.5H482M308.5,444.2V431.8H330.2" stroke="#e2e2a2"></path><path d="M200.1,182.4V242.9H221.8M221.8,242.9V144.9H243.5M243.5,144.9V133.3H265.2M243.5,144.9V156.6H265.2M265.2,156.6V144.8H286.9M221.8,242.9V340.9H243.5M243.5,340.9V264.1H265.2M265.2,264.1V242.4H286.9M286.9,242.4V236.6H308.5M265.2,264.1V285.7H286.9M286.9,285.7V259.6H308.5M286.9,285.7V311.9H308.5M308.5,311.9V271.1H330.2M308.5,311.9V352.8H330.2M330.2,352.8V325.4H351.9M351.9,325.4V293.7H373.6M373.6,293.7V282.5H395.3M373.6,293.7V304.8H395.3M395.3,304.8V294H417M351.9,325.4V357.2H373.6M373.6,357.2V351.4H395.3M373.6,357.2V362.9H395.3M330.2,352.8V380.1H351.9M351.9,380.1V374.4H373.6M351.9,380.1V385.9H373.6M243.5,340.9V417.7H265.2M265.2,417.7V403.1H286.9M286.9,403.1V397.3H308.5M265.2,417.7V432.2H286.9" stroke="#91bfdb"></path><text x="7" y="442.6" class="node" fill="#4A6FE3">1</text><text x="28.7" y="305.5" class="node" fill="#4A6FE3">1</text><text x="50.4" y="61.5" class="node" fill="#4A6FE3">1</text><text x="72" y="15.7" class="node" fill="#4A6FE3">1</text><text x="72" y="107.2" class="node" fill="#4A6FE3">1</text><text x="93.7" y="181.4" class="node" fill="#4A6FE3">1</text><text x="115.4" y="50.2" class="node" fill="#E59FAC">0.29</text><text x="115.4" y="312.6" class="node" fill="#7388E1">0.89</text><text x="137.1" y="92.9" class="node" fill="#4A6FE3">1</text><text x="158.8" y="118.4" class="node" fill="#4A6FE3">1</text><text x="180.5" y="87.5" class="node" fill="#4A6FE3">1</text><text x="202.1" y="96.1" class="node" fill="#4A6FE3">1</text><text x="180.5" y="149.3" class="node" fill="#4A6FE3">1</text><text x="202.1" y="185.4" class="node" fill="#4A6FE3">1</text><text x="223.8" y="245.9" class="node" fill="#4A6FE3">1</text><text x="245.5" y="147.9" class="node" fill="#4A6FE3">1</text><text x="267.2" y="159.6" class="node" fill="#4A6FE3">1</text><text x="288.9" y="171.4" class="node" fill="#4A6FE3">1</text><text x="310.5" y="183.6" class="node" fill="#4A6FE3">1</text><text x="332.2" y="196.6" class="node" fill="#E6B7C0">0.36</text><text x="353.9" y="210.9" class="node" fill="#E0E0E2">0.51</text><text x="375.6" y="199.4" class="node" fill="#4A6FE3">1</text><text x="375.6" y="222.4" class="node" fill="#4A6FE3">1</text><text x="245.5" y="343.9" class="node" fill="#4A6FE3">1</text><text x="267.2" y="267.1" class="node" fill="#6982E1">0.92</text><text x="288.9" y="245.4" class="node" fill="#4A6FE3">1</text><text x="288.9" y="288.7" class="node" fill="#4A6FE3">1</text><text x="310.5" y="314.9" class="node" fill="#E5D0D3">0.44</text><text x="332.2" y="355.8" class="node" fill="#E07C92">0.17</text><text x="353.9" y="328.4" class="node" fill="#DB6581">0.1</text><text x="375.6" y="296.7" class="node" fill="#8394E1">0.84</text><text x="397.3" y="307.8" class="node" fill="#C7CBE3">0.6</text><text x="419" y="318.5" class="node" fill="#6D84E1">0.91</text><text x="440.6" y="328.6" class="node" fill="#667FE1">0.93</text><text x="462.3" y="337.2" class="node" fill="#E6C1C7">0.39</text><text x="375.6" y="360.2" class="node" fill="#5374E2">0.98</text><text x="353.9" y="383.1" class="node" fill="#4A6FE3">1</text><text x="267.2" y="420.7" class="node" fill="#4A6FE3">1</text><text x="288.9" y="406.1" class="node" fill="#4A6FE3">1</text><text x="288.9" y="435.2" class="node" fill="#4A6FE3">1</text><text x="310.5" y="447.2" class="node" fill="#4A6FE3">1</text><text x="332.2" y="459.5" class="node" fill="#8091E1">0.85</text><text x="353.9" y="472.8" class="node" fill="#8091E1">0.85</text><text x="375.6" y="487.9" class="node" fill="#8091E1">0.85</text><text x="397.3" y="475" class="node" fill="#E38FA0">0.23</text><text x="397.3" y="500.8" class="node" fill="#D2D4E3">0.57</text><text x="419" y="509.4" class="node" fill="#4A6FE3">1</text><text x="137.1" y="532.4" class="node" fill="#7388E1">0.89</text><text x="28.7" y="579.7" class="node" fill="#4A6FE3">1</text><text x="50.4" y="566.8" class="node" fill="#4A6FE3">1</text><text x="50.4" y="592.6" class="node" fill="#4A6FE3">1</text><text x="72" y="601.3" class="node" fill="#4A6FE3">1</text></svg>
