<svg xmlns="http://www.w3.org/2000/svg" version="1.1" width="682" height="612" class="tree" data-char="58"><text x="678" y="15.4" text-anchor="end" class="stepsLabel">Character adds <tspan class="score">2</tspan> to tree score</text><text x="678" y="27.8" text-anchor="end" class="stepsLabel"><tspan class="score">0</tspan> additional regions</text><text x="678" y="40.2" text-anchor="end" class="stepsLabel">CI = 0.5; Fitch CI = 0.5; Fitch RI = 0.5</text><text x="678" y="65" text-anchor="end" class="stepsLabel"><tspan dy="16">An optimal tree under:</tspan><tspan x="680" style="font-style:italic" class="notThisAn" dy="1.2em">Equal weights</tspan><tspan x="680" style="font-style:italic" class="notThisAn" dy="1.2em">Implied weights, k = 2</tspan><tspan x="680" style="font-style:italic" class="notThisAn" dy="1.2em">IW, k = 3</tspan><tspan x="680" style="font-style:italic" class="thisAn" dy="1.2em">IW, k = 4.5</tspan><tspan x="680" style="font-style:italic" class="notThisAn" dy="1.2em">IW, k = 7</tspan><tspan x="680" style="font-style:italic" class="notThisAn" dy="1.2em">IW, k = 10.5</tspan><tspan x="680" style="font-style:italic" class="notThisAn" dy="1.2em">IW, k = 16</tspan><tspan x="680" style="font-style:italic" class="notThisAn" dy="1.2em">IW, k = 24</tspan></text><text x="76.6" y="594.3" fill="lightgrey" class="flag">[-]</text><text x="98.6" y="594.3" fill="#ccc" class="taxonLabel">Serpula</text><text x="76.6" y="607" fill="lightgrey" class="flag">[-]</text><text x="98.6" y="607" fill="#ccc" class="taxonLabel">Sipunculus</text><text x="100.4" y="568.9" fill="lightgrey" class="flag">[-]</text><text x="122.4" y="568.9" fill="#ccc" class="taxonLabel">Dentalium</text><text x="100.4" y="581.6" fill="lightgrey" class="flag">[-]</text><text x="122.4" y="581.6" fill="#ccc" class="taxonLabel">Tonicella</text><text x="76.6" y="556.2" fill="lightgrey" class="flag">[-]</text><text x="98.6" y="556.2" fill="#ccc" class="taxonLabel">Wiwaxia corrugata</text><text x="76.6" y="530.8" fill="#91bfdb" class="flag">[2]</text><text x="98.6" y="530.8" fill="#000" class="taxonLabel">Cotyledion tylodes</text><text x="76.6" y="543.5" fill="#91bfdb" class="flag">[2]</text><text x="98.6" y="543.5" fill="#000" class="taxonLabel">Loxosomella</text><text x="148.1" y="492.7" fill="#e2e2a2" class="flag">[1]</text><text x="170.1" y="492.7" fill="#000" class="taxonLabel">Phoronis</text><text x="148.1" y="505.4" fill="grey" class="flag">[?]</text><text x="170.1" y="505.4" fill="#999" class="taxonLabel">Namacalathus</text><text x="482" y="467.3" fill="grey" class="flag">[?]</text><text x="504" y="467.3" fill="#999" class="taxonLabel">Orthis</text><text x="482" y="480" fill="lightgrey" class="flag">[-]</text><text x="504" y="480" fill="#ccc" class="taxonLabel">Terebratulina</text><text x="458.2" y="454.6" fill="grey" class="flag">[?]</text><text x="480.2" y="454.6" fill="#999" class="taxonLabel">Alisina</text><text x="434.3" y="441.9" fill="#e2e2a2" class="flag">[1]</text><text x="456.3" y="441.9" fill="#000" class="taxonLabel">Longtancunella chengjiangensis</text><text x="410.5" y="429.2" fill="grey" class="flag">[?]</text><text x="432.5" y="429.2" fill="#999" class="taxonLabel">Glyptoria</text><text x="386.6" y="416.5" fill="grey" class="flag">[?]</text><text x="408.6" y="416.5" fill="#999" class="taxonLabel">Nisusia sulcata</text><text x="362.8" y="403.8" fill="lightgrey" class="flag">[-]</text><text x="384.8" y="403.8" fill="#ccc" class="taxonLabel">Kutorgina chengjiangensis</text><text x="362.8" y="378.4" fill="grey" class="flag">[?]</text><text x="384.8" y="378.4" fill="#999" class="taxonLabel">Coolinia pecten</text><text x="362.8" y="391.1" fill="grey" class="flag">[?]</text><text x="384.8" y="391.1" fill="#999" class="taxonLabel">Antigonambonites planus</text><text x="362.8" y="353" fill="#e2e2a2" class="flag">[1]</text><text x="384.8" y="353" fill="#000" class="taxonLabel">Yuganotheca elegans</text><text x="362.8" y="365.7" fill="grey" class="flag">[?]</text><text x="384.8" y="365.7" fill="#999" class="taxonLabel">Tomteluva perturbata</text><text x="338.9" y="340.3" fill="grey" class="flag">[?]</text><text x="360.9" y="340.3" fill="#999" class="taxonLabel">Salanygolina</text><text x="315.1" y="314.9" fill="grey" class="flag">[?]</text><text x="337.1" y="314.9" fill="#999" class="taxonLabel">Micromitra</text><text x="315.1" y="327.6" fill="grey" class="flag">[?]</text><text x="337.1" y="327.6" fill="#999" class="taxonLabel">Askepasma toddense</text><text x="362.8" y="289.4" fill="grey" class="flag">[?]</text><text x="384.8" y="289.4" fill="#999" class="taxonLabel">Mummpikia nuda</text><text x="362.8" y="302.1" fill="grey" class="flag">[?]</text><text x="384.8" y="302.1" fill="#999" class="taxonLabel">Botsfordia</text><text x="338.9" y="276.7" fill="grey" class="flag">[?]</text><text x="360.9" y="276.7" fill="#999" class="taxonLabel">Eoobolus</text><text x="434.3" y="251.3" fill="grey" class="flag">[?]</text><text x="456.3" y="251.3" fill="#999" class="taxonLabel">Siphonobolus priscus</text><text x="434.3" y="264" fill="#e2e2a2" class="flag">[1]</text><text x="456.3" y="264" fill="#000" class="taxonLabel">Acanthotretella spinosa</text><text x="410.5" y="238.6" fill="#e2e2a2" class="flag">[1]</text><text x="432.5" y="238.6" fill="#000" class="taxonLabel">Lingulosacculus</text><text x="386.6" y="225.9" fill="grey" class="flag">[?]</text><text x="408.6" y="225.9" fill="#999" class="taxonLabel">Clupeafumosus socialis</text><text x="386.6" y="200.5" fill="#e2e2a2" class="flag">[1]</text><text x="408.6" y="200.5" fill="#000" class="taxonLabel">Lingulellotreta malongensis</text><text x="386.6" y="213.2" fill="#e2e2a2" class="flag">[1]</text><text x="408.6" y="213.2" fill="#000" class="taxonLabel">Lingula</text><text x="338.9" y="187.8" fill="#91bfdb" class="flag">[2]</text><text x="360.9" y="187.8" fill="#000" class="taxonLabel">Pelagodiscus atlanticus</text><text x="362.8" y="162.4" fill="grey" class="flag">[?]</text><text x="384.8" y="162.4" fill="#999" class="taxonLabel">Craniops</text><text x="362.8" y="175.1" fill="lightgrey" class="flag">[-]</text><text x="384.8" y="175.1" fill="#ccc" class="taxonLabel">Novocrania</text><text x="338.9" y="149.7" fill="grey" class="flag">[?]</text><text x="360.9" y="149.7" fill="#999" class="taxonLabel">Ussunia</text><text x="315.1" y="137" fill="grey" class="flag">[?]</text><text x="337.1" y="137" fill="#999" class="taxonLabel">Gasconsia</text><text x="267.4" y="111.6" fill="grey" class="flag">[?]</text><text x="289.4" y="111.6" fill="#999" class="taxonLabel">Mickwitzia muralensis</text><text x="267.4" y="124.3" fill="grey" class="flag">[?]</text><text x="289.4" y="124.3" fill="#999" class="taxonLabel">Micrina</text><text x="219.7" y="98.9" fill="grey" class="flag">[?]</text><text x="241.7" y="98.9" fill="#999" class="taxonLabel">Paterimitra</text><text x="219.7" y="73.5" fill="#e2e2a2" class="flag">[1]</text><text x="241.7" y="73.5" fill="#000" class="taxonLabel">Haplophrentis carinatus</text><text x="219.7" y="86.2" fill="grey" class="flag">[?]</text><text x="241.7" y="86.2" fill="#999" class="taxonLabel">Pedunculotheca diania</text><text x="172" y="60.8" fill="grey" class="flag">[?]</text><text x="194" y="60.8" fill="#999" class="taxonLabel">Heliomedusa orienta</text><text x="172" y="35.4" fill="grey" class="flag">[?]</text><text x="194" y="35.4" fill="#999" class="taxonLabel">Dailyatia</text><text x="172" y="48.1" fill="grey" class="flag">[?]</text><text x="194" y="48.1" fill="#999" class="taxonLabel">Halkieria evangelista</text><text x="124.2" y="10" fill="#e2e2a2" class="flag">[1]</text><text x="146.2" y="10" fill="#000" class="taxonLabel">Flustra</text><text x="124.2" y="22.7" fill="#e2e2a2" class="flag">[1]</text><text x="146.2" y="22.7" fill="#000" class="taxonLabel">Amathia</text><text x="76.6" y="518.1" fill="grey" class="flag">[?]</text><text x="98.6" y="518.1" fill="#999" class="taxonLabel">Eccentrotheca</text><path d="M5,506.3V432.4H28.9M28.9,432.4V330.6H52.7M52.7,330.6V515.1H76.6" stroke="darkgrey"></path><path d="M52.7,330.6V146H76.6M76.6,146V13.4H100.4M100.4,13.4V7H124.2M100.4,13.4V19.7H124.2M76.6,146V278.7H100.4M100.4,278.7V61.4H124.2M124.2,61.4V38.8H148.1M148.1,38.8V32.4H172M148.1,38.8V45.1H172M124.2,61.4V84.1H148.1M148.1,84.1V57.8H172M148.1,84.1V110.5H172M172,110.5V76.9H195.8M195.8,76.9V70.5H219.7M195.8,76.9V83.2H219.7M172,110.5V144.1H195.8M195.8,144.1V95.9H219.7M195.8,144.1V192.2H219.7M219.7,192.2V115H243.5M243.5,115V108.6H267.4M243.5,115V121.3H267.4M219.7,192.2V269.5H243.5M243.5,269.5V193.9H267.4M267.4,193.9V242.6H291.2M291.2,242.6V201.9H315.1M315.1,201.9V219H338.9M338.9,219V203.9H362.8M362.8,203.9V197.5H386.6M362.8,203.9V210.2H386.6M338.9,219V234.1H362.8M362.8,234.1V222.9H386.6M362.8,234.1V245.2H386.6M386.6,245.2V235.6H410.5M386.6,245.2V254.7H410.5M410.5,254.7V248.3H434.3M410.5,254.7V261H434.3M291.2,242.6V283.3H315.1M315.1,283.3V273.7H338.9M315.1,283.3V292.8H338.9M338.9,292.8V286.4H362.8M338.9,292.8V299.1H362.8M243.5,269.5V345.2H267.4M267.4,345.2V318.2H291.2M291.2,318.2V311.9H315.1M291.2,318.2V324.6H315.1M267.4,345.2V372.1H291.2M291.2,372.1V346.8H315.1M315.1,346.8V337.3H338.9M315.1,346.8V356.3H338.9M338.9,356.3V350H362.8M338.9,356.3V362.7H362.8M291.2,372.1V397.5H315.1M315.1,397.5V381.7H338.9M338.9,381.7V375.4H362.8M338.9,381.7V388.1H362.8M315.1,397.5V413.3H338.9M338.9,413.3V425.8H362.8M362.8,425.8V413.5H386.6M362.8,425.8V438.1H386.6M386.6,438.1V426.2H410.5M386.6,438.1V450H410.5M410.5,450V438.9H434.3M100.4,278.7V496H124.2M124.2,496V489.7H148.1M124.2,496V502.4H148.1" stroke="#e2e2a2"></path><path d="M267.4,193.9V145.1H291.2M291.2,145.1V134H315.1M291.2,145.1V156.2H315.1M315.1,156.2V146.7H338.9M315.1,156.2V165.8H338.9M338.9,165.8V159.4H362.8M338.9,165.8V172.1H362.8M338.9,413.3V400.8H362.8M410.5,450V461.1H434.3M434.3,461.1V451.6H458.2M434.3,461.1V470.6H458.2M458.2,470.6V464.3H482M458.2,470.6V477H482M5,506.3V580.2H28.9M28.9,580.2V562.7H52.7M52.7,562.7V553.2H76.6M52.7,562.7V572.2H76.6M76.6,572.2V565.9H100.4M76.6,572.2V578.6H100.4M28.9,580.2V597.6H52.7M52.7,597.6V591.3H76.6M52.7,597.6V604H76.6" stroke="lightgrey" class="inapplicable"></path><path d="M315.1,201.9V184.8H338.9M28.9,432.4V534.1H52.7M52.7,534.1V527.8H76.6M52.7,534.1V540.5H76.6" stroke="#91bfdb"></path><text x="7" y="509.3" class="node" fill="#4A6FE3">1</text><text x="30.9" y="435.4" class="node" fill="#4A6FE3">1</text><text x="54.7" y="333.6" class="node" fill="#DB6581">0.1</text><text x="78.6" y="149" class="node" fill="#D4486F">0.02</text><text x="102.4" y="16.4" class="node" fill="#4A6FE3">1</text><text x="102.4" y="281.7" class="node" fill="#D95A7A">0.07</text><text x="126.2" y="64.4" class="node" fill="#E6B1BB">0.34</text><text x="150.1" y="41.8" class="node" fill="#E28699">0.2</text><text x="150.1" y="87.1" class="node" fill="#E4D9DB">0.47</text><text x="174" y="113.5" class="node" fill="#DF798F">0.16</text><text x="197.8" y="79.9" class="node" fill="#4A6FE3">1</text><text x="197.8" y="147.1" class="node" fill="#DF798F">0.16</text><text x="221.7" y="195.2" class="node" fill="#DF798F">0.16</text><text x="245.5" y="118" class="node" fill="#DC6884">0.11</text><text x="245.5" y="272.5" class="node" fill="#D54C71">0.03</text><text x="269.4" y="196.9" class="node" fill="#DB6581">0.1</text><text x="293.2" y="148.1" class="node" fill="#E38FA0">0.23</text><text x="317.1" y="159.2" class="node" fill="#E4D9DB">0.47</text><text x="340.9" y="168.8" class="node" fill="#4A6FE3">1</text><text x="293.2" y="245.6" class="node" fill="#E495A5">0.25</text><text x="317.1" y="204.9" class="node" fill="#E495A5">0.25</text><text x="340.9" y="222" class="node" fill="#E6BDC5">0.38</text><text x="364.8" y="206.9" class="node" fill="#E6BDC5">0.38</text><text x="364.8" y="237.1" class="node" fill="#8F9DE1">0.8</text><text x="388.6" y="248.2" class="node" fill="#E59FAC">0.28</text><text x="412.5" y="257.7" class="node" fill="#4A6FE3">1</text><text x="317.1" y="286.3" class="node" fill="#E4D9DB">0.47</text><text x="340.9" y="295.8" class="node" fill="#E6BDC5">0.38</text><text x="269.4" y="348.2" class="node" fill="#667FE1">0.93</text><text x="293.2" y="321.2" class="node" fill="#4A6FE3">1</text><text x="293.2" y="375.1" class="node" fill="#667FE1">0.93</text><text x="317.1" y="349.8" class="node" fill="#E3DFE0">0.49</text><text x="340.9" y="359.3" class="node" fill="#9AA6E2">0.76</text><text x="317.1" y="400.5" class="node" fill="#7A8DE1">0.87</text><text x="340.9" y="384.7" class="node" fill="#4A6FE3">1</text><text x="340.9" y="416.3" class="node" fill="#E4D9DB">0.47</text><text x="364.8" y="428.8" class="node" fill="#E4D9DB">0.47</text><text x="388.6" y="441.1" class="node" fill="#C7CBE3">0.6</text><text x="412.5" y="453" class="node" fill="#C7CBE3">0.6</text><text x="436.3" y="464.1" class="node" fill="#4A6FE3">1</text><text x="460.2" y="473.6" class="node" fill="#8696E1">0.83</text><text x="126.2" y="499" class="node" fill="#4A6FE3">1</text><text x="54.7" y="537.1" class="node" fill="#DD6C86">0.12</text><text x="30.9" y="583.2" class="node" fill="#4A6FE3">1</text><text x="54.7" y="565.7" class="node" fill="#4A6FE3">1</text><text x="78.6" y="575.2" class="node" fill="#7A8DE1">0.87</text><text x="54.7" y="600.6" class="node" fill="#4A6FE3">1</text></svg>
