<svg xmlns="http://www.w3.org/2000/svg" version="1.1" width="682" height="612" class="tree" data-char="25"><text x="678" y="15.4" text-anchor="end" class="stepsLabel">Character adds <tspan class="score">2</tspan> to tree score</text><text x="678" y="27.8" text-anchor="end" class="stepsLabel"><tspan class="score">0</tspan> additional regions</text><text x="678" y="40.2" text-anchor="end" class="stepsLabel">CI = 0.5; Fitch CI = 0.5; Fitch RI = 0</text><text x="678" y="65" text-anchor="end" class="stepsLabel"><tspan dy="16">An optimal tree under:</tspan><tspan x="680" style="font-style:italic" class="thisAn" dy="1.2em">Equal weights</tspan><tspan x="680" style="font-style:italic" class="notThisAn" dy="1.2em">Implied weights, k = 2</tspan><tspan x="680" style="font-style:italic" class="notThisAn" dy="1.2em">IW, k = 3</tspan><tspan x="680" style="font-style:italic" class="notThisAn" dy="1.2em">IW, k = 4.5</tspan><tspan x="680" style="font-style:italic" class="notThisAn" dy="1.2em">IW, k = 7</tspan><tspan x="680" style="font-style:italic" class="notThisAn" dy="1.2em">IW, k = 10.5</tspan><tspan x="680" style="font-style:italic" class="notThisAn" dy="1.2em">IW, k = 16</tspan><tspan x="680" style="font-style:italic" class="notThisAn" dy="1.2em">IW, k = 24</tspan></text><text x="105.4" y="594.3" fill="#fc8d59" class="flag">[0]</text><text x="127.4" y="594.3" fill="#000" class="taxonLabel">Tonicella</text><text x="105.4" y="607" fill="#fc8d59" class="flag">[0]</text><text x="127.4" y="607" fill="#000" class="taxonLabel">Dentalium</text><text x="80.3" y="581.6" fill="#fc8d59" class="flag">[0]</text><text x="102.3" y="581.6" fill="#000" class="taxonLabel">Wiwaxia corrugata</text><text x="80.3" y="556.2" fill="#fc8d59" class="flag">[0]</text><text x="102.3" y="556.2" fill="#000" class="taxonLabel">Sipunculus</text><text x="80.3" y="568.9" fill="#fc8d59" class="flag">[0]</text><text x="102.3" y="568.9" fill="#000" class="taxonLabel">Serpula</text><text x="281.2" y="518.1" fill="#fc8d59" class="flag">[0]</text><text x="303.2" y="518.1" fill="#000" class="taxonLabel">Craniops</text><text x="281.2" y="530.8" fill="#fc8d59" class="flag">[0]</text><text x="303.2" y="530.8" fill="#000" class="taxonLabel">Novocrania</text><text x="256.1" y="505.4" fill="#fc8d59" class="flag">[0]</text><text x="278.1" y="505.4" fill="#000" class="taxonLabel">Heliomedusa orienta</text><text x="281.2" y="480" fill="#fc8d59" class="flag">[0]</text><text x="303.2" y="480" fill="#000" class="taxonLabel">Pelagodiscus atlanticus</text><text x="281.2" y="492.7" fill="grey" class="flag">[?]</text><text x="303.2" y="492.7" fill="#999" class="taxonLabel">Mickwitzia muralensis</text><text x="482" y="454.6" fill="#fc8d59" class="flag">[0]</text><text x="504" y="454.6" fill="#000" class="taxonLabel">Acanthotretella spinosa</text><text x="482" y="467.3" fill="grey" class="flag">[?]</text><text x="504" y="467.3" fill="#999" class="taxonLabel">Siphonobolus priscus</text><text x="456.9" y="441.9" fill="grey" class="flag">[?]</text><text x="478.9" y="441.9" fill="#999" class="taxonLabel">Lingulosacculus</text><text x="431.8" y="429.2" fill="grey" class="flag">[?]</text><text x="453.8" y="429.2" fill="#999" class="taxonLabel">Clupeafumosus socialis</text><text x="406.7" y="416.5" fill="#fc8d59" class="flag">[0]</text><text x="428.7" y="416.5" fill="#000" class="taxonLabel">Lingulellotreta malongensis</text><text x="381.6" y="403.8" fill="grey" class="flag">[?]</text><text x="403.6" y="403.8" fill="#999" class="taxonLabel">Botsfordia</text><text x="356.5" y="391.1" fill="#fc8d59" class="flag">[0]</text><text x="378.5" y="391.1" fill="#000" class="taxonLabel">Mummpikia nuda</text><text x="331.4" y="378.4" fill="grey" class="flag">[?]</text><text x="353.4" y="378.4" fill="#999" class="taxonLabel">Eoobolus</text><text x="306.3" y="365.7" fill="#fc8d59" class="flag">[0]</text><text x="328.3" y="365.7" fill="#000" class="taxonLabel">Lingula</text><text x="281.2" y="353" fill="grey" class="flag">[?]</text><text x="303.2" y="353" fill="#999" class="taxonLabel">Micrina</text><text x="331.4" y="327.6" fill="#fc8d59" class="flag">[0]</text><text x="353.4" y="327.6" fill="#000" class="taxonLabel">Coolinia pecten</text><text x="331.4" y="340.3" fill="#fc8d59" class="flag">[0]</text><text x="353.4" y="340.3" fill="#000" class="taxonLabel">Antigonambonites planus</text><text x="431.8" y="302.1" fill="grey" class="flag">[?]</text><text x="453.8" y="302.1" fill="#999" class="taxonLabel">Orthis</text><text x="431.8" y="314.9" fill="#91bfdb" class="flag">[1]</text><text x="453.8" y="314.9" fill="#000" class="taxonLabel">Terebratulina</text><text x="406.7" y="289.4" fill="grey" class="flag">[?]</text><text x="428.7" y="289.4" fill="#999" class="taxonLabel">Alisina</text><text x="381.6" y="276.7" fill="grey" class="flag">[?]</text><text x="403.6" y="276.7" fill="#999" class="taxonLabel">Glyptoria</text><text x="356.5" y="264" fill="#fc8d59" class="flag">[0]</text><text x="378.5" y="264" fill="#000" class="taxonLabel">Nisusia sulcata</text><text x="331.4" y="251.3" fill="#fc8d59" class="flag">[0]</text><text x="353.4" y="251.3" fill="#000" class="taxonLabel">Kutorgina chengjiangensis</text><text x="281.2" y="238.6" fill="#fc8d59" class="flag">[0]</text><text x="303.2" y="238.6" fill="#000" class="taxonLabel">Longtancunella chengjiangensis</text><text x="306.3" y="213.2" fill="grey" class="flag">[?]</text><text x="328.3" y="213.2" fill="#999" class="taxonLabel">Tomteluva perturbata</text><text x="306.3" y="225.9" fill="#fc8d59" class="flag">[0]</text><text x="328.3" y="225.9" fill="#000" class="taxonLabel">Yuganotheca elegans</text><text x="281.2" y="200.5" fill="grey" class="flag">[?]</text><text x="303.2" y="200.5" fill="#999" class="taxonLabel">Salanygolina</text><text x="256.1" y="175.1" fill="grey" class="flag">[?]</text><text x="278.1" y="175.1" fill="#999" class="taxonLabel">Askepasma toddense</text><text x="256.1" y="187.8" fill="grey" class="flag">[?]</text><text x="278.1" y="187.8" fill="#999" class="taxonLabel">Micromitra</text><text x="230.9" y="149.7" fill="#91bfdb" class="flag">[1]</text><text x="252.9" y="149.7" fill="#000" class="taxonLabel">Pedunculotheca diania</text><text x="230.9" y="162.4" fill="#fc8d59" class="flag">[0]</text><text x="252.9" y="162.4" fill="#000" class="taxonLabel">Haplophrentis carinatus</text><text x="205.8" y="137" fill="grey" class="flag">[?]</text><text x="227.8" y="137" fill="#999" class="taxonLabel">Paterimitra</text><text x="155.6" y="124.3" fill="#fc8d59" class="flag">[0]</text><text x="177.6" y="124.3" fill="#000" class="taxonLabel">Gasconsia</text><text x="256.1" y="98.9" fill="#fc8d59" class="flag">[0]</text><text x="278.1" y="98.9" fill="#000" class="taxonLabel">Namacalathus</text><text x="256.1" y="111.6" fill="#fc8d59" class="flag">[0]</text><text x="278.1" y="111.6" fill="#000" class="taxonLabel">Phoronis</text><text x="230.9" y="86.2" fill="grey" class="flag">[?]</text><text x="252.9" y="86.2" fill="#999" class="taxonLabel">Dailyatia</text><text x="205.8" y="73.5" fill="#fc8d59" class="flag">[0]</text><text x="227.8" y="73.5" fill="#000" class="taxonLabel">Cotyledion tylodes</text><text x="180.7" y="60.8" fill="grey" class="flag">[?]</text><text x="202.7" y="60.8" fill="#999" class="taxonLabel">Eccentrotheca</text><text x="155.6" y="48.1" fill="#fc8d59" class="flag">[0]</text><text x="177.6" y="48.1" fill="#000" class="taxonLabel">Halkieria evangelista</text><text x="105.4" y="35.4" fill="#fc8d59" class="flag">[0]</text><text x="127.4" y="35.4" fill="#000" class="taxonLabel">Ussunia</text><text x="105.4" y="10" fill="#fc8d59" class="flag">[0]</text><text x="127.4" y="10" fill="#000" class="taxonLabel">Flustra</text><text x="105.4" y="22.7" fill="#fc8d59" class="flag">[0]</text><text x="127.4" y="22.7" fill="#000" class="taxonLabel">Amathia</text><text x="55.2" y="543.5" fill="#fc8d59" class="flag">[0]</text><text x="77.2" y="543.5" fill="#000" class="taxonLabel">Loxosomella</text><path d="M5,433.2V292.5H30.1M30.1,292.5V44.6H55.2M55.2,44.6V13.4H80.3M80.3,13.4V7H105.4M80.3,13.4V19.7H105.4M55.2,44.6V75.8H80.3M80.3,75.8V32.4H105.4M80.3,75.8V119.2H105.4M105.4,119.2V57.4H130.5M130.5,57.4V45.1H155.6M130.5,57.4V69.7H155.6M155.6,69.7V57.8H180.7M155.6,69.7V81.6H180.7M180.7,81.6V70.5H205.8M180.7,81.6V92.7H205.8M205.8,92.7V83.2H230.9M205.8,92.7V102.3H230.9M230.9,102.3V95.9H256.1M230.9,102.3V108.6H256.1M105.4,119.2V180.9H130.5M130.5,180.9V121.3H155.6M130.5,180.9V240.5H155.6M155.6,240.5V143.5H180.7M180.7,143.5V134H205.8M180.7,143.5V153.1H205.8M205.8,153.1V159.4H230.9M155.6,240.5V337.4H180.7M180.7,337.4V207.4H205.8M205.8,207.4V178.5H230.9M230.9,178.5V172.1H256.1M230.9,178.5V184.8H256.1M205.8,207.4V236.4H230.9M230.9,236.4V207.1H256.1M256.1,207.1V197.5H281.2M256.1,207.1V216.6H281.2M281.2,216.6V210.2H306.3M281.2,216.6V222.9H306.3M230.9,236.4V265.7H256.1M256.1,265.7V235.6H281.2M256.1,265.7V295.8H281.2M281.2,295.8V260.6H306.3M306.3,260.6V248.3H331.4M306.3,260.6V273H331.4M331.4,273V261H356.5M331.4,273V284.9H356.5M281.2,295.8V330.9H306.3M306.3,330.9V324.6H331.4M306.3,330.9V337.3H331.4M180.7,337.4V467.4H205.8M205.8,467.4V423H230.9M230.9,423V362.6H256.1M256.1,362.6V350H281.2M256.1,362.6V375.3H281.2M281.2,375.3V362.7H306.3M281.2,375.3V388H306.3M306.3,388V375.4H331.4M306.3,388V400.6H331.4M331.4,400.6V388.1H356.5M331.4,400.6V413.1H356.5M356.5,413.1V400.8H381.6M356.5,413.1V425.4H381.6M381.6,425.4V413.5H406.7M381.6,425.4V437.3H406.7M406.7,437.3V426.2H431.8M406.7,437.3V448.4H431.8M431.8,448.4V438.9H456.9M431.8,448.4V457.9H456.9M456.9,457.9V451.6H482M456.9,457.9V464.3H482M230.9,423V483.3H256.1M256.1,483.3V477H281.2M256.1,483.3V489.7H281.2M205.8,467.4V511.9H230.9M230.9,511.9V502.4H256.1M230.9,511.9V521.4H256.1M256.1,521.4V515.1H281.2M256.1,521.4V527.8H281.2M30.1,292.5V540.5H55.2M5,433.2V573.8H30.1M30.1,573.8V559.5H55.2M55.2,559.5V553.2H80.3M55.2,559.5V565.9H80.3M30.1,573.8V588.1H55.2M55.2,588.1V578.6H80.3M55.2,588.1V597.6H80.3M80.3,597.6V591.3H105.4M80.3,597.6V604H105.4" stroke="#fc8d59"></path><path d="M205.8,153.1V146.7H230.9M406.7,305.5V311.9H431.8" stroke="#91bfdb"></path><path d="M356.5,284.9V273.7H381.6M356.5,284.9V296H381.6M381.6,296V286.4H406.7M381.6,296V305.5H406.7M406.7,305.5V299.1H431.8" stroke="darkgrey"></path><text x="7" y="436.2" class="node" fill="#4A6FE3">1</text><text x="32.1" y="295.5" class="node" fill="#4A6FE3">1</text><text x="57.2" y="47.6" class="node" fill="#97A4E2">0.77</text><text x="82.3" y="16.4" class="node" fill="#4A6FE3">1</text><text x="82.3" y="78.8" class="node" fill="#97A4E2">0.77</text><text x="107.4" y="122.2" class="node" fill="#DADBE3">0.53</text><text x="132.5" y="60.4" class="node" fill="#DADBE3">0.53</text><text x="157.6" y="72.7" class="node" fill="#DADBE3">0.53</text><text x="182.7" y="84.6" class="node" fill="#DD6F88">0.13</text><text x="207.8" y="95.7" class="node" fill="#DB617F">0.09</text><text x="232.9" y="105.3" class="node" fill="#4A6FE3">1</text><text x="132.5" y="183.9" class="node" fill="#DADBE3">0.53</text><text x="157.6" y="243.5" class="node" fill="#DADBE3">0.53</text><text x="182.7" y="146.5" class="node" fill="#E6BAC2">0.37</text><text x="207.8" y="156.1" class="node" fill="#4A6FE3">1</text><text x="182.7" y="340.4" class="node" fill="#DADBE3">0.53</text><text x="207.8" y="210.4" class="node" fill="#667FE1">0.93</text><text x="232.9" y="181.5" class="node" fill="#4A6FE3">1</text><text x="232.9" y="239.4" class="node" fill="#667FE1">0.93</text><text x="258.1" y="210.1" class="node" fill="#E3DFE0">0.49</text><text x="283.2" y="219.6" class="node" fill="#9AA6E2">0.76</text><text x="258.1" y="268.7" class="node" fill="#7A8DE1">0.87</text><text x="283.2" y="298.8" class="node" fill="#E6C4C9">0.4</text><text x="308.3" y="263.6" class="node" fill="#E6C4C9">0.4</text><text x="333.4" y="276" class="node" fill="#E6C4C9">0.4</text><text x="358.5" y="287.9" class="node" fill="#E6C4C9">0.4</text><text x="383.6" y="299" class="node" fill="#4A6FE3">1</text><text x="408.7" y="308.5" class="node" fill="#8696E1">0.83</text><text x="308.3" y="333.9" class="node" fill="#4A6FE3">1</text><text x="207.8" y="470.4" class="node" fill="#DADBE3">0.53</text><text x="232.9" y="426" class="node" fill="#DADBE3">0.53</text><text x="258.1" y="365.6" class="node" fill="#E6B7C0">0.36</text><text x="283.2" y="378.3" class="node" fill="#9DA8E2">0.75</text><text x="308.3" y="391" class="node" fill="#C1C6E3">0.62</text><text x="333.4" y="403.6" class="node" fill="#DADBE3">0.53</text><text x="358.5" y="416.1" class="node" fill="#DADBE3">0.53</text><text x="383.6" y="428.4" class="node" fill="#DADBE3">0.53</text><text x="408.7" y="440.3" class="node" fill="#8F9DE1">0.8</text><text x="433.8" y="451.4" class="node" fill="#E59FAC">0.28</text><text x="458.9" y="460.9" class="node" fill="#4A6FE3">1</text><text x="258.1" y="486.3" class="node" fill="#9DA8E2">0.75</text><text x="232.9" y="514.9" class="node" fill="#DADBE3">0.53</text><text x="258.1" y="524.4" class="node" fill="#4A6FE3">1</text><text x="32.1" y="576.8" class="node" fill="#4A6FE3">1</text><text x="57.2" y="562.5" class="node" fill="#4A6FE3">1</text><text x="57.2" y="591.1" class="node" fill="#4A6FE3">1</text><text x="82.3" y="600.6" class="node" fill="#7A8DE1">0.87</text></svg>
