<svg xmlns="http://www.w3.org/2000/svg" version="1.1" width="682" height="612" class="tree" data-char="15"><text x="678" y="15.4" text-anchor="end" class="stepsLabel">Character adds <tspan class="score">2</tspan> to tree score</text><text x="678" y="27.8" text-anchor="end" class="stepsLabel"><tspan class="score">0</tspan> additional regions</text><text x="678" y="40.2" text-anchor="end" class="stepsLabel">CI = 0.5; Fitch CI = 0.5; Fitch RI = 0</text><text x="678" y="65" text-anchor="end" class="stepsLabel"><tspan dy="16">An optimal tree under:</tspan><tspan x="680" style="font-style:italic" class="thisAn" dy="1.2em">Equal weights</tspan><tspan x="680" style="font-style:italic" class="notThisAn" dy="1.2em">Implied weights, k = 2</tspan><tspan x="680" style="font-style:italic" class="notThisAn" dy="1.2em">IW, k = 3</tspan><tspan x="680" style="font-style:italic" class="notThisAn" dy="1.2em">IW, k = 4.5</tspan><tspan x="680" style="font-style:italic" class="notThisAn" dy="1.2em">IW, k = 7</tspan><tspan x="680" style="font-style:italic" class="notThisAn" dy="1.2em">IW, k = 10.5</tspan><tspan x="680" style="font-style:italic" class="notThisAn" dy="1.2em">IW, k = 16</tspan><tspan x="680" style="font-style:italic" class="notThisAn" dy="1.2em">IW, k = 24</tspan></text><text x="100.4" y="594.3" fill="lightgrey" class="flag">[-]</text><text x="122.4" y="594.3" fill="#ccc" class="taxonLabel">Dentalium</text><text x="100.4" y="607" fill="#e2e2a2" class="flag">[1]</text><text x="122.4" y="607" fill="#000" class="taxonLabel">Tonicella</text><text x="76.6" y="581.6" fill="#e2e2a2" class="flag">[1]</text><text x="98.6" y="581.6" fill="#000" class="taxonLabel">Wiwaxia corrugata</text><text x="76.6" y="556.2" fill="#e2e2a2" class="flag">[1]</text><text x="98.6" y="556.2" fill="#000" class="taxonLabel">Serpula</text><text x="76.6" y="568.9" fill="#91bfdb" class="flag">[2]</text><text x="98.6" y="568.9" fill="#000" class="taxonLabel">Sipunculus</text><text x="243.5" y="518.1" fill="lightgrey" class="flag">[-]</text><text x="265.5" y="518.1" fill="#ccc" class="taxonLabel">Phoronis</text><text x="243.5" y="530.8" fill="lightgrey" class="flag">[-]</text><text x="265.5" y="530.8" fill="#ccc" class="taxonLabel">Namacalathus</text><text x="219.7" y="505.4" fill="lightgrey" class="flag">[-]</text><text x="241.7" y="505.4" fill="#ccc" class="taxonLabel">Cotyledion tylodes</text><text x="195.8" y="492.7" fill="grey" class="flag">[?]</text><text x="217.8" y="492.7" fill="#999" class="taxonLabel">Dailyatia</text><text x="172" y="480" fill="grey" class="flag">[?]</text><text x="194" y="480" fill="#999" class="taxonLabel">Eccentrotheca</text><text x="148.1" y="467.3" fill="lightgrey" class="flag">[-]</text><text x="170.1" y="467.3" fill="#ccc" class="taxonLabel">Halkieria evangelista</text><text x="195.8" y="441.9" fill="grey" class="flag">[?]</text><text x="217.8" y="441.9" fill="#999" class="taxonLabel">Pedunculotheca diania</text><text x="195.8" y="454.6" fill="grey" class="flag">[?]</text><text x="217.8" y="454.6" fill="#999" class="taxonLabel">Haplophrentis carinatus</text><text x="291.2" y="416.5" fill="grey" class="flag">[?]</text><text x="313.2" y="416.5" fill="#999" class="taxonLabel">Craniops</text><text x="291.2" y="429.2" fill="#e2e2a2" class="flag">[1]</text><text x="313.2" y="429.2" fill="#000" class="taxonLabel">Novocrania</text><text x="267.4" y="403.8" fill="grey" class="flag">[?]</text><text x="289.4" y="403.8" fill="#999" class="taxonLabel">Heliomedusa orienta</text><text x="291.2" y="378.4" fill="#e2e2a2" class="flag">[1]</text><text x="313.2" y="378.4" fill="#000" class="taxonLabel">Pelagodiscus atlanticus</text><text x="291.2" y="391.1" fill="grey" class="flag">[?]</text><text x="313.2" y="391.1" fill="#999" class="taxonLabel">Mickwitzia muralensis</text><text x="482" y="353" fill="grey" class="flag">[?]</text><text x="504" y="353" fill="#999" class="taxonLabel">Acanthotretella spinosa</text><text x="482" y="365.7" fill="grey" class="flag">[?]</text><text x="504" y="365.7" fill="#999" class="taxonLabel">Siphonobolus priscus</text><text x="458.2" y="340.3" fill="grey" class="flag">[?]</text><text x="480.2" y="340.3" fill="#999" class="taxonLabel">Clupeafumosus socialis</text><text x="434.3" y="327.6" fill="grey" class="flag">[?]</text><text x="456.3" y="327.6" fill="#999" class="taxonLabel">Lingulosacculus</text><text x="410.5" y="314.9" fill="grey" class="flag">[?]</text><text x="432.5" y="314.9" fill="#999" class="taxonLabel">Lingulellotreta malongensis</text><text x="386.6" y="302.1" fill="grey" class="flag">[?]</text><text x="408.6" y="302.1" fill="#999" class="taxonLabel">Botsfordia</text><text x="362.8" y="289.4" fill="grey" class="flag">[?]</text><text x="384.8" y="289.4" fill="#999" class="taxonLabel">Mummpikia nuda</text><text x="338.9" y="276.7" fill="grey" class="flag">[?]</text><text x="360.9" y="276.7" fill="#999" class="taxonLabel">Eoobolus</text><text x="315.1" y="264" fill="#e2e2a2" class="flag">[1]</text><text x="337.1" y="264" fill="#000" class="taxonLabel">Lingula</text><text x="291.2" y="251.3" fill="grey" class="flag">[?]</text><text x="313.2" y="251.3" fill="#999" class="taxonLabel">Micrina</text><text x="458.2" y="225.9" fill="grey" class="flag">[?]</text><text x="480.2" y="225.9" fill="#999" class="taxonLabel">Orthis</text><text x="458.2" y="238.6" fill="#e2e2a2" class="flag">[1]</text><text x="480.2" y="238.6" fill="#000" class="taxonLabel">Terebratulina</text><text x="434.3" y="213.2" fill="grey" class="flag">[?]</text><text x="456.3" y="213.2" fill="#999" class="taxonLabel">Alisina</text><text x="410.5" y="200.5" fill="grey" class="flag">[?]</text><text x="432.5" y="200.5" fill="#999" class="taxonLabel">Glyptoria</text><text x="386.6" y="187.8" fill="grey" class="flag">[?]</text><text x="408.6" y="187.8" fill="#999" class="taxonLabel">Nisusia sulcata</text><text x="362.8" y="175.1" fill="grey" class="flag">[?]</text><text x="384.8" y="175.1" fill="#999" class="taxonLabel">Kutorgina chengjiangensis</text><text x="362.8" y="149.7" fill="grey" class="flag">[?]</text><text x="384.8" y="149.7" fill="#999" class="taxonLabel">Coolinia pecten</text><text x="362.8" y="162.4" fill="grey" class="flag">[?]</text><text x="384.8" y="162.4" fill="#999" class="taxonLabel">Antigonambonites planus</text><text x="315.1" y="137" fill="grey" class="flag">[?]</text><text x="337.1" y="137" fill="#999" class="taxonLabel">Longtancunella chengjiangensis</text><text x="315.1" y="111.6" fill="grey" class="flag">[?]</text><text x="337.1" y="111.6" fill="#999" class="taxonLabel">Tomteluva perturbata</text><text x="315.1" y="124.3" fill="grey" class="flag">[?]</text><text x="337.1" y="124.3" fill="#999" class="taxonLabel">Yuganotheca elegans</text><text x="267.4" y="98.9" fill="grey" class="flag">[?]</text><text x="289.4" y="98.9" fill="#999" class="taxonLabel">Salanygolina</text><text x="267.4" y="73.5" fill="grey" class="flag">[?]</text><text x="289.4" y="73.5" fill="#999" class="taxonLabel">Micromitra</text><text x="267.4" y="86.2" fill="grey" class="flag">[?]</text><text x="289.4" y="86.2" fill="#999" class="taxonLabel">Askepasma toddense</text><text x="195.8" y="60.8" fill="grey" class="flag">[?]</text><text x="217.8" y="60.8" fill="#999" class="taxonLabel">Paterimitra</text><text x="148.1" y="48.1" fill="grey" class="flag">[?]</text><text x="170.1" y="48.1" fill="#999" class="taxonLabel">Gasconsia</text><text x="100.4" y="35.4" fill="grey" class="flag">[?]</text><text x="122.4" y="35.4" fill="#999" class="taxonLabel">Ussunia</text><text x="100.4" y="10" fill="lightgrey" class="flag">[-]</text><text x="122.4" y="10" fill="#ccc" class="taxonLabel">Flustra</text><text x="100.4" y="22.7" fill="#91bfdb" class="flag">[2]</text><text x="122.4" y="22.7" fill="#000" class="taxonLabel">Amathia</text><text x="52.7" y="543.5" fill="lightgrey" class="flag">[-]</text><text x="74.7" y="543.5" fill="#ccc" class="taxonLabel">Loxosomella</text><path d="M5,445.9V318H28.9M28.9,318V95.6H52.7M52.7,95.6V13.4H76.6M52.7,95.6V177.8H76.6M76.6,177.8V32.4H100.4M76.6,177.8V323.3H100.4M100.4,323.3V169.9H124.2M124.2,169.9V45.1H148.1M124.2,169.9V294.8H148.1M148.1,294.8V144.3H172M172,144.3V57.8H195.8M172,144.3V230.8H195.8M195.8,230.8V95.7H219.7M219.7,95.7V76.9H243.5M243.5,76.9V70.5H267.4M243.5,76.9V83.2H267.4M219.7,95.7V114.5H243.5M243.5,114.5V95.9H267.4M243.5,114.5V133.2H267.4M267.4,133.2V115H291.2M291.2,115V108.6H315.1M291.2,115V121.3H315.1M267.4,133.2V151.4H291.2M291.2,151.4V134H315.1M291.2,151.4V168.8H315.1M315.1,168.8V153.1H338.9M338.9,153.1V146.7H362.8M338.9,153.1V159.4H362.8M315.1,168.8V184.4H338.9M338.9,184.4V172.1H362.8M338.9,184.4V196.7H362.8M362.8,196.7V184.8H386.6M362.8,196.7V208.6H386.6M386.6,208.6V197.5H410.5M386.6,208.6V219.8H410.5M410.5,219.8V210.2H434.3M410.5,219.8V229.3H434.3M434.3,229.3V222.9H458.2M434.3,229.3V235.6H458.2M195.8,230.8V365.8H219.7M219.7,365.8V321.4H243.5M243.5,321.4V261H267.4M267.4,261V248.3H291.2M267.4,261V273.7H291.2M291.2,273.7V261H315.1M291.2,273.7V286.3H315.1M315.1,286.3V273.7H338.9M315.1,286.3V299H338.9M338.9,299V286.4H362.8M338.9,299V311.5H362.8M362.8,311.5V299.1H386.6M362.8,311.5V323.8H386.6M386.6,323.8V311.9H410.5M386.6,323.8V335.7H410.5M410.5,335.7V324.6H434.3M410.5,335.7V346.8H434.3M434.3,346.8V337.3H458.2M434.3,346.8V356.3H458.2M458.2,356.3V350H482M458.2,356.3V362.7H482M243.5,321.4V381.7H267.4M267.4,381.7V375.4H291.2M267.4,381.7V388.1H291.2M219.7,365.8V410.3H243.5M243.5,410.3V400.8H267.4M243.5,410.3V419.8H267.4M267.4,419.8V413.5H291.2M267.4,419.8V426.2H291.2M148.1,294.8V445.2H172M172,445.2V438.9H195.8M172,445.2V451.6H195.8M5,445.9V573.8H28.9M28.9,573.8V559.5H52.7M52.7,559.5V553.2H76.6M28.9,573.8V588.1H52.7M52.7,588.1V578.6H76.6M52.7,588.1V597.6H76.6M76.6,597.6V604H100.4" stroke="#e2e2a2"></path><path d="M76.6,13.4V7H100.4M100.4,323.3V476.6H124.2M124.2,476.6V464.3H148.1M124.2,476.6V488.9H148.1M148.1,488.9V477H172M148.1,488.9V500.8H172M172,500.8V489.7H195.8M172,500.8V511.9H195.8M195.8,511.9V502.4H219.7M195.8,511.9V521.4H219.7M219.7,521.4V515.1H243.5M219.7,521.4V527.8H243.5M28.9,318V540.5H52.7M76.6,597.6V591.3H100.4" stroke="lightgrey" class="inapplicable"></path><path d="M76.6,13.4V19.7H100.4M52.7,559.5V565.9H76.6" stroke="#91bfdb"></path><text x="7" y="448.9" class="node" fill="#4A6FE3">1</text><text x="30.9" y="321" class="node" fill="#4A6FE3">1</text><text x="54.7" y="98.6" class="node" fill="#97A4E2">0.77</text><text x="78.6" y="16.4" class="node" fill="#4A6FE3">1</text><text x="78.6" y="180.8" class="node" fill="#97A4E2">0.77</text><text x="102.4" y="326.3" class="node" fill="#DADBE3">0.53</text><text x="126.2" y="172.9" class="node" fill="#DADBE3">0.53</text><text x="150.1" y="297.8" class="node" fill="#DADBE3">0.53</text><text x="174" y="147.3" class="node" fill="#DF798F">0.16</text><text x="197.8" y="233.8" class="node" fill="#DADBE3">0.53</text><text x="221.7" y="98.7" class="node" fill="#667FE1">0.93</text><text x="245.5" y="79.9" class="node" fill="#4A6FE3">1</text><text x="245.5" y="117.5" class="node" fill="#667FE1">0.93</text><text x="269.4" y="136.2" class="node" fill="#E5D0D3">0.44</text><text x="293.2" y="118" class="node" fill="#9AA6E2">0.76</text><text x="293.2" y="154.4" class="node" fill="#7A8DE1">0.87</text><text x="317.1" y="171.8" class="node" fill="#E6C4C9">0.4</text><text x="340.9" y="156.1" class="node" fill="#4A6FE3">1</text><text x="340.9" y="187.4" class="node" fill="#E6C4C9">0.4</text><text x="364.8" y="199.7" class="node" fill="#E6C4C9">0.4</text><text x="388.6" y="211.6" class="node" fill="#E6C4C9">0.4</text><text x="412.5" y="222.8" class="node" fill="#4A6FE3">1</text><text x="436.3" y="232.3" class="node" fill="#8696E1">0.83</text><text x="221.7" y="368.8" class="node" fill="#DADBE3">0.53</text><text x="245.5" y="324.4" class="node" fill="#DADBE3">0.53</text><text x="269.4" y="264" class="node" fill="#E6B7C0">0.36</text><text x="293.2" y="276.7" class="node" fill="#9DA8E2">0.75</text><text x="317.1" y="289.3" class="node" fill="#C1C6E3">0.62</text><text x="340.9" y="302" class="node" fill="#DADBE3">0.53</text><text x="364.8" y="314.5" class="node" fill="#DADBE3">0.53</text><text x="388.6" y="326.8" class="node" fill="#DADBE3">0.53</text><text x="412.5" y="338.7" class="node" fill="#8F9DE1">0.8</text><text x="436.3" y="349.8" class="node" fill="#E5D0D3">0.44</text><text x="460.2" y="359.3" class="node" fill="#4A6FE3">1</text><text x="269.4" y="384.7" class="node" fill="#9DA8E2">0.75</text><text x="245.5" y="413.3" class="node" fill="#DADBE3">0.53</text><text x="269.4" y="422.8" class="node" fill="#4A6FE3">1</text><text x="174" y="448.2" class="node" fill="#4A6FE3">1</text><text x="126.2" y="479.6" class="node" fill="#DADBE3">0.53</text><text x="150.1" y="491.9" class="node" fill="#DADBE3">0.53</text><text x="174" y="503.8" class="node" fill="#DD6F88">0.13</text><text x="197.8" y="514.9" class="node" fill="#E5A5B1">0.3</text><text x="221.7" y="524.4" class="node" fill="#4A6FE3">1</text><text x="30.9" y="576.8" class="node" fill="#4A6FE3">1</text><text x="54.7" y="562.5" class="node" fill="#4A6FE3">1</text><text x="54.7" y="591.1" class="node" fill="#4A6FE3">1</text><text x="78.6" y="600.6" class="node" fill="#7A8DE1">0.87</text></svg>
