<svg xmlns="http://www.w3.org/2000/svg" version="1.1" width="682" height="682" class="tree" data-char="50"><text x="678" y="15.4" text-anchor="end" class="stepsLabel">Character adds <tspan class="score">2</tspan> to tree score</text><text x="678" y="27.8" text-anchor="end" class="stepsLabel"><tspan class="score">0</tspan> additional regions</text><text x="678" y="40.2" text-anchor="end" class="stepsLabel">CI = 1; Fitch CI = 1; Fitch RI = n/a</text><text x="678" y="65" text-anchor="end" class="stepsLabel"><tspan dy="16" fill="#34caaf">An optimal tree under:</tspan><tspan x="680" style="font-style:italic" class="thisAn" dy="1.2em">Equal weights</tspan><tspan x="680" style="font-style:italic" class="notThisAn" dy="1.2em">Implied weights, k = 2</tspan><tspan x="680" style="font-style:italic" class="notThisAn" dy="1.2em">IW, k = 3</tspan><tspan x="680" style="font-style:italic" class="notThisAn" dy="1.2em">IW, k = 4.5</tspan><tspan x="680" style="font-style:italic" class="notThisAn" dy="1.2em">IW, k = 7</tspan><tspan x="680" style="font-style:italic" class="notThisAn" dy="1.2em">IW, k = 10.5</tspan><tspan x="680" style="font-style:italic" class="notThisAn" dy="1.2em">IW, k = 16</tspan><tspan x="680" style="font-style:italic" class="notThisAn" dy="1.2em">IW, k = 24</tspan></text><text x="88" y="664.4" fill="#2c7bb6" class="flag">[3]</text><text x="110" y="664.4" fill="#000" class="taxonLabel">Dentalium</text><text x="88" y="677" fill="lightgrey" class="flag">[-]</text><text x="110" y="677" fill="#ccc" class="taxonLabel">Tonicella</text><text x="67.2" y="651.8" fill="lightgrey" class="flag">[-]</text><text x="89.2" y="651.8" fill="#ccc" class="taxonLabel">Wiwaxia corrugata</text><text x="67.2" y="626.7" fill="#abd9e9" class="flag">[2]</text><text x="89.2" y="626.7" fill="#000" class="taxonLabel">Sipunculus</text><text x="67.2" y="639.2" fill="#abd9e9" class="flag">[2]</text><text x="89.2" y="639.2" fill="#000" class="taxonLabel">Serpula</text><text x="88" y="601.5" fill="grey" class="flag">[?]</text><text x="110" y="601.5" fill="#999" class="taxonLabel">Amathia</text><text x="88" y="614.1" fill="grey" class="flag">[?]</text><text x="110" y="614.1" fill="#999" class="taxonLabel">Flustra</text><text x="316.1" y="576.3" fill="grey" class="flag">[?]</text><text x="338.1" y="576.3" fill="#999" class="taxonLabel">Heliomedusa orienta</text><text x="316.1" y="588.9" fill="grey" class="flag">[?]</text><text x="338.1" y="588.9" fill="#999" class="taxonLabel">Mickwitzia muralensis</text><text x="295.3" y="563.7" fill="grey" class="flag">[?]</text><text x="317.3" y="563.7" fill="#999" class="taxonLabel">Micrina</text><text x="336.8" y="538.6" fill="grey" class="flag">[?]</text><text x="358.8" y="538.6" fill="#999" class="taxonLabel">Askepasma toddense</text><text x="336.8" y="551.2" fill="grey" class="flag">[?]</text><text x="358.8" y="551.2" fill="#999" class="taxonLabel">Micromitra</text><text x="378.3" y="513.4" fill="grey" class="flag">[?]</text><text x="400.3" y="513.4" fill="#999" class="taxonLabel">Coolinia pecten</text><text x="378.3" y="526" fill="grey" class="flag">[?]</text><text x="400.3" y="526" fill="#999" class="taxonLabel">Antigonambonites planus</text><text x="461.3" y="488.2" fill="#abd9e9" class="flag">[2]</text><text x="483.3" y="488.2" fill="#000" class="taxonLabel">Terebratulina</text><text x="461.3" y="500.8" fill="grey" class="flag">[?]</text><text x="483.3" y="500.8" fill="#999" class="taxonLabel">Orthis</text><text x="440.5" y="475.6" fill="grey" class="flag">[?]</text><text x="462.5" y="475.6" fill="#999" class="taxonLabel">Alisina</text><text x="419.8" y="463.1" fill="grey" class="flag">[?]</text><text x="441.8" y="463.1" fill="#999" class="taxonLabel">Longtancunella chengjiangensis</text><text x="399" y="450.5" fill="grey" class="flag">[?]</text><text x="421" y="450.5" fill="#999" class="taxonLabel">Glyptoria</text><text x="419.8" y="425.3" fill="grey" class="flag">[?]</text><text x="441.8" y="425.3" fill="#999" class="taxonLabel">Nisusia sulcata</text><text x="419.8" y="437.9" fill="grey" class="flag">[?]</text><text x="441.8" y="437.9" fill="#999" class="taxonLabel">Tomteluva perturbata</text><text x="399" y="412.7" fill="grey" class="flag">[?]</text><text x="421" y="412.7" fill="#999" class="taxonLabel">Kutorgina chengjiangensis</text><text x="336.8" y="400.1" fill="grey" class="flag">[?]</text><text x="358.8" y="400.1" fill="#999" class="taxonLabel">Salanygolina</text><text x="482" y="375" fill="grey" class="flag">[?]</text><text x="504" y="375" fill="#999" class="taxonLabel">Acanthotretella spinosa</text><text x="482" y="387.5" fill="grey" class="flag">[?]</text><text x="504" y="387.5" fill="#999" class="taxonLabel">Siphonobolus priscus</text><text x="461.3" y="362.4" fill="grey" class="flag">[?]</text><text x="483.3" y="362.4" fill="#999" class="taxonLabel">Lingulosacculus</text><text x="440.5" y="349.8" fill="grey" class="flag">[?]</text><text x="462.5" y="349.8" fill="#999" class="taxonLabel">Clupeafumosus socialis</text><text x="419.8" y="337.2" fill="grey" class="flag">[?]</text><text x="441.8" y="337.2" fill="#999" class="taxonLabel">Lingulellotreta malongensis</text><text x="419.8" y="312" fill="grey" class="flag">[?]</text><text x="441.8" y="312" fill="#999" class="taxonLabel">Mummpikia nuda</text><text x="419.8" y="324.6" fill="#abd9e9" class="flag">[2]</text><text x="441.8" y="324.6" fill="#000" class="taxonLabel">Pelagodiscus atlanticus</text><text x="378.3" y="299.5" fill="grey" class="flag">[?]</text><text x="400.3" y="299.5" fill="#999" class="taxonLabel">Botsfordia</text><text x="357.6" y="286.9" fill="grey" class="flag">[?]</text><text x="379.6" y="286.9" fill="#999" class="taxonLabel">Eoobolus</text><text x="336.8" y="274.3" fill="#abd9e9" class="flag">[2]</text><text x="358.8" y="274.3" fill="#000" class="taxonLabel">Lingula</text><text x="378.3" y="249.1" fill="grey" class="flag">[?]</text><text x="400.3" y="249.1" fill="#999" class="taxonLabel">Craniops</text><text x="378.3" y="261.7" fill="#abd9e9" class="flag">[2]</text><text x="400.3" y="261.7" fill="#000" class="taxonLabel">Novocrania</text><text x="357.6" y="236.5" fill="grey" class="flag">[?]</text><text x="379.6" y="236.5" fill="#999" class="taxonLabel">Ussunia</text><text x="336.8" y="223.9" fill="grey" class="flag">[?]</text><text x="358.8" y="223.9" fill="#999" class="taxonLabel">Gasconsia</text><text x="253.9" y="211.4" fill="grey" class="flag">[?]</text><text x="275.9" y="211.4" fill="#999" class="taxonLabel">Yuganotheca elegans</text><text x="316.1" y="186.2" fill="grey" class="flag">[?]</text><text x="338.1" y="186.2" fill="#999" class="taxonLabel">Bactrotheca</text><text x="316.1" y="198.8" fill="grey" class="flag">[?]</text><text x="338.1" y="198.8" fill="#999" class="taxonLabel">Conotheca</text><text x="295.3" y="173.6" fill="grey" class="flag">[?]</text><text x="317.3" y="173.6" fill="#999" class="taxonLabel">Cupitheca holocyclata</text><text x="336.8" y="148.4" fill="grey" class="flag">[?]</text><text x="358.8" y="148.4" fill="#999" class="taxonLabel">Maxilites</text><text x="336.8" y="161" fill="grey" class="flag">[?]</text><text x="358.8" y="161" fill="#999" class="taxonLabel">Pauxillites</text><text x="316.1" y="135.8" fill="grey" class="flag">[?]</text><text x="338.1" y="135.8" fill="#999" class="taxonLabel">Haplophrentis carinatus</text><text x="295.3" y="123.3" fill="grey" class="flag">[?]</text><text x="317.3" y="123.3" fill="#999" class="taxonLabel">Paramicrocornus</text><text x="253.9" y="110.7" fill="grey" class="flag">[?]</text><text x="275.9" y="110.7" fill="#999" class="taxonLabel">Pedunculotheca diania</text><text x="212.4" y="98.1" fill="grey" class="flag">[?]</text><text x="234.4" y="98.1" fill="#999" class="taxonLabel">Paterimitra</text><text x="191.7" y="85.5" fill="grey" class="flag">[?]</text><text x="213.7" y="85.5" fill="#999" class="taxonLabel">Halkieria evangelista</text><text x="170.9" y="72.9" fill="grey" class="flag">[?]</text><text x="192.9" y="72.9" fill="#999" class="taxonLabel">Dailyatia</text><text x="150.2" y="60.3" fill="grey" class="flag">[?]</text><text x="172.2" y="60.3" fill="#999" class="taxonLabel">Cotyledion tylodes</text><text x="129.4" y="47.8" fill="grey" class="flag">[?]</text><text x="151.4" y="47.8" fill="#999" class="taxonLabel">Eccentrotheca</text><text x="108.7" y="35.2" fill="#abd9e9" class="flag">[2]</text><text x="130.7" y="35.2" fill="#000" class="taxonLabel">Phoronis</text><text x="88" y="22.6" fill="grey" class="flag">[?]</text><text x="110" y="22.6" fill="#999" class="taxonLabel">Namacalathus</text><text x="46.5" y="10" fill="#fdae61" class="flag">[1]</text><text x="68.5" y="10" fill="#000" class="taxonLabel">Loxosomella</text><path d="M5,403.5V163H25.7M25.7,163V318.9H46.5M46.5,318.9V33.1H67.2M67.2,33.1V19.6H88M67.2,33.1V46.6H88M88,46.6V32.2H108.7M88,46.6V61H108.7M108.7,61V44.8H129.4M108.7,61V77.2H129.4M129.4,77.2V57.3H150.2M129.4,77.2V97H150.2M150.2,97V69.9H170.9M150.2,97V124H170.9M170.9,124V82.5H191.7M170.9,124V165.5H191.7M191.7,165.5V95.1H212.4M191.7,165.5V236H212.4M212.4,236V131.7H233.1M233.1,131.7V107.7H253.9M233.1,131.7V155.7H253.9M253.9,155.7V131.3H274.6M274.6,131.3V120.3H295.3M274.6,131.3V142.3H295.3M295.3,142.3V132.8H316.1M295.3,142.3V151.7H316.1M316.1,151.7V145.4H336.8M316.1,151.7V158H336.8M253.9,155.7V180H274.6M274.6,180V170.6H295.3M274.6,180V189.5H295.3M295.3,189.5V183.2H316.1M295.3,189.5V195.8H316.1M212.4,236V340.2H233.1M233.1,340.2V208.4H253.9M233.1,340.2V472.1H253.9M253.9,472.1V374.1H274.6M274.6,374.1V258.5H295.3M295.3,258.5V232H316.1M316.1,232V220.9H336.8M316.1,232V243H336.8M336.8,243V233.5H357.6M336.8,243V252.4H357.6M357.6,252.4V246.1H378.3M357.6,252.4V258.7H378.3M295.3,258.5V285H316.1M316.1,285V271.3H336.8M316.1,285V298.7H336.8M336.8,298.7V283.9H357.6M336.8,298.7V313.6H357.6M357.6,313.6V296.5H378.3M357.6,313.6V330.7H378.3M378.3,330.7V315.3H399M399,315.3V309H419.8M399,315.3V321.6H419.8M378.3,330.7V346H399M399,346V334.2H419.8M399,346V357.8H419.8M419.8,357.8V346.8H440.5M419.8,357.8V368.8H440.5M440.5,368.8V359.4H461.3M440.5,368.8V378.3H461.3M461.3,378.3V372H482M461.3,378.3V384.5H482M274.6,374.1V489.7H295.3M295.3,489.7V437.5H316.1M316.1,437.5V397.1H336.8M316.1,437.5V478H336.8M336.8,478V439.2H357.6M357.6,439.2V419.2H378.3M378.3,419.2V409.7H399M378.3,419.2V428.6H399M399,428.6V422.3H419.8M399,428.6V434.9H419.8M357.6,439.2V459.3H378.3M378.3,459.3V447.5H399M378.3,459.3V471.1H399M399,471.1V460.1H419.8M399,471.1V482.1H419.8M419.8,482.1V472.6H440.5M419.8,482.1V491.5H440.5M440.5,491.5V485.2H461.3M440.5,491.5V497.8H461.3M336.8,478V516.7H357.6M357.6,516.7V510.4H378.3M357.6,516.7V523H378.3M295.3,489.7V541.9H316.1M316.1,541.9V535.6H336.8M316.1,541.9V548.2H336.8M253.9,472.1V570.2H274.6M274.6,570.2V560.7H295.3M274.6,570.2V579.6H295.3M295.3,579.6V573.3H316.1M295.3,579.6V585.9H316.1M46.5,318.9V604.8H67.2M67.2,604.8V598.5H88M67.2,604.8V611.1H88M5,403.5V644.1H25.7M25.7,644.1V630H46.5M46.5,630V623.7H67.2M46.5,630V636.2H67.2M25.7,644.1V658.3H46.5" stroke="#abd9e9"></path><path d="M25.7,163V7H46.5" stroke="#fdae61"></path><path d="M46.5,658.3V648.8H67.2M67.2,667.7V674H88" stroke="lightgrey" class="inapplicable"></path><path d="M46.5,658.3V667.7H67.2" stroke="darkgrey"></path><path d="M67.2,667.7V661.4H88" stroke="#2c7bb6"></path><text x="7" y="406.5" class="node" fill="#4A6FE3">1</text><text x="27.7" y="166" class="node" fill="#4A6FE3">1</text><text x="48.5" y="321.9" class="node" fill="#4A6FE3">1</text><text x="69.2" y="36.1" class="node" fill="#4A6FE3">1</text><text x="90" y="49.6" class="node" fill="#E6BAC2">0.37</text><text x="110.7" y="64" class="node" fill="#7086E1">0.9</text><text x="131.4" y="80.2" class="node" fill="#E495A5">0.25</text><text x="152.2" y="100" class="node" fill="#A3ADE2">0.73</text><text x="172.9" y="127" class="node" fill="#7086E1">0.9</text><text x="193.7" y="168.5" class="node" fill="#7086E1">0.9</text><text x="214.4" y="239" class="node" fill="#A3ADE2">0.73</text><text x="235.1" y="134.7" class="node" fill="#7086E1">0.9</text><text x="255.9" y="158.7" class="node" fill="#7086E1">0.9</text><text x="276.6" y="134.3" class="node" fill="#95A1E2">0.78</text><text x="297.3" y="145.3" class="node" fill="#4A6FE3">1</text><text x="318.1" y="154.7" class="node" fill="#4A6FE3">1</text><text x="276.6" y="183" class="node" fill="#CFD2E3">0.58</text><text x="297.3" y="192.5" class="node" fill="#627DE1">0.94</text><text x="235.1" y="343.2" class="node" fill="#8394E1">0.84</text><text x="255.9" y="475.1" class="node" fill="#CFD2E3">0.58</text><text x="276.6" y="377.1" class="node" fill="#D2D4E3">0.57</text><text x="297.3" y="261.5" class="node" fill="#CFD2E3">0.58</text><text x="318.1" y="235" class="node" fill="#CFD2E3">0.58</text><text x="338.8" y="246" class="node" fill="#8394E1">0.84</text><text x="359.6" y="255.4" class="node" fill="#8394E1">0.84</text><text x="318.1" y="288" class="node" fill="#B1B8E2">0.68</text><text x="338.8" y="301.7" class="node" fill="#D2D4E3">0.57</text><text x="359.6" y="316.6" class="node" fill="#D2D4E3">0.57</text><text x="380.3" y="333.7" class="node" fill="#D2D4E3">0.57</text><text x="401" y="318.3" class="node" fill="#D2D4E3">0.57</text><text x="401" y="349" class="node" fill="#D2D4E3">0.57</text><text x="421.8" y="360.8" class="node" fill="#7086E1">0.9</text><text x="442.5" y="371.8" class="node" fill="#E6ABB6">0.32</text><text x="463.3" y="381.3" class="node" fill="#4A6FE3">1</text><text x="297.3" y="492.7" class="node" fill="#D2D4E3">0.57</text><text x="318.1" y="440.5" class="node" fill="#CFD2E3">0.58</text><text x="338.8" y="481" class="node" fill="#D2D4E3">0.57</text><text x="359.6" y="442.2" class="node" fill="#DDDEE3">0.52</text><text x="380.3" y="422.2" class="node" fill="#E59FAC">0.29</text><text x="401" y="431.6" class="node" fill="#DC6884">0.11</text><text x="380.3" y="462.3" class="node" fill="#B1B8E2">0.68</text><text x="401" y="474.1" class="node" fill="#D2D4E3">0.57</text><text x="421.8" y="485.1" class="node" fill="#4A6FE3">1</text><text x="442.5" y="494.5" class="node" fill="#4F72E2">0.99</text><text x="359.6" y="519.7" class="node" fill="#4A6FE3">1</text><text x="318.1" y="544.9" class="node" fill="#7388E1">0.89</text><text x="276.6" y="573.2" class="node" fill="#D2D4E3">0.57</text><text x="297.3" y="582.6" class="node" fill="#CFD2E3">0.58</text><text x="69.2" y="607.8" class="node" fill="#4A6FE3">1</text><text x="27.7" y="647.1" class="node" fill="#4A6FE3">1</text><text x="48.5" y="633" class="node" fill="#4A6FE3">1</text><text x="48.5" y="661.3" class="node" fill="#4A6FE3">1</text><text x="69.2" y="670.7" class="node" fill="#4A6FE3">1</text></svg>
