<svg xmlns="http://www.w3.org/2000/svg" version="1.1" width="682" height="612" class="tree" data-char="162"><text x="678" y="14.1" text-anchor="end" class="stepsLabel">Character adds <tspan class="score">1</tspan> to tree score</text><text x="678" y="25.2" text-anchor="end" class="stepsLabel"><tspan class="score">0</tspan> additional regions</text><text x="678" y="36.3" text-anchor="end" class="stepsLabel">CI = 1; Fitch CI = 1; Fitch RI = 1</text><text x="678" y="58.5" text-anchor="end" class="stepsLabel"><tspan dy="16" fill="#34caaf">An optimal tree under:</tspan><tspan x="680" style="font-style:italic" class="notThisAn" dy="1.2em">Equal weights</tspan><tspan x="680" style="font-style:italic" class="thisAn" dy="1.2em">Implied weights, k = 2</tspan><tspan x="680" style="font-style:italic" class="notThisAn" dy="1.2em">IW, k = 3</tspan><tspan x="680" style="font-style:italic" class="notThisAn" dy="1.2em">IW, k = 4.5</tspan><tspan x="680" style="font-style:italic" class="notThisAn" dy="1.2em">IW, k = 7</tspan><tspan x="680" style="font-style:italic" class="notThisAn" dy="1.2em">IW, k = 10.5</tspan><tspan x="680" style="font-style:italic" class="notThisAn" dy="1.2em">IW, k = 16</tspan><tspan x="680" style="font-style:italic" class="notThisAn" dy="1.2em">IW, k = 24</tspan></text><text x="111" y="595.7" fill="#91bfdb" class="flag">[2]</text><text x="133" y="595.7" fill="#000" class="taxonLabel">Dentalium</text><text x="111" y="607" fill="grey" class="flag">[?]</text><text x="133" y="607" fill="#999" class="taxonLabel">Wiwaxia corrugata</text><text x="84.5" y="584.5" fill="#91bfdb" class="flag">[2]</text><text x="106.5" y="584.5" fill="#000" class="taxonLabel">Tonicella</text><text x="84.5" y="561.9" fill="#91bfdb" class="flag">[2]</text><text x="106.5" y="561.9" fill="#000" class="taxonLabel">Sipunculus</text><text x="84.5" y="573.2" fill="#91bfdb" class="flag">[2]</text><text x="106.5" y="573.2" fill="#000" class="taxonLabel">Serpula</text><text x="455.5" y="528.2" fill="grey" class="flag">[?]</text><text x="477.5" y="528.2" fill="#999" class="taxonLabel">Craniops</text><text x="455.5" y="539.4" fill="#e2e2a2" class="flag">[1]</text><text x="477.5" y="539.4" fill="#000" class="taxonLabel">Novocrania</text><text x="429" y="516.9" fill="grey" class="flag">[?]</text><text x="451" y="516.9" fill="#999" class="taxonLabel">Ussunia</text><text x="402.5" y="505.6" fill="grey" class="flag">[?]</text><text x="424.5" y="505.6" fill="#999" class="taxonLabel">Heliomedusa orienta</text><text x="376" y="494.4" fill="grey" class="flag">[?]</text><text x="398" y="494.4" fill="#999" class="taxonLabel">Gasconsia</text><text x="376" y="471.8" fill="grey" class="flag">[?]</text><text x="398" y="471.8" fill="#999" class="taxonLabel">Micromitra</text><text x="376" y="483.1" fill="grey" class="flag">[?]</text><text x="398" y="483.1" fill="#999" class="taxonLabel">Askepasma toddense</text><text x="429" y="449.3" fill="#e2e2a2" class="flag">[1]</text><text x="451" y="449.3" fill="#000" class="taxonLabel">Lingula</text><text x="429" y="460.6" fill="#e2e2a2" class="flag">[1]</text><text x="451" y="460.6" fill="#000" class="taxonLabel">Pelagodiscus atlanticus</text><text x="482" y="426.8" fill="grey" class="flag">[?]</text><text x="504" y="426.8" fill="#999" class="taxonLabel">Mummpikia nuda</text><text x="482" y="438" fill="grey" class="flag">[?]</text><text x="504" y="438" fill="#999" class="taxonLabel">Eoobolus</text><text x="455.5" y="415.5" fill="grey" class="flag">[?]</text><text x="477.5" y="415.5" fill="#999" class="taxonLabel">Botsfordia</text><text x="429" y="404.2" fill="grey" class="flag">[?]</text><text x="451" y="404.2" fill="#999" class="taxonLabel">Lingulellotreta malongensis</text><text x="429" y="381.7" fill="grey" class="flag">[?]</text><text x="451" y="381.7" fill="#999" class="taxonLabel">Acanthotretella spinosa</text><text x="429" y="393" fill="grey" class="flag">[?]</text><text x="451" y="393" fill="#999" class="taxonLabel">Siphonobolus priscus</text><text x="402.5" y="370.5" fill="grey" class="flag">[?]</text><text x="424.5" y="370.5" fill="#999" class="taxonLabel">Lingulosacculus</text><text x="349.5" y="359.2" fill="grey" class="flag">[?]</text><text x="371.5" y="359.2" fill="#999" class="taxonLabel">Clupeafumosus socialis</text><text x="429" y="336.7" fill="grey" class="flag">[?]</text><text x="451" y="336.7" fill="#999" class="taxonLabel">Alisina</text><text x="429" y="347.9" fill="#e2e2a2" class="flag">[1]</text><text x="451" y="347.9" fill="#000" class="taxonLabel">Terebratulina</text><text x="402.5" y="325.4" fill="grey" class="flag">[?]</text><text x="424.5" y="325.4" fill="#999" class="taxonLabel">Orthis</text><text x="402.5" y="302.9" fill="grey" class="flag">[?]</text><text x="424.5" y="302.9" fill="#999" class="taxonLabel">Tomteluva perturbata</text><text x="402.5" y="314.1" fill="grey" class="flag">[?]</text><text x="424.5" y="314.1" fill="#999" class="taxonLabel">Glyptoria</text><text x="349.5" y="291.6" fill="grey" class="flag">[?]</text><text x="371.5" y="291.6" fill="#999" class="taxonLabel">Longtancunella chengjiangensis</text><text x="323" y="280.3" fill="grey" class="flag">[?]</text><text x="345" y="280.3" fill="#999" class="taxonLabel">Nisusia sulcata</text><text x="349.5" y="257.8" fill="grey" class="flag">[?]</text><text x="371.5" y="257.8" fill="#999" class="taxonLabel">Coolinia pecten</text><text x="349.5" y="269.1" fill="grey" class="flag">[?]</text><text x="371.5" y="269.1" fill="#999" class="taxonLabel">Antigonambonites planus</text><text x="323" y="246.5" fill="grey" class="flag">[?]</text><text x="345" y="246.5" fill="#999" class="taxonLabel">Yuganotheca elegans</text><text x="296.5" y="235.3" fill="grey" class="flag">[?]</text><text x="318.5" y="235.3" fill="#999" class="taxonLabel">Kutorgina chengjiangensis</text><text x="243.5" y="224" fill="grey" class="flag">[?]</text><text x="265.5" y="224" fill="#999" class="taxonLabel">Micrina</text><text x="217" y="212.8" fill="grey" class="flag">[?]</text><text x="239" y="212.8" fill="#999" class="taxonLabel">Salanygolina</text><text x="190.5" y="201.5" fill="grey" class="flag">[?]</text><text x="212.5" y="201.5" fill="#999" class="taxonLabel">Mickwitzia muralensis</text><text x="164" y="190.2" fill="grey" class="flag">[?]</text><text x="186" y="190.2" fill="#999" class="taxonLabel">Paterimitra</text><text x="137.5" y="179" fill="grey" class="flag">[?]</text><text x="159.5" y="179" fill="#999" class="taxonLabel">Pedunculotheca diania</text><text x="190.5" y="156.4" fill="grey" class="flag">[?]</text><text x="212.5" y="156.4" fill="#999" class="taxonLabel">Dailyatia</text><text x="190.5" y="167.7" fill="grey" class="flag">[?]</text><text x="212.5" y="167.7" fill="#999" class="taxonLabel">Halkieria evangelista</text><text x="217" y="133.9" fill="grey" class="flag">[?]</text><text x="239" y="133.9" fill="#999" class="taxonLabel">Namacalathus</text><text x="217" y="145.2" fill="#e2e2a2" class="flag">[1]</text><text x="239" y="145.2" fill="#000" class="taxonLabel">Phoronis</text><text x="217" y="111.4" fill="grey" class="flag">[?]</text><text x="239" y="111.4" fill="#999" class="taxonLabel">Eccentrotheca</text><text x="217" y="122.6" fill="grey" class="flag">[?]</text><text x="239" y="122.6" fill="#999" class="taxonLabel">Cotyledion tylodes</text><text x="243.5" y="88.8" fill="grey" class="flag">[?]</text><text x="265.5" y="88.8" fill="#999" class="taxonLabel">Pauxillites</text><text x="243.5" y="100.1" fill="grey" class="flag">[?]</text><text x="265.5" y="100.1" fill="#999" class="taxonLabel">Maxilites</text><text x="217" y="77.6" fill="grey" class="flag">[?]</text><text x="239" y="77.6" fill="#999" class="taxonLabel">Paramicrocornus</text><text x="190.5" y="66.3" fill="grey" class="flag">[?]</text><text x="212.5" y="66.3" fill="#999" class="taxonLabel">Haplophrentis carinatus</text><text x="217" y="43.8" fill="grey" class="flag">[?]</text><text x="239" y="43.8" fill="#999" class="taxonLabel">Conotheca</text><text x="217" y="55.1" fill="grey" class="flag">[?]</text><text x="239" y="55.1" fill="#999" class="taxonLabel">Probactrotheca</text><text x="190.5" y="32.5" fill="grey" class="flag">[?]</text><text x="212.5" y="32.5" fill="#999" class="taxonLabel">Decoritheca</text><text x="111" y="10" fill="#e2e2a2" class="flag">[1]</text><text x="133" y="10" fill="#000" class="taxonLabel">Flustra</text><text x="111" y="21.3" fill="#e2e2a2" class="flag">[1]</text><text x="133" y="21.3" fill="#000" class="taxonLabel">Amathia</text><text x="58" y="550.7" fill="#91bfdb" class="flag">[2]</text><text x="80" y="550.7" fill="#000" class="taxonLabel">Loxosomella</text><path d="M5,445.1V313H31.5M31.5,313V547.7H58M5,445.1V577.2H31.5M31.5,577.2V564.6H58M58,564.6V558.9H84.5M58,564.6V570.2H84.5M31.5,577.2V589.9H58M58,589.9V581.5H84.5M58,589.9V598.4H84.5M84.5,598.4V592.7H111M84.5,598.4V604H111" stroke="#91bfdb"></path><path d="M31.5,313V78.3H58M58,78.3V12.6H84.5M84.5,12.6V7H111M84.5,12.6V18.3H111M58,78.3V144H84.5M84.5,144V98.9H111M111,98.9V55.6H137.5M137.5,55.6V38H164M164,38V29.5H190.5M164,38V46.4H190.5M190.5,46.4V40.8H217M190.5,46.4V52.1H217M137.5,55.6V73.2H164M164,73.2V63.3H190.5M164,73.2V83H190.5M190.5,83V74.6H217M190.5,83V91.5H217M217,91.5V85.8H243.5M217,91.5V97.1H243.5M111,98.9V142.2H137.5M137.5,142.2V125.3H164M164,125.3V114H190.5M190.5,114V108.4H217M190.5,114V119.6H217M164,125.3V136.5H190.5M190.5,136.5V130.9H217M190.5,136.5V142.2H217M137.5,142.2V159.1H164M164,159.1V153.4H190.5M164,159.1V164.7H190.5M84.5,144V189.1H111M111,189.1V176H137.5M111,189.1V202.2H137.5M137.5,202.2V187.2H164M137.5,202.2V217.1H164M164,217.1V198.5H190.5M164,217.1V235.7H190.5M190.5,235.7V209.8H217M190.5,235.7V261.6H217M217,261.6V221H243.5M217,261.6V302.2H243.5M243.5,302.2V242.1H270M270,242.1V232.3H296.5M270,242.1V252H296.5M296.5,252V243.5H323M296.5,252V260.4H323M323,260.4V254.8H349.5M323,260.4V266.1H349.5M243.5,302.2V362.2H270M270,362.2V290.4H296.5M296.5,290.4V277.3H323M296.5,290.4V303.4H323M323,303.4V288.6H349.5M323,303.4V318.2H349.5M349.5,318.2V305.5H376M376,305.5V299.9H402.5M376,305.5V311.1H402.5M349.5,318.2V330.8H376M376,330.8V322.4H402.5M376,330.8V339.3H402.5M402.5,339.3V333.7H429M402.5,339.3V344.9H429M270,362.2V434.1H296.5M296.5,434.1V379.9H323M323,379.9V356.2H349.5M323,379.9V403.7H349.5M349.5,403.7V375.9H376M376,375.9V367.5H402.5M376,375.9V384.3H402.5M402.5,384.3V378.7H429M402.5,384.3V390H429M349.5,403.7V431.5H376M376,431.5V411.1H402.5M402.5,411.1V401.2H429M402.5,411.1V421H429M429,421V412.5H455.5M429,421V429.4H455.5M455.5,429.4V423.8H482M455.5,429.4V435H482M376,431.5V451.9H402.5M402.5,451.9V446.3H429M402.5,451.9V457.6H429M296.5,434.1V488.2H323M323,488.2V474.5H349.5M349.5,474.5V468.8H376M349.5,474.5V480.1H376M323,488.2V501.9H349.5M349.5,501.9V491.4H376M349.5,501.9V512.5H376M376,512.5V502.6H402.5M376,512.5V522.3H402.5M402.5,522.3V513.9H429M402.5,522.3V530.8H429M429,530.8V525.2H455.5M429,530.8V536.4H455.5" stroke="#e2e2a2"></path><text x="7" y="448.1" class="node" fill="#4A6FE3">1</text><text x="33.5" y="316" class="node" fill="#4A6FE3">1</text><text x="60" y="81.3" class="node" fill="#4A6FE3">1</text><text x="86.5" y="15.6" class="node" fill="#4A6FE3">1</text><text x="86.5" y="147" class="node" fill="#B6BDE3">0.66</text><text x="113" y="101.9" class="node" fill="#E59FAC">0.29</text><text x="139.5" y="58.6" class="node" fill="#4A6FE3">1</text><text x="166" y="41" class="node" fill="#E392A2">0.24</text><text x="192.5" y="49.4" class="node" fill="#D7D9E3">0.54</text><text x="166" y="76.2" class="node" fill="#7A8DE1">0.87</text><text x="192.5" y="86" class="node" fill="#C1C6E3">0.62</text><text x="219" y="94.5" class="node" fill="#4A6FE3">1</text><text x="139.5" y="145.2" class="node" fill="#E59FAC">0.29</text><text x="166" y="128.3" class="node" fill="#E59FAC">0.29</text><text x="192.5" y="117" class="node" fill="#E392A2">0.24</text><text x="192.5" y="139.5" class="node" fill="#E6C1C7">0.39</text><text x="166" y="162.1" class="node" fill="#E59FAC">0.29</text><text x="113" y="192.1" class="node" fill="#E59FAC">0.29</text><text x="139.5" y="205.2" class="node" fill="#E59FAC">0.29</text><text x="166" y="220.1" class="node" fill="#667FE1">0.93</text><text x="192.5" y="238.7" class="node" fill="#DF798F">0.16</text><text x="219" y="264.6" class="node" fill="#DF798F">0.16</text><text x="245.5" y="305.2" class="node" fill="#DF798F">0.16</text><text x="272" y="245.1" class="node" fill="#DF798F">0.16</text><text x="298.5" y="255" class="node" fill="#DF798F">0.16</text><text x="325" y="263.4" class="node" fill="#4A6FE3">1</text><text x="272" y="365.2" class="node" fill="#DF798F">0.16</text><text x="298.5" y="293.4" class="node" fill="#DF798F">0.16</text><text x="325" y="306.4" class="node" fill="#DF798F">0.16</text><text x="351.5" y="321.2" class="node" fill="#D85778">0.06</text><text x="378" y="308.5" class="node" fill="#DF798F">0.16</text><text x="378" y="333.8" class="node" fill="#4A6FE3">1</text><text x="404.5" y="342.3" class="node" fill="#E2899B">0.21</text><text x="298.5" y="437.1" class="node" fill="#DF798F">0.16</text><text x="325" y="382.9" class="node" fill="#A3ADE2">0.73</text><text x="351.5" y="406.7" class="node" fill="#DF798F">0.16</text><text x="378" y="378.9" class="node" fill="#E59FAC">0.29</text><text x="404.5" y="387.3" class="node" fill="#5776E2">0.97</text><text x="378" y="434.5" class="node" fill="#DF798F">0.16</text><text x="404.5" y="414.1" class="node" fill="#DF798F">0.16</text><text x="431" y="424" class="node" fill="#E5D0D3">0.44</text><text x="457.5" y="432.4" class="node" fill="#DF798F">0.16</text><text x="404.5" y="454.9" class="node" fill="#E07C92">0.17</text><text x="325" y="491.2" class="node" fill="#DF798F">0.16</text><text x="351.5" y="477.5" class="node" fill="#DF798F">0.16</text><text x="351.5" y="504.9" class="node" fill="#E392A2">0.24</text><text x="378" y="515.5" class="node" fill="#7A8DE1">0.87</text><text x="404.5" y="525.3" class="node" fill="#4A6FE3">1</text><text x="431" y="533.8" class="node" fill="#4A6FE3">1</text><text x="33.5" y="580.2" class="node" fill="#4A6FE3">1</text><text x="60" y="567.6" class="node" fill="#4A6FE3">1</text><text x="60" y="592.9" class="node" fill="#4A6FE3">1</text><text x="86.5" y="601.4" class="node" fill="#6D84E1">0.91</text></svg>
