<svg xmlns="http://www.w3.org/2000/svg" version="1.1" width="682" height="555" class="tree" char="173">
 <text x="678" y="14.7" text-anchor="end" class="stepsLabel">Character adds <tspan class="score">1</tspan> to tree score</text>
 <text x="678" y="26.4" text-anchor="end" class="stepsLabel"><tspan class="score">0</tspan> additional regions</text>
 <text x="678" y="38.1" text-anchor="end" class="stepsLabel">CI = 1; Fitch CI = 1; Fitch RI = 1</text>
 <text x="678" y="61.5" text-anchor="end" class="stepsLabel"><tspan dy="16">An optimal tree under:</tspan><tspan x="680" style="font-style:italic" class="thisAn" dy="1.2em">Equal weights</tspan><tspan x="680" style="font-style:italic" class="notThisAn" dy="1.2em">Implied weights, k = 2</tspan><tspan x="680" style="font-style:italic" class="notThisAn" dy="1.2em">IW, k = 3</tspan><tspan x="680" style="font-style:italic" class="notThisAn" dy="1.2em">IW, k = 4.5</tspan></text>
 <text x="33.1" y="10" fill="#fc8d59" class="flag">[0]</text>
 <text x="55.1" y="10" class="taxonLabel">Dailyatia</text>
 <text x="61.1" y="22" fill="#fc8d59" class="flag">[0]</text>
 <text x="83.1" y="22" class="taxonLabel">Halkieria evangelista</text>
 <text x="145.3" y="46" fill="#fc8d59" class="flag">[0]</text>
 <text x="167.3" y="46" class="taxonLabel">Eccentrotheca</text>
 <text x="145.3" y="34" fill="grey" class="flag">[?]</text>
 <text x="167.3" y="34" class="taxonLabel">Cotyledion tylodes</text>
 <text x="145.3" y="58" fill="#fc8d59" class="flag">[0]</text>
 <text x="167.3" y="58" class="taxonLabel">Phoronis</text>
 <text x="173.4" y="70" fill="#fc8d59" class="flag">[0]</text>
 <text x="195.4" y="70" class="taxonLabel">Flustra</text>
 <text x="201.4" y="82" fill="#fc8d59" class="flag">[0]</text>
 <text x="223.4" y="82" class="taxonLabel">Loxosomella</text>
 <text x="257.5" y="94" fill="#91bfdb" class="flag">[1]</text>
 <text x="279.5" y="94" class="taxonLabel">Dentalium</text>
 <text x="285.6" y="118" fill="#91bfdb" class="flag">[1]</text>
 <text x="307.6" y="118" class="taxonLabel">Wiwaxia corrugata</text>
 <text x="285.6" y="106" fill="#91bfdb" class="flag">[1]</text>
 <text x="307.6" y="106" class="taxonLabel">Chiton</text>
 <text x="257.5" y="142" fill="#91bfdb" class="flag">[1]</text>
 <text x="279.5" y="142" class="taxonLabel">Serpula</text>
 <text x="257.5" y="130" fill="#91bfdb" class="flag">[1]</text>
 <text x="279.5" y="130" class="taxonLabel">Sipunculus</text>
 <text x="117.2" y="154" fill="#91bfdb" class="flag">[1]</text>
 <text x="139.2" y="154" class="taxonLabel">Heliomedusa orienta</text>
 <text x="173.4" y="166" fill="grey" class="flag">[?]</text>
 <text x="195.4" y="166" class="taxonLabel">Paterimitra</text>
 <text x="201.4" y="190" fill="#91bfdb" class="flag">[1]</text>
 <text x="223.4" y="190" class="taxonLabel">Haplophrentis carinatus</text>
 <text x="201.4" y="178" fill="#91bfdb" class="flag">[1]</text>
 <text x="223.4" y="178" class="taxonLabel">Pedunculotheca diania</text>
 <text x="257.5" y="214" fill="grey" class="flag">[?]</text>
 <text x="279.5" y="214" class="taxonLabel">Askepasma toddense</text>
 <text x="257.5" y="202" fill="#91bfdb" class="flag">[1]</text>
 <text x="279.5" y="202" class="taxonLabel">Micromitra</text>
 <text x="257.5" y="226" fill="grey" class="flag">[?]</text>
 <text x="279.5" y="226" class="taxonLabel">Salanygolina</text>
 <text x="313.6" y="250" fill="#91bfdb" class="flag">[1]</text>
 <text x="335.6" y="250" class="taxonLabel">Tomteluva perturbata</text>
 <text x="313.6" y="238" fill="grey" class="flag">[?]</text>
 <text x="335.6" y="238" class="taxonLabel">Yuganotheca elegans</text>
 <text x="425.9" y="298" fill="grey" class="flag">[?]</text>
 <text x="447.9" y="298" class="taxonLabel">Longtancunella chengjiangensis</text>
 <text x="341.7" y="262" fill="grey" class="flag">[?]</text>
 <text x="363.7" y="262" class="taxonLabel">Kutorgina chengjiangensis</text>
 <text x="369.8" y="274" fill="grey" class="flag">[?]</text>
 <text x="391.8" y="274" class="taxonLabel">Nisusia sulcata</text>
 <text x="397.8" y="286" fill="grey" class="flag">[?]</text>
 <text x="419.8" y="286" class="taxonLabel">Glyptoria</text>
 <text x="482" y="322" fill="#91bfdb" class="flag">[1]</text>
 <text x="504" y="322" class="taxonLabel">Orthis</text>
 <text x="482" y="334" fill="#91bfdb" class="flag">[1]</text>
 <text x="504" y="334" class="taxonLabel">Terebratulina</text>
 <text x="453.9" y="310" fill="#91bfdb" class="flag">[1]</text>
 <text x="475.9" y="310" class="taxonLabel">Alisina</text>
 <text x="341.7" y="358" fill="#91bfdb" class="flag">[1]</text>
 <text x="363.7" y="358" class="taxonLabel">Antigonambonites planus</text>
 <text x="341.7" y="346" fill="#91bfdb" class="flag">[1]</text>
 <text x="363.7" y="346" class="taxonLabel">Coolinia pecten</text>
 <text x="229.5" y="370" fill="#91bfdb" class="flag">[1]</text>
 <text x="251.5" y="370" class="taxonLabel">Gasconsia</text>
 <text x="257.5" y="382" fill="grey" class="flag">[?]</text>
 <text x="279.5" y="382" class="taxonLabel">Ussunia</text>
 <text x="285.6" y="406" fill="#91bfdb" class="flag">[1]</text>
 <text x="307.6" y="406" class="taxonLabel">Craniops</text>
 <text x="285.6" y="394" fill="grey" class="flag">[?]</text>
 <text x="307.6" y="394" class="taxonLabel">Novocrania</text>
 <text x="229.5" y="418" fill="grey" class="flag">[?]</text>
 <text x="251.5" y="418" class="taxonLabel">Micrina</text>
 <text x="257.5" y="442" fill="#91bfdb" class="flag">[1]</text>
 <text x="279.5" y="442" class="taxonLabel">Pelagodiscus atlanticus</text>
 <text x="257.5" y="430" fill="#91bfdb" class="flag">[1]</text>
 <text x="279.5" y="430" class="taxonLabel">Mickwitzia muralensis</text>
 <text x="229.5" y="454" fill="grey" class="flag">[?]</text>
 <text x="251.5" y="454" class="taxonLabel">Lingula</text>
 <text x="257.5" y="466" fill="grey" class="flag">[?]</text>
 <text x="279.5" y="466" class="taxonLabel">Eoobolus</text>
 <text x="285.6" y="478" fill="grey" class="flag">[?]</text>
 <text x="307.6" y="478" class="taxonLabel">Mummpikia nuda</text>
 <text x="313.6" y="490" fill="#91bfdb" class="flag">[1]</text>
 <text x="335.6" y="490" class="taxonLabel">Botsfordia</text>
 <text x="397.8" y="526" fill="#fc8d59" class="flag">[0]</text>
 <text x="419.8" y="526" class="taxonLabel">Lingulosacculus</text>
 <text x="341.7" y="502" fill="#fc8d59" class="flag">[0]</text>
 <text x="363.7" y="502" class="taxonLabel">Lingulellotreta malongensis</text>
 <text x="397.8" y="514" fill="#fc8d59" class="flag">[0]</text>
 <text x="419.8" y="514" class="taxonLabel">Clupeafumosus socialis</text>
 <text x="397.8" y="550" fill="#fc8d59" class="flag">[0]</text>
 <text x="419.8" y="550" class="taxonLabel">Siphonobolus priscus</text>
 <text x="397.8" y="538" fill="#fc8d59" class="flag">[0]</text>
 <text x="419.8" y="538" class="taxonLabel">Acanthotretella spinosa</text>
 <path d="M5,41.3V7H33.1M5,41.3V75.6H33.1M33.1,75.6V19H61.1M33.1,75.6V132.3H61.1M61.1,132.3V52.8H89.2M89.2,52.8V37H117.2M117.2,37V31H145.3M117.2,37V43H145.3M201.4,463.2V475.4H229.5M229.5,475.4V463H257.5M229.5,475.4V487.8H257.5M257.5,487.8V475H285.6M257.5,487.8V500.5H285.6M285.6,500.5V487H313.6M285.6,500.5V514H313.6M313.6,514V499H341.7M313.6,514V529H341.7M341.7,529V517H369.8M369.8,517V511H397.8M369.8,517V523H397.8M341.7,529V541H369.8M369.8,541V535H397.8M369.8,541V547H397.8" stroke="#fc8d59"></path>
 <path d="M89.2,52.8V68.7H117.2M117.2,68.7V55H145.3M117.2,68.7V82.4H145.3M145.3,82.4V67H173.4M145.3,82.4V97.8H173.4M173.4,97.8V79H201.4M173.4,97.8V116.5H201.4M201.4,116.5V100H229.5M229.5,100V91H257.5M229.5,100V109H257.5M257.5,109V103H285.6M257.5,109V115H285.6M201.4,116.5V133H229.5M229.5,133V127H257.5M229.5,133V139H257.5M61.1,132.3V211.7H89.2M89.2,211.7V151H117.2M89.2,211.7V272.5H117.2M117.2,272.5V172H145.3M145.3,172V163H173.4M145.3,172V181H173.4M173.4,181V175H201.4M173.4,181V187H201.4M117.2,272.5V373H145.3M145.3,373V302.3H173.4M173.4,302.3V227.1H201.4M201.4,227.1V205H229.5M229.5,205V199H257.5M229.5,205V211H257.5M201.4,227.1V249.2H229.5M229.5,249.2V223H257.5M229.5,249.2V275.5H257.5M257.5,275.5V241H285.6M285.6,241V235H313.6M285.6,241V247H313.6M257.5,275.5V309.9H285.6M285.6,309.9V270.8H313.6M313.6,270.8V259H341.7M313.6,270.8V282.6H341.7M341.7,282.6V271H369.8M341.7,282.6V294.2H369.8M369.8,294.2V283H397.8M369.8,294.2V305.5H397.8M397.8,305.5V295H425.9M397.8,305.5V316H425.9M425.9,316V307H453.9M425.9,316V325H453.9M453.9,325V319H482M453.9,325V331H482M285.6,309.9V349H313.6M313.6,349V343H341.7M313.6,349V355H341.7M173.4,302.3V377.5H201.4M201.4,377.5V367H229.5M201.4,377.5V388H229.5M229.5,388V379H257.5M229.5,388V397H257.5M257.5,397V391H285.6M257.5,397V403H285.6M145.3,373V443.6H173.4M173.4,443.6V424H201.4M201.4,424V415H229.5M201.4,424V433H229.5M229.5,433V427H257.5M229.5,433V439H257.5M173.4,443.6V463.2H201.4M201.4,463.2V451H229.5" stroke="#91bfdb"></path>
 <text x="7" y="44.3" class="node" fill="#4A6FE3">1</text>
 <text x="35.1" y="78.6" class="node" fill="#4A6FE3">1</text>
 <text x="63.1" y="135.3" class="node" fill="#ABB4E2">0.7</text>
 <text x="91.2" y="55.8" class="node" fill="#ABB4E2">0.7</text>
 <text x="119.2" y="40" class="node" fill="#ABB4E2">0.7</text>
 <text x="119.2" y="71.7" class="node" fill="#ABB4E2">0.7</text>
 <text x="147.3" y="85.4" class="node" fill="#ABB4E2">0.7</text>
 <text x="175.4" y="100.8" class="node" fill="#ABB4E2">0.7</text>
 <text x="203.4" y="119.5" class="node" fill="#ABB4E2">0.7</text>
 <text x="231.5" y="103" class="node" fill="#ABB4E2">0.7</text>
 <text x="259.5" y="112" class="node" fill="#CACDE3">0.59</text>
 <text x="231.5" y="136" class="node" fill="#CACDE3">0.59</text>
 <text x="91.2" y="214.7" class="node" fill="#7388E1">0.89</text>
 <text x="119.2" y="275.5" class="node" fill="#7388E1">0.89</text>
 <text x="147.3" y="175" class="node" fill="#4A6FE3">1</text>
 <text x="175.4" y="184" class="node" fill="#4A6FE3">1</text>
 <text x="147.3" y="376" class="node" fill="#5B78E2">0.96</text>
 <text x="175.4" y="305.3" class="node" fill="#5B78E2">0.96</text>
 <text x="203.4" y="230.1" class="node" fill="#ABB4E2">0.7</text>
 <text x="231.5" y="208" class="node" fill="#ABB4E2">0.7</text>
 <text x="231.5" y="252.2" class="node" fill="#4A6FE3">1</text>
 <text x="259.5" y="278.5" class="node" fill="#4A6FE3">1</text>
 <text x="287.6" y="244" class="node" fill="#5B78E2">0.96</text>
 <text x="287.6" y="312.9" class="node" fill="#5B78E2">0.96</text>
 <text x="315.6" y="273.8" class="node" fill="#4A6FE3">1</text>
 <text x="343.7" y="285.6" class="node" fill="#4A6FE3">1</text>
 <text x="371.8" y="297.2" class="node" fill="#929FE1">0.79</text>
 <text x="399.8" y="308.5" class="node" fill="#929FE1">0.79</text>
 <text x="427.9" y="319" class="node" fill="#4A6FE3">1</text>
 <text x="455.9" y="328" class="node" fill="#4A6FE3">1</text>
 <text x="315.6" y="352" class="node" fill="#5B78E2">0.96</text>
 <text x="203.4" y="380.5" class="node" fill="#5B78E2">0.96</text>
 <text x="231.5" y="391" class="node" fill="#E6C1C7">0.39</text>
 <text x="259.5" y="400" class="node" fill="#E6C1C7">0.39</text>
 <text x="175.4" y="446.6" class="node" fill="#627DE1">0.94</text>
 <text x="203.4" y="427" class="node" fill="#627DE1">0.94</text>
 <text x="231.5" y="436" class="node" fill="#4A6FE3">1</text>
 <text x="203.4" y="466.2" class="node" fill="#4A6FE3">1</text>
 <text x="231.5" y="478.4" class="node" fill="#E0E0E2">0.51</text>
 <text x="259.5" y="490.8" class="node" fill="#E0E0E2">0.51</text>
 <text x="287.6" y="503.5" class="node" fill="#E0E0E2">0.51</text>
 <text x="315.6" y="517" class="node" fill="#E0E0E2">0.51</text>
 <text x="343.7" y="532" class="node" fill="#E0E0E2">0.51</text>
 <text x="371.8" y="520" class="node" fill="#E0E0E2">0.51</text>
 <text x="371.8" y="544" class="node" fill="#E0E0E2">0.51</text>
 <text x="7" y="44.3" class="node" fill="#E0E0E2">0.51</text>
 <text x="35.1" y="78.6" class="node" fill="#4A6FE3">1</text>
 <text x="63.1" y="135.3" class="node" fill="#4A6FE3">1</text>
 <text x="91.2" y="55.8" class="node" fill="#8F9DE1">0.8</text>
 <text x="119.2" y="40" class="node" fill="#8F9DE1">0.8</text>
 <text x="119.2" y="71.7" class="node" fill="#4A6FE3">1</text>
 <text x="147.3" y="85.4" class="node" fill="#4A6FE3">1</text>
 <text x="175.4" y="100.8" class="node" fill="#4A6FE3">1</text>
 <text x="203.4" y="119.5" class="node" fill="#4A6FE3">1</text>
 <text x="231.5" y="103" class="node" fill="#4A6FE3">1</text>
 <text x="259.5" y="112" class="node" fill="#4A6FE3">1</text>
 <text x="231.5" y="136" class="node" fill="#4A6FE3">1</text>
 <text x="91.2" y="214.7" class="node" fill="#4A6FE3">1</text>
 <text x="119.2" y="275.5" class="node" fill="#ABB4E2">0.7</text>
 <text x="147.3" y="175" class="node" fill="#ABB4E2">0.7</text>
 <text x="175.4" y="184" class="node" fill="#ABB4E2">0.7</text>
 <text x="147.3" y="376" class="node" fill="#ABB4E2">0.7</text>
 <text x="175.4" y="305.3" class="node" fill="#ABB4E2">0.7</text>
 <text x="203.4" y="230.1" class="node" fill="#ABB4E2">0.7</text>
 <text x="231.5" y="208" class="node" fill="#ABB4E2">0.7</text>
 <text x="231.5" y="252.2" class="node" fill="#ABB4E2">0.7</text>
 <text x="259.5" y="278.5" class="node" fill="#ABB4E2">0.7</text>
 <text x="287.6" y="244" class="node" fill="#ABB4E2">0.7</text>
 <text x="287.6" y="312.9" class="node" fill="#ABB4E2">0.7</text>
 <text x="315.6" y="273.8" class="node" fill="#ABB4E2">0.7</text>
 <text x="343.7" y="285.6" class="node" fill="#ABB4E2">0.7</text>
 <text x="371.8" y="297.2" class="node" fill="#ABB4E2">0.7</text>
 <text x="399.8" y="308.5" class="node" fill="#ABB4E2">0.7</text>
 <text x="427.9" y="319" class="node" fill="#ABB4E2">0.7</text>
 <text x="455.9" y="328" class="node" fill="#E6AEB8">0.33</text>
 <text x="315.6" y="352" class="node" fill="#E6AEB8">0.33</text>
 <text x="203.4" y="380.5" class="node" fill="#DB6581">0.1</text>
 <text x="231.5" y="391" class="node" fill="#DB6581">0.1</text>
 <text x="259.5" y="400" class="node" fill="#4A6FE3">1</text>
 <text x="175.4" y="446.6" class="node" fill="#4A6FE3">1</text>
 <text x="203.4" y="427" class="node" fill="#E2899B">0.21</text>
 <text x="231.5" y="436" class="node" fill="#E2899B">0.21</text>
 <text x="203.4" y="466.2" class="node" fill="#ABB4E2">0.7</text>
 <text x="231.5" y="478.4" class="node" fill="#ABB4E2">0.7</text>
 <text x="259.5" y="490.8" class="node" fill="#ABB4E2">0.7</text>
 <text x="287.6" y="503.5" class="node" fill="#ABB4E2">0.7</text>
 <text x="315.6" y="517" class="node" fill="#ABB4E2">0.7</text>
 <text x="343.7" y="532" class="node" fill="#ABB4E2">0.7</text>
 <text x="371.8" y="520" class="node" fill="#4A6FE3">1</text>
 <text x="371.8" y="544" class="node" fill="#4A6FE3">1</text></svg>
