<svg xmlns="http://www.w3.org/2000/svg" version="1.1" width="682" height="612" class="tree" data-char="154"><text x="678" y="16" text-anchor="end" class="stepsLabel">Character adds <tspan class="score">1</tspan> to tree score</text><text x="678" y="29" text-anchor="end" class="stepsLabel"><tspan class="score">0</tspan> additional regions</text><text x="678" y="42" text-anchor="end" class="stepsLabel">CI = 1; Fitch CI = 1; Fitch RI = 1</text><text x="678" y="68" text-anchor="end" class="stepsLabel"><tspan dy="16">An optimal tree under:</tspan><tspan x="680" style="font-style:italic" class="notThisAn" dy="1.2em">Equal weights</tspan><tspan x="680" style="font-style:italic" class="thisAn" dy="1.2em">Implied weights, k = 2</tspan><tspan x="680" style="font-style:italic" class="notThisAn" dy="1.2em">IW, k = 3</tspan><tspan x="680" style="font-style:italic" class="notThisAn" dy="1.2em">IW, k = 4.5</tspan><tspan x="680" style="font-style:italic" class="notThisAn" dy="1.2em">IW, k = 7</tspan><tspan x="680" style="font-style:italic" class="notThisAn" dy="1.2em">IW, k = 10.5</tspan></text><text x="132.2" y="593.7" fill="grey" class="flag">[?]</text><text x="154.2" y="593.7" fill="grey" class="taxonLabel">Wiwaxia corrugata</text><text x="132.2" y="607" fill="#91bfdb" class="flag">[1]</text><text x="154.2" y="607" fill="#000" class="taxonLabel">Dentalium</text><text x="100.4" y="580.5" fill="#91bfdb" class="flag">[1]</text><text x="122.4" y="580.5" fill="#000" class="taxonLabel">Tonicella</text><text x="100.4" y="553.9" fill="#91bfdb" class="flag">[1]</text><text x="122.4" y="553.9" fill="#000" class="taxonLabel">Serpula</text><text x="100.4" y="567.2" fill="#91bfdb" class="flag">[1]</text><text x="122.4" y="567.2" fill="#000" class="taxonLabel">Sipunculus</text><text x="164" y="527.4" fill="grey" class="flag">[?]</text><text x="186" y="527.4" fill="grey" class="taxonLabel">Haplophrentis carinatus</text><text x="164" y="540.7" fill="grey" class="flag">[?]</text><text x="186" y="540.7" fill="grey" class="taxonLabel">Pedunculotheca diania</text><text x="386.6" y="500.9" fill="grey" class="flag">[?]</text><text x="408.6" y="500.9" fill="grey" class="taxonLabel">Eoobolus</text><text x="386.6" y="514.1" fill="grey" class="flag">[?]</text><text x="408.6" y="514.1" fill="grey" class="taxonLabel">Mummpikia nuda</text><text x="354.8" y="487.6" fill="grey" class="flag">[?]</text><text x="376.8" y="487.6" fill="grey" class="taxonLabel">Botsfordia</text><text x="323" y="474.3" fill="grey" class="flag">[?]</text><text x="345" y="474.3" fill="grey" class="taxonLabel">Lingulellotreta malongensis</text><text x="323" y="447.8" fill="#fc8d59" class="flag">[0]</text><text x="345" y="447.8" fill="#000" class="taxonLabel">Lingula</text><text x="323" y="461.1" fill="grey" class="flag">[?]</text><text x="345" y="461.1" fill="grey" class="taxonLabel">Pelagodiscus atlanticus</text><text x="323" y="421.3" fill="grey" class="flag">[?]</text><text x="345" y="421.3" fill="grey" class="taxonLabel">Acanthotretella spinosa</text><text x="323" y="434.5" fill="grey" class="flag">[?]</text><text x="345" y="434.5" fill="grey" class="taxonLabel">Siphonobolus priscus</text><text x="291.2" y="408" fill="grey" class="flag">[?]</text><text x="313.2" y="408" fill="grey" class="taxonLabel">Lingulosacculus</text><text x="227.6" y="394.7" fill="grey" class="flag">[?]</text><text x="249.6" y="394.7" fill="grey" class="taxonLabel">Clupeafumosus socialis</text><text x="291.2" y="368.2" fill="grey" class="flag">[?]</text><text x="313.2" y="368.2" fill="grey" class="taxonLabel">Yuganotheca elegans</text><text x="291.2" y="381.5" fill="grey" class="flag">[?]</text><text x="313.2" y="381.5" fill="grey" class="taxonLabel">Tomteluva perturbata</text><text x="259.4" y="354.9" fill="grey" class="flag">[?]</text><text x="281.4" y="354.9" fill="grey" class="taxonLabel">Salanygolina</text><text x="482" y="328.4" fill="grey" class="flag">[?]</text><text x="504" y="328.4" fill="grey" class="taxonLabel">Orthis</text><text x="482" y="341.7" fill="grey" class="flag">[?]</text><text x="504" y="341.7" fill="grey" class="taxonLabel">Terebratulina</text><text x="450.2" y="315.1" fill="grey" class="flag">[?]</text><text x="472.2" y="315.1" fill="grey" class="taxonLabel">Alisina</text><text x="418.4" y="301.9" fill="grey" class="flag">[?]</text><text x="440.4" y="301.9" fill="grey" class="taxonLabel">Longtancunella chengjiangensis</text><text x="386.6" y="288.6" fill="grey" class="flag">[?]</text><text x="408.6" y="288.6" fill="grey" class="taxonLabel">Glyptoria</text><text x="354.8" y="275.3" fill="grey" class="flag">[?]</text><text x="376.8" y="275.3" fill="grey" class="taxonLabel">Nisusia sulcata</text><text x="323" y="262.1" fill="grey" class="flag">[?]</text><text x="345" y="262.1" fill="grey" class="taxonLabel">Kutorgina chengjiangensis</text><text x="323" y="235.5" fill="grey" class="flag">[?]</text><text x="345" y="235.5" fill="grey" class="taxonLabel">Antigonambonites planus</text><text x="323" y="248.8" fill="grey" class="flag">[?]</text><text x="345" y="248.8" fill="grey" class="taxonLabel">Coolinia pecten</text><text x="386.6" y="209" fill="#fc8d59" class="flag">[0]</text><text x="408.6" y="209" fill="#000" class="taxonLabel">Novocrania</text><text x="386.6" y="222.3" fill="grey" class="flag">[?]</text><text x="408.6" y="222.3" fill="grey" class="taxonLabel">Craniops</text><text x="354.8" y="195.7" fill="grey" class="flag">[?]</text><text x="376.8" y="195.7" fill="grey" class="taxonLabel">Ussunia</text><text x="323" y="182.5" fill="grey" class="flag">[?]</text><text x="345" y="182.5" fill="grey" class="taxonLabel">Gasconsia</text><text x="323" y="155.9" fill="grey" class="flag">[?]</text><text x="345" y="155.9" fill="grey" class="taxonLabel">Micromitra</text><text x="323" y="169.2" fill="grey" class="flag">[?]</text><text x="345" y="169.2" fill="grey" class="taxonLabel">Askepasma toddense</text><text x="195.8" y="129.4" fill="grey" class="flag">[?]</text><text x="217.8" y="129.4" fill="grey" class="taxonLabel">Mickwitzia muralensis</text><text x="195.8" y="142.7" fill="grey" class="flag">[?]</text><text x="217.8" y="142.7" fill="grey" class="taxonLabel">Micrina</text><text x="100.4" y="116.1" fill="grey" class="flag">[?]</text><text x="122.4" y="116.1" fill="grey" class="taxonLabel">Heliomedusa orienta</text><text x="164" y="89.6" fill="grey" class="flag">[?]</text><text x="186" y="89.6" fill="grey" class="taxonLabel">Dailyatia</text><text x="164" y="102.9" fill="grey" class="flag">[?]</text><text x="186" y="102.9" fill="grey" class="taxonLabel">Halkieria evangelista</text><text x="132.2" y="76.3" fill="grey" class="flag">[?]</text><text x="154.2" y="76.3" fill="grey" class="taxonLabel">Paterimitra</text><text x="164" y="49.8" fill="grey" class="flag">[?]</text><text x="186" y="49.8" fill="grey" class="taxonLabel">Cotyledion tylodes</text><text x="164" y="63.1" fill="grey" class="flag">[?]</text><text x="186" y="63.1" fill="grey" class="taxonLabel">Eccentrotheca</text><text x="195.8" y="10" fill="grey" class="flag">[?]</text><text x="217.8" y="10" fill="grey" class="taxonLabel">Flustra</text><text x="195.8" y="23.3" fill="#91bfdb" class="flag">[1]</text><text x="217.8" y="23.3" fill="#000" class="taxonLabel">Loxosomella</text><text x="164" y="36.5" fill="#91bfdb" class="flag">[1]</text><text x="186" y="36.5" fill="#000" class="taxonLabel">Phoronis</text><path d="M5,364V155.5H36.8M36.8,155.5V60.9H68.6M68.6,60.9V38.5H100.4M100.4,38.5V23.6H132.2M132.2,23.6V13.6H164M164,13.6V7H195.8M164,13.6V20.3H195.8M132.2,23.6V33.5H164M100.4,38.5V53.4H132.2M132.2,53.4V46.8H164M132.2,53.4V60.1H164M68.6,60.9V83.3H100.4M100.4,83.3V73.3H132.2M100.4,83.3V93.2H132.2M132.2,93.2V86.6H164M132.2,93.2V99.9H164M36.8,155.5V250H68.6M5,364V572.5H36.8M36.8,572.5V557.6H68.6M68.6,557.6V550.9H100.4M68.6,557.6V564.2H100.4M36.8,572.5V587.4H68.6M68.6,587.4V577.5H100.4M68.6,587.4V597.4H100.4M100.4,597.4V590.7H132.2M100.4,597.4V604H132.2" stroke="#91bfdb"></path><path d="M68.6,250V113.1H100.4M68.6,250V386.9H100.4M100.4,386.9V242.8H132.2M132.2,242.8V133H164M164,133V126.4H195.8M164,133V139.7H195.8M100.4,386.9V531H132.2M132.2,531V524.4H164M132.2,531V537.7H164" stroke="darkgrey"></path><path d="M132.2,242.8V352.5H164M164,352.5V288.7H195.8M195.8,288.7V215.5H227.6M227.6,215.5V175.3H259.4M259.4,175.3V159.6H291.2M291.2,159.6V152.9H323M291.2,159.6V166.2H323M259.4,175.3V191.1H291.2M291.2,191.1V179.5H323M291.2,191.1V202.7H323M323,202.7V192.7H354.8M323,202.7V212.6H354.8M354.8,212.6V206H386.6M354.8,212.6V219.3H386.6M227.6,215.5V255.6H259.4M259.4,255.6V239.2H291.2M291.2,239.2V232.5H323M291.2,239.2V245.8H323M259.4,255.6V272.1H291.2M291.2,272.1V259.1H323M291.2,272.1V285.2H323M323,285.2V272.3H354.8M323,285.2V298H354.8M354.8,298V285.6H386.6M354.8,298V310.5H386.6M386.6,310.5V298.9H418.4M386.6,310.5V322.1H418.4M418.4,322.1V312.1H450.2M418.4,322.1V332H450.2M450.2,332V325.4H482M450.2,332V338.7H482M195.8,288.7V361.9H227.6M227.6,361.9V351.9H259.4M227.6,361.9V371.8H259.4M259.4,371.8V365.2H291.2M259.4,371.8V378.5H291.2M164,352.5V416.4H195.8M195.8,416.4V391.7H227.6M195.8,416.4V441.1H227.6M227.6,441.1V415H259.4M259.4,415V405H291.2M259.4,415V424.9H291.2M291.2,424.9V418.3H323M291.2,424.9V431.5H323M227.6,441.1V467.2H259.4M259.4,467.2V451.4H291.2M291.2,451.4V444.8H323M291.2,451.4V458.1H323M259.4,467.2V482.9H291.2M291.2,482.9V471.3H323M291.2,482.9V494.6H323M323,494.6V484.6H354.8M323,494.6V504.5H354.8M354.8,504.5V497.9H386.6M354.8,504.5V511.1H386.6" stroke="#fc8d59"></path><text x="7" y="367" class="node" fill="#4A6FE3">1</text><text x="38.8" y="158.5" class="node" fill="#4A6FE3">1</text><text x="70.6" y="63.9" class="node" fill="#DC6884">0.11</text><text x="102.4" y="41.5" class="node" fill="#DF758D">0.15</text><text x="134.2" y="26.6" class="node" fill="#4A6FE3">1</text><text x="166" y="16.6" class="node" fill="#4A6FE3">1</text><text x="134.2" y="56.4" class="node" fill="#D95A7A">0.07</text><text x="102.4" y="86.3" class="node" fill="#DF758D">0.15</text><text x="134.2" y="96.2" class="node" fill="#DF758D">0.15</text><text x="70.6" y="253" class="node" fill="#DF758D">0.15</text><text x="102.4" y="389.9" class="node" fill="#DF758D">0.15</text><text x="134.2" y="245.8" class="node" fill="#4A6FE3">1</text><text x="166" y="136" class="node" fill="#E5A5B1">0.3</text><text x="166" y="355.5" class="node" fill="#E5A5B1">0.3</text><text x="197.8" y="291.7" class="node" fill="#4A6FE3">1</text><text x="229.6" y="218.5" class="node" fill="#E18297">0.19</text><text x="261.4" y="178.3" class="node" fill="#E38C9E">0.22</text><text x="293.2" y="162.6" class="node" fill="#4A6FE3">1</text><text x="293.2" y="194.1" class="node" fill="#4A6FE3">1</text><text x="325" y="205.7" class="node" fill="#4A6FE3">1</text><text x="356.8" y="215.6" class="node" fill="#4A6FE3">1</text><text x="261.4" y="258.6" class="node" fill="#4A6FE3">1</text><text x="293.2" y="242.2" class="node" fill="#4A6FE3">1</text><text x="293.2" y="275.1" class="node" fill="#DADBE3">0.53</text><text x="325" y="288.2" class="node" fill="#DADBE3">0.53</text><text x="356.8" y="301" class="node" fill="#DADBE3">0.53</text><text x="388.6" y="313.5" class="node" fill="#DADBE3">0.53</text><text x="420.4" y="325.1" class="node" fill="#4A6FE3">1</text><text x="452.2" y="335" class="node" fill="#97A4E2">0.77</text><text x="229.6" y="364.9" class="node" fill="#BFC4E3">0.63</text><text x="261.4" y="374.8" class="node" fill="#627DE1">0.94</text><text x="197.8" y="419.4" class="node" fill="#E5A5B1">0.3</text><text x="229.6" y="444.1" class="node" fill="#E5A5B1">0.3</text><text x="261.4" y="418" class="node" fill="#E38FA0">0.23</text><text x="293.2" y="427.9" class="node" fill="#4A6FE3">1</text><text x="261.4" y="470.2" class="node" fill="#E5A5B1">0.3</text><text x="293.2" y="454.4" class="node" fill="#E5A5B1">0.3</text><text x="293.2" y="485.9" class="node" fill="#E6AEB8">0.33</text><text x="325" y="497.6" class="node" fill="#E6AEB8">0.33</text><text x="356.8" y="507.5" class="node" fill="#E6AEB8">0.33</text><text x="134.2" y="534" class="node" fill="#4A6FE3">1</text><text x="38.8" y="575.5" class="node" fill="#4A6FE3">1</text><text x="70.6" y="560.6" class="node" fill="#A6AFE2">0.72</text><text x="70.6" y="590.4" class="node" fill="#E4D9DB">0.47</text><text x="102.4" y="600.4" class="node" fill="#E4D9DB">0.47</text></svg>
