<svg xmlns="http://www.w3.org/2000/svg" version="1.1" width="682" height="682" class="tree" data-char="222"><text x="678" y="15.6" text-anchor="end" class="stepsLabel">Character adds <tspan class="score">1</tspan> to tree score</text><text x="678" y="28.2" text-anchor="end" class="stepsLabel"><tspan class="score">0</tspan> additional regions</text><text x="678" y="40.8" text-anchor="end" class="stepsLabel">CI = 1; Fitch CI = 1; Fitch RI = 1</text><text x="678" y="66" text-anchor="end" class="stepsLabel"><tspan dy="16" fill="#34caaf">An optimal tree under:</tspan><tspan x="680" style="font-style:italic" class="thisAn" dy="1.2em">Equal weights</tspan><tspan x="680" style="font-style:italic" class="notThisAn" dy="1.2em">Implied weights, k = 2</tspan><tspan x="680" style="font-style:italic" class="notThisAn" dy="1.2em">IW, k = 3</tspan><tspan x="680" style="font-style:italic" class="notThisAn" dy="1.2em">IW, k = 4.5</tspan><tspan x="680" style="font-style:italic" class="notThisAn" dy="1.2em">IW, k = 7</tspan><tspan x="680" style="font-style:italic" class="notThisAn" dy="1.2em">IW, k = 10.5</tspan><tspan x="680" style="font-style:italic" class="notThisAn" dy="1.2em">IW, k = 16</tspan><tspan x="680" style="font-style:italic" class="notThisAn" dy="1.2em">IW, k = 24</tspan></text><text x="91.7" y="664.2" fill="#91bfdb" class="flag">[1]</text><text x="113.7" y="664.2" fill="#000" class="taxonLabel">Tonicella</text><text x="91.7" y="677" fill="#91bfdb" class="flag">[1]</text><text x="113.7" y="677" fill="#000" class="taxonLabel">Dentalium</text><text x="70" y="651.3" fill="grey" class="flag">[?]</text><text x="92" y="651.3" fill="#999" class="taxonLabel">Wiwaxia corrugata</text><text x="70" y="625.7" fill="#91bfdb" class="flag">[1]</text><text x="92" y="625.7" fill="#000" class="taxonLabel">Serpula</text><text x="70" y="638.5" fill="#91bfdb" class="flag">[1]</text><text x="92" y="638.5" fill="#000" class="taxonLabel">Sipunculus</text><text x="351.9" y="587.2" fill="grey" class="flag">[?]</text><text x="373.9" y="587.2" fill="#999" class="taxonLabel">Pauxillites</text><text x="351.9" y="600" fill="grey" class="flag">[?]</text><text x="373.9" y="600" fill="#999" class="taxonLabel">Maxilites</text><text x="330.2" y="574.4" fill="grey" class="flag">[?]</text><text x="352.2" y="574.4" fill="#999" class="taxonLabel">Haplophrentis carinatus</text><text x="308.5" y="561.6" fill="grey" class="flag">[?]</text><text x="330.5" y="561.6" fill="#999" class="taxonLabel">Paramicrocornus</text><text x="308.5" y="535.9" fill="grey" class="flag">[?]</text><text x="330.5" y="535.9" fill="#999" class="taxonLabel">Bactrotheca</text><text x="308.5" y="548.7" fill="grey" class="flag">[?]</text><text x="330.5" y="548.7" fill="#999" class="taxonLabel">Conotheca</text><text x="265.2" y="523.1" fill="grey" class="flag">[?]</text><text x="287.2" y="523.1" fill="#999" class="taxonLabel">Pedunculotheca diania</text><text x="417" y="497.4" fill="#fc8d59" class="flag">[0]</text><text x="439" y="497.4" fill="#000" class="taxonLabel">Pelagodiscus atlanticus</text><text x="417" y="510.2" fill="grey" class="flag">[?]</text><text x="439" y="510.2" fill="#999" class="taxonLabel">Mummpikia nuda</text><text x="482" y="471.8" fill="grey" class="flag">[?]</text><text x="504" y="471.8" fill="#999" class="taxonLabel">Siphonobolus priscus</text><text x="482" y="484.6" fill="grey" class="flag">[?]</text><text x="504" y="484.6" fill="#999" class="taxonLabel">Acanthotretella spinosa</text><text x="460.3" y="458.9" fill="grey" class="flag">[?]</text><text x="482.3" y="458.9" fill="#999" class="taxonLabel">Clupeafumosus socialis</text><text x="438.6" y="446.1" fill="grey" class="flag">[?]</text><text x="460.6" y="446.1" fill="#999" class="taxonLabel">Lingulosacculus</text><text x="417" y="433.3" fill="grey" class="flag">[?]</text><text x="439" y="433.3" fill="#999" class="taxonLabel">Lingulellotreta malongensis</text><text x="373.6" y="420.5" fill="grey" class="flag">[?]</text><text x="395.6" y="420.5" fill="#999" class="taxonLabel">Botsfordia</text><text x="351.9" y="407.6" fill="grey" class="flag">[?]</text><text x="373.9" y="407.6" fill="#999" class="taxonLabel">Eoobolus</text><text x="330.2" y="394.8" fill="#fc8d59" class="flag">[0]</text><text x="352.2" y="394.8" fill="#000" class="taxonLabel">Lingula</text><text x="351.9" y="369.2" fill="grey" class="flag">[?]</text><text x="373.9" y="369.2" fill="#999" class="taxonLabel">Micromitra</text><text x="351.9" y="382" fill="grey" class="flag">[?]</text><text x="373.9" y="382" fill="#999" class="taxonLabel">Gasconsia</text><text x="417" y="343.5" fill="#fc8d59" class="flag">[0]</text><text x="439" y="343.5" fill="#000" class="taxonLabel">Novocrania</text><text x="417" y="356.3" fill="grey" class="flag">[?]</text><text x="439" y="356.3" fill="#999" class="taxonLabel">Craniops</text><text x="395.3" y="330.7" fill="grey" class="flag">[?]</text><text x="417.3" y="330.7" fill="#999" class="taxonLabel">Ussunia</text><text x="373.6" y="317.8" fill="grey" class="flag">[?]</text><text x="395.6" y="317.8" fill="#999" class="taxonLabel">Heliomedusa orienta</text><text x="351.9" y="305" fill="grey" class="flag">[?]</text><text x="373.9" y="305" fill="#999" class="taxonLabel">Mickwitzia muralensis</text><text x="460.3" y="279.4" fill="grey" class="flag">[?]</text><text x="482.3" y="279.4" fill="#999" class="taxonLabel">Orthis</text><text x="460.3" y="292.2" fill="#fc8d59" class="flag">[0]</text><text x="482.3" y="292.2" fill="#000" class="taxonLabel">Terebratulina</text><text x="438.6" y="266.5" fill="grey" class="flag">[?]</text><text x="460.6" y="266.5" fill="#999" class="taxonLabel">Alisina</text><text x="417" y="253.7" fill="grey" class="flag">[?]</text><text x="439" y="253.7" fill="#999" class="taxonLabel">Glyptoria</text><text x="417" y="228.1" fill="grey" class="flag">[?]</text><text x="439" y="228.1" fill="#999" class="taxonLabel">Kutorgina chengjiangensis</text><text x="417" y="240.9" fill="grey" class="flag">[?]</text><text x="439" y="240.9" fill="#999" class="taxonLabel">Nisusia sulcata</text><text x="395.3" y="202.4" fill="grey" class="flag">[?]</text><text x="417.3" y="202.4" fill="#999" class="taxonLabel">Antigonambonites planus</text><text x="395.3" y="215.2" fill="grey" class="flag">[?]</text><text x="417.3" y="215.2" fill="#999" class="taxonLabel">Coolinia pecten</text><text x="395.3" y="176.8" fill="grey" class="flag">[?]</text><text x="417.3" y="176.8" fill="#999" class="taxonLabel">Tomteluva perturbata</text><text x="395.3" y="189.6" fill="grey" class="flag">[?]</text><text x="417.3" y="189.6" fill="#999" class="taxonLabel">Yuganotheca elegans</text><text x="373.6" y="163.9" fill="grey" class="flag">[?]</text><text x="395.6" y="163.9" fill="#999" class="taxonLabel">Longtancunella chengjiangensis</text><text x="330.2" y="151.1" fill="grey" class="flag">[?]</text><text x="352.2" y="151.1" fill="#999" class="taxonLabel">Salanygolina</text><text x="308.5" y="138.3" fill="grey" class="flag">[?]</text><text x="330.5" y="138.3" fill="#999" class="taxonLabel">Askepasma toddense</text><text x="265.2" y="125.4" fill="grey" class="flag">[?]</text><text x="287.2" y="125.4" fill="#999" class="taxonLabel">Micrina</text><text x="221.8" y="112.6" fill="grey" class="flag">[?]</text><text x="243.8" y="112.6" fill="#999" class="taxonLabel">Paterimitra</text><text x="200.1" y="99.8" fill="grey" class="flag">[?]</text><text x="222.1" y="99.8" fill="#999" class="taxonLabel">Halkieria evangelista</text><text x="178.5" y="87" fill="grey" class="flag">[?]</text><text x="200.5" y="87" fill="#999" class="taxonLabel">Eccentrotheca</text><text x="156.8" y="74.1" fill="grey" class="flag">[?]</text><text x="178.8" y="74.1" fill="#999" class="taxonLabel">Dailyatia</text><text x="135.1" y="61.3" fill="grey" class="flag">[?]</text><text x="157.1" y="61.3" fill="#999" class="taxonLabel">Cotyledion tylodes</text><text x="113.4" y="48.5" fill="grey" class="flag">[?]</text><text x="135.4" y="48.5" fill="#999" class="taxonLabel">Namacalathus</text><text x="91.7" y="35.7" fill="#fc8d59" class="flag">[0]</text><text x="113.7" y="35.7" fill="#000" class="taxonLabel">Phoronis</text><text x="91.7" y="10" fill="#fc8d59" class="flag">[0]</text><text x="113.7" y="10" fill="#000" class="taxonLabel">Flustra</text><text x="91.7" y="22.8" fill="#fc8d59" class="flag">[0]</text><text x="113.7" y="22.8" fill="#000" class="taxonLabel">Amathia</text><text x="48.4" y="612.9" fill="#91bfdb" class="flag">[1]</text><text x="70.4" y="612.9" fill="#000" class="taxonLabel">Loxosomella</text><path d="M5,481.8V320.1H26.7M26.7,320.1V609.9H48.4M5,481.8V643.5H26.7M26.7,643.5V629.1H48.4M48.4,629.1V622.7H70M48.4,629.1V635.5H70M26.7,643.5V658H48.4M48.4,658V648.3H70M48.4,658V667.6H70M70,667.6V661.2H91.7M70,667.6V674H91.7" stroke="#91bfdb"></path><path d="M26.7,320.1V30.3H48.4M48.4,30.3V13.4H70M70,13.4V7H91.7M70,13.4V19.8H91.7M48.4,30.3V47.3H70M70,47.3V32.7H91.7M70,47.3V61.9H91.7M91.7,61.9V45.5H113.4M91.7,61.9V78.3H113.4M113.4,78.3V58.3H135.1M113.4,78.3V98.4H135.1M135.1,98.4V71.1H156.8M135.1,98.4V125.6H156.8M156.8,125.6V84H178.5M156.8,125.6V167.2H178.5M178.5,167.2V96.8H200.1M178.5,167.2V237.6H200.1M200.1,237.6V109.6H221.8M200.1,237.6V365.5H221.8M221.8,365.5V193.7H243.5M243.5,193.7V122.4H265.2M243.5,193.7V265H265.2M265.2,265V154.3H286.9M286.9,154.3V135.3H308.5M286.9,154.3V173.2H308.5M308.5,173.2V148.1H330.2M308.5,173.2V198.4H330.2M330.2,198.4V170.5H351.9M351.9,170.5V160.9H373.6M351.9,170.5V180.2H373.6M373.6,180.2V173.8H395.3M373.6,180.2V186.6H395.3M330.2,198.4V226.3H351.9M351.9,226.3V205.8H373.6M373.6,205.8V199.4H395.3M373.6,205.8V212.2H395.3M351.9,226.3V246.7H373.6M373.6,246.7V231.5H395.3M395.3,231.5V225.1H417M395.3,231.5V237.9H417M373.6,246.7V261.9H395.3M395.3,261.9V250.7H417M395.3,261.9V273.2H417M417,273.2V263.5H438.6M417,273.2V282.8H438.6M438.6,282.8V276.4H460.3M438.6,282.8V289.2H460.3M265.2,265V375.7H286.9M286.9,375.7V343.3H308.5M308.5,343.3V314H330.2M330.2,314V302H351.9M330.2,314V326.1H351.9M351.9,326.1V314.8H373.6M351.9,326.1V337.3H373.6M373.6,337.3V327.7H395.3M373.6,337.3V346.9H395.3M395.3,346.9V340.5H417M395.3,346.9V353.3H417M308.5,343.3V372.6H330.2M330.2,372.6V366.2H351.9M330.2,372.6V379H351.9M286.9,375.7V408.2H308.5M308.5,408.2V391.8H330.2M308.5,408.2V424.6H330.2M330.2,424.6V404.6H351.9M330.2,424.6V444.5H351.9M351.9,444.5V417.5H373.6M351.9,444.5V471.6H373.6M373.6,471.6V442.3H395.3M395.3,442.3V430.3H417M395.3,442.3V454.3H417M417,454.3V443.1H438.6M417,454.3V465.6H438.6M438.6,465.6V455.9H460.3M438.6,465.6V475.2H460.3M460.3,475.2V468.8H482M460.3,475.2V481.6H482M373.6,471.6V500.8H395.3M395.3,500.8V494.4H417M395.3,500.8V507.2H417M221.8,365.5V537.3H243.5M243.5,537.3V520.1H265.2M243.5,537.3V554.5H265.2M265.2,554.5V539.3H286.9M286.9,539.3V532.9H308.5M286.9,539.3V545.7H308.5M265.2,554.5V569.8H286.9M286.9,569.8V558.6H308.5M286.9,569.8V581H308.5M308.5,581V571.4H330.2M308.5,581V590.6H330.2M330.2,590.6V584.2H351.9M330.2,590.6V597H351.9" stroke="#fc8d59"></path><text x="7" y="484.8" class="node" fill="#4A6FE3">1</text><text x="28.7" y="323.1" class="node" fill="#4A6FE3">1</text><text x="50.4" y="33.3" class="node" fill="#4A6FE3">1</text><text x="72" y="16.4" class="node" fill="#4A6FE3">1</text><text x="72" y="50.3" class="node" fill="#4A6FE3">1</text><text x="93.7" y="64.9" class="node" fill="#E59FAC">0.28</text><text x="115.4" y="81.3" class="node" fill="#9AA6E2">0.76</text><text x="137.1" y="101.4" class="node" fill="#E498A7">0.26</text><text x="158.8" y="128.6" class="node" fill="#DC6884">0.11</text><text x="180.5" y="170.2" class="node" fill="#9AA6E2">0.76</text><text x="202.1" y="240.6" class="node" fill="#4A6FE3">1</text><text x="223.8" y="368.5" class="node" fill="#4A6FE3">1</text><text x="245.5" y="196.7" class="node" fill="#9AA6E2">0.76</text><text x="267.2" y="268" class="node" fill="#C7CBE3">0.6</text><text x="288.9" y="157.3" class="node" fill="#D7D9E3">0.54</text><text x="310.5" y="176.2" class="node" fill="#9AA6E2">0.76</text><text x="332.2" y="201.4" class="node" fill="#E4D6D8">0.46</text><text x="353.9" y="173.5" class="node" fill="#DD6F88">0.13</text><text x="375.6" y="183.2" class="node" fill="#C1C6E3">0.62</text><text x="353.9" y="229.3" class="node" fill="#E5CDD1">0.43</text><text x="375.6" y="208.8" class="node" fill="#4A6FE3">1</text><text x="375.6" y="249.7" class="node" fill="#E6C1C7">0.39</text><text x="397.3" y="234.5" class="node" fill="#CFD2E3">0.58</text><text x="397.3" y="264.9" class="node" fill="#E3DFE0">0.49</text><text x="419" y="276.2" class="node" fill="#627DE1">0.94</text><text x="440.6" y="285.8" class="node" fill="#E2E2E2">0.5</text><text x="288.9" y="378.7" class="node" fill="#D7D9E3">0.54</text><text x="310.5" y="346.3" class="node" fill="#D7D9E3">0.54</text><text x="332.2" y="317" class="node" fill="#D7D9E3">0.54</text><text x="353.9" y="329.1" class="node" fill="#9AA6E2">0.76</text><text x="375.6" y="340.3" class="node" fill="#4A6FE3">1</text><text x="397.3" y="349.9" class="node" fill="#4A6FE3">1</text><text x="332.2" y="375.6" class="node" fill="#D7D9E3">0.54</text><text x="310.5" y="411.2" class="node" fill="#95A1E2">0.78</text><text x="332.2" y="427.6" class="node" fill="#E4D9DB">0.47</text><text x="353.9" y="447.5" class="node" fill="#E4D9DB">0.47</text><text x="375.6" y="474.6" class="node" fill="#E4D9DB">0.47</text><text x="397.3" y="445.3" class="node" fill="#E2E2E2">0.5</text><text x="419" y="457.3" class="node" fill="#9AA6E2">0.76</text><text x="440.6" y="468.6" class="node" fill="#E498A7">0.26</text><text x="462.3" y="478.2" class="node" fill="#4F72E2">0.99</text><text x="397.3" y="503.8" class="node" fill="#DDDEE3">0.52</text><text x="245.5" y="540.3" class="node" fill="#4A6FE3">1</text><text x="267.2" y="557.5" class="node" fill="#9AA6E2">0.76</text><text x="288.9" y="542.3" class="node" fill="#E2E2E2">0.5</text><text x="288.9" y="572.8" class="node" fill="#4A6FE3">1</text><text x="310.5" y="584" class="node" fill="#4A6FE3">1</text><text x="332.2" y="593.6" class="node" fill="#4A6FE3">1</text><text x="28.7" y="646.5" class="node" fill="#4A6FE3">1</text><text x="50.4" y="632.1" class="node" fill="#4A6FE3">1</text><text x="50.4" y="661" class="node" fill="#4A6FE3">1</text><text x="72" y="670.6" class="node" fill="#4A6FE3">1</text></svg>
