<svg xmlns="http://www.w3.org/2000/svg" version="1.1" width="682" height="612" class="tree" data-char="191"><text x="678" y="14.3" text-anchor="end" class="stepsLabel">Character adds <tspan class="score">1</tspan> to tree score</text><text x="678" y="25.6" text-anchor="end" class="stepsLabel"><tspan class="score">0</tspan> additional regions</text><text x="678" y="36.9" text-anchor="end" class="stepsLabel">CI = 1; Fitch CI = 1; Fitch RI = 1</text><text x="678" y="59.5" text-anchor="end" class="stepsLabel"><tspan dy="16" fill="#34caaf">An optimal tree under:</tspan><tspan x="680" style="font-style:italic" class="thisAn" dy="1.2em">Equal weights</tspan><tspan x="680" style="font-style:italic" class="notThisAn" dy="1.2em">Implied weights, k = 2</tspan><tspan x="680" style="font-style:italic" class="notThisAn" dy="1.2em">IW, k = 3</tspan><tspan x="680" style="font-style:italic" class="notThisAn" dy="1.2em">IW, k = 4.5</tspan><tspan x="680" style="font-style:italic" class="notThisAn" dy="1.2em">IW, k = 7</tspan><tspan x="680" style="font-style:italic" class="notThisAn" dy="1.2em">IW, k = 10.5</tspan><tspan x="680" style="font-style:italic" class="notThisAn" dy="1.2em">IW, k = 16</tspan><tspan x="680" style="font-style:italic" class="notThisAn" dy="1.2em">IW, k = 24</tspan></text><text x="67.2" y="595.5" fill="#91bfdb" class="flag">[2]</text><text x="89.2" y="595.5" fill="#000" class="taxonLabel">Sipunculus</text><text x="67.2" y="607" fill="#91bfdb" class="flag">[2]</text><text x="89.2" y="607" fill="#000" class="taxonLabel">Serpula</text><text x="88" y="572.6" fill="#91bfdb" class="flag">[2]</text><text x="110" y="572.6" fill="#000" class="taxonLabel">Dentalium</text><text x="88" y="584" fill="grey" class="flag">[?]</text><text x="110" y="584" fill="#999" class="taxonLabel">Wiwaxia corrugata</text><text x="67.2" y="561.1" fill="#91bfdb" class="flag">[2]</text><text x="89.2" y="561.1" fill="#000" class="taxonLabel">Tonicella</text><text x="440.5" y="526.6" fill="grey" class="flag">[?]</text><text x="462.5" y="526.6" fill="#999" class="taxonLabel">Acanthotretella spinosa</text><text x="440.5" y="538.1" fill="grey" class="flag">[?]</text><text x="462.5" y="538.1" fill="#999" class="taxonLabel">Siphonobolus priscus</text><text x="419.8" y="515.2" fill="grey" class="flag">[?]</text><text x="441.8" y="515.2" fill="#999" class="taxonLabel">Clupeafumosus socialis</text><text x="419.8" y="492.2" fill="grey" class="flag">[?]</text><text x="441.8" y="492.2" fill="#999" class="taxonLabel">Lingulellotreta malongensis</text><text x="419.8" y="503.7" fill="grey" class="flag">[?]</text><text x="441.8" y="503.7" fill="#999" class="taxonLabel">Lingulosacculus</text><text x="378.3" y="480.7" fill="grey" class="flag">[?]</text><text x="400.3" y="480.7" fill="#999" class="taxonLabel">Botsfordia</text><text x="357.6" y="469.2" fill="grey" class="flag">[?]</text><text x="379.6" y="469.2" fill="#999" class="taxonLabel">Mummpikia nuda</text><text x="336.8" y="457.7" fill="grey" class="flag">[?]</text><text x="358.8" y="457.7" fill="#999" class="taxonLabel">Eoobolus</text><text x="316.1" y="446.3" fill="#e2e2a2" class="flag">[1]</text><text x="338.1" y="446.3" fill="#000" class="taxonLabel">Lingula</text><text x="316.1" y="423.3" fill="grey" class="flag">[?]</text><text x="338.1" y="423.3" fill="#999" class="taxonLabel">Pelagodiscus atlanticus</text><text x="316.1" y="434.8" fill="grey" class="flag">[?]</text><text x="338.1" y="434.8" fill="#999" class="taxonLabel">Mickwitzia muralensis</text><text x="316.1" y="400.3" fill="grey" class="flag">[?]</text><text x="338.1" y="400.3" fill="#999" class="taxonLabel">Askepasma toddense</text><text x="316.1" y="411.8" fill="grey" class="flag">[?]</text><text x="338.1" y="411.8" fill="#999" class="taxonLabel">Micromitra</text><text x="357.6" y="377.4" fill="grey" class="flag">[?]</text><text x="379.6" y="377.4" fill="#999" class="taxonLabel">Tomteluva perturbata</text><text x="357.6" y="388.9" fill="grey" class="flag">[?]</text><text x="379.6" y="388.9" fill="#999" class="taxonLabel">Yuganotheca elegans</text><text x="399" y="354.4" fill="grey" class="flag">[?]</text><text x="421" y="354.4" fill="#999" class="taxonLabel">Antigonambonites planus</text><text x="399" y="365.9" fill="grey" class="flag">[?]</text><text x="421" y="365.9" fill="#999" class="taxonLabel">Coolinia pecten</text><text x="482" y="331.5" fill="#e2e2a2" class="flag">[1]</text><text x="504" y="331.5" fill="#000" class="taxonLabel">Terebratulina</text><text x="482" y="342.9" fill="grey" class="flag">[?]</text><text x="504" y="342.9" fill="#999" class="taxonLabel">Orthis</text><text x="461.3" y="320" fill="grey" class="flag">[?]</text><text x="483.3" y="320" fill="#999" class="taxonLabel">Alisina</text><text x="440.5" y="308.5" fill="grey" class="flag">[?]</text><text x="462.5" y="308.5" fill="#999" class="taxonLabel">Glyptoria</text><text x="419.8" y="297" fill="grey" class="flag">[?]</text><text x="441.8" y="297" fill="#999" class="taxonLabel">Nisusia sulcata</text><text x="399" y="285.5" fill="grey" class="flag">[?]</text><text x="421" y="285.5" fill="#999" class="taxonLabel">Kutorgina chengjiangensis</text><text x="357.6" y="274.1" fill="grey" class="flag">[?]</text><text x="379.6" y="274.1" fill="#999" class="taxonLabel">Longtancunella chengjiangensis</text><text x="316.1" y="262.6" fill="grey" class="flag">[?]</text><text x="338.1" y="262.6" fill="#999" class="taxonLabel">Salanygolina</text><text x="378.3" y="239.6" fill="grey" class="flag">[?]</text><text x="400.3" y="239.6" fill="#999" class="taxonLabel">Conotheca</text><text x="378.3" y="251.1" fill="grey" class="flag">[?]</text><text x="400.3" y="251.1" fill="#999" class="taxonLabel">Probactrotheca</text><text x="399" y="216.7" fill="grey" class="flag">[?]</text><text x="421" y="216.7" fill="#999" class="taxonLabel">Pauxillites</text><text x="399" y="228.1" fill="grey" class="flag">[?]</text><text x="421" y="228.1" fill="#999" class="taxonLabel">Maxilites</text><text x="378.3" y="205.2" fill="grey" class="flag">[?]</text><text x="400.3" y="205.2" fill="#999" class="taxonLabel">Haplophrentis carinatus</text><text x="336.8" y="193.7" fill="grey" class="flag">[?]</text><text x="358.8" y="193.7" fill="#999" class="taxonLabel">Decoritheca</text><text x="316.1" y="182.2" fill="grey" class="flag">[?]</text><text x="338.1" y="182.2" fill="#999" class="taxonLabel">Pedunculotheca diania</text><text x="295.3" y="170.7" fill="grey" class="flag">[?]</text><text x="317.3" y="170.7" fill="#999" class="taxonLabel">Paterimitra</text><text x="274.6" y="159.2" fill="grey" class="flag">[?]</text><text x="296.6" y="159.2" fill="#999" class="taxonLabel">Micrina</text><text x="233.1" y="147.8" fill="grey" class="flag">[?]</text><text x="255.1" y="147.8" fill="#999" class="taxonLabel">Heliomedusa orienta</text><text x="212.4" y="136.3" fill="grey" class="flag">[?]</text><text x="234.4" y="136.3" fill="#999" class="taxonLabel">Gasconsia</text><text x="233.1" y="113.3" fill="grey" class="flag">[?]</text><text x="255.1" y="113.3" fill="#999" class="taxonLabel">Craniops</text><text x="233.1" y="124.8" fill="#e2e2a2" class="flag">[1]</text><text x="255.1" y="124.8" fill="#000" class="taxonLabel">Novocrania</text><text x="212.4" y="101.8" fill="grey" class="flag">[?]</text><text x="234.4" y="101.8" fill="#999" class="taxonLabel">Ussunia</text><text x="170.9" y="90.4" fill="grey" class="flag">[?]</text><text x="192.9" y="90.4" fill="#999" class="taxonLabel">Halkieria evangelista</text><text x="170.9" y="67.4" fill="grey" class="flag">[?]</text><text x="192.9" y="67.4" fill="#999" class="taxonLabel">Cotyledion tylodes</text><text x="170.9" y="78.9" fill="grey" class="flag">[?]</text><text x="192.9" y="78.9" fill="#999" class="taxonLabel">Namacalathus</text><text x="129.4" y="55.9" fill="grey" class="flag">[?]</text><text x="151.4" y="55.9" fill="#999" class="taxonLabel">Dailyatia</text><text x="108.7" y="44.4" fill="grey" class="flag">[?]</text><text x="130.7" y="44.4" fill="#999" class="taxonLabel">Eccentrotheca</text><text x="88" y="33" fill="lightgrey" class="flag">[-]</text><text x="110" y="33" fill="#ccc" class="taxonLabel">Phoronis</text><text x="88" y="10" fill="lightgrey" class="flag">[-]</text><text x="110" y="10" fill="#ccc" class="taxonLabel">Flustra</text><text x="88" y="21.5" fill="lightgrey" class="flag">[-]</text><text x="110" y="21.5" fill="#ccc" class="taxonLabel">Amathia</text><text x="46.5" y="549.6" fill="#91bfdb" class="flag">[2]</text><text x="68.5" y="549.6" fill="#000" class="taxonLabel">Loxosomella</text><path d="M5,434.9V287.3H25.7M25.7,287.3V28.1H46.5M25.7,287.3V546.6H46.5M5,434.9V582.5H25.7M25.7,582.5V566.7H46.5M46.5,566.7V558.1H67.2M46.5,566.7V575.3H67.2M67.2,575.3V569.6H88M67.2,575.3V581H88M25.7,582.5V598.3H46.5M46.5,598.3V592.5H67.2M46.5,598.3V604H67.2" stroke="#91bfdb"></path><path d="M46.5,28.1V12.7H67.2M67.2,12.7V7H88M67.2,12.7V18.5H88M67.2,43.5V30H88" stroke="lightgrey" class="inapplicable"></path><path d="M46.5,28.1V43.5H67.2M67.2,43.5V57H88M88,57V41.4H108.7M88,57V72.5H108.7M108.7,72.5V52.9H129.4M108.7,72.5V92H129.4M129.4,92V70.1H150.2M150.2,70.1V64.4H170.9M150.2,70.1V75.9H170.9M129.4,92V113.9H150.2M150.2,113.9V87.4H170.9" stroke="darkgrey"></path><path d="M150.2,113.9V140.4H170.9M170.9,140.4V107.5H191.7M191.7,107.5V98.8H212.4M191.7,107.5V116.1H212.4M212.4,116.1V110.3H233.1M212.4,116.1V121.8H233.1M170.9,140.4V173.4H191.7M191.7,173.4V133.3H212.4M191.7,173.4V213.5H212.4M212.4,213.5V144.8H233.1M212.4,213.5V282.2H233.1M233.1,282.2V168.5H253.9M253.9,168.5V156.2H274.6M253.9,168.5V180.8H274.6M274.6,180.8V167.7H295.3M274.6,180.8V193.9H295.3M295.3,193.9V179.2H316.1M295.3,193.9V208.6H316.1M316.1,208.6V190.7H336.8M316.1,208.6V226.6H336.8M336.8,226.6V210.8H357.6M357.6,210.8V202.2H378.3M357.6,210.8V219.4H378.3M378.3,219.4V213.7H399M378.3,219.4V225.1H399M336.8,226.6V242.4H357.6M357.6,242.4V236.6H378.3M357.6,242.4V248.1H378.3M233.1,282.2V395.9H253.9M253.9,395.9V351.2H274.6M274.6,351.2V299.4H295.3M295.3,299.4V259.6H316.1M295.3,299.4V339.2H316.1M316.1,339.2V298.2H336.8M336.8,298.2V271.1H357.6M336.8,298.2V325.4H357.6M357.6,325.4V293.7H378.3M378.3,293.7V282.5H399M378.3,293.7V304.8H399M399,304.8V294H419.8M399,304.8V315.5H419.8M419.8,315.5V305.5H440.5M419.8,315.5V325.6H440.5M440.5,325.6V317H461.3M440.5,325.6V334.2H461.3M461.3,334.2V328.5H482M461.3,334.2V339.9H482M357.6,325.4V357.2H378.3M378.3,357.2V351.4H399M378.3,357.2V362.9H399M316.1,339.2V380.1H336.8M336.8,380.1V374.4H357.6M336.8,380.1V385.9H357.6M274.6,351.2V403.1H295.3M295.3,403.1V397.3H316.1M295.3,403.1V408.8H316.1M253.9,395.9V440.6H274.6M274.6,440.6V426H295.3M295.3,426V420.3H316.1M295.3,426V431.8H316.1M274.6,440.6V455.2H295.3M295.3,455.2V443.3H316.1M295.3,455.2V467.1H316.1M316.1,467.1V454.7H336.8M316.1,467.1V479.5H336.8M336.8,479.5V466.2H357.6M336.8,479.5V492.8H357.6M357.6,492.8V477.7H378.3M357.6,492.8V507.8H378.3M378.3,507.8V494.9H399M399,494.9V489.2H419.8M399,494.9V500.7H419.8M378.3,507.8V520.8H399M399,520.8V512.2H419.8M399,520.8V529.4H419.8M419.8,529.4V523.6H440.5M419.8,529.4V535.1H440.5" stroke="#e2e2a2"></path><text x="7" y="437.9" class="node" fill="#4A6FE3">1</text><text x="27.7" y="290.3" class="node" fill="#4A6FE3">1</text><text x="48.5" y="31.1" class="node" fill="#4A6FE3">1</text><text x="69.2" y="15.7" class="node" fill="#4A6FE3">1</text><text x="69.2" y="46.5" class="node" fill="#4A6FE3">1</text><text x="90" y="60" class="node" fill="#4A6FE3">1</text><text x="110.7" y="75.5" class="node" fill="#E3DCDD">0.48</text><text x="131.4" y="95" class="node" fill="#7388E1">0.89</text><text x="152.2" y="73.1" class="node" fill="#7388E1">0.89</text><text x="152.2" y="116.9" class="node" fill="#4A6FE3">1</text><text x="172.9" y="143.4" class="node" fill="#4A6FE3">1</text><text x="193.7" y="110.5" class="node" fill="#4A6FE3">1</text><text x="214.4" y="119.1" class="node" fill="#4A6FE3">1</text><text x="193.7" y="176.4" class="node" fill="#4A6FE3">1</text><text x="214.4" y="216.5" class="node" fill="#4A6FE3">1</text><text x="235.1" y="285.2" class="node" fill="#4A6FE3">1</text><text x="255.9" y="171.5" class="node" fill="#4A6FE3">1</text><text x="276.6" y="183.8" class="node" fill="#4A6FE3">1</text><text x="297.3" y="196.9" class="node" fill="#4A6FE3">1</text><text x="318.1" y="211.6" class="node" fill="#4A6FE3">1</text><text x="338.8" y="229.6" class="node" fill="#E6B7C0">0.36</text><text x="359.6" y="213.8" class="node" fill="#E3DFE0">0.49</text><text x="380.3" y="222.4" class="node" fill="#4A6FE3">1</text><text x="359.6" y="245.4" class="node" fill="#4A6FE3">1</text><text x="255.9" y="398.9" class="node" fill="#4A6FE3">1</text><text x="276.6" y="354.2" class="node" fill="#6982E1">0.92</text><text x="297.3" y="302.4" class="node" fill="#4A6FE3">1</text><text x="318.1" y="342.2" class="node" fill="#E5D0D3">0.44</text><text x="338.8" y="301.2" class="node" fill="#B1B8E2">0.68</text><text x="359.6" y="328.4" class="node" fill="#8F9DE1">0.8</text><text x="380.3" y="296.7" class="node" fill="#8394E1">0.84</text><text x="401" y="307.8" class="node" fill="#C7CBE3">0.6</text><text x="421.8" y="318.5" class="node" fill="#6D84E1">0.91</text><text x="442.5" y="328.6" class="node" fill="#667FE1">0.93</text><text x="463.3" y="337.2" class="node" fill="#C4C9E3">0.61</text><text x="380.3" y="360.2" class="node" fill="#4A6FE3">1</text><text x="338.8" y="383.1" class="node" fill="#5374E2">0.98</text><text x="297.3" y="406.1" class="node" fill="#4A6FE3">1</text><text x="276.6" y="443.6" class="node" fill="#4A6FE3">1</text><text x="297.3" y="429" class="node" fill="#4A6FE3">1</text><text x="297.3" y="458.2" class="node" fill="#4A6FE3">1</text><text x="318.1" y="470.1" class="node" fill="#4A6FE3">1</text><text x="338.8" y="482.5" class="node" fill="#8091E1">0.85</text><text x="359.6" y="495.8" class="node" fill="#8091E1">0.85</text><text x="380.3" y="510.8" class="node" fill="#8091E1">0.85</text><text x="401" y="497.9" class="node" fill="#E38FA0">0.23</text><text x="401" y="523.8" class="node" fill="#D2D4E3">0.57</text><text x="421.8" y="532.4" class="node" fill="#4A6FE3">1</text><text x="27.7" y="585.5" class="node" fill="#4A6FE3">1</text><text x="48.5" y="569.7" class="node" fill="#4A6FE3">1</text><text x="69.2" y="578.3" class="node" fill="#4A6FE3">1</text><text x="48.5" y="601.3" class="node" fill="#4A6FE3">1</text></svg>
