<svg xmlns="http://www.w3.org/2000/svg" version="1.1" width="682" height="682" class="tree" data-char="208"><text x="678" y="15.4" text-anchor="end" class="stepsLabel">Character adds <tspan class="score">2</tspan> to tree score</text><text x="678" y="27.8" text-anchor="end" class="stepsLabel"><tspan class="score">0</tspan> additional regions</text><text x="678" y="40.2" text-anchor="end" class="stepsLabel">CI = 0.5; Fitch CI = 0.5; Fitch RI = 0.5</text><text x="678" y="65" text-anchor="end" class="stepsLabel"><tspan dy="16" fill="#34caaf">An optimal tree under:</tspan><tspan x="680" style="font-style:italic" class="thisAn" dy="1.2em">Equal weights</tspan><tspan x="680" style="font-style:italic" class="notThisAn" dy="1.2em">Implied weights, k = 2</tspan><tspan x="680" style="font-style:italic" class="notThisAn" dy="1.2em">IW, k = 3</tspan><tspan x="680" style="font-style:italic" class="notThisAn" dy="1.2em">IW, k = 4.5</tspan><tspan x="680" style="font-style:italic" class="notThisAn" dy="1.2em">IW, k = 7</tspan><tspan x="680" style="font-style:italic" class="notThisAn" dy="1.2em">IW, k = 10.5</tspan><tspan x="680" style="font-style:italic" class="notThisAn" dy="1.2em">IW, k = 16</tspan><tspan x="680" style="font-style:italic" class="notThisAn" dy="1.2em">IW, k = 24</tspan></text><text x="73.1" y="664.4" fill="#91bfdb" class="flag">[2]</text><text x="95.1" y="664.4" fill="#000" class="taxonLabel">Serpula</text><text x="73.1" y="677" fill="#91bfdb" class="flag">[2]</text><text x="95.1" y="677" fill="#000" class="taxonLabel">Sipunculus</text><text x="95.9" y="639.2" fill="#e2e2a2" class="flag">[1]</text><text x="117.9" y="639.2" fill="#000" class="taxonLabel">Dentalium</text><text x="95.9" y="651.8" fill="#e2e2a2" class="flag">[1]</text><text x="117.9" y="651.8" fill="#000" class="taxonLabel">Tonicella</text><text x="73.1" y="626.7" fill="grey" class="flag">[?]</text><text x="95.1" y="626.7" fill="#999" class="taxonLabel">Wiwaxia corrugata</text><text x="391.1" y="601.5" fill="grey" class="flag">[?]</text><text x="413.1" y="601.5" fill="#999" class="taxonLabel">Antigonambonites planus</text><text x="391.1" y="614.1" fill="grey" class="flag">[?]</text><text x="413.1" y="614.1" fill="#999" class="taxonLabel">Coolinia pecten</text><text x="482" y="576.3" fill="grey" class="flag">[?]</text><text x="504" y="576.3" fill="#999" class="taxonLabel">Alisina</text><text x="482" y="588.9" fill="grey" class="flag">[?]</text><text x="504" y="588.9" fill="#999" class="taxonLabel">Terebratulina</text><text x="459.3" y="563.7" fill="grey" class="flag">[?]</text><text x="481.3" y="563.7" fill="#999" class="taxonLabel">Orthis</text><text x="436.6" y="551.2" fill="grey" class="flag">[?]</text><text x="458.6" y="551.2" fill="#999" class="taxonLabel">Glyptoria</text><text x="413.9" y="538.6" fill="grey" class="flag">[?]</text><text x="435.9" y="538.6" fill="#999" class="taxonLabel">Nisusia sulcata</text><text x="391.1" y="526" fill="grey" class="flag">[?]</text><text x="413.1" y="526" fill="#999" class="taxonLabel">Kutorgina chengjiangensis</text><text x="345.7" y="513.4" fill="grey" class="flag">[?]</text><text x="367.7" y="513.4" fill="#999" class="taxonLabel">Longtancunella chengjiangensis</text><text x="368.4" y="488.2" fill="grey" class="flag">[?]</text><text x="390.4" y="488.2" fill="#999" class="taxonLabel">Tomteluva perturbata</text><text x="368.4" y="500.8" fill="grey" class="flag">[?]</text><text x="390.4" y="500.8" fill="#999" class="taxonLabel">Yuganotheca elegans</text><text x="345.7" y="475.6" fill="grey" class="flag">[?]</text><text x="367.7" y="475.6" fill="#999" class="taxonLabel">Salanygolina</text><text x="323" y="450.5" fill="grey" class="flag">[?]</text><text x="345" y="450.5" fill="#999" class="taxonLabel">Askepasma toddense</text><text x="323" y="463.1" fill="grey" class="flag">[?]</text><text x="345" y="463.1" fill="#999" class="taxonLabel">Micromitra</text><text x="391.1" y="425.3" fill="grey" class="flag">[?]</text><text x="413.1" y="425.3" fill="#999" class="taxonLabel">Craniops</text><text x="391.1" y="437.9" fill="#91bfdb" class="flag">[2]</text><text x="413.1" y="437.9" fill="#000" class="taxonLabel">Novocrania</text><text x="368.4" y="412.7" fill="grey" class="flag">[?]</text><text x="390.4" y="412.7" fill="#999" class="taxonLabel">Ussunia</text><text x="345.7" y="400.1" fill="grey" class="flag">[?]</text><text x="367.7" y="400.1" fill="#999" class="taxonLabel">Gasconsia</text><text x="323" y="387.5" fill="grey" class="flag">[?]</text><text x="345" y="387.5" fill="#999" class="taxonLabel">Heliomedusa orienta</text><text x="436.6" y="362.4" fill="grey" class="flag">[?]</text><text x="458.6" y="362.4" fill="#999" class="taxonLabel">Siphonobolus priscus</text><text x="436.6" y="375" fill="grey" class="flag">[?]</text><text x="458.6" y="375" fill="#999" class="taxonLabel">Acanthotretella spinosa</text><text x="413.9" y="349.8" fill="grey" class="flag">[?]</text><text x="435.9" y="349.8" fill="#999" class="taxonLabel">Lingulosacculus</text><text x="482" y="324.6" fill="grey" class="flag">[?]</text><text x="504" y="324.6" fill="#999" class="taxonLabel">Eoobolus</text><text x="482" y="337.2" fill="grey" class="flag">[?]</text><text x="504" y="337.2" fill="#999" class="taxonLabel">Mummpikia nuda</text><text x="459.3" y="312" fill="grey" class="flag">[?]</text><text x="481.3" y="312" fill="#999" class="taxonLabel">Lingula</text><text x="436.6" y="299.5" fill="grey" class="flag">[?]</text><text x="458.6" y="299.5" fill="#999" class="taxonLabel">Botsfordia</text><text x="413.9" y="286.9" fill="grey" class="flag">[?]</text><text x="435.9" y="286.9" fill="#999" class="taxonLabel">Lingulellotreta malongensis</text><text x="368.4" y="274.3" fill="grey" class="flag">[?]</text><text x="390.4" y="274.3" fill="#999" class="taxonLabel">Clupeafumosus socialis</text><text x="345.7" y="261.7" fill="grey" class="flag">[?]</text><text x="367.7" y="261.7" fill="#999" class="taxonLabel">Pelagodiscus atlanticus</text><text x="323" y="249.1" fill="grey" class="flag">[?]</text><text x="345" y="249.1" fill="#999" class="taxonLabel">Mickwitzia muralensis</text><text x="254.9" y="236.5" fill="grey" class="flag">[?]</text><text x="276.9" y="236.5" fill="#999" class="taxonLabel">Micrina</text><text x="345.7" y="211.4" fill="grey" class="flag">[?]</text><text x="367.7" y="211.4" fill="#999" class="taxonLabel">Pauxillites</text><text x="345.7" y="223.9" fill="grey" class="flag">[?]</text><text x="367.7" y="223.9" fill="#999" class="taxonLabel">Maxilites</text><text x="323" y="198.8" fill="grey" class="flag">[?]</text><text x="345" y="198.8" fill="#999" class="taxonLabel">Haplophrentis carinatus</text><text x="300.3" y="186.2" fill="grey" class="flag">[?]</text><text x="322.3" y="186.2" fill="#999" class="taxonLabel">Paramicrocornus</text><text x="323" y="161" fill="grey" class="flag">[?]</text><text x="345" y="161" fill="#999" class="taxonLabel">Conotheca</text><text x="323" y="173.6" fill="grey" class="flag">[?]</text><text x="345" y="173.6" fill="#999" class="taxonLabel">Bactrotheca</text><text x="300.3" y="148.4" fill="grey" class="flag">[?]</text><text x="322.3" y="148.4" fill="#999" class="taxonLabel">Cupitheca holocyclata</text><text x="254.9" y="135.8" fill="grey" class="flag">[?]</text><text x="276.9" y="135.8" fill="#999" class="taxonLabel">Pedunculotheca diania</text><text x="209.4" y="123.3" fill="grey" class="flag">[?]</text><text x="231.4" y="123.3" fill="#999" class="taxonLabel">Paterimitra</text><text x="186.7" y="110.7" fill="grey" class="flag">[?]</text><text x="208.7" y="110.7" fill="#999" class="taxonLabel">Halkieria evangelista</text><text x="164" y="98.1" fill="grey" class="flag">[?]</text><text x="186" y="98.1" fill="#999" class="taxonLabel">Dailyatia</text><text x="164" y="72.9" fill="grey" class="flag">[?]</text><text x="186" y="72.9" fill="#999" class="taxonLabel">Cotyledion tylodes</text><text x="164" y="85.5" fill="grey" class="flag">[?]</text><text x="186" y="85.5" fill="#999" class="taxonLabel">Eccentrotheca</text><text x="118.6" y="60.3" fill="#91bfdb" class="flag">[2]</text><text x="140.6" y="60.3" fill="#000" class="taxonLabel">Phoronis</text><text x="95.9" y="47.8" fill="grey" class="flag">[?]</text><text x="117.9" y="47.8" fill="#999" class="taxonLabel">Namacalathus</text><text x="95.9" y="22.6" fill="#91bfdb" class="flag">[2]</text><text x="117.9" y="22.6" fill="#000" class="taxonLabel">Amathia</text><text x="95.9" y="35.2" fill="#91bfdb" class="flag">[2]</text><text x="117.9" y="35.2" fill="#000" class="taxonLabel">Flustra</text><text x="50.4" y="10" fill="#e2e2a2" class="flag">[1]</text><text x="72.4" y="10" fill="#000" class="taxonLabel">Loxosomella</text><path d="M5,337.8V25.3H27.7M5,337.8V650.4H27.7M27.7,650.4V633.1H50.4M50.4,633.1V623.7H73.1" stroke="darkgrey"></path><path d="M27.7,25.3V7H50.4M50.4,633.1V642.5H73.1M73.1,642.5V636.2H95.9M73.1,642.5V648.8H95.9" stroke="#e2e2a2"></path><path d="M27.7,25.3V43.5H50.4M50.4,43.5V25.9H73.1M73.1,25.9V19.6H95.9M73.1,25.9V32.2H95.9M50.4,43.5V61.1H73.1M73.1,61.1V44.8H95.9M73.1,61.1V77.5H95.9M95.9,77.5V57.3H118.6M95.9,77.5V97.7H118.6M118.6,97.7V76.2H141.3M141.3,76.2V69.9H164M141.3,76.2V82.5H164M118.6,97.7V119.1H141.3M141.3,119.1V95.1H164M141.3,119.1V143.1H164M164,143.1V107.7H186.7M164,143.1V178.5H186.7M186.7,178.5V120.3H209.4M186.7,178.5V236.7H209.4M209.4,236.7V153.7H232.1M232.1,153.7V132.8H254.9M232.1,153.7V174.5H254.9M254.9,174.5V154.9H277.6M277.6,154.9V145.4H300.3M277.6,154.9V164.3H300.3M300.3,164.3V158H323M300.3,164.3V170.6H323M254.9,174.5V194.2H277.6M277.6,194.2V183.2H300.3M277.6,194.2V205.2H300.3M300.3,205.2V195.8H323M300.3,205.2V214.7H323M323,214.7V208.4H345.7M323,214.7V220.9H345.7M209.4,236.7V319.7H232.1M232.1,319.7V233.5H254.9M232.1,319.7V405.9H254.9M254.9,405.9V329.4H277.6M277.6,329.4V262.4H300.3M300.3,262.4V246.1H323M300.3,262.4V278.7H323M323,278.7V258.7H345.7M323,278.7V298.6H345.7M345.7,298.6V271.3H368.4M345.7,298.6V325.9H368.4M368.4,325.9V295.7H391.1M391.1,295.7V283.9H413.9M391.1,295.7V307.5H413.9M413.9,307.5V296.5H436.6M413.9,307.5V318.5H436.6M436.6,318.5V309H459.3M436.6,318.5V327.9H459.3M459.3,327.9V321.6H482M459.3,327.9V334.2H482M368.4,325.9V356.2H391.1M391.1,356.2V346.8H413.9M391.1,356.2V365.7H413.9M413.9,365.7V359.4H436.6M413.9,365.7V372H436.6M277.6,329.4V396.3H300.3M300.3,396.3V384.5H323M300.3,396.3V408.1H323M323,408.1V397.1H345.7M323,408.1V419.2H345.7M345.7,419.2V409.7H368.4M345.7,419.2V428.6H368.4M368.4,428.6V422.3H391.1M368.4,428.6V434.9H391.1M254.9,405.9V482.4H277.6M277.6,482.4V453.8H300.3M300.3,453.8V447.5H323M300.3,453.8V460.1H323M277.6,482.4V511.1H300.3M300.3,511.1V482.1H323M323,482.1V472.6H345.7M323,482.1V491.5H345.7M345.7,491.5V485.2H368.4M345.7,491.5V497.8H368.4M300.3,511.1V540.2H323M323,540.2V510.4H345.7M323,540.2V570H345.7M345.7,570V535.2H368.4M368.4,535.2V523H391.1M368.4,535.2V547.4H391.1M391.1,547.4V535.6H413.9M391.1,547.4V559.2H413.9M413.9,559.2V548.2H436.6M413.9,559.2V570.2H436.6M436.6,570.2V560.7H459.3M436.6,570.2V579.6H459.3M459.3,579.6V573.3H482M459.3,579.6V585.9H482M345.7,570V604.8H368.4M368.4,604.8V598.5H391.1M368.4,604.8V611.1H391.1M27.7,650.4V667.7H50.4M50.4,667.7V661.4H73.1M50.4,667.7V674H73.1" stroke="#91bfdb"></path><text x="7" y="340.8" class="node" fill="#4A6FE3">1</text><text x="29.7" y="28.3" class="node" fill="#4A6FE3">1</text><text x="52.4" y="46.5" class="node" fill="#4A6FE3">1</text><text x="75.1" y="28.9" class="node" fill="#4A6FE3">1</text><text x="75.1" y="64.1" class="node" fill="#4A6FE3">1</text><text x="97.9" y="80.5" class="node" fill="#E6AEB8">0.33</text><text x="120.6" y="100.7" class="node" fill="#7A8DE1">0.87</text><text x="143.3" y="79.2" class="node" fill="#E5A5B1">0.3</text><text x="143.3" y="122.1" class="node" fill="#7A8DE1">0.87</text><text x="166" y="146.1" class="node" fill="#7A8DE1">0.87</text><text x="188.7" y="181.5" class="node" fill="#7A8DE1">0.87</text><text x="211.4" y="239.7" class="node" fill="#7A8DE1">0.87</text><text x="234.1" y="156.7" class="node" fill="#7A8DE1">0.87</text><text x="256.9" y="177.5" class="node" fill="#7A8DE1">0.87</text><text x="279.6" y="157.9" class="node" fill="#E6C1C7">0.39</text><text x="302.3" y="167.3" class="node" fill="#6982E1">0.92</text><text x="279.6" y="197.2" class="node" fill="#4A6FE3">1</text><text x="302.3" y="208.2" class="node" fill="#4A6FE3">1</text><text x="325" y="217.7" class="node" fill="#4A6FE3">1</text><text x="234.1" y="322.7" class="node" fill="#4A6FE3">1</text><text x="256.9" y="408.9" class="node" fill="#A8B1E2">0.71</text><text x="279.6" y="332.4" class="node" fill="#A8B1E2">0.71</text><text x="302.3" y="265.4" class="node" fill="#8394E1">0.84</text><text x="325" y="281.7" class="node" fill="#97A4E2">0.77</text><text x="347.7" y="301.6" class="node" fill="#A8B1E2">0.71</text><text x="370.4" y="328.9" class="node" fill="#E4D3D6">0.45</text><text x="393.1" y="298.7" class="node" fill="#E495A5">0.25</text><text x="415.9" y="310.5" class="node" fill="#E6BDC5">0.38</text><text x="438.6" y="321.5" class="node" fill="#E6BDC5">0.38</text><text x="461.3" y="330.9" class="node" fill="#E6B4BD">0.35</text><text x="393.1" y="359.2" class="node" fill="#E59FAC">0.29</text><text x="415.9" y="368.7" class="node" fill="#4A6FE3">1</text><text x="302.3" y="399.3" class="node" fill="#8394E1">0.84</text><text x="325" y="411.1" class="node" fill="#BFC4E3">0.63</text><text x="347.7" y="422.2" class="node" fill="#4A6FE3">1</text><text x="370.4" y="431.6" class="node" fill="#4A6FE3">1</text><text x="279.6" y="485.4" class="node" fill="#A8B1E2">0.71</text><text x="302.3" y="456.8" class="node" fill="#7D8FE1">0.86</text><text x="302.3" y="514.1" class="node" fill="#8394E1">0.84</text><text x="325" y="485.1" class="node" fill="#E59FAC">0.28</text><text x="347.7" y="494.5" class="node" fill="#E4D6D8">0.46</text><text x="325" y="543.2" class="node" fill="#E4D9DB">0.47</text><text x="347.7" y="573" class="node" fill="#E4D9DB">0.47</text><text x="370.4" y="538.2" class="node" fill="#E4D9DB">0.47</text><text x="393.1" y="550.4" class="node" fill="#E2899B">0.21</text><text x="415.9" y="562.2" class="node" fill="#A8B1E2">0.71</text><text x="438.6" y="573.2" class="node" fill="#4A6FE3">1</text><text x="461.3" y="582.6" class="node" fill="#E38FA0">0.23</text><text x="370.4" y="607.8" class="node" fill="#4A6FE3">1</text><text x="29.7" y="653.4" class="node" fill="#4A6FE3">1</text><text x="52.4" y="636.1" class="node" fill="#4A6FE3">1</text><text x="75.1" y="645.5" class="node" fill="#4A6FE3">1</text><text x="52.4" y="670.7" class="node" fill="#4A6FE3">1</text></svg>
