<svg xmlns="http://www.w3.org/2000/svg" version="1.1" width="682" height="612" class="tree" data-char="99"><text x="678" y="15.7" text-anchor="end" class="stepsLabel">Character adds <tspan class="score">5</tspan> to tree score</text><text x="678" y="28.4" text-anchor="end" class="stepsLabel"><tspan class="score">1</tspan> additional region</text><text x="678" y="41.1" text-anchor="end" class="stepsLabel">CI = 0.4; Fitch CI = 0.5; Fitch RI = 0.71</text><text x="678" y="66.5" text-anchor="end" class="stepsLabel"><tspan dy="16">An optimal tree under:</tspan><tspan x="680" style="font-style:italic" class="thisAn" dy="1.2em">Equal weights</tspan><tspan x="680" style="font-style:italic" class="notThisAn" dy="1.2em">Implied weights, k = 2</tspan><tspan x="680" style="font-style:italic" class="notThisAn" dy="1.2em">IW, k = 3</tspan><tspan x="680" style="font-style:italic" class="notThisAn" dy="1.2em">IW, k = 4.5</tspan><tspan x="680" style="font-style:italic" class="notThisAn" dy="1.2em">IW, k = 7</tspan><tspan x="680" style="font-style:italic" class="notThisAn" dy="1.2em">IW, k = 10.5</tspan><tspan x="680" style="font-style:italic" class="notThisAn" dy="1.2em">IW, k = 16</tspan><tspan x="680" style="font-style:italic" class="notThisAn" dy="1.2em">IW, k = 24</tspan></text><text x="70" y="594" fill="lightgrey" class="flag">[-]</text><text x="92" y="594" fill="#ccc" class="taxonLabel">Sipunculus</text><text x="70" y="607" fill="lightgrey" class="flag">[-]</text><text x="92" y="607" fill="#ccc" class="taxonLabel">Serpula</text><text x="91.7" y="568.1" fill="lightgrey" class="flag">[-]</text><text x="113.7" y="568.1" fill="#ccc" class="taxonLabel">Dentalium</text><text x="91.7" y="581" fill="#abd9e9" class="flag">[2]</text><text x="113.7" y="581" fill="#000" class="taxonLabel">Tonicella</text><text x="70" y="555.1" fill="lightgrey" class="flag">[-]</text><text x="92" y="555.1" fill="#ccc" class="taxonLabel">Wiwaxia corrugata</text><text x="308.5" y="516.2" fill="#abd9e9" class="flag">[2]</text><text x="330.5" y="516.2" fill="#000" class="taxonLabel">Micromitra</text><text x="308.5" y="529.1" fill="#abd9e9" class="flag">[2]</text><text x="330.5" y="529.1" fill="#000" class="taxonLabel">Askepasma toddense</text><text x="373.6" y="490.2" fill="grey" class="flag">[?]</text><text x="395.6" y="490.2" fill="#999" class="taxonLabel">Yuganotheca elegans</text><text x="373.6" y="503.2" fill="#fdae61" class="flag">[1]</text><text x="395.6" y="503.2" fill="#000" class="taxonLabel">Tomteluva perturbata</text><text x="351.9" y="477.2" fill="#fdae61" class="flag">[1]</text><text x="373.9" y="477.2" fill="#000" class="taxonLabel">Salanygolina</text><text x="395.3" y="451.3" fill="#abd9e9" class="flag">[2]</text><text x="417.3" y="451.3" fill="#000" class="taxonLabel">Coolinia pecten</text><text x="395.3" y="464.2" fill="#abd9e9" class="flag">[2]</text><text x="417.3" y="464.2" fill="#000" class="taxonLabel">Antigonambonites planus</text><text x="482" y="425.3" fill="#abd9e9" class="flag">[2]</text><text x="504" y="425.3" fill="#000" class="taxonLabel">Alisina</text><text x="482" y="438.3" fill="#abd9e9" class="flag">[2]</text><text x="504" y="438.3" fill="#000" class="taxonLabel">Terebratulina</text><text x="460.3" y="412.3" fill="#abd9e9" class="flag">[2]</text><text x="482.3" y="412.3" fill="#000" class="taxonLabel">Orthis</text><text x="438.6" y="399.3" fill="#abd9e9" class="flag">[2]</text><text x="460.6" y="399.3" fill="#000" class="taxonLabel">Glyptoria</text><text x="417" y="386.4" fill="#abd9e9" class="flag">[2]</text><text x="439" y="386.4" fill="#000" class="taxonLabel">Nisusia sulcata</text><text x="395.3" y="373.4" fill="grey" class="flag">[?]</text><text x="417.3" y="373.4" fill="#999" class="taxonLabel">Kutorgina chengjiangensis</text><text x="351.9" y="360.4" fill="grey" class="flag">[?]</text><text x="373.9" y="360.4" fill="#999" class="taxonLabel">Longtancunella chengjiangensis</text><text x="308.5" y="347.4" fill="#abd9e9" class="flag">[2]</text><text x="330.5" y="347.4" fill="#000" class="taxonLabel">Gasconsia</text><text x="460.3" y="321.5" fill="#2c7bb6" class="flag">[3]</text><text x="482.3" y="321.5" fill="#000" class="taxonLabel">Siphonobolus priscus</text><text x="460.3" y="334.5" fill="#2c7bb6" class="flag">[3]</text><text x="482.3" y="334.5" fill="#000" class="taxonLabel">Acanthotretella spinosa</text><text x="438.6" y="308.5" fill="#2c7bb6" class="flag">[3]</text><text x="460.6" y="308.5" fill="#000" class="taxonLabel">Lingulosacculus</text><text x="417" y="295.5" fill="#2c7bb6" class="flag">[3]</text><text x="439" y="295.5" fill="#000" class="taxonLabel">Clupeafumosus socialis</text><text x="395.3" y="282.5" fill="#2c7bb6" class="flag">[3]</text><text x="417.3" y="282.5" fill="#000" class="taxonLabel">Lingulellotreta malongensis</text><text x="373.6" y="269.6" fill="#abd9e9" class="flag">[2]</text><text x="395.6" y="269.6" fill="#000" class="taxonLabel">Botsfordia</text><text x="351.9" y="256.6" fill="#fdae61" class="flag">[1]</text><text x="373.9" y="256.6" fill="#000" class="taxonLabel">Mummpikia nuda</text><text x="330.2" y="243.6" fill="#abd9e9" class="flag">[2]</text><text x="352.2" y="243.6" fill="#000" class="taxonLabel">Eoobolus</text><text x="308.5" y="230.6" fill="lightgrey" class="flag">[-]</text><text x="330.5" y="230.6" fill="#ccc" class="taxonLabel">Lingula</text><text x="330.2" y="204.7" fill="#2c7bb6" class="flag">[3]</text><text x="352.2" y="204.7" fill="#000" class="taxonLabel">Pelagodiscus atlanticus</text><text x="330.2" y="217.7" fill="grey" class="flag">[23]</text><text x="352.2" y="217.7" fill="#999" class="taxonLabel">Mickwitzia muralensis</text><text x="308.5" y="191.7" fill="#abd9e9" class="flag">[2]</text><text x="330.5" y="191.7" fill="#000" class="taxonLabel">Micrina</text><text x="286.9" y="165.7" fill="lightgrey" class="flag">[-]</text><text x="308.9" y="165.7" fill="#ccc" class="taxonLabel">Pedunculotheca diania</text><text x="286.9" y="178.7" fill="lightgrey" class="flag">[-]</text><text x="308.9" y="178.7" fill="#ccc" class="taxonLabel">Haplophrentis carinatus</text><text x="265.2" y="152.8" fill="#abd9e9" class="flag">[2]</text><text x="287.2" y="152.8" fill="#000" class="taxonLabel">Paterimitra</text><text x="221.8" y="139.8" fill="lightgrey" class="flag">[-]</text><text x="243.8" y="139.8" fill="#ccc" class="taxonLabel">Heliomedusa orienta</text><text x="243.5" y="113.8" fill="lightgrey" class="flag">[-]</text><text x="265.5" y="113.8" fill="#ccc" class="taxonLabel">Craniops</text><text x="243.5" y="126.8" fill="lightgrey" class="flag">[-]</text><text x="265.5" y="126.8" fill="#ccc" class="taxonLabel">Novocrania</text><text x="221.8" y="100.8" fill="lightgrey" class="flag">[-]</text><text x="243.8" y="100.8" fill="#ccc" class="taxonLabel">Ussunia</text><text x="178.5" y="87.9" fill="lightgrey" class="flag">[-]</text><text x="200.5" y="87.9" fill="#ccc" class="taxonLabel">Halkieria evangelista</text><text x="178.5" y="61.9" fill="lightgrey" class="flag">[-]</text><text x="200.5" y="61.9" fill="#ccc" class="taxonLabel">Eccentrotheca</text><text x="178.5" y="74.9" fill="lightgrey" class="flag">[-]</text><text x="200.5" y="74.9" fill="#ccc" class="taxonLabel">Cotyledion tylodes</text><text x="135.1" y="48.9" fill="lightgrey" class="flag">[-]</text><text x="157.1" y="48.9" fill="#ccc" class="taxonLabel">Dailyatia</text><text x="113.4" y="36" fill="lightgrey" class="flag">[-]</text><text x="135.4" y="36" fill="#ccc" class="taxonLabel">Phoronis</text><text x="91.7" y="23" fill="lightgrey" class="flag">[-]</text><text x="113.7" y="23" fill="#ccc" class="taxonLabel">Namacalathus</text><text x="70" y="10" fill="lightgrey" class="flag">[-]</text><text x="92" y="10" fill="#ccc" class="taxonLabel">Flustra</text><text x="48.4" y="542.1" fill="lightgrey" class="flag">[-]</text><text x="70.4" y="542.1" fill="#ccc" class="taxonLabel">Loxosomella</text><path d="M5,429.9V280.2H26.7M26.7,280.2V21.2H48.4M48.4,21.2V7H70M48.4,21.2V35.4H70M70,35.4V20H91.7M70,35.4V50.8H91.7M91.7,50.8V33H113.4M91.7,50.8V68.7H113.4M113.4,68.7V45.9H135.1M113.4,68.7V91.4H135.1M135.1,91.4V65.4H156.8M156.8,65.4V58.9H178.5M156.8,65.4V71.9H178.5M135.1,91.4V117.5H156.8M156.8,117.5V84.9H178.5M156.8,117.5V150.1H178.5M178.5,150.1V107.6H200.1M200.1,107.6V97.8H221.8M200.1,107.6V117.3H221.8M221.8,117.3V110.8H243.5M221.8,117.3V123.8H243.5M178.5,150.1V192.6H200.1M200.1,192.6V136.8H221.8M243.5,159.5V169.2H265.2M265.2,169.2V162.7H286.9M265.2,169.2V175.7H286.9M286.9,240.6V227.6H308.5M26.7,280.2V539.1H48.4M5,429.9V579.7H26.7M26.7,579.7V561.8H48.4M48.4,561.8V552.1H70M48.4,561.8V571.6H70M70,571.6V565.1H91.7M26.7,579.7V597.5H48.4M48.4,597.5V591H70M48.4,597.5V604H70" stroke="lightgrey" class="inapplicable"></path><path d="M200.1,192.6V248.4H221.8M221.8,248.4V159.5H243.5M243.5,159.5V149.8H265.2M221.8,248.4V337.2H243.5M243.5,337.2V219.5H265.2M265.2,219.5V198.4H286.9M286.9,198.4V188.7H308.5M286.9,198.4V208.2H308.5M265.2,219.5V240.6H286.9M286.9,240.6V253.5H308.5M308.5,253.5V240.6H330.2M308.5,253.5V266.4H330.2M330.2,266.4V279.1H351.9M351.9,279.1V266.6H373.6M243.5,337.2V454.9H265.2M265.2,454.9V390.2H286.9M286.9,390.2V344.4H308.5M286.9,390.2V436H308.5M308.5,436V388.1H330.2M330.2,388.1V357.4H351.9M330.2,388.1V418.9H351.9M351.9,418.9V383H373.6M373.6,383V370.4H395.3M373.6,383V395.5H395.3M395.3,395.5V383.4H417M395.3,395.5V407.7H417M417,407.7V396.3H438.6M417,407.7V419.1H438.6M438.6,419.1V409.3H460.3M438.6,419.1V428.8H460.3M460.3,428.8V422.3H482M460.3,428.8V435.3H482M351.9,418.9V454.8H373.6M373.6,454.8V448.3H395.3M373.6,454.8V461.2H395.3M265.2,454.9V519.6H286.9M286.9,519.6V513.2H308.5M286.9,519.6V526.1H308.5M70,571.6V578H91.7" stroke="#abd9e9"></path><path d="M308.5,208.2V201.7H330.2M351.9,279.1V291.7H373.6M373.6,291.7V279.5H395.3M373.6,291.7V303.9H395.3M395.3,303.9V292.5H417M395.3,303.9V315.2H417M417,315.2V305.5H438.6M417,315.2V325H438.6M438.6,325V318.5H460.3M438.6,325V331.5H460.3" stroke="#2c7bb6"></path><path d="M308.5,208.2V214.7H330.2" stroke="darkgrey"></path><path d="M330.2,266.4V253.6H351.9M308.5,436V484H330.2M330.2,484V474.2H351.9M330.2,484V493.7H351.9M351.9,493.7V487.2H373.6M351.9,493.7V500.2H373.6" stroke="#fdae61"></path><text x="7" y="432.9" class="node" fill="#4A6FE3">1</text><text x="28.7" y="283.2" class="node" fill="#4A6FE3">1</text><text x="50.4" y="24.2" class="node" fill="#6982E1">0.92</text><text x="72" y="38.4" class="node" fill="#6982E1">0.92</text><text x="93.7" y="53.8" class="node" fill="#E6ABB6">0.32</text><text x="115.4" y="71.7" class="node" fill="#6982E1">0.92</text><text x="137.1" y="94.4" class="node" fill="#D75376">0.05</text><text x="158.8" y="68.4" class="node" fill="#E49CAA">0.27</text><text x="158.8" y="120.5" class="node" fill="#E3DFE0">0.49</text><text x="180.5" y="153.1" class="node" fill="#4A6FE3">1</text><text x="202.1" y="110.6" class="node" fill="#627DE1">0.94</text><text x="223.8" y="120.3" class="node" fill="#4A6FE3">1</text><text x="202.1" y="195.6" class="node" fill="#E3DFE0">0.49</text><text x="223.8" y="251.4" class="node" fill="#E3DFE0">0.49</text><text x="245.5" y="162.5" class="node" fill="#E28699">0.2</text><text x="267.2" y="172.2" class="node" fill="#4A6FE3">1</text><text x="245.5" y="340.2" class="node" fill="#E3DFE0">0.49</text><text x="267.2" y="222.5" class="node" fill="#E3DFE0">0.49</text><text x="288.9" y="201.4" class="node" fill="#E3DFE0">0.49</text><text x="310.5" y="211.2" class="node" fill="#4A6FE3">1</text><text x="288.9" y="243.6" class="node" fill="#4A6FE3">1</text><text x="310.5" y="256.5" class="node" fill="#C1C6E3">0.62</text><text x="332.2" y="269.4" class="node" fill="#E3DFE0">0.49</text><text x="353.9" y="282.1" class="node" fill="#E3DFE0">0.49</text><text x="375.6" y="294.7" class="node" fill="#E3DFE0">0.49</text><text x="397.3" y="306.9" class="node" fill="#8F9DE1">0.8</text><text x="419" y="318.2" class="node" fill="#E495A5">0.25</text><text x="440.6" y="328" class="node" fill="#4A6FE3">1</text><text x="267.2" y="457.9" class="node" fill="#E3DFE0">0.49</text><text x="288.9" y="393.2" class="node" fill="#E07C92">0.17</text><text x="310.5" y="439" class="node" fill="#4A6FE3">1</text><text x="332.2" y="391.1" class="node" fill="#8394E1">0.84</text><text x="353.9" y="421.9" class="node" fill="#DC6884">0.11</text><text x="375.6" y="386" class="node" fill="#DC6884">0.11</text><text x="397.3" y="398.5" class="node" fill="#DC6884">0.11</text><text x="419" y="410.7" class="node" fill="#DC6884">0.11</text><text x="440.6" y="422.1" class="node" fill="#4A6FE3">1</text><text x="462.3" y="431.8" class="node" fill="#D95A7A">0.07</text><text x="375.6" y="457.8" class="node" fill="#4A6FE3">1</text><text x="332.2" y="487" class="node" fill="#929FE1">0.79</text><text x="353.9" y="496.7" class="node" fill="#7D8FE1">0.86</text><text x="288.9" y="522.6" class="node" fill="#B9BFE3">0.65</text><text x="28.7" y="582.7" class="node" fill="#4A6FE3">1</text><text x="50.4" y="564.8" class="node" fill="#4A6FE3">1</text><text x="72" y="574.6" class="node" fill="#8696E1">0.83</text><text x="50.4" y="600.5" class="node" fill="#4A6FE3">1</text></svg>
