<svg xmlns="http://www.w3.org/2000/svg" version="1.1" width="682" height="555" class="tree" data-char="48">
 <text x="678" y="14.7" text-anchor="end" class="stepsLabel">Character adds <tspan class="score">3</tspan> to tree score</text>
 <text x="678" y="26.4" text-anchor="end" class="stepsLabel"><tspan class="score">0</tspan> additional regions</text>
 <text x="678" y="38.1" text-anchor="end" class="stepsLabel">CI = 0.33; Fitch CI = 0.33; Fitch RI = 0.67</text>
 <text x="678" y="61.5" text-anchor="end" class="stepsLabel"><tspan dy="16">An optimal tree under:</tspan><tspan x="680" style="font-style:italic" class="thisAn" dy="1.2em">Equal weights</tspan><tspan x="680" style="font-style:italic" class="notThisAn" dy="1.2em">Implied weights, k = 2</tspan><tspan x="680" style="font-style:italic" class="notThisAn" dy="1.2em">IW, k = 3</tspan><tspan x="680" style="font-style:italic" class="notThisAn" dy="1.2em">IW, k = 4.5</tspan><tspan x="680" style="font-style:italic" class="notThisAn" dy="1.2em">IW, k = 7</tspan></text>
 <text x="105.4" y="538" fill="#fc8d59" class="flag">[0]</text>
 <text x="127.4" y="538" class="taxonLabel">Wiwaxia corrugata</text>
 <text x="105.4" y="550" fill="#fc8d59" class="flag">[0]</text>
 <text x="127.4" y="550" class="taxonLabel">Chiton</text>
 <text x="80.3" y="526" fill="#fc8d59" class="flag">[0]</text>
 <text x="102.3" y="526" class="taxonLabel">Dentalium</text>
 <text x="80.3" y="502" fill="#fc8d59" class="flag">[0]</text>
 <text x="102.3" y="502" class="taxonLabel">Serpula</text>
 <text x="80.3" y="514" fill="#fc8d59" class="flag">[0]</text>
 <text x="102.3" y="514" class="taxonLabel">Sipunculus</text>
 <text x="155.6" y="442" fill="#fc8d59" class="flag">[0]</text>
 <text x="177.6" y="442" class="taxonLabel">Cotyledion tylodes</text>
 <text x="155.6" y="454" fill="#fc8d59" class="flag">[0]</text>
 <text x="177.6" y="454" class="taxonLabel">Eccentrotheca</text>
 <text x="431.8" y="418" fill="#fc8d59" class="flag">[0]</text>
 <text x="453.8" y="418" class="taxonLabel">Acanthotretella spinosa</text>
 <text x="431.8" y="430" fill="#fc8d59" class="flag">[0]</text>
 <text x="453.8" y="430" class="taxonLabel">Siphonobolus priscus</text>
 <text x="431.8" y="394" fill="#fc8d59" class="flag">[0]</text>
 <text x="453.8" y="394" class="taxonLabel">Clupeafumosus socialis</text>
 <text x="431.8" y="406" fill="#fc8d59" class="flag">[0]</text>
 <text x="453.8" y="406" class="taxonLabel">Lingulosacculus</text>
 <text x="381.6" y="382" fill="#fc8d59" class="flag">[0]</text>
 <text x="403.6" y="382" class="taxonLabel">Lingulellotreta malongensis</text>
 <text x="356.5" y="370" fill="#fc8d59" class="flag">[0]</text>
 <text x="378.5" y="370" class="taxonLabel">Botsfordia</text>
 <text x="331.4" y="358" fill="#fc8d59" class="flag">[0]</text>
 <text x="353.4" y="358" class="taxonLabel">Mummpikia nuda</text>
 <text x="306.3" y="346" fill="#fc8d59" class="flag">[0]</text>
 <text x="328.3" y="346" class="taxonLabel">Eoobolus</text>
 <text x="281.2" y="334" fill="#fc8d59" class="flag">[0]</text>
 <text x="303.2" y="334" class="taxonLabel">Lingula</text>
 <text x="306.3" y="310" fill="#fc8d59" class="flag">[0]</text>
 <text x="328.3" y="310" class="taxonLabel">Pelagodiscus atlanticus</text>
 <text x="306.3" y="322" fill="#fc8d59" class="flag">[0]</text>
 <text x="328.3" y="322" class="taxonLabel">Mickwitzia muralensis</text>
 <text x="281.2" y="298" fill="#fc8d59" class="flag">[0]</text>
 <text x="303.2" y="298" class="taxonLabel">Micrina</text>
 <text x="331.4" y="274" fill="#fc8d59" class="flag">[0]</text>
 <text x="353.4" y="274" class="taxonLabel">Novocrania</text>
 <text x="331.4" y="286" fill="#fc8d59" class="flag">[0]</text>
 <text x="353.4" y="286" class="taxonLabel">Craniops</text>
 <text x="306.3" y="262" fill="#fc8d59" class="flag">[0]</text>
 <text x="328.3" y="262" class="taxonLabel">Ussunia</text>
 <text x="281.2" y="250" fill="#91bfdb" class="flag">[1]</text>
 <text x="303.2" y="250" class="taxonLabel">Gasconsia</text>
 <text x="356.5" y="226" fill="#91bfdb" class="flag">[1]</text>
 <text x="378.5" y="226" class="taxonLabel">Coolinia pecten</text>
 <text x="356.5" y="238" fill="#91bfdb" class="flag">[1]</text>
 <text x="378.5" y="238" class="taxonLabel">Antigonambonites planus</text>
 <text x="482" y="202" fill="#fc8d59" class="flag">[0]</text>
 <text x="504" y="202" class="taxonLabel">Terebratulina</text>
 <text x="482" y="214" fill="#fc8d59" class="flag">[0]</text>
 <text x="504" y="214" class="taxonLabel">Orthis</text>
 <text x="456.9" y="190" fill="#fc8d59" class="flag">[0]</text>
 <text x="478.9" y="190" class="taxonLabel">Alisina</text>
 <text x="431.8" y="178" fill="grey" class="flag">[?]</text>
 <text x="453.8" y="178" class="taxonLabel">Longtancunella chengjiangensis</text>
 <text x="406.7" y="166" fill="#fc8d59" class="flag">[0]</text>
 <text x="428.7" y="166" class="taxonLabel">Glyptoria</text>
 <text x="381.6" y="154" fill="#91bfdb" class="flag">[1]</text>
 <text x="403.6" y="154" class="taxonLabel">Nisusia sulcata</text>
 <text x="356.5" y="142" fill="#91bfdb" class="flag">[1]</text>
 <text x="378.5" y="142" class="taxonLabel">Kutorgina chengjiangensis</text>
 <text x="356.5" y="118" fill="grey" class="flag">[?]</text>
 <text x="378.5" y="118" class="taxonLabel">Yuganotheca elegans</text>
 <text x="356.5" y="130" fill="#91bfdb" class="flag">[1]</text>
 <text x="378.5" y="130" class="taxonLabel">Tomteluva perturbata</text>
 <text x="331.4" y="106" fill="#91bfdb" class="flag">[1]</text>
 <text x="353.4" y="106" class="taxonLabel">Salanygolina</text>
 <text x="306.3" y="82" fill="#fc8d59" class="flag">[0]</text>
 <text x="328.3" y="82" class="taxonLabel">Askepasma toddense</text>
 <text x="306.3" y="94" fill="#fc8d59" class="flag">[0]</text>
 <text x="328.3" y="94" class="taxonLabel">Micromitra</text>
 <text x="256.1" y="58" fill="#fc8d59" class="flag">[0]</text>
 <text x="278.1" y="58" class="taxonLabel">Pedunculotheca diania</text>
 <text x="256.1" y="70" fill="#fc8d59" class="flag">[0]</text>
 <text x="278.1" y="70" class="taxonLabel">Haplophrentis carinatus</text>
 <text x="230.9" y="46" fill="#fc8d59" class="flag">[0]</text>
 <text x="252.9" y="46" class="taxonLabel">Paterimitra</text>
 <text x="180.7" y="34" fill="#fc8d59" class="flag">[0]</text>
 <text x="202.7" y="34" class="taxonLabel">Heliomedusa orienta</text>
 <text x="180.7" y="10" fill="#fc8d59" class="flag">[0]</text>
 <text x="202.7" y="10" class="taxonLabel">Dailyatia</text>
 <text x="180.7" y="22" fill="#fc8d59" class="flag">[0]</text>
 <text x="202.7" y="22" class="taxonLabel">Halkieria evangelista</text>
 <text x="105.4" y="466" fill="#fc8d59" class="flag">[0]</text>
 <text x="127.4" y="466" class="taxonLabel">Phoronis</text>
 <text x="80.3" y="478" fill="#fc8d59" class="flag">[0]</text>
 <text x="102.3" y="478" class="taxonLabel">Flustra</text>
 <text x="55.2" y="490" fill="#fc8d59" class="flag">[0]</text>
 <text x="77.2" y="490" class="taxonLabel">Loxosomella</text>
 <path d="M5,484.9V451.2H30.1M30.1,451.2V415.5H55.2M55.2,415.5V355.9H80.3M80.3,355.9V248.9H105.4M105.4,248.9V52.7H130.5M130.5,52.7V13H155.6M155.6,13V7H180.7M155.6,13V19H180.7M130.5,52.7V92.4H155.6M155.6,92.4V31H180.7M155.6,92.4V153.8H180.7M180.7,153.8V52H205.8M205.8,52V43H230.9M205.8,52V61H230.9M230.9,61V55H256.1M230.9,61V67H256.1M180.7,153.8V255.7H205.8M205.8,255.7V187.7H230.9M230.9,187.7V118H256.1M256.1,118V85H281.2M281.2,85V79H306.3M281.2,85V91H306.3M356.5,162.6V174.2H381.6M381.6,174.2V163H406.7M381.6,174.2V185.5H406.7M406.7,185.5V175H431.8M406.7,185.5V196H431.8M431.8,196V187H456.9M431.8,196V205H456.9M456.9,205V199H482M456.9,205V211H482M230.9,187.7V257.5H256.1M256.1,257.5V268H281.2M281.2,268V259H306.3M281.2,268V277H306.3M306.3,277V271H331.4M306.3,277V283H331.4M205.8,255.7V323.6H230.9M230.9,323.6V304H256.1M256.1,304V295H281.2M256.1,304V313H281.2M281.2,313V307H306.3M281.2,313V319H306.3M230.9,323.6V343.2H256.1M256.1,343.2V331H281.2M256.1,343.2V355.4H281.2M281.2,355.4V343H306.3M281.2,355.4V367.8H306.3M306.3,367.8V355H331.4M306.3,367.8V380.5H331.4M331.4,380.5V367H356.5M331.4,380.5V394H356.5M356.5,394V379H381.6M356.5,394V409H381.6M381.6,409V397H406.7M406.7,397V391H431.8M406.7,397V403H431.8M381.6,409V421H406.7M406.7,421V415H431.8M406.7,421V427H431.8M105.4,248.9V445H130.5M130.5,445V439H155.6M130.5,445V451H155.6M80.3,355.9V463H105.4M55.2,415.5V475H80.3M30.1,451.2V487H55.2M5,484.9V518.5H30.1M30.1,518.5V505H55.2M55.2,505V499H80.3M55.2,505V511H80.3M30.1,518.5V532H55.2M55.2,532V523H80.3M55.2,532V541H80.3M80.3,541V535H105.4M80.3,541V547H105.4" stroke="#fc8d59"></path>
 <path d="M256.1,118V151H281.2M281.2,151V112H306.3M306.3,112V103H331.4M306.3,112V121H331.4M331.4,121V115H356.5M331.4,121V127H356.5M281.2,151V189.9H306.3M306.3,189.9V150.8H331.4M331.4,150.8V139H356.5M331.4,150.8V162.6H356.5M356.5,162.6V151H381.6M306.3,189.9V229H331.4M331.4,229V223H356.5M331.4,229V235H356.5M256.1,257.5V247H281.2" stroke="#91bfdb"></path>
 <text x="7" y="487.9" class="node" fill="#4A6FE3">1</text>
 <text x="32.1" y="454.2" class="node" fill="#ABB4E2">0.7</text>
 <text x="57.2" y="418.5" class="node" fill="#ABB4E2">0.7</text>
 <text x="82.3" y="358.9" class="node" fill="#ABB4E2">0.7</text>
 <text x="107.4" y="251.9" class="node" fill="#ABB4E2">0.7</text>
 <text x="132.5" y="55.7" class="node" fill="#CACDE3">0.59</text>
 <text x="157.6" y="16" class="node" fill="#7388E1">0.89</text>
 <text x="157.6" y="95.4" class="node" fill="#4A6FE3">1</text>
 <text x="182.7" y="156.8" class="node" fill="#5B78E2">0.96</text>
 <text x="207.8" y="55" class="node" fill="#AEB6E2">0.69</text>
 <text x="232.9" y="64" class="node" fill="#4A6FE3">1</text>
 <text x="207.8" y="258.7" class="node" fill="#5B78E2">0.96</text>
 <text x="232.9" y="190.7" class="node" fill="#4A6FE3">1</text>
 <text x="258.1" y="121" class="node" fill="#929FE1">0.79</text>
 <text x="283.2" y="88" class="node" fill="#4A6FE3">1</text>
 <text x="283.2" y="154" class="node" fill="#5B78E2">0.96</text>
 <text x="308.3" y="115" class="node" fill="#C1C6E3">0.62</text>
 <text x="333.4" y="124" class="node" fill="#627DE1">0.94</text>
 <text x="308.3" y="192.9" class="node" fill="#4A6FE3">1</text>
 <text x="333.4" y="153.8" class="node" fill="#DDDEE3">0.52</text>
 <text x="358.5" y="165.6" class="node" fill="#DDDEE3">0.52</text>
 <text x="383.6" y="177.2" class="node" fill="#DDDEE3">0.52</text>
 <text x="408.7" y="188.5" class="node" fill="#DDDEE3">0.52</text>
 <text x="433.8" y="199" class="node" fill="#4A6FE3">1</text>
 <text x="458.9" y="208" class="node" fill="#8F9DE1">0.8</text>
 <text x="333.4" y="232" class="node" fill="#4A6FE3">1</text>
 <text x="258.1" y="260.5" class="node" fill="#4A6FE3">1</text>
 <text x="283.2" y="271" class="node" fill="#4A6FE3">1</text>
 <text x="308.3" y="280" class="node" fill="#4A6FE3">1</text>
 <text x="232.9" y="326.6" class="node" fill="#AEB6E2">0.69</text>
 <text x="258.1" y="307" class="node" fill="#AEB6E2">0.69</text>
 <text x="283.2" y="316" class="node" fill="#ABB4E2">0.7</text>
 <text x="258.1" y="346.2" class="node" fill="#ABB4E2">0.7</text>
 <text x="283.2" y="358.4" class="node" fill="#ABB4E2">0.7</text>
 <text x="308.3" y="370.8" class="node" fill="#AEB6E2">0.69</text>
 <text x="333.4" y="383.5" class="node" fill="#AEB6E2">0.69</text>
 <text x="358.5" y="397" class="node" fill="#AEB6E2">0.69</text>
 <text x="383.6" y="412" class="node" fill="#E6B1BB">0.34</text>
 <text x="408.7" y="400" class="node" fill="#DB6581">0.1</text>
 <text x="408.7" y="424" class="node" fill="#4A6FE3">1</text>
 <text x="132.5" y="448" class="node" fill="#E2899B">0.21</text>
 <text x="32.1" y="521.5" class="node" fill="#ABB4E2">0.7</text>
 <text x="57.2" y="508" class="node" fill="#4A6FE3">1</text>
 <text x="57.2" y="535" class="node" fill="#ABB4E2">0.7</text>
 <text x="82.3" y="544" class="node" fill="#ABB4E2">0.7</text></svg>
