<svg xmlns="http://www.w3.org/2000/svg" version="1.1" width="682" height="682" class="tree" data-char="7"><text x="678" y="15.4" text-anchor="end" class="stepsLabel">Character adds <tspan class="score">2</tspan> to tree score</text><text x="678" y="27.8" text-anchor="end" class="stepsLabel"><tspan class="score">0</tspan> additional regions</text><text x="678" y="40.2" text-anchor="end" class="stepsLabel">CI = 0.5; Fitch CI = 0.5; Fitch RI = 0.92</text><text x="678" y="65" text-anchor="end" class="stepsLabel"><tspan dy="16" fill="#34caaf">An optimal tree under:</tspan><tspan x="680" style="font-style:italic" class="thisAn" dy="1.2em">Equal weights</tspan><tspan x="680" style="font-style:italic" class="notThisAn" dy="1.2em">Implied weights, k = 2</tspan><tspan x="680" style="font-style:italic" class="notThisAn" dy="1.2em">IW, k = 3</tspan><tspan x="680" style="font-style:italic" class="notThisAn" dy="1.2em">IW, k = 4.5</tspan><tspan x="680" style="font-style:italic" class="notThisAn" dy="1.2em">IW, k = 7</tspan><tspan x="680" style="font-style:italic" class="notThisAn" dy="1.2em">IW, k = 10.5</tspan><tspan x="680" style="font-style:italic" class="notThisAn" dy="1.2em">IW, k = 16</tspan><tspan x="680" style="font-style:italic" class="notThisAn" dy="1.2em">IW, k = 24</tspan></text><text x="70" y="664.4" fill="#fc8d59" class="flag">[0]</text><text x="92" y="664.4" fill="#000" class="taxonLabel">Serpula</text><text x="70" y="677" fill="#fc8d59" class="flag">[0]</text><text x="92" y="677" fill="#000" class="taxonLabel">Sipunculus</text><text x="91.7" y="639.2" fill="#fc8d59" class="flag">[0]</text><text x="113.7" y="639.2" fill="#000" class="taxonLabel">Dentalium</text><text x="91.7" y="651.8" fill="#fc8d59" class="flag">[0]</text><text x="113.7" y="651.8" fill="#000" class="taxonLabel">Tonicella</text><text x="70" y="626.7" fill="#fc8d59" class="flag">[0]</text><text x="92" y="626.7" fill="#000" class="taxonLabel">Wiwaxia corrugata</text><text x="308.5" y="601.5" fill="grey" class="flag">[?]</text><text x="330.5" y="601.5" fill="#999" class="taxonLabel">Heliomedusa orienta</text><text x="308.5" y="614.1" fill="#91bfdb" class="flag">[1]</text><text x="330.5" y="614.1" fill="#000" class="taxonLabel">Mickwitzia muralensis</text><text x="286.9" y="588.9" fill="#91bfdb" class="flag">[1]</text><text x="308.9" y="588.9" fill="#000" class="taxonLabel">Micrina</text><text x="330.2" y="563.7" fill="#91bfdb" class="flag">[1]</text><text x="352.2" y="563.7" fill="#000" class="taxonLabel">Micromitra</text><text x="330.2" y="576.3" fill="#91bfdb" class="flag">[1]</text><text x="352.2" y="576.3" fill="#000" class="taxonLabel">Askepasma toddense</text><text x="373.6" y="538.6" fill="#91bfdb" class="flag">[1]</text><text x="395.6" y="538.6" fill="#000" class="taxonLabel">Antigonambonites planus</text><text x="373.6" y="551.2" fill="#91bfdb" class="flag">[1]</text><text x="395.6" y="551.2" fill="#000" class="taxonLabel">Coolinia pecten</text><text x="417" y="513.4" fill="grey" class="flag">[?]</text><text x="439" y="513.4" fill="#999" class="taxonLabel">Tomteluva perturbata</text><text x="417" y="526" fill="grey" class="flag">[?]</text><text x="439" y="526" fill="#999" class="taxonLabel">Nisusia sulcata</text><text x="395.3" y="500.8" fill="grey" class="flag">[?]</text><text x="417.3" y="500.8" fill="#999" class="taxonLabel">Kutorgina chengjiangensis</text><text x="460.3" y="475.6" fill="grey" class="flag">[?]</text><text x="482.3" y="475.6" fill="#999" class="taxonLabel">Orthis</text><text x="460.3" y="488.2" fill="#91bfdb" class="flag">[1]</text><text x="482.3" y="488.2" fill="#000" class="taxonLabel">Terebratulina</text><text x="438.6" y="463.1" fill="grey" class="flag">[?]</text><text x="460.6" y="463.1" fill="#999" class="taxonLabel">Alisina</text><text x="417" y="450.5" fill="grey" class="flag">[?]</text><text x="439" y="450.5" fill="#999" class="taxonLabel">Longtancunella chengjiangensis</text><text x="395.3" y="437.9" fill="grey" class="flag">[?]</text><text x="417.3" y="437.9" fill="#999" class="taxonLabel">Glyptoria</text><text x="330.2" y="425.3" fill="#91bfdb" class="flag">[1]</text><text x="352.2" y="425.3" fill="#000" class="taxonLabel">Salanygolina</text><text x="482" y="400.1" fill="grey" class="flag">[?]</text><text x="504" y="400.1" fill="#999" class="taxonLabel">Acanthotretella spinosa</text><text x="482" y="412.7" fill="#91bfdb" class="flag">[1]</text><text x="504" y="412.7" fill="#000" class="taxonLabel">Siphonobolus priscus</text><text x="460.3" y="387.5" fill="grey" class="flag">[?]</text><text x="482.3" y="387.5" fill="#999" class="taxonLabel">Lingulosacculus</text><text x="438.6" y="375" fill="#91bfdb" class="flag">[1]</text><text x="460.6" y="375" fill="#000" class="taxonLabel">Clupeafumosus socialis</text><text x="417" y="362.4" fill="grey" class="flag">[?]</text><text x="439" y="362.4" fill="#999" class="taxonLabel">Lingulellotreta malongensis</text><text x="417" y="337.2" fill="#91bfdb" class="flag">[1]</text><text x="439" y="337.2" fill="#000" class="taxonLabel">Pelagodiscus atlanticus</text><text x="417" y="349.8" fill="grey" class="flag">[?]</text><text x="439" y="349.8" fill="#999" class="taxonLabel">Mummpikia nuda</text><text x="373.6" y="324.6" fill="#91bfdb" class="flag">[1]</text><text x="395.6" y="324.6" fill="#000" class="taxonLabel">Botsfordia</text><text x="351.9" y="312" fill="#91bfdb" class="flag">[1]</text><text x="373.9" y="312" fill="#000" class="taxonLabel">Eoobolus</text><text x="330.2" y="299.5" fill="#fc8d59" class="flag">[0]</text><text x="352.2" y="299.5" fill="#000" class="taxonLabel">Lingula</text><text x="373.6" y="274.3" fill="grey" class="flag">[?]</text><text x="395.6" y="274.3" fill="#999" class="taxonLabel">Craniops</text><text x="373.6" y="286.9" fill="#91bfdb" class="flag">[1]</text><text x="395.6" y="286.9" fill="#000" class="taxonLabel">Novocrania</text><text x="351.9" y="261.7" fill="grey" class="flag">[?]</text><text x="373.9" y="261.7" fill="#999" class="taxonLabel">Ussunia</text><text x="330.2" y="249.1" fill="grey" class="flag">[?]</text><text x="352.2" y="249.1" fill="#999" class="taxonLabel">Gasconsia</text><text x="243.5" y="236.5" fill="grey" class="flag">[?]</text><text x="265.5" y="236.5" fill="#999" class="taxonLabel">Yuganotheca elegans</text><text x="308.5" y="211.4" fill="grey" class="flag">[?]</text><text x="330.5" y="211.4" fill="#999" class="taxonLabel">Maxilites</text><text x="308.5" y="223.9" fill="#fc8d59" class="flag">[0]</text><text x="330.5" y="223.9" fill="#000" class="taxonLabel">Pauxillites</text><text x="286.9" y="198.8" fill="#fc8d59" class="flag">[0]</text><text x="308.9" y="198.8" fill="#000" class="taxonLabel">Haplophrentis carinatus</text><text x="330.2" y="173.6" fill="#fc8d59" class="flag">[0]</text><text x="352.2" y="173.6" fill="#000" class="taxonLabel">Bactrotheca</text><text x="330.2" y="186.2" fill="#fc8d59" class="flag">[0]</text><text x="352.2" y="186.2" fill="#000" class="taxonLabel">Conotheca</text><text x="308.5" y="161" fill="#fc8d59" class="flag">[0]</text><text x="330.5" y="161" fill="#000" class="taxonLabel">Cupitheca holocyclata</text><text x="286.9" y="148.4" fill="grey" class="flag">[?]</text><text x="308.9" y="148.4" fill="#999" class="taxonLabel">Paramicrocornus</text><text x="243.5" y="135.8" fill="#fc8d59" class="flag">[0]</text><text x="265.5" y="135.8" fill="#000" class="taxonLabel">Pedunculotheca diania</text><text x="200.1" y="123.3" fill="#fc8d59" class="flag">[0]</text><text x="222.1" y="123.3" fill="#000" class="taxonLabel">Paterimitra</text><text x="178.5" y="110.7" fill="grey" class="flag">[?]</text><text x="200.5" y="110.7" fill="#999" class="taxonLabel">Halkieria evangelista</text><text x="156.8" y="98.1" fill="#fc8d59" class="flag">[0]</text><text x="178.8" y="98.1" fill="#000" class="taxonLabel">Dailyatia</text><text x="135.1" y="85.5" fill="grey" class="flag">[?]</text><text x="157.1" y="85.5" fill="#999" class="taxonLabel">Cotyledion tylodes</text><text x="113.4" y="72.9" fill="#fc8d59" class="flag">[0]</text><text x="135.4" y="72.9" fill="#000" class="taxonLabel">Eccentrotheca</text><text x="70" y="664.4" fill="#fc8d59" class="flag">[0]</text><text x="92" y="664.4" fill="#000" class="taxonLabel">Serpula</text><text x="70" y="677" fill="#fc8d59" class="flag">[0]</text><text x="92" y="677" fill="#999" class="taxonLabel">Sipunculus</text><text x="91.7" y="639.2" fill="#fc8d59" class="flag">[0]</text><text x="113.7" y="639.2" fill="#000" class="taxonLabel">Dentalium</text><text x="91.7" y="651.8" fill="#fc8d59" class="flag">[0]</text><text x="113.7" y="651.8" fill="#000" class="taxonLabel">Tonicella</text><text x="70" y="626.7" fill="#fc8d59" class="flag">[0]</text><text x="92" y="626.7" fill="#000" class="taxonLabel">Wiwaxia corrugata</text><path d="M5,338.8V27.1H26.7M26.7,27.1V7H48.4M26.7,27.1V47.2H48.4M48.4,47.2V25.9H70M70,25.9V19.6H91.7M70,25.9V32.2H91.7M48.4,47.2V68.6H70M70,68.6V51H91.7M91.7,51V44.8H113.4M91.7,51V57.3H113.4M70,68.6V86.1H91.7M91.7,86.1V69.9H113.4M91.7,86.1V102.3H113.4M113.4,102.3V82.5H135.1M113.4,102.3V122.2H135.1M135.1,122.2V95.1H156.8M135.1,122.2V149.2H156.8M156.8,149.2V107.7H178.5M156.8,149.2V190.7H178.5M178.5,190.7V120.3H200.1M178.5,190.7V261.2H200.1M200.1,261.2V156.8H221.8M221.8,156.8V132.8H243.5M221.8,156.8V180.8H243.5M243.5,180.8V156.4H265.2M265.2,156.4V145.4H286.9M265.2,156.4V167.5H286.9M286.9,167.5V158H308.5M286.9,167.5V176.9H308.5M308.5,176.9V170.6H330.2M308.5,176.9V183.2H330.2M243.5,180.8V205.2H265.2M265.2,205.2V195.8H286.9M265.2,205.2V214.7H286.9M286.9,214.7V208.4H308.5M286.9,214.7V220.9H308.5M200.1,261.2V365.6H221.8M308.5,310.2V296.5H330.2M5,338.8V650.4H26.7M26.7,650.4V633.1H48.4M48.4,633.1V623.7H70M48.4,633.1V642.5H70M70,642.5V636.2H91.7M70,642.5V648.8H91.7M26.7,650.4V667.7H48.4M48.4,667.7V661.4H70M48.4,667.7V674H70" stroke="#fc8d59"></path><path d="M221.8,365.6V233.5H243.5" stroke="darkgrey"></path><path d="M221.8,365.6V497.7H243.5M243.5,497.7V400H265.2M265.2,400V283.6H286.9M286.9,283.6V257.1H308.5M308.5,257.1V246.1H330.2M308.5,257.1V268.1H330.2M330.2,268.1V258.7H351.9M330.2,268.1V277.6H351.9M351.9,277.6V271.3H373.6M351.9,277.6V283.9H373.6M286.9,283.6V310.2H308.5M308.5,310.2V323.9H330.2M330.2,323.9V309H351.9M330.2,323.9V338.7H351.9M351.9,338.7V321.6H373.6M351.9,338.7V355.8H373.6M373.6,355.8V340.5H395.3M395.3,340.5V334.2H417M395.3,340.5V346.8H417M373.6,355.8V371.2H395.3M395.3,371.2V359.4H417M395.3,371.2V383H417M417,383V372H438.6M417,383V394H438.6M438.6,394V384.5H460.3M438.6,394V403.4H460.3M460.3,403.4V397.1H482M460.3,403.4V409.7H482M265.2,400V516.4H286.9M286.9,516.4V465.9H308.5M308.5,465.9V422.3H330.2M308.5,465.9V509.4H330.2M330.2,509.4V477H351.9M351.9,477V446.7H373.6M373.6,446.7V434.9H395.3M373.6,446.7V458.5H395.3M395.3,458.5V447.5H417M395.3,458.5V469.5H417M417,469.5V460.1H438.6M417,469.5V478.9H438.6M438.6,478.9V472.6H460.3M438.6,478.9V485.2H460.3M351.9,477V507.3H373.6M373.6,507.3V497.8H395.3M373.6,507.3V516.7H395.3M395.3,516.7V510.4H417M395.3,516.7V523H417M330.2,509.4V541.9H351.9M351.9,541.9V535.6H373.6M351.9,541.9V548.2H373.6M286.9,516.4V567H308.5M308.5,567V560.7H330.2M308.5,567V573.3H330.2M243.5,497.7V595.3H265.2M265.2,595.3V585.9H286.9M265.2,595.3V604.8H286.9M286.9,604.8V598.5H308.5M286.9,604.8V611.1H308.5" stroke="#91bfdb"></path><text x="115.4" y="60.3" class="node" fill="#4A6FE3">1</text><text x="93.7" y="22.6" class="node" fill="#4A6FE3">1</text><text x="93.7" y="35.2" class="node" fill="#4A6FE3">1</text><text x="50.4" y="10" class="node" fill="#4A6FE3">1</text><text x="7" y="341.8" class="node" fill="#E6B1BB">0.34</text><text x="28.7" y="30.1" class="node" fill="#627DE1">0.94</text><text x="50.4" y="50.2" class="node" fill="#E6ABB6">0.32</text><text x="72" y="28.9" class="node" fill="#627DE1">0.94</text><text x="72" y="71.6" class="node" fill="#627DE1">0.94</text><text x="93.7" y="54" class="node" fill="#627DE1">0.94</text><text x="93.7" y="89.1" class="node" fill="#627DE1">0.94</text><text x="115.4" y="105.3" class="node" fill="#627DE1">0.94</text><text x="137.1" y="125.2" class="node" fill="#627DE1">0.94</text><text x="158.8" y="152.2" class="node" fill="#E2899B">0.21</text><text x="180.5" y="193.7" class="node" fill="#627DE1">0.94</text><text x="202.1" y="264.2" class="node" fill="#4A6FE3">1</text><text x="223.8" y="159.8" class="node" fill="#4A6FE3">1</text><text x="245.5" y="183.8" class="node" fill="#4A6FE3">1</text><text x="267.2" y="159.4" class="node" fill="#4A6FE3">1</text><text x="288.9" y="170.5" class="node" fill="#5776E2">0.97</text><text x="310.5" y="179.9" class="node" fill="#627DE1">0.94</text><text x="267.2" y="208.2" class="node" fill="#627DE1">0.94</text><text x="288.9" y="217.7" class="node" fill="#627DE1">0.94</text><text x="223.8" y="368.6" class="node" fill="#4A6FE3">1</text><text x="245.5" y="500.7" class="node" fill="#4A6FE3">1</text><text x="267.2" y="403" class="node" fill="#627DE1">0.94</text><text x="288.9" y="286.6" class="node" fill="#627DE1">0.94</text><text x="310.5" y="260.1" class="node" fill="#627DE1">0.94</text><text x="332.2" y="271.1" class="node" fill="#627DE1">0.94</text><text x="353.9" y="280.6" class="node" fill="#627DE1">0.94</text><text x="310.5" y="313.2" class="node" fill="#627DE1">0.94</text><text x="332.2" y="326.9" class="node" fill="#4A6FE3">1</text><text x="353.9" y="341.7" class="node" fill="#E6B1BB">0.34</text><text x="375.6" y="358.8" class="node" fill="#4A6FE3">1</text><text x="397.3" y="343.5" class="node" fill="#5F7BE1">0.95</text><text x="397.3" y="374.2" class="node" fill="#4F72E2">0.99</text><text x="419" y="386" class="node" fill="#5F7BE1">0.95</text><text x="440.6" y="397" class="node" fill="#5F7BE1">0.95</text><text x="462.3" y="406.4" class="node" fill="#4A6FE3">1</text><text x="288.9" y="519.4" class="node" fill="#4A6FE3">1</text><text x="310.5" y="468.9" class="node" fill="#4A6FE3">1</text><text x="332.2" y="512.4" class="node" fill="#5F7BE1">0.95</text><text x="353.9" y="480" class="node" fill="#E59FAC">0.28</text><text x="375.6" y="449.7" class="node" fill="#DB6581">0.1</text><text x="115.4" y="60.3" class="node" fill="#4A6FE3">1</text><text x="93.7" y="22.6" class="node" fill="#5F7BE1">0.95</text><text x="93.7" y="35.2" class="node" fill="#627DE1">0.94</text><text x="50.4" y="10" class="node" fill="#627DE1">0.94</text><text x="7" y="341.8" class="node" fill="#4A6FE3">1</text><text x="28.7" y="30.1" class="node" fill="#4A6FE3">1</text><text x="50.4" y="50.2" class="node" fill="#4A6FE3">1</text><text x="72" y="28.9" class="node" fill="#4A6FE3">1</text></svg>
