<svg xmlns="http://www.w3.org/2000/svg" version="1.1" width="682" height="612" class="tree" data-char="147"><text x="678" y="15.7" text-anchor="end" class="stepsLabel">Character adds <tspan class="score">2</tspan> to tree score</text><text x="678" y="28.4" text-anchor="end" class="stepsLabel"><tspan class="score">0</tspan> additional regions</text><text x="678" y="41.1" text-anchor="end" class="stepsLabel">CI = 0.5; Fitch CI = 0.5; Fitch RI = 0</text><text x="678" y="66.5" text-anchor="end" class="stepsLabel"><tspan dy="16">An optimal tree under:</tspan><tspan x="680" style="font-style:italic" class="notThisAn" dy="1.2em">Equal weights</tspan><tspan x="680" style="font-style:italic" class="notThisAn" dy="1.2em">Implied weights, k = 2</tspan><tspan x="680" style="font-style:italic" class="thisAn" dy="1.2em">IW, k = 3</tspan><tspan x="680" style="font-style:italic" class="notThisAn" dy="1.2em">IW, k = 4.5</tspan><tspan x="680" style="font-style:italic" class="notThisAn" dy="1.2em">IW, k = 7</tspan><tspan x="680" style="font-style:italic" class="notThisAn" dy="1.2em">IW, k = 10.5</tspan><tspan x="680" style="font-style:italic" class="notThisAn" dy="1.2em">IW, k = 16</tspan><tspan x="680" style="font-style:italic" class="notThisAn" dy="1.2em">IW, k = 24</tspan></text><text x="91.7" y="594" fill="grey" class="flag">[?]</text><text x="113.7" y="594" fill="#999" class="taxonLabel">Wiwaxia corrugata</text><text x="91.7" y="607" fill="#fc8d59" class="flag">[0]</text><text x="113.7" y="607" fill="#000" class="taxonLabel">Tonicella</text><text x="70" y="581" fill="#fc8d59" class="flag">[0]</text><text x="92" y="581" fill="#000" class="taxonLabel">Dentalium</text><text x="70" y="555.1" fill="#fc8d59" class="flag">[0]</text><text x="92" y="555.1" fill="#000" class="taxonLabel">Sipunculus</text><text x="70" y="568.1" fill="#fc8d59" class="flag">[0]</text><text x="92" y="568.1" fill="#000" class="taxonLabel">Serpula</text><text x="221.8" y="516.2" fill="grey" class="flag">[?]</text><text x="243.8" y="516.2" fill="#999" class="taxonLabel">Pedunculotheca diania</text><text x="221.8" y="529.1" fill="grey" class="flag">[?]</text><text x="243.8" y="529.1" fill="#999" class="taxonLabel">Haplophrentis carinatus</text><text x="351.9" y="490.2" fill="#fc8d59" class="flag">[0]</text><text x="373.9" y="490.2" fill="#000" class="taxonLabel">Novocrania</text><text x="351.9" y="503.2" fill="grey" class="flag">[?]</text><text x="373.9" y="503.2" fill="#999" class="taxonLabel">Craniops</text><text x="330.2" y="477.2" fill="grey" class="flag">[?]</text><text x="352.2" y="477.2" fill="#999" class="taxonLabel">Ussunia</text><text x="308.5" y="464.2" fill="grey" class="flag">[?]</text><text x="330.5" y="464.2" fill="#999" class="taxonLabel">Gasconsia</text><text x="330.2" y="438.3" fill="grey" class="flag">[?]</text><text x="352.2" y="438.3" fill="#999" class="taxonLabel">Askepasma toddense</text><text x="330.2" y="451.3" fill="grey" class="flag">[?]</text><text x="352.2" y="451.3" fill="#999" class="taxonLabel">Micromitra</text><text x="373.6" y="412.3" fill="grey" class="flag">[?]</text><text x="395.6" y="412.3" fill="#999" class="taxonLabel">Yuganotheca elegans</text><text x="373.6" y="425.3" fill="grey" class="flag">[?]</text><text x="395.6" y="425.3" fill="#999" class="taxonLabel">Tomteluva perturbata</text><text x="351.9" y="399.3" fill="grey" class="flag">[?]</text><text x="373.9" y="399.3" fill="#999" class="taxonLabel">Salanygolina</text><text x="482" y="373.4" fill="grey" class="flag">[?]</text><text x="504" y="373.4" fill="#999" class="taxonLabel">Orthis</text><text x="482" y="386.4" fill="#91bfdb" class="flag">[1]</text><text x="504" y="386.4" fill="#000" class="taxonLabel">Terebratulina</text><text x="460.3" y="360.4" fill="grey" class="flag">[?]</text><text x="482.3" y="360.4" fill="#999" class="taxonLabel">Alisina</text><text x="438.6" y="347.4" fill="grey" class="flag">[?]</text><text x="460.6" y="347.4" fill="#999" class="taxonLabel">Longtancunella chengjiangensis</text><text x="417" y="334.5" fill="grey" class="flag">[?]</text><text x="439" y="334.5" fill="#999" class="taxonLabel">Glyptoria</text><text x="395.3" y="321.5" fill="grey" class="flag">[?]</text><text x="417.3" y="321.5" fill="#999" class="taxonLabel">Nisusia sulcata</text><text x="373.6" y="308.5" fill="grey" class="flag">[?]</text><text x="395.6" y="308.5" fill="#999" class="taxonLabel">Kutorgina chengjiangensis</text><text x="373.6" y="282.5" fill="grey" class="flag">[?]</text><text x="395.6" y="282.5" fill="#999" class="taxonLabel">Antigonambonites planus</text><text x="373.6" y="295.5" fill="grey" class="flag">[?]</text><text x="395.6" y="295.5" fill="#999" class="taxonLabel">Coolinia pecten</text><text x="351.9" y="256.6" fill="grey" class="flag">[?]</text><text x="373.9" y="256.6" fill="#999" class="taxonLabel">Mummpikia nuda</text><text x="351.9" y="269.6" fill="grey" class="flag">[?]</text><text x="373.9" y="269.6" fill="#999" class="taxonLabel">Botsfordia</text><text x="330.2" y="243.6" fill="grey" class="flag">[?]</text><text x="352.2" y="243.6" fill="#999" class="taxonLabel">Eoobolus</text><text x="395.3" y="217.7" fill="grey" class="flag">[?]</text><text x="417.3" y="217.7" fill="#999" class="taxonLabel">Acanthotretella spinosa</text><text x="395.3" y="230.6" fill="grey" class="flag">[?]</text><text x="417.3" y="230.6" fill="#999" class="taxonLabel">Siphonobolus priscus</text><text x="373.6" y="204.7" fill="grey" class="flag">[?]</text><text x="395.6" y="204.7" fill="#999" class="taxonLabel">Clupeafumosus socialis</text><text x="351.9" y="191.7" fill="grey" class="flag">[?]</text><text x="373.9" y="191.7" fill="#999" class="taxonLabel">Lingulosacculus</text><text x="351.9" y="165.7" fill="#fc8d59" class="flag">[0]</text><text x="373.9" y="165.7" fill="#000" class="taxonLabel">Lingula</text><text x="351.9" y="178.7" fill="grey" class="flag">[?]</text><text x="373.9" y="178.7" fill="#999" class="taxonLabel">Lingulellotreta malongensis</text><text x="308.5" y="139.8" fill="#fc8d59" class="flag">[0]</text><text x="330.5" y="139.8" fill="#000" class="taxonLabel">Pelagodiscus atlanticus</text><text x="308.5" y="152.8" fill="grey" class="flag">[?]</text><text x="330.5" y="152.8" fill="#999" class="taxonLabel">Mickwitzia muralensis</text><text x="243.5" y="126.8" fill="grey" class="flag">[?]</text><text x="265.5" y="126.8" fill="#999" class="taxonLabel">Micrina</text><text x="221.8" y="113.8" fill="grey" class="flag">[?]</text><text x="243.8" y="113.8" fill="#999" class="taxonLabel">Paterimitra</text><text x="178.5" y="100.8" fill="grey" class="flag">[?]</text><text x="200.5" y="100.8" fill="#999" class="taxonLabel">Heliomedusa orienta</text><text x="178.5" y="74.9" fill="grey" class="flag">[?]</text><text x="200.5" y="74.9" fill="#999" class="taxonLabel">Halkieria evangelista</text><text x="178.5" y="87.9" fill="grey" class="flag">[?]</text><text x="200.5" y="87.9" fill="#999" class="taxonLabel">Dailyatia</text><text x="135.1" y="61.9" fill="grey" class="flag">[?]</text><text x="157.1" y="61.9" fill="#999" class="taxonLabel">Eccentrotheca</text><text x="113.4" y="48.9" fill="grey" class="flag">[?]</text><text x="135.4" y="48.9" fill="#999" class="taxonLabel">Cotyledion tylodes</text><text x="113.4" y="23" fill="grey" class="flag">[?]</text><text x="135.4" y="23" fill="#999" class="taxonLabel">Namacalathus</text><text x="113.4" y="36" fill="#fc8d59" class="flag">[0]</text><text x="135.4" y="36" fill="#000" class="taxonLabel">Phoronis</text><text x="70" y="10" fill="#fc8d59" class="flag">[0]</text><text x="92" y="10" fill="#000" class="taxonLabel">Flustra</text><text x="48.4" y="542.1" fill="#91bfdb" class="flag">[1]</text><text x="70.4" y="542.1" fill="#000" class="taxonLabel">Loxosomella</text><path d="M5,428.6V284H26.7M26.7,284V28.9H48.4M48.4,28.9V7H70M48.4,28.9V50.7H70M70,50.7V26.5H91.7M91.7,26.5V20H113.4M91.7,26.5V33H113.4M70,50.7V75H91.7M91.7,75V45.9H113.4M91.7,75V104H113.4M113.4,104V58.9H135.1M113.4,104V149H135.1M135.1,149V78.4H156.8M156.8,78.4V71.9H178.5M156.8,78.4V84.9H178.5M135.1,149V219.7H156.8M156.8,219.7V97.8H178.5M156.8,219.7V341.5H178.5M178.5,341.5V163.3H200.1M200.1,163.3V110.8H221.8M200.1,163.3V215.8H221.8M221.8,215.8V123.8H243.5M221.8,215.8V307.8H243.5M243.5,307.8V180.4H265.2M265.2,180.4V143.3H286.9M286.9,143.3V136.8H308.5M286.9,143.3V149.8H308.5M265.2,180.4V217.5H286.9M286.9,217.5V184.6H308.5M308.5,184.6V169.2H330.2M330.2,169.2V162.7H351.9M330.2,169.2V175.7H351.9M308.5,184.6V200.1H330.2M330.2,200.1V188.7H351.9M330.2,200.1V211.4H351.9M351.9,211.4V201.7H373.6M351.9,211.4V221.1H373.6M373.6,221.1V214.7H395.3M373.6,221.1V227.6H395.3M286.9,217.5V250.3H308.5M308.5,250.3V240.6H330.2M308.5,250.3V260.1H330.2M330.2,260.1V253.6H351.9M330.2,260.1V266.6H351.9M243.5,307.8V435.3H265.2M265.2,435.3V397.9H286.9M265.2,435.3V472.6H286.9M286.9,472.6V461.2H308.5M286.9,472.6V484H308.5M308.5,484V474.2H330.2M308.5,484V493.7H330.2M330.2,493.7V487.2H351.9M330.2,493.7V500.2H351.9M178.5,341.5V519.6H200.1M200.1,519.6V513.2H221.8M200.1,519.6V526.1H221.8M5,428.6V573.2H26.7M26.7,573.2V558.6H48.4M48.4,558.6V552.1H70M48.4,558.6V565.1H70M26.7,573.2V587.8H48.4M48.4,587.8V578H70M48.4,587.8V597.5H70M70,597.5V591H91.7M70,597.5V604H91.7" stroke="#fc8d59"></path><path d="M286.9,397.9V354.1H308.5M308.5,354.1V302.2H330.2M330.2,302.2V286H351.9M351.9,286V279.5H373.6M351.9,286V292.5H373.6M330.2,302.2V318.3H351.9M351.9,318.3V305.5H373.6M351.9,318.3V331.1H373.6M373.6,331.1V318.5H395.3M373.6,331.1V343.6H395.3M395.3,343.6V331.5H417M395.3,343.6V355.8H417M417,355.8V344.4H438.6M417,355.8V367.1H438.6M438.6,367.1V357.4H460.3M438.6,367.1V376.9H460.3M460.3,376.9V370.4H482M308.5,354.1V406.1H330.2M330.2,406.1V396.3H351.9M330.2,406.1V415.8H351.9M351.9,415.8V409.3H373.6M351.9,415.8V422.3H373.6M286.9,397.9V441.8H308.5M308.5,441.8V435.3H330.2M308.5,441.8V448.3H330.2" stroke="darkgrey"></path><path d="M460.3,376.9V383.4H482M26.7,284V539.1H48.4" stroke="#91bfdb"></path><text x="7" y="431.6" class="node" fill="#4A6FE3">1</text><text x="28.7" y="287" class="node" fill="#4A6FE3">1</text><text x="50.4" y="31.9" class="node" fill="#6982E1">0.92</text><text x="72" y="53.7" class="node" fill="#6982E1">0.92</text><text x="93.7" y="29.5" class="node" fill="#E6BAC2">0.37</text><text x="93.7" y="78" class="node" fill="#6982E1">0.92</text><text x="115.4" y="107" class="node" fill="#E5A8B3">0.31</text><text x="137.1" y="152" class="node" fill="#BFC4E3">0.63</text><text x="158.8" y="81.4" class="node" fill="#E0E0E2">0.51</text><text x="158.8" y="222.7" class="node" fill="#4A6FE3">1</text><text x="180.5" y="344.5" class="node" fill="#E6BDC5">0.38</text><text x="202.1" y="166.3" class="node" fill="#E6BDC5">0.38</text><text x="223.8" y="218.8" class="node" fill="#E6BDC5">0.38</text><text x="245.5" y="310.8" class="node" fill="#E6BDC5">0.38</text><text x="267.2" y="183.4" class="node" fill="#E0E0E2">0.51</text><text x="288.9" y="146.3" class="node" fill="#4A6FE3">1</text><text x="288.9" y="220.5" class="node" fill="#4A6FE3">1</text><text x="310.5" y="187.6" class="node" fill="#E6BDC5">0.38</text><text x="332.2" y="172.2" class="node" fill="#E6BDC5">0.38</text><text x="332.2" y="203.1" class="node" fill="#8F9DE1">0.8</text><text x="353.9" y="214.4" class="node" fill="#E3DFE0">0.49</text><text x="375.6" y="224.1" class="node" fill="#4A6FE3">1</text><text x="310.5" y="253.3" class="node" fill="#E0E0E2">0.51</text><text x="332.2" y="263.1" class="node" fill="#E6BDC5">0.38</text><text x="267.2" y="438.3" class="node" fill="#E6BDC5">0.38</text><text x="288.9" y="400.9" class="node" fill="#D7D9E3">0.54</text><text x="310.5" y="357.1" class="node" fill="#4A6FE3">1</text><text x="332.2" y="305.2" class="node" fill="#8394E1">0.84</text><text x="353.9" y="289" class="node" fill="#4A6FE3">1</text><text x="353.9" y="321.3" class="node" fill="#8C9BE1">0.81</text><text x="375.6" y="334.1" class="node" fill="#8C9BE1">0.81</text><text x="397.3" y="346.6" class="node" fill="#7388E1">0.89</text><text x="419" y="358.8" class="node" fill="#7388E1">0.89</text><text x="440.6" y="370.1" class="node" fill="#4A6FE3">1</text><text x="462.3" y="379.9" class="node" fill="#667FE1">0.93</text><text x="332.2" y="409.1" class="node" fill="#929FE1">0.79</text><text x="353.9" y="418.8" class="node" fill="#7D8FE1">0.86</text><text x="310.5" y="444.8" class="node" fill="#B9BFE3">0.65</text><text x="288.9" y="475.6" class="node" fill="#E6BDC5">0.38</text><text x="310.5" y="487" class="node" fill="#627DE1">0.94</text><text x="332.2" y="496.7" class="node" fill="#4A6FE3">1</text><text x="202.1" y="522.6" class="node" fill="#4A6FE3">1</text><text x="28.7" y="576.2" class="node" fill="#4A6FE3">1</text><text x="50.4" y="561.6" class="node" fill="#4A6FE3">1</text><text x="50.4" y="590.8" class="node" fill="#4A6FE3">1</text><text x="72" y="600.5" class="node" fill="#E07C92">0.17</text></svg>
