<svg xmlns="http://www.w3.org/2000/svg" version="1.1" width="682" height="555" class="tree" data-char="55">
 <text x="678" y="14.7" text-anchor="end" class="stepsLabel">Character adds <tspan class="score">8</tspan> to tree score</text>
 <text x="678" y="26.4" text-anchor="end" class="stepsLabel"><tspan class="score">0</tspan> additional regions</text>
 <text x="678" y="38.1" text-anchor="end" class="stepsLabel">CI = 0.12; Fitch CI = 0.12; Fitch RI = 0.3</text>
 <text x="678" y="61.5" text-anchor="end" class="stepsLabel"><tspan dy="16">An optimal tree under:</tspan><tspan x="680" style="font-style:italic" class="notThisAn" dy="1.2em">Equal weights</tspan><tspan x="680" style="font-style:italic" class="notThisAn" dy="1.2em">Implied weights, k = 2</tspan><tspan x="680" style="font-style:italic" class="thisAn" dy="1.2em">IW, k = 3</tspan><tspan x="680" style="font-style:italic" class="thisAn" dy="1.2em">IW, k = 4.5</tspan><tspan x="680" style="font-style:italic" class="notThisAn" dy="1.2em">IW, k = 7</tspan></text>
 <text x="28.9" y="10" fill="#fc8d59" class="flag">[0]</text>
 <text x="50.9" y="10" class="taxonLabel">Flustra</text>
 <text x="52.7" y="22" fill="#fc8d59" class="flag">[0]</text>
 <text x="74.7" y="22" class="taxonLabel">Loxosomella</text>
 <text x="76.6" y="34" fill="#fc8d59" class="flag">[0]</text>
 <text x="98.6" y="34" class="taxonLabel">Phoronis</text>
 <text x="100.4" y="46" fill="#fc8d59" class="flag">[0]</text>
 <text x="122.4" y="46" class="taxonLabel">Cotyledion tylodes</text>
 <text x="148.1" y="58" fill="#fc8d59" class="flag">[0]</text>
 <text x="170.1" y="58" class="taxonLabel">Heliomedusa orienta</text>
 <text x="195.8" y="70" fill="#fc8d59" class="flag">[0]</text>
 <text x="217.8" y="70" class="taxonLabel">Paterimitra</text>
 <text x="267.4" y="82" fill="#fc8d59" class="flag">[0]</text>
 <text x="289.4" y="82" class="taxonLabel">Clupeafumosus socialis</text>
 <text x="315.1" y="94" fill="#fc8d59" class="flag">[0]</text>
 <text x="337.1" y="94" class="taxonLabel">Lingulosacculus</text>
 <text x="315.1" y="190" fill="#fc8d59" class="flag">[0]</text>
 <text x="337.1" y="190" class="taxonLabel">Siphonobolus priscus</text>
 <text x="315.1" y="178" fill="#fc8d59" class="flag">[0]</text>
 <text x="337.1" y="178" class="taxonLabel">Acanthotretella spinosa</text>
 <text x="362.8" y="106" fill="#91bfdb" class="flag">[1]</text>
 <text x="384.8" y="106" class="taxonLabel">Lingulellotreta malongensis</text>
 <text x="386.6" y="118" fill="#fc8d59" class="flag">[0]</text>
 <text x="408.6" y="118" class="taxonLabel">Botsfordia</text>
 <text x="410.5" y="130" fill="#91bfdb" class="flag">[1]</text>
 <text x="432.5" y="130" class="taxonLabel">Eoobolus</text>
 <text x="410.5" y="142" fill="#fc8d59" class="flag">[0]</text>
 <text x="432.5" y="142" class="taxonLabel">Mummpikia nuda</text>
 <text x="362.8" y="166" fill="#91bfdb" class="flag">[1]</text>
 <text x="384.8" y="166" class="taxonLabel">Pelagodiscus atlanticus</text>
 <text x="362.8" y="154" fill="#91bfdb" class="flag">[1]</text>
 <text x="384.8" y="154" class="taxonLabel">Lingula</text>
 <text x="291.2" y="406" fill="#91bfdb" class="flag">[1]</text>
 <text x="313.2" y="406" class="taxonLabel">Askepasma toddense</text>
 <text x="291.2" y="394" fill="#fc8d59" class="flag">[0]</text>
 <text x="313.2" y="394" class="taxonLabel">Micromitra</text>
 <text x="315.1" y="202" fill="#fc8d59" class="flag">[0]</text>
 <text x="337.1" y="202" class="taxonLabel">Gasconsia</text>
 <text x="338.9" y="214" fill="#fc8d59" class="flag">[0]</text>
 <text x="360.9" y="214" class="taxonLabel">Ussunia</text>
 <text x="362.8" y="238" fill="#91bfdb" class="flag">[1]</text>
 <text x="384.8" y="238" class="taxonLabel">Craniops</text>
 <text x="362.8" y="226" fill="#91bfdb" class="flag">[1]</text>
 <text x="384.8" y="226" class="taxonLabel">Novocrania</text>
 <text x="338.9" y="250" fill="#91bfdb" class="flag">[1]</text>
 <text x="360.9" y="250" class="taxonLabel">Salanygolina</text>
 <text x="362.8" y="274" fill="#fc8d59" class="flag">[0]</text>
 <text x="384.8" y="274" class="taxonLabel">Tomteluva perturbata</text>
 <text x="362.8" y="262" fill="#91bfdb" class="flag">[1]</text>
 <text x="384.8" y="262" class="taxonLabel">Yuganotheca elegans</text>
 <text x="362.8" y="382" fill="#fc8d59" class="flag">[0]</text>
 <text x="384.8" y="382" class="taxonLabel">Coolinia pecten</text>
 <text x="362.8" y="370" fill="#fc8d59" class="flag">[0]</text>
 <text x="384.8" y="370" class="taxonLabel">Antigonambonites planus</text>
 <text x="362.8" y="286" fill="#fc8d59" class="flag">[0]</text>
 <text x="384.8" y="286" class="taxonLabel">Kutorgina chengjiangensis</text>
 <text x="386.6" y="298" fill="#fc8d59" class="flag">[0]</text>
 <text x="408.6" y="298" class="taxonLabel">Nisusia sulcata</text>
 <text x="410.5" y="310" fill="#91bfdb" class="flag">[1]</text>
 <text x="432.5" y="310" class="taxonLabel">Glyptoria</text>
 <text x="434.3" y="322" fill="#fc8d59" class="flag">[0]</text>
 <text x="456.3" y="322" class="taxonLabel">Longtancunella chengjiangensis</text>
 <text x="458.2" y="334" fill="#91bfdb" class="flag">[1]</text>
 <text x="480.2" y="334" class="taxonLabel">Alisina</text>
 <text x="482" y="358" fill="#fc8d59" class="flag">[0]</text>
 <text x="504" y="358" class="taxonLabel">Terebratulina</text>
 <text x="482" y="346" fill="#fc8d59" class="flag">[0]</text>
 <text x="504" y="346" class="taxonLabel">Orthis</text>
 <text x="243.5" y="430" fill="#fc8d59" class="flag">[0]</text>
 <text x="265.5" y="430" class="taxonLabel">Micrina</text>
 <text x="243.5" y="418" fill="#fc8d59" class="flag">[0]</text>
 <text x="265.5" y="418" class="taxonLabel">Mickwitzia muralensis</text>
 <text x="195.8" y="454" fill="#fc8d59" class="flag">[0]</text>
 <text x="217.8" y="454" class="taxonLabel">Pedunculotheca diania</text>
 <text x="195.8" y="442" fill="#fc8d59" class="flag">[0]</text>
 <text x="217.8" y="442" class="taxonLabel">Haplophrentis carinatus</text>
 <text x="172" y="478" fill="#fc8d59" class="flag">[0]</text>
 <text x="194" y="478" class="taxonLabel">Sipunculus</text>
 <text x="172" y="466" fill="#fc8d59" class="flag">[0]</text>
 <text x="194" y="466" class="taxonLabel">Serpula</text>
 <text x="172" y="490" fill="#fc8d59" class="flag">[0]</text>
 <text x="194" y="490" class="taxonLabel">Dentalium</text>
 <text x="195.8" y="502" fill="#fc8d59" class="flag">[0]</text>
 <text x="217.8" y="502" class="taxonLabel">Wiwaxia corrugata</text>
 <text x="219.7" y="514" fill="#fc8d59" class="flag">[0]</text>
 <text x="241.7" y="514" class="taxonLabel">Eccentrotheca</text>
 <text x="243.5" y="526" fill="#fc8d59" class="flag">[0]</text>
 <text x="265.5" y="526" class="taxonLabel">Chiton</text>
 <text x="267.4" y="550" fill="lightgrey" class="flag">[-]</text>
 <text x="289.4" y="550" class="taxonLabel">Halkieria evangelista</text>
 <text x="267.4" y="538" fill="#fc8d59" class="flag">[0]</text>
 <text x="289.4" y="538" class="taxonLabel">Dailyatia</text>
 <path d="M5,35.8V7H28.9M5,35.8V64.6H28.9M28.9,64.6V19H52.7M28.9,64.6V110.1H52.7M52.7,110.1V31H76.6M52.7,110.1V189.2H76.6M76.6,189.2V335.5H100.4M100.4,335.5V187.1H124.2M124.2,187.1V55H148.1M124.2,187.1V319.2H148.1M148.1,319.2V193.5H172M172,193.5V67H195.8M172,193.5V319.9H195.8M195.8,319.9V218.8H219.7M219.7,218.8V113H243.5M243.5,113V79H267.4M243.5,113V147.1H267.4M267.4,147.1V113.1H291.2M291.2,113.1V91H315.1M291.2,113.1V135.2H315.1M315.1,135.2V113.5H338.9M338.9,113.5V103H362.8M338.9,113.5V124H362.8M362.8,124V115H386.6M362.8,124V133H386.6M386.6,133V127H410.5M386.6,133V139H410.5M315.1,135.2V157H338.9M338.9,157V151H362.8M338.9,157V163H362.8M267.4,147.1V181H291.2M291.2,181V175H315.1M219.7,218.8V324.6H243.5M243.5,324.6V252.2H267.4M267.4,252.2V209.5H291.2M291.2,209.5V220H315.1M315.1,220V211H338.9M315.1,220V229H338.9M338.9,229V223H362.8M338.9,229V235H362.8M267.4,252.2V295H291.2M291.2,295V256H315.1M315.1,256V247H338.9M315.1,256V265H338.9M338.9,265V259H362.8M386.6,318.2V329.5H410.5M410.5,329.5V319H434.3M410.5,329.5V340H434.3M434.3,340V331H458.2M434.3,340V349H458.2M458.2,349V355H482M243.5,324.6V397H267.4M267.4,397V403H291.2M195.8,319.9V421H219.7M219.7,421V427H243.5M148.1,319.2V445H172M172,445V439H195.8M172,445V451H195.8M100.4,335.5V483.8H124.2M124.2,483.8V469H148.1M148.1,469V463H172M148.1,469V475H172M124.2,483.8V498.6H148.1M148.1,498.6V487H172M148.1,498.6V510.2H172M172,510.2V499H195.8M172,510.2V521.5H195.8M195.8,521.5V511H219.7M195.8,521.5V532H219.7M219.7,532V523H243.5M219.7,532V541H243.5M243.5,541V535H267.4M243.5,541V547H267.4" stroke="#fc8d59"></path>
 <path d="M76.6,189.2V43H100.4" stroke="lightgrey" class="inapplicable"></path>
 <path d="M291.2,181V187H315.1M291.2,209.5V199H315.1M338.9,265V271H362.8M291.2,295V333.9H315.1M315.1,333.9V294.8H338.9M338.9,294.8V283H362.8M338.9,294.8V306.6H362.8M362.8,306.6V295H386.6M362.8,306.6V318.2H386.6M386.6,318.2V307H410.5M458.2,349V343H482M315.1,333.9V373H338.9M338.9,373V367H362.8M338.9,373V379H362.8M267.4,397V391H291.2M219.7,421V415H243.5" stroke="#91bfdb"></path>
 <text x="7" y="38.8" class="node" fill="#4A6FE3">1</text>
 <text x="30.9" y="67.6" class="node" fill="#E495A5">0.25</text>
 <text x="54.7" y="113.1" class="node" fill="#E495A5">0.25</text>
 <text x="78.6" y="192.2" class="node" fill="#E5A5B1">0.3</text>
 <text x="102.4" y="338.5" class="node" fill="#E5A5B1">0.3</text>
 <text x="126.2" y="190.1" class="node" fill="#4A6FE3">1</text>
 <text x="150.1" y="322.2" class="node" fill="#5B78E2">0.96</text>
 <text x="174" y="196.5" class="node" fill="#E49CAA">0.27</text>
 <text x="197.8" y="322.9" class="node" fill="#5B78E2">0.96</text>
 <text x="221.7" y="221.8" class="node" fill="#E5A5B1">0.3</text>
 <text x="245.5" y="116" class="node" fill="#E5A5B1">0.3</text>
 <text x="269.4" y="150.1" class="node" fill="#E5A5B1">0.3</text>
 <text x="293.2" y="116.1" class="node" fill="#DB6581">0.1</text>
 <text x="317.1" y="138.2" class="node" fill="#E5A5B1">0.3</text>
 <text x="340.9" y="116.5" class="node" fill="#E5A8B3">0.31</text>
 <text x="364.8" y="127" class="node" fill="#E5A8B3">0.31</text>
 <text x="388.6" y="136" class="node" fill="#E5A8B3">0.31</text>
 <text x="340.9" y="160" class="node" fill="#E5A5B1">0.3</text>
 <text x="293.2" y="184" class="node" fill="#4A6FE3">1</text>
 <text x="245.5" y="327.6" class="node" fill="#4A6FE3">1</text>
 <text x="269.4" y="255.2" class="node" fill="#DA5E7D">0.08</text>
 <text x="293.2" y="212.5" class="node" fill="#4A6FE3">1</text>
 <text x="317.1" y="223" class="node" fill="#4A6FE3">1</text>
 <text x="340.9" y="232" class="node" fill="#4A6FE3">1</text>
 <text x="293.2" y="298" class="node" fill="#5B78E2">0.96</text>
 <text x="317.1" y="259" class="node" fill="#C1C6E3">0.62</text>
 <text x="340.9" y="268" class="node" fill="#627DE1">0.94</text>
 <text x="317.1" y="336.9" class="node" fill="#4A6FE3">1</text>
 <text x="340.9" y="297.8" class="node" fill="#DDDEE3">0.52</text>
 <text x="364.8" y="309.6" class="node" fill="#DDDEE3">0.52</text>
 <text x="388.6" y="321.2" class="node" fill="#DDDEE3">0.52</text>
 <text x="412.5" y="332.5" class="node" fill="#DDDEE3">0.52</text>
 <text x="436.3" y="343" class="node" fill="#4A6FE3">1</text>
 <text x="460.2" y="352" class="node" fill="#8F9DE1">0.8</text>
 <text x="340.9" y="376" class="node" fill="#4A6FE3">1</text>
 <text x="269.4" y="400" class="node" fill="#4A6FE3">1</text>
 <text x="221.7" y="424" class="node" fill="#E495A5">0.25</text>
 <text x="174" y="448" class="node" fill="#4A6FE3">1</text>
 <text x="126.2" y="486.8" class="node" fill="#E495A5">0.25</text>
 <text x="150.1" y="472" class="node" fill="#4A6FE3">1</text>
 <text x="150.1" y="501.6" class="node" fill="#E495A5">0.25</text>
 <text x="174" y="513.2" class="node" fill="#E495A5">0.25</text>
 <text x="197.8" y="524.5" class="node" fill="#E495A5">0.25</text>
 <text x="221.7" y="535" class="node" fill="#E5A5B1">0.3</text>
 <text x="245.5" y="544" class="node" fill="#7388E1">0.89</text></svg>
