<svg xmlns="http://www.w3.org/2000/svg" version="1.1" width="682" height="612" class="tree" data-char="108"><text x="678" y="15.4" text-anchor="end" class="stepsLabel">Character adds <tspan class="score">2</tspan> to tree score</text><text x="678" y="27.8" text-anchor="end" class="stepsLabel"><tspan class="score">1</tspan> additional region</text><text x="678" y="40.2" text-anchor="end" class="stepsLabel">CI = 1; Fitch CI = 1; Fitch RI = 1</text><text x="678" y="65" text-anchor="end" class="stepsLabel"><tspan dy="16" fill="#34caaf">An optimal tree under:</tspan><tspan x="680" style="font-style:italic" class="notThisAn" dy="1.2em">Equal weights</tspan><tspan x="680" style="font-style:italic" class="notThisAn" dy="1.2em">Implied weights, k = 2</tspan><tspan x="680" style="font-style:italic" class="notThisAn" dy="1.2em">IW, k = 3</tspan><tspan x="680" style="font-style:italic" class="notThisAn" dy="1.2em">IW, k = 4.5</tspan><tspan x="680" style="font-style:italic" class="thisAn" dy="1.2em">IW, k = 7</tspan><tspan x="680" style="font-style:italic" class="notThisAn" dy="1.2em">IW, k = 10.5</tspan><tspan x="680" style="font-style:italic" class="notThisAn" dy="1.2em">IW, k = 16</tspan><tspan x="680" style="font-style:italic" class="notThisAn" dy="1.2em">IW, k = 24</tspan></text><text x="111" y="594.3" fill="lightgrey" class="flag">[-]</text><text x="133" y="594.3" fill="#ccc" class="taxonLabel">Wiwaxia corrugata</text><text x="111" y="607" fill="lightgrey" class="flag">[-]</text><text x="133" y="607" fill="#ccc" class="taxonLabel">Dentalium</text><text x="84.5" y="581.6" fill="lightgrey" class="flag">[-]</text><text x="106.5" y="581.6" fill="#ccc" class="taxonLabel">Tonicella</text><text x="84.5" y="556.2" fill="lightgrey" class="flag">[-]</text><text x="106.5" y="556.2" fill="#ccc" class="taxonLabel">Serpula</text><text x="84.5" y="568.9" fill="lightgrey" class="flag">[-]</text><text x="106.5" y="568.9" fill="#ccc" class="taxonLabel">Sipunculus</text><text x="349.5" y="518.1" fill="lightgrey" class="flag">[-]</text><text x="371.5" y="518.1" fill="#ccc" class="taxonLabel">Coolinia pecten</text><text x="349.5" y="530.8" fill="lightgrey" class="flag">[-]</text><text x="371.5" y="530.8" fill="#ccc" class="taxonLabel">Antigonambonites planus</text><text x="482" y="492.7" fill="lightgrey" class="flag">[-]</text><text x="504" y="492.7" fill="#ccc" class="taxonLabel">Orthis</text><text x="482" y="505.4" fill="lightgrey" class="flag">[-]</text><text x="504" y="505.4" fill="#ccc" class="taxonLabel">Terebratulina</text><text x="455.5" y="480" fill="lightgrey" class="flag">[-]</text><text x="477.5" y="480" fill="#ccc" class="taxonLabel">Alisina</text><text x="429" y="467.3" fill="grey" class="flag">[?]</text><text x="451" y="467.3" fill="#999" class="taxonLabel">Longtancunella chengjiangensis</text><text x="402.5" y="454.6" fill="lightgrey" class="flag">[-]</text><text x="424.5" y="454.6" fill="#ccc" class="taxonLabel">Glyptoria</text><text x="376" y="441.9" fill="lightgrey" class="flag">[-]</text><text x="398" y="441.9" fill="#ccc" class="taxonLabel">Nisusia sulcata</text><text x="349.5" y="429.2" fill="grey" class="flag">[?]</text><text x="371.5" y="429.2" fill="#999" class="taxonLabel">Kutorgina chengjiangensis</text><text x="296.5" y="416.5" fill="lightgrey" class="flag">[-]</text><text x="318.5" y="416.5" fill="#ccc" class="taxonLabel">Tomteluva perturbata</text><text x="270" y="403.8" fill="lightgrey" class="flag">[-]</text><text x="292" y="403.8" fill="#ccc" class="taxonLabel">Salanygolina</text><text x="323" y="378.4" fill="lightgrey" class="flag">[-]</text><text x="345" y="378.4" fill="#ccc" class="taxonLabel">Micromitra</text><text x="323" y="391.1" fill="lightgrey" class="flag">[-]</text><text x="345" y="391.1" fill="#ccc" class="taxonLabel">Gasconsia</text><text x="376" y="353" fill="lightgrey" class="flag">[-]</text><text x="398" y="353" fill="#ccc" class="taxonLabel">Mummpikia nuda</text><text x="376" y="365.7" fill="lightgrey" class="flag">[-]</text><text x="398" y="365.7" fill="#ccc" class="taxonLabel">Botsfordia</text><text x="349.5" y="340.3" fill="lightgrey" class="flag">[-]</text><text x="371.5" y="340.3" fill="#ccc" class="taxonLabel">Eoobolus</text><text x="455.5" y="314.9" fill="lightgrey" class="flag">[-]</text><text x="477.5" y="314.9" fill="#ccc" class="taxonLabel">Acanthotretella spinosa</text><text x="455.5" y="327.6" fill="#abd9e9" class="flag">[2]</text><text x="477.5" y="327.6" fill="#000" class="taxonLabel">Siphonobolus priscus</text><text x="429" y="302.1" fill="#abd9e9" class="flag">[2]</text><text x="451" y="302.1" fill="#000" class="taxonLabel">Clupeafumosus socialis</text><text x="402.5" y="289.4" fill="#abd9e9" class="flag">[2]</text><text x="424.5" y="289.4" fill="#000" class="taxonLabel">Lingulosacculus</text><text x="402.5" y="264" fill="lightgrey" class="flag">[-]</text><text x="424.5" y="264" fill="#ccc" class="taxonLabel">Lingula</text><text x="402.5" y="276.7" fill="#fdae61" class="flag">[1]</text><text x="424.5" y="276.7" fill="#000" class="taxonLabel">Lingulellotreta malongensis</text><text x="349.5" y="251.3" fill="#fdae61" class="flag">[1]</text><text x="371.5" y="251.3" fill="#000" class="taxonLabel">Pelagodiscus atlanticus</text><text x="402.5" y="225.9" fill="lightgrey" class="flag">[-]</text><text x="424.5" y="225.9" fill="#ccc" class="taxonLabel">Craniops</text><text x="402.5" y="238.6" fill="lightgrey" class="flag">[-]</text><text x="424.5" y="238.6" fill="#ccc" class="taxonLabel">Novocrania</text><text x="376" y="213.2" fill="lightgrey" class="flag">[-]</text><text x="398" y="213.2" fill="#ccc" class="taxonLabel">Ussunia</text><text x="349.5" y="200.5" fill="lightgrey" class="flag">[-]</text><text x="371.5" y="200.5" fill="#ccc" class="taxonLabel">Heliomedusa orienta</text><text x="349.5" y="175.1" fill="lightgrey" class="flag">[-]</text><text x="371.5" y="175.1" fill="#ccc" class="taxonLabel">Pedunculotheca diania</text><text x="349.5" y="187.8" fill="lightgrey" class="flag">[-]</text><text x="371.5" y="187.8" fill="#ccc" class="taxonLabel">Haplophrentis carinatus</text><text x="296.5" y="162.4" fill="lightgrey" class="flag">[-]</text><text x="318.5" y="162.4" fill="#ccc" class="taxonLabel">Micrina</text><text x="217" y="149.7" fill="lightgrey" class="flag">[-]</text><text x="239" y="149.7" fill="#ccc" class="taxonLabel">Askepasma toddense</text><text x="217" y="124.3" fill="#2c7bb6" class="flag">[3]</text><text x="239" y="124.3" fill="#000" class="taxonLabel">Mickwitzia muralensis</text><text x="217" y="137" fill="grey" class="flag">[?]</text><text x="239" y="137" fill="#999" class="taxonLabel">Yuganotheca elegans</text><text x="217" y="98.9" fill="lightgrey" class="flag">[-]</text><text x="239" y="98.9" fill="#ccc" class="taxonLabel">Dailyatia</text><text x="217" y="111.6" fill="lightgrey" class="flag">[-]</text><text x="239" y="111.6" fill="#ccc" class="taxonLabel">Halkieria evangelista</text><text x="190.5" y="86.2" fill="lightgrey" class="flag">[-]</text><text x="212.5" y="86.2" fill="#ccc" class="taxonLabel">Paterimitra</text><text x="190.5" y="60.8" fill="lightgrey" class="flag">[-]</text><text x="212.5" y="60.8" fill="#ccc" class="taxonLabel">Phoronis</text><text x="190.5" y="73.5" fill="lightgrey" class="flag">[-]</text><text x="212.5" y="73.5" fill="#ccc" class="taxonLabel">Namacalathus</text><text x="164" y="48.1" fill="lightgrey" class="flag">[-]</text><text x="186" y="48.1" fill="#ccc" class="taxonLabel">Cotyledion tylodes</text><text x="111" y="35.4" fill="lightgrey" class="flag">[-]</text><text x="133" y="35.4" fill="#ccc" class="taxonLabel">Eccentrotheca</text><text x="111" y="10" fill="lightgrey" class="flag">[-]</text><text x="133" y="10" fill="#ccc" class="taxonLabel">Flustra</text><text x="111" y="22.7" fill="lightgrey" class="flag">[-]</text><text x="133" y="22.7" fill="#ccc" class="taxonLabel">Amathia</text><text x="58" y="543.5" fill="lightgrey" class="flag">[-]</text><text x="80" y="543.5" fill="#ccc" class="taxonLabel">Loxosomella</text><path d="M5,431.8V289.8H31.5M31.5,289.8V39H58M58,39V13.4H84.5M84.5,13.4V7H111M84.5,13.4V19.7H111M58,39V64.7H84.5M84.5,64.7V32.4H111M84.5,64.7V97H111M111,97V54.6H137.5M137.5,54.6V45.1H164M137.5,54.6V64.2H164M164,64.2V57.8H190.5M164,64.2V70.5H190.5M111,97V139.4H137.5M137.5,139.4V92.7H164M164,92.7V83.2H190.5M164,92.7V102.3H190.5M190.5,102.3V95.9H217M190.5,102.3V108.6H217M137.5,139.4V186H164M164,186V244.4H190.5M190.5,244.4V146.7H217M190.5,244.4V342H217M217,342V260.2H243.5M243.5,260.2V176.5H270M270,176.5V159.4H296.5M270,176.5V193.6H296.5M296.5,193.6V178.5H323M323,178.5V172.1H349.5M323,178.5V184.8H349.5M296.5,193.6V208.6H323M323,208.6V197.5H349.5M323,208.6V219.8H349.5M349.5,219.8V210.2H376M349.5,219.8V229.3H376M376,229.3V222.9H402.5M376,229.3V235.6H402.5M243.5,260.2V343.9H270M270,343.9V306.1H296.5M376,267.4V261H402.5M429,318.2V311.9H455.5M296.5,306.1V346.8H323M323,346.8V337.3H349.5M323,346.8V356.3H349.5M349.5,356.3V350H376M349.5,356.3V362.7H376M270,343.9V381.7H296.5M296.5,381.7V375.4H323M296.5,381.7V388.1H323M217,342V423.8H243.5M243.5,423.8V400.8H270M243.5,423.8V446.8H270M270,446.8V413.5H296.5M270,446.8V480.1H296.5M296.5,480.1V438.7H323M323,438.7V426.2H349.5M323,438.7V451.2H349.5M349.5,451.2V438.9H376M349.5,451.2V463.5H376M376,463.5V451.6H402.5M376,463.5V475.4H402.5M402.5,475.4V464.3H429M402.5,475.4V486.5H429M429,486.5V477H455.5M429,486.5V496H455.5M455.5,496V489.7H482M455.5,496V502.4H482M296.5,480.1V521.4H323M323,521.4V515.1H349.5M323,521.4V527.8H349.5M31.5,289.8V540.5H58M5,431.8V573.8H31.5M31.5,573.8V559.5H58M58,559.5V553.2H84.5M58,559.5V565.9H84.5M31.5,573.8V588.1H58M58,588.1V578.6H84.5M58,588.1V597.6H84.5M84.5,597.6V591.3H111M84.5,597.6V604H111" stroke="lightgrey" class="inapplicable"></path><path d="M164,186V127.7H190.5M190.5,127.7V121.3H217M190.5,127.7V134H217" stroke="#2c7bb6"></path><path d="M296.5,306.1V265.4H323M323,265.4V248.3H349.5M323,265.4V282.5H349.5M349.5,282.5V267.4H376M376,267.4V273.7H402.5" stroke="#fdae61"></path><path d="M349.5,282.5V297.6H376M376,297.6V286.4H402.5M376,297.6V308.7H402.5M402.5,308.7V299.1H429M402.5,308.7V318.2H429M429,318.2V324.6H455.5" stroke="#abd9e9"></path><text x="7" y="434.8" class="node" fill="#4A6FE3">1</text><text x="33.5" y="292.8" class="node" fill="#4A6FE3">1</text><text x="60" y="42" class="node" fill="#E5CACE">0.42</text><text x="86.5" y="16.4" class="node" fill="#4A6FE3">1</text><text x="86.5" y="67.7" class="node" fill="#E5CACE">0.42</text><text x="113" y="100" class="node" fill="#DB6581">0.1</text><text x="139.5" y="57.6" class="node" fill="#A0ABE2">0.74</text><text x="166" y="67.2" class="node" fill="#5B78E2">0.96</text><text x="139.5" y="142.4" class="node" fill="#E4D6D8">0.46</text><text x="166" y="95.7" class="node" fill="#E5C7CC">0.41</text><text x="192.5" y="105.3" class="node" fill="#E5C7CC">0.41</text><text x="166" y="189" class="node" fill="#E4D6D8">0.46</text><text x="192.5" y="130.7" class="node" fill="#E38C9E">0.22</text><text x="192.5" y="247.4" class="node" fill="#E38C9E">0.22</text><text x="219" y="345" class="node" fill="#E38C9E">0.22</text><text x="245.5" y="263.2" class="node" fill="#E38C9E">0.22</text><text x="272" y="179.5" class="node" fill="#E38C9E">0.22</text><text x="298.5" y="196.6" class="node" fill="#E38C9E">0.22</text><text x="325" y="181.5" class="node" fill="#4A6FE3">1</text><text x="325" y="211.6" class="node" fill="#E38C9E">0.22</text><text x="351.5" y="222.8" class="node" fill="#E4D6D8">0.46</text><text x="378" y="232.3" class="node" fill="#E4D6D8">0.46</text><text x="272" y="346.9" class="node" fill="#E498A7">0.26</text><text x="298.5" y="309.1" class="node" fill="#E4D6D8">0.46</text><text x="325" y="268.4" class="node" fill="#E498A7">0.26</text><text x="351.5" y="285.5" class="node" fill="#E6C1C7">0.39</text><text x="378" y="270.4" class="node" fill="#E5CDD1">0.43</text><text x="378" y="300.6" class="node" fill="#95A1E2">0.78</text><text x="404.5" y="311.7" class="node" fill="#E4D6D8">0.46</text><text x="431" y="321.2" class="node" fill="#4A6FE3">1</text><text x="325" y="349.8" class="node" fill="#E5A8B3">0.31</text><text x="351.5" y="359.3" class="node" fill="#E498A7">0.26</text><text x="298.5" y="384.7" class="node" fill="#E07C92">0.17</text><text x="245.5" y="426.8" class="node" fill="#E49CAA">0.27</text><text x="272" y="449.8" class="node" fill="#E38C9E">0.22</text><text x="298.5" y="483.1" class="node" fill="#5374E2">0.98</text><text x="325" y="441.7" class="node" fill="#CACDE3">0.59</text><text x="351.5" y="454.2" class="node" fill="#CACDE3">0.59</text><text x="378" y="466.5" class="node" fill="#C7CBE3">0.6</text><text x="404.5" y="478.4" class="node" fill="#C7CBE3">0.6</text><text x="431" y="489.5" class="node" fill="#4A6FE3">1</text><text x="457.5" y="499" class="node" fill="#929FE1">0.79</text><text x="325" y="524.4" class="node" fill="#4A6FE3">1</text><text x="33.5" y="576.8" class="node" fill="#4A6FE3">1</text><text x="60" y="562.5" class="node" fill="#4A6FE3">1</text><text x="60" y="591.1" class="node" fill="#4A6FE3">1</text><text x="86.5" y="600.6" class="node" fill="#4A6FE3">1</text></svg>
