<svg xmlns="http://www.w3.org/2000/svg" version="1.1" width="682" height="612" class="tree" data-char="197"><text x="678" y="14.3" text-anchor="end" class="stepsLabel">Character adds <tspan class="score">4</tspan> to tree score</text><text x="678" y="25.6" text-anchor="end" class="stepsLabel"><tspan class="score">0</tspan> additional regions</text><text x="678" y="36.9" text-anchor="end" class="stepsLabel">CI = 0.25; Fitch CI = 0.25; Fitch RI = 0.25</text><text x="678" y="59.5" text-anchor="end" class="stepsLabel"><tspan dy="16" fill="#34caaf">An optimal tree under:</tspan><tspan x="680" style="font-style:italic" class="thisAn" dy="1.2em">Equal weights</tspan><tspan x="680" style="font-style:italic" class="notThisAn" dy="1.2em">Implied weights, k = 2</tspan><tspan x="680" style="font-style:italic" class="notThisAn" dy="1.2em">IW, k = 3</tspan><tspan x="680" style="font-style:italic" class="notThisAn" dy="1.2em">IW, k = 4.5</tspan><tspan x="680" style="font-style:italic" class="notThisAn" dy="1.2em">IW, k = 7</tspan><tspan x="680" style="font-style:italic" class="notThisAn" dy="1.2em">IW, k = 10.5</tspan><tspan x="680" style="font-style:italic" class="notThisAn" dy="1.2em">IW, k = 16</tspan><tspan x="680" style="font-style:italic" class="notThisAn" dy="1.2em">IW, k = 24</tspan></text><text x="95.9" y="595.5" fill="grey" class="flag">[?]</text><text x="117.9" y="595.5" fill="#999" class="taxonLabel">Wiwaxia corrugata</text><text x="95.9" y="607" fill="#e2e2a2" class="flag">[1]</text><text x="117.9" y="607" fill="#000" class="taxonLabel">Dentalium</text><text x="73.1" y="584" fill="#e2e2a2" class="flag">[1]</text><text x="95.1" y="584" fill="#000" class="taxonLabel">Tonicella</text><text x="73.1" y="561.1" fill="#e2e2a2" class="flag">[1]</text><text x="95.1" y="561.1" fill="#000" class="taxonLabel">Serpula</text><text x="73.1" y="572.6" fill="#91bfdb" class="flag">[2]</text><text x="95.1" y="572.6" fill="#000" class="taxonLabel">Sipunculus</text><text x="391.1" y="526.6" fill="grey" class="flag">[?]</text><text x="413.1" y="526.6" fill="#999" class="taxonLabel">Conotheca</text><text x="391.1" y="538.1" fill="grey" class="flag">[?]</text><text x="413.1" y="538.1" fill="#999" class="taxonLabel">Probactrotheca</text><text x="436.6" y="503.7" fill="grey" class="flag">[?]</text><text x="458.6" y="503.7" fill="#999" class="taxonLabel">Maxilites</text><text x="436.6" y="515.2" fill="grey" class="flag">[?]</text><text x="458.6" y="515.2" fill="#999" class="taxonLabel">Pauxillites</text><text x="413.9" y="492.2" fill="grey" class="flag">[?]</text><text x="435.9" y="492.2" fill="#999" class="taxonLabel">Haplophrentis carinatus</text><text x="391.1" y="480.7" fill="grey" class="flag">[?]</text><text x="413.1" y="480.7" fill="#999" class="taxonLabel">Decoritheca</text><text x="345.7" y="469.2" fill="grey" class="flag">[?]</text><text x="367.7" y="469.2" fill="#999" class="taxonLabel">Pedunculotheca diania</text><text x="323" y="457.7" fill="grey" class="flag">[?]</text><text x="345" y="457.7" fill="#999" class="taxonLabel">Paterimitra</text><text x="300.3" y="446.3" fill="grey" class="flag">[?]</text><text x="322.3" y="446.3" fill="#999" class="taxonLabel">Micrina</text><text x="482" y="423.3" fill="grey" class="flag">[?]</text><text x="504" y="423.3" fill="#999" class="taxonLabel">Acanthotretella spinosa</text><text x="482" y="434.8" fill="grey" class="flag">[?]</text><text x="504" y="434.8" fill="#999" class="taxonLabel">Siphonobolus priscus</text><text x="482" y="400.3" fill="grey" class="flag">[?]</text><text x="504" y="400.3" fill="#999" class="taxonLabel">Lingulosacculus</text><text x="482" y="411.8" fill="grey" class="flag">[?]</text><text x="504" y="411.8" fill="#999" class="taxonLabel">Clupeafumosus socialis</text><text x="436.6" y="388.9" fill="grey" class="flag">[?]</text><text x="458.6" y="388.9" fill="#999" class="taxonLabel">Lingulellotreta malongensis</text><text x="413.9" y="377.4" fill="grey" class="flag">[?]</text><text x="435.9" y="377.4" fill="#999" class="taxonLabel">Botsfordia</text><text x="391.1" y="365.9" fill="grey" class="flag">[?]</text><text x="413.1" y="365.9" fill="#999" class="taxonLabel">Mummpikia nuda</text><text x="368.4" y="354.4" fill="grey" class="flag">[?]</text><text x="390.4" y="354.4" fill="#999" class="taxonLabel">Eoobolus</text><text x="345.7" y="342.9" fill="#91bfdb" class="flag">[2]</text><text x="367.7" y="342.9" fill="#000" class="taxonLabel">Lingula</text><text x="345.7" y="320" fill="grey" class="flag">[?]</text><text x="367.7" y="320" fill="#999" class="taxonLabel">Mickwitzia muralensis</text><text x="345.7" y="331.5" fill="#91bfdb" class="flag">[2]</text><text x="367.7" y="331.5" fill="#000" class="taxonLabel">Pelagodiscus atlanticus</text><text x="413.9" y="297" fill="grey" class="flag">[?]</text><text x="435.9" y="297" fill="#999" class="taxonLabel">Coolinia pecten</text><text x="413.9" y="308.5" fill="grey" class="flag">[?]</text><text x="435.9" y="308.5" fill="#999" class="taxonLabel">Antigonambonites planus</text><text x="482" y="274.1" fill="grey" class="flag">[?]</text><text x="504" y="274.1" fill="#999" class="taxonLabel">Alisina</text><text x="482" y="285.5" fill="#e2e2a2" class="flag">[1]</text><text x="504" y="285.5" fill="#000" class="taxonLabel">Terebratulina</text><text x="459.3" y="262.6" fill="grey" class="flag">[?]</text><text x="481.3" y="262.6" fill="#999" class="taxonLabel">Orthis</text><text x="436.6" y="251.1" fill="grey" class="flag">[?]</text><text x="458.6" y="251.1" fill="#999" class="taxonLabel">Glyptoria</text><text x="436.6" y="228.1" fill="grey" class="flag">[?]</text><text x="458.6" y="228.1" fill="#999" class="taxonLabel">Kutorgina chengjiangensis</text><text x="436.6" y="239.6" fill="grey" class="flag">[?]</text><text x="458.6" y="239.6" fill="#999" class="taxonLabel">Nisusia sulcata</text><text x="368.4" y="216.7" fill="grey" class="flag">[?]</text><text x="390.4" y="216.7" fill="#999" class="taxonLabel">Longtancunella chengjiangensis</text><text x="391.1" y="193.7" fill="grey" class="flag">[?]</text><text x="413.1" y="193.7" fill="#999" class="taxonLabel">Yuganotheca elegans</text><text x="391.1" y="205.2" fill="grey" class="flag">[?]</text><text x="413.1" y="205.2" fill="#999" class="taxonLabel">Tomteluva perturbata</text><text x="368.4" y="182.2" fill="grey" class="flag">[?]</text><text x="390.4" y="182.2" fill="#999" class="taxonLabel">Salanygolina</text><text x="345.7" y="159.2" fill="grey" class="flag">[?]</text><text x="367.7" y="159.2" fill="#999" class="taxonLabel">Micromitra</text><text x="345.7" y="170.7" fill="grey" class="flag">[?]</text><text x="367.7" y="170.7" fill="#999" class="taxonLabel">Askepasma toddense</text><text x="254.9" y="147.8" fill="grey" class="flag">[?]</text><text x="276.9" y="147.8" fill="#999" class="taxonLabel">Heliomedusa orienta</text><text x="232.1" y="136.3" fill="grey" class="flag">[?]</text><text x="254.1" y="136.3" fill="#999" class="taxonLabel">Gasconsia</text><text x="254.9" y="113.3" fill="#91bfdb" class="flag">[2]</text><text x="276.9" y="113.3" fill="#000" class="taxonLabel">Novocrania</text><text x="254.9" y="124.8" fill="grey" class="flag">[?]</text><text x="276.9" y="124.8" fill="#999" class="taxonLabel">Craniops</text><text x="232.1" y="101.8" fill="grey" class="flag">[?]</text><text x="254.1" y="101.8" fill="#999" class="taxonLabel">Ussunia</text><text x="186.7" y="90.4" fill="grey" class="flag">[?]</text><text x="208.7" y="90.4" fill="#999" class="taxonLabel">Halkieria evangelista</text><text x="186.7" y="67.4" fill="grey" class="flag">[?]</text><text x="208.7" y="67.4" fill="#999" class="taxonLabel">Namacalathus</text><text x="186.7" y="78.9" fill="grey" class="flag">[?]</text><text x="208.7" y="78.9" fill="#999" class="taxonLabel">Cotyledion tylodes</text><text x="141.3" y="55.9" fill="grey" class="flag">[?]</text><text x="163.3" y="55.9" fill="#999" class="taxonLabel">Eccentrotheca</text><text x="118.6" y="44.4" fill="grey" class="flag">[?]</text><text x="140.6" y="44.4" fill="#999" class="taxonLabel">Dailyatia</text><text x="95.9" y="33" fill="#e2e2a2" class="flag">[1]</text><text x="117.9" y="33" fill="#000" class="taxonLabel">Phoronis</text><text x="95.9" y="10" fill="#91bfdb" class="flag">[2]</text><text x="117.9" y="10" fill="#000" class="taxonLabel">Flustra</text><text x="95.9" y="21.5" fill="#91bfdb" class="flag">[2]</text><text x="117.9" y="21.5" fill="#000" class="taxonLabel">Amathia</text><text x="50.4" y="549.6" fill="lightgrey" class="flag">[-]</text><text x="72.4" y="549.6" fill="#ccc" class="taxonLabel">Loxosomella</text><path d="M5,432.1V287.4H27.7M27.7,287.4V28.3H50.4M50.4,28.3V43.8H73.1M73.1,43.8V57.6H95.9M95.9,57.6V41.4H118.6M95.9,57.6V73.7H118.6M118.6,73.7V52.9H141.3M118.6,73.7V94.5H141.3M141.3,94.5V70.1H164M164,70.1V64.4H186.7M164,70.1V75.9H186.7M141.3,94.5V118.8H164M164,118.8V87.4H186.7M164,118.8V150.2H186.7M186.7,150.2V107.5H209.4M209.4,107.5V98.8H232.1M209.4,107.5V116.1H232.1M232.1,116.1V121.8H254.9M186.7,150.2V192.8H209.4M209.4,192.8V133.3H232.1M209.4,192.8V252.4H232.1M232.1,252.4V144.8H254.9M232.1,252.4V360H254.9M254.9,360V262.9H277.6M277.6,262.9V188.7H300.3M300.3,188.7V162H323M323,162V156.2H345.7M323,162V167.7H345.7M300.3,188.7V215.4H323M323,215.4V187.8H345.7M345.7,187.8V179.2H368.4M345.7,187.8V196.4H368.4M368.4,196.4V190.7H391.1M368.4,196.4V202.2H391.1M323,215.4V242.9H345.7M345.7,242.9V213.7H368.4M345.7,242.9V272.1H368.4M368.4,272.1V244.5H391.1M391.1,244.5V230.9H413.9M413.9,230.9V225.1H436.6M413.9,230.9V236.6H436.6M391.1,244.5V258.1H413.9M413.9,258.1V248.1H436.6M413.9,258.1V268.2H436.6M436.6,268.2V259.6H459.3M436.6,268.2V276.8H459.3M459.3,276.8V271.1H482M368.4,272.1V299.8H391.1M391.1,299.8V294H413.9M391.1,299.8V305.5H413.9M254.9,360V457.2H277.6M277.6,457.2V443.3H300.3M277.6,457.2V471.1H300.3M300.3,471.1V454.7H323M300.3,471.1V487.4H323M323,487.4V466.2H345.7M323,487.4V508.6H345.7M345.7,508.6V487.8H368.4M368.4,487.8V477.7H391.1M368.4,487.8V497.8H391.1M391.1,497.8V489.2H413.9M391.1,497.8V506.4H413.9M413.9,506.4V500.7H436.6M413.9,506.4V512.2H436.6M345.7,508.6V529.4H368.4M368.4,529.4V523.6H391.1M368.4,529.4V535.1H391.1M5,432.1V576.7H27.7M27.7,576.7V563.8H50.4" stroke="darkgrey"></path><path d="M50.4,28.3V12.7H73.1M73.1,12.7V7H95.9M73.1,12.7V18.5H95.9M232.1,116.1V110.3H254.9M277.6,262.9V337.2H300.3M300.3,337.2V322.7H323M323,322.7V317H345.7M323,322.7V328.5H345.7M300.3,337.2V351.6H323M323,351.6V339.9H345.7M323,351.6V363.3H345.7M345.7,363.3V351.4H368.4M345.7,363.3V375.1H368.4M368.4,375.1V362.9H391.1M368.4,375.1V387.3H391.1M391.1,387.3V374.4H413.9M391.1,387.3V400.2H413.9M413.9,400.2V385.9H436.6M413.9,400.2V414.6H436.6M436.6,414.6V403.1H459.3M459.3,403.1V397.3H482M459.3,403.1V408.8H482M436.6,414.6V426H459.3M459.3,426V420.3H482M459.3,426V431.8H482M50.4,563.8V569.6H73.1" stroke="#91bfdb"></path><path d="M73.1,43.8V30H95.9M459.3,276.8V282.5H482M50.4,563.8V558.1H73.1M27.7,576.7V589.6H50.4M50.4,589.6V581H73.1M50.4,589.6V598.3H73.1M73.1,598.3V592.5H95.9M73.1,598.3V604H95.9" stroke="#e2e2a2"></path><path d="M27.7,287.4V546.6H50.4" stroke="lightgrey" class="inapplicable"></path><text x="7" y="435.1" class="node" fill="#4A6FE3">1</text><text x="29.7" y="290.4" class="node" fill="#4A6FE3">1</text><text x="52.4" y="31.3" class="node" fill="#4A6FE3">1</text><text x="75.1" y="15.7" class="node" fill="#4A6FE3">1</text><text x="75.1" y="46.8" class="node" fill="#4A6FE3">1</text><text x="97.9" y="60.6" class="node" fill="#4A6FE3">1</text><text x="120.6" y="76.7" class="node" fill="#E38FA0">0.23</text><text x="143.3" y="97.5" class="node" fill="#7388E1">0.89</text><text x="166" y="73.1" class="node" fill="#7388E1">0.89</text><text x="166" y="121.8" class="node" fill="#4A6FE3">1</text><text x="188.7" y="153.2" class="node" fill="#4A6FE3">1</text><text x="211.4" y="110.5" class="node" fill="#4A6FE3">1</text><text x="234.1" y="119.1" class="node" fill="#4A6FE3">1</text><text x="211.4" y="195.8" class="node" fill="#4A6FE3">1</text><text x="234.1" y="255.4" class="node" fill="#4A6FE3">1</text><text x="256.9" y="363" class="node" fill="#4A6FE3">1</text><text x="279.6" y="265.9" class="node" fill="#4A6FE3">1</text><text x="302.3" y="191.7" class="node" fill="#6982E1">0.92</text><text x="325" y="165" class="node" fill="#4A6FE3">1</text><text x="325" y="218.4" class="node" fill="#4A6FE3">1</text><text x="347.7" y="190.8" class="node" fill="#E5D0D3">0.44</text><text x="370.4" y="199.4" class="node" fill="#5374E2">0.98</text><text x="347.7" y="245.9" class="node" fill="#B1B8E2">0.68</text><text x="370.4" y="275.1" class="node" fill="#8F9DE1">0.8</text><text x="393.1" y="247.5" class="node" fill="#8394E1">0.84</text><text x="415.9" y="233.9" class="node" fill="#E5A8B3">0.31</text><text x="415.9" y="261.1" class="node" fill="#6D84E1">0.91</text><text x="438.6" y="271.2" class="node" fill="#667FE1">0.93</text><text x="461.3" y="279.8" class="node" fill="#E6C1C7">0.39</text><text x="393.1" y="302.8" class="node" fill="#4A6FE3">1</text><text x="302.3" y="340.2" class="node" fill="#4A6FE3">1</text><text x="325" y="325.7" class="node" fill="#4A6FE3">1</text><text x="325" y="354.6" class="node" fill="#4A6FE3">1</text><text x="347.7" y="366.3" class="node" fill="#4A6FE3">1</text><text x="370.4" y="378.1" class="node" fill="#8091E1">0.85</text><text x="393.1" y="390.3" class="node" fill="#8091E1">0.85</text><text x="415.9" y="403.2" class="node" fill="#8091E1">0.85</text><text x="438.6" y="417.6" class="node" fill="#C1C6E3">0.62</text><text x="461.3" y="406.1" class="node" fill="#E38FA0">0.23</text><text x="461.3" y="429" class="node" fill="#4A6FE3">1</text><text x="279.6" y="460.2" class="node" fill="#4A6FE3">1</text><text x="302.3" y="474.1" class="node" fill="#4A6FE3">1</text><text x="325" y="490.4" class="node" fill="#4A6FE3">1</text><text x="347.7" y="511.6" class="node" fill="#4A6FE3">1</text><text x="370.4" y="490.8" class="node" fill="#E07C92">0.17</text><text x="393.1" y="500.8" class="node" fill="#E3DFE0">0.49</text><text x="415.9" y="509.4" class="node" fill="#4A6FE3">1</text><text x="370.4" y="532.4" class="node" fill="#4A6FE3">1</text><text x="29.7" y="579.7" class="node" fill="#4A6FE3">1</text><text x="52.4" y="566.8" class="node" fill="#4A6FE3">1</text><text x="52.4" y="592.6" class="node" fill="#4A6FE3">1</text><text x="75.1" y="601.3" class="node" fill="#4A6FE3">1</text></svg>
