<svg xmlns="http://www.w3.org/2000/svg" version="1.1" width="682" height="682" class="tree" data-char="87"><text x="678" y="15.4" text-anchor="end" class="stepsLabel">Character adds <tspan class="score">1</tspan> to tree score</text><text x="678" y="27.8" text-anchor="end" class="stepsLabel"><tspan class="score">0</tspan> additional regions</text><text x="678" y="40.2" text-anchor="end" class="stepsLabel">CI = 1; Fitch CI = 1; Fitch RI = 1</text><text x="678" y="65" text-anchor="end" class="stepsLabel"><tspan dy="16" fill="#34caaf">An optimal tree under:</tspan><tspan x="680" style="font-style:italic" class="thisAn" dy="1.2em">Equal weights</tspan><tspan x="680" style="font-style:italic" class="notThisAn" dy="1.2em">Implied weights, k = 3</tspan><tspan x="680" style="font-style:italic" class="notThisAn" dy="1.2em">IW, k = 4.5</tspan><tspan x="680" style="font-style:italic" class="notThisAn" dy="1.2em">IW, k = 7</tspan><tspan x="680" style="font-style:italic" class="notThisAn" dy="1.2em">IW, k = 10.5</tspan><tspan x="680" style="font-style:italic" class="notThisAn" dy="1.2em">IW, k = 16</tspan><tspan x="680" style="font-style:italic" class="notThisAn" dy="1.2em">IW, k = 24</tspan></text><text x="91.7" y="664.4" fill="#fc8d59" class="flag">[0]</text><text x="113.7" y="664.4" fill="#000" class="taxonLabel">Tonicella</text><text x="91.7" y="677" fill="#fc8d59" class="flag">[0]</text><text x="113.7" y="677" fill="#000" class="taxonLabel">Dentalium</text><text x="70" y="651.8" fill="#fc8d59" class="flag">[0]</text><text x="92" y="651.8" fill="#000" class="taxonLabel">Wiwaxia corrugata</text><text x="70" y="626.7" fill="#fc8d59" class="flag">[0]</text><text x="92" y="626.7" fill="#000" class="taxonLabel">Serpula</text><text x="70" y="639.2" fill="#fc8d59" class="flag">[0]</text><text x="92" y="639.2" fill="#000" class="taxonLabel">Sipunculus</text><text x="308.5" y="601.5" fill="grey" class="flag">[?]</text><text x="330.5" y="601.5" fill="#999" class="taxonLabel">Maxilites</text><text x="308.5" y="614.1" fill="grey" class="flag">[?]</text><text x="330.5" y="614.1" fill="#999" class="taxonLabel">Pauxillites</text><text x="286.9" y="588.9" fill="grey" class="flag">[?]</text><text x="308.9" y="588.9" fill="#999" class="taxonLabel">Haplophrentis carinatus</text><text x="330.2" y="563.7" fill="grey" class="flag">[?]</text><text x="352.2" y="563.7" fill="#999" class="taxonLabel">Conotheca</text><text x="330.2" y="576.3" fill="grey" class="flag">[?]</text><text x="352.2" y="576.3" fill="#999" class="taxonLabel">Bactrotheca</text><text x="308.5" y="551.2" fill="grey" class="flag">[?]</text><text x="330.5" y="551.2" fill="#999" class="taxonLabel">Cupitheca holocyclata</text><text x="286.9" y="538.6" fill="grey" class="flag">[?]</text><text x="308.9" y="538.6" fill="#999" class="taxonLabel">Paramicrocornus</text><text x="243.5" y="526" fill="grey" class="flag">[?]</text><text x="265.5" y="526" fill="#999" class="taxonLabel">Pedunculotheca diania</text><text x="308.5" y="500.8" fill="grey" class="flag">[?]</text><text x="330.5" y="500.8" fill="#999" class="taxonLabel">Heliomedusa orienta</text><text x="308.5" y="513.4" fill="grey" class="flag">[?]</text><text x="330.5" y="513.4" fill="#999" class="taxonLabel">Mickwitzia muralensis</text><text x="286.9" y="488.2" fill="grey" class="flag">[?]</text><text x="308.9" y="488.2" fill="#999" class="taxonLabel">Micrina</text><text x="460.3" y="463.1" fill="#fc8d59" class="flag">[0]</text><text x="482.3" y="463.1" fill="#000" class="taxonLabel">Orthis</text><text x="460.3" y="475.6" fill="#fc8d59" class="flag">[0]</text><text x="482.3" y="475.6" fill="#000" class="taxonLabel">Terebratulina</text><text x="438.6" y="450.5" fill="#fc8d59" class="flag">[0]</text><text x="460.6" y="450.5" fill="#000" class="taxonLabel">Alisina</text><text x="417" y="437.9" fill="grey" class="flag">[?]</text><text x="439" y="437.9" fill="#999" class="taxonLabel">Longtancunella chengjiangensis</text><text x="395.3" y="425.3" fill="#fc8d59" class="flag">[0]</text><text x="417.3" y="425.3" fill="#000" class="taxonLabel">Glyptoria</text><text x="417" y="400.1" fill="#fc8d59" class="flag">[0]</text><text x="439" y="400.1" fill="#000" class="taxonLabel">Nisusia sulcata</text><text x="417" y="412.7" fill="grey" class="flag">[?]</text><text x="439" y="412.7" fill="#999" class="taxonLabel">Tomteluva perturbata</text><text x="395.3" y="387.5" fill="#fc8d59" class="flag">[0]</text><text x="417.3" y="387.5" fill="#000" class="taxonLabel">Kutorgina chengjiangensis</text><text x="373.6" y="362.4" fill="#fc8d59" class="flag">[0]</text><text x="395.6" y="362.4" fill="#000" class="taxonLabel">Coolinia pecten</text><text x="373.6" y="375" fill="#fc8d59" class="flag">[0]</text><text x="395.6" y="375" fill="#000" class="taxonLabel">Antigonambonites planus</text><text x="330.2" y="349.8" fill="#fc8d59" class="flag">[0]</text><text x="352.2" y="349.8" fill="#000" class="taxonLabel">Salanygolina</text><text x="330.2" y="324.6" fill="#fc8d59" class="flag">[0]</text><text x="352.2" y="324.6" fill="#000" class="taxonLabel">Micromitra</text><text x="330.2" y="337.2" fill="grey" class="flag">[?]</text><text x="352.2" y="337.2" fill="#999" class="taxonLabel">Askepasma toddense</text><text x="482" y="299.5" fill="#91bfdb" class="flag">[1]</text><text x="504" y="299.5" fill="#000" class="taxonLabel">Acanthotretella spinosa</text><text x="482" y="312" fill="grey" class="flag">[?]</text><text x="504" y="312" fill="#999" class="taxonLabel">Siphonobolus priscus</text><text x="460.3" y="286.9" fill="#91bfdb" class="flag">[1]</text><text x="482.3" y="286.9" fill="#000" class="taxonLabel">Lingulosacculus</text><text x="438.6" y="274.3" fill="#91bfdb" class="flag">[1]</text><text x="460.6" y="274.3" fill="#000" class="taxonLabel">Clupeafumosus socialis</text><text x="417" y="261.7" fill="#91bfdb" class="flag">[1]</text><text x="439" y="261.7" fill="#000" class="taxonLabel">Lingulellotreta malongensis</text><text x="417" y="236.5" fill="#91bfdb" class="flag">[1]</text><text x="439" y="236.5" fill="#000" class="taxonLabel">Pelagodiscus atlanticus</text><text x="417" y="249.1" fill="grey" class="flag">[?]</text><text x="439" y="249.1" fill="#999" class="taxonLabel">Mummpikia nuda</text><text x="373.6" y="223.9" fill="grey" class="flag">[?]</text><text x="395.6" y="223.9" fill="#999" class="taxonLabel">Botsfordia</text><text x="351.9" y="211.4" fill="grey" class="flag">[?]</text><text x="373.9" y="211.4" fill="#999" class="taxonLabel">Eoobolus</text><text x="330.2" y="198.8" fill="#91bfdb" class="flag">[1]</text><text x="352.2" y="198.8" fill="#000" class="taxonLabel">Lingula</text><text x="373.6" y="173.6" fill="grey" class="flag">[?]</text><text x="395.6" y="173.6" fill="#999" class="taxonLabel">Craniops</text><text x="373.6" y="186.2" fill="#fc8d59" class="flag">[0]</text><text x="395.6" y="186.2" fill="#000" class="taxonLabel">Novocrania</text><text x="351.9" y="161" fill="grey" class="flag">[?]</text><text x="373.9" y="161" fill="#999" class="taxonLabel">Ussunia</text><text x="330.2" y="148.4" fill="#fc8d59" class="flag">[0]</text><text x="352.2" y="148.4" fill="#000" class="taxonLabel">Gasconsia</text><text x="243.5" y="135.8" fill="grey" class="flag">[?]</text><text x="265.5" y="135.8" fill="#999" class="taxonLabel">Yuganotheca elegans</text><text x="200.1" y="123.3" fill="grey" class="flag">[?]</text><text x="222.1" y="123.3" fill="#999" class="taxonLabel">Paterimitra</text><text x="178.5" y="110.7" fill="#fc8d59" class="flag">[0]</text><text x="200.5" y="110.7" fill="#000" class="taxonLabel">Halkieria evangelista</text><text x="156.8" y="98.1" fill="#fc8d59" class="flag">[0]</text><text x="178.8" y="98.1" fill="#000" class="taxonLabel">Dailyatia</text><text x="135.1" y="85.5" fill="#fc8d59" class="flag">[0]</text><text x="157.1" y="85.5" fill="#000" class="taxonLabel">Eccentrotheca</text><text x="113.4" y="72.9" fill="#fc8d59" class="flag">[0]</text><text x="135.4" y="72.9" fill="#000" class="taxonLabel">Cotyledion tylodes</text><text x="113.4" y="47.8" fill="#fc8d59" class="flag">[0]</text><text x="135.4" y="47.8" fill="#000" class="taxonLabel">Namacalathus</text><text x="113.4" y="60.3" fill="#fc8d59" class="flag">[0]</text><text x="135.4" y="60.3" fill="#000" class="taxonLabel">Phoronis</text><text x="91.7" y="22.6" fill="#fc8d59" class="flag">[0]</text><text x="113.7" y="22.6" fill="#000" class="taxonLabel">Flustra</text><text x="91.7" y="35.2" fill="#fc8d59" class="flag">[0]</text><text x="113.7" y="35.2" fill="#000" class="taxonLabel">Amathia</text><text x="48.4" y="10" fill="#fc8d59" class="flag">[0]</text><text x="70.4" y="10" fill="#000" class="taxonLabel">Loxosomella</text><path d="M5,335.9V27.7H26.7M26.7,27.7V7H48.4M26.7,27.7V48.3H48.4M48.4,48.3V25.9H70M70,25.9V19.6H91.7M70,25.9V32.2H91.7M48.4,48.3V70.8H70M70,70.8V51H91.7M91.7,51V44.8H113.4M91.7,51V57.3H113.4M70,70.8V90.5H91.7M91.7,90.5V69.9H113.4M91.7,90.5V111.1H113.4M113.4,111.1V82.5H135.1M113.4,111.1V139.7H135.1M135.1,139.7V95.1H156.8M135.1,139.7V184.3H156.8M156.8,184.3V107.7H178.5M156.8,184.3V261H178.5M178.5,261V120.3H200.1M178.5,261V401.7H200.1M200.1,401.7V256.5H221.8M221.8,256.5V132.8H243.5M221.8,256.5V380.1H243.5M243.5,380.1V265.5H265.2M265.2,265.5V183H286.9M286.9,183V156.4H308.5M308.5,156.4V145.4H330.2M308.5,156.4V167.5H330.2M330.2,167.5V158H351.9M330.2,167.5V176.9H351.9M351.9,176.9V170.6H373.6M351.9,176.9V183.2H373.6M265.2,265.5V348.1H286.9M286.9,348.1V327.9H308.5M308.5,327.9V321.6H330.2M308.5,327.9V334.2H330.2M286.9,348.1V368.3H308.5M308.5,368.3V346.8H330.2M308.5,368.3V389.9H330.2M330.2,389.9V365.7H351.9M351.9,365.7V359.4H373.6M351.9,365.7V372H373.6M330.2,389.9V414H351.9M351.9,414V394H373.6M373.6,394V384.5H395.3M373.6,394V403.4H395.3M395.3,403.4V397.1H417M395.3,403.4V409.7H417M351.9,414V434.1H373.6M373.6,434.1V422.3H395.3M373.6,434.1V445.9H395.3M395.3,445.9V434.9H417M395.3,445.9V456.9H417M417,456.9V447.5H438.6M417,456.9V466.3H438.6M438.6,466.3V460.1H460.3M438.6,466.3V472.6H460.3M243.5,380.1V494.7H265.2M265.2,494.7V485.2H286.9M265.2,494.7V504.1H286.9M286.9,504.1V497.8H308.5M286.9,504.1V510.4H308.5M200.1,401.7V547H221.8M221.8,547V523H243.5M221.8,547V571H243.5M243.5,571V546.6H265.2M265.2,546.6V535.6H286.9M265.2,546.6V557.6H286.9M286.9,557.6V548.2H308.5M286.9,557.6V567H308.5M308.5,567V560.7H330.2M308.5,567V573.3H330.2M243.5,571V595.3H265.2M265.2,595.3V585.9H286.9M265.2,595.3V604.8H286.9M286.9,604.8V598.5H308.5M286.9,604.8V611.1H308.5M5,335.9V644.1H26.7M26.7,644.1V630H48.4M48.4,630V623.7H70M48.4,630V636.2H70M26.7,644.1V658.3H48.4M48.4,658.3V648.8H70M48.4,658.3V667.7H70M70,667.7V661.4H91.7M70,667.7V674H91.7" stroke="#fc8d59"></path><path d="M286.9,183V209.5H308.5M308.5,209.5V195.8H330.2M308.5,209.5V223.2H330.2M330.2,223.2V208.4H351.9M330.2,223.2V238.1H351.9M351.9,238.1V220.9H373.6M351.9,238.1V255.2H373.6M373.6,255.2V239.8H395.3M395.3,239.8V233.5H417M395.3,239.8V246.1H417M373.6,255.2V270.5H395.3M395.3,270.5V258.7H417M395.3,270.5V282.3H417M417,282.3V271.3H438.6M417,282.3V293.3H438.6M438.6,293.3V283.9H460.3M438.6,293.3V302.7H460.3M460.3,302.7V296.5H482M460.3,302.7V309H482" stroke="#91bfdb"></path><text x="28.7" y="30.7" class="node" fill="#4A6FE3">1</text><text x="50.4" y="51.3" class="node" fill="#4A6FE3">1</text><text x="72" y="28.9" class="node" fill="red">NA</text><text x="72" y="73.8" class="node" fill="red">NA</text><text x="93.7" y="54" class="node" fill="#4A6FE3">1</text><text x="93.7" y="93.5" class="node" fill="red">NA</text><text x="115.4" y="114.1" class="node" fill="red">NA</text><text x="137.1" y="142.7" class="node" fill="red">NA</text><text x="158.8" y="187.3" class="node" fill="red">NA</text><text x="180.5" y="264" class="node" fill="red">NA</text><text x="202.1" y="404.7" class="node" fill="red">NA</text><text x="223.8" y="259.5" class="node" fill="red">NA</text><text x="245.5" y="383.1" class="node" fill="red">NA</text><text x="267.2" y="268.5" class="node" fill="red">NA</text><text x="288.9" y="186" class="node" fill="red">NA</text><text x="310.5" y="159.4" class="node" fill="red">NA</text><text x="332.2" y="170.5" class="node" fill="red">NA</text><text x="353.9" y="179.9" class="node" fill="red">NA</text><text x="310.5" y="212.5" class="node" fill="red">NA</text><text x="332.2" y="226.2" class="node" fill="red">NA</text><text x="353.9" y="241.1" class="node" fill="red">NA</text><text x="375.6" y="258.2" class="node" fill="red">NA</text><text x="397.3" y="242.8" class="node" fill="red">NA</text><text x="397.3" y="273.5" class="node" fill="red">NA</text><text x="419" y="285.3" class="node" fill="red">NA</text><text x="440.6" y="296.3" class="node" fill="red">NA</text><text x="462.3" y="305.7" class="node" fill="red">NA</text><text x="288.9" y="351.1" class="node" fill="red">NA</text><text x="310.5" y="330.9" class="node" fill="red">NA</text><text x="310.5" y="371.3" class="node" fill="red">NA</text><text x="332.2" y="392.9" class="node" fill="red">NA</text><text x="353.9" y="368.7" class="node" fill="red">NA</text><text x="353.9" y="417" class="node" fill="red">NA</text><text x="375.6" y="397" class="node" fill="#4A6FE3">1</text><text x="397.3" y="406.4" class="node" fill="red">NA</text><text x="375.6" y="437.1" class="node" fill="red">NA</text><text x="397.3" y="448.9" class="node" fill="red">NA</text><text x="419" y="459.9" class="node" fill="red">NA</text><text x="440.6" y="469.3" class="node" fill="red">NA</text><text x="267.2" y="497.7" class="node" fill="red">NA</text><text x="288.9" y="507.1" class="node" fill="red">NA</text><text x="223.8" y="550" class="node" fill="#5F7BE1">0.95</text><text x="245.5" y="574" class="node" fill="#5F7BE1">0.95</text><text x="267.2" y="549.6" class="node" fill="red">NA</text><text x="288.9" y="560.6" class="node" fill="red">NA</text><text x="310.5" y="570" class="node" fill="red">NA</text><text x="267.2" y="598.3" class="node" fill="#5F7BE1">0.95</text><text x="288.9" y="607.8" class="node" fill="#4A6FE3">1</text><text x="28.7" y="647.1" class="node" fill="red">NA</text><text x="50.4" y="633" class="node" fill="red">NA</text><text x="50.4" y="661.3" class="node" fill="red">NA</text><text x="72" y="670.7" class="node" fill="red">NA</text></svg>
