<svg xmlns="http://www.w3.org/2000/svg" version="1.1" width="682" height="612" class="tree" data-char="204"><text x="678" y="14.1" text-anchor="end" class="stepsLabel">Character adds <tspan class="score">1</tspan> to tree score</text><text x="678" y="25.2" text-anchor="end" class="stepsLabel"><tspan class="score">0</tspan> additional regions</text><text x="678" y="36.3" text-anchor="end" class="stepsLabel">CI = 1; Fitch CI = 1; Fitch RI = 1</text><text x="678" y="58.5" text-anchor="end" class="stepsLabel"><tspan dy="16" fill="#34caaf">An optimal tree under:</tspan><tspan x="680" style="font-style:italic" class="notThisAn" dy="1.2em">Equal weights</tspan><tspan x="680" style="font-style:italic" class="thisAn" dy="1.2em">Implied weights, k = 2</tspan><tspan x="680" style="font-style:italic" class="notThisAn" dy="1.2em">IW, k = 3</tspan><tspan x="680" style="font-style:italic" class="notThisAn" dy="1.2em">IW, k = 4.5</tspan><tspan x="680" style="font-style:italic" class="notThisAn" dy="1.2em">IW, k = 7</tspan><tspan x="680" style="font-style:italic" class="notThisAn" dy="1.2em">IW, k = 10.5</tspan><tspan x="680" style="font-style:italic" class="notThisAn" dy="1.2em">IW, k = 16</tspan><tspan x="680" style="font-style:italic" class="notThisAn" dy="1.2em">IW, k = 24</tspan></text><text x="105.4" y="595.7" fill="#91bfdb" class="flag">[1]</text><text x="127.4" y="595.7" fill="#000" class="taxonLabel">Dentalium</text><text x="105.4" y="607" fill="grey" class="flag">[?]</text><text x="127.4" y="607" fill="#999" class="taxonLabel">Wiwaxia corrugata</text><text x="80.3" y="584.5" fill="#91bfdb" class="flag">[1]</text><text x="102.3" y="584.5" fill="#000" class="taxonLabel">Tonicella</text><text x="80.3" y="561.9" fill="#91bfdb" class="flag">[1]</text><text x="102.3" y="561.9" fill="#000" class="taxonLabel">Sipunculus</text><text x="80.3" y="573.2" fill="#91bfdb" class="flag">[1]</text><text x="102.3" y="573.2" fill="#000" class="taxonLabel">Serpula</text><text x="180.7" y="528.2" fill="grey" class="flag">[?]</text><text x="202.7" y="528.2" fill="#999" class="taxonLabel">Dailyatia</text><text x="180.7" y="539.4" fill="grey" class="flag">[?]</text><text x="202.7" y="539.4" fill="#999" class="taxonLabel">Halkieria evangelista</text><text x="205.8" y="505.6" fill="grey" class="flag">[?]</text><text x="227.8" y="505.6" fill="#999" class="taxonLabel">Namacalathus</text><text x="205.8" y="516.9" fill="#fc8d59" class="flag">[0]</text><text x="227.8" y="516.9" fill="#000" class="taxonLabel">Phoronis</text><text x="205.8" y="483.1" fill="grey" class="flag">[?]</text><text x="227.8" y="483.1" fill="#999" class="taxonLabel">Eccentrotheca</text><text x="205.8" y="494.4" fill="grey" class="flag">[?]</text><text x="227.8" y="494.4" fill="#999" class="taxonLabel">Cotyledion tylodes</text><text x="230.9" y="460.6" fill="grey" class="flag">[?]</text><text x="252.9" y="460.6" fill="#999" class="taxonLabel">Pauxillites</text><text x="230.9" y="471.8" fill="grey" class="flag">[?]</text><text x="252.9" y="471.8" fill="#999" class="taxonLabel">Maxilites</text><text x="205.8" y="449.3" fill="grey" class="flag">[?]</text><text x="227.8" y="449.3" fill="#999" class="taxonLabel">Paramicrocornus</text><text x="180.7" y="438" fill="grey" class="flag">[?]</text><text x="202.7" y="438" fill="#999" class="taxonLabel">Haplophrentis carinatus</text><text x="205.8" y="415.5" fill="grey" class="flag">[?]</text><text x="227.8" y="415.5" fill="#999" class="taxonLabel">Probactrotheca</text><text x="205.8" y="426.8" fill="grey" class="flag">[?]</text><text x="227.8" y="426.8" fill="#999" class="taxonLabel">Conotheca</text><text x="180.7" y="404.2" fill="grey" class="flag">[?]</text><text x="202.7" y="404.2" fill="#999" class="taxonLabel">Decoritheca</text><text x="381.6" y="381.7" fill="grey" class="flag">[?]</text><text x="403.6" y="381.7" fill="#999" class="taxonLabel">Alisina</text><text x="381.6" y="393" fill="#fc8d59" class="flag">[0]</text><text x="403.6" y="393" fill="#000" class="taxonLabel">Terebratulina</text><text x="356.5" y="370.5" fill="grey" class="flag">[?]</text><text x="378.5" y="370.5" fill="#999" class="taxonLabel">Orthis</text><text x="381.6" y="347.9" fill="grey" class="flag">[?]</text><text x="403.6" y="347.9" fill="#999" class="taxonLabel">Tomteluva perturbata</text><text x="381.6" y="359.2" fill="grey" class="flag">[?]</text><text x="403.6" y="359.2" fill="#999" class="taxonLabel">Glyptoria</text><text x="356.5" y="336.7" fill="grey" class="flag">[?]</text><text x="378.5" y="336.7" fill="#999" class="taxonLabel">Longtancunella chengjiangensis</text><text x="306.3" y="325.4" fill="grey" class="flag">[?]</text><text x="328.3" y="325.4" fill="#999" class="taxonLabel">Nisusia sulcata</text><text x="431.8" y="302.9" fill="grey" class="flag">[?]</text><text x="453.8" y="302.9" fill="#999" class="taxonLabel">Craniops</text><text x="431.8" y="314.1" fill="#fc8d59" class="flag">[0]</text><text x="453.8" y="314.1" fill="#000" class="taxonLabel">Novocrania</text><text x="406.7" y="291.6" fill="grey" class="flag">[?]</text><text x="428.7" y="291.6" fill="#999" class="taxonLabel">Ussunia</text><text x="381.6" y="280.3" fill="grey" class="flag">[?]</text><text x="403.6" y="280.3" fill="#999" class="taxonLabel">Heliomedusa orienta</text><text x="356.5" y="269.1" fill="grey" class="flag">[?]</text><text x="378.5" y="269.1" fill="#999" class="taxonLabel">Gasconsia</text><text x="356.5" y="246.5" fill="grey" class="flag">[?]</text><text x="378.5" y="246.5" fill="#999" class="taxonLabel">Micromitra</text><text x="356.5" y="257.8" fill="grey" class="flag">[?]</text><text x="378.5" y="257.8" fill="#999" class="taxonLabel">Askepasma toddense</text><text x="406.7" y="224" fill="grey" class="flag">[?]</text><text x="428.7" y="224" fill="#999" class="taxonLabel">Acanthotretella spinosa</text><text x="406.7" y="235.3" fill="grey" class="flag">[?]</text><text x="428.7" y="235.3" fill="#999" class="taxonLabel">Siphonobolus priscus</text><text x="431.8" y="201.5" fill="#fc8d59" class="flag">[0]</text><text x="453.8" y="201.5" fill="#000" class="taxonLabel">Lingula</text><text x="431.8" y="212.8" fill="#fc8d59" class="flag">[0]</text><text x="453.8" y="212.8" fill="#000" class="taxonLabel">Pelagodiscus atlanticus</text><text x="482" y="179" fill="grey" class="flag">[?]</text><text x="504" y="179" fill="#999" class="taxonLabel">Eoobolus</text><text x="482" y="190.2" fill="grey" class="flag">[?]</text><text x="504" y="190.2" fill="#999" class="taxonLabel">Mummpikia nuda</text><text x="456.9" y="167.7" fill="grey" class="flag">[?]</text><text x="478.9" y="167.7" fill="#999" class="taxonLabel">Botsfordia</text><text x="431.8" y="156.4" fill="grey" class="flag">[?]</text><text x="453.8" y="156.4" fill="#999" class="taxonLabel">Lingulellotreta malongensis</text><text x="356.5" y="145.2" fill="grey" class="flag">[?]</text><text x="378.5" y="145.2" fill="#999" class="taxonLabel">Lingulosacculus</text><text x="331.4" y="133.9" fill="grey" class="flag">[?]</text><text x="353.4" y="133.9" fill="#999" class="taxonLabel">Clupeafumosus socialis</text><text x="331.4" y="111.4" fill="grey" class="flag">[?]</text><text x="353.4" y="111.4" fill="#999" class="taxonLabel">Coolinia pecten</text><text x="331.4" y="122.6" fill="grey" class="flag">[?]</text><text x="353.4" y="122.6" fill="#999" class="taxonLabel">Antigonambonites planus</text><text x="306.3" y="100.1" fill="grey" class="flag">[?]</text><text x="328.3" y="100.1" fill="#999" class="taxonLabel">Yuganotheca elegans</text><text x="281.2" y="88.8" fill="grey" class="flag">[?]</text><text x="303.2" y="88.8" fill="#999" class="taxonLabel">Kutorgina chengjiangensis</text><text x="230.9" y="77.6" fill="grey" class="flag">[?]</text><text x="252.9" y="77.6" fill="#999" class="taxonLabel">Micrina</text><text x="205.8" y="66.3" fill="grey" class="flag">[?]</text><text x="227.8" y="66.3" fill="#999" class="taxonLabel">Salanygolina</text><text x="180.7" y="55.1" fill="grey" class="flag">[?]</text><text x="202.7" y="55.1" fill="#999" class="taxonLabel">Mickwitzia muralensis</text><text x="155.6" y="43.8" fill="grey" class="flag">[?]</text><text x="177.6" y="43.8" fill="#999" class="taxonLabel">Paterimitra</text><text x="130.5" y="32.5" fill="grey" class="flag">[?]</text><text x="152.5" y="32.5" fill="#999" class="taxonLabel">Pedunculotheca diania</text><text x="105.4" y="10" fill="#fc8d59" class="flag">[0]</text><text x="127.4" y="10" fill="#000" class="taxonLabel">Flustra</text><text x="105.4" y="21.3" fill="grey" class="flag">[?]</text><text x="127.4" y="21.3" fill="#999" class="taxonLabel">Amathia</text><text x="55.2" y="550.7" fill="#91bfdb" class="flag">[1]</text><text x="77.2" y="550.7" fill="#000" class="taxonLabel">Loxosomella</text><path d="M5,459.3V341.3H30.1M30.1,341.3V547.7H55.2M5,459.3V577.2H30.1M30.1,577.2V564.6H55.2M55.2,564.6V558.9H80.3M55.2,564.6V570.2H80.3M30.1,577.2V589.9H55.2M55.2,589.9V581.5H80.3M55.2,589.9V598.4H80.3M80.3,598.4V592.7H105.4M80.3,598.4V604H105.4" stroke="#91bfdb"></path><path d="M30.1,341.3V134.8H55.2M55.2,134.8V12.6H80.3M80.3,12.6V7H105.4M80.3,12.6V18.3H105.4M55.2,134.8V257.1H80.3M80.3,257.1V43.5H105.4M105.4,43.5V29.5H130.5M105.4,43.5V57.5H130.5M130.5,57.5V40.8H155.6M130.5,57.5V74.3H155.6M155.6,74.3V52.1H180.7M155.6,74.3V96.5H180.7M180.7,96.5V63.3H205.8M180.7,96.5V129.8H205.8M205.8,129.8V74.6H230.9M205.8,129.8V184.9H230.9M230.9,184.9V95.7H256.1M256.1,95.7V85.8H281.2M256.1,95.7V105.6H281.2M281.2,105.6V97.1H306.3M281.2,105.6V114H306.3M306.3,114V108.4H331.4M306.3,114V119.6H331.4M230.9,184.9V274.1H256.1M256.1,274.1V207.6H281.2M281.2,207.6V152.3H306.3M306.3,152.3V130.9H331.4M306.3,152.3V173.7H331.4M331.4,173.7V142.2H356.5M331.4,173.7V205.2H356.5M356.5,205.2V183.7H381.6M381.6,183.7V163.3H406.7M406.7,163.3V153.4H431.8M406.7,163.3V173.1H431.8M431.8,173.1V164.7H456.9M431.8,173.1V181.6H456.9M456.9,181.6V176H482M456.9,181.6V187.2H482M381.6,183.7V204.1H406.7M406.7,204.1V198.5H431.8M406.7,204.1V209.8H431.8M356.5,205.2V226.7H381.6M381.6,226.7V221H406.7M381.6,226.7V232.3H406.7M281.2,207.6V262.9H306.3M306.3,262.9V249.2H331.4M331.4,249.2V243.5H356.5M331.4,249.2V254.8H356.5M306.3,262.9V276.6H331.4M331.4,276.6V266.1H356.5M331.4,276.6V287.2H356.5M356.5,287.2V277.3H381.6M356.5,287.2V297.1H381.6M381.6,297.1V288.6H406.7M381.6,297.1V305.5H406.7M406.7,305.5V299.9H431.8M406.7,305.5V311.1H431.8M256.1,274.1V340.7H281.2M281.2,340.7V322.4H306.3M281.2,340.7V359H306.3M306.3,359V342.1H331.4M331.4,342.1V333.7H356.5M331.4,342.1V350.6H356.5M356.5,350.6V344.9H381.6M356.5,350.6V356.2H381.6M306.3,359V375.9H331.4M331.4,375.9V367.5H356.5M331.4,375.9V384.3H356.5M356.5,384.3V378.7H381.6M356.5,384.3V390H381.6M80.3,257.1V470.6H105.4M105.4,470.6V427.3H130.5M130.5,427.3V409.7H155.6M155.6,409.7V401.2H180.7M155.6,409.7V418.1H180.7M180.7,418.1V412.5H205.8M180.7,418.1V423.8H205.8M130.5,427.3V444.9H155.6M155.6,444.9V435H180.7M155.6,444.9V454.8H180.7M180.7,454.8V446.3H205.8M180.7,454.8V463.2H205.8M205.8,463.2V457.6H230.9M205.8,463.2V468.8H230.9M105.4,470.6V513.9H130.5M130.5,513.9V497H155.6M155.6,497V485.7H180.7M180.7,485.7V480.1H205.8M180.7,485.7V491.4H205.8M155.6,497V508.3H180.7M180.7,508.3V502.6H205.8M180.7,508.3V513.9H205.8M130.5,513.9V530.8H155.6M155.6,530.8V525.2H180.7M155.6,530.8V536.4H180.7" stroke="#fc8d59"></path><text x="7" y="462.3" class="node" fill="#4A6FE3">1</text><text x="32.1" y="344.3" class="node" fill="#4A6FE3">1</text><text x="57.2" y="137.8" class="node" fill="#4A6FE3">1</text><text x="82.3" y="15.6" class="node" fill="#4A6FE3">1</text><text x="82.3" y="260.1" class="node" fill="#B6BDE3">0.66</text><text x="107.4" y="46.5" class="node" fill="#E59FAC">0.29</text><text x="132.5" y="60.5" class="node" fill="#E59FAC">0.29</text><text x="157.6" y="77.3" class="node" fill="#667FE1">0.93</text><text x="182.7" y="99.5" class="node" fill="#DF798F">0.16</text><text x="207.8" y="132.8" class="node" fill="#DF798F">0.16</text><text x="232.9" y="187.9" class="node" fill="#DF798F">0.16</text><text x="258.1" y="98.7" class="node" fill="#DF798F">0.16</text><text x="283.2" y="108.6" class="node" fill="#DF798F">0.16</text><text x="308.3" y="117" class="node" fill="#4A6FE3">1</text><text x="258.1" y="277.1" class="node" fill="#DF798F">0.16</text><text x="283.2" y="210.6" class="node" fill="#DF798F">0.16</text><text x="308.3" y="155.3" class="node" fill="#A3ADE2">0.73</text><text x="333.4" y="176.7" class="node" fill="#DF798F">0.16</text><text x="358.5" y="208.2" class="node" fill="#D95A7A">0.07</text><text x="383.6" y="186.7" class="node" fill="#DF798F">0.16</text><text x="408.7" y="166.3" class="node" fill="#DF798F">0.16</text><text x="433.8" y="176.1" class="node" fill="#E5D0D3">0.44</text><text x="458.9" y="184.6" class="node" fill="#DF798F">0.16</text><text x="408.7" y="207.1" class="node" fill="#E07C92">0.17</text><text x="383.6" y="229.7" class="node" fill="#5776E2">0.97</text><text x="308.3" y="265.9" class="node" fill="#DF798F">0.16</text><text x="333.4" y="252.2" class="node" fill="#DF798F">0.16</text><text x="333.4" y="279.6" class="node" fill="#E392A2">0.24</text><text x="358.5" y="290.2" class="node" fill="#7A8DE1">0.87</text><text x="383.6" y="300.1" class="node" fill="#4A6FE3">1</text><text x="408.7" y="308.5" class="node" fill="#4A6FE3">1</text><text x="283.2" y="343.7" class="node" fill="#DF798F">0.16</text><text x="308.3" y="362" class="node" fill="#DF798F">0.16</text><text x="333.4" y="345.1" class="node" fill="#D4486F">0.02</text><text x="358.5" y="353.6" class="node" fill="#DF798F">0.16</text><text x="333.4" y="378.9" class="node" fill="#4A6FE3">1</text><text x="358.5" y="387.3" class="node" fill="#E2899B">0.21</text><text x="107.4" y="473.6" class="node" fill="#E59FAC">0.29</text><text x="132.5" y="430.3" class="node" fill="#4A6FE3">1</text><text x="157.6" y="412.7" class="node" fill="#E392A2">0.24</text><text x="182.7" y="421.1" class="node" fill="#D7D9E3">0.54</text><text x="157.6" y="447.9" class="node" fill="#7A8DE1">0.87</text><text x="182.7" y="457.8" class="node" fill="#C1C6E3">0.62</text><text x="207.8" y="466.2" class="node" fill="#4A6FE3">1</text><text x="132.5" y="516.9" class="node" fill="#E59FAC">0.29</text><text x="157.6" y="500" class="node" fill="#E59FAC">0.29</text><text x="182.7" y="488.7" class="node" fill="#E392A2">0.24</text><text x="182.7" y="511.3" class="node" fill="#E6C1C7">0.39</text><text x="157.6" y="533.8" class="node" fill="#E59FAC">0.29</text><text x="32.1" y="580.2" class="node" fill="#4A6FE3">1</text><text x="57.2" y="567.6" class="node" fill="#4A6FE3">1</text><text x="57.2" y="592.9" class="node" fill="#4A6FE3">1</text><text x="82.3" y="601.4" class="node" fill="#6D84E1">0.91</text></svg>
