<svg xmlns="http://www.w3.org/2000/svg" version="1.1" width="682" height="612" class="tree" data-char="125"><text x="678" y="16" text-anchor="end" class="stepsLabel">Character adds <tspan class="score">1</tspan> to tree score</text><text x="678" y="29" text-anchor="end" class="stepsLabel"><tspan class="score">0</tspan> additional regions</text><text x="678" y="42" text-anchor="end" class="stepsLabel">CI = 1; Fitch CI = 1; Fitch RI = 1</text><text x="678" y="68" text-anchor="end" class="stepsLabel"><tspan dy="16">An optimal tree under:</tspan><tspan x="680" style="font-style:italic" class="notThisAn" dy="1.2em">Equal weights</tspan><tspan x="680" style="font-style:italic" class="thisAn" dy="1.2em">Implied weights, k = 2</tspan><tspan x="680" style="font-style:italic" class="notThisAn" dy="1.2em">IW, k = 3</tspan><tspan x="680" style="font-style:italic" class="notThisAn" dy="1.2em">IW, k = 4.5</tspan><tspan x="680" style="font-style:italic" class="notThisAn" dy="1.2em">IW, k = 7</tspan><tspan x="680" style="font-style:italic" class="notThisAn" dy="1.2em">IW, k = 10.5</tspan><tspan x="680" style="font-style:italic" class="notThisAn" dy="1.2em">IW, k = 16</tspan><tspan x="680" style="font-style:italic" class="notThisAn" dy="1.2em">IW, k = 24</tspan></text><text x="91.7" y="593.7" fill="#fc8d59" class="flag">[0]</text><text x="113.7" y="593.7" fill="#000" class="taxonLabel">Tonicella</text><text x="91.7" y="607" fill="grey" class="flag">[?]</text><text x="113.7" y="607" fill="grey" class="taxonLabel">Wiwaxia corrugata</text><text x="70" y="580.5" fill="#fc8d59" class="flag">[0]</text><text x="92" y="580.5" fill="#000" class="taxonLabel">Dentalium</text><text x="70" y="553.9" fill="#91bfdb" class="flag">[1]</text><text x="92" y="553.9" fill="#000" class="taxonLabel">Sipunculus</text><text x="70" y="567.2" fill="#91bfdb" class="flag">[1]</text><text x="92" y="567.2" fill="#000" class="taxonLabel">Serpula</text><text x="286.9" y="514.1" fill="grey" class="flag">[?]</text><text x="308.9" y="514.1" fill="grey" class="taxonLabel">Haplophrentis carinatus</text><text x="286.9" y="527.4" fill="grey" class="flag">[?]</text><text x="308.9" y="527.4" fill="grey" class="taxonLabel">Pedunculotheca diania</text><text x="351.9" y="487.6" fill="grey" class="flag">[?]</text><text x="373.9" y="487.6" fill="grey" class="taxonLabel">Tomteluva perturbata</text><text x="351.9" y="500.9" fill="grey" class="flag">[?]</text><text x="373.9" y="500.9" fill="grey" class="taxonLabel">Yuganotheca elegans</text><text x="330.2" y="474.3" fill="grey" class="flag">[?]</text><text x="352.2" y="474.3" fill="grey" class="taxonLabel">Salanygolina</text><text x="482" y="447.8" fill="grey" class="flag">[?]</text><text x="504" y="447.8" fill="grey" class="taxonLabel">Orthis</text><text x="482" y="461.1" fill="grey" class="flag">[?]</text><text x="504" y="461.1" fill="grey" class="taxonLabel">Terebratulina</text><text x="460.3" y="434.5" fill="grey" class="flag">[?]</text><text x="482.3" y="434.5" fill="grey" class="taxonLabel">Alisina</text><text x="438.6" y="421.3" fill="grey" class="flag">[?]</text><text x="460.6" y="421.3" fill="grey" class="taxonLabel">Longtancunella chengjiangensis</text><text x="417" y="408" fill="grey" class="flag">[?]</text><text x="439" y="408" fill="grey" class="taxonLabel">Glyptoria</text><text x="395.3" y="394.7" fill="grey" class="flag">[?]</text><text x="417.3" y="394.7" fill="grey" class="taxonLabel">Nisusia sulcata</text><text x="373.6" y="381.5" fill="grey" class="flag">[?]</text><text x="395.6" y="381.5" fill="grey" class="taxonLabel">Kutorgina chengjiangensis</text><text x="373.6" y="354.9" fill="grey" class="flag">[?]</text><text x="395.6" y="354.9" fill="grey" class="taxonLabel">Antigonambonites planus</text><text x="373.6" y="368.2" fill="grey" class="flag">[?]</text><text x="395.6" y="368.2" fill="grey" class="taxonLabel">Coolinia pecten</text><text x="417" y="328.4" fill="#fc8d59" class="flag">[0]</text><text x="439" y="328.4" fill="#000" class="taxonLabel">Novocrania</text><text x="417" y="341.7" fill="grey" class="flag">[?]</text><text x="439" y="341.7" fill="grey" class="taxonLabel">Craniops</text><text x="395.3" y="315.1" fill="grey" class="flag">[?]</text><text x="417.3" y="315.1" fill="grey" class="taxonLabel">Ussunia</text><text x="373.6" y="301.9" fill="grey" class="flag">[?]</text><text x="395.6" y="301.9" fill="grey" class="taxonLabel">Gasconsia</text><text x="373.6" y="275.3" fill="grey" class="flag">[?]</text><text x="395.6" y="275.3" fill="grey" class="taxonLabel">Micromitra</text><text x="373.6" y="288.6" fill="grey" class="flag">[?]</text><text x="395.6" y="288.6" fill="grey" class="taxonLabel">Askepasma toddense</text><text x="373.6" y="248.8" fill="#fc8d59" class="flag">[0]</text><text x="395.6" y="248.8" fill="#000" class="taxonLabel">Lingula</text><text x="373.6" y="262.1" fill="grey" class="flag">[?]</text><text x="395.6" y="262.1" fill="grey" class="taxonLabel">Pelagodiscus atlanticus</text><text x="417" y="222.3" fill="grey" class="flag">[?]</text><text x="439" y="222.3" fill="grey" class="taxonLabel">Eoobolus</text><text x="417" y="235.5" fill="grey" class="flag">[?]</text><text x="439" y="235.5" fill="grey" class="taxonLabel">Mummpikia nuda</text><text x="395.3" y="209" fill="grey" class="flag">[?]</text><text x="417.3" y="209" fill="grey" class="taxonLabel">Botsfordia</text><text x="373.6" y="195.7" fill="grey" class="flag">[?]</text><text x="395.6" y="195.7" fill="grey" class="taxonLabel">Lingulellotreta malongensis</text><text x="373.6" y="169.2" fill="grey" class="flag">[?]</text><text x="395.6" y="169.2" fill="grey" class="taxonLabel">Siphonobolus priscus</text><text x="373.6" y="182.5" fill="grey" class="flag">[?]</text><text x="395.6" y="182.5" fill="grey" class="taxonLabel">Acanthotretella spinosa</text><text x="351.9" y="155.9" fill="grey" class="flag">[?]</text><text x="373.9" y="155.9" fill="grey" class="taxonLabel">Lingulosacculus</text><text x="308.5" y="142.7" fill="grey" class="flag">[?]</text><text x="330.5" y="142.7" fill="grey" class="taxonLabel">Clupeafumosus socialis</text><text x="243.5" y="129.4" fill="grey" class="flag">[?]</text><text x="265.5" y="129.4" fill="grey" class="taxonLabel">Micrina</text><text x="221.8" y="116.1" fill="grey" class="flag">[?]</text><text x="243.8" y="116.1" fill="grey" class="taxonLabel">Heliomedusa orienta</text><text x="200.1" y="102.9" fill="grey" class="flag">[?]</text><text x="222.1" y="102.9" fill="grey" class="taxonLabel">Mickwitzia muralensis</text><text x="178.5" y="89.6" fill="grey" class="flag">[?]</text><text x="200.5" y="89.6" fill="grey" class="taxonLabel">Paterimitra</text><text x="178.5" y="63.1" fill="grey" class="flag">[?]</text><text x="200.5" y="63.1" fill="grey" class="taxonLabel">Halkieria evangelista</text><text x="178.5" y="76.3" fill="grey" class="flag">[?]</text><text x="200.5" y="76.3" fill="grey" class="taxonLabel">Dailyatia</text><text x="135.1" y="49.8" fill="grey" class="flag">[?]</text><text x="157.1" y="49.8" fill="grey" class="taxonLabel">Cotyledion tylodes</text><text x="113.4" y="36.5" fill="grey" class="flag">[?]</text><text x="135.4" y="36.5" fill="grey" class="taxonLabel">Eccentrotheca</text><text x="91.7" y="23.3" fill="#fc8d59" class="flag">[0]</text><text x="113.7" y="23.3" fill="#000" class="taxonLabel">Phoronis</text><text x="70" y="10" fill="#fc8d59" class="flag">[0]</text><text x="92" y="10" fill="#000" class="taxonLabel">Flustra</text><text x="48.4" y="540.7" fill="#fc8d59" class="flag">[0]</text><text x="70.4" y="540.7" fill="#000" class="taxonLabel">Loxosomella</text><path d="M5,426V279.5H26.7M26.7,279.5V21.4H48.4M48.4,21.4V7H70M48.4,21.4V35.8H70M70,35.8V20.3H91.7M70,35.8V51.2H91.7M91.7,51.2V33.5H113.4M91.7,51.2V68.9H113.4M113.4,68.9V46.8H135.1M113.4,68.9V91.1H135.1M135.1,91.1V66.7H156.8M156.8,66.7V60.1H178.5M156.8,66.7V73.3H178.5M135.1,91.1V115.5H156.8M156.8,115.5V86.6H178.5M156.8,115.5V144.4H178.5M178.5,144.4V99.9H200.1M178.5,144.4V188.9H200.1M200.1,188.9V113.1H221.8M200.1,188.9V264.6H221.8M221.8,264.6V126.4H243.5M221.8,264.6V402.8H243.5M243.5,402.8V287.9H265.2M265.2,287.9V167.7H286.9M286.9,167.7V139.7H308.5M286.9,167.7V195.6H308.5M308.5,195.6V162.9H330.2M330.2,162.9V152.9H351.9M330.2,162.9V172.8H351.9M351.9,172.8V166.2H373.6M351.9,172.8V179.5H373.6M308.5,195.6V228.4H330.2M330.2,228.4V204.3H351.9M351.9,204.3V192.7H373.6M351.9,204.3V216H373.6M373.6,216V206H395.3M373.6,216V225.9H395.3M395.3,225.9V219.3H417M395.3,225.9V232.5H417M330.2,228.4V252.4H351.9M351.9,252.4V245.8H373.6M351.9,252.4V259.1H373.6M265.2,287.9V408.1H286.9M286.9,408.1V334.9H308.5M308.5,334.9V294.7H330.2M330.2,294.7V279H351.9M351.9,279V272.3H373.6M351.9,279V285.6H373.6M330.2,294.7V310.5H351.9M351.9,310.5V298.9H373.6M351.9,310.5V322.1H373.6M373.6,322.1V312.1H395.3M373.6,322.1V332H395.3M395.3,332V325.4H417M395.3,332V338.7H417M308.5,334.9V375H330.2M330.2,375V358.6H351.9M351.9,358.6V351.9H373.6M351.9,358.6V365.2H373.6M330.2,375V391.5H351.9M351.9,391.5V378.5H373.6M351.9,391.5V404.6H373.6M373.6,404.6V391.7H395.3M373.6,404.6V417.4H395.3M395.3,417.4V405H417M395.3,417.4V429.9H417M417,429.9V418.3H438.6M417,429.9V441.5H438.6M438.6,441.5V431.5H460.3M438.6,441.5V451.4H460.3M460.3,451.4V444.8H482M460.3,451.4V458.1H482M286.9,408.1V481.3H308.5M308.5,481.3V471.3H330.2M308.5,481.3V491.2H330.2M330.2,491.2V484.6H351.9M330.2,491.2V497.9H351.9M243.5,402.8V517.8H265.2M265.2,517.8V511.1H286.9M265.2,517.8V524.4H286.9M26.7,279.5V537.7H48.4M5,426V572.5H26.7M26.7,572.5V587.4H48.4M48.4,587.4V577.5H70M48.4,587.4V597.4H70M70,597.4V590.7H91.7M70,597.4V604H91.7" stroke="#fc8d59"></path><path d="M26.7,572.5V557.6H48.4M48.4,557.6V550.9H70M48.4,557.6V564.2H70" stroke="#91bfdb"></path><text x="7" y="429" class="node" fill="#4A6FE3">1</text><text x="28.7" y="282.5" class="node" fill="#4A6FE3">1</text><text x="50.4" y="24.4" class="node" fill="#4A6FE3">1</text><text x="72" y="38.8" class="node" fill="#4A6FE3">1</text><text x="93.7" y="54.2" class="node" fill="#4A6FE3">1</text><text x="115.4" y="71.9" class="node" fill="#E5A5B1">0.3</text><text x="137.1" y="94.1" class="node" fill="#4A6FE3">1</text><text x="158.8" y="69.7" class="node" fill="#4A6FE3">1</text><text x="158.8" y="118.5" class="node" fill="#4A6FE3">1</text><text x="180.5" y="147.4" class="node" fill="#E495A5">0.25</text><text x="202.1" y="191.9" class="node" fill="#E495A5">0.25</text><text x="223.8" y="267.6" class="node" fill="#E495A5">0.25</text><text x="245.5" y="405.8" class="node" fill="#E495A5">0.25</text><text x="267.2" y="290.9" class="node" fill="#E495A5">0.25</text><text x="288.9" y="170.7" class="node" fill="#E495A5">0.25</text><text x="310.5" y="198.6" class="node" fill="#E495A5">0.25</text><text x="332.2" y="165.9" class="node" fill="#E5A8B3">0.31</text><text x="353.9" y="175.8" class="node" fill="#4A6FE3">1</text><text x="332.2" y="231.4" class="node" fill="#E495A5">0.25</text><text x="353.9" y="207.3" class="node" fill="#E495A5">0.25</text><text x="375.6" y="219" class="node" fill="#E6AEB8">0.33</text><text x="397.3" y="228.9" class="node" fill="#E495A5">0.25</text><text x="353.9" y="255.4" class="node" fill="#E495A5">0.25</text><text x="288.9" y="411.1" class="node" fill="#4A6FE3">1</text><text x="310.5" y="337.9" class="node" fill="#D95A7A">0.07</text><text x="332.2" y="297.7" class="node" fill="#DD6F88">0.13</text><text x="353.9" y="282" class="node" fill="#4A6FE3">1</text><text x="353.9" y="313.5" class="node" fill="#4A6FE3">1</text><text x="375.6" y="325.1" class="node" fill="#4A6FE3">1</text><text x="397.3" y="335" class="node" fill="#4A6FE3">1</text><text x="332.2" y="378" class="node" fill="#4A6FE3">1</text><text x="353.9" y="361.6" class="node" fill="#4A6FE3">1</text><text x="353.9" y="394.5" class="node" fill="#7A8DE1">0.87</text><text x="375.6" y="407.6" class="node" fill="#7A8DE1">0.87</text><text x="397.3" y="420.4" class="node" fill="#7A8DE1">0.87</text><text x="419" y="432.9" class="node" fill="#7A8DE1">0.87</text><text x="440.6" y="444.5" class="node" fill="#4A6FE3">1</text><text x="462.3" y="454.4" class="node" fill="#5B78E2">0.96</text><text x="310.5" y="484.3" class="node" fill="#A0ABE2">0.74</text><text x="332.2" y="494.2" class="node" fill="#7388E1">0.89</text><text x="267.2" y="520.8" class="node" fill="#4A6FE3">1</text><text x="28.7" y="575.5" class="node" fill="#4A6FE3">1</text><text x="50.4" y="560.6" class="node" fill="#4A6FE3">1</text><text x="50.4" y="590.4" class="node" fill="#4A6FE3">1</text><text x="72" y="600.4" class="node" fill="#97A4E2">0.77</text></svg>
