<svg xmlns="http://www.w3.org/2000/svg" version="1.1" width="682" height="555" class="tree" data-char="126">
 <text x="678" y="14.7" text-anchor="end" class="stepsLabel">Character adds <tspan class="score">1</tspan> to tree score</text>
 <text x="678" y="26.4" text-anchor="end" class="stepsLabel"><tspan class="score">0</tspan> additional regions</text>
 <text x="678" y="38.1" text-anchor="end" class="stepsLabel">CI = 1; Fitch CI = 1; Fitch RI = n/a</text>
 <text x="678" y="61.5" text-anchor="end" class="stepsLabel"><tspan dy="16">An optimal tree under:</tspan><tspan x="680" style="font-style:italic" class="thisAn" dy="1.2em">Equal weights</tspan><tspan x="680" style="font-style:italic" class="notThisAn" dy="1.2em">Implied weights, k = 2</tspan><tspan x="680" style="font-style:italic" class="notThisAn" dy="1.2em">IW, k = 3</tspan><tspan x="680" style="font-style:italic" class="notThisAn" dy="1.2em">IW, k = 4.5</tspan><tspan x="680" style="font-style:italic" class="notThisAn" dy="1.2em">IW, k = 7</tspan></text>
 <text x="70" y="538" fill="#91bfdb" class="flag">[1]</text>
 <text x="92" y="538" fill="#111" class="taxonLabel">Serpula</text>
 <text x="70" y="550" fill="#91bfdb" class="flag">[1]</text>
 <text x="92" y="550" fill="#111" class="taxonLabel">Sipunculus</text>
 <text x="91.7" y="514" fill="grey" class="flag">[?]</text>
 <text x="113.7" y="514" fill="#111" class="taxonLabel">Wiwaxia corrugata</text>
 <text x="91.7" y="526" fill="#91bfdb" class="flag">[1]</text>
 <text x="113.7" y="526" fill="#111" class="taxonLabel">Chiton</text>
 <text x="70" y="502" fill="#91bfdb" class="flag">[1]</text>
 <text x="92" y="502" fill="#111" class="taxonLabel">Dentalium</text>
 <text x="308.5" y="418" fill="grey" class="flag">[?]</text>
 <text x="330.5" y="418" fill="#111" class="taxonLabel">Craniops</text>
 <text x="308.5" y="430" fill="#91bfdb" class="flag">[1]</text>
 <text x="330.5" y="430" fill="#111" class="taxonLabel">Novocrania</text>
 <text x="286.9" y="406" fill="grey" class="flag">[?]</text>
 <text x="308.9" y="406" fill="#111" class="taxonLabel">Ussunia</text>
 <text x="265.2" y="394" fill="grey" class="flag">[?]</text>
 <text x="287.2" y="394" fill="#111" class="taxonLabel">Gasconsia</text>
 <text x="286.9" y="370" fill="grey" class="flag">[?]</text>
 <text x="308.9" y="370" fill="#111" class="taxonLabel">Micromitra</text>
 <text x="286.9" y="382" fill="grey" class="flag">[?]</text>
 <text x="308.9" y="382" fill="#111" class="taxonLabel">Askepasma toddense</text>
 <text x="482" y="346" fill="#91bfdb" class="flag">[1]</text>
 <text x="504" y="346" fill="#111" class="taxonLabel">Terebratulina</text>
 <text x="482" y="358" fill="grey" class="flag">[?]</text>
 <text x="504" y="358" fill="#111" class="taxonLabel">Orthis</text>
 <text x="460.3" y="334" fill="grey" class="flag">[?]</text>
 <text x="482.3" y="334" fill="#111" class="taxonLabel">Alisina</text>
 <text x="438.6" y="322" fill="grey" class="flag">[?]</text>
 <text x="460.6" y="322" fill="#111" class="taxonLabel">Longtancunella chengjiangensis</text>
 <text x="417" y="310" fill="grey" class="flag">[?]</text>
 <text x="439" y="310" fill="#111" class="taxonLabel">Glyptoria</text>
 <text x="395.3" y="298" fill="grey" class="flag">[?]</text>
 <text x="417.3" y="298" fill="#111" class="taxonLabel">Nisusia sulcata</text>
 <text x="373.6" y="286" fill="grey" class="flag">[?]</text>
 <text x="395.6" y="286" fill="#111" class="taxonLabel">Kutorgina chengjiangensis</text>
 <text x="373.6" y="262" fill="grey" class="flag">[?]</text>
 <text x="395.6" y="262" fill="#111" class="taxonLabel">Antigonambonites planus</text>
 <text x="373.6" y="274" fill="grey" class="flag">[?]</text>
 <text x="395.6" y="274" fill="#111" class="taxonLabel">Coolinia pecten</text>
 <text x="330.2" y="250" fill="grey" class="flag">[?]</text>
 <text x="352.2" y="250" fill="#111" class="taxonLabel">Tomteluva perturbata</text>
 <text x="308.5" y="238" fill="grey" class="flag">[?]</text>
 <text x="330.5" y="238" fill="#111" class="taxonLabel">Yuganotheca elegans</text>
 <text x="286.9" y="226" fill="grey" class="flag">[?]</text>
 <text x="308.9" y="226" fill="#111" class="taxonLabel">Salanygolina</text>
 <text x="417" y="202" fill="grey" class="flag">[?]</text>
 <text x="439" y="202" fill="#111" class="taxonLabel">Siphonobolus priscus</text>
 <text x="417" y="214" fill="grey" class="flag">[?]</text>
 <text x="439" y="214" fill="#111" class="taxonLabel">Acanthotretella spinosa</text>
 <text x="395.3" y="190" fill="grey" class="flag">[?]</text>
 <text x="417.3" y="190" fill="#111" class="taxonLabel">Clupeafumosus socialis</text>
 <text x="373.6" y="178" fill="grey" class="flag">[?]</text>
 <text x="395.6" y="178" fill="#111" class="taxonLabel">Lingulellotreta malongensis</text>
 <text x="351.9" y="166" fill="grey" class="flag">[?]</text>
 <text x="373.9" y="166" fill="#111" class="taxonLabel">Lingulosacculus</text>
 <text x="330.2" y="154" fill="grey" class="flag">[?]</text>
 <text x="352.2" y="154" fill="#111" class="taxonLabel">Botsfordia</text>
 <text x="308.5" y="142" fill="grey" class="flag">[?]</text>
 <text x="330.5" y="142" fill="#111" class="taxonLabel">Mummpikia nuda</text>
 <text x="286.9" y="130" fill="grey" class="flag">[?]</text>
 <text x="308.9" y="130" fill="#111" class="taxonLabel">Eoobolus</text>
 <text x="265.2" y="118" fill="#91bfdb" class="flag">[1]</text>
 <text x="287.2" y="118" fill="#111" class="taxonLabel">Lingula</text>
 <text x="286.9" y="94" fill="#91bfdb" class="flag">[1]</text>
 <text x="308.9" y="94" fill="#111" class="taxonLabel">Pelagodiscus atlanticus</text>
 <text x="286.9" y="106" fill="grey" class="flag">[?]</text>
 <text x="308.9" y="106" fill="#111" class="taxonLabel">Mickwitzia muralensis</text>
 <text x="265.2" y="82" fill="grey" class="flag">[?]</text>
 <text x="287.2" y="82" fill="#111" class="taxonLabel">Micrina</text>
 <text x="243.5" y="58" fill="grey" class="flag">[?]</text>
 <text x="265.5" y="58" fill="#111" class="taxonLabel">Haplophrentis carinatus</text>
 <text x="243.5" y="70" fill="grey" class="flag">[?]</text>
 <text x="265.5" y="70" fill="#111" class="taxonLabel">Pedunculotheca diania</text>
 <text x="221.8" y="46" fill="grey" class="flag">[?]</text>
 <text x="243.8" y="46" fill="#111" class="taxonLabel">Paterimitra</text>
 <text x="178.5" y="34" fill="grey" class="flag">[?]</text>
 <text x="200.5" y="34" fill="#111" class="taxonLabel">Heliomedusa orienta</text>
 <text x="178.5" y="10" fill="grey" class="flag">[?]</text>
 <text x="200.5" y="10" fill="#111" class="taxonLabel">Dailyatia</text>
 <text x="178.5" y="22" fill="grey" class="flag">[?]</text>
 <text x="200.5" y="22" fill="#111" class="taxonLabel">Halkieria evangelista</text>
 <text x="135.1" y="442" fill="grey" class="flag">[?]</text>
 <text x="157.1" y="442" fill="#111" class="taxonLabel">Eccentrotheca</text>
 <text x="113.4" y="454" fill="grey" class="flag">[?]</text>
 <text x="135.4" y="454" fill="#111" class="taxonLabel">Cotyledion tylodes</text>
 <text x="91.7" y="466" fill="#91bfdb" class="flag">[1]</text>
 <text x="113.7" y="466" fill="#111" class="taxonLabel">Phoronis</text>
 <text x="70" y="478" fill="#91bfdb" class="flag">[1]</text>
 <text x="92" y="478" fill="#111" class="taxonLabel">Flustra</text>
 <text x="48.4" y="490" fill="#fc8d59" class="flag">[0]</text>
 <text x="70.4" y="490" fill="#111" class="taxonLabel">Loxosomella</text>
 <path d="M5,494V463.6H26.7M26.7,463.6V440.2H48.4M48.4,440.2V405.3H70M70,405.3V347.6H91.7M91.7,347.6V244.3H113.4M113.4,244.3V49.5H135.1M135.1,49.5V13H156.8M156.8,13V7H178.5M156.8,13V19H178.5M135.1,49.5V86.1H156.8M156.8,86.1V31H178.5M156.8,86.1V141.1H178.5M178.5,141.1V52H200.1M200.1,52V43H221.8M200.1,52V61H221.8M221.8,61V55H243.5M221.8,61V67H243.5M178.5,141.1V230.3H200.1M200.1,230.3V107.5H221.8M221.8,107.5V88H243.5M243.5,88V79H265.2M243.5,88V97H265.2M265.2,97V91H286.9M265.2,97V103H286.9M221.8,107.5V127H243.5M243.5,127V115H265.2M243.5,127V138.9H265.2M265.2,138.9V127H286.9M265.2,138.9V150.8H286.9M286.9,150.8V139H308.5M286.9,150.8V162.6H308.5M308.5,162.6V151H330.2M308.5,162.6V174.2H330.2M330.2,174.2V163H351.9M330.2,174.2V185.5H351.9M351.9,185.5V175H373.6M351.9,185.5V196H373.6M373.6,196V187H395.3M373.6,196V205H395.3M395.3,205V199H417M395.3,205V211H417M200.1,230.3V353H221.8M221.8,353V304.6H243.5M243.5,304.6V236.1H265.2M265.2,236.1V223H286.9M265.2,236.1V249.2H286.9M286.9,249.2V235H308.5M286.9,249.2V263.5H308.5M308.5,263.5V247H330.2M308.5,263.5V279.9H330.2M330.2,279.9V265H351.9M351.9,265V259H373.6M351.9,265V271H373.6M330.2,279.9V294.8H351.9M351.9,294.8V283H373.6M351.9,294.8V306.6H373.6M373.6,306.6V295H395.3M373.6,306.6V318.2H395.3M395.3,318.2V307H417M395.3,318.2V329.5H417M417,329.5V319H438.6M417,329.5V340H438.6M438.6,340V331H460.3M438.6,340V349H460.3M460.3,349V343H482M460.3,349V355H482M243.5,304.6V373H265.2M265.2,373V367H286.9M265.2,373V379H286.9M221.8,353V401.5H243.5M243.5,401.5V391H265.2M243.5,401.5V412H265.2M265.2,412V403H286.9M265.2,412V421H286.9M286.9,421V415H308.5M286.9,421V427H308.5M113.4,244.3V439H135.1M91.7,347.6V451H113.4M70,405.3V463H91.7M48.4,440.2V475H70M5,494V524.5H26.7M26.7,524.5V508H48.4M48.4,508V499H70M48.4,508V517H70M70,517V511H91.7M70,517V523H91.7M26.7,524.5V541H48.4M48.4,541V535H70M48.4,541V547H70" stroke="#91bfdb"></path>
 <path d="M26.7,463.6V487H48.4" stroke="#fc8d59"></path>
 <text x="7" y="497" class="node" fill="#4A6FE3">1</text>
 <text x="28.7" y="466.6" class="node" fill="#ABB4E2">0.7</text>
 <text x="50.4" y="443.2" class="node" fill="#ABB4E2">0.7</text>
 <text x="72" y="408.3" class="node" fill="#ABB4E2">0.7</text>
 <text x="93.7" y="350.6" class="node" fill="#ABB4E2">0.7</text>
 <text x="115.4" y="247.3" class="node" fill="#E2899B">0.21</text>
 <text x="137.1" y="52.5" class="node" fill="#CACDE3">0.59</text>
 <text x="158.8" y="16" class="node" fill="#7388E1">0.89</text>
 <text x="158.8" y="89.1" class="node" fill="#4A6FE3">1</text>
 <text x="180.5" y="144.1" class="node" fill="#5B78E2">0.96</text>
 <text x="202.1" y="55" class="node" fill="#AEB6E2">0.69</text>
 <text x="223.8" y="64" class="node" fill="#4A6FE3">1</text>
 <text x="202.1" y="233.3" class="node" fill="#5B78E2">0.96</text>
 <text x="223.8" y="110.5" class="node" fill="#AEB6E2">0.69</text>
 <text x="245.5" y="91" class="node" fill="#AEB6E2">0.69</text>
 <text x="267.2" y="100" class="node" fill="#ABB4E2">0.7</text>
 <text x="245.5" y="130" class="node" fill="#ABB4E2">0.7</text>
 <text x="267.2" y="141.9" class="node" fill="#ABB4E2">0.7</text>
 <text x="288.9" y="153.8" class="node" fill="#AEB6E2">0.69</text>
 <text x="310.5" y="165.6" class="node" fill="#AEB6E2">0.69</text>
 <text x="332.2" y="177.2" class="node" fill="#AEB6E2">0.69</text>
 <text x="353.9" y="188.5" class="node" fill="#E28699">0.2</text>
 <text x="375.6" y="199" class="node" fill="#DDDEE3">0.52</text>
 <text x="397.3" y="208" class="node" fill="#4A6FE3">1</text>
 <text x="223.8" y="356" class="node" fill="#4A6FE3">1</text>
 <text x="245.5" y="307.6" class="node" fill="#929FE1">0.79</text>
 <text x="267.2" y="239.1" class="node" fill="#5B78E2">0.96</text>
 <text x="288.9" y="252.2" class="node" fill="#E6BDC5">0.38</text>
 <text x="310.5" y="266.5" class="node" fill="#D85778">0.06</text>
 <text x="332.2" y="282.9" class="node" fill="#4A6FE3">1</text>
 <text x="353.9" y="268" class="node" fill="#4A6FE3">1</text>
 <text x="353.9" y="297.8" class="node" fill="#DDDEE3">0.52</text>
 <text x="375.6" y="309.6" class="node" fill="#DDDEE3">0.52</text>
 <text x="397.3" y="321.2" class="node" fill="#DDDEE3">0.52</text>
 <text x="419" y="332.5" class="node" fill="#DDDEE3">0.52</text>
 <text x="440.6" y="343" class="node" fill="#4A6FE3">1</text>
 <text x="462.3" y="352" class="node" fill="#8F9DE1">0.8</text>
 <text x="267.2" y="376" class="node" fill="#4A6FE3">1</text>
 <text x="245.5" y="404.5" class="node" fill="#4A6FE3">1</text>
 <text x="267.2" y="415" class="node" fill="#4A6FE3">1</text>
 <text x="288.9" y="424" class="node" fill="#4A6FE3">1</text>
 <text x="28.7" y="527.5" class="node" fill="#ABB4E2">0.7</text>
 <text x="50.4" y="511" class="node" fill="#ABB4E2">0.7</text>
 <text x="72" y="520" class="node" fill="#ABB4E2">0.7</text>
 <text x="50.4" y="544" class="node" fill="#4A6FE3">1</text></svg>
