<svg xmlns="http://www.w3.org/2000/svg" version="1.1" width="682" height="612" class="tree" data-char="91"><text x="678" y="15.7" text-anchor="end" class="stepsLabel">Character adds <tspan class="score">6</tspan> to tree score</text><text x="678" y="28.4" text-anchor="end" class="stepsLabel"><tspan class="score">1</tspan> additional region</text><text x="678" y="41.1" text-anchor="end" class="stepsLabel">CI = 0.33; Fitch CI = 0.33; Fitch RI = 0.5</text><text x="678" y="66.5" text-anchor="end" class="stepsLabel"><tspan dy="16">An optimal tree under:</tspan><tspan x="680" style="font-style:italic" class="thisAn" dy="1.2em">Equal weights</tspan><tspan x="680" style="font-style:italic" class="notThisAn" dy="1.2em">Implied weights, k = 2</tspan><tspan x="680" style="font-style:italic" class="notThisAn" dy="1.2em">IW, k = 3</tspan><tspan x="680" style="font-style:italic" class="notThisAn" dy="1.2em">IW, k = 4.5</tspan><tspan x="680" style="font-style:italic" class="notThisAn" dy="1.2em">IW, k = 7</tspan><tspan x="680" style="font-style:italic" class="notThisAn" dy="1.2em">IW, k = 10.5</tspan><tspan x="680" style="font-style:italic" class="notThisAn" dy="1.2em">IW, k = 16</tspan><tspan x="680" style="font-style:italic" class="notThisAn" dy="1.2em">IW, k = 24</tspan></text><text x="73.1" y="594" fill="lightgrey" class="flag">[-]</text><text x="95.1" y="594" fill="lightgrey" class="taxonLabel">Sipunculus</text><text x="73.1" y="607" fill="lightgrey" class="flag">[-]</text><text x="95.1" y="607" fill="lightgrey" class="taxonLabel">Serpula</text><text x="95.9" y="568.1" fill="#fdae61" class="flag">[1]</text><text x="117.9" y="568.1" fill="#000" class="taxonLabel">Tonicella</text><text x="95.9" y="581" fill="lightgrey" class="flag">[-]</text><text x="117.9" y="581" fill="lightgrey" class="taxonLabel">Dentalium</text><text x="73.1" y="555.1" fill="lightgrey" class="flag">[-]</text><text x="95.1" y="555.1" fill="lightgrey" class="taxonLabel">Wiwaxia corrugata</text><text x="459.3" y="516.2" fill="grey" class="flag">[12]</text><text x="481.3" y="516.2" fill="grey" class="taxonLabel">Siphonobolus priscus</text><text x="459.3" y="529.1" fill="#abd9e9" class="flag">[2]</text><text x="481.3" y="529.1" fill="#000" class="taxonLabel">Acanthotretella spinosa</text><text x="436.6" y="503.2" fill="grey" class="flag">[12]</text><text x="458.6" y="503.2" fill="grey" class="taxonLabel">Clupeafumosus socialis</text><text x="413.9" y="490.2" fill="#abd9e9" class="flag">[2]</text><text x="435.9" y="490.2" fill="#000" class="taxonLabel">Lingulosacculus</text><text x="391.1" y="477.2" fill="#abd9e9" class="flag">[2]</text><text x="413.1" y="477.2" fill="#000" class="taxonLabel">Lingulellotreta malongensis</text><text x="368.4" y="464.2" fill="#abd9e9" class="flag">[2]</text><text x="390.4" y="464.2" fill="#000" class="taxonLabel">Botsfordia</text><text x="345.7" y="451.3" fill="#abd9e9" class="flag">[2]</text><text x="367.7" y="451.3" fill="#000" class="taxonLabel">Mummpikia nuda</text><text x="323" y="438.3" fill="#abd9e9" class="flag">[2]</text><text x="345" y="438.3" fill="#000" class="taxonLabel">Eoobolus</text><text x="300.3" y="425.3" fill="#2c7bb6" class="flag">[3]</text><text x="322.3" y="425.3" fill="#000" class="taxonLabel">Lingula</text><text x="323" y="399.3" fill="#fdae61" class="flag">[1]</text><text x="345" y="399.3" fill="#000" class="taxonLabel">Pelagodiscus atlanticus</text><text x="323" y="412.3" fill="#fdae61" class="flag">[1]</text><text x="345" y="412.3" fill="#000" class="taxonLabel">Mickwitzia muralensis</text><text x="300.3" y="386.4" fill="#abd9e9" class="flag">[2]</text><text x="322.3" y="386.4" fill="#000" class="taxonLabel">Micrina</text><text x="482" y="360.4" fill="#abd9e9" class="flag">[2]</text><text x="504" y="360.4" fill="#000" class="taxonLabel">Terebratulina</text><text x="482" y="373.4" fill="#abd9e9" class="flag">[2]</text><text x="504" y="373.4" fill="#000" class="taxonLabel">Orthis</text><text x="459.3" y="347.4" fill="#abd9e9" class="flag">[2]</text><text x="481.3" y="347.4" fill="#000" class="taxonLabel">Alisina</text><text x="436.6" y="334.5" fill="#abd9e9" class="flag">[2]</text><text x="458.6" y="334.5" fill="#000" class="taxonLabel">Glyptoria</text><text x="413.9" y="321.5" fill="#abd9e9" class="flag">[2]</text><text x="435.9" y="321.5" fill="#000" class="taxonLabel">Nisusia sulcata</text><text x="391.1" y="308.5" fill="#abd9e9" class="flag">[2]</text><text x="413.1" y="308.5" fill="#000" class="taxonLabel">Kutorgina chengjiangensis</text><text x="391.1" y="282.5" fill="#abd9e9" class="flag">[2]</text><text x="413.1" y="282.5" fill="#000" class="taxonLabel">Antigonambonites planus</text><text x="391.1" y="295.5" fill="#abd9e9" class="flag">[2]</text><text x="413.1" y="295.5" fill="#000" class="taxonLabel">Coolinia pecten</text><text x="345.7" y="269.6" fill="#abd9e9" class="flag">[2]</text><text x="367.7" y="269.6" fill="#000" class="taxonLabel">Longtancunella chengjiangensis</text><text x="345.7" y="243.6" fill="#fdae61" class="flag">[1]</text><text x="367.7" y="243.6" fill="#000" class="taxonLabel">Tomteluva perturbata</text><text x="345.7" y="256.6" fill="#fdae61" class="flag">[1]</text><text x="367.7" y="256.6" fill="#000" class="taxonLabel">Yuganotheca elegans</text><text x="300.3" y="230.6" fill="#abd9e9" class="flag">[2]</text><text x="322.3" y="230.6" fill="#000" class="taxonLabel">Salanygolina</text><text x="323" y="204.7" fill="#abd9e9" class="flag">[2]</text><text x="345" y="204.7" fill="#000" class="taxonLabel">Micromitra</text><text x="323" y="217.7" fill="#abd9e9" class="flag">[2]</text><text x="345" y="217.7" fill="#000" class="taxonLabel">Gasconsia</text><text x="300.3" y="191.7" fill="#abd9e9" class="flag">[2]</text><text x="322.3" y="191.7" fill="#000" class="taxonLabel">Askepasma toddense</text><text x="277.6" y="165.7" fill="#fdae61" class="flag">[1]</text><text x="299.6" y="165.7" fill="#000" class="taxonLabel">Pedunculotheca diania</text><text x="277.6" y="178.7" fill="#fdae61" class="flag">[1]</text><text x="299.6" y="178.7" fill="#000" class="taxonLabel">Haplophrentis carinatus</text><text x="254.9" y="152.8" fill="#abd9e9" class="flag">[2]</text><text x="276.9" y="152.8" fill="#000" class="taxonLabel">Paterimitra</text><text x="209.4" y="139.8" fill="#abd9e9" class="flag">[2]</text><text x="231.4" y="139.8" fill="#000" class="taxonLabel">Heliomedusa orienta</text><text x="232.1" y="113.8" fill="#fdae61" class="flag">[1]</text><text x="254.1" y="113.8" fill="#000" class="taxonLabel">Craniops</text><text x="232.1" y="126.8" fill="#fdae61" class="flag">[1]</text><text x="254.1" y="126.8" fill="#000" class="taxonLabel">Novocrania</text><text x="209.4" y="100.8" fill="#abd9e9" class="flag">[2]</text><text x="231.4" y="100.8" fill="#000" class="taxonLabel">Ussunia</text><text x="186.7" y="74.9" fill="lightgrey" class="flag">[-]</text><text x="208.7" y="74.9" fill="lightgrey" class="taxonLabel">Dailyatia</text><text x="186.7" y="87.9" fill="#abd9e9" class="flag">[2]</text><text x="208.7" y="87.9" fill="#000" class="taxonLabel">Halkieria evangelista</text><text x="141.3" y="61.9" fill="lightgrey" class="flag">[-]</text><text x="163.3" y="61.9" fill="lightgrey" class="taxonLabel">Cotyledion tylodes</text><text x="118.6" y="48.9" fill="lightgrey" class="flag">[-]</text><text x="140.6" y="48.9" fill="lightgrey" class="taxonLabel">Eccentrotheca</text><text x="118.6" y="23" fill="lightgrey" class="flag">[-]</text><text x="140.6" y="23" fill="lightgrey" class="taxonLabel">Phoronis</text><text x="118.6" y="36" fill="lightgrey" class="flag">[-]</text><text x="140.6" y="36" fill="lightgrey" class="taxonLabel">Namacalathus</text><text x="73.1" y="10" fill="lightgrey" class="flag">[-]</text><text x="95.1" y="10" fill="lightgrey" class="taxonLabel">Flustra</text><text x="50.4" y="542.1" fill="lightgrey" class="flag">[-]</text><text x="72.4" y="542.1" fill="lightgrey" class="taxonLabel">Loxosomella</text><path d="M5,431.3V282.9H27.7M27.7,282.9V26.6H50.4M50.4,26.6V7H73.1M50.4,26.6V46.2H73.1M73.1,46.2V26.5H95.9M95.9,26.5V20H118.6M95.9,26.5V33H118.6M73.1,46.2V66H95.9M95.9,66V45.9H118.6M95.9,66V86H118.6M118.6,86V58.9H141.3M164,78.4V71.9H186.7M27.7,282.9V539.1H50.4M5,431.3V579.7H27.7M27.7,579.7V561.8H50.4M50.4,561.8V552.1H73.1M50.4,561.8V571.6H73.1M73.1,571.6V578H95.9M27.7,579.7V597.5H50.4M50.4,597.5V591H73.1M50.4,597.5V604H73.1" stroke="lightgrey" class="inapplicable"></path><path d="M118.6,86V113H141.3M141.3,113V78.4H164M164,78.4V84.9H186.7M141.3,113V147.7H164M164,147.7V107.6H186.7M186.7,107.6V97.8H209.4M164,147.7V187.9H186.7M186.7,187.9V136.8H209.4M186.7,187.9V238.9H209.4M209.4,238.9V159.5H232.1M232.1,159.5V149.8H254.9M209.4,238.9V318.4H232.1M232.1,318.4V222.5H254.9M254.9,222.5V198.4H277.6M277.6,198.4V188.7H300.3M277.6,198.4V208.2H300.3M300.3,208.2V201.7H323M300.3,208.2V214.7H323M254.9,222.5V246.7H277.6M277.6,246.7V227.6H300.3M277.6,246.7V265.7H300.3M300.3,265.7V284.3H323M323,284.3V266.6H345.7M323,284.3V302.1H345.7M345.7,302.1V286H368.4M368.4,286V279.5H391.1M368.4,286V292.5H391.1M345.7,302.1V318.1H368.4M368.4,318.1V305.5H391.1M368.4,318.1V330.6H391.1M391.1,330.6V318.5H413.9M391.1,330.6V342.8H413.9M413.9,342.8V331.5H436.6M413.9,342.8V354.2H436.6M436.6,354.2V344.4H459.3M436.6,354.2V363.9H459.3M459.3,363.9V357.4H482M459.3,363.9V370.4H482M232.1,318.4V414.2H254.9M254.9,414.2V393.1H277.6M277.6,393.1V383.4H300.3M254.9,414.2V435.2H277.6M277.6,435.2V448.2H300.3M300.3,448.2V435.3H323M300.3,448.2V461H323M323,461V448.3H345.7M323,461V473.8H345.7M345.7,473.8V461.2H368.4M345.7,473.8V486.4H368.4M368.4,486.4V474.2H391.1M368.4,486.4V498.6H391.1M391.1,498.6V487.2H413.9M391.1,498.6V509.9H413.9M413.9,509.9V500.2H436.6M413.9,509.9V519.6H436.6M436.6,519.6V513.2H459.3M436.6,519.6V526.1H459.3" stroke="#abd9e9"></path><path d="M186.7,107.6V117.3H209.4M209.4,117.3V110.8H232.1M209.4,117.3V123.8H232.1M232.1,159.5V169.2H254.9M254.9,169.2V162.7H277.6M254.9,169.2V175.7H277.6M300.3,265.7V247.1H323M323,247.1V240.6H345.7M323,247.1V253.6H345.7M277.6,393.1V402.8H300.3M300.3,402.8V396.3H323M300.3,402.8V409.3H323M73.1,571.6V565.1H95.9" stroke="#fdae61"></path><path d="M277.6,435.2V422.3H300.3" stroke="#2c7bb6"></path><text x="7" y="434.3" class="node" fill="#4A6FE3">1</text><text x="29.7" y="285.9" class="node" fill="#4A6FE3">1</text><text x="52.4" y="29.6" class="node" fill="#5776E2">0.97</text><text x="75.1" y="49.2" class="node" fill="#5776E2">0.97</text><text x="97.9" y="29.5" class="node" fill="#6982E1">0.92</text><text x="97.9" y="69" class="node" fill="#5776E2">0.97</text><text x="120.6" y="89" class="node" fill="#E4D9DB">0.47</text><text x="143.3" y="116" class="node" fill="#8F9DE1">0.8</text><text x="166" y="81.4" class="node" fill="#AEB6E2">0.69</text><text x="166" y="150.7" class="node" fill="#4A6FE3">1</text><text x="188.7" y="110.6" class="node" fill="#9DA8E2">0.75</text><text x="211.4" y="120.3" class="node" fill="#4A6FE3">1</text><text x="188.7" y="190.9" class="node" fill="#8998E1">0.82</text><text x="211.4" y="241.9" class="node" fill="#8998E1">0.82</text><text x="234.1" y="162.5" class="node" fill="#E6B7C0">0.36</text><text x="256.9" y="172.2" class="node" fill="#4A6FE3">1</text><text x="234.1" y="321.4" class="node" fill="#8998E1">0.82</text><text x="256.9" y="225.5" class="node" fill="#8998E1">0.82</text><text x="279.6" y="201.4" class="node" fill="#E59FAC">0.29</text><text x="302.3" y="211.2" class="node" fill="#D2D4E3">0.57</text><text x="279.6" y="249.7" class="node" fill="#4A6FE3">1</text><text x="302.3" y="268.7" class="node" fill="#E17F94">0.18</text><text x="325" y="250.1" class="node" fill="#5374E2">0.98</text><text x="325" y="287.3" class="node" fill="#6982E1">0.92</text><text x="347.7" y="305.1" class="node" fill="#B1B8E2">0.68</text><text x="370.4" y="289" class="node" fill="#4A6FE3">1</text><text x="370.4" y="321.1" class="node" fill="#B1B8E2">0.68</text><text x="393.1" y="333.6" class="node" fill="#B1B8E2">0.68</text><text x="415.9" y="345.8" class="node" fill="#B1B8E2">0.68</text><text x="438.6" y="357.2" class="node" fill="#4A6FE3">1</text><text x="461.3" y="366.9" class="node" fill="#B4BBE3">0.67</text><text x="256.9" y="417.2" class="node" fill="#8696E1">0.83</text><text x="279.6" y="396.1" class="node" fill="#8696E1">0.83</text><text x="302.3" y="405.8" class="node" fill="#4A6FE3">1</text><text x="279.6" y="438.2" class="node" fill="#4A6FE3">1</text><text x="302.3" y="451.2" class="node" fill="#5776E2">0.97</text><text x="325" y="464" class="node" fill="#8696E1">0.83</text><text x="347.7" y="476.8" class="node" fill="#8696E1">0.83</text><text x="370.4" y="489.4" class="node" fill="#8696E1">0.83</text><text x="393.1" y="501.6" class="node" fill="#A3ADE2">0.73</text><text x="415.9" y="512.9" class="node" fill="#DDDEE3">0.52</text><text x="438.6" y="522.6" class="node" fill="#4A6FE3">1</text><text x="29.7" y="582.7" class="node" fill="#4A6FE3">1</text><text x="52.4" y="564.8" class="node" fill="#4A6FE3">1</text><text x="75.1" y="574.6" class="node" fill="#4A6FE3">1</text><text x="52.4" y="600.5" class="node" fill="#4A6FE3">1</text></svg>
