<svg xmlns="http://www.w3.org/2000/svg" version="1.1" width="682" height="612" class="tree" data-char="202"><text x="678" y="16" text-anchor="end" class="stepsLabel">Character adds <tspan class="score">2</tspan> to tree score</text><text x="678" y="29" text-anchor="end" class="stepsLabel"><tspan class="score">0</tspan> additional regions</text><text x="678" y="42" text-anchor="end" class="stepsLabel">CI = 0.5; Fitch CI = 0.5; Fitch RI = 0</text><text x="678" y="68" text-anchor="end" class="stepsLabel"><tspan dy="16">An optimal tree under:</tspan><tspan x="680" style="font-style:italic" class="notThisAn" dy="1.2em">Equal weights</tspan><tspan x="680" style="font-style:italic" class="notThisAn" dy="1.2em">Implied weights, k = 2</tspan><tspan x="680" style="font-style:italic" class="thisAn" dy="1.2em">IW, k = 3</tspan><tspan x="680" style="font-style:italic" class="notThisAn" dy="1.2em">IW, k = 4.5</tspan><tspan x="680" style="font-style:italic" class="notThisAn" dy="1.2em">IW, k = 7</tspan><tspan x="680" style="font-style:italic" class="notThisAn" dy="1.2em">IW, k = 10.5</tspan><tspan x="680" style="font-style:italic" class="notThisAn" dy="1.2em">IW, k = 16</tspan><tspan x="680" style="font-style:italic" class="notThisAn" dy="1.2em">IW, k = 24</tspan></text><text x="88" y="593.7" fill="#91bfdb" class="flag">[1]</text><text x="110" y="593.7" fill="#000" class="taxonLabel">Tonicella</text><text x="88" y="607" fill="grey" class="flag">[?]</text><text x="110" y="607" fill="grey" class="taxonLabel">Wiwaxia corrugata</text><text x="67.2" y="580.5" fill="#91bfdb" class="flag">[1]</text><text x="89.2" y="580.5" fill="#000" class="taxonLabel">Dentalium</text><text x="67.2" y="553.9" fill="#91bfdb" class="flag">[1]</text><text x="89.2" y="553.9" fill="#000" class="taxonLabel">Sipunculus</text><text x="67.2" y="567.2" fill="#91bfdb" class="flag">[1]</text><text x="89.2" y="567.2" fill="#000" class="taxonLabel">Serpula</text><text x="274.6" y="514.1" fill="grey" class="flag">[?]</text><text x="296.6" y="514.1" fill="grey" class="taxonLabel">Haplophrentis carinatus</text><text x="274.6" y="527.4" fill="grey" class="flag">[?]</text><text x="296.6" y="527.4" fill="grey" class="taxonLabel">Pedunculotheca diania</text><text x="316.1" y="487.6" fill="grey" class="flag">[?]</text><text x="338.1" y="487.6" fill="grey" class="taxonLabel">Askepasma toddense</text><text x="316.1" y="500.9" fill="grey" class="flag">[?]</text><text x="338.1" y="500.9" fill="grey" class="taxonLabel">Micromitra</text><text x="378.3" y="461.1" fill="grey" class="flag">[?]</text><text x="400.3" y="461.1" fill="grey" class="taxonLabel">Craniops</text><text x="378.3" y="474.3" fill="#91bfdb" class="flag">[1]</text><text x="400.3" y="474.3" fill="#000" class="taxonLabel">Novocrania</text><text x="357.6" y="447.8" fill="grey" class="flag">[?]</text><text x="379.6" y="447.8" fill="grey" class="taxonLabel">Ussunia</text><text x="336.8" y="434.5" fill="grey" class="flag">[?]</text><text x="358.8" y="434.5" fill="grey" class="taxonLabel">Gasconsia</text><text x="378.3" y="408" fill="grey" class="flag">[?]</text><text x="400.3" y="408" fill="grey" class="taxonLabel">Tomteluva perturbata</text><text x="378.3" y="421.3" fill="grey" class="flag">[?]</text><text x="400.3" y="421.3" fill="grey" class="taxonLabel">Yuganotheca elegans</text><text x="357.6" y="394.7" fill="grey" class="flag">[?]</text><text x="379.6" y="394.7" fill="grey" class="taxonLabel">Salanygolina</text><text x="482" y="368.2" fill="#91bfdb" class="flag">[1]</text><text x="504" y="368.2" fill="#000" class="taxonLabel">Terebratulina</text><text x="482" y="381.5" fill="grey" class="flag">[?]</text><text x="504" y="381.5" fill="grey" class="taxonLabel">Orthis</text><text x="461.3" y="354.9" fill="grey" class="flag">[?]</text><text x="483.3" y="354.9" fill="grey" class="taxonLabel">Alisina</text><text x="440.5" y="341.7" fill="grey" class="flag">[?]</text><text x="462.5" y="341.7" fill="grey" class="taxonLabel">Longtancunella chengjiangensis</text><text x="419.8" y="328.4" fill="grey" class="flag">[?]</text><text x="441.8" y="328.4" fill="grey" class="taxonLabel">Glyptoria</text><text x="399" y="315.1" fill="grey" class="flag">[?]</text><text x="421" y="315.1" fill="grey" class="taxonLabel">Nisusia sulcata</text><text x="378.3" y="301.9" fill="grey" class="flag">[?]</text><text x="400.3" y="301.9" fill="grey" class="taxonLabel">Kutorgina chengjiangensis</text><text x="378.3" y="275.3" fill="grey" class="flag">[?]</text><text x="400.3" y="275.3" fill="grey" class="taxonLabel">Coolinia pecten</text><text x="378.3" y="288.6" fill="grey" class="flag">[?]</text><text x="400.3" y="288.6" fill="grey" class="taxonLabel">Antigonambonites planus</text><text x="399" y="248.8" fill="grey" class="flag">[?]</text><text x="421" y="248.8" fill="grey" class="taxonLabel">Mummpikia nuda</text><text x="399" y="262.1" fill="grey" class="flag">[?]</text><text x="421" y="262.1" fill="grey" class="taxonLabel">Eoobolus</text><text x="378.3" y="235.5" fill="grey" class="flag">[?]</text><text x="400.3" y="235.5" fill="grey" class="taxonLabel">Botsfordia</text><text x="357.6" y="222.3" fill="grey" class="flag">[?]</text><text x="379.6" y="222.3" fill="grey" class="taxonLabel">Lingulellotreta malongensis</text><text x="357.6" y="195.7" fill="#91bfdb" class="flag">[1]</text><text x="379.6" y="195.7" fill="#000" class="taxonLabel">Lingula</text><text x="357.6" y="209" fill="#91bfdb" class="flag">[1]</text><text x="379.6" y="209" fill="#000" class="taxonLabel">Pelagodiscus atlanticus</text><text x="357.6" y="169.2" fill="grey" class="flag">[?]</text><text x="379.6" y="169.2" fill="grey" class="taxonLabel">Acanthotretella spinosa</text><text x="357.6" y="182.5" fill="grey" class="flag">[?]</text><text x="379.6" y="182.5" fill="grey" class="taxonLabel">Siphonobolus priscus</text><text x="336.8" y="155.9" fill="grey" class="flag">[?]</text><text x="358.8" y="155.9" fill="grey" class="taxonLabel">Lingulosacculus</text><text x="295.3" y="142.7" fill="grey" class="flag">[?]</text><text x="317.3" y="142.7" fill="grey" class="taxonLabel">Clupeafumosus socialis</text><text x="233.1" y="129.4" fill="grey" class="flag">[?]</text><text x="255.1" y="129.4" fill="grey" class="taxonLabel">Micrina</text><text x="212.4" y="116.1" fill="grey" class="flag">[?]</text><text x="234.4" y="116.1" fill="grey" class="taxonLabel">Heliomedusa orienta</text><text x="191.7" y="102.9" fill="grey" class="flag">[?]</text><text x="213.7" y="102.9" fill="grey" class="taxonLabel">Mickwitzia muralensis</text><text x="170.9" y="89.6" fill="grey" class="flag">[?]</text><text x="192.9" y="89.6" fill="grey" class="taxonLabel">Paterimitra</text><text x="170.9" y="63.1" fill="grey" class="flag">[?]</text><text x="192.9" y="63.1" fill="grey" class="taxonLabel">Dailyatia</text><text x="170.9" y="76.3" fill="grey" class="flag">[?]</text><text x="192.9" y="76.3" fill="grey" class="taxonLabel">Halkieria evangelista</text><text x="129.4" y="49.8" fill="grey" class="flag">[?]</text><text x="151.4" y="49.8" fill="grey" class="taxonLabel">Eccentrotheca</text><text x="108.7" y="36.5" fill="grey" class="flag">[?]</text><text x="130.7" y="36.5" fill="grey" class="taxonLabel">Cotyledion tylodes</text><text x="88" y="23.3" fill="grey" class="flag">[?]</text><text x="110" y="23.3" fill="grey" class="taxonLabel">Phoronis</text><text x="67.2" y="10" fill="#fc8d59" class="flag">[0]</text><text x="89.2" y="10" fill="#000" class="taxonLabel">Flustra</text><text x="46.5" y="540.7" fill="#fc8d59" class="flag">[0]</text><text x="68.5" y="540.7" fill="#000" class="taxonLabel">Loxosomella</text><path d="M5,426V279.5H25.7M25.7,279.5V21.4H46.5M46.5,21.4V35.8H67.2M67.2,35.8V20.3H88M67.2,35.8V51.3H88M88,51.3V33.5H108.7M88,51.3V69.1H108.7M108.7,69.1V46.8H129.4M108.7,69.1V91.3H129.4M129.4,91.3V66.7H150.2M150.2,66.7V60.1H170.9M150.2,66.7V73.3H170.9M129.4,91.3V116H150.2M150.2,116V86.6H170.9M150.2,116V145.4H170.9M170.9,145.4V99.9H191.7M170.9,145.4V190.9H191.7M191.7,190.9V113.1H212.4M191.7,190.9V268.6H212.4M212.4,268.6V126.4H233.1M212.4,268.6V410.9H233.1M233.1,410.9V517.8H253.9M253.9,517.8V511.1H274.6M253.9,517.8V524.4H274.6" stroke="darkgrey"></path><path d="M46.5,21.4V7H67.2M25.7,279.5V537.7H46.5" stroke="#fc8d59"></path><path d="M233.1,410.9V303.9H253.9M253.9,303.9V164.3H274.6M274.6,164.3V139.7H295.3M274.6,164.3V189H295.3M295.3,189V162.9H316.1M316.1,162.9V152.9H336.8M316.1,162.9V172.8H336.8M336.8,172.8V166.2H357.6M336.8,172.8V179.5H357.6M295.3,189V215.1H316.1M316.1,215.1V199.4H336.8M336.8,199.4V192.7H357.6M336.8,199.4V206H357.6M316.1,215.1V230.9H336.8M336.8,230.9V219.3H357.6M336.8,230.9V242.5H357.6M357.6,242.5V232.5H378.3M357.6,242.5V252.4H378.3M378.3,252.4V245.8H399M378.3,252.4V259.1H399M253.9,303.9V443.5H274.6M274.6,443.5V395.9H295.3M295.3,395.9V348.6H316.1M316.1,348.6V295.4H336.8M336.8,295.4V279H357.6M357.6,279V272.3H378.3M357.6,279V285.6H378.3M336.8,295.4V311.9H357.6M357.6,311.9V298.9H378.3M357.6,311.9V325H378.3M378.3,325V312.1H399M378.3,325V337.8H399M399,337.8V325.4H419.8M399,337.8V350.3H419.8M419.8,350.3V338.7H440.5M419.8,350.3V361.9H440.5M440.5,361.9V351.9H461.3M440.5,361.9V371.8H461.3M461.3,371.8V365.2H482M461.3,371.8V378.5H482M316.1,348.6V401.7H336.8M336.8,401.7V391.7H357.6M336.8,401.7V411.6H357.6M357.6,411.6V405H378.3M357.6,411.6V418.3H378.3M295.3,395.9V443.1H316.1M316.1,443.1V431.5H336.8M316.1,443.1V454.8H336.8M336.8,454.8V444.8H357.6M336.8,454.8V464.7H357.6M357.6,464.7V458.1H378.3M357.6,464.7V471.3H378.3M274.6,443.5V491.2H295.3M295.3,491.2V484.6H316.1M295.3,491.2V497.9H316.1M5,426V572.5H25.7M25.7,572.5V557.6H46.5M46.5,557.6V550.9H67.2M46.5,557.6V564.2H67.2M25.7,572.5V587.4H46.5M46.5,587.4V577.5H67.2M46.5,587.4V597.4H67.2M67.2,597.4V590.7H88M67.2,597.4V604H88" stroke="#91bfdb"></path><text x="7" y="429" class="node" fill="#4A6FE3">1</text><text x="27.7" y="282.5" class="node" fill="#4A6FE3">1</text><text x="48.5" y="24.4" class="node" fill="#4A6FE3">1</text><text x="69.2" y="38.8" class="node" fill="#4A6FE3">1</text><text x="90" y="54.3" class="node" fill="#4A6FE3">1</text><text x="110.7" y="72.1" class="node" fill="#E6ABB6">0.32</text><text x="131.4" y="94.3" class="node" fill="#4A6FE3">1</text><text x="152.2" y="69.7" class="node" fill="#4A6FE3">1</text><text x="152.2" y="119" class="node" fill="#4A6FE3">1</text><text x="172.9" y="148.4" class="node" fill="#E495A5">0.25</text><text x="193.7" y="193.9" class="node" fill="#E495A5">0.25</text><text x="214.4" y="271.6" class="node" fill="#E495A5">0.25</text><text x="235.1" y="413.9" class="node" fill="#E495A5">0.25</text><text x="255.9" y="306.9" class="node" fill="#E495A5">0.25</text><text x="276.6" y="167.3" class="node" fill="#E495A5">0.25</text><text x="297.3" y="192" class="node" fill="#E495A5">0.25</text><text x="318.1" y="165.9" class="node" fill="#E5A8B3">0.31</text><text x="338.8" y="175.8" class="node" fill="#4A6FE3">1</text><text x="318.1" y="218.1" class="node" fill="#E495A5">0.25</text><text x="338.8" y="202.4" class="node" fill="#E495A5">0.25</text><text x="338.8" y="233.9" class="node" fill="#E495A5">0.25</text><text x="359.6" y="245.5" class="node" fill="#E6AEB8">0.33</text><text x="380.3" y="255.4" class="node" fill="#E495A5">0.25</text><text x="276.6" y="446.5" class="node" fill="#4A6FE3">1</text><text x="297.3" y="398.9" class="node" fill="#D85778">0.06</text><text x="318.1" y="351.6" class="node" fill="#667FE1">0.93</text><text x="338.8" y="298.4" class="node" fill="#4A6FE3">1</text><text x="359.6" y="282" class="node" fill="#4A6FE3">1</text><text x="359.6" y="314.9" class="node" fill="#7A8DE1">0.87</text><text x="380.3" y="328" class="node" fill="#7A8DE1">0.87</text><text x="401" y="340.8" class="node" fill="#7A8DE1">0.87</text><text x="421.8" y="353.3" class="node" fill="#7A8DE1">0.87</text><text x="442.5" y="364.9" class="node" fill="#4A6FE3">1</text><text x="463.3" y="374.8" class="node" fill="#5B78E2">0.96</text><text x="338.8" y="404.7" class="node" fill="#A0ABE2">0.74</text><text x="359.6" y="414.6" class="node" fill="#7388E1">0.89</text><text x="318.1" y="446.1" class="node" fill="#4A6FE3">1</text><text x="338.8" y="457.8" class="node" fill="#4A6FE3">1</text><text x="359.6" y="467.7" class="node" fill="#4A6FE3">1</text><text x="297.3" y="494.2" class="node" fill="#4A6FE3">1</text><text x="255.9" y="520.8" class="node" fill="#4A6FE3">1</text><text x="27.7" y="575.5" class="node" fill="#4A6FE3">1</text><text x="48.5" y="560.6" class="node" fill="#4A6FE3">1</text><text x="48.5" y="590.4" class="node" fill="#4A6FE3">1</text><text x="69.2" y="600.4" class="node" fill="#97A4E2">0.77</text></svg>
