<svg xmlns="http://www.w3.org/2000/svg" version="1.1" width="682" height="612" class="tree" data-char="91"><text x="678" y="16" text-anchor="end" class="stepsLabel">Character adds <tspan class="score">6</tspan> to tree score</text><text x="678" y="29" text-anchor="end" class="stepsLabel"><tspan class="score">1</tspan> additional region</text><text x="678" y="42" text-anchor="end" class="stepsLabel">CI = 0.33; Fitch CI = 0.33; Fitch RI = 0.5</text><text x="678" y="68" text-anchor="end" class="stepsLabel"><tspan dy="16">An optimal tree under:</tspan><tspan x="680" style="font-style:italic" class="thisAn" dy="1.2em">Equal weights</tspan><tspan x="680" style="font-style:italic" class="notThisAn" dy="1.2em">Implied weights, k = 2</tspan><tspan x="680" style="font-style:italic" class="notThisAn" dy="1.2em">IW, k = 3</tspan><tspan x="680" style="font-style:italic" class="notThisAn" dy="1.2em">IW, k = 4.5</tspan><tspan x="680" style="font-style:italic" class="notThisAn" dy="1.2em">IW, k = 7</tspan><tspan x="680" style="font-style:italic" class="notThisAn" dy="1.2em">IW, k = 10.5</tspan><tspan x="680" style="font-style:italic" class="notThisAn" dy="1.2em">IW, k = 16</tspan><tspan x="680" style="font-style:italic" class="notThisAn" dy="1.2em">IW, k = 24</tspan></text><text x="100.4" y="593.7" fill="lightgrey" class="flag">[-]</text><text x="122.4" y="593.7" fill="lightgrey" class="taxonLabel">Wiwaxia corrugata</text><text x="100.4" y="607" fill="#fdae61" class="flag">[1]</text><text x="122.4" y="607" fill="#000" class="taxonLabel">Tonicella</text><text x="76.6" y="580.5" fill="lightgrey" class="flag">[-]</text><text x="98.6" y="580.5" fill="lightgrey" class="taxonLabel">Dentalium</text><text x="76.6" y="553.9" fill="lightgrey" class="flag">[-]</text><text x="98.6" y="553.9" fill="lightgrey" class="taxonLabel">Sipunculus</text><text x="76.6" y="567.2" fill="lightgrey" class="flag">[-]</text><text x="98.6" y="567.2" fill="lightgrey" class="taxonLabel">Serpula</text><text x="338.9" y="514.1" fill="#fdae61" class="flag">[1]</text><text x="360.9" y="514.1" fill="#000" class="taxonLabel">Novocrania</text><text x="338.9" y="527.4" fill="#fdae61" class="flag">[1]</text><text x="360.9" y="527.4" fill="#000" class="taxonLabel">Craniops</text><text x="315.1" y="500.9" fill="#abd9e9" class="flag">[2]</text><text x="337.1" y="500.9" fill="#000" class="taxonLabel">Ussunia</text><text x="291.2" y="487.6" fill="#abd9e9" class="flag">[2]</text><text x="313.2" y="487.6" fill="#000" class="taxonLabel">Gasconsia</text><text x="386.6" y="461.1" fill="#abd9e9" class="flag">[2]</text><text x="408.6" y="461.1" fill="#000" class="taxonLabel">Antigonambonites planus</text><text x="386.6" y="474.3" fill="#abd9e9" class="flag">[2]</text><text x="408.6" y="474.3" fill="#000" class="taxonLabel">Coolinia pecten</text><text x="482" y="434.5" fill="#abd9e9" class="flag">[2]</text><text x="504" y="434.5" fill="#000" class="taxonLabel">Terebratulina</text><text x="482" y="447.8" fill="#abd9e9" class="flag">[2]</text><text x="504" y="447.8" fill="#000" class="taxonLabel">Orthis</text><text x="458.2" y="421.3" fill="#abd9e9" class="flag">[2]</text><text x="480.2" y="421.3" fill="#000" class="taxonLabel">Alisina</text><text x="434.3" y="408" fill="#abd9e9" class="flag">[2]</text><text x="456.3" y="408" fill="#000" class="taxonLabel">Glyptoria</text><text x="410.5" y="394.7" fill="#abd9e9" class="flag">[2]</text><text x="432.5" y="394.7" fill="#000" class="taxonLabel">Nisusia sulcata</text><text x="386.6" y="381.5" fill="#abd9e9" class="flag">[2]</text><text x="408.6" y="381.5" fill="#000" class="taxonLabel">Kutorgina chengjiangensis</text><text x="338.9" y="368.2" fill="#abd9e9" class="flag">[2]</text><text x="360.9" y="368.2" fill="#000" class="taxonLabel">Longtancunella chengjiangensis</text><text x="362.8" y="341.7" fill="#fdae61" class="flag">[1]</text><text x="384.8" y="341.7" fill="#000" class="taxonLabel">Tomteluva perturbata</text><text x="362.8" y="354.9" fill="#fdae61" class="flag">[1]</text><text x="384.8" y="354.9" fill="#000" class="taxonLabel">Yuganotheca elegans</text><text x="338.9" y="328.4" fill="#abd9e9" class="flag">[2]</text><text x="360.9" y="328.4" fill="#000" class="taxonLabel">Salanygolina</text><text x="315.1" y="301.9" fill="#abd9e9" class="flag">[2]</text><text x="337.1" y="301.9" fill="#000" class="taxonLabel">Micromitra</text><text x="315.1" y="315.1" fill="#abd9e9" class="flag">[2]</text><text x="337.1" y="315.1" fill="#000" class="taxonLabel">Askepasma toddense</text><text x="458.2" y="275.3" fill="#abd9e9" class="flag">[2]</text><text x="480.2" y="275.3" fill="#000" class="taxonLabel">Acanthotretella spinosa</text><text x="458.2" y="288.6" fill="grey" class="flag">[12]</text><text x="480.2" y="288.6" fill="grey" class="taxonLabel">Siphonobolus priscus</text><text x="434.3" y="262.1" fill="#abd9e9" class="flag">[2]</text><text x="456.3" y="262.1" fill="#000" class="taxonLabel">Lingulosacculus</text><text x="410.5" y="248.8" fill="grey" class="flag">[12]</text><text x="432.5" y="248.8" fill="grey" class="taxonLabel">Clupeafumosus socialis</text><text x="386.6" y="235.5" fill="#abd9e9" class="flag">[2]</text><text x="408.6" y="235.5" fill="#000" class="taxonLabel">Lingulellotreta malongensis</text><text x="362.8" y="222.3" fill="#abd9e9" class="flag">[2]</text><text x="384.8" y="222.3" fill="#000" class="taxonLabel">Botsfordia</text><text x="338.9" y="209" fill="#abd9e9" class="flag">[2]</text><text x="360.9" y="209" fill="#000" class="taxonLabel">Mummpikia nuda</text><text x="315.1" y="195.7" fill="#abd9e9" class="flag">[2]</text><text x="337.1" y="195.7" fill="#000" class="taxonLabel">Eoobolus</text><text x="291.2" y="182.5" fill="#2c7bb6" class="flag">[3]</text><text x="313.2" y="182.5" fill="#000" class="taxonLabel">Lingula</text><text x="315.1" y="155.9" fill="#fdae61" class="flag">[1]</text><text x="337.1" y="155.9" fill="#000" class="taxonLabel">Pelagodiscus atlanticus</text><text x="315.1" y="169.2" fill="#fdae61" class="flag">[1]</text><text x="337.1" y="169.2" fill="#000" class="taxonLabel">Mickwitzia muralensis</text><text x="291.2" y="142.7" fill="#abd9e9" class="flag">[2]</text><text x="313.2" y="142.7" fill="#000" class="taxonLabel">Micrina</text><text x="267.4" y="116.1" fill="#fdae61" class="flag">[1]</text><text x="289.4" y="116.1" fill="#000" class="taxonLabel">Haplophrentis carinatus</text><text x="267.4" y="129.4" fill="#fdae61" class="flag">[1]</text><text x="289.4" y="129.4" fill="#000" class="taxonLabel">Pedunculotheca diania</text><text x="243.5" y="102.9" fill="#abd9e9" class="flag">[2]</text><text x="265.5" y="102.9" fill="#000" class="taxonLabel">Paterimitra</text><text x="195.8" y="89.6" fill="#abd9e9" class="flag">[2]</text><text x="217.8" y="89.6" fill="#000" class="taxonLabel">Heliomedusa orienta</text><text x="195.8" y="63.1" fill="#abd9e9" class="flag">[2]</text><text x="217.8" y="63.1" fill="#000" class="taxonLabel">Halkieria evangelista</text><text x="195.8" y="76.3" fill="lightgrey" class="flag">[-]</text><text x="217.8" y="76.3" fill="lightgrey" class="taxonLabel">Dailyatia</text><text x="148.1" y="49.8" fill="lightgrey" class="flag">[-]</text><text x="170.1" y="49.8" fill="lightgrey" class="taxonLabel">Eccentrotheca</text><text x="124.2" y="36.5" fill="lightgrey" class="flag">[-]</text><text x="146.2" y="36.5" fill="lightgrey" class="taxonLabel">Cotyledion tylodes</text><text x="100.4" y="23.3" fill="lightgrey" class="flag">[-]</text><text x="122.4" y="23.3" fill="lightgrey" class="taxonLabel">Phoronis</text><text x="76.6" y="10" fill="lightgrey" class="flag">[-]</text><text x="98.6" y="10" fill="lightgrey" class="taxonLabel">Flustra</text><text x="52.7" y="540.7" fill="lightgrey" class="flag">[-]</text><text x="74.7" y="540.7" fill="lightgrey" class="taxonLabel">Loxosomella</text><path d="M5,426.2V280H28.9M28.9,280V22.3H52.7M52.7,22.3V7H76.6M52.7,22.3V37.5H76.6M76.6,37.5V20.3H100.4M76.6,37.5V54.8H100.4M100.4,54.8V33.5H124.2M100.4,54.8V76.1H124.2M124.2,76.1V46.8H148.1M172,66.7V73.3H195.8M28.9,280V537.7H52.7M5,426.2V572.5H28.9M28.9,572.5V557.6H52.7M52.7,557.6V550.9H76.6M52.7,557.6V564.2H76.6M28.9,572.5V587.4H52.7M52.7,587.4V577.5H76.6M52.7,587.4V597.4H76.6M76.6,597.4V590.7H100.4" stroke="lightgrey" class="inapplicable"></path><path d="M124.2,76.1V105.4H148.1M148.1,105.4V66.7H172M172,66.7V60.1H195.8M148.1,105.4V144.1H172M172,144.1V86.6H195.8M172,144.1V201.7H195.8M195.8,201.7V109.8H219.7M219.7,109.8V99.9H243.5M195.8,201.7V293.6H219.7M219.7,293.6V171.1H243.5M243.5,171.1V149.6H267.4M267.4,149.6V139.7H291.2M243.5,171.1V192.7H267.4M267.4,192.7V205.9H291.2M291.2,205.9V192.7H315.1M291.2,205.9V219.1H315.1M315.1,219.1V206H338.9M315.1,219.1V232.1H338.9M338.9,232.1V219.3H362.8M338.9,232.1V245H362.8M362.8,245V232.5H386.6M362.8,245V257.4H386.6M386.6,257.4V245.8H410.5M386.6,257.4V269H410.5M410.5,269V259.1H434.3M410.5,269V279H434.3M434.3,279V272.3H458.2M434.3,279V285.6H458.2M219.7,293.6V416H243.5M243.5,416V335.7H267.4M267.4,335.7V305.5H291.2M291.2,305.5V298.9H315.1M291.2,305.5V312.1H315.1M267.4,335.7V366H291.2M291.2,366V335.4H315.1M315.1,335.4V325.4H338.9M291.2,366V396.6H315.1M315.1,396.6V365.2H338.9M315.1,396.6V428H338.9M338.9,428V391.3H362.8M362.8,391.3V378.5H386.6M362.8,391.3V404.2H386.6M386.6,404.2V391.7H410.5M386.6,404.2V416.6H410.5M410.5,416.6V405H434.3M410.5,416.6V428.2H434.3M434.3,428.2V418.3H458.2M434.3,428.2V438.2H458.2M458.2,438.2V431.5H482M458.2,438.2V444.8H482M338.9,428V464.7H362.8M362.8,464.7V458.1H386.6M362.8,464.7V471.3H386.6M243.5,416V496.2H267.4M267.4,496.2V484.6H291.2M267.4,496.2V507.8H291.2M291.2,507.8V497.9H315.1" stroke="#abd9e9"></path><path d="M219.7,109.8V119.8H243.5M243.5,119.8V113.1H267.4M243.5,119.8V126.4H267.4M267.4,149.6V159.6H291.2M291.2,159.6V152.9H315.1M291.2,159.6V166.2H315.1M315.1,335.4V345.3H338.9M338.9,345.3V338.7H362.8M338.9,345.3V351.9H362.8M291.2,507.8V517.8H315.1M315.1,517.8V511.1H338.9M315.1,517.8V524.4H338.9M76.6,597.4V604H100.4" stroke="#fdae61"></path><path d="M267.4,192.7V179.5H291.2" stroke="#2c7bb6"></path><text x="7" y="429.2" class="node" fill="#4A6FE3">1</text><text x="30.9" y="283" class="node" fill="#4A6FE3">1</text><text x="54.7" y="25.3" class="node" fill="#4A6FE3">1</text><text x="78.6" y="40.5" class="node" fill="#4A6FE3">1</text><text x="102.4" y="57.8" class="node" fill="#4A6FE3">1</text><text x="126.2" y="79.1" class="node" fill="#E6ABB6">0.32</text><text x="150.1" y="108.4" class="node" fill="#4A6FE3">1</text><text x="174" y="69.7" class="node" fill="#4A6FE3">1</text><text x="174" y="147.1" class="node" fill="#4A6FE3">1</text><text x="197.8" y="204.7" class="node" fill="#9DA8E2">0.75</text><text x="221.7" y="112.8" class="node" fill="#B4BBE3">0.67</text><text x="245.5" y="122.8" class="node" fill="#4A6FE3">1</text><text x="221.7" y="296.6" class="node" fill="#9DA8E2">0.75</text><text x="245.5" y="174.1" class="node" fill="#B4BBE3">0.67</text><text x="269.4" y="152.6" class="node" fill="#B4BBE3">0.67</text><text x="293.2" y="162.6" class="node" fill="#9DA8E2">0.75</text><text x="269.4" y="195.7" class="node" fill="#9DA8E2">0.75</text><text x="293.2" y="208.9" class="node" fill="#B4BBE3">0.67</text><text x="317.1" y="222.1" class="node" fill="#B4BBE3">0.67</text><text x="340.9" y="235.1" class="node" fill="#B4BBE3">0.67</text><text x="364.8" y="248" class="node" fill="#B4BBE3">0.67</text><text x="388.6" y="260.4" class="node" fill="#E3DCDD">0.48</text><text x="412.5" y="272" class="node" fill="#E5A8B3">0.31</text><text x="436.3" y="282" class="node" fill="#4A6FE3">1</text><text x="245.5" y="419" class="node" fill="#4A6FE3">1</text><text x="269.4" y="338.7" class="node" fill="#8C9BE1">0.81</text><text x="293.2" y="308.5" class="node" fill="#4A6FE3">1</text><text x="293.2" y="369" class="node" fill="#667FE1">0.93</text><text x="317.1" y="338.4" class="node" fill="#A0ABE2">0.74</text><text x="340.9" y="348.3" class="node" fill="#7388E1">0.89</text><text x="317.1" y="399.6" class="node" fill="#4A6FE3">1</text><text x="340.9" y="431" class="node" fill="#DD6F88">0.13</text><text x="364.8" y="394.3" class="node" fill="#DD6F88">0.13</text><text x="388.6" y="407.2" class="node" fill="#DD6F88">0.13</text><text x="412.5" y="419.6" class="node" fill="#DD6F88">0.13</text><text x="436.3" y="431.2" class="node" fill="#4A6FE3">1</text><text x="460.2" y="441.2" class="node" fill="#5B78E2">0.96</text><text x="364.8" y="467.7" class="node" fill="#4A6FE3">1</text><text x="269.4" y="499.2" class="node" fill="#4A6FE3">1</text><text x="293.2" y="510.8" class="node" fill="#4A6FE3">1</text><text x="317.1" y="520.8" class="node" fill="#4A6FE3">1</text><text x="30.9" y="575.5" class="node" fill="#4A6FE3">1</text><text x="54.7" y="560.6" class="node" fill="#4A6FE3">1</text><text x="54.7" y="590.4" class="node" fill="#4A6FE3">1</text><text x="78.6" y="600.4" class="node" fill="#97A4E2">0.77</text></svg>
