<svg xmlns="http://www.w3.org/2000/svg" version="1.1" width="682" height="682" class="tree" data-char="166"><text x="678" y="15.4" text-anchor="end" class="stepsLabel">Character adds <tspan class="score">2</tspan> to tree score</text><text x="678" y="27.8" text-anchor="end" class="stepsLabel"><tspan class="score">0</tspan> additional regions</text><text x="678" y="40.2" text-anchor="end" class="stepsLabel">CI = 0.5; Fitch CI = 0.5; Fitch RI = 0.8</text><text x="678" y="65" text-anchor="end" class="stepsLabel"><tspan dy="16" fill="#34caaf">An optimal tree under:</tspan><tspan x="680" style="font-style:italic" class="notThisAn" dy="1.2em">Equal weights</tspan><tspan x="680" style="font-style:italic" class="notThisAn" dy="1.2em">Implied weights, k = 2</tspan><tspan x="680" style="font-style:italic" class="thisAn" dy="1.2em">IW, k = 3</tspan><tspan x="680" style="font-style:italic" class="notThisAn" dy="1.2em">IW, k = 4.5</tspan><tspan x="680" style="font-style:italic" class="notThisAn" dy="1.2em">IW, k = 7</tspan><tspan x="680" style="font-style:italic" class="notThisAn" dy="1.2em">IW, k = 10.5</tspan><tspan x="680" style="font-style:italic" class="notThisAn" dy="1.2em">IW, k = 16</tspan><tspan x="680" style="font-style:italic" class="notThisAn" dy="1.2em">IW, k = 24</tspan></text><text x="124.2" y="664.4" fill="#91bfdb" class="flag">[2]</text><text x="146.2" y="664.4" fill="#000" class="taxonLabel">Tonicella</text><text x="124.2" y="677" fill="#91bfdb" class="flag">[2]</text><text x="146.2" y="677" fill="#000" class="taxonLabel">Dentalium</text><text x="94.4" y="651.8" fill="grey" class="flag">[?]</text><text x="116.4" y="651.8" fill="#999" class="taxonLabel">Wiwaxia corrugata</text><text x="94.4" y="626.7" fill="#91bfdb" class="flag">[2]</text><text x="116.4" y="626.7" fill="#000" class="taxonLabel">Serpula</text><text x="94.4" y="639.2" fill="#91bfdb" class="flag">[2]</text><text x="116.4" y="639.2" fill="#000" class="taxonLabel">Sipunculus</text><text x="124.2" y="601.5" fill="#e2e2a2" class="flag">[1]</text><text x="146.2" y="601.5" fill="#000" class="taxonLabel">Flustra</text><text x="124.2" y="614.1" fill="#e2e2a2" class="flag">[1]</text><text x="146.2" y="614.1" fill="#000" class="taxonLabel">Amathia</text><text x="392.6" y="576.3" fill="grey" class="flag">[?]</text><text x="414.6" y="576.3" fill="#999" class="taxonLabel">Pauxillites</text><text x="392.6" y="588.9" fill="grey" class="flag">[?]</text><text x="414.6" y="588.9" fill="#999" class="taxonLabel">Maxilites</text><text x="362.8" y="563.7" fill="grey" class="flag">[?]</text><text x="384.8" y="563.7" fill="#999" class="taxonLabel">Haplophrentis carinatus</text><text x="332.9" y="551.2" fill="grey" class="flag">[?]</text><text x="354.9" y="551.2" fill="#999" class="taxonLabel">Paramicrocornus</text><text x="422.4" y="526" fill="grey" class="flag">[?]</text><text x="444.4" y="526" fill="#999" class="taxonLabel">Namacalathus</text><text x="422.4" y="538.6" fill="#91bfdb" class="flag">[2]</text><text x="444.4" y="538.6" fill="#000" class="taxonLabel">Phoronis</text><text x="392.6" y="513.4" fill="grey" class="flag">[?]</text><text x="414.6" y="513.4" fill="#999" class="taxonLabel">Cotyledion tylodes</text><text x="362.8" y="500.8" fill="grey" class="flag">[?]</text><text x="384.8" y="500.8" fill="#999" class="taxonLabel">Bactrotheca</text><text x="332.9" y="488.2" fill="grey" class="flag">[?]</text><text x="354.9" y="488.2" fill="#999" class="taxonLabel">Conotheca</text><text x="273.3" y="475.6" fill="grey" class="flag">[?]</text><text x="295.3" y="475.6" fill="#999" class="taxonLabel">Cupitheca holocyclata</text><text x="243.5" y="463.1" fill="grey" class="flag">[?]</text><text x="265.5" y="463.1" fill="#999" class="taxonLabel">Pedunculotheca diania</text><text x="422.4" y="437.9" fill="grey" class="flag">[?]</text><text x="444.4" y="437.9" fill="#999" class="taxonLabel">Nisusia sulcata</text><text x="422.4" y="450.5" fill="grey" class="flag">[?]</text><text x="444.4" y="450.5" fill="#999" class="taxonLabel">Kutorgina chengjiangensis</text><text x="452.2" y="412.7" fill="grey" class="flag">[?]</text><text x="474.2" y="412.7" fill="#999" class="taxonLabel">Antigonambonites planus</text><text x="452.2" y="425.3" fill="grey" class="flag">[?]</text><text x="474.2" y="425.3" fill="#999" class="taxonLabel">Coolinia pecten</text><text x="482" y="387.5" fill="grey" class="flag">[?]</text><text x="504" y="387.5" fill="#999" class="taxonLabel">Tomteluva perturbata</text><text x="482" y="400.1" fill="grey" class="flag">[?]</text><text x="504" y="400.1" fill="#999" class="taxonLabel">Yuganotheca elegans</text><text x="452.2" y="375" fill="grey" class="flag">[?]</text><text x="474.2" y="375" fill="#999" class="taxonLabel">Salanygolina</text><text x="452.2" y="349.8" fill="grey" class="flag">[?]</text><text x="474.2" y="349.8" fill="#999" class="taxonLabel">Orthis</text><text x="452.2" y="362.4" fill="#e2e2a2" class="flag">[1]</text><text x="474.2" y="362.4" fill="#000" class="taxonLabel">Terebratulina</text><text x="422.4" y="337.2" fill="grey" class="flag">[?]</text><text x="444.4" y="337.2" fill="#999" class="taxonLabel">Alisina</text><text x="422.4" y="312" fill="grey" class="flag">[?]</text><text x="444.4" y="312" fill="#999" class="taxonLabel">Glyptoria</text><text x="422.4" y="324.6" fill="grey" class="flag">[?]</text><text x="444.4" y="324.6" fill="#999" class="taxonLabel">Longtancunella chengjiangensis</text><text x="332.9" y="299.5" fill="grey" class="flag">[?]</text><text x="354.9" y="299.5" fill="#999" class="taxonLabel">Micrina</text><text x="303.1" y="286.9" fill="grey" class="flag">[?]</text><text x="325.1" y="286.9" fill="#999" class="taxonLabel">Askepasma toddense</text><text x="422.4" y="261.7" fill="grey" class="flag">[?]</text><text x="444.4" y="261.7" fill="#999" class="taxonLabel">Craniops</text><text x="422.4" y="274.3" fill="#e2e2a2" class="flag">[1]</text><text x="444.4" y="274.3" fill="#000" class="taxonLabel">Novocrania</text><text x="392.6" y="249.1" fill="grey" class="flag">[?]</text><text x="414.6" y="249.1" fill="#999" class="taxonLabel">Ussunia</text><text x="362.8" y="236.5" fill="grey" class="flag">[?]</text><text x="384.8" y="236.5" fill="#999" class="taxonLabel">Heliomedusa orienta</text><text x="332.9" y="223.9" fill="grey" class="flag">[?]</text><text x="354.9" y="223.9" fill="#999" class="taxonLabel">Gasconsia</text><text x="303.1" y="211.4" fill="grey" class="flag">[?]</text><text x="325.1" y="211.4" fill="#999" class="taxonLabel">Micromitra</text><text x="362.8" y="186.2" fill="grey" class="flag">[?]</text><text x="384.8" y="186.2" fill="#999" class="taxonLabel">Siphonobolus priscus</text><text x="362.8" y="198.8" fill="grey" class="flag">[?]</text><text x="384.8" y="198.8" fill="#999" class="taxonLabel">Acanthotretella spinosa</text><text x="422.4" y="161" fill="#e2e2a2" class="flag">[1]</text><text x="444.4" y="161" fill="#000" class="taxonLabel">Pelagodiscus atlanticus</text><text x="422.4" y="173.6" fill="#e2e2a2" class="flag">[1]</text><text x="444.4" y="173.6" fill="#000" class="taxonLabel">Lingula</text><text x="482" y="135.8" fill="grey" class="flag">[?]</text><text x="504" y="135.8" fill="#999" class="taxonLabel">Mummpikia nuda</text><text x="482" y="148.4" fill="grey" class="flag">[?]</text><text x="504" y="148.4" fill="#999" class="taxonLabel">Eoobolus</text><text x="452.2" y="123.3" fill="grey" class="flag">[?]</text><text x="474.2" y="123.3" fill="#999" class="taxonLabel">Botsfordia</text><text x="422.4" y="110.7" fill="grey" class="flag">[?]</text><text x="444.4" y="110.7" fill="#999" class="taxonLabel">Lingulellotreta malongensis</text><text x="362.8" y="98.1" fill="grey" class="flag">[?]</text><text x="384.8" y="98.1" fill="#999" class="taxonLabel">Lingulosacculus</text><text x="303.1" y="85.5" fill="grey" class="flag">[?]</text><text x="325.1" y="85.5" fill="#999" class="taxonLabel">Clupeafumosus socialis</text><text x="273.3" y="72.9" fill="grey" class="flag">[?]</text><text x="295.3" y="72.9" fill="#999" class="taxonLabel">Mickwitzia muralensis</text><text x="183.9" y="60.3" fill="grey" class="flag">[?]</text><text x="205.9" y="60.3" fill="#999" class="taxonLabel">Paterimitra</text><text x="183.9" y="35.2" fill="grey" class="flag">[?]</text><text x="205.9" y="35.2" fill="#999" class="taxonLabel">Halkieria evangelista</text><text x="183.9" y="47.8" fill="grey" class="flag">[?]</text><text x="205.9" y="47.8" fill="#999" class="taxonLabel">Dailyatia</text><text x="124.2" y="22.6" fill="grey" class="flag">[?]</text><text x="146.2" y="22.6" fill="#999" class="taxonLabel">Eccentrotheca</text><text x="64.6" y="10" fill="#91bfdb" class="flag">[2]</text><text x="86.6" y="10" fill="#000" class="taxonLabel">Loxosomella</text><path d="M5,407.9V171.6H34.8M34.8,171.6V7H64.6M34.8,171.6V336.3H64.6M392.6,529.3V535.6H422.4M5,407.9V644.1H34.8M34.8,644.1V630H64.6M64.6,630V623.7H94.4M64.6,630V636.2H94.4M34.8,644.1V658.3H64.6M64.6,658.3V648.8H94.4M64.6,658.3V667.7H94.4M94.4,667.7V661.4H124.2M94.4,667.7V674H124.2" stroke="#91bfdb"></path><path d="M64.6,336.3V67.8H94.4M94.4,67.8V19.6H124.2M94.4,67.8V116H124.2M124.2,116V38.5H154.1M154.1,38.5V32.2H183.9M154.1,38.5V44.8H183.9M124.2,116V193.6H154.1M154.1,193.6V57.3H183.9M154.1,193.6V329.9H183.9M183.9,329.9V480.2H213.7M213.7,480.2V460.1H243.5M213.7,480.2V500.4H243.5M243.5,500.4V472.6H273.3M243.5,500.4V528.1H273.3M273.3,528.1V497H303.1M303.1,497V485.2H332.9M303.1,497V508.8H332.9M332.9,508.8V497.8H362.8M332.9,508.8V519.8H362.8M362.8,519.8V510.4H392.6M362.8,519.8V529.3H392.6M392.6,529.3V523H422.4M273.3,528.1V559.2H303.1M303.1,559.2V548.2H332.9M303.1,559.2V570.2H332.9M332.9,570.2V560.7H362.8M332.9,570.2V579.6H362.8M362.8,579.6V573.3H392.6M362.8,579.6V585.9H392.6" stroke="darkgrey"></path><path d="M183.9,329.9V179.6H213.7M213.7,179.6V94.1H243.5M243.5,94.1V69.9H273.3M243.5,94.1V118.2H273.3M273.3,118.2V82.5H303.1M273.3,118.2V153.9H303.1M303.1,153.9V118.3H332.9M332.9,118.3V95.1H362.8M332.9,118.3V141.5H362.8M362.8,141.5V118.7H392.6M392.6,118.7V107.7H422.4M392.6,118.7V129.7H422.4M422.4,129.7V120.3H452.2M422.4,129.7V139.1H452.2M452.2,139.1V132.8H482M452.2,139.1V145.4H482M362.8,141.5V164.3H392.6M392.6,164.3V158H422.4M392.6,164.3V170.6H422.4M303.1,153.9V189.5H332.9M332.9,189.5V183.2H362.8M332.9,189.5V195.8H362.8M213.7,179.6V265.1H243.5M243.5,265.1V220.6H273.3M273.3,220.6V208.4H303.1M273.3,220.6V232.7H303.1M303.1,232.7V220.9H332.9M303.1,232.7V244.5H332.9M332.9,244.5V233.5H362.8M332.9,244.5V255.6H362.8M362.8,255.6V246.1H392.6M362.8,255.6V265H392.6M392.6,265V258.7H422.4M392.6,265V271.3H422.4M243.5,265.1V309.7H273.3M273.3,309.7V283.9H303.1M273.3,309.7V335.6H303.1M303.1,335.6V296.5H332.9M303.1,335.6V374.7H332.9M332.9,374.7V329.5H362.8M362.8,329.5V315.3H392.6M392.6,315.3V309H422.4M392.6,315.3V321.6H422.4M362.8,329.5V343.6H392.6M392.6,343.6V334.2H422.4M392.6,343.6V353.1H422.4M422.4,353.1V346.8H452.2M422.4,353.1V359.4H452.2M332.9,374.7V419.9H362.8M362.8,419.9V398.7H392.6M392.6,398.7V381.4H422.4M422.4,381.4V372H452.2M422.4,381.4V390.8H452.2M452.2,390.8V384.5H482M452.2,390.8V397.1H482M392.6,398.7V416H422.4M422.4,416V409.7H452.2M422.4,416V422.3H452.2M362.8,419.9V441.2H392.6M392.6,441.2V434.9H422.4M392.6,441.2V447.5H422.4M64.6,336.3V604.8H94.4M94.4,604.8V598.5H124.2M94.4,604.8V611.1H124.2" stroke="#e2e2a2"></path><text x="36.8" y="174.6" class="node" fill="#4A6FE3">1</text><text x="66.6" y="339.3" class="node" fill="#4A6FE3">1</text><text x="96.4" y="70.8" class="node" fill="#4A6FE3">1</text><text x="126.2" y="119" class="node" fill="#DC6884">0.11</text><text x="156.1" y="41.5" class="node" fill="#DC6884">0.11</text><text x="156.1" y="196.6" class="node" fill="#DC6884">0.11</text><text x="185.9" y="332.9" class="node" fill="#DC6884">0.11</text><text x="215.7" y="182.6" class="node" fill="#8998E1">0.82</text><text x="245.5" y="97.1" class="node" fill="#7A8DE1">0.87</text><text x="275.3" y="121.2" class="node" fill="#BFC4E3">0.63</text><text x="305.1" y="156.9" class="node" fill="#DC6884">0.11</text><text x="334.9" y="121.3" class="node" fill="#D54C71">0.03</text><text x="364.8" y="144.5" class="node" fill="#DC6884">0.11</text><text x="394.6" y="121.7" class="node" fill="#E6ABB6">0.32</text><text x="424.4" y="132.7" class="node" fill="#D2D4E3">0.57</text><text x="454.2" y="142.1" class="node" fill="#E4D6D8">0.46</text><text x="394.6" y="167.3" class="node" fill="#DC6884">0.11</text><text x="334.9" y="192.5" class="node" fill="#4A6FE3">1</text><text x="245.5" y="268.1" class="node" fill="#DC6884">0.11</text><text x="275.3" y="223.6" class="node" fill="#DC6884">0.11</text><text x="305.1" y="235.7" class="node" fill="#AEB6E2">0.69</text><text x="334.9" y="247.5" class="node" fill="#E5A5B1">0.3</text><text x="364.8" y="258.6" class="node" fill="#8998E1">0.82</text><text x="394.6" y="268" class="node" fill="#8998E1">0.82</text><text x="275.3" y="312.7" class="node" fill="#DC6884">0.11</text><text x="305.1" y="338.6" class="node" fill="#DC6884">0.11</text><text x="334.9" y="377.7" class="node" fill="#7A8DE1">0.87</text><text x="364.8" y="332.5" class="node" fill="#E392A2">0.24</text><text x="394.6" y="318.3" class="node" fill="#DD6C86">0.12</text><text x="394.6" y="346.6" class="node" fill="#4A6FE3">1</text><text x="424.4" y="356.1" class="node" fill="#8C9BE1">0.81</text><text x="364.8" y="422.9" class="node" fill="#DC6884">0.11</text><text x="394.6" y="401.7" class="node" fill="#DC6884">0.11</text><text x="424.4" y="384.4" class="node" fill="#E38FA0">0.23</text><text x="454.2" y="393.8" class="node" fill="#E6BDC5">0.38</text><text x="424.4" y="419" class="node" fill="#4A6FE3">1</text><text x="394.6" y="444.2" class="node" fill="#8998E1">0.82</text><text x="215.7" y="483.2" class="node" fill="#DC6884">0.11</text><text x="245.5" y="503.4" class="node" fill="#DC6884">0.11</text><text x="275.3" y="531.1" class="node" fill="#DC6884">0.11</text><text x="305.1" y="500" class="node" fill="#DC6884">0.11</text><text x="334.9" y="511.8" class="node" fill="#D64F73">0.04</text><text x="364.8" y="522.8" class="node" fill="#DC6884">0.11</text><text x="394.6" y="532.3" class="node" fill="#E6C1C7">0.39</text><text x="305.1" y="562.2" class="node" fill="#4A6FE3">1</text><text x="334.9" y="573.2" class="node" fill="#4A6FE3">1</text><text x="364.8" y="582.6" class="node" fill="#4A6FE3">1</text><text x="96.4" y="607.8" class="node" fill="#4A6FE3">1</text><text x="36.8" y="647.1" class="node" fill="#4A6FE3">1</text><text x="66.6" y="633" class="node" fill="#4A6FE3">1</text><text x="66.6" y="661.3" class="node" fill="#4A6FE3">1</text><text x="96.4" y="670.7" class="node" fill="#4A6FE3">1</text></svg>
