<svg xmlns="http://www.w3.org/2000/svg" version="1.1" width="682" height="682" class="tree" data-char="24"><text x="678" y="15.4" text-anchor="end" class="stepsLabel">Character adds <tspan class="score">1</tspan> to tree score</text><text x="678" y="27.8" text-anchor="end" class="stepsLabel"><tspan class="score">0</tspan> additional regions</text><text x="678" y="40.2" text-anchor="end" class="stepsLabel">CI = 1; Fitch CI = 1; Fitch RI = 1</text><text x="678" y="65" text-anchor="end" class="stepsLabel"><tspan dy="16" fill="#34caaf">An optimal tree under:</tspan><tspan x="680" style="font-style:italic" class="thisAn" dy="1.2em">Equal weights</tspan><tspan x="680" style="font-style:italic" class="notThisAn" dy="1.2em">Implied weights, k = 2</tspan><tspan x="680" style="font-style:italic" class="notThisAn" dy="1.2em">IW, k = 3</tspan><tspan x="680" style="font-style:italic" class="notThisAn" dy="1.2em">IW, k = 4.5</tspan><tspan x="680" style="font-style:italic" class="notThisAn" dy="1.2em">IW, k = 7</tspan><tspan x="680" style="font-style:italic" class="notThisAn" dy="1.2em">IW, k = 10.5</tspan><tspan x="680" style="font-style:italic" class="notThisAn" dy="1.2em">IW, k = 16</tspan><tspan x="680" style="font-style:italic" class="notThisAn" dy="1.2em">IW, k = 24</tspan></text><text x="70" y="664.4" fill="#fc8d59" class="flag">[0]</text><text x="92" y="664.4" fill="#000" class="taxonLabel">Serpula</text><text x="70" y="677" fill="#fc8d59" class="flag">[0]</text><text x="92" y="677" fill="#000" class="taxonLabel">Sipunculus</text><text x="91.7" y="639.2" fill="#91bfdb" class="flag">[1]</text><text x="113.7" y="639.2" fill="#000" class="taxonLabel">Tonicella</text><text x="91.7" y="651.8" fill="#91bfdb" class="flag">[1]</text><text x="113.7" y="651.8" fill="#000" class="taxonLabel">Dentalium</text><text x="70" y="626.7" fill="#91bfdb" class="flag">[1]</text><text x="92" y="626.7" fill="#000" class="taxonLabel">Wiwaxia corrugata</text><text x="330.2" y="601.5" fill="grey" class="flag">[?]</text><text x="352.2" y="601.5" fill="#999" class="taxonLabel">Askepasma toddense</text><text x="330.2" y="614.1" fill="grey" class="flag">[?]</text><text x="352.2" y="614.1" fill="#999" class="taxonLabel">Micromitra</text><text x="482" y="576.3" fill="grey" class="flag">[?]</text><text x="504" y="576.3" fill="#999" class="taxonLabel">Orthis</text><text x="482" y="588.9" fill="#fc8d59" class="flag">[0]</text><text x="504" y="588.9" fill="#000" class="taxonLabel">Terebratulina</text><text x="460.3" y="563.7" fill="grey" class="flag">[?]</text><text x="482.3" y="563.7" fill="#999" class="taxonLabel">Alisina</text><text x="438.6" y="551.2" fill="grey" class="flag">[?]</text><text x="460.6" y="551.2" fill="#999" class="taxonLabel">Glyptoria</text><text x="438.6" y="526" fill="grey" class="flag">[?]</text><text x="460.6" y="526" fill="#999" class="taxonLabel">Nisusia sulcata</text><text x="438.6" y="538.6" fill="grey" class="flag">[?]</text><text x="460.6" y="538.6" fill="#999" class="taxonLabel">Kutorgina chengjiangensis</text><text x="417" y="500.8" fill="grey" class="flag">[?]</text><text x="439" y="500.8" fill="#999" class="taxonLabel">Antigonambonites planus</text><text x="417" y="513.4" fill="grey" class="flag">[?]</text><text x="439" y="513.4" fill="#999" class="taxonLabel">Coolinia pecten</text><text x="373.6" y="488.2" fill="#fc8d59" class="flag">[0]</text><text x="395.6" y="488.2" fill="#000" class="taxonLabel">Longtancunella chengjiangensis</text><text x="373.6" y="463.1" fill="#fc8d59" class="flag">[0]</text><text x="395.6" y="463.1" fill="#000" class="taxonLabel">Yuganotheca elegans</text><text x="373.6" y="475.6" fill="grey" class="flag">[?]</text><text x="395.6" y="475.6" fill="#999" class="taxonLabel">Tomteluva perturbata</text><text x="330.2" y="450.5" fill="grey" class="flag">[?]</text><text x="352.2" y="450.5" fill="#999" class="taxonLabel">Salanygolina</text><text x="395.3" y="425.3" fill="grey" class="flag">[?]</text><text x="417.3" y="425.3" fill="#999" class="taxonLabel">Craniops</text><text x="395.3" y="437.9" fill="#fc8d59" class="flag">[0]</text><text x="417.3" y="437.9" fill="#000" class="taxonLabel">Novocrania</text><text x="373.6" y="412.7" fill="grey" class="flag">[?]</text><text x="395.6" y="412.7" fill="#999" class="taxonLabel">Ussunia</text><text x="351.9" y="400.1" fill="grey" class="flag">[?]</text><text x="373.9" y="400.1" fill="#999" class="taxonLabel">Gasconsia</text><text x="330.2" y="387.5" fill="grey" class="flag">[?]</text><text x="352.2" y="387.5" fill="#999" class="taxonLabel">Heliomedusa orienta</text><text x="417" y="362.4" fill="grey" class="flag">[?]</text><text x="439" y="362.4" fill="#999" class="taxonLabel">Siphonobolus priscus</text><text x="417" y="375" fill="grey" class="flag">[?]</text><text x="439" y="375" fill="#999" class="taxonLabel">Acanthotretella spinosa</text><text x="460.3" y="337.2" fill="grey" class="flag">[?]</text><text x="482.3" y="337.2" fill="#999" class="taxonLabel">Mummpikia nuda</text><text x="460.3" y="349.8" fill="grey" class="flag">[?]</text><text x="482.3" y="349.8" fill="#999" class="taxonLabel">Eoobolus</text><text x="438.6" y="324.6" fill="grey" class="flag">[?]</text><text x="460.6" y="324.6" fill="#999" class="taxonLabel">Botsfordia</text><text x="460.3" y="299.5" fill="#fc8d59" class="flag">[0]</text><text x="482.3" y="299.5" fill="#000" class="taxonLabel">Lingulosacculus</text><text x="460.3" y="312" fill="#fc8d59" class="flag">[0]</text><text x="482.3" y="312" fill="#000" class="taxonLabel">Lingulellotreta malongensis</text><text x="438.6" y="286.9" fill="#fc8d59" class="flag">[0]</text><text x="460.6" y="286.9" fill="#000" class="taxonLabel">Lingula</text><text x="373.6" y="274.3" fill="grey" class="flag">[?]</text><text x="395.6" y="274.3" fill="#999" class="taxonLabel">Clupeafumosus socialis</text><text x="351.9" y="261.7" fill="#fc8d59" class="flag">[0]</text><text x="373.9" y="261.7" fill="#000" class="taxonLabel">Pelagodiscus atlanticus</text><text x="330.2" y="249.1" fill="grey" class="flag">[?]</text><text x="352.2" y="249.1" fill="#999" class="taxonLabel">Mickwitzia muralensis</text><text x="265.2" y="236.5" fill="grey" class="flag">[?]</text><text x="287.2" y="236.5" fill="#999" class="taxonLabel">Micrina</text><text x="351.9" y="211.4" fill="grey" class="flag">[?]</text><text x="373.9" y="211.4" fill="#999" class="taxonLabel">Maxilites</text><text x="351.9" y="223.9" fill="grey" class="flag">[?]</text><text x="373.9" y="223.9" fill="#999" class="taxonLabel">Pauxillites</text><text x="330.2" y="198.8" fill="#fc8d59" class="flag">[0]</text><text x="352.2" y="198.8" fill="#000" class="taxonLabel">Haplophrentis carinatus</text><text x="308.5" y="186.2" fill="grey" class="flag">[?]</text><text x="330.5" y="186.2" fill="#999" class="taxonLabel">Paramicrocornus</text><text x="330.2" y="161" fill="grey" class="flag">[?]</text><text x="352.2" y="161" fill="#999" class="taxonLabel">Conotheca</text><text x="330.2" y="173.6" fill="grey" class="flag">[?]</text><text x="352.2" y="173.6" fill="#999" class="taxonLabel">Bactrotheca</text><text x="308.5" y="148.4" fill="grey" class="flag">[?]</text><text x="330.5" y="148.4" fill="#999" class="taxonLabel">Cupitheca holocyclata</text><text x="265.2" y="135.8" fill="grey" class="flag">[?]</text><text x="287.2" y="135.8" fill="#999" class="taxonLabel">Pedunculotheca diania</text><text x="221.8" y="123.3" fill="grey" class="flag">[?]</text><text x="243.8" y="123.3" fill="#999" class="taxonLabel">Paterimitra</text><text x="200.1" y="110.7" fill="grey" class="flag">[?]</text><text x="222.1" y="110.7" fill="#999" class="taxonLabel">Halkieria evangelista</text><text x="178.5" y="98.1" fill="grey" class="flag">[?]</text><text x="200.5" y="98.1" fill="#999" class="taxonLabel">Dailyatia</text><text x="156.8" y="85.5" fill="#fc8d59" class="flag">[0]</text><text x="178.8" y="85.5" fill="#000" class="taxonLabel">Cotyledion tylodes</text><text x="135.1" y="72.9" fill="grey" class="flag">[?]</text><text x="157.1" y="72.9" fill="#999" class="taxonLabel">Eccentrotheca</text><text x="113.4" y="60.3" fill="#fc8d59" class="flag">[0]</text><text x="135.4" y="60.3" fill="#000" class="taxonLabel">Phoronis</text><text x="91.7" y="47.8" fill="grey" class="flag">[?]</text><text x="113.7" y="47.8" fill="#999" class="taxonLabel">Namacalathus</text><text x="91.7" y="22.6" fill="#fc8d59" class="flag">[0]</text><text x="113.7" y="22.6" fill="#000" class="taxonLabel">Amathia</text><text x="91.7" y="35.2" fill="#fc8d59" class="flag">[0]</text><text x="113.7" y="35.2" fill="#000" class="taxonLabel">Flustra</text><text x="48.4" y="10" fill="#fc8d59" class="flag">[0]</text><text x="70.4" y="10" fill="#000" class="taxonLabel">Loxosomella</text><path d="M5,337.4V24.5H26.7M26.7,24.5V7H48.4M26.7,24.5V42H48.4M48.4,42V25.9H70M70,25.9V19.6H91.7M70,25.9V32.2H91.7M48.4,42V58.1H70M70,58.1V44.8H91.7M70,58.1V71.5H91.7M91.7,71.5V57.3H113.4M91.7,71.5V85.6H113.4M113.4,85.6V69.9H135.1M113.4,85.6V101.2H135.1M135.1,101.2V82.5H156.8M135.1,101.2V119.9H156.8M156.8,119.9V95.1H178.5M156.8,119.9V144.8H178.5M178.5,144.8V107.7H200.1M178.5,144.8V181.9H200.1M200.1,181.9V120.3H221.8M200.1,181.9V243.5H221.8M221.8,243.5V153.7H243.5M243.5,153.7V132.8H265.2M243.5,153.7V174.5H265.2M265.2,174.5V154.9H286.9M286.9,154.9V145.4H308.5M286.9,154.9V164.3H308.5M308.5,164.3V158H330.2M308.5,164.3V170.6H330.2M265.2,174.5V194.2H286.9M286.9,194.2V183.2H308.5M286.9,194.2V205.2H308.5M308.5,205.2V195.8H330.2M308.5,205.2V214.7H330.2M330.2,214.7V208.4H351.9M330.2,214.7V220.9H351.9M221.8,243.5V333.2H243.5M243.5,333.2V233.5H265.2M243.5,333.2V432.9H265.2M265.2,432.9V330.2H286.9M286.9,330.2V264H308.5M308.5,264V246.1H330.2M308.5,264V281.9H330.2M330.2,281.9V258.7H351.9M330.2,281.9V305.1H351.9M351.9,305.1V271.3H373.6M351.9,305.1V338.9H373.6M373.6,338.9V312.2H395.3M395.3,312.2V293.3H417M417,293.3V283.9H438.6M417,293.3V302.7H438.6M438.6,302.7V296.5H460.3M438.6,302.7V309H460.3M395.3,312.2V331.1H417M417,331.1V321.6H438.6M417,331.1V340.5H438.6M438.6,340.5V334.2H460.3M438.6,340.5V346.8H460.3M373.6,338.9V365.7H395.3M395.3,365.7V359.4H417M395.3,365.7V372H417M286.9,330.2V396.3H308.5M308.5,396.3V384.5H330.2M308.5,396.3V408.1H330.2M330.2,408.1V397.1H351.9M330.2,408.1V419.2H351.9M351.9,419.2V409.7H373.6M351.9,419.2V428.6H373.6M373.6,428.6V422.3H395.3M373.6,428.6V434.9H395.3M265.2,432.9V535.6H286.9M286.9,535.6V466.5H308.5M308.5,466.5V447.5H330.2M308.5,466.5V485.5H330.2M330.2,485.5V466.3H351.9M351.9,466.3V460.1H373.6M351.9,466.3V472.6H373.6M330.2,485.5V504.7H351.9M351.9,504.7V485.2H373.6M351.9,504.7V524.2H373.6M373.6,524.2V504.1H395.3M395.3,504.1V497.8H417M395.3,504.1V510.4H417M373.6,524.2V544.2H395.3M395.3,544.2V529.3H417M417,529.3V523H438.6M417,529.3V535.6H438.6M395.3,544.2V559.2H417M417,559.2V548.2H438.6M417,559.2V570.2H438.6M438.6,570.2V560.7H460.3M438.6,570.2V579.6H460.3M460.3,579.6V573.3H482M460.3,579.6V585.9H482M286.9,535.6V604.8H308.5M308.5,604.8V598.5H330.2M308.5,604.8V611.1H330.2M5,337.4V650.4H26.7M26.7,650.4V667.7H48.4M48.4,667.7V661.4H70M48.4,667.7V674H70" stroke="#fc8d59"></path><path d="M26.7,650.4V633.1H48.4M48.4,633.1V623.7H70M48.4,633.1V642.5H70M70,642.5V636.2H91.7M70,642.5V648.8H91.7" stroke="#91bfdb"></path><text x="7" y="340.4" class="node" fill="#4A6FE3">1</text><text x="28.7" y="27.5" class="node" fill="#4A6FE3">1</text><text x="50.4" y="45" class="node" fill="#4A6FE3">1</text><text x="72" y="28.9" class="node" fill="#4A6FE3">1</text><text x="72" y="61.1" class="node" fill="#4A6FE3">1</text><text x="93.7" y="74.5" class="node" fill="#E6ABB6">0.32</text><text x="115.4" y="88.6" class="node" fill="#7388E1">0.89</text><text x="137.1" y="104.2" class="node" fill="#E498A7">0.26</text><text x="158.8" y="122.9" class="node" fill="#A8B1E2">0.71</text><text x="180.5" y="147.8" class="node" fill="#7388E1">0.89</text><text x="202.1" y="184.9" class="node" fill="#7388E1">0.89</text><text x="223.8" y="246.5" class="node" fill="#A8B1E2">0.71</text><text x="245.5" y="156.7" class="node" fill="#7388E1">0.89</text><text x="267.2" y="177.5" class="node" fill="#7388E1">0.89</text><text x="288.9" y="157.9" class="node" fill="#E6ABB6">0.32</text><text x="310.5" y="167.3" class="node" fill="#667FE1">0.93</text><text x="288.9" y="197.2" class="node" fill="#4A6FE3">1</text><text x="310.5" y="208.2" class="node" fill="#4A6FE3">1</text><text x="332.2" y="217.7" class="node" fill="#4A6FE3">1</text><text x="245.5" y="336.2" class="node" fill="#8998E1">0.82</text><text x="267.2" y="435.9" class="node" fill="#CFD2E3">0.58</text><text x="288.9" y="333.2" class="node" fill="#CFD2E3">0.58</text><text x="310.5" y="267" class="node" fill="#7A8DE1">0.87</text><text x="332.2" y="284.9" class="node" fill="#BFC4E3">0.63</text><text x="353.9" y="308.1" class="node" fill="#9AA6E2">0.76</text><text x="375.6" y="341.9" class="node" fill="#E6BAC2">0.37</text><text x="397.3" y="315.2" class="node" fill="#E28699">0.2</text><text x="419" y="296.3" class="node" fill="#D3446C">0.01</text><text x="440.6" y="305.7" class="node" fill="#DC6884">0.11</text><text x="419" y="334.1" class="node" fill="#D2D4E3">0.57</text><text x="440.6" y="343.5" class="node" fill="#E4D6D8">0.46</text><text x="397.3" y="368.7" class="node" fill="#4A6FE3">1</text><text x="310.5" y="399.3" class="node" fill="#AEB6E2">0.69</text><text x="332.2" y="411.1" class="node" fill="#DDDEE3">0.52</text><text x="353.9" y="422.2" class="node" fill="#8998E1">0.82</text><text x="375.6" y="431.6" class="node" fill="#8998E1">0.82</text><text x="288.9" y="538.6" class="node" fill="#9AA6E2">0.76</text><text x="310.5" y="469.5" class="node" fill="#7A8DE1">0.87</text><text x="332.2" y="488.5" class="node" fill="#BCC2E3">0.64</text><text x="353.9" y="469.3" class="node" fill="#E6BDC5">0.38</text><text x="353.9" y="507.7" class="node" fill="#E6C1C7">0.39</text><text x="375.6" y="527.2" class="node" fill="#E6C1C7">0.39</text><text x="397.3" y="507.1" class="node" fill="#4A6FE3">1</text><text x="397.3" y="547.2" class="node" fill="#E6C1C7">0.39</text><text x="419" y="532.3" class="node" fill="#8998E1">0.82</text><text x="419" y="562.2" class="node" fill="#9AA6E2">0.76</text><text x="440.6" y="573.2" class="node" fill="#4A6FE3">1</text><text x="462.3" y="582.6" class="node" fill="#8C9BE1">0.81</text><text x="310.5" y="607.8" class="node" fill="#768BE1">0.88</text><text x="28.7" y="653.4" class="node" fill="#4A6FE3">1</text><text x="50.4" y="636.1" class="node" fill="#4A6FE3">1</text><text x="72" y="645.5" class="node" fill="#4A6FE3">1</text><text x="50.4" y="670.7" class="node" fill="#4A6FE3">1</text></svg>
