<svg xmlns="http://www.w3.org/2000/svg" version="1.1" width="682" height="682" class="tree" data-char="115"><text x="678" y="15.4" text-anchor="end" class="stepsLabel">Character adds <tspan class="score">5</tspan> to tree score (<tspan class="score fitch">4</tspan> with Fitch)</text><text x="678" y="27.8" text-anchor="end" class="stepsLabel"><tspan class="score">1</tspan> additional region (not counted by Fitch)</text><text x="678" y="40.2" text-anchor="end" class="stepsLabel">CI = 0.2; Fitch CI = 0.25; Fitch RI = 0.25</text><text x="678" y="65" text-anchor="end" class="stepsLabel"><tspan dy="16" fill="#34caaf">An optimal tree under:</tspan><tspan x="680" style="font-style:italic" class="thisAn" dy="1.2em">Equal weights</tspan><tspan x="680" style="font-style:italic" class="notThisAn" dy="1.2em">Implied weights, k = 3</tspan><tspan x="680" style="font-style:italic" class="notThisAn" dy="1.2em">IW, k = 4.5</tspan><tspan x="680" style="font-style:italic" class="notThisAn" dy="1.2em">IW, k = 7</tspan><tspan x="680" style="font-style:italic" class="notThisAn" dy="1.2em">IW, k = 10.5</tspan><tspan x="680" style="font-style:italic" class="notThisAn" dy="1.2em">IW, k = 16</tspan><tspan x="680" style="font-style:italic" class="notThisAn" dy="1.2em">IW, k = 24</tspan></text><text x="67.2" y="664.4" fill="lightgrey" class="flag">[-]</text><text x="89.2" y="664.4" fill="#ccc" class="taxonLabel">Sipunculus</text><text x="67.2" y="677" fill="lightgrey" class="flag">[-]</text><text x="89.2" y="677" fill="#ccc" class="taxonLabel">Serpula</text><text x="88" y="639.2" fill="#91bfdb" class="flag">[2]</text><text x="110" y="639.2" fill="#000" class="taxonLabel">Tonicella</text><text x="88" y="651.8" fill="lightgrey" class="flag">[-]</text><text x="110" y="651.8" fill="#ccc" class="taxonLabel">Dentalium</text><text x="67.2" y="626.7" fill="lightgrey" class="flag">[-]</text><text x="89.2" y="626.7" fill="#ccc" class="taxonLabel">Wiwaxia corrugata</text><text x="316.1" y="601.5" fill="#91bfdb" class="flag">[2]</text><text x="338.1" y="601.5" fill="#000" class="taxonLabel">Mickwitzia muralensis</text><text x="316.1" y="614.1" fill="lightgrey" class="flag">[-]</text><text x="338.1" y="614.1" fill="#ccc" class="taxonLabel">Heliomedusa orienta</text><text x="295.3" y="588.9" fill="#91bfdb" class="flag">[2]</text><text x="317.3" y="588.9" fill="#000" class="taxonLabel">Micrina</text><text x="336.8" y="563.7" fill="#e2e2a2" class="flag">[1]</text><text x="358.8" y="563.7" fill="#000" class="taxonLabel">Askepasma toddense</text><text x="336.8" y="576.3" fill="#91bfdb" class="flag">[2]</text><text x="358.8" y="576.3" fill="#000" class="taxonLabel">Micromitra</text><text x="461.3" y="538.6" fill="#91bfdb" class="flag">[2]</text><text x="483.3" y="538.6" fill="#000" class="taxonLabel">Terebratulina</text><text x="461.3" y="551.2" fill="#e2e2a2" class="flag">[1]</text><text x="483.3" y="551.2" fill="#000" class="taxonLabel">Orthis</text><text x="440.5" y="526" fill="#91bfdb" class="flag">[2]</text><text x="462.5" y="526" fill="#000" class="taxonLabel">Alisina</text><text x="419.8" y="513.4" fill="grey" class="flag">[?]</text><text x="441.8" y="513.4" fill="#999" class="taxonLabel">Longtancunella chengjiangensis</text><text x="399" y="500.8" fill="#e2e2a2" class="flag">[1]</text><text x="421" y="500.8" fill="#000" class="taxonLabel">Glyptoria</text><text x="419.8" y="475.6" fill="#91bfdb" class="flag">[2]</text><text x="441.8" y="475.6" fill="#000" class="taxonLabel">Nisusia sulcata</text><text x="419.8" y="488.2" fill="#91bfdb" class="flag">[2]</text><text x="441.8" y="488.2" fill="#000" class="taxonLabel">Tomteluva perturbata</text><text x="399" y="463.1" fill="#91bfdb" class="flag">[2]</text><text x="421" y="463.1" fill="#000" class="taxonLabel">Kutorgina chengjiangensis</text><text x="378.3" y="437.9" fill="#91bfdb" class="flag">[2]</text><text x="400.3" y="437.9" fill="#000" class="taxonLabel">Antigonambonites planus</text><text x="378.3" y="450.5" fill="#91bfdb" class="flag">[2]</text><text x="400.3" y="450.5" fill="#000" class="taxonLabel">Coolinia pecten</text><text x="336.8" y="425.3" fill="#91bfdb" class="flag">[2]</text><text x="358.8" y="425.3" fill="#000" class="taxonLabel">Salanygolina</text><text x="482" y="400.1" fill="lightgrey" class="flag">[-]</text><text x="504" y="400.1" fill="#ccc" class="taxonLabel">Siphonobolus priscus</text><text x="482" y="412.7" fill="lightgrey" class="flag">[-]</text><text x="504" y="412.7" fill="#ccc" class="taxonLabel">Acanthotretella spinosa</text><text x="461.3" y="387.5" fill="lightgrey" class="flag">[-]</text><text x="483.3" y="387.5" fill="#ccc" class="taxonLabel">Clupeafumosus socialis</text><text x="440.5" y="375" fill="lightgrey" class="flag">[-]</text><text x="462.5" y="375" fill="#ccc" class="taxonLabel">Lingulosacculus</text><text x="419.8" y="362.4" fill="lightgrey" class="flag">[-]</text><text x="441.8" y="362.4" fill="#ccc" class="taxonLabel">Lingulellotreta malongensis</text><text x="419.8" y="337.2" fill="#e2e2a2" class="flag">[1]</text><text x="441.8" y="337.2" fill="#000" class="taxonLabel">Mummpikia nuda</text><text x="419.8" y="349.8" fill="lightgrey" class="flag">[-]</text><text x="441.8" y="349.8" fill="#ccc" class="taxonLabel">Pelagodiscus atlanticus</text><text x="378.3" y="324.6" fill="#e2e2a2" class="flag">[1]</text><text x="400.3" y="324.6" fill="#000" class="taxonLabel">Botsfordia</text><text x="357.6" y="312" fill="#91bfdb" class="flag">[2]</text><text x="379.6" y="312" fill="#000" class="taxonLabel">Eoobolus</text><text x="336.8" y="299.5" fill="lightgrey" class="flag">[-]</text><text x="358.8" y="299.5" fill="#ccc" class="taxonLabel">Lingula</text><text x="378.3" y="274.3" fill="lightgrey" class="flag">[-]</text><text x="400.3" y="274.3" fill="#ccc" class="taxonLabel">Novocrania</text><text x="378.3" y="286.9" fill="lightgrey" class="flag">[-]</text><text x="400.3" y="286.9" fill="#ccc" class="taxonLabel">Craniops</text><text x="357.6" y="261.7" fill="lightgrey" class="flag">[-]</text><text x="379.6" y="261.7" fill="#ccc" class="taxonLabel">Ussunia</text><text x="336.8" y="249.1" fill="#91bfdb" class="flag">[2]</text><text x="358.8" y="249.1" fill="#000" class="taxonLabel">Gasconsia</text><text x="253.9" y="236.5" fill="grey" class="flag">[?]</text><text x="275.9" y="236.5" fill="#999" class="taxonLabel">Yuganotheca elegans</text><text x="316.1" y="211.4" fill="lightgrey" class="flag">[-]</text><text x="338.1" y="211.4" fill="#ccc" class="taxonLabel">Bactrotheca</text><text x="316.1" y="223.9" fill="lightgrey" class="flag">[-]</text><text x="338.1" y="223.9" fill="#ccc" class="taxonLabel">Conotheca</text><text x="295.3" y="198.8" fill="lightgrey" class="flag">[-]</text><text x="317.3" y="198.8" fill="#ccc" class="taxonLabel">Cupitheca holocyclata</text><text x="336.8" y="173.6" fill="lightgrey" class="flag">[-]</text><text x="358.8" y="173.6" fill="#ccc" class="taxonLabel">Pauxillites</text><text x="336.8" y="186.2" fill="lightgrey" class="flag">[-]</text><text x="358.8" y="186.2" fill="#ccc" class="taxonLabel">Maxilites</text><text x="316.1" y="161" fill="lightgrey" class="flag">[-]</text><text x="338.1" y="161" fill="#ccc" class="taxonLabel">Haplophrentis carinatus</text><text x="295.3" y="148.4" fill="lightgrey" class="flag">[-]</text><text x="317.3" y="148.4" fill="#ccc" class="taxonLabel">Paramicrocornus</text><text x="253.9" y="135.8" fill="lightgrey" class="flag">[-]</text><text x="275.9" y="135.8" fill="#ccc" class="taxonLabel">Pedunculotheca diania</text><text x="212.4" y="123.3" fill="#91bfdb" class="flag">[2]</text><text x="234.4" y="123.3" fill="#000" class="taxonLabel">Paterimitra</text><text x="191.7" y="110.7" fill="lightgrey" class="flag">[-]</text><text x="213.7" y="110.7" fill="#ccc" class="taxonLabel">Halkieria evangelista</text><text x="170.9" y="98.1" fill="lightgrey" class="flag">[-]</text><text x="192.9" y="98.1" fill="#ccc" class="taxonLabel">Dailyatia</text><text x="150.2" y="85.5" fill="lightgrey" class="flag">[-]</text><text x="172.2" y="85.5" fill="#ccc" class="taxonLabel">Cotyledion tylodes</text><text x="129.4" y="72.9" fill="lightgrey" class="flag">[-]</text><text x="151.4" y="72.9" fill="#ccc" class="taxonLabel">Eccentrotheca</text><text x="108.7" y="60.3" fill="lightgrey" class="flag">[-]</text><text x="130.7" y="60.3" fill="#ccc" class="taxonLabel">Phoronis</text><text x="88" y="47.8" fill="lightgrey" class="flag">[-]</text><text x="110" y="47.8" fill="#ccc" class="taxonLabel">Namacalathus</text><text x="88" y="22.6" fill="lightgrey" class="flag">[-]</text><text x="110" y="22.6" fill="#ccc" class="taxonLabel">Amathia</text><text x="88" y="35.2" fill="lightgrey" class="flag">[-]</text><text x="110" y="35.2" fill="#ccc" class="taxonLabel">Flustra</text><text x="46.5" y="10" fill="lightgrey" class="flag">[-]</text><text x="68.5" y="10" fill="#ccc" class="taxonLabel">Loxosomella</text><path d="M5,337.5V24.5H25.7M25.7,24.5V7H46.5M25.7,24.5V42.1H46.5M46.5,42.1V25.9H67.2M67.2,25.9V19.6H88M67.2,25.9V32.2H88M46.5,42.1V58.2H67.2M67.2,58.2V44.8H88M67.2,58.2V71.7H88M88,71.7V57.3H108.7M88,71.7V86.1H108.7M108.7,86.1V69.9H129.4M108.7,86.1V102.3H129.4M129.4,102.3V82.5H150.2M129.4,102.3V122.1H150.2M150.2,122.1V95.1H170.9M150.2,122.1V149H170.9M170.9,149V107.7H191.7M212.4,260.5V156.8H233.1M233.1,156.8V132.8H253.9M233.1,156.8V180.8H253.9M253.9,180.8V156.4H274.6M274.6,156.4V145.4H295.3M274.6,156.4V167.5H295.3M295.3,167.5V158H316.1M295.3,167.5V176.9H316.1M316.1,176.9V170.6H336.8M316.1,176.9V183.2H336.8M253.9,180.8V205.2H274.6M274.6,205.2V195.8H295.3M274.6,205.2V214.7H295.3M295.3,214.7V208.4H316.1M295.3,214.7V220.9H316.1M316.1,257.1V268.1H336.8M336.8,268.1V258.7H357.6M336.8,268.1V277.6H357.6M357.6,277.6V271.3H378.3M357.6,277.6V283.9H378.3M316.1,310.2V296.5H336.8M399,340.5V346.8H419.8M378.3,355.8V371.2H399M399,371.2V359.4H419.8M399,371.2V383H419.8M419.8,383V372H440.5M419.8,383V394H440.5M440.5,394V384.5H461.3M440.5,394V403.4H461.3M461.3,403.4V397.1H482M461.3,403.4V409.7H482M295.3,604.8V611.1H316.1M5,337.5V650.4H25.7M25.7,650.4V633.1H46.5M46.5,633.1V623.7H67.2M46.5,633.1V642.5H67.2M67.2,642.5V648.8H88M25.7,650.4V667.7H46.5M46.5,667.7V661.4H67.2M46.5,667.7V674H67.2" stroke="lightgrey" class="inapplicable"></path><path d="M170.9,149V190.4H191.7M191.7,190.4V120.3H212.4M191.7,190.4V260.5H212.4M212.4,260.5V364.2H233.1M233.1,364.2V233.5H253.9M233.1,364.2V494.9H253.9M253.9,494.9V394.5H274.6M274.6,394.5V283.6H295.3M295.3,283.6V257.1H316.1M316.1,257.1V246.1H336.8M295.3,283.6V310.2H316.1M316.1,310.2V323.9H336.8M336.8,323.9V309H357.6M274.6,394.5V505.4H295.3M295.3,505.4V443.8H316.1M316.1,443.8V422.3H336.8M316.1,443.8V465.4H336.8M336.8,465.4V441.2H357.6M357.6,441.2V434.9H378.3M357.6,441.2V447.5H378.3M336.8,465.4V489.6H357.6M357.6,489.6V469.5H378.3M378.3,469.5V460.1H399M378.3,469.5V478.9H399M399,478.9V472.6H419.8M399,478.9V485.2H419.8M357.6,489.6V509.6H378.3M378.3,509.6V521.4H399M399,521.4V510.4H419.8M399,521.4V532.4H419.8M419.8,532.4V523H440.5M419.8,532.4V541.9H440.5M440.5,541.9V535.6H461.3M295.3,505.4V567H316.1M316.1,567V573.3H336.8M253.9,494.9V595.3H274.6M274.6,595.3V585.9H295.3M274.6,595.3V604.8H295.3M295.3,604.8V598.5H316.1M67.2,642.5V636.2H88" stroke="#91bfdb"></path><path d="M336.8,323.9V338.7H357.6M357.6,338.7V321.6H378.3M357.6,338.7V355.8H378.3M378.3,355.8V340.5H399M399,340.5V334.2H419.8M378.3,509.6V497.8H399M440.5,541.9V548.2H461.3M316.1,567V560.7H336.8" stroke="#e2e2a2"></path><text x="27.7" y="27.5" class="node" fill="#4A6FE3">1</text><text x="48.5" y="45.1" class="node" fill="#4A6FE3">1</text><text x="69.2" y="28.9" class="node" fill="red">NA</text><text x="69.2" y="61.2" class="node" fill="red">NA</text><text x="90" y="74.7" class="node" fill="#4A6FE3">1</text><text x="110.7" y="89.1" class="node" fill="red">NA</text><text x="131.4" y="105.3" class="node" fill="red">NA</text><text x="152.2" y="125.1" class="node" fill="red">NA</text><text x="172.9" y="152" class="node" fill="red">NA</text><text x="193.7" y="193.4" class="node" fill="red">NA</text><text x="214.4" y="263.5" class="node" fill="red">NA</text><text x="235.1" y="159.8" class="node" fill="red">NA</text><text x="255.9" y="183.8" class="node" fill="red">NA</text><text x="276.6" y="159.4" class="node" fill="red">NA</text><text x="297.3" y="170.5" class="node" fill="red">NA</text><text x="318.1" y="179.9" class="node" fill="red">NA</text><text x="276.6" y="208.2" class="node" fill="red">NA</text><text x="297.3" y="217.7" class="node" fill="red">NA</text><text x="235.1" y="367.2" class="node" fill="#5F7BE1">0.95</text><text x="255.9" y="497.9" class="node" fill="#4A6FE3">1</text><text x="276.6" y="397.5" class="node" fill="red">NA</text><text x="297.3" y="286.6" class="node" fill="red">NA</text><text x="318.1" y="260.1" class="node" fill="red">NA</text><text x="338.8" y="271.1" class="node" fill="red">NA</text><text x="359.6" y="280.6" class="node" fill="red">NA</text><text x="318.1" y="313.2" class="node" fill="red">NA</text><text x="338.8" y="326.9" class="node" fill="red">NA</text><text x="359.6" y="341.7" class="node" fill="red">NA</text><text x="380.3" y="358.8" class="node" fill="red">NA</text><text x="401" y="343.5" class="node" fill="red">NA</text><text x="401" y="374.2" class="node" fill="red">NA</text><text x="421.8" y="386" class="node" fill="red">NA</text><text x="442.5" y="397" class="node" fill="red">NA</text><text x="463.3" y="406.4" class="node" fill="red">NA</text><text x="297.3" y="508.4" class="node" fill="red">NA</text><text x="318.1" y="446.8" class="node" fill="red">NA</text><text x="338.8" y="468.4" class="node" fill="red">NA</text><text x="359.6" y="444.2" class="node" fill="red">NA</text><text x="359.6" y="492.6" class="node" fill="red">NA</text><text x="380.3" y="472.5" class="node" fill="#4A6FE3">1</text><text x="401" y="481.9" class="node" fill="red">NA</text><text x="380.3" y="512.6" class="node" fill="red">NA</text><text x="401" y="524.4" class="node" fill="red">NA</text><text x="421.8" y="535.4" class="node" fill="red">NA</text><text x="442.5" y="544.9" class="node" fill="red">NA</text><text x="318.1" y="570" class="node" fill="red">NA</text><text x="276.6" y="598.3" class="node" fill="red">NA</text><text x="297.3" y="607.8" class="node" fill="red">NA</text><text x="27.7" y="653.4" class="node" fill="#5F7BE1">0.95</text><text x="48.5" y="636.1" class="node" fill="#5F7BE1">0.95</text><text x="69.2" y="645.5" class="node" fill="red">NA</text><text x="48.5" y="670.7" class="node" fill="red">NA</text></svg>
