<svg xmlns="http://www.w3.org/2000/svg" version="1.1" width="682" height="555" class="tree" data-char="4">
 <text x="678" y="14.7" text-anchor="end" class="stepsLabel">Character adds <tspan class="score">1</tspan> to tree score</text>
 <text x="678" y="26.4" text-anchor="end" class="stepsLabel"><tspan class="score">0</tspan> additional regions</text>
 <text x="678" y="38.1" text-anchor="end" class="stepsLabel">CI = 1; Fitch CI = 1; Fitch RI = 1</text>
 <text x="678" y="61.5" text-anchor="end" class="stepsLabel"><tspan dy="16">An optimal tree under:</tspan><tspan x="680" style="font-style:italic" class="thisAn" dy="1.2em">Equal weights</tspan><tspan x="680" style="font-style:italic" class="notThisAn" dy="1.2em">Implied weights, k = 2</tspan><tspan x="680" style="font-style:italic" class="notThisAn" dy="1.2em">IW, k = 3</tspan><tspan x="680" style="font-style:italic" class="notThisAn" dy="1.2em">IW, k = 4.5</tspan><tspan x="680" style="font-style:italic" class="notThisAn" dy="1.2em">IW, k = 7</tspan></text>
 <text x="80.3" y="538" fill="#fc8d59" class="flag">[0]</text>
 <text x="102.3" y="538" fill="#111" class="taxonLabel">Sipunculus</text>
 <text x="80.3" y="550" fill="#fc8d59" class="flag">[0]</text>
 <text x="102.3" y="550" fill="#111" class="taxonLabel">Serpula</text>
 <text x="105.4" y="514" fill="#fc8d59" class="flag">[0]</text>
 <text x="127.4" y="514" fill="#111" class="taxonLabel">Wiwaxia corrugata</text>
 <text x="105.4" y="526" fill="#fc8d59" class="flag">[0]</text>
 <text x="127.4" y="526" fill="#111" class="taxonLabel">Chiton</text>
 <text x="80.3" y="502" fill="#fc8d59" class="flag">[0]</text>
 <text x="102.3" y="502" fill="#111" class="taxonLabel">Dentalium</text>
 <text x="155.6" y="442" fill="#fc8d59" class="flag">[0]</text>
 <text x="177.6" y="442" fill="#111" class="taxonLabel">Cotyledion tylodes</text>
 <text x="155.6" y="454" fill="#fc8d59" class="flag">[0]</text>
 <text x="177.6" y="454" fill="#111" class="taxonLabel">Eccentrotheca</text>
 <text x="431.8" y="418" fill="#fc8d59" class="flag">[0]</text>
 <text x="453.8" y="418" fill="#111" class="taxonLabel">Acanthotretella spinosa</text>
 <text x="431.8" y="430" fill="#fc8d59" class="flag">[0]</text>
 <text x="453.8" y="430" fill="#111" class="taxonLabel">Siphonobolus priscus</text>
 <text x="406.7" y="406" fill="#fc8d59" class="flag">[0]</text>
 <text x="428.7" y="406" fill="#111" class="taxonLabel">Clupeafumosus socialis</text>
 <text x="406.7" y="382" fill="#fc8d59" class="flag">[0]</text>
 <text x="428.7" y="382" fill="#111" class="taxonLabel">Lingulellotreta malongensis</text>
 <text x="406.7" y="394" fill="#fc8d59" class="flag">[0]</text>
 <text x="428.7" y="394" fill="#111" class="taxonLabel">Lingulosacculus</text>
 <text x="356.5" y="370" fill="#fc8d59" class="flag">[0]</text>
 <text x="378.5" y="370" fill="#111" class="taxonLabel">Botsfordia</text>
 <text x="331.4" y="358" fill="#fc8d59" class="flag">[0]</text>
 <text x="353.4" y="358" fill="#111" class="taxonLabel">Mummpikia nuda</text>
 <text x="306.3" y="346" fill="#fc8d59" class="flag">[0]</text>
 <text x="328.3" y="346" fill="#111" class="taxonLabel">Eoobolus</text>
 <text x="281.2" y="334" fill="#fc8d59" class="flag">[0]</text>
 <text x="303.2" y="334" fill="#111" class="taxonLabel">Lingula</text>
 <text x="306.3" y="310" fill="#fc8d59" class="flag">[0]</text>
 <text x="328.3" y="310" fill="#111" class="taxonLabel">Mickwitzia muralensis</text>
 <text x="306.3" y="322" fill="#fc8d59" class="flag">[0]</text>
 <text x="328.3" y="322" fill="#111" class="taxonLabel">Pelagodiscus atlanticus</text>
 <text x="281.2" y="298" fill="#fc8d59" class="flag">[0]</text>
 <text x="303.2" y="298" fill="#111" class="taxonLabel">Micrina</text>
 <text x="331.4" y="274" fill="#fc8d59" class="flag">[0]</text>
 <text x="353.4" y="274" fill="#111" class="taxonLabel">Novocrania</text>
 <text x="331.4" y="286" fill="#fc8d59" class="flag">[0]</text>
 <text x="353.4" y="286" fill="#111" class="taxonLabel">Craniops</text>
 <text x="306.3" y="262" fill="#fc8d59" class="flag">[0]</text>
 <text x="328.3" y="262" fill="#111" class="taxonLabel">Ussunia</text>
 <text x="281.2" y="250" fill="#fc8d59" class="flag">[0]</text>
 <text x="303.2" y="250" fill="#111" class="taxonLabel">Gasconsia</text>
 <text x="306.3" y="226" fill="#fc8d59" class="flag">[0]</text>
 <text x="328.3" y="226" fill="#111" class="taxonLabel">Askepasma toddense</text>
 <text x="306.3" y="238" fill="#fc8d59" class="flag">[0]</text>
 <text x="328.3" y="238" fill="#111" class="taxonLabel">Micromitra</text>
 <text x="356.5" y="202" fill="#fc8d59" class="flag">[0]</text>
 <text x="378.5" y="202" fill="#111" class="taxonLabel">Coolinia pecten</text>
 <text x="356.5" y="214" fill="#fc8d59" class="flag">[0]</text>
 <text x="378.5" y="214" fill="#111" class="taxonLabel">Antigonambonites planus</text>
 <text x="482" y="178" fill="#fc8d59" class="flag">[0]</text>
 <text x="504" y="178" fill="#111" class="taxonLabel">Orthis</text>
 <text x="482" y="190" fill="#fc8d59" class="flag">[0]</text>
 <text x="504" y="190" fill="#111" class="taxonLabel">Terebratulina</text>
 <text x="456.9" y="166" fill="#fc8d59" class="flag">[0]</text>
 <text x="478.9" y="166" fill="#111" class="taxonLabel">Alisina</text>
 <text x="431.8" y="154" fill="#fc8d59" class="flag">[0]</text>
 <text x="453.8" y="154" fill="#111" class="taxonLabel">Longtancunella chengjiangensis</text>
 <text x="406.7" y="142" fill="#fc8d59" class="flag">[0]</text>
 <text x="428.7" y="142" fill="#111" class="taxonLabel">Glyptoria</text>
 <text x="381.6" y="130" fill="#fc8d59" class="flag">[0]</text>
 <text x="403.6" y="130" fill="#111" class="taxonLabel">Nisusia sulcata</text>
 <text x="356.5" y="118" fill="#fc8d59" class="flag">[0]</text>
 <text x="378.5" y="118" fill="#111" class="taxonLabel">Kutorgina chengjiangensis</text>
 <text x="356.5" y="94" fill="#fc8d59" class="flag">[0]</text>
 <text x="378.5" y="94" fill="#111" class="taxonLabel">Tomteluva perturbata</text>
 <text x="356.5" y="106" fill="#fc8d59" class="flag">[0]</text>
 <text x="378.5" y="106" fill="#111" class="taxonLabel">Yuganotheca elegans</text>
 <text x="331.4" y="82" fill="#fc8d59" class="flag">[0]</text>
 <text x="353.4" y="82" fill="#111" class="taxonLabel">Salanygolina</text>
 <text x="256.1" y="58" fill="#fc8d59" class="flag">[0]</text>
 <text x="278.1" y="58" fill="#111" class="taxonLabel">Pedunculotheca diania</text>
 <text x="256.1" y="70" fill="#fc8d59" class="flag">[0]</text>
 <text x="278.1" y="70" fill="#111" class="taxonLabel">Haplophrentis carinatus</text>
 <text x="230.9" y="46" fill="#fc8d59" class="flag">[0]</text>
 <text x="252.9" y="46" fill="#111" class="taxonLabel">Paterimitra</text>
 <text x="180.7" y="34" fill="#fc8d59" class="flag">[0]</text>
 <text x="202.7" y="34" fill="#111" class="taxonLabel">Heliomedusa orienta</text>
 <text x="180.7" y="10" fill="#91bfdb" class="flag">[1]</text>
 <text x="202.7" y="10" fill="#111" class="taxonLabel">Dailyatia</text>
 <text x="180.7" y="22" fill="#91bfdb" class="flag">[1]</text>
 <text x="202.7" y="22" fill="#111" class="taxonLabel">Halkieria evangelista</text>
 <text x="105.4" y="466" fill="#fc8d59" class="flag">[0]</text>
 <text x="127.4" y="466" fill="#111" class="taxonLabel">Phoronis</text>
 <text x="80.3" y="478" fill="#fc8d59" class="flag">[0]</text>
 <text x="102.3" y="478" fill="#111" class="taxonLabel">Flustra</text>
 <text x="55.2" y="490" fill="#fc8d59" class="flag">[0]</text>
 <text x="77.2" y="490" fill="#111" class="taxonLabel">Loxosomella</text>
 <path d="M5,487.9V451.3H30.1M30.1,451.3V415.7H55.2M55.2,415.7V356.4H80.3M80.3,356.4V249.8H105.4M105.4,249.8V54.6H130.5M130.5,54.6V96.2H155.6M155.6,96.2V31H180.7M155.6,96.2V161.4H180.7M180.7,161.4V52H205.8M205.8,52V43H230.9M205.8,52V61H230.9M230.9,61V55H256.1M230.9,61V67H256.1M180.7,161.4V270.7H205.8M205.8,270.7V217.7H230.9M230.9,217.7V178H256.1M256.1,178V127H281.2M281.2,127V88H306.3M306.3,88V79H331.4M306.3,88V97H331.4M331.4,97V91H356.5M331.4,97V103H356.5M281.2,127V165.9H306.3M306.3,165.9V126.8H331.4M331.4,126.8V115H356.5M331.4,126.8V138.6H356.5M356.5,138.6V127H381.6M356.5,138.6V150.2H381.6M381.6,150.2V139H406.7M381.6,150.2V161.5H406.7M406.7,161.5V151H431.8M406.7,161.5V172H431.8M431.8,172V163H456.9M431.8,172V181H456.9M456.9,181V175H482M456.9,181V187H482M306.3,165.9V205H331.4M331.4,205V199H356.5M331.4,205V211H356.5M256.1,178V229H281.2M281.2,229V223H306.3M281.2,229V235H306.3M230.9,217.7V257.5H256.1M256.1,257.5V247H281.2M256.1,257.5V268H281.2M281.2,268V259H306.3M281.2,268V277H306.3M306.3,277V271H331.4M306.3,277V283H331.4M205.8,270.7V323.7H230.9M230.9,323.7V304H256.1M256.1,304V295H281.2M256.1,304V313H281.2M281.2,313V307H306.3M281.2,313V319H306.3M230.9,323.7V343.5H256.1M256.1,343.5V331H281.2M256.1,343.5V355.9H281.2M281.2,355.9V343H306.3M281.2,355.9V368.9H306.3M306.3,368.9V355H331.4M306.3,368.9V382.8H331.4M331.4,382.8V367H356.5M331.4,382.8V398.5H356.5M356.5,398.5V385H381.6M381.6,385V379H406.7M381.6,385V391H406.7M356.5,398.5V412H381.6M381.6,412V403H406.7M381.6,412V421H406.7M406.7,421V415H431.8M406.7,421V427H431.8M105.4,249.8V445H130.5M130.5,445V439H155.6M130.5,445V451H155.6M80.3,356.4V463H105.4M55.2,415.7V475H80.3M30.1,451.3V487H55.2M5,487.9V524.5H30.1M30.1,524.5V508H55.2M55.2,508V499H80.3M55.2,508V517H80.3M80.3,517V511H105.4M80.3,517V523H105.4M30.1,524.5V541H55.2M55.2,541V535H80.3M55.2,541V547H80.3" stroke="#fc8d59"></path>
 <path d="M130.5,54.6V13H155.6M155.6,13V7H180.7M155.6,13V19H180.7" stroke="#91bfdb"></path>
 <text x="7" y="490.9" class="node" fill="#4A6FE3">1</text>
 <text x="32.1" y="454.3" class="node" fill="#ABB4E2">0.7</text>
 <text x="57.2" y="418.7" class="node" fill="#ABB4E2">0.7</text>
 <text x="82.3" y="359.4" class="node" fill="#ABB4E2">0.7</text>
 <text x="107.4" y="252.8" class="node" fill="#ABB4E2">0.7</text>
 <text x="132.5" y="57.6" class="node" fill="#CACDE3">0.59</text>
 <text x="157.6" y="16" class="node" fill="#7388E1">0.89</text>
 <text x="157.6" y="99.2" class="node" fill="#4A6FE3">1</text>
 <text x="182.7" y="164.4" class="node" fill="#5B78E2">0.96</text>
 <text x="207.8" y="55" class="node" fill="#AEB6E2">0.69</text>
 <text x="232.9" y="64" class="node" fill="#4A6FE3">1</text>
 <text x="207.8" y="273.7" class="node" fill="#5B78E2">0.96</text>
 <text x="232.9" y="220.7" class="node" fill="#4A6FE3">1</text>
 <text x="258.1" y="181" class="node" fill="#929FE1">0.79</text>
 <text x="283.2" y="130" class="node" fill="#5B78E2">0.96</text>
 <text x="308.3" y="91" class="node" fill="#C1C6E3">0.62</text>
 <text x="333.4" y="100" class="node" fill="#627DE1">0.94</text>
 <text x="308.3" y="168.9" class="node" fill="#4A6FE3">1</text>
 <text x="333.4" y="129.8" class="node" fill="#DDDEE3">0.52</text>
 <text x="358.5" y="141.6" class="node" fill="#DDDEE3">0.52</text>
 <text x="383.6" y="153.2" class="node" fill="#DDDEE3">0.52</text>
 <text x="408.7" y="164.5" class="node" fill="#DDDEE3">0.52</text>
 <text x="433.8" y="175" class="node" fill="#4A6FE3">1</text>
 <text x="458.9" y="184" class="node" fill="#8F9DE1">0.8</text>
 <text x="333.4" y="208" class="node" fill="#4A6FE3">1</text>
 <text x="283.2" y="232" class="node" fill="#4A6FE3">1</text>
 <text x="258.1" y="260.5" class="node" fill="#4A6FE3">1</text>
 <text x="283.2" y="271" class="node" fill="#4A6FE3">1</text>
 <text x="308.3" y="280" class="node" fill="#4A6FE3">1</text>
 <text x="232.9" y="326.7" class="node" fill="#AEB6E2">0.69</text>
 <text x="258.1" y="307" class="node" fill="#AEB6E2">0.69</text>
 <text x="283.2" y="316" class="node" fill="#ABB4E2">0.7</text>
 <text x="258.1" y="346.5" class="node" fill="#ABB4E2">0.7</text>
 <text x="283.2" y="358.9" class="node" fill="#ABB4E2">0.7</text>
 <text x="308.3" y="371.9" class="node" fill="#AEB6E2">0.69</text>
 <text x="333.4" y="385.8" class="node" fill="#AEB6E2">0.69</text>
 <text x="358.5" y="401.5" class="node" fill="#AEB6E2">0.69</text>
 <text x="383.6" y="388" class="node" fill="#E07C92">0.17</text>
 <text x="383.6" y="415" class="node" fill="#DDDEE3">0.52</text>
 <text x="408.7" y="424" class="node" fill="#4A6FE3">1</text>
 <text x="132.5" y="448" class="node" fill="#E2899B">0.21</text>
 <text x="32.1" y="527.5" class="node" fill="#ABB4E2">0.7</text>
 <text x="57.2" y="511" class="node" fill="#ABB4E2">0.7</text>
 <text x="82.3" y="520" class="node" fill="#ABB4E2">0.7</text>
 <text x="57.2" y="544" class="node" fill="#4A6FE3">1</text></svg>
