<svg xmlns="http://www.w3.org/2000/svg" version="1.1" width="682" height="612" class="tree" data-char="99"><text x="678" y="15.7" text-anchor="end" class="stepsLabel">Character adds <tspan class="score">5</tspan> to tree score</text><text x="678" y="28.4" text-anchor="end" class="stepsLabel"><tspan class="score">1</tspan> additional region</text><text x="678" y="41.1" text-anchor="end" class="stepsLabel">CI = 0.2; Fitch CI = 0.25; Fitch RI = 0.25</text><text x="678" y="66.5" text-anchor="end" class="stepsLabel"><tspan dy="16">An optimal tree under:</tspan><tspan x="680" style="font-style:italic" class="thisAn" dy="1.2em">Equal weights</tspan><tspan x="680" style="font-style:italic" class="notThisAn" dy="1.2em">Implied weights, k = 2</tspan><tspan x="680" style="font-style:italic" class="notThisAn" dy="1.2em">IW, k = 3</tspan><tspan x="680" style="font-style:italic" class="notThisAn" dy="1.2em">IW, k = 4.5</tspan><tspan x="680" style="font-style:italic" class="notThisAn" dy="1.2em">IW, k = 7</tspan><tspan x="680" style="font-style:italic" class="notThisAn" dy="1.2em">IW, k = 10.5</tspan><tspan x="680" style="font-style:italic" class="notThisAn" dy="1.2em">IW, k = 16</tspan><tspan x="680" style="font-style:italic" class="notThisAn" dy="1.2em">IW, k = 24</tspan></text><text x="95.9" y="594" fill="lightgrey" class="flag">[-]</text><text x="117.9" y="594" fill="lightgrey" class="taxonLabel">Dentalium</text><text x="95.9" y="607" fill="#91bfdb" class="flag">[2]</text><text x="117.9" y="607" fill="#000" class="taxonLabel">Tonicella</text><text x="73.1" y="581" fill="lightgrey" class="flag">[-]</text><text x="95.1" y="581" fill="lightgrey" class="taxonLabel">Wiwaxia corrugata</text><text x="73.1" y="555.1" fill="lightgrey" class="flag">[-]</text><text x="95.1" y="555.1" fill="lightgrey" class="taxonLabel">Sipunculus</text><text x="73.1" y="568.1" fill="lightgrey" class="flag">[-]</text><text x="95.1" y="568.1" fill="lightgrey" class="taxonLabel">Serpula</text><text x="254.9" y="516.2" fill="lightgrey" class="flag">[-]</text><text x="276.9" y="516.2" fill="lightgrey" class="taxonLabel">Haplophrentis carinatus</text><text x="254.9" y="529.1" fill="lightgrey" class="flag">[-]</text><text x="276.9" y="529.1" fill="lightgrey" class="taxonLabel">Pedunculotheca diania</text><text x="482" y="490.2" fill="#91bfdb" class="flag">[2]</text><text x="504" y="490.2" fill="#000" class="taxonLabel">Terebratulina</text><text x="482" y="503.2" fill="#e2e2a2" class="flag">[1]</text><text x="504" y="503.2" fill="#000" class="taxonLabel">Orthis</text><text x="459.3" y="477.2" fill="#91bfdb" class="flag">[2]</text><text x="481.3" y="477.2" fill="#000" class="taxonLabel">Alisina</text><text x="436.6" y="464.2" fill="#e2e2a2" class="flag">[1]</text><text x="458.6" y="464.2" fill="#000" class="taxonLabel">Glyptoria</text><text x="413.9" y="451.3" fill="#91bfdb" class="flag">[2]</text><text x="435.9" y="451.3" fill="#000" class="taxonLabel">Nisusia sulcata</text><text x="391.1" y="438.3" fill="#91bfdb" class="flag">[2]</text><text x="413.1" y="438.3" fill="#000" class="taxonLabel">Kutorgina chengjiangensis</text><text x="391.1" y="412.3" fill="#91bfdb" class="flag">[2]</text><text x="413.1" y="412.3" fill="#000" class="taxonLabel">Coolinia pecten</text><text x="391.1" y="425.3" fill="#91bfdb" class="flag">[2]</text><text x="413.1" y="425.3" fill="#000" class="taxonLabel">Antigonambonites planus</text><text x="345.7" y="399.3" fill="grey" class="flag">[?]</text><text x="367.7" y="399.3" fill="grey" class="taxonLabel">Longtancunella chengjiangensis</text><text x="368.4" y="373.4" fill="grey" class="flag">[?]</text><text x="390.4" y="373.4" fill="grey" class="taxonLabel">Yuganotheca elegans</text><text x="368.4" y="386.4" fill="#91bfdb" class="flag">[2]</text><text x="390.4" y="386.4" fill="#000" class="taxonLabel">Tomteluva perturbata</text><text x="345.7" y="360.4" fill="#91bfdb" class="flag">[2]</text><text x="367.7" y="360.4" fill="#000" class="taxonLabel">Salanygolina</text><text x="345.7" y="334.5" fill="#91bfdb" class="flag">[2]</text><text x="367.7" y="334.5" fill="#000" class="taxonLabel">Gasconsia</text><text x="345.7" y="347.4" fill="#91bfdb" class="flag">[2]</text><text x="367.7" y="347.4" fill="#000" class="taxonLabel">Micromitra</text><text x="323" y="321.5" fill="#e2e2a2" class="flag">[1]</text><text x="345" y="321.5" fill="#000" class="taxonLabel">Askepasma toddense</text><text x="482" y="295.5" fill="lightgrey" class="flag">[-]</text><text x="504" y="295.5" fill="lightgrey" class="taxonLabel">Acanthotretella spinosa</text><text x="482" y="308.5" fill="lightgrey" class="flag">[-]</text><text x="504" y="308.5" fill="lightgrey" class="taxonLabel">Siphonobolus priscus</text><text x="459.3" y="282.5" fill="lightgrey" class="flag">[-]</text><text x="481.3" y="282.5" fill="lightgrey" class="taxonLabel">Clupeafumosus socialis</text><text x="436.6" y="269.6" fill="lightgrey" class="flag">[-]</text><text x="458.6" y="269.6" fill="lightgrey" class="taxonLabel">Lingulellotreta malongensis</text><text x="413.9" y="256.6" fill="lightgrey" class="flag">[-]</text><text x="435.9" y="256.6" fill="lightgrey" class="taxonLabel">Lingulosacculus</text><text x="391.1" y="243.6" fill="#e2e2a2" class="flag">[1]</text><text x="413.1" y="243.6" fill="#000" class="taxonLabel">Botsfordia</text><text x="368.4" y="230.6" fill="#e2e2a2" class="flag">[1]</text><text x="390.4" y="230.6" fill="#000" class="taxonLabel">Mummpikia nuda</text><text x="345.7" y="217.7" fill="#91bfdb" class="flag">[2]</text><text x="367.7" y="217.7" fill="#000" class="taxonLabel">Eoobolus</text><text x="323" y="204.7" fill="lightgrey" class="flag">[-]</text><text x="345" y="204.7" fill="lightgrey" class="taxonLabel">Lingula</text><text x="345.7" y="178.7" fill="lightgrey" class="flag">[-]</text><text x="367.7" y="178.7" fill="lightgrey" class="taxonLabel">Pelagodiscus atlanticus</text><text x="345.7" y="191.7" fill="#91bfdb" class="flag">[2]</text><text x="367.7" y="191.7" fill="#000" class="taxonLabel">Mickwitzia muralensis</text><text x="323" y="165.7" fill="#91bfdb" class="flag">[2]</text><text x="345" y="165.7" fill="#000" class="taxonLabel">Micrina</text><text x="254.9" y="152.8" fill="#91bfdb" class="flag">[2]</text><text x="276.9" y="152.8" fill="#000" class="taxonLabel">Paterimitra</text><text x="209.4" y="139.8" fill="lightgrey" class="flag">[-]</text><text x="231.4" y="139.8" fill="lightgrey" class="taxonLabel">Heliomedusa orienta</text><text x="209.4" y="113.8" fill="lightgrey" class="flag">[-]</text><text x="231.4" y="113.8" fill="lightgrey" class="taxonLabel">Novocrania</text><text x="209.4" y="126.8" fill="lightgrey" class="flag">[-]</text><text x="231.4" y="126.8" fill="lightgrey" class="taxonLabel">Craniops</text><text x="164" y="100.8" fill="lightgrey" class="flag">[-]</text><text x="186" y="100.8" fill="lightgrey" class="taxonLabel">Ussunia</text><text x="164" y="74.9" fill="lightgrey" class="flag">[-]</text><text x="186" y="74.9" fill="lightgrey" class="taxonLabel">Dailyatia</text><text x="164" y="87.9" fill="lightgrey" class="flag">[-]</text><text x="186" y="87.9" fill="lightgrey" class="taxonLabel">Halkieria evangelista</text><text x="141.3" y="48.9" fill="lightgrey" class="flag">[-]</text><text x="163.3" y="48.9" fill="lightgrey" class="taxonLabel">Eccentrotheca</text><text x="141.3" y="61.9" fill="lightgrey" class="flag">[-]</text><text x="163.3" y="61.9" fill="lightgrey" class="taxonLabel">Cotyledion tylodes</text><text x="118.6" y="23" fill="lightgrey" class="flag">[-]</text><text x="140.6" y="23" fill="lightgrey" class="taxonLabel">Namacalathus</text><text x="118.6" y="36" fill="lightgrey" class="flag">[-]</text><text x="140.6" y="36" fill="lightgrey" class="taxonLabel">Phoronis</text><text x="73.1" y="10" fill="lightgrey" class="flag">[-]</text><text x="95.1" y="10" fill="lightgrey" class="taxonLabel">Flustra</text><text x="50.4" y="542.1" fill="lightgrey" class="flag">[-]</text><text x="72.4" y="542.1" fill="lightgrey" class="taxonLabel">Loxosomella</text><path d="M5,429V284.7H27.7M27.7,284.7V30.4H50.4M50.4,30.4V7H73.1M50.4,30.4V53.8H73.1M73.1,53.8V26.5H95.9M95.9,26.5V20H118.6M95.9,26.5V33H118.6M73.1,53.8V81.1H95.9M95.9,81.1V52.4H118.6M118.6,52.4V45.9H141.3M118.6,52.4V58.9H141.3M95.9,81.1V109.8H118.6M118.6,109.8V78.4H141.3M141.3,78.4V71.9H164M141.3,78.4V84.9H164M118.6,109.8V141.1H141.3M141.3,141.1V97.8H164M141.3,141.1V184.4H164M164,184.4V117.3H186.7M186.7,117.3V110.8H209.4M186.7,117.3V123.8H209.4M164,184.4V251.6H186.7M186.7,251.6V136.8H209.4M186.7,251.6V366.4H209.4M323,182.2V175.7H345.7M300.3,214.6V201.7H323M368.4,253.2V265.8H391.1M391.1,265.8V253.6H413.9M391.1,265.8V277.9H413.9M413.9,277.9V266.6H436.6M413.9,277.9V289.3H436.6M436.6,289.3V279.5H459.3M436.6,289.3V299H459.3M459.3,299V292.5H482M459.3,299V305.5H482M209.4,366.4V519.6H232.1M232.1,519.6V513.2H254.9M232.1,519.6V526.1H254.9M27.7,284.7V539.1H50.4M5,429V573.2H27.7M27.7,573.2V558.6H50.4M50.4,558.6V552.1H73.1M50.4,558.6V565.1H73.1M27.7,573.2V587.8H50.4M50.4,587.8V578H73.1M50.4,587.8V597.5H73.1M73.1,597.5V591H95.9" stroke="lightgrey" class="inapplicable"></path><path d="M209.4,366.4V213.1H232.1M232.1,213.1V149.8H254.9M232.1,213.1V276.5H254.9M254.9,276.5V193.5H277.6M277.6,193.5V172.5H300.3M300.3,172.5V162.7H323M300.3,172.5V182.2H323M323,182.2V188.7H345.7M277.6,193.5V214.6H300.3M300.3,214.6V227.5H323M323,227.5V214.7H345.7M254.9,276.5V359.4H277.6M277.6,359.4V328.2H300.3M300.3,328.2V337.9H323M323,337.9V331.5H345.7M323,337.9V344.4H345.7M277.6,359.4V390.6H300.3M300.3,390.6V367.1H323M323,367.1V357.4H345.7M323,367.1V376.9H345.7M345.7,376.9V370.4H368.4M345.7,376.9V383.4H368.4M300.3,390.6V414.1H323M323,414.1V396.3H345.7M323,414.1V431.8H345.7M345.7,431.8V415.8H368.4M368.4,415.8V409.3H391.1M368.4,415.8V422.3H391.1M345.7,431.8V447.9H368.4M368.4,447.9V435.3H391.1M368.4,447.9V460.4H391.1M391.1,460.4V448.3H413.9M391.1,460.4V472.6H413.9M413.9,472.6V484H436.6M436.6,484V474.2H459.3M436.6,484V493.7H459.3M459.3,493.7V487.2H482M73.1,597.5V604H95.9" stroke="#91bfdb"></path><path d="M323,227.5V240.4H345.7M345.7,240.4V227.6H368.4M345.7,240.4V253.2H368.4M368.4,253.2V240.6H391.1M300.3,328.2V318.5H323M413.9,472.6V461.2H436.6M459.3,493.7V500.2H482" stroke="#e2e2a2"></path><text x="7" y="432" class="node" fill="#4A6FE3">1</text><text x="29.7" y="287.7" class="node" fill="#4A6FE3">1</text><text x="52.4" y="33.4" class="node" fill="#4A6FE3">1</text><text x="75.1" y="56.8" class="node" fill="#4A6FE3">1</text><text x="97.9" y="29.5" class="node" fill="#627DE1">0.94</text><text x="97.9" y="84.1" class="node" fill="#4A6FE3">1</text><text x="120.6" y="55.4" class="node" fill="#E2899B">0.21</text><text x="120.6" y="112.8" class="node" fill="#929FE1">0.79</text><text x="143.3" y="81.4" class="node" fill="#AEB6E2">0.69</text><text x="143.3" y="144.1" class="node" fill="#4A6FE3">1</text><text x="166" y="187.4" class="node" fill="#E498A7">0.26</text><text x="188.7" y="120.3" class="node" fill="#4A6FE3">1</text><text x="188.7" y="254.6" class="node" fill="#8394E1">0.84</text><text x="211.4" y="369.4" class="node" fill="#8394E1">0.84</text><text x="234.1" y="216.1" class="node" fill="#E3DCDD">0.48</text><text x="256.9" y="279.5" class="node" fill="#8394E1">0.84</text><text x="279.6" y="196.5" class="node" fill="#8091E1">0.85</text><text x="302.3" y="175.5" class="node" fill="#8091E1">0.85</text><text x="325" y="185.2" class="node" fill="#4A6FE3">1</text><text x="302.3" y="217.6" class="node" fill="#4A6FE3">1</text><text x="325" y="230.5" class="node" fill="#4A6FE3">1</text><text x="347.7" y="243.4" class="node" fill="#8091E1">0.85</text><text x="370.4" y="256.2" class="node" fill="#8091E1">0.85</text><text x="393.1" y="268.8" class="node" fill="#8091E1">0.85</text><text x="415.9" y="280.9" class="node" fill="#E07C92">0.17</text><text x="438.6" y="292.3" class="node" fill="#DDDEE3">0.52</text><text x="461.3" y="302" class="node" fill="#4A6FE3">1</text><text x="279.6" y="362.4" class="node" fill="#8394E1">0.84</text><text x="302.3" y="331.2" class="node" fill="#E5A5B1">0.3</text><text x="325" y="340.9" class="node" fill="#CFD2E3">0.58</text><text x="302.3" y="393.6" class="node" fill="#4A6FE3">1</text><text x="325" y="370.1" class="node" fill="#8998E1">0.82</text><text x="347.7" y="379.9" class="node" fill="#5374E2">0.98</text><text x="325" y="417.1" class="node" fill="#6982E1">0.92</text><text x="347.7" y="434.8" class="node" fill="#ABB4E2">0.7</text><text x="370.4" y="418.8" class="node" fill="#4A6FE3">1</text><text x="370.4" y="450.9" class="node" fill="#ABB4E2">0.7</text><text x="393.1" y="463.4" class="node" fill="#ABB4E2">0.7</text><text x="415.9" y="475.6" class="node" fill="#ABB4E2">0.7</text><text x="438.6" y="487" class="node" fill="#4A6FE3">1</text><text x="461.3" y="496.7" class="node" fill="#B6BDE3">0.66</text><text x="234.1" y="522.6" class="node" fill="#4A6FE3">1</text><text x="29.7" y="576.2" class="node" fill="#4A6FE3">1</text><text x="52.4" y="561.6" class="node" fill="#4A6FE3">1</text><text x="52.4" y="590.8" class="node" fill="#4A6FE3">1</text><text x="75.1" y="600.5" class="node" fill="#4A6FE3">1</text></svg>
