<svg xmlns="http://www.w3.org/2000/svg" version="1.1" width="682" height="612" class="tree" data-char="96"><text x="678" y="15.4" text-anchor="end" class="stepsLabel">Character adds <tspan class="score">4</tspan> to tree score</text><text x="678" y="27.8" text-anchor="end" class="stepsLabel"><tspan class="score">0</tspan> additional regions</text><text x="678" y="40.2" text-anchor="end" class="stepsLabel">CI = 0.25; Fitch CI = 0.25; Fitch RI = 0.5</text><text x="678" y="65" text-anchor="end" class="stepsLabel"><tspan dy="16" fill="#34caaf">An optimal tree under:</tspan><tspan x="680" style="font-style:italic" class="notThisAn" dy="1.2em">Equal weights</tspan><tspan x="680" style="font-style:italic" class="notThisAn" dy="1.2em">Implied weights, k = 2</tspan><tspan x="680" style="font-style:italic" class="thisAn" dy="1.2em">IW, k = 3</tspan><tspan x="680" style="font-style:italic" class="notThisAn" dy="1.2em">IW, k = 4.5</tspan><tspan x="680" style="font-style:italic" class="notThisAn" dy="1.2em">IW, k = 7</tspan><tspan x="680" style="font-style:italic" class="notThisAn" dy="1.2em">IW, k = 10.5</tspan><tspan x="680" style="font-style:italic" class="notThisAn" dy="1.2em">IW, k = 16</tspan><tspan x="680" style="font-style:italic" class="notThisAn" dy="1.2em">IW, k = 24</tspan></text><text x="95.9" y="594.3" fill="#fc8d59" class="flag">[0]</text><text x="117.9" y="594.3" fill="#000" class="taxonLabel">Tonicella</text><text x="95.9" y="607" fill="#fc8d59" class="flag">[0]</text><text x="117.9" y="607" fill="#000" class="taxonLabel">Wiwaxia corrugata</text><text x="73.1" y="581.6" fill="#fc8d59" class="flag">[0]</text><text x="95.1" y="581.6" fill="#000" class="taxonLabel">Dentalium</text><text x="73.1" y="556.2" fill="#fc8d59" class="flag">[0]</text><text x="95.1" y="556.2" fill="#000" class="taxonLabel">Sipunculus</text><text x="73.1" y="568.9" fill="#fc8d59" class="flag">[0]</text><text x="95.1" y="568.9" fill="#000" class="taxonLabel">Serpula</text><text x="141.3" y="518.1" fill="#fc8d59" class="flag">[0]</text><text x="163.3" y="518.1" fill="#000" class="taxonLabel">Phoronis</text><text x="141.3" y="530.8" fill="#fc8d59" class="flag">[0]</text><text x="163.3" y="530.8" fill="#000" class="taxonLabel">Namacalathus</text><text x="118.6" y="505.4" fill="#fc8d59" class="flag">[0]</text><text x="140.6" y="505.4" fill="#000" class="taxonLabel">Cotyledion tylodes</text><text x="209.4" y="480" fill="#91bfdb" class="flag">[1]</text><text x="231.4" y="480" fill="#000" class="taxonLabel">Haplophrentis carinatus</text><text x="209.4" y="492.7" fill="#91bfdb" class="flag">[1]</text><text x="231.4" y="492.7" fill="#000" class="taxonLabel">Pedunculotheca diania</text><text x="345.7" y="454.6" fill="#fc8d59" class="flag">[0]</text><text x="367.7" y="454.6" fill="#000" class="taxonLabel">Botsfordia</text><text x="345.7" y="467.3" fill="#fc8d59" class="flag">[0]</text><text x="367.7" y="467.3" fill="#000" class="taxonLabel">Mummpikia nuda</text><text x="323" y="441.9" fill="#fc8d59" class="flag">[0]</text><text x="345" y="441.9" fill="#000" class="taxonLabel">Eoobolus</text><text x="391.1" y="416.5" fill="#fc8d59" class="flag">[0]</text><text x="413.1" y="416.5" fill="#000" class="taxonLabel">Siphonobolus priscus</text><text x="391.1" y="429.2" fill="#fc8d59" class="flag">[0]</text><text x="413.1" y="429.2" fill="#000" class="taxonLabel">Acanthotretella spinosa</text><text x="368.4" y="403.8" fill="#fc8d59" class="flag">[0]</text><text x="390.4" y="403.8" fill="#000" class="taxonLabel">Lingulosacculus</text><text x="345.7" y="391.1" fill="#fc8d59" class="flag">[0]</text><text x="367.7" y="391.1" fill="#000" class="taxonLabel">Clupeafumosus socialis</text><text x="345.7" y="365.7" fill="#fc8d59" class="flag">[0]</text><text x="367.7" y="365.7" fill="#000" class="taxonLabel">Lingulellotreta malongensis</text><text x="345.7" y="378.4" fill="#fc8d59" class="flag">[0]</text><text x="367.7" y="378.4" fill="#000" class="taxonLabel">Lingula</text><text x="300.3" y="340.3" fill="#fc8d59" class="flag">[0]</text><text x="322.3" y="340.3" fill="#000" class="taxonLabel">Pelagodiscus atlanticus</text><text x="300.3" y="353" fill="#fc8d59" class="flag">[0]</text><text x="322.3" y="353" fill="#000" class="taxonLabel">Mickwitzia muralensis</text><text x="323" y="314.9" fill="#fc8d59" class="flag">[0]</text><text x="345" y="314.9" fill="#000" class="taxonLabel">Micromitra</text><text x="323" y="327.6" fill="#fc8d59" class="flag">[0]</text><text x="345" y="327.6" fill="#000" class="taxonLabel">Askepasma toddense</text><text x="368.4" y="289.4" fill="#91bfdb" class="flag">[1]</text><text x="390.4" y="289.4" fill="#000" class="taxonLabel">Antigonambonites planus</text><text x="368.4" y="302.1" fill="#91bfdb" class="flag">[1]</text><text x="390.4" y="302.1" fill="#000" class="taxonLabel">Coolinia pecten</text><text x="482" y="264" fill="#91bfdb" class="flag">[1]</text><text x="504" y="264" fill="#000" class="taxonLabel">Orthis</text><text x="482" y="276.7" fill="#91bfdb" class="flag">[1]</text><text x="504" y="276.7" fill="#000" class="taxonLabel">Terebratulina</text><text x="459.3" y="251.3" fill="#fc8d59" class="flag">[0]</text><text x="481.3" y="251.3" fill="#000" class="taxonLabel">Alisina</text><text x="436.6" y="238.6" fill="#fc8d59" class="flag">[0]</text><text x="458.6" y="238.6" fill="#000" class="taxonLabel">Longtancunella chengjiangensis</text><text x="413.9" y="225.9" fill="#fc8d59" class="flag">[0]</text><text x="435.9" y="225.9" fill="#000" class="taxonLabel">Glyptoria</text><text x="391.1" y="213.2" fill="#fc8d59" class="flag">[0]</text><text x="413.1" y="213.2" fill="#000" class="taxonLabel">Nisusia sulcata</text><text x="368.4" y="200.5" fill="#fc8d59" class="flag">[0]</text><text x="390.4" y="200.5" fill="#000" class="taxonLabel">Kutorgina chengjiangensis</text><text x="368.4" y="175.1" fill="#91bfdb" class="flag">[1]</text><text x="390.4" y="175.1" fill="#000" class="taxonLabel">Tomteluva perturbata</text><text x="368.4" y="187.8" fill="#fc8d59" class="flag">[0]</text><text x="390.4" y="187.8" fill="#000" class="taxonLabel">Yuganotheca elegans</text><text x="345.7" y="162.4" fill="#fc8d59" class="flag">[0]</text><text x="367.7" y="162.4" fill="#000" class="taxonLabel">Salanygolina</text><text x="345.7" y="137" fill="#fc8d59" class="flag">[0]</text><text x="367.7" y="137" fill="#000" class="taxonLabel">Novocrania</text><text x="345.7" y="149.7" fill="#fc8d59" class="flag">[0]</text><text x="367.7" y="149.7" fill="#000" class="taxonLabel">Craniops</text><text x="323" y="124.3" fill="#fc8d59" class="flag">[0]</text><text x="345" y="124.3" fill="#000" class="taxonLabel">Ussunia</text><text x="300.3" y="111.6" fill="#fc8d59" class="flag">[0]</text><text x="322.3" y="111.6" fill="#000" class="taxonLabel">Gasconsia</text><text x="232.1" y="98.9" fill="#fc8d59" class="flag">[0]</text><text x="254.1" y="98.9" fill="#000" class="taxonLabel">Micrina</text><text x="209.4" y="86.2" fill="#fc8d59" class="flag">[0]</text><text x="231.4" y="86.2" fill="#000" class="taxonLabel">Paterimitra</text><text x="164" y="73.5" fill="#fc8d59" class="flag">[0]</text><text x="186" y="73.5" fill="#000" class="taxonLabel">Heliomedusa orienta</text><text x="164" y="48.1" fill="#fc8d59" class="flag">[0]</text><text x="186" y="48.1" fill="#000" class="taxonLabel">Halkieria evangelista</text><text x="164" y="60.8" fill="#fc8d59" class="flag">[0]</text><text x="186" y="60.8" fill="#000" class="taxonLabel">Dailyatia</text><text x="118.6" y="35.4" fill="#fc8d59" class="flag">[0]</text><text x="140.6" y="35.4" fill="#000" class="taxonLabel">Eccentrotheca</text><text x="95.9" y="10" fill="#fc8d59" class="flag">[0]</text><text x="117.9" y="10" fill="#000" class="taxonLabel">Flustra</text><text x="95.9" y="22.7" fill="#fc8d59" class="flag">[0]</text><text x="117.9" y="22.7" fill="#000" class="taxonLabel">Amathia</text><text x="50.4" y="543.5" fill="#fc8d59" class="flag">[0]</text><text x="72.4" y="543.5" fill="#000" class="taxonLabel">Loxosomella</text><path d="M5,460.5V347.2H27.7M27.7,347.2V153.8H50.4M50.4,153.8V13.4H73.1M73.1,13.4V7H95.9M73.1,13.4V19.7H95.9M50.4,153.8V294.3H73.1M73.1,294.3V76.7H95.9M95.9,76.7V32.4H118.6M95.9,76.7V120.9H118.6M118.6,120.9V51.5H141.3M141.3,51.5V45.1H164M141.3,51.5V57.8H164M118.6,120.9V190.4H141.3M141.3,190.4V70.5H164M141.3,190.4V310.2H164M164,310.2V137.1H186.7M186.7,137.1V83.2H209.4M186.7,137.1V190.9H209.4M209.4,190.9V95.9H232.1M209.4,190.9V285.9H232.1M232.1,285.9V192H254.9M254.9,192V119.7H277.6M277.6,119.7V108.6H300.3M277.6,119.7V130.8H300.3M300.3,130.8V121.3H323M300.3,130.8V140.4H323M323,140.4V134H345.7M323,140.4V146.7H345.7M254.9,192V264.2H277.6M277.6,264.2V210.2H300.3M300.3,210.2V169H323M323,169V159.4H345.7M323,169V178.5H345.7M345.7,178.5V184.8H368.4M300.3,210.2V251.4H323M323,251.4V210H345.7M345.7,210V197.5H368.4M345.7,210V222.5H368.4M368.4,222.5V210.2H391.1M368.4,222.5V234.8H391.1M391.1,234.8V222.9H413.9M391.1,234.8V246.8H413.9M413.9,246.8V235.6H436.6M413.9,246.8V257.9H436.6M436.6,257.9V248.3H459.3M277.6,264.2V318.2H300.3M300.3,318.2V311.9H323M300.3,318.2V324.6H323M232.1,285.9V379.9H254.9M254.9,379.9V343.6H277.6M277.6,343.6V337.3H300.3M277.6,343.6V350H300.3M254.9,379.9V416.2H277.6M277.6,416.2V384.1H300.3M300.3,384.1V369H323M323,369V362.7H345.7M323,369V375.4H345.7M300.3,384.1V399.2H323M323,399.2V388.1H345.7M323,399.2V410.3H345.7M345.7,410.3V400.8H368.4M345.7,410.3V419.8H368.4M368.4,419.8V413.5H391.1M368.4,419.8V426.2H391.1M277.6,416.2V448.4H300.3M300.3,448.4V438.9H323M300.3,448.4V457.9H323M323,457.9V451.6H345.7M323,457.9V464.3H345.7M73.1,294.3V511.9H95.9M95.9,511.9V502.4H118.6M95.9,511.9V521.4H118.6M118.6,521.4V515.1H141.3M118.6,521.4V527.8H141.3M27.7,347.2V540.5H50.4M5,460.5V573.8H27.7M27.7,573.8V559.5H50.4M50.4,559.5V553.2H73.1M50.4,559.5V565.9H73.1M27.7,573.8V588.1H50.4M50.4,588.1V578.6H73.1M50.4,588.1V597.6H73.1M73.1,597.6V591.3H95.9M73.1,597.6V604H95.9" stroke="#fc8d59"></path><path d="M345.7,178.5V172.1H368.4M436.6,257.9V267.4H459.3M459.3,267.4V261H482M459.3,267.4V273.7H482M323,251.4V292.8H345.7M345.7,292.8V286.4H368.4M345.7,292.8V299.1H368.4M164,310.2V483.3H186.7M186.7,483.3V477H209.4M186.7,483.3V489.7H209.4" stroke="#91bfdb"></path><text x="7" y="463.5" class="node" fill="#4A6FE3">1</text><text x="29.7" y="350.2" class="node" fill="#4A6FE3">1</text><text x="52.4" y="156.8" class="node" fill="#E3DFE0">0.49</text><text x="75.1" y="16.4" class="node" fill="#4A6FE3">1</text><text x="75.1" y="297.3" class="node" fill="#E3DFE0">0.49</text><text x="97.9" y="79.7" class="node" fill="#DB6581">0.1</text><text x="120.6" y="123.9" class="node" fill="#E3DFE0">0.49</text><text x="143.3" y="54.5" class="node" fill="#E6B4BD">0.35</text><text x="143.3" y="193.4" class="node" fill="#4A6FE3">1</text><text x="166" y="313.2" class="node" fill="#E6B4BD">0.35</text><text x="188.7" y="140.1" class="node" fill="#E6B4BD">0.35</text><text x="211.4" y="193.9" class="node" fill="#E6B4BD">0.35</text><text x="234.1" y="288.9" class="node" fill="#E6B4BD">0.35</text><text x="256.9" y="195" class="node" fill="#E6B4BD">0.35</text><text x="279.6" y="122.7" class="node" fill="#E3DFE0">0.49</text><text x="302.3" y="133.8" class="node" fill="#E3DFE0">0.49</text><text x="325" y="143.4" class="node" fill="#E3DFE0">0.49</text><text x="279.6" y="267.2" class="node" fill="#E6B4BD">0.35</text><text x="302.3" y="213.2" class="node" fill="#7D8FE1">0.86</text><text x="325" y="172" class="node" fill="#E498A7">0.26</text><text x="347.7" y="181.5" class="node" fill="#D5D7E3">0.55</text><text x="325" y="254.4" class="node" fill="#A3ADE2">0.73</text><text x="347.7" y="213" class="node" fill="#E6B7C0">0.36</text><text x="370.4" y="225.5" class="node" fill="#E6B7C0">0.36</text><text x="393.1" y="237.8" class="node" fill="#BCC2E3">0.64</text><text x="415.9" y="249.8" class="node" fill="#BCC2E3">0.64</text><text x="438.6" y="260.9" class="node" fill="#4A6FE3">1</text><text x="461.3" y="270.4" class="node" fill="#8C9BE1">0.81</text><text x="347.7" y="295.8" class="node" fill="#4A6FE3">1</text><text x="302.3" y="321.2" class="node" fill="#4A6FE3">1</text><text x="256.9" y="382.9" class="node" fill="#E6B4BD">0.35</text><text x="279.6" y="346.6" class="node" fill="#7D8FE1">0.86</text><text x="279.6" y="419.2" class="node" fill="#7D8FE1">0.86</text><text x="302.3" y="387.1" class="node" fill="#E3DFE0">0.49</text><text x="325" y="372" class="node" fill="#E3DFE0">0.49</text><text x="325" y="402.2" class="node" fill="#8394E1">0.84</text><text x="347.7" y="413.3" class="node" fill="#E49CAA">0.27</text><text x="370.4" y="422.8" class="node" fill="#4A6FE3">1</text><text x="302.3" y="451.4" class="node" fill="#E3DFE0">0.49</text><text x="325" y="460.9" class="node" fill="#E3DFE0">0.49</text><text x="188.7" y="486.3" class="node" fill="#4A6FE3">1</text><text x="97.9" y="514.9" class="node" fill="#8C9BE1">0.81</text><text x="120.6" y="524.4" class="node" fill="#4A6FE3">1</text><text x="29.7" y="576.8" class="node" fill="#4A6FE3">1</text><text x="52.4" y="562.5" class="node" fill="#4A6FE3">1</text><text x="52.4" y="591.1" class="node" fill="#4A6FE3">1</text><text x="75.1" y="600.6" class="node" fill="#E6B4BD">0.35</text></svg>
