<svg xmlns="http://www.w3.org/2000/svg" version="1.1" width="682" height="612" class="tree" data-char="73"><text x="678" y="15.7" text-anchor="end" class="stepsLabel">Character adds <tspan class="score">1</tspan> to tree score</text><text x="678" y="28.4" text-anchor="end" class="stepsLabel"><tspan class="score">0</tspan> additional regions</text><text x="678" y="41.1" text-anchor="end" class="stepsLabel">CI = 1; Fitch CI = 1; Fitch RI = 1</text><text x="678" y="66.5" text-anchor="end" class="stepsLabel"><tspan dy="16">An optimal tree under:</tspan><tspan x="680" style="font-style:italic" class="thisAn" dy="1.2em">Equal weights</tspan><tspan x="680" style="font-style:italic" class="notThisAn" dy="1.2em">Implied weights, k = 2</tspan><tspan x="680" style="font-style:italic" class="notThisAn" dy="1.2em">IW, k = 3</tspan><tspan x="680" style="font-style:italic" class="notThisAn" dy="1.2em">IW, k = 4.5</tspan><tspan x="680" style="font-style:italic" class="notThisAn" dy="1.2em">IW, k = 7</tspan><tspan x="680" style="font-style:italic" class="notThisAn" dy="1.2em">IW, k = 10.5</tspan><tspan x="680" style="font-style:italic" class="notThisAn" dy="1.2em">IW, k = 16</tspan><tspan x="680" style="font-style:italic" class="notThisAn" dy="1.2em">IW, k = 24</tspan></text><text x="73.1" y="594" fill="#fc8d59" class="flag">[0]</text><text x="95.1" y="594" fill="#000" class="taxonLabel">Serpula</text><text x="73.1" y="607" fill="#fc8d59" class="flag">[0]</text><text x="95.1" y="607" fill="#000" class="taxonLabel">Sipunculus</text><text x="95.9" y="568.1" fill="#fc8d59" class="flag">[0]</text><text x="117.9" y="568.1" fill="#000" class="taxonLabel">Tonicella</text><text x="95.9" y="581" fill="#fc8d59" class="flag">[0]</text><text x="117.9" y="581" fill="#000" class="taxonLabel">Dentalium</text><text x="73.1" y="555.1" fill="#fc8d59" class="flag">[0]</text><text x="95.1" y="555.1" fill="#000" class="taxonLabel">Wiwaxia corrugata</text><text x="436.6" y="516.2" fill="grey" class="flag">[?]</text><text x="458.6" y="516.2" fill="grey" class="taxonLabel">Acanthotretella spinosa</text><text x="436.6" y="529.1" fill="grey" class="flag">[?]</text><text x="458.6" y="529.1" fill="grey" class="taxonLabel">Siphonobolus priscus</text><text x="436.6" y="490.2" fill="grey" class="flag">[?]</text><text x="458.6" y="490.2" fill="grey" class="taxonLabel">Lingulosacculus</text><text x="436.6" y="503.2" fill="#fc8d59" class="flag">[0]</text><text x="458.6" y="503.2" fill="#000" class="taxonLabel">Clupeafumosus socialis</text><text x="391.1" y="477.2" fill="grey" class="flag">[?]</text><text x="413.1" y="477.2" fill="grey" class="taxonLabel">Lingulellotreta malongensis</text><text x="368.4" y="464.2" fill="#fc8d59" class="flag">[0]</text><text x="390.4" y="464.2" fill="#000" class="taxonLabel">Botsfordia</text><text x="345.7" y="451.3" fill="grey" class="flag">[?]</text><text x="367.7" y="451.3" fill="grey" class="taxonLabel">Mummpikia nuda</text><text x="323" y="438.3" fill="#fc8d59" class="flag">[0]</text><text x="345" y="438.3" fill="#000" class="taxonLabel">Eoobolus</text><text x="300.3" y="425.3" fill="#fc8d59" class="flag">[0]</text><text x="322.3" y="425.3" fill="#000" class="taxonLabel">Lingula</text><text x="323" y="399.3" fill="#fc8d59" class="flag">[0]</text><text x="345" y="399.3" fill="#000" class="taxonLabel">Mickwitzia muralensis</text><text x="323" y="412.3" fill="#fc8d59" class="flag">[0]</text><text x="345" y="412.3" fill="#000" class="taxonLabel">Pelagodiscus atlanticus</text><text x="300.3" y="386.4" fill="grey" class="flag">[?]</text><text x="322.3" y="386.4" fill="grey" class="taxonLabel">Micrina</text><text x="482" y="360.4" fill="grey" class="flag">[?]</text><text x="504" y="360.4" fill="grey" class="taxonLabel">Alisina</text><text x="482" y="373.4" fill="#91bfdb" class="flag">[1]</text><text x="504" y="373.4" fill="#000" class="taxonLabel">Terebratulina</text><text x="459.3" y="347.4" fill="#91bfdb" class="flag">[1]</text><text x="481.3" y="347.4" fill="#000" class="taxonLabel">Orthis</text><text x="436.6" y="334.5" fill="#91bfdb" class="flag">[1]</text><text x="458.6" y="334.5" fill="#000" class="taxonLabel">Glyptoria</text><text x="413.9" y="321.5" fill="#fc8d59" class="flag">[0]</text><text x="435.9" y="321.5" fill="#000" class="taxonLabel">Nisusia sulcata</text><text x="391.1" y="308.5" fill="#fc8d59" class="flag">[0]</text><text x="413.1" y="308.5" fill="#000" class="taxonLabel">Kutorgina chengjiangensis</text><text x="391.1" y="282.5" fill="#fc8d59" class="flag">[0]</text><text x="413.1" y="282.5" fill="#000" class="taxonLabel">Coolinia pecten</text><text x="391.1" y="295.5" fill="#fc8d59" class="flag">[0]</text><text x="413.1" y="295.5" fill="#000" class="taxonLabel">Antigonambonites planus</text><text x="345.7" y="269.6" fill="grey" class="flag">[?]</text><text x="367.7" y="269.6" fill="grey" class="taxonLabel">Longtancunella chengjiangensis</text><text x="345.7" y="243.6" fill="grey" class="flag">[?]</text><text x="367.7" y="243.6" fill="grey" class="taxonLabel">Yuganotheca elegans</text><text x="345.7" y="256.6" fill="grey" class="flag">[?]</text><text x="367.7" y="256.6" fill="grey" class="taxonLabel">Tomteluva perturbata</text><text x="300.3" y="230.6" fill="grey" class="flag">[?]</text><text x="322.3" y="230.6" fill="grey" class="taxonLabel">Salanygolina</text><text x="323" y="204.7" fill="#fc8d59" class="flag">[0]</text><text x="345" y="204.7" fill="#000" class="taxonLabel">Gasconsia</text><text x="323" y="217.7" fill="#fc8d59" class="flag">[0]</text><text x="345" y="217.7" fill="#000" class="taxonLabel">Micromitra</text><text x="300.3" y="191.7" fill="grey" class="flag">[?]</text><text x="322.3" y="191.7" fill="grey" class="taxonLabel">Askepasma toddense</text><text x="277.6" y="165.7" fill="#fc8d59" class="flag">[0]</text><text x="299.6" y="165.7" fill="#000" class="taxonLabel">Haplophrentis carinatus</text><text x="277.6" y="178.7" fill="grey" class="flag">[?]</text><text x="299.6" y="178.7" fill="grey" class="taxonLabel">Pedunculotheca diania</text><text x="254.9" y="152.8" fill="grey" class="flag">[?]</text><text x="276.9" y="152.8" fill="grey" class="taxonLabel">Paterimitra</text><text x="209.4" y="139.8" fill="grey" class="flag">[?]</text><text x="231.4" y="139.8" fill="grey" class="taxonLabel">Heliomedusa orienta</text><text x="209.4" y="113.8" fill="#fc8d59" class="flag">[0]</text><text x="231.4" y="113.8" fill="#000" class="taxonLabel">Novocrania</text><text x="209.4" y="126.8" fill="#fc8d59" class="flag">[0]</text><text x="231.4" y="126.8" fill="#000" class="taxonLabel">Craniops</text><text x="164" y="100.8" fill="grey" class="flag">[?]</text><text x="186" y="100.8" fill="grey" class="taxonLabel">Ussunia</text><text x="164" y="74.9" fill="#fc8d59" class="flag">[0]</text><text x="186" y="74.9" fill="#000" class="taxonLabel">Dailyatia</text><text x="164" y="87.9" fill="#fc8d59" class="flag">[0]</text><text x="186" y="87.9" fill="#000" class="taxonLabel">Halkieria evangelista</text><text x="141.3" y="48.9" fill="#fc8d59" class="flag">[0]</text><text x="163.3" y="48.9" fill="#000" class="taxonLabel">Cotyledion tylodes</text><text x="141.3" y="61.9" fill="#fc8d59" class="flag">[0]</text><text x="163.3" y="61.9" fill="#000" class="taxonLabel">Eccentrotheca</text><text x="118.6" y="23" fill="#fc8d59" class="flag">[0]</text><text x="140.6" y="23" fill="#000" class="taxonLabel">Namacalathus</text><text x="118.6" y="36" fill="#fc8d59" class="flag">[0]</text><text x="140.6" y="36" fill="#000" class="taxonLabel">Phoronis</text><text x="73.1" y="10" fill="#fc8d59" class="flag">[0]</text><text x="95.1" y="10" fill="#000" class="taxonLabel">Flustra</text><text x="50.4" y="542.1" fill="#fc8d59" class="flag">[0]</text><text x="72.4" y="542.1" fill="#000" class="taxonLabel">Loxosomella</text><path d="M5,432V284.3H27.7M27.7,284.3V29.4H50.4M50.4,29.4V7H73.1M50.4,29.4V51.8H73.1M73.1,51.8V26.5H95.9M95.9,26.5V20H118.6M95.9,26.5V33H118.6M73.1,51.8V77.1H95.9M95.9,77.1V52.4H118.6M118.6,52.4V45.9H141.3M118.6,52.4V58.9H141.3M95.9,77.1V101.8H118.6M118.6,101.8V78.4H141.3M141.3,78.4V71.9H164M141.3,78.4V84.9H164M118.6,101.8V125.2H141.3M141.3,125.2V97.8H164M141.3,125.2V152.6H164M164,152.6V117.3H186.7M186.7,117.3V110.8H209.4M186.7,117.3V123.8H209.4M164,152.6V187.9H186.7M186.7,187.9V136.8H209.4M186.7,187.9V239H209.4M209.4,239V159.5H232.1M232.1,159.5V149.8H254.9M232.1,159.5V169.2H254.9M254.9,169.2V162.7H277.6M254.9,169.2V175.7H277.6M209.4,239V318.4H232.1M232.1,318.4V222.5H254.9M254.9,222.5V198.4H277.6M277.6,198.4V188.7H300.3M277.6,198.4V208.2H300.3M300.3,208.2V201.7H323M300.3,208.2V214.7H323M254.9,222.5V246.7H277.6M277.6,246.7V227.6H300.3M277.6,246.7V265.7H300.3M300.3,265.7V247.1H323M323,247.1V240.6H345.7M323,247.1V253.6H345.7M300.3,265.7V284.3H323M323,284.3V266.6H345.7M323,284.3V302.1H345.7M345.7,302.1V286H368.4M368.4,286V279.5H391.1M368.4,286V292.5H391.1M345.7,302.1V318.1H368.4M368.4,318.1V305.5H391.1M368.4,318.1V330.6H391.1M391.1,330.6V318.5H413.9M232.1,318.4V414.3H254.9M254.9,414.3V393.1H277.6M277.6,393.1V383.4H300.3M277.6,393.1V402.8H300.3M300.3,402.8V396.3H323M300.3,402.8V409.3H323M254.9,414.3V435.5H277.6M277.6,435.5V422.3H300.3M277.6,435.5V448.7H300.3M300.3,448.7V435.3H323M300.3,448.7V462.1H323M323,462.1V448.3H345.7M323,462.1V475.8H345.7M345.7,475.8V461.2H368.4M345.7,475.8V490.4H368.4M368.4,490.4V474.2H391.1M368.4,490.4V506.7H391.1M391.1,506.7V493.7H413.9M413.9,493.7V487.2H436.6M413.9,493.7V500.2H436.6M391.1,506.7V519.6H413.9M413.9,519.6V513.2H436.6M413.9,519.6V526.1H436.6M27.7,284.3V539.1H50.4M5,432V579.7H27.7M27.7,579.7V561.8H50.4M50.4,561.8V552.1H73.1M50.4,561.8V571.6H73.1M73.1,571.6V565.1H95.9M73.1,571.6V578H95.9M27.7,579.7V597.5H50.4M50.4,597.5V591H73.1M50.4,597.5V604H73.1" stroke="#fc8d59"></path><path d="M391.1,330.6V342.8H413.9M413.9,342.8V331.5H436.6M413.9,342.8V354.2H436.6M436.6,354.2V344.4H459.3M436.6,354.2V363.9H459.3M459.3,363.9V357.4H482M459.3,363.9V370.4H482" stroke="#91bfdb"></path><text x="7" y="435" class="node" fill="#4A6FE3">1</text><text x="29.7" y="287.3" class="node" fill="#4A6FE3">1</text><text x="52.4" y="32.4" class="node" fill="#6D84E1">0.91</text><text x="75.1" y="54.8" class="node" fill="#5B78E2">0.96</text><text x="97.9" y="29.5" class="node" fill="#7086E1">0.9</text><text x="97.9" y="80.1" class="node" fill="#6D84E1">0.91</text><text x="120.6" y="55.4" class="node" fill="#E18297">0.19</text><text x="120.6" y="104.8" class="node" fill="#8C9BE1">0.81</text><text x="143.3" y="81.4" class="node" fill="#A8B1E2">0.71</text><text x="143.3" y="128.2" class="node" fill="#4A6FE3">1</text><text x="166" y="155.6" class="node" fill="#E392A2">0.24</text><text x="188.7" y="120.3" class="node" fill="#4A6FE3">1</text><text x="188.7" y="190.9" class="node" fill="#97A4E2">0.77</text><text x="211.4" y="242" class="node" fill="#97A4E2">0.77</text><text x="234.1" y="162.5" class="node" fill="#E6B1BB">0.34</text><text x="256.9" y="172.2" class="node" fill="#4A6FE3">1</text><text x="234.1" y="321.4" class="node" fill="#97A4E2">0.77</text><text x="256.9" y="225.5" class="node" fill="#97A4E2">0.77</text><text x="279.6" y="201.4" class="node" fill="#E49CAA">0.27</text><text x="302.3" y="211.2" class="node" fill="#DADBE3">0.53</text><text x="279.6" y="249.7" class="node" fill="#4A6FE3">1</text><text x="302.3" y="268.7" class="node" fill="#E18297">0.19</text><text x="325" y="250.1" class="node" fill="#5B78E2">0.96</text><text x="325" y="287.3" class="node" fill="#7086E1">0.9</text><text x="347.7" y="305.1" class="node" fill="#BFC4E3">0.63</text><text x="370.4" y="289" class="node" fill="#4A6FE3">1</text><text x="370.4" y="321.1" class="node" fill="#BFC4E3">0.63</text><text x="393.1" y="333.6" class="node" fill="#BFC4E3">0.63</text><text x="415.9" y="345.8" class="node" fill="#BFC4E3">0.63</text><text x="438.6" y="357.2" class="node" fill="#4A6FE3">1</text><text x="461.3" y="366.9" class="node" fill="#E5A8B3">0.31</text><text x="256.9" y="417.3" class="node" fill="#95A1E2">0.78</text><text x="279.6" y="396.1" class="node" fill="#95A1E2">0.78</text><text x="302.3" y="405.8" class="node" fill="#4A6FE3">1</text><text x="279.6" y="438.5" class="node" fill="#4A6FE3">1</text><text x="302.3" y="451.7" class="node" fill="#6D84E1">0.91</text><text x="325" y="465.1" class="node" fill="#95A1E2">0.78</text><text x="347.7" y="478.8" class="node" fill="#95A1E2">0.78</text><text x="370.4" y="493.4" class="node" fill="#95A1E2">0.78</text><text x="393.1" y="509.7" class="node" fill="#9DA8E2">0.75</text><text x="415.9" y="496.7" class="node" fill="#E495A5">0.25</text><text x="415.9" y="522.6" class="node" fill="#4A6FE3">1</text><text x="29.7" y="582.7" class="node" fill="#4A6FE3">1</text><text x="52.4" y="564.8" class="node" fill="#4A6FE3">1</text><text x="75.1" y="574.6" class="node" fill="#4A6FE3">1</text><text x="52.4" y="600.5" class="node" fill="#4A6FE3">1</text></svg>
