<svg xmlns="http://www.w3.org/2000/svg" version="1.1" width="682" height="555" class="tree" char="114">
 <text x="678" y="14.7" text-anchor="end" class="stepsLabel">Character adds <tspan class="score">2</tspan> to tree score</text>
 <text x="678" y="26.4" text-anchor="end" class="stepsLabel"><tspan class="score"></tspan> additional region</text>
 <text x="678" y="38.1" text-anchor="end" class="stepsLabel">CI = 0.5; Fitch CI = 0.5; Fitch RI = 0.5</text>
 <text x="678" y="61.5" text-anchor="end" class="stepsLabel"><tspan dy="16">An optimal tree under:</tspan><tspan x="680" style="font-style:italic" class="thisAn" dy="1.2em">Equal weights</tspan><tspan x="680" style="font-style:italic" class="notThisAn" dy="1.2em">Implied weights, k = 2</tspan><tspan x="680" style="font-style:italic" class="notThisAn" dy="1.2em">IW, k = 3</tspan><tspan x="680" style="font-style:italic" class="notThisAn" dy="1.2em">IW, k = 4.5</tspan></text>
 <text x="34.8" y="10" fill="grey" class="flag">[?]</text>
 <text x="56.8" y="10" class="taxonLabel">Dailyatia</text>
 <text x="64.6" y="22" fill="grey" class="flag">[?]</text>
 <text x="86.6" y="22" class="taxonLabel">Halkieria evangelista</text>
 <text x="124.2" y="34" fill="grey" class="flag">[?]</text>
 <text x="146.2" y="34" class="taxonLabel">Eccentrotheca</text>
 <text x="154.1" y="46" fill="grey" class="flag">[?]</text>
 <text x="176.1" y="46" class="taxonLabel">Cotyledion tylodes</text>
 <text x="183.9" y="58" fill="#fc8d59" class="flag">[0]</text>
 <text x="205.9" y="58" class="taxonLabel">Phoronis</text>
 <text x="213.7" y="70" fill="#fc8d59" class="flag">[0]</text>
 <text x="235.7" y="70" class="taxonLabel">Flustra</text>
 <text x="243.5" y="82" fill="#fc8d59" class="flag">[0]</text>
 <text x="265.5" y="82" class="taxonLabel">Loxosomella</text>
 <text x="303.1" y="118" fill="#91bfdb" class="flag">[1]</text>
 <text x="325.1" y="118" class="taxonLabel">Dentalium</text>
 <text x="332.9" y="142" fill="grey" class="flag">[?]</text>
 <text x="354.9" y="142" class="taxonLabel">Wiwaxia corrugata</text>
 <text x="332.9" y="130" fill="#91bfdb" class="flag">[1]</text>
 <text x="354.9" y="130" class="taxonLabel">Chiton</text>
 <text x="303.1" y="94" fill="#fc8d59" class="flag">[0]</text>
 <text x="325.1" y="94" class="taxonLabel">Serpula</text>
 <text x="303.1" y="106" fill="#91bfdb" class="flag">[1]</text>
 <text x="325.1" y="106" class="taxonLabel">Sipunculus</text>
 <text x="124.2" y="154" fill="grey" class="flag">[?]</text>
 <text x="146.2" y="154" class="taxonLabel">Heliomedusa orienta</text>
 <text x="183.9" y="166" fill="grey" class="flag">[?]</text>
 <text x="205.9" y="166" class="taxonLabel">Paterimitra</text>
 <text x="213.7" y="190" fill="grey" class="flag">[?]</text>
 <text x="235.7" y="190" class="taxonLabel">Haplophrentis carinatus</text>
 <text x="213.7" y="178" fill="grey" class="flag">[?]</text>
 <text x="235.7" y="178" class="taxonLabel">Pedunculotheca diania</text>
 <text x="273.3" y="394" fill="grey" class="flag">[?]</text>
 <text x="295.3" y="394" class="taxonLabel">Askepasma toddense</text>
 <text x="273.3" y="406" fill="grey" class="flag">[?]</text>
 <text x="295.3" y="406" class="taxonLabel">Micromitra</text>
 <text x="303.1" y="250" fill="grey" class="flag">[?]</text>
 <text x="325.1" y="250" class="taxonLabel">Salanygolina</text>
 <text x="332.9" y="274" fill="grey" class="flag">[?]</text>
 <text x="354.9" y="274" class="taxonLabel">Tomteluva perturbata</text>
 <text x="332.9" y="262" fill="grey" class="flag">[?]</text>
 <text x="354.9" y="262" class="taxonLabel">Yuganotheca elegans</text>
 <text x="303.1" y="286" fill="grey" class="flag">[?]</text>
 <text x="325.1" y="286" class="taxonLabel">Longtancunella chengjiangensis</text>
 <text x="362.8" y="298" fill="grey" class="flag">[?]</text>
 <text x="384.8" y="298" class="taxonLabel">Kutorgina chengjiangensis</text>
 <text x="392.6" y="310" fill="grey" class="flag">[?]</text>
 <text x="414.6" y="310" class="taxonLabel">Nisusia sulcata</text>
 <text x="422.4" y="322" fill="grey" class="flag">[?]</text>
 <text x="444.4" y="322" class="taxonLabel">Glyptoria</text>
 <text x="452.2" y="334" fill="grey" class="flag">[?]</text>
 <text x="474.2" y="334" class="taxonLabel">Orthis</text>
 <text x="482" y="346" fill="#fc8d59" class="flag">[0]</text>
 <text x="504" y="346" class="taxonLabel">Terebratulina</text>
 <text x="482" y="358" fill="grey" class="flag">[?]</text>
 <text x="504" y="358" class="taxonLabel">Alisina</text>
 <text x="362.8" y="382" fill="grey" class="flag">[?]</text>
 <text x="384.8" y="382" class="taxonLabel">Antigonambonites planus</text>
 <text x="362.8" y="370" fill="grey" class="flag">[?]</text>
 <text x="384.8" y="370" class="taxonLabel">Coolinia pecten</text>
 <text x="243.5" y="202" fill="grey" class="flag">[?]</text>
 <text x="265.5" y="202" class="taxonLabel">Gasconsia</text>
 <text x="273.3" y="214" fill="grey" class="flag">[?]</text>
 <text x="295.3" y="214" class="taxonLabel">Ussunia</text>
 <text x="303.1" y="238" fill="grey" class="flag">[?]</text>
 <text x="325.1" y="238" class="taxonLabel">Craniops</text>
 <text x="303.1" y="226" fill="#fc8d59" class="flag">[0]</text>
 <text x="325.1" y="226" class="taxonLabel">Novocrania</text>
 <text x="243.5" y="418" fill="grey" class="flag">[?]</text>
 <text x="265.5" y="418" class="taxonLabel">Micrina</text>
 <text x="273.3" y="430" fill="#fc8d59" class="flag">[0]</text>
 <text x="295.3" y="430" class="taxonLabel">Pelagodiscus atlanticus</text>
 <text x="273.3" y="442" fill="grey" class="flag">[?]</text>
 <text x="295.3" y="442" class="taxonLabel">Mickwitzia muralensis</text>
 <text x="243.5" y="454" fill="#fc8d59" class="flag">[0]</text>
 <text x="265.5" y="454" class="taxonLabel">Lingula</text>
 <text x="273.3" y="466" fill="grey" class="flag">[?]</text>
 <text x="295.3" y="466" class="taxonLabel">Eoobolus</text>
 <text x="303.1" y="478" fill="grey" class="flag">[?]</text>
 <text x="325.1" y="478" class="taxonLabel">Mummpikia nuda</text>
 <text x="332.9" y="490" fill="grey" class="flag">[?]</text>
 <text x="354.9" y="490" class="taxonLabel">Botsfordia</text>
 <text x="392.6" y="514" fill="grey" class="flag">[?]</text>
 <text x="414.6" y="514" class="taxonLabel">Lingulosacculus</text>
 <text x="362.8" y="502" fill="grey" class="flag">[?]</text>
 <text x="384.8" y="502" class="taxonLabel">Lingulellotreta malongensis</text>
 <text x="422.4" y="526" fill="grey" class="flag">[?]</text>
 <text x="444.4" y="526" class="taxonLabel">Clupeafumosus socialis</text>
 <text x="452.2" y="550" fill="grey" class="flag">[?]</text>
 <text x="474.2" y="550" class="taxonLabel">Siphonobolus priscus</text>
 <text x="452.2" y="538" fill="grey" class="flag">[?]</text>
 <text x="474.2" y="538" class="taxonLabel">Acanthotretella spinosa</text>
 <path d="M5,39.7V7H34.8M5,39.7V72.4H34.8M34.8,72.4V19H64.6M34.8,72.4V125.8H64.6M64.6,125.8V43.2H94.4M94.4,43.2V31H124.2M94.4,43.2V55.5H124.2M124.2,55.5V43H154.1M124.2,55.5V67.9H154.1M154.1,67.9V55H183.9M154.1,67.9V80.9H183.9M183.9,80.9V67H213.7M183.9,80.9V94.8H213.7M213.7,94.8V79H243.5M213.7,94.8V110.5H243.5M273.3,97V91H303.1M64.6,125.8V208.3H94.4M94.4,208.3V151H124.2M94.4,208.3V265.6H124.2M124.2,265.6V172H154.1M154.1,172V163H183.9M154.1,172V181H183.9M183.9,181V175H213.7M183.9,181V187H213.7M124.2,265.6V359.2H154.1M154.1,359.2V274.9H183.9M183.9,274.9V209.5H213.7M213.7,209.5V199H243.5M213.7,209.5V220H243.5M243.5,220V211H273.3M243.5,220V229H273.3M273.3,229V223H303.1M273.3,229V235H303.1M183.9,274.9V340.4H213.7M213.7,340.4V283.7H243.5M243.5,283.7V256H273.3M273.3,256V247H303.1M273.3,256V265H303.1M303.1,265V259H332.9M303.1,265V271H332.9M243.5,283.7V311.4H273.3M273.3,311.4V283H303.1M273.3,311.4V339.8H303.1M303.1,339.8V306.6H332.9M332.9,306.6V295H362.8M332.9,306.6V318.2H362.8M362.8,318.2V307H392.6M362.8,318.2V329.5H392.6M392.6,329.5V319H422.4M392.6,329.5V340H422.4M422.4,340V331H452.2M422.4,340V349H452.2M452.2,349V343H482M452.2,349V355H482M303.1,339.8V373H332.9M332.9,373V367H362.8M332.9,373V379H362.8M213.7,340.4V397H243.5M243.5,397V391H273.3M243.5,397V403H273.3M154.1,359.2V443.5H183.9M183.9,443.5V424H213.7M213.7,424V415H243.5M213.7,424V433H243.5M243.5,433V427H273.3M243.5,433V439H273.3M183.9,443.5V463H213.7M213.7,463V451H243.5M213.7,463V474.9H243.5M243.5,474.9V463H273.3M243.5,474.9V486.8H273.3M273.3,486.8V475H303.1M273.3,486.8V498.6H303.1M303.1,498.6V487H332.9M303.1,498.6V510.2H332.9M332.9,510.2V499H362.8M332.9,510.2V521.5H362.8M362.8,521.5V511H392.6M362.8,521.5V532H392.6M392.6,532V523H422.4M392.6,532V541H422.4M422.4,541V535H452.2M422.4,541V547H452.2" stroke="#fc8d59"></path>
 <path d="M243.5,110.5V97H273.3" stroke="darkgrey"></path>
 <path d="M273.3,97V103H303.1M243.5,110.5V124H273.3M273.3,124V115H303.1M273.3,124V133H303.1M303.1,133V127H332.9M303.1,133V139H332.9" stroke="#91bfdb"></path>
 <text x="7" y="42.7" class="node" fill="#4A6FE3">1</text>
 <text x="36.8" y="75.4" class="node" fill="#ABB4E2">0.7</text>
 <text x="66.6" y="128.8" class="node" fill="#CACDE3">0.59</text>
 <text x="96.4" y="46.2" class="node" fill="#CACDE3">0.59</text>
 <text x="126.2" y="58.5" class="node" fill="#E28699">0.2</text>
 <text x="156.1" y="70.9" class="node" fill="#ABB4E2">0.7</text>
 <text x="185.9" y="83.9" class="node" fill="#ABB4E2">0.7</text>
 <text x="215.7" y="97.8" class="node" fill="#ABB4E2">0.7</text>
 <text x="245.5" y="113.5" class="node" fill="#ABB4E2">0.7</text>
 <text x="275.3" y="100" class="node" fill="#4A6FE3">1</text>
 <text x="275.3" y="127" class="node" fill="#ABB4E2">0.7</text>
 <text x="305.1" y="136" class="node" fill="#ABB4E2">0.7</text>
 <text x="96.4" y="211.3" class="node" fill="#4A6FE3">1</text>
 <text x="126.2" y="268.6" class="node" fill="#5B78E2">0.96</text>
 <text x="156.1" y="175" class="node" fill="#ABB4E2">0.7</text>
 <text x="185.9" y="184" class="node" fill="#4A6FE3">1</text>
 <text x="156.1" y="362.2" class="node" fill="#5B78E2">0.96</text>
 <text x="185.9" y="277.9" class="node" fill="#4A6FE3">1</text>
 <text x="215.7" y="212.5" class="node" fill="#4A6FE3">1</text>
 <text x="245.5" y="223" class="node" fill="#4A6FE3">1</text>
 <text x="275.3" y="232" class="node" fill="#4A6FE3">1</text>
 <text x="215.7" y="343.4" class="node" fill="#929FE1">0.79</text>
 <text x="245.5" y="286.7" class="node" fill="#5B78E2">0.96</text>
 <text x="275.3" y="259" class="node" fill="#C4C9E3">0.61</text>
 <text x="305.1" y="268" class="node" fill="#627DE1">0.94</text>
 <text x="275.3" y="314.4" class="node" fill="#4A6FE3">1</text>
 <text x="305.1" y="342.8" class="node" fill="#E3DFE0">0.49</text>
 <text x="334.9" y="309.6" class="node" fill="#E3DFE0">0.49</text>
 <text x="364.8" y="321.2" class="node" fill="#E3DFE0">0.49</text>
 <text x="394.6" y="332.5" class="node" fill="#E3DFE0">0.49</text>
 <text x="424.4" y="343" class="node" fill="#4A6FE3">1</text>
 <text x="454.2" y="352" class="node" fill="#E28699">0.2</text>
 <text x="334.9" y="376" class="node" fill="#4A6FE3">1</text>
 <text x="245.5" y="400" class="node" fill="#4A6FE3">1</text>
 <text x="185.9" y="446.5" class="node" fill="#ABB4E2">0.7</text>
 <text x="215.7" y="427" class="node" fill="#ABB4E2">0.7</text>
 <text x="245.5" y="436" class="node" fill="#ABB4E2">0.7</text>
 <text x="215.7" y="466" class="node" fill="#ABB4E2">0.7</text>
 <text x="245.5" y="477.9" class="node" fill="#ABB4E2">0.7</text>
 <text x="275.3" y="489.8" class="node" fill="#ABB4E2">0.7</text>
 <text x="305.1" y="501.6" class="node" fill="#ABB4E2">0.7</text>
 <text x="334.9" y="513.2" class="node" fill="#ABB4E2">0.7</text>
 <text x="364.8" y="524.5" class="node" fill="#E6AEB8">0.33</text>
 <text x="394.6" y="535" class="node" fill="#E0E0E2">0.51</text>
 <text x="424.4" y="544" class="node" fill="#4A6FE3">1</text></svg>
