<svg xmlns="http://www.w3.org/2000/svg" version="1.1" width="682" height="612" class="tree" data-char="94"><text x="678" y="15.7" text-anchor="end" class="stepsLabel">Character adds <tspan class="score">4</tspan> to tree score</text><text x="678" y="28.4" text-anchor="end" class="stepsLabel"><tspan class="score">0</tspan> additional regions</text><text x="678" y="41.1" text-anchor="end" class="stepsLabel">CI = 0.25; Fitch CI = 0.25; Fitch RI = 0.79</text><text x="678" y="66.5" text-anchor="end" class="stepsLabel"><tspan dy="16">An optimal tree under:</tspan><tspan x="680" style="font-style:italic" class="thisAn" dy="1.2em">Equal weights</tspan><tspan x="680" style="font-style:italic" class="notThisAn" dy="1.2em">Implied weights, k = 2</tspan><tspan x="680" style="font-style:italic" class="notThisAn" dy="1.2em">IW, k = 3</tspan><tspan x="680" style="font-style:italic" class="notThisAn" dy="1.2em">IW, k = 4.5</tspan><tspan x="680" style="font-style:italic" class="notThisAn" dy="1.2em">IW, k = 7</tspan><tspan x="680" style="font-style:italic" class="notThisAn" dy="1.2em">IW, k = 10.5</tspan><tspan x="680" style="font-style:italic" class="notThisAn" dy="1.2em">IW, k = 16</tspan><tspan x="680" style="font-style:italic" class="notThisAn" dy="1.2em">IW, k = 24</tspan></text><text x="76.6" y="594" fill="#fc8d59" class="flag">[0]</text><text x="98.6" y="594" fill="#000" class="taxonLabel">Serpula</text><text x="76.6" y="607" fill="#fc8d59" class="flag">[0]</text><text x="98.6" y="607" fill="#000" class="taxonLabel">Sipunculus</text><text x="100.4" y="568.1" fill="#fc8d59" class="flag">[0]</text><text x="122.4" y="568.1" fill="#000" class="taxonLabel">Dentalium</text><text x="100.4" y="581" fill="#91bfdb" class="flag">[1]</text><text x="122.4" y="581" fill="#000" class="taxonLabel">Tonicella</text><text x="76.6" y="555.1" fill="#fc8d59" class="flag">[0]</text><text x="98.6" y="555.1" fill="#000" class="taxonLabel">Wiwaxia corrugata</text><text x="458.2" y="516.2" fill="#91bfdb" class="flag">[1]</text><text x="480.2" y="516.2" fill="#000" class="taxonLabel">Acanthotretella spinosa</text><text x="458.2" y="529.1" fill="#91bfdb" class="flag">[1]</text><text x="480.2" y="529.1" fill="#000" class="taxonLabel">Siphonobolus priscus</text><text x="434.3" y="503.2" fill="#91bfdb" class="flag">[1]</text><text x="456.3" y="503.2" fill="#000" class="taxonLabel">Lingulosacculus</text><text x="410.5" y="490.2" fill="#91bfdb" class="flag">[1]</text><text x="432.5" y="490.2" fill="#000" class="taxonLabel">Clupeafumosus socialis</text><text x="386.6" y="477.2" fill="#91bfdb" class="flag">[1]</text><text x="408.6" y="477.2" fill="#000" class="taxonLabel">Lingulellotreta malongensis</text><text x="362.8" y="464.2" fill="#91bfdb" class="flag">[1]</text><text x="384.8" y="464.2" fill="#000" class="taxonLabel">Botsfordia</text><text x="338.9" y="451.3" fill="#91bfdb" class="flag">[1]</text><text x="360.9" y="451.3" fill="#000" class="taxonLabel">Mummpikia nuda</text><text x="315.1" y="438.3" fill="#91bfdb" class="flag">[1]</text><text x="337.1" y="438.3" fill="#000" class="taxonLabel">Eoobolus</text><text x="291.2" y="425.3" fill="#91bfdb" class="flag">[1]</text><text x="313.2" y="425.3" fill="#000" class="taxonLabel">Lingula</text><text x="315.1" y="399.3" fill="#91bfdb" class="flag">[1]</text><text x="337.1" y="399.3" fill="#000" class="taxonLabel">Mickwitzia muralensis</text><text x="315.1" y="412.3" fill="#fc8d59" class="flag">[0]</text><text x="337.1" y="412.3" fill="#000" class="taxonLabel">Pelagodiscus atlanticus</text><text x="291.2" y="386.4" fill="#91bfdb" class="flag">[1]</text><text x="313.2" y="386.4" fill="#000" class="taxonLabel">Micrina</text><text x="291.2" y="360.4" fill="#91bfdb" class="flag">[1]</text><text x="313.2" y="360.4" fill="#000" class="taxonLabel">Gasconsia</text><text x="291.2" y="373.4" fill="#91bfdb" class="flag">[1]</text><text x="313.2" y="373.4" fill="#000" class="taxonLabel">Micromitra</text><text x="482" y="334.5" fill="#91bfdb" class="flag">[1]</text><text x="504" y="334.5" fill="#000" class="taxonLabel">Alisina</text><text x="482" y="347.4" fill="#91bfdb" class="flag">[1]</text><text x="504" y="347.4" fill="#000" class="taxonLabel">Terebratulina</text><text x="458.2" y="321.5" fill="#91bfdb" class="flag">[1]</text><text x="480.2" y="321.5" fill="#000" class="taxonLabel">Orthis</text><text x="434.3" y="308.5" fill="#91bfdb" class="flag">[1]</text><text x="456.3" y="308.5" fill="#000" class="taxonLabel">Glyptoria</text><text x="410.5" y="295.5" fill="#91bfdb" class="flag">[1]</text><text x="432.5" y="295.5" fill="#000" class="taxonLabel">Nisusia sulcata</text><text x="386.6" y="282.5" fill="#91bfdb" class="flag">[1]</text><text x="408.6" y="282.5" fill="#000" class="taxonLabel">Kutorgina chengjiangensis</text><text x="386.6" y="256.6" fill="#91bfdb" class="flag">[1]</text><text x="408.6" y="256.6" fill="#000" class="taxonLabel">Coolinia pecten</text><text x="386.6" y="269.6" fill="#91bfdb" class="flag">[1]</text><text x="408.6" y="269.6" fill="#000" class="taxonLabel">Antigonambonites planus</text><text x="338.9" y="243.6" fill="#91bfdb" class="flag">[1]</text><text x="360.9" y="243.6" fill="#000" class="taxonLabel">Longtancunella chengjiangensis</text><text x="362.8" y="217.7" fill="grey" class="flag">[?]</text><text x="384.8" y="217.7" fill="grey" class="taxonLabel">Yuganotheca elegans</text><text x="362.8" y="230.6" fill="#91bfdb" class="flag">[1]</text><text x="384.8" y="230.6" fill="#000" class="taxonLabel">Tomteluva perturbata</text><text x="338.9" y="204.7" fill="#91bfdb" class="flag">[1]</text><text x="360.9" y="204.7" fill="#000" class="taxonLabel">Salanygolina</text><text x="291.2" y="191.7" fill="#91bfdb" class="flag">[1]</text><text x="313.2" y="191.7" fill="#000" class="taxonLabel">Askepasma toddense</text><text x="267.4" y="165.7" fill="#91bfdb" class="flag">[1]</text><text x="289.4" y="165.7" fill="#000" class="taxonLabel">Haplophrentis carinatus</text><text x="267.4" y="178.7" fill="#91bfdb" class="flag">[1]</text><text x="289.4" y="178.7" fill="#000" class="taxonLabel">Pedunculotheca diania</text><text x="243.5" y="152.8" fill="#91bfdb" class="flag">[1]</text><text x="265.5" y="152.8" fill="#000" class="taxonLabel">Paterimitra</text><text x="195.8" y="139.8" fill="#91bfdb" class="flag">[1]</text><text x="217.8" y="139.8" fill="#000" class="taxonLabel">Heliomedusa orienta</text><text x="219.7" y="113.8" fill="#fc8d59" class="flag">[0]</text><text x="241.7" y="113.8" fill="#000" class="taxonLabel">Novocrania</text><text x="219.7" y="126.8" fill="#fc8d59" class="flag">[0]</text><text x="241.7" y="126.8" fill="#000" class="taxonLabel">Craniops</text><text x="195.8" y="100.8" fill="#fc8d59" class="flag">[0]</text><text x="217.8" y="100.8" fill="#000" class="taxonLabel">Ussunia</text><text x="172" y="74.9" fill="#fc8d59" class="flag">[0]</text><text x="194" y="74.9" fill="#000" class="taxonLabel">Dailyatia</text><text x="172" y="87.9" fill="#91bfdb" class="flag">[1]</text><text x="194" y="87.9" fill="#000" class="taxonLabel">Halkieria evangelista</text><text x="148.1" y="48.9" fill="#fc8d59" class="flag">[0]</text><text x="170.1" y="48.9" fill="#000" class="taxonLabel">Eccentrotheca</text><text x="148.1" y="61.9" fill="#fc8d59" class="flag">[0]</text><text x="170.1" y="61.9" fill="#000" class="taxonLabel">Cotyledion tylodes</text><text x="124.2" y="23" fill="#fc8d59" class="flag">[0]</text><text x="146.2" y="23" fill="#000" class="taxonLabel">Namacalathus</text><text x="124.2" y="36" fill="#fc8d59" class="flag">[0]</text><text x="146.2" y="36" fill="#000" class="taxonLabel">Phoronis</text><text x="76.6" y="10" fill="#fc8d59" class="flag">[0]</text><text x="98.6" y="10" fill="#000" class="taxonLabel">Flustra</text><text x="52.7" y="542.1" fill="#fc8d59" class="flag">[0]</text><text x="74.7" y="542.1" fill="#000" class="taxonLabel">Loxosomella</text><path d="M5,432.4V285.1H28.9M28.9,285.1V31.1H52.7M52.7,31.1V7H76.6M52.7,31.1V55.1H76.6M76.6,55.1V26.5H100.4M100.4,26.5V20H124.2M100.4,26.5V33H124.2M76.6,55.1V83.8H100.4M100.4,83.8V52.4H124.2M124.2,52.4V45.9H148.1M124.2,52.4V58.9H148.1M100.4,83.8V115.1H124.2M124.2,115.1V78.4H148.1M148.1,78.4V71.9H172M124.2,115.1V151.8H148.1M148.1,151.8V107.6H172M172,107.6V97.8H195.8M172,107.6V117.3H195.8M195.8,117.3V110.8H219.7M195.8,117.3V123.8H219.7M291.2,402.8V409.3H315.1M28.9,285.1V539.1H52.7M5,432.4V579.7H28.9M28.9,579.7V561.8H52.7M52.7,561.8V552.1H76.6M52.7,561.8V571.6H76.6M76.6,571.6V565.1H100.4M28.9,579.7V597.5H52.7M52.7,597.5V591H76.6M52.7,597.5V604H76.6" stroke="#fc8d59"></path><path d="M148.1,78.4V84.9H172M148.1,151.8V196H172M172,196V136.8H195.8M172,196V255.3H195.8M195.8,255.3V159.5H219.7M219.7,159.5V149.8H243.5M219.7,159.5V169.2H243.5M243.5,169.2V162.7H267.4M243.5,169.2V175.7H267.4M195.8,255.3V351H219.7M219.7,351V287.8H243.5M243.5,287.8V211.8H267.4M267.4,211.8V188.7H291.2M267.4,211.8V234.9H291.2M291.2,234.9V211.4H315.1M315.1,211.4V201.7H338.9M315.1,211.4V221.1H338.9M338.9,221.1V214.7H362.8M338.9,221.1V227.6H362.8M291.2,234.9V258.4H315.1M315.1,258.4V240.6H338.9M315.1,258.4V276.1H338.9M338.9,276.1V260.1H362.8M362.8,260.1V253.6H386.6M362.8,260.1V266.6H386.6M338.9,276.1V292.1H362.8M362.8,292.1V279.5H386.6M362.8,292.1V304.7H386.6M386.6,304.7V292.5H410.5M386.6,304.7V316.9H410.5M410.5,316.9V305.5H434.3M410.5,316.9V328.2H434.3M434.3,328.2V318.5H458.2M434.3,328.2V337.9H458.2M458.2,337.9V331.5H482M458.2,337.9V344.4H482M243.5,287.8V363.9H267.4M267.4,363.9V357.4H291.2M267.4,363.9V370.4H291.2M219.7,351V414.2H243.5M243.5,414.2V393.1H267.4M267.4,393.1V383.4H291.2M267.4,393.1V402.8H291.2M291.2,402.8V396.3H315.1M243.5,414.2V435.2H267.4M267.4,435.2V422.3H291.2M267.4,435.2V448.2H291.2M291.2,448.2V435.3H315.1M291.2,448.2V461H315.1M315.1,461V448.3H338.9M315.1,461V473.8H338.9M338.9,473.8V461.2H362.8M338.9,473.8V486.4H362.8M362.8,486.4V474.2H386.6M362.8,486.4V498.6H386.6M386.6,498.6V487.2H410.5M386.6,498.6V509.9H410.5M410.5,509.9V500.2H434.3M410.5,509.9V519.6H434.3M434.3,519.6V513.2H458.2M434.3,519.6V526.1H458.2M76.6,571.6V578H100.4" stroke="#91bfdb"></path><text x="7" y="435.4" class="node" fill="#4A6FE3">1</text><text x="30.9" y="288.1" class="node" fill="#4A6FE3">1</text><text x="54.7" y="34.1" class="node" fill="#6D84E1">0.91</text><text x="78.6" y="58.1" class="node" fill="#5B78E2">0.96</text><text x="102.4" y="29.5" class="node" fill="#7086E1">0.9</text><text x="102.4" y="86.8" class="node" fill="#6D84E1">0.91</text><text x="126.2" y="55.4" class="node" fill="#E18297">0.19</text><text x="126.2" y="118.1" class="node" fill="#8C9BE1">0.81</text><text x="150.1" y="81.4" class="node" fill="#A8B1E2">0.71</text><text x="150.1" y="154.8" class="node" fill="#4A6FE3">1</text><text x="174" y="110.6" class="node" fill="#9AA6E2">0.76</text><text x="197.8" y="120.3" class="node" fill="#4A6FE3">1</text><text x="174" y="199" class="node" fill="#97A4E2">0.77</text><text x="197.8" y="258.3" class="node" fill="#97A4E2">0.77</text><text x="221.7" y="162.5" class="node" fill="#E6B1BB">0.34</text><text x="245.5" y="172.2" class="node" fill="#4A6FE3">1</text><text x="221.7" y="354" class="node" fill="#97A4E2">0.77</text><text x="245.5" y="290.8" class="node" fill="#97A4E2">0.77</text><text x="269.4" y="214.8" class="node" fill="#E07C92">0.17</text><text x="293.2" y="237.9" class="node" fill="#4A6FE3">1</text><text x="317.1" y="214.4" class="node" fill="#8C9BE1">0.81</text><text x="340.9" y="224.1" class="node" fill="#5B78E2">0.96</text><text x="317.1" y="261.4" class="node" fill="#7086E1">0.9</text><text x="340.9" y="279.1" class="node" fill="#BFC4E3">0.63</text><text x="364.8" y="263.1" class="node" fill="#4A6FE3">1</text><text x="364.8" y="295.1" class="node" fill="#BFC4E3">0.63</text><text x="388.6" y="307.7" class="node" fill="#BFC4E3">0.63</text><text x="412.5" y="319.9" class="node" fill="#BFC4E3">0.63</text><text x="436.3" y="331.2" class="node" fill="#4A6FE3">1</text><text x="460.2" y="340.9" class="node" fill="#E5A8B3">0.31</text><text x="269.4" y="366.9" class="node" fill="#DADBE3">0.53</text><text x="245.5" y="417.2" class="node" fill="#95A1E2">0.78</text><text x="269.4" y="396.1" class="node" fill="#95A1E2">0.78</text><text x="293.2" y="405.8" class="node" fill="#4A6FE3">1</text><text x="269.4" y="438.2" class="node" fill="#4A6FE3">1</text><text x="293.2" y="451.2" class="node" fill="#6D84E1">0.91</text><text x="317.1" y="464" class="node" fill="#95A1E2">0.78</text><text x="340.9" y="476.8" class="node" fill="#95A1E2">0.78</text><text x="364.8" y="489.4" class="node" fill="#95A1E2">0.78</text><text x="388.6" y="501.6" class="node" fill="#9DA8E2">0.75</text><text x="412.5" y="512.9" class="node" fill="#E495A5">0.25</text><text x="436.3" y="522.6" class="node" fill="#4A6FE3">1</text><text x="30.9" y="582.7" class="node" fill="#4A6FE3">1</text><text x="54.7" y="564.8" class="node" fill="#4A6FE3">1</text><text x="78.6" y="574.6" class="node" fill="#4A6FE3">1</text><text x="54.7" y="600.5" class="node" fill="#4A6FE3">1</text></svg>
