<svg xmlns="http://www.w3.org/2000/svg" version="1.1" width="682" height="682" class="tree" data-char="120"><text x="678" y="15.6" text-anchor="end" class="stepsLabel">Character adds <tspan class="score">9</tspan> to tree score</text><text x="678" y="28.2" text-anchor="end" class="stepsLabel"><tspan class="score">0</tspan> additional regions</text><text x="678" y="40.8" text-anchor="end" class="stepsLabel">CI = 0.11; Fitch CI = 0.11; Fitch RI = 0.27</text><text x="678" y="66" text-anchor="end" class="stepsLabel"><tspan dy="16" fill="#34caaf">An optimal tree under:</tspan><tspan x="680" style="font-style:italic" class="notThisAn" dy="1.2em">Equal weights</tspan><tspan x="680" style="font-style:italic" class="thisAn" dy="1.2em">Implied weights, k = 2</tspan><tspan x="680" style="font-style:italic" class="notThisAn" dy="1.2em">IW, k = 3</tspan><tspan x="680" style="font-style:italic" class="notThisAn" dy="1.2em">IW, k = 4.5</tspan><tspan x="680" style="font-style:italic" class="notThisAn" dy="1.2em">IW, k = 7</tspan><tspan x="680" style="font-style:italic" class="notThisAn" dy="1.2em">IW, k = 10.5</tspan><tspan x="680" style="font-style:italic" class="notThisAn" dy="1.2em">IW, k = 16</tspan><tspan x="680" style="font-style:italic" class="notThisAn" dy="1.2em">IW, k = 24</tspan></text><text x="100.4" y="664.2" fill="#fc8d59" class="flag">[0]</text><text x="122.4" y="664.2" fill="#000" class="taxonLabel">Dentalium</text><text x="100.4" y="677" fill="#fc8d59" class="flag">[0]</text><text x="122.4" y="677" fill="#000" class="taxonLabel">Tonicella</text><text x="76.6" y="651.3" fill="#fc8d59" class="flag">[0]</text><text x="98.6" y="651.3" fill="#000" class="taxonLabel">Wiwaxia corrugata</text><text x="76.6" y="625.7" fill="#fc8d59" class="flag">[0]</text><text x="98.6" y="625.7" fill="#000" class="taxonLabel">Serpula</text><text x="76.6" y="638.5" fill="#fc8d59" class="flag">[0]</text><text x="98.6" y="638.5" fill="#000" class="taxonLabel">Sipunculus</text><text x="172" y="587.2" fill="#fc8d59" class="flag">[0]</text><text x="194" y="587.2" fill="#000" class="taxonLabel">Namacalathus</text><text x="172" y="600" fill="#fc8d59" class="flag">[0]</text><text x="194" y="600" fill="#000" class="taxonLabel">Phoronis</text><text x="148.1" y="574.4" fill="#fc8d59" class="flag">[0]</text><text x="170.1" y="574.4" fill="#000" class="taxonLabel">Eccentrotheca</text><text x="124.2" y="561.6" fill="#fc8d59" class="flag">[0]</text><text x="146.2" y="561.6" fill="#000" class="taxonLabel">Cotyledion tylodes</text><text x="386.6" y="535.9" fill="#fc8d59" class="flag">[0]</text><text x="408.6" y="535.9" fill="#000" class="taxonLabel">Eoobolus</text><text x="386.6" y="548.7" fill="#fc8d59" class="flag">[0]</text><text x="408.6" y="548.7" fill="#000" class="taxonLabel">Mummpikia nuda</text><text x="362.8" y="523.1" fill="#fc8d59" class="flag">[0]</text><text x="384.8" y="523.1" fill="#000" class="taxonLabel">Botsfordia</text><text x="338.9" y="510.2" fill="#fc8d59" class="flag">[0]</text><text x="360.9" y="510.2" fill="#000" class="taxonLabel">Lingulellotreta malongensis</text><text x="338.9" y="484.6" fill="#fc8d59" class="flag">[0]</text><text x="360.9" y="484.6" fill="#000" class="taxonLabel">Pelagodiscus atlanticus</text><text x="338.9" y="497.4" fill="#fc8d59" class="flag">[0]</text><text x="360.9" y="497.4" fill="#000" class="taxonLabel">Lingula</text><text x="338.9" y="458.9" fill="#91bfdb" class="flag">[1]</text><text x="360.9" y="458.9" fill="#000" class="taxonLabel">Siphonobolus priscus</text><text x="338.9" y="471.8" fill="#fc8d59" class="flag">[0]</text><text x="360.9" y="471.8" fill="#000" class="taxonLabel">Acanthotretella spinosa</text><text x="315.1" y="446.1" fill="#fc8d59" class="flag">[0]</text><text x="337.1" y="446.1" fill="#000" class="taxonLabel">Lingulosacculus</text><text x="267.4" y="433.3" fill="#fc8d59" class="flag">[0]</text><text x="289.4" y="433.3" fill="#000" class="taxonLabel">Clupeafumosus socialis</text><text x="410.5" y="407.6" fill="#fc8d59" class="flag">[0]</text><text x="432.5" y="407.6" fill="#000" class="taxonLabel">Terebratulina</text><text x="410.5" y="420.5" fill="#fc8d59" class="flag">[0]</text><text x="432.5" y="420.5" fill="#000" class="taxonLabel">Alisina</text><text x="386.6" y="394.8" fill="#91bfdb" class="flag">[1]</text><text x="408.6" y="394.8" fill="#000" class="taxonLabel">Orthis</text><text x="386.6" y="369.2" fill="#91bfdb" class="flag">[1]</text><text x="408.6" y="369.2" fill="#000" class="taxonLabel">Tomteluva perturbata</text><text x="386.6" y="382" fill="#91bfdb" class="flag">[1]</text><text x="408.6" y="382" fill="#000" class="taxonLabel">Glyptoria</text><text x="338.9" y="356.3" fill="#fc8d59" class="flag">[0]</text><text x="360.9" y="356.3" fill="#000" class="taxonLabel">Longtancunella chengjiangensis</text><text x="338.9" y="330.7" fill="#91bfdb" class="flag">[1]</text><text x="360.9" y="330.7" fill="#000" class="taxonLabel">Nisusia sulcata</text><text x="338.9" y="343.5" fill="#91bfdb" class="flag">[1]</text><text x="360.9" y="343.5" fill="#000" class="taxonLabel">Kutorgina chengjiangensis</text><text x="338.9" y="305" fill="#91bfdb" class="flag">[1]</text><text x="360.9" y="305" fill="#000" class="taxonLabel">Antigonambonites planus</text><text x="338.9" y="317.8" fill="#91bfdb" class="flag">[1]</text><text x="360.9" y="317.8" fill="#000" class="taxonLabel">Coolinia pecten</text><text x="410.5" y="279.4" fill="#fc8d59" class="flag">[0]</text><text x="432.5" y="279.4" fill="#000" class="taxonLabel">Craniops</text><text x="410.5" y="292.2" fill="#fc8d59" class="flag">[0]</text><text x="432.5" y="292.2" fill="#000" class="taxonLabel">Novocrania</text><text x="386.6" y="266.5" fill="#fc8d59" class="flag">[0]</text><text x="408.6" y="266.5" fill="#000" class="taxonLabel">Ussunia</text><text x="362.8" y="253.7" fill="#91bfdb" class="flag">[1]</text><text x="384.8" y="253.7" fill="#000" class="taxonLabel">Gasconsia</text><text x="482" y="228.1" fill="#91bfdb" class="flag">[1]</text><text x="504" y="228.1" fill="#000" class="taxonLabel">Maxilites</text><text x="482" y="240.9" fill="#fc8d59" class="flag">[0]</text><text x="504" y="240.9" fill="#000" class="taxonLabel">Pauxillites</text><text x="458.2" y="215.2" fill="#fc8d59" class="flag">[0]</text><text x="480.2" y="215.2" fill="#000" class="taxonLabel">Haplophrentis carinatus</text><text x="434.3" y="202.4" fill="#fc8d59" class="flag">[0]</text><text x="456.3" y="202.4" fill="#000" class="taxonLabel">Paramicrocornus</text><text x="410.5" y="189.6" fill="#fc8d59" class="flag">[0]</text><text x="432.5" y="189.6" fill="#000" class="taxonLabel">Pedunculotheca diania</text><text x="410.5" y="163.9" fill="#fc8d59" class="flag">[0]</text><text x="432.5" y="163.9" fill="#000" class="taxonLabel">Conotheca</text><text x="410.5" y="176.8" fill="#fc8d59" class="flag">[0]</text><text x="432.5" y="176.8" fill="#000" class="taxonLabel">Bactrotheca</text><text x="362.8" y="151.1" fill="#fc8d59" class="flag">[0]</text><text x="384.8" y="151.1" fill="#000" class="taxonLabel">Yuganotheca elegans</text><text x="291.2" y="125.4" fill="#fc8d59" class="flag">[0]</text><text x="313.2" y="125.4" fill="#000" class="taxonLabel">Salanygolina</text><text x="291.2" y="138.3" fill="#fc8d59" class="flag">[0]</text><text x="313.2" y="138.3" fill="#000" class="taxonLabel">Micrina</text><text x="243.5" y="99.8" fill="#91bfdb" class="flag">[1]</text><text x="265.5" y="99.8" fill="#000" class="taxonLabel">Micromitra</text><text x="243.5" y="112.6" fill="#fc8d59" class="flag">[0]</text><text x="265.5" y="112.6" fill="#000" class="taxonLabel">Askepasma toddense</text><text x="195.8" y="87" fill="#fc8d59" class="flag">[0]</text><text x="217.8" y="87" fill="#000" class="taxonLabel">Heliomedusa orienta</text><text x="172" y="74.1" fill="#91bfdb" class="flag">[1]</text><text x="194" y="74.1" fill="#000" class="taxonLabel">Mickwitzia muralensis</text><text x="148.1" y="61.3" fill="#fc8d59" class="flag">[0]</text><text x="170.1" y="61.3" fill="#000" class="taxonLabel">Paterimitra</text><text x="148.1" y="35.7" fill="#fc8d59" class="flag">[0]</text><text x="170.1" y="35.7" fill="#000" class="taxonLabel">Dailyatia</text><text x="148.1" y="48.5" fill="#fc8d59" class="flag">[0]</text><text x="170.1" y="48.5" fill="#000" class="taxonLabel">Halkieria evangelista</text><text x="100.4" y="10" fill="#fc8d59" class="flag">[0]</text><text x="122.4" y="10" fill="#000" class="taxonLabel">Flustra</text><text x="100.4" y="22.8" fill="#fc8d59" class="flag">[0]</text><text x="122.4" y="22.8" fill="#000" class="taxonLabel">Amathia</text><text x="52.7" y="612.9" fill="#fc8d59" class="flag">[0]</text><text x="74.7" y="612.9" fill="#000" class="taxonLabel">Loxosomella</text><path d="M5,515.4V387.3H28.9M28.9,387.3V164.6H52.7M52.7,164.6V13.4H76.6M76.6,13.4V7H100.4M76.6,13.4V19.8H100.4M52.7,164.6V315.9H76.6M76.6,315.9V62H100.4M100.4,62V39.1H124.2M124.2,39.1V32.7H148.1M124.2,39.1V45.5H148.1M100.4,62V84.9H124.2M124.2,84.9V58.3H148.1M124.2,84.9V111.4H148.1M148.1,111.4V151.8H172M172,151.8V84H195.8M172,151.8V219.6H195.8M195.8,219.6V103.2H219.7M219.7,103.2V109.6H243.5M195.8,219.6V335.9H219.7M219.7,335.9V217.7H243.5M243.5,217.7V128.9H267.4M267.4,128.9V122.4H291.2M267.4,128.9V135.3H291.2M243.5,217.7V306.6H267.4M315.1,213.7V165.5H338.9M338.9,165.5V148.1H362.8M338.9,165.5V183H362.8M362.8,183V167.3H386.6M386.6,167.3V160.9H410.5M386.6,167.3V173.8H410.5M362.8,183V198.6H386.6M386.6,198.6V186.6H410.5M386.6,198.6V210.6H410.5M410.5,210.6V199.4H434.3M410.5,210.6V221.9H434.3M434.3,221.9V212.2H458.2M434.3,221.9V231.5H458.2M458.2,231.5V237.9H482M338.9,261.9V273.2H362.8M362.8,273.2V263.5H386.6M362.8,273.2V282.8H386.6M386.6,282.8V276.4H410.5M386.6,282.8V289.2H410.5M315.1,370.2V353.3H338.9M362.8,401.4V411H386.6M386.6,411V404.6H410.5M386.6,411V417.5H410.5M219.7,335.9V454.1H243.5M243.5,454.1V430.3H267.4M243.5,454.1V478H267.4M267.4,478V452.7H291.2M291.2,452.7V443.1H315.1M291.2,452.7V462.4H315.1M315.1,462.4V468.8H338.9M267.4,478V503.2H291.2M291.2,503.2V488H315.1M315.1,488V481.6H338.9M315.1,488V494.4H338.9M291.2,503.2V518.5H315.1M315.1,518.5V507.2H338.9M315.1,518.5V529.7H338.9M338.9,529.7V520.1H362.8M338.9,529.7V539.3H362.8M362.8,539.3V532.9H386.6M362.8,539.3V545.7H386.6M76.6,315.9V569.8H100.4M100.4,569.8V558.6H124.2M100.4,569.8V581H124.2M124.2,581V571.4H148.1M124.2,581V590.6H148.1M148.1,590.6V584.2H172M148.1,590.6V597H172M28.9,387.3V609.9H52.7M5,515.4V643.5H28.9M28.9,643.5V629.1H52.7M52.7,629.1V622.7H76.6M52.7,629.1V635.5H76.6M28.9,643.5V658H52.7M52.7,658V648.3H76.6M52.7,658V667.6H76.6M76.6,667.6V661.2H100.4M76.6,667.6V674H100.4" stroke="#fc8d59"></path><path d="M148.1,111.4V71.1H172M219.7,103.2V96.8H243.5M458.2,231.5V225.1H482M338.9,261.9V250.7H362.8M291.2,261.1V308.4H315.1M315.1,308.4V302H338.9M315.1,308.4V314.8H338.9M291.2,352.1V334.1H315.1M315.1,334.1V327.7H338.9M315.1,334.1V340.5H338.9M338.9,387V372.6H362.8M362.8,372.6V366.2H386.6M362.8,372.6V379H386.6M362.8,401.4V391.8H386.6M315.1,462.4V455.9H338.9" stroke="#91bfdb"></path><path d="M267.4,306.6V261.1H291.2M291.2,261.1V213.7H315.1M315.1,213.7V261.9H338.9M267.4,306.6V352.1H291.2M291.2,352.1V370.2H315.1M315.1,370.2V387H338.9M338.9,387V401.4H362.8" stroke="darkgrey"></path><text x="7" y="518.4" class="node" fill="#4A6FE3">1</text><text x="30.9" y="390.3" class="node" fill="#4A6FE3">1</text><text x="54.7" y="167.6" class="node" fill="#4A6FE3">1</text><text x="78.6" y="16.4" class="node" fill="#4A6FE3">1</text><text x="78.6" y="318.9" class="node" fill="#4A6FE3">1</text><text x="102.4" y="65" class="node" fill="#8998E1">0.82</text><text x="126.2" y="42.1" class="node" fill="#E17F94">0.18</text><text x="126.2" y="87.9" class="node" fill="#4F72E2">0.99</text><text x="150.1" y="114.4" class="node" fill="#4F72E2">0.99</text><text x="174" y="154.8" class="node" fill="#E07C92">0.17</text><text x="197.8" y="222.6" class="node" fill="#E07C92">0.17</text><text x="221.7" y="106.2" class="node" fill="#CACDE3">0.59</text><text x="221.7" y="338.9" class="node" fill="#E07C92">0.17</text><text x="245.5" y="220.7" class="node" fill="#E07C92">0.17</text><text x="269.4" y="131.9" class="node" fill="#E07C92">0.17</text><text x="269.4" y="309.6" class="node" fill="#E07C92">0.17</text><text x="293.2" y="264.1" class="node" fill="#E07C92">0.17</text><text x="317.1" y="216.7" class="node" fill="#E07C92">0.17</text><text x="340.9" y="168.5" class="node" fill="#E07C92">0.17</text><text x="364.8" y="186" class="node" fill="#4F72E2">0.99</text><text x="388.6" y="170.3" class="node" fill="#E4D3D6">0.45</text><text x="388.6" y="201.6" class="node" fill="#E07C92">0.17</text><text x="412.5" y="213.6" class="node" fill="#4A6FE3">1</text><text x="436.3" y="224.9" class="node" fill="#4A6FE3">1</text><text x="460.2" y="234.5" class="node" fill="#4A6FE3">1</text><text x="340.9" y="264.9" class="node" fill="#E07C92">0.17</text><text x="364.8" y="276.2" class="node" fill="#4A6FE3">1</text><text x="388.6" y="285.8" class="node" fill="#4A6FE3">1</text><text x="317.1" y="311.4" class="node" fill="#4A6FE3">1</text><text x="293.2" y="355.1" class="node" fill="#E495A5">0.25</text><text x="317.1" y="337.1" class="node" fill="#E2E2E2">0.5</text><text x="317.1" y="373.2" class="node" fill="#E495A5">0.25</text><text x="340.9" y="390" class="node" fill="#DB6581">0.1</text><text x="364.8" y="375.6" class="node" fill="#E07C92">0.17</text><text x="364.8" y="404.4" class="node" fill="#5B78E2">0.96</text><text x="388.6" y="414" class="node" fill="#E6BAC2">0.37</text><text x="245.5" y="457.1" class="node" fill="#9DA8E2">0.75</text><text x="269.4" y="481" class="node" fill="#E17F94">0.18</text><text x="293.2" y="455.7" class="node" fill="#E49CAA">0.27</text><text x="317.1" y="465.4" class="node" fill="#4F72E2">0.99</text><text x="293.2" y="506.2" class="node" fill="#E17F94">0.18</text><text x="317.1" y="491" class="node" fill="#E17F94">0.18</text><text x="317.1" y="521.5" class="node" fill="#E18297">0.19</text><text x="340.9" y="532.7" class="node" fill="#E0E0E2">0.51</text><text x="364.8" y="542.3" class="node" fill="#E18297">0.19</text><text x="102.4" y="572.8" class="node" fill="#DB6581">0.1</text><text x="126.2" y="584" class="node" fill="#D64F73">0.04</text><text x="150.1" y="593.6" class="node" fill="#E4D6D8">0.46</text><text x="30.9" y="646.5" class="node" fill="#4A6FE3">1</text><text x="54.7" y="632.1" class="node" fill="#4A6FE3">1</text><text x="54.7" y="661" class="node" fill="#4A6FE3">1</text><text x="78.6" y="670.6" class="node" fill="#4A6FE3">1</text></svg>
