<svg xmlns="http://www.w3.org/2000/svg" version="1.1" viewBox="0 0 682 520" preserveAspectRatio="xMidYMid meet" class="tree" data-char="111"><text x="678" y="12.4" text-anchor="end" class="stepsLabel">Character adds <tspan class="score">6</tspan> to tree score (<tspan class="score fitch">5</tspan> with Fitch)</text><text x="678" y="21.8" text-anchor="end" class="stepsLabel"><tspan class="score">1</tspan> additional region (not counted by Fitch)</text><text x="678" y="31.2" text-anchor="end" class="stepsLabel"></text><text x="678" y="50" text-anchor="end" class="stepsLabel"><tspan dy="16" fill="#34caaf">An optimal tree under:</tspan><tspan x="680" style="font-style:italic" class="notThisAn" dy="1.2em">Implied weights, k = 3</tspan><tspan x="680" style="font-style:italic" class="notThisAn" dy="1.2em">IW, k = 4.5</tspan><tspan x="680" style="font-style:italic" class="notThisAn" dy="1.2em">IW, k = 7</tspan><tspan x="680" style="font-style:italic" class="thisAn" dy="1.2em">IW, k = 10.5</tspan><tspan x="680" style="font-style:italic" class="thisAn" dy="1.2em">IW, k = 16</tspan><tspan x="680" style="font-style:italic" class="notThisAn" dy="1.2em">IW, k = 24</tspan><tspan x="680" style="font-style:italic" class="notThisAn" dy="1.2em">Equal weights</tspan></text><text x="73.1" y="505.5" fill="lightgrey" class="flag">[-]</text><text x="95.1" y="505.5" fill="#ccc" class="taxonLabel">Flustra</text><text x="73.1" y="515" fill="lightgrey" class="flag">[-]</text><text x="95.1" y="515" fill="#ccc" class="taxonLabel">Amathia</text><text x="95.9" y="486.4" fill="lightgrey" class="flag">[-]</text><text x="117.9" y="486.4" fill="#ccc" class="taxonLabel">Phoronis</text><text x="95.9" y="495.9" fill="lightgrey" class="flag">[-]</text><text x="117.9" y="495.9" fill="#ccc" class="taxonLabel">Namacalathus</text><text x="300.3" y="400.7" fill="#91bfdb" class="flag">[2]</text><text x="322.3" y="400.7" fill="#000" class="taxonLabel">Conotheca</text><text x="300.3" y="410.2" fill="#91bfdb" class="flag">[2]</text><text x="322.3" y="410.2" fill="#000" class="taxonLabel">Bactrotheca</text><text x="277.6" y="419.7" fill="lightgrey" class="flag">[-]</text><text x="299.6" y="419.7" fill="#ccc" class="taxonLabel">Cupitheca holocyclata</text><text x="323" y="362.5" fill="#91bfdb" class="flag">[2]</text><text x="345" y="362.5" fill="#000" class="taxonLabel">Pauxillites</text><text x="323" y="372.1" fill="#91bfdb" class="flag">[2]</text><text x="345" y="372.1" fill="#000" class="taxonLabel">Maxilites</text><text x="300.3" y="381.6" fill="#91bfdb" class="flag">[2]</text><text x="322.3" y="381.6" fill="#000" class="taxonLabel">Haplophrentis carinatus</text><text x="277.6" y="391.1" fill="#91bfdb" class="flag">[2]</text><text x="299.6" y="391.1" fill="#000" class="taxonLabel">Paramicrocornus</text><text x="232.1" y="429.2" fill="#91bfdb" class="flag">[2]</text><text x="254.1" y="429.2" fill="#000" class="taxonLabel">Pedunculotheca diania</text><text x="300.3" y="324.4" fill="grey" class="flag">[12]</text><text x="322.3" y="324.4" fill="#999" class="taxonLabel">Mickwitzia muralensis</text><text x="300.3" y="334" fill="#e2e2a2" class="flag">[1]</text><text x="322.3" y="334" fill="#000" class="taxonLabel">Heliomedusa orienta</text><text x="277.6" y="343.5" fill="#91bfdb" class="flag">[2]</text><text x="299.6" y="343.5" fill="#000" class="taxonLabel">Micrina</text><text x="323" y="305.4" fill="#e2e2a2" class="flag">[1]</text><text x="345" y="305.4" fill="#000" class="taxonLabel">Micromitra</text><text x="323" y="314.9" fill="#e2e2a2" class="flag">[1]</text><text x="345" y="314.9" fill="#000" class="taxonLabel">Askepasma toddense</text><text x="368.4" y="276.8" fill="#e2e2a2" class="flag">[1]</text><text x="390.4" y="276.8" fill="#000" class="taxonLabel">Coolinia pecten</text><text x="368.4" y="286.3" fill="grey" class="flag">[12]</text><text x="390.4" y="286.3" fill="#999" class="taxonLabel">Antigonambonites planus</text><text x="391.1" y="257.7" fill="grey" class="flag">[12]</text><text x="413.1" y="257.7" fill="#999" class="taxonLabel">Nisusia sulcata</text><text x="391.1" y="267.3" fill="grey" class="flag">[12]</text><text x="413.1" y="267.3" fill="#999" class="taxonLabel">Kutorgina chengjiangensis</text><text x="482" y="200.6" fill="#e2e2a2" class="flag">[1]</text><text x="504" y="200.6" fill="#000" class="taxonLabel">Terebratulina</text><text x="482" y="210.1" fill="#e2e2a2" class="flag">[1]</text><text x="504" y="210.1" fill="#000" class="taxonLabel">Orthis</text><text x="459.3" y="219.6" fill="#e2e2a2" class="flag">[1]</text><text x="481.3" y="219.6" fill="#000" class="taxonLabel">Alisina</text><text x="436.6" y="229.2" fill="#e2e2a2" class="flag">[1]</text><text x="458.6" y="229.2" fill="#000" class="taxonLabel">Longtancunella chengjiangensis</text><text x="413.9" y="238.7" fill="#e2e2a2" class="flag">[1]</text><text x="435.9" y="238.7" fill="#000" class="taxonLabel">Glyptoria</text><text x="391.1" y="248.2" fill="#e2e2a2" class="flag">[1]</text><text x="413.1" y="248.2" fill="#000" class="taxonLabel">Tomteluva perturbata</text><text x="323" y="295.8" fill="grey" class="flag">[12]</text><text x="345" y="295.8" fill="#999" class="taxonLabel">Salanygolina</text><text x="368.4" y="162.5" fill="#e2e2a2" class="flag">[1]</text><text x="390.4" y="162.5" fill="#000" class="taxonLabel">Novocrania</text><text x="368.4" y="172" fill="#e2e2a2" class="flag">[1]</text><text x="390.4" y="172" fill="#000" class="taxonLabel">Craniops</text><text x="345.7" y="181.5" fill="#e2e2a2" class="flag">[1]</text><text x="367.7" y="181.5" fill="#000" class="taxonLabel">Ussunia</text><text x="323" y="191" fill="#e2e2a2" class="flag">[1]</text><text x="345" y="191" fill="#000" class="taxonLabel">Gasconsia</text><text x="413.9" y="114.8" fill="#e2e2a2" class="flag">[1]</text><text x="435.9" y="114.8" fill="#000" class="taxonLabel">Pelagodiscus atlanticus</text><text x="413.9" y="124.3" fill="#e2e2a2" class="flag">[1]</text><text x="435.9" y="124.3" fill="#000" class="taxonLabel">Mummpikia nuda</text><text x="482" y="67.2" fill="#e2e2a2" class="flag">[1]</text><text x="504" y="67.2" fill="#000" class="taxonLabel">Siphonobolus priscus</text><text x="482" y="76.7" fill="#91bfdb" class="flag">[2]</text><text x="504" y="76.7" fill="#000" class="taxonLabel">Acanthotretella spinosa</text><text x="459.3" y="86.2" fill="#91bfdb" class="flag">[2]</text><text x="481.3" y="86.2" fill="#000" class="taxonLabel">Lingulosacculus</text><text x="436.6" y="95.8" fill="#91bfdb" class="flag">[2]</text><text x="458.6" y="95.8" fill="#000" class="taxonLabel">Clupeafumosus socialis</text><text x="413.9" y="105.3" fill="#91bfdb" class="flag">[2]</text><text x="435.9" y="105.3" fill="#000" class="taxonLabel">Lingulellotreta malongensis</text><text x="368.4" y="133.9" fill="#e2e2a2" class="flag">[1]</text><text x="390.4" y="133.9" fill="#000" class="taxonLabel">Botsfordia</text><text x="345.7" y="143.4" fill="#e2e2a2" class="flag">[1]</text><text x="367.7" y="143.4" fill="#000" class="taxonLabel">Eoobolus</text><text x="323" y="152.9" fill="#e2e2a2" class="flag">[1]</text><text x="345" y="152.9" fill="#000" class="taxonLabel">Lingula</text><text x="232.1" y="353" fill="#e2e2a2" class="flag">[1]</text><text x="254.1" y="353" fill="#000" class="taxonLabel">Yuganotheca elegans</text><text x="186.7" y="438.8" fill="#91bfdb" class="flag">[2]</text><text x="208.7" y="438.8" fill="#000" class="taxonLabel">Paterimitra</text><text x="164" y="448.3" fill="#e2e2a2" class="flag">[1]</text><text x="186" y="448.3" fill="#000" class="taxonLabel">Halkieria evangelista</text><text x="141.3" y="457.8" fill="lightgrey" class="flag">[-]</text><text x="163.3" y="457.8" fill="#ccc" class="taxonLabel">Dailyatia</text><text x="118.6" y="467.4" fill="lightgrey" class="flag">[-]</text><text x="140.6" y="467.4" fill="#ccc" class="taxonLabel">Eccentrotheca</text><text x="95.9" y="476.9" fill="lightgrey" class="flag">[-]</text><text x="117.9" y="476.9" fill="#ccc" class="taxonLabel">Cotyledion tylodes</text><text x="95.9" y="38.6" fill="lightgrey" class="flag">[-]</text><text x="117.9" y="38.6" fill="#ccc" class="taxonLabel">Sipunculus</text><text x="95.9" y="48.1" fill="lightgrey" class="flag">[-]</text><text x="117.9" y="48.1" fill="#ccc" class="taxonLabel">Serpula</text><text x="118.6" y="10" fill="#e2e2a2" class="flag">[1]</text><text x="140.6" y="10" fill="#000" class="taxonLabel">Tonicella</text><text x="118.6" y="19.5" fill="lightgrey" class="flag">[-]</text><text x="140.6" y="19.5" fill="#ccc" class="taxonLabel">Dentalium</text><text x="95.9" y="29.1" fill="lightgrey" class="flag">[-]</text><text x="117.9" y="29.1" fill="#ccc" class="taxonLabel">Wiwaxia corrugata</text><text x="50.4" y="57.6" fill="lightgrey" class="flag">[-]</text><text x="72.4" y="57.6" fill="#ccc" class="taxonLabel">Loxosomella</text><path d="M5,266.7V42.1H27.7M27.7,42.1V29.6H50.4M50.4,29.6V18.9H73.1M73.1,18.9V11.8H95.9M95.9,11.8V16.5H118.6M73.1,18.9V26.1H95.9M50.4,29.6V40.3H73.1M73.1,40.3V35.6H95.9M73.1,40.3V45.1H95.9M27.7,42.1V54.6H50.4M5,266.7V491.3H27.7M27.7,491.3V475.4H50.4M50.4,475.4V462.7H73.1M73.1,462.7V451.5H95.9M95.9,451.5V438.5H118.6M254.9,409.6V416.7H277.6M118.6,438.5V454.8H141.3M95.9,451.5V464.4H118.6M73.1,462.7V473.9H95.9M50.4,475.4V488.2H73.1M73.1,488.2V483.4H95.9M73.1,488.2V492.9H95.9M27.7,491.3V507.2H50.4M50.4,507.2V502.5H73.1M50.4,507.2V512H73.1" stroke="lightgrey" class="inapplicable"></path><path d="M95.9,11.8V7H118.6M186.7,362.7V314.9H209.4M209.4,314.9V279.7H232.1M232.1,279.7V226.1H254.9M254.9,226.1V159.6H277.6M277.6,159.6V139.5H300.3M300.3,139.5V129.2H323M323,129.2V117.9H345.7M345.7,117.9V105H368.4M459.3,68.9V64.2H482M368.4,105V116.6H391.1M391.1,116.6V111.8H413.9M391.1,116.6V121.3H413.9M345.7,117.9V130.9H368.4M323,129.2V140.4H345.7M300.3,139.5V149.9H323M277.6,159.6V179.7H300.3M300.3,179.7V171.4H323M323,171.4V164.2H345.7M345.7,164.2V159.5H368.4M345.7,164.2V169H368.4M323,171.4V178.5H345.7M300.3,179.7V188H323M254.9,226.1V292.6H277.6M277.6,292.6V278H300.3M300.3,278V263.1H323M323,263.1V247.7H345.7M345.7,247.7V236H368.4M368.4,236V226.7H391.1M391.1,226.7V217.8H413.9M413.9,217.8V209.5H436.6M436.6,209.5V202.3H459.3M459.3,202.3V197.6H482M459.3,202.3V207.1H482M436.6,209.5V216.6H459.3M413.9,217.8V226.2H436.6M391.1,226.7V235.7H413.9M368.4,236V245.2H391.1M345.7,247.7V259.5H368.4M368.4,259.5V254.7H391.1M368.4,259.5V264.3H391.1M323,263.1V278.6H345.7M345.7,278.6V273.8H368.4M345.7,278.6V283.3H368.4M300.3,278V292.8H323M277.6,292.6V307.1H300.3M300.3,307.1V302.4H323M300.3,307.1V311.9H323M232.1,279.7V333.3H254.9M254.9,333.3V326.2H277.6M277.6,326.2V321.4H300.3M277.6,326.2V331H300.3M209.4,314.9V350H232.1M141.3,422.3V445.3H164" stroke="#e2e2a2"></path><path d="M118.6,438.5V422.3H141.3M141.3,422.3V399.2H164M164,399.2V362.7H186.7" stroke="darkgrey"></path><path d="M368.4,105V93.4H391.1M391.1,93.4V84.4H413.9M413.9,84.4V76.1H436.6M436.6,76.1V68.9H459.3M459.3,68.9V73.7H482M436.6,76.1V83.2H459.3M413.9,84.4V92.8H436.6M391.1,93.4V102.3H413.9M254.9,333.3V340.5H277.6M186.7,362.7V410.5H209.4M209.4,410.5V394.7H232.1M232.1,394.7V379.8H254.9M254.9,379.8V371.5H277.6M277.6,371.5V364.3H300.3M300.3,364.3V359.5H323M300.3,364.3V369.1H323M277.6,371.5V378.6H300.3M254.9,379.8V388.1H277.6M232.1,394.7V409.6H254.9M254.9,409.6V402.4H277.6M277.6,402.4V397.7H300.3M277.6,402.4V407.2H300.3M209.4,410.5V426.2H232.1M164,399.2V435.8H186.7" stroke="#91bfdb"></path><text x="29.7" y="45.1" class="node" fill="#4A6FE3">1</text><text x="52.4" y="32.6" class="node" fill="#4A6FE3">1</text><text x="75.1" y="21.9" class="node" fill="#4A6FE3">1</text><text x="97.9" y="14.8" class="node" fill="#4A6FE3">1</text><text x="75.1" y="43.3" class="node" fill="#4A6FE3">1</text><text x="29.7" y="494.3" class="node" fill="#4A6FE3">1</text><text x="52.4" y="478.4" class="node" fill="#627DE1">0.94</text><text x="75.1" y="465.7" class="node" fill="#E5A8B3">0.31</text><text x="97.9" y="454.5" class="node" fill="#627DE1">0.94</text><text x="120.6" y="441.5" class="node" fill="#627DE1">0.94</text><text x="143.3" y="425.3" class="node" fill="#627DE1">0.94</text><text x="166" y="402.2" class="node" fill="#627DE1">0.94</text><text x="188.7" y="365.7" class="node" fill="#4A6FE3">1</text><text x="211.4" y="317.9" class="node" fill="#5374E2">0.98</text><text x="234.1" y="282.7" class="node" fill="#627DE1">0.94</text><text x="256.9" y="229.1" class="node" fill="#627DE1">0.94</text><text x="279.6" y="162.6" class="node" fill="#627DE1">0.94</text><text x="302.3" y="142.5" class="node" fill="#667FE1">0.93</text><text x="325" y="132.2" class="node" fill="#667FE1">0.93</text><text x="347.7" y="120.9" class="node" fill="#667FE1">0.93</text><text x="370.4" y="108" class="node" fill="#627DE1">0.94</text><text x="393.1" y="96.4" class="node" fill="#4A6FE3">1</text><text x="415.9" y="87.4" class="node" fill="#E6AEB8">0.33</text><text x="438.6" y="79.1" class="node" fill="#4A6FE3">1</text><text x="461.3" y="71.9" class="node" fill="#667FE1">0.93</text><text x="393.1" y="119.6" class="node" fill="#627DE1">0.94</text><text x="302.3" y="182.7" class="node" fill="#4A6FE3">1</text><text x="325" y="174.4" class="node" fill="#4A6FE3">1</text><text x="347.7" y="167.2" class="node" fill="#5B78E2">0.96</text><text x="279.6" y="295.6" class="node" fill="#4A6FE3">1</text><text x="302.3" y="281" class="node" fill="#5B78E2">0.96</text><text x="325" y="266.1" class="node" fill="#5F7BE1">0.95</text><text x="347.7" y="250.7" class="node" fill="#B4BBE3">0.67</text><text x="370.4" y="239" class="node" fill="#4A6FE3">1</text><text x="393.1" y="229.7" class="node" fill="#4A6FE3">1</text><text x="415.9" y="220.8" class="node" fill="#4A6FE3">1</text><text x="438.6" y="212.5" class="node" fill="#5B78E2">0.96</text><text x="461.3" y="205.3" class="node" fill="#95A1E2">0.78</text><text x="370.4" y="262.5" class="node" fill="#4A6FE3">1</text><text x="347.7" y="281.6" class="node" fill="#5B78E2">0.96</text><text x="302.3" y="310.1" class="node" fill="#627DE1">0.94</text><text x="256.9" y="336.3" class="node" fill="#627DE1">0.94</text><text x="279.6" y="329.2" class="node" fill="#627DE1">0.94</text><text x="211.4" y="413.5" class="node" fill="#627DE1">0.94</text><text x="234.1" y="397.7" class="node" fill="#929FE1">0.79</text><text x="256.9" y="382.8" class="node" fill="#4A6FE3">1</text><text x="279.6" y="374.5" class="node" fill="#4A6FE3">1</text><text x="302.3" y="367.3" class="node" fill="#627DE1">0.94</text><text x="256.9" y="412.6" class="node" fill="#4A6FE3">1</text><text x="279.6" y="405.4" class="node" fill="#E6B4BD">0.35</text><text x="75.1" y="491.2" class="node" fill="#4A6FE3">1</text><text x="52.4" y="510.2" class="node" fill="#4A6FE3">1</text></svg>
