<svg xmlns="http://www.w3.org/2000/svg" version="1.1" viewBox="0 0 682 682" class="tree" data-char="0"><text x="678" y="15.4" text-anchor="end" class="stepsLabel">Character adds <tspan class="score">3</tspan> to tree score</text><text x="678" y="27.8" text-anchor="end" class="stepsLabel"><tspan class="score">0</tspan> additional regions</text><text x="678" y="40.2" text-anchor="end" class="stepsLabel"></text><text x="678" y="65" text-anchor="end" class="stepsLabel"><tspan dy="16" fill="#34caaf">An optimal tree under:</tspan><tspan x="680" style="font-style:italic" class="notThisAn" dy="1.2em">Implied weights, k = 3</tspan><tspan x="680" style="font-style:italic" class="thisAn" dy="1.2em">IW, k = 4.5</tspan><tspan x="680" style="font-style:italic" class="notThisAn" dy="1.2em">IW, k = 7</tspan><tspan x="680" style="font-style:italic" class="notThisAn" dy="1.2em">IW, k = 10.5</tspan><tspan x="680" style="font-style:italic" class="notThisAn" dy="1.2em">IW, k = 16</tspan><tspan x="680" style="font-style:italic" class="notThisAn" dy="1.2em">IW, k = 24</tspan><tspan x="680" style="font-style:italic" class="notThisAn" dy="1.2em">Equal weights</tspan></text><text x="84.5" y="664.4" fill="lightgrey" class="flag">[-]</text><text x="106.5" y="664.4" fill="#ccc" class="taxonLabel">Flustra</text><text x="84.5" y="677" fill="lightgrey" class="flag">[-]</text><text x="106.5" y="677" fill="#ccc" class="taxonLabel">Amathia</text><text x="323" y="551.2" fill="lightgrey" class="flag">[-]</text><text x="345" y="551.2" fill="#ccc" class="taxonLabel">Pauxillites</text><text x="323" y="563.7" fill="lightgrey" class="flag">[-]</text><text x="345" y="563.7" fill="#ccc" class="taxonLabel">Maxilites</text><text x="296.5" y="576.3" fill="lightgrey" class="flag">[-]</text><text x="318.5" y="576.3" fill="#ccc" class="taxonLabel">Haplophrentis carinatus</text><text x="270" y="588.9" fill="lightgrey" class="flag">[-]</text><text x="292" y="588.9" fill="#ccc" class="taxonLabel">Paramicrocornus</text><text x="323" y="513.4" fill="lightgrey" class="flag">[-]</text><text x="345" y="513.4" fill="#ccc" class="taxonLabel">Conotheca</text><text x="323" y="526" fill="lightgrey" class="flag">[-]</text><text x="345" y="526" fill="#ccc" class="taxonLabel">Bactrotheca</text><text x="349.5" y="475.6" fill="lightgrey" class="flag">[-]</text><text x="371.5" y="475.6" fill="#ccc" class="taxonLabel">Phoronis</text><text x="349.5" y="488.2" fill="lightgrey" class="flag">[-]</text><text x="371.5" y="488.2" fill="#ccc" class="taxonLabel">Namacalathus</text><text x="323" y="500.8" fill="lightgrey" class="flag">[-]</text><text x="345" y="500.8" fill="#ccc" class="taxonLabel">Cotyledion tylodes</text><text x="270" y="538.6" fill="lightgrey" class="flag">[-]</text><text x="292" y="538.6" fill="#ccc" class="taxonLabel">Cupitheca holocyclata</text><text x="217" y="601.5" fill="#91bfdb" class="flag">[2]</text><text x="239" y="601.5" fill="#000" class="taxonLabel">Pedunculotheca diania</text><text x="296.5" y="437.9" fill="grey" class="flag">[?]</text><text x="318.5" y="437.9" fill="#999" class="taxonLabel">Micromitra</text><text x="296.5" y="450.5" fill="grey" class="flag">[?]</text><text x="318.5" y="450.5" fill="#999" class="taxonLabel">Askepasma toddense</text><text x="349.5" y="400.1" fill="grey" class="flag">[?]</text><text x="371.5" y="400.1" fill="#999" class="taxonLabel">Coolinia pecten</text><text x="349.5" y="412.7" fill="#91bfdb" class="flag">[2]</text><text x="371.5" y="412.7" fill="#000" class="taxonLabel">Antigonambonites planus</text><text x="376" y="375" fill="grey" class="flag">[23]</text><text x="398" y="375" fill="#999" class="taxonLabel">Nisusia sulcata</text><text x="376" y="387.5" fill="#91bfdb" class="flag">[2]</text><text x="398" y="387.5" fill="#000" class="taxonLabel">Kutorgina chengjiangensis</text><text x="482" y="299.5" fill="#e2e2a2" class="flag">[1]</text><text x="504" y="299.5" fill="#000" class="taxonLabel">Terebratulina</text><text x="482" y="312" fill="grey" class="flag">[?]</text><text x="504" y="312" fill="#999" class="taxonLabel">Orthis</text><text x="455.5" y="324.6" fill="#91bfdb" class="flag">[2]</text><text x="477.5" y="324.6" fill="#000" class="taxonLabel">Alisina</text><text x="429" y="337.2" fill="#91bfdb" class="flag">[2]</text><text x="451" y="337.2" fill="#000" class="taxonLabel">Longtancunella chengjiangensis</text><text x="402.5" y="349.8" fill="grey" class="flag">[?]</text><text x="424.5" y="349.8" fill="#999" class="taxonLabel">Glyptoria</text><text x="376" y="362.4" fill="grey" class="flag">[?]</text><text x="398" y="362.4" fill="#999" class="taxonLabel">Tomteluva perturbata</text><text x="296.5" y="425.3" fill="grey" class="flag">[?]</text><text x="318.5" y="425.3" fill="#999" class="taxonLabel">Salanygolina</text><text x="402.5" y="223.9" fill="lightgrey" class="flag">[-]</text><text x="424.5" y="223.9" fill="#ccc" class="taxonLabel">Novocrania</text><text x="402.5" y="236.5" fill="lightgrey" class="flag">[-]</text><text x="424.5" y="236.5" fill="#ccc" class="taxonLabel">Craniops</text><text x="376" y="249.1" fill="lightgrey" class="flag">[-]</text><text x="398" y="249.1" fill="#ccc" class="taxonLabel">Ussunia</text><text x="349.5" y="261.7" fill="lightgrey" class="flag">[-]</text><text x="371.5" y="261.7" fill="#ccc" class="taxonLabel">Heliomedusa orienta</text><text x="323" y="274.3" fill="lightgrey" class="flag">[-]</text><text x="345" y="274.3" fill="#ccc" class="taxonLabel">Gasconsia</text><text x="296.5" y="286.9" fill="grey" class="flag">[?]</text><text x="318.5" y="286.9" fill="#999" class="taxonLabel">Micrina</text><text x="323" y="198.8" fill="#e2e2a2" class="flag">[1]</text><text x="345" y="198.8" fill="#000" class="taxonLabel">Pelagodiscus atlanticus</text><text x="323" y="211.4" fill="grey" class="flag">[?]</text><text x="345" y="211.4" fill="#999" class="taxonLabel">Mickwitzia muralensis</text><text x="376" y="161" fill="grey" class="flag">[?]</text><text x="398" y="161" fill="#999" class="taxonLabel">Mummpikia nuda</text><text x="376" y="173.6" fill="grey" class="flag">[?]</text><text x="398" y="173.6" fill="#999" class="taxonLabel">Botsfordia</text><text x="349.5" y="186.2" fill="grey" class="flag">[?]</text><text x="371.5" y="186.2" fill="#999" class="taxonLabel">Eoobolus</text><text x="376" y="135.8" fill="#91bfdb" class="flag">[2]</text><text x="398" y="135.8" fill="#000" class="taxonLabel">Lingulellotreta malongensis</text><text x="376" y="148.4" fill="#e2e2a2" class="flag">[1]</text><text x="398" y="148.4" fill="#000" class="taxonLabel">Lingula</text><text x="402.5" y="110.7" fill="grey" class="flag">[?]</text><text x="424.5" y="110.7" fill="#999" class="taxonLabel">Siphonobolus priscus</text><text x="402.5" y="123.3" fill="#91bfdb" class="flag">[2]</text><text x="424.5" y="123.3" fill="#000" class="taxonLabel">Acanthotretella spinosa</text><text x="402.5" y="85.5" fill="grey" class="flag">[?]</text><text x="424.5" y="85.5" fill="#999" class="taxonLabel">Lingulosacculus</text><text x="402.5" y="98.1" fill="grey" class="flag">[?]</text><text x="424.5" y="98.1" fill="#999" class="taxonLabel">Clupeafumosus socialis</text><text x="217" y="463.1" fill="#91bfdb" class="flag">[2]</text><text x="239" y="463.1" fill="#000" class="taxonLabel">Yuganotheca elegans</text><text x="164" y="614.1" fill="grey" class="flag">[?]</text><text x="186" y="614.1" fill="#999" class="taxonLabel">Paterimitra</text><text x="137.5" y="626.7" fill="lightgrey" class="flag">[-]</text><text x="159.5" y="626.7" fill="#ccc" class="taxonLabel">Halkieria evangelista</text><text x="111" y="639.2" fill="grey" class="flag">[?]</text><text x="133" y="639.2" fill="#999" class="taxonLabel">Dailyatia</text><text x="84.5" y="651.8" fill="grey" class="flag">[?]</text><text x="106.5" y="651.8" fill="#999" class="taxonLabel">Eccentrotheca</text><text x="111" y="47.8" fill="lightgrey" class="flag">[-]</text><text x="133" y="47.8" fill="#ccc" class="taxonLabel">Sipunculus</text><text x="111" y="60.3" fill="lightgrey" class="flag">[-]</text><text x="133" y="60.3" fill="#ccc" class="taxonLabel">Serpula</text><text x="137.5" y="10" fill="lightgrey" class="flag">[-]</text><text x="159.5" y="10" fill="#ccc" class="taxonLabel">Tonicella</text><text x="137.5" y="22.6" fill="lightgrey" class="flag">[-]</text><text x="159.5" y="22.6" fill="#ccc" class="taxonLabel">Dentalium</text><text x="111" y="35.2" fill="lightgrey" class="flag">[-]</text><text x="133" y="35.2" fill="#ccc" class="taxonLabel">Wiwaxia corrugata</text><text x="58" y="72.9" fill="lightgrey" class="flag">[-]</text><text x="80" y="72.9" fill="#ccc" class="taxonLabel">Loxosomella</text><path d="M5,351.1V53.4H31.5M31.5,53.4V36.9H58M58,36.9V22.7H84.5M84.5,22.7V13.3H111M111,13.3V7H137.5M111,13.3V19.6H137.5M84.5,22.7V32.2H111M58,36.9V51H84.5M84.5,51V44.8H111M84.5,51V57.3H111M31.5,53.4V69.9H58M5,351.1V648.7H31.5M31.5,648.7V629.8H58M58,629.8V610.7H84.5M84.5,610.7V585.1H111M243.5,223.1V271.7H270M270,271.7V259.5H296.5M296.5,259.5V247.7H323M323,247.7V236.7H349.5M349.5,236.7V227.2H376M376,227.2V220.9H402.5M376,227.2V233.5H402.5M349.5,236.7V246.1H376M323,247.7V258.7H349.5M296.5,259.5V271.3H323M270,271.7V283.9H296.5M190.5,572.7V547H217M217,547V519H243.5M243.5,519V502.5H270M270,502.5V488.4H296.5M296.5,488.4V478.9H323M323,478.9V472.6H349.5M323,478.9V485.2H349.5M296.5,488.4V497.8H323M270,502.5V516.7H296.5M296.5,516.7V510.4H323M296.5,516.7V523H323M243.5,519V535.6H270M217,547V574.9H243.5M243.5,574.9V563.9H270M270,563.9V554.4H296.5M296.5,554.4V548.2H323M296.5,554.4V560.7H323M270,563.9V573.3H296.5M243.5,574.9V585.9H270M111,585.1V623.7H137.5M84.5,610.7V636.2H111M58,629.8V648.8H84.5M31.5,648.7V667.7H58M58,667.7V661.4H84.5M58,667.7V674H84.5" stroke="lightgrey" class="inapplicable"></path><path d="M111,585.1V546.5H137.5M137.5,546.5V482H164M164,482V391.3H190.5M190.5,391.3V322.5H217M217,322.5V223.1H243.5M243.5,223.1V174.5H270M270,174.5V147H296.5M296.5,147V120.3H323M323,120.3V101.4H349.5M349.5,101.4V88.8H376M376,88.8V82.5H402.5M376,88.8V95.1H402.5M349.5,101.4V114H376M376,114V107.7H402.5M376,114V120.3H402.5M323,120.3V139.1H349.5M349.5,139.1V132.8H376M296.5,147V173.8H323M323,173.8V164.3H349.5M349.5,164.3V158H376M349.5,164.3V170.6H376M323,173.8V183.2H349.5M270,174.5V202.1H296.5M217,322.5V421.9H243.5M243.5,421.9V402.7H270M270,402.7V383.1H296.5M296.5,383.1V362.7H323M323,362.7V347.2H349.5M349.5,347.2V335H376M376,335V323.2H402.5M402.5,323.2V312.2H429M429,312.2V302.7H455.5M429,312.2V321.6H455.5M402.5,323.2V334.2H429M376,335V346.8H402.5M349.5,347.2V359.4H376M323,362.7V378.3H349.5M349.5,378.3V372H376M349.5,378.3V384.5H376M296.5,383.1V403.4H323M323,403.4V397.1H349.5M323,403.4V409.7H349.5M270,402.7V422.3H296.5M243.5,421.9V441.2H270M270,441.2V434.9H296.5M270,441.2V447.5H296.5M190.5,391.3V460.1H217M164,482V572.7H190.5M190.5,572.7V598.5H217M137.5,546.5V611.1H164" stroke="#91bfdb"></path><path d="M349.5,139.1V145.4H376M296.5,202.1V195.8H323M455.5,302.7V296.5H482" stroke="#e2e2a2"></path><path d="M296.5,202.1V208.4H323M455.5,302.7V309H482" stroke="darkgrey"></path><text x="33.5" y="56.4" class="node" fill="#4A6FE3">1</text><text x="60" y="39.9" class="node" fill="#4A6FE3">1</text><text x="86.5" y="25.7" class="node" fill="#4A6FE3">1</text><text x="113" y="16.3" class="node" fill="#4A6FE3">1</text><text x="86.5" y="54" class="node" fill="#4A6FE3">1</text><text x="33.5" y="651.7" class="node" fill="#4A6FE3">1</text><text x="60" y="632.8" class="node" fill="#D85778">0.06</text><text x="86.5" y="613.7" class="node" fill="#D85778">0.06</text><text x="113" y="588.1" class="node" fill="#D85778">0.06</text><text x="139.5" y="549.5" class="node" fill="#D85778">0.06</text><text x="166" y="485" class="node" fill="#4A6FE3">1</text><text x="192.5" y="394.3" class="node" fill="#5374E2">0.98</text><text x="219" y="325.5" class="node" fill="#D4486F">0.02</text><text x="245.5" y="226.1" class="node" fill="#D85778">0.06</text><text x="272" y="177.5" class="node" fill="#D85778">0.06</text><text x="298.5" y="150" class="node" fill="#D85778">0.06</text><text x="325" y="123.3" class="node" fill="#4A6FE3">1</text><text x="351.5" y="104.4" class="node" fill="#E5A8B3">0.31</text><text x="378" y="91.8" class="node" fill="#4A6FE3">1</text><text x="378" y="117" class="node" fill="#D85778">0.06</text><text x="351.5" y="142.1" class="node" fill="#D95A7A">0.07</text><text x="325" y="176.8" class="node" fill="#D95A7A">0.07</text><text x="351.5" y="167.3" class="node" fill="#D85778">0.06</text><text x="298.5" y="205.1" class="node" fill="#D4486F">0.02</text><text x="272" y="274.7" class="node" fill="#D85778">0.06</text><text x="298.5" y="262.5" class="node" fill="#D85778">0.06</text><text x="325" y="250.7" class="node" fill="#4A6FE3">1</text><text x="351.5" y="239.7" class="node" fill="#4A6FE3">1</text><text x="378" y="230.2" class="node" fill="#5B78E2">0.96</text><text x="245.5" y="424.9" class="node" fill="#4A6FE3">1</text><text x="272" y="405.7" class="node" fill="#5B78E2">0.96</text><text x="298.5" y="386.1" class="node" fill="#5F7BE1">0.95</text><text x="325" y="365.7" class="node" fill="#B4BBE3">0.67</text><text x="351.5" y="350.2" class="node" fill="#4A6FE3">1</text><text x="378" y="338" class="node" fill="#4A6FE3">1</text><text x="404.5" y="326.2" class="node" fill="#4A6FE3">1</text><text x="431" y="315.2" class="node" fill="#5B78E2">0.96</text><text x="457.5" y="305.7" class="node" fill="#95A1E2">0.78</text><text x="351.5" y="381.3" class="node" fill="#4A6FE3">1</text><text x="325" y="406.4" class="node" fill="#5B78E2">0.96</text><text x="272" y="444.2" class="node" fill="#D85778">0.06</text><text x="192.5" y="575.7" class="node" fill="#D85778">0.06</text><text x="219" y="550" class="node" fill="#D85778">0.06</text><text x="245.5" y="522" class="node" fill="#D85778">0.06</text><text x="272" y="505.5" class="node" fill="#D85778">0.06</text><text x="298.5" y="491.4" class="node" fill="#E6B4BD">0.35</text><text x="325" y="481.9" class="node" fill="#4A6FE3">1</text><text x="298.5" y="519.7" class="node" fill="#929FE1">0.79</text><text x="245.5" y="577.9" class="node" fill="#4A6FE3">1</text><text x="272" y="566.9" class="node" fill="#4A6FE3">1</text><text x="298.5" y="557.4" class="node" fill="#4A6FE3">1</text><text x="60" y="670.7" class="node" fill="#4A6FE3">1</text></svg>
