<svg xmlns="http://www.w3.org/2000/svg" version="1.1" width="682" height="612" class="tree" data-char="165"><text x="678" y="15.7" text-anchor="end" class="stepsLabel">Character adds <tspan class="score">1</tspan> to tree score</text><text x="678" y="28.4" text-anchor="end" class="stepsLabel"><tspan class="score">0</tspan> additional regions</text><text x="678" y="41.1" text-anchor="end" class="stepsLabel">CI = 1; Fitch CI = 1; Fitch RI = 1</text><text x="678" y="66.5" text-anchor="end" class="stepsLabel"><tspan dy="16">An optimal tree under:</tspan><tspan x="680" style="font-style:italic" class="notThisAn" dy="1.2em">Equal weights</tspan><tspan x="680" style="font-style:italic" class="thisAn" dy="1.2em">Implied weights, k = 2</tspan><tspan x="680" style="font-style:italic" class="notThisAn" dy="1.2em">IW, k = 3</tspan><tspan x="680" style="font-style:italic" class="notThisAn" dy="1.2em">IW, k = 4.5</tspan><tspan x="680" style="font-style:italic" class="notThisAn" dy="1.2em">IW, k = 7</tspan><tspan x="680" style="font-style:italic" class="notThisAn" dy="1.2em">IW, k = 10.5</tspan><tspan x="680" style="font-style:italic" class="notThisAn" dy="1.2em">IW, k = 16</tspan><tspan x="680" style="font-style:italic" class="notThisAn" dy="1.2em">IW, k = 24</tspan></text><text x="100.4" y="594" fill="#e2e2a2" class="flag">[1]</text><text x="122.4" y="594" fill="#000" class="taxonLabel">Tonicella</text><text x="100.4" y="607" fill="grey" class="flag">[?]</text><text x="122.4" y="607" fill="grey" class="taxonLabel">Wiwaxia corrugata</text><text x="76.6" y="581" fill="#e2e2a2" class="flag">[1]</text><text x="98.6" y="581" fill="#000" class="taxonLabel">Dentalium</text><text x="76.6" y="555.1" fill="#e2e2a2" class="flag">[1]</text><text x="98.6" y="555.1" fill="#000" class="taxonLabel">Serpula</text><text x="76.6" y="568.1" fill="lightgrey" class="flag">[-]</text><text x="98.6" y="568.1" fill="lightgrey" class="taxonLabel">Sipunculus</text><text x="148.1" y="529.1" fill="grey" class="flag">[?]</text><text x="170.1" y="529.1" fill="grey" class="taxonLabel">Haplophrentis carinatus</text><text x="148.1" y="542.1" fill="grey" class="flag">[?]</text><text x="170.1" y="542.1" fill="grey" class="taxonLabel">Pedunculotheca diania</text><text x="291.2" y="503.2" fill="grey" class="flag">[?]</text><text x="313.2" y="503.2" fill="grey" class="taxonLabel">Mummpikia nuda</text><text x="291.2" y="516.2" fill="grey" class="flag">[?]</text><text x="313.2" y="516.2" fill="grey" class="taxonLabel">Botsfordia</text><text x="267.4" y="490.2" fill="grey" class="flag">[?]</text><text x="289.4" y="490.2" fill="grey" class="taxonLabel">Eoobolus</text><text x="338.9" y="464.2" fill="grey" class="flag">[?]</text><text x="360.9" y="464.2" fill="grey" class="taxonLabel">Siphonobolus priscus</text><text x="338.9" y="477.2" fill="grey" class="flag">[?]</text><text x="360.9" y="477.2" fill="grey" class="taxonLabel">Acanthotretella spinosa</text><text x="315.1" y="451.3" fill="grey" class="flag">[?]</text><text x="337.1" y="451.3" fill="grey" class="taxonLabel">Clupeafumosus socialis</text><text x="291.2" y="438.3" fill="grey" class="flag">[?]</text><text x="313.2" y="438.3" fill="grey" class="taxonLabel">Lingulosacculus</text><text x="291.2" y="412.3" fill="grey" class="flag">[?]</text><text x="313.2" y="412.3" fill="grey" class="taxonLabel">Lingulellotreta malongensis</text><text x="291.2" y="425.3" fill="#91bfdb" class="flag">[2]</text><text x="313.2" y="425.3" fill="#000" class="taxonLabel">Lingula</text><text x="243.5" y="386.4" fill="grey" class="flag">[?]</text><text x="265.5" y="386.4" fill="grey" class="taxonLabel">Pelagodiscus atlanticus</text><text x="243.5" y="399.3" fill="grey" class="flag">[?]</text><text x="265.5" y="399.3" fill="grey" class="taxonLabel">Mickwitzia muralensis</text><text x="267.4" y="360.4" fill="grey" class="flag">[?]</text><text x="289.4" y="360.4" fill="grey" class="taxonLabel">Micromitra</text><text x="267.4" y="373.4" fill="grey" class="flag">[?]</text><text x="289.4" y="373.4" fill="grey" class="taxonLabel">Askepasma toddense</text><text x="338.9" y="334.5" fill="grey" class="flag">[?]</text><text x="360.9" y="334.5" fill="grey" class="taxonLabel">Antigonambonites planus</text><text x="338.9" y="347.4" fill="grey" class="flag">[?]</text><text x="360.9" y="347.4" fill="grey" class="taxonLabel">Coolinia pecten</text><text x="482" y="308.5" fill="grey" class="flag">[?]</text><text x="504" y="308.5" fill="grey" class="taxonLabel">Orthis</text><text x="482" y="321.5" fill="grey" class="flag">[?]</text><text x="504" y="321.5" fill="grey" class="taxonLabel">Terebratulina</text><text x="458.2" y="295.5" fill="grey" class="flag">[?]</text><text x="480.2" y="295.5" fill="grey" class="taxonLabel">Alisina</text><text x="434.3" y="282.5" fill="grey" class="flag">[?]</text><text x="456.3" y="282.5" fill="grey" class="taxonLabel">Longtancunella chengjiangensis</text><text x="410.5" y="269.6" fill="grey" class="flag">[?]</text><text x="432.5" y="269.6" fill="grey" class="taxonLabel">Glyptoria</text><text x="386.6" y="256.6" fill="grey" class="flag">[?]</text><text x="408.6" y="256.6" fill="grey" class="taxonLabel">Tomteluva perturbata</text><text x="362.8" y="243.6" fill="grey" class="flag">[?]</text><text x="384.8" y="243.6" fill="grey" class="taxonLabel">Nisusia sulcata</text><text x="338.9" y="230.6" fill="grey" class="flag">[?]</text><text x="360.9" y="230.6" fill="grey" class="taxonLabel">Kutorgina chengjiangensis</text><text x="291.2" y="217.7" fill="grey" class="flag">[?]</text><text x="313.2" y="217.7" fill="grey" class="taxonLabel">Yuganotheca elegans</text><text x="267.4" y="204.7" fill="grey" class="flag">[?]</text><text x="289.4" y="204.7" fill="grey" class="taxonLabel">Salanygolina</text><text x="291.2" y="178.7" fill="grey" class="flag">[?]</text><text x="313.2" y="178.7" fill="grey" class="taxonLabel">Craniops</text><text x="291.2" y="191.7" fill="#91bfdb" class="flag">[2]</text><text x="313.2" y="191.7" fill="#000" class="taxonLabel">Novocrania</text><text x="267.4" y="165.7" fill="grey" class="flag">[?]</text><text x="289.4" y="165.7" fill="grey" class="taxonLabel">Ussunia</text><text x="243.5" y="152.8" fill="grey" class="flag">[?]</text><text x="265.5" y="152.8" fill="grey" class="taxonLabel">Gasconsia</text><text x="172" y="139.8" fill="grey" class="flag">[?]</text><text x="194" y="139.8" fill="grey" class="taxonLabel">Micrina</text><text x="148.1" y="126.8" fill="grey" class="flag">[?]</text><text x="170.1" y="126.8" fill="grey" class="taxonLabel">Paterimitra</text><text x="100.4" y="113.8" fill="grey" class="flag">[?]</text><text x="122.4" y="113.8" fill="grey" class="taxonLabel">Heliomedusa orienta</text><text x="100.4" y="87.9" fill="grey" class="flag">[?]</text><text x="122.4" y="87.9" fill="grey" class="taxonLabel">Namacalathus</text><text x="100.4" y="100.8" fill="#91bfdb" class="flag">[2]</text><text x="122.4" y="100.8" fill="#000" class="taxonLabel">Phoronis</text><text x="172" y="48.9" fill="grey" class="flag">[?]</text><text x="194" y="48.9" fill="grey" class="taxonLabel">Dailyatia</text><text x="172" y="61.9" fill="grey" class="flag">[?]</text><text x="194" y="61.9" fill="grey" class="taxonLabel">Halkieria evangelista</text><text x="148.1" y="36" fill="grey" class="flag">[?]</text><text x="170.1" y="36" fill="grey" class="taxonLabel">Cotyledion tylodes</text><text x="124.2" y="23" fill="#e2e2a2" class="flag">[1]</text><text x="146.2" y="23" fill="#000" class="taxonLabel">Loxosomella</text><text x="100.4" y="10" fill="#e2e2a2" class="flag">[1]</text><text x="122.4" y="10" fill="#000" class="taxonLabel">Flustra</text><text x="76.6" y="74.9" fill="grey" class="flag">[?]</text><text x="98.6" y="74.9" fill="grey" class="taxonLabel">Eccentrotheca</text><path d="M5,338.5V103.9H28.9M28.9,103.9V45.5H52.7M52.7,45.5V19.2H76.6M76.6,19.2V7H100.4M76.6,19.2V31.3H100.4M100.4,31.3V20H124.2M100.4,31.3V42.7H124.2M124.2,42.7V33H148.1M124.2,42.7V52.4H148.1M148.1,52.4V45.9H172M148.1,52.4V58.9H172M52.7,45.5V71.9H76.6M5,338.5V573.2H28.9M28.9,573.2V558.6H52.7M52.7,558.6V552.1H76.6M28.9,573.2V587.8H52.7M52.7,587.8V578H76.6M52.7,587.8V597.5H76.6M76.6,597.5V591H100.4M76.6,597.5V604H100.4" stroke="#e2e2a2"></path><path d="M28.9,103.9V162.2H52.7M52.7,162.2V91.4H76.6M76.6,91.4V84.9H100.4M76.6,91.4V97.8H100.4M52.7,162.2V233.1H76.6M76.6,233.1V110.8H100.4M76.6,233.1V355.3H100.4M100.4,355.3V178H124.2M124.2,178V123.8H148.1M124.2,178V232.2H148.1M148.1,232.2V136.8H172M148.1,232.2V327.6H172M172,327.6V228.2H195.8M195.8,228.2V161.1H219.7M219.7,161.1V149.8H243.5M219.7,161.1V172.5H243.5M243.5,172.5V162.7H267.4M243.5,172.5V182.2H267.4M267.4,182.2V175.7H291.2M267.4,182.2V188.7H291.2M195.8,228.2V295.4H219.7M219.7,295.4V226.8H243.5M243.5,226.8V201.7H267.4M243.5,226.8V251.9H267.4M267.4,251.9V214.7H291.2M267.4,251.9V289.2H291.2M291.2,289.2V240.5H315.1M315.1,240.5V227.6H338.9M315.1,240.5V253.4H338.9M338.9,253.4V240.6H362.8M338.9,253.4V266.2H362.8M362.8,266.2V253.6H386.6M362.8,266.2V278.7H386.6M386.6,278.7V266.6H410.5M386.6,278.7V290.9H410.5M410.5,290.9V279.5H434.3M410.5,290.9V302.3H434.3M434.3,302.3V292.5H458.2M434.3,302.3V312H458.2M458.2,312V305.5H482M458.2,312V318.5H482M291.2,289.2V337.9H315.1M315.1,337.9V331.5H338.9M315.1,337.9V344.4H338.9M219.7,295.4V363.9H243.5M243.5,363.9V357.4H267.4M243.5,363.9V370.4H267.4M172,327.6V427H195.8M195.8,427V389.9H219.7M219.7,389.9V383.4H243.5M219.7,389.9V396.3H243.5M195.8,427V464.1H219.7M219.7,464.1V431.2H243.5M243.5,431.2V415.8H267.4M267.4,415.8V409.3H291.2M267.4,415.8V422.3H291.2M243.5,431.2V446.6H267.4M267.4,446.6V435.3H291.2M267.4,446.6V458H291.2M291.2,458V448.3H315.1M291.2,458V467.7H315.1M315.1,467.7V461.2H338.9M315.1,467.7V474.2H338.9M219.7,464.1V496.9H243.5M243.5,496.9V487.2H267.4M243.5,496.9V506.7H267.4M267.4,506.7V500.2H291.2M267.4,506.7V513.2H291.2M100.4,355.3V532.6H124.2M124.2,532.6V526.1H148.1M124.2,532.6V539.1H148.1" stroke="#91bfdb"></path><path d="M52.7,558.6V565.1H76.6" stroke="lightgrey" class="inapplicable"></path><text x="7" y="341.5" class="node" fill="#4A6FE3">1</text><text x="30.9" y="106.9" class="node" fill="#4A6FE3">1</text><text x="54.7" y="48.5" class="node" fill="#D3446C">0.01</text><text x="78.6" y="22.2" class="node" fill="#D3446C">0.01</text><text x="102.4" y="34.3" class="node" fill="#D3446C">0.01</text><text x="126.2" y="45.7" class="node" fill="#D54C71">0.03</text><text x="150.1" y="55.4" class="node" fill="#CFD2E3">0.58</text><text x="54.7" y="165.2" class="node" fill="#D3446C">0.01</text><text x="78.6" y="94.4" class="node" fill="#E6BAC2">0.37</text><text x="78.6" y="236.1" class="node" fill="#4A6FE3">1</text><text x="102.4" y="358.3" class="node" fill="#E5CDD1">0.43</text><text x="126.2" y="181" class="node" fill="#E5CDD1">0.43</text><text x="150.1" y="235.2" class="node" fill="#E5CDD1">0.43</text><text x="174" y="330.6" class="node" fill="#E5CDD1">0.43</text><text x="197.8" y="231.2" class="node" fill="#E5CDD1">0.43</text><text x="221.7" y="164.1" class="node" fill="#E5CDD1">0.43</text><text x="245.5" y="175.5" class="node" fill="#667FE1">0.93</text><text x="269.4" y="185.2" class="node" fill="#4A6FE3">1</text><text x="221.7" y="298.4" class="node" fill="#E4D9DB">0.47</text><text x="245.5" y="229.8" class="node" fill="#4A6FE3">1</text><text x="269.4" y="254.9" class="node" fill="#E392A2">0.24</text><text x="293.2" y="292.2" class="node" fill="#DF798F">0.16</text><text x="317.1" y="243.5" class="node" fill="#DB617F">0.09</text><text x="340.9" y="256.4" class="node" fill="#DB617F">0.09</text><text x="364.8" y="269.2" class="node" fill="#DB617F">0.09</text><text x="388.6" y="281.7" class="node" fill="#768BE1">0.88</text><text x="412.5" y="293.9" class="node" fill="#768BE1">0.88</text><text x="436.3" y="305.3" class="node" fill="#4A6FE3">1</text><text x="460.2" y="315" class="node" fill="#6982E1">0.92</text><text x="317.1" y="340.9" class="node" fill="#4A6FE3">1</text><text x="245.5" y="366.9" class="node" fill="#C4C9E3">0.61</text><text x="197.8" y="430" class="node" fill="#E5D0D3">0.44</text><text x="221.7" y="392.9" class="node" fill="#4A6FE3">1</text><text x="221.7" y="467.1" class="node" fill="#4A6FE3">1</text><text x="245.5" y="434.2" class="node" fill="#E5CDD1">0.43</text><text x="269.4" y="418.8" class="node" fill="#E5CDD1">0.43</text><text x="269.4" y="449.6" class="node" fill="#97A4E2">0.77</text><text x="293.2" y="461" class="node" fill="#DDDEE3">0.52</text><text x="317.1" y="470.7" class="node" fill="#4A6FE3">1</text><text x="245.5" y="499.9" class="node" fill="#E5D0D3">0.44</text><text x="269.4" y="509.7" class="node" fill="#E5CDD1">0.43</text><text x="126.2" y="535.6" class="node" fill="#4A6FE3">1</text><text x="30.9" y="576.2" class="node" fill="#4A6FE3">1</text><text x="54.7" y="561.6" class="node" fill="#4A6FE3">1</text><text x="54.7" y="590.8" class="node" fill="#4A6FE3">1</text><text x="78.6" y="600.5" class="node" fill="#E28699">0.2</text></svg>
