<svg xmlns="http://www.w3.org/2000/svg" version="1.1" width="682" height="612" class="tree" data-char="140"><text x="678" y="14.3" text-anchor="end" class="stepsLabel">Character adds <tspan class="score">1</tspan> to tree score</text><text x="678" y="25.6" text-anchor="end" class="stepsLabel"><tspan class="score">0</tspan> additional regions</text><text x="678" y="36.9" text-anchor="end" class="stepsLabel">CI = 1; Fitch CI = 1; Fitch RI = 1</text><text x="678" y="59.5" text-anchor="end" class="stepsLabel"><tspan dy="16" fill="#34caaf">An optimal tree under:</tspan><tspan x="680" style="font-style:italic" class="thisAn" dy="1.2em">Equal weights</tspan><tspan x="680" style="font-style:italic" class="notThisAn" dy="1.2em">Implied weights, k = 2</tspan><tspan x="680" style="font-style:italic" class="notThisAn" dy="1.2em">IW, k = 3</tspan><tspan x="680" style="font-style:italic" class="notThisAn" dy="1.2em">IW, k = 4.5</tspan><tspan x="680" style="font-style:italic" class="notThisAn" dy="1.2em">IW, k = 7</tspan><tspan x="680" style="font-style:italic" class="notThisAn" dy="1.2em">IW, k = 10.5</tspan><tspan x="680" style="font-style:italic" class="notThisAn" dy="1.2em">IW, k = 16</tspan><tspan x="680" style="font-style:italic" class="notThisAn" dy="1.2em">IW, k = 24</tspan></text><text x="88" y="595.5" fill="grey" class="flag">[?]</text><text x="110" y="595.5" fill="#999" class="taxonLabel">Wiwaxia corrugata</text><text x="88" y="607" fill="#fc8d59" class="flag">[0]</text><text x="110" y="607" fill="#000" class="taxonLabel">Dentalium</text><text x="67.2" y="584" fill="#fc8d59" class="flag">[0]</text><text x="89.2" y="584" fill="#000" class="taxonLabel">Tonicella</text><text x="67.2" y="561.1" fill="#91bfdb" class="flag">[1]</text><text x="89.2" y="561.1" fill="#000" class="taxonLabel">Sipunculus</text><text x="67.2" y="572.6" fill="#91bfdb" class="flag">[1]</text><text x="89.2" y="572.6" fill="#000" class="taxonLabel">Serpula</text><text x="150.2" y="526.6" fill="grey" class="flag">[?]</text><text x="172.2" y="526.6" fill="#999" class="taxonLabel">Dailyatia</text><text x="150.2" y="538.1" fill="grey" class="flag">[?]</text><text x="172.2" y="538.1" fill="#999" class="taxonLabel">Cotyledion tylodes</text><text x="440.5" y="503.7" fill="grey" class="flag">[?]</text><text x="462.5" y="503.7" fill="#999" class="taxonLabel">Acanthotretella spinosa</text><text x="440.5" y="515.2" fill="grey" class="flag">[?]</text><text x="462.5" y="515.2" fill="#999" class="taxonLabel">Siphonobolus priscus</text><text x="419.8" y="492.2" fill="grey" class="flag">[?]</text><text x="441.8" y="492.2" fill="#999" class="taxonLabel">Clupeafumosus socialis</text><text x="419.8" y="469.2" fill="grey" class="flag">[?]</text><text x="441.8" y="469.2" fill="#999" class="taxonLabel">Lingulosacculus</text><text x="419.8" y="480.7" fill="grey" class="flag">[?]</text><text x="441.8" y="480.7" fill="#999" class="taxonLabel">Lingulellotreta malongensis</text><text x="378.3" y="457.7" fill="grey" class="flag">[?]</text><text x="400.3" y="457.7" fill="#999" class="taxonLabel">Botsfordia</text><text x="357.6" y="446.3" fill="grey" class="flag">[?]</text><text x="379.6" y="446.3" fill="#999" class="taxonLabel">Mummpikia nuda</text><text x="336.8" y="434.8" fill="grey" class="flag">[?]</text><text x="358.8" y="434.8" fill="#999" class="taxonLabel">Eoobolus</text><text x="316.1" y="423.3" fill="#fc8d59" class="flag">[0]</text><text x="338.1" y="423.3" fill="#000" class="taxonLabel">Lingula</text><text x="316.1" y="400.3" fill="grey" class="flag">[?]</text><text x="338.1" y="400.3" fill="#999" class="taxonLabel">Pelagodiscus atlanticus</text><text x="316.1" y="411.8" fill="grey" class="flag">[?]</text><text x="338.1" y="411.8" fill="#999" class="taxonLabel">Mickwitzia muralensis</text><text x="399" y="377.4" fill="grey" class="flag">[?]</text><text x="421" y="377.4" fill="#999" class="taxonLabel">Antigonambonites planus</text><text x="399" y="388.9" fill="grey" class="flag">[?]</text><text x="421" y="388.9" fill="#999" class="taxonLabel">Coolinia pecten</text><text x="482" y="354.4" fill="grey" class="flag">[?]</text><text x="504" y="354.4" fill="#999" class="taxonLabel">Terebratulina</text><text x="482" y="365.9" fill="grey" class="flag">[?]</text><text x="504" y="365.9" fill="#999" class="taxonLabel">Orthis</text><text x="461.3" y="342.9" fill="grey" class="flag">[?]</text><text x="483.3" y="342.9" fill="#999" class="taxonLabel">Alisina</text><text x="440.5" y="331.5" fill="grey" class="flag">[?]</text><text x="462.5" y="331.5" fill="#999" class="taxonLabel">Glyptoria</text><text x="419.8" y="320" fill="grey" class="flag">[?]</text><text x="441.8" y="320" fill="#999" class="taxonLabel">Nisusia sulcata</text><text x="399" y="308.5" fill="grey" class="flag">[?]</text><text x="421" y="308.5" fill="#999" class="taxonLabel">Kutorgina chengjiangensis</text><text x="357.6" y="297" fill="grey" class="flag">[?]</text><text x="379.6" y="297" fill="#999" class="taxonLabel">Longtancunella chengjiangensis</text><text x="357.6" y="274.1" fill="grey" class="flag">[?]</text><text x="379.6" y="274.1" fill="#999" class="taxonLabel">Tomteluva perturbata</text><text x="357.6" y="285.5" fill="grey" class="flag">[?]</text><text x="379.6" y="285.5" fill="#999" class="taxonLabel">Yuganotheca elegans</text><text x="316.1" y="262.6" fill="grey" class="flag">[?]</text><text x="338.1" y="262.6" fill="#999" class="taxonLabel">Salanygolina</text><text x="316.1" y="239.6" fill="grey" class="flag">[?]</text><text x="338.1" y="239.6" fill="#999" class="taxonLabel">Askepasma toddense</text><text x="316.1" y="251.1" fill="grey" class="flag">[?]</text><text x="338.1" y="251.1" fill="#999" class="taxonLabel">Micromitra</text><text x="378.3" y="216.7" fill="grey" class="flag">[?]</text><text x="400.3" y="216.7" fill="#999" class="taxonLabel">Conotheca</text><text x="378.3" y="228.1" fill="grey" class="flag">[?]</text><text x="400.3" y="228.1" fill="#999" class="taxonLabel">Probactrotheca</text><text x="378.3" y="193.7" fill="grey" class="flag">[?]</text><text x="400.3" y="193.7" fill="#999" class="taxonLabel">Maxilites</text><text x="378.3" y="205.2" fill="grey" class="flag">[?]</text><text x="400.3" y="205.2" fill="#999" class="taxonLabel">Pauxillites</text><text x="357.6" y="170.7" fill="grey" class="flag">[?]</text><text x="379.6" y="170.7" fill="#999" class="taxonLabel">Haplophrentis carinatus</text><text x="357.6" y="182.2" fill="grey" class="flag">[?]</text><text x="379.6" y="182.2" fill="#999" class="taxonLabel">Decoritheca</text><text x="316.1" y="159.2" fill="grey" class="flag">[?]</text><text x="338.1" y="159.2" fill="#999" class="taxonLabel">Pedunculotheca diania</text><text x="295.3" y="147.8" fill="grey" class="flag">[?]</text><text x="317.3" y="147.8" fill="#999" class="taxonLabel">Paterimitra</text><text x="274.6" y="136.3" fill="grey" class="flag">[?]</text><text x="296.6" y="136.3" fill="#999" class="taxonLabel">Micrina</text><text x="233.1" y="124.8" fill="grey" class="flag">[?]</text><text x="255.1" y="124.8" fill="#999" class="taxonLabel">Heliomedusa orienta</text><text x="212.4" y="113.3" fill="grey" class="flag">[?]</text><text x="234.4" y="113.3" fill="#999" class="taxonLabel">Gasconsia</text><text x="233.1" y="90.4" fill="#fc8d59" class="flag">[0]</text><text x="255.1" y="90.4" fill="#000" class="taxonLabel">Novocrania</text><text x="233.1" y="101.8" fill="grey" class="flag">[?]</text><text x="255.1" y="101.8" fill="#999" class="taxonLabel">Craniops</text><text x="212.4" y="78.9" fill="grey" class="flag">[?]</text><text x="234.4" y="78.9" fill="#999" class="taxonLabel">Ussunia</text><text x="170.9" y="67.4" fill="grey" class="flag">[?]</text><text x="192.9" y="67.4" fill="#999" class="taxonLabel">Halkieria evangelista</text><text x="150.2" y="55.9" fill="grey" class="flag">[?]</text><text x="172.2" y="55.9" fill="#999" class="taxonLabel">Namacalathus</text><text x="108.7" y="44.4" fill="grey" class="flag">[?]</text><text x="130.7" y="44.4" fill="#999" class="taxonLabel">Eccentrotheca</text><text x="88" y="33" fill="#fc8d59" class="flag">[0]</text><text x="110" y="33" fill="#000" class="taxonLabel">Phoronis</text><text x="88" y="10" fill="#fc8d59" class="flag">[0]</text><text x="110" y="10" fill="#000" class="taxonLabel">Flustra</text><text x="88" y="21.5" fill="#fc8d59" class="flag">[0]</text><text x="110" y="21.5" fill="#000" class="taxonLabel">Amathia</text><text x="46.5" y="549.6" fill="#fc8d59" class="flag">[0]</text><text x="68.5" y="549.6" fill="#000" class="taxonLabel">Loxosomella</text><path d="M5,439.2V301.6H25.7M25.7,301.6V56.6H46.5M46.5,56.6V12.7H67.2M67.2,12.7V7H88M67.2,12.7V18.5H88M46.5,56.6V100.4H67.2M67.2,100.4V30H88M67.2,100.4V170.9H88M88,170.9V41.4H108.7M88,170.9V300.4H108.7M108.7,300.4V71.4H129.4M129.4,71.4V52.9H150.2M129.4,71.4V89.9H150.2M150.2,89.9V64.4H170.9M150.2,89.9V115.4H170.9M170.9,115.4V84.5H191.7M191.7,84.5V75.9H212.4M191.7,84.5V93.1H212.4M212.4,93.1V87.4H233.1M212.4,93.1V98.8H233.1M170.9,115.4V146.3H191.7M191.7,146.3V110.3H212.4M191.7,146.3V182.3H212.4M212.4,182.3V121.8H233.1M212.4,182.3V242.7H233.1M233.1,242.7V146.2H253.9M253.9,146.2V133.3H274.6M253.9,146.2V159.1H274.6M274.6,159.1V144.8H295.3M274.6,159.1V173.5H295.3M295.3,173.5V156.2H316.1M295.3,173.5V190.7H316.1M316.1,190.7V173.5H336.8M336.8,173.5V167.7H357.6M336.8,173.5V179.2H357.6M316.1,190.7V207.9H336.8M336.8,207.9V196.4H357.6M357.6,196.4V190.7H378.3M357.6,196.4V202.2H378.3M336.8,207.9V219.4H357.6M357.6,219.4V213.7H378.3M357.6,219.4V225.1H378.3M233.1,242.7V339.2H253.9M253.9,339.2V260.8H274.6M274.6,260.8V242.4H295.3M295.3,242.4V236.6H316.1M295.3,242.4V248.1H316.1M274.6,260.8V279.3H295.3M295.3,279.3V259.6H316.1M295.3,279.3V299H316.1M316.1,299V276.8H336.8M336.8,276.8V271.1H357.6M336.8,276.8V282.5H357.6M316.1,299V321.2H336.8M336.8,321.2V294H357.6M336.8,321.2V348.4H357.6M357.6,348.4V316.6H378.3M378.3,316.6V305.5H399M378.3,316.6V327.7H399M399,327.7V317H419.8M399,327.7V338.5H419.8M419.8,338.5V328.5H440.5M419.8,338.5V348.6H440.5M440.5,348.6V339.9H461.3M440.5,348.6V357.2H461.3M461.3,357.2V351.4H482M461.3,357.2V362.9H482M357.6,348.4V380.1H378.3M378.3,380.1V374.4H399M378.3,380.1V385.9H399M253.9,339.2V417.7H274.6M274.6,417.7V403.1H295.3M295.3,403.1V397.3H316.1M295.3,403.1V408.8H316.1M274.6,417.7V432.2H295.3M295.3,432.2V420.3H316.1M295.3,432.2V444.2H316.1M316.1,444.2V431.8H336.8M316.1,444.2V456.5H336.8M336.8,456.5V443.3H357.6M336.8,456.5V469.8H357.6M357.6,469.8V454.7H378.3M357.6,469.8V484.9H378.3M378.3,484.9V472H399M399,472V466.2H419.8M399,472V477.7H419.8M378.3,484.9V497.8H399M399,497.8V489.2H419.8M399,497.8V506.4H419.8M419.8,506.4V500.7H440.5M419.8,506.4V512.2H440.5M108.7,300.4V529.4H129.4M129.4,529.4V523.6H150.2M129.4,529.4V535.1H150.2M25.7,301.6V546.6H46.5M5,439.2V576.7H25.7M25.7,576.7V589.6H46.5M46.5,589.6V581H67.2M46.5,589.6V598.3H67.2M67.2,598.3V592.5H88M67.2,598.3V604H88" stroke="#fc8d59"></path><path d="M25.7,576.7V563.8H46.5M46.5,563.8V558.1H67.2M46.5,563.8V569.6H67.2" stroke="#91bfdb"></path><text x="7" y="442.2" class="node" fill="#4A6FE3">1</text><text x="27.7" y="304.6" class="node" fill="#4A6FE3">1</text><text x="48.5" y="59.6" class="node" fill="#4A6FE3">1</text><text x="69.2" y="15.7" class="node" fill="#4A6FE3">1</text><text x="69.2" y="103.4" class="node" fill="#4A6FE3">1</text><text x="90" y="173.9" class="node" fill="#4A6FE3">1</text><text x="110.7" y="303.4" class="node" fill="#E3DCDD">0.48</text><text x="131.4" y="74.4" class="node" fill="#DC6884">0.11</text><text x="152.2" y="92.9" class="node" fill="#4A6FE3">1</text><text x="172.9" y="118.4" class="node" fill="#4A6FE3">1</text><text x="193.7" y="87.5" class="node" fill="#4A6FE3">1</text><text x="214.4" y="96.1" class="node" fill="#4A6FE3">1</text><text x="193.7" y="149.3" class="node" fill="#4A6FE3">1</text><text x="214.4" y="185.3" class="node" fill="#4A6FE3">1</text><text x="235.1" y="245.7" class="node" fill="#4A6FE3">1</text><text x="255.9" y="149.2" class="node" fill="#4A6FE3">1</text><text x="276.6" y="162.1" class="node" fill="#4A6FE3">1</text><text x="297.3" y="176.5" class="node" fill="#4A6FE3">1</text><text x="318.1" y="193.7" class="node" fill="#4A6FE3">1</text><text x="338.8" y="176.5" class="node" fill="#DE728B">0.14</text><text x="338.8" y="210.9" class="node" fill="#E0E0E2">0.51</text><text x="359.6" y="199.4" class="node" fill="#4A6FE3">1</text><text x="359.6" y="222.4" class="node" fill="#4A6FE3">1</text><text x="255.9" y="342.2" class="node" fill="#4A6FE3">1</text><text x="276.6" y="263.8" class="node" fill="#6982E1">0.92</text><text x="297.3" y="245.4" class="node" fill="#4A6FE3">1</text><text x="297.3" y="282.3" class="node" fill="#4A6FE3">1</text><text x="318.1" y="302" class="node" fill="#E5D0D3">0.44</text><text x="338.8" y="279.8" class="node" fill="#5374E2">0.98</text><text x="338.8" y="324.2" class="node" fill="#B1B8E2">0.68</text><text x="359.6" y="351.4" class="node" fill="#8F9DE1">0.8</text><text x="380.3" y="319.6" class="node" fill="#8394E1">0.84</text><text x="401" y="330.7" class="node" fill="#C7CBE3">0.6</text><text x="421.8" y="341.5" class="node" fill="#6D84E1">0.91</text><text x="442.5" y="351.6" class="node" fill="#667FE1">0.93</text><text x="463.3" y="360.2" class="node" fill="#C4C9E3">0.61</text><text x="380.3" y="383.1" class="node" fill="#4A6FE3">1</text><text x="276.6" y="420.7" class="node" fill="#4A6FE3">1</text><text x="297.3" y="406.1" class="node" fill="#4A6FE3">1</text><text x="297.3" y="435.2" class="node" fill="#4A6FE3">1</text><text x="318.1" y="447.2" class="node" fill="#4A6FE3">1</text><text x="338.8" y="459.5" class="node" fill="#8091E1">0.85</text><text x="359.6" y="472.8" class="node" fill="#8091E1">0.85</text><text x="380.3" y="487.9" class="node" fill="#8091E1">0.85</text><text x="401" y="475" class="node" fill="#E38FA0">0.23</text><text x="401" y="500.8" class="node" fill="#D2D4E3">0.57</text><text x="421.8" y="509.4" class="node" fill="#4A6FE3">1</text><text x="131.4" y="532.4" class="node" fill="#DC6884">0.11</text><text x="27.7" y="579.7" class="node" fill="#4A6FE3">1</text><text x="48.5" y="566.8" class="node" fill="#4A6FE3">1</text><text x="48.5" y="592.6" class="node" fill="#4A6FE3">1</text><text x="69.2" y="601.3" class="node" fill="#4A6FE3">1</text></svg>
