<svg xmlns="http://www.w3.org/2000/svg" version="1.1" width="682" height="612" class="tree" data-char="3"><text x="678" y="16" text-anchor="end" class="stepsLabel">Character adds <tspan class="score">1</tspan> to tree score</text><text x="678" y="29" text-anchor="end" class="stepsLabel"><tspan class="score">0</tspan> additional regions</text><text x="678" y="42" text-anchor="end" class="stepsLabel">CI = 1; Fitch CI = 1; Fitch RI = n/a</text><text x="678" y="68" text-anchor="end" class="stepsLabel"><tspan dy="16">An optimal tree under:</tspan><tspan x="680" style="font-style:italic" class="thisAn" dy="1.2em">Equal weights</tspan><tspan x="680" style="font-style:italic" class="notThisAn" dy="1.2em">Implied weights, k = 2</tspan><tspan x="680" style="font-style:italic" class="notThisAn" dy="1.2em">IW, k = 3</tspan><tspan x="680" style="font-style:italic" class="notThisAn" dy="1.2em">IW, k = 4.5</tspan><tspan x="680" style="font-style:italic" class="notThisAn" dy="1.2em">IW, k = 7</tspan><tspan x="680" style="font-style:italic" class="notThisAn" dy="1.2em">IW, k = 10.5</tspan></text><text x="84.5" y="593.7" fill="lightgrey" class="flag">[-]</text><text x="106.5" y="593.7" fill="lightgrey" class="taxonLabel">Tonicella</text><text x="84.5" y="607" fill="lightgrey" class="flag">[-]</text><text x="106.5" y="607" fill="lightgrey" class="taxonLabel">Dentalium</text><text x="111" y="567.2" fill="lightgrey" class="flag">[-]</text><text x="133" y="567.2" fill="lightgrey" class="taxonLabel">Sipunculus</text><text x="111" y="580.5" fill="lightgrey" class="flag">[-]</text><text x="133" y="580.5" fill="lightgrey" class="taxonLabel">Serpula</text><text x="84.5" y="553.9" fill="grey" class="flag">[?]</text><text x="106.5" y="553.9" fill="grey" class="taxonLabel">Wiwaxia corrugata</text><text x="402.5" y="514.1" fill="#91bfdb" class="flag">[2]</text><text x="424.5" y="514.1" fill="#000" class="taxonLabel">Siphonobolus priscus</text><text x="402.5" y="527.4" fill="grey" class="flag">[?]</text><text x="424.5" y="527.4" fill="grey" class="taxonLabel">Acanthotretella spinosa</text><text x="376" y="500.9" fill="#91bfdb" class="flag">[2]</text><text x="398" y="500.9" fill="#000" class="taxonLabel">Clupeafumosus socialis</text><text x="349.5" y="487.6" fill="grey" class="flag">[?]</text><text x="371.5" y="487.6" fill="grey" class="taxonLabel">Lingulosacculus</text><text x="323" y="474.3" fill="grey" class="flag">[?]</text><text x="345" y="474.3" fill="grey" class="taxonLabel">Lingulellotreta malongensis</text><text x="296.5" y="461.1" fill="#91bfdb" class="flag">[2]</text><text x="318.5" y="461.1" fill="#000" class="taxonLabel">Botsfordia</text><text x="270" y="447.8" fill="grey" class="flag">[?]</text><text x="292" y="447.8" fill="grey" class="taxonLabel">Mummpikia nuda</text><text x="243.5" y="434.5" fill="#91bfdb" class="flag">[2]</text><text x="265.5" y="434.5" fill="#000" class="taxonLabel">Eoobolus</text><text x="217" y="421.3" fill="#e2e2a2" class="flag">[1]</text><text x="239" y="421.3" fill="#000" class="taxonLabel">Lingula</text><text x="243.5" y="394.7" fill="#91bfdb" class="flag">[2]</text><text x="265.5" y="394.7" fill="#000" class="taxonLabel">Pelagodiscus atlanticus</text><text x="243.5" y="408" fill="#91bfdb" class="flag">[2]</text><text x="265.5" y="408" fill="#000" class="taxonLabel">Mickwitzia muralensis</text><text x="217" y="381.5" fill="#91bfdb" class="flag">[2]</text><text x="239" y="381.5" fill="#000" class="taxonLabel">Micrina</text><text x="270" y="354.9" fill="#91bfdb" class="flag">[2]</text><text x="292" y="354.9" fill="#000" class="taxonLabel">Craniops</text><text x="270" y="368.2" fill="lightgrey" class="flag">[-]</text><text x="292" y="368.2" fill="lightgrey" class="taxonLabel">Novocrania</text><text x="243.5" y="341.7" fill="grey" class="flag">[?]</text><text x="265.5" y="341.7" fill="grey" class="taxonLabel">Ussunia</text><text x="217" y="328.4" fill="lightgrey" class="flag">[-]</text><text x="239" y="328.4" fill="lightgrey" class="taxonLabel">Gasconsia</text><text x="243.5" y="301.9" fill="#91bfdb" class="flag">[2]</text><text x="265.5" y="301.9" fill="#000" class="taxonLabel">Askepasma toddense</text><text x="243.5" y="315.1" fill="#91bfdb" class="flag">[2]</text><text x="265.5" y="315.1" fill="#000" class="taxonLabel">Micromitra</text><text x="349.5" y="275.3" fill="#91bfdb" class="flag">[2]</text><text x="371.5" y="275.3" fill="#000" class="taxonLabel">Coolinia pecten</text><text x="349.5" y="288.6" fill="#91bfdb" class="flag">[2]</text><text x="371.5" y="288.6" fill="#000" class="taxonLabel">Antigonambonites planus</text><text x="482" y="248.8" fill="lightgrey" class="flag">[-]</text><text x="504" y="248.8" fill="lightgrey" class="taxonLabel">Terebratulina</text><text x="482" y="262.1" fill="lightgrey" class="flag">[-]</text><text x="504" y="262.1" fill="lightgrey" class="taxonLabel">Orthis</text><text x="455.5" y="235.5" fill="lightgrey" class="flag">[-]</text><text x="477.5" y="235.5" fill="lightgrey" class="taxonLabel">Alisina</text><text x="429" y="222.3" fill="grey" class="flag">[?]</text><text x="451" y="222.3" fill="grey" class="taxonLabel">Longtancunella chengjiangensis</text><text x="402.5" y="209" fill="lightgrey" class="flag">[-]</text><text x="424.5" y="209" fill="lightgrey" class="taxonLabel">Glyptoria</text><text x="376" y="195.7" fill="lightgrey" class="flag">[-]</text><text x="398" y="195.7" fill="lightgrey" class="taxonLabel">Nisusia sulcata</text><text x="349.5" y="182.5" fill="lightgrey" class="flag">[-]</text><text x="371.5" y="182.5" fill="lightgrey" class="taxonLabel">Kutorgina chengjiangensis</text><text x="296.5" y="169.2" fill="lightgrey" class="flag">[-]</text><text x="318.5" y="169.2" fill="lightgrey" class="taxonLabel">Tomteluva perturbata</text><text x="270" y="155.9" fill="grey" class="flag">[?]</text><text x="292" y="155.9" fill="grey" class="taxonLabel">Yuganotheca elegans</text><text x="243.5" y="142.7" fill="#91bfdb" class="flag">[2]</text><text x="265.5" y="142.7" fill="#000" class="taxonLabel">Salanygolina</text><text x="190.5" y="116.1" fill="#91bfdb" class="flag">[2]</text><text x="212.5" y="116.1" fill="#000" class="taxonLabel">Haplophrentis carinatus</text><text x="190.5" y="129.4" fill="grey" class="flag">[12]</text><text x="212.5" y="129.4" fill="grey" class="taxonLabel">Pedunculotheca diania</text><text x="164" y="102.9" fill="#91bfdb" class="flag">[2]</text><text x="186" y="102.9" fill="#000" class="taxonLabel">Paterimitra</text><text x="111" y="89.6" fill="grey" class="flag">[?]</text><text x="133" y="89.6" fill="grey" class="taxonLabel">Heliomedusa orienta</text><text x="164" y="63.1" fill="lightgrey" class="flag">[-]</text><text x="186" y="63.1" fill="lightgrey" class="taxonLabel">Dailyatia</text><text x="164" y="76.3" fill="grey" class="flag">[?]</text><text x="186" y="76.3" fill="grey" class="taxonLabel">Eccentrotheca</text><text x="137.5" y="49.8" fill="grey" class="flag">[?]</text><text x="159.5" y="49.8" fill="grey" class="taxonLabel">Cotyledion tylodes</text><text x="164" y="10" fill="lightgrey" class="flag">[-]</text><text x="186" y="10" fill="lightgrey" class="taxonLabel">Flustra</text><text x="164" y="23.3" fill="lightgrey" class="flag">[-]</text><text x="186" y="23.3" fill="lightgrey" class="taxonLabel">Loxosomella</text><text x="137.5" y="36.5" fill="lightgrey" class="flag">[-]</text><text x="159.5" y="36.5" fill="lightgrey" class="taxonLabel">Phoronis</text><text x="58" y="540.7" fill="grey" class="flag">[?]</text><text x="80" y="540.7" fill="grey" class="taxonLabel">Halkieria evangelista</text><path d="M5,448.7V318.3H31.5M31.5,318.3V98.9H58M58,98.9V40.2H84.5M84.5,40.2V23.6H111M111,23.6V13.6H137.5M137.5,13.6V7H164M137.5,13.6V20.3H164M111,23.6V33.5H137.5M84.5,40.2V56.8H111M111,56.8V46.8H137.5M111,56.8V66.7H137.5M137.5,66.7V60.1H164M137.5,66.7V73.3H164M270,201V166.2H296.5M296.5,235.7V192.5H323M323,192.5V179.5H349.5M323,192.5V205.6H349.5M349.5,205.6V192.7H376M349.5,205.6V218.4H376M376,218.4V206H402.5M376,218.4V230.9H402.5M402.5,230.9V219.3H429M402.5,230.9V242.5H429M429,242.5V232.5H455.5M429,242.5V252.4H455.5M455.5,252.4V245.8H482M455.5,252.4V259.1H482M190.5,337V325.4H217M243.5,358.6V365.2H270M31.5,318.3V537.7H58M5,448.7V579.1H31.5M31.5,579.1V560.9H58M58,560.9V550.9H84.5M58,560.9V570.8H84.5M84.5,570.8V564.2H111M84.5,570.8V577.5H111M31.5,579.1V597.4H58M58,597.4V590.7H84.5M58,597.4V604H84.5" stroke="lightgrey" class="inapplicable"></path><path d="M58,98.9V157.6H84.5M84.5,157.6V86.6H111M84.5,157.6V228.5H111M111,228.5V109.8H137.5M137.5,109.8V99.9H164M137.5,109.8V119.8H164M164,119.8V113.1H190.5M164,119.8V126.4H190.5M111,228.5V347.2H137.5M137.5,347.2V284.5H164M164,284.5V231.9H190.5M190.5,231.9V158.3H217M217,158.3V139.7H243.5M217,158.3V177H243.5M243.5,177V152.9H270M243.5,177V201H270M270,201V235.7H296.5M296.5,235.7V279H323M323,279V272.3H349.5M323,279V285.6H349.5M190.5,231.9V305.5H217M217,305.5V298.9H243.5M217,305.5V312.1H243.5M164,284.5V337H190.5M190.5,337V348.6H217M217,348.6V338.7H243.5M217,348.6V358.6H243.5M243.5,358.6V351.9H270M137.5,347.2V409.9H164M164,409.9V388.4H190.5M190.5,388.4V378.5H217M190.5,388.4V398.4H217M217,398.4V391.7H243.5M217,398.4V405H243.5M164,409.9V431.5H190.5M190.5,431.5V444.7H217M217,444.7V431.5H243.5M217,444.7V457.9H243.5M243.5,457.9V444.8H270M243.5,457.9V470.9H270M270,470.9V458.1H296.5M270,470.9V483.8H296.5M296.5,483.8V471.3H323M296.5,483.8V496.2H323M323,496.2V484.6H349.5M323,496.2V507.8H349.5M349.5,507.8V497.9H376M349.5,507.8V517.8H376M376,517.8V511.1H402.5M376,517.8V524.4H402.5" stroke="#91bfdb"></path><path d="M190.5,431.5V418.3H217" stroke="#e2e2a2"></path><text x="7" y="451.7" class="node" fill="#4A6FE3">1</text><text x="33.5" y="321.3" class="node" fill="#4A6FE3">1</text><text x="60" y="101.9" class="node" fill="#8091E1">0.85</text><text x="86.5" y="43.2" class="node" fill="#8091E1">0.85</text><text x="113" y="26.6" class="node" fill="#4A6FE3">1</text><text x="139.5" y="16.6" class="node" fill="#4A6FE3">1</text><text x="113" y="59.8" class="node" fill="#8091E1">0.85</text><text x="139.5" y="69.7" class="node" fill="#8091E1">0.85</text><text x="86.5" y="160.6" class="node" fill="#8091E1">0.85</text><text x="113" y="231.5" class="node" fill="#8091E1">0.85</text><text x="139.5" y="112.8" class="node" fill="#B4BBE3">0.67</text><text x="166" y="122.8" class="node" fill="#4A6FE3">1</text><text x="139.5" y="350.2" class="node" fill="#4A6FE3">1</text><text x="166" y="287.5" class="node" fill="#4A6FE3">1</text><text x="192.5" y="234.9" class="node" fill="#A0ABE2">0.74</text><text x="219" y="161.3" class="node" fill="#8C9BE1">0.81</text><text x="245.5" y="180" class="node" fill="#E6BAC2">0.37</text><text x="272" y="204" class="node" fill="#D85778">0.06</text><text x="298.5" y="238.7" class="node" fill="#4A6FE3">1</text><text x="325" y="195.5" class="node" fill="#DADBE3">0.53</text><text x="351.5" y="208.6" class="node" fill="#DADBE3">0.53</text><text x="378" y="221.4" class="node" fill="#DADBE3">0.53</text><text x="404.5" y="233.9" class="node" fill="#DADBE3">0.53</text><text x="431" y="245.5" class="node" fill="#4A6FE3">1</text><text x="457.5" y="255.4" class="node" fill="#97A4E2">0.77</text><text x="325" y="282" class="node" fill="#4A6FE3">1</text><text x="219" y="308.5" class="node" fill="#4A6FE3">1</text><text x="192.5" y="340" class="node" fill="#4A6FE3">1</text><text x="219" y="351.6" class="node" fill="#4A6FE3">1</text><text x="245.5" y="361.6" class="node" fill="#4A6FE3">1</text><text x="166" y="412.9" class="node" fill="#B4BBE3">0.67</text><text x="192.5" y="391.4" class="node" fill="#B4BBE3">0.67</text><text x="219" y="401.4" class="node" fill="#ABB4E2">0.7</text><text x="192.5" y="434.5" class="node" fill="#ABB4E2">0.7</text><text x="219" y="447.7" class="node" fill="#ABB4E2">0.7</text><text x="245.5" y="460.9" class="node" fill="#B4BBE3">0.67</text><text x="272" y="473.9" class="node" fill="#B4BBE3">0.67</text><text x="298.5" y="486.8" class="node" fill="#B4BBE3">0.67</text><text x="325" y="499.2" class="node" fill="#E5CACE">0.42</text><text x="351.5" y="510.8" class="node" fill="#E6C4C9">0.4</text><text x="378" y="520.8" class="node" fill="#4A6FE3">1</text><text x="33.5" y="582.1" class="node" fill="#4A6FE3">1</text><text x="60" y="563.9" class="node" fill="#DADBE3">0.53</text><text x="86.5" y="573.8" class="node" fill="#A6AFE2">0.72</text><text x="60" y="600.4" class="node" fill="#DADBE3">0.53</text></svg>
