<svg xmlns="http://www.w3.org/2000/svg" version="1.1" width="682" height="612" class="tree" data-char="166"><text x="678" y="15.4" text-anchor="end" class="stepsLabel">Character adds <tspan class="score">1</tspan> to tree score</text><text x="678" y="27.8" text-anchor="end" class="stepsLabel"><tspan class="score">0</tspan> additional regions</text><text x="678" y="40.2" text-anchor="end" class="stepsLabel">CI = 1; Fitch CI = 1; Fitch RI = 1</text><text x="678" y="65" text-anchor="end" class="stepsLabel"><tspan dy="16">An optimal tree under:</tspan><tspan x="680" style="font-style:italic" class="notThisAn" dy="1.2em">Equal weights</tspan><tspan x="680" style="font-style:italic" class="notThisAn" dy="1.2em">Implied weights, k = 2</tspan><tspan x="680" style="font-style:italic" class="notThisAn" dy="1.2em">IW, k = 3</tspan><tspan x="680" style="font-style:italic" class="notThisAn" dy="1.2em">IW, k = 4.5</tspan><tspan x="680" style="font-style:italic" class="notThisAn" dy="1.2em">IW, k = 7</tspan><tspan x="680" style="font-style:italic" class="thisAn" dy="1.2em">IW, k = 10.5</tspan><tspan x="680" style="font-style:italic" class="notThisAn" dy="1.2em">IW, k = 16</tspan><tspan x="680" style="font-style:italic" class="notThisAn" dy="1.2em">IW, k = 24</tspan></text><text x="73.1" y="594.3" fill="#91bfdb" class="flag">[1]</text><text x="95.1" y="594.3" fill="#000" class="taxonLabel">Sipunculus</text><text x="73.1" y="607" fill="#91bfdb" class="flag">[1]</text><text x="95.1" y="607" fill="#000" class="taxonLabel">Serpula</text><text x="95.9" y="568.9" fill="#91bfdb" class="flag">[1]</text><text x="117.9" y="568.9" fill="#000" class="taxonLabel">Dentalium</text><text x="95.9" y="581.6" fill="#91bfdb" class="flag">[1]</text><text x="117.9" y="581.6" fill="#000" class="taxonLabel">Tonicella</text><text x="73.1" y="556.2" fill="grey" class="flag">[?]</text><text x="95.1" y="556.2" fill="#999" class="taxonLabel">Wiwaxia corrugata</text><text x="164" y="518.1" fill="grey" class="flag">[?]</text><text x="186" y="518.1" fill="#999" class="taxonLabel">Namacalathus</text><text x="164" y="530.8" fill="#fc8d59" class="flag">[0]</text><text x="186" y="530.8" fill="#000" class="taxonLabel">Phoronis</text><text x="141.3" y="505.4" fill="grey" class="flag">[?]</text><text x="163.3" y="505.4" fill="#999" class="taxonLabel">Cotyledion tylodes</text><text x="232.1" y="480" fill="grey" class="flag">[?]</text><text x="254.1" y="480" fill="#999" class="taxonLabel">Pedunculotheca diania</text><text x="232.1" y="492.7" fill="grey" class="flag">[?]</text><text x="254.1" y="492.7" fill="#999" class="taxonLabel">Haplophrentis carinatus</text><text x="368.4" y="454.6" fill="grey" class="flag">[?]</text><text x="390.4" y="454.6" fill="#999" class="taxonLabel">Yuganotheca elegans</text><text x="368.4" y="467.3" fill="grey" class="flag">[?]</text><text x="390.4" y="467.3" fill="#999" class="taxonLabel">Tomteluva perturbata</text><text x="345.7" y="441.9" fill="grey" class="flag">[?]</text><text x="367.7" y="441.9" fill="#999" class="taxonLabel">Salanygolina</text><text x="368.4" y="416.5" fill="grey" class="flag">[?]</text><text x="390.4" y="416.5" fill="#999" class="taxonLabel">Antigonambonites planus</text><text x="368.4" y="429.2" fill="grey" class="flag">[?]</text><text x="390.4" y="429.2" fill="#999" class="taxonLabel">Coolinia pecten</text><text x="482" y="391.1" fill="grey" class="flag">[?]</text><text x="504" y="391.1" fill="#999" class="taxonLabel">Terebratulina</text><text x="482" y="403.8" fill="grey" class="flag">[?]</text><text x="504" y="403.8" fill="#999" class="taxonLabel">Orthis</text><text x="459.3" y="378.4" fill="grey" class="flag">[?]</text><text x="481.3" y="378.4" fill="#999" class="taxonLabel">Alisina</text><text x="436.6" y="365.7" fill="grey" class="flag">[?]</text><text x="458.6" y="365.7" fill="#999" class="taxonLabel">Longtancunella chengjiangensis</text><text x="413.9" y="353" fill="grey" class="flag">[?]</text><text x="435.9" y="353" fill="#999" class="taxonLabel">Glyptoria</text><text x="391.1" y="340.3" fill="grey" class="flag">[?]</text><text x="413.1" y="340.3" fill="#999" class="taxonLabel">Nisusia sulcata</text><text x="368.4" y="327.6" fill="grey" class="flag">[?]</text><text x="390.4" y="327.6" fill="#999" class="taxonLabel">Kutorgina chengjiangensis</text><text x="323" y="302.1" fill="grey" class="flag">[?]</text><text x="345" y="302.1" fill="#999" class="taxonLabel">Micromitra</text><text x="323" y="314.9" fill="grey" class="flag">[?]</text><text x="345" y="314.9" fill="#999" class="taxonLabel">Askepasma toddense</text><text x="368.4" y="276.7" fill="grey" class="flag">[?]</text><text x="390.4" y="276.7" fill="#999" class="taxonLabel">Botsfordia</text><text x="368.4" y="289.4" fill="grey" class="flag">[?]</text><text x="390.4" y="289.4" fill="#999" class="taxonLabel">Mummpikia nuda</text><text x="345.7" y="264" fill="grey" class="flag">[?]</text><text x="367.7" y="264" fill="#999" class="taxonLabel">Eoobolus</text><text x="436.6" y="238.6" fill="grey" class="flag">[?]</text><text x="458.6" y="238.6" fill="#999" class="taxonLabel">Acanthotretella spinosa</text><text x="436.6" y="251.3" fill="grey" class="flag">[?]</text><text x="458.6" y="251.3" fill="#999" class="taxonLabel">Siphonobolus priscus</text><text x="413.9" y="225.9" fill="grey" class="flag">[?]</text><text x="435.9" y="225.9" fill="#999" class="taxonLabel">Clupeafumosus socialis</text><text x="391.1" y="213.2" fill="grey" class="flag">[?]</text><text x="413.1" y="213.2" fill="#999" class="taxonLabel">Lingulosacculus</text><text x="391.1" y="187.8" fill="grey" class="flag">[?]</text><text x="413.1" y="187.8" fill="#999" class="taxonLabel">Lingulellotreta malongensis</text><text x="391.1" y="200.5" fill="#fc8d59" class="flag">[0]</text><text x="413.1" y="200.5" fill="#000" class="taxonLabel">Lingula</text><text x="345.7" y="175.1" fill="grey" class="flag">[?]</text><text x="367.7" y="175.1" fill="#999" class="taxonLabel">Pelagodiscus atlanticus</text><text x="391.1" y="149.7" fill="#fc8d59" class="flag">[0]</text><text x="413.1" y="149.7" fill="#000" class="taxonLabel">Novocrania</text><text x="391.1" y="162.4" fill="grey" class="flag">[?]</text><text x="413.1" y="162.4" fill="#999" class="taxonLabel">Craniops</text><text x="368.4" y="137" fill="grey" class="flag">[?]</text><text x="390.4" y="137" fill="#999" class="taxonLabel">Ussunia</text><text x="345.7" y="124.3" fill="grey" class="flag">[?]</text><text x="367.7" y="124.3" fill="#999" class="taxonLabel">Heliomedusa orienta</text><text x="323" y="111.6" fill="grey" class="flag">[?]</text><text x="345" y="111.6" fill="#999" class="taxonLabel">Gasconsia</text><text x="254.9" y="98.9" fill="grey" class="flag">[?]</text><text x="276.9" y="98.9" fill="#999" class="taxonLabel">Mickwitzia muralensis</text><text x="232.1" y="86.2" fill="grey" class="flag">[?]</text><text x="254.1" y="86.2" fill="#999" class="taxonLabel">Micrina</text><text x="186.7" y="73.5" fill="grey" class="flag">[?]</text><text x="208.7" y="73.5" fill="#999" class="taxonLabel">Paterimitra</text><text x="164" y="60.8" fill="grey" class="flag">[?]</text><text x="186" y="60.8" fill="#999" class="taxonLabel">Halkieria evangelista</text><text x="141.3" y="48.1" fill="grey" class="flag">[?]</text><text x="163.3" y="48.1" fill="#999" class="taxonLabel">Dailyatia</text><text x="95.9" y="35.4" fill="grey" class="flag">[?]</text><text x="117.9" y="35.4" fill="#999" class="taxonLabel">Eccentrotheca</text><text x="95.9" y="10" fill="#91bfdb" class="flag">[1]</text><text x="117.9" y="10" fill="#000" class="taxonLabel">Flustra</text><text x="95.9" y="22.7" fill="#91bfdb" class="flag">[1]</text><text x="117.9" y="22.7" fill="#000" class="taxonLabel">Amathia</text><text x="50.4" y="543.5" fill="#91bfdb" class="flag">[1]</text><text x="72.4" y="543.5" fill="#000" class="taxonLabel">Loxosomella</text><path d="M5,447.5V314.9H27.7M27.7,314.9V89.3H50.4M50.4,89.3V13.4H73.1M73.1,13.4V7H95.9M73.1,13.4V19.7H95.9M50.4,89.3V165.3H73.1M27.7,314.9V540.5H50.4M5,447.5V580.2H27.7M27.7,580.2V562.7H50.4M50.4,562.7V553.2H73.1M50.4,562.7V572.2H73.1M73.1,572.2V565.9H95.9M73.1,572.2V578.6H95.9M27.7,580.2V597.6H50.4M50.4,597.6V591.3H73.1M50.4,597.6V604H73.1" stroke="#91bfdb"></path><path d="M73.1,165.3V32.4H95.9" stroke="darkgrey"></path><path d="M73.1,165.3V298.1H95.9M95.9,298.1V84.3H118.6M118.6,84.3V45.1H141.3M118.6,84.3V123.5H141.3M141.3,123.5V57.8H164M141.3,123.5V189.2H164M164,189.2V70.5H186.7M164,189.2V307.9H186.7M186.7,307.9V132.4H209.4M209.4,132.4V83.2H232.1M209.4,132.4V181.6H232.1M232.1,181.6V95.9H254.9M232.1,181.6V267.3H254.9M254.9,267.3V175.2H277.6M277.6,175.2V120.5H300.3M300.3,120.5V108.6H323M300.3,120.5V132.4H323M323,132.4V121.3H345.7M323,132.4V143.5H345.7M345.7,143.5V134H368.4M345.7,143.5V153.1H368.4M368.4,153.1V146.7H391.1M368.4,153.1V159.4H391.1M277.6,175.2V229.9H300.3M300.3,229.9V189.2H323M323,189.2V172.1H345.7M323,189.2V206.3H345.7M345.7,206.3V191.2H368.4M368.4,191.2V184.8H391.1M368.4,191.2V197.5H391.1M345.7,206.3V221.3H368.4M368.4,221.3V210.2H391.1M368.4,221.3V232.5H391.1M391.1,232.5V222.9H413.9M391.1,232.5V242H413.9M413.9,242V235.6H436.6M413.9,242V248.3H436.6M300.3,229.9V270.6H323M323,270.6V261H345.7M323,270.6V280.1H345.7M345.7,280.1V273.7H368.4M345.7,280.1V286.4H368.4M254.9,267.3V359.5H277.6M277.6,359.5V305.5H300.3M300.3,305.5V299.1H323M300.3,305.5V311.9H323M277.6,359.5V413.4H300.3M300.3,413.4V378.4H323M323,378.4V337.1H345.7M345.7,337.1V324.6H368.4M345.7,337.1V349.6H368.4M368.4,349.6V337.3H391.1M368.4,349.6V361.9H391.1M391.1,361.9V350H413.9M391.1,361.9V373.8H413.9M413.9,373.8V362.7H436.6M413.9,373.8V384.9H436.6M436.6,384.9V375.4H459.3M436.6,384.9V394.4H459.3M459.3,394.4V388.1H482M459.3,394.4V400.8H482M323,378.4V419.8H345.7M345.7,419.8V413.5H368.4M345.7,419.8V426.2H368.4M300.3,413.4V448.4H323M323,448.4V438.9H345.7M323,448.4V457.9H345.7M345.7,457.9V451.6H368.4M345.7,457.9V464.3H368.4M186.7,307.9V483.3H209.4M209.4,483.3V477H232.1M209.4,483.3V489.7H232.1M95.9,298.1V511.9H118.6M118.6,511.9V502.4H141.3M118.6,511.9V521.4H141.3M141.3,521.4V515.1H164M141.3,521.4V527.8H164" stroke="#fc8d59"></path><text x="7" y="450.5" class="node" fill="#4A6FE3">1</text><text x="29.7" y="317.9" class="node" fill="#4A6FE3">1</text><text x="52.4" y="92.3" class="node" fill="#E0E0E2">0.51</text><text x="75.1" y="16.4" class="node" fill="#4A6FE3">1</text><text x="75.1" y="168.3" class="node" fill="#E0E0E2">0.51</text><text x="97.9" y="301.1" class="node" fill="#DC6884">0.11</text><text x="120.6" y="87.3" class="node" fill="#A8B1E2">0.71</text><text x="143.3" y="126.5" class="node" fill="#D2D4E3">0.57</text><text x="166" y="192.2" class="node" fill="#4F72E2">0.99</text><text x="188.7" y="310.9" class="node" fill="#BFC4E3">0.63</text><text x="211.4" y="135.4" class="node" fill="#E3DFE0">0.49</text><text x="234.1" y="184.6" class="node" fill="#E6AEB8">0.33</text><text x="256.9" y="270.3" class="node" fill="#E5A5B1">0.3</text><text x="279.6" y="178.2" class="node" fill="#E5A5B1">0.3</text><text x="302.3" y="123.5" class="node" fill="#E3DFE0">0.49</text><text x="325" y="135.4" class="node" fill="#E3DFE0">0.49</text><text x="347.7" y="146.5" class="node" fill="#4F72E2">0.99</text><text x="370.4" y="156.1" class="node" fill="#4A6FE3">1</text><text x="302.3" y="232.9" class="node" fill="#DDDEE3">0.52</text><text x="325" y="192.2" class="node" fill="#DDDEE3">0.52</text><text x="347.7" y="209.3" class="node" fill="#929FE1">0.79</text><text x="370.4" y="194.2" class="node" fill="#929FE1">0.79</text><text x="370.4" y="224.3" class="node" fill="#4A6FE3">1</text><text x="393.1" y="235.5" class="node" fill="#E6AEB8">0.33</text><text x="415.9" y="245" class="node" fill="#4A6FE3">1</text><text x="325" y="273.6" class="node" fill="#4F72E2">0.99</text><text x="347.7" y="283.1" class="node" fill="#929FE1">0.79</text><text x="279.6" y="362.5" class="node" fill="#8091E1">0.85</text><text x="302.3" y="308.5" class="node" fill="#4A6FE3">1</text><text x="302.3" y="416.4" class="node" fill="#8091E1">0.85</text><text x="325" y="381.4" class="node" fill="#A3ADE2">0.73</text><text x="347.7" y="340.1" class="node" fill="#A6AFE2">0.72</text><text x="370.4" y="352.6" class="node" fill="#A6AFE2">0.72</text><text x="393.1" y="364.9" class="node" fill="#4F72E2">0.99</text><text x="415.9" y="376.8" class="node" fill="#4F72E2">0.99</text><text x="438.6" y="387.9" class="node" fill="#4A6FE3">1</text><text x="461.3" y="397.4" class="node" fill="#4F72E2">0.99</text><text x="347.7" y="422.8" class="node" fill="#4A6FE3">1</text><text x="325" y="451.4" class="node" fill="#D2D4E3">0.57</text><text x="347.7" y="460.9" class="node" fill="#CACDE3">0.59</text><text x="211.4" y="486.3" class="node" fill="#4A6FE3">1</text><text x="120.6" y="514.9" class="node" fill="#E59FAC">0.29</text><text x="143.3" y="524.4" class="node" fill="#4A6FE3">1</text><text x="29.7" y="583.2" class="node" fill="#4A6FE3">1</text><text x="52.4" y="565.7" class="node" fill="#4A6FE3">1</text><text x="75.1" y="575.2" class="node" fill="#A3ADE2">0.73</text><text x="52.4" y="600.6" class="node" fill="#4A6FE3">1</text></svg>
