<svg xmlns="http://www.w3.org/2000/svg" version="1.1" width="682" height="612" class="tree" data-char="31"><text x="678" y="15.4" text-anchor="end" class="stepsLabel">Character adds <tspan class="score">7</tspan> to tree score</text><text x="678" y="27.8" text-anchor="end" class="stepsLabel"><tspan class="score">0</tspan> additional regions</text><text x="678" y="40.2" text-anchor="end" class="stepsLabel">CI = 0.43; Fitch CI = 0.43; Fitch RI = 0.5</text><text x="678" y="65" text-anchor="end" class="stepsLabel"><tspan dy="16" fill="#34caaf">An optimal tree under:</tspan><tspan x="680" style="font-style:italic" class="notThisAn" dy="1.2em">Equal weights</tspan><tspan x="680" style="font-style:italic" class="thisAn" dy="1.2em">Implied weights, k = 2</tspan><tspan x="680" style="font-style:italic" class="thisAn" dy="1.2em">IW, k = 3</tspan><tspan x="680" style="font-style:italic" class="notThisAn" dy="1.2em">IW, k = 4.5</tspan><tspan x="680" style="font-style:italic" class="notThisAn" dy="1.2em">IW, k = 7</tspan><tspan x="680" style="font-style:italic" class="notThisAn" dy="1.2em">IW, k = 10.5</tspan><tspan x="680" style="font-style:italic" class="notThisAn" dy="1.2em">IW, k = 16</tspan><tspan x="680" style="font-style:italic" class="notThisAn" dy="1.2em">IW, k = 24</tspan></text><text x="70" y="594.3" fill="lightgrey" class="flag">[-]</text><text x="92" y="594.3" fill="#ccc" class="taxonLabel">Serpula</text><text x="70" y="607" fill="lightgrey" class="flag">[-]</text><text x="92" y="607" fill="#ccc" class="taxonLabel">Sipunculus</text><text x="91.7" y="568.9" fill="lightgrey" class="flag">[-]</text><text x="113.7" y="568.9" fill="#ccc" class="taxonLabel">Wiwaxia corrugata</text><text x="91.7" y="581.6" fill="lightgrey" class="flag">[-]</text><text x="113.7" y="581.6" fill="#ccc" class="taxonLabel">Tonicella</text><text x="70" y="556.2" fill="lightgrey" class="flag">[-]</text><text x="92" y="556.2" fill="#ccc" class="taxonLabel">Dentalium</text><text x="135.1" y="518.1" fill="lightgrey" class="flag">[-]</text><text x="157.1" y="518.1" fill="#ccc" class="taxonLabel">Halkieria evangelista</text><text x="135.1" y="530.8" fill="lightgrey" class="flag">[-]</text><text x="157.1" y="530.8" fill="#ccc" class="taxonLabel">Dailyatia</text><text x="178.5" y="492.7" fill="grey" class="flag">[?]</text><text x="200.5" y="492.7" fill="#999" class="taxonLabel">Pedunculotheca diania</text><text x="178.5" y="505.4" fill="grey" class="flag">[?]</text><text x="200.5" y="505.4" fill="#999" class="taxonLabel">Haplophrentis carinatus</text><text x="351.9" y="467.3" fill="grey" class="flag">[?]</text><text x="373.9" y="467.3" fill="#999" class="taxonLabel">Antigonambonites planus</text><text x="351.9" y="480" fill="grey" class="flag">[?]</text><text x="373.9" y="480" fill="#999" class="taxonLabel">Coolinia pecten</text><text x="482" y="441.9" fill="#2c7bb6" class="flag">[4]</text><text x="504" y="441.9" fill="#000" class="taxonLabel">Orthis</text><text x="482" y="454.6" fill="#fdae61" class="flag">[1]</text><text x="504" y="454.6" fill="#000" class="taxonLabel">Terebratulina</text><text x="460.3" y="429.2" fill="#abd9e9" class="flag">[3]</text><text x="482.3" y="429.2" fill="#000" class="taxonLabel">Alisina</text><text x="438.6" y="416.5" fill="#fdae61" class="flag">[1]</text><text x="460.6" y="416.5" fill="#000" class="taxonLabel">Longtancunella chengjiangensis</text><text x="417" y="403.8" fill="#fdae61" class="flag">[1]</text><text x="439" y="403.8" fill="#000" class="taxonLabel">Glyptoria</text><text x="395.3" y="391.1" fill="grey" class="flag">[?]</text><text x="417.3" y="391.1" fill="#999" class="taxonLabel">Tomteluva perturbata</text><text x="373.6" y="378.4" fill="#fdae61" class="flag">[1]</text><text x="395.6" y="378.4" fill="#000" class="taxonLabel">Nisusia sulcata</text><text x="351.9" y="365.7" fill="grey" class="flag">[?]</text><text x="373.9" y="365.7" fill="#999" class="taxonLabel">Kutorgina chengjiangensis</text><text x="308.5" y="353" fill="#fdae61" class="flag">[1]</text><text x="330.5" y="353" fill="#000" class="taxonLabel">Yuganotheca elegans</text><text x="286.9" y="340.3" fill="grey" class="flag">[?]</text><text x="308.9" y="340.3" fill="#999" class="taxonLabel">Salanygolina</text><text x="286.9" y="314.9" fill="#2c7bb6" class="flag">[4]</text><text x="308.9" y="314.9" fill="#000" class="taxonLabel">Micromitra</text><text x="286.9" y="327.6" fill="#fdae61" class="flag">[1]</text><text x="308.9" y="327.6" fill="#000" class="taxonLabel">Askepasma toddense</text><text x="308.5" y="289.4" fill="grey" class="flag">[?]</text><text x="330.5" y="289.4" fill="#999" class="taxonLabel">Craniops</text><text x="308.5" y="302.1" fill="#fdae61" class="flag">[1]</text><text x="330.5" y="302.1" fill="#000" class="taxonLabel">Novocrania</text><text x="286.9" y="276.7" fill="grey" class="flag">[?]</text><text x="308.9" y="276.7" fill="#999" class="taxonLabel">Ussunia</text><text x="265.2" y="264" fill="grey" class="flag">[?]</text><text x="287.2" y="264" fill="#999" class="taxonLabel">Gasconsia</text><text x="265.2" y="238.6" fill="#e2e2a2" class="flag">[2]</text><text x="287.2" y="238.6" fill="#000" class="taxonLabel">Pelagodiscus atlanticus</text><text x="265.2" y="251.3" fill="grey" class="flag">[?]</text><text x="287.2" y="251.3" fill="#999" class="taxonLabel">Mickwitzia muralensis</text><text x="308.5" y="213.2" fill="grey" class="flag">[?]</text><text x="330.5" y="213.2" fill="#999" class="taxonLabel">Mummpikia nuda</text><text x="308.5" y="225.9" fill="#abd9e9" class="flag">[3]</text><text x="330.5" y="225.9" fill="#000" class="taxonLabel">Botsfordia</text><text x="286.9" y="200.5" fill="#abd9e9" class="flag">[3]</text><text x="308.9" y="200.5" fill="#000" class="taxonLabel">Eoobolus</text><text x="351.9" y="175.1" fill="#abd9e9" class="flag">[3]</text><text x="373.9" y="175.1" fill="#000" class="taxonLabel">Siphonobolus priscus</text><text x="351.9" y="187.8" fill="#abd9e9" class="flag">[3]</text><text x="373.9" y="187.8" fill="#000" class="taxonLabel">Acanthotretella spinosa</text><text x="330.2" y="162.4" fill="#fdae61" class="flag">[1]</text><text x="352.2" y="162.4" fill="#000" class="taxonLabel">Clupeafumosus socialis</text><text x="308.5" y="149.7" fill="#abd9e9" class="flag">[3]</text><text x="330.5" y="149.7" fill="#000" class="taxonLabel">Lingulosacculus</text><text x="308.5" y="124.3" fill="#abd9e9" class="flag">[3]</text><text x="330.5" y="124.3" fill="#000" class="taxonLabel">Lingulellotreta malongensis</text><text x="308.5" y="137" fill="#e2e2a2" class="flag">[2]</text><text x="330.5" y="137" fill="#000" class="taxonLabel">Lingula</text><text x="200.1" y="111.6" fill="grey" class="flag">[?]</text><text x="222.1" y="111.6" fill="#999" class="taxonLabel">Micrina</text><text x="178.5" y="98.9" fill="grey" class="flag">[?]</text><text x="200.5" y="98.9" fill="#999" class="taxonLabel">Paterimitra</text><text x="135.1" y="86.2" fill="#fdae61" class="flag">[1]</text><text x="157.1" y="86.2" fill="#000" class="taxonLabel">Heliomedusa orienta</text><text x="135.1" y="60.8" fill="lightgrey" class="flag">[-]</text><text x="157.1" y="60.8" fill="#ccc" class="taxonLabel">Phoronis</text><text x="135.1" y="73.5" fill="lightgrey" class="flag">[-]</text><text x="157.1" y="73.5" fill="#ccc" class="taxonLabel">Namacalathus</text><text x="135.1" y="35.4" fill="lightgrey" class="flag">[-]</text><text x="157.1" y="35.4" fill="#ccc" class="taxonLabel">Eccentrotheca</text><text x="135.1" y="48.1" fill="lightgrey" class="flag">[-]</text><text x="157.1" y="48.1" fill="#ccc" class="taxonLabel">Cotyledion tylodes</text><text x="91.7" y="10" fill="lightgrey" class="flag">[-]</text><text x="113.7" y="10" fill="#ccc" class="taxonLabel">Flustra</text><text x="91.7" y="22.7" fill="lightgrey" class="flag">[-]</text><text x="113.7" y="22.7" fill="#ccc" class="taxonLabel">Amathia</text><text x="48.4" y="543.5" fill="lightgrey" class="flag">[-]</text><text x="70.4" y="543.5" fill="#ccc" class="taxonLabel">Loxosomella</text><path d="M5,452.7V325.1H26.7M26.7,325.1V109.8H48.4M48.4,109.8V13.4H70M70,13.4V7H91.7M70,13.4V19.7H91.7M48.4,109.8V206.2H70M70,206.2V51.5H91.7M91.7,51.5V38.8H113.4M113.4,38.8V32.4H135.1M113.4,38.8V45.1H135.1M91.7,51.5V64.2H113.4M113.4,64.2V57.8H135.1M113.4,64.2V70.5H135.1M70,206.2V361H91.7M91.7,361V521.4H113.4M113.4,521.4V515.1H135.1M113.4,521.4V527.8H135.1M26.7,325.1V540.5H48.4M5,452.7V580.2H26.7M26.7,580.2V562.7H48.4M48.4,562.7V553.2H70M48.4,562.7V572.2H70M70,572.2V565.9H91.7M70,572.2V578.6H91.7M26.7,580.2V597.6H48.4M48.4,597.6V591.3H70M48.4,597.6V604H70" stroke="lightgrey" class="inapplicable"></path><path d="M91.7,361V200.5H113.4M113.4,200.5V83.2H135.1M113.4,200.5V317.7H135.1M135.1,317.7V139.4H156.8M156.8,139.4V95.9H178.5M156.8,139.4V182.9H178.5M178.5,182.9V108.6H200.1M178.5,182.9V257.3H200.1M200.1,257.3V208.4H221.8M308.5,169V159.4H330.2M200.1,257.3V306.1H221.8M221.8,306.1V272.2H243.5M243.5,272.2V261H265.2M243.5,272.2V283.3H265.2M265.2,283.3V273.7H286.9M265.2,283.3V292.8H286.9M286.9,292.8V286.4H308.5M286.9,292.8V299.1H308.5M221.8,306.1V340H243.5M243.5,340V318.2H265.2M265.2,318.2V324.6H286.9M243.5,340V361.9H265.2M265.2,361.9V337.3H286.9M265.2,361.9V386.5H286.9M286.9,386.5V350H308.5M286.9,386.5V422.9H308.5M308.5,422.9V375.3H330.2M330.2,375.3V362.7H351.9M330.2,375.3V387.9H351.9M351.9,387.9V375.4H373.6M351.9,387.9V400.4H373.6M373.6,400.4V388.1H395.3M373.6,400.4V412.7H395.3M395.3,412.7V400.8H417M395.3,412.7V424.6H417M417,424.6V413.5H438.6M417,424.6V435.7H438.6M438.6,435.7V445.2H460.3M460.3,445.2V451.6H482M308.5,422.9V470.6H330.2M330.2,470.6V464.3H351.9M330.2,470.6V477H351.9M135.1,317.7V496H156.8M156.8,496V489.7H178.5M156.8,496V502.4H178.5" stroke="#fdae61"></path><path d="M221.8,208.4V174.9H243.5M243.5,174.9V142.8H265.2M265.2,142.8V127.7H286.9M286.9,127.7V121.3H308.5M265.2,142.8V157.8H286.9M286.9,157.8V146.7H308.5M286.9,157.8V169H308.5M308.5,169V178.5H330.2M330.2,178.5V172.1H351.9M330.2,178.5V184.8H351.9M243.5,174.9V207.1H265.2M265.2,207.1V197.5H286.9M265.2,207.1V216.6H286.9M286.9,216.6V210.2H308.5M286.9,216.6V222.9H308.5M438.6,435.7V426.2H460.3" stroke="#abd9e9"></path><path d="M286.9,127.7V134H308.5M243.5,242V235.6H265.2" stroke="#e2e2a2"></path><path d="M221.8,208.4V242H243.5M243.5,242V248.3H265.2" stroke="darkgrey"></path><path d="M265.2,318.2V311.9H286.9M460.3,445.2V438.9H482" stroke="#2c7bb6"></path><text x="7" y="455.7" class="node" fill="#4A6FE3">1</text><text x="28.7" y="328.1" class="node" fill="#4A6FE3">1</text><text x="50.4" y="112.8" class="node" fill="#E3DFE0">0.49</text><text x="72" y="16.4" class="node" fill="#4A6FE3">1</text><text x="72" y="209.2" class="node" fill="#E3DFE0">0.49</text><text x="93.7" y="54.5" class="node" fill="#E59FAC">0.28</text><text x="115.4" y="41.8" class="node" fill="#DB617F">0.09</text><text x="115.4" y="67.2" class="node" fill="#4A6FE3">1</text><text x="93.7" y="364" class="node" fill="#E3DFE0">0.49</text><text x="115.4" y="203.5" class="node" fill="#4A6FE3">1</text><text x="137.1" y="320.7" class="node" fill="#E6B4BD">0.35</text><text x="158.8" y="142.4" class="node" fill="#E6B4BD">0.35</text><text x="180.5" y="185.9" class="node" fill="#E6B4BD">0.35</text><text x="202.1" y="260.3" class="node" fill="#E6B4BD">0.35</text><text x="223.8" y="211.4" class="node" fill="#E6B4BD">0.35</text><text x="245.5" y="177.9" class="node" fill="#7D8FE1">0.86</text><text x="267.2" y="145.8" class="node" fill="#E3DFE0">0.49</text><text x="288.9" y="130.7" class="node" fill="#E3DFE0">0.49</text><text x="288.9" y="160.8" class="node" fill="#8394E1">0.84</text><text x="310.5" y="172" class="node" fill="#E4D9DB">0.47</text><text x="332.2" y="181.5" class="node" fill="#4A6FE3">1</text><text x="267.2" y="210.1" class="node" fill="#E3DFE0">0.49</text><text x="288.9" y="219.6" class="node" fill="#E3DFE0">0.49</text><text x="245.5" y="245" class="node" fill="#7D8FE1">0.86</text><text x="223.8" y="309.1" class="node" fill="#E6B4BD">0.35</text><text x="245.5" y="275.2" class="node" fill="#E3DFE0">0.49</text><text x="267.2" y="286.3" class="node" fill="#E3DFE0">0.49</text><text x="288.9" y="295.8" class="node" fill="#E3DFE0">0.49</text><text x="245.5" y="343" class="node" fill="#E6B4BD">0.35</text><text x="267.2" y="321.2" class="node" fill="#4A6FE3">1</text><text x="267.2" y="364.9" class="node" fill="#7D8FE1">0.86</text><text x="288.9" y="389.5" class="node" fill="#E4D6D8">0.46</text><text x="310.5" y="425.9" class="node" fill="#E5A8B3">0.31</text><text x="332.2" y="378.3" class="node" fill="#E49CAA">0.27</text><text x="353.9" y="390.9" class="node" fill="#E49CAA">0.27</text><text x="375.6" y="403.4" class="node" fill="#E49CAA">0.27</text><text x="397.3" y="415.7" class="node" fill="#BCC2E3">0.64</text><text x="419" y="427.6" class="node" fill="#BCC2E3">0.64</text><text x="440.6" y="438.7" class="node" fill="#4A6FE3">1</text><text x="462.3" y="448.2" class="node" fill="#8C9BE1">0.81</text><text x="332.2" y="473.6" class="node" fill="#4A6FE3">1</text><text x="158.8" y="499" class="node" fill="#4A6FE3">1</text><text x="115.4" y="524.4" class="node" fill="#E6B4BD">0.35</text><text x="28.7" y="583.2" class="node" fill="#4A6FE3">1</text><text x="50.4" y="565.7" class="node" fill="#4A6FE3">1</text><text x="72" y="575.2" class="node" fill="#E6B4BD">0.35</text><text x="50.4" y="600.6" class="node" fill="#4A6FE3">1</text></svg>
