<svg xmlns="http://www.w3.org/2000/svg" version="1.1" width="682" height="682" class="tree" data-char="99"><text x="678" y="15.6" text-anchor="end" class="stepsLabel">Character adds <tspan class="score">10</tspan> to tree score</text><text x="678" y="28.2" text-anchor="end" class="stepsLabel"><tspan class="score">1</tspan> additional region</text><text x="678" y="40.8" text-anchor="end" class="stepsLabel">CI = 0.2; Fitch CI = 0.22; Fitch RI = 0.42</text><text x="678" y="66" text-anchor="end" class="stepsLabel"><tspan dy="16" fill="#34caaf">An optimal tree under:</tspan><tspan x="680" style="font-style:italic" class="thisAn" dy="1.2em">Equal weights</tspan><tspan x="680" style="font-style:italic" class="notThisAn" dy="1.2em">Implied weights, k = 2</tspan><tspan x="680" style="font-style:italic" class="notThisAn" dy="1.2em">IW, k = 3</tspan><tspan x="680" style="font-style:italic" class="notThisAn" dy="1.2em">IW, k = 4.5</tspan><tspan x="680" style="font-style:italic" class="notThisAn" dy="1.2em">IW, k = 7</tspan><tspan x="680" style="font-style:italic" class="notThisAn" dy="1.2em">IW, k = 10.5</tspan><tspan x="680" style="font-style:italic" class="notThisAn" dy="1.2em">IW, k = 16</tspan><tspan x="680" style="font-style:italic" class="notThisAn" dy="1.2em">IW, k = 24</tspan></text><text x="67.2" y="664.2" fill="lightgrey" class="flag">[-]</text><text x="89.2" y="664.2" fill="#ccc" class="taxonLabel">Sipunculus</text><text x="67.2" y="677" fill="lightgrey" class="flag">[-]</text><text x="89.2" y="677" fill="#ccc" class="taxonLabel">Serpula</text><text x="88" y="638.5" fill="lightgrey" class="flag">[-]</text><text x="110" y="638.5" fill="#ccc" class="taxonLabel">Dentalium</text><text x="88" y="651.3" fill="grey" class="flag">[12]</text><text x="110" y="651.3" fill="#999" class="taxonLabel">Tonicella</text><text x="67.2" y="625.7" fill="lightgrey" class="flag">[-]</text><text x="89.2" y="625.7" fill="#ccc" class="taxonLabel">Wiwaxia corrugata</text><text x="336.8" y="587.2" fill="#fdae61" class="flag">[1]</text><text x="358.8" y="587.2" fill="#000" class="taxonLabel">Maxilites</text><text x="336.8" y="600" fill="#fdae61" class="flag">[1]</text><text x="358.8" y="600" fill="#000" class="taxonLabel">Pauxillites</text><text x="316.1" y="574.4" fill="#fdae61" class="flag">[1]</text><text x="338.1" y="574.4" fill="#000" class="taxonLabel">Haplophrentis carinatus</text><text x="295.3" y="561.6" fill="#fdae61" class="flag">[1]</text><text x="317.3" y="561.6" fill="#000" class="taxonLabel">Paramicrocornus</text><text x="295.3" y="535.9" fill="#fdae61" class="flag">[1]</text><text x="317.3" y="535.9" fill="#000" class="taxonLabel">Conotheca</text><text x="295.3" y="548.7" fill="#fdae61" class="flag">[1]</text><text x="317.3" y="548.7" fill="#000" class="taxonLabel">Bactrotheca</text><text x="253.9" y="523.1" fill="#fdae61" class="flag">[1]</text><text x="275.9" y="523.1" fill="#000" class="taxonLabel">Pedunculotheca diania</text><text x="419.8" y="497.4" fill="#fdae61" class="flag">[1]</text><text x="441.8" y="497.4" fill="#000" class="taxonLabel">Acanthotretella spinosa</text><text x="419.8" y="510.2" fill="#fdae61" class="flag">[1]</text><text x="441.8" y="510.2" fill="#000" class="taxonLabel">Siphonobolus priscus</text><text x="419.8" y="471.8" fill="#fdae61" class="flag">[1]</text><text x="441.8" y="471.8" fill="#000" class="taxonLabel">Clupeafumosus socialis</text><text x="419.8" y="484.6" fill="#fdae61" class="flag">[1]</text><text x="441.8" y="484.6" fill="#000" class="taxonLabel">Lingulosacculus</text><text x="378.3" y="458.9" fill="#fdae61" class="flag">[1]</text><text x="400.3" y="458.9" fill="#000" class="taxonLabel">Lingulellotreta malongensis</text><text x="378.3" y="433.3" fill="#2c7bb6" class="flag">[3]</text><text x="400.3" y="433.3" fill="#000" class="taxonLabel">Pelagodiscus atlanticus</text><text x="378.3" y="446.1" fill="#abd9e9" class="flag">[2]</text><text x="400.3" y="446.1" fill="#000" class="taxonLabel">Mummpikia nuda</text><text x="336.8" y="420.5" fill="#fdae61" class="flag">[1]</text><text x="358.8" y="420.5" fill="#000" class="taxonLabel">Botsfordia</text><text x="316.1" y="407.6" fill="grey" class="flag">[23]</text><text x="338.1" y="407.6" fill="#999" class="taxonLabel">Eoobolus</text><text x="295.3" y="394.8" fill="#abd9e9" class="flag">[2]</text><text x="317.3" y="394.8" fill="#000" class="taxonLabel">Lingula</text><text x="378.3" y="369.2" fill="#abd9e9" class="flag">[2]</text><text x="400.3" y="369.2" fill="#000" class="taxonLabel">Craniops</text><text x="378.3" y="382" fill="#2c7bb6" class="flag">[3]</text><text x="400.3" y="382" fill="#000" class="taxonLabel">Novocrania</text><text x="357.6" y="356.3" fill="#abd9e9" class="flag">[2]</text><text x="379.6" y="356.3" fill="#000" class="taxonLabel">Ussunia</text><text x="336.8" y="343.5" fill="#fdae61" class="flag">[1]</text><text x="358.8" y="343.5" fill="#000" class="taxonLabel">Heliomedusa orienta</text><text x="316.1" y="330.7" fill="#fdae61" class="flag">[1]</text><text x="338.1" y="330.7" fill="#000" class="taxonLabel">Mickwitzia muralensis</text><text x="316.1" y="305" fill="grey" class="flag">[12]</text><text x="338.1" y="305" fill="#999" class="taxonLabel">Gasconsia</text><text x="316.1" y="317.8" fill="#fdae61" class="flag">[1]</text><text x="338.1" y="317.8" fill="#000" class="taxonLabel">Micromitra</text><text x="357.6" y="279.4" fill="grey" class="flag">[12]</text><text x="379.6" y="279.4" fill="#999" class="taxonLabel">Yuganotheca elegans</text><text x="357.6" y="292.2" fill="#fdae61" class="flag">[1]</text><text x="379.6" y="292.2" fill="#000" class="taxonLabel">Tomteluva perturbata</text><text x="482" y="253.7" fill="#abd9e9" class="flag">[2]</text><text x="504" y="253.7" fill="#000" class="taxonLabel">Orthis</text><text x="482" y="266.5" fill="#abd9e9" class="flag">[2]</text><text x="504" y="266.5" fill="#000" class="taxonLabel">Terebratulina</text><text x="461.3" y="240.9" fill="#abd9e9" class="flag">[2]</text><text x="483.3" y="240.9" fill="#000" class="taxonLabel">Alisina</text><text x="440.5" y="228.1" fill="#abd9e9" class="flag">[2]</text><text x="462.5" y="228.1" fill="#000" class="taxonLabel">Glyptoria</text><text x="419.8" y="215.2" fill="#fdae61" class="flag">[1]</text><text x="441.8" y="215.2" fill="#000" class="taxonLabel">Nisusia sulcata</text><text x="399" y="202.4" fill="#fdae61" class="flag">[1]</text><text x="421" y="202.4" fill="#000" class="taxonLabel">Kutorgina chengjiangensis</text><text x="399" y="176.8" fill="#abd9e9" class="flag">[2]</text><text x="421" y="176.8" fill="#000" class="taxonLabel">Coolinia pecten</text><text x="399" y="189.6" fill="#abd9e9" class="flag">[2]</text><text x="421" y="189.6" fill="#000" class="taxonLabel">Antigonambonites planus</text><text x="357.6" y="163.9" fill="grey" class="flag">[12]</text><text x="379.6" y="163.9" fill="#999" class="taxonLabel">Longtancunella chengjiangensis</text><text x="316.1" y="151.1" fill="#fdae61" class="flag">[1]</text><text x="338.1" y="151.1" fill="#000" class="taxonLabel">Salanygolina</text><text x="295.3" y="138.3" fill="#fdae61" class="flag">[1]</text><text x="317.3" y="138.3" fill="#000" class="taxonLabel">Askepasma toddense</text><text x="274.6" y="125.4" fill="#fdae61" class="flag">[1]</text><text x="296.6" y="125.4" fill="#000" class="taxonLabel">Micrina</text><text x="212.4" y="112.6" fill="#fdae61" class="flag">[1]</text><text x="234.4" y="112.6" fill="#000" class="taxonLabel">Paterimitra</text><text x="191.7" y="99.8" fill="#abd9e9" class="flag">[2]</text><text x="213.7" y="99.8" fill="#000" class="taxonLabel">Halkieria evangelista</text><text x="170.9" y="87" fill="lightgrey" class="flag">[-]</text><text x="192.9" y="87" fill="#ccc" class="taxonLabel">Dailyatia</text><text x="150.2" y="74.1" fill="lightgrey" class="flag">[-]</text><text x="172.2" y="74.1" fill="#ccc" class="taxonLabel">Cotyledion tylodes</text><text x="129.4" y="61.3" fill="lightgrey" class="flag">[-]</text><text x="151.4" y="61.3" fill="#ccc" class="taxonLabel">Eccentrotheca</text><text x="108.7" y="48.5" fill="lightgrey" class="flag">[-]</text><text x="130.7" y="48.5" fill="#ccc" class="taxonLabel">Namacalathus</text><text x="88" y="35.7" fill="lightgrey" class="flag">[-]</text><text x="110" y="35.7" fill="#ccc" class="taxonLabel">Phoronis</text><text x="88" y="10" fill="lightgrey" class="flag">[-]</text><text x="110" y="10" fill="#ccc" class="taxonLabel">Flustra</text><text x="88" y="22.8" fill="lightgrey" class="flag">[-]</text><text x="110" y="22.8" fill="#ccc" class="taxonLabel">Amathia</text><text x="46.5" y="612.9" fill="lightgrey" class="flag">[-]</text><text x="68.5" y="612.9" fill="#ccc" class="taxonLabel">Loxosomella</text><path d="M5,485.1V320.2H25.7M25.7,320.2V30.5H46.5M46.5,30.5V13.4H67.2M67.2,13.4V7H88M67.2,13.4V19.8H88M46.5,30.5V47.5H67.2M67.2,47.5V32.7H88M67.2,47.5V62.4H88M88,62.4V45.5H108.7M88,62.4V79.3H108.7M108.7,79.3V58.3H129.4M108.7,79.3V100.2H129.4M129.4,100.2V71.1H150.2M129.4,100.2V129.3H150.2M150.2,129.3V84H170.9M25.7,320.2V609.9H46.5M5,485.1V649.9H25.7M25.7,649.9V632.3H46.5M46.5,632.3V622.7H67.2M46.5,632.3V641.9H67.2M67.2,641.9V635.5H88M25.7,649.9V667.6H46.5M46.5,667.6V661.2H67.2M46.5,667.6V674H67.2" stroke="lightgrey" class="inapplicable"></path><path d="M150.2,129.3V174.7H170.9M274.6,406V420.3H295.3M295.3,420.3V435.9H316.1M316.1,435.9V454.3H336.8M336.8,454.3V436.7H357.6M67.2,641.9V648.3H88" stroke="darkgrey"></path><path d="M170.9,174.7V96.8H191.7M357.6,196V180.2H378.3M378.3,180.2V173.8H399M378.3,180.2V186.6H399M399,224.3V236.3H419.8M419.8,236.3V225.1H440.5M419.8,236.3V247.5H440.5M440.5,247.5V237.9H461.3M440.5,247.5V257.1H461.3M461.3,257.1V250.7H482M461.3,257.1V263.5H482M316.1,351.7V362.9H336.8M336.8,362.9V353.3H357.6M336.8,362.9V372.6H357.6M357.6,372.6V366.2H378.3M274.6,406V391.8H295.3M295.3,420.3V404.6H316.1M357.6,436.7V443.1H378.3" stroke="#abd9e9"></path><path d="M170.9,174.7V252.6H191.7M191.7,252.6V109.6H212.4M191.7,252.6V395.5H212.4M212.4,395.5V253.7H233.1M233.1,253.7V142.4H253.9M253.9,142.4V122.4H274.6M253.9,142.4V162.3H274.6M274.6,162.3V135.3H295.3M274.6,162.3V189.4H295.3M295.3,189.4V148.1H316.1M295.3,189.4V230.6H316.1M316.1,230.6V178.5H336.8M336.8,178.5V160.9H357.6M336.8,178.5V196H357.6M357.6,196V211.8H378.3M378.3,211.8V199.4H399M378.3,211.8V224.3H399M399,224.3V212.2H419.8M316.1,230.6V282.8H336.8M336.8,282.8V276.4H357.6M336.8,282.8V289.2H357.6M233.1,253.7V365.1H253.9M253.9,365.1V324.1H274.6M274.6,324.1V308.4H295.3M295.3,308.4V302H316.1M295.3,308.4V314.8H316.1M274.6,324.1V339.7H295.3M295.3,339.7V327.7H316.1M295.3,339.7V351.7H316.1M316.1,351.7V340.5H336.8M253.9,365.1V406H274.6M316.1,435.9V417.5H336.8M336.8,454.3V472H357.6M357.6,472V455.9H378.3M357.6,472V488H378.3M378.3,488V475.2H399M399,475.2V468.8H419.8M399,475.2V481.6H419.8M378.3,488V500.8H399M399,500.8V494.4H419.8M399,500.8V507.2H419.8M212.4,395.5V537.3H233.1M233.1,537.3V520.1H253.9M233.1,537.3V554.5H253.9M253.9,554.5V539.3H274.6M274.6,539.3V532.9H295.3M274.6,539.3V545.7H295.3M253.9,554.5V569.8H274.6M274.6,569.8V558.6H295.3M274.6,569.8V581H295.3M295.3,581V571.4H316.1M295.3,581V590.6H316.1M316.1,590.6V584.2H336.8M316.1,590.6V597H336.8" stroke="#fdae61"></path><path d="M357.6,372.6V379H378.3M357.6,436.7V430.3H378.3" stroke="#2c7bb6"></path><text x="7" y="488.1" class="node" fill="#4A6FE3">1</text><text x="27.7" y="323.2" class="node" fill="#4A6FE3">1</text><text x="48.5" y="33.5" class="node" fill="#4A6FE3">1</text><text x="69.2" y="16.4" class="node" fill="#4A6FE3">1</text><text x="69.2" y="50.5" class="node" fill="#4A6FE3">1</text><text x="90" y="65.4" class="node" fill="#E59FAC">0.28</text><text x="110.7" y="82.3" class="node" fill="#9AA6E2">0.76</text><text x="131.4" y="103.2" class="node" fill="#E07C92">0.17</text><text x="152.2" y="132.3" class="node" fill="#9AA6E2">0.76</text><text x="172.9" y="177.7" class="node" fill="#9AA6E2">0.76</text><text x="193.7" y="255.6" class="node" fill="#4A6FE3">1</text><text x="214.4" y="398.5" class="node" fill="#4A6FE3">1</text><text x="235.1" y="256.7" class="node" fill="#9AA6E2">0.76</text><text x="255.9" y="145.4" class="node" fill="#E07C92">0.17</text><text x="276.6" y="165.3" class="node" fill="#D7D9E3">0.54</text><text x="297.3" y="192.4" class="node" fill="#9AA6E2">0.76</text><text x="318.1" y="233.6" class="node" fill="#E4D6D8">0.46</text><text x="338.8" y="181.5" class="node" fill="#E392A2">0.24</text><text x="359.6" y="199" class="node" fill="#E5CDD1">0.43</text><text x="380.3" y="183.2" class="node" fill="#4A6FE3">1</text><text x="380.3" y="214.8" class="node" fill="#E6C1C7">0.39</text><text x="401" y="227.3" class="node" fill="#E17F94">0.18</text><text x="421.8" y="239.3" class="node" fill="#E3DFE0">0.49</text><text x="442.5" y="250.5" class="node" fill="#627DE1">0.94</text><text x="463.3" y="260.1" class="node" fill="#E2E2E2">0.5</text><text x="338.8" y="285.8" class="node" fill="#C1C6E3">0.62</text><text x="255.9" y="368.1" class="node" fill="#D7D9E3">0.54</text><text x="276.6" y="327.1" class="node" fill="#D7D9E3">0.54</text><text x="297.3" y="311.4" class="node" fill="#D7D9E3">0.54</text><text x="297.3" y="342.7" class="node" fill="#D7D9E3">0.54</text><text x="318.1" y="354.7" class="node" fill="#9AA6E2">0.76</text><text x="338.8" y="365.9" class="node" fill="#4A6FE3">1</text><text x="359.6" y="375.6" class="node" fill="#4A6FE3">1</text><text x="276.6" y="409" class="node" fill="#95A1E2">0.78</text><text x="297.3" y="423.3" class="node" fill="#E4D9DB">0.47</text><text x="318.1" y="438.9" class="node" fill="#E4D9DB">0.47</text><text x="338.8" y="457.3" class="node" fill="#E4D9DB">0.47</text><text x="359.6" y="439.7" class="node" fill="#DDDEE3">0.52</text><text x="359.6" y="475" class="node" fill="#E2E2E2">0.5</text><text x="380.3" y="491" class="node" fill="#9AA6E2">0.76</text><text x="401" y="478.2" class="node" fill="#E59FAC">0.29</text><text x="401" y="503.8" class="node" fill="#4F72E2">0.99</text><text x="235.1" y="540.3" class="node" fill="#4A6FE3">1</text><text x="255.9" y="557.5" class="node" fill="#9AA6E2">0.76</text><text x="276.6" y="542.3" class="node" fill="#E2E2E2">0.5</text><text x="276.6" y="572.8" class="node" fill="#4A6FE3">1</text><text x="297.3" y="584" class="node" fill="#4A6FE3">1</text><text x="318.1" y="593.6" class="node" fill="#4A6FE3">1</text><text x="27.7" y="652.9" class="node" fill="#4A6FE3">1</text><text x="48.5" y="635.3" class="node" fill="#4A6FE3">1</text><text x="69.2" y="644.9" class="node" fill="#4A6FE3">1</text><text x="48.5" y="670.6" class="node" fill="#4A6FE3">1</text></svg>
