<svg xmlns="http://www.w3.org/2000/svg" version="1.1" width="682" height="612" class="tree" data-char="64"><text x="678" y="16" text-anchor="end" class="stepsLabel">Character adds <tspan class="score">2</tspan> to tree score</text><text x="678" y="29" text-anchor="end" class="stepsLabel"><tspan class="score">0</tspan> additional regions</text><text x="678" y="42" text-anchor="end" class="stepsLabel">CI = 0.5; Fitch CI = 0.5; Fitch RI = 0.92</text><text x="678" y="68" text-anchor="end" class="stepsLabel"><tspan dy="16">An optimal tree under:</tspan><tspan x="680" style="font-style:italic" class="notThisAn" dy="1.2em">Equal weights</tspan><tspan x="680" style="font-style:italic" class="thisAn" dy="1.2em">Implied weights, k = 2</tspan><tspan x="680" style="font-style:italic" class="notThisAn" dy="1.2em">IW, k = 3</tspan><tspan x="680" style="font-style:italic" class="notThisAn" dy="1.2em">IW, k = 4.5</tspan><tspan x="680" style="font-style:italic" class="notThisAn" dy="1.2em">IW, k = 7</tspan><tspan x="680" style="font-style:italic" class="notThisAn" dy="1.2em">IW, k = 10.5</tspan><tspan x="680" style="font-style:italic" class="notThisAn" dy="1.2em">IW, k = 16</tspan><tspan x="680" style="font-style:italic" class="notThisAn" dy="1.2em">IW, k = 24</tspan></text><text x="91.7" y="593.7" fill="#fc8d59" class="flag">[0]</text><text x="113.7" y="593.7" fill="#000" class="taxonLabel">Tonicella</text><text x="91.7" y="607" fill="#fc8d59" class="flag">[0]</text><text x="113.7" y="607" fill="#000" class="taxonLabel">Wiwaxia corrugata</text><text x="70" y="580.5" fill="#fc8d59" class="flag">[0]</text><text x="92" y="580.5" fill="#000" class="taxonLabel">Dentalium</text><text x="70" y="553.9" fill="#fc8d59" class="flag">[0]</text><text x="92" y="553.9" fill="#000" class="taxonLabel">Serpula</text><text x="70" y="567.2" fill="#fc8d59" class="flag">[0]</text><text x="92" y="567.2" fill="#000" class="taxonLabel">Sipunculus</text><text x="178.5" y="514.1" fill="#fc8d59" class="flag">[0]</text><text x="200.5" y="514.1" fill="#000" class="taxonLabel">Dailyatia</text><text x="178.5" y="527.4" fill="#fc8d59" class="flag">[0]</text><text x="200.5" y="527.4" fill="#000" class="taxonLabel">Halkieria evangelista</text><text x="286.9" y="487.6" fill="#91bfdb" class="flag">[1]</text><text x="308.9" y="487.6" fill="#000" class="taxonLabel">Haplophrentis carinatus</text><text x="286.9" y="500.9" fill="#91bfdb" class="flag">[1]</text><text x="308.9" y="500.9" fill="#000" class="taxonLabel">Pedunculotheca diania</text><text x="395.3" y="461.1" fill="#91bfdb" class="flag">[1]</text><text x="417.3" y="461.1" fill="#000" class="taxonLabel">Lingula</text><text x="395.3" y="474.3" fill="#91bfdb" class="flag">[1]</text><text x="417.3" y="474.3" fill="#000" class="taxonLabel">Pelagodiscus atlanticus</text><text x="438.6" y="434.5" fill="#91bfdb" class="flag">[1]</text><text x="460.6" y="434.5" fill="#000" class="taxonLabel">Eoobolus</text><text x="438.6" y="447.8" fill="#91bfdb" class="flag">[1]</text><text x="460.6" y="447.8" fill="#000" class="taxonLabel">Mummpikia nuda</text><text x="417" y="421.3" fill="#91bfdb" class="flag">[1]</text><text x="439" y="421.3" fill="#000" class="taxonLabel">Botsfordia</text><text x="395.3" y="408" fill="#91bfdb" class="flag">[1]</text><text x="417.3" y="408" fill="#000" class="taxonLabel">Lingulellotreta malongensis</text><text x="373.6" y="381.5" fill="#91bfdb" class="flag">[1]</text><text x="395.6" y="381.5" fill="#000" class="taxonLabel">Siphonobolus priscus</text><text x="373.6" y="394.7" fill="#91bfdb" class="flag">[1]</text><text x="395.6" y="394.7" fill="#000" class="taxonLabel">Acanthotretella spinosa</text><text x="330.2" y="368.2" fill="#91bfdb" class="flag">[1]</text><text x="352.2" y="368.2" fill="#000" class="taxonLabel">Lingulosacculus</text><text x="308.5" y="354.9" fill="#91bfdb" class="flag">[1]</text><text x="330.5" y="354.9" fill="#000" class="taxonLabel">Clupeafumosus socialis</text><text x="351.9" y="328.4" fill="#91bfdb" class="flag">[1]</text><text x="373.9" y="328.4" fill="#000" class="taxonLabel">Tomteluva perturbata</text><text x="351.9" y="341.7" fill="#91bfdb" class="flag">[1]</text><text x="373.9" y="341.7" fill="#000" class="taxonLabel">Yuganotheca elegans</text><text x="330.2" y="315.1" fill="#91bfdb" class="flag">[1]</text><text x="352.2" y="315.1" fill="#000" class="taxonLabel">Salanygolina</text><text x="373.6" y="288.6" fill="#91bfdb" class="flag">[1]</text><text x="395.6" y="288.6" fill="#000" class="taxonLabel">Antigonambonites planus</text><text x="373.6" y="301.9" fill="#91bfdb" class="flag">[1]</text><text x="395.6" y="301.9" fill="#000" class="taxonLabel">Coolinia pecten</text><text x="482" y="262.1" fill="#91bfdb" class="flag">[1]</text><text x="504" y="262.1" fill="#000" class="taxonLabel">Orthis</text><text x="482" y="275.3" fill="#91bfdb" class="flag">[1]</text><text x="504" y="275.3" fill="#000" class="taxonLabel">Terebratulina</text><text x="460.3" y="248.8" fill="#91bfdb" class="flag">[1]</text><text x="482.3" y="248.8" fill="#000" class="taxonLabel">Alisina</text><text x="438.6" y="235.5" fill="#91bfdb" class="flag">[1]</text><text x="460.6" y="235.5" fill="#000" class="taxonLabel">Longtancunella chengjiangensis</text><text x="417" y="222.3" fill="#91bfdb" class="flag">[1]</text><text x="439" y="222.3" fill="#000" class="taxonLabel">Glyptoria</text><text x="395.3" y="209" fill="#91bfdb" class="flag">[1]</text><text x="417.3" y="209" fill="#000" class="taxonLabel">Nisusia sulcata</text><text x="373.6" y="195.7" fill="#91bfdb" class="flag">[1]</text><text x="395.6" y="195.7" fill="#000" class="taxonLabel">Kutorgina chengjiangensis</text><text x="417" y="169.2" fill="#91bfdb" class="flag">[1]</text><text x="439" y="169.2" fill="#000" class="taxonLabel">Novocrania</text><text x="417" y="182.5" fill="#91bfdb" class="flag">[1]</text><text x="439" y="182.5" fill="#000" class="taxonLabel">Craniops</text><text x="395.3" y="155.9" fill="#91bfdb" class="flag">[1]</text><text x="417.3" y="155.9" fill="#000" class="taxonLabel">Ussunia</text><text x="373.6" y="142.7" fill="#91bfdb" class="flag">[1]</text><text x="395.6" y="142.7" fill="#000" class="taxonLabel">Gasconsia</text><text x="373.6" y="116.1" fill="#91bfdb" class="flag">[1]</text><text x="395.6" y="116.1" fill="#000" class="taxonLabel">Micromitra</text><text x="373.6" y="129.4" fill="#91bfdb" class="flag">[1]</text><text x="395.6" y="129.4" fill="#000" class="taxonLabel">Askepasma toddense</text><text x="243.5" y="102.9" fill="#fc8d59" class="flag">[0]</text><text x="265.5" y="102.9" fill="#000" class="taxonLabel">Micrina</text><text x="221.8" y="89.6" fill="#91bfdb" class="flag">[1]</text><text x="243.8" y="89.6" fill="#000" class="taxonLabel">Heliomedusa orienta</text><text x="200.1" y="76.3" fill="#91bfdb" class="flag">[1]</text><text x="222.1" y="76.3" fill="#000" class="taxonLabel">Mickwitzia muralensis</text><text x="178.5" y="63.1" fill="#fc8d59" class="flag">[0]</text><text x="200.5" y="63.1" fill="#000" class="taxonLabel">Paterimitra</text><text x="135.1" y="49.8" fill="#fc8d59" class="flag">[0]</text><text x="157.1" y="49.8" fill="#000" class="taxonLabel">Cotyledion tylodes</text><text x="113.4" y="36.5" fill="#fc8d59" class="flag">[0]</text><text x="135.4" y="36.5" fill="#000" class="taxonLabel">Eccentrotheca</text><text x="91.7" y="23.3" fill="#fc8d59" class="flag">[0]</text><text x="113.7" y="23.3" fill="#000" class="taxonLabel">Phoronis</text><text x="70" y="10" fill="#fc8d59" class="flag">[0]</text><text x="92" y="10" fill="#000" class="taxonLabel">Flustra</text><text x="48.4" y="540.7" fill="#fc8d59" class="flag">[0]</text><text x="70.4" y="540.7" fill="#000" class="taxonLabel">Loxosomella</text><path d="M5,429.3V286.2H26.7M26.7,286.2V34.7H48.4M48.4,34.7V7H70M48.4,34.7V62.4H70M70,62.4V20.3H91.7M70,62.4V104.5H91.7M91.7,104.5V33.5H113.4M91.7,104.5V175.5H113.4M113.4,175.5V46.8H135.1M113.4,175.5V304.2H135.1M135.1,304.2V90.6H156.8M156.8,90.6V60.1H178.5M221.8,251.2V99.9H243.5M135.1,304.2V517.8H156.8M156.8,517.8V511.1H178.5M156.8,517.8V524.4H178.5M26.7,286.2V537.7H48.4M5,429.3V572.5H26.7M26.7,572.5V557.6H48.4M48.4,557.6V550.9H70M48.4,557.6V564.2H70M26.7,572.5V587.4H48.4M48.4,587.4V577.5H70M48.4,587.4V597.4H70M70,597.4V590.7H91.7M70,597.4V604H91.7" stroke="#fc8d59"></path><path d="M156.8,90.6V121.1H178.5M178.5,121.1V73.3H200.1M178.5,121.1V168.9H200.1M200.1,168.9V86.6H221.8M200.1,168.9V251.2H221.8M221.8,251.2V402.5H243.5M243.5,402.5V313.8H265.2M265.2,313.8V257.2H286.9M286.9,257.2V192.3H308.5M308.5,192.3V135.5H330.2M330.2,135.5V119.8H351.9M351.9,119.8V113.1H373.6M351.9,119.8V126.4H373.6M330.2,135.5V151.3H351.9M351.9,151.3V139.7H373.6M351.9,151.3V162.9H373.6M373.6,162.9V152.9H395.3M373.6,162.9V172.8H395.3M395.3,172.8V166.2H417M395.3,172.8V179.5H417M308.5,192.3V249H330.2M330.2,249V205.8H351.9M351.9,205.8V192.7H373.6M351.9,205.8V218.9H373.6M373.6,218.9V206H395.3M373.6,218.9V231.7H395.3M395.3,231.7V219.3H417M395.3,231.7V244.1H417M417,244.1V232.5H438.6M417,244.1V255.8H438.6M438.6,255.8V245.8H460.3M438.6,255.8V265.7H460.3M460.3,265.7V259.1H482M460.3,265.7V272.3H482M330.2,249V292.2H351.9M351.9,292.2V285.6H373.6M351.9,292.2V298.9H373.6M286.9,257.2V322.1H308.5M308.5,322.1V312.1H330.2M308.5,322.1V332H330.2M330.2,332V325.4H351.9M330.2,332V338.7H351.9M265.2,313.8V370.5H286.9M286.9,370.5V351.9H308.5M286.9,370.5V389H308.5M308.5,389V365.2H330.2M308.5,389V412.9H330.2M330.2,412.9V385.1H351.9M351.9,385.1V378.5H373.6M351.9,385.1V391.7H373.6M330.2,412.9V440.7H351.9M351.9,440.7V416.6H373.6M373.6,416.6V405H395.3M373.6,416.6V428.2H395.3M395.3,428.2V418.3H417M395.3,428.2V438.2H417M417,438.2V431.5H438.6M417,438.2V444.8H438.6M351.9,440.7V464.7H373.6M373.6,464.7V458.1H395.3M373.6,464.7V471.3H395.3M243.5,402.5V491.2H265.2M265.2,491.2V484.6H286.9M265.2,491.2V497.9H286.9" stroke="#91bfdb"></path><text x="7" y="432.3" class="node" fill="#4A6FE3">1</text><text x="28.7" y="289.2" class="node" fill="#4A6FE3">1</text><text x="50.4" y="37.7" class="node" fill="#4A6FE3">1</text><text x="72" y="65.4" class="node" fill="#4A6FE3">1</text><text x="93.7" y="107.5" class="node" fill="#4A6FE3">1</text><text x="115.4" y="178.5" class="node" fill="#E5A5B1">0.3</text><text x="137.1" y="307.2" class="node" fill="#4A6FE3">1</text><text x="158.8" y="93.6" class="node" fill="#4A6FE3">1</text><text x="180.5" y="124.1" class="node" fill="#E495A5">0.25</text><text x="202.1" y="171.9" class="node" fill="#E495A5">0.25</text><text x="223.8" y="254.2" class="node" fill="#E495A5">0.25</text><text x="245.5" y="405.5" class="node" fill="#E495A5">0.25</text><text x="267.2" y="316.8" class="node" fill="#E495A5">0.25</text><text x="288.9" y="260.2" class="node" fill="#4A6FE3">1</text><text x="310.5" y="195.3" class="node" fill="#D95A7A">0.07</text><text x="332.2" y="138.5" class="node" fill="#DD6F88">0.13</text><text x="353.9" y="122.8" class="node" fill="#4A6FE3">1</text><text x="353.9" y="154.3" class="node" fill="#4A6FE3">1</text><text x="375.6" y="165.9" class="node" fill="#4A6FE3">1</text><text x="397.3" y="175.8" class="node" fill="#4A6FE3">1</text><text x="332.2" y="252" class="node" fill="#4A6FE3">1</text><text x="353.9" y="208.8" class="node" fill="#7A8DE1">0.87</text><text x="375.6" y="221.9" class="node" fill="#7A8DE1">0.87</text><text x="397.3" y="234.7" class="node" fill="#7A8DE1">0.87</text><text x="419" y="247.1" class="node" fill="#7A8DE1">0.87</text><text x="440.6" y="258.8" class="node" fill="#4A6FE3">1</text><text x="462.3" y="268.7" class="node" fill="#5B78E2">0.96</text><text x="353.9" y="295.2" class="node" fill="#4A6FE3">1</text><text x="310.5" y="325.1" class="node" fill="#A0ABE2">0.74</text><text x="332.2" y="335" class="node" fill="#7388E1">0.89</text><text x="288.9" y="373.5" class="node" fill="#E495A5">0.25</text><text x="310.5" y="392" class="node" fill="#E495A5">0.25</text><text x="332.2" y="415.9" class="node" fill="#DA5E7D">0.08</text><text x="353.9" y="388.1" class="node" fill="#4A6FE3">1</text><text x="353.9" y="443.7" class="node" fill="#E495A5">0.25</text><text x="375.6" y="419.6" class="node" fill="#E495A5">0.25</text><text x="397.3" y="431.2" class="node" fill="#E6AEB8">0.33</text><text x="419" y="441.2" class="node" fill="#E495A5">0.25</text><text x="375.6" y="467.7" class="node" fill="#E495A5">0.25</text><text x="267.2" y="494.2" class="node" fill="#4A6FE3">1</text><text x="158.8" y="520.8" class="node" fill="#4A6FE3">1</text><text x="28.7" y="575.5" class="node" fill="#4A6FE3">1</text><text x="50.4" y="560.6" class="node" fill="#4A6FE3">1</text><text x="50.4" y="590.4" class="node" fill="#4A6FE3">1</text><text x="72" y="600.4" class="node" fill="#97A4E2">0.77</text></svg>
