<svg xmlns="http://www.w3.org/2000/svg" version="1.1" width="682" height="612" class="tree" data-char="144"><text x="678" y="15.4" text-anchor="end" class="stepsLabel">Character adds <tspan class="score">4</tspan> to tree score</text><text x="678" y="27.8" text-anchor="end" class="stepsLabel"><tspan class="score">0</tspan> additional regions</text><text x="678" y="40.2" text-anchor="end" class="stepsLabel">CI = 0.75; Fitch CI = 0.75; Fitch RI = 0.75</text><text x="678" y="65" text-anchor="end" class="stepsLabel"><tspan dy="16">An optimal tree under:</tspan><tspan x="680" style="font-style:italic" class="notThisAn" dy="1.2em">Equal weights</tspan><tspan x="680" style="font-style:italic" class="thisAn" dy="1.2em">Implied weights, k = 2</tspan><tspan x="680" style="font-style:italic" class="notThisAn" dy="1.2em">IW, k = 3</tspan><tspan x="680" style="font-style:italic" class="notThisAn" dy="1.2em">IW, k = 4.5</tspan><tspan x="680" style="font-style:italic" class="notThisAn" dy="1.2em">IW, k = 7</tspan><tspan x="680" style="font-style:italic" class="notThisAn" dy="1.2em">IW, k = 10.5</tspan><tspan x="680" style="font-style:italic" class="notThisAn" dy="1.2em">IW, k = 16</tspan><tspan x="680" style="font-style:italic" class="notThisAn" dy="1.2em">IW, k = 24</tspan></text><text x="95.9" y="594.3" fill="#2c7bb6" class="flag">[4]</text><text x="117.9" y="594.3" fill="#000" class="taxonLabel">Tonicella</text><text x="95.9" y="607" fill="grey" class="flag">[?]</text><text x="117.9" y="607" fill="#999" class="taxonLabel">Wiwaxia corrugata</text><text x="73.1" y="581.6" fill="#2c7bb6" class="flag">[4]</text><text x="95.1" y="581.6" fill="#000" class="taxonLabel">Dentalium</text><text x="73.1" y="556.2" fill="#abd9e9" class="flag">[3]</text><text x="95.1" y="556.2" fill="#000" class="taxonLabel">Serpula</text><text x="73.1" y="568.9" fill="#abd9e9" class="flag">[3]</text><text x="95.1" y="568.9" fill="#000" class="taxonLabel">Sipunculus</text><text x="141.3" y="530.8" fill="grey" class="flag">[?]</text><text x="163.3" y="530.8" fill="#999" class="taxonLabel">Dailyatia</text><text x="141.3" y="543.5" fill="grey" class="flag">[?]</text><text x="163.3" y="543.5" fill="#999" class="taxonLabel">Halkieria evangelista</text><text x="118.6" y="518.1" fill="#2c7bb6" class="flag">[4]</text><text x="140.6" y="518.1" fill="#000" class="taxonLabel">Loxosomella</text><text x="95.9" y="505.4" fill="grey" class="flag">[?]</text><text x="117.9" y="505.4" fill="#999" class="taxonLabel">Cotyledion tylodes</text><text x="73.1" y="492.7" fill="grey" class="flag">[?]</text><text x="95.1" y="492.7" fill="#999" class="taxonLabel">Eccentrotheca</text><text x="164" y="467.3" fill="grey" class="flag">[?]</text><text x="186" y="467.3" fill="#999" class="taxonLabel">Haplophrentis carinatus</text><text x="164" y="480" fill="grey" class="flag">[?]</text><text x="186" y="480" fill="#999" class="taxonLabel">Pedunculotheca diania</text><text x="254.9" y="441.9" fill="grey" class="flag">[?]</text><text x="276.9" y="441.9" fill="#999" class="taxonLabel">Mickwitzia muralensis</text><text x="254.9" y="454.6" fill="#fdae61" class="flag">[1]</text><text x="276.9" y="454.6" fill="#000" class="taxonLabel">Pelagodiscus atlanticus</text><text x="323" y="416.5" fill="grey" class="flag">[?]</text><text x="345" y="416.5" fill="#999" class="taxonLabel">Acanthotretella spinosa</text><text x="323" y="429.2" fill="grey" class="flag">[?]</text><text x="345" y="429.2" fill="#999" class="taxonLabel">Siphonobolus priscus</text><text x="323" y="391.1" fill="grey" class="flag">[?]</text><text x="345" y="391.1" fill="#999" class="taxonLabel">Clupeafumosus socialis</text><text x="323" y="403.8" fill="grey" class="flag">[?]</text><text x="345" y="403.8" fill="#999" class="taxonLabel">Lingulosacculus</text><text x="300.3" y="365.7" fill="grey" class="flag">[?]</text><text x="322.3" y="365.7" fill="#999" class="taxonLabel">Lingulellotreta malongensis</text><text x="300.3" y="378.4" fill="#fdae61" class="flag">[1]</text><text x="322.3" y="378.4" fill="#000" class="taxonLabel">Lingula</text><text x="300.3" y="340.3" fill="grey" class="flag">[?]</text><text x="322.3" y="340.3" fill="#999" class="taxonLabel">Botsfordia</text><text x="300.3" y="353" fill="grey" class="flag">[?]</text><text x="322.3" y="353" fill="#999" class="taxonLabel">Mummpikia nuda</text><text x="277.6" y="327.6" fill="grey" class="flag">[?]</text><text x="299.6" y="327.6" fill="#999" class="taxonLabel">Eoobolus</text><text x="300.3" y="302.1" fill="grey" class="flag">[?]</text><text x="322.3" y="302.1" fill="#999" class="taxonLabel">Craniops</text><text x="300.3" y="314.9" fill="#e2e2a2" class="flag">[2]</text><text x="322.3" y="314.9" fill="#000" class="taxonLabel">Novocrania</text><text x="277.6" y="289.4" fill="grey" class="flag">[?]</text><text x="299.6" y="289.4" fill="#999" class="taxonLabel">Ussunia</text><text x="254.9" y="276.7" fill="grey" class="flag">[?]</text><text x="276.9" y="276.7" fill="#999" class="taxonLabel">Gasconsia</text><text x="277.6" y="251.3" fill="grey" class="flag">[?]</text><text x="299.6" y="251.3" fill="#999" class="taxonLabel">Askepasma toddense</text><text x="277.6" y="264" fill="grey" class="flag">[?]</text><text x="299.6" y="264" fill="#999" class="taxonLabel">Micromitra</text><text x="482" y="225.9" fill="grey" class="flag">[?]</text><text x="504" y="225.9" fill="#999" class="taxonLabel">Orthis</text><text x="482" y="238.6" fill="#abd9e9" class="flag">[3]</text><text x="504" y="238.6" fill="#000" class="taxonLabel">Terebratulina</text><text x="459.3" y="213.2" fill="grey" class="flag">[?]</text><text x="481.3" y="213.2" fill="#999" class="taxonLabel">Alisina</text><text x="436.6" y="200.5" fill="grey" class="flag">[?]</text><text x="458.6" y="200.5" fill="#999" class="taxonLabel">Longtancunella chengjiangensis</text><text x="413.9" y="187.8" fill="grey" class="flag">[?]</text><text x="435.9" y="187.8" fill="#999" class="taxonLabel">Glyptoria</text><text x="391.1" y="175.1" fill="grey" class="flag">[?]</text><text x="413.1" y="175.1" fill="#999" class="taxonLabel">Tomteluva perturbata</text><text x="368.4" y="162.4" fill="grey" class="flag">[?]</text><text x="390.4" y="162.4" fill="#999" class="taxonLabel">Nisusia sulcata</text><text x="345.7" y="149.7" fill="grey" class="flag">[?]</text><text x="367.7" y="149.7" fill="#999" class="taxonLabel">Kutorgina chengjiangensis</text><text x="345.7" y="124.3" fill="grey" class="flag">[?]</text><text x="367.7" y="124.3" fill="#999" class="taxonLabel">Antigonambonites planus</text><text x="345.7" y="137" fill="grey" class="flag">[?]</text><text x="367.7" y="137" fill="#999" class="taxonLabel">Coolinia pecten</text><text x="300.3" y="111.6" fill="grey" class="flag">[?]</text><text x="322.3" y="111.6" fill="#999" class="taxonLabel">Yuganotheca elegans</text><text x="277.6" y="98.9" fill="grey" class="flag">[?]</text><text x="299.6" y="98.9" fill="#999" class="taxonLabel">Salanygolina</text><text x="186.7" y="86.2" fill="grey" class="flag">[?]</text><text x="208.7" y="86.2" fill="#999" class="taxonLabel">Micrina</text><text x="164" y="73.5" fill="grey" class="flag">[?]</text><text x="186" y="73.5" fill="#999" class="taxonLabel">Paterimitra</text><text x="118.6" y="60.8" fill="grey" class="flag">[?]</text><text x="140.6" y="60.8" fill="#999" class="taxonLabel">Heliomedusa orienta</text><text x="118.6" y="35.4" fill="#e2e2a2" class="flag">[2]</text><text x="140.6" y="35.4" fill="#000" class="taxonLabel">Phoronis</text><text x="118.6" y="48.1" fill="grey" class="flag">[?]</text><text x="140.6" y="48.1" fill="#999" class="taxonLabel">Namacalathus</text><text x="95.9" y="10" fill="#2c7bb6" class="flag">[4]</text><text x="117.9" y="10" fill="#000" class="taxonLabel">Flustra</text><text x="95.9" y="22.7" fill="#2c7bb6" class="flag">[4]</text><text x="117.9" y="22.7" fill="#000" class="taxonLabel">Amathia</text><path d="M5,427.7V281.5H27.7M27.7,281.5V61.5H50.4M50.4,61.5V13.4H73.1M73.1,13.4V7H95.9M73.1,13.4V19.7H95.9M27.7,281.5V501.6H50.4M50.4,501.6V489.7H73.1M50.4,501.6V513.5H73.1M73.1,513.5V502.4H95.9M73.1,513.5V524.6H95.9M95.9,524.6V515.1H118.6M95.9,524.6V534.1H118.6M118.6,534.1V527.8H141.3M118.6,534.1V540.5H141.3M5,427.7V573.8H27.7M27.7,573.8V588.1H50.4M50.4,588.1V578.6H73.1M50.4,588.1V597.6H73.1M73.1,597.6V591.3H95.9M73.1,597.6V604H95.9" stroke="#2c7bb6"></path><path d="M50.4,61.5V109.6H73.1M73.1,109.6V38.8H95.9M95.9,38.8V32.4H118.6M95.9,38.8V45.1H118.6M73.1,109.6V180.5H95.9M95.9,180.5V57.8H118.6M95.9,180.5V303.2H118.6M118.6,303.2V135.7H141.3M141.3,135.7V70.5H164M141.3,135.7V200.9H164M164,200.9V83.2H186.7M164,200.9V318.5H186.7M186.7,318.5V233.8H209.4M209.4,233.8V182.8H232.1M209.4,233.8V284.9H232.1M232.1,284.9V273.7H254.9M232.1,284.9V296H254.9M254.9,296V286.4H277.6M254.9,296V305.5H277.6M277.6,305.5V299.1H300.3M277.6,305.5V311.9H300.3M118.6,303.2V470.6H141.3M141.3,470.6V464.3H164M141.3,470.6V477H164" stroke="#e2e2a2"></path><path d="M232.1,182.8V111H254.9M254.9,111V95.9H277.6M254.9,111V126.1H277.6M277.6,126.1V108.6H300.3M277.6,126.1V143.5H300.3M300.3,143.5V127.7H323M323,127.7V121.3H345.7M323,127.7V134H345.7M300.3,143.5V159.3H323M323,159.3V146.7H345.7M323,159.3V171.9H345.7M345.7,171.9V159.4H368.4M345.7,171.9V184.4H368.4M368.4,184.4V172.1H391.1M368.4,184.4V196.7H391.1M391.1,196.7V184.8H413.9M391.1,196.7V208.6H413.9M413.9,208.6V197.5H436.6M413.9,208.6V219.8H436.6M436.6,219.8V210.2H459.3M436.6,219.8V229.3H459.3M459.3,229.3V222.9H482M232.1,182.8V254.7H254.9M254.9,254.7V248.3H277.6M254.9,254.7V261H277.6" stroke="darkgrey"></path><path d="M459.3,229.3V235.6H482M27.7,573.8V559.5H50.4M50.4,559.5V553.2H73.1M50.4,559.5V565.9H73.1" stroke="#abd9e9"></path><path d="M186.7,318.5V403.1H209.4M209.4,403.1V361.1H232.1M232.1,361.1V334.1H254.9M254.9,334.1V324.6H277.6M254.9,334.1V343.6H277.6M277.6,343.6V337.3H300.3M277.6,343.6V350H300.3M232.1,361.1V388.1H254.9M254.9,388.1V369H277.6M277.6,369V362.7H300.3M277.6,369V375.4H300.3M254.9,388.1V407.1H277.6M277.6,407.1V394.4H300.3M300.3,394.4V388.1H323M300.3,394.4V400.8H323M277.6,407.1V419.8H300.3M300.3,419.8V413.5H323M300.3,419.8V426.2H323M209.4,403.1V445.2H232.1M232.1,445.2V438.9H254.9M232.1,445.2V451.6H254.9" stroke="#fdae61"></path><text x="7" y="430.7" class="node" fill="#4A6FE3">1</text><text x="29.7" y="284.5" class="node" fill="#4A6FE3">1</text><text x="52.4" y="64.5" class="node" fill="#DD6F88">0.13</text><text x="75.1" y="16.4" class="node" fill="#4A6FE3">1</text><text x="75.1" y="112.6" class="node" fill="#DD6F88">0.13</text><text x="97.9" y="41.8" class="node" fill="#4A6FE3">1</text><text x="97.9" y="183.5" class="node" fill="#E4D9DB">0.47</text><text x="120.6" y="306.2" class="node" fill="#DF798F">0.16</text><text x="143.3" y="138.7" class="node" fill="#DF798F">0.16</text><text x="166" y="203.9" class="node" fill="#DF798F">0.16</text><text x="188.7" y="321.5" class="node" fill="#DD6F88">0.13</text><text x="211.4" y="236.8" class="node" fill="#DD6F88">0.13</text><text x="234.1" y="185.8" class="node" fill="#667FE1">0.93</text><text x="256.9" y="114" class="node" fill="#667FE1">0.93</text><text x="279.6" y="129.1" class="node" fill="#E5D0D3">0.44</text><text x="302.3" y="146.5" class="node" fill="#E07C92">0.17</text><text x="325" y="130.7" class="node" fill="#4A6FE3">1</text><text x="325" y="162.3" class="node" fill="#DD6F88">0.13</text><text x="347.7" y="174.9" class="node" fill="#DD6F88">0.13</text><text x="370.4" y="187.4" class="node" fill="#DD6F88">0.13</text><text x="393.1" y="199.7" class="node" fill="#C7CBE3">0.6</text><text x="415.9" y="211.6" class="node" fill="#C7CBE3">0.6</text><text x="438.6" y="222.8" class="node" fill="#4A6FE3">1</text><text x="461.3" y="232.3" class="node" fill="#8696E1">0.83</text><text x="256.9" y="257.7" class="node" fill="#4A6FE3">1</text><text x="234.1" y="287.9" class="node" fill="#E38FA0">0.23</text><text x="256.9" y="299" class="node" fill="#E4D9DB">0.47</text><text x="279.6" y="308.5" class="node" fill="#4A6FE3">1</text><text x="211.4" y="406.1" class="node" fill="#E38C9E">0.22</text><text x="234.1" y="364.1" class="node" fill="#9DA8E2">0.75</text><text x="256.9" y="337.1" class="node" fill="#E4D9DB">0.47</text><text x="279.6" y="346.6" class="node" fill="#E6BDC5">0.38</text><text x="256.9" y="391.1" class="node" fill="#E6BDC5">0.38</text><text x="279.6" y="372" class="node" fill="#E6BDC5">0.38</text><text x="279.6" y="410.1" class="node" fill="#8F9DE1">0.8</text><text x="302.3" y="397.4" class="node" fill="#E49CAA">0.27</text><text x="302.3" y="422.8" class="node" fill="#4A6FE3">1</text><text x="234.1" y="448.2" class="node" fill="#9DA8E2">0.75</text><text x="143.3" y="473.6" class="node" fill="#4A6FE3">1</text><text x="52.4" y="504.6" class="node" fill="#DD6F88">0.13</text><text x="75.1" y="516.5" class="node" fill="#D64F73">0.04</text><text x="97.9" y="527.6" class="node" fill="#D75376">0.05</text><text x="120.6" y="537.1" class="node" fill="#E28699">0.2</text><text x="29.7" y="576.8" class="node" fill="#4A6FE3">1</text><text x="52.4" y="562.5" class="node" fill="#4A6FE3">1</text><text x="52.4" y="591.1" class="node" fill="#4A6FE3">1</text><text x="75.1" y="600.6" class="node" fill="#DD6F88">0.13</text></svg>
