<svg xmlns="http://www.w3.org/2000/svg" version="1.1" viewBox="0 0 682 520" preserveAspectRatio="xMidYMid meet" class="tree" data-char="35"><text x="678" y="12.4" text-anchor="end" class="stepsLabel">Character adds <tspan class="score">1</tspan> to tree score</text><text x="678" y="21.8" text-anchor="end" class="stepsLabel"><tspan class="score">0</tspan> additional regions</text><text x="678" y="31.2" text-anchor="end" class="stepsLabel"></text><text x="678" y="50" text-anchor="end" class="stepsLabel"><tspan dy="16" fill="#34caaf">An optimal tree under:</tspan><tspan x="680" style="font-style:italic" class="notThisAn" dy="1.2em">Implied weights, k = 3</tspan><tspan x="680" style="font-style:italic" class="notThisAn" dy="1.2em">IW, k = 4.5</tspan><tspan x="680" style="font-style:italic" class="notThisAn" dy="1.2em">IW, k = 7</tspan><tspan x="680" style="font-style:italic" class="notThisAn" dy="1.2em">IW, k = 10.5</tspan><tspan x="680" style="font-style:italic" class="notThisAn" dy="1.2em">IW, k = 16</tspan><tspan x="680" style="font-style:italic" class="notThisAn" dy="1.2em">IW, k = 24</tspan><tspan x="680" style="font-style:italic" class="thisAn" dy="1.2em">Equal weights</tspan></text><text x="73.1" y="505.5" fill="#fc8d59" class="flag">[0]</text><text x="95.1" y="505.5" fill="#000" class="taxonLabel">Flustra</text><text x="73.1" y="515" fill="#fc8d59" class="flag">[0]</text><text x="95.1" y="515" fill="#000" class="taxonLabel">Amathia</text><text x="323" y="400.7" fill="grey" class="flag">[?]</text><text x="345" y="400.7" fill="#999" class="taxonLabel">Pauxillites</text><text x="323" y="410.2" fill="grey" class="flag">[?]</text><text x="345" y="410.2" fill="#999" class="taxonLabel">Maxilites</text><text x="300.3" y="419.7" fill="grey" class="flag">[?]</text><text x="322.3" y="419.7" fill="#999" class="taxonLabel">Haplophrentis carinatus</text><text x="345.7" y="362.5" fill="grey" class="flag">[?]</text><text x="367.7" y="362.5" fill="#999" class="taxonLabel">Conotheca</text><text x="345.7" y="372.1" fill="grey" class="flag">[?]</text><text x="367.7" y="372.1" fill="#999" class="taxonLabel">Bactrotheca</text><text x="323" y="381.6" fill="#fc8d59" class="flag">[0]</text><text x="345" y="381.6" fill="#000" class="taxonLabel">Cupitheca holocyclata</text><text x="300.3" y="391.1" fill="#fc8d59" class="flag">[0]</text><text x="322.3" y="391.1" fill="#000" class="taxonLabel">Paramicrocornus</text><text x="254.9" y="429.2" fill="grey" class="flag">[?]</text><text x="276.9" y="429.2" fill="#999" class="taxonLabel">Pedunculotheca diania</text><text x="323" y="324.4" fill="grey" class="flag">[?]</text><text x="345" y="324.4" fill="#999" class="taxonLabel">Mickwitzia muralensis</text><text x="323" y="334" fill="#91bfdb" class="flag">[1]</text><text x="345" y="334" fill="#000" class="taxonLabel">Heliomedusa orienta</text><text x="300.3" y="343.5" fill="grey" class="flag">[?]</text><text x="322.3" y="343.5" fill="#999" class="taxonLabel">Micrina</text><text x="345.7" y="305.4" fill="#91bfdb" class="flag">[1]</text><text x="367.7" y="305.4" fill="#000" class="taxonLabel">Micromitra</text><text x="345.7" y="314.9" fill="#91bfdb" class="flag">[1]</text><text x="367.7" y="314.9" fill="#000" class="taxonLabel">Askepasma toddense</text><text x="391.1" y="276.8" fill="grey" class="flag">[?]</text><text x="413.1" y="276.8" fill="#999" class="taxonLabel">Coolinia pecten</text><text x="391.1" y="286.3" fill="grey" class="flag">[?]</text><text x="413.1" y="286.3" fill="#999" class="taxonLabel">Antigonambonites planus</text><text x="436.6" y="248.2" fill="grey" class="flag">[?]</text><text x="458.6" y="248.2" fill="#999" class="taxonLabel">Tomteluva perturbata</text><text x="436.6" y="257.7" fill="grey" class="flag">[?]</text><text x="458.6" y="257.7" fill="#999" class="taxonLabel">Kutorgina chengjiangensis</text><text x="413.9" y="267.3" fill="#91bfdb" class="flag">[1]</text><text x="435.9" y="267.3" fill="#000" class="taxonLabel">Nisusia sulcata</text><text x="482" y="200.6" fill="#91bfdb" class="flag">[1]</text><text x="504" y="200.6" fill="#000" class="taxonLabel">Terebratulina</text><text x="482" y="210.1" fill="#91bfdb" class="flag">[1]</text><text x="504" y="210.1" fill="#000" class="taxonLabel">Orthis</text><text x="459.3" y="219.6" fill="#91bfdb" class="flag">[1]</text><text x="481.3" y="219.6" fill="#000" class="taxonLabel">Alisina</text><text x="436.6" y="229.2" fill="#91bfdb" class="flag">[1]</text><text x="458.6" y="229.2" fill="#000" class="taxonLabel">Longtancunella chengjiangensis</text><text x="413.9" y="238.7" fill="#91bfdb" class="flag">[1]</text><text x="435.9" y="238.7" fill="#000" class="taxonLabel">Glyptoria</text><text x="345.7" y="295.8" fill="grey" class="flag">[?]</text><text x="367.7" y="295.8" fill="#999" class="taxonLabel">Salanygolina</text><text x="391.1" y="162.5" fill="#91bfdb" class="flag">[1]</text><text x="413.1" y="162.5" fill="#000" class="taxonLabel">Novocrania</text><text x="391.1" y="172" fill="grey" class="flag">[?]</text><text x="413.1" y="172" fill="#999" class="taxonLabel">Craniops</text><text x="368.4" y="181.5" fill="grey" class="flag">[?]</text><text x="390.4" y="181.5" fill="#999" class="taxonLabel">Ussunia</text><text x="345.7" y="191" fill="grey" class="flag">[?]</text><text x="367.7" y="191" fill="#999" class="taxonLabel">Gasconsia</text><text x="436.6" y="114.8" fill="#91bfdb" class="flag">[1]</text><text x="458.6" y="114.8" fill="#000" class="taxonLabel">Pelagodiscus atlanticus</text><text x="436.6" y="124.3" fill="grey" class="flag">[?]</text><text x="458.6" y="124.3" fill="#999" class="taxonLabel">Mummpikia nuda</text><text x="482" y="86.2" fill="#91bfdb" class="flag">[1]</text><text x="504" y="86.2" fill="#000" class="taxonLabel">Siphonobolus priscus</text><text x="482" y="95.8" fill="#91bfdb" class="flag">[1]</text><text x="504" y="95.8" fill="#000" class="taxonLabel">Acanthotretella spinosa</text><text x="482" y="67.2" fill="#91bfdb" class="flag">[1]</text><text x="504" y="67.2" fill="#000" class="taxonLabel">Lingulosacculus</text><text x="482" y="76.7" fill="#91bfdb" class="flag">[1]</text><text x="504" y="76.7" fill="#000" class="taxonLabel">Clupeafumosus socialis</text><text x="436.6" y="105.3" fill="#91bfdb" class="flag">[1]</text><text x="458.6" y="105.3" fill="#000" class="taxonLabel">Lingulellotreta malongensis</text><text x="391.1" y="133.9" fill="#91bfdb" class="flag">[1]</text><text x="413.1" y="133.9" fill="#000" class="taxonLabel">Botsfordia</text><text x="368.4" y="143.4" fill="#91bfdb" class="flag">[1]</text><text x="390.4" y="143.4" fill="#000" class="taxonLabel">Eoobolus</text><text x="345.7" y="152.9" fill="#91bfdb" class="flag">[1]</text><text x="367.7" y="152.9" fill="#000" class="taxonLabel">Lingula</text><text x="254.9" y="353" fill="#91bfdb" class="flag">[1]</text><text x="276.9" y="353" fill="#000" class="taxonLabel">Yuganotheca elegans</text><text x="209.4" y="438.8" fill="#fc8d59" class="flag">[0]</text><text x="231.4" y="438.8" fill="#000" class="taxonLabel">Paterimitra</text><text x="186.7" y="448.3" fill="#fc8d59" class="flag">[0]</text><text x="208.7" y="448.3" fill="#000" class="taxonLabel">Halkieria evangelista</text><text x="164" y="457.8" fill="#fc8d59" class="flag">[0]</text><text x="186" y="457.8" fill="#000" class="taxonLabel">Dailyatia</text><text x="141.3" y="467.4" fill="#fc8d59" class="flag">[0]</text><text x="163.3" y="467.4" fill="#000" class="taxonLabel">Eccentrotheca</text><text x="118.6" y="476.9" fill="#fc8d59" class="flag">[0]</text><text x="140.6" y="476.9" fill="#000" class="taxonLabel">Cotyledion tylodes</text><text x="95.9" y="486.4" fill="#fc8d59" class="flag">[0]</text><text x="117.9" y="486.4" fill="#000" class="taxonLabel">Namacalathus</text><text x="73.1" y="495.9" fill="#fc8d59" class="flag">[0]</text><text x="95.1" y="495.9" fill="#000" class="taxonLabel">Phoronis</text><text x="95.9" y="38.6" fill="#fc8d59" class="flag">[0]</text><text x="117.9" y="38.6" fill="#000" class="taxonLabel">Sipunculus</text><text x="95.9" y="48.1" fill="#fc8d59" class="flag">[0]</text><text x="117.9" y="48.1" fill="#000" class="taxonLabel">Serpula</text><text x="118.6" y="10" fill="#fc8d59" class="flag">[0]</text><text x="140.6" y="10" fill="#000" class="taxonLabel">Tonicella</text><text x="118.6" y="19.5" fill="#fc8d59" class="flag">[0]</text><text x="140.6" y="19.5" fill="#000" class="taxonLabel">Dentalium</text><text x="95.9" y="29.1" fill="#fc8d59" class="flag">[0]</text><text x="117.9" y="29.1" fill="#000" class="taxonLabel">Wiwaxia corrugata</text><text x="50.4" y="57.6" fill="#fc8d59" class="flag">[0]</text><text x="72.4" y="57.6" fill="#000" class="taxonLabel">Loxosomella</text><path d="M5,268.6V42.1H27.7M27.7,42.1V29.6H50.4M50.4,29.6V18.9H73.1M73.1,18.9V11.8H95.9M95.9,11.8V7H118.6M95.9,11.8V16.5H118.6M73.1,18.9V26.1H95.9M50.4,29.6V40.3H73.1M73.1,40.3V35.6H95.9M73.1,40.3V45.1H95.9M27.7,42.1V54.6H50.4M5,268.6V495.1H27.7M27.7,495.1V483H50.4M50.4,483V473H73.1M73.1,473V462.7H95.9M95.9,462.7V451.4H118.6M118.6,451.4V438.5H141.3M141.3,438.5V422.2H164M164,422.2V399.2H186.7M186.7,399.2V362.6H209.4M209.4,362.6V410.5H232.1M232.1,410.5V394.7H254.9M254.9,394.7V379.8H277.6M277.6,379.8V371.5H300.3M300.3,371.5V364.3H323M323,364.3V359.5H345.7M323,364.3V369.1H345.7M300.3,371.5V378.6H323M277.6,379.8V388.1H300.3M254.9,394.7V409.6H277.6M277.6,409.6V402.4H300.3M300.3,402.4V397.7H323M300.3,402.4V407.2H323M277.6,409.6V416.7H300.3M232.1,410.5V426.2H254.9M186.7,399.2V435.8H209.4M164,422.2V445.3H186.7M141.3,438.5V454.8H164M118.6,451.4V464.4H141.3M95.9,462.7V473.9H118.6M73.1,473V483.4H95.9M50.4,483V492.9H73.1M27.7,495.1V507.2H50.4M50.4,507.2V502.5H73.1M50.4,507.2V512H73.1" stroke="#fc8d59"></path><path d="M209.4,362.6V314.8H232.1M232.1,314.8V279.5H254.9M254.9,279.5V225.7H277.6M277.6,225.7V159.5H300.3M300.3,159.5V139.4H323M323,139.4V128.8H345.7M345.7,128.8V117.2H368.4M368.4,117.2V103.5H391.1M391.1,103.5V90.4H413.9M413.9,90.4V78.5H436.6M436.6,78.5V68.9H459.3M459.3,68.9V64.2H482M459.3,68.9V73.7H482M436.6,78.5V88H459.3M459.3,88V83.2H482M459.3,88V92.8H482M413.9,90.4V102.3H436.6M391.1,103.5V116.6H413.9M413.9,116.6V111.8H436.6M413.9,116.6V121.3H436.6M368.4,117.2V130.9H391.1M345.7,128.8V140.4H368.4M323,139.4V149.9H345.7M300.3,159.5V179.7H323M323,179.7V171.4H345.7M345.7,171.4V164.2H368.4M368.4,164.2V159.5H391.1M368.4,164.2V169H391.1M345.7,171.4V178.5H368.4M323,179.7V188H345.7M277.6,225.7V291.8H300.3M300.3,291.8V276.5H323M323,276.5V260.2H345.7M345.7,260.2V241.9H368.4M368.4,241.9V226.7H391.1M391.1,226.7V217.8H413.9M413.9,217.8V209.5H436.6M436.6,209.5V202.3H459.3M459.3,202.3V197.6H482M459.3,202.3V207.1H482M436.6,209.5V216.6H459.3M413.9,217.8V226.2H436.6M391.1,226.7V235.7H413.9M368.4,241.9V257.1H391.1M391.1,257.1V250H413.9M413.9,250V245.2H436.6M413.9,250V254.7H436.6M391.1,257.1V264.3H413.9M345.7,260.2V278.6H368.4M368.4,278.6V273.8H391.1M368.4,278.6V283.3H391.1M323,276.5V292.8H345.7M300.3,291.8V307.1H323M323,307.1V302.4H345.7M323,307.1V311.9H345.7M254.9,279.5V333.3H277.6M277.6,333.3V326.2H300.3M300.3,326.2V321.4H323M300.3,326.2V331H323M277.6,333.3V340.5H300.3M232.1,314.8V350H254.9" stroke="#91bfdb"></path><text x="29.7" y="45.1" class="node" fill="#4A6FE3">1</text><text x="52.4" y="32.6" class="node" fill="#4A6FE3">1</text><text x="75.1" y="21.9" class="node" fill="#4A6FE3">1</text><text x="97.9" y="14.8" class="node" fill="#4A6FE3">1</text><text x="75.1" y="43.3" class="node" fill="#4A6FE3">1</text><text x="29.7" y="498.1" class="node" fill="#4A6FE3">1</text><text x="52.4" y="486" class="node" fill="#E5A8B3">0.31</text><text x="75.1" y="476" class="node" fill="#627DE1">0.94</text><text x="97.9" y="465.7" class="node" fill="#E5A8B3">0.31</text><text x="120.6" y="454.4" class="node" fill="#627DE1">0.94</text><text x="143.3" y="441.5" class="node" fill="#627DE1">0.94</text><text x="166" y="425.2" class="node" fill="#627DE1">0.94</text><text x="188.7" y="402.2" class="node" fill="#627DE1">0.94</text><text x="211.4" y="365.6" class="node" fill="#4A6FE3">1</text><text x="234.1" y="317.8" class="node" fill="#5374E2">0.98</text><text x="256.9" y="282.5" class="node" fill="#627DE1">0.94</text><text x="279.6" y="228.7" class="node" fill="#627DE1">0.94</text><text x="302.3" y="162.5" class="node" fill="#627DE1">0.94</text><text x="325" y="142.4" class="node" fill="#667FE1">0.93</text><text x="347.7" y="131.8" class="node" fill="#667FE1">0.93</text><text x="370.4" y="120.2" class="node" fill="#667FE1">0.93</text><text x="393.1" y="106.5" class="node" fill="#627DE1">0.94</text><text x="415.9" y="93.4" class="node" fill="#4A6FE3">1</text><text x="438.6" y="81.5" class="node" fill="#E5A8B3">0.31</text><text x="461.3" y="71.9" class="node" fill="#4A6FE3">1</text><text x="461.3" y="91" class="node" fill="#667FE1">0.93</text><text x="415.9" y="119.6" class="node" fill="#627DE1">0.94</text><text x="325" y="182.7" class="node" fill="#4A6FE3">1</text><text x="347.7" y="174.4" class="node" fill="#4A6FE3">1</text><text x="370.4" y="167.2" class="node" fill="#5B78E2">0.96</text><text x="302.3" y="294.8" class="node" fill="#4A6FE3">1</text><text x="325" y="279.5" class="node" fill="#5B78E2">0.96</text><text x="347.7" y="263.2" class="node" fill="#5F7BE1">0.95</text><text x="370.4" y="244.9" class="node" fill="#4A6FE3">1</text><text x="393.1" y="229.7" class="node" fill="#4A6FE3">1</text><text x="415.9" y="220.8" class="node" fill="#4A6FE3">1</text><text x="438.6" y="212.5" class="node" fill="#5B78E2">0.96</text><text x="461.3" y="205.3" class="node" fill="#E59FAC">0.28</text><text x="393.1" y="260.1" class="node" fill="#DB617F">0.09</text><text x="415.9" y="253" class="node" fill="#4A6FE3">1</text><text x="370.4" y="281.6" class="node" fill="#5B78E2">0.96</text><text x="325" y="310.1" class="node" fill="#627DE1">0.94</text><text x="279.6" y="336.3" class="node" fill="#627DE1">0.94</text><text x="302.3" y="329.2" class="node" fill="#627DE1">0.94</text><text x="234.1" y="413.5" class="node" fill="#627DE1">0.94</text><text x="256.9" y="397.7" class="node" fill="#E2899B">0.21</text><text x="279.6" y="382.8" class="node" fill="#627DE1">0.94</text><text x="302.3" y="374.5" class="node" fill="#4A6FE3">1</text><text x="325" y="367.3" class="node" fill="#4A6FE3">1</text><text x="279.6" y="412.6" class="node" fill="#4A6FE3">1</text><text x="302.3" y="405.4" class="node" fill="#4A6FE3">1</text><text x="52.4" y="510.2" class="node" fill="#4A6FE3">1</text></svg>
