<svg xmlns="http://www.w3.org/2000/svg" version="1.1" width="682" height="555" class="tree" data-char="98">
 <text x="678" y="14.7" text-anchor="end" class="stepsLabel">Character adds <tspan class="score">2</tspan> to tree score</text>
 <text x="678" y="26.4" text-anchor="end" class="stepsLabel"><tspan class="score">0</tspan> additional regions</text>
 <text x="678" y="38.1" text-anchor="end" class="stepsLabel">CI = 0.5; Fitch CI = 0.5; Fitch RI = 0</text>
 <text x="678" y="61.5" text-anchor="end" class="stepsLabel"><tspan dy="16">An optimal tree under:</tspan><tspan x="680" style="font-style:italic" class="thisAn" dy="1.2em">Equal weights</tspan><tspan x="680" style="font-style:italic" class="notThisAn" dy="1.2em">Implied weights, k = 2</tspan><tspan x="680" style="font-style:italic" class="notThisAn" dy="1.2em">IW, k = 3</tspan><tspan x="680" style="font-style:italic" class="notThisAn" dy="1.2em">IW, k = 4.5</tspan><tspan x="680" style="font-style:italic" class="notThisAn" dy="1.2em">IW, k = 7</tspan></text>
 <text x="73.1" y="538" fill="#fc8d59" class="flag">[0]</text>
 <text x="95.1" y="538" fill="#111" class="taxonLabel">Serpula</text>
 <text x="73.1" y="550" fill="#fc8d59" class="flag">[0]</text>
 <text x="95.1" y="550" fill="#111" class="taxonLabel">Sipunculus</text>
 <text x="95.9" y="514" fill="grey" class="flag">[?]</text>
 <text x="117.9" y="514" fill="#111" class="taxonLabel">Wiwaxia corrugata</text>
 <text x="95.9" y="526" fill="#fc8d59" class="flag">[0]</text>
 <text x="117.9" y="526" fill="#111" class="taxonLabel">Chiton</text>
 <text x="73.1" y="502" fill="#fc8d59" class="flag">[0]</text>
 <text x="95.1" y="502" fill="#111" class="taxonLabel">Dentalium</text>
 <text x="323" y="418" fill="grey" class="flag">[?]</text>
 <text x="345" y="418" fill="#111" class="taxonLabel">Craniops</text>
 <text x="323" y="430" fill="#fc8d59" class="flag">[0]</text>
 <text x="345" y="430" fill="#111" class="taxonLabel">Novocrania</text>
 <text x="300.3" y="406" fill="grey" class="flag">[?]</text>
 <text x="322.3" y="406" fill="#111" class="taxonLabel">Ussunia</text>
 <text x="277.6" y="394" fill="grey" class="flag">[?]</text>
 <text x="299.6" y="394" fill="#111" class="taxonLabel">Gasconsia</text>
 <text x="368.4" y="370" fill="grey" class="flag">[?]</text>
 <text x="390.4" y="370" fill="#111" class="taxonLabel">Antigonambonites planus</text>
 <text x="368.4" y="382" fill="grey" class="flag">[?]</text>
 <text x="390.4" y="382" fill="#111" class="taxonLabel">Coolinia pecten</text>
 <text x="482" y="346" fill="grey" class="flag">[?]</text>
 <text x="504" y="346" fill="#111" class="taxonLabel">Terebratulina</text>
 <text x="482" y="358" fill="grey" class="flag">[?]</text>
 <text x="504" y="358" fill="#111" class="taxonLabel">Orthis</text>
 <text x="459.3" y="334" fill="grey" class="flag">[?]</text>
 <text x="481.3" y="334" fill="#111" class="taxonLabel">Alisina</text>
 <text x="436.6" y="322" fill="grey" class="flag">[?]</text>
 <text x="458.6" y="322" fill="#111" class="taxonLabel">Longtancunella chengjiangensis</text>
 <text x="413.9" y="310" fill="grey" class="flag">[?]</text>
 <text x="435.9" y="310" fill="#111" class="taxonLabel">Glyptoria</text>
 <text x="391.1" y="298" fill="grey" class="flag">[?]</text>
 <text x="413.1" y="298" fill="#111" class="taxonLabel">Nisusia sulcata</text>
 <text x="368.4" y="286" fill="grey" class="flag">[?]</text>
 <text x="390.4" y="286" fill="#111" class="taxonLabel">Kutorgina chengjiangensis</text>
 <text x="345.7" y="262" fill="grey" class="flag">[?]</text>
 <text x="367.7" y="262" fill="#111" class="taxonLabel">Tomteluva perturbata</text>
 <text x="345.7" y="274" fill="grey" class="flag">[?]</text>
 <text x="367.7" y="274" fill="#111" class="taxonLabel">Yuganotheca elegans</text>
 <text x="300.3" y="250" fill="grey" class="flag">[?]</text>
 <text x="322.3" y="250" fill="#111" class="taxonLabel">Salanygolina</text>
 <text x="300.3" y="226" fill="grey" class="flag">[?]</text>
 <text x="322.3" y="226" fill="#111" class="taxonLabel">Micromitra</text>
 <text x="300.3" y="238" fill="grey" class="flag">[?]</text>
 <text x="322.3" y="238" fill="#111" class="taxonLabel">Askepasma toddense</text>
 <text x="413.9" y="202" fill="grey" class="flag">[?]</text>
 <text x="435.9" y="202" fill="#111" class="taxonLabel">Siphonobolus priscus</text>
 <text x="413.9" y="214" fill="grey" class="flag">[?]</text>
 <text x="435.9" y="214" fill="#111" class="taxonLabel">Acanthotretella spinosa</text>
 <text x="391.1" y="190" fill="grey" class="flag">[?]</text>
 <text x="413.1" y="190" fill="#111" class="taxonLabel">Clupeafumosus socialis</text>
 <text x="391.1" y="166" fill="grey" class="flag">[?]</text>
 <text x="413.1" y="166" fill="#111" class="taxonLabel">Lingulosacculus</text>
 <text x="391.1" y="178" fill="grey" class="flag">[?]</text>
 <text x="413.1" y="178" fill="#111" class="taxonLabel">Lingulellotreta malongensis</text>
 <text x="345.7" y="154" fill="grey" class="flag">[?]</text>
 <text x="367.7" y="154" fill="#111" class="taxonLabel">Botsfordia</text>
 <text x="323" y="142" fill="grey" class="flag">[?]</text>
 <text x="345" y="142" fill="#111" class="taxonLabel">Mummpikia nuda</text>
 <text x="300.3" y="130" fill="grey" class="flag">[?]</text>
 <text x="322.3" y="130" fill="#111" class="taxonLabel">Eoobolus</text>
 <text x="277.6" y="118" fill="#fc8d59" class="flag">[0]</text>
 <text x="299.6" y="118" fill="#111" class="taxonLabel">Lingula</text>
 <text x="300.3" y="94" fill="grey" class="flag">[?]</text>
 <text x="322.3" y="94" fill="#111" class="taxonLabel">Pelagodiscus atlanticus</text>
 <text x="300.3" y="106" fill="grey" class="flag">[?]</text>
 <text x="322.3" y="106" fill="#111" class="taxonLabel">Mickwitzia muralensis</text>
 <text x="277.6" y="82" fill="grey" class="flag">[?]</text>
 <text x="299.6" y="82" fill="#111" class="taxonLabel">Micrina</text>
 <text x="254.9" y="58" fill="grey" class="flag">[?]</text>
 <text x="276.9" y="58" fill="#111" class="taxonLabel">Haplophrentis carinatus</text>
 <text x="254.9" y="70" fill="grey" class="flag">[?]</text>
 <text x="276.9" y="70" fill="#111" class="taxonLabel">Pedunculotheca diania</text>
 <text x="232.1" y="46" fill="grey" class="flag">[?]</text>
 <text x="254.1" y="46" fill="#111" class="taxonLabel">Paterimitra</text>
 <text x="186.7" y="34" fill="grey" class="flag">[?]</text>
 <text x="208.7" y="34" fill="#111" class="taxonLabel">Heliomedusa orienta</text>
 <text x="186.7" y="10" fill="grey" class="flag">[?]</text>
 <text x="208.7" y="10" fill="#111" class="taxonLabel">Dailyatia</text>
 <text x="186.7" y="22" fill="grey" class="flag">[?]</text>
 <text x="208.7" y="22" fill="#111" class="taxonLabel">Halkieria evangelista</text>
 <text x="141.3" y="442" fill="grey" class="flag">[?]</text>
 <text x="163.3" y="442" fill="#111" class="taxonLabel">Eccentrotheca</text>
 <text x="118.6" y="454" fill="grey" class="flag">[?]</text>
 <text x="140.6" y="454" fill="#111" class="taxonLabel">Cotyledion tylodes</text>
 <text x="95.9" y="466" fill="#91bfdb" class="flag">[1]</text>
 <text x="117.9" y="466" fill="#111" class="taxonLabel">Phoronis</text>
 <text x="73.1" y="478" fill="#fc8d59" class="flag">[0]</text>
 <text x="95.1" y="478" fill="#111" class="taxonLabel">Flustra</text>
 <text x="50.4" y="490" fill="#91bfdb" class="flag">[1]</text>
 <text x="72.4" y="490" fill="#111" class="taxonLabel">Loxosomella</text>
 <path d="M5,494V463.5H27.7M27.7,463.5V440.1H50.4M50.4,440.1V405.1H73.1M73.1,405.1V347.2H95.9M95.9,347.2V243.4H118.6M118.6,243.4V47.9H141.3M141.3,47.9V13H164M164,13V7H186.7M164,13V19H186.7M141.3,47.9V82.8H164M164,82.8V31H186.7M164,82.8V134.5H186.7M186.7,134.5V52H209.4M209.4,52V43H232.1M209.4,52V61H232.1M232.1,61V55H254.9M232.1,61V67H254.9M186.7,134.5V217H209.4M209.4,217V107.7H232.1M232.1,107.7V88H254.9M254.9,88V79H277.6M254.9,88V97H277.6M277.6,97V91H300.3M277.6,97V103H300.3M232.1,107.7V127.5H254.9M254.9,127.5V115H277.6M254.9,127.5V139.9H277.6M277.6,139.9V127H300.3M277.6,139.9V152.9H300.3M300.3,152.9V139H323M300.3,152.9V166.8H323M323,166.8V151H345.7M323,166.8V182.5H345.7M345.7,182.5V169H368.4M368.4,169V163H391.1M368.4,169V175H391.1M345.7,182.5V196H368.4M368.4,196V187H391.1M368.4,196V205H391.1M391.1,205V199H413.9M391.1,205V211H413.9M209.4,217V326.3H232.1M232.1,326.3V251.1H254.9M254.9,251.1V229H277.6M277.6,229V223H300.3M277.6,229V235H300.3M254.9,251.1V273.2H277.6M277.6,273.2V247H300.3M277.6,273.2V299.5H300.3M300.3,299.5V265H323M323,265V259H345.7M323,265V271H345.7M300.3,299.5V333.9H323M323,333.9V294.8H345.7M345.7,294.8V283H368.4M345.7,294.8V306.6H368.4M368.4,306.6V295H391.1M368.4,306.6V318.2H391.1M391.1,318.2V307H413.9M391.1,318.2V329.5H413.9M413.9,329.5V319H436.6M413.9,329.5V340H436.6M436.6,340V331H459.3M436.6,340V349H459.3M459.3,349V343H482M459.3,349V355H482M323,333.9V373H345.7M345.7,373V367H368.4M345.7,373V379H368.4M232.1,326.3V401.5H254.9M254.9,401.5V391H277.6M254.9,401.5V412H277.6M277.6,412V403H300.3M277.6,412V421H300.3M300.3,421V415H323M300.3,421V427H323M118.6,243.4V439H141.3M95.9,347.2V451H118.6M50.4,440.1V475H73.1M5,494V524.5H27.7M27.7,524.5V508H50.4M50.4,508V499H73.1M50.4,508V517H73.1M73.1,517V511H95.9M73.1,517V523H95.9M27.7,524.5V541H50.4M50.4,541V535H73.1M50.4,541V547H73.1" stroke="#fc8d59"></path>
 <path d="M73.1,405.1V463H95.9M27.7,463.5V487H50.4" stroke="#91bfdb"></path>
 <text x="7" y="497" class="node" fill="#4A6FE3">1</text>
 <text x="29.7" y="466.5" class="node" fill="#ABB4E2">0.7</text>
 <text x="52.4" y="443.1" class="node" fill="#ABB4E2">0.7</text>
 <text x="75.1" y="408.1" class="node" fill="#ABB4E2">0.7</text>
 <text x="97.9" y="350.2" class="node" fill="#ABB4E2">0.7</text>
 <text x="120.6" y="246.4" class="node" fill="#E2899B">0.21</text>
 <text x="143.3" y="50.9" class="node" fill="#CACDE3">0.59</text>
 <text x="166" y="16" class="node" fill="#7388E1">0.89</text>
 <text x="166" y="85.8" class="node" fill="#4A6FE3">1</text>
 <text x="188.7" y="137.5" class="node" fill="#5B78E2">0.96</text>
 <text x="211.4" y="55" class="node" fill="#AEB6E2">0.69</text>
 <text x="234.1" y="64" class="node" fill="#4A6FE3">1</text>
 <text x="211.4" y="220" class="node" fill="#5B78E2">0.96</text>
 <text x="234.1" y="110.7" class="node" fill="#AEB6E2">0.69</text>
 <text x="256.9" y="91" class="node" fill="#AEB6E2">0.69</text>
 <text x="279.6" y="100" class="node" fill="#ABB4E2">0.7</text>
 <text x="256.9" y="130.5" class="node" fill="#ABB4E2">0.7</text>
 <text x="279.6" y="142.9" class="node" fill="#ABB4E2">0.7</text>
 <text x="302.3" y="155.9" class="node" fill="#AEB6E2">0.69</text>
 <text x="325" y="169.8" class="node" fill="#AEB6E2">0.69</text>
 <text x="347.7" y="185.5" class="node" fill="#AEB6E2">0.69</text>
 <text x="370.4" y="172" class="node" fill="#E07C92">0.17</text>
 <text x="370.4" y="199" class="node" fill="#DDDEE3">0.52</text>
 <text x="393.1" y="208" class="node" fill="#4A6FE3">1</text>
 <text x="234.1" y="329.3" class="node" fill="#4A6FE3">1</text>
 <text x="256.9" y="254.1" class="node" fill="#929FE1">0.79</text>
 <text x="279.6" y="232" class="node" fill="#4A6FE3">1</text>
 <text x="279.6" y="276.2" class="node" fill="#5B78E2">0.96</text>
 <text x="302.3" y="302.5" class="node" fill="#E6BDC5">0.38</text>
 <text x="325" y="268" class="node" fill="#627DE1">0.94</text>
 <text x="325" y="336.9" class="node" fill="#4A6FE3">1</text>
 <text x="347.7" y="297.8" class="node" fill="#DDDEE3">0.52</text>
 <text x="370.4" y="309.6" class="node" fill="#DDDEE3">0.52</text>
 <text x="393.1" y="321.2" class="node" fill="#DDDEE3">0.52</text>
 <text x="415.9" y="332.5" class="node" fill="#DDDEE3">0.52</text>
 <text x="438.6" y="343" class="node" fill="#4A6FE3">1</text>
 <text x="461.3" y="352" class="node" fill="#8F9DE1">0.8</text>
 <text x="347.7" y="376" class="node" fill="#4A6FE3">1</text>
 <text x="256.9" y="404.5" class="node" fill="#4A6FE3">1</text>
 <text x="279.6" y="415" class="node" fill="#4A6FE3">1</text>
 <text x="302.3" y="424" class="node" fill="#4A6FE3">1</text>
 <text x="29.7" y="527.5" class="node" fill="#ABB4E2">0.7</text>
 <text x="52.4" y="511" class="node" fill="#ABB4E2">0.7</text>
 <text x="75.1" y="520" class="node" fill="#ABB4E2">0.7</text>
 <text x="52.4" y="544" class="node" fill="#4A6FE3">1</text></svg>
