<svg xmlns="http://www.w3.org/2000/svg" version="1.1" width="682" height="682" class="tree" data-char="19"><text x="678" y="15.4" text-anchor="end" class="stepsLabel">Character adds <tspan class="score">1</tspan> to tree score</text><text x="678" y="27.8" text-anchor="end" class="stepsLabel"><tspan class="score">0</tspan> additional regions</text><text x="678" y="40.2" text-anchor="end" class="stepsLabel">CI = 1; Fitch CI = 1; Fitch RI = n/a</text><text x="678" y="65" text-anchor="end" class="stepsLabel"><tspan dy="16" fill="#34caaf">An optimal tree under:</tspan><tspan x="680" style="font-style:italic" class="thisAn" dy="1.2em">Equal weights</tspan><tspan x="680" style="font-style:italic" class="notThisAn" dy="1.2em">Implied weights, k = 3</tspan><tspan x="680" style="font-style:italic" class="notThisAn" dy="1.2em">IW, k = 4.5</tspan><tspan x="680" style="font-style:italic" class="notThisAn" dy="1.2em">IW, k = 7</tspan><tspan x="680" style="font-style:italic" class="notThisAn" dy="1.2em">IW, k = 10.5</tspan><tspan x="680" style="font-style:italic" class="notThisAn" dy="1.2em">IW, k = 16</tspan><tspan x="680" style="font-style:italic" class="notThisAn" dy="1.2em">IW, k = 24</tspan></text><text x="308.5" y="664.4" fill="grey" class="flag">[?]</text><text x="330.5" y="664.4" fill="#999" class="taxonLabel">Mickwitzia muralensis</text><text x="308.5" y="677" fill="grey" class="flag">[?]</text><text x="330.5" y="677" fill="#999" class="taxonLabel">Heliomedusa orienta</text><text x="286.9" y="651.8" fill="grey" class="flag">[?]</text><text x="308.9" y="651.8" fill="#999" class="taxonLabel">Micrina</text><text x="330.2" y="626.7" fill="grey" class="flag">[?]</text><text x="352.2" y="626.7" fill="#999" class="taxonLabel">Askepasma toddense</text><text x="330.2" y="639.2" fill="grey" class="flag">[?]</text><text x="352.2" y="639.2" fill="#999" class="taxonLabel">Micromitra</text><text x="373.6" y="601.5" fill="grey" class="flag">[?]</text><text x="395.6" y="601.5" fill="#999" class="taxonLabel">Antigonambonites planus</text><text x="373.6" y="614.1" fill="grey" class="flag">[?]</text><text x="395.6" y="614.1" fill="#999" class="taxonLabel">Coolinia pecten</text><text x="460.3" y="576.3" fill="#fc8d59" class="flag">[0]</text><text x="482.3" y="576.3" fill="#000" class="taxonLabel">Terebratulina</text><text x="460.3" y="588.9" fill="grey" class="flag">[?]</text><text x="482.3" y="588.9" fill="#999" class="taxonLabel">Orthis</text><text x="438.6" y="563.7" fill="grey" class="flag">[?]</text><text x="460.6" y="563.7" fill="#999" class="taxonLabel">Alisina</text><text x="417" y="551.2" fill="grey" class="flag">[?]</text><text x="439" y="551.2" fill="#999" class="taxonLabel">Longtancunella chengjiangensis</text><text x="395.3" y="538.6" fill="grey" class="flag">[?]</text><text x="417.3" y="538.6" fill="#999" class="taxonLabel">Glyptoria</text><text x="417" y="513.4" fill="grey" class="flag">[?]</text><text x="439" y="513.4" fill="#999" class="taxonLabel">Nisusia sulcata</text><text x="417" y="526" fill="grey" class="flag">[?]</text><text x="439" y="526" fill="#999" class="taxonLabel">Kutorgina chengjiangensis</text><text x="395.3" y="500.8" fill="grey" class="flag">[?]</text><text x="417.3" y="500.8" fill="#999" class="taxonLabel">Tomteluva perturbata</text><text x="330.2" y="488.2" fill="grey" class="flag">[?]</text><text x="352.2" y="488.2" fill="#999" class="taxonLabel">Salanygolina</text><text x="482" y="463.1" fill="grey" class="flag">[?]</text><text x="504" y="463.1" fill="#999" class="taxonLabel">Acanthotretella spinosa</text><text x="482" y="475.6" fill="grey" class="flag">[?]</text><text x="504" y="475.6" fill="#999" class="taxonLabel">Siphonobolus priscus</text><text x="460.3" y="450.5" fill="grey" class="flag">[?]</text><text x="482.3" y="450.5" fill="#999" class="taxonLabel">Lingulosacculus</text><text x="438.6" y="437.9" fill="grey" class="flag">[?]</text><text x="460.6" y="437.9" fill="#999" class="taxonLabel">Clupeafumosus socialis</text><text x="417" y="425.3" fill="grey" class="flag">[?]</text><text x="439" y="425.3" fill="#999" class="taxonLabel">Lingulellotreta malongensis</text><text x="417" y="400.1" fill="grey" class="flag">[?]</text><text x="439" y="400.1" fill="#999" class="taxonLabel">Mummpikia nuda</text><text x="417" y="412.7" fill="#fc8d59" class="flag">[0]</text><text x="439" y="412.7" fill="#000" class="taxonLabel">Pelagodiscus atlanticus</text><text x="373.6" y="387.5" fill="grey" class="flag">[?]</text><text x="395.6" y="387.5" fill="#999" class="taxonLabel">Botsfordia</text><text x="351.9" y="375" fill="grey" class="flag">[?]</text><text x="373.9" y="375" fill="#999" class="taxonLabel">Eoobolus</text><text x="330.2" y="362.4" fill="#91bfdb" class="flag">[1]</text><text x="352.2" y="362.4" fill="#000" class="taxonLabel">Lingula</text><text x="373.6" y="337.2" fill="#fc8d59" class="flag">[0]</text><text x="395.6" y="337.2" fill="#000" class="taxonLabel">Novocrania</text><text x="373.6" y="349.8" fill="grey" class="flag">[?]</text><text x="395.6" y="349.8" fill="#999" class="taxonLabel">Craniops</text><text x="351.9" y="324.6" fill="grey" class="flag">[?]</text><text x="373.9" y="324.6" fill="#999" class="taxonLabel">Ussunia</text><text x="330.2" y="312" fill="grey" class="flag">[?]</text><text x="352.2" y="312" fill="#999" class="taxonLabel">Gasconsia</text><text x="243.5" y="299.5" fill="grey" class="flag">[?]</text><text x="265.5" y="299.5" fill="#999" class="taxonLabel">Yuganotheca elegans</text><text x="308.5" y="274.3" fill="grey" class="flag">[?]</text><text x="330.5" y="274.3" fill="#999" class="taxonLabel">Pauxillites</text><text x="308.5" y="286.9" fill="grey" class="flag">[?]</text><text x="330.5" y="286.9" fill="#999" class="taxonLabel">Maxilites</text><text x="286.9" y="261.7" fill="#fc8d59" class="flag">[0]</text><text x="308.9" y="261.7" fill="#000" class="taxonLabel">Haplophrentis carinatus</text><text x="330.2" y="236.5" fill="grey" class="flag">[?]</text><text x="352.2" y="236.5" fill="#999" class="taxonLabel">Bactrotheca</text><text x="330.2" y="249.1" fill="grey" class="flag">[?]</text><text x="352.2" y="249.1" fill="#999" class="taxonLabel">Conotheca</text><text x="308.5" y="223.9" fill="grey" class="flag">[?]</text><text x="330.5" y="223.9" fill="#999" class="taxonLabel">Cupitheca holocyclata</text><text x="286.9" y="211.4" fill="grey" class="flag">[?]</text><text x="308.9" y="211.4" fill="#999" class="taxonLabel">Paramicrocornus</text><text x="243.5" y="198.8" fill="grey" class="flag">[?]</text><text x="265.5" y="198.8" fill="#999" class="taxonLabel">Pedunculotheca diania</text><text x="200.1" y="186.2" fill="grey" class="flag">[?]</text><text x="222.1" y="186.2" fill="#999" class="taxonLabel">Paterimitra</text><text x="178.5" y="173.6" fill="#fc8d59" class="flag">[0]</text><text x="200.5" y="173.6" fill="#000" class="taxonLabel">Halkieria evangelista</text><text x="156.8" y="161" fill="grey" class="flag">[?]</text><text x="178.8" y="161" fill="#999" class="taxonLabel">Dailyatia</text><text x="135.1" y="148.4" fill="#fc8d59" class="flag">[0]</text><text x="157.1" y="148.4" fill="#000" class="taxonLabel">Cotyledion tylodes</text><text x="113.4" y="135.8" fill="grey" class="flag">[?]</text><text x="135.4" y="135.8" fill="#999" class="taxonLabel">Eccentrotheca</text><text x="91.7" y="123.3" fill="#fc8d59" class="flag">[0]</text><text x="113.7" y="123.3" fill="#000" class="taxonLabel">Phoronis</text><text x="70" y="110.7" fill="grey" class="flag">[?]</text><text x="92" y="110.7" fill="#999" class="taxonLabel">Namacalathus</text><text x="70" y="85.5" fill="#fc8d59" class="flag">[0]</text><text x="92" y="85.5" fill="#000" class="taxonLabel">Amathia</text><text x="70" y="98.1" fill="#fc8d59" class="flag">[0]</text><text x="92" y="98.1" fill="#000" class="taxonLabel">Flustra</text><text x="91.7" y="60.3" fill="#fc8d59" class="flag">[0]</text><text x="113.7" y="60.3" fill="#000" class="taxonLabel">Sipunculus</text><text x="91.7" y="72.9" fill="#fc8d59" class="flag">[0]</text><text x="113.7" y="72.9" fill="#000" class="taxonLabel">Serpula</text><text x="113.4" y="35.2" fill="#fc8d59" class="flag">[0]</text><text x="135.4" y="35.2" fill="#000" class="taxonLabel">Tonicella</text><text x="113.4" y="47.8" fill="#fc8d59" class="flag">[0]</text><text x="135.4" y="47.8" fill="#000" class="taxonLabel">Dentalium</text><text x="91.7" y="22.6" fill="#fc8d59" class="flag">[0]</text><text x="113.7" y="22.6" fill="#000" class="taxonLabel">Wiwaxia corrugata</text><text x="48.4" y="10" fill="#fc8d59" class="flag">[0]</text><text x="70.4" y="10" fill="#000" class="taxonLabel">Loxosomella</text><path d="M5,65.8V26.7H26.7M26.7,26.7V7H48.4M26.7,26.7V46.3H48.4M48.4,46.3V29H70M70,29V19.6H91.7M70,29V38.5H91.7M91.7,38.5V32.2H113.4M91.7,38.5V44.8H113.4M48.4,46.3V63.6H70M70,63.6V57.3H91.7M70,63.6V69.9H91.7M5,65.8V105H26.7M26.7,105V88.8H48.4M48.4,88.8V82.5H70M48.4,88.8V95.1H70M26.7,105V121.2H48.4M48.4,121.2V107.7H70M48.4,121.2V134.7H70M70,134.7V120.3H91.7M70,134.7V149H91.7M91.7,149V132.8H113.4M91.7,149V165.2H113.4M113.4,165.2V145.4H135.1M113.4,165.2V185.1H135.1M135.1,185.1V158H156.8M135.1,185.1V212.1H156.8M156.8,212.1V170.6H178.5M156.8,212.1V253.6H178.5M178.5,253.6V183.2H200.1M178.5,253.6V324.1H200.1M200.1,324.1V219.8H221.8M221.8,219.8V195.8H243.5M221.8,219.8V243.8H243.5M243.5,243.8V219.4H265.2M265.2,219.4V208.4H286.9M265.2,219.4V230.4H286.9M286.9,230.4V220.9H308.5M286.9,230.4V239.8H308.5M308.5,239.8V233.5H330.2M308.5,239.8V246.1H330.2M243.5,243.8V268.1H265.2M265.2,268.1V258.7H286.9M265.2,268.1V277.6H286.9M286.9,277.6V271.3H308.5M286.9,277.6V283.9H308.5M200.1,324.1V428.3H221.8M221.8,428.3V296.5H243.5M221.8,428.3V560.2H243.5M243.5,560.2V462.2H265.2M265.2,462.2V346.6H286.9M286.9,346.6V320H308.5M308.5,320V309H330.2M308.5,320V331.1H330.2M330.2,331.1V321.6H351.9M330.2,331.1V340.5H351.9M351.9,340.5V334.2H373.6M351.9,340.5V346.8H373.6M286.9,346.6V373.1H308.5M308.5,373.1V386.8H330.2M330.2,386.8V372H351.9M330.2,386.8V401.7H351.9M351.9,401.7V384.5H373.6M351.9,401.7V418.8H373.6M373.6,418.8V403.4H395.3M395.3,403.4V397.1H417M395.3,403.4V409.7H417M373.6,418.8V434.1H395.3M395.3,434.1V422.3H417M395.3,434.1V445.9H417M417,445.9V434.9H438.6M417,445.9V456.9H438.6M438.6,456.9V447.5H460.3M438.6,456.9V466.3H460.3M460.3,466.3V460.1H482M460.3,466.3V472.6H482M265.2,462.2V577.8H286.9M286.9,577.8V525.6H308.5M308.5,525.6V485.2H330.2M308.5,525.6V566H330.2M330.2,566V527.3H351.9M351.9,527.3V507.3H373.6M373.6,507.3V497.8H395.3M373.6,507.3V516.7H395.3M395.3,516.7V510.4H417M395.3,516.7V523H417M351.9,527.3V547.4H373.6M373.6,547.4V535.6H395.3M373.6,547.4V559.2H395.3M395.3,559.2V548.2H417M395.3,559.2V570.2H417M417,570.2V560.7H438.6M417,570.2V579.6H438.6M438.6,579.6V573.3H460.3M438.6,579.6V585.9H460.3M330.2,566V604.8H351.9M351.9,604.8V598.5H373.6M351.9,604.8V611.1H373.6M286.9,577.8V630H308.5M308.5,630V623.7H330.2M308.5,630V636.2H330.2M243.5,560.2V658.3H265.2M265.2,658.3V648.8H286.9M265.2,658.3V667.7H286.9M286.9,667.7V661.4H308.5M286.9,667.7V674H308.5" stroke="#fc8d59"></path><path d="M308.5,373.1V359.4H330.2" stroke="#91bfdb"></path><text x="28.7" y="29.7" class="node" fill="#4A6FE3">1</text><text x="50.4" y="49.3" class="node" fill="#4A6FE3">1</text><text x="72" y="32" class="node" fill="red">NA</text><text x="93.7" y="41.5" class="node" fill="red">NA</text><text x="72" y="66.6" class="node" fill="red">NA</text><text x="28.7" y="108" class="node" fill="red">NA</text><text x="50.4" y="91.8" class="node" fill="red">NA</text><text x="50.4" y="124.2" class="node" fill="red">NA</text><text x="72" y="137.7" class="node" fill="#4A6FE3">1</text><text x="93.7" y="152" class="node" fill="red">NA</text><text x="115.4" y="168.2" class="node" fill="red">NA</text><text x="137.1" y="188.1" class="node" fill="red">NA</text><text x="158.8" y="215.1" class="node" fill="red">NA</text><text x="180.5" y="256.6" class="node" fill="red">NA</text><text x="202.1" y="327.1" class="node" fill="red">NA</text><text x="223.8" y="222.8" class="node" fill="red">NA</text><text x="245.5" y="246.8" class="node" fill="red">NA</text><text x="267.2" y="222.4" class="node" fill="red">NA</text><text x="288.9" y="233.4" class="node" fill="red">NA</text><text x="310.5" y="242.8" class="node" fill="red">NA</text><text x="267.2" y="271.1" class="node" fill="#5F7BE1">0.95</text><text x="288.9" y="280.6" class="node" fill="#4A6FE3">1</text><text x="223.8" y="431.3" class="node" fill="red">NA</text><text x="245.5" y="563.2" class="node" fill="red">NA</text><text x="267.2" y="465.2" class="node" fill="red">NA</text><text x="288.9" y="349.6" class="node" fill="red">NA</text><text x="310.5" y="323" class="node" fill="red">NA</text><text x="332.2" y="334.1" class="node" fill="red">NA</text><text x="353.9" y="343.5" class="node" fill="red">NA</text><text x="310.5" y="376.1" class="node" fill="red">NA</text><text x="332.2" y="389.8" class="node" fill="red">NA</text><text x="353.9" y="404.7" class="node" fill="red">NA</text><text x="375.6" y="421.8" class="node" fill="red">NA</text><text x="397.3" y="406.4" class="node" fill="red">NA</text><text x="397.3" y="437.1" class="node" fill="red">NA</text><text x="419" y="448.9" class="node" fill="red">NA</text><text x="440.6" y="459.9" class="node" fill="red">NA</text><text x="462.3" y="469.3" class="node" fill="red">NA</text><text x="288.9" y="580.8" class="node" fill="red">NA</text><text x="310.5" y="528.6" class="node" fill="red">NA</text><text x="332.2" y="569" class="node" fill="red">NA</text><text x="353.9" y="530.3" class="node" fill="red">NA</text><text x="375.6" y="510.3" class="node" fill="red">NA</text><text x="397.3" y="519.7" class="node" fill="red">NA</text><text x="375.6" y="550.4" class="node" fill="red">NA</text><text x="397.3" y="562.2" class="node" fill="red">NA</text><text x="419" y="573.2" class="node" fill="red">NA</text><text x="440.6" y="582.6" class="node" fill="red">NA</text><text x="353.9" y="607.8" class="node" fill="red">NA</text><text x="310.5" y="633" class="node" fill="red">NA</text><text x="267.2" y="661.3" class="node" fill="#4A6FE3">1</text><text x="288.9" y="670.7" class="node" fill="red">NA</text></svg>
