<svg xmlns="http://www.w3.org/2000/svg" version="1.1" width="682" height="682" class="tree" data-char="137"><text x="678" y="15.6" text-anchor="end" class="stepsLabel">Character adds <tspan class="score">2</tspan> to tree score</text><text x="678" y="28.2" text-anchor="end" class="stepsLabel"><tspan class="score">0</tspan> additional regions</text><text x="678" y="40.8" text-anchor="end" class="stepsLabel">CI = 0.5; Fitch CI = 0.5; Fitch RI = 0.67</text><text x="678" y="66" text-anchor="end" class="stepsLabel"><tspan dy="16" fill="#34caaf">An optimal tree under:</tspan><tspan x="680" style="font-style:italic" class="thisAn" dy="1.2em">Equal weights</tspan><tspan x="680" style="font-style:italic" class="notThisAn" dy="1.2em">Implied weights, k = 2</tspan><tspan x="680" style="font-style:italic" class="notThisAn" dy="1.2em">IW, k = 3</tspan><tspan x="680" style="font-style:italic" class="notThisAn" dy="1.2em">IW, k = 4.5</tspan><tspan x="680" style="font-style:italic" class="notThisAn" dy="1.2em">IW, k = 7</tspan><tspan x="680" style="font-style:italic" class="notThisAn" dy="1.2em">IW, k = 10.5</tspan><tspan x="680" style="font-style:italic" class="notThisAn" dy="1.2em">IW, k = 16</tspan><tspan x="680" style="font-style:italic" class="notThisAn" dy="1.2em">IW, k = 24</tspan></text><text x="95.9" y="664.2" fill="#91bfdb" class="flag">[1]</text><text x="117.9" y="664.2" fill="#000" class="taxonLabel">Tonicella</text><text x="95.9" y="677" fill="#91bfdb" class="flag">[1]</text><text x="117.9" y="677" fill="#000" class="taxonLabel">Dentalium</text><text x="73.1" y="651.3" fill="grey" class="flag">[?]</text><text x="95.1" y="651.3" fill="#999" class="taxonLabel">Wiwaxia corrugata</text><text x="73.1" y="625.7" fill="#91bfdb" class="flag">[1]</text><text x="95.1" y="625.7" fill="#000" class="taxonLabel">Serpula</text><text x="73.1" y="638.5" fill="#91bfdb" class="flag">[1]</text><text x="95.1" y="638.5" fill="#000" class="taxonLabel">Sipunculus</text><text x="482" y="587.2" fill="grey" class="flag">[?]</text><text x="504" y="587.2" fill="#999" class="taxonLabel">Siphonobolus priscus</text><text x="482" y="600" fill="grey" class="flag">[?]</text><text x="504" y="600" fill="#999" class="taxonLabel">Acanthotretella spinosa</text><text x="459.3" y="574.4" fill="grey" class="flag">[?]</text><text x="481.3" y="574.4" fill="#999" class="taxonLabel">Lingulosacculus</text><text x="436.6" y="561.6" fill="grey" class="flag">[?]</text><text x="458.6" y="561.6" fill="#999" class="taxonLabel">Clupeafumosus socialis</text><text x="413.9" y="548.7" fill="grey" class="flag">[?]</text><text x="435.9" y="548.7" fill="#999" class="taxonLabel">Lingulellotreta malongensis</text><text x="413.9" y="523.1" fill="#91bfdb" class="flag">[1]</text><text x="435.9" y="523.1" fill="#000" class="taxonLabel">Pelagodiscus atlanticus</text><text x="413.9" y="535.9" fill="grey" class="flag">[?]</text><text x="435.9" y="535.9" fill="#999" class="taxonLabel">Mummpikia nuda</text><text x="368.4" y="510.2" fill="grey" class="flag">[?]</text><text x="390.4" y="510.2" fill="#999" class="taxonLabel">Botsfordia</text><text x="345.7" y="497.4" fill="grey" class="flag">[?]</text><text x="367.7" y="497.4" fill="#999" class="taxonLabel">Eoobolus</text><text x="323" y="484.6" fill="#91bfdb" class="flag">[1]</text><text x="345" y="484.6" fill="#000" class="taxonLabel">Lingula</text><text x="413.9" y="458.9" fill="#91bfdb" class="flag">[1]</text><text x="435.9" y="458.9" fill="#000" class="taxonLabel">Novocrania</text><text x="413.9" y="471.8" fill="grey" class="flag">[?]</text><text x="435.9" y="471.8" fill="#999" class="taxonLabel">Craniops</text><text x="391.1" y="446.1" fill="grey" class="flag">[?]</text><text x="413.1" y="446.1" fill="#999" class="taxonLabel">Ussunia</text><text x="368.4" y="433.3" fill="grey" class="flag">[?]</text><text x="390.4" y="433.3" fill="#999" class="taxonLabel">Heliomedusa orienta</text><text x="345.7" y="420.5" fill="grey" class="flag">[?]</text><text x="367.7" y="420.5" fill="#999" class="taxonLabel">Mickwitzia muralensis</text><text x="345.7" y="394.8" fill="grey" class="flag">[?]</text><text x="367.7" y="394.8" fill="#999" class="taxonLabel">Micromitra</text><text x="345.7" y="407.6" fill="grey" class="flag">[?]</text><text x="367.7" y="407.6" fill="#999" class="taxonLabel">Gasconsia</text><text x="459.3" y="369.2" fill="grey" class="flag">[?]</text><text x="481.3" y="369.2" fill="#999" class="taxonLabel">Alisina</text><text x="459.3" y="382" fill="#91bfdb" class="flag">[1]</text><text x="481.3" y="382" fill="#000" class="taxonLabel">Terebratulina</text><text x="436.6" y="356.3" fill="grey" class="flag">[?]</text><text x="458.6" y="356.3" fill="#999" class="taxonLabel">Orthis</text><text x="413.9" y="343.5" fill="grey" class="flag">[?]</text><text x="435.9" y="343.5" fill="#999" class="taxonLabel">Glyptoria</text><text x="413.9" y="317.8" fill="grey" class="flag">[?]</text><text x="435.9" y="317.8" fill="#999" class="taxonLabel">Kutorgina chengjiangensis</text><text x="413.9" y="330.7" fill="grey" class="flag">[?]</text><text x="435.9" y="330.7" fill="#999" class="taxonLabel">Nisusia sulcata</text><text x="391.1" y="292.2" fill="grey" class="flag">[?]</text><text x="413.1" y="292.2" fill="#999" class="taxonLabel">Antigonambonites planus</text><text x="391.1" y="305" fill="grey" class="flag">[?]</text><text x="413.1" y="305" fill="#999" class="taxonLabel">Coolinia pecten</text><text x="391.1" y="266.5" fill="grey" class="flag">[?]</text><text x="413.1" y="266.5" fill="#999" class="taxonLabel">Tomteluva perturbata</text><text x="391.1" y="279.4" fill="grey" class="flag">[?]</text><text x="413.1" y="279.4" fill="#999" class="taxonLabel">Yuganotheca elegans</text><text x="368.4" y="253.7" fill="grey" class="flag">[?]</text><text x="390.4" y="253.7" fill="#999" class="taxonLabel">Longtancunella chengjiangensis</text><text x="323" y="240.9" fill="grey" class="flag">[?]</text><text x="345" y="240.9" fill="#999" class="taxonLabel">Salanygolina</text><text x="300.3" y="228.1" fill="grey" class="flag">[?]</text><text x="322.3" y="228.1" fill="#999" class="taxonLabel">Askepasma toddense</text><text x="254.9" y="215.2" fill="grey" class="flag">[?]</text><text x="276.9" y="215.2" fill="#999" class="taxonLabel">Micrina</text><text x="368.4" y="189.6" fill="grey" class="flag">[?]</text><text x="390.4" y="189.6" fill="#999" class="taxonLabel">Pauxillites</text><text x="368.4" y="202.4" fill="grey" class="flag">[?]</text><text x="390.4" y="202.4" fill="#999" class="taxonLabel">Maxilites</text><text x="345.7" y="176.8" fill="grey" class="flag">[?]</text><text x="367.7" y="176.8" fill="#999" class="taxonLabel">Haplophrentis carinatus</text><text x="323" y="163.9" fill="grey" class="flag">[?]</text><text x="345" y="163.9" fill="#999" class="taxonLabel">Paramicrocornus</text><text x="300.3" y="151.1" fill="grey" class="flag">[?]</text><text x="322.3" y="151.1" fill="#999" class="taxonLabel">Conotheca</text><text x="277.6" y="138.3" fill="grey" class="flag">[?]</text><text x="299.6" y="138.3" fill="#999" class="taxonLabel">Bactrotheca</text><text x="254.9" y="125.4" fill="grey" class="flag">[?]</text><text x="276.9" y="125.4" fill="#999" class="taxonLabel">Pedunculotheca diania</text><text x="209.4" y="112.6" fill="grey" class="flag">[?]</text><text x="231.4" y="112.6" fill="#999" class="taxonLabel">Paterimitra</text><text x="186.7" y="99.8" fill="grey" class="flag">[?]</text><text x="208.7" y="99.8" fill="#999" class="taxonLabel">Halkieria evangelista</text><text x="186.7" y="74.1" fill="grey" class="flag">[?]</text><text x="208.7" y="74.1" fill="#999" class="taxonLabel">Cotyledion tylodes</text><text x="186.7" y="87" fill="grey" class="flag">[?]</text><text x="208.7" y="87" fill="#999" class="taxonLabel">Eccentrotheca</text><text x="141.3" y="61.3" fill="grey" class="flag">[?]</text><text x="163.3" y="61.3" fill="#999" class="taxonLabel">Dailyatia</text><text x="118.6" y="48.5" fill="#fc8d59" class="flag">[0]</text><text x="140.6" y="48.5" fill="#000" class="taxonLabel">Phoronis</text><text x="95.9" y="35.7" fill="grey" class="flag">[?]</text><text x="117.9" y="35.7" fill="#999" class="taxonLabel">Namacalathus</text><text x="95.9" y="10" fill="#fc8d59" class="flag">[0]</text><text x="117.9" y="10" fill="#000" class="taxonLabel">Flustra</text><text x="95.9" y="22.8" fill="#fc8d59" class="flag">[0]</text><text x="117.9" y="22.8" fill="#000" class="taxonLabel">Amathia</text><text x="50.4" y="612.9" fill="#fc8d59" class="flag">[0]</text><text x="72.4" y="612.9" fill="#000" class="taxonLabel">Loxosomella</text><path d="M5,481.9V320.2H27.7M27.7,320.2V30.6H50.4M50.4,30.6V13.4H73.1M73.1,13.4V7H95.9M73.1,13.4V19.8H95.9M50.4,30.6V47.8H73.1M73.1,47.8V32.7H95.9M73.1,47.8V63H95.9M95.9,63V45.5H118.6M95.9,63V80.5H118.6M27.7,320.2V609.9H50.4" stroke="#fc8d59"></path><path d="M118.6,80.5V58.3H141.3M118.6,80.5V102.7H141.3M141.3,102.7V77.5H164M164,77.5V71.1H186.7M164,77.5V84H186.7M141.3,102.7V127.8H164M164,127.8V96.8H186.7M164,127.8V158.8H186.7M186.7,158.8V109.6H209.4M186.7,158.8V207.9H209.4M209.4,207.9V135.1H232.1M232.1,135.1V122.4H254.9M232.1,135.1V147.7H254.9M254.9,147.7V135.3H277.6M254.9,147.7V160.1H277.6M277.6,160.1V148.1H300.3M277.6,160.1V172.1H300.3M300.3,172.1V160.9H323M300.3,172.1V183.4H323M323,183.4V173.8H345.7M323,183.4V193H345.7M345.7,193V186.6H368.4M345.7,193V199.4H368.4M209.4,207.9V280.8H232.1M232.1,280.8V212.2H254.9" stroke="darkgrey"></path><path d="M232.1,280.8V349.4H254.9M254.9,349.4V244H277.6M277.6,244V225.1H300.3M277.6,244V263H300.3M300.3,263V237.9H323M300.3,263V288.2H323M323,288.2V260.3H345.7M345.7,260.3V250.7H368.4M345.7,260.3V270H368.4M368.4,270V263.5H391.1M368.4,270V276.4H391.1M323,288.2V316H345.7M345.7,316V295.6H368.4M368.4,295.6V289.2H391.1M368.4,295.6V302H391.1M345.7,316V336.5H368.4M368.4,336.5V321.3H391.1M391.1,321.3V314.8H413.9M391.1,321.3V327.7H413.9M368.4,336.5V351.7H391.1M391.1,351.7V340.5H413.9M391.1,351.7V362.9H413.9M413.9,362.9V353.3H436.6M413.9,362.9V372.6H436.6M436.6,372.6V366.2H459.3M436.6,372.6V379H459.3M254.9,349.4V454.7H277.6M277.6,454.7V413.9H300.3M300.3,413.9V398.2H323M323,398.2V391.8H345.7M323,398.2V404.6H345.7M300.3,413.9V429.5H323M323,429.5V417.5H345.7M323,429.5V441.5H345.7M345.7,441.5V430.3H368.4M345.7,441.5V452.7H368.4M368.4,452.7V443.1H391.1M368.4,452.7V462.4H391.1M391.1,462.4V455.9H413.9M391.1,462.4V468.8H413.9M277.6,454.7V495.6H300.3M300.3,495.6V481.6H323M300.3,495.6V509.6H323M323,509.6V494.4H345.7M323,509.6V524.7H345.7M345.7,524.7V507.2H368.4M345.7,524.7V542.1H368.4M368.4,542.1V526.5H391.1M391.1,526.5V520.1H413.9M391.1,526.5V532.9H413.9M368.4,542.1V557.8H391.1M391.1,557.8V545.7H413.9M391.1,557.8V569.8H413.9M413.9,569.8V558.6H436.6M413.9,569.8V581H436.6M436.6,581V571.4H459.3M436.6,581V590.6H459.3M459.3,590.6V584.2H482M459.3,590.6V597H482M5,481.9V643.5H27.7M27.7,643.5V629.1H50.4M50.4,629.1V622.7H73.1M50.4,629.1V635.5H73.1M27.7,643.5V658H50.4M50.4,658V648.3H73.1M50.4,658V667.6H73.1M73.1,667.6V661.2H95.9M73.1,667.6V674H95.9" stroke="#91bfdb"></path><text x="7" y="484.9" class="node" fill="#4A6FE3">1</text><text x="29.7" y="323.2" class="node" fill="#4A6FE3">1</text><text x="52.4" y="33.6" class="node" fill="#4A6FE3">1</text><text x="75.1" y="16.4" class="node" fill="#4A6FE3">1</text><text x="75.1" y="50.8" class="node" fill="#4A6FE3">1</text><text x="97.9" y="66" class="node" fill="#E495A5">0.25</text><text x="120.6" y="83.5" class="node" fill="#8998E1">0.82</text><text x="143.3" y="105.7" class="node" fill="#DC6884">0.11</text><text x="166" y="80.5" class="node" fill="#E5A8B3">0.31</text><text x="166" y="130.8" class="node" fill="#8998E1">0.82</text><text x="188.7" y="161.8" class="node" fill="#4F72E2">0.99</text><text x="211.4" y="210.9" class="node" fill="#4F72E2">0.99</text><text x="234.1" y="138.1" class="node" fill="#4F72E2">0.99</text><text x="256.9" y="150.7" class="node" fill="#8696E1">0.83</text><text x="279.6" y="163.1" class="node" fill="#E495A5">0.25</text><text x="302.3" y="175.1" class="node" fill="#4A6FE3">1</text><text x="325" y="186.4" class="node" fill="#4A6FE3">1</text><text x="347.7" y="196" class="node" fill="#4A6FE3">1</text><text x="234.1" y="283.8" class="node" fill="#8998E1">0.82</text><text x="256.9" y="352.4" class="node" fill="#DADBE3">0.53</text><text x="279.6" y="247" class="node" fill="#E6C4C9">0.4</text><text x="302.3" y="266" class="node" fill="#9AA6E2">0.76</text><text x="325" y="291.2" class="node" fill="#E6B1BB">0.34</text><text x="347.7" y="263.3" class="node" fill="#DB6581">0.1</text><text x="370.4" y="273" class="node" fill="#B9BFE3">0.65</text><text x="347.7" y="319" class="node" fill="#E5C7CC">0.41</text><text x="370.4" y="298.6" class="node" fill="#4A6FE3">1</text><text x="370.4" y="339.5" class="node" fill="#E6BDC5">0.38</text><text x="393.1" y="324.3" class="node" fill="#E2E2E2">0.5</text><text x="393.1" y="354.7" class="node" fill="#E4D3D6">0.45</text><text x="415.9" y="365.9" class="node" fill="#5B78E2">0.96</text><text x="438.6" y="375.6" class="node" fill="#E6BAC2">0.37</text><text x="279.6" y="457.7" class="node" fill="#E5C7CC">0.41</text><text x="302.3" y="416.9" class="node" fill="#E5C7CC">0.41</text><text x="325" y="401.2" class="node" fill="#E6C4C9">0.4</text><text x="325" y="432.5" class="node" fill="#E5C7CC">0.41</text><text x="347.7" y="444.5" class="node" fill="#8696E1">0.83</text><text x="370.4" y="455.7" class="node" fill="#4A6FE3">1</text><text x="393.1" y="465.4" class="node" fill="#4A6FE3">1</text><text x="302.3" y="498.6" class="node" fill="#9DA8E2">0.75</text><text x="325" y="512.6" class="node" fill="#E6B4BD">0.35</text><text x="347.7" y="527.7" class="node" fill="#E6B4BD">0.35</text><text x="370.4" y="545.1" class="node" fill="#E6B4BD">0.35</text><text x="393.1" y="529.5" class="node" fill="#E3DFE0">0.49</text><text x="393.1" y="560.8" class="node" fill="#E6BAC2">0.37</text><text x="415.9" y="572.8" class="node" fill="#97A4E2">0.77</text><text x="438.6" y="584" class="node" fill="#E49CAA">0.27</text><text x="461.3" y="593.6" class="node" fill="#4F72E2">0.99</text><text x="29.7" y="646.5" class="node" fill="#4A6FE3">1</text><text x="52.4" y="632.1" class="node" fill="#4A6FE3">1</text><text x="52.4" y="661" class="node" fill="#4A6FE3">1</text><text x="75.1" y="670.6" class="node" fill="#4A6FE3">1</text></svg>
