<svg xmlns="http://www.w3.org/2000/svg" version="1.1" width="682" height="612" class="tree" data-char="176"><text x="678" y="15.4" text-anchor="end" class="stepsLabel">Character adds <tspan class="score">1</tspan> to tree score</text><text x="678" y="27.8" text-anchor="end" class="stepsLabel"><tspan class="score">0</tspan> additional regions</text><text x="678" y="40.2" text-anchor="end" class="stepsLabel">CI = 1; Fitch CI = 1; Fitch RI = 1</text><text x="678" y="65" text-anchor="end" class="stepsLabel"><tspan dy="16" fill="#34caaf">An optimal tree under:</tspan><tspan x="680" style="font-style:italic" class="thisAn" dy="1.2em">Equal weights</tspan><tspan x="680" style="font-style:italic" class="notThisAn" dy="1.2em">Implied weights, k = 2</tspan><tspan x="680" style="font-style:italic" class="notThisAn" dy="1.2em">IW, k = 3</tspan><tspan x="680" style="font-style:italic" class="notThisAn" dy="1.2em">IW, k = 4.5</tspan><tspan x="680" style="font-style:italic" class="notThisAn" dy="1.2em">IW, k = 7</tspan><tspan x="680" style="font-style:italic" class="notThisAn" dy="1.2em">IW, k = 10.5</tspan><tspan x="680" style="font-style:italic" class="notThisAn" dy="1.2em">IW, k = 16</tspan><tspan x="680" style="font-style:italic" class="notThisAn" dy="1.2em">IW, k = 24</tspan></text><text x="76.6" y="594.3" fill="#91bfdb" class="flag">[2]</text><text x="98.6" y="594.3" fill="#000" class="taxonLabel">Sipunculus</text><text x="76.6" y="607" fill="#91bfdb" class="flag">[2]</text><text x="98.6" y="607" fill="#000" class="taxonLabel">Serpula</text><text x="100.4" y="568.9" fill="#91bfdb" class="flag">[2]</text><text x="122.4" y="568.9" fill="#000" class="taxonLabel">Dentalium</text><text x="100.4" y="581.6" fill="grey" class="flag">[?]</text><text x="122.4" y="581.6" fill="#999" class="taxonLabel">Wiwaxia corrugata</text><text x="76.6" y="556.2" fill="#91bfdb" class="flag">[2]</text><text x="98.6" y="556.2" fill="#000" class="taxonLabel">Tonicella</text><text x="100.4" y="530.8" fill="grey" class="flag">[?]</text><text x="122.4" y="530.8" fill="#999" class="taxonLabel">Dailyatia</text><text x="100.4" y="543.5" fill="#91bfdb" class="flag">[2]</text><text x="122.4" y="543.5" fill="#000" class="taxonLabel">Loxosomella</text><text x="76.6" y="518.1" fill="grey" class="flag">[?]</text><text x="98.6" y="518.1" fill="#999" class="taxonLabel">Eccentrotheca</text><text x="148.1" y="492.7" fill="#e2e2a2" class="flag">[1]</text><text x="170.1" y="492.7" fill="#000" class="taxonLabel">Phoronis</text><text x="148.1" y="505.4" fill="grey" class="flag">[?]</text><text x="170.1" y="505.4" fill="#999" class="taxonLabel">Namacalathus</text><text x="124.2" y="480" fill="grey" class="flag">[?]</text><text x="146.2" y="480" fill="#999" class="taxonLabel">Cotyledion tylodes</text><text x="315.1" y="454.6" fill="grey" class="flag">[?]</text><text x="337.1" y="454.6" fill="#999" class="taxonLabel">Coolinia pecten</text><text x="315.1" y="467.3" fill="grey" class="flag">[?]</text><text x="337.1" y="467.3" fill="#999" class="taxonLabel">Antigonambonites planus</text><text x="410.5" y="429.2" fill="grey" class="flag">[?]</text><text x="432.5" y="429.2" fill="#999" class="taxonLabel">Alisina</text><text x="410.5" y="441.9" fill="#e2e2a2" class="flag">[1]</text><text x="432.5" y="441.9" fill="#000" class="taxonLabel">Terebratulina</text><text x="386.6" y="416.5" fill="grey" class="flag">[?]</text><text x="408.6" y="416.5" fill="#999" class="taxonLabel">Orthis</text><text x="362.8" y="403.8" fill="grey" class="flag">[?]</text><text x="384.8" y="403.8" fill="#999" class="taxonLabel">Glyptoria</text><text x="338.9" y="391.1" fill="grey" class="flag">[?]</text><text x="360.9" y="391.1" fill="#999" class="taxonLabel">Nisusia sulcata</text><text x="315.1" y="378.4" fill="grey" class="flag">[?]</text><text x="337.1" y="378.4" fill="#999" class="taxonLabel">Kutorgina chengjiangensis</text><text x="267.4" y="365.7" fill="grey" class="flag">[?]</text><text x="289.4" y="365.7" fill="#999" class="taxonLabel">Longtancunella chengjiangensis</text><text x="291.2" y="340.3" fill="grey" class="flag">[?]</text><text x="313.2" y="340.3" fill="#999" class="taxonLabel">Yuganotheca elegans</text><text x="291.2" y="353" fill="grey" class="flag">[?]</text><text x="313.2" y="353" fill="#999" class="taxonLabel">Tomteluva perturbata</text><text x="267.4" y="327.6" fill="grey" class="flag">[?]</text><text x="289.4" y="327.6" fill="#999" class="taxonLabel">Salanygolina</text><text x="482" y="302.1" fill="grey" class="flag">[?]</text><text x="504" y="302.1" fill="#999" class="taxonLabel">Acanthotretella spinosa</text><text x="482" y="314.9" fill="grey" class="flag">[?]</text><text x="504" y="314.9" fill="#999" class="taxonLabel">Siphonobolus priscus</text><text x="458.2" y="289.4" fill="grey" class="flag">[?]</text><text x="480.2" y="289.4" fill="#999" class="taxonLabel">Lingulosacculus</text><text x="434.3" y="276.7" fill="grey" class="flag">[?]</text><text x="456.3" y="276.7" fill="#999" class="taxonLabel">Clupeafumosus socialis</text><text x="410.5" y="264" fill="grey" class="flag">[?]</text><text x="432.5" y="264" fill="#999" class="taxonLabel">Lingulellotreta malongensis</text><text x="386.6" y="251.3" fill="grey" class="flag">[?]</text><text x="408.6" y="251.3" fill="#999" class="taxonLabel">Botsfordia</text><text x="362.8" y="238.6" fill="grey" class="flag">[?]</text><text x="384.8" y="238.6" fill="#999" class="taxonLabel">Mummpikia nuda</text><text x="338.9" y="225.9" fill="grey" class="flag">[?]</text><text x="360.9" y="225.9" fill="#999" class="taxonLabel">Eoobolus</text><text x="315.1" y="213.2" fill="#e2e2a2" class="flag">[1]</text><text x="337.1" y="213.2" fill="#000" class="taxonLabel">Lingula</text><text x="338.9" y="187.8" fill="grey" class="flag">[?]</text><text x="360.9" y="187.8" fill="#999" class="taxonLabel">Mickwitzia muralensis</text><text x="338.9" y="200.5" fill="#e2e2a2" class="flag">[1]</text><text x="360.9" y="200.5" fill="#000" class="taxonLabel">Pelagodiscus atlanticus</text><text x="315.1" y="175.1" fill="grey" class="flag">[?]</text><text x="337.1" y="175.1" fill="#999" class="taxonLabel">Micrina</text><text x="291.2" y="149.7" fill="#e2e2a2" class="flag">[1]</text><text x="313.2" y="149.7" fill="#000" class="taxonLabel">Novocrania</text><text x="291.2" y="162.4" fill="grey" class="flag">[?]</text><text x="313.2" y="162.4" fill="#999" class="taxonLabel">Heliomedusa orienta</text><text x="267.4" y="124.3" fill="grey" class="flag">[?]</text><text x="289.4" y="124.3" fill="#999" class="taxonLabel">Askepasma toddense</text><text x="267.4" y="137" fill="grey" class="flag">[?]</text><text x="289.4" y="137" fill="#999" class="taxonLabel">Micromitra</text><text x="243.5" y="98.9" fill="grey" class="flag">[?]</text><text x="265.5" y="98.9" fill="#999" class="taxonLabel">Pedunculotheca diania</text><text x="243.5" y="111.6" fill="grey" class="flag">[?]</text><text x="265.5" y="111.6" fill="#999" class="taxonLabel">Haplophrentis carinatus</text><text x="219.7" y="86.2" fill="grey" class="flag">[?]</text><text x="241.7" y="86.2" fill="#999" class="taxonLabel">Paterimitra</text><text x="172" y="73.5" fill="grey" class="flag">[?]</text><text x="194" y="73.5" fill="#999" class="taxonLabel">Gasconsia</text><text x="172" y="48.1" fill="grey" class="flag">[?]</text><text x="194" y="48.1" fill="#999" class="taxonLabel">Ussunia</text><text x="172" y="60.8" fill="grey" class="flag">[?]</text><text x="194" y="60.8" fill="#999" class="taxonLabel">Craniops</text><text x="124.2" y="35.4" fill="grey" class="flag">[?]</text><text x="146.2" y="35.4" fill="#999" class="taxonLabel">Halkieria evangelista</text><text x="100.4" y="10" fill="#91bfdb" class="flag">[2]</text><text x="122.4" y="10" fill="#000" class="taxonLabel">Flustra</text><text x="100.4" y="22.7" fill="#91bfdb" class="flag">[2]</text><text x="122.4" y="22.7" fill="#000" class="taxonLabel">Amathia</text><path d="M5,457.1V333.9H28.9M28.9,333.9V143.3H52.7M52.7,143.3V13.4H76.6M76.6,13.4V7H100.4M76.6,13.4V19.7H100.4M28.9,333.9V524.6H52.7M52.7,524.6V515.1H76.6M52.7,524.6V534.1H76.6M76.6,534.1V527.8H100.4M76.6,534.1V540.5H100.4M5,457.1V580.2H28.9M28.9,580.2V562.7H52.7M52.7,562.7V553.2H76.6M52.7,562.7V572.2H76.6M76.6,572.2V565.9H100.4M76.6,572.2V578.6H100.4M28.9,580.2V597.6H52.7M52.7,597.6V591.3H76.6M52.7,597.6V604H76.6" stroke="#91bfdb"></path><path d="M52.7,143.3V273.2H76.6M76.6,273.2V59.8H100.4M100.4,59.8V32.4H124.2M100.4,59.8V87.2H124.2M124.2,87.2V51.5H148.1M148.1,51.5V45.1H172M148.1,51.5V57.8H172M124.2,87.2V122.9H148.1M148.1,122.9V70.5H172M148.1,122.9V175.4H172M172,175.4V92.7H195.8M195.8,92.7V83.2H219.7M195.8,92.7V102.3H219.7M219.7,102.3V95.9H243.5M219.7,102.3V108.6H243.5M172,175.4V258H195.8M195.8,258V152.7H219.7M219.7,152.7V127.7H243.5M243.5,127.7V121.3H267.4M243.5,127.7V134H267.4M219.7,152.7V177.7H243.5M243.5,177.7V153.1H267.4M267.4,153.1V146.7H291.2M267.4,153.1V159.4H291.2M243.5,177.7V202.3H267.4M267.4,202.3V181.7H291.2M291.2,181.7V172.1H315.1M291.2,181.7V191.2H315.1M315.1,191.2V184.8H338.9M315.1,191.2V197.5H338.9M267.4,202.3V222.9H291.2M291.2,222.9V210.2H315.1M291.2,222.9V235.5H315.1M315.1,235.5V222.9H338.9M315.1,235.5V248.1H338.9M338.9,248.1V235.6H362.8M338.9,248.1V260.6H362.8M362.8,260.6V248.3H386.6M362.8,260.6V273H386.6M386.6,273V261H410.5M386.6,273V284.9H410.5M410.5,284.9V273.7H434.3M410.5,284.9V296H434.3M434.3,296V286.4H458.2M434.3,296V305.5H458.2M458.2,305.5V299.1H482M458.2,305.5V311.9H482M195.8,258V363.4H219.7M219.7,363.4V334.1H243.5M243.5,334.1V324.6H267.4M243.5,334.1V343.6H267.4M267.4,343.6V337.3H291.2M267.4,343.6V350H291.2M219.7,363.4V392.7H243.5M243.5,392.7V362.7H267.4M243.5,392.7V422.8H267.4M267.4,422.8V387.7H291.2M291.2,387.7V375.4H315.1M291.2,387.7V400H315.1M315.1,400V388.1H338.9M315.1,400V411.9H338.9M338.9,411.9V400.8H362.8M338.9,411.9V423H362.8M362.8,423V413.5H386.6M362.8,423V432.5H386.6M386.6,432.5V426.2H410.5M386.6,432.5V438.9H410.5M267.4,422.8V457.9H291.2M291.2,457.9V451.6H315.1M291.2,457.9V464.3H315.1M76.6,273.2V486.5H100.4M100.4,486.5V477H124.2M100.4,486.5V496H124.2M124.2,496V489.7H148.1M124.2,496V502.4H148.1" stroke="#e2e2a2"></path><text x="7" y="460.1" class="node" fill="#4A6FE3">1</text><text x="30.9" y="336.9" class="node" fill="#4A6FE3">1</text><text x="54.7" y="146.3" class="node" fill="#D7D9E3">0.54</text><text x="78.6" y="16.4" class="node" fill="#4A6FE3">1</text><text x="78.6" y="276.2" class="node" fill="#D7D9E3">0.54</text><text x="102.4" y="62.8" class="node" fill="#CACDE3">0.59</text><text x="126.2" y="90.2" class="node" fill="#CACDE3">0.59</text><text x="150.1" y="54.5" class="node" fill="#D7D9E3">0.54</text><text x="150.1" y="125.9" class="node" fill="#D7D9E3">0.54</text><text x="174" y="178.4" class="node" fill="#D7D9E3">0.54</text><text x="197.8" y="95.7" class="node" fill="#D7D9E3">0.54</text><text x="221.7" y="105.3" class="node" fill="#4A6FE3">1</text><text x="197.8" y="261" class="node" fill="#D7D9E3">0.54</text><text x="221.7" y="155.7" class="node" fill="#D7D9E3">0.54</text><text x="245.5" y="130.7" class="node" fill="#AEB6E2">0.69</text><text x="245.5" y="180.7" class="node" fill="#D7D9E3">0.54</text><text x="269.4" y="156.1" class="node" fill="#D7D9E3">0.54</text><text x="269.4" y="205.3" class="node" fill="#D7D9E3">0.54</text><text x="293.2" y="184.7" class="node" fill="#E392A2">0.24</text><text x="317.1" y="194.2" class="node" fill="#D7D9E3">0.54</text><text x="293.2" y="225.9" class="node" fill="#CACDE3">0.59</text><text x="317.1" y="238.5" class="node" fill="#D7D9E3">0.54</text><text x="340.9" y="251.1" class="node" fill="#D7D9E3">0.54</text><text x="364.8" y="263.6" class="node" fill="#D7D9E3">0.54</text><text x="388.6" y="276" class="node" fill="#D2D4E3">0.56</text><text x="412.5" y="287.9" class="node" fill="#95A1E2">0.78</text><text x="436.3" y="299" class="node" fill="#E498A7">0.26</text><text x="460.2" y="308.5" class="node" fill="#4A6FE3">1</text><text x="221.7" y="366.4" class="node" fill="#A6AFE2">0.72</text><text x="245.5" y="337.1" class="node" fill="#E6BAC2">0.37</text><text x="269.4" y="346.6" class="node" fill="#B1B8E2">0.68</text><text x="245.5" y="395.7" class="node" fill="#5374E2">0.98</text><text x="269.4" y="425.8" class="node" fill="#E6C1C7">0.39</text><text x="293.2" y="390.7" class="node" fill="#E6C1C7">0.39</text><text x="317.1" y="403" class="node" fill="#E6C1C7">0.39</text><text x="340.9" y="414.9" class="node" fill="#E6C1C7">0.39</text><text x="364.8" y="426" class="node" fill="#4A6FE3">1</text><text x="388.6" y="435.5" class="node" fill="#E2899B">0.21</text><text x="293.2" y="460.9" class="node" fill="#4A6FE3">1</text><text x="102.4" y="489.5" class="node" fill="#A0ABE2">0.74</text><text x="126.2" y="499" class="node" fill="#5B78E2">0.96</text><text x="54.7" y="527.6" class="node" fill="#D7D9E3">0.54</text><text x="78.6" y="537.1" class="node" fill="#D7D9E3">0.54</text><text x="30.9" y="583.2" class="node" fill="#4A6FE3">1</text><text x="54.7" y="565.7" class="node" fill="#4A6FE3">1</text><text x="78.6" y="575.2" class="node" fill="#4A6FE3">1</text><text x="54.7" y="600.6" class="node" fill="#4A6FE3">1</text></svg>
