<svg xmlns="http://www.w3.org/2000/svg" version="1.1" width="682" height="612" class="tree" data-char="147"><text x="678" y="16" text-anchor="end" class="stepsLabel">Character adds <tspan class="score">3</tspan> to tree score</text><text x="678" y="29" text-anchor="end" class="stepsLabel"><tspan class="score">0</tspan> additional regions</text><text x="678" y="42" text-anchor="end" class="stepsLabel">CI = 0.33; Fitch CI = 0.33; Fitch RI = 0.33</text><text x="678" y="68" text-anchor="end" class="stepsLabel"><tspan dy="16">An optimal tree under:</tspan><tspan x="680" style="font-style:italic" class="thisAn" dy="1.2em">Equal weights</tspan><tspan x="680" style="font-style:italic" class="notThisAn" dy="1.2em">Implied weights, k = 2</tspan><tspan x="680" style="font-style:italic" class="notThisAn" dy="1.2em">IW, k = 3</tspan><tspan x="680" style="font-style:italic" class="notThisAn" dy="1.2em">IW, k = 4.5</tspan><tspan x="680" style="font-style:italic" class="notThisAn" dy="1.2em">IW, k = 7</tspan><tspan x="680" style="font-style:italic" class="notThisAn" dy="1.2em">IW, k = 10.5</tspan><tspan x="680" style="font-style:italic" class="notThisAn" dy="1.2em">IW, k = 16</tspan><tspan x="680" style="font-style:italic" class="notThisAn" dy="1.2em">IW, k = 24</tspan></text><text x="95.9" y="593.7" fill="#fc8d59" class="flag">[0]</text><text x="117.9" y="593.7" fill="#000" class="taxonLabel">Tonicella</text><text x="95.9" y="607" fill="#fc8d59" class="flag">[0]</text><text x="117.9" y="607" fill="#000" class="taxonLabel">Dentalium</text><text x="73.1" y="580.5" fill="grey" class="flag">[?]</text><text x="95.1" y="580.5" fill="grey" class="taxonLabel">Wiwaxia corrugata</text><text x="73.1" y="553.9" fill="#91bfdb" class="flag">[1]</text><text x="95.1" y="553.9" fill="#000" class="taxonLabel">Sipunculus</text><text x="73.1" y="567.2" fill="#91bfdb" class="flag">[1]</text><text x="95.1" y="567.2" fill="#000" class="taxonLabel">Serpula</text><text x="186.7" y="514.1" fill="grey" class="flag">[?]</text><text x="208.7" y="514.1" fill="grey" class="taxonLabel">Dailyatia</text><text x="186.7" y="527.4" fill="grey" class="flag">[?]</text><text x="208.7" y="527.4" fill="grey" class="taxonLabel">Halkieria evangelista</text><text x="323" y="487.6" fill="grey" class="flag">[?]</text><text x="345" y="487.6" fill="grey" class="taxonLabel">Craniops</text><text x="323" y="500.9" fill="#fc8d59" class="flag">[0]</text><text x="345" y="500.9" fill="#000" class="taxonLabel">Novocrania</text><text x="300.3" y="474.3" fill="grey" class="flag">[?]</text><text x="322.3" y="474.3" fill="grey" class="taxonLabel">Ussunia</text><text x="277.6" y="461.1" fill="grey" class="flag">[?]</text><text x="299.6" y="461.1" fill="grey" class="taxonLabel">Gasconsia</text><text x="482" y="434.5" fill="grey" class="flag">[?]</text><text x="504" y="434.5" fill="grey" class="taxonLabel">Orthis</text><text x="482" y="447.8" fill="grey" class="flag">[?]</text><text x="504" y="447.8" fill="grey" class="taxonLabel">Terebratulina</text><text x="459.3" y="421.3" fill="grey" class="flag">[?]</text><text x="481.3" y="421.3" fill="grey" class="taxonLabel">Alisina</text><text x="436.6" y="408" fill="grey" class="flag">[?]</text><text x="458.6" y="408" fill="grey" class="taxonLabel">Glyptoria</text><text x="413.9" y="394.7" fill="grey" class="flag">[?]</text><text x="435.9" y="394.7" fill="grey" class="taxonLabel">Nisusia sulcata</text><text x="391.1" y="381.5" fill="grey" class="flag">[?]</text><text x="413.1" y="381.5" fill="grey" class="taxonLabel">Kutorgina chengjiangensis</text><text x="391.1" y="354.9" fill="grey" class="flag">[?]</text><text x="413.1" y="354.9" fill="grey" class="taxonLabel">Coolinia pecten</text><text x="391.1" y="368.2" fill="grey" class="flag">[?]</text><text x="413.1" y="368.2" fill="grey" class="taxonLabel">Antigonambonites planus</text><text x="345.7" y="341.7" fill="grey" class="flag">[?]</text><text x="367.7" y="341.7" fill="grey" class="taxonLabel">Longtancunella chengjiangensis</text><text x="345.7" y="315.1" fill="grey" class="flag">[?]</text><text x="367.7" y="315.1" fill="grey" class="taxonLabel">Yuganotheca elegans</text><text x="345.7" y="328.4" fill="grey" class="flag">[?]</text><text x="367.7" y="328.4" fill="grey" class="taxonLabel">Tomteluva perturbata</text><text x="300.3" y="301.9" fill="grey" class="flag">[?]</text><text x="322.3" y="301.9" fill="grey" class="taxonLabel">Salanygolina</text><text x="300.3" y="275.3" fill="grey" class="flag">[?]</text><text x="322.3" y="275.3" fill="grey" class="taxonLabel">Askepasma toddense</text><text x="300.3" y="288.6" fill="grey" class="flag">[?]</text><text x="322.3" y="288.6" fill="grey" class="taxonLabel">Micromitra</text><text x="436.6" y="248.8" fill="grey" class="flag">[?]</text><text x="458.6" y="248.8" fill="grey" class="taxonLabel">Siphonobolus priscus</text><text x="436.6" y="262.1" fill="grey" class="flag">[?]</text><text x="458.6" y="262.1" fill="grey" class="taxonLabel">Acanthotretella spinosa</text><text x="413.9" y="235.5" fill="grey" class="flag">[?]</text><text x="435.9" y="235.5" fill="grey" class="taxonLabel">Lingulosacculus</text><text x="391.1" y="222.3" fill="grey" class="flag">[?]</text><text x="413.1" y="222.3" fill="grey" class="taxonLabel">Clupeafumosus socialis</text><text x="368.4" y="209" fill="grey" class="flag">[?]</text><text x="390.4" y="209" fill="grey" class="taxonLabel">Lingulellotreta malongensis</text><text x="345.7" y="195.7" fill="grey" class="flag">[?]</text><text x="367.7" y="195.7" fill="grey" class="taxonLabel">Botsfordia</text><text x="323" y="182.5" fill="grey" class="flag">[?]</text><text x="345" y="182.5" fill="grey" class="taxonLabel">Mummpikia nuda</text><text x="300.3" y="169.2" fill="grey" class="flag">[?]</text><text x="322.3" y="169.2" fill="grey" class="taxonLabel">Eoobolus</text><text x="277.6" y="155.9" fill="#fc8d59" class="flag">[0]</text><text x="299.6" y="155.9" fill="#000" class="taxonLabel">Lingula</text><text x="300.3" y="129.4" fill="grey" class="flag">[?]</text><text x="322.3" y="129.4" fill="grey" class="taxonLabel">Mickwitzia muralensis</text><text x="300.3" y="142.7" fill="grey" class="flag">[?]</text><text x="322.3" y="142.7" fill="grey" class="taxonLabel">Pelagodiscus atlanticus</text><text x="277.6" y="116.1" fill="grey" class="flag">[?]</text><text x="299.6" y="116.1" fill="grey" class="taxonLabel">Micrina</text><text x="254.9" y="89.6" fill="grey" class="flag">[?]</text><text x="276.9" y="89.6" fill="grey" class="taxonLabel">Pedunculotheca diania</text><text x="254.9" y="102.9" fill="grey" class="flag">[?]</text><text x="276.9" y="102.9" fill="grey" class="taxonLabel">Haplophrentis carinatus</text><text x="232.1" y="76.3" fill="grey" class="flag">[?]</text><text x="254.1" y="76.3" fill="grey" class="taxonLabel">Paterimitra</text><text x="186.7" y="63.1" fill="grey" class="flag">[?]</text><text x="208.7" y="63.1" fill="grey" class="taxonLabel">Heliomedusa orienta</text><text x="141.3" y="49.8" fill="grey" class="flag">[?]</text><text x="163.3" y="49.8" fill="grey" class="taxonLabel">Eccentrotheca</text><text x="118.6" y="36.5" fill="grey" class="flag">[?]</text><text x="140.6" y="36.5" fill="grey" class="taxonLabel">Cotyledion tylodes</text><text x="95.9" y="23.3" fill="#91bfdb" class="flag">[1]</text><text x="117.9" y="23.3" fill="#000" class="taxonLabel">Phoronis</text><text x="73.1" y="10" fill="#fc8d59" class="flag">[0]</text><text x="95.1" y="10" fill="#000" class="taxonLabel">Flustra</text><text x="50.4" y="540.7" fill="#91bfdb" class="flag">[1]</text><text x="72.4" y="540.7" fill="#000" class="taxonLabel">Loxosomella</text><path d="M5,429.5V286.6H27.7M27.7,286.6V35.5H50.4M50.4,35.5V64H73.1M73.1,64V107.8H95.9M95.9,107.8V33.5H118.6M95.9,107.8V182.1H118.6M118.6,182.1V46.8H141.3M118.6,182.1V317.4H141.3M141.3,317.4V117H164M164,117V60.1H186.7M164,117V173.8H186.7M186.7,173.8V83.3H209.4M209.4,83.3V73.3H232.1M209.4,83.3V93.2H232.1M232.1,93.2V86.6H254.9M232.1,93.2V99.9H254.9M141.3,317.4V517.8H164M164,517.8V511.1H186.7M164,517.8V524.4H186.7M5,429.5V572.5H27.7M27.7,572.5V587.4H50.4M50.4,587.4V577.5H73.1" stroke="darkgrey"></path><path d="M50.4,35.5V7H73.1M186.7,173.8V264.4H209.4M209.4,264.4V144.6H232.1M232.1,144.6V123.1H254.9M254.9,123.1V113.1H277.6M254.9,123.1V133H277.6M277.6,133V126.4H300.3M277.6,133V139.7H300.3M232.1,144.6V166.1H254.9M254.9,166.1V152.9H277.6M254.9,166.1V179.4H277.6M277.6,179.4V166.2H300.3M277.6,179.4V192.5H300.3M300.3,192.5V179.5H323M300.3,192.5V205.6H323M323,205.6V192.7H345.7M323,205.6V218.4H345.7M345.7,218.4V206H368.4M345.7,218.4V230.9H368.4M368.4,230.9V219.3H391.1M368.4,230.9V242.5H391.1M391.1,242.5V232.5H413.9M391.1,242.5V252.4H413.9M413.9,252.4V245.8H436.6M413.9,252.4V259.1H436.6M209.4,264.4V384.2H232.1M232.1,384.2V298.6H254.9M254.9,298.6V279H277.6M277.6,279V272.3H300.3M277.6,279V285.6H300.3M254.9,298.6V318.3H277.6M277.6,318.3V298.9H300.3M277.6,318.3V337.8H300.3M300.3,337.8V318.8H323M323,318.8V312.1H345.7M323,318.8V325.4H345.7M300.3,337.8V356.8H323M323,356.8V338.7H345.7M323,356.8V374.9H345.7M345.7,374.9V358.6H368.4M368.4,358.6V351.9H391.1M368.4,358.6V365.2H391.1M345.7,374.9V391.3H368.4M368.4,391.3V378.5H391.1M368.4,391.3V404.2H391.1M391.1,404.2V391.7H413.9M391.1,404.2V416.6H413.9M413.9,416.6V405H436.6M413.9,416.6V428.2H436.6M436.6,428.2V418.3H459.3M436.6,428.2V438.2H459.3M459.3,438.2V431.5H482M459.3,438.2V444.8H482M232.1,384.2V469.7H254.9M254.9,469.7V458.1H277.6M254.9,469.7V481.3H277.6M277.6,481.3V471.3H300.3M277.6,481.3V491.2H300.3M300.3,491.2V484.6H323M300.3,491.2V497.9H323M50.4,587.4V597.4H73.1M73.1,597.4V590.7H95.9M73.1,597.4V604H95.9" stroke="#fc8d59"></path><path d="M73.1,64V20.3H95.9M27.7,286.6V537.7H50.4M27.7,572.5V557.6H50.4M50.4,557.6V550.9H73.1M50.4,557.6V564.2H73.1" stroke="#91bfdb"></path><text x="7" y="432.5" class="node" fill="#4A6FE3">1</text><text x="29.7" y="289.6" class="node" fill="#4A6FE3">1</text><text x="52.4" y="38.5" class="node" fill="#4A6FE3">1</text><text x="75.1" y="67" class="node" fill="#4A6FE3">1</text><text x="97.9" y="110.8" class="node" fill="#4A6FE3">1</text><text x="120.6" y="185.1" class="node" fill="#E6ABB6">0.32</text><text x="143.3" y="320.4" class="node" fill="#4A6FE3">1</text><text x="166" y="120" class="node" fill="#4A6FE3">1</text><text x="188.7" y="176.8" class="node" fill="#9DA8E2">0.75</text><text x="211.4" y="86.3" class="node" fill="#B4BBE3">0.67</text><text x="234.1" y="96.2" class="node" fill="#4A6FE3">1</text><text x="211.4" y="267.4" class="node" fill="#9DA8E2">0.75</text><text x="234.1" y="147.6" class="node" fill="#B4BBE3">0.67</text><text x="256.9" y="126.1" class="node" fill="#B4BBE3">0.67</text><text x="279.6" y="136" class="node" fill="#9DA8E2">0.75</text><text x="256.9" y="169.1" class="node" fill="#9DA8E2">0.75</text><text x="279.6" y="182.4" class="node" fill="#B4BBE3">0.67</text><text x="302.3" y="195.5" class="node" fill="#B4BBE3">0.67</text><text x="325" y="208.6" class="node" fill="#B4BBE3">0.67</text><text x="347.7" y="221.4" class="node" fill="#B4BBE3">0.67</text><text x="370.4" y="233.9" class="node" fill="#E3DCDD">0.48</text><text x="393.1" y="245.5" class="node" fill="#E5A8B3">0.31</text><text x="415.9" y="255.4" class="node" fill="#4A6FE3">1</text><text x="234.1" y="387.2" class="node" fill="#4A6FE3">1</text><text x="256.9" y="301.6" class="node" fill="#8C9BE1">0.81</text><text x="279.6" y="282" class="node" fill="#4A6FE3">1</text><text x="279.6" y="321.3" class="node" fill="#667FE1">0.93</text><text x="302.3" y="340.8" class="node" fill="#E498A7">0.26</text><text x="325" y="321.8" class="node" fill="#7388E1">0.89</text><text x="325" y="359.8" class="node" fill="#4A6FE3">1</text><text x="347.7" y="377.9" class="node" fill="#DD6F88">0.13</text><text x="370.4" y="361.6" class="node" fill="#4A6FE3">1</text><text x="370.4" y="394.3" class="node" fill="#DD6F88">0.13</text><text x="393.1" y="407.2" class="node" fill="#DD6F88">0.13</text><text x="415.9" y="419.6" class="node" fill="#DD6F88">0.13</text><text x="438.6" y="431.2" class="node" fill="#4A6FE3">1</text><text x="461.3" y="441.2" class="node" fill="#5B78E2">0.96</text><text x="256.9" y="472.7" class="node" fill="#4A6FE3">1</text><text x="279.6" y="484.3" class="node" fill="#4A6FE3">1</text><text x="302.3" y="494.2" class="node" fill="#4A6FE3">1</text><text x="166" y="520.8" class="node" fill="#4A6FE3">1</text><text x="29.7" y="575.5" class="node" fill="#4A6FE3">1</text><text x="52.4" y="560.6" class="node" fill="#4A6FE3">1</text><text x="52.4" y="590.4" class="node" fill="#4A6FE3">1</text><text x="75.1" y="600.4" class="node" fill="#E38FA0">0.23</text></svg>
