<svg xmlns="http://www.w3.org/2000/svg" version="1.1" width="682" height="612" class="tree" data-char="97"><text x="678" y="15.7" text-anchor="end" class="stepsLabel">Character adds <tspan class="score">7</tspan> to tree score</text><text x="678" y="28.4" text-anchor="end" class="stepsLabel"><tspan class="score">1</tspan> additional region</text><text x="678" y="41.1" text-anchor="end" class="stepsLabel">CI = 0.14; Fitch CI = 0.17; Fitch RI = 0.44</text><text x="678" y="66.5" text-anchor="end" class="stepsLabel"><tspan dy="16">An optimal tree under:</tspan><tspan x="680" style="font-style:italic" class="thisAn" dy="1.2em">Equal weights</tspan><tspan x="680" style="font-style:italic" class="notThisAn" dy="1.2em">Implied weights, k = 2</tspan><tspan x="680" style="font-style:italic" class="notThisAn" dy="1.2em">IW, k = 3</tspan><tspan x="680" style="font-style:italic" class="notThisAn" dy="1.2em">IW, k = 4.5</tspan><tspan x="680" style="font-style:italic" class="notThisAn" dy="1.2em">IW, k = 7</tspan><tspan x="680" style="font-style:italic" class="notThisAn" dy="1.2em">IW, k = 10.5</tspan><tspan x="680" style="font-style:italic" class="notThisAn" dy="1.2em">IW, k = 16</tspan><tspan x="680" style="font-style:italic" class="notThisAn" dy="1.2em">IW, k = 24</tspan></text><text x="70" y="594" fill="lightgrey" class="flag">[-]</text><text x="92" y="594" fill="#ccc" class="taxonLabel">Serpula</text><text x="70" y="607" fill="lightgrey" class="flag">[-]</text><text x="92" y="607" fill="#ccc" class="taxonLabel">Sipunculus</text><text x="91.7" y="568.1" fill="#e2e2a2" class="flag">[1]</text><text x="113.7" y="568.1" fill="#000" class="taxonLabel">Tonicella</text><text x="91.7" y="581" fill="lightgrey" class="flag">[-]</text><text x="113.7" y="581" fill="#ccc" class="taxonLabel">Dentalium</text><text x="70" y="555.1" fill="lightgrey" class="flag">[-]</text><text x="92" y="555.1" fill="#ccc" class="taxonLabel">Wiwaxia corrugata</text><text x="243.5" y="516.2" fill="#91bfdb" class="flag">[2]</text><text x="265.5" y="516.2" fill="#000" class="taxonLabel">Haplophrentis carinatus</text><text x="243.5" y="529.1" fill="#91bfdb" class="flag">[2]</text><text x="265.5" y="529.1" fill="#000" class="taxonLabel">Pedunculotheca diania</text><text x="308.5" y="490.2" fill="#e2e2a2" class="flag">[1]</text><text x="330.5" y="490.2" fill="#000" class="taxonLabel">Micromitra</text><text x="308.5" y="503.2" fill="#e2e2a2" class="flag">[1]</text><text x="330.5" y="503.2" fill="#000" class="taxonLabel">Askepasma toddense</text><text x="482" y="464.2" fill="#e2e2a2" class="flag">[1]</text><text x="504" y="464.2" fill="#000" class="taxonLabel">Alisina</text><text x="482" y="477.2" fill="#e2e2a2" class="flag">[1]</text><text x="504" y="477.2" fill="#000" class="taxonLabel">Terebratulina</text><text x="460.3" y="451.3" fill="#e2e2a2" class="flag">[1]</text><text x="482.3" y="451.3" fill="#000" class="taxonLabel">Orthis</text><text x="438.6" y="438.3" fill="#e2e2a2" class="flag">[1]</text><text x="460.6" y="438.3" fill="#000" class="taxonLabel">Glyptoria</text><text x="417" y="425.3" fill="grey" class="flag">[12]</text><text x="439" y="425.3" fill="#999" class="taxonLabel">Nisusia sulcata</text><text x="395.3" y="412.3" fill="grey" class="flag">[12]</text><text x="417.3" y="412.3" fill="#999" class="taxonLabel">Kutorgina chengjiangensis</text><text x="395.3" y="386.4" fill="grey" class="flag">[12]</text><text x="417.3" y="386.4" fill="#999" class="taxonLabel">Antigonambonites planus</text><text x="395.3" y="399.3" fill="#e2e2a2" class="flag">[1]</text><text x="417.3" y="399.3" fill="#000" class="taxonLabel">Coolinia pecten</text><text x="351.9" y="373.4" fill="#e2e2a2" class="flag">[1]</text><text x="373.9" y="373.4" fill="#000" class="taxonLabel">Longtancunella chengjiangensis</text><text x="373.6" y="347.4" fill="#e2e2a2" class="flag">[1]</text><text x="395.6" y="347.4" fill="#000" class="taxonLabel">Tomteluva perturbata</text><text x="373.6" y="360.4" fill="#e2e2a2" class="flag">[1]</text><text x="395.6" y="360.4" fill="#000" class="taxonLabel">Yuganotheca elegans</text><text x="351.9" y="334.5" fill="grey" class="flag">[12]</text><text x="373.9" y="334.5" fill="#999" class="taxonLabel">Salanygolina</text><text x="308.5" y="321.5" fill="#e2e2a2" class="flag">[1]</text><text x="330.5" y="321.5" fill="#000" class="taxonLabel">Gasconsia</text><text x="438.6" y="295.5" fill="#91bfdb" class="flag">[2]</text><text x="460.6" y="295.5" fill="#000" class="taxonLabel">Acanthotretella spinosa</text><text x="438.6" y="308.5" fill="#e2e2a2" class="flag">[1]</text><text x="460.6" y="308.5" fill="#000" class="taxonLabel">Siphonobolus priscus</text><text x="438.6" y="269.6" fill="#91bfdb" class="flag">[2]</text><text x="460.6" y="269.6" fill="#000" class="taxonLabel">Clupeafumosus socialis</text><text x="438.6" y="282.5" fill="#91bfdb" class="flag">[2]</text><text x="460.6" y="282.5" fill="#000" class="taxonLabel">Lingulosacculus</text><text x="395.3" y="256.6" fill="#91bfdb" class="flag">[2]</text><text x="417.3" y="256.6" fill="#000" class="taxonLabel">Lingulellotreta malongensis</text><text x="373.6" y="243.6" fill="#e2e2a2" class="flag">[1]</text><text x="395.6" y="243.6" fill="#000" class="taxonLabel">Botsfordia</text><text x="351.9" y="230.6" fill="#e2e2a2" class="flag">[1]</text><text x="373.9" y="230.6" fill="#000" class="taxonLabel">Mummpikia nuda</text><text x="330.2" y="217.7" fill="#e2e2a2" class="flag">[1]</text><text x="352.2" y="217.7" fill="#000" class="taxonLabel">Eoobolus</text><text x="308.5" y="204.7" fill="#e2e2a2" class="flag">[1]</text><text x="330.5" y="204.7" fill="#000" class="taxonLabel">Lingula</text><text x="330.2" y="178.7" fill="grey" class="flag">[12]</text><text x="352.2" y="178.7" fill="#999" class="taxonLabel">Mickwitzia muralensis</text><text x="330.2" y="191.7" fill="#e2e2a2" class="flag">[1]</text><text x="352.2" y="191.7" fill="#000" class="taxonLabel">Pelagodiscus atlanticus</text><text x="308.5" y="165.7" fill="#91bfdb" class="flag">[2]</text><text x="330.5" y="165.7" fill="#000" class="taxonLabel">Micrina</text><text x="243.5" y="152.8" fill="#91bfdb" class="flag">[2]</text><text x="265.5" y="152.8" fill="#000" class="taxonLabel">Paterimitra</text><text x="200.1" y="139.8" fill="#e2e2a2" class="flag">[1]</text><text x="222.1" y="139.8" fill="#000" class="taxonLabel">Heliomedusa orienta</text><text x="221.8" y="113.8" fill="#91bfdb" class="flag">[2]</text><text x="243.8" y="113.8" fill="#000" class="taxonLabel">Novocrania</text><text x="221.8" y="126.8" fill="#91bfdb" class="flag">[2]</text><text x="243.8" y="126.8" fill="#000" class="taxonLabel">Craniops</text><text x="200.1" y="100.8" fill="#e2e2a2" class="flag">[1]</text><text x="222.1" y="100.8" fill="#000" class="taxonLabel">Ussunia</text><text x="156.8" y="87.9" fill="#e2e2a2" class="flag">[1]</text><text x="178.8" y="87.9" fill="#000" class="taxonLabel">Halkieria evangelista</text><text x="178.5" y="61.9" fill="lightgrey" class="flag">[-]</text><text x="200.5" y="61.9" fill="#ccc" class="taxonLabel">Cotyledion tylodes</text><text x="178.5" y="74.9" fill="lightgrey" class="flag">[-]</text><text x="200.5" y="74.9" fill="#ccc" class="taxonLabel">Eccentrotheca</text><text x="156.8" y="48.9" fill="lightgrey" class="flag">[-]</text><text x="178.8" y="48.9" fill="#ccc" class="taxonLabel">Dailyatia</text><text x="113.4" y="36" fill="lightgrey" class="flag">[-]</text><text x="135.4" y="36" fill="#ccc" class="taxonLabel">Phoronis</text><text x="91.7" y="23" fill="lightgrey" class="flag">[-]</text><text x="113.7" y="23" fill="#ccc" class="taxonLabel">Namacalathus</text><text x="70" y="10" fill="lightgrey" class="flag">[-]</text><text x="92" y="10" fill="#ccc" class="taxonLabel">Flustra</text><text x="48.4" y="542.1" fill="lightgrey" class="flag">[-]</text><text x="70.4" y="542.1" fill="#ccc" class="taxonLabel">Loxosomella</text><path d="M5,430.7V281.8H26.7M26.7,281.8V24.4H48.4M48.4,24.4V7H70M48.4,24.4V41.8H70M70,41.8V20H91.7M70,41.8V63.7H91.7M91.7,63.7V33H113.4M91.7,63.7V94.4H113.4M113.4,94.4V55.7H135.1M135.1,55.7V45.9H156.8M135.1,55.7V65.4H156.8M156.8,65.4V58.9H178.5M156.8,65.4V71.9H178.5M26.7,281.8V539.1H48.4M5,430.7V579.7H26.7M26.7,579.7V561.8H48.4M48.4,561.8V552.1H70M48.4,561.8V571.6H70M70,571.6V578H91.7M26.7,579.7V597.5H48.4M48.4,597.5V591H70M48.4,597.5V604H70" stroke="lightgrey" class="inapplicable"></path><path d="M113.4,94.4V133.1H135.1M135.1,133.1V84.9H156.8M135.1,133.1V181.4H156.8M156.8,181.4V107.6H178.5M178.5,107.6V97.8H200.1M156.8,181.4V255.2H178.5M178.5,255.2V136.8H200.1M178.5,255.2V373.7H200.1M221.8,227.7V305.6H243.5M243.5,305.6V193.7H265.2M265.2,193.7V172.5H286.9M286.9,172.5V182.2H308.5M308.5,182.2V175.7H330.2M308.5,182.2V188.7H330.2M265.2,193.7V214.9H286.9M286.9,214.9V201.7H308.5M286.9,214.9V228H308.5M308.5,228V214.7H330.2M308.5,228V241.4H330.2M330.2,241.4V227.6H351.9M330.2,241.4V255.2H351.9M351.9,255.2V240.6H373.6M417,299V305.5H438.6M243.5,305.6V417.6H265.2M265.2,417.6V341.6H286.9M286.9,341.6V318.5H308.5M286.9,341.6V364.7H308.5M308.5,364.7V341.2H330.2M330.2,341.2V331.5H351.9M330.2,341.2V350.9H351.9M351.9,350.9V344.4H373.6M351.9,350.9V357.4H373.6M308.5,364.7V388.1H330.2M330.2,388.1V370.4H351.9M330.2,388.1V405.9H351.9M351.9,405.9V389.9H373.6M373.6,389.9V383.4H395.3M373.6,389.9V396.3H395.3M351.9,405.9V421.9H373.6M373.6,421.9V409.3H395.3M373.6,421.9V434.5H395.3M395.3,434.5V422.3H417M395.3,434.5V446.6H417M417,446.6V435.3H438.6M417,446.6V458H438.6M438.6,458V448.3H460.3M438.6,458V467.7H460.3M460.3,467.7V461.2H482M460.3,467.7V474.2H482M265.2,417.6V493.7H286.9M286.9,493.7V487.2H308.5M286.9,493.7V500.2H308.5M70,571.6V565.1H91.7" stroke="#e2e2a2"></path><path d="M178.5,107.6V117.3H200.1M200.1,117.3V110.8H221.8M200.1,117.3V123.8H221.8M221.8,227.7V149.8H243.5M286.9,172.5V162.7H308.5M351.9,255.2V269.8H373.6M373.6,269.8V253.6H395.3M373.6,269.8V286H395.3M395.3,286V273.1H417M417,273.1V266.6H438.6M417,273.1V279.5H438.6M395.3,286V299H417M417,299V292.5H438.6M200.1,373.7V519.6H221.8M221.8,519.6V513.2H243.5M221.8,519.6V526.1H243.5" stroke="#91bfdb"></path><path d="M200.1,373.7V227.7H221.8" stroke="darkgrey"></path><text x="7" y="433.7" class="node" fill="#4A6FE3">1</text><text x="28.7" y="284.8" class="node" fill="#4A6FE3">1</text><text x="50.4" y="27.4" class="node" fill="#6982E1">0.92</text><text x="72" y="44.8" class="node" fill="#6982E1">0.92</text><text x="93.7" y="66.7" class="node" fill="#E6ABB6">0.32</text><text x="115.4" y="97.4" class="node" fill="#6982E1">0.92</text><text x="137.1" y="58.7" class="node" fill="#DA5E7D">0.08</text><text x="158.8" y="68.4" class="node" fill="#E49CAA">0.27</text><text x="137.1" y="136.1" class="node" fill="#E3DFE0">0.49</text><text x="158.8" y="184.4" class="node" fill="#4A6FE3">1</text><text x="180.5" y="110.6" class="node" fill="#627DE1">0.94</text><text x="202.1" y="120.3" class="node" fill="#4A6FE3">1</text><text x="180.5" y="258.2" class="node" fill="#E3DFE0">0.49</text><text x="202.1" y="376.7" class="node" fill="#E3DFE0">0.49</text><text x="223.8" y="230.7" class="node" fill="#E59FAC">0.29</text><text x="245.5" y="308.6" class="node" fill="#E3DFE0">0.49</text><text x="267.2" y="196.7" class="node" fill="#E3DFE0">0.49</text><text x="288.9" y="175.5" class="node" fill="#E3DFE0">0.49</text><text x="310.5" y="185.2" class="node" fill="#4A6FE3">1</text><text x="288.9" y="217.9" class="node" fill="#4A6FE3">1</text><text x="310.5" y="231" class="node" fill="#C1C6E3">0.62</text><text x="332.2" y="244.4" class="node" fill="#E3DFE0">0.49</text><text x="353.9" y="258.2" class="node" fill="#E3DFE0">0.49</text><text x="375.6" y="272.8" class="node" fill="#E3DFE0">0.49</text><text x="397.3" y="289" class="node" fill="#8F9DE1">0.8</text><text x="419" y="276.1" class="node" fill="#E495A5">0.25</text><text x="419" y="302" class="node" fill="#4A6FE3">1</text><text x="267.2" y="420.6" class="node" fill="#E3DFE0">0.49</text><text x="288.9" y="344.6" class="node" fill="#E07C92">0.17</text><text x="310.5" y="367.7" class="node" fill="#4A6FE3">1</text><text x="332.2" y="344.2" class="node" fill="#929FE1">0.79</text><text x="353.9" y="353.9" class="node" fill="#7D8FE1">0.86</text><text x="332.2" y="391.1" class="node" fill="#8394E1">0.84</text><text x="353.9" y="408.9" class="node" fill="#DC6884">0.11</text><text x="375.6" y="392.9" class="node" fill="#4A6FE3">1</text><text x="375.6" y="424.9" class="node" fill="#DC6884">0.11</text><text x="397.3" y="437.5" class="node" fill="#DC6884">0.11</text><text x="419" y="449.6" class="node" fill="#DC6884">0.11</text><text x="440.6" y="461" class="node" fill="#4A6FE3">1</text><text x="462.3" y="470.7" class="node" fill="#D95A7A">0.07</text><text x="288.9" y="496.7" class="node" fill="#B9BFE3">0.65</text><text x="223.8" y="522.6" class="node" fill="#4A6FE3">1</text><text x="28.7" y="582.7" class="node" fill="#4A6FE3">1</text><text x="50.4" y="564.8" class="node" fill="#4A6FE3">1</text><text x="72" y="574.6" class="node" fill="#8696E1">0.83</text><text x="50.4" y="600.5" class="node" fill="#4A6FE3">1</text></svg>
