<svg xmlns="http://www.w3.org/2000/svg" version="1.1" width="682" height="612" class="tree" data-char="174"><text x="678" y="15.7" text-anchor="end" class="stepsLabel">Character adds <tspan class="score">2</tspan> to tree score</text><text x="678" y="28.4" text-anchor="end" class="stepsLabel"><tspan class="score">0</tspan> additional regions</text><text x="678" y="41.1" text-anchor="end" class="stepsLabel">CI = 0.5; Fitch CI = 0.5; Fitch RI = 0.67</text><text x="678" y="66.5" text-anchor="end" class="stepsLabel"><tspan dy="16">An optimal tree under:</tspan><tspan x="680" style="font-style:italic" class="thisAn" dy="1.2em">Equal weights</tspan><tspan x="680" style="font-style:italic" class="notThisAn" dy="1.2em">Implied weights, k = 2</tspan><tspan x="680" style="font-style:italic" class="notThisAn" dy="1.2em">IW, k = 3</tspan><tspan x="680" style="font-style:italic" class="notThisAn" dy="1.2em">IW, k = 4.5</tspan><tspan x="680" style="font-style:italic" class="notThisAn" dy="1.2em">IW, k = 7</tspan><tspan x="680" style="font-style:italic" class="notThisAn" dy="1.2em">IW, k = 10.5</tspan><tspan x="680" style="font-style:italic" class="notThisAn" dy="1.2em">IW, k = 16</tspan><tspan x="680" style="font-style:italic" class="notThisAn" dy="1.2em">IW, k = 24</tspan></text><text x="84.5" y="594" fill="#e2e2a2" class="flag">[1]</text><text x="106.5" y="594" fill="#000" class="taxonLabel">Tonicella</text><text x="84.5" y="607" fill="#e2e2a2" class="flag">[1]</text><text x="106.5" y="607" fill="#000" class="taxonLabel">Dentalium</text><text x="64.6" y="581" fill="grey" class="flag">[?]</text><text x="86.6" y="581" fill="#999" class="taxonLabel">Wiwaxia corrugata</text><text x="64.6" y="555.1" fill="#e2e2a2" class="flag">[1]</text><text x="86.6" y="555.1" fill="#000" class="taxonLabel">Serpula</text><text x="64.6" y="568.1" fill="#91bfdb" class="flag">[2]</text><text x="86.6" y="568.1" fill="#000" class="taxonLabel">Sipunculus</text><text x="243.5" y="516.2" fill="grey" class="flag">[?]</text><text x="265.5" y="516.2" fill="#999" class="taxonLabel">Haplophrentis carinatus</text><text x="243.5" y="529.1" fill="grey" class="flag">[?]</text><text x="265.5" y="529.1" fill="#999" class="taxonLabel">Pedunculotheca diania</text><text x="382.6" y="490.2" fill="grey" class="flag">[?]</text><text x="404.6" y="490.2" fill="#999" class="taxonLabel">Antigonambonites planus</text><text x="382.6" y="503.2" fill="grey" class="flag">[?]</text><text x="404.6" y="503.2" fill="#999" class="taxonLabel">Coolinia pecten</text><text x="482" y="464.2" fill="grey" class="flag">[?]</text><text x="504" y="464.2" fill="#999" class="taxonLabel">Orthis</text><text x="482" y="477.2" fill="grey" class="flag">[?]</text><text x="504" y="477.2" fill="#999" class="taxonLabel">Terebratulina</text><text x="462.1" y="451.3" fill="grey" class="flag">[?]</text><text x="484.1" y="451.3" fill="#999" class="taxonLabel">Alisina</text><text x="442.2" y="438.3" fill="grey" class="flag">[?]</text><text x="464.2" y="438.3" fill="#999" class="taxonLabel">Longtancunella chengjiangensis</text><text x="422.4" y="425.3" fill="grey" class="flag">[?]</text><text x="444.4" y="425.3" fill="#999" class="taxonLabel">Glyptoria</text><text x="402.5" y="412.3" fill="grey" class="flag">[?]</text><text x="424.5" y="412.3" fill="#999" class="taxonLabel">Nisusia sulcata</text><text x="382.6" y="399.3" fill="grey" class="flag">[?]</text><text x="404.6" y="399.3" fill="#999" class="taxonLabel">Kutorgina chengjiangensis</text><text x="382.6" y="373.4" fill="grey" class="flag">[?]</text><text x="404.6" y="373.4" fill="#999" class="taxonLabel">Yuganotheca elegans</text><text x="382.6" y="386.4" fill="grey" class="flag">[?]</text><text x="404.6" y="386.4" fill="#999" class="taxonLabel">Tomteluva perturbata</text><text x="362.8" y="360.4" fill="grey" class="flag">[?]</text><text x="384.8" y="360.4" fill="#999" class="taxonLabel">Salanygolina</text><text x="323" y="347.4" fill="grey" class="flag">[?]</text><text x="345" y="347.4" fill="#999" class="taxonLabel">Gasconsia</text><text x="303.1" y="334.5" fill="grey" class="flag">[?]</text><text x="325.1" y="334.5" fill="#999" class="taxonLabel">Micromitra</text><text x="283.2" y="321.5" fill="grey" class="flag">[?]</text><text x="305.2" y="321.5" fill="#999" class="taxonLabel">Askepasma toddense</text><text x="442.2" y="295.5" fill="grey" class="flag">[?]</text><text x="464.2" y="295.5" fill="#999" class="taxonLabel">Acanthotretella spinosa</text><text x="442.2" y="308.5" fill="grey" class="flag">[?]</text><text x="464.2" y="308.5" fill="#999" class="taxonLabel">Siphonobolus priscus</text><text x="422.4" y="282.5" fill="grey" class="flag">[?]</text><text x="444.4" y="282.5" fill="#999" class="taxonLabel">Clupeafumosus socialis</text><text x="402.5" y="269.6" fill="grey" class="flag">[?]</text><text x="424.5" y="269.6" fill="#999" class="taxonLabel">Lingulellotreta malongensis</text><text x="382.6" y="256.6" fill="grey" class="flag">[?]</text><text x="404.6" y="256.6" fill="#999" class="taxonLabel">Lingulosacculus</text><text x="362.8" y="243.6" fill="grey" class="flag">[?]</text><text x="384.8" y="243.6" fill="#999" class="taxonLabel">Botsfordia</text><text x="342.9" y="230.6" fill="grey" class="flag">[?]</text><text x="364.9" y="230.6" fill="#999" class="taxonLabel">Mummpikia nuda</text><text x="323" y="217.7" fill="grey" class="flag">[?]</text><text x="345" y="217.7" fill="#999" class="taxonLabel">Eoobolus</text><text x="303.1" y="204.7" fill="#91bfdb" class="flag">[2]</text><text x="325.1" y="204.7" fill="#000" class="taxonLabel">Lingula</text><text x="323" y="178.7" fill="grey" class="flag">[?]</text><text x="345" y="178.7" fill="#999" class="taxonLabel">Mickwitzia muralensis</text><text x="323" y="191.7" fill="grey" class="flag">[?]</text><text x="345" y="191.7" fill="#999" class="taxonLabel">Pelagodiscus atlanticus</text><text x="303.1" y="165.7" fill="grey" class="flag">[?]</text><text x="325.1" y="165.7" fill="#999" class="taxonLabel">Micrina</text><text x="243.5" y="152.8" fill="grey" class="flag">[?]</text><text x="265.5" y="152.8" fill="#999" class="taxonLabel">Paterimitra</text><text x="203.8" y="139.8" fill="grey" class="flag">[?]</text><text x="225.8" y="139.8" fill="#999" class="taxonLabel">Heliomedusa orienta</text><text x="203.8" y="113.8" fill="#91bfdb" class="flag">[2]</text><text x="225.8" y="113.8" fill="#000" class="taxonLabel">Novocrania</text><text x="203.8" y="126.8" fill="grey" class="flag">[?]</text><text x="225.8" y="126.8" fill="#999" class="taxonLabel">Craniops</text><text x="164" y="100.8" fill="grey" class="flag">[?]</text><text x="186" y="100.8" fill="#999" class="taxonLabel">Ussunia</text><text x="164" y="74.9" fill="grey" class="flag">[?]</text><text x="186" y="74.9" fill="#999" class="taxonLabel">Dailyatia</text><text x="164" y="87.9" fill="grey" class="flag">[?]</text><text x="186" y="87.9" fill="#999" class="taxonLabel">Halkieria evangelista</text><text x="124.2" y="61.9" fill="grey" class="flag">[?]</text><text x="146.2" y="61.9" fill="#999" class="taxonLabel">Cotyledion tylodes</text><text x="104.4" y="48.9" fill="grey" class="flag">[?]</text><text x="126.4" y="48.9" fill="#999" class="taxonLabel">Eccentrotheca</text><text x="104.4" y="23" fill="grey" class="flag">[?]</text><text x="126.4" y="23" fill="#999" class="taxonLabel">Namacalathus</text><text x="104.4" y="36" fill="#91bfdb" class="flag">[2]</text><text x="126.4" y="36" fill="#000" class="taxonLabel">Phoronis</text><text x="64.6" y="10" fill="#91bfdb" class="flag">[2]</text><text x="86.6" y="10" fill="#000" class="taxonLabel">Flustra</text><text x="44.8" y="542.1" fill="#e2e2a2" class="flag">[1]</text><text x="66.8" y="542.1" fill="#000" class="taxonLabel">Loxosomella</text><path d="M5,428V282.7H24.9M24.9,282.7V539.1H44.8M5,428V573.2H24.9M24.9,573.2V558.6H44.8M44.8,558.6V552.1H64.6M24.9,573.2V587.8H44.8M44.8,587.8V578H64.6M44.8,587.8V597.5H64.6M64.6,597.5V591H84.5M64.6,597.5V604H84.5" stroke="#e2e2a2"></path><path d="M24.9,282.7V26.4H44.8M44.8,26.4V7H64.6M44.8,26.4V45.8H64.6M64.6,45.8V26.5H84.5M84.5,26.5V20H104.4M84.5,26.5V33H104.4M64.6,45.8V65.1H84.5M84.5,65.1V45.9H104.4M84.5,65.1V84.2H104.4M104.4,84.2V58.9H124.2M104.4,84.2V109.6H124.2M124.2,109.6V78.4H144.1M144.1,78.4V71.9H164M144.1,78.4V84.9H164M124.2,109.6V140.8H144.1M144.1,140.8V97.8H164M144.1,140.8V183.7H164M164,183.7V117.3H183.9M183.9,117.3V110.8H203.8M183.9,117.3V123.8H203.8M164,183.7V250.1H183.9M183.9,250.1V136.8H203.8M183.9,250.1V363.5H203.8M203.8,363.5V207.3H223.6M223.6,207.3V149.8H243.5M223.6,207.3V264.9H243.5M243.5,264.9V193.5H263.4M263.4,193.5V172.5H283.2M283.2,172.5V162.7H303.1M283.2,172.5V182.2H303.1M303.1,182.2V175.7H323M303.1,182.2V188.7H323M263.4,193.5V214.6H283.2M283.2,214.6V201.7H303.1M283.2,214.6V227.5H303.1M303.1,227.5V214.7H323M303.1,227.5V240.4H323M323,240.4V227.6H342.9M323,240.4V253.2H342.9M342.9,253.2V240.6H362.8M342.9,253.2V265.8H362.8M362.8,265.8V253.6H382.6M362.8,265.8V277.9H382.6M382.6,277.9V266.6H402.5M382.6,277.9V289.3H402.5M402.5,289.3V279.5H422.4M402.5,289.3V299H422.4M422.4,299V292.5H442.2M422.4,299V305.5H442.2M243.5,264.9V336.3H263.4M263.4,336.3V318.5H283.2M263.4,336.3V354.2H283.2M283.2,354.2V331.5H303.1M283.2,354.2V376.9H303.1M303.1,376.9V344.4H323M303.1,376.9V409.3H323M323,409.3V367.1H342.9M342.9,367.1V357.4H362.8M342.9,367.1V376.9H362.8M362.8,376.9V370.4H382.6M362.8,376.9V383.4H382.6M323,409.3V451.4H342.9M342.9,451.4V409.1H362.8M362.8,409.1V396.3H382.6M362.8,409.1V421.9H382.6M382.6,421.9V409.3H402.5M382.6,421.9V434.5H402.5M402.5,434.5V422.3H422.4M402.5,434.5V446.6H422.4M422.4,446.6V435.3H442.2M422.4,446.6V458H442.2M442.2,458V448.3H462.1M442.2,458V467.7H462.1M462.1,467.7V461.2H482M462.1,467.7V474.2H482M342.9,451.4V493.7H362.8M362.8,493.7V487.2H382.6M362.8,493.7V500.2H382.6M203.8,363.5V519.6H223.6M223.6,519.6V513.2H243.5M223.6,519.6V526.1H243.5M44.8,558.6V565.1H64.6" stroke="#91bfdb"></path><text x="7" y="431" class="node" fill="#4A6FE3">1</text><text x="26.9" y="285.7" class="node" fill="#4A6FE3">1</text><text x="46.8" y="29.4" class="node" fill="#6982E1">0.92</text><text x="66.6" y="48.8" class="node" fill="#6982E1">0.92</text><text x="86.5" y="29.5" class="node" fill="#E6BAC2">0.37</text><text x="86.5" y="68.1" class="node" fill="#6982E1">0.92</text><text x="106.4" y="87.2" class="node" fill="#E392A2">0.24</text><text x="126.2" y="112.6" class="node" fill="#BFC4E3">0.63</text><text x="146.1" y="81.4" class="node" fill="#E0E0E2">0.51</text><text x="146.1" y="143.8" class="node" fill="#4A6FE3">1</text><text x="166" y="186.7" class="node" fill="#D85778">0.06</text><text x="185.9" y="120.3" class="node" fill="#4A6FE3">1</text><text x="185.9" y="253.1" class="node" fill="#E3DFE0">0.49</text><text x="205.8" y="366.5" class="node" fill="#E3DFE0">0.49</text><text x="225.6" y="210.3" class="node" fill="#E59FAC">0.29</text><text x="245.5" y="267.9" class="node" fill="#E3DFE0">0.49</text><text x="265.4" y="196.5" class="node" fill="#E3DFE0">0.49</text><text x="285.2" y="175.5" class="node" fill="#E3DFE0">0.49</text><text x="305.1" y="185.2" class="node" fill="#4A6FE3">1</text><text x="285.2" y="217.6" class="node" fill="#4A6FE3">1</text><text x="305.1" y="230.5" class="node" fill="#C1C6E3">0.62</text><text x="325" y="243.4" class="node" fill="#E3DFE0">0.49</text><text x="344.9" y="256.2" class="node" fill="#E3DFE0">0.49</text><text x="364.8" y="268.8" class="node" fill="#E3DFE0">0.49</text><text x="384.6" y="280.9" class="node" fill="#DB617F">0.09</text><text x="404.5" y="292.3" class="node" fill="#E3DFE0">0.49</text><text x="424.4" y="302" class="node" fill="#4A6FE3">1</text><text x="265.4" y="339.3" class="node" fill="#E3DFE0">0.49</text><text x="285.2" y="357.2" class="node" fill="#DB617F">0.09</text><text x="305.1" y="379.9" class="node" fill="#E07C92">0.17</text><text x="325" y="412.3" class="node" fill="#4A6FE3">1</text><text x="344.9" y="370.1" class="node" fill="#929FE1">0.79</text><text x="364.8" y="379.9" class="node" fill="#7D8FE1">0.86</text><text x="344.9" y="454.4" class="node" fill="#8394E1">0.84</text><text x="364.8" y="412.1" class="node" fill="#8C9BE1">0.81</text><text x="384.6" y="424.9" class="node" fill="#8C9BE1">0.81</text><text x="404.5" y="437.5" class="node" fill="#7388E1">0.89</text><text x="424.4" y="449.6" class="node" fill="#7388E1">0.89</text><text x="444.2" y="461" class="node" fill="#4A6FE3">1</text><text x="464.1" y="470.7" class="node" fill="#667FE1">0.93</text><text x="364.8" y="496.7" class="node" fill="#4A6FE3">1</text><text x="225.6" y="522.6" class="node" fill="#4A6FE3">1</text><text x="26.9" y="576.2" class="node" fill="#4A6FE3">1</text><text x="46.8" y="561.6" class="node" fill="#4A6FE3">1</text><text x="46.8" y="590.8" class="node" fill="#4A6FE3">1</text><text x="66.6" y="600.5" class="node" fill="#8696E1">0.83</text></svg>
