<svg xmlns="http://www.w3.org/2000/svg" version="1.1" width="682" height="612" class="tree" data-char="138"><text x="678" y="15.4" text-anchor="end" class="stepsLabel">Character adds <tspan class="score">2</tspan> to tree score</text><text x="678" y="27.8" text-anchor="end" class="stepsLabel"><tspan class="score">0</tspan> additional regions</text><text x="678" y="40.2" text-anchor="end" class="stepsLabel">CI = 0.5; Fitch CI = 0.5; Fitch RI = 0.67</text><text x="678" y="65" text-anchor="end" class="stepsLabel"><tspan dy="16" fill="#34caaf">An optimal tree under:</tspan><tspan x="680" style="font-style:italic" class="notThisAn" dy="1.2em">Equal weights</tspan><tspan x="680" style="font-style:italic" class="notThisAn" dy="1.2em">Implied weights, k = 2</tspan><tspan x="680" style="font-style:italic" class="notThisAn" dy="1.2em">IW, k = 3</tspan><tspan x="680" style="font-style:italic" class="thisAn" dy="1.2em">IW, k = 4.5</tspan><tspan x="680" style="font-style:italic" class="notThisAn" dy="1.2em">IW, k = 7</tspan><tspan x="680" style="font-style:italic" class="notThisAn" dy="1.2em">IW, k = 10.5</tspan><tspan x="680" style="font-style:italic" class="notThisAn" dy="1.2em">IW, k = 16</tspan><tspan x="680" style="font-style:italic" class="notThisAn" dy="1.2em">IW, k = 24</tspan></text><text x="105.4" y="594.3" fill="#e2e2a2" class="flag">[1]</text><text x="127.4" y="594.3" fill="#000" class="taxonLabel">Dentalium</text><text x="105.4" y="607" fill="#e2e2a2" class="flag">[1]</text><text x="127.4" y="607" fill="#000" class="taxonLabel">Tonicella</text><text x="80.3" y="581.6" fill="grey" class="flag">[?]</text><text x="102.3" y="581.6" fill="#999" class="taxonLabel">Wiwaxia corrugata</text><text x="80.3" y="556.2" fill="#e2e2a2" class="flag">[1]</text><text x="102.3" y="556.2" fill="#000" class="taxonLabel">Sipunculus</text><text x="80.3" y="568.9" fill="#e2e2a2" class="flag">[1]</text><text x="102.3" y="568.9" fill="#000" class="taxonLabel">Serpula</text><text x="281.2" y="518.1" fill="grey" class="flag">[?]</text><text x="303.2" y="518.1" fill="#999" class="taxonLabel">Mickwitzia muralensis</text><text x="281.2" y="530.8" fill="grey" class="flag">[?]</text><text x="303.2" y="530.8" fill="#999" class="taxonLabel">Heliomedusa orienta</text><text x="256.1" y="505.4" fill="grey" class="flag">[?]</text><text x="278.1" y="505.4" fill="#999" class="taxonLabel">Micrina</text><text x="306.3" y="480" fill="grey" class="flag">[?]</text><text x="328.3" y="480" fill="#999" class="taxonLabel">Askepasma toddense</text><text x="306.3" y="492.7" fill="grey" class="flag">[?]</text><text x="328.3" y="492.7" fill="#999" class="taxonLabel">Micromitra</text><text x="331.4" y="454.6" fill="grey" class="flag">[?]</text><text x="353.4" y="454.6" fill="#999" class="taxonLabel">Tomteluva perturbata</text><text x="331.4" y="467.3" fill="grey" class="flag">[?]</text><text x="353.4" y="467.3" fill="#999" class="taxonLabel">Salanygolina</text><text x="482" y="429.2" fill="grey" class="flag">[?]</text><text x="504" y="429.2" fill="#999" class="taxonLabel">Terebratulina</text><text x="482" y="441.9" fill="grey" class="flag">[?]</text><text x="504" y="441.9" fill="#999" class="taxonLabel">Orthis</text><text x="456.9" y="416.5" fill="grey" class="flag">[?]</text><text x="478.9" y="416.5" fill="#999" class="taxonLabel">Alisina</text><text x="431.8" y="403.8" fill="grey" class="flag">[?]</text><text x="453.8" y="403.8" fill="#999" class="taxonLabel">Longtancunella chengjiangensis</text><text x="406.7" y="391.1" fill="grey" class="flag">[?]</text><text x="428.7" y="391.1" fill="#999" class="taxonLabel">Glyptoria</text><text x="381.6" y="378.4" fill="grey" class="flag">[?]</text><text x="403.6" y="378.4" fill="#999" class="taxonLabel">Nisusia sulcata</text><text x="356.5" y="365.7" fill="grey" class="flag">[?]</text><text x="378.5" y="365.7" fill="#999" class="taxonLabel">Kutorgina chengjiangensis</text><text x="356.5" y="340.3" fill="grey" class="flag">[?]</text><text x="378.5" y="340.3" fill="#999" class="taxonLabel">Antigonambonites planus</text><text x="356.5" y="353" fill="grey" class="flag">[?]</text><text x="378.5" y="353" fill="#999" class="taxonLabel">Coolinia pecten</text><text x="356.5" y="314.9" fill="grey" class="flag">[?]</text><text x="378.5" y="314.9" fill="#999" class="taxonLabel">Mummpikia nuda</text><text x="356.5" y="327.6" fill="grey" class="flag">[?]</text><text x="378.5" y="327.6" fill="#999" class="taxonLabel">Botsfordia</text><text x="331.4" y="302.1" fill="grey" class="flag">[?]</text><text x="353.4" y="302.1" fill="#999" class="taxonLabel">Eoobolus</text><text x="431.8" y="276.7" fill="grey" class="flag">[?]</text><text x="453.8" y="276.7" fill="#999" class="taxonLabel">Siphonobolus priscus</text><text x="431.8" y="289.4" fill="grey" class="flag">[?]</text><text x="453.8" y="289.4" fill="#999" class="taxonLabel">Acanthotretella spinosa</text><text x="406.7" y="264" fill="grey" class="flag">[?]</text><text x="428.7" y="264" fill="#999" class="taxonLabel">Lingulosacculus</text><text x="381.6" y="251.3" fill="grey" class="flag">[?]</text><text x="403.6" y="251.3" fill="#999" class="taxonLabel">Clupeafumosus socialis</text><text x="381.6" y="225.9" fill="grey" class="flag">[?]</text><text x="403.6" y="225.9" fill="#999" class="taxonLabel">Lingulellotreta malongensis</text><text x="381.6" y="238.6" fill="#e2e2a2" class="flag">[1]</text><text x="403.6" y="238.6" fill="#000" class="taxonLabel">Lingula</text><text x="331.4" y="213.2" fill="grey" class="flag">[?]</text><text x="353.4" y="213.2" fill="#999" class="taxonLabel">Pelagodiscus atlanticus</text><text x="356.5" y="187.8" fill="#e2e2a2" class="flag">[1]</text><text x="378.5" y="187.8" fill="#000" class="taxonLabel">Novocrania</text><text x="356.5" y="200.5" fill="grey" class="flag">[?]</text><text x="378.5" y="200.5" fill="#999" class="taxonLabel">Craniops</text><text x="331.4" y="175.1" fill="grey" class="flag">[?]</text><text x="353.4" y="175.1" fill="#999" class="taxonLabel">Ussunia</text><text x="306.3" y="162.4" fill="grey" class="flag">[?]</text><text x="328.3" y="162.4" fill="#999" class="taxonLabel">Gasconsia</text><text x="256.1" y="137" fill="grey" class="flag">[?]</text><text x="278.1" y="137" fill="#999" class="taxonLabel">Pedunculotheca diania</text><text x="256.1" y="149.7" fill="grey" class="flag">[?]</text><text x="278.1" y="149.7" fill="#999" class="taxonLabel">Haplophrentis carinatus</text><text x="230.9" y="124.3" fill="grey" class="flag">[?]</text><text x="252.9" y="124.3" fill="#999" class="taxonLabel">Yuganotheca elegans</text><text x="180.7" y="111.6" fill="grey" class="flag">[?]</text><text x="202.7" y="111.6" fill="#999" class="taxonLabel">Paterimitra</text><text x="155.6" y="98.9" fill="grey" class="flag">[?]</text><text x="177.6" y="98.9" fill="#999" class="taxonLabel">Halkieria evangelista</text><text x="130.5" y="86.2" fill="grey" class="flag">[?]</text><text x="152.5" y="86.2" fill="#999" class="taxonLabel">Dailyatia</text><text x="180.7" y="60.8" fill="#91bfdb" class="flag">[2]</text><text x="202.7" y="60.8" fill="#000" class="taxonLabel">Phoronis</text><text x="180.7" y="73.5" fill="grey" class="flag">[?]</text><text x="202.7" y="73.5" fill="#999" class="taxonLabel">Namacalathus</text><text x="155.6" y="48.1" fill="grey" class="flag">[?]</text><text x="177.6" y="48.1" fill="#999" class="taxonLabel">Cotyledion tylodes</text><text x="130.5" y="35.4" fill="grey" class="flag">[?]</text><text x="152.5" y="35.4" fill="#999" class="taxonLabel">Eccentrotheca</text><text x="105.4" y="10" fill="#91bfdb" class="flag">[2]</text><text x="127.4" y="10" fill="#000" class="taxonLabel">Flustra</text><text x="105.4" y="22.7" fill="#91bfdb" class="flag">[2]</text><text x="127.4" y="22.7" fill="#000" class="taxonLabel">Amathia</text><text x="55.2" y="543.5" fill="#91bfdb" class="flag">[2]</text><text x="77.2" y="543.5" fill="#000" class="taxonLabel">Loxosomella</text><path d="M5,433.5V293.2H30.1M30.1,293.2V46H55.2M55.2,46V13.4H80.3M80.3,13.4V7H105.4M80.3,13.4V19.7H105.4M55.2,46V78.6H80.3M80.3,78.6V43.5H105.4M105.4,43.5V32.4H130.5M105.4,43.5V54.6H130.5M130.5,54.6V45.1H155.6M130.5,54.6V64.2H155.6M155.6,64.2V57.8H180.7M155.6,64.2V70.5H180.7M80.3,78.6V113.7H105.4M30.1,293.2V540.5H55.2" stroke="#91bfdb"></path><path d="M105.4,113.7V83.2H130.5M105.4,113.7V144.3H130.5M130.5,144.3V95.9H155.6M130.5,144.3V192.6H155.6M155.6,192.6V108.6H180.7M155.6,192.6V276.6H180.7M180.7,276.6V130.8H205.8M205.8,130.8V121.3H230.9M205.8,130.8V140.4H230.9M230.9,140.4V134H256.1M230.9,140.4V146.7H256.1M180.7,276.6V422.3H205.8M205.8,422.3V332.6H230.9M230.9,332.6V446H256.1M256.1,446V408.7H281.2M281.2,408.7V359.4H306.3M306.3,359.4V343.6H331.4M331.4,343.6V337.3H356.5M331.4,343.6V350H356.5M306.3,359.4V375.2H331.4M331.4,375.2V362.7H356.5M331.4,375.2V387.7H356.5M356.5,387.7V375.4H381.6M356.5,387.7V400H381.6M381.6,400V388.1H406.7M381.6,400V411.9H406.7M406.7,411.9V400.8H431.8M406.7,411.9V423H431.8M431.8,423V413.5H456.9M431.8,423V432.5H456.9M456.9,432.5V426.2H482M456.9,432.5V438.9H482M281.2,408.7V457.9H306.3M306.3,457.9V451.6H331.4M306.3,457.9V464.3H331.4M256.1,446V483.3H281.2M281.2,483.3V477H306.3M281.2,483.3V489.7H306.3M205.8,422.3V511.9H230.9M230.9,511.9V502.4H256.1M230.9,511.9V521.4H256.1M256.1,521.4V515.1H281.2M256.1,521.4V527.8H281.2" stroke="darkgrey"></path><path d="M230.9,332.6V219.3H256.1M256.1,219.3V170.5H281.2M281.2,170.5V159.4H306.3M281.2,170.5V181.7H306.3M306.3,181.7V172.1H331.4M306.3,181.7V191.2H331.4M331.4,191.2V184.8H356.5M331.4,191.2V197.5H356.5M256.1,219.3V268H281.2M281.2,268V227.3H306.3M306.3,227.3V210.2H331.4M306.3,227.3V244.4H331.4M331.4,244.4V229.3H356.5M356.5,229.3V222.9H381.6M356.5,229.3V235.6H381.6M331.4,244.4V259.5H356.5M356.5,259.5V248.3H381.6M356.5,259.5V270.6H381.6M381.6,270.6V261H406.7M381.6,270.6V280.1H406.7M406.7,280.1V273.7H431.8M406.7,280.1V286.4H431.8M281.2,268V308.7H306.3M306.3,308.7V299.1H331.4M306.3,308.7V318.2H331.4M331.4,318.2V311.9H356.5M331.4,318.2V324.6H356.5M5,433.5V573.8H30.1M30.1,573.8V559.5H55.2M55.2,559.5V553.2H80.3M55.2,559.5V565.9H80.3M30.1,573.8V588.1H55.2M55.2,588.1V578.6H80.3M55.2,588.1V597.6H80.3M80.3,597.6V591.3H105.4M80.3,597.6V604H105.4" stroke="#e2e2a2"></path><text x="7" y="436.5" class="node" fill="#4A6FE3">1</text><text x="32.1" y="296.2" class="node" fill="#4A6FE3">1</text><text x="57.2" y="49" class="node" fill="#4A6FE3">1</text><text x="82.3" y="16.4" class="node" fill="#4A6FE3">1</text><text x="82.3" y="81.6" class="node" fill="#4A6FE3">1</text><text x="107.4" y="46.5" class="node" fill="#E6C4C9">0.4</text><text x="132.5" y="57.6" class="node" fill="#E5D0D3">0.44</text><text x="157.6" y="67.2" class="node" fill="#4A6FE3">1</text><text x="107.4" y="116.7" class="node" fill="#D2D4E3">0.57</text><text x="132.5" y="147.3" class="node" fill="#C4C9E3">0.61</text><text x="157.6" y="195.6" class="node" fill="#4A6FE3">1</text><text x="182.7" y="279.6" class="node" fill="#DD6F88">0.13</text><text x="207.8" y="133.8" class="node" fill="#DD6F88">0.13</text><text x="232.9" y="143.4" class="node" fill="#4A6FE3">1</text><text x="207.8" y="425.3" class="node" fill="#DD6F88">0.13</text><text x="232.9" y="335.6" class="node" fill="#DD6F88">0.13</text><text x="258.1" y="222.3" class="node" fill="#B4BBE3">0.67</text><text x="283.2" y="173.5" class="node" fill="#4A6FE3">1</text><text x="308.3" y="184.7" class="node" fill="#4A6FE3">1</text><text x="333.4" y="194.2" class="node" fill="#4A6FE3">1</text><text x="283.2" y="271" class="node" fill="#B4BBE3">0.67</text><text x="308.3" y="230.3" class="node" fill="#DE728B">0.14</text><text x="333.4" y="247.4" class="node" fill="#E4D9DB">0.47</text><text x="358.5" y="232.3" class="node" fill="#E4D6D8">0.46</text><text x="358.5" y="262.5" class="node" fill="#7D8FE1">0.86</text><text x="383.6" y="273.6" class="node" fill="#E392A2">0.24</text><text x="408.7" y="283.1" class="node" fill="#4A6FE3">1</text><text x="308.3" y="311.7" class="node" fill="#E4D9DB">0.47</text><text x="333.4" y="321.2" class="node" fill="#E4D9DB">0.47</text><text x="258.1" y="449" class="node" fill="#DD6F88">0.13</text><text x="283.2" y="411.7" class="node" fill="#DD6F88">0.13</text><text x="308.3" y="362.4" class="node" fill="#9DA8E2">0.75</text><text x="333.4" y="346.6" class="node" fill="#4A6FE3">1</text><text x="333.4" y="378.2" class="node" fill="#9DA8E2">0.75</text><text x="358.5" y="390.7" class="node" fill="#9DA8E2">0.75</text><text x="383.6" y="403" class="node" fill="#4A6FE3">1</text><text x="408.7" y="414.9" class="node" fill="#4A6FE3">1</text><text x="433.8" y="426" class="node" fill="#4A6FE3">1</text><text x="458.9" y="435.5" class="node" fill="#4A6FE3">1</text><text x="308.3" y="460.9" class="node" fill="#DD6F88">0.13</text><text x="283.2" y="486.3" class="node" fill="#4A6FE3">1</text><text x="232.9" y="514.9" class="node" fill="#CFD2E3">0.58</text><text x="258.1" y="524.4" class="node" fill="#CFD2E3">0.58</text><text x="32.1" y="576.8" class="node" fill="#4A6FE3">1</text><text x="57.2" y="562.5" class="node" fill="#4A6FE3">1</text><text x="57.2" y="591.1" class="node" fill="#4A6FE3">1</text><text x="82.3" y="600.6" class="node" fill="#B4BBE3">0.67</text></svg>
