<svg xmlns="http://www.w3.org/2000/svg" version="1.1" width="682" height="612" class="tree" data-char="174"><text x="678" y="15.4" text-anchor="end" class="stepsLabel">Character adds <tspan class="score">4</tspan> to tree score</text><text x="678" y="27.8" text-anchor="end" class="stepsLabel"><tspan class="score">0</tspan> additional regions</text><text x="678" y="40.2" text-anchor="end" class="stepsLabel">CI = 0.5; Fitch CI = 0.5; Fitch RI = 0.5</text><text x="678" y="65" text-anchor="end" class="stepsLabel"><tspan dy="16" fill="#34caaf">An optimal tree under:</tspan><tspan x="680" style="font-style:italic" class="notThisAn" dy="1.2em">Equal weights</tspan><tspan x="680" style="font-style:italic" class="notThisAn" dy="1.2em">Implied weights, k = 2</tspan><tspan x="680" style="font-style:italic" class="notThisAn" dy="1.2em">IW, k = 3</tspan><tspan x="680" style="font-style:italic" class="notThisAn" dy="1.2em">IW, k = 4.5</tspan><tspan x="680" style="font-style:italic" class="notThisAn" dy="1.2em">IW, k = 7</tspan><tspan x="680" style="font-style:italic" class="notThisAn" dy="1.2em">IW, k = 10.5</tspan><tspan x="680" style="font-style:italic" class="thisAn" dy="1.2em">IW, k = 16</tspan><tspan x="680" style="font-style:italic" class="notThisAn" dy="1.2em">IW, k = 24</tspan></text><text x="91.7" y="594.3" fill="grey" class="flag">[?]</text><text x="113.7" y="594.3" fill="#999" class="taxonLabel">Wiwaxia corrugata</text><text x="91.7" y="607" fill="#e2e2a2" class="flag">[2]</text><text x="113.7" y="607" fill="#000" class="taxonLabel">Dentalium</text><text x="70" y="581.6" fill="#abd9e9" class="flag">[3]</text><text x="92" y="581.6" fill="#000" class="taxonLabel">Tonicella</text><text x="70" y="556.2" fill="grey" class="flag">[?]</text><text x="92" y="556.2" fill="#999" class="taxonLabel">Serpula</text><text x="70" y="568.9" fill="#abd9e9" class="flag">[3]</text><text x="92" y="568.9" fill="#000" class="taxonLabel">Sipunculus</text><text x="70" y="530.8" fill="grey" class="flag">[?]</text><text x="92" y="530.8" fill="#999" class="taxonLabel">Namacalathus</text><text x="70" y="543.5" fill="#abd9e9" class="flag">[3]</text><text x="92" y="543.5" fill="#000" class="taxonLabel">Loxosomella</text><text x="113.4" y="505.4" fill="grey" class="flag">[?]</text><text x="135.4" y="505.4" fill="#999" class="taxonLabel">Cotyledion tylodes</text><text x="113.4" y="518.1" fill="#2c7bb6" class="flag">[4]</text><text x="135.4" y="518.1" fill="#000" class="taxonLabel">Phoronis</text><text x="373.6" y="480" fill="grey" class="flag">[?]</text><text x="395.6" y="480" fill="#999" class="taxonLabel">Coolinia pecten</text><text x="373.6" y="492.7" fill="grey" class="flag">[?]</text><text x="395.6" y="492.7" fill="#999" class="taxonLabel">Antigonambonites planus</text><text x="482" y="454.6" fill="grey" class="flag">[?]</text><text x="504" y="454.6" fill="#999" class="taxonLabel">Orthis</text><text x="482" y="467.3" fill="#abd9e9" class="flag">[3]</text><text x="504" y="467.3" fill="#000" class="taxonLabel">Terebratulina</text><text x="460.3" y="441.9" fill="grey" class="flag">[?]</text><text x="482.3" y="441.9" fill="#999" class="taxonLabel">Alisina</text><text x="438.6" y="429.2" fill="grey" class="flag">[?]</text><text x="460.6" y="429.2" fill="#999" class="taxonLabel">Longtancunella chengjiangensis</text><text x="417" y="416.5" fill="grey" class="flag">[?]</text><text x="439" y="416.5" fill="#999" class="taxonLabel">Glyptoria</text><text x="395.3" y="403.8" fill="grey" class="flag">[?]</text><text x="417.3" y="403.8" fill="#999" class="taxonLabel">Nisusia sulcata</text><text x="373.6" y="391.1" fill="grey" class="flag">[?]</text><text x="395.6" y="391.1" fill="#999" class="taxonLabel">Kutorgina chengjiangensis</text><text x="330.2" y="378.4" fill="grey" class="flag">[?]</text><text x="352.2" y="378.4" fill="#999" class="taxonLabel">Tomteluva perturbata</text><text x="308.5" y="365.7" fill="grey" class="flag">[?]</text><text x="330.5" y="365.7" fill="#999" class="taxonLabel">Salanygolina</text><text x="286.9" y="353" fill="grey" class="flag">[?]</text><text x="308.9" y="353" fill="#999" class="taxonLabel">Askepasma toddense</text><text x="373.6" y="327.6" fill="grey" class="flag">[?]</text><text x="395.6" y="327.6" fill="#999" class="taxonLabel">Mummpikia nuda</text><text x="373.6" y="340.3" fill="grey" class="flag">[?]</text><text x="395.6" y="340.3" fill="#999" class="taxonLabel">Botsfordia</text><text x="351.9" y="314.9" fill="grey" class="flag">[?]</text><text x="373.9" y="314.9" fill="#999" class="taxonLabel">Eoobolus</text><text x="395.3" y="289.4" fill="#2c7bb6" class="flag">[4]</text><text x="417.3" y="289.4" fill="#000" class="taxonLabel">Lingula</text><text x="395.3" y="302.1" fill="grey" class="flag">[?]</text><text x="417.3" y="302.1" fill="#999" class="taxonLabel">Lingulellotreta malongensis</text><text x="438.6" y="264" fill="grey" class="flag">[?]</text><text x="460.6" y="264" fill="#999" class="taxonLabel">Acanthotretella spinosa</text><text x="438.6" y="276.7" fill="grey" class="flag">[?]</text><text x="460.6" y="276.7" fill="#999" class="taxonLabel">Siphonobolus priscus</text><text x="417" y="251.3" fill="grey" class="flag">[?]</text><text x="439" y="251.3" fill="#999" class="taxonLabel">Lingulosacculus</text><text x="395.3" y="238.6" fill="grey" class="flag">[?]</text><text x="417.3" y="238.6" fill="#999" class="taxonLabel">Clupeafumosus socialis</text><text x="351.9" y="225.9" fill="grey" class="flag">[?]</text><text x="373.9" y="225.9" fill="#999" class="taxonLabel">Pelagodiscus atlanticus</text><text x="330.2" y="200.5" fill="grey" class="flag">[?]</text><text x="352.2" y="200.5" fill="#999" class="taxonLabel">Micromitra</text><text x="330.2" y="213.2" fill="grey" class="flag">[?]</text><text x="352.2" y="213.2" fill="#999" class="taxonLabel">Gasconsia</text><text x="351.9" y="175.1" fill="#e2e2a2" class="flag">[2]</text><text x="373.9" y="175.1" fill="#000" class="taxonLabel">Novocrania</text><text x="351.9" y="187.8" fill="grey" class="flag">[?]</text><text x="373.9" y="187.8" fill="#999" class="taxonLabel">Craniops</text><text x="330.2" y="162.4" fill="grey" class="flag">[?]</text><text x="352.2" y="162.4" fill="#999" class="taxonLabel">Ussunia</text><text x="351.9" y="137" fill="grey" class="flag">[?]</text><text x="373.9" y="137" fill="#999" class="taxonLabel">Haplophrentis carinatus</text><text x="351.9" y="149.7" fill="grey" class="flag">[?]</text><text x="373.9" y="149.7" fill="#999" class="taxonLabel">Pedunculotheca diania</text><text x="330.2" y="124.3" fill="grey" class="flag">[?]</text><text x="352.2" y="124.3" fill="#999" class="taxonLabel">Yuganotheca elegans</text><text x="243.5" y="111.6" fill="grey" class="flag">[?]</text><text x="265.5" y="111.6" fill="#999" class="taxonLabel">Micrina</text><text x="221.8" y="98.9" fill="grey" class="flag">[?]</text><text x="243.8" y="98.9" fill="#999" class="taxonLabel">Heliomedusa orienta</text><text x="200.1" y="86.2" fill="grey" class="flag">[?]</text><text x="222.1" y="86.2" fill="#999" class="taxonLabel">Mickwitzia muralensis</text><text x="178.5" y="73.5" fill="grey" class="flag">[?]</text><text x="200.5" y="73.5" fill="#999" class="taxonLabel">Paterimitra</text><text x="156.8" y="60.8" fill="grey" class="flag">[?]</text><text x="178.8" y="60.8" fill="#999" class="taxonLabel">Halkieria evangelista</text><text x="135.1" y="48.1" fill="grey" class="flag">[?]</text><text x="157.1" y="48.1" fill="#999" class="taxonLabel">Dailyatia</text><text x="113.4" y="35.4" fill="grey" class="flag">[?]</text><text x="135.4" y="35.4" fill="#999" class="taxonLabel">Eccentrotheca</text><text x="91.7" y="10" fill="#2c7bb6" class="flag">[4]</text><text x="113.7" y="10" fill="#000" class="taxonLabel">Flustra</text><text x="91.7" y="22.7" fill="#2c7bb6" class="flag">[4]</text><text x="113.7" y="22.7" fill="#000" class="taxonLabel">Amathia</text><path d="M5,456.8V339.8H26.7M460.3,457.9V464.3H482M26.7,339.8V534.1H48.4M48.4,534.1V527.8H70M48.4,534.1V540.5H70M5,456.8V573.8H26.7M26.7,573.8V559.5H48.4M48.4,559.5V553.2H70M48.4,559.5V565.9H70M26.7,573.8V588.1H48.4M48.4,588.1V578.6H70M48.4,588.1V597.6H70" stroke="#abd9e9"></path><path d="M26.7,339.8V145.4H48.4M48.4,145.4V13.4H70M70,13.4V7H91.7M70,13.4V19.7H91.7M48.4,145.4V277.5H70M70,277.5V46.3H91.7M91.7,46.3V32.4H113.4M91.7,46.3V60.1H113.4M113.4,60.1V45.1H135.1M113.4,60.1V75.1H135.1M135.1,75.1V57.8H156.8M135.1,75.1V92.5H156.8M156.8,92.5V70.5H178.5M156.8,92.5V114.5H178.5M178.5,114.5V83.2H200.1M178.5,114.5V145.7H200.1M200.1,145.7V95.9H221.8M200.1,145.7V195.5H221.8M221.8,195.5V108.6H243.5M221.8,195.5V282.3H243.5M243.5,282.3V196.9H265.2M265.2,196.9V149.9H286.9M265.2,196.9V243.9H286.9M286.9,243.9V203.9H308.5M308.5,203.9V197.5H330.2M308.5,203.9V210.2H330.2M286.9,243.9V283.9H308.5M308.5,283.9V246.4H330.2M330.2,246.4V222.9H351.9M330.2,246.4V269.8H351.9M351.9,269.8V246.8H373.6M373.6,246.8V235.6H395.3M373.6,246.8V257.9H395.3M395.3,257.9V248.3H417M395.3,257.9V267.4H417M417,267.4V261H438.6M417,267.4V273.7H438.6M351.9,269.8V292.8H373.6M373.6,292.8V286.4H395.3M373.6,292.8V299.1H395.3M308.5,283.9V321.4H330.2M330.2,321.4V311.9H351.9M330.2,321.4V330.9H351.9M351.9,330.9V324.6H373.6M351.9,330.9V337.3H373.6M243.5,282.3V367.8H265.2M70,277.5V508.7H91.7M91.7,508.7V502.4H113.4M91.7,508.7V515.1H113.4" stroke="#2c7bb6"></path><path d="M286.9,149.9V130.8H308.5M308.5,130.8V121.3H330.2M308.5,130.8V140.4H330.2M330.2,140.4V134H351.9M330.2,140.4V146.7H351.9M286.9,149.9V169H308.5M308.5,169V159.4H330.2M308.5,169V178.5H330.2M330.2,178.5V184.8H351.9M265.2,367.8V350H286.9M265.2,367.8V385.7H286.9M286.9,385.7V362.7H308.5M286.9,385.7V408.7H308.5M308.5,408.7V375.4H330.2M308.5,408.7V441.9H330.2M330.2,441.9V400.6H351.9M351.9,400.6V388.1H373.6M351.9,400.6V413.1H373.6M373.6,413.1V400.8H395.3M373.6,413.1V425.4H395.3M395.3,425.4V413.5H417M395.3,425.4V437.3H417M417,437.3V426.2H438.6M417,437.3V448.4H438.6M438.6,448.4V438.9H460.3M438.6,448.4V457.9H460.3M460.3,457.9V451.6H482M330.2,441.9V483.3H351.9M351.9,483.3V477H373.6M351.9,483.3V489.7H373.6M70,597.6V591.3H91.7" stroke="darkgrey"></path><path d="M330.2,178.5V172.1H351.9M70,597.6V604H91.7" stroke="#e2e2a2"></path><text x="7" y="459.8" class="node" fill="#4A6FE3">1</text><text x="28.7" y="342.8" class="node" fill="#4A6FE3">1</text><text x="50.4" y="148.4" class="node" fill="#D54C71">0.03</text><text x="72" y="16.4" class="node" fill="#4A6FE3">1</text><text x="72" y="280.5" class="node" fill="#D54C71">0.03</text><text x="93.7" y="49.3" class="node" fill="#D64F73">0.04</text><text x="115.4" y="63.1" class="node" fill="#E4D6D8">0.46</text><text x="137.1" y="78.1" class="node" fill="#CACDE3">0.59</text><text x="158.8" y="95.5" class="node" fill="#CACDE3">0.59</text><text x="180.5" y="117.5" class="node" fill="#E4D6D8">0.46</text><text x="202.1" y="148.7" class="node" fill="#E38C9E">0.22</text><text x="223.8" y="198.5" class="node" fill="#E07C92">0.17</text><text x="245.5" y="285.3" class="node" fill="#E07C92">0.17</text><text x="267.2" y="199.9" class="node" fill="#D54C71">0.03</text><text x="288.9" y="152.9" class="node" fill="#D54C71">0.03</text><text x="310.5" y="133.8" class="node" fill="#D54C71">0.03</text><text x="332.2" y="143.4" class="node" fill="#4A6FE3">1</text><text x="310.5" y="172" class="node" fill="#E4D6D8">0.46</text><text x="332.2" y="181.5" class="node" fill="#E4D6D8">0.46</text><text x="288.9" y="246.9" class="node" fill="#E498A7">0.26</text><text x="310.5" y="206.9" class="node" fill="#E07C92">0.17</text><text x="310.5" y="286.9" class="node" fill="#E4D6D8">0.46</text><text x="332.2" y="249.4" class="node" fill="#E498A7">0.26</text><text x="353.9" y="272.8" class="node" fill="#E6C1C7">0.39</text><text x="375.6" y="249.8" class="node" fill="#95A1E2">0.78</text><text x="397.3" y="260.9" class="node" fill="#E498A7">0.26</text><text x="419" y="270.4" class="node" fill="#4A6FE3">1</text><text x="375.6" y="295.8" class="node" fill="#E5CDD1">0.43</text><text x="332.2" y="324.4" class="node" fill="#E5A8B3">0.31</text><text x="353.9" y="333.9" class="node" fill="#E498A7">0.26</text><text x="267.2" y="370.8" class="node" fill="#D54C71">0.03</text><text x="288.9" y="388.7" class="node" fill="#E49CAA">0.27</text><text x="310.5" y="411.7" class="node" fill="#E38C9E">0.22</text><text x="332.2" y="444.9" class="node" fill="#5374E2">0.98</text><text x="353.9" y="403.6" class="node" fill="#CACDE3">0.59</text><text x="375.6" y="416.1" class="node" fill="#CACDE3">0.59</text><text x="397.3" y="428.4" class="node" fill="#C7CBE3">0.6</text><text x="419" y="440.3" class="node" fill="#C7CBE3">0.6</text><text x="440.6" y="451.4" class="node" fill="#4A6FE3">1</text><text x="462.3" y="460.9" class="node" fill="#929FE1">0.79</text><text x="353.9" y="486.3" class="node" fill="#4A6FE3">1</text><text x="93.7" y="511.7" class="node" fill="#D54C71">0.03</text><text x="50.4" y="537.1" class="node" fill="#D54C71">0.03</text><text x="28.7" y="576.8" class="node" fill="#4A6FE3">1</text><text x="50.4" y="562.5" class="node" fill="#4A6FE3">1</text><text x="50.4" y="591.1" class="node" fill="#4A6FE3">1</text><text x="72" y="600.6" class="node" fill="#4A6FE3">1</text></svg>
