<svg xmlns="http://www.w3.org/2000/svg" version="1.1" width="682" height="612" class="tree" data-char="152"><text x="678" y="15.7" text-anchor="end" class="stepsLabel">Character adds <tspan class="score">3</tspan> to tree score</text><text x="678" y="28.4" text-anchor="end" class="stepsLabel"><tspan class="score">0</tspan> additional regions</text><text x="678" y="41.1" text-anchor="end" class="stepsLabel">CI = 0.33; Fitch CI = 0.33; Fitch RI = 0.33</text><text x="678" y="66.5" text-anchor="end" class="stepsLabel"><tspan dy="16">An optimal tree under:</tspan><tspan x="680" style="font-style:italic" class="notThisAn" dy="1.2em">Equal weights</tspan><tspan x="680" style="font-style:italic" class="notThisAn" dy="1.2em">Implied weights, k = 2</tspan><tspan x="680" style="font-style:italic" class="thisAn" dy="1.2em">IW, k = 3</tspan><tspan x="680" style="font-style:italic" class="notThisAn" dy="1.2em">IW, k = 4.5</tspan><tspan x="680" style="font-style:italic" class="notThisAn" dy="1.2em">IW, k = 7</tspan><tspan x="680" style="font-style:italic" class="notThisAn" dy="1.2em">IW, k = 10.5</tspan><tspan x="680" style="font-style:italic" class="notThisAn" dy="1.2em">IW, k = 16</tspan><tspan x="680" style="font-style:italic" class="notThisAn" dy="1.2em">IW, k = 24</tspan></text><text x="91.7" y="594" fill="#fc8d59" class="flag">[0]</text><text x="113.7" y="594" fill="#000" class="taxonLabel">Tonicella</text><text x="91.7" y="607" fill="grey" class="flag">[?]</text><text x="113.7" y="607" fill="grey" class="taxonLabel">Wiwaxia corrugata</text><text x="70" y="581" fill="#fc8d59" class="flag">[0]</text><text x="92" y="581" fill="#000" class="taxonLabel">Dentalium</text><text x="70" y="555.1" fill="#91bfdb" class="flag">[1]</text><text x="92" y="555.1" fill="#000" class="taxonLabel">Sipunculus</text><text x="70" y="568.1" fill="#91bfdb" class="flag">[1]</text><text x="92" y="568.1" fill="#000" class="taxonLabel">Serpula</text><text x="156.8" y="516.2" fill="grey" class="flag">[?]</text><text x="178.8" y="516.2" fill="grey" class="taxonLabel">Cotyledion tylodes</text><text x="156.8" y="529.1" fill="grey" class="flag">[?]</text><text x="178.8" y="529.1" fill="grey" class="taxonLabel">Eccentrotheca</text><text x="221.8" y="490.2" fill="grey" class="flag">[?]</text><text x="243.8" y="490.2" fill="grey" class="taxonLabel">Haplophrentis carinatus</text><text x="221.8" y="503.2" fill="grey" class="flag">[?]</text><text x="243.8" y="503.2" fill="grey" class="taxonLabel">Pedunculotheca diania</text><text x="351.9" y="464.2" fill="grey" class="flag">[?]</text><text x="373.9" y="464.2" fill="grey" class="taxonLabel">Botsfordia</text><text x="351.9" y="477.2" fill="grey" class="flag">[?]</text><text x="373.9" y="477.2" fill="grey" class="taxonLabel">Mummpikia nuda</text><text x="330.2" y="451.3" fill="grey" class="flag">[?]</text><text x="352.2" y="451.3" fill="grey" class="taxonLabel">Eoobolus</text><text x="351.9" y="425.3" fill="grey" class="flag">[?]</text><text x="373.9" y="425.3" fill="grey" class="taxonLabel">Lingulellotreta malongensis</text><text x="351.9" y="438.3" fill="#fc8d59" class="flag">[0]</text><text x="373.9" y="438.3" fill="#000" class="taxonLabel">Lingula</text><text x="395.3" y="399.3" fill="grey" class="flag">[?]</text><text x="417.3" y="399.3" fill="grey" class="taxonLabel">Siphonobolus priscus</text><text x="395.3" y="412.3" fill="grey" class="flag">[?]</text><text x="417.3" y="412.3" fill="grey" class="taxonLabel">Acanthotretella spinosa</text><text x="373.6" y="386.4" fill="grey" class="flag">[?]</text><text x="395.6" y="386.4" fill="grey" class="taxonLabel">Lingulosacculus</text><text x="351.9" y="373.4" fill="grey" class="flag">[?]</text><text x="373.9" y="373.4" fill="grey" class="taxonLabel">Clupeafumosus socialis</text><text x="308.5" y="347.4" fill="grey" class="flag">[?]</text><text x="330.5" y="347.4" fill="grey" class="taxonLabel">Mickwitzia muralensis</text><text x="308.5" y="360.4" fill="grey" class="flag">[?]</text><text x="330.5" y="360.4" fill="grey" class="taxonLabel">Pelagodiscus atlanticus</text><text x="373.6" y="321.5" fill="grey" class="flag">[?]</text><text x="395.6" y="321.5" fill="grey" class="taxonLabel">Yuganotheca elegans</text><text x="373.6" y="334.5" fill="grey" class="flag">[?]</text><text x="395.6" y="334.5" fill="grey" class="taxonLabel">Tomteluva perturbata</text><text x="351.9" y="308.5" fill="grey" class="flag">[?]</text><text x="373.9" y="308.5" fill="grey" class="taxonLabel">Salanygolina</text><text x="482" y="282.5" fill="grey" class="flag">[?]</text><text x="504" y="282.5" fill="grey" class="taxonLabel">Terebratulina</text><text x="482" y="295.5" fill="grey" class="flag">[?]</text><text x="504" y="295.5" fill="grey" class="taxonLabel">Orthis</text><text x="460.3" y="269.6" fill="grey" class="flag">[?]</text><text x="482.3" y="269.6" fill="grey" class="taxonLabel">Alisina</text><text x="438.6" y="256.6" fill="grey" class="flag">[?]</text><text x="460.6" y="256.6" fill="grey" class="taxonLabel">Longtancunella chengjiangensis</text><text x="417" y="243.6" fill="grey" class="flag">[?]</text><text x="439" y="243.6" fill="grey" class="taxonLabel">Glyptoria</text><text x="395.3" y="230.6" fill="grey" class="flag">[?]</text><text x="417.3" y="230.6" fill="grey" class="taxonLabel">Nisusia sulcata</text><text x="373.6" y="217.7" fill="grey" class="flag">[?]</text><text x="395.6" y="217.7" fill="grey" class="taxonLabel">Kutorgina chengjiangensis</text><text x="373.6" y="191.7" fill="grey" class="flag">[?]</text><text x="395.6" y="191.7" fill="grey" class="taxonLabel">Coolinia pecten</text><text x="373.6" y="204.7" fill="grey" class="flag">[?]</text><text x="395.6" y="204.7" fill="grey" class="taxonLabel">Antigonambonites planus</text><text x="330.2" y="165.7" fill="grey" class="flag">[?]</text><text x="352.2" y="165.7" fill="grey" class="taxonLabel">Askepasma toddense</text><text x="330.2" y="178.7" fill="grey" class="flag">[?]</text><text x="352.2" y="178.7" fill="grey" class="taxonLabel">Micromitra</text><text x="351.9" y="139.8" fill="grey" class="flag">[?]</text><text x="373.9" y="139.8" fill="grey" class="taxonLabel">Craniops</text><text x="351.9" y="152.8" fill="#fc8d59" class="flag">[0]</text><text x="373.9" y="152.8" fill="#000" class="taxonLabel">Novocrania</text><text x="330.2" y="126.8" fill="grey" class="flag">[?]</text><text x="352.2" y="126.8" fill="grey" class="taxonLabel">Ussunia</text><text x="308.5" y="113.8" fill="grey" class="flag">[?]</text><text x="330.5" y="113.8" fill="grey" class="taxonLabel">Gasconsia</text><text x="243.5" y="100.8" fill="grey" class="flag">[?]</text><text x="265.5" y="100.8" fill="grey" class="taxonLabel">Micrina</text><text x="221.8" y="87.9" fill="grey" class="flag">[?]</text><text x="243.8" y="87.9" fill="grey" class="taxonLabel">Paterimitra</text><text x="178.5" y="74.9" fill="grey" class="flag">[?]</text><text x="200.5" y="74.9" fill="grey" class="taxonLabel">Heliomedusa orienta</text><text x="178.5" y="48.9" fill="grey" class="flag">[?]</text><text x="200.5" y="48.9" fill="grey" class="taxonLabel">Dailyatia</text><text x="178.5" y="61.9" fill="grey" class="flag">[?]</text><text x="200.5" y="61.9" fill="grey" class="taxonLabel">Halkieria evangelista</text><text x="113.4" y="36" fill="#91bfdb" class="flag">[1]</text><text x="135.4" y="36" fill="#000" class="taxonLabel">Phoronis</text><text x="91.7" y="23" fill="grey" class="flag">[?]</text><text x="113.7" y="23" fill="grey" class="taxonLabel">Namacalathus</text><text x="70" y="10" fill="#fc8d59" class="flag">[0]</text><text x="92" y="10" fill="#000" class="taxonLabel">Flustra</text><text x="48.4" y="542.1" fill="#91bfdb" class="flag">[1]</text><text x="70.4" y="542.1" fill="#000" class="taxonLabel">Loxosomella</text><path d="M5,434.6V295.9H26.7M26.7,295.9V52.8H48.4M48.4,52.8V98.6H70M70,98.6V20H91.7M70,98.6V177.1H91.7M91.7,177.1V321.3H113.4M113.4,321.3V123H135.1M135.1,123V52.4H156.8M156.8,52.4V45.9H178.5M156.8,52.4V58.9H178.5M135.1,123V193.6H156.8M156.8,193.6V71.9H178.5M156.8,193.6V315.3H178.5M178.5,315.3V137H200.1M200.1,137V84.9H221.8M200.1,137V189H221.8M221.8,189V97.8H243.5M178.5,315.3V493.7H200.1M200.1,493.7V487.2H221.8M200.1,493.7V500.2H221.8M113.4,321.3V519.6H135.1M135.1,519.6V513.2H156.8M135.1,519.6V526.1H156.8M5,434.6V573.2H26.7" stroke="darkgrey"></path><path d="M48.4,52.8V7H70M221.8,189V280.2H243.5M243.5,280.2V169.2H265.2M265.2,169.2V122.2H286.9M286.9,122.2V110.8H308.5M286.9,122.2V133.5H308.5M308.5,133.5V123.8H330.2M308.5,133.5V143.3H330.2M330.2,143.3V136.8H351.9M330.2,143.3V149.8H351.9M265.2,169.2V216.2H286.9M286.9,216.2V169.2H308.5M308.5,169.2V162.7H330.2M308.5,169.2V175.7H330.2M286.9,216.2V263.3H308.5M308.5,263.3V211.3H330.2M330.2,211.3V195.2H351.9M351.9,195.2V188.7H373.6M351.9,195.2V201.7H373.6M330.2,211.3V227.4H351.9M351.9,227.4V214.7H373.6M351.9,227.4V240.2H373.6M373.6,240.2V227.6H395.3M373.6,240.2V252.8H395.3M395.3,252.8V240.6H417M395.3,252.8V264.9H417M417,264.9V253.6H438.6M417,264.9V276.3H438.6M438.6,276.3V266.6H460.3M438.6,276.3V286H460.3M460.3,286V279.5H482M460.3,286V292.5H482M308.5,263.3V315.2H330.2M330.2,315.2V305.5H351.9M330.2,315.2V325H351.9M351.9,325V318.5H373.6M351.9,325V331.5H373.6M243.5,280.2V391.3H265.2M265.2,391.3V350.9H286.9M286.9,350.9V344.4H308.5M286.9,350.9V357.4H308.5M265.2,391.3V431.6H286.9M286.9,431.6V405.3H308.5M308.5,405.3V381.7H330.2M330.2,381.7V370.4H351.9M330.2,381.7V393.1H351.9M351.9,393.1V383.4H373.6M351.9,393.1V402.8H373.6M373.6,402.8V396.3H395.3M373.6,402.8V409.3H395.3M308.5,405.3V428.8H330.2M330.2,428.8V422.3H351.9M330.2,428.8V435.3H351.9M286.9,431.6V458H308.5M308.5,458V448.3H330.2M308.5,458V467.7H330.2M330.2,467.7V461.2H351.9M330.2,467.7V474.2H351.9M26.7,573.2V587.8H48.4M48.4,587.8V578H70M48.4,587.8V597.5H70M70,597.5V591H91.7M70,597.5V604H91.7" stroke="#fc8d59"></path><path d="M91.7,177.1V33H113.4M26.7,295.9V539.1H48.4M26.7,573.2V558.6H48.4M48.4,558.6V552.1H70M48.4,558.6V565.1H70" stroke="#91bfdb"></path><text x="7" y="437.6" class="node" fill="#4A6FE3">1</text><text x="28.7" y="298.9" class="node" fill="#4A6FE3">1</text><text x="50.4" y="55.8" class="node" fill="#6D84E1">0.91</text><text x="72" y="101.6" class="node" fill="#6D84E1">0.91</text><text x="93.7" y="180.1" class="node" fill="#E6ABB6">0.32</text><text x="115.4" y="324.3" class="node" fill="#6D84E1">0.91</text><text x="137.1" y="126" class="node" fill="#CFD2E3">0.58</text><text x="158.8" y="55.4" class="node" fill="#CFD2E3">0.58</text><text x="158.8" y="196.6" class="node" fill="#4A6FE3">1</text><text x="180.5" y="318.3" class="node" fill="#E5CDD1">0.43</text><text x="202.1" y="140" class="node" fill="#E5CDD1">0.43</text><text x="223.8" y="192" class="node" fill="#E5CDD1">0.43</text><text x="245.5" y="283.2" class="node" fill="#E5CDD1">0.43</text><text x="267.2" y="172.2" class="node" fill="#E5CDD1">0.43</text><text x="288.9" y="125.2" class="node" fill="#E5CDD1">0.43</text><text x="310.5" y="136.5" class="node" fill="#667FE1">0.93</text><text x="332.2" y="146.3" class="node" fill="#4A6FE3">1</text><text x="288.9" y="219.2" class="node" fill="#E4D9DB">0.47</text><text x="310.5" y="172.2" class="node" fill="#C4C9E3">0.61</text><text x="310.5" y="266.3" class="node" fill="#4A6FE3">1</text><text x="332.2" y="214.3" class="node" fill="#8998E1">0.82</text><text x="353.9" y="198.2" class="node" fill="#4A6FE3">1</text><text x="353.9" y="230.4" class="node" fill="#929FE1">0.79</text><text x="375.6" y="243.2" class="node" fill="#929FE1">0.79</text><text x="397.3" y="255.8" class="node" fill="#768BE1">0.88</text><text x="419" y="267.9" class="node" fill="#768BE1">0.88</text><text x="440.6" y="279.3" class="node" fill="#4A6FE3">1</text><text x="462.3" y="289" class="node" fill="#6982E1">0.92</text><text x="332.2" y="318.2" class="node" fill="#9AA6E2">0.76</text><text x="353.9" y="328" class="node" fill="#8394E1">0.84</text><text x="267.2" y="394.3" class="node" fill="#E5D0D3">0.44</text><text x="288.9" y="353.9" class="node" fill="#4A6FE3">1</text><text x="288.9" y="434.6" class="node" fill="#4A6FE3">1</text><text x="310.5" y="408.3" class="node" fill="#E5CDD1">0.43</text><text x="332.2" y="384.7" class="node" fill="#97A4E2">0.77</text><text x="353.9" y="396.1" class="node" fill="#E392A2">0.24</text><text x="375.6" y="405.8" class="node" fill="#4A6FE3">1</text><text x="332.2" y="431.8" class="node" fill="#E5CDD1">0.43</text><text x="310.5" y="461" class="node" fill="#E5D0D3">0.44</text><text x="332.2" y="470.7" class="node" fill="#E5CDD1">0.43</text><text x="202.1" y="496.7" class="node" fill="#4A6FE3">1</text><text x="137.1" y="522.6" class="node" fill="#E498A7">0.26</text><text x="28.7" y="576.2" class="node" fill="#4A6FE3">1</text><text x="50.4" y="561.6" class="node" fill="#4A6FE3">1</text><text x="50.4" y="590.8" class="node" fill="#4A6FE3">1</text><text x="72" y="600.5" class="node" fill="#E28699">0.2</text></svg>
