<svg xmlns="http://www.w3.org/2000/svg" version="1.1" width="682" height="682" class="tree" data-char="142"><text x="678" y="15.6" text-anchor="end" class="stepsLabel">Character adds <tspan class="score">2</tspan> to tree score</text><text x="678" y="28.2" text-anchor="end" class="stepsLabel"><tspan class="score">0</tspan> additional regions</text><text x="678" y="40.8" text-anchor="end" class="stepsLabel">CI = 0.5; Fitch CI = 0.5; Fitch RI = 0.67</text><text x="678" y="66" text-anchor="end" class="stepsLabel"><tspan dy="16" fill="#34caaf">An optimal tree under:</tspan><tspan x="680" style="font-style:italic" class="thisAn" dy="1.2em">Equal weights</tspan><tspan x="680" style="font-style:italic" class="notThisAn" dy="1.2em">Implied weights, k = 2</tspan><tspan x="680" style="font-style:italic" class="notThisAn" dy="1.2em">IW, k = 3</tspan><tspan x="680" style="font-style:italic" class="notThisAn" dy="1.2em">IW, k = 4.5</tspan><tspan x="680" style="font-style:italic" class="notThisAn" dy="1.2em">IW, k = 7</tspan><tspan x="680" style="font-style:italic" class="notThisAn" dy="1.2em">IW, k = 10.5</tspan><tspan x="680" style="font-style:italic" class="notThisAn" dy="1.2em">IW, k = 16</tspan><tspan x="680" style="font-style:italic" class="notThisAn" dy="1.2em">IW, k = 24</tspan></text><text x="70" y="664.2" fill="#e2e2a2" class="flag">[1]</text><text x="92" y="664.2" fill="#000" class="taxonLabel">Sipunculus</text><text x="70" y="677" fill="#e2e2a2" class="flag">[1]</text><text x="92" y="677" fill="#000" class="taxonLabel">Serpula</text><text x="91.7" y="638.5" fill="#e2e2a2" class="flag">[1]</text><text x="113.7" y="638.5" fill="#000" class="taxonLabel">Tonicella</text><text x="91.7" y="651.3" fill="#e2e2a2" class="flag">[1]</text><text x="113.7" y="651.3" fill="#000" class="taxonLabel">Dentalium</text><text x="70" y="625.7" fill="grey" class="flag">[?]</text><text x="92" y="625.7" fill="#999" class="taxonLabel">Wiwaxia corrugata</text><text x="460.3" y="587.2" fill="grey" class="flag">[?]</text><text x="482.3" y="587.2" fill="#999" class="taxonLabel">Siphonobolus priscus</text><text x="460.3" y="600" fill="grey" class="flag">[?]</text><text x="482.3" y="600" fill="#999" class="taxonLabel">Acanthotretella spinosa</text><text x="460.3" y="561.6" fill="grey" class="flag">[?]</text><text x="482.3" y="561.6" fill="#999" class="taxonLabel">Lingulosacculus</text><text x="460.3" y="574.4" fill="grey" class="flag">[?]</text><text x="482.3" y="574.4" fill="#999" class="taxonLabel">Clupeafumosus socialis</text><text x="417" y="548.7" fill="grey" class="flag">[?]</text><text x="439" y="548.7" fill="#999" class="taxonLabel">Lingulellotreta malongensis</text><text x="417" y="523.1" fill="#e2e2a2" class="flag">[1]</text><text x="439" y="523.1" fill="#000" class="taxonLabel">Pelagodiscus atlanticus</text><text x="417" y="535.9" fill="grey" class="flag">[?]</text><text x="439" y="535.9" fill="#999" class="taxonLabel">Mummpikia nuda</text><text x="373.6" y="510.2" fill="grey" class="flag">[?]</text><text x="395.6" y="510.2" fill="#999" class="taxonLabel">Botsfordia</text><text x="351.9" y="497.4" fill="grey" class="flag">[?]</text><text x="373.9" y="497.4" fill="#999" class="taxonLabel">Eoobolus</text><text x="330.2" y="484.6" fill="#e2e2a2" class="flag">[1]</text><text x="352.2" y="484.6" fill="#000" class="taxonLabel">Lingula</text><text x="417" y="458.9" fill="#e2e2a2" class="flag">[1]</text><text x="439" y="458.9" fill="#000" class="taxonLabel">Novocrania</text><text x="417" y="471.8" fill="grey" class="flag">[?]</text><text x="439" y="471.8" fill="#999" class="taxonLabel">Craniops</text><text x="395.3" y="446.1" fill="grey" class="flag">[?]</text><text x="417.3" y="446.1" fill="#999" class="taxonLabel">Ussunia</text><text x="373.6" y="433.3" fill="grey" class="flag">[?]</text><text x="395.6" y="433.3" fill="#999" class="taxonLabel">Heliomedusa orienta</text><text x="351.9" y="420.5" fill="grey" class="flag">[?]</text><text x="373.9" y="420.5" fill="#999" class="taxonLabel">Mickwitzia muralensis</text><text x="351.9" y="394.8" fill="grey" class="flag">[?]</text><text x="373.9" y="394.8" fill="#999" class="taxonLabel">Gasconsia</text><text x="351.9" y="407.6" fill="grey" class="flag">[?]</text><text x="373.9" y="407.6" fill="#999" class="taxonLabel">Micromitra</text><text x="373.6" y="369.2" fill="grey" class="flag">[?]</text><text x="395.6" y="369.2" fill="#999" class="taxonLabel">Tomteluva perturbata</text><text x="373.6" y="382" fill="grey" class="flag">[?]</text><text x="395.6" y="382" fill="#999" class="taxonLabel">Yuganotheca elegans</text><text x="482" y="343.5" fill="grey" class="flag">[?]</text><text x="504" y="343.5" fill="#999" class="taxonLabel">Alisina</text><text x="482" y="356.3" fill="#e2e2a2" class="flag">[1]</text><text x="504" y="356.3" fill="#000" class="taxonLabel">Terebratulina</text><text x="460.3" y="330.7" fill="grey" class="flag">[?]</text><text x="482.3" y="330.7" fill="#999" class="taxonLabel">Orthis</text><text x="438.6" y="317.8" fill="grey" class="flag">[?]</text><text x="460.6" y="317.8" fill="#999" class="taxonLabel">Glyptoria</text><text x="438.6" y="292.2" fill="grey" class="flag">[?]</text><text x="460.6" y="292.2" fill="#999" class="taxonLabel">Nisusia sulcata</text><text x="438.6" y="305" fill="grey" class="flag">[?]</text><text x="460.6" y="305" fill="#999" class="taxonLabel">Kutorgina chengjiangensis</text><text x="417" y="266.5" fill="grey" class="flag">[?]</text><text x="439" y="266.5" fill="#999" class="taxonLabel">Antigonambonites planus</text><text x="417" y="279.4" fill="grey" class="flag">[?]</text><text x="439" y="279.4" fill="#999" class="taxonLabel">Coolinia pecten</text><text x="373.6" y="253.7" fill="grey" class="flag">[?]</text><text x="395.6" y="253.7" fill="#999" class="taxonLabel">Longtancunella chengjiangensis</text><text x="330.2" y="240.9" fill="grey" class="flag">[?]</text><text x="352.2" y="240.9" fill="#999" class="taxonLabel">Salanygolina</text><text x="308.5" y="228.1" fill="grey" class="flag">[?]</text><text x="330.5" y="228.1" fill="#999" class="taxonLabel">Askepasma toddense</text><text x="265.2" y="215.2" fill="grey" class="flag">[?]</text><text x="287.2" y="215.2" fill="#999" class="taxonLabel">Micrina</text><text x="373.6" y="189.6" fill="grey" class="flag">[?]</text><text x="395.6" y="189.6" fill="#999" class="taxonLabel">Pauxillites</text><text x="373.6" y="202.4" fill="grey" class="flag">[?]</text><text x="395.6" y="202.4" fill="#999" class="taxonLabel">Maxilites</text><text x="351.9" y="176.8" fill="grey" class="flag">[?]</text><text x="373.9" y="176.8" fill="#999" class="taxonLabel">Haplophrentis carinatus</text><text x="330.2" y="163.9" fill="grey" class="flag">[?]</text><text x="352.2" y="163.9" fill="#999" class="taxonLabel">Paramicrocornus</text><text x="308.5" y="151.1" fill="grey" class="flag">[?]</text><text x="330.5" y="151.1" fill="#999" class="taxonLabel">Bactrotheca</text><text x="286.9" y="138.3" fill="grey" class="flag">[?]</text><text x="308.9" y="138.3" fill="#999" class="taxonLabel">Conotheca</text><text x="265.2" y="125.4" fill="grey" class="flag">[?]</text><text x="287.2" y="125.4" fill="#999" class="taxonLabel">Pedunculotheca diania</text><text x="221.8" y="112.6" fill="grey" class="flag">[?]</text><text x="243.8" y="112.6" fill="#999" class="taxonLabel">Paterimitra</text><text x="200.1" y="99.8" fill="grey" class="flag">[?]</text><text x="222.1" y="99.8" fill="#999" class="taxonLabel">Halkieria evangelista</text><text x="178.5" y="87" fill="grey" class="flag">[?]</text><text x="200.5" y="87" fill="#999" class="taxonLabel">Cotyledion tylodes</text><text x="156.8" y="74.1" fill="grey" class="flag">[?]</text><text x="178.8" y="74.1" fill="#999" class="taxonLabel">Eccentrotheca</text><text x="135.1" y="61.3" fill="grey" class="flag">[?]</text><text x="157.1" y="61.3" fill="#999" class="taxonLabel">Dailyatia</text><text x="113.4" y="48.5" fill="#91bfdb" class="flag">[2]</text><text x="135.4" y="48.5" fill="#000" class="taxonLabel">Phoronis</text><text x="91.7" y="35.7" fill="grey" class="flag">[?]</text><text x="113.7" y="35.7" fill="#999" class="taxonLabel">Namacalathus</text><text x="91.7" y="10" fill="#91bfdb" class="flag">[2]</text><text x="113.7" y="10" fill="#000" class="taxonLabel">Flustra</text><text x="91.7" y="22.8" fill="#91bfdb" class="flag">[2]</text><text x="113.7" y="22.8" fill="#000" class="taxonLabel">Amathia</text><text x="48.4" y="612.9" fill="#91bfdb" class="flag">[2]</text><text x="70.4" y="612.9" fill="#000" class="taxonLabel">Loxosomella</text><path d="M5,484.9V319.8H26.7M26.7,319.8V29.7H48.4M48.4,29.7V13.4H70M70,13.4V7H91.7M70,13.4V19.8H91.7M48.4,29.7V46.1H70M70,46.1V32.7H91.7M70,46.1V59.5H91.7M91.7,59.5V45.5H113.4M91.7,59.5V73.4H113.4M26.7,319.8V609.9H48.4" stroke="#91bfdb"></path><path d="M113.4,73.4V58.3H135.1M113.4,73.4V88.6H135.1M135.1,88.6V71.1H156.8M135.1,88.6V106H156.8M156.8,106V84H178.5M156.8,106V128H178.5M178.5,128V96.8H200.1M178.5,128V159.3H200.1M200.1,159.3V109.6H221.8M200.1,159.3V209H221.8M221.8,209V135.1H243.5M243.5,135.1V122.4H265.2M243.5,135.1V147.7H265.2M265.2,147.7V135.3H286.9M265.2,147.7V160.1H286.9M286.9,160.1V148.1H308.5M286.9,160.1V172.1H308.5M308.5,172.1V160.9H330.2M308.5,172.1V183.4H330.2M330.2,183.4V173.8H351.9M330.2,183.4V193H351.9M351.9,193V186.6H373.6M351.9,193V199.4H373.6M221.8,209V282.9H243.5M243.5,282.9V212.2H265.2" stroke="darkgrey"></path><path d="M243.5,282.9V353.6H265.2M265.2,353.6V252.4H286.9M286.9,252.4V225.1H308.5M286.9,252.4V279.7H308.5M308.5,279.7V237.9H330.2M308.5,279.7V321.6H330.2M330.2,321.6V270.6H351.9M351.9,270.6V250.7H373.6M351.9,270.6V290.4H373.6M373.6,290.4V270H395.3M395.3,270V263.5H417M395.3,270V276.4H417M373.6,290.4V310.8H395.3M395.3,310.8V295.6H417M417,295.6V289.2H438.6M417,295.6V302H438.6M395.3,310.8V326.1H417M417,326.1V314.8H438.6M417,326.1V337.3H438.6M438.6,337.3V327.7H460.3M438.6,337.3V346.9H460.3M460.3,346.9V340.5H482M460.3,346.9V353.3H482M330.2,321.6V372.6H351.9M351.9,372.6V366.2H373.6M351.9,372.6V379H373.6M265.2,353.6V454.8H286.9M286.9,454.8V413.9H308.5M308.5,413.9V398.2H330.2M330.2,398.2V391.8H351.9M330.2,398.2V404.6H351.9M308.5,413.9V429.5H330.2M330.2,429.5V417.5H351.9M330.2,429.5V441.5H351.9M351.9,441.5V430.3H373.6M351.9,441.5V452.7H373.6M373.6,452.7V443.1H395.3M373.6,452.7V462.4H395.3M395.3,462.4V455.9H417M395.3,462.4V468.8H417M286.9,454.8V495.8H308.5M308.5,495.8V481.6H330.2M308.5,495.8V510.1H330.2M330.2,510.1V494.4H351.9M330.2,510.1V525.7H351.9M351.9,525.7V507.2H373.6M351.9,525.7V544.1H373.6M373.6,544.1V526.5H395.3M395.3,526.5V520.1H417M395.3,526.5V532.9H417M373.6,544.1V561.8H395.3M395.3,561.8V545.7H417M395.3,561.8V577.8H417M417,577.8V565H438.6M438.6,565V558.6H460.3M438.6,565V571.4H460.3M417,577.8V590.6H438.6M438.6,590.6V584.2H460.3M438.6,590.6V597H460.3M5,484.9V649.9H26.7M26.7,649.9V632.3H48.4M48.4,632.3V622.7H70M48.4,632.3V641.9H70M70,641.9V635.5H91.7M70,641.9V648.3H91.7M26.7,649.9V667.6H48.4M48.4,667.6V661.2H70M48.4,667.6V674H70" stroke="#e2e2a2"></path><text x="7" y="487.9" class="node" fill="#4A6FE3">1</text><text x="28.7" y="322.8" class="node" fill="#4A6FE3">1</text><text x="50.4" y="32.7" class="node" fill="#4A6FE3">1</text><text x="72" y="16.4" class="node" fill="#4A6FE3">1</text><text x="72" y="49.1" class="node" fill="#4A6FE3">1</text><text x="93.7" y="62.5" class="node" fill="#E6ABB6">0.32</text><text x="115.4" y="76.4" class="node" fill="#4A6FE3">1</text><text x="137.1" y="91.6" class="node" fill="#E49CAA">0.27</text><text x="158.8" y="109" class="node" fill="#DB617F">0.09</text><text x="180.5" y="131" class="node" fill="#4A6FE3">1</text><text x="202.1" y="162.3" class="node" fill="#4A6FE3">1</text><text x="223.8" y="212" class="node" fill="#4A6FE3">1</text><text x="245.5" y="138.1" class="node" fill="#4A6FE3">1</text><text x="267.2" y="150.7" class="node" fill="#4A6FE3">1</text><text x="288.9" y="163.1" class="node" fill="#E5A5B1">0.3</text><text x="310.5" y="175.1" class="node" fill="#4A6FE3">1</text><text x="332.2" y="186.4" class="node" fill="#4A6FE3">1</text><text x="353.9" y="196" class="node" fill="#4A6FE3">1</text><text x="245.5" y="285.9" class="node" fill="#4A6FE3">1</text><text x="267.2" y="356.6" class="node" fill="#AEB6E2">0.69</text><text x="288.9" y="255.4" class="node" fill="#4A6FE3">1</text><text x="310.5" y="282.7" class="node" fill="#4A6FE3">1</text><text x="332.2" y="324.6" class="node" fill="#8091E1">0.85</text><text x="353.9" y="273.6" class="node" fill="#E5CDD1">0.43</text><text x="375.6" y="293.4" class="node" fill="#8F9DE1">0.8</text><text x="397.3" y="273" class="node" fill="#4A6FE3">1</text><text x="397.3" y="313.8" class="node" fill="#A6AFE2">0.72</text><text x="419" y="298.6" class="node" fill="#BCC2E3">0.64</text><text x="419" y="329.1" class="node" fill="#7388E1">0.89</text><text x="440.6" y="340.3" class="node" fill="#7388E1">0.89</text><text x="462.3" y="349.9" class="node" fill="#E3DFE0">0.49</text><text x="353.9" y="375.6" class="node" fill="#A3ADE2">0.73</text><text x="288.9" y="457.8" class="node" fill="#4A6FE3">1</text><text x="310.5" y="416.9" class="node" fill="#4A6FE3">1</text><text x="332.2" y="401.2" class="node" fill="#4A6FE3">1</text><text x="332.2" y="432.5" class="node" fill="#4A6FE3">1</text><text x="353.9" y="444.5" class="node" fill="#4A6FE3">1</text><text x="375.6" y="455.7" class="node" fill="#4A6FE3">1</text><text x="397.3" y="465.4" class="node" fill="#4A6FE3">1</text><text x="310.5" y="498.8" class="node" fill="#4A6FE3">1</text><text x="332.2" y="513.1" class="node" fill="#7D8FE1">0.86</text><text x="353.9" y="528.7" class="node" fill="#7D8FE1">0.86</text><text x="375.6" y="547.1" class="node" fill="#7D8FE1">0.86</text><text x="397.3" y="529.5" class="node" fill="#5B78E2">0.96</text><text x="397.3" y="564.8" class="node" fill="#6982E1">0.92</text><text x="419" y="580.8" class="node" fill="#4F72E2">0.99</text><text x="440.6" y="568" class="node" fill="#E6C1C7">0.39</text><text x="440.6" y="593.6" class="node" fill="#4F72E2">0.99</text><text x="28.7" y="652.9" class="node" fill="#4A6FE3">1</text><text x="50.4" y="635.3" class="node" fill="#4A6FE3">1</text><text x="72" y="644.9" class="node" fill="#4A6FE3">1</text><text x="50.4" y="670.6" class="node" fill="#4A6FE3">1</text></svg>
