<svg xmlns="http://www.w3.org/2000/svg" version="1.1" width="682" height="682" class="tree" data-char="63"><text x="678" y="15.6" text-anchor="end" class="stepsLabel">Character adds <tspan class="score">2</tspan> to tree score</text><text x="678" y="28.2" text-anchor="end" class="stepsLabel"><tspan class="score">0</tspan> additional regions</text><text x="678" y="40.8" text-anchor="end" class="stepsLabel">CI = 0.5; Fitch CI = 0.5; Fitch RI = 0.86</text><text x="678" y="66" text-anchor="end" class="stepsLabel"><tspan dy="16" fill="#34caaf">An optimal tree under:</tspan><tspan x="680" style="font-style:italic" class="thisAn" dy="1.2em">Equal weights</tspan><tspan x="680" style="font-style:italic" class="notThisAn" dy="1.2em">Implied weights, k = 2</tspan><tspan x="680" style="font-style:italic" class="notThisAn" dy="1.2em">IW, k = 3</tspan><tspan x="680" style="font-style:italic" class="notThisAn" dy="1.2em">IW, k = 4.5</tspan><tspan x="680" style="font-style:italic" class="notThisAn" dy="1.2em">IW, k = 7</tspan><tspan x="680" style="font-style:italic" class="notThisAn" dy="1.2em">IW, k = 10.5</tspan><tspan x="680" style="font-style:italic" class="notThisAn" dy="1.2em">IW, k = 16</tspan><tspan x="680" style="font-style:italic" class="notThisAn" dy="1.2em">IW, k = 24</tspan></text><text x="73.1" y="664.2" fill="#fc8d59" class="flag">[0]</text><text x="95.1" y="664.2" fill="#000" class="taxonLabel">Serpula</text><text x="73.1" y="677" fill="#fc8d59" class="flag">[0]</text><text x="95.1" y="677" fill="#000" class="taxonLabel">Sipunculus</text><text x="95.9" y="638.5" fill="#91bfdb" class="flag">[1]</text><text x="117.9" y="638.5" fill="#000" class="taxonLabel">Tonicella</text><text x="95.9" y="651.3" fill="#91bfdb" class="flag">[1]</text><text x="117.9" y="651.3" fill="#000" class="taxonLabel">Dentalium</text><text x="73.1" y="625.7" fill="#fc8d59" class="flag">[0]</text><text x="95.1" y="625.7" fill="#000" class="taxonLabel">Wiwaxia corrugata</text><text x="368.4" y="587.2" fill="#91bfdb" class="flag">[1]</text><text x="390.4" y="587.2" fill="#000" class="taxonLabel">Maxilites</text><text x="368.4" y="600" fill="#91bfdb" class="flag">[1]</text><text x="390.4" y="600" fill="#000" class="taxonLabel">Pauxillites</text><text x="345.7" y="574.4" fill="#91bfdb" class="flag">[1]</text><text x="367.7" y="574.4" fill="#000" class="taxonLabel">Haplophrentis carinatus</text><text x="323" y="561.6" fill="#91bfdb" class="flag">[1]</text><text x="345" y="561.6" fill="#000" class="taxonLabel">Paramicrocornus</text><text x="323" y="535.9" fill="#91bfdb" class="flag">[1]</text><text x="345" y="535.9" fill="#000" class="taxonLabel">Bactrotheca</text><text x="323" y="548.7" fill="#91bfdb" class="flag">[1]</text><text x="345" y="548.7" fill="#000" class="taxonLabel">Conotheca</text><text x="277.6" y="523.1" fill="#91bfdb" class="flag">[1]</text><text x="299.6" y="523.1" fill="#000" class="taxonLabel">Pedunculotheca diania</text><text x="436.6" y="497.4" fill="#91bfdb" class="flag">[1]</text><text x="458.6" y="497.4" fill="#000" class="taxonLabel">Pelagodiscus atlanticus</text><text x="436.6" y="510.2" fill="#91bfdb" class="flag">[1]</text><text x="458.6" y="510.2" fill="#000" class="taxonLabel">Mummpikia nuda</text><text x="482" y="471.8" fill="#91bfdb" class="flag">[1]</text><text x="504" y="471.8" fill="#000" class="taxonLabel">Acanthotretella spinosa</text><text x="482" y="484.6" fill="#91bfdb" class="flag">[1]</text><text x="504" y="484.6" fill="#000" class="taxonLabel">Siphonobolus priscus</text><text x="482" y="446.1" fill="#91bfdb" class="flag">[1]</text><text x="504" y="446.1" fill="#000" class="taxonLabel">Lingulosacculus</text><text x="482" y="458.9" fill="#91bfdb" class="flag">[1]</text><text x="504" y="458.9" fill="#000" class="taxonLabel">Clupeafumosus socialis</text><text x="436.6" y="433.3" fill="#91bfdb" class="flag">[1]</text><text x="458.6" y="433.3" fill="#000" class="taxonLabel">Lingulellotreta malongensis</text><text x="391.1" y="420.5" fill="#91bfdb" class="flag">[1]</text><text x="413.1" y="420.5" fill="#000" class="taxonLabel">Botsfordia</text><text x="368.4" y="407.6" fill="#91bfdb" class="flag">[1]</text><text x="390.4" y="407.6" fill="#000" class="taxonLabel">Eoobolus</text><text x="345.7" y="394.8" fill="#91bfdb" class="flag">[1]</text><text x="367.7" y="394.8" fill="#000" class="taxonLabel">Lingula</text><text x="368.4" y="369.2" fill="#91bfdb" class="flag">[1]</text><text x="390.4" y="369.2" fill="#000" class="taxonLabel">Micromitra</text><text x="368.4" y="382" fill="#91bfdb" class="flag">[1]</text><text x="390.4" y="382" fill="#000" class="taxonLabel">Gasconsia</text><text x="436.6" y="343.5" fill="#91bfdb" class="flag">[1]</text><text x="458.6" y="343.5" fill="#000" class="taxonLabel">Novocrania</text><text x="436.6" y="356.3" fill="#91bfdb" class="flag">[1]</text><text x="458.6" y="356.3" fill="#000" class="taxonLabel">Craniops</text><text x="413.9" y="330.7" fill="#91bfdb" class="flag">[1]</text><text x="435.9" y="330.7" fill="#000" class="taxonLabel">Ussunia</text><text x="391.1" y="317.8" fill="#91bfdb" class="flag">[1]</text><text x="413.1" y="317.8" fill="#000" class="taxonLabel">Heliomedusa orienta</text><text x="368.4" y="305" fill="#91bfdb" class="flag">[1]</text><text x="390.4" y="305" fill="#000" class="taxonLabel">Mickwitzia muralensis</text><text x="482" y="279.4" fill="#91bfdb" class="flag">[1]</text><text x="504" y="279.4" fill="#000" class="taxonLabel">Alisina</text><text x="482" y="292.2" fill="#91bfdb" class="flag">[1]</text><text x="504" y="292.2" fill="#000" class="taxonLabel">Terebratulina</text><text x="459.3" y="266.5" fill="#91bfdb" class="flag">[1]</text><text x="481.3" y="266.5" fill="#000" class="taxonLabel">Orthis</text><text x="436.6" y="253.7" fill="#91bfdb" class="flag">[1]</text><text x="458.6" y="253.7" fill="#000" class="taxonLabel">Glyptoria</text><text x="436.6" y="228.1" fill="#91bfdb" class="flag">[1]</text><text x="458.6" y="228.1" fill="#000" class="taxonLabel">Nisusia sulcata</text><text x="436.6" y="240.9" fill="#91bfdb" class="flag">[1]</text><text x="458.6" y="240.9" fill="#000" class="taxonLabel">Kutorgina chengjiangensis</text><text x="413.9" y="202.4" fill="#91bfdb" class="flag">[1]</text><text x="435.9" y="202.4" fill="#000" class="taxonLabel">Antigonambonites planus</text><text x="413.9" y="215.2" fill="#91bfdb" class="flag">[1]</text><text x="435.9" y="215.2" fill="#000" class="taxonLabel">Coolinia pecten</text><text x="413.9" y="176.8" fill="#91bfdb" class="flag">[1]</text><text x="435.9" y="176.8" fill="#000" class="taxonLabel">Tomteluva perturbata</text><text x="413.9" y="189.6" fill="#91bfdb" class="flag">[1]</text><text x="435.9" y="189.6" fill="#000" class="taxonLabel">Yuganotheca elegans</text><text x="391.1" y="163.9" fill="#91bfdb" class="flag">[1]</text><text x="413.1" y="163.9" fill="#000" class="taxonLabel">Longtancunella chengjiangensis</text><text x="345.7" y="151.1" fill="#91bfdb" class="flag">[1]</text><text x="367.7" y="151.1" fill="#000" class="taxonLabel">Salanygolina</text><text x="323" y="138.3" fill="#91bfdb" class="flag">[1]</text><text x="345" y="138.3" fill="#000" class="taxonLabel">Askepasma toddense</text><text x="277.6" y="125.4" fill="#91bfdb" class="flag">[1]</text><text x="299.6" y="125.4" fill="#000" class="taxonLabel">Micrina</text><text x="232.1" y="112.6" fill="#91bfdb" class="flag">[1]</text><text x="254.1" y="112.6" fill="#000" class="taxonLabel">Paterimitra</text><text x="209.4" y="99.8" fill="#91bfdb" class="flag">[1]</text><text x="231.4" y="99.8" fill="#000" class="taxonLabel">Halkieria evangelista</text><text x="186.7" y="87" fill="#91bfdb" class="flag">[1]</text><text x="208.7" y="87" fill="#000" class="taxonLabel">Cotyledion tylodes</text><text x="164" y="74.1" fill="#91bfdb" class="flag">[1]</text><text x="186" y="74.1" fill="#000" class="taxonLabel">Eccentrotheca</text><text x="141.3" y="61.3" fill="#91bfdb" class="flag">[1]</text><text x="163.3" y="61.3" fill="#000" class="taxonLabel">Dailyatia</text><text x="118.6" y="48.5" fill="#fc8d59" class="flag">[0]</text><text x="140.6" y="48.5" fill="#000" class="taxonLabel">Namacalathus</text><text x="95.9" y="35.7" fill="#fc8d59" class="flag">[0]</text><text x="117.9" y="35.7" fill="#000" class="taxonLabel">Phoronis</text><text x="95.9" y="10" fill="#fc8d59" class="flag">[0]</text><text x="117.9" y="10" fill="#000" class="taxonLabel">Flustra</text><text x="95.9" y="22.8" fill="#fc8d59" class="flag">[0]</text><text x="117.9" y="22.8" fill="#000" class="taxonLabel">Amathia</text><text x="50.4" y="612.9" fill="#fc8d59" class="flag">[0]</text><text x="72.4" y="612.9" fill="#000" class="taxonLabel">Loxosomella</text><path d="M5,485V320.1H27.7M27.7,320.1V30.3H50.4M50.4,30.3V13.4H73.1M73.1,13.4V7H95.9M73.1,13.4V19.8H95.9M50.4,30.3V47.3H73.1M73.1,47.3V32.7H95.9M73.1,47.3V61.9H95.9M95.9,61.9V45.5H118.6M27.7,320.1V609.9H50.4M5,485V649.9H27.7M27.7,649.9V632.3H50.4M50.4,632.3V622.7H73.1M27.7,649.9V667.6H50.4M50.4,667.6V661.2H73.1M50.4,667.6V674H73.1" stroke="#fc8d59"></path><path d="M95.9,61.9V78.3H118.6M118.6,78.3V58.3H141.3M118.6,78.3V98.4H141.3M141.3,98.4V71.1H164M141.3,98.4V125.6H164M164,125.6V84H186.7M164,125.6V167.2H186.7M186.7,167.2V96.8H209.4M186.7,167.2V237.6H209.4M209.4,237.6V109.6H232.1M209.4,237.6V365.5H232.1M232.1,365.5V193.8H254.9M254.9,193.8V122.4H277.6M254.9,193.8V265.1H277.6M277.6,265.1V154.3H300.3M300.3,154.3V135.3H323M300.3,154.3V173.2H323M323,173.2V148.1H345.7M323,173.2V198.4H345.7M345.7,198.4V170.5H368.4M368.4,170.5V160.9H391.1M368.4,170.5V180.2H391.1M391.1,180.2V173.8H413.9M391.1,180.2V186.6H413.9M345.7,198.4V226.3H368.4M368.4,226.3V205.8H391.1M391.1,205.8V199.4H413.9M391.1,205.8V212.2H413.9M368.4,226.3V246.7H391.1M391.1,246.7V231.5H413.9M413.9,231.5V225.1H436.6M413.9,231.5V237.9H436.6M391.1,246.7V261.9H413.9M413.9,261.9V250.7H436.6M413.9,261.9V273.2H436.6M436.6,273.2V263.5H459.3M436.6,273.2V282.8H459.3M459.3,282.8V276.4H482M459.3,282.8V289.2H482M277.6,265.1V375.9H300.3M300.3,375.9V343.3H323M323,343.3V314H345.7M345.7,314V302H368.4M345.7,314V326.1H368.4M368.4,326.1V314.8H391.1M368.4,326.1V337.3H391.1M391.1,337.3V327.7H413.9M391.1,337.3V346.9H413.9M413.9,346.9V340.5H436.6M413.9,346.9V353.3H436.6M323,343.3V372.6H345.7M345.7,372.6V366.2H368.4M345.7,372.6V379H368.4M300.3,375.9V408.4H323M323,408.4V391.8H345.7M323,408.4V425.1H345.7M345.7,425.1V404.6H368.4M345.7,425.1V445.5H368.4M368.4,445.5V417.5H391.1M368.4,445.5V473.6H391.1M391.1,473.6V446.3H413.9M413.9,446.3V430.3H436.6M413.9,446.3V462.4H436.6M436.6,462.4V449.5H459.3M459.3,449.5V443.1H482M459.3,449.5V455.9H482M436.6,462.4V475.2H459.3M459.3,475.2V468.8H482M459.3,475.2V481.6H482M391.1,473.6V500.8H413.9M413.9,500.8V494.4H436.6M413.9,500.8V507.2H436.6M232.1,365.5V537.3H254.9M254.9,537.3V520.1H277.6M254.9,537.3V554.5H277.6M277.6,554.5V539.3H300.3M300.3,539.3V532.9H323M300.3,539.3V545.7H323M277.6,554.5V569.8H300.3M300.3,569.8V558.6H323M300.3,569.8V581H323M323,581V571.4H345.7M323,581V590.6H345.7M345.7,590.6V584.2H368.4M345.7,590.6V597H368.4M50.4,632.3V641.9H73.1M73.1,641.9V635.5H95.9M73.1,641.9V648.3H95.9" stroke="#91bfdb"></path><text x="7" y="488" class="node" fill="#4A6FE3">1</text><text x="29.7" y="323.1" class="node" fill="#4A6FE3">1</text><text x="52.4" y="33.3" class="node" fill="#4A6FE3">1</text><text x="75.1" y="16.4" class="node" fill="#4A6FE3">1</text><text x="75.1" y="50.3" class="node" fill="#4A6FE3">1</text><text x="97.9" y="64.9" class="node" fill="#E59FAC">0.29</text><text x="120.6" y="81.3" class="node" fill="#8998E1">0.82</text><text x="143.3" y="101.4" class="node" fill="#DC6884">0.11</text><text x="166" y="128.6" class="node" fill="#D64F73">0.04</text><text x="188.7" y="170.2" class="node" fill="#8998E1">0.82</text><text x="211.4" y="240.6" class="node" fill="#4F72E2">0.99</text><text x="234.1" y="368.5" class="node" fill="#4F72E2">0.99</text><text x="256.9" y="196.8" class="node" fill="#8998E1">0.82</text><text x="279.6" y="268.1" class="node" fill="#DADBE3">0.53</text><text x="302.3" y="157.3" class="node" fill="#E6C4C9">0.4</text><text x="325" y="176.2" class="node" fill="#9AA6E2">0.76</text><text x="347.7" y="201.4" class="node" fill="#E6B1BB">0.34</text><text x="370.4" y="173.5" class="node" fill="#DB6581">0.1</text><text x="393.1" y="183.2" class="node" fill="#B9BFE3">0.65</text><text x="370.4" y="229.3" class="node" fill="#E5C7CC">0.41</text><text x="393.1" y="208.8" class="node" fill="#4A6FE3">1</text><text x="393.1" y="249.7" class="node" fill="#E6BDC5">0.38</text><text x="415.9" y="234.5" class="node" fill="#E2E2E2">0.5</text><text x="415.9" y="264.9" class="node" fill="#E4D3D6">0.45</text><text x="438.6" y="276.2" class="node" fill="#5B78E2">0.96</text><text x="461.3" y="285.8" class="node" fill="#E6BAC2">0.37</text><text x="302.3" y="378.9" class="node" fill="#E5C7CC">0.41</text><text x="325" y="346.3" class="node" fill="#E5C7CC">0.41</text><text x="347.7" y="317" class="node" fill="#E5C7CC">0.41</text><text x="370.4" y="329.1" class="node" fill="#8696E1">0.83</text><text x="393.1" y="340.3" class="node" fill="#4A6FE3">1</text><text x="415.9" y="349.9" class="node" fill="#4A6FE3">1</text><text x="347.7" y="375.6" class="node" fill="#E6C4C9">0.4</text><text x="325" y="411.4" class="node" fill="#9DA8E2">0.75</text><text x="347.7" y="428.1" class="node" fill="#E6B4BD">0.35</text><text x="370.4" y="448.5" class="node" fill="#E6B4BD">0.35</text><text x="393.1" y="476.6" class="node" fill="#E6B4BD">0.35</text><text x="415.9" y="449.3" class="node" fill="#E6BAC2">0.37</text><text x="438.6" y="465.4" class="node" fill="#97A4E2">0.77</text><text x="461.3" y="452.5" class="node" fill="#E5A5B1">0.3</text><text x="461.3" y="478.2" class="node" fill="#4F72E2">0.99</text><text x="415.9" y="503.8" class="node" fill="#E3DFE0">0.49</text><text x="256.9" y="540.3" class="node" fill="#4F72E2">0.99</text><text x="279.6" y="557.5" class="node" fill="#8696E1">0.83</text><text x="302.3" y="542.3" class="node" fill="#E4D3D6">0.45</text><text x="302.3" y="572.8" class="node" fill="#4A6FE3">1</text><text x="325" y="584" class="node" fill="#4A6FE3">1</text><text x="347.7" y="593.6" class="node" fill="#4A6FE3">1</text><text x="29.7" y="652.9" class="node" fill="#4A6FE3">1</text><text x="52.4" y="635.3" class="node" fill="#4A6FE3">1</text><text x="75.1" y="644.9" class="node" fill="#4A6FE3">1</text><text x="52.4" y="670.6" class="node" fill="#4A6FE3">1</text></svg>
