<svg xmlns="http://www.w3.org/2000/svg" version="1.1" width="682" height="612" class="tree" data-char="108"><text x="678" y="15.7" text-anchor="end" class="stepsLabel">Character adds <tspan class="score">5</tspan> to tree score</text><text x="678" y="28.4" text-anchor="end" class="stepsLabel"><tspan class="score">0</tspan> additional regions</text><text x="678" y="41.1" text-anchor="end" class="stepsLabel">CI = 0.2; Fitch CI = 0.2; Fitch RI = 0.33</text><text x="678" y="66.5" text-anchor="end" class="stepsLabel"><tspan dy="16">An optimal tree under:</tspan><tspan x="680" style="font-style:italic" class="thisAn" dy="1.2em">Equal weights</tspan><tspan x="680" style="font-style:italic" class="notThisAn" dy="1.2em">Implied weights, k = 2</tspan><tspan x="680" style="font-style:italic" class="notThisAn" dy="1.2em">IW, k = 3</tspan><tspan x="680" style="font-style:italic" class="notThisAn" dy="1.2em">IW, k = 4.5</tspan><tspan x="680" style="font-style:italic" class="notThisAn" dy="1.2em">IW, k = 7</tspan><tspan x="680" style="font-style:italic" class="notThisAn" dy="1.2em">IW, k = 10.5</tspan><tspan x="680" style="font-style:italic" class="notThisAn" dy="1.2em">IW, k = 16</tspan><tspan x="680" style="font-style:italic" class="notThisAn" dy="1.2em">IW, k = 24</tspan></text><text x="67.2" y="594" fill="#fc8d59" class="flag">[0]</text><text x="89.2" y="594" fill="#000" class="taxonLabel">Sipunculus</text><text x="67.2" y="607" fill="#fc8d59" class="flag">[0]</text><text x="89.2" y="607" fill="#000" class="taxonLabel">Serpula</text><text x="88" y="568.1" fill="#fc8d59" class="flag">[0]</text><text x="110" y="568.1" fill="#000" class="taxonLabel">Dentalium</text><text x="88" y="581" fill="#fc8d59" class="flag">[0]</text><text x="110" y="581" fill="#000" class="taxonLabel">Tonicella</text><text x="67.2" y="555.1" fill="#fc8d59" class="flag">[0]</text><text x="89.2" y="555.1" fill="#000" class="taxonLabel">Wiwaxia corrugata</text><text x="253.9" y="516.2" fill="grey" class="flag">[?]</text><text x="275.9" y="516.2" fill="grey" class="taxonLabel">Pedunculotheca diania</text><text x="253.9" y="529.1" fill="#fc8d59" class="flag">[0]</text><text x="275.9" y="529.1" fill="#000" class="taxonLabel">Haplophrentis carinatus</text><text x="378.3" y="490.2" fill="grey" class="flag">[?]</text><text x="400.3" y="490.2" fill="grey" class="taxonLabel">Tomteluva perturbata</text><text x="378.3" y="503.2" fill="#91bfdb" class="flag">[1]</text><text x="400.3" y="503.2" fill="#000" class="taxonLabel">Yuganotheca elegans</text><text x="357.6" y="477.2" fill="#91bfdb" class="flag">[1]</text><text x="379.6" y="477.2" fill="#000" class="taxonLabel">Salanygolina</text><text x="482" y="451.3" fill="#fc8d59" class="flag">[0]</text><text x="504" y="451.3" fill="#000" class="taxonLabel">Terebratulina</text><text x="482" y="464.2" fill="#fc8d59" class="flag">[0]</text><text x="504" y="464.2" fill="#000" class="taxonLabel">Orthis</text><text x="461.3" y="438.3" fill="#fc8d59" class="flag">[0]</text><text x="483.3" y="438.3" fill="#000" class="taxonLabel">Alisina</text><text x="440.5" y="425.3" fill="#91bfdb" class="flag">[1]</text><text x="462.5" y="425.3" fill="#000" class="taxonLabel">Longtancunella chengjiangensis</text><text x="419.8" y="412.3" fill="#fc8d59" class="flag">[0]</text><text x="441.8" y="412.3" fill="#000" class="taxonLabel">Glyptoria</text><text x="399" y="399.3" fill="#fc8d59" class="flag">[0]</text><text x="421" y="399.3" fill="#000" class="taxonLabel">Nisusia sulcata</text><text x="378.3" y="386.4" fill="#fc8d59" class="flag">[0]</text><text x="400.3" y="386.4" fill="#000" class="taxonLabel">Kutorgina chengjiangensis</text><text x="378.3" y="360.4" fill="#91bfdb" class="flag">[1]</text><text x="400.3" y="360.4" fill="#000" class="taxonLabel">Antigonambonites planus</text><text x="378.3" y="373.4" fill="#91bfdb" class="flag">[1]</text><text x="400.3" y="373.4" fill="#000" class="taxonLabel">Coolinia pecten</text><text x="316.1" y="347.4" fill="#fc8d59" class="flag">[0]</text><text x="338.1" y="347.4" fill="#000" class="taxonLabel">Gasconsia</text><text x="316.1" y="321.5" fill="#fc8d59" class="flag">[0]</text><text x="338.1" y="321.5" fill="#000" class="taxonLabel">Micromitra</text><text x="316.1" y="334.5" fill="#fc8d59" class="flag">[0]</text><text x="338.1" y="334.5" fill="#000" class="taxonLabel">Askepasma toddense</text><text x="461.3" y="295.5" fill="#91bfdb" class="flag">[1]</text><text x="483.3" y="295.5" fill="#000" class="taxonLabel">Siphonobolus priscus</text><text x="461.3" y="308.5" fill="#fc8d59" class="flag">[0]</text><text x="483.3" y="308.5" fill="#000" class="taxonLabel">Acanthotretella spinosa</text><text x="440.5" y="282.5" fill="#fc8d59" class="flag">[0]</text><text x="462.5" y="282.5" fill="#000" class="taxonLabel">Clupeafumosus socialis</text><text x="419.8" y="269.6" fill="#fc8d59" class="flag">[0]</text><text x="441.8" y="269.6" fill="#000" class="taxonLabel">Lingulosacculus</text><text x="399" y="256.6" fill="#fc8d59" class="flag">[0]</text><text x="421" y="256.6" fill="#000" class="taxonLabel">Lingulellotreta malongensis</text><text x="378.3" y="243.6" fill="#fc8d59" class="flag">[0]</text><text x="400.3" y="243.6" fill="#000" class="taxonLabel">Botsfordia</text><text x="357.6" y="230.6" fill="#fc8d59" class="flag">[0]</text><text x="379.6" y="230.6" fill="#000" class="taxonLabel">Mummpikia nuda</text><text x="336.8" y="217.7" fill="#fc8d59" class="flag">[0]</text><text x="358.8" y="217.7" fill="#000" class="taxonLabel">Eoobolus</text><text x="316.1" y="204.7" fill="#fc8d59" class="flag">[0]</text><text x="338.1" y="204.7" fill="#000" class="taxonLabel">Lingula</text><text x="336.8" y="178.7" fill="#fc8d59" class="flag">[0]</text><text x="358.8" y="178.7" fill="#000" class="taxonLabel">Pelagodiscus atlanticus</text><text x="336.8" y="191.7" fill="#fc8d59" class="flag">[0]</text><text x="358.8" y="191.7" fill="#000" class="taxonLabel">Mickwitzia muralensis</text><text x="316.1" y="165.7" fill="#fc8d59" class="flag">[0]</text><text x="338.1" y="165.7" fill="#000" class="taxonLabel">Micrina</text><text x="253.9" y="152.8" fill="#fc8d59" class="flag">[0]</text><text x="275.9" y="152.8" fill="#000" class="taxonLabel">Paterimitra</text><text x="212.4" y="139.8" fill="grey" class="flag">[?]</text><text x="234.4" y="139.8" fill="grey" class="taxonLabel">Heliomedusa orienta</text><text x="233.1" y="113.8" fill="#91bfdb" class="flag">[1]</text><text x="255.1" y="113.8" fill="#000" class="taxonLabel">Craniops</text><text x="233.1" y="126.8" fill="#fc8d59" class="flag">[0]</text><text x="255.1" y="126.8" fill="#000" class="taxonLabel">Novocrania</text><text x="212.4" y="100.8" fill="#fc8d59" class="flag">[0]</text><text x="234.4" y="100.8" fill="#000" class="taxonLabel">Ussunia</text><text x="170.9" y="87.9" fill="#fc8d59" class="flag">[0]</text><text x="192.9" y="87.9" fill="#000" class="taxonLabel">Halkieria evangelista</text><text x="150.2" y="74.9" fill="#fc8d59" class="flag">[0]</text><text x="172.2" y="74.9" fill="#000" class="taxonLabel">Dailyatia</text><text x="129.4" y="61.9" fill="#fc8d59" class="flag">[0]</text><text x="151.4" y="61.9" fill="#000" class="taxonLabel">Cotyledion tylodes</text><text x="108.7" y="48.9" fill="#fc8d59" class="flag">[0]</text><text x="130.7" y="48.9" fill="#000" class="taxonLabel">Eccentrotheca</text><text x="108.7" y="23" fill="#fc8d59" class="flag">[0]</text><text x="130.7" y="23" fill="#000" class="taxonLabel">Phoronis</text><text x="108.7" y="36" fill="#fc8d59" class="flag">[0]</text><text x="130.7" y="36" fill="#000" class="taxonLabel">Namacalathus</text><text x="67.2" y="10" fill="#fc8d59" class="flag">[0]</text><text x="89.2" y="10" fill="#000" class="taxonLabel">Flustra</text><text x="46.5" y="542.1" fill="#fc8d59" class="flag">[0]</text><text x="68.5" y="542.1" fill="#000" class="taxonLabel">Loxosomella</text><path d="M5,431.1V282.5H25.7M25.7,282.5V25.9H46.5M46.5,25.9V7H67.2M46.5,25.9V44.8H67.2M67.2,44.8V26.5H88M88,26.5V20H108.7M88,26.5V33H108.7M67.2,44.8V63.2H88M88,63.2V45.9H108.7M88,63.2V80.5H108.7M108.7,80.5V58.9H129.4M108.7,80.5V102H129.4M129.4,102V71.9H150.2M129.4,102V132.2H150.2M150.2,132.2V84.9H170.9M150.2,132.2V179.5H170.9M170.9,179.5V107.6H191.7M191.7,107.6V97.8H212.4M191.7,107.6V117.3H212.4M212.4,117.3V123.8H233.1M170.9,179.5V251.4H191.7M191.7,251.4V136.8H212.4M191.7,251.4V366H212.4M212.4,366V212.4H233.1M233.1,212.4V149.8H253.9M233.1,212.4V275.1H253.9M253.9,275.1V193.5H274.6M274.6,193.5V172.5H295.3M295.3,172.5V162.7H316.1M295.3,172.5V182.2H316.1M316.1,182.2V175.7H336.8M316.1,182.2V188.7H336.8M274.6,193.5V214.6H295.3M295.3,214.6V201.7H316.1M295.3,214.6V227.5H316.1M316.1,227.5V214.7H336.8M316.1,227.5V240.4H336.8M336.8,240.4V227.6H357.6M336.8,240.4V253.2H357.6M357.6,253.2V240.6H378.3M357.6,253.2V265.8H378.3M378.3,265.8V253.6H399M378.3,265.8V277.9H399M399,277.9V266.6H419.8M399,277.9V289.3H419.8M419.8,289.3V279.5H440.5M419.8,289.3V299H440.5M440.5,299V305.5H461.3M253.9,275.1V356.6H274.6M274.6,356.6V325H295.3M295.3,325V318.5H316.1M295.3,325V331.5H316.1M274.6,356.6V388.2H295.3M295.3,388.2V344.4H316.1M295.3,388.2V432H316.1M336.8,380V396.1H357.6M357.6,396.1V383.4H378.3M357.6,396.1V408.9H378.3M378.3,408.9V396.3H399M378.3,408.9V421.5H399M399,421.5V409.3H419.8M399,421.5V433.7H419.8M419.8,433.7V445H440.5M440.5,445V435.3H461.3M440.5,445V454.8H461.3M461.3,454.8V448.3H482M461.3,454.8V461.2H482M212.4,366V519.6H233.1M233.1,519.6V513.2H253.9M233.1,519.6V526.1H253.9M25.7,282.5V539.1H46.5M5,431.1V579.7H25.7M25.7,579.7V561.8H46.5M46.5,561.8V552.1H67.2M46.5,561.8V571.6H67.2M67.2,571.6V565.1H88M67.2,571.6V578H88M25.7,579.7V597.5H46.5M46.5,597.5V591H67.2M46.5,597.5V604H67.2" stroke="#fc8d59"></path><path d="M212.4,117.3V110.8H233.1M440.5,299V292.5H461.3M336.8,380V363.9H357.6M357.6,363.9V357.4H378.3M357.6,363.9V370.4H378.3M419.8,433.7V422.3H440.5M316.1,432V484H336.8M336.8,484V474.2H357.6M336.8,484V493.7H357.6M357.6,493.7V487.2H378.3M357.6,493.7V500.2H378.3" stroke="#91bfdb"></path><path d="M316.1,432V380H336.8" stroke="darkgrey"></path><text x="7" y="434.1" class="node" fill="#4A6FE3">1</text><text x="27.7" y="285.5" class="node" fill="#4A6FE3">1</text><text x="48.5" y="28.9" class="node" fill="#6D84E1">0.91</text><text x="69.2" y="47.8" class="node" fill="#5B78E2">0.96</text><text x="90" y="29.5" class="node" fill="#7086E1">0.9</text><text x="90" y="66.2" class="node" fill="#6D84E1">0.91</text><text x="110.7" y="83.5" class="node" fill="#E5D0D3">0.44</text><text x="131.4" y="105" class="node" fill="#8C9BE1">0.81</text><text x="152.2" y="135.2" class="node" fill="#E59FAC">0.29</text><text x="172.9" y="182.5" class="node" fill="#4A6FE3">1</text><text x="193.7" y="110.6" class="node" fill="#9AA6E2">0.76</text><text x="214.4" y="120.3" class="node" fill="#4A6FE3">1</text><text x="193.7" y="254.4" class="node" fill="#97A4E2">0.77</text><text x="214.4" y="369" class="node" fill="#97A4E2">0.77</text><text x="235.1" y="215.4" class="node" fill="#E5D0D3">0.44</text><text x="255.9" y="278.1" class="node" fill="#97A4E2">0.77</text><text x="276.6" y="196.5" class="node" fill="#95A1E2">0.78</text><text x="297.3" y="175.5" class="node" fill="#95A1E2">0.78</text><text x="318.1" y="185.2" class="node" fill="#4A6FE3">1</text><text x="297.3" y="217.6" class="node" fill="#4A6FE3">1</text><text x="318.1" y="230.5" class="node" fill="#6D84E1">0.91</text><text x="338.8" y="243.4" class="node" fill="#95A1E2">0.78</text><text x="359.6" y="256.2" class="node" fill="#95A1E2">0.78</text><text x="380.3" y="268.8" class="node" fill="#95A1E2">0.78</text><text x="401" y="280.9" class="node" fill="#9DA8E2">0.75</text><text x="421.8" y="292.3" class="node" fill="#E0E0E2">0.51</text><text x="442.5" y="302" class="node" fill="#4A6FE3">1</text><text x="276.6" y="359.6" class="node" fill="#97A4E2">0.77</text><text x="297.3" y="328" class="node" fill="#E5D0D3">0.44</text><text x="297.3" y="391.2" class="node" fill="#E28699">0.2</text><text x="318.1" y="435" class="node" fill="#4A6FE3">1</text><text x="338.8" y="383" class="node" fill="#7086E1">0.9</text><text x="359.6" y="366.9" class="node" fill="#4A6FE3">1</text><text x="359.6" y="399.1" class="node" fill="#E6B1BB">0.34</text><text x="380.3" y="411.9" class="node" fill="#E6B1BB">0.34</text><text x="401" y="424.5" class="node" fill="#E6BAC2">0.37</text><text x="421.8" y="436.7" class="node" fill="#E6BAC2">0.37</text><text x="442.5" y="448" class="node" fill="#4A6FE3">1</text><text x="463.3" y="457.8" class="node" fill="#AEB6E2">0.69</text><text x="338.8" y="487" class="node" fill="#8C9BE1">0.81</text><text x="359.6" y="496.7" class="node" fill="#5B78E2">0.96</text><text x="235.1" y="522.6" class="node" fill="#4A6FE3">1</text><text x="27.7" y="582.7" class="node" fill="#4A6FE3">1</text><text x="48.5" y="564.8" class="node" fill="#4A6FE3">1</text><text x="69.2" y="574.6" class="node" fill="#4A6FE3">1</text><text x="48.5" y="600.5" class="node" fill="#4A6FE3">1</text></svg>
