<svg xmlns="http://www.w3.org/2000/svg" version="1.1" width="682" height="612" class="tree" data-char="26"><text x="678" y="15.4" text-anchor="end" class="stepsLabel">Character adds <tspan class="score">4</tspan> to tree score</text><text x="678" y="27.8" text-anchor="end" class="stepsLabel"><tspan class="score">0</tspan> additional regions</text><text x="678" y="40.2" text-anchor="end" class="stepsLabel">CI = 0.25; Fitch CI = 0.25; Fitch RI = 0.4</text><text x="678" y="65" text-anchor="end" class="stepsLabel"><tspan dy="16">An optimal tree under:</tspan><tspan x="680" style="font-style:italic" class="notThisAn" dy="1.2em">Equal weights</tspan><tspan x="680" style="font-style:italic" class="notThisAn" dy="1.2em">Implied weights, k = 2</tspan><tspan x="680" style="font-style:italic" class="notThisAn" dy="1.2em">IW, k = 3</tspan><tspan x="680" style="font-style:italic" class="notThisAn" dy="1.2em">IW, k = 4.5</tspan><tspan x="680" style="font-style:italic" class="notThisAn" dy="1.2em">IW, k = 7</tspan><tspan x="680" style="font-style:italic" class="thisAn" dy="1.2em">IW, k = 10.5</tspan><tspan x="680" style="font-style:italic" class="notThisAn" dy="1.2em">IW, k = 16</tspan><tspan x="680" style="font-style:italic" class="notThisAn" dy="1.2em">IW, k = 24</tspan></text><text x="76.6" y="594.3" fill="lightgrey" class="flag">[-]</text><text x="98.6" y="594.3" fill="#ccc" class="taxonLabel">Sipunculus</text><text x="76.6" y="607" fill="lightgrey" class="flag">[-]</text><text x="98.6" y="607" fill="#ccc" class="taxonLabel">Serpula</text><text x="100.4" y="568.9" fill="lightgrey" class="flag">[-]</text><text x="122.4" y="568.9" fill="#ccc" class="taxonLabel">Dentalium</text><text x="100.4" y="581.6" fill="lightgrey" class="flag">[-]</text><text x="122.4" y="581.6" fill="#ccc" class="taxonLabel">Tonicella</text><text x="76.6" y="556.2" fill="lightgrey" class="flag">[-]</text><text x="98.6" y="556.2" fill="#ccc" class="taxonLabel">Wiwaxia corrugata</text><text x="219.7" y="518.1" fill="#e2e2a2" class="flag">[1]</text><text x="241.7" y="518.1" fill="#000" class="taxonLabel">Pedunculotheca diania</text><text x="219.7" y="530.8" fill="lightgrey" class="flag">[-]</text><text x="241.7" y="530.8" fill="#ccc" class="taxonLabel">Haplophrentis carinatus</text><text x="386.6" y="492.7" fill="lightgrey" class="flag">[-]</text><text x="408.6" y="492.7" fill="#ccc" class="taxonLabel">Novocrania</text><text x="386.6" y="505.4" fill="lightgrey" class="flag">[-]</text><text x="408.6" y="505.4" fill="#ccc" class="taxonLabel">Craniops</text><text x="362.8" y="480" fill="lightgrey" class="flag">[-]</text><text x="384.8" y="480" fill="#ccc" class="taxonLabel">Ussunia</text><text x="338.9" y="467.3" fill="lightgrey" class="flag">[-]</text><text x="360.9" y="467.3" fill="#ccc" class="taxonLabel">Heliomedusa orienta</text><text x="315.1" y="454.6" fill="lightgrey" class="flag">[-]</text><text x="337.1" y="454.6" fill="#ccc" class="taxonLabel">Gasconsia</text><text x="362.8" y="429.2" fill="grey" class="flag">[?]</text><text x="384.8" y="429.2" fill="#999" class="taxonLabel">Botsfordia</text><text x="362.8" y="441.9" fill="grey" class="flag">[?]</text><text x="384.8" y="441.9" fill="#999" class="taxonLabel">Mummpikia nuda</text><text x="338.9" y="416.5" fill="grey" class="flag">[?]</text><text x="360.9" y="416.5" fill="#999" class="taxonLabel">Eoobolus</text><text x="410.5" y="391.1" fill="#e2e2a2" class="flag">[1]</text><text x="432.5" y="391.1" fill="#000" class="taxonLabel">Acanthotretella spinosa</text><text x="410.5" y="403.8" fill="grey" class="flag">[?]</text><text x="432.5" y="403.8" fill="#999" class="taxonLabel">Siphonobolus priscus</text><text x="410.5" y="365.7" fill="grey" class="flag">[?]</text><text x="432.5" y="365.7" fill="#999" class="taxonLabel">Clupeafumosus socialis</text><text x="410.5" y="378.4" fill="grey" class="flag">[?]</text><text x="432.5" y="378.4" fill="#999" class="taxonLabel">Lingulosacculus</text><text x="386.6" y="340.3" fill="#e2e2a2" class="flag">[1]</text><text x="408.6" y="340.3" fill="#000" class="taxonLabel">Lingulellotreta malongensis</text><text x="386.6" y="353" fill="#91bfdb" class="flag">[2]</text><text x="408.6" y="353" fill="#000" class="taxonLabel">Lingula</text><text x="338.9" y="327.6" fill="#e2e2a2" class="flag">[1]</text><text x="360.9" y="327.6" fill="#000" class="taxonLabel">Pelagodiscus atlanticus</text><text x="362.8" y="302.1" fill="#91bfdb" class="flag">[2]</text><text x="384.8" y="302.1" fill="#000" class="taxonLabel">Yuganotheca elegans</text><text x="362.8" y="314.9" fill="grey" class="flag">[?]</text><text x="384.8" y="314.9" fill="#999" class="taxonLabel">Tomteluva perturbata</text><text x="338.9" y="289.4" fill="grey" class="flag">[?]</text><text x="360.9" y="289.4" fill="#999" class="taxonLabel">Salanygolina</text><text x="362.8" y="264" fill="#91bfdb" class="flag">[2]</text><text x="384.8" y="264" fill="#000" class="taxonLabel">Antigonambonites planus</text><text x="362.8" y="276.7" fill="grey" class="flag">[?]</text><text x="384.8" y="276.7" fill="#999" class="taxonLabel">Coolinia pecten</text><text x="482" y="238.6" fill="#e2e2a2" class="flag">[1]</text><text x="504" y="238.6" fill="#000" class="taxonLabel">Terebratulina</text><text x="482" y="251.3" fill="grey" class="flag">[?]</text><text x="504" y="251.3" fill="#999" class="taxonLabel">Orthis</text><text x="458.2" y="225.9" fill="#91bfdb" class="flag">[2]</text><text x="480.2" y="225.9" fill="#000" class="taxonLabel">Alisina</text><text x="434.3" y="213.2" fill="#91bfdb" class="flag">[2]</text><text x="456.3" y="213.2" fill="#000" class="taxonLabel">Longtancunella chengjiangensis</text><text x="410.5" y="200.5" fill="grey" class="flag">[?]</text><text x="432.5" y="200.5" fill="#999" class="taxonLabel">Glyptoria</text><text x="386.6" y="187.8" fill="#91bfdb" class="flag">[2]</text><text x="408.6" y="187.8" fill="#000" class="taxonLabel">Nisusia sulcata</text><text x="362.8" y="175.1" fill="#e2e2a2" class="flag">[1]</text><text x="384.8" y="175.1" fill="#000" class="taxonLabel">Kutorgina chengjiangensis</text><text x="315.1" y="149.7" fill="grey" class="flag">[?]</text><text x="337.1" y="149.7" fill="#999" class="taxonLabel">Askepasma toddense</text><text x="315.1" y="162.4" fill="grey" class="flag">[?]</text><text x="337.1" y="162.4" fill="#999" class="taxonLabel">Micromitra</text><text x="243.5" y="137" fill="grey" class="flag">[?]</text><text x="265.5" y="137" fill="#999" class="taxonLabel">Mickwitzia muralensis</text><text x="219.7" y="124.3" fill="grey" class="flag">[?]</text><text x="241.7" y="124.3" fill="#999" class="taxonLabel">Micrina</text><text x="172" y="111.6" fill="grey" class="flag">[?]</text><text x="194" y="111.6" fill="#999" class="taxonLabel">Paterimitra</text><text x="148.1" y="98.9" fill="lightgrey" class="flag">[-]</text><text x="170.1" y="98.9" fill="#ccc" class="taxonLabel">Halkieria evangelista</text><text x="124.2" y="86.2" fill="grey" class="flag">[?]</text><text x="146.2" y="86.2" fill="#999" class="taxonLabel">Dailyatia</text><text x="148.1" y="60.8" fill="lightgrey" class="flag">[-]</text><text x="170.1" y="60.8" fill="#ccc" class="taxonLabel">Phoronis</text><text x="148.1" y="73.5" fill="lightgrey" class="flag">[-]</text><text x="170.1" y="73.5" fill="#ccc" class="taxonLabel">Namacalathus</text><text x="148.1" y="35.4" fill="lightgrey" class="flag">[-]</text><text x="170.1" y="35.4" fill="#ccc" class="taxonLabel">Cotyledion tylodes</text><text x="148.1" y="48.1" fill="grey" class="flag">[?]</text><text x="170.1" y="48.1" fill="#999" class="taxonLabel">Eccentrotheca</text><text x="100.4" y="10" fill="lightgrey" class="flag">[-]</text><text x="122.4" y="10" fill="#ccc" class="taxonLabel">Flustra</text><text x="100.4" y="22.7" fill="lightgrey" class="flag">[-]</text><text x="122.4" y="22.7" fill="#ccc" class="taxonLabel">Amathia</text><text x="52.7" y="543.5" fill="lightgrey" class="flag">[-]</text><text x="74.7" y="543.5" fill="#ccc" class="taxonLabel">Loxosomella</text><path d="M5,437.8V295.3H28.9M28.9,295.3V50.2H52.7M52.7,50.2V13.4H76.6M76.6,13.4V7H100.4M76.6,13.4V19.7H100.4M52.7,50.2V87H76.6M76.6,87V51.5H100.4M100.4,51.5V38.8H124.2M124.2,38.8V32.4H148.1M124.2,38.8V45.1H148.1M100.4,51.5V64.2H124.2M124.2,64.2V57.8H148.1M124.2,64.2V70.5H148.1M76.6,87V122.6H100.4M100.4,122.6V83.2H124.2M100.4,122.6V161.9H124.2M124.2,161.9V95.9H148.1M267.4,423.4V463.5H291.2M291.2,463.5V451.6H315.1M291.2,463.5V475.4H315.1M315.1,475.4V464.3H338.9M315.1,475.4V486.5H338.9M338.9,486.5V477H362.8M338.9,486.5V496H362.8M362.8,496V489.7H386.6M362.8,496V502.4H386.6M195.8,521.4V527.8H219.7M28.9,295.3V540.5H52.7M5,437.8V580.2H28.9M28.9,580.2V562.7H52.7M52.7,562.7V553.2H76.6M52.7,562.7V572.2H76.6M76.6,572.2V565.9H100.4M76.6,572.2V578.6H100.4M28.9,580.2V597.6H52.7M52.7,597.6V591.3H76.6M52.7,597.6V604H76.6" stroke="lightgrey" class="inapplicable"></path><path d="M124.2,161.9V227.9H148.1M148.1,227.9V108.6H172M148.1,227.9V347.2H172M172,347.2V173H195.8M195.8,173V121.3H219.7M195.8,173V224.6H219.7M219.7,224.6V134H243.5M219.7,224.6V315.2H243.5M243.5,315.2V207H267.4M338.9,184.6V172.1H362.8M458.2,242V235.6H482M243.5,315.2V423.4H267.4M267.4,423.4V383.3H291.2M291.2,383.3V343.6H315.1M315.1,343.6V324.6H338.9M315.1,343.6V362.7H338.9M338.9,362.7V343.6H362.8M362.8,343.6V337.3H386.6M338.9,362.7V381.7H362.8M362.8,381.7V369H386.6M386.6,369V362.7H410.5M386.6,369V375.4H410.5M362.8,381.7V394.4H386.6M386.6,394.4V388.1H410.5M386.6,394.4V400.8H410.5M291.2,383.3V423H315.1M315.1,423V413.5H338.9M315.1,423V432.5H338.9M338.9,432.5V426.2H362.8M338.9,432.5V438.9H362.8M172,347.2V521.4H195.8M195.8,521.4V515.1H219.7" stroke="#e2e2a2"></path><path d="M267.4,207V153.1H291.2M291.2,153.1V146.7H315.1M291.2,153.1V159.4H315.1M458.2,242V248.3H482" stroke="darkgrey"></path><path d="M267.4,207V261H291.2M291.2,261V226H315.1M315.1,226V184.6H338.9M338.9,184.6V197.1H362.8M362.8,197.1V184.8H386.6M362.8,197.1V209.4H386.6M386.6,209.4V197.5H410.5M386.6,209.4V221.3H410.5M410.5,221.3V210.2H434.3M410.5,221.3V232.5H434.3M434.3,232.5V222.9H458.2M434.3,232.5V242H458.2M315.1,226V267.4H338.9M338.9,267.4V261H362.8M338.9,267.4V273.7H362.8M291.2,261V296H315.1M315.1,296V286.4H338.9M315.1,296V305.5H338.9M338.9,305.5V299.1H362.8M338.9,305.5V311.9H362.8M362.8,343.6V350H386.6" stroke="#91bfdb"></path><text x="7" y="440.8" class="node" fill="#4A6FE3">1</text><text x="30.9" y="298.3" class="node" fill="#4A6FE3">1</text><text x="54.7" y="53.2" class="node" fill="#97A4E2">0.77</text><text x="78.6" y="16.4" class="node" fill="#4A6FE3">1</text><text x="78.6" y="90" class="node" fill="#97A4E2">0.77</text><text x="102.4" y="54.5" class="node" fill="#E5A8B3">0.31</text><text x="126.2" y="41.8" class="node" fill="#E28699">0.2</text><text x="126.2" y="67.2" class="node" fill="#4A6FE3">1</text><text x="102.4" y="125.6" class="node" fill="#E6B1BB">0.34</text><text x="126.2" y="164.9" class="node" fill="#E49CAA">0.27</text><text x="150.1" y="230.9" class="node" fill="#E4D9DB">0.47</text><text x="174" y="350.2" class="node" fill="#E5A5B1">0.3</text><text x="197.8" y="176" class="node" fill="#E38FA0">0.23</text><text x="221.7" y="227.6" class="node" fill="#DF798F">0.16</text><text x="245.5" y="318.2" class="node" fill="#DF758D">0.15</text><text x="269.4" y="210" class="node" fill="#667FE1">0.93</text><text x="293.2" y="156.1" class="node" fill="#4A6FE3">1</text><text x="293.2" y="264" class="node" fill="#667FE1">0.93</text><text x="317.1" y="229" class="node" fill="#7A8DE1">0.87</text><text x="340.9" y="187.6" class="node" fill="#E4D9DB">0.47</text><text x="364.8" y="200.1" class="node" fill="#E4D9DB">0.47</text><text x="388.6" y="212.4" class="node" fill="#C7CBE3">0.6</text><text x="412.5" y="224.3" class="node" fill="#C7CBE3">0.6</text><text x="436.3" y="235.5" class="node" fill="#4A6FE3">1</text><text x="460.2" y="245" class="node" fill="#8696E1">0.83</text><text x="340.9" y="270.4" class="node" fill="#4A6FE3">1</text><text x="317.1" y="299" class="node" fill="#E3DFE0">0.49</text><text x="340.9" y="308.5" class="node" fill="#9AA6E2">0.76</text><text x="269.4" y="426.4" class="node" fill="#DF758D">0.15</text><text x="293.2" y="386.3" class="node" fill="#E495A5">0.25</text><text x="317.1" y="346.6" class="node" fill="#E495A5">0.25</text><text x="340.9" y="365.7" class="node" fill="#E6BDC5">0.38</text><text x="364.8" y="346.6" class="node" fill="#E6BDC5">0.38</text><text x="364.8" y="384.7" class="node" fill="#8F9DE1">0.8</text><text x="388.6" y="372" class="node" fill="#E49CAA">0.27</text><text x="388.6" y="397.4" class="node" fill="#4A6FE3">1</text><text x="317.1" y="426" class="node" fill="#E4D9DB">0.47</text><text x="340.9" y="435.5" class="node" fill="#E6BDC5">0.38</text><text x="293.2" y="466.5" class="node" fill="#E38FA0">0.23</text><text x="317.1" y="478.4" class="node" fill="#E38FA0">0.23</text><text x="340.9" y="489.5" class="node" fill="#E4D9DB">0.47</text><text x="364.8" y="499" class="node" fill="#4A6FE3">1</text><text x="197.8" y="524.4" class="node" fill="#4A6FE3">1</text><text x="30.9" y="583.2" class="node" fill="#4A6FE3">1</text><text x="54.7" y="565.7" class="node" fill="#4A6FE3">1</text><text x="78.6" y="575.2" class="node" fill="#7A8DE1">0.87</text><text x="54.7" y="600.6" class="node" fill="#4A6FE3">1</text></svg>
