<svg xmlns="http://www.w3.org/2000/svg" version="1.1" width="682" height="555" class="tree" char="3">
 <text x="678" y="17.7" text-anchor="end" class="stepsLabel">Character adds <tspan class="score">1</tspan> to tree score</text>
 <text x="678" y="32.4" text-anchor="end" class="stepsLabel"><tspan class="score"></tspan> additional region</text>
 <text x="678" y="47.1" text-anchor="end" class="stepsLabel">CI = 1; Fitch CI = 1; Fitch RI = 1</text>
 <text x="678" y="76.5" text-anchor="end" class="stepsLabel"><tspan dy="16">An optimal tree under:</tspan><tspan x="680" style="font-style:italic" class="notThisAn" dy="1.2em">Equal weights</tspan><tspan x="680" style="font-style:italic" class="notThisAn" dy="1.2em">Implied weights, k = 2</tspan><tspan x="680" style="font-style:italic" class="notThisAn" dy="1.2em">IW, k = 3</tspan><tspan x="680" style="font-style:italic" class="thisAn" dy="1.2em">IW, k = 4.5</tspan><tspan x="680" style="font-style:italic" class="notThisAn" dy="1.2em">IW, k = 7</tspan><tspan x="680" style="font-style:italic" class="notThisAn" dy="1.2em">IW, k = 10.5</tspan><tspan x="680" style="font-style:italic" class="notThisAn" dy="1.2em">IW, k = 16</tspan><tspan x="680" style="font-style:italic" class="notThisAn" dy="1.2em">IW, k = 24</tspan></text>
 <text x="35.1" y="8" fill="#fc8d59" class="flag">[0]</text>
 <text x="55.1" y="8" class="taxonLabel">Dailyatia</text>
 <text x="63.1" y="23.1" fill="lightgrey" class="flag">[-]</text>
 <text x="83.1" y="23.1" class="taxonLabel">Phoronis</text>
 <text x="91.2" y="38.3" fill="#fc8d59" class="flag">[0]</text>
 <text x="111.2" y="38.3" class="taxonLabel">Eccentrotheca</text>
 <text x="119.2" y="53.4" fill="#fc8d59" class="flag">[0]</text>
 <text x="139.2" y="53.4" class="taxonLabel">Paterimitra</text>
 <text x="175.4" y="68.6" fill="#91bfdb" class="flag">[1]</text>
 <text x="195.4" y="68.6" class="taxonLabel">Micrina</text>
 <text x="259.5" y="83.7" fill="#91bfdb" class="flag">[1]</text>
 <text x="279.5" y="83.7" class="taxonLabel">Gasconsia</text>
 <text x="287.6" y="98.8" fill="#91bfdb" class="flag">[1]</text>
 <text x="307.6" y="98.8" class="taxonLabel">Heliomedusa orienta</text>
 <text x="315.6" y="114" fill="#91bfdb" class="flag">[1]</text>
 <text x="335.6" y="114" class="taxonLabel">Ussunia</text>
 <text x="343.7" y="129.1" fill="#91bfdb" class="flag">[1]</text>
 <text x="363.7" y="129.1" class="taxonLabel">Novocrania</text>
 <text x="343.7" y="144.2" fill="#91bfdb" class="flag">[1]</text>
 <text x="363.7" y="144.2" class="taxonLabel">Craniops</text>
 <text x="259.5" y="371.3" fill="#91bfdb" class="flag">[1]</text>
 <text x="279.5" y="371.3" class="taxonLabel">Mickwitzia muralensis</text>
 <text x="259.5" y="386.5" fill="#91bfdb" class="flag">[1]</text>
 <text x="279.5" y="386.5" class="taxonLabel">Pelagodiscus atlanticus</text>
 <text x="259.5" y="401.6" fill="#91bfdb" class="flag">[1]</text>
 <text x="279.5" y="401.6" class="taxonLabel">Lingula</text>
 <text x="315.6" y="416.8" fill="#91bfdb" class="flag">[1]</text>
 <text x="335.6" y="416.8" class="taxonLabel">Clupeafumosus socialis</text>
 <text x="343.7" y="431.9" fill="#91bfdb" class="flag">[1]</text>
 <text x="363.7" y="431.9" class="taxonLabel">Lingulosacculus</text>
 <text x="371.8" y="447" fill="#91bfdb" class="flag">[1]</text>
 <text x="391.8" y="447" class="taxonLabel">Acanthotretella spinosa</text>
 <text x="371.8" y="462.2" fill="#91bfdb" class="flag">[1]</text>
 <text x="391.8" y="462.2" class="taxonLabel">Siphonobolus priscus</text>
 <text x="315.6" y="477.3" fill="#91bfdb" class="flag">[1]</text>
 <text x="335.6" y="477.3" class="taxonLabel">Lingulellotreta malongensis</text>
 <text x="343.7" y="492.4" fill="#91bfdb" class="flag">[1]</text>
 <text x="363.7" y="492.4" class="taxonLabel">Botsfordia</text>
 <text x="371.8" y="507.6" fill="#91bfdb" class="flag">[1]</text>
 <text x="391.8" y="507.6" class="taxonLabel">Mummpikia nuda</text>
 <text x="371.8" y="522.7" fill="#91bfdb" class="flag">[1]</text>
 <text x="391.8" y="522.7" class="taxonLabel">Eoobolus</text>
 <text x="287.6" y="341.1" fill="#91bfdb" class="flag">[1]</text>
 <text x="307.6" y="341.1" class="taxonLabel">Askepasma toddense</text>
 <text x="287.6" y="356.2" fill="#91bfdb" class="flag">[1]</text>
 <text x="307.6" y="356.2" class="taxonLabel">Micromitra</text>
 <text x="315.6" y="159.4" fill="#91bfdb" class="flag">[1]</text>
 <text x="335.6" y="159.4" class="taxonLabel">Salanygolina</text>
 <text x="343.7" y="174.5" fill="#91bfdb" class="flag">[1]</text>
 <text x="363.7" y="174.5" class="taxonLabel">Yuganotheca elegans</text>
 <text x="343.7" y="189.7" fill="#91bfdb" class="flag">[1]</text>
 <text x="363.7" y="189.7" class="taxonLabel">Tomteluva perturbata</text>
 <text x="343.7" y="310.8" fill="#91bfdb" class="flag">[1]</text>
 <text x="363.7" y="310.8" class="taxonLabel">Coolinia pecten</text>
 <text x="343.7" y="325.9" fill="#91bfdb" class="flag">[1]</text>
 <text x="363.7" y="325.9" class="taxonLabel">Antigonambonites planus</text>
 <text x="343.7" y="204.8" fill="#91bfdb" class="flag">[1]</text>
 <text x="363.7" y="204.8" class="taxonLabel">Kutorgina chengjiangensis</text>
 <text x="371.8" y="219.9" fill="#91bfdb" class="flag">[1]</text>
 <text x="391.8" y="219.9" class="taxonLabel">Nisusia sulcata</text>
 <text x="399.8" y="235.1" fill="#91bfdb" class="flag">[1]</text>
 <text x="419.8" y="235.1" class="taxonLabel">Glyptoria</text>
 <text x="427.9" y="250.2" fill="#91bfdb" class="flag">[1]</text>
 <text x="447.9" y="250.2" class="taxonLabel">Longtancunella chengjiangensis</text>
 <text x="455.9" y="265.4" fill="#91bfdb" class="flag">[1]</text>
 <text x="475.9" y="265.4" class="taxonLabel">Alisina</text>
 <text x="484" y="280.5" fill="#91bfdb" class="flag">[1]</text>
 <text x="504" y="280.5" class="taxonLabel">Terebratulina</text>
 <text x="484" y="295.6" fill="#91bfdb" class="flag">[1]</text>
 <text x="504" y="295.6" class="taxonLabel">Orthis</text>
 <text x="175.4" y="537.9" fill="grey" class="flag">[01]</text>
 <text x="195.4" y="537.9" class="taxonLabel">Haplophrentis carinatus</text>
 <text x="175.4" y="553" fill="#91bfdb" class="flag">[1]</text>
 <text x="195.4" y="553" class="taxonLabel">Pedunculotheca diania</text>
 <path d="M5,37.7V5H33.1M5,37.7V70.4H33.1M33.1,70.4V120.6H61.1M61.1,120.6V35.3H89.2M61.1,120.6V205.9H89.2M89.2,205.9V50.4H117.2" stroke="#fc8d59"></path>
 <path d="M33.1,70.4V20.1H61.1" stroke="lightgrey" class="inapplicable"></path>
 <path d="M89.2,205.9V361.4H117.2M117.2,361.4V180.3H145.3M145.3,180.3V65.6H173.4M145.3,180.3V295H173.4M173.4,295V188.1H201.4M201.4,188.1V94.9H229.5M229.5,94.9V80.7H257.5M229.5,94.9V109.1H257.5M257.5,109.1V95.8H285.6M257.5,109.1V122.3H285.6M285.6,122.3V111H313.6M285.6,122.3V133.7H313.6M313.6,133.7V126.1H341.7M313.6,133.7V141.2H341.7M201.4,188.1V281.3H229.5M229.5,281.3V216.9H257.5M257.5,216.9V167.7H285.6M285.6,167.7V156.4H313.6M285.6,167.7V179.1H313.6M313.6,179.1V171.5H341.7M313.6,179.1V186.7H341.7M257.5,216.9V266H285.6M285.6,266V216.7H313.6M313.6,216.7V201.8H341.7M313.6,216.7V231.6H341.7M341.7,231.6V216.9H369.8M341.7,231.6V246.3H369.8M369.8,246.3V232.1H397.8M369.8,246.3V260.5H397.8M397.8,260.5V247.2H425.9M397.8,260.5V273.7H425.9M425.9,273.7V262.4H453.9M425.9,273.7V285.1H453.9M453.9,285.1V277.5H482M453.9,285.1V292.6H482M285.6,266V315.3H313.6M313.6,315.3V307.8H341.7M313.6,315.3V322.9H341.7M229.5,281.3V345.6H257.5M257.5,345.6V338.1H285.6M257.5,345.6V353.2H285.6M173.4,295V401.9H201.4M201.4,401.9V375.9H229.5M229.5,375.9V368.3H257.5M229.5,375.9V383.5H257.5M201.4,401.9V427.9H229.5M229.5,427.9V398.6H257.5M229.5,427.9V457.3H257.5M257.5,457.3V427H285.6M285.6,427V413.8H313.6M285.6,427V440.2H313.6M313.6,440.2V428.9H341.7M313.6,440.2V451.6H341.7M341.7,451.6V444H369.8M341.7,451.6V459.2H369.8M257.5,457.3V487.6H285.6M285.6,487.6V474.3H313.6M285.6,487.6V500.8H313.6M313.6,500.8V489.4H341.7M313.6,500.8V512.2H341.7M341.7,512.2V504.6H369.8M341.7,512.2V519.7H369.8M117.2,361.4V542.4H145.3M145.3,542.4V534.9H173.4M145.3,542.4V550H173.4" stroke="#91bfdb"></path></svg>
