<svg xmlns="http://www.w3.org/2000/svg" version="1.1" width="682" height="612" class="tree" data-char="58"><text x="678" y="15.7" text-anchor="end" class="stepsLabel">Character adds <tspan class="score">4</tspan> to tree score</text><text x="678" y="28.4" text-anchor="end" class="stepsLabel"><tspan class="score">1</tspan> additional region</text><text x="678" y="41.1" text-anchor="end" class="stepsLabel">CI = 0.25; Fitch CI = 0.33; Fitch RI = 0.6</text><text x="678" y="66.5" text-anchor="end" class="stepsLabel"><tspan dy="16">An optimal tree under:</tspan><tspan x="680" style="font-style:italic" class="thisAn" dy="1.2em">Equal weights</tspan><tspan x="680" style="font-style:italic" class="notThisAn" dy="1.2em">Implied weights, k = 2</tspan><tspan x="680" style="font-style:italic" class="notThisAn" dy="1.2em">IW, k = 3</tspan><tspan x="680" style="font-style:italic" class="notThisAn" dy="1.2em">IW, k = 4.5</tspan><tspan x="680" style="font-style:italic" class="notThisAn" dy="1.2em">IW, k = 7</tspan><tspan x="680" style="font-style:italic" class="notThisAn" dy="1.2em">IW, k = 10.5</tspan><tspan x="680" style="font-style:italic" class="notThisAn" dy="1.2em">IW, k = 16</tspan><tspan x="680" style="font-style:italic" class="notThisAn" dy="1.2em">IW, k = 24</tspan></text><text x="91.7" y="594" fill="#91bfdb" class="flag">[2]</text><text x="113.7" y="594" fill="#000" class="taxonLabel">Dentalium</text><text x="91.7" y="607" fill="#91bfdb" class="flag">[2]</text><text x="113.7" y="607" fill="#000" class="taxonLabel">Tonicella</text><text x="70" y="581" fill="#e2e2a2" class="flag">[1]</text><text x="92" y="581" fill="#000" class="taxonLabel">Wiwaxia corrugata</text><text x="70" y="555.1" fill="lightgrey" class="flag">[-]</text><text x="92" y="555.1" fill="lightgrey" class="taxonLabel">Sipunculus</text><text x="70" y="568.1" fill="lightgrey" class="flag">[-]</text><text x="92" y="568.1" fill="lightgrey" class="taxonLabel">Serpula</text><text x="460.3" y="516.2" fill="#91bfdb" class="flag">[2]</text><text x="482.3" y="516.2" fill="#000" class="taxonLabel">Acanthotretella spinosa</text><text x="460.3" y="529.1" fill="#91bfdb" class="flag">[2]</text><text x="482.3" y="529.1" fill="#000" class="taxonLabel">Siphonobolus priscus</text><text x="438.6" y="503.2" fill="#91bfdb" class="flag">[2]</text><text x="460.6" y="503.2" fill="#000" class="taxonLabel">Clupeafumosus socialis</text><text x="417" y="490.2" fill="#91bfdb" class="flag">[2]</text><text x="439" y="490.2" fill="#000" class="taxonLabel">Lingulosacculus</text><text x="395.3" y="477.2" fill="#91bfdb" class="flag">[2]</text><text x="417.3" y="477.2" fill="#000" class="taxonLabel">Lingulellotreta malongensis</text><text x="373.6" y="464.2" fill="#91bfdb" class="flag">[2]</text><text x="395.6" y="464.2" fill="#000" class="taxonLabel">Botsfordia</text><text x="351.9" y="451.3" fill="#91bfdb" class="flag">[2]</text><text x="373.9" y="451.3" fill="#000" class="taxonLabel">Mummpikia nuda</text><text x="330.2" y="438.3" fill="#91bfdb" class="flag">[2]</text><text x="352.2" y="438.3" fill="#000" class="taxonLabel">Eoobolus</text><text x="308.5" y="425.3" fill="#91bfdb" class="flag">[2]</text><text x="330.5" y="425.3" fill="#000" class="taxonLabel">Lingula</text><text x="330.2" y="399.3" fill="#91bfdb" class="flag">[2]</text><text x="352.2" y="399.3" fill="#000" class="taxonLabel">Mickwitzia muralensis</text><text x="330.2" y="412.3" fill="#91bfdb" class="flag">[2]</text><text x="352.2" y="412.3" fill="#000" class="taxonLabel">Pelagodiscus atlanticus</text><text x="308.5" y="386.4" fill="#91bfdb" class="flag">[2]</text><text x="330.5" y="386.4" fill="#000" class="taxonLabel">Micrina</text><text x="308.5" y="360.4" fill="#91bfdb" class="flag">[2]</text><text x="330.5" y="360.4" fill="#000" class="taxonLabel">Gasconsia</text><text x="308.5" y="373.4" fill="#91bfdb" class="flag">[2]</text><text x="330.5" y="373.4" fill="#000" class="taxonLabel">Micromitra</text><text x="482" y="334.5" fill="#91bfdb" class="flag">[2]</text><text x="504" y="334.5" fill="#000" class="taxonLabel">Alisina</text><text x="482" y="347.4" fill="#91bfdb" class="flag">[2]</text><text x="504" y="347.4" fill="#000" class="taxonLabel">Terebratulina</text><text x="460.3" y="321.5" fill="#91bfdb" class="flag">[2]</text><text x="482.3" y="321.5" fill="#000" class="taxonLabel">Orthis</text><text x="438.6" y="308.5" fill="#91bfdb" class="flag">[2]</text><text x="460.6" y="308.5" fill="#000" class="taxonLabel">Glyptoria</text><text x="417" y="295.5" fill="#91bfdb" class="flag">[2]</text><text x="439" y="295.5" fill="#000" class="taxonLabel">Nisusia sulcata</text><text x="395.3" y="282.5" fill="#91bfdb" class="flag">[2]</text><text x="417.3" y="282.5" fill="#000" class="taxonLabel">Kutorgina chengjiangensis</text><text x="395.3" y="256.6" fill="#91bfdb" class="flag">[2]</text><text x="417.3" y="256.6" fill="#000" class="taxonLabel">Coolinia pecten</text><text x="395.3" y="269.6" fill="#91bfdb" class="flag">[2]</text><text x="417.3" y="269.6" fill="#000" class="taxonLabel">Antigonambonites planus</text><text x="351.9" y="243.6" fill="#91bfdb" class="flag">[2]</text><text x="373.9" y="243.6" fill="#000" class="taxonLabel">Longtancunella chengjiangensis</text><text x="373.6" y="217.7" fill="#91bfdb" class="flag">[2]</text><text x="395.6" y="217.7" fill="#000" class="taxonLabel">Yuganotheca elegans</text><text x="373.6" y="230.6" fill="#91bfdb" class="flag">[2]</text><text x="395.6" y="230.6" fill="#000" class="taxonLabel">Tomteluva perturbata</text><text x="351.9" y="204.7" fill="#91bfdb" class="flag">[2]</text><text x="373.9" y="204.7" fill="#000" class="taxonLabel">Salanygolina</text><text x="308.5" y="191.7" fill="#91bfdb" class="flag">[2]</text><text x="330.5" y="191.7" fill="#000" class="taxonLabel">Askepasma toddense</text><text x="286.9" y="165.7" fill="grey" class="flag">[12]</text><text x="308.9" y="165.7" fill="grey" class="taxonLabel">Haplophrentis carinatus</text><text x="286.9" y="178.7" fill="#91bfdb" class="flag">[2]</text><text x="308.9" y="178.7" fill="#000" class="taxonLabel">Pedunculotheca diania</text><text x="265.2" y="152.8" fill="#e2e2a2" class="flag">[1]</text><text x="287.2" y="152.8" fill="#000" class="taxonLabel">Paterimitra</text><text x="221.8" y="139.8" fill="#91bfdb" class="flag">[2]</text><text x="243.8" y="139.8" fill="#000" class="taxonLabel">Heliomedusa orienta</text><text x="243.5" y="113.8" fill="#91bfdb" class="flag">[2]</text><text x="265.5" y="113.8" fill="#000" class="taxonLabel">Novocrania</text><text x="243.5" y="126.8" fill="#91bfdb" class="flag">[2]</text><text x="265.5" y="126.8" fill="#000" class="taxonLabel">Craniops</text><text x="221.8" y="100.8" fill="#91bfdb" class="flag">[2]</text><text x="243.8" y="100.8" fill="#000" class="taxonLabel">Ussunia</text><text x="178.5" y="87.9" fill="#e2e2a2" class="flag">[1]</text><text x="200.5" y="87.9" fill="#000" class="taxonLabel">Halkieria evangelista</text><text x="178.5" y="61.9" fill="#e2e2a2" class="flag">[1]</text><text x="200.5" y="61.9" fill="#000" class="taxonLabel">Eccentrotheca</text><text x="178.5" y="74.9" fill="#e2e2a2" class="flag">[1]</text><text x="200.5" y="74.9" fill="#000" class="taxonLabel">Dailyatia</text><text x="135.1" y="48.9" fill="#e2e2a2" class="flag">[1]</text><text x="157.1" y="48.9" fill="#000" class="taxonLabel">Cotyledion tylodes</text><text x="113.4" y="36" fill="lightgrey" class="flag">[-]</text><text x="135.4" y="36" fill="lightgrey" class="taxonLabel">Phoronis</text><text x="91.7" y="23" fill="lightgrey" class="flag">[-]</text><text x="113.7" y="23" fill="lightgrey" class="taxonLabel">Namacalathus</text><text x="70" y="10" fill="lightgrey" class="flag">[-]</text><text x="92" y="10" fill="lightgrey" class="taxonLabel">Flustra</text><text x="48.4" y="542.1" fill="lightgrey" class="flag">[-]</text><text x="70.4" y="542.1" fill="lightgrey" class="taxonLabel">Loxosomella</text><path d="M5,426.7V280.2H26.7M26.7,280.2V21.2H48.4M48.4,21.2V7H70M48.4,21.2V35.5H70M70,35.5V20H91.7M70,35.5V50.9H91.7M91.7,50.9V33H113.4M26.7,280.2V539.1H48.4M5,426.7V573.2H26.7M26.7,573.2V558.6H48.4M48.4,558.6V552.1H70M48.4,558.6V565.1H70" stroke="lightgrey" class="inapplicable"></path><path d="M91.7,50.9V68.9H113.4M113.4,68.9V45.9H135.1M113.4,68.9V91.9H135.1M135.1,91.9V65.4H156.8M156.8,65.4V58.9H178.5M156.8,65.4V71.9H178.5M135.1,91.9V118.3H156.8M156.8,118.3V84.9H178.5M243.5,159.5V149.8H265.2M48.4,587.8V578H70" stroke="#e2e2a2"></path><path d="M156.8,118.3V151.8H178.5M178.5,151.8V107.6H200.1M200.1,107.6V97.8H221.8M200.1,107.6V117.3H221.8M221.8,117.3V110.8H243.5M221.8,117.3V123.8H243.5M178.5,151.8V196H200.1M200.1,196V136.8H221.8M200.1,196V255.3H221.8M221.8,255.3V159.5H243.5M243.5,159.5V169.2H265.2M265.2,169.2V162.7H286.9M265.2,169.2V175.7H286.9M221.8,255.3V351H243.5M243.5,351V287.8H265.2M265.2,287.8V211.8H286.9M286.9,211.8V188.7H308.5M286.9,211.8V234.9H308.5M308.5,234.9V211.4H330.2M330.2,211.4V201.7H351.9M330.2,211.4V221.1H351.9M351.9,221.1V214.7H373.6M351.9,221.1V227.6H373.6M308.5,234.9V258.4H330.2M330.2,258.4V240.6H351.9M330.2,258.4V276.1H351.9M351.9,276.1V260.1H373.6M373.6,260.1V253.6H395.3M373.6,260.1V266.6H395.3M351.9,276.1V292.1H373.6M373.6,292.1V279.5H395.3M373.6,292.1V304.7H395.3M395.3,304.7V292.5H417M395.3,304.7V316.9H417M417,316.9V305.5H438.6M417,316.9V328.2H438.6M438.6,328.2V318.5H460.3M438.6,328.2V337.9H460.3M460.3,337.9V331.5H482M460.3,337.9V344.4H482M265.2,287.8V363.9H286.9M286.9,363.9V357.4H308.5M286.9,363.9V370.4H308.5M243.5,351V414.2H265.2M265.2,414.2V393.1H286.9M286.9,393.1V383.4H308.5M286.9,393.1V402.8H308.5M308.5,402.8V396.3H330.2M308.5,402.8V409.3H330.2M265.2,414.2V435.2H286.9M286.9,435.2V422.3H308.5M286.9,435.2V448.2H308.5M308.5,448.2V435.3H330.2M308.5,448.2V461H330.2M330.2,461V448.3H351.9M330.2,461V473.8H351.9M351.9,473.8V461.2H373.6M351.9,473.8V486.4H373.6M373.6,486.4V474.2H395.3M373.6,486.4V498.6H395.3M395.3,498.6V487.2H417M395.3,498.6V509.9H417M417,509.9V500.2H438.6M417,509.9V519.6H438.6M438.6,519.6V513.2H460.3M438.6,519.6V526.1H460.3M48.4,587.8V597.5H70M70,597.5V591H91.7M70,597.5V604H91.7" stroke="#91bfdb"></path><path d="M26.7,573.2V587.8H48.4" stroke="darkgrey"></path><text x="7" y="429.7" class="node" fill="#4A6FE3">1</text><text x="28.7" y="283.2" class="node" fill="#4A6FE3">1</text><text x="50.4" y="24.2" class="node" fill="#4A6FE3">1</text><text x="72" y="38.5" class="node" fill="#4A6FE3">1</text><text x="93.7" y="53.9" class="node" fill="#D54C71">0.03</text><text x="115.4" y="71.9" class="node" fill="#4A6FE3">1</text><text x="137.1" y="94.9" class="node" fill="#E498A7">0.26</text><text x="158.8" y="68.4" class="node" fill="#DA5E7D">0.08</text><text x="158.8" y="121.3" class="node" fill="#E5A8B3">0.31</text><text x="180.5" y="154.8" class="node" fill="#4A6FE3">1</text><text x="202.1" y="110.6" class="node" fill="#A0ABE2">0.74</text><text x="223.8" y="120.3" class="node" fill="#4A6FE3">1</text><text x="202.1" y="199" class="node" fill="#8394E1">0.84</text><text x="223.8" y="258.3" class="node" fill="#8394E1">0.84</text><text x="245.5" y="162.5" class="node" fill="#E6BAC2">0.37</text><text x="267.2" y="172.2" class="node" fill="#4A6FE3">1</text><text x="245.5" y="354" class="node" fill="#8394E1">0.84</text><text x="267.2" y="290.8" class="node" fill="#8394E1">0.84</text><text x="288.9" y="214.8" class="node" fill="#E17F94">0.18</text><text x="310.5" y="237.9" class="node" fill="#4A6FE3">1</text><text x="332.2" y="214.4" class="node" fill="#8998E1">0.82</text><text x="353.9" y="224.1" class="node" fill="#5374E2">0.98</text><text x="332.2" y="261.4" class="node" fill="#6982E1">0.92</text><text x="353.9" y="279.1" class="node" fill="#ABB4E2">0.7</text><text x="375.6" y="263.1" class="node" fill="#4A6FE3">1</text><text x="375.6" y="295.1" class="node" fill="#ABB4E2">0.7</text><text x="397.3" y="307.7" class="node" fill="#ABB4E2">0.7</text><text x="419" y="319.9" class="node" fill="#ABB4E2">0.7</text><text x="440.6" y="331.2" class="node" fill="#4A6FE3">1</text><text x="462.3" y="340.9" class="node" fill="#E6B1BB">0.34</text><text x="288.9" y="366.9" class="node" fill="#CFD2E3">0.58</text><text x="267.2" y="417.2" class="node" fill="#8091E1">0.85</text><text x="288.9" y="396.1" class="node" fill="#8091E1">0.85</text><text x="310.5" y="405.8" class="node" fill="#4A6FE3">1</text><text x="288.9" y="438.2" class="node" fill="#4A6FE3">1</text><text x="310.5" y="451.2" class="node" fill="#4A6FE3">1</text><text x="332.2" y="464" class="node" fill="#8091E1">0.85</text><text x="353.9" y="476.8" class="node" fill="#8091E1">0.85</text><text x="375.6" y="489.4" class="node" fill="#8091E1">0.85</text><text x="397.3" y="501.6" class="node" fill="#A6AFE2">0.72</text><text x="419" y="512.9" class="node" fill="#DDDEE3">0.52</text><text x="440.6" y="522.6" class="node" fill="#4A6FE3">1</text><text x="28.7" y="576.2" class="node" fill="#4A6FE3">1</text><text x="50.4" y="561.6" class="node" fill="#4A6FE3">1</text><text x="50.4" y="590.8" class="node" fill="#4A6FE3">1</text><text x="72" y="600.5" class="node" fill="#4A6FE3">1</text></svg>
