<svg xmlns="http://www.w3.org/2000/svg" version="1.1" width="682" height="612" class="tree" data-char="23"><text x="678" y="14.1" text-anchor="end" class="stepsLabel">Character adds <tspan class="score">1</tspan> to tree score</text><text x="678" y="25.2" text-anchor="end" class="stepsLabel"><tspan class="score">0</tspan> additional regions</text><text x="678" y="36.3" text-anchor="end" class="stepsLabel">CI = 1; Fitch CI = 1; Fitch RI = 1</text><text x="678" y="58.5" text-anchor="end" class="stepsLabel"><tspan dy="16" fill="#34caaf">An optimal tree under:</tspan><tspan x="680" style="font-style:italic" class="notThisAn" dy="1.2em">Equal weights</tspan><tspan x="680" style="font-style:italic" class="notThisAn" dy="1.2em">Implied weights, k = 2</tspan><tspan x="680" style="font-style:italic" class="thisAn" dy="1.2em">IW, k = 3</tspan><tspan x="680" style="font-style:italic" class="notThisAn" dy="1.2em">IW, k = 4.5</tspan><tspan x="680" style="font-style:italic" class="notThisAn" dy="1.2em">IW, k = 7</tspan><tspan x="680" style="font-style:italic" class="notThisAn" dy="1.2em">IW, k = 10.5</tspan><tspan x="680" style="font-style:italic" class="notThisAn" dy="1.2em">IW, k = 16</tspan><tspan x="680" style="font-style:italic" class="notThisAn" dy="1.2em">IW, k = 24</tspan></text><text x="117.2" y="595.7" fill="#91bfdb" class="flag">[1]</text><text x="139.2" y="595.7" fill="#000" class="taxonLabel">Wiwaxia corrugata</text><text x="117.2" y="607" fill="#91bfdb" class="flag">[1]</text><text x="139.2" y="607" fill="#000" class="taxonLabel">Dentalium</text><text x="89.2" y="584.5" fill="#91bfdb" class="flag">[1]</text><text x="111.2" y="584.5" fill="#000" class="taxonLabel">Tonicella</text><text x="89.2" y="561.9" fill="#fc8d59" class="flag">[0]</text><text x="111.2" y="561.9" fill="#000" class="taxonLabel">Sipunculus</text><text x="89.2" y="573.2" fill="#fc8d59" class="flag">[0]</text><text x="111.2" y="573.2" fill="#000" class="taxonLabel">Serpula</text><text x="369.8" y="528.2" fill="grey" class="flag">[?]</text><text x="391.8" y="528.2" fill="#999" class="taxonLabel">Mummpikia nuda</text><text x="369.8" y="539.4" fill="grey" class="flag">[?]</text><text x="391.8" y="539.4" fill="#999" class="taxonLabel">Botsfordia</text><text x="341.7" y="516.9" fill="grey" class="flag">[?]</text><text x="363.7" y="516.9" fill="#999" class="taxonLabel">Eoobolus</text><text x="369.8" y="494.4" fill="#fc8d59" class="flag">[0]</text><text x="391.8" y="494.4" fill="#000" class="taxonLabel">Lingulellotreta malongensis</text><text x="369.8" y="505.6" fill="#fc8d59" class="flag">[0]</text><text x="391.8" y="505.6" fill="#000" class="taxonLabel">Lingula</text><text x="425.9" y="471.8" fill="grey" class="flag">[?]</text><text x="447.9" y="471.8" fill="#999" class="taxonLabel">Siphonobolus priscus</text><text x="425.9" y="483.1" fill="grey" class="flag">[?]</text><text x="447.9" y="483.1" fill="#999" class="taxonLabel">Acanthotretella spinosa</text><text x="397.8" y="460.6" fill="grey" class="flag">[?]</text><text x="419.8" y="460.6" fill="#999" class="taxonLabel">Clupeafumosus socialis</text><text x="369.8" y="449.3" fill="#fc8d59" class="flag">[0]</text><text x="391.8" y="449.3" fill="#000" class="taxonLabel">Lingulosacculus</text><text x="313.6" y="426.8" fill="#fc8d59" class="flag">[0]</text><text x="335.6" y="426.8" fill="#000" class="taxonLabel">Pelagodiscus atlanticus</text><text x="313.6" y="438" fill="grey" class="flag">[?]</text><text x="335.6" y="438" fill="#999" class="taxonLabel">Mickwitzia muralensis</text><text x="369.8" y="404.2" fill="grey" class="flag">[?]</text><text x="391.8" y="404.2" fill="#999" class="taxonLabel">Craniops</text><text x="369.8" y="415.5" fill="#fc8d59" class="flag">[0]</text><text x="391.8" y="415.5" fill="#000" class="taxonLabel">Novocrania</text><text x="341.7" y="393" fill="grey" class="flag">[?]</text><text x="363.7" y="393" fill="#999" class="taxonLabel">Ussunia</text><text x="313.6" y="381.7" fill="grey" class="flag">[?]</text><text x="335.6" y="381.7" fill="#999" class="taxonLabel">Gasconsia</text><text x="285.6" y="370.5" fill="grey" class="flag">[?]</text><text x="307.6" y="370.5" fill="#999" class="taxonLabel">Micromitra</text><text x="341.7" y="347.9" fill="grey" class="flag">[?]</text><text x="363.7" y="347.9" fill="#999" class="taxonLabel">Tomteluva perturbata</text><text x="341.7" y="359.2" fill="#fc8d59" class="flag">[0]</text><text x="363.7" y="359.2" fill="#000" class="taxonLabel">Yuganotheca elegans</text><text x="313.6" y="336.7" fill="grey" class="flag">[?]</text><text x="335.6" y="336.7" fill="#999" class="taxonLabel">Salanygolina</text><text x="341.7" y="314.1" fill="grey" class="flag">[?]</text><text x="363.7" y="314.1" fill="#999" class="taxonLabel">Antigonambonites planus</text><text x="341.7" y="325.4" fill="grey" class="flag">[?]</text><text x="363.7" y="325.4" fill="#999" class="taxonLabel">Coolinia pecten</text><text x="482" y="291.6" fill="#fc8d59" class="flag">[0]</text><text x="504" y="291.6" fill="#000" class="taxonLabel">Terebratulina</text><text x="482" y="302.9" fill="grey" class="flag">[?]</text><text x="504" y="302.9" fill="#999" class="taxonLabel">Orthis</text><text x="453.9" y="280.3" fill="grey" class="flag">[?]</text><text x="475.9" y="280.3" fill="#999" class="taxonLabel">Alisina</text><text x="425.9" y="269.1" fill="#fc8d59" class="flag">[0]</text><text x="447.9" y="269.1" fill="#000" class="taxonLabel">Longtancunella chengjiangensis</text><text x="397.8" y="257.8" fill="grey" class="flag">[?]</text><text x="419.8" y="257.8" fill="#999" class="taxonLabel">Glyptoria</text><text x="369.8" y="246.5" fill="grey" class="flag">[?]</text><text x="391.8" y="246.5" fill="#999" class="taxonLabel">Nisusia sulcata</text><text x="341.7" y="235.3" fill="grey" class="flag">[?]</text><text x="363.7" y="235.3" fill="#999" class="taxonLabel">Kutorgina chengjiangensis</text><text x="257.5" y="224" fill="grey" class="flag">[?]</text><text x="279.5" y="224" fill="#999" class="taxonLabel">Askepasma toddense</text><text x="229.5" y="201.5" fill="grey" class="flag">[?]</text><text x="251.5" y="201.5" fill="#999" class="taxonLabel">Micrina</text><text x="229.5" y="212.8" fill="grey" class="flag">[?]</text><text x="251.5" y="212.8" fill="#999" class="taxonLabel">Heliomedusa orienta</text><text x="173.4" y="190.2" fill="grey" class="flag">[?]</text><text x="195.4" y="190.2" fill="#999" class="taxonLabel">Paterimitra</text><text x="145.3" y="179" fill="grey" class="flag">[?]</text><text x="167.3" y="179" fill="#999" class="taxonLabel">Pedunculotheca diania</text><text x="201.4" y="156.4" fill="grey" class="flag">[?]</text><text x="223.4" y="156.4" fill="#999" class="taxonLabel">Dailyatia</text><text x="201.4" y="167.7" fill="grey" class="flag">[?]</text><text x="223.4" y="167.7" fill="#999" class="taxonLabel">Halkieria evangelista</text><text x="257.5" y="133.9" fill="grey" class="flag">[?]</text><text x="279.5" y="133.9" fill="#999" class="taxonLabel">Namacalathus</text><text x="257.5" y="145.2" fill="#fc8d59" class="flag">[0]</text><text x="279.5" y="145.2" fill="#000" class="taxonLabel">Phoronis</text><text x="229.5" y="122.6" fill="#fc8d59" class="flag">[0]</text><text x="251.5" y="122.6" fill="#000" class="taxonLabel">Cotyledion tylodes</text><text x="201.4" y="111.4" fill="grey" class="flag">[?]</text><text x="223.4" y="111.4" fill="#999" class="taxonLabel">Eccentrotheca</text><text x="201.4" y="88.8" fill="grey" class="flag">[?]</text><text x="223.4" y="88.8" fill="#999" class="taxonLabel">Decoritheca</text><text x="201.4" y="100.1" fill="grey" class="flag">[?]</text><text x="223.4" y="100.1" fill="#999" class="taxonLabel">Probactrotheca</text><text x="285.6" y="66.3" fill="grey" class="flag">[?]</text><text x="307.6" y="66.3" fill="#999" class="taxonLabel">Pauxillites</text><text x="285.6" y="77.6" fill="grey" class="flag">[?]</text><text x="307.6" y="77.6" fill="#999" class="taxonLabel">Maxilites</text><text x="257.5" y="55.1" fill="grey" class="flag">[?]</text><text x="279.5" y="55.1" fill="#999" class="taxonLabel">Paramicrocornus</text><text x="229.5" y="43.8" fill="#fc8d59" class="flag">[0]</text><text x="251.5" y="43.8" fill="#000" class="taxonLabel">Haplophrentis carinatus</text><text x="201.4" y="32.5" fill="grey" class="flag">[?]</text><text x="223.4" y="32.5" fill="#999" class="taxonLabel">Conotheca</text><text x="117.2" y="10" fill="#fc8d59" class="flag">[0]</text><text x="139.2" y="10" fill="#000" class="taxonLabel">Flustra</text><text x="117.2" y="21.3" fill="#fc8d59" class="flag">[0]</text><text x="139.2" y="21.3" fill="#000" class="taxonLabel">Amathia</text><text x="61.1" y="550.7" fill="#fc8d59" class="flag">[0]</text><text x="83.1" y="550.7" fill="#000" class="taxonLabel">Loxosomella</text><path d="M5,446.2V315.2H33.1M33.1,315.2V82.7H61.1M61.1,82.7V12.6H89.2M89.2,12.6V7H117.2M89.2,12.6V18.3H117.2M61.1,82.7V152.7H89.2M89.2,152.7V102.2H117.2M117.2,102.2V65.8H145.3M145.3,65.8V40.1H173.4M173.4,40.1V29.5H201.4M173.4,40.1V50.6H201.4M201.4,50.6V40.8H229.5M201.4,50.6V60.5H229.5M229.5,60.5V52.1H257.5M229.5,60.5V69H257.5M257.5,69V63.3H285.6M257.5,69V74.6H285.6M145.3,65.8V91.5H173.4M173.4,91.5V85.8H201.4M173.4,91.5V97.1H201.4M117.2,102.2V138.6H145.3M145.3,138.6V118.2H173.4M173.4,118.2V108.4H201.4M173.4,118.2V128.1H201.4M201.4,128.1V119.6H229.5M201.4,128.1V136.5H229.5M229.5,136.5V130.9H257.5M229.5,136.5V142.2H257.5M145.3,138.6V159.1H173.4M173.4,159.1V153.4H201.4M173.4,159.1V164.7H201.4M89.2,152.7V203.3H117.2M117.2,203.3V176H145.3M117.2,203.3V230.6H145.3M145.3,230.6V187.2H173.4M145.3,230.6V273.9H173.4M173.4,273.9V204.1H201.4M201.4,204.1V198.5H229.5M201.4,204.1V209.8H229.5M173.4,273.9V343.6H201.4M201.4,343.6V266.1H229.5M229.5,266.1V221H257.5M229.5,266.1V311.1H257.5M257.5,311.1V280.1H285.6M285.6,280.1V243.4H313.6M313.6,243.4V232.3H341.7M313.6,243.4V254.5H341.7M341.7,254.5V243.5H369.8M341.7,254.5V265.4H369.8M369.8,265.4V254.8H397.8M369.8,265.4V275.9H397.8M397.8,275.9V266.1H425.9M397.8,275.9V285.8H425.9M425.9,285.8V277.3H453.9M425.9,285.8V294.2H453.9M453.9,294.2V288.6H482M453.9,294.2V299.9H482M285.6,280.1V316.8H313.6M313.6,316.8V311.1H341.7M313.6,316.8V322.4H341.7M257.5,311.1V342.1H285.6M285.6,342.1V333.7H313.6M285.6,342.1V350.6H313.6M313.6,350.6V344.9H341.7M313.6,350.6V356.2H341.7M201.4,343.6V421.2H229.5M229.5,421.2V378H257.5M257.5,378V367.5H285.6M257.5,378V388.6H285.6M285.6,388.6V378.7H313.6M285.6,388.6V398.4H313.6M313.6,398.4V390H341.7M313.6,398.4V406.9H341.7M341.7,406.9V401.2H369.8M341.7,406.9V412.5H369.8M229.5,421.2V464.4H257.5M257.5,464.4V429.4H285.6M285.6,429.4V423.8H313.6M285.6,429.4V435H313.6M257.5,464.4V499.5H285.6M285.6,499.5V476.6H313.6M313.6,476.6V456.2H341.7M341.7,456.2V446.3H369.8M341.7,456.2V466H369.8M369.8,466V457.6H397.8M369.8,466V474.5H397.8M397.8,474.5V468.8H425.9M397.8,474.5V480.1H425.9M313.6,476.6V497H341.7M341.7,497V491.4H369.8M341.7,497V502.6H369.8M285.6,499.5V522.3H313.6M313.6,522.3V513.9H341.7M313.6,522.3V530.8H341.7M341.7,530.8V525.2H369.8M341.7,530.8V536.4H369.8M33.1,315.2V547.7H61.1M5,446.2V577.2H33.1M33.1,577.2V564.6H61.1M61.1,564.6V558.9H89.2M61.1,564.6V570.2H89.2" stroke="#fc8d59"></path><path d="M33.1,577.2V589.9H61.1M61.1,589.9V581.5H89.2M61.1,589.9V598.4H89.2M89.2,598.4V592.7H117.2M89.2,598.4V604H117.2" stroke="#91bfdb"></path><text x="7" y="449.2" class="node" fill="#4A6FE3">1</text><text x="35.1" y="318.2" class="node" fill="#4A6FE3">1</text><text x="63.1" y="85.7" class="node" fill="#4A6FE3">1</text><text x="91.2" y="15.6" class="node" fill="#4A6FE3">1</text><text x="91.2" y="155.7" class="node" fill="#B6BDE3">0.66</text><text x="119.2" y="105.2" class="node" fill="#E59FAC">0.29</text><text x="147.3" y="68.8" class="node" fill="#4A6FE3">1</text><text x="175.4" y="43.1" class="node" fill="#E07C92">0.17</text><text x="203.4" y="53.6" class="node" fill="#7A8DE1">0.87</text><text x="231.5" y="63.5" class="node" fill="#C1C6E3">0.62</text><text x="259.5" y="72" class="node" fill="#4A6FE3">1</text><text x="175.4" y="94.5" class="node" fill="#E6B1BB">0.34</text><text x="147.3" y="141.6" class="node" fill="#E59FAC">0.29</text><text x="175.4" y="121.2" class="node" fill="#E59FAC">0.29</text><text x="203.4" y="131.1" class="node" fill="#DB617F">0.09</text><text x="231.5" y="139.5" class="node" fill="#E6C1C7">0.39</text><text x="175.4" y="162.1" class="node" fill="#E59FAC">0.29</text><text x="119.2" y="206.3" class="node" fill="#E59FAC">0.29</text><text x="147.3" y="233.6" class="node" fill="#E59FAC">0.29</text><text x="175.4" y="276.9" class="node" fill="#667FE1">0.93</text><text x="203.4" y="207.1" class="node" fill="#DD6F88">0.13</text><text x="203.4" y="346.6" class="node" fill="#DD6F88">0.13</text><text x="231.5" y="269.1" class="node" fill="#ABB4E2">0.7</text><text x="259.5" y="314.1" class="node" fill="#97A4E2">0.77</text><text x="287.6" y="283.1" class="node" fill="#9AA6E2">0.76</text><text x="315.6" y="246.4" class="node" fill="#929FE1">0.79</text><text x="343.7" y="257.5" class="node" fill="#929FE1">0.79</text><text x="371.8" y="268.4" class="node" fill="#929FE1">0.79</text><text x="399.8" y="278.9" class="node" fill="#7A8DE1">0.87</text><text x="427.9" y="288.8" class="node" fill="#4A6FE3">1</text><text x="455.9" y="297.2" class="node" fill="#929FE1">0.79</text><text x="315.6" y="319.8" class="node" fill="#4A6FE3">1</text><text x="287.6" y="345.1" class="node" fill="#E28699">0.2</text><text x="315.6" y="353.6" class="node" fill="#DDDEE3">0.52</text><text x="231.5" y="424.2" class="node" fill="#DD6F88">0.13</text><text x="259.5" y="381" class="node" fill="#DD6F88">0.13</text><text x="287.6" y="391.6" class="node" fill="#DD6F88">0.13</text><text x="315.6" y="401.4" class="node" fill="#4A6FE3">1</text><text x="343.7" y="409.9" class="node" fill="#4A6FE3">1</text><text x="259.5" y="467.4" class="node" fill="#E49CAA">0.27</text><text x="287.6" y="432.4" class="node" fill="#E49CAA">0.27</text><text x="287.6" y="502.5" class="node" fill="#E49CAA">0.27</text><text x="315.6" y="479.6" class="node" fill="#E4D6D8">0.46</text><text x="343.7" y="459.2" class="node" fill="#AEB6E2">0.69</text><text x="371.8" y="469" class="node" fill="#E6B1BB">0.34</text><text x="399.8" y="477.5" class="node" fill="#5776E2">0.97</text><text x="343.7" y="500" class="node" fill="#E6B4BD">0.35</text><text x="315.6" y="525.3" class="node" fill="#E5D0D3">0.44</text><text x="343.7" y="533.8" class="node" fill="#E59FAC">0.28</text><text x="35.1" y="580.2" class="node" fill="#4A6FE3">1</text><text x="63.1" y="567.6" class="node" fill="#4A6FE3">1</text><text x="63.1" y="592.9" class="node" fill="#4A6FE3">1</text><text x="91.2" y="601.4" class="node" fill="#6D84E1">0.91</text></svg>
