<svg xmlns="http://www.w3.org/2000/svg" version="1.1" width="682" height="682" class="tree" data-char="176"><text x="678" y="15.4" text-anchor="end" class="stepsLabel">Character adds <tspan class="score">1</tspan> to tree score</text><text x="678" y="27.8" text-anchor="end" class="stepsLabel"><tspan class="score">0</tspan> additional regions</text><text x="678" y="40.2" text-anchor="end" class="stepsLabel">CI = 1; Fitch CI = 1; Fitch RI = 1</text><text x="678" y="65" text-anchor="end" class="stepsLabel"><tspan dy="16" fill="#34caaf">An optimal tree under:</tspan><tspan x="680" style="font-style:italic" class="notThisAn" dy="1.2em">Equal weights</tspan><tspan x="680" style="font-style:italic" class="thisAn" dy="1.2em">Implied weights, k = 2</tspan><tspan x="680" style="font-style:italic" class="thisAn" dy="1.2em">IW, k = 3</tspan><tspan x="680" style="font-style:italic" class="notThisAn" dy="1.2em">IW, k = 4.5</tspan><tspan x="680" style="font-style:italic" class="notThisAn" dy="1.2em">IW, k = 7</tspan><tspan x="680" style="font-style:italic" class="notThisAn" dy="1.2em">IW, k = 10.5</tspan><tspan x="680" style="font-style:italic" class="notThisAn" dy="1.2em">IW, k = 16</tspan><tspan x="680" style="font-style:italic" class="notThisAn" dy="1.2em">IW, k = 24</tspan></text><text x="124.2" y="664.4" fill="#91bfdb" class="flag">[1]</text><text x="146.2" y="664.4" fill="#000" class="taxonLabel">Dentalium</text><text x="124.2" y="677" fill="#91bfdb" class="flag">[1]</text><text x="146.2" y="677" fill="#000" class="taxonLabel">Tonicella</text><text x="94.4" y="651.8" fill="grey" class="flag">[?]</text><text x="116.4" y="651.8" fill="#999" class="taxonLabel">Wiwaxia corrugata</text><text x="94.4" y="626.7" fill="#91bfdb" class="flag">[1]</text><text x="116.4" y="626.7" fill="#000" class="taxonLabel">Sipunculus</text><text x="94.4" y="639.2" fill="#91bfdb" class="flag">[1]</text><text x="116.4" y="639.2" fill="#000" class="taxonLabel">Serpula</text><text x="124.2" y="601.5" fill="#fc8d59" class="flag">[0]</text><text x="146.2" y="601.5" fill="#000" class="taxonLabel">Amathia</text><text x="124.2" y="614.1" fill="#fc8d59" class="flag">[0]</text><text x="146.2" y="614.1" fill="#000" class="taxonLabel">Flustra</text><text x="392.6" y="576.3" fill="grey" class="flag">[?]</text><text x="414.6" y="576.3" fill="#999" class="taxonLabel">Pauxillites</text><text x="392.6" y="588.9" fill="grey" class="flag">[?]</text><text x="414.6" y="588.9" fill="#999" class="taxonLabel">Maxilites</text><text x="362.8" y="563.7" fill="grey" class="flag">[?]</text><text x="384.8" y="563.7" fill="#999" class="taxonLabel">Haplophrentis carinatus</text><text x="332.9" y="551.2" fill="grey" class="flag">[?]</text><text x="354.9" y="551.2" fill="#999" class="taxonLabel">Paramicrocornus</text><text x="392.6" y="526" fill="grey" class="flag">[?]</text><text x="414.6" y="526" fill="#999" class="taxonLabel">Namacalathus</text><text x="392.6" y="538.6" fill="#fc8d59" class="flag">[0]</text><text x="414.6" y="538.6" fill="#000" class="taxonLabel">Phoronis</text><text x="362.8" y="513.4" fill="grey" class="flag">[?]</text><text x="384.8" y="513.4" fill="#999" class="taxonLabel">Cotyledion tylodes</text><text x="362.8" y="488.2" fill="grey" class="flag">[?]</text><text x="384.8" y="488.2" fill="#999" class="taxonLabel">Conotheca</text><text x="362.8" y="500.8" fill="grey" class="flag">[?]</text><text x="384.8" y="500.8" fill="#999" class="taxonLabel">Bactrotheca</text><text x="273.3" y="475.6" fill="grey" class="flag">[?]</text><text x="295.3" y="475.6" fill="#999" class="taxonLabel">Cupitheca holocyclata</text><text x="243.5" y="463.1" fill="grey" class="flag">[?]</text><text x="265.5" y="463.1" fill="#999" class="taxonLabel">Pedunculotheca diania</text><text x="362.8" y="437.9" fill="grey" class="flag">[?]</text><text x="384.8" y="437.9" fill="#999" class="taxonLabel">Siphonobolus priscus</text><text x="362.8" y="450.5" fill="grey" class="flag">[?]</text><text x="384.8" y="450.5" fill="#999" class="taxonLabel">Acanthotretella spinosa</text><text x="482" y="412.7" fill="grey" class="flag">[?]</text><text x="504" y="412.7" fill="#999" class="taxonLabel">Eoobolus</text><text x="482" y="425.3" fill="grey" class="flag">[?]</text><text x="504" y="425.3" fill="#999" class="taxonLabel">Mummpikia nuda</text><text x="452.2" y="400.1" fill="grey" class="flag">[?]</text><text x="474.2" y="400.1" fill="#999" class="taxonLabel">Botsfordia</text><text x="422.4" y="387.5" fill="grey" class="flag">[?]</text><text x="444.4" y="387.5" fill="#999" class="taxonLabel">Lingulellotreta malongensis</text><text x="422.4" y="362.4" fill="#fc8d59" class="flag">[0]</text><text x="444.4" y="362.4" fill="#000" class="taxonLabel">Pelagodiscus atlanticus</text><text x="422.4" y="375" fill="#fc8d59" class="flag">[0]</text><text x="444.4" y="375" fill="#000" class="taxonLabel">Lingula</text><text x="362.8" y="349.8" fill="grey" class="flag">[?]</text><text x="384.8" y="349.8" fill="#999" class="taxonLabel">Lingulosacculus</text><text x="303.1" y="337.2" fill="grey" class="flag">[?]</text><text x="325.1" y="337.2" fill="#999" class="taxonLabel">Clupeafumosus socialis</text><text x="273.3" y="324.6" fill="grey" class="flag">[?]</text><text x="295.3" y="324.6" fill="#999" class="taxonLabel">Mickwitzia muralensis</text><text x="452.2" y="299.5" fill="#fc8d59" class="flag">[0]</text><text x="474.2" y="299.5" fill="#000" class="taxonLabel">Terebratulina</text><text x="452.2" y="312" fill="grey" class="flag">[?]</text><text x="474.2" y="312" fill="#999" class="taxonLabel">Orthis</text><text x="422.4" y="286.9" fill="grey" class="flag">[?]</text><text x="444.4" y="286.9" fill="#999" class="taxonLabel">Alisina</text><text x="422.4" y="261.7" fill="grey" class="flag">[?]</text><text x="444.4" y="261.7" fill="#999" class="taxonLabel">Glyptoria</text><text x="422.4" y="274.3" fill="grey" class="flag">[?]</text><text x="444.4" y="274.3" fill="#999" class="taxonLabel">Longtancunella chengjiangensis</text><text x="422.4" y="236.5" fill="grey" class="flag">[?]</text><text x="444.4" y="236.5" fill="#999" class="taxonLabel">Nisusia sulcata</text><text x="422.4" y="249.1" fill="grey" class="flag">[?]</text><text x="444.4" y="249.1" fill="#999" class="taxonLabel">Kutorgina chengjiangensis</text><text x="452.2" y="211.4" fill="grey" class="flag">[?]</text><text x="474.2" y="211.4" fill="#999" class="taxonLabel">Antigonambonites planus</text><text x="452.2" y="223.9" fill="grey" class="flag">[?]</text><text x="474.2" y="223.9" fill="#999" class="taxonLabel">Coolinia pecten</text><text x="482" y="186.2" fill="grey" class="flag">[?]</text><text x="504" y="186.2" fill="#999" class="taxonLabel">Yuganotheca elegans</text><text x="482" y="198.8" fill="grey" class="flag">[?]</text><text x="504" y="198.8" fill="#999" class="taxonLabel">Tomteluva perturbata</text><text x="452.2" y="173.6" fill="grey" class="flag">[?]</text><text x="474.2" y="173.6" fill="#999" class="taxonLabel">Salanygolina</text><text x="332.9" y="161" fill="grey" class="flag">[?]</text><text x="354.9" y="161" fill="#999" class="taxonLabel">Micrina</text><text x="303.1" y="148.4" fill="grey" class="flag">[?]</text><text x="325.1" y="148.4" fill="#999" class="taxonLabel">Askepasma toddense</text><text x="422.4" y="123.3" fill="#fc8d59" class="flag">[0]</text><text x="444.4" y="123.3" fill="#000" class="taxonLabel">Novocrania</text><text x="422.4" y="135.8" fill="grey" class="flag">[?]</text><text x="444.4" y="135.8" fill="#999" class="taxonLabel">Craniops</text><text x="392.6" y="110.7" fill="grey" class="flag">[?]</text><text x="414.6" y="110.7" fill="#999" class="taxonLabel">Ussunia</text><text x="362.8" y="98.1" fill="grey" class="flag">[?]</text><text x="384.8" y="98.1" fill="#999" class="taxonLabel">Heliomedusa orienta</text><text x="332.9" y="85.5" fill="grey" class="flag">[?]</text><text x="354.9" y="85.5" fill="#999" class="taxonLabel">Gasconsia</text><text x="303.1" y="72.9" fill="grey" class="flag">[?]</text><text x="325.1" y="72.9" fill="#999" class="taxonLabel">Micromitra</text><text x="183.9" y="60.3" fill="grey" class="flag">[?]</text><text x="205.9" y="60.3" fill="#999" class="taxonLabel">Paterimitra</text><text x="183.9" y="35.2" fill="grey" class="flag">[?]</text><text x="205.9" y="35.2" fill="#999" class="taxonLabel">Halkieria evangelista</text><text x="183.9" y="47.8" fill="grey" class="flag">[?]</text><text x="205.9" y="47.8" fill="#999" class="taxonLabel">Dailyatia</text><text x="124.2" y="22.6" fill="grey" class="flag">[?]</text><text x="146.2" y="22.6" fill="#999" class="taxonLabel">Eccentrotheca</text><text x="64.6" y="10" fill="#fc8d59" class="flag">[0]</text><text x="86.6" y="10" fill="#000" class="taxonLabel">Loxosomella</text><path d="M5,408.3V172.6H34.8M34.8,172.6V7H64.6M34.8,172.6V338.1H64.6M64.6,338.1V71.4H94.4M94.4,71.4V19.6H124.2M94.4,71.4V123.3H124.2M124.2,123.3V38.5H154.1M154.1,38.5V32.2H183.9M154.1,38.5V44.8H183.9M124.2,123.3V208.1H154.1M154.1,208.1V57.3H183.9M154.1,208.1V359H183.9M183.9,359V236.6H213.7M213.7,236.6V128.3H243.5M243.5,128.3V82.1H273.3M273.3,82.1V69.9H303.1M273.3,82.1V94.3H303.1M303.1,94.3V82.5H332.9M303.1,94.3V106.1H332.9M332.9,106.1V95.1H362.8M332.9,106.1V117.1H362.8M362.8,117.1V107.7H392.6M362.8,117.1V126.6H392.6M392.6,126.6V120.3H422.4M392.6,126.6V132.8H422.4M243.5,128.3V174.4H273.3M273.3,174.4V145.4H303.1M273.3,174.4V203.4H303.1M303.1,203.4V158H332.9M303.1,203.4V248.9H332.9M332.9,248.9V218.6H362.8M362.8,218.6V197.3H392.6M392.6,197.3V180H422.4M422.4,180V170.6H452.2M422.4,180V189.5H452.2M452.2,189.5V183.2H482M452.2,189.5V195.8H482M392.6,197.3V214.7H422.4M422.4,214.7V208.4H452.2M422.4,214.7V220.9H452.2M362.8,218.6V239.8H392.6M392.6,239.8V233.5H422.4M392.6,239.8V246.1H422.4M332.9,248.9V279.1H362.8M362.8,279.1V265H392.6M392.6,265V258.7H422.4M392.6,265V271.3H422.4M362.8,279.1V293.3H392.6M392.6,293.3V283.9H422.4M392.6,293.3V302.7H422.4M422.4,302.7V296.5H452.2M422.4,302.7V309H452.2M213.7,236.6V345H243.5M243.5,345V321.6H273.3M243.5,345V368.3H273.3M273.3,368.3V334.2H303.1M273.3,368.3V402.4H303.1M303.1,402.4V363.7H332.9M332.9,363.7V346.8H362.8M332.9,363.7V380.6H362.8M362.8,380.6V365.7H392.6M392.6,365.7V359.4H422.4M392.6,365.7V372H422.4M362.8,380.6V395.6H392.6M392.6,395.6V384.5H422.4M392.6,395.6V406.6H422.4M422.4,406.6V397.1H452.2M422.4,406.6V416H452.2M452.2,416V409.7H482M452.2,416V422.3H482M303.1,402.4V441.2H332.9M332.9,441.2V434.9H362.8M332.9,441.2V447.5H362.8M183.9,359V481.3H213.7M213.7,481.3V460.1H243.5M213.7,481.3V502.5H243.5M243.5,502.5V472.6H273.3M243.5,502.5V532.4H273.3M273.3,532.4V505.7H303.1M303.1,505.7V491.5H332.9M332.9,491.5V485.2H362.8M332.9,491.5V497.8H362.8M303.1,505.7V519.8H332.9M332.9,519.8V510.4H362.8M332.9,519.8V529.3H362.8M362.8,529.3V523H392.6M362.8,529.3V535.6H392.6M273.3,532.4V559.2H303.1M303.1,559.2V548.2H332.9M303.1,559.2V570.2H332.9M332.9,570.2V560.7H362.8M332.9,570.2V579.6H362.8M362.8,579.6V573.3H392.6M362.8,579.6V585.9H392.6M64.6,338.1V604.8H94.4M94.4,604.8V598.5H124.2M94.4,604.8V611.1H124.2" stroke="#fc8d59"></path><path d="M5,408.3V644.1H34.8M34.8,644.1V630H64.6M64.6,630V623.7H94.4M64.6,630V636.2H94.4M34.8,644.1V658.3H64.6M64.6,658.3V648.8H94.4M64.6,658.3V667.7H94.4M94.4,667.7V661.4H124.2M94.4,667.7V674H124.2" stroke="#91bfdb"></path><text x="7" y="411.3" class="node" fill="#4A6FE3">1</text><text x="36.8" y="175.6" class="node" fill="#4A6FE3">1</text><text x="66.6" y="341.1" class="node" fill="#4A6FE3">1</text><text x="96.4" y="74.4" class="node" fill="#4A6FE3">1</text><text x="126.2" y="126.3" class="node" fill="#DC6884">0.11</text><text x="156.1" y="41.5" class="node" fill="#DC6884">0.11</text><text x="156.1" y="211.1" class="node" fill="#DC6884">0.11</text><text x="185.9" y="362" class="node" fill="#DC6884">0.11</text><text x="215.7" y="239.6" class="node" fill="#8998E1">0.82</text><text x="245.5" y="131.3" class="node" fill="#DC6884">0.11</text><text x="275.3" y="85.1" class="node" fill="#DC6884">0.11</text><text x="305.1" y="97.3" class="node" fill="#AEB6E2">0.69</text><text x="334.9" y="109.1" class="node" fill="#E5A5B1">0.3</text><text x="364.8" y="120.1" class="node" fill="#8998E1">0.82</text><text x="394.6" y="129.6" class="node" fill="#8998E1">0.82</text><text x="275.3" y="177.4" class="node" fill="#DC6884">0.11</text><text x="305.1" y="206.4" class="node" fill="#DC6884">0.11</text><text x="334.9" y="251.9" class="node" fill="#7A8DE1">0.87</text><text x="364.8" y="221.6" class="node" fill="#DC6884">0.11</text><text x="394.6" y="200.3" class="node" fill="#DC6884">0.11</text><text x="424.4" y="183" class="node" fill="#E38FA0">0.23</text><text x="454.2" y="192.5" class="node" fill="#E6BDC5">0.38</text><text x="424.4" y="217.7" class="node" fill="#4A6FE3">1</text><text x="394.6" y="242.8" class="node" fill="#8998E1">0.82</text><text x="364.8" y="282.1" class="node" fill="#E392A2">0.24</text><text x="394.6" y="268" class="node" fill="#DD6C86">0.12</text><text x="394.6" y="296.3" class="node" fill="#4A6FE3">1</text><text x="424.4" y="305.7" class="node" fill="#8C9BE1">0.81</text><text x="245.5" y="348" class="node" fill="#7A8DE1">0.87</text><text x="275.3" y="371.3" class="node" fill="#BFC4E3">0.63</text><text x="305.1" y="405.4" class="node" fill="#DC6884">0.11</text><text x="334.9" y="366.7" class="node" fill="#D54C71">0.03</text><text x="364.8" y="383.6" class="node" fill="#DC6884">0.11</text><text x="394.6" y="368.7" class="node" fill="#DC6884">0.11</text><text x="394.6" y="398.6" class="node" fill="#E6ABB6">0.32</text><text x="424.4" y="409.6" class="node" fill="#D2D4E3">0.57</text><text x="454.2" y="419" class="node" fill="#E4D6D8">0.46</text><text x="334.9" y="444.2" class="node" fill="#4A6FE3">1</text><text x="215.7" y="484.3" class="node" fill="#DC6884">0.11</text><text x="245.5" y="505.5" class="node" fill="#DC6884">0.11</text><text x="275.3" y="535.4" class="node" fill="#DC6884">0.11</text><text x="305.1" y="508.7" class="node" fill="#DC6884">0.11</text><text x="334.9" y="494.5" class="node" fill="#667FE1">0.93</text><text x="334.9" y="522.8" class="node" fill="#DC6884">0.11</text><text x="364.8" y="532.3" class="node" fill="#E6C1C7">0.39</text><text x="305.1" y="562.2" class="node" fill="#4A6FE3">1</text><text x="334.9" y="573.2" class="node" fill="#4A6FE3">1</text><text x="364.8" y="582.6" class="node" fill="#4A6FE3">1</text><text x="96.4" y="607.8" class="node" fill="#4A6FE3">1</text><text x="36.8" y="647.1" class="node" fill="#4A6FE3">1</text><text x="66.6" y="633" class="node" fill="#4A6FE3">1</text><text x="66.6" y="661.3" class="node" fill="#4A6FE3">1</text><text x="96.4" y="670.7" class="node" fill="#4A6FE3">1</text></svg>
