<svg xmlns="http://www.w3.org/2000/svg" version="1.1" width="682" height="612" class="tree" data-char="119"><text x="678" y="15.4" text-anchor="end" class="stepsLabel">Character adds <tspan class="score">6</tspan> to tree score</text><text x="678" y="27.8" text-anchor="end" class="stepsLabel"><tspan class="score">1</tspan> additional region</text><text x="678" y="40.2" text-anchor="end" class="stepsLabel">CI = 0.17; Fitch CI = 0.2; Fitch RI = 0.56</text><text x="678" y="65" text-anchor="end" class="stepsLabel"><tspan dy="16">An optimal tree under:</tspan><tspan x="680" style="font-style:italic" class="thisAn" dy="1.2em">Equal weights</tspan><tspan x="680" style="font-style:italic" class="notThisAn" dy="1.2em">Implied weights, k = 2</tspan><tspan x="680" style="font-style:italic" class="notThisAn" dy="1.2em">IW, k = 3</tspan><tspan x="680" style="font-style:italic" class="notThisAn" dy="1.2em">IW, k = 4.5</tspan><tspan x="680" style="font-style:italic" class="notThisAn" dy="1.2em">IW, k = 7</tspan><tspan x="680" style="font-style:italic" class="notThisAn" dy="1.2em">IW, k = 10.5</tspan><tspan x="680" style="font-style:italic" class="notThisAn" dy="1.2em">IW, k = 16</tspan><tspan x="680" style="font-style:italic" class="notThisAn" dy="1.2em">IW, k = 24</tspan></text><text x="84.5" y="594.3" fill="#91bfdb" class="flag">[2]</text><text x="106.5" y="594.3" fill="#000" class="taxonLabel">Sipunculus</text><text x="84.5" y="607" fill="#91bfdb" class="flag">[2]</text><text x="106.5" y="607" fill="#000" class="taxonLabel">Serpula</text><text x="111" y="568.9" fill="lightgrey" class="flag">[-]</text><text x="133" y="568.9" fill="#ccc" class="taxonLabel">Tonicella</text><text x="111" y="581.6" fill="lightgrey" class="flag">[-]</text><text x="133" y="581.6" fill="#ccc" class="taxonLabel">Dentalium</text><text x="84.5" y="556.2" fill="lightgrey" class="flag">[-]</text><text x="106.5" y="556.2" fill="#ccc" class="taxonLabel">Wiwaxia corrugata</text><text x="243.5" y="518.1" fill="#91bfdb" class="flag">[2]</text><text x="265.5" y="518.1" fill="#000" class="taxonLabel">Pedunculotheca diania</text><text x="243.5" y="530.8" fill="#91bfdb" class="flag">[2]</text><text x="265.5" y="530.8" fill="#000" class="taxonLabel">Haplophrentis carinatus</text><text x="217" y="505.4" fill="#e2e2a2" class="flag">[1]</text><text x="239" y="505.4" fill="#000" class="taxonLabel">Paterimitra</text><text x="296.5" y="480" fill="#e2e2a2" class="flag">[1]</text><text x="318.5" y="480" fill="#000" class="taxonLabel">Craniops</text><text x="296.5" y="492.7" fill="#e2e2a2" class="flag">[1]</text><text x="318.5" y="492.7" fill="#000" class="taxonLabel">Novocrania</text><text x="270" y="467.3" fill="#91bfdb" class="flag">[2]</text><text x="292" y="467.3" fill="#000" class="taxonLabel">Heliomedusa orienta</text><text x="482" y="441.9" fill="lightgrey" class="flag">[-]</text><text x="504" y="441.9" fill="#ccc" class="taxonLabel">Acanthotretella spinosa</text><text x="482" y="454.6" fill="lightgrey" class="flag">[-]</text><text x="504" y="454.6" fill="#ccc" class="taxonLabel">Siphonobolus priscus</text><text x="482" y="416.5" fill="lightgrey" class="flag">[-]</text><text x="504" y="416.5" fill="#ccc" class="taxonLabel">Lingulosacculus</text><text x="482" y="429.2" fill="lightgrey" class="flag">[-]</text><text x="504" y="429.2" fill="#ccc" class="taxonLabel">Clupeafumosus socialis</text><text x="429" y="403.8" fill="lightgrey" class="flag">[-]</text><text x="451" y="403.8" fill="#ccc" class="taxonLabel">Lingulellotreta malongensis</text><text x="402.5" y="391.1" fill="lightgrey" class="flag">[-]</text><text x="424.5" y="391.1" fill="#ccc" class="taxonLabel">Botsfordia</text><text x="376" y="378.4" fill="lightgrey" class="flag">[-]</text><text x="398" y="378.4" fill="#ccc" class="taxonLabel">Mummpikia nuda</text><text x="349.5" y="365.7" fill="lightgrey" class="flag">[-]</text><text x="371.5" y="365.7" fill="#ccc" class="taxonLabel">Eoobolus</text><text x="323" y="353" fill="lightgrey" class="flag">[-]</text><text x="345" y="353" fill="#ccc" class="taxonLabel">Lingula</text><text x="296.5" y="340.3" fill="grey" class="flag">[12]</text><text x="318.5" y="340.3" fill="#999" class="taxonLabel">Micrina</text><text x="296.5" y="314.9" fill="#91bfdb" class="flag">[2]</text><text x="318.5" y="314.9" fill="#000" class="taxonLabel">Mickwitzia muralensis</text><text x="296.5" y="327.6" fill="lightgrey" class="flag">[-]</text><text x="318.5" y="327.6" fill="#ccc" class="taxonLabel">Pelagodiscus atlanticus</text><text x="323" y="289.4" fill="lightgrey" class="flag">[-]</text><text x="345" y="289.4" fill="#ccc" class="taxonLabel">Coolinia pecten</text><text x="323" y="302.1" fill="#e2e2a2" class="flag">[1]</text><text x="345" y="302.1" fill="#000" class="taxonLabel">Antigonambonites planus</text><text x="455.5" y="264" fill="lightgrey" class="flag">[-]</text><text x="477.5" y="264" fill="#ccc" class="taxonLabel">Terebratulina</text><text x="455.5" y="276.7" fill="lightgrey" class="flag">[-]</text><text x="477.5" y="276.7" fill="#ccc" class="taxonLabel">Orthis</text><text x="429" y="251.3" fill="#e2e2a2" class="flag">[1]</text><text x="451" y="251.3" fill="#000" class="taxonLabel">Alisina</text><text x="402.5" y="238.6" fill="lightgrey" class="flag">[-]</text><text x="424.5" y="238.6" fill="#ccc" class="taxonLabel">Longtancunella chengjiangensis</text><text x="376" y="225.9" fill="lightgrey" class="flag">[-]</text><text x="398" y="225.9" fill="#ccc" class="taxonLabel">Glyptoria</text><text x="349.5" y="213.2" fill="lightgrey" class="flag">[-]</text><text x="371.5" y="213.2" fill="#ccc" class="taxonLabel">Nisusia sulcata</text><text x="323" y="200.5" fill="lightgrey" class="flag">[-]</text><text x="345" y="200.5" fill="#ccc" class="taxonLabel">Kutorgina chengjiangensis</text><text x="323" y="175.1" fill="lightgrey" class="flag">[-]</text><text x="345" y="175.1" fill="#ccc" class="taxonLabel">Yuganotheca elegans</text><text x="323" y="187.8" fill="lightgrey" class="flag">[-]</text><text x="345" y="187.8" fill="#ccc" class="taxonLabel">Tomteluva perturbata</text><text x="296.5" y="162.4" fill="#91bfdb" class="flag">[2]</text><text x="318.5" y="162.4" fill="#000" class="taxonLabel">Salanygolina</text><text x="270" y="137" fill="#91bfdb" class="flag">[2]</text><text x="292" y="137" fill="#000" class="taxonLabel">Askepasma toddense</text><text x="270" y="149.7" fill="#e2e2a2" class="flag">[1]</text><text x="292" y="149.7" fill="#000" class="taxonLabel">Micromitra</text><text x="164" y="124.3" fill="grey" class="flag">[?]</text><text x="186" y="124.3" fill="#999" class="taxonLabel">Gasconsia</text><text x="270" y="98.9" fill="lightgrey" class="flag">[-]</text><text x="292" y="98.9" fill="#ccc" class="taxonLabel">Phoronis</text><text x="270" y="111.6" fill="lightgrey" class="flag">[-]</text><text x="292" y="111.6" fill="#ccc" class="taxonLabel">Namacalathus</text><text x="243.5" y="86.2" fill="#e2e2a2" class="flag">[1]</text><text x="265.5" y="86.2" fill="#000" class="taxonLabel">Eccentrotheca</text><text x="217" y="73.5" fill="#e2e2a2" class="flag">[1]</text><text x="239" y="73.5" fill="#000" class="taxonLabel">Dailyatia</text><text x="190.5" y="60.8" fill="#e2e2a2" class="flag">[1]</text><text x="212.5" y="60.8" fill="#000" class="taxonLabel">Cotyledion tylodes</text><text x="164" y="48.1" fill="#e2e2a2" class="flag">[1]</text><text x="186" y="48.1" fill="#000" class="taxonLabel">Halkieria evangelista</text><text x="111" y="35.4" fill="lightgrey" class="flag">[-]</text><text x="133" y="35.4" fill="#ccc" class="taxonLabel">Ussunia</text><text x="111" y="10" fill="#91bfdb" class="flag">[2]</text><text x="133" y="10" fill="#000" class="taxonLabel">Flustra</text><text x="111" y="22.7" fill="#91bfdb" class="flag">[2]</text><text x="133" y="22.7" fill="#000" class="taxonLabel">Amathia</text><text x="58" y="543.5" fill="#91bfdb" class="flag">[2]</text><text x="80" y="543.5" fill="#000" class="taxonLabel">Loxosomella</text><path d="M5,438.9V297.5H31.5M31.5,297.5V54.6H58M58,54.6V13.4H84.5M84.5,13.4V7H111M84.5,13.4V19.7H111M58,54.6V95.8H84.5M84.5,95.8V159.2H111M111,159.2V261H137.5M137.5,261V121.3H164M137.5,261V400.8H164M164,400.8V289.6H190.5M190.5,289.6V175.3H217M217,175.3V140.4H243.5M243.5,140.4V134H270M217,175.3V210.2H243.5M243.5,210.2V169H270M270,169V159.4H296.5M243.5,210.2V251.4H270M190.5,289.6V404H217M217,404V334.1H243.5M243.5,334.1V318.2H270M270,318.2V311.9H296.5M243.5,334.1V350.1H270M270,350.1V337.3H296.5M217,404V473.8H243.5M243.5,473.8V464.3H270M164,400.8V511.9H190.5M190.5,511.9V521.4H217M217,521.4V515.1H243.5M217,521.4V527.8H243.5M31.5,297.5V540.5H58M5,438.9V580.2H31.5M31.5,580.2V597.6H58M58,597.6V591.3H84.5M58,597.6V604H84.5" stroke="#91bfdb"></path><path d="M84.5,95.8V32.4H111M217,92.7V102.3H243.5M243.5,102.3V95.9H270M243.5,102.3V108.6H270M270,169V178.5H296.5M296.5,178.5V172.1H323M296.5,178.5V184.8H323M270,251.4V210H296.5M296.5,210V197.5H323M296.5,210V222.5H323M323,222.5V210.2H349.5M323,222.5V234.8H349.5M349.5,234.8V222.9H376M349.5,234.8V246.8H376M376,246.8V235.6H402.5M376,246.8V257.9H402.5M402.5,257.9V267.4H429M429,267.4V261H455.5M429,267.4V273.7H455.5M296.5,292.8V286.4H323M270,318.2V324.6H296.5M270,350.1V362.9H296.5M296.5,362.9V350H323M296.5,362.9V375.8H323M323,375.8V362.7H349.5M323,375.8V388.9H349.5M349.5,388.9V375.4H376M349.5,388.9V402.4H376M376,402.4V388.1H402.5M376,402.4V416.6H402.5M402.5,416.6V400.8H429M402.5,416.6V432.5H429M429,432.5V419.8H455.5M455.5,419.8V413.5H482M455.5,419.8V426.2H482M429,432.5V445.2H455.5M455.5,445.2V438.9H482M455.5,445.2V451.6H482M31.5,580.2V562.7H58M58,562.7V553.2H84.5M58,562.7V572.2H84.5M84.5,572.2V565.9H111M84.5,572.2V578.6H111" stroke="lightgrey" class="inapplicable"></path><path d="M111,159.2V57.4H137.5M137.5,57.4V45.1H164M137.5,57.4V69.7H164M164,69.7V57.8H190.5M164,69.7V81.6H190.5M190.5,81.6V70.5H217M190.5,81.6V92.7H217M217,92.7V83.2H243.5M243.5,140.4V146.7H270M402.5,257.9V248.3H429M296.5,292.8V299.1H323M243.5,473.8V483.3H270M270,483.3V477H296.5M270,483.3V489.7H296.5M190.5,511.9V502.4H217" stroke="#e2e2a2"></path><path d="M270,251.4V292.8H296.5" stroke="darkgrey"></path><text x="7" y="441.9" class="node" fill="#4A6FE3">1</text><text x="33.5" y="300.5" class="node" fill="#4A6FE3">1</text><text x="60" y="57.6" class="node" fill="#97A4E2">0.77</text><text x="86.5" y="16.4" class="node" fill="#4A6FE3">1</text><text x="86.5" y="98.8" class="node" fill="#97A4E2">0.77</text><text x="113" y="162.2" class="node" fill="#DADBE3">0.53</text><text x="139.5" y="60.4" class="node" fill="#DADBE3">0.53</text><text x="166" y="72.7" class="node" fill="#DADBE3">0.53</text><text x="192.5" y="84.6" class="node" fill="#DA5E7D">0.08</text><text x="219" y="95.7" class="node" fill="#DF798F">0.16</text><text x="245.5" y="105.3" class="node" fill="#4A6FE3">1</text><text x="139.5" y="264" class="node" fill="#DADBE3">0.53</text><text x="166" y="403.8" class="node" fill="#DADBE3">0.53</text><text x="192.5" y="292.6" class="node" fill="#DADBE3">0.53</text><text x="219" y="178.3" class="node" fill="#667FE1">0.93</text><text x="245.5" y="143.4" class="node" fill="#4A6FE3">1</text><text x="245.5" y="213.2" class="node" fill="#667FE1">0.93</text><text x="272" y="172" class="node" fill="#E3DFE0">0.49</text><text x="298.5" y="181.5" class="node" fill="#9AA6E2">0.76</text><text x="272" y="254.4" class="node" fill="#7A8DE1">0.87</text><text x="298.5" y="213" class="node" fill="#E4D9DB">0.47</text><text x="325" y="225.5" class="node" fill="#E4D9DB">0.47</text><text x="351.5" y="237.8" class="node" fill="#C7CBE3">0.6</text><text x="378" y="249.8" class="node" fill="#C7CBE3">0.6</text><text x="404.5" y="260.9" class="node" fill="#4A6FE3">1</text><text x="431" y="270.4" class="node" fill="#8696E1">0.83</text><text x="298.5" y="295.8" class="node" fill="#4A6FE3">1</text><text x="219" y="407" class="node" fill="#DADBE3">0.53</text><text x="245.5" y="337.1" class="node" fill="#DADBE3">0.53</text><text x="272" y="321.2" class="node" fill="#9DA8E2">0.75</text><text x="272" y="353.1" class="node" fill="#E6B7C0">0.36</text><text x="298.5" y="365.9" class="node" fill="#9DA8E2">0.75</text><text x="325" y="378.8" class="node" fill="#C1C6E3">0.62</text><text x="351.5" y="391.9" class="node" fill="#DADBE3">0.53</text><text x="378" y="405.4" class="node" fill="#DADBE3">0.53</text><text x="404.5" y="419.6" class="node" fill="#DADBE3">0.53</text><text x="431" y="435.5" class="node" fill="#8F9DE1">0.8</text><text x="457.5" y="422.8" class="node" fill="#E49CAA">0.27</text><text x="457.5" y="448.2" class="node" fill="#4A6FE3">1</text><text x="245.5" y="476.8" class="node" fill="#DADBE3">0.53</text><text x="272" y="486.3" class="node" fill="#4A6FE3">1</text><text x="192.5" y="514.9" class="node" fill="#E6BAC2">0.37</text><text x="219" y="524.4" class="node" fill="#4A6FE3">1</text><text x="33.5" y="583.2" class="node" fill="#4A6FE3">1</text><text x="60" y="565.7" class="node" fill="#4A6FE3">1</text><text x="86.5" y="575.2" class="node" fill="#7A8DE1">0.87</text><text x="60" y="600.6" class="node" fill="#4A6FE3">1</text></svg>
