<svg xmlns="http://www.w3.org/2000/svg" version="1.1" width="682" height="612" class="tree" data-char="126"><text x="678" y="15.7" text-anchor="end" class="stepsLabel">Character adds <tspan class="score">2</tspan> to tree score</text><text x="678" y="28.4" text-anchor="end" class="stepsLabel"><tspan class="score">0</tspan> additional regions</text><text x="678" y="41.1" text-anchor="end" class="stepsLabel">CI = 0.5; Fitch CI = 0.5; Fitch RI = 0.5</text><text x="678" y="66.5" text-anchor="end" class="stepsLabel"><tspan dy="16">An optimal tree under:</tspan><tspan x="680" style="font-style:italic" class="thisAn" dy="1.2em">Equal weights</tspan><tspan x="680" style="font-style:italic" class="notThisAn" dy="1.2em">Implied weights, k = 2</tspan><tspan x="680" style="font-style:italic" class="notThisAn" dy="1.2em">IW, k = 3</tspan><tspan x="680" style="font-style:italic" class="notThisAn" dy="1.2em">IW, k = 4.5</tspan><tspan x="680" style="font-style:italic" class="notThisAn" dy="1.2em">IW, k = 7</tspan><tspan x="680" style="font-style:italic" class="notThisAn" dy="1.2em">IW, k = 10.5</tspan><tspan x="680" style="font-style:italic" class="notThisAn" dy="1.2em">IW, k = 16</tspan><tspan x="680" style="font-style:italic" class="notThisAn" dy="1.2em">IW, k = 24</tspan></text><text x="67.2" y="594" fill="#91bfdb" class="flag">[1]</text><text x="89.2" y="594" fill="#000" class="taxonLabel">Serpula</text><text x="67.2" y="607" fill="#91bfdb" class="flag">[1]</text><text x="89.2" y="607" fill="#000" class="taxonLabel">Sipunculus</text><text x="88" y="568.1" fill="#91bfdb" class="flag">[1]</text><text x="110" y="568.1" fill="#000" class="taxonLabel">Dentalium</text><text x="88" y="581" fill="#91bfdb" class="flag">[1]</text><text x="110" y="581" fill="#000" class="taxonLabel">Tonicella</text><text x="67.2" y="555.1" fill="grey" class="flag">[?]</text><text x="89.2" y="555.1" fill="grey" class="taxonLabel">Wiwaxia corrugata</text><text x="233.1" y="516.2" fill="grey" class="flag">[?]</text><text x="255.1" y="516.2" fill="grey" class="taxonLabel">Haplophrentis carinatus</text><text x="233.1" y="529.1" fill="grey" class="flag">[?]</text><text x="255.1" y="529.1" fill="grey" class="taxonLabel">Pedunculotheca diania</text><text x="440.5" y="490.2" fill="grey" class="flag">[?]</text><text x="462.5" y="490.2" fill="grey" class="taxonLabel">Acanthotretella spinosa</text><text x="440.5" y="503.2" fill="grey" class="flag">[?]</text><text x="462.5" y="503.2" fill="grey" class="taxonLabel">Siphonobolus priscus</text><text x="419.8" y="477.2" fill="grey" class="flag">[?]</text><text x="441.8" y="477.2" fill="grey" class="taxonLabel">Lingulosacculus</text><text x="399" y="464.2" fill="grey" class="flag">[?]</text><text x="421" y="464.2" fill="grey" class="taxonLabel">Clupeafumosus socialis</text><text x="378.3" y="451.3" fill="grey" class="flag">[?]</text><text x="400.3" y="451.3" fill="grey" class="taxonLabel">Lingulellotreta malongensis</text><text x="357.6" y="438.3" fill="grey" class="flag">[?]</text><text x="379.6" y="438.3" fill="grey" class="taxonLabel">Botsfordia</text><text x="336.8" y="425.3" fill="grey" class="flag">[?]</text><text x="358.8" y="425.3" fill="grey" class="taxonLabel">Mummpikia nuda</text><text x="316.1" y="412.3" fill="grey" class="flag">[?]</text><text x="338.1" y="412.3" fill="grey" class="taxonLabel">Eoobolus</text><text x="295.3" y="399.3" fill="#91bfdb" class="flag">[1]</text><text x="317.3" y="399.3" fill="#000" class="taxonLabel">Lingula</text><text x="316.1" y="373.4" fill="grey" class="flag">[?]</text><text x="338.1" y="373.4" fill="grey" class="taxonLabel">Mickwitzia muralensis</text><text x="316.1" y="386.4" fill="#91bfdb" class="flag">[1]</text><text x="338.1" y="386.4" fill="#000" class="taxonLabel">Pelagodiscus atlanticus</text><text x="295.3" y="360.4" fill="grey" class="flag">[?]</text><text x="317.3" y="360.4" fill="grey" class="taxonLabel">Micrina</text><text x="378.3" y="334.5" fill="grey" class="flag">[?]</text><text x="400.3" y="334.5" fill="grey" class="taxonLabel">Coolinia pecten</text><text x="378.3" y="347.4" fill="grey" class="flag">[?]</text><text x="400.3" y="347.4" fill="grey" class="taxonLabel">Antigonambonites planus</text><text x="482" y="308.5" fill="grey" class="flag">[?]</text><text x="504" y="308.5" fill="grey" class="taxonLabel">Orthis</text><text x="482" y="321.5" fill="#91bfdb" class="flag">[1]</text><text x="504" y="321.5" fill="#000" class="taxonLabel">Terebratulina</text><text x="461.3" y="295.5" fill="grey" class="flag">[?]</text><text x="483.3" y="295.5" fill="grey" class="taxonLabel">Alisina</text><text x="440.5" y="282.5" fill="grey" class="flag">[?]</text><text x="462.5" y="282.5" fill="grey" class="taxonLabel">Longtancunella chengjiangensis</text><text x="419.8" y="269.6" fill="grey" class="flag">[?]</text><text x="441.8" y="269.6" fill="grey" class="taxonLabel">Glyptoria</text><text x="399" y="256.6" fill="grey" class="flag">[?]</text><text x="421" y="256.6" fill="grey" class="taxonLabel">Nisusia sulcata</text><text x="378.3" y="243.6" fill="grey" class="flag">[?]</text><text x="400.3" y="243.6" fill="grey" class="taxonLabel">Kutorgina chengjiangensis</text><text x="378.3" y="217.7" fill="grey" class="flag">[?]</text><text x="400.3" y="217.7" fill="grey" class="taxonLabel">Tomteluva perturbata</text><text x="378.3" y="230.6" fill="grey" class="flag">[?]</text><text x="400.3" y="230.6" fill="grey" class="taxonLabel">Yuganotheca elegans</text><text x="357.6" y="204.7" fill="grey" class="flag">[?]</text><text x="379.6" y="204.7" fill="grey" class="taxonLabel">Salanygolina</text><text x="316.1" y="191.7" fill="grey" class="flag">[?]</text><text x="338.1" y="191.7" fill="grey" class="taxonLabel">Gasconsia</text><text x="295.3" y="178.7" fill="grey" class="flag">[?]</text><text x="317.3" y="178.7" fill="grey" class="taxonLabel">Micromitra</text><text x="274.6" y="165.7" fill="grey" class="flag">[?]</text><text x="296.6" y="165.7" fill="grey" class="taxonLabel">Askepasma toddense</text><text x="233.1" y="152.8" fill="grey" class="flag">[?]</text><text x="255.1" y="152.8" fill="grey" class="taxonLabel">Paterimitra</text><text x="191.7" y="139.8" fill="grey" class="flag">[?]</text><text x="213.7" y="139.8" fill="grey" class="taxonLabel">Heliomedusa orienta</text><text x="191.7" y="113.8" fill="#91bfdb" class="flag">[1]</text><text x="213.7" y="113.8" fill="#000" class="taxonLabel">Novocrania</text><text x="191.7" y="126.8" fill="grey" class="flag">[?]</text><text x="213.7" y="126.8" fill="grey" class="taxonLabel">Craniops</text><text x="150.2" y="100.8" fill="grey" class="flag">[?]</text><text x="172.2" y="100.8" fill="grey" class="taxonLabel">Ussunia</text><text x="150.2" y="74.9" fill="grey" class="flag">[?]</text><text x="172.2" y="74.9" fill="grey" class="taxonLabel">Dailyatia</text><text x="150.2" y="87.9" fill="grey" class="flag">[?]</text><text x="172.2" y="87.9" fill="grey" class="taxonLabel">Halkieria evangelista</text><text x="129.4" y="48.9" fill="grey" class="flag">[?]</text><text x="151.4" y="48.9" fill="grey" class="taxonLabel">Cotyledion tylodes</text><text x="129.4" y="61.9" fill="grey" class="flag">[?]</text><text x="151.4" y="61.9" fill="grey" class="taxonLabel">Eccentrotheca</text><text x="108.7" y="23" fill="grey" class="flag">[?]</text><text x="130.7" y="23" fill="grey" class="taxonLabel">Namacalathus</text><text x="108.7" y="36" fill="#fc8d59" class="flag">[0]</text><text x="130.7" y="36" fill="#000" class="taxonLabel">Phoronis</text><text x="67.2" y="10" fill="#fc8d59" class="flag">[0]</text><text x="89.2" y="10" fill="#000" class="taxonLabel">Flustra</text><text x="46.5" y="542.1" fill="#fc8d59" class="flag">[0]</text><text x="68.5" y="542.1" fill="#000" class="taxonLabel">Loxosomella</text><path d="M5,432.2V284.8H25.7M25.7,284.8V30.4H46.5M46.5,30.4V7H67.2M46.5,30.4V53.8H67.2M67.2,53.8V26.5H88M88,26.5V20H108.7M88,26.5V33H108.7M67.2,53.8V81.2H88M25.7,284.8V539.1H46.5" stroke="#fc8d59"></path><path d="M88,81.2V52.4H108.7M108.7,52.4V45.9H129.4M108.7,52.4V58.9H129.4M88,81.2V109.9H108.7M108.7,109.9V78.4H129.4M129.4,78.4V71.9H150.2M129.4,78.4V84.9H150.2M108.7,109.9V141.4H129.4M129.4,141.4V97.8H150.2" stroke="darkgrey"></path><path d="M129.4,141.4V184.9H150.2M150.2,184.9V117.3H170.9M170.9,117.3V110.8H191.7M170.9,117.3V123.8H191.7M150.2,184.9V252.6H170.9M170.9,252.6V136.8H191.7M170.9,252.6V368.4H191.7M191.7,368.4V217.1H212.4M212.4,217.1V149.8H233.1M212.4,217.1V284.4H233.1M233.1,284.4V180.6H253.9M253.9,180.6V162.7H274.6M253.9,180.6V198.4H274.6M274.6,198.4V175.7H295.3M274.6,198.4V221.1H295.3M295.3,221.1V188.7H316.1M295.3,221.1V253.5H316.1M316.1,253.5V211.4H336.8M336.8,211.4V201.7H357.6M336.8,211.4V221.1H357.6M357.6,221.1V214.7H378.3M357.6,221.1V227.6H378.3M316.1,253.5V295.7H336.8M336.8,295.7V253.4H357.6M357.6,253.4V240.6H378.3M357.6,253.4V266.2H378.3M378.3,266.2V253.6H399M378.3,266.2V278.7H399M399,278.7V266.6H419.8M399,278.7V290.9H419.8M419.8,290.9V279.5H440.5M419.8,290.9V302.3H440.5M440.5,302.3V292.5H461.3M440.5,302.3V312H461.3M461.3,312V305.5H482M461.3,312V318.5H482M336.8,295.7V337.9H357.6M357.6,337.9V331.5H378.3M357.6,337.9V344.4H378.3M233.1,284.4V388.2H253.9M253.9,388.2V367.1H274.6M274.6,367.1V357.4H295.3M274.6,367.1V376.9H295.3M295.3,376.9V370.4H316.1M295.3,376.9V383.4H316.1M253.9,388.2V409.3H274.6M274.6,409.3V396.3H295.3M274.6,409.3V422.2H295.3M295.3,422.2V409.3H316.1M295.3,422.2V435.1H316.1M316.1,435.1V422.3H336.8M316.1,435.1V447.9H336.8M336.8,447.9V435.3H357.6M336.8,447.9V460.4H357.6M357.6,460.4V448.3H378.3M357.6,460.4V472.6H378.3M378.3,472.6V461.2H399M378.3,472.6V484H399M399,484V474.2H419.8M399,484V493.7H419.8M419.8,493.7V487.2H440.5M419.8,493.7V500.2H440.5M191.7,368.4V519.6H212.4M212.4,519.6V513.2H233.1M212.4,519.6V526.1H233.1M5,432.2V579.7H25.7M25.7,579.7V561.8H46.5M46.5,561.8V552.1H67.2M46.5,561.8V571.6H67.2M67.2,571.6V565.1H88M67.2,571.6V578H88M25.7,579.7V597.5H46.5M46.5,597.5V591H67.2M46.5,597.5V604H67.2" stroke="#91bfdb"></path><text x="7" y="435.2" class="node" fill="#4A6FE3">1</text><text x="27.7" y="287.8" class="node" fill="#4A6FE3">1</text><text x="48.5" y="33.4" class="node" fill="#6D84E1">0.91</text><text x="69.2" y="56.8" class="node" fill="#5B78E2">0.96</text><text x="90" y="29.5" class="node" fill="#7086E1">0.9</text><text x="90" y="84.2" class="node" fill="#6D84E1">0.91</text><text x="110.7" y="55.4" class="node" fill="#E18297">0.19</text><text x="110.7" y="112.9" class="node" fill="#8C9BE1">0.81</text><text x="131.4" y="81.4" class="node" fill="#A8B1E2">0.71</text><text x="131.4" y="144.4" class="node" fill="#4A6FE3">1</text><text x="152.2" y="187.9" class="node" fill="#E392A2">0.24</text><text x="172.9" y="120.3" class="node" fill="#4A6FE3">1</text><text x="172.9" y="255.6" class="node" fill="#97A4E2">0.77</text><text x="193.7" y="371.4" class="node" fill="#97A4E2">0.77</text><text x="214.4" y="220.1" class="node" fill="#E5D0D3">0.44</text><text x="235.1" y="287.4" class="node" fill="#97A4E2">0.77</text><text x="255.9" y="183.6" class="node" fill="#97A4E2">0.77</text><text x="276.6" y="201.4" class="node" fill="#DD6F88">0.13</text><text x="297.3" y="224.1" class="node" fill="#E28699">0.2</text><text x="318.1" y="256.5" class="node" fill="#4A6FE3">1</text><text x="338.8" y="214.4" class="node" fill="#8C9BE1">0.81</text><text x="359.6" y="224.1" class="node" fill="#5B78E2">0.96</text><text x="338.8" y="298.7" class="node" fill="#7086E1">0.9</text><text x="359.6" y="256.4" class="node" fill="#E6B1BB">0.34</text><text x="380.3" y="269.2" class="node" fill="#E6B1BB">0.34</text><text x="401" y="281.7" class="node" fill="#E6BAC2">0.37</text><text x="421.8" y="293.9" class="node" fill="#E6BAC2">0.37</text><text x="442.5" y="305.3" class="node" fill="#4A6FE3">1</text><text x="463.3" y="315" class="node" fill="#AEB6E2">0.69</text><text x="359.6" y="340.9" class="node" fill="#4A6FE3">1</text><text x="255.9" y="391.2" class="node" fill="#95A1E2">0.78</text><text x="276.6" y="370.1" class="node" fill="#95A1E2">0.78</text><text x="297.3" y="379.9" class="node" fill="#4A6FE3">1</text><text x="276.6" y="412.3" class="node" fill="#4A6FE3">1</text><text x="297.3" y="425.2" class="node" fill="#6D84E1">0.91</text><text x="318.1" y="438.1" class="node" fill="#95A1E2">0.78</text><text x="338.8" y="450.9" class="node" fill="#95A1E2">0.78</text><text x="359.6" y="463.4" class="node" fill="#95A1E2">0.78</text><text x="380.3" y="475.6" class="node" fill="#9DA8E2">0.75</text><text x="401" y="487" class="node" fill="#E495A5">0.25</text><text x="421.8" y="496.7" class="node" fill="#4A6FE3">1</text><text x="214.4" y="522.6" class="node" fill="#4A6FE3">1</text><text x="27.7" y="582.7" class="node" fill="#4A6FE3">1</text><text x="48.5" y="564.8" class="node" fill="#4A6FE3">1</text><text x="69.2" y="574.6" class="node" fill="#4A6FE3">1</text><text x="48.5" y="600.5" class="node" fill="#4A6FE3">1</text></svg>
