<svg xmlns="http://www.w3.org/2000/svg" version="1.1" width="682" height="612" class="tree" data-char="83"><text x="678" y="15.4" text-anchor="end" class="stepsLabel">Character adds <tspan class="score">1</tspan> to tree score</text><text x="678" y="27.8" text-anchor="end" class="stepsLabel"><tspan class="score">0</tspan> additional regions</text><text x="678" y="40.2" text-anchor="end" class="stepsLabel">CI = 1; Fitch CI = 1; Fitch RI = 1</text><text x="678" y="65" text-anchor="end" class="stepsLabel"><tspan dy="16" fill="#34caaf">An optimal tree under:</tspan><tspan x="680" style="font-style:italic" class="notThisAn" dy="1.2em">Equal weights</tspan><tspan x="680" style="font-style:italic" class="thisAn" dy="1.2em">Implied weights, k = 2</tspan><tspan x="680" style="font-style:italic" class="thisAn" dy="1.2em">IW, k = 3</tspan><tspan x="680" style="font-style:italic" class="notThisAn" dy="1.2em">IW, k = 4.5</tspan><tspan x="680" style="font-style:italic" class="notThisAn" dy="1.2em">IW, k = 7</tspan><tspan x="680" style="font-style:italic" class="notThisAn" dy="1.2em">IW, k = 10.5</tspan><tspan x="680" style="font-style:italic" class="notThisAn" dy="1.2em">IW, k = 16</tspan><tspan x="680" style="font-style:italic" class="notThisAn" dy="1.2em">IW, k = 24</tspan></text><text x="67.2" y="594.3" fill="#fc8d59" class="flag">[0]</text><text x="89.2" y="594.3" fill="#000" class="taxonLabel">Sipunculus</text><text x="67.2" y="607" fill="#fc8d59" class="flag">[0]</text><text x="89.2" y="607" fill="#000" class="taxonLabel">Serpula</text><text x="88" y="568.9" fill="#fc8d59" class="flag">[0]</text><text x="110" y="568.9" fill="#000" class="taxonLabel">Tonicella</text><text x="88" y="581.6" fill="#fc8d59" class="flag">[0]</text><text x="110" y="581.6" fill="#000" class="taxonLabel">Wiwaxia corrugata</text><text x="67.2" y="556.2" fill="#fc8d59" class="flag">[0]</text><text x="89.2" y="556.2" fill="#000" class="taxonLabel">Dentalium</text><text x="191.7" y="518.1" fill="grey" class="flag">[?]</text><text x="213.7" y="518.1" fill="#999" class="taxonLabel">Haplophrentis carinatus</text><text x="191.7" y="530.8" fill="grey" class="flag">[?]</text><text x="213.7" y="530.8" fill="#999" class="taxonLabel">Pedunculotheca diania</text><text x="274.6" y="492.7" fill="#fc8d59" class="flag">[0]</text><text x="296.6" y="492.7" fill="#000" class="taxonLabel">Mickwitzia muralensis</text><text x="274.6" y="505.4" fill="#fc8d59" class="flag">[0]</text><text x="296.6" y="505.4" fill="#000" class="taxonLabel">Pelagodiscus atlanticus</text><text x="316.1" y="467.3" fill="#fc8d59" class="flag">[0]</text><text x="338.1" y="467.3" fill="#000" class="taxonLabel">Botsfordia</text><text x="316.1" y="480" fill="grey" class="flag">[?]</text><text x="338.1" y="480" fill="#999" class="taxonLabel">Mummpikia nuda</text><text x="295.3" y="454.6" fill="#fc8d59" class="flag">[0]</text><text x="317.3" y="454.6" fill="#000" class="taxonLabel">Eoobolus</text><text x="316.1" y="429.2" fill="#fc8d59" class="flag">[0]</text><text x="338.1" y="429.2" fill="#000" class="taxonLabel">Lingulellotreta malongensis</text><text x="316.1" y="441.9" fill="#fc8d59" class="flag">[0]</text><text x="338.1" y="441.9" fill="#000" class="taxonLabel">Lingula</text><text x="336.8" y="403.8" fill="grey" class="flag">[?]</text><text x="358.8" y="403.8" fill="#999" class="taxonLabel">Acanthotretella spinosa</text><text x="336.8" y="416.5" fill="grey" class="flag">[?]</text><text x="358.8" y="416.5" fill="#999" class="taxonLabel">Siphonobolus priscus</text><text x="336.8" y="378.4" fill="#fc8d59" class="flag">[0]</text><text x="358.8" y="378.4" fill="#000" class="taxonLabel">Clupeafumosus socialis</text><text x="336.8" y="391.1" fill="#fc8d59" class="flag">[0]</text><text x="358.8" y="391.1" fill="#000" class="taxonLabel">Lingulosacculus</text><text x="316.1" y="353" fill="#91bfdb" class="flag">[1]</text><text x="338.1" y="353" fill="#000" class="taxonLabel">Novocrania</text><text x="316.1" y="365.7" fill="grey" class="flag">[?]</text><text x="338.1" y="365.7" fill="#999" class="taxonLabel">Craniops</text><text x="295.3" y="340.3" fill="#91bfdb" class="flag">[1]</text><text x="317.3" y="340.3" fill="#000" class="taxonLabel">Ussunia</text><text x="274.6" y="327.6" fill="#91bfdb" class="flag">[1]</text><text x="296.6" y="327.6" fill="#000" class="taxonLabel">Gasconsia</text><text x="295.3" y="302.1" fill="grey" class="flag">[?]</text><text x="317.3" y="302.1" fill="#999" class="taxonLabel">Micromitra</text><text x="295.3" y="314.9" fill="grey" class="flag">[?]</text><text x="317.3" y="314.9" fill="#999" class="taxonLabel">Askepasma toddense</text><text x="357.6" y="276.7" fill="#91bfdb" class="flag">[1]</text><text x="379.6" y="276.7" fill="#000" class="taxonLabel">Coolinia pecten</text><text x="357.6" y="289.4" fill="grey" class="flag">[?]</text><text x="379.6" y="289.4" fill="#999" class="taxonLabel">Antigonambonites planus</text><text x="482" y="251.3" fill="#91bfdb" class="flag">[1]</text><text x="504" y="251.3" fill="#000" class="taxonLabel">Terebratulina</text><text x="482" y="264" fill="#91bfdb" class="flag">[1]</text><text x="504" y="264" fill="#000" class="taxonLabel">Orthis</text><text x="461.3" y="238.6" fill="#91bfdb" class="flag">[1]</text><text x="483.3" y="238.6" fill="#000" class="taxonLabel">Alisina</text><text x="440.5" y="225.9" fill="grey" class="flag">[?]</text><text x="462.5" y="225.9" fill="#999" class="taxonLabel">Longtancunella chengjiangensis</text><text x="419.8" y="213.2" fill="#91bfdb" class="flag">[1]</text><text x="441.8" y="213.2" fill="#000" class="taxonLabel">Glyptoria</text><text x="399" y="200.5" fill="grey" class="flag">[?]</text><text x="421" y="200.5" fill="#999" class="taxonLabel">Tomteluva perturbata</text><text x="378.3" y="187.8" fill="#91bfdb" class="flag">[1]</text><text x="400.3" y="187.8" fill="#000" class="taxonLabel">Nisusia sulcata</text><text x="357.6" y="175.1" fill="#91bfdb" class="flag">[1]</text><text x="379.6" y="175.1" fill="#000" class="taxonLabel">Kutorgina chengjiangensis</text><text x="316.1" y="162.4" fill="grey" class="flag">[?]</text><text x="338.1" y="162.4" fill="#999" class="taxonLabel">Yuganotheca elegans</text><text x="295.3" y="149.7" fill="grey" class="flag">[?]</text><text x="317.3" y="149.7" fill="#999" class="taxonLabel">Salanygolina</text><text x="212.4" y="137" fill="grey" class="flag">[?]</text><text x="234.4" y="137" fill="#999" class="taxonLabel">Micrina</text><text x="191.7" y="124.3" fill="grey" class="flag">[?]</text><text x="213.7" y="124.3" fill="#999" class="taxonLabel">Paterimitra</text><text x="150.2" y="111.6" fill="grey" class="flag">[?]</text><text x="172.2" y="111.6" fill="#999" class="taxonLabel">Heliomedusa orienta</text><text x="150.2" y="86.2" fill="#fc8d59" class="flag">[0]</text><text x="172.2" y="86.2" fill="#000" class="taxonLabel">Dailyatia</text><text x="150.2" y="98.9" fill="grey" class="flag">[?]</text><text x="172.2" y="98.9" fill="#999" class="taxonLabel">Halkieria evangelista</text><text x="150.2" y="60.8" fill="#fc8d59" class="flag">[0]</text><text x="172.2" y="60.8" fill="#000" class="taxonLabel">Namacalathus</text><text x="150.2" y="73.5" fill="#fc8d59" class="flag">[0]</text><text x="172.2" y="73.5" fill="#000" class="taxonLabel">Phoronis</text><text x="129.4" y="48.1" fill="#fc8d59" class="flag">[0]</text><text x="151.4" y="48.1" fill="#000" class="taxonLabel">Cotyledion tylodes</text><text x="88" y="35.4" fill="#fc8d59" class="flag">[0]</text><text x="110" y="35.4" fill="#000" class="taxonLabel">Eccentrotheca</text><text x="88" y="10" fill="#fc8d59" class="flag">[0]</text><text x="110" y="10" fill="#000" class="taxonLabel">Flustra</text><text x="88" y="22.7" fill="#fc8d59" class="flag">[0]</text><text x="110" y="22.7" fill="#000" class="taxonLabel">Amathia</text><text x="46.5" y="543.5" fill="#fc8d59" class="flag">[0]</text><text x="68.5" y="543.5" fill="#000" class="taxonLabel">Loxosomella</text><path d="M5,435.6V291.1H25.7M25.7,291.1V41.7H46.5M46.5,41.7V13.4H67.2M67.2,13.4V7H88M67.2,13.4V19.7H88M46.5,41.7V70H67.2M67.2,70V32.4H88M67.2,70V107.6H88M88,107.6V54.6H108.7M108.7,54.6V45.1H129.4M108.7,54.6V64.2H129.4M129.4,64.2V57.8H150.2M129.4,64.2V70.5H150.2M88,107.6V160.7H108.7M108.7,160.7V89.6H129.4M129.4,89.6V83.2H150.2M129.4,89.6V95.9H150.2M108.7,160.7V231.8H129.4M129.4,231.8V108.6H150.2M129.4,231.8V354.9H150.2M150.2,354.9V188.4H170.9M170.9,188.4V121.3H191.7M170.9,188.4V255.4H191.7M191.7,255.4V134H212.4M191.7,255.4V376.8H212.4M212.4,376.8V466.7H233.1M233.1,466.7V437.3H253.9M253.9,437.3V413.5H274.6M274.6,413.5V394.4H295.3M295.3,394.4V381.7H316.1M316.1,381.7V375.4H336.8M316.1,381.7V388.1H336.8M295.3,394.4V407.1H316.1M316.1,407.1V400.8H336.8M316.1,407.1V413.5H336.8M274.6,413.5V432.5H295.3M295.3,432.5V426.2H316.1M295.3,432.5V438.9H316.1M253.9,437.3V461.1H274.6M274.6,461.1V451.6H295.3M274.6,461.1V470.6H295.3M295.3,470.6V464.3H316.1M295.3,470.6V477H316.1M233.1,466.7V496H253.9M253.9,496V489.7H274.6M253.9,496V502.4H274.6M150.2,354.9V521.4H170.9M170.9,521.4V515.1H191.7M170.9,521.4V527.8H191.7M25.7,291.1V540.5H46.5M5,435.6V580.2H25.7M25.7,580.2V562.7H46.5M46.5,562.7V553.2H67.2M46.5,562.7V572.2H67.2M67.2,572.2V565.9H88M67.2,572.2V578.6H88M25.7,580.2V597.6H46.5M46.5,597.6V591.3H67.2M46.5,597.6V604H67.2" stroke="#fc8d59"></path><path d="M212.4,376.8V287H233.1M233.1,287V238.4H253.9M253.9,238.4V171.3H274.6M274.6,171.3V146.7H295.3M274.6,171.3V195.9H295.3M295.3,195.9V159.4H316.1M295.3,195.9V232.4H316.1M316.1,232.4V184.7H336.8M336.8,184.7V172.1H357.6M336.8,184.7V197.3H357.6M357.6,197.3V184.8H378.3M357.6,197.3V209.8H378.3M378.3,209.8V197.5H399M378.3,209.8V222.1H399M399,222.1V210.2H419.8M399,222.1V234.1H419.8M419.8,234.1V222.9H440.5M419.8,234.1V245.2H440.5M440.5,245.2V235.6H461.3M440.5,245.2V254.7H461.3M461.3,254.7V248.3H482M461.3,254.7V261H482M316.1,232.4V280.1H336.8M336.8,280.1V273.7H357.6M336.8,280.1V286.4H357.6M253.9,238.4V305.5H274.6M274.6,305.5V299.1H295.3M274.6,305.5V311.9H295.3M233.1,287V335.7H253.9M253.9,335.7V324.6H274.6M253.9,335.7V346.8H274.6M274.6,346.8V337.3H295.3M274.6,346.8V356.3H295.3M295.3,356.3V350H316.1M295.3,356.3V362.7H316.1" stroke="#91bfdb"></path><text x="7" y="438.6" class="node" fill="#4A6FE3">1</text><text x="27.7" y="294.1" class="node" fill="#4A6FE3">1</text><text x="48.5" y="44.7" class="node" fill="#E3DFE0">0.49</text><text x="69.2" y="16.4" class="node" fill="#4A6FE3">1</text><text x="69.2" y="73" class="node" fill="#E3DFE0">0.49</text><text x="90" y="110.6" class="node" fill="#DB6581">0.1</text><text x="110.7" y="57.6" class="node" fill="#8C9BE1">0.81</text><text x="131.4" y="67.2" class="node" fill="#4A6FE3">1</text><text x="110.7" y="163.7" class="node" fill="#E3DFE0">0.49</text><text x="131.4" y="92.6" class="node" fill="#E6B4BD">0.35</text><text x="131.4" y="234.8" class="node" fill="#4A6FE3">1</text><text x="152.2" y="357.9" class="node" fill="#E6B4BD">0.35</text><text x="172.9" y="191.4" class="node" fill="#E6B4BD">0.35</text><text x="193.7" y="258.4" class="node" fill="#E6B4BD">0.35</text><text x="214.4" y="379.8" class="node" fill="#E6B4BD">0.35</text><text x="235.1" y="290" class="node" fill="#E6B4BD">0.35</text><text x="255.9" y="241.4" class="node" fill="#E6B4BD">0.35</text><text x="276.6" y="174.3" class="node" fill="#7D8FE1">0.86</text><text x="297.3" y="198.9" class="node" fill="#E4D6D8">0.46</text><text x="318.1" y="235.4" class="node" fill="#E5A8B3">0.31</text><text x="338.8" y="187.7" class="node" fill="#E49CAA">0.27</text><text x="359.6" y="200.3" class="node" fill="#E49CAA">0.27</text><text x="380.3" y="212.8" class="node" fill="#E49CAA">0.27</text><text x="401" y="225.1" class="node" fill="#BCC2E3">0.64</text><text x="421.8" y="237.1" class="node" fill="#BCC2E3">0.64</text><text x="442.5" y="248.2" class="node" fill="#4A6FE3">1</text><text x="463.3" y="257.7" class="node" fill="#8C9BE1">0.81</text><text x="338.8" y="283.1" class="node" fill="#4A6FE3">1</text><text x="276.6" y="308.5" class="node" fill="#4A6FE3">1</text><text x="255.9" y="338.7" class="node" fill="#E3DFE0">0.49</text><text x="276.6" y="349.8" class="node" fill="#E3DFE0">0.49</text><text x="297.3" y="359.3" class="node" fill="#E3DFE0">0.49</text><text x="235.1" y="469.7" class="node" fill="#E6B4BD">0.35</text><text x="255.9" y="440.3" class="node" fill="#7D8FE1">0.86</text><text x="276.6" y="416.5" class="node" fill="#E3DFE0">0.49</text><text x="297.3" y="397.4" class="node" fill="#8394E1">0.84</text><text x="318.1" y="384.7" class="node" fill="#E498A7">0.26</text><text x="318.1" y="410.1" class="node" fill="#4A6FE3">1</text><text x="297.3" y="435.5" class="node" fill="#E3DFE0">0.49</text><text x="276.6" y="464.1" class="node" fill="#E3DFE0">0.49</text><text x="297.3" y="473.6" class="node" fill="#E3DFE0">0.49</text><text x="255.9" y="499" class="node" fill="#7D8FE1">0.86</text><text x="172.9" y="524.4" class="node" fill="#4A6FE3">1</text><text x="27.7" y="583.2" class="node" fill="#4A6FE3">1</text><text x="48.5" y="565.7" class="node" fill="#4A6FE3">1</text><text x="69.2" y="575.2" class="node" fill="#E6B4BD">0.35</text><text x="48.5" y="600.6" class="node" fill="#4A6FE3">1</text></svg>
