<svg xmlns="http://www.w3.org/2000/svg" version="1.1" width="682" height="612" class="tree" data-char="152"><text x="678" y="16" text-anchor="end" class="stepsLabel">Character adds <tspan class="score">2</tspan> to tree score</text><text x="678" y="29" text-anchor="end" class="stepsLabel"><tspan class="score">0</tspan> additional regions</text><text x="678" y="42" text-anchor="end" class="stepsLabel">CI = 0.5; Fitch CI = 0.5; Fitch RI = 0.67</text><text x="678" y="68" text-anchor="end" class="stepsLabel"><tspan dy="16">An optimal tree under:</tspan><tspan x="680" style="font-style:italic" class="thisAn" dy="1.2em">Equal weights</tspan><tspan x="680" style="font-style:italic" class="notThisAn" dy="1.2em">Implied weights, k = 2</tspan><tspan x="680" style="font-style:italic" class="notThisAn" dy="1.2em">IW, k = 3</tspan><tspan x="680" style="font-style:italic" class="notThisAn" dy="1.2em">IW, k = 4.5</tspan><tspan x="680" style="font-style:italic" class="notThisAn" dy="1.2em">IW, k = 7</tspan><tspan x="680" style="font-style:italic" class="notThisAn" dy="1.2em">IW, k = 10.5</tspan><tspan x="680" style="font-style:italic" class="notThisAn" dy="1.2em">IW, k = 16</tspan><tspan x="680" style="font-style:italic" class="notThisAn" dy="1.2em">IW, k = 24</tspan></text><text x="76.6" y="593.7" fill="#e2e2a2" class="flag">[1]</text><text x="98.6" y="593.7" fill="#000" class="taxonLabel">Sipunculus</text><text x="76.6" y="607" fill="#e2e2a2" class="flag">[1]</text><text x="98.6" y="607" fill="#000" class="taxonLabel">Serpula</text><text x="100.4" y="567.2" fill="grey" class="flag">[?]</text><text x="122.4" y="567.2" fill="grey" class="taxonLabel">Wiwaxia corrugata</text><text x="100.4" y="580.5" fill="#e2e2a2" class="flag">[1]</text><text x="122.4" y="580.5" fill="#000" class="taxonLabel">Tonicella</text><text x="76.6" y="553.9" fill="#e2e2a2" class="flag">[1]</text><text x="98.6" y="553.9" fill="#000" class="taxonLabel">Dentalium</text><text x="243.5" y="514.1" fill="grey" class="flag">[?]</text><text x="265.5" y="514.1" fill="grey" class="taxonLabel">Haplophrentis carinatus</text><text x="243.5" y="527.4" fill="grey" class="flag">[?]</text><text x="265.5" y="527.4" fill="grey" class="taxonLabel">Pedunculotheca diania</text><text x="219.7" y="500.9" fill="grey" class="flag">[?]</text><text x="241.7" y="500.9" fill="grey" class="taxonLabel">Paterimitra</text><text x="410.5" y="474.3" fill="grey" class="flag">[?]</text><text x="432.5" y="474.3" fill="grey" class="taxonLabel">Acanthotretella spinosa</text><text x="410.5" y="487.6" fill="grey" class="flag">[?]</text><text x="432.5" y="487.6" fill="grey" class="taxonLabel">Siphonobolus priscus</text><text x="410.5" y="447.8" fill="grey" class="flag">[?]</text><text x="432.5" y="447.8" fill="grey" class="taxonLabel">Clupeafumosus socialis</text><text x="410.5" y="461.1" fill="grey" class="flag">[?]</text><text x="432.5" y="461.1" fill="grey" class="taxonLabel">Lingulosacculus</text><text x="362.8" y="434.5" fill="grey" class="flag">[?]</text><text x="384.8" y="434.5" fill="grey" class="taxonLabel">Lingulellotreta malongensis</text><text x="338.9" y="421.3" fill="grey" class="flag">[?]</text><text x="360.9" y="421.3" fill="grey" class="taxonLabel">Botsfordia</text><text x="315.1" y="408" fill="grey" class="flag">[?]</text><text x="337.1" y="408" fill="grey" class="taxonLabel">Mummpikia nuda</text><text x="291.2" y="394.7" fill="grey" class="flag">[?]</text><text x="313.2" y="394.7" fill="grey" class="taxonLabel">Eoobolus</text><text x="267.4" y="381.5" fill="#91bfdb" class="flag">[2]</text><text x="289.4" y="381.5" fill="#000" class="taxonLabel">Lingula</text><text x="291.2" y="354.9" fill="grey" class="flag">[?]</text><text x="313.2" y="354.9" fill="grey" class="taxonLabel">Pelagodiscus atlanticus</text><text x="291.2" y="368.2" fill="grey" class="flag">[?]</text><text x="313.2" y="368.2" fill="grey" class="taxonLabel">Mickwitzia muralensis</text><text x="267.4" y="341.7" fill="grey" class="flag">[?]</text><text x="289.4" y="341.7" fill="grey" class="taxonLabel">Micrina</text><text x="315.1" y="315.1" fill="#91bfdb" class="flag">[2]</text><text x="337.1" y="315.1" fill="#000" class="taxonLabel">Novocrania</text><text x="315.1" y="328.4" fill="grey" class="flag">[?]</text><text x="337.1" y="328.4" fill="grey" class="taxonLabel">Craniops</text><text x="291.2" y="301.9" fill="grey" class="flag">[?]</text><text x="313.2" y="301.9" fill="grey" class="taxonLabel">Ussunia</text><text x="267.4" y="288.6" fill="grey" class="flag">[?]</text><text x="289.4" y="288.6" fill="grey" class="taxonLabel">Gasconsia</text><text x="386.6" y="262.1" fill="grey" class="flag">[?]</text><text x="408.6" y="262.1" fill="grey" class="taxonLabel">Antigonambonites planus</text><text x="386.6" y="275.3" fill="grey" class="flag">[?]</text><text x="408.6" y="275.3" fill="grey" class="taxonLabel">Coolinia pecten</text><text x="482" y="235.5" fill="grey" class="flag">[?]</text><text x="504" y="235.5" fill="grey" class="taxonLabel">Terebratulina</text><text x="482" y="248.8" fill="grey" class="flag">[?]</text><text x="504" y="248.8" fill="grey" class="taxonLabel">Orthis</text><text x="458.2" y="222.3" fill="grey" class="flag">[?]</text><text x="480.2" y="222.3" fill="grey" class="taxonLabel">Alisina</text><text x="434.3" y="209" fill="grey" class="flag">[?]</text><text x="456.3" y="209" fill="grey" class="taxonLabel">Glyptoria</text><text x="410.5" y="195.7" fill="grey" class="flag">[?]</text><text x="432.5" y="195.7" fill="grey" class="taxonLabel">Nisusia sulcata</text><text x="386.6" y="182.5" fill="grey" class="flag">[?]</text><text x="408.6" y="182.5" fill="grey" class="taxonLabel">Kutorgina chengjiangensis</text><text x="338.9" y="169.2" fill="grey" class="flag">[?]</text><text x="360.9" y="169.2" fill="grey" class="taxonLabel">Longtancunella chengjiangensis</text><text x="338.9" y="142.7" fill="grey" class="flag">[?]</text><text x="360.9" y="142.7" fill="grey" class="taxonLabel">Tomteluva perturbata</text><text x="338.9" y="155.9" fill="grey" class="flag">[?]</text><text x="360.9" y="155.9" fill="grey" class="taxonLabel">Yuganotheca elegans</text><text x="291.2" y="129.4" fill="grey" class="flag">[?]</text><text x="313.2" y="129.4" fill="grey" class="taxonLabel">Salanygolina</text><text x="291.2" y="102.9" fill="grey" class="flag">[?]</text><text x="313.2" y="102.9" fill="grey" class="taxonLabel">Micromitra</text><text x="291.2" y="116.1" fill="grey" class="flag">[?]</text><text x="313.2" y="116.1" fill="grey" class="taxonLabel">Askepasma toddense</text><text x="172" y="89.6" fill="grey" class="flag">[?]</text><text x="194" y="89.6" fill="grey" class="taxonLabel">Heliomedusa orienta</text><text x="172" y="63.1" fill="grey" class="flag">[?]</text><text x="194" y="63.1" fill="grey" class="taxonLabel">Halkieria evangelista</text><text x="172" y="76.3" fill="grey" class="flag">[?]</text><text x="194" y="76.3" fill="grey" class="taxonLabel">Dailyatia</text><text x="148.1" y="36.5" fill="grey" class="flag">[?]</text><text x="170.1" y="36.5" fill="grey" class="taxonLabel">Cotyledion tylodes</text><text x="148.1" y="49.8" fill="grey" class="flag">[?]</text><text x="170.1" y="49.8" fill="grey" class="taxonLabel">Eccentrotheca</text><text x="100.4" y="23.3" fill="#91bfdb" class="flag">[2]</text><text x="122.4" y="23.3" fill="#000" class="taxonLabel">Phoronis</text><text x="76.6" y="10" fill="#e2e2a2" class="flag">[1]</text><text x="98.6" y="10" fill="#000" class="taxonLabel">Flustra</text><text x="52.7" y="540.7" fill="#91bfdb" class="flag">[2]</text><text x="74.7" y="540.7" fill="#000" class="taxonLabel">Loxosomella</text><path d="M5,432.2V285.3H28.9M28.9,285.3V33H52.7" stroke="darkgrey"></path><path d="M52.7,33V7H76.6M5,432.2V579.1H28.9M28.9,579.1V560.9H52.7M52.7,560.9V550.9H76.6M52.7,560.9V570.8H76.6M76.6,570.8V564.2H100.4M76.6,570.8V577.5H100.4M28.9,579.1V597.4H52.7M52.7,597.4V590.7H76.6M52.7,597.4V604H76.6" stroke="#e2e2a2"></path><path d="M52.7,33V58.9H76.6M76.6,58.9V20.3H100.4M76.6,58.9V97.5H100.4M100.4,97.5V40.2H124.2M124.2,40.2V33.5H148.1M124.2,40.2V46.8H148.1M100.4,97.5V154.9H124.2M124.2,154.9V66.7H148.1M148.1,66.7V60.1H172M148.1,66.7V73.3H172M124.2,154.9V243.1H148.1M148.1,243.1V86.6H172M148.1,243.1V399.6H172M172,399.6V291.4H195.8M195.8,291.4V212.5H219.7M219.7,212.5V127.8H243.5M243.5,127.8V106.5H267.4M267.4,106.5V99.9H291.2M267.4,106.5V113.1H291.2M243.5,127.8V149.2H267.4M267.4,149.2V126.4H291.2M267.4,149.2V172H291.2M291.2,172V146.3H315.1M315.1,146.3V139.7H338.9M315.1,146.3V152.9H338.9M291.2,172V197.6H315.1M315.1,197.6V166.2H338.9M315.1,197.6V229H338.9M338.9,229V192.3H362.8M362.8,192.3V179.5H386.6M362.8,192.3V205.2H386.6M386.6,205.2V192.7H410.5M386.6,205.2V217.6H410.5M410.5,217.6V206H434.3M410.5,217.6V229.2H434.3M434.3,229.2V219.3H458.2M434.3,229.2V239.2H458.2M458.2,239.2V232.5H482M458.2,239.2V245.8H482M338.9,229V265.7H362.8M362.8,265.7V259.1H386.6M362.8,265.7V272.3H386.6M219.7,212.5V297.2H243.5M243.5,297.2V285.6H267.4M243.5,297.2V308.8H267.4M267.4,308.8V298.9H291.2M267.4,308.8V318.8H291.2M291.2,318.8V312.1H315.1M291.2,318.8V325.4H315.1M195.8,291.4V370.3H219.7M219.7,370.3V348.6H243.5M243.5,348.6V338.7H267.4M243.5,348.6V358.6H267.4M267.4,358.6V351.9H291.2M267.4,358.6V365.2H291.2M219.7,370.3V391.9H243.5M243.5,391.9V378.5H267.4M243.5,391.9V405.4H267.4M267.4,405.4V391.7H291.2M267.4,405.4V419.1H291.2M291.2,419.1V405H315.1M291.2,419.1V433.2H315.1M315.1,433.2V418.3H338.9M315.1,433.2V448.1H338.9M338.9,448.1V431.5H362.8M338.9,448.1V464.7H362.8M362.8,464.7V451.4H386.6M386.6,451.4V444.8H410.5M386.6,451.4V458.1H410.5M362.8,464.7V478H386.6M386.6,478V471.3H410.5M386.6,478V484.6H410.5M172,399.6V507.8H195.8M195.8,507.8V497.9H219.7M195.8,507.8V517.8H219.7M219.7,517.8V511.1H243.5M219.7,517.8V524.4H243.5M28.9,285.3V537.7H52.7" stroke="#91bfdb"></path><text x="7" y="435.2" class="node" fill="#4A6FE3">1</text><text x="30.9" y="288.3" class="node" fill="#4A6FE3">1</text><text x="54.7" y="36" class="node" fill="#4A6FE3">1</text><text x="78.6" y="61.9" class="node" fill="#4A6FE3">1</text><text x="102.4" y="100.5" class="node" fill="#4A6FE3">1</text><text x="126.2" y="43.2" class="node" fill="#E6BDC5">0.38</text><text x="126.2" y="157.9" class="node" fill="#4A6FE3">1</text><text x="150.1" y="69.7" class="node" fill="#4A6FE3">1</text><text x="150.1" y="246.1" class="node" fill="#4A6FE3">1</text><text x="174" y="402.6" class="node" fill="#9DA8E2">0.75</text><text x="197.8" y="294.4" class="node" fill="#9DA8E2">0.75</text><text x="221.7" y="215.5" class="node" fill="#4A6FE3">1</text><text x="245.5" y="130.8" class="node" fill="#8C9BE1">0.81</text><text x="269.4" y="109.5" class="node" fill="#4A6FE3">1</text><text x="269.4" y="152.2" class="node" fill="#667FE1">0.93</text><text x="293.2" y="175" class="node" fill="#E498A7">0.26</text><text x="317.1" y="149.3" class="node" fill="#7388E1">0.89</text><text x="317.1" y="200.6" class="node" fill="#4A6FE3">1</text><text x="340.9" y="232" class="node" fill="#DD6F88">0.13</text><text x="364.8" y="195.3" class="node" fill="#DD6F88">0.13</text><text x="388.6" y="208.2" class="node" fill="#DD6F88">0.13</text><text x="412.5" y="220.6" class="node" fill="#DD6F88">0.13</text><text x="436.3" y="232.2" class="node" fill="#4A6FE3">1</text><text x="460.2" y="242.2" class="node" fill="#5B78E2">0.96</text><text x="364.8" y="268.7" class="node" fill="#4A6FE3">1</text><text x="245.5" y="300.2" class="node" fill="#4A6FE3">1</text><text x="269.4" y="311.8" class="node" fill="#4A6FE3">1</text><text x="293.2" y="321.8" class="node" fill="#4A6FE3">1</text><text x="221.7" y="373.3" class="node" fill="#B4BBE3">0.67</text><text x="245.5" y="351.6" class="node" fill="#B4BBE3">0.67</text><text x="269.4" y="361.6" class="node" fill="#9DA8E2">0.75</text><text x="245.5" y="394.9" class="node" fill="#9DA8E2">0.75</text><text x="269.4" y="408.4" class="node" fill="#B4BBE3">0.67</text><text x="293.2" y="422.1" class="node" fill="#B4BBE3">0.67</text><text x="317.1" y="436.2" class="node" fill="#B4BBE3">0.67</text><text x="340.9" y="451.1" class="node" fill="#B4BBE3">0.67</text><text x="364.8" y="467.7" class="node" fill="#E3DCDD">0.48</text><text x="388.6" y="454.4" class="node" fill="#DF798F">0.16</text><text x="388.6" y="481" class="node" fill="#4A6FE3">1</text><text x="197.8" y="510.8" class="node" fill="#B4BBE3">0.67</text><text x="221.7" y="520.8" class="node" fill="#4A6FE3">1</text><text x="30.9" y="582.1" class="node" fill="#4A6FE3">1</text><text x="54.7" y="563.9" class="node" fill="#4A6FE3">1</text><text x="78.6" y="573.8" class="node" fill="#97A4E2">0.77</text><text x="54.7" y="600.4" class="node" fill="#4A6FE3">1</text></svg>
