<svg xmlns="http://www.w3.org/2000/svg" version="1.1" width="682" height="682" class="tree" data-char="8"><text x="678" y="15.6" text-anchor="end" class="stepsLabel">Character adds <tspan class="score">4</tspan> to tree score</text><text x="678" y="28.2" text-anchor="end" class="stepsLabel"><tspan class="score">0</tspan> additional regions</text><text x="678" y="40.8" text-anchor="end" class="stepsLabel">CI = 0.5; Fitch CI = 0.5; Fitch RI = 0</text><text x="678" y="66" text-anchor="end" class="stepsLabel"><tspan dy="16" fill="#34caaf">An optimal tree under:</tspan><tspan x="680" style="font-style:italic" class="notThisAn" dy="1.2em">Equal weights</tspan><tspan x="680" style="font-style:italic" class="notThisAn" dy="1.2em">Implied weights, k = 2</tspan><tspan x="680" style="font-style:italic" class="notThisAn" dy="1.2em">IW, k = 3</tspan><tspan x="680" style="font-style:italic" class="notThisAn" dy="1.2em">IW, k = 4.5</tspan><tspan x="680" style="font-style:italic" class="notThisAn" dy="1.2em">IW, k = 7</tspan><tspan x="680" style="font-style:italic" class="notThisAn" dy="1.2em">IW, k = 10.5</tspan><tspan x="680" style="font-style:italic" class="thisAn" dy="1.2em">IW, k = 16</tspan><tspan x="680" style="font-style:italic" class="notThisAn" dy="1.2em">IW, k = 24</tspan></text><text x="95.9" y="664.2" fill="lightgrey" class="flag">[-]</text><text x="117.9" y="664.2" fill="#ccc" class="taxonLabel">Tonicella</text><text x="95.9" y="677" fill="lightgrey" class="flag">[-]</text><text x="117.9" y="677" fill="#ccc" class="taxonLabel">Dentalium</text><text x="73.1" y="651.3" fill="lightgrey" class="flag">[-]</text><text x="95.1" y="651.3" fill="#ccc" class="taxonLabel">Wiwaxia corrugata</text><text x="73.1" y="625.7" fill="lightgrey" class="flag">[-]</text><text x="95.1" y="625.7" fill="#ccc" class="taxonLabel">Sipunculus</text><text x="73.1" y="638.5" fill="lightgrey" class="flag">[-]</text><text x="95.1" y="638.5" fill="#ccc" class="taxonLabel">Serpula</text><text x="345.7" y="587.2" fill="lightgrey" class="flag">[-]</text><text x="367.7" y="587.2" fill="#ccc" class="taxonLabel">Pauxillites</text><text x="345.7" y="600" fill="grey" class="flag">[?]</text><text x="367.7" y="600" fill="#999" class="taxonLabel">Maxilites</text><text x="323" y="574.4" fill="lightgrey" class="flag">[-]</text><text x="345" y="574.4" fill="#ccc" class="taxonLabel">Haplophrentis carinatus</text><text x="300.3" y="561.6" fill="grey" class="flag">[?]</text><text x="322.3" y="561.6" fill="#999" class="taxonLabel">Paramicrocornus</text><text x="300.3" y="535.9" fill="lightgrey" class="flag">[-]</text><text x="322.3" y="535.9" fill="#ccc" class="taxonLabel">Bactrotheca</text><text x="300.3" y="548.7" fill="lightgrey" class="flag">[-]</text><text x="322.3" y="548.7" fill="#ccc" class="taxonLabel">Conotheca</text><text x="254.9" y="523.1" fill="lightgrey" class="flag">[-]</text><text x="276.9" y="523.1" fill="#ccc" class="taxonLabel">Pedunculotheca diania</text><text x="368.4" y="497.4" fill="grey" class="flag">[?]</text><text x="390.4" y="497.4" fill="#999" class="taxonLabel">Yuganotheca elegans</text><text x="368.4" y="510.2" fill="grey" class="flag">[?]</text><text x="390.4" y="510.2" fill="#999" class="taxonLabel">Tomteluva perturbata</text><text x="345.7" y="484.6" fill="#abd9e9" class="flag">[2]</text><text x="367.7" y="484.6" fill="#000" class="taxonLabel">Salanygolina</text><text x="482" y="458.9" fill="grey" class="flag">[?]</text><text x="504" y="458.9" fill="#999" class="taxonLabel">Orthis</text><text x="482" y="471.8" fill="#abd9e9" class="flag">[2]</text><text x="504" y="471.8" fill="#000" class="taxonLabel">Terebratulina</text><text x="459.3" y="446.1" fill="grey" class="flag">[?]</text><text x="481.3" y="446.1" fill="#999" class="taxonLabel">Alisina</text><text x="436.6" y="433.3" fill="grey" class="flag">[?]</text><text x="458.6" y="433.3" fill="#999" class="taxonLabel">Glyptoria</text><text x="413.9" y="420.5" fill="grey" class="flag">[?]</text><text x="435.9" y="420.5" fill="#999" class="taxonLabel">Nisusia sulcata</text><text x="391.1" y="407.6" fill="grey" class="flag">[?]</text><text x="413.1" y="407.6" fill="#999" class="taxonLabel">Kutorgina chengjiangensis</text><text x="391.1" y="382" fill="#abd9e9" class="flag">[2]</text><text x="413.1" y="382" fill="#000" class="taxonLabel">Antigonambonites planus</text><text x="391.1" y="394.8" fill="#abd9e9" class="flag">[2]</text><text x="413.1" y="394.8" fill="#000" class="taxonLabel">Coolinia pecten</text><text x="345.7" y="369.2" fill="grey" class="flag">[?]</text><text x="367.7" y="369.2" fill="#999" class="taxonLabel">Longtancunella chengjiangensis</text><text x="323" y="343.5" fill="#abd9e9" class="flag">[2]</text><text x="345" y="343.5" fill="#000" class="taxonLabel">Micromitra</text><text x="323" y="356.3" fill="#abd9e9" class="flag">[2]</text><text x="345" y="356.3" fill="#000" class="taxonLabel">Askepasma toddense</text><text x="391.1" y="317.8" fill="grey" class="flag">[?]</text><text x="413.1" y="317.8" fill="#999" class="taxonLabel">Craniops</text><text x="391.1" y="330.7" fill="#2c7bb6" class="flag">[3]</text><text x="413.1" y="330.7" fill="#000" class="taxonLabel">Novocrania</text><text x="368.4" y="305" fill="grey" class="flag">[?]</text><text x="390.4" y="305" fill="#999" class="taxonLabel">Ussunia</text><text x="345.7" y="292.2" fill="grey" class="flag">[?]</text><text x="367.7" y="292.2" fill="#999" class="taxonLabel">Heliomedusa orienta</text><text x="323" y="279.4" fill="grey" class="flag">[?]</text><text x="345" y="279.4" fill="#999" class="taxonLabel">Gasconsia</text><text x="345.7" y="253.7" fill="#2c7bb6" class="flag">[3]</text><text x="367.7" y="253.7" fill="#000" class="taxonLabel">Pelagodiscus atlanticus</text><text x="345.7" y="266.5" fill="#abd9e9" class="flag">[2]</text><text x="367.7" y="266.5" fill="#000" class="taxonLabel">Mickwitzia muralensis</text><text x="436.6" y="228.1" fill="grey" class="flag">[?]</text><text x="458.6" y="228.1" fill="#999" class="taxonLabel">Acanthotretella spinosa</text><text x="436.6" y="240.9" fill="#abd9e9" class="flag">[2]</text><text x="458.6" y="240.9" fill="#000" class="taxonLabel">Siphonobolus priscus</text><text x="413.9" y="215.2" fill="#abd9e9" class="flag">[2]</text><text x="435.9" y="215.2" fill="#000" class="taxonLabel">Clupeafumosus socialis</text><text x="391.1" y="202.4" fill="grey" class="flag">[?]</text><text x="413.1" y="202.4" fill="#999" class="taxonLabel">Lingulosacculus</text><text x="391.1" y="176.8" fill="grey" class="flag">[?]</text><text x="413.1" y="176.8" fill="#999" class="taxonLabel">Lingulellotreta malongensis</text><text x="391.1" y="189.6" fill="lightgrey" class="flag">[-]</text><text x="413.1" y="189.6" fill="#ccc" class="taxonLabel">Lingula</text><text x="391.1" y="151.1" fill="grey" class="flag">[?]</text><text x="413.1" y="151.1" fill="#999" class="taxonLabel">Mummpikia nuda</text><text x="391.1" y="163.9" fill="#fdae61" class="flag">[1]</text><text x="413.1" y="163.9" fill="#000" class="taxonLabel">Botsfordia</text><text x="368.4" y="138.3" fill="#abd9e9" class="flag">[2]</text><text x="390.4" y="138.3" fill="#000" class="taxonLabel">Eoobolus</text><text x="254.9" y="125.4" fill="#fdae61" class="flag">[1]</text><text x="276.9" y="125.4" fill="#000" class="taxonLabel">Micrina</text><text x="209.4" y="112.6" fill="lightgrey" class="flag">[-]</text><text x="231.4" y="112.6" fill="#ccc" class="taxonLabel">Paterimitra</text><text x="186.7" y="99.8" fill="grey" class="flag">[?]</text><text x="208.7" y="99.8" fill="#999" class="taxonLabel">Halkieria evangelista</text><text x="164" y="87" fill="lightgrey" class="flag">[-]</text><text x="186" y="87" fill="#ccc" class="taxonLabel">Dailyatia</text><text x="141.3" y="74.1" fill="lightgrey" class="flag">[-]</text><text x="163.3" y="74.1" fill="#ccc" class="taxonLabel">Eccentrotheca</text><text x="118.6" y="61.3" fill="grey" class="flag">[?]</text><text x="140.6" y="61.3" fill="#999" class="taxonLabel">Cotyledion tylodes</text><text x="118.6" y="35.7" fill="grey" class="flag">[?]</text><text x="140.6" y="35.7" fill="#999" class="taxonLabel">Namacalathus</text><text x="118.6" y="48.5" fill="lightgrey" class="flag">[-]</text><text x="140.6" y="48.5" fill="#ccc" class="taxonLabel">Phoronis</text><text x="95.9" y="10" fill="lightgrey" class="flag">[-]</text><text x="117.9" y="10" fill="#ccc" class="taxonLabel">Flustra</text><text x="95.9" y="22.8" fill="lightgrey" class="flag">[-]</text><text x="117.9" y="22.8" fill="#ccc" class="taxonLabel">Amathia</text><text x="50.4" y="612.9" fill="lightgrey" class="flag">[-]</text><text x="72.4" y="612.9" fill="#ccc" class="taxonLabel">Loxosomella</text><path d="M5,483.3V323H27.7M27.7,323V36.2H50.4M50.4,36.2V13.4H73.1M73.1,13.4V7H95.9M73.1,13.4V19.8H95.9M50.4,36.2V58.9H73.1M73.1,58.9V39.1H95.9M95.9,39.1V32.7H118.6M95.9,39.1V45.5H118.6M73.1,58.9V78.8H95.9M95.9,78.8V58.3H118.6M95.9,78.8V99.2H118.6M118.6,99.2V71.1H141.3M118.6,99.2V127.3H141.3M141.3,127.3V84H164M141.3,127.3V170.7H164M164,170.7V96.8H186.7M164,170.7V244.6H186.7M186.7,244.6V109.6H209.4M186.7,244.6V379.7H209.4M345.7,195.4V180.2H368.4M368.4,180.2V173.8H391.1M368.4,180.2V186.6H391.1M209.4,379.7V537.3H232.1M232.1,537.3V520.1H254.9M232.1,537.3V554.5H254.9M254.9,554.5V539.3H277.6M277.6,539.3V532.9H300.3M277.6,539.3V545.7H300.3M254.9,554.5V569.8H277.6M277.6,569.8V558.6H300.3M277.6,569.8V581H300.3M300.3,581V571.4H323M300.3,581V590.6H323M323,590.6V584.2H345.7M323,590.6V597H345.7M27.7,323V609.9H50.4M5,483.3V643.5H27.7M27.7,643.5V629.1H50.4M50.4,629.1V622.7H73.1M50.4,629.1V635.5H73.1M27.7,643.5V658H50.4M50.4,658V648.3H73.1M50.4,658V667.6H73.1M73.1,667.6V661.2H95.9M73.1,667.6V674H95.9" stroke="lightgrey" class="inapplicable"></path><path d="M209.4,379.7V222H232.1M368.4,154.5V148.1H391.1M300.3,288.4V276.4H323M300.3,288.4V300.4H323M323,300.4V289.2H345.7M323,300.4V311.6H345.7M345.7,311.6V302H368.4M345.7,311.6V321.3H368.4M368.4,321.3V314.8H391.1" stroke="darkgrey"></path><path d="M232.1,222V122.4H254.9M368.4,154.5V160.9H391.1" stroke="#fdae61"></path><path d="M232.1,222V321.6H254.9M254.9,321.6V251H277.6M277.6,251V213.6H300.3M300.3,213.6V170.1H323M323,170.1V144.9H345.7M345.7,144.9V135.3H368.4M345.7,144.9V154.5H368.4M323,170.1V195.4H345.7M345.7,195.4V210.6H368.4M368.4,210.6V199.4H391.1M368.4,210.6V221.9H391.1M391.1,221.9V212.2H413.9M391.1,221.9V231.5H413.9M413.9,231.5V225.1H436.6M413.9,231.5V237.9H436.6M300.3,213.6V257.1H323M323,257.1V263.5H345.7M277.6,251V288.4H300.3M254.9,321.6V392.2H277.6M277.6,392.2V346.9H300.3M300.3,346.9V340.5H323M300.3,346.9V353.3H323M277.6,392.2V437.5H300.3M300.3,437.5V383.7H323M323,383.7V366.2H345.7M323,383.7V401.2H345.7M345.7,401.2V385.4H368.4M368.4,385.4V379H391.1M368.4,385.4V391.8H391.1M345.7,401.2V417.1H368.4M368.4,417.1V404.6H391.1M368.4,417.1V429.5H391.1M391.1,429.5V417.5H413.9M391.1,429.5V441.5H413.9M413.9,441.5V430.3H436.6M413.9,441.5V452.7H436.6M436.6,452.7V443.1H459.3M436.6,452.7V462.4H459.3M459.3,462.4V455.9H482M459.3,462.4V468.8H482M300.3,437.5V491.2H323M323,491.2V481.6H345.7M323,491.2V500.8H345.7M345.7,500.8V494.4H368.4M345.7,500.8V507.2H368.4" stroke="#abd9e9"></path><path d="M323,257.1V250.7H345.7M368.4,321.3V327.7H391.1" stroke="#2c7bb6"></path><text x="7" y="486.3" class="node" fill="#4A6FE3">1</text><text x="29.7" y="326" class="node" fill="#4A6FE3">1</text><text x="52.4" y="39.2" class="node" fill="#4A6FE3">1</text><text x="75.1" y="16.4" class="node" fill="#4A6FE3">1</text><text x="75.1" y="61.9" class="node" fill="#4A6FE3">1</text><text x="97.9" y="42.1" class="node" fill="#E4D6D8">0.46</text><text x="97.9" y="81.8" class="node" fill="#8998E1">0.82</text><text x="120.6" y="102.2" class="node" fill="#E5A5B1">0.3</text><text x="143.3" y="130.3" class="node" fill="#8998E1">0.82</text><text x="166" y="173.7" class="node" fill="#8998E1">0.82</text><text x="188.7" y="247.6" class="node" fill="#4F72E2">0.99</text><text x="211.4" y="382.7" class="node" fill="#4F72E2">0.99</text><text x="234.1" y="225" class="node" fill="#8998E1">0.82</text><text x="256.9" y="324.6" class="node" fill="#DADBE3">0.53</text><text x="279.6" y="254" class="node" fill="#E495A5">0.25</text><text x="302.3" y="216.6" class="node" fill="#E495A5">0.25</text><text x="325" y="173.1" class="node" fill="#E49CAA">0.27</text><text x="347.7" y="147.9" class="node" fill="#E0E0E2">0.51</text><text x="370.4" y="157.5" class="node" fill="#E6ABB6">0.32</text><text x="347.7" y="198.4" class="node" fill="#E6B1BB">0.34</text><text x="370.4" y="183.2" class="node" fill="#E6ABB6">0.32</text><text x="370.4" y="213.6" class="node" fill="#97A4E2">0.77</text><text x="393.1" y="224.9" class="node" fill="#E5A5B1">0.3</text><text x="415.9" y="234.5" class="node" fill="#4F72E2">0.99</text><text x="325" y="260.1" class="node" fill="#E495A5">0.25</text><text x="302.3" y="291.4" class="node" fill="#E5CACE">0.42</text><text x="325" y="303.4" class="node" fill="#8696E1">0.83</text><text x="347.7" y="314.6" class="node" fill="#4A6FE3">1</text><text x="370.4" y="324.3" class="node" fill="#4A6FE3">1</text><text x="279.6" y="395.2" class="node" fill="#E6B7C0">0.36</text><text x="302.3" y="349.9" class="node" fill="#CACDE3">0.59</text><text x="302.3" y="440.5" class="node" fill="#9AA6E2">0.76</text><text x="325" y="386.7" class="node" fill="#E498A7">0.26</text><text x="347.7" y="404.2" class="node" fill="#E5C7CC">0.41</text><text x="370.4" y="388.4" class="node" fill="#4A6FE3">1</text><text x="370.4" y="420.1" class="node" fill="#E6BDC5">0.38</text><text x="393.1" y="432.5" class="node" fill="#E38C9E">0.22</text><text x="415.9" y="444.5" class="node" fill="#E4D3D6">0.45</text><text x="438.6" y="455.7" class="node" fill="#5B78E2">0.96</text><text x="461.3" y="465.4" class="node" fill="#BFC4E3">0.63</text><text x="325" y="494.2" class="node" fill="#E5C7CC">0.41</text><text x="347.7" y="503.8" class="node" fill="#B9BFE3">0.65</text><text x="234.1" y="540.3" class="node" fill="#4F72E2">0.99</text><text x="256.9" y="557.5" class="node" fill="#8696E1">0.83</text><text x="279.6" y="542.3" class="node" fill="#E4D3D6">0.45</text><text x="279.6" y="572.8" class="node" fill="#4A6FE3">1</text><text x="302.3" y="584" class="node" fill="#4A6FE3">1</text><text x="325" y="593.6" class="node" fill="#4A6FE3">1</text><text x="29.7" y="646.5" class="node" fill="#4A6FE3">1</text><text x="52.4" y="632.1" class="node" fill="#4A6FE3">1</text><text x="52.4" y="661" class="node" fill="#4A6FE3">1</text><text x="75.1" y="670.6" class="node" fill="#4A6FE3">1</text></svg>
