<svg xmlns="http://www.w3.org/2000/svg" version="1.1" width="682" height="682" class="tree" data-char="52"><text x="678" y="15.4" text-anchor="end" class="stepsLabel">Character adds <tspan class="score">2</tspan> to tree score</text><text x="678" y="27.8" text-anchor="end" class="stepsLabel"><tspan class="score">0</tspan> additional regions</text><text x="678" y="40.2" text-anchor="end" class="stepsLabel">CI = 0.5; Fitch CI = 0.5; Fitch RI = 0.86</text><text x="678" y="65" text-anchor="end" class="stepsLabel"><tspan dy="16" fill="#34caaf">An optimal tree under:</tspan><tspan x="680" style="font-style:italic" class="notThisAn" dy="1.2em">Equal weights</tspan><tspan x="680" style="font-style:italic" class="notThisAn" dy="1.2em">Implied weights, k = 3</tspan><tspan x="680" style="font-style:italic" class="thisAn" dy="1.2em">IW, k = 4.5</tspan><tspan x="680" style="font-style:italic" class="notThisAn" dy="1.2em">IW, k = 7</tspan><tspan x="680" style="font-style:italic" class="notThisAn" dy="1.2em">IW, k = 10.5</tspan><tspan x="680" style="font-style:italic" class="notThisAn" dy="1.2em">IW, k = 16</tspan><tspan x="680" style="font-style:italic" class="notThisAn" dy="1.2em">IW, k = 24</tspan></text><text x="323" y="664.4" fill="grey" class="flag">[?]</text><text x="345" y="664.4" fill="#999" class="taxonLabel">Maxilites</text><text x="323" y="677" fill="grey" class="flag">[?]</text><text x="345" y="677" fill="#999" class="taxonLabel">Pauxillites</text><text x="296.5" y="651.8" fill="#91bfdb" class="flag">[2]</text><text x="318.5" y="651.8" fill="#000" class="taxonLabel">Haplophrentis carinatus</text><text x="270" y="639.2" fill="grey" class="flag">[?]</text><text x="292" y="639.2" fill="#999" class="taxonLabel">Paramicrocornus</text><text x="349.5" y="614.1" fill="grey" class="flag">[?]</text><text x="371.5" y="614.1" fill="#999" class="taxonLabel">Namacalathus</text><text x="349.5" y="626.7" fill="#91bfdb" class="flag">[2]</text><text x="371.5" y="626.7" fill="#000" class="taxonLabel">Phoronis</text><text x="323" y="601.5" fill="grey" class="flag">[?]</text><text x="345" y="601.5" fill="#999" class="taxonLabel">Cotyledion tylodes</text><text x="323" y="576.3" fill="grey" class="flag">[?]</text><text x="345" y="576.3" fill="#999" class="taxonLabel">Conotheca</text><text x="323" y="588.9" fill="grey" class="flag">[?]</text><text x="345" y="588.9" fill="#999" class="taxonLabel">Bactrotheca</text><text x="270" y="563.7" fill="grey" class="flag">[?]</text><text x="292" y="563.7" fill="#999" class="taxonLabel">Cupitheca holocyclata</text><text x="217" y="551.2" fill="grey" class="flag">[?]</text><text x="239" y="551.2" fill="#999" class="taxonLabel">Pedunculotheca diania</text><text x="323" y="526" fill="#e2e2a2" class="flag">[1]</text><text x="345" y="526" fill="#000" class="taxonLabel">Pelagodiscus atlanticus</text><text x="323" y="538.6" fill="grey" class="flag">[?]</text><text x="345" y="538.6" fill="#999" class="taxonLabel">Mickwitzia muralensis</text><text x="376" y="500.8" fill="grey" class="flag">[?]</text><text x="398" y="500.8" fill="#999" class="taxonLabel">Mummpikia nuda</text><text x="376" y="513.4" fill="grey" class="flag">[?]</text><text x="398" y="513.4" fill="#999" class="taxonLabel">Botsfordia</text><text x="349.5" y="488.2" fill="grey" class="flag">[?]</text><text x="371.5" y="488.2" fill="#999" class="taxonLabel">Eoobolus</text><text x="429" y="463.1" fill="grey" class="flag">[?]</text><text x="451" y="463.1" fill="#999" class="taxonLabel">Siphonobolus priscus</text><text x="429" y="475.6" fill="#e2e2a2" class="flag">[1]</text><text x="451" y="475.6" fill="#000" class="taxonLabel">Acanthotretella spinosa</text><text x="402.5" y="450.5" fill="#e2e2a2" class="flag">[1]</text><text x="424.5" y="450.5" fill="#000" class="taxonLabel">Lingulosacculus</text><text x="376" y="437.9" fill="grey" class="flag">[?]</text><text x="398" y="437.9" fill="#999" class="taxonLabel">Clupeafumosus socialis</text><text x="376" y="412.7" fill="#e2e2a2" class="flag">[1]</text><text x="398" y="412.7" fill="#000" class="taxonLabel">Lingula</text><text x="376" y="425.3" fill="#e2e2a2" class="flag">[1]</text><text x="398" y="425.3" fill="#000" class="taxonLabel">Lingulellotreta malongensis</text><text x="402.5" y="387.5" fill="grey" class="flag">[?]</text><text x="424.5" y="387.5" fill="#999" class="taxonLabel">Craniops</text><text x="402.5" y="400.1" fill="#e2e2a2" class="flag">[1]</text><text x="424.5" y="400.1" fill="#000" class="taxonLabel">Novocrania</text><text x="376" y="375" fill="grey" class="flag">[?]</text><text x="398" y="375" fill="#999" class="taxonLabel">Ussunia</text><text x="349.5" y="362.4" fill="#91bfdb" class="flag">[2]</text><text x="371.5" y="362.4" fill="#000" class="taxonLabel">Heliomedusa orienta</text><text x="323" y="349.8" fill="grey" class="flag">[?]</text><text x="345" y="349.8" fill="#999" class="taxonLabel">Gasconsia</text><text x="296.5" y="337.2" fill="grey" class="flag">[?]</text><text x="318.5" y="337.2" fill="#999" class="taxonLabel">Micrina</text><text x="296.5" y="312" fill="grey" class="flag">[?]</text><text x="318.5" y="312" fill="#999" class="taxonLabel">Micromitra</text><text x="296.5" y="324.6" fill="grey" class="flag">[?]</text><text x="318.5" y="324.6" fill="#999" class="taxonLabel">Askepasma toddense</text><text x="349.5" y="286.9" fill="grey" class="flag">[?]</text><text x="371.5" y="286.9" fill="#999" class="taxonLabel">Antigonambonites planus</text><text x="349.5" y="299.5" fill="grey" class="flag">[?]</text><text x="371.5" y="299.5" fill="#999" class="taxonLabel">Coolinia pecten</text><text x="482" y="261.7" fill="grey" class="flag">[?]</text><text x="504" y="261.7" fill="#999" class="taxonLabel">Orthis</text><text x="482" y="274.3" fill="#e2e2a2" class="flag">[1]</text><text x="504" y="274.3" fill="#000" class="taxonLabel">Terebratulina</text><text x="455.5" y="249.1" fill="#e2e2a2" class="flag">[1]</text><text x="477.5" y="249.1" fill="#000" class="taxonLabel">Alisina</text><text x="429" y="236.5" fill="#e2e2a2" class="flag">[1]</text><text x="451" y="236.5" fill="#000" class="taxonLabel">Longtancunella chengjiangensis</text><text x="402.5" y="223.9" fill="grey" class="flag">[?]</text><text x="424.5" y="223.9" fill="#999" class="taxonLabel">Glyptoria</text><text x="376" y="211.4" fill="grey" class="flag">[?]</text><text x="398" y="211.4" fill="#999" class="taxonLabel">Tomteluva perturbata</text><text x="376" y="186.2" fill="#e2e2a2" class="flag">[1]</text><text x="398" y="186.2" fill="#000" class="taxonLabel">Kutorgina chengjiangensis</text><text x="376" y="198.8" fill="grey" class="flag">[?]</text><text x="398" y="198.8" fill="#999" class="taxonLabel">Nisusia sulcata</text><text x="296.5" y="173.6" fill="grey" class="flag">[?]</text><text x="318.5" y="173.6" fill="#999" class="taxonLabel">Salanygolina</text><text x="217" y="161" fill="#e2e2a2" class="flag">[1]</text><text x="239" y="161" fill="#000" class="taxonLabel">Yuganotheca elegans</text><text x="164" y="148.4" fill="grey" class="flag">[?]</text><text x="186" y="148.4" fill="#999" class="taxonLabel">Paterimitra</text><text x="137.5" y="135.8" fill="grey" class="flag">[?]</text><text x="159.5" y="135.8" fill="#999" class="taxonLabel">Halkieria evangelista</text><text x="111" y="123.3" fill="grey" class="flag">[?]</text><text x="133" y="123.3" fill="#999" class="taxonLabel">Dailyatia</text><text x="84.5" y="110.7" fill="grey" class="flag">[?]</text><text x="106.5" y="110.7" fill="#999" class="taxonLabel">Eccentrotheca</text><text x="84.5" y="85.5" fill="#91bfdb" class="flag">[2]</text><text x="106.5" y="85.5" fill="#000" class="taxonLabel">Flustra</text><text x="84.5" y="98.1" fill="#91bfdb" class="flag">[2]</text><text x="106.5" y="98.1" fill="#000" class="taxonLabel">Amathia</text><text x="137.5" y="60.3" fill="lightgrey" class="flag">[-]</text><text x="159.5" y="60.3" fill="#ccc" class="taxonLabel">Dentalium</text><text x="137.5" y="72.9" fill="lightgrey" class="flag">[-]</text><text x="159.5" y="72.9" fill="#ccc" class="taxonLabel">Tonicella</text><text x="111" y="47.8" fill="lightgrey" class="flag">[-]</text><text x="133" y="47.8" fill="#ccc" class="taxonLabel">Wiwaxia corrugata</text><text x="111" y="22.6" fill="#91bfdb" class="flag">[2]</text><text x="133" y="22.6" fill="#000" class="taxonLabel">Serpula</text><text x="111" y="35.2" fill="#91bfdb" class="flag">[2]</text><text x="133" y="35.2" fill="#000" class="taxonLabel">Sipunculus</text><text x="58" y="10" fill="#91bfdb" class="flag">[2]</text><text x="80" y="10" fill="#000" class="taxonLabel">Loxosomella</text><path d="M5,67.8V23.5H31.5M31.5,23.5V7H58M31.5,23.5V40H58M58,40V25.9H84.5M84.5,25.9V19.6H111M84.5,25.9V32.2H111M5,67.8V112.2H31.5M31.5,112.2V88.8H58M58,88.8V82.5H84.5M58,88.8V95.1H84.5M31.5,112.2V135.5H58M58,135.5V107.7H84.5M58,135.5V163.4H84.5M84.5,163.4V120.3H111M84.5,163.4V206.5H111M111,206.5V132.8H137.5M111,206.5V280.2H137.5M137.5,280.2V145.4H164M137.5,280.2V415H164M323,370.4V359.4H349.5M164,415V580.2H190.5M190.5,580.2V548.2H217M190.5,580.2V612.3H217M217,612.3V577.3H243.5M243.5,577.3V560.7H270M243.5,577.3V593.8H270M270,593.8V579.6H296.5M296.5,579.6V573.3H323M296.5,579.6V585.9H323M270,593.8V607.9H296.5M296.5,607.9V598.5H323M296.5,607.9V617.4H323M323,617.4V611.1H349.5M323,617.4V623.7H349.5M217,612.3V647.3H243.5M243.5,647.3V636.2H270M243.5,647.3V658.3H270M270,658.3V648.8H296.5M270,658.3V667.7H296.5M296.5,667.7V661.4H323M296.5,667.7V674H323" stroke="#91bfdb"></path><path d="M58,40V54.2H84.5M84.5,54.2V44.8H111M84.5,54.2V63.6H111M111,63.6V57.3H137.5M111,63.6V69.9H137.5" stroke="lightgrey" class="inapplicable"></path><path d="M164,415V249.9H190.5M190.5,249.9V158H217M190.5,249.9V341.7H217M217,341.7V262.2H243.5M243.5,262.2V209.1H270M270,209.1V170.6H296.5M270,209.1V247.6H296.5M296.5,247.6V205H323M323,205V189.5H349.5M349.5,189.5V183.2H376M349.5,189.5V195.8H376M323,205V220.6H349.5M349.5,220.6V208.4H376M349.5,220.6V232.7H376M376,232.7V220.9H402.5M376,232.7V244.5H402.5M402.5,244.5V233.5H429M402.5,244.5V255.6H429M429,255.6V246.1H455.5M429,255.6V265H455.5M455.5,265V258.7H482M455.5,265V271.3H482M296.5,247.6V290.2H323M323,290.2V283.9H349.5M323,290.2V296.5H349.5M243.5,262.2V315.3H270M270,315.3V309H296.5M270,315.3V321.6H296.5M217,341.7V421.2H243.5M243.5,421.2V346.4H270M270,346.4V334.2H296.5M270,346.4V358.6H296.5M296.5,358.6V346.8H323M296.5,358.6V370.4H323M323,370.4V381.4H349.5M349.5,381.4V372H376M349.5,381.4V390.8H376M376,390.8V384.5H402.5M376,390.8V397.1H402.5M243.5,421.2V496H270M270,496V462.8H296.5M296.5,462.8V431H323M323,431V416H349.5M349.5,416V409.7H376M349.5,416V422.3H376M323,431V445.9H349.5M349.5,445.9V434.9H376M349.5,445.9V456.9H376M376,456.9V447.5H402.5M376,456.9V466.3H402.5M402.5,466.3V460.1H429M402.5,466.3V472.6H429M296.5,462.8V494.7H323M323,494.7V485.2H349.5M323,494.7V504.1H349.5M349.5,504.1V497.8H376M349.5,504.1V510.4H376M270,496V529.3H296.5M296.5,529.3V523H323M296.5,529.3V535.6H323" stroke="#e2e2a2"></path><text x="33.5" y="26.5" class="node" fill="#4A6FE3">1</text><text x="60" y="43" class="node" fill="#4A6FE3">1</text><text x="86.5" y="28.9" class="node" fill="red">NA</text><text x="86.5" y="57.2" class="node" fill="red">NA</text><text x="113" y="66.6" class="node" fill="red">NA</text><text x="33.5" y="115.2" class="node" fill="red">NA</text><text x="60" y="91.8" class="node" fill="red">NA</text><text x="60" y="138.5" class="node" fill="red">NA</text><text x="86.5" y="166.4" class="node" fill="#4A6FE3">1</text><text x="113" y="209.5" class="node" fill="red">NA</text><text x="139.5" y="283.2" class="node" fill="red">NA</text><text x="166" y="418" class="node" fill="red">NA</text><text x="192.5" y="252.9" class="node" fill="red">NA</text><text x="219" y="344.7" class="node" fill="red">NA</text><text x="245.5" y="265.2" class="node" fill="red">NA</text><text x="272" y="212.1" class="node" fill="red">NA</text><text x="298.5" y="250.6" class="node" fill="red">NA</text><text x="325" y="208" class="node" fill="red">NA</text><text x="351.5" y="192.5" class="node" fill="red">NA</text><text x="351.5" y="223.6" class="node" fill="red">NA</text><text x="378" y="235.7" class="node" fill="red">NA</text><text x="404.5" y="247.5" class="node" fill="red">NA</text><text x="431" y="258.6" class="node" fill="red">NA</text><text x="457.5" y="268" class="node" fill="red">NA</text><text x="325" y="293.2" class="node" fill="red">NA</text><text x="272" y="318.3" class="node" fill="red">NA</text><text x="245.5" y="424.2" class="node" fill="#4A6FE3">1</text><text x="272" y="349.4" class="node" fill="red">NA</text><text x="298.5" y="361.6" class="node" fill="red">NA</text><text x="325" y="373.4" class="node" fill="red">NA</text><text x="351.5" y="384.4" class="node" fill="red">NA</text><text x="378" y="393.8" class="node" fill="red">NA</text><text x="272" y="499" class="node" fill="red">NA</text><text x="298.5" y="465.8" class="node" fill="red">NA</text><text x="325" y="434" class="node" fill="red">NA</text><text x="351.5" y="419" class="node" fill="red">NA</text><text x="351.5" y="448.9" class="node" fill="red">NA</text><text x="378" y="459.9" class="node" fill="#D85778">0.06</text><text x="404.5" y="469.3" class="node" fill="red">NA</text><text x="325" y="497.7" class="node" fill="red">NA</text><text x="351.5" y="507.1" class="node" fill="red">NA</text><text x="298.5" y="532.3" class="node" fill="red">NA</text><text x="192.5" y="583.2" class="node" fill="red">NA</text><text x="219" y="615.3" class="node" fill="red">NA</text><text x="245.5" y="580.3" class="node" fill="red">NA</text><text x="272" y="596.8" class="node" fill="red">NA</text><text x="298.5" y="582.6" class="node" fill="red">NA</text><text x="298.5" y="610.9" class="node" fill="red">NA</text><text x="325" y="620.4" class="node" fill="#4A6FE3">1</text><text x="245.5" y="650.3" class="node" fill="red">NA</text><text x="272" y="661.3" class="node" fill="red">NA</text><text x="298.5" y="670.7" class="node" fill="red">NA</text></svg>
