<svg xmlns="http://www.w3.org/2000/svg" version="1.1" width="682" height="612" class="tree" data-char="8"><text x="678" y="16" text-anchor="end" class="stepsLabel">Character adds <tspan class="score">4</tspan> to tree score</text><text x="678" y="29" text-anchor="end" class="stepsLabel"><tspan class="score">0</tspan> additional regions</text><text x="678" y="42" text-anchor="end" class="stepsLabel">CI = 0.5; Fitch CI = 0.5; Fitch RI = 0</text><text x="678" y="68" text-anchor="end" class="stepsLabel"><tspan dy="16">An optimal tree under:</tspan><tspan x="680" style="font-style:italic" class="thisAn" dy="1.2em">Equal weights</tspan><tspan x="680" style="font-style:italic" class="notThisAn" dy="1.2em">Implied weights, k = 2</tspan><tspan x="680" style="font-style:italic" class="notThisAn" dy="1.2em">IW, k = 3</tspan><tspan x="680" style="font-style:italic" class="notThisAn" dy="1.2em">IW, k = 4.5</tspan><tspan x="680" style="font-style:italic" class="notThisAn" dy="1.2em">IW, k = 7</tspan><tspan x="680" style="font-style:italic" class="notThisAn" dy="1.2em">IW, k = 10.5</tspan><tspan x="680" style="font-style:italic" class="notThisAn" dy="1.2em">IW, k = 16</tspan><tspan x="680" style="font-style:italic" class="notThisAn" dy="1.2em">IW, k = 24</tspan></text><text x="95.9" y="593.7" fill="lightgrey" class="flag">[-]</text><text x="117.9" y="593.7" fill="lightgrey" class="taxonLabel">Tonicella</text><text x="95.9" y="607" fill="lightgrey" class="flag">[-]</text><text x="117.9" y="607" fill="lightgrey" class="taxonLabel">Wiwaxia corrugata</text><text x="73.1" y="580.5" fill="lightgrey" class="flag">[-]</text><text x="95.1" y="580.5" fill="lightgrey" class="taxonLabel">Dentalium</text><text x="73.1" y="553.9" fill="lightgrey" class="flag">[-]</text><text x="95.1" y="553.9" fill="lightgrey" class="taxonLabel">Sipunculus</text><text x="73.1" y="567.2" fill="lightgrey" class="flag">[-]</text><text x="95.1" y="567.2" fill="lightgrey" class="taxonLabel">Serpula</text><text x="300.3" y="514.1" fill="grey" class="flag">[?]</text><text x="322.3" y="514.1" fill="grey" class="taxonLabel">Craniops</text><text x="300.3" y="527.4" fill="#2c7bb6" class="flag">[3]</text><text x="322.3" y="527.4" fill="#000" class="taxonLabel">Novocrania</text><text x="277.6" y="500.9" fill="grey" class="flag">[?]</text><text x="299.6" y="500.9" fill="grey" class="taxonLabel">Ussunia</text><text x="254.9" y="487.6" fill="grey" class="flag">[?]</text><text x="276.9" y="487.6" fill="grey" class="taxonLabel">Gasconsia</text><text x="277.6" y="461.1" fill="#abd9e9" class="flag">[2]</text><text x="299.6" y="461.1" fill="#000" class="taxonLabel">Askepasma toddense</text><text x="277.6" y="474.3" fill="#abd9e9" class="flag">[2]</text><text x="299.6" y="474.3" fill="#000" class="taxonLabel">Micromitra</text><text x="482" y="434.5" fill="grey" class="flag">[?]</text><text x="504" y="434.5" fill="grey" class="taxonLabel">Orthis</text><text x="482" y="447.8" fill="#abd9e9" class="flag">[2]</text><text x="504" y="447.8" fill="#000" class="taxonLabel">Terebratulina</text><text x="459.3" y="421.3" fill="grey" class="flag">[?]</text><text x="481.3" y="421.3" fill="grey" class="taxonLabel">Alisina</text><text x="436.6" y="408" fill="grey" class="flag">[?]</text><text x="458.6" y="408" fill="grey" class="taxonLabel">Longtancunella chengjiangensis</text><text x="413.9" y="394.7" fill="grey" class="flag">[?]</text><text x="435.9" y="394.7" fill="grey" class="taxonLabel">Glyptoria</text><text x="391.1" y="381.5" fill="grey" class="flag">[?]</text><text x="413.1" y="381.5" fill="grey" class="taxonLabel">Nisusia sulcata</text><text x="368.4" y="368.2" fill="grey" class="flag">[?]</text><text x="390.4" y="368.2" fill="grey" class="taxonLabel">Kutorgina chengjiangensis</text><text x="368.4" y="341.7" fill="#abd9e9" class="flag">[2]</text><text x="390.4" y="341.7" fill="#000" class="taxonLabel">Coolinia pecten</text><text x="368.4" y="354.9" fill="#abd9e9" class="flag">[2]</text><text x="390.4" y="354.9" fill="#000" class="taxonLabel">Antigonambonites planus</text><text x="323" y="328.4" fill="grey" class="flag">[?]</text><text x="345" y="328.4" fill="grey" class="taxonLabel">Tomteluva perturbata</text><text x="300.3" y="315.1" fill="grey" class="flag">[?]</text><text x="322.3" y="315.1" fill="grey" class="taxonLabel">Yuganotheca elegans</text><text x="277.6" y="301.9" fill="#abd9e9" class="flag">[2]</text><text x="299.6" y="301.9" fill="#000" class="taxonLabel">Salanygolina</text><text x="391.1" y="275.3" fill="#abd9e9" class="flag">[2]</text><text x="413.1" y="275.3" fill="#000" class="taxonLabel">Siphonobolus priscus</text><text x="391.1" y="288.6" fill="grey" class="flag">[?]</text><text x="413.1" y="288.6" fill="grey" class="taxonLabel">Acanthotretella spinosa</text><text x="391.1" y="248.8" fill="grey" class="flag">[?]</text><text x="413.1" y="248.8" fill="grey" class="taxonLabel">Lingulosacculus</text><text x="391.1" y="262.1" fill="#abd9e9" class="flag">[2]</text><text x="413.1" y="262.1" fill="#000" class="taxonLabel">Clupeafumosus socialis</text><text x="345.7" y="235.5" fill="grey" class="flag">[?]</text><text x="367.7" y="235.5" fill="grey" class="taxonLabel">Lingulellotreta malongensis</text><text x="323" y="222.3" fill="#fdae61" class="flag">[1]</text><text x="345" y="222.3" fill="#000" class="taxonLabel">Botsfordia</text><text x="300.3" y="209" fill="grey" class="flag">[?]</text><text x="322.3" y="209" fill="grey" class="taxonLabel">Mummpikia nuda</text><text x="277.6" y="195.7" fill="#abd9e9" class="flag">[2]</text><text x="299.6" y="195.7" fill="#000" class="taxonLabel">Eoobolus</text><text x="254.9" y="182.5" fill="lightgrey" class="flag">[-]</text><text x="276.9" y="182.5" fill="lightgrey" class="taxonLabel">Lingula</text><text x="277.6" y="155.9" fill="#abd9e9" class="flag">[2]</text><text x="299.6" y="155.9" fill="#000" class="taxonLabel">Mickwitzia muralensis</text><text x="277.6" y="169.2" fill="#2c7bb6" class="flag">[3]</text><text x="299.6" y="169.2" fill="#000" class="taxonLabel">Pelagodiscus atlanticus</text><text x="254.9" y="142.7" fill="#fdae61" class="flag">[1]</text><text x="276.9" y="142.7" fill="#000" class="taxonLabel">Micrina</text><text x="232.1" y="116.1" fill="lightgrey" class="flag">[-]</text><text x="254.1" y="116.1" fill="lightgrey" class="taxonLabel">Pedunculotheca diania</text><text x="232.1" y="129.4" fill="lightgrey" class="flag">[-]</text><text x="254.1" y="129.4" fill="lightgrey" class="taxonLabel">Haplophrentis carinatus</text><text x="209.4" y="102.9" fill="lightgrey" class="flag">[-]</text><text x="231.4" y="102.9" fill="lightgrey" class="taxonLabel">Paterimitra</text><text x="164" y="89.6" fill="grey" class="flag">[?]</text><text x="186" y="89.6" fill="grey" class="taxonLabel">Heliomedusa orienta</text><text x="164" y="63.1" fill="lightgrey" class="flag">[-]</text><text x="186" y="63.1" fill="lightgrey" class="taxonLabel">Dailyatia</text><text x="164" y="76.3" fill="grey" class="flag">[?]</text><text x="186" y="76.3" fill="grey" class="taxonLabel">Halkieria evangelista</text><text x="141.3" y="36.5" fill="lightgrey" class="flag">[-]</text><text x="163.3" y="36.5" fill="lightgrey" class="taxonLabel">Eccentrotheca</text><text x="141.3" y="49.8" fill="grey" class="flag">[?]</text><text x="163.3" y="49.8" fill="grey" class="taxonLabel">Cotyledion tylodes</text><text x="95.9" y="23.3" fill="lightgrey" class="flag">[-]</text><text x="117.9" y="23.3" fill="lightgrey" class="taxonLabel">Phoronis</text><text x="73.1" y="10" fill="lightgrey" class="flag">[-]</text><text x="95.1" y="10" fill="lightgrey" class="taxonLabel">Flustra</text><text x="50.4" y="540.7" fill="lightgrey" class="flag">[-]</text><text x="72.4" y="540.7" fill="lightgrey" class="taxonLabel">Loxosomella</text><path d="M5,427.4V282.3H27.7M27.7,282.3V27H50.4M50.4,27V7H73.1M50.4,27V46.9H73.1M73.1,46.9V20.3H95.9M73.1,46.9V73.6H95.9M95.9,73.6V40.2H118.6M118.6,40.2V33.5H141.3M118.6,40.2V46.8H141.3M95.9,73.6V107.1H118.6M118.6,107.1V66.7H141.3M141.3,66.7V60.1H164M141.3,66.7V73.3H164M118.6,107.1V147.5H141.3M141.3,147.5V86.6H164M141.3,147.5V208.4H164M164,208.4V109.8H186.7M186.7,109.8V99.9H209.4M186.7,109.8V119.8H209.4M209.4,119.8V113.1H232.1M209.4,119.8V126.4H232.1M232.1,192.9V179.5H254.9M27.7,282.3V537.7H50.4M5,427.4V572.5H27.7M27.7,572.5V557.6H50.4M50.4,557.6V550.9H73.1M50.4,557.6V564.2H73.1M27.7,572.5V587.4H50.4M50.4,587.4V577.5H73.1M50.4,587.4V597.4H73.1M73.1,597.4V590.7H95.9M73.1,597.4V604H95.9" stroke="lightgrey" class="inapplicable"></path><path d="M164,208.4V306.9H186.7M186.7,306.9V171.3H209.4M209.4,171.3V149.6H232.1M232.1,149.6V159.6H254.9M254.9,159.6V152.9H277.6M209.4,171.3V192.9H232.1M232.1,192.9V206.4H254.9M254.9,206.4V192.7H277.6M254.9,206.4V220.1H277.6M277.6,220.1V206H300.3M277.6,220.1V234.2H300.3M300.3,234.2V249.1H323M323,249.1V232.5H345.7M323,249.1V265.7H345.7M345.7,265.7V252.4H368.4M368.4,252.4V245.8H391.1M368.4,252.4V259.1H391.1M345.7,265.7V279H368.4M368.4,279V272.3H391.1M368.4,279V285.6H391.1M186.7,306.9V442.6H209.4M209.4,442.6V389H232.1M232.1,389V313.4H254.9M254.9,313.4V298.9H277.6M254.9,313.4V327.9H277.6M277.6,327.9V312.1H300.3M277.6,327.9V343.6H300.3M300.3,343.6V325.4H323M300.3,343.6V361.8H323M323,361.8V345.3H345.7M345.7,345.3V338.7H368.4M345.7,345.3V351.9H368.4M323,361.8V378.3H345.7M345.7,378.3V365.2H368.4M345.7,378.3V391.3H368.4M368.4,391.3V378.5H391.1M368.4,391.3V404.2H391.1M391.1,404.2V391.7H413.9M391.1,404.2V416.6H413.9M413.9,416.6V405H436.6M413.9,416.6V428.2H436.6M436.6,428.2V418.3H459.3M436.6,428.2V438.2H459.3M459.3,438.2V431.5H482M459.3,438.2V444.8H482M232.1,389V464.7H254.9M254.9,464.7V458.1H277.6M254.9,464.7V471.3H277.6M209.4,442.6V496.2H232.1" stroke="#abd9e9"></path><path d="M232.1,149.6V139.7H254.9M300.3,234.2V219.3H323" stroke="#fdae61"></path><path d="M254.9,159.6V166.2H277.6M277.6,517.8V524.4H300.3" stroke="#2c7bb6"></path><path d="M232.1,496.2V484.6H254.9M232.1,496.2V507.8H254.9M254.9,507.8V497.9H277.6M254.9,507.8V517.8H277.6M277.6,517.8V511.1H300.3" stroke="darkgrey"></path><text x="7" y="430.4" class="node" fill="#4A6FE3">1</text><text x="29.7" y="285.3" class="node" fill="#4A6FE3">1</text><text x="52.4" y="30" class="node" fill="#4A6FE3">1</text><text x="75.1" y="49.9" class="node" fill="#4A6FE3">1</text><text x="97.9" y="76.6" class="node" fill="#4A6FE3">1</text><text x="120.6" y="43.2" class="node" fill="#E6BDC5">0.38</text><text x="120.6" y="110.1" class="node" fill="#4A6FE3">1</text><text x="143.3" y="69.7" class="node" fill="#4A6FE3">1</text><text x="143.3" y="150.5" class="node" fill="#4A6FE3">1</text><text x="166" y="211.4" class="node" fill="#9DA8E2">0.75</text><text x="188.7" y="112.8" class="node" fill="#B4BBE3">0.67</text><text x="211.4" y="122.8" class="node" fill="#4A6FE3">1</text><text x="188.7" y="309.9" class="node" fill="#9DA8E2">0.75</text><text x="211.4" y="174.3" class="node" fill="#B4BBE3">0.67</text><text x="234.1" y="152.6" class="node" fill="#B4BBE3">0.67</text><text x="256.9" y="162.6" class="node" fill="#9DA8E2">0.75</text><text x="234.1" y="195.9" class="node" fill="#9DA8E2">0.75</text><text x="256.9" y="209.4" class="node" fill="#B4BBE3">0.67</text><text x="279.6" y="223.1" class="node" fill="#B4BBE3">0.67</text><text x="302.3" y="237.2" class="node" fill="#B4BBE3">0.67</text><text x="325" y="252.1" class="node" fill="#B4BBE3">0.67</text><text x="347.7" y="268.7" class="node" fill="#E3DCDD">0.48</text><text x="370.4" y="255.4" class="node" fill="#DF798F">0.16</text><text x="370.4" y="282" class="node" fill="#4A6FE3">1</text><text x="211.4" y="445.6" class="node" fill="#4A6FE3">1</text><text x="234.1" y="392" class="node" fill="#8C9BE1">0.81</text><text x="256.9" y="316.4" class="node" fill="#667FE1">0.93</text><text x="279.6" y="330.9" class="node" fill="#E498A7">0.26</text><text x="302.3" y="346.6" class="node" fill="#DC6884">0.11</text><text x="325" y="364.8" class="node" fill="#4A6FE3">1</text><text x="347.7" y="348.3" class="node" fill="#4A6FE3">1</text><text x="347.7" y="381.3" class="node" fill="#7A8DE1">0.87</text><text x="370.4" y="394.3" class="node" fill="#7A8DE1">0.87</text><text x="393.1" y="407.2" class="node" fill="#7A8DE1">0.87</text><text x="415.9" y="419.6" class="node" fill="#7A8DE1">0.87</text><text x="438.6" y="431.2" class="node" fill="#4A6FE3">1</text><text x="461.3" y="441.2" class="node" fill="#5B78E2">0.96</text><text x="256.9" y="467.7" class="node" fill="#4A6FE3">1</text><text x="234.1" y="499.2" class="node" fill="#4A6FE3">1</text><text x="256.9" y="510.8" class="node" fill="#4A6FE3">1</text><text x="279.6" y="520.8" class="node" fill="#4A6FE3">1</text><text x="29.7" y="575.5" class="node" fill="#4A6FE3">1</text><text x="52.4" y="560.6" class="node" fill="#4A6FE3">1</text><text x="52.4" y="590.4" class="node" fill="#4A6FE3">1</text><text x="75.1" y="600.4" class="node" fill="#97A4E2">0.77</text></svg>
