<svg xmlns="http://www.w3.org/2000/svg" version="1.1" width="682" height="595" class="tree" char="1">
 <text x="678" y="16.6" text-anchor="end" class="stepsLabel">Character adds <tspan class="score">1</tspan> to tree score</text>
 <text x="678" y="30.2" text-anchor="end" class="stepsLabel"><tspan class="score"></tspan> additional region</text>
 <text x="678" y="43.8" text-anchor="end" class="stepsLabel">CI = 1; Fitch CI = 1; Fitch RI = n/a</text>
 <text x="678" y="71" text-anchor="end" class="stepsLabel"><tspan dy="16">A most parsimonious tree under:</tspan><tspan x="680" style="font-style:italic" class="thisAn" dy="1.2em"></tspan><tspan x="680" style="font-style:italic" class="notThisAn" dy="1.2em"></tspan><tspan x="680" style="font-style:italic" class="notThisAn" dy="1.2em"></tspan><tspan x="680" style="font-style:italic" class="notThisAn" dy="1.2em"></tspan><tspan x="680" style="font-style:italic" class="notThisAn" dy="1.2em"></tspan><tspan x="680" style="font-style:italic" class="notThisAn" dy="1.2em"></tspan><tspan x="680" style="font-style:italic" class="notThisAn" dy="1.2em"></tspan><tspan x="680" style="font-style:italic" class="notThisAn" dy="1.2em">Equal weights</tspan><tspan x="680" style="font-style:italic" class="thisAn" dy="1.2em"></tspan><tspan x="680" style="font-style:italic" class="notThisAn" dy="1.2em"></tspan><tspan x="680" style="font-style:italic" class="notThisAn" dy="1.2em"></tspan><tspan x="680" style="font-style:italic" class="notThisAn" dy="1.2em"></tspan><tspan x="680" style="font-style:italic" class="notThisAn" dy="1.2em"></tspan><tspan x="680" style="font-style:italic" class="notThisAn" dy="1.2em"></tspan><tspan x="680" style="font-style:italic" class="notThisAn" dy="1.2em"></tspan><tspan x="680" style="font-style:italic" class="notThisAn" dy="1.2em">Implied weights, k = 2</tspan><tspan x="680" style="font-style:italic" class="thisAn" dy="1.2em"></tspan><tspan x="680" style="font-style:italic" class="notThisAn" dy="1.2em"></tspan><tspan x="680" style="font-style:italic" class="notThisAn" dy="1.2em"></tspan><tspan x="680" style="font-style:italic" class="notThisAn" dy="1.2em"></tspan><tspan x="680" style="font-style:italic" class="notThisAn" dy="1.2em"></tspan><tspan x="680" style="font-style:italic" class="notThisAn" dy="1.2em"></tspan><tspan x="680" style="font-style:italic" class="notThisAn" dy="1.2em"></tspan><tspan x="680" style="font-style:italic" class="notThisAn" dy="1.2em">Implied weights, k = 3</tspan><tspan x="680" style="font-style:italic" class="thisAn" dy="1.2em"></tspan><tspan x="680" style="font-style:italic" class="notThisAn" dy="1.2em"></tspan><tspan x="680" style="font-style:italic" class="notThisAn" dy="1.2em"></tspan><tspan x="680" style="font-style:italic" class="notThisAn" dy="1.2em"></tspan><tspan x="680" style="font-style:italic" class="notThisAn" dy="1.2em"></tspan><tspan x="680" style="font-style:italic" class="notThisAn" dy="1.2em"></tspan><tspan x="680" style="font-style:italic" class="notThisAn" dy="1.2em"></tspan><tspan x="680" style="font-style:italic" class="notThisAn" dy="1.2em">Implied weights, k = 4.5</tspan><tspan x="680" style="font-style:italic" class="thisAn" dy="1.2em"></tspan><tspan x="680" style="font-style:italic" class="notThisAn" dy="1.2em"></tspan><tspan x="680" style="font-style:italic" class="notThisAn" dy="1.2em"></tspan><tspan x="680" style="font-style:italic" class="notThisAn" dy="1.2em"></tspan><tspan x="680" style="font-style:italic" class="notThisAn" dy="1.2em"></tspan><tspan x="680" style="font-style:italic" class="notThisAn" dy="1.2em"></tspan><tspan x="680" style="font-style:italic" class="notThisAn" dy="1.2em"></tspan><tspan x="680" style="font-style:italic" class="notThisAn" dy="1.2em">Implied weights, k = 7</tspan><tspan x="680" style="font-style:italic" class="thisAn" dy="1.2em"></tspan><tspan x="680" style="font-style:italic" class="notThisAn" dy="1.2em"></tspan><tspan x="680" style="font-style:italic" class="notThisAn" dy="1.2em"></tspan><tspan x="680" style="font-style:italic" class="notThisAn" dy="1.2em"></tspan><tspan x="680" style="font-style:italic" class="notThisAn" dy="1.2em"></tspan><tspan x="680" style="font-style:italic" class="notThisAn" dy="1.2em"></tspan><tspan x="680" style="font-style:italic" class="notThisAn" dy="1.2em"></tspan><tspan x="680" style="font-style:italic" class="notThisAn" dy="1.2em">Implied weights, k = 10.5</tspan><tspan x="680" style="font-style:italic" class="thisAn" dy="1.2em"></tspan><tspan x="680" style="font-style:italic" class="notThisAn" dy="1.2em"></tspan><tspan x="680" style="font-style:italic" class="notThisAn" dy="1.2em"></tspan><tspan x="680" style="font-style:italic" class="notThisAn" dy="1.2em"></tspan><tspan x="680" style="font-style:italic" class="notThisAn" dy="1.2em"></tspan><tspan x="680" style="font-style:italic" class="notThisAn" dy="1.2em"></tspan><tspan x="680" style="font-style:italic" class="notThisAn" dy="1.2em"></tspan><tspan x="680" style="font-style:italic" class="notThisAn" dy="1.2em">Implied weights, k = 16</tspan><tspan x="680" style="font-style:italic" class="thisAn" dy="1.2em"></tspan><tspan x="680" style="font-style:italic" class="notThisAn" dy="1.2em"></tspan><tspan x="680" style="font-style:italic" class="notThisAn" dy="1.2em"></tspan><tspan x="680" style="font-style:italic" class="notThisAn" dy="1.2em"></tspan><tspan x="680" style="font-style:italic" class="notThisAn" dy="1.2em"></tspan><tspan x="680" style="font-style:italic" class="notThisAn" dy="1.2em"></tspan><tspan x="680" style="font-style:italic" class="notThisAn" dy="1.2em"></tspan><tspan x="680" style="font-style:italic" class="notThisAn" dy="1.2em">Implied weights, k = 24</tspan></text>
 <text x="40.9" y="15" fill="#91bfdb" class="flag">[1]</text>
 <text x="60.9" y="15" class="taxonLabel">Dailyatia</text>
 <text x="69.9" y="29" fill="#91bfdb" class="flag">[1]</text>
 <text x="89.9" y="29" class="taxonLabel">Eccentrotheca</text>
 <text x="98.8" y="42.9" fill="#fc8d59" class="flag">[0]</text>
 <text x="118.8" y="42.9" class="taxonLabel">Phoronis</text>
 <text x="127.8" y="56.9" fill="#91bfdb" class="flag">[1]</text>
 <text x="147.8" y="56.9" class="taxonLabel">Paterimitra</text>
 <text x="185.6" y="70.9" fill="#91bfdb" class="flag">[1]</text>
 <text x="205.6" y="70.9" class="taxonLabel">Pedunculotheca diania</text>
 <text x="185.6" y="84.9" fill="#91bfdb" class="flag">[1]</text>
 <text x="205.6" y="84.9" class="taxonLabel">Haplophrentis carinatus</text>
 <text x="243.5" y="98.8" fill="#91bfdb" class="flag">[1]</text>
 <text x="263.5" y="98.8" class="taxonLabel">Gasconsia</text>
 <text x="272.5" y="112.8" fill="#91bfdb" class="flag">[1]</text>
 <text x="292.5" y="112.8" class="taxonLabel">Heliomedusa orienta</text>
 <text x="301.4" y="126.8" fill="#91bfdb" class="flag">[1]</text>
 <text x="321.4" y="126.8" class="taxonLabel">Ussunia</text>
 <text x="330.4" y="154.7" fill="#91bfdb" class="flag">[1]</text>
 <text x="350.4" y="154.7" class="taxonLabel">Craniops</text>
 <text x="330.4" y="140.8" fill="#91bfdb" class="flag">[1]</text>
 <text x="350.4" y="140.8" class="taxonLabel">Novocrania</text>
 <text x="243.5" y="168.7" fill="#91bfdb" class="flag">[1]</text>
 <text x="263.5" y="168.7" class="taxonLabel">Pelagodiscus atlanticus</text>
 <text x="272.5" y="182.7" fill="#91bfdb" class="flag">[1]</text>
 <text x="292.5" y="182.7" class="taxonLabel">Mickwitzia muralensis</text>
 <text x="301.4" y="196.6" fill="#91bfdb" class="flag">[1]</text>
 <text x="321.4" y="196.6" class="taxonLabel">Micrina</text>
 <text x="330.4" y="210.6" fill="#91bfdb" class="flag">[1]</text>
 <text x="350.4" y="210.6" class="taxonLabel">Lingula</text>
 <text x="359.3" y="224.6" fill="#91bfdb" class="flag">[1]</text>
 <text x="379.3" y="224.6" class="taxonLabel">Eoobolus</text>
 <text x="388.2" y="238.6" fill="#91bfdb" class="flag">[1]</text>
 <text x="408.2" y="238.6" class="taxonLabel">Mummpikia nuda</text>
 <text x="417.2" y="252.5" fill="#91bfdb" class="flag">[1]</text>
 <text x="437.2" y="252.5" class="taxonLabel">Botsfordia</text>
 <text x="504" y="294.4" fill="#91bfdb" class="flag">[1]</text>
 <text x="524" y="294.4" class="taxonLabel">Lingulosacculus</text>
 <text x="446.1" y="266.5" fill="#91bfdb" class="flag">[1]</text>
 <text x="466.1" y="266.5" class="taxonLabel">Lingulellotreta malongensis</text>
 <text x="504" y="280.5" fill="#91bfdb" class="flag">[1]</text>
 <text x="524" y="280.5" class="taxonLabel">Clupeafumosus socialis</text>
 <text x="504" y="308.4" fill="#91bfdb" class="flag">[1]</text>
 <text x="524" y="308.4" class="taxonLabel">Acanthotretella spinosa</text>
 <text x="504" y="322.4" fill="#91bfdb" class="flag">[1]</text>
 <text x="524" y="322.4" class="taxonLabel">Siphonobolus priscus</text>
 <text x="243.5" y="336.4" fill="#91bfdb" class="flag">[1]</text>
 <text x="263.5" y="336.4" class="taxonLabel">Askepasma toddense</text>
 <text x="243.5" y="350.3" fill="#91bfdb" class="flag">[1]</text>
 <text x="263.5" y="350.3" class="taxonLabel">Micromitra</text>
 <text x="243.5" y="364.3" fill="#91bfdb" class="flag">[1]</text>
 <text x="263.5" y="364.3" class="taxonLabel">Salanygolina</text>
 <text x="301.4" y="392.2" fill="#91bfdb" class="flag">[1]</text>
 <text x="321.4" y="392.2" class="taxonLabel">Tomteluva perturbata</text>
 <text x="301.4" y="378.3" fill="#91bfdb" class="flag">[1]</text>
 <text x="321.4" y="378.3" class="taxonLabel">Yuganotheca elegans</text>
 <text x="359.3" y="420.2" fill="#91bfdb" class="flag">[1]</text>
 <text x="379.3" y="420.2" class="taxonLabel">Kutorgina chengjiangensis</text>
 <text x="388.2" y="434.2" fill="#91bfdb" class="flag">[1]</text>
 <text x="408.2" y="434.2" class="taxonLabel">Nisusia sulcata</text>
 <text x="417.2" y="448.1" fill="#91bfdb" class="flag">[1]</text>
 <text x="437.2" y="448.1" class="taxonLabel">Glyptoria</text>
 <text x="301.4" y="406.2" fill="#91bfdb" class="flag">[1]</text>
 <text x="321.4" y="406.2" class="taxonLabel">Longtancunella chengjiangensis</text>
 <text x="475.1" y="476.1" fill="#91bfdb" class="flag">[1]</text>
 <text x="495.1" y="476.1" class="taxonLabel">Alisina</text>
 <text x="446.1" y="462.1" fill="#91bfdb" class="flag">[1]</text>
 <text x="466.1" y="462.1" class="taxonLabel">Orthis</text>
 <text x="475.1" y="490.1" fill="#91bfdb" class="flag">[1]</text>
 <text x="495.1" y="490.1" class="taxonLabel">Terebratulina</text>
 <text x="359.3" y="504" fill="#91bfdb" class="flag">[1]</text>
 <text x="379.3" y="504" class="taxonLabel">Coolinia pecten</text>
 <text x="359.3" y="518" fill="#91bfdb" class="flag">[1]</text>
 <text x="379.3" y="518" class="taxonLabel">Antigonambonites planus</text>
 <path d="M10,31.1V12H38.9" stroke="#91bfdb"></path>
 <path d="M10,31.1V50.2H38.9" stroke="#91bfdb"></path>
 <path d="M38.9,50.2V26H67.9" stroke="#91bfdb"></path>
 <path d="M38.9,50.2V74.5H67.9" stroke="#91bfdb"></path>
 <path d="M67.9,74.5V39.9H96.8" stroke="#fc8d59"></path>
 <path d="M67.9,74.5V109.1H96.8" stroke="#91bfdb"></path>
 <path d="M96.8,109.1V53.9H125.8" stroke="#91bfdb"></path>
 <path d="M96.8,109.1V164.2H125.8" stroke="#91bfdb"></path>
 <path d="M125.8,164.2V74.9H154.7" stroke="#91bfdb"></path>
 <path d="M154.7,74.9V67.9H183.6" stroke="#91bfdb"></path>
 <path d="M154.7,74.9V81.9H183.6" stroke="#91bfdb"></path>
 <path d="M125.8,164.2V253.6H154.7" stroke="#91bfdb"></path>
 <path d="M154.7,253.6V144.3H183.6" stroke="#91bfdb"></path>
 <path d="M183.6,144.3V108.9H212.6" stroke="#91bfdb"></path>
 <path d="M212.6,108.9V95.8H241.5" stroke="#91bfdb"></path>
 <path d="M212.6,108.9V122H241.5" stroke="#91bfdb"></path>
 <path d="M241.5,122V109.8H270.5" stroke="#91bfdb"></path>
 <path d="M241.5,122V134.3H270.5" stroke="#91bfdb"></path>
 <path d="M270.5,134.3V123.8H299.4" stroke="#91bfdb"></path>
 <path d="M270.5,134.3V144.7H299.4" stroke="#91bfdb"></path>
 <path d="M299.4,144.7V137.8H328.4" stroke="#91bfdb"></path>
 <path d="M299.4,144.7V151.7H328.4" stroke="#91bfdb"></path>
 <path d="M183.6,144.3V179.7H212.6" stroke="#91bfdb"></path>
 <path d="M212.6,179.7V165.7H241.5" stroke="#91bfdb"></path>
 <path d="M212.6,179.7V193.7H241.5" stroke="#91bfdb"></path>
 <path d="M241.5,193.7V179.7H270.5" stroke="#91bfdb"></path>
 <path d="M241.5,193.7V207.7H270.5" stroke="#91bfdb"></path>
 <path d="M270.5,207.7V193.6H299.4" stroke="#91bfdb"></path>
 <path d="M270.5,207.7V221.8H299.4" stroke="#91bfdb"></path>
 <path d="M299.4,221.8V207.6H328.4" stroke="#91bfdb"></path>
 <path d="M299.4,221.8V236H328.4" stroke="#91bfdb"></path>
 <path d="M328.4,236V221.6H357.3" stroke="#91bfdb"></path>
 <path d="M328.4,236V250.4H357.3" stroke="#91bfdb"></path>
 <path d="M357.3,250.4V235.6H386.2" stroke="#91bfdb"></path>
 <path d="M357.3,250.4V265.2H386.2" stroke="#91bfdb"></path>
 <path d="M386.2,265.2V249.5H415.2" stroke="#91bfdb"></path>
 <path d="M386.2,265.2V281H415.2" stroke="#91bfdb"></path>
 <path d="M415.2,281V263.5H444.1" stroke="#91bfdb"></path>
 <path d="M415.2,281V298.4H444.1" stroke="#91bfdb"></path>
 <path d="M444.1,298.4V284.5H473.1" stroke="#91bfdb"></path>
 <path d="M473.1,284.5V277.5H502" stroke="#91bfdb"></path>
 <path d="M473.1,284.5V291.4H502" stroke="#91bfdb"></path>
 <path d="M444.1,298.4V312.4H473.1" stroke="#91bfdb"></path>
 <path d="M473.1,312.4V305.4H502" stroke="#91bfdb"></path>
 <path d="M473.1,312.4V319.4H502" stroke="#91bfdb"></path>
 <path d="M154.7,253.6V362.8H183.6" stroke="#91bfdb"></path>
 <path d="M183.6,362.8V340.3H212.6" stroke="#91bfdb"></path>
 <path d="M212.6,340.3V333.4H241.5" stroke="#91bfdb"></path>
 <path d="M212.6,340.3V347.3H241.5" stroke="#91bfdb"></path>
 <path d="M183.6,362.8V385.3H212.6" stroke="#91bfdb"></path>
 <path d="M212.6,385.3V361.3H241.5" stroke="#91bfdb"></path>
 <path d="M212.6,385.3V409.3H241.5" stroke="#91bfdb"></path>
 <path d="M241.5,409.3V382.3H270.5" stroke="#91bfdb"></path>
 <path d="M270.5,382.3V375.3H299.4" stroke="#91bfdb"></path>
 <path d="M270.5,382.3V389.2H299.4" stroke="#91bfdb"></path>
 <path d="M241.5,409.3V436.3H270.5" stroke="#91bfdb"></path>
 <path d="M270.5,436.3V403.2H299.4" stroke="#91bfdb"></path>
 <path d="M270.5,436.3V469.4H299.4" stroke="#91bfdb"></path>
 <path d="M299.4,469.4V430.7H328.4" stroke="#91bfdb"></path>
 <path d="M328.4,430.7V417.2H357.3" stroke="#91bfdb"></path>
 <path d="M328.4,430.7V444.3H357.3" stroke="#91bfdb"></path>
 <path d="M357.3,444.3V431.2H386.2" stroke="#91bfdb"></path>
 <path d="M357.3,444.3V457.4H386.2" stroke="#91bfdb"></path>
 <path d="M386.2,457.4V445.1H415.2" stroke="#91bfdb"></path>
 <path d="M386.2,457.4V469.6H415.2" stroke="#91bfdb"></path>
 <path d="M415.2,469.6V459.1H444.1" stroke="#91bfdb"></path>
 <path d="M415.2,469.6V480.1H444.1" stroke="#91bfdb"></path>
 <path d="M444.1,480.1V473.1H473.1" stroke="#91bfdb"></path>
 <path d="M444.1,480.1V487.1H473.1" stroke="#91bfdb"></path>
 <path d="M299.4,469.4V508H328.4" stroke="#91bfdb"></path>
 <path d="M328.4,508V501H357.3" stroke="#91bfdb"></path>
 <path d="M328.4,508V515H357.3" stroke="#91bfdb"></path></svg>
