<svg xmlns="http://www.w3.org/2000/svg" version="1.1" width="682" height="612" class="tree" data-char="46"><text x="678" y="15.4" text-anchor="end" class="stepsLabel">Character adds <tspan class="score">6</tspan> to tree score</text><text x="678" y="27.8" text-anchor="end" class="stepsLabel"><tspan class="score">0</tspan> additional regions</text><text x="678" y="40.2" text-anchor="end" class="stepsLabel">CI = 0.17; Fitch CI = 0.17; Fitch RI = 0</text><text x="678" y="65" text-anchor="end" class="stepsLabel"><tspan dy="16" fill="#34caaf">An optimal tree under:</tspan><tspan x="680" style="font-style:italic" class="notThisAn" dy="1.2em">Equal weights</tspan><tspan x="680" style="font-style:italic" class="notThisAn" dy="1.2em">Implied weights, k = 2</tspan><tspan x="680" style="font-style:italic" class="thisAn" dy="1.2em">IW, k = 3</tspan><tspan x="680" style="font-style:italic" class="notThisAn" dy="1.2em">IW, k = 4.5</tspan><tspan x="680" style="font-style:italic" class="notThisAn" dy="1.2em">IW, k = 7</tspan><tspan x="680" style="font-style:italic" class="notThisAn" dy="1.2em">IW, k = 10.5</tspan><tspan x="680" style="font-style:italic" class="notThisAn" dy="1.2em">IW, k = 16</tspan><tspan x="680" style="font-style:italic" class="notThisAn" dy="1.2em">IW, k = 24</tspan></text><text x="100.4" y="594.3" fill="lightgrey" class="flag">[-]</text><text x="122.4" y="594.3" fill="#ccc" class="taxonLabel">Tonicella</text><text x="100.4" y="607" fill="lightgrey" class="flag">[-]</text><text x="122.4" y="607" fill="#ccc" class="taxonLabel">Wiwaxia corrugata</text><text x="76.6" y="581.6" fill="#e2e2a2" class="flag">[1]</text><text x="98.6" y="581.6" fill="#000" class="taxonLabel">Dentalium</text><text x="76.6" y="556.2" fill="#91bfdb" class="flag">[2]</text><text x="98.6" y="556.2" fill="#000" class="taxonLabel">Sipunculus</text><text x="76.6" y="568.9" fill="#91bfdb" class="flag">[2]</text><text x="98.6" y="568.9" fill="#000" class="taxonLabel">Serpula</text><text x="195.8" y="518.1" fill="grey" class="flag">[?]</text><text x="217.8" y="518.1" fill="#999" class="taxonLabel">Pedunculotheca diania</text><text x="195.8" y="530.8" fill="#e2e2a2" class="flag">[1]</text><text x="217.8" y="530.8" fill="#000" class="taxonLabel">Haplophrentis carinatus</text><text x="338.9" y="492.7" fill="grey" class="flag">[?]</text><text x="360.9" y="492.7" fill="#999" class="taxonLabel">Craniops</text><text x="338.9" y="505.4" fill="#91bfdb" class="flag">[2]</text><text x="360.9" y="505.4" fill="#000" class="taxonLabel">Novocrania</text><text x="315.1" y="480" fill="grey" class="flag">[?]</text><text x="337.1" y="480" fill="#999" class="taxonLabel">Ussunia</text><text x="291.2" y="467.3" fill="grey" class="flag">[?]</text><text x="313.2" y="467.3" fill="#999" class="taxonLabel">Gasconsia</text><text x="362.8" y="441.9" fill="grey" class="flag">[?]</text><text x="384.8" y="441.9" fill="#999" class="taxonLabel">Coolinia pecten</text><text x="362.8" y="454.6" fill="grey" class="flag">[?]</text><text x="384.8" y="454.6" fill="#999" class="taxonLabel">Antigonambonites planus</text><text x="482" y="416.5" fill="grey" class="flag">[?]</text><text x="504" y="416.5" fill="#999" class="taxonLabel">Orthis</text><text x="482" y="429.2" fill="#91bfdb" class="flag">[2]</text><text x="504" y="429.2" fill="#000" class="taxonLabel">Terebratulina</text><text x="458.2" y="403.8" fill="#91bfdb" class="flag">[2]</text><text x="480.2" y="403.8" fill="#000" class="taxonLabel">Alisina</text><text x="434.3" y="391.1" fill="#e2e2a2" class="flag">[1]</text><text x="456.3" y="391.1" fill="#000" class="taxonLabel">Longtancunella chengjiangensis</text><text x="410.5" y="378.4" fill="grey" class="flag">[?]</text><text x="432.5" y="378.4" fill="#999" class="taxonLabel">Glyptoria</text><text x="386.6" y="365.7" fill="grey" class="flag">[?]</text><text x="408.6" y="365.7" fill="#999" class="taxonLabel">Nisusia sulcata</text><text x="362.8" y="353" fill="#91bfdb" class="flag">[2]</text><text x="384.8" y="353" fill="#000" class="taxonLabel">Kutorgina chengjiangensis</text><text x="362.8" y="327.6" fill="#e2e2a2" class="flag">[1]</text><text x="384.8" y="327.6" fill="#000" class="taxonLabel">Yuganotheca elegans</text><text x="362.8" y="340.3" fill="grey" class="flag">[?]</text><text x="384.8" y="340.3" fill="#999" class="taxonLabel">Tomteluva perturbata</text><text x="338.9" y="314.9" fill="grey" class="flag">[?]</text><text x="360.9" y="314.9" fill="#999" class="taxonLabel">Salanygolina</text><text x="315.1" y="289.4" fill="grey" class="flag">[?]</text><text x="337.1" y="289.4" fill="#999" class="taxonLabel">Askepasma toddense</text><text x="315.1" y="302.1" fill="grey" class="flag">[?]</text><text x="337.1" y="302.1" fill="#999" class="taxonLabel">Micromitra</text><text x="338.9" y="264" fill="grey" class="flag">[?]</text><text x="360.9" y="264" fill="#999" class="taxonLabel">Mummpikia nuda</text><text x="338.9" y="276.7" fill="grey" class="flag">[?]</text><text x="360.9" y="276.7" fill="#999" class="taxonLabel">Botsfordia</text><text x="315.1" y="251.3" fill="grey" class="flag">[?]</text><text x="337.1" y="251.3" fill="#999" class="taxonLabel">Eoobolus</text><text x="362.8" y="225.9" fill="#91bfdb" class="flag">[2]</text><text x="384.8" y="225.9" fill="#000" class="taxonLabel">Acanthotretella spinosa</text><text x="362.8" y="238.6" fill="grey" class="flag">[?]</text><text x="384.8" y="238.6" fill="#999" class="taxonLabel">Siphonobolus priscus</text><text x="362.8" y="200.5" fill="grey" class="flag">[?]</text><text x="384.8" y="200.5" fill="#999" class="taxonLabel">Clupeafumosus socialis</text><text x="362.8" y="213.2" fill="#91bfdb" class="flag">[2]</text><text x="384.8" y="213.2" fill="#000" class="taxonLabel">Lingulosacculus</text><text x="338.9" y="175.1" fill="#91bfdb" class="flag">[2]</text><text x="360.9" y="175.1" fill="#000" class="taxonLabel">Lingulellotreta malongensis</text><text x="338.9" y="187.8" fill="#91bfdb" class="flag">[2]</text><text x="360.9" y="187.8" fill="#000" class="taxonLabel">Lingula</text><text x="291.2" y="149.7" fill="grey" class="flag">[?]</text><text x="313.2" y="149.7" fill="#999" class="taxonLabel">Mickwitzia muralensis</text><text x="291.2" y="162.4" fill="#e2e2a2" class="flag">[1]</text><text x="313.2" y="162.4" fill="#000" class="taxonLabel">Pelagodiscus atlanticus</text><text x="219.7" y="137" fill="grey" class="flag">[?]</text><text x="241.7" y="137" fill="#999" class="taxonLabel">Micrina</text><text x="195.8" y="124.3" fill="grey" class="flag">[?]</text><text x="217.8" y="124.3" fill="#999" class="taxonLabel">Paterimitra</text><text x="148.1" y="111.6" fill="#e2e2a2" class="flag">[1]</text><text x="170.1" y="111.6" fill="#000" class="taxonLabel">Heliomedusa orienta</text><text x="148.1" y="86.2" fill="grey" class="flag">[?]</text><text x="170.1" y="86.2" fill="#999" class="taxonLabel">Dailyatia</text><text x="148.1" y="98.9" fill="grey" class="flag">[?]</text><text x="170.1" y="98.9" fill="#999" class="taxonLabel">Halkieria evangelista</text><text x="172" y="60.8" fill="#91bfdb" class="flag">[2]</text><text x="194" y="60.8" fill="#000" class="taxonLabel">Phoronis</text><text x="172" y="73.5" fill="grey" class="flag">[?]</text><text x="194" y="73.5" fill="#999" class="taxonLabel">Namacalathus</text><text x="148.1" y="48.1" fill="grey" class="flag">[?]</text><text x="170.1" y="48.1" fill="#999" class="taxonLabel">Eccentrotheca</text><text x="124.2" y="35.4" fill="#91bfdb" class="flag">[2]</text><text x="146.2" y="35.4" fill="#000" class="taxonLabel">Cotyledion tylodes</text><text x="100.4" y="10" fill="#91bfdb" class="flag">[2]</text><text x="122.4" y="10" fill="#000" class="taxonLabel">Flustra</text><text x="100.4" y="22.7" fill="#91bfdb" class="flag">[2]</text><text x="122.4" y="22.7" fill="#000" class="taxonLabel">Amathia</text><text x="52.7" y="543.5" fill="#91bfdb" class="flag">[2]</text><text x="74.7" y="543.5" fill="#000" class="taxonLabel">Loxosomella</text><path d="M5,436.3V298.8H28.9M28.9,298.8V57.1H52.7M52.7,57.1V13.4H76.6M76.6,13.4V7H100.4M76.6,13.4V19.7H100.4M52.7,57.1V100.8H76.6M76.6,100.8V43.5H100.4M100.4,43.5V32.4H124.2M100.4,43.5V54.6H124.2M124.2,54.6V45.1H148.1M124.2,54.6V64.2H148.1M148.1,64.2V57.8H172M148.1,64.2V70.5H172M76.6,100.8V158.1H100.4M267.4,227.7V197.5H291.2M291.2,197.5V178.5H315.1M315.1,178.5V172.1H338.9M315.1,178.5V184.8H338.9M291.2,197.5V216.6H315.1M315.1,216.6V203.9H338.9M338.9,203.9V197.5H362.8M338.9,203.9V210.2H362.8M315.1,216.6V229.3H338.9M338.9,229.3V222.9H362.8M338.9,229.3V235.6H362.8M338.9,362.5V350H362.8M410.5,399.2V410.3H434.3M434.3,410.3V400.8H458.2M434.3,410.3V419.8H458.2M458.2,419.8V413.5H482M458.2,419.8V426.2H482M315.1,496V502.4H338.9M28.9,298.8V540.5H52.7M5,436.3V573.8H28.9M28.9,573.8V559.5H52.7M52.7,559.5V553.2H76.6M52.7,559.5V565.9H76.6M28.9,573.8V588.1H52.7" stroke="#91bfdb"></path><path d="M100.4,158.1V89.6H124.2M124.2,89.6V83.2H148.1M124.2,89.6V95.9H148.1M100.4,158.1V226.7H124.2M124.2,226.7V344.8H148.1M148.1,344.8V168.2H172M172,168.2V121.3H195.8M172,168.2V215H195.8M195.8,215V134H219.7M195.8,215V296H219.7M219.7,296V190.4H243.5M243.5,190.4V153.1H267.4M267.4,153.1V146.7H291.2M243.5,190.4V227.7H267.4M267.4,227.7V257.9H291.2M291.2,257.9V248.3H315.1M291.2,257.9V267.4H315.1M315.1,267.4V261H338.9M315.1,267.4V273.7H338.9M219.7,296V401.5H243.5M243.5,401.5V327.7H267.4M267.4,327.7V292.8H291.2M291.2,292.8V286.4H315.1M291.2,292.8V299.1H315.1M267.4,327.7V362.6H291.2M291.2,362.6V321.4H315.1M315.1,321.4V311.9H338.9M315.1,321.4V330.9H338.9M338.9,330.9V337.3H362.8M291.2,362.6V403.8H315.1M315.1,403.8V362.5H338.9M338.9,362.5V375H362.8M362.8,375V362.7H386.6M362.8,375V387.3H386.6M386.6,387.3V375.4H410.5M386.6,387.3V399.2H410.5M315.1,403.8V445.2H338.9M338.9,445.2V438.9H362.8M338.9,445.2V451.6H362.8M243.5,401.5V475.4H267.4M267.4,475.4V464.3H291.2M267.4,475.4V486.5H291.2M291.2,486.5V477H315.1M291.2,486.5V496H315.1M315.1,496V489.7H338.9M148.1,344.8V521.4H172M172,521.4V515.1H195.8" stroke="darkgrey"></path><path d="M124.2,226.7V108.6H148.1M267.4,153.1V159.4H291.2M338.9,330.9V324.6H362.8M410.5,399.2V388.1H434.3M172,521.4V527.8H195.8M52.7,588.1V578.6H76.6" stroke="#e2e2a2"></path><path d="M52.7,588.1V597.6H76.6M76.6,597.6V591.3H100.4M76.6,597.6V604H100.4" stroke="lightgrey" class="inapplicable"></path><text x="7" y="439.3" class="node" fill="#4A6FE3">1</text><text x="30.9" y="301.8" class="node" fill="#4A6FE3">1</text><text x="54.7" y="60.1" class="node" fill="#4A6FE3">1</text><text x="78.6" y="16.4" class="node" fill="#4A6FE3">1</text><text x="78.6" y="103.8" class="node" fill="#4A6FE3">1</text><text x="102.4" y="46.5" class="node" fill="#E6C4C9">0.4</text><text x="126.2" y="57.6" class="node" fill="#DF798F">0.16</text><text x="150.1" y="67.2" class="node" fill="#4A6FE3">1</text><text x="102.4" y="161.1" class="node" fill="#D2D4E3">0.57</text><text x="126.2" y="92.6" class="node" fill="#E6C1C7">0.39</text><text x="126.2" y="229.7" class="node" fill="#4A6FE3">1</text><text x="150.1" y="347.8" class="node" fill="#E5CACE">0.42</text><text x="174" y="171.2" class="node" fill="#E6B4BD">0.35</text><text x="197.8" y="218" class="node" fill="#E6C4C9">0.4</text><text x="221.7" y="299" class="node" fill="#E6AEB8">0.33</text><text x="245.5" y="193.4" class="node" fill="#E6AEB8">0.33</text><text x="269.4" y="156.1" class="node" fill="#E6AEB8">0.33</text><text x="269.4" y="230.7" class="node" fill="#E6AEB8">0.33</text><text x="293.2" y="200.5" class="node" fill="#E4D9DB">0.47</text><text x="317.1" y="181.5" class="node" fill="#E4D6D8">0.46</text><text x="317.1" y="219.6" class="node" fill="#7D8FE1">0.86</text><text x="340.9" y="206.9" class="node" fill="#E5A8B3">0.31</text><text x="340.9" y="232.3" class="node" fill="#4A6FE3">1</text><text x="293.2" y="260.9" class="node" fill="#E4D9DB">0.47</text><text x="317.1" y="270.4" class="node" fill="#E4D9DB">0.47</text><text x="245.5" y="404.5" class="node" fill="#E6AEB8">0.33</text><text x="269.4" y="330.7" class="node" fill="#7A8DE1">0.87</text><text x="293.2" y="295.8" class="node" fill="#4A6FE3">1</text><text x="293.2" y="365.6" class="node" fill="#7A8DE1">0.87</text><text x="317.1" y="324.4" class="node" fill="#D5D7E3">0.55</text><text x="340.9" y="333.9" class="node" fill="#D2D4E3">0.56</text><text x="317.1" y="406.8" class="node" fill="#9DA8E2">0.75</text><text x="340.9" y="365.5" class="node" fill="#9DA8E2">0.75</text><text x="364.8" y="378" class="node" fill="#9DA8E2">0.75</text><text x="388.6" y="390.3" class="node" fill="#4A6FE3">1</text><text x="412.5" y="402.2" class="node" fill="#4A6FE3">1</text><text x="436.3" y="413.3" class="node" fill="#4A6FE3">1</text><text x="460.2" y="422.8" class="node" fill="#4A6FE3">1</text><text x="340.9" y="448.2" class="node" fill="#4A6FE3">1</text><text x="269.4" y="478.4" class="node" fill="#4A6FE3">1</text><text x="293.2" y="489.5" class="node" fill="#4A6FE3">1</text><text x="317.1" y="499" class="node" fill="#4A6FE3">1</text><text x="174" y="524.4" class="node" fill="#4A6FE3">1</text><text x="30.9" y="576.8" class="node" fill="#4A6FE3">1</text><text x="54.7" y="562.5" class="node" fill="#4A6FE3">1</text><text x="54.7" y="591.1" class="node" fill="#4A6FE3">1</text><text x="78.6" y="600.6" class="node" fill="#E6AEB8">0.33</text></svg>
