<svg xmlns="http://www.w3.org/2000/svg" version="1.1" width="682" height="682" class="tree" data-char="193"><text x="678" y="15.6" text-anchor="end" class="stepsLabel">Character adds <tspan class="score">2</tspan> to tree score</text><text x="678" y="28.2" text-anchor="end" class="stepsLabel"><tspan class="score">0</tspan> additional regions</text><text x="678" y="40.8" text-anchor="end" class="stepsLabel">CI = 0.5; Fitch CI = 0.5; Fitch RI = 0.5</text><text x="678" y="66" text-anchor="end" class="stepsLabel"><tspan dy="16" fill="#34caaf">An optimal tree under:</tspan><tspan x="680" style="font-style:italic" class="thisAn" dy="1.2em">Equal weights</tspan><tspan x="680" style="font-style:italic" class="notThisAn" dy="1.2em">Implied weights, k = 2</tspan><tspan x="680" style="font-style:italic" class="notThisAn" dy="1.2em">IW, k = 3</tspan><tspan x="680" style="font-style:italic" class="notThisAn" dy="1.2em">IW, k = 4.5</tspan><tspan x="680" style="font-style:italic" class="notThisAn" dy="1.2em">IW, k = 7</tspan><tspan x="680" style="font-style:italic" class="notThisAn" dy="1.2em">IW, k = 10.5</tspan><tspan x="680" style="font-style:italic" class="notThisAn" dy="1.2em">IW, k = 16</tspan><tspan x="680" style="font-style:italic" class="notThisAn" dy="1.2em">IW, k = 24</tspan></text><text x="91.7" y="664.2" fill="#e2e2a2" class="flag">[1]</text><text x="113.7" y="664.2" fill="#000" class="taxonLabel">Tonicella</text><text x="91.7" y="677" fill="#e2e2a2" class="flag">[1]</text><text x="113.7" y="677" fill="#000" class="taxonLabel">Dentalium</text><text x="70" y="651.3" fill="grey" class="flag">[?]</text><text x="92" y="651.3" fill="#999" class="taxonLabel">Wiwaxia corrugata</text><text x="70" y="625.7" fill="#91bfdb" class="flag">[2]</text><text x="92" y="625.7" fill="#000" class="taxonLabel">Serpula</text><text x="70" y="638.5" fill="#e2e2a2" class="flag">[1]</text><text x="92" y="638.5" fill="#000" class="taxonLabel">Sipunculus</text><text x="351.9" y="587.2" fill="grey" class="flag">[?]</text><text x="373.9" y="587.2" fill="#999" class="taxonLabel">Pauxillites</text><text x="351.9" y="600" fill="grey" class="flag">[?]</text><text x="373.9" y="600" fill="#999" class="taxonLabel">Maxilites</text><text x="330.2" y="574.4" fill="grey" class="flag">[?]</text><text x="352.2" y="574.4" fill="#999" class="taxonLabel">Haplophrentis carinatus</text><text x="308.5" y="561.6" fill="grey" class="flag">[?]</text><text x="330.5" y="561.6" fill="#999" class="taxonLabel">Paramicrocornus</text><text x="308.5" y="535.9" fill="grey" class="flag">[?]</text><text x="330.5" y="535.9" fill="#999" class="taxonLabel">Conotheca</text><text x="308.5" y="548.7" fill="grey" class="flag">[?]</text><text x="330.5" y="548.7" fill="#999" class="taxonLabel">Bactrotheca</text><text x="265.2" y="523.1" fill="grey" class="flag">[?]</text><text x="287.2" y="523.1" fill="#999" class="taxonLabel">Pedunculotheca diania</text><text x="482" y="497.4" fill="grey" class="flag">[?]</text><text x="504" y="497.4" fill="#999" class="taxonLabel">Siphonobolus priscus</text><text x="482" y="510.2" fill="grey" class="flag">[?]</text><text x="504" y="510.2" fill="#999" class="taxonLabel">Acanthotretella spinosa</text><text x="460.3" y="484.6" fill="grey" class="flag">[?]</text><text x="482.3" y="484.6" fill="#999" class="taxonLabel">Clupeafumosus socialis</text><text x="438.6" y="471.8" fill="grey" class="flag">[?]</text><text x="460.6" y="471.8" fill="#999" class="taxonLabel">Lingulosacculus</text><text x="417" y="458.9" fill="grey" class="flag">[?]</text><text x="439" y="458.9" fill="#999" class="taxonLabel">Lingulellotreta malongensis</text><text x="417" y="433.3" fill="grey" class="flag">[?]</text><text x="439" y="433.3" fill="#999" class="taxonLabel">Pelagodiscus atlanticus</text><text x="417" y="446.1" fill="grey" class="flag">[?]</text><text x="439" y="446.1" fill="#999" class="taxonLabel">Mummpikia nuda</text><text x="373.6" y="420.5" fill="grey" class="flag">[?]</text><text x="395.6" y="420.5" fill="#999" class="taxonLabel">Botsfordia</text><text x="351.9" y="407.6" fill="grey" class="flag">[?]</text><text x="373.9" y="407.6" fill="#999" class="taxonLabel">Eoobolus</text><text x="330.2" y="394.8" fill="#91bfdb" class="flag">[2]</text><text x="352.2" y="394.8" fill="#000" class="taxonLabel">Lingula</text><text x="417" y="369.2" fill="#91bfdb" class="flag">[2]</text><text x="439" y="369.2" fill="#000" class="taxonLabel">Novocrania</text><text x="417" y="382" fill="grey" class="flag">[?]</text><text x="439" y="382" fill="#999" class="taxonLabel">Craniops</text><text x="395.3" y="356.3" fill="grey" class="flag">[?]</text><text x="417.3" y="356.3" fill="#999" class="taxonLabel">Ussunia</text><text x="373.6" y="343.5" fill="grey" class="flag">[?]</text><text x="395.6" y="343.5" fill="#999" class="taxonLabel">Heliomedusa orienta</text><text x="351.9" y="330.7" fill="grey" class="flag">[?]</text><text x="373.9" y="330.7" fill="#999" class="taxonLabel">Mickwitzia muralensis</text><text x="351.9" y="305" fill="grey" class="flag">[?]</text><text x="373.9" y="305" fill="#999" class="taxonLabel">Micromitra</text><text x="351.9" y="317.8" fill="grey" class="flag">[?]</text><text x="373.9" y="317.8" fill="#999" class="taxonLabel">Gasconsia</text><text x="373.6" y="279.4" fill="grey" class="flag">[?]</text><text x="395.6" y="279.4" fill="#999" class="taxonLabel">Nisusia sulcata</text><text x="373.6" y="292.2" fill="grey" class="flag">[?]</text><text x="395.6" y="292.2" fill="#999" class="taxonLabel">Kutorgina chengjiangensis</text><text x="417" y="253.7" fill="grey" class="flag">[?]</text><text x="439" y="253.7" fill="#999" class="taxonLabel">Alisina</text><text x="417" y="266.5" fill="#91bfdb" class="flag">[2]</text><text x="439" y="266.5" fill="#000" class="taxonLabel">Terebratulina</text><text x="417" y="228.1" fill="grey" class="flag">[?]</text><text x="439" y="228.1" fill="#999" class="taxonLabel">Orthis</text><text x="417" y="240.9" fill="grey" class="flag">[?]</text><text x="439" y="240.9" fill="#999" class="taxonLabel">Glyptoria</text><text x="395.3" y="202.4" fill="grey" class="flag">[?]</text><text x="417.3" y="202.4" fill="#999" class="taxonLabel">Antigonambonites planus</text><text x="395.3" y="215.2" fill="grey" class="flag">[?]</text><text x="417.3" y="215.2" fill="#999" class="taxonLabel">Coolinia pecten</text><text x="395.3" y="176.8" fill="grey" class="flag">[?]</text><text x="417.3" y="176.8" fill="#999" class="taxonLabel">Tomteluva perturbata</text><text x="395.3" y="189.6" fill="grey" class="flag">[?]</text><text x="417.3" y="189.6" fill="#999" class="taxonLabel">Yuganotheca elegans</text><text x="373.6" y="163.9" fill="grey" class="flag">[?]</text><text x="395.6" y="163.9" fill="#999" class="taxonLabel">Salanygolina</text><text x="351.9" y="151.1" fill="grey" class="flag">[?]</text><text x="373.9" y="151.1" fill="#999" class="taxonLabel">Longtancunella chengjiangensis</text><text x="308.5" y="138.3" fill="grey" class="flag">[?]</text><text x="330.5" y="138.3" fill="#999" class="taxonLabel">Askepasma toddense</text><text x="265.2" y="125.4" fill="grey" class="flag">[?]</text><text x="287.2" y="125.4" fill="#999" class="taxonLabel">Micrina</text><text x="221.8" y="112.6" fill="grey" class="flag">[?]</text><text x="243.8" y="112.6" fill="#999" class="taxonLabel">Paterimitra</text><text x="200.1" y="99.8" fill="grey" class="flag">[?]</text><text x="222.1" y="99.8" fill="#999" class="taxonLabel">Halkieria evangelista</text><text x="178.5" y="87" fill="grey" class="flag">[?]</text><text x="200.5" y="87" fill="#999" class="taxonLabel">Dailyatia</text><text x="156.8" y="74.1" fill="grey" class="flag">[?]</text><text x="178.8" y="74.1" fill="#999" class="taxonLabel">Cotyledion tylodes</text><text x="135.1" y="61.3" fill="grey" class="flag">[?]</text><text x="157.1" y="61.3" fill="#999" class="taxonLabel">Eccentrotheca</text><text x="113.4" y="48.5" fill="grey" class="flag">[?]</text><text x="135.4" y="48.5" fill="#999" class="taxonLabel">Namacalathus</text><text x="91.7" y="35.7" fill="#91bfdb" class="flag">[2]</text><text x="113.7" y="35.7" fill="#000" class="taxonLabel">Phoronis</text><text x="91.7" y="10" fill="#91bfdb" class="flag">[2]</text><text x="113.7" y="10" fill="#000" class="taxonLabel">Flustra</text><text x="91.7" y="22.8" fill="#91bfdb" class="flag">[2]</text><text x="113.7" y="22.8" fill="#000" class="taxonLabel">Amathia</text><text x="48.4" y="612.9" fill="#91bfdb" class="flag">[2]</text><text x="70.4" y="612.9" fill="#000" class="taxonLabel">Loxosomella</text><path d="M5,481.8V320.1H26.7M26.7,320.1V30.3H48.4M48.4,30.3V13.4H70M70,13.4V7H91.7M70,13.4V19.8H91.7M48.4,30.3V47.3H70M70,47.3V32.7H91.7M70,47.3V61.9H91.7M91.7,61.9V45.5H113.4M91.7,61.9V78.4H113.4M113.4,78.4V58.3H135.1M113.4,78.4V98.4H135.1M135.1,98.4V71.1H156.8M135.1,98.4V125.7H156.8M156.8,125.7V84H178.5M156.8,125.7V167.4H178.5M178.5,167.4V96.8H200.1M178.5,167.4V237.9H200.1M200.1,237.9V109.6H221.8M200.1,237.9V366.3H221.8M221.8,366.3V195.2H243.5M243.5,195.2V122.4H265.2M243.5,195.2V267.9H265.2M265.2,267.9V170.9H286.9M286.9,170.9V135.3H308.5M286.9,170.9V206.6H308.5M308.5,206.6V159.3H330.2M330.2,159.3V148.1H351.9M330.2,159.3V170.5H351.9M351.9,170.5V160.9H373.6M351.9,170.5V180.2H373.6M373.6,180.2V173.8H395.3M373.6,180.2V186.6H395.3M308.5,206.6V253.9H330.2M330.2,253.9V225.1H351.9M351.9,225.1V205.8H373.6M373.6,205.8V199.4H395.3M373.6,205.8V212.2H395.3M351.9,225.1V244.3H373.6M373.6,244.3V231.5H395.3M395.3,231.5V225.1H417M395.3,231.5V237.9H417M373.6,244.3V257.1H395.3M395.3,257.1V250.7H417M395.3,257.1V263.5H417M330.2,253.9V282.8H351.9M351.9,282.8V276.4H373.6M351.9,282.8V289.2H373.6M265.2,267.9V364.9H286.9M286.9,364.9V324.1H308.5M308.5,324.1V308.4H330.2M330.2,308.4V302H351.9M330.2,308.4V314.8H351.9M308.5,324.1V339.7H330.2M330.2,339.7V327.7H351.9M330.2,339.7V351.7H351.9M351.9,351.7V340.5H373.6M351.9,351.7V362.9H373.6M373.6,362.9V353.3H395.3M373.6,362.9V372.6H395.3M395.3,372.6V366.2H417M395.3,372.6V379H417M286.9,364.9V405.8H308.5M308.5,405.8V391.8H330.2M308.5,405.8V419.8H330.2M330.2,419.8V404.6H351.9M330.2,419.8V434.9H351.9M351.9,434.9V417.5H373.6M351.9,434.9V452.3H373.6M373.6,452.3V436.7H395.3M395.3,436.7V430.3H417M395.3,436.7V443.1H417M373.6,452.3V468H395.3M395.3,468V455.9H417M395.3,468V480H417M417,480V468.8H438.6M417,480V491.2H438.6M438.6,491.2V481.6H460.3M438.6,491.2V500.8H460.3M460.3,500.8V494.4H482M460.3,500.8V507.2H482M221.8,366.3V537.3H243.5M243.5,537.3V520.1H265.2M243.5,537.3V554.5H265.2M265.2,554.5V539.3H286.9M286.9,539.3V532.9H308.5M286.9,539.3V545.7H308.5M265.2,554.5V569.8H286.9M286.9,569.8V558.6H308.5M286.9,569.8V581H308.5M308.5,581V571.4H330.2M308.5,581V590.6H330.2M330.2,590.6V584.2H351.9M330.2,590.6V597H351.9M26.7,320.1V609.9H48.4M48.4,629.1V622.7H70" stroke="#91bfdb"></path><path d="M5,481.8V643.5H26.7M26.7,643.5V629.1H48.4M26.7,643.5V658H48.4M48.4,658V648.3H70" stroke="darkgrey"></path><path d="M48.4,629.1V635.5H70M48.4,658V667.6H70M70,667.6V661.2H91.7M70,667.6V674H91.7" stroke="#e2e2a2"></path><text x="7" y="484.8" class="node" fill="#4A6FE3">1</text><text x="28.7" y="323.1" class="node" fill="#4A6FE3">1</text><text x="50.4" y="33.3" class="node" fill="#4A6FE3">1</text><text x="72" y="16.4" class="node" fill="#4A6FE3">1</text><text x="72" y="50.3" class="node" fill="#4A6FE3">1</text><text x="93.7" y="64.9" class="node" fill="#E6BAC2">0.37</text><text x="115.4" y="81.4" class="node" fill="#4A6FE3">1</text><text x="137.1" y="101.4" class="node" fill="#E38C9E">0.22</text><text x="158.8" y="128.7" class="node" fill="#AEB6E2">0.69</text><text x="180.5" y="170.4" class="node" fill="#4A6FE3">1</text><text x="202.1" y="240.9" class="node" fill="#4A6FE3">1</text><text x="223.8" y="369.3" class="node" fill="#4A6FE3">1</text><text x="245.5" y="198.2" class="node" fill="#4A6FE3">1</text><text x="267.2" y="270.9" class="node" fill="#95A1E2">0.78</text><text x="288.9" y="173.9" class="node" fill="#A8B1E2">0.71</text><text x="310.5" y="209.6" class="node" fill="#4A6FE3">1</text><text x="332.2" y="162.3" class="node" fill="#DA5E7D">0.08</text><text x="353.9" y="173.5" class="node" fill="#E6BDC5">0.38</text><text x="375.6" y="183.2" class="node" fill="#8C9BE1">0.81</text><text x="332.2" y="256.9" class="node" fill="#D2D4E3">0.57</text><text x="353.9" y="228.1" class="node" fill="#DA5E7D">0.08</text><text x="375.6" y="208.8" class="node" fill="#4A6FE3">1</text><text x="375.6" y="247.3" class="node" fill="#BFC4E3">0.63</text><text x="397.3" y="234.5" class="node" fill="#DA5E7D">0.08</text><text x="397.3" y="260.1" class="node" fill="#E6B4BD">0.35</text><text x="353.9" y="285.8" class="node" fill="#E4D3D6">0.45</text><text x="288.9" y="367.9" class="node" fill="#A8B1E2">0.71</text><text x="310.5" y="327.1" class="node" fill="#A8B1E2">0.71</text><text x="332.2" y="311.4" class="node" fill="#A8B1E2">0.71</text><text x="332.2" y="342.7" class="node" fill="#A8B1E2">0.71</text><text x="353.9" y="354.7" class="node" fill="#4A6FE3">1</text><text x="375.6" y="365.9" class="node" fill="#4A6FE3">1</text><text x="397.3" y="375.6" class="node" fill="#4A6FE3">1</text><text x="310.5" y="408.8" class="node" fill="#A8B1E2">0.71</text><text x="332.2" y="422.8" class="node" fill="#C1C6E3">0.62</text><text x="353.9" y="437.9" class="node" fill="#C1C6E3">0.62</text><text x="375.6" y="455.3" class="node" fill="#C1C6E3">0.62</text><text x="397.3" y="439.7" class="node" fill="#B1B8E2">0.68</text><text x="397.3" y="471" class="node" fill="#B9BFE3">0.65</text><text x="419" y="483" class="node" fill="#4F72E2">0.99</text><text x="440.6" y="494.2" class="node" fill="#E6B4BD">0.35</text><text x="462.3" y="503.8" class="node" fill="#4F72E2">0.99</text><text x="245.5" y="540.3" class="node" fill="#4A6FE3">1</text><text x="267.2" y="557.5" class="node" fill="#4A6FE3">1</text><text x="288.9" y="542.3" class="node" fill="#E6B4BD">0.35</text><text x="288.9" y="572.8" class="node" fill="#4A6FE3">1</text><text x="310.5" y="584" class="node" fill="#4A6FE3">1</text><text x="332.2" y="593.6" class="node" fill="#4A6FE3">1</text><text x="28.7" y="646.5" class="node" fill="#4A6FE3">1</text><text x="50.4" y="632.1" class="node" fill="#4A6FE3">1</text><text x="50.4" y="661" class="node" fill="#4A6FE3">1</text><text x="72" y="670.6" class="node" fill="#4A6FE3">1</text></svg>
