<svg xmlns="http://www.w3.org/2000/svg" version="1.1" width="682" height="682" class="tree" data-char="121"><text x="678" y="15.4" text-anchor="end" class="stepsLabel">Character adds <tspan class="score">3</tspan> to tree score (<tspan class="score fitch">2</tspan> with Fitch)</text><text x="678" y="27.8" text-anchor="end" class="stepsLabel"><tspan class="score">2</tspan> additional regions (not counted by Fitch)</text><text x="678" y="40.2" text-anchor="end" class="stepsLabel">CI = 0.67; Fitch CI = 1; Fitch RI = n/a</text><text x="678" y="65" text-anchor="end" class="stepsLabel"><tspan dy="16" fill="#34caaf">An optimal tree under:</tspan><tspan x="680" style="font-style:italic" class="notThisAn" dy="1.2em">Equal weights</tspan><tspan x="680" style="font-style:italic" class="notThisAn" dy="1.2em">Implied weights, k = 3</tspan><tspan x="680" style="font-style:italic" class="notThisAn" dy="1.2em">IW, k = 4.5</tspan><tspan x="680" style="font-style:italic" class="notThisAn" dy="1.2em">IW, k = 7</tspan><tspan x="680" style="font-style:italic" class="thisAn" dy="1.2em">IW, k = 10.5</tspan><tspan x="680" style="font-style:italic" class="thisAn" dy="1.2em">IW, k = 16</tspan><tspan x="680" style="font-style:italic" class="thisAn" dy="1.2em">IW, k = 24</tspan></text><text x="91.7" y="664.4" fill="lightgrey" class="flag">[-]</text><text x="113.7" y="664.4" fill="#ccc" class="taxonLabel">Tonicella</text><text x="91.7" y="677" fill="lightgrey" class="flag">[-]</text><text x="113.7" y="677" fill="#ccc" class="taxonLabel">Dentalium</text><text x="70" y="651.8" fill="lightgrey" class="flag">[-]</text><text x="92" y="651.8" fill="#ccc" class="taxonLabel">Wiwaxia corrugata</text><text x="70" y="626.7" fill="lightgrey" class="flag">[-]</text><text x="92" y="626.7" fill="#ccc" class="taxonLabel">Sipunculus</text><text x="70" y="639.2" fill="lightgrey" class="flag">[-]</text><text x="92" y="639.2" fill="#ccc" class="taxonLabel">Serpula</text><text x="308.5" y="601.5" fill="lightgrey" class="flag">[-]</text><text x="330.5" y="601.5" fill="#ccc" class="taxonLabel">Mickwitzia muralensis</text><text x="308.5" y="614.1" fill="lightgrey" class="flag">[-]</text><text x="330.5" y="614.1" fill="#ccc" class="taxonLabel">Heliomedusa orienta</text><text x="286.9" y="588.9" fill="lightgrey" class="flag">[-]</text><text x="308.9" y="588.9" fill="#ccc" class="taxonLabel">Micrina</text><text x="373.6" y="563.7" fill="#abd9e9" class="flag">[2]</text><text x="395.6" y="563.7" fill="#000" class="taxonLabel">Antigonambonites planus</text><text x="373.6" y="576.3" fill="#fdae61" class="flag">[1]</text><text x="395.6" y="576.3" fill="#000" class="taxonLabel">Coolinia pecten</text><text x="482" y="538.6" fill="lightgrey" class="flag">[-]</text><text x="504" y="538.6" fill="#ccc" class="taxonLabel">Terebratulina</text><text x="482" y="551.2" fill="lightgrey" class="flag">[-]</text><text x="504" y="551.2" fill="#ccc" class="taxonLabel">Orthis</text><text x="460.3" y="526" fill="#fdae61" class="flag">[1]</text><text x="482.3" y="526" fill="#000" class="taxonLabel">Alisina</text><text x="438.6" y="513.4" fill="#fdae61" class="flag">[1]</text><text x="460.6" y="513.4" fill="#000" class="taxonLabel">Longtancunella chengjiangensis</text><text x="417" y="500.8" fill="lightgrey" class="flag">[-]</text><text x="439" y="500.8" fill="#ccc" class="taxonLabel">Glyptoria</text><text x="395.3" y="488.2" fill="#fdae61" class="flag">[1]</text><text x="417.3" y="488.2" fill="#000" class="taxonLabel">Tomteluva perturbata</text><text x="395.3" y="463.1" fill="grey" class="flag">[?]</text><text x="417.3" y="463.1" fill="#999" class="taxonLabel">Kutorgina chengjiangensis</text><text x="395.3" y="475.6" fill="#fdae61" class="flag">[1]</text><text x="417.3" y="475.6" fill="#000" class="taxonLabel">Nisusia sulcata</text><text x="330.2" y="450.5" fill="#fdae61" class="flag">[1]</text><text x="352.2" y="450.5" fill="#000" class="taxonLabel">Salanygolina</text><text x="330.2" y="425.3" fill="lightgrey" class="flag">[-]</text><text x="352.2" y="425.3" fill="#ccc" class="taxonLabel">Micromitra</text><text x="330.2" y="437.9" fill="lightgrey" class="flag">[-]</text><text x="352.2" y="437.9" fill="#ccc" class="taxonLabel">Askepasma toddense</text><text x="460.3" y="400.1" fill="lightgrey" class="flag">[-]</text><text x="482.3" y="400.1" fill="#ccc" class="taxonLabel">Acanthotretella spinosa</text><text x="460.3" y="412.7" fill="lightgrey" class="flag">[-]</text><text x="482.3" y="412.7" fill="#ccc" class="taxonLabel">Siphonobolus priscus</text><text x="460.3" y="375" fill="grey" class="flag">[?]</text><text x="482.3" y="375" fill="#999" class="taxonLabel">Lingulosacculus</text><text x="460.3" y="387.5" fill="grey" class="flag">[12]</text><text x="482.3" y="387.5" fill="#999" class="taxonLabel">Clupeafumosus socialis</text><text x="417" y="362.4" fill="lightgrey" class="flag">[-]</text><text x="439" y="362.4" fill="#ccc" class="taxonLabel">Lingulellotreta malongensis</text><text x="417" y="337.2" fill="lightgrey" class="flag">[-]</text><text x="439" y="337.2" fill="#ccc" class="taxonLabel">Pelagodiscus atlanticus</text><text x="417" y="349.8" fill="lightgrey" class="flag">[-]</text><text x="439" y="349.8" fill="#ccc" class="taxonLabel">Mummpikia nuda</text><text x="373.6" y="324.6" fill="lightgrey" class="flag">[-]</text><text x="395.6" y="324.6" fill="#ccc" class="taxonLabel">Botsfordia</text><text x="351.9" y="312" fill="lightgrey" class="flag">[-]</text><text x="373.9" y="312" fill="#ccc" class="taxonLabel">Eoobolus</text><text x="330.2" y="299.5" fill="lightgrey" class="flag">[-]</text><text x="352.2" y="299.5" fill="#ccc" class="taxonLabel">Lingula</text><text x="373.6" y="274.3" fill="lightgrey" class="flag">[-]</text><text x="395.6" y="274.3" fill="#ccc" class="taxonLabel">Novocrania</text><text x="373.6" y="286.9" fill="lightgrey" class="flag">[-]</text><text x="395.6" y="286.9" fill="#ccc" class="taxonLabel">Craniops</text><text x="351.9" y="261.7" fill="lightgrey" class="flag">[-]</text><text x="373.9" y="261.7" fill="#ccc" class="taxonLabel">Ussunia</text><text x="330.2" y="249.1" fill="lightgrey" class="flag">[-]</text><text x="352.2" y="249.1" fill="#ccc" class="taxonLabel">Gasconsia</text><text x="243.5" y="236.5" fill="grey" class="flag">[?]</text><text x="265.5" y="236.5" fill="#999" class="taxonLabel">Yuganotheca elegans</text><text x="330.2" y="211.4" fill="lightgrey" class="flag">[-]</text><text x="352.2" y="211.4" fill="#ccc" class="taxonLabel">Pauxillites</text><text x="330.2" y="223.9" fill="lightgrey" class="flag">[-]</text><text x="352.2" y="223.9" fill="#ccc" class="taxonLabel">Maxilites</text><text x="308.5" y="198.8" fill="lightgrey" class="flag">[-]</text><text x="330.5" y="198.8" fill="#ccc" class="taxonLabel">Haplophrentis carinatus</text><text x="286.9" y="186.2" fill="lightgrey" class="flag">[-]</text><text x="308.9" y="186.2" fill="#ccc" class="taxonLabel">Paramicrocornus</text><text x="308.5" y="161" fill="grey" class="flag">[?]</text><text x="330.5" y="161" fill="#999" class="taxonLabel">Bactrotheca</text><text x="308.5" y="173.6" fill="lightgrey" class="flag">[-]</text><text x="330.5" y="173.6" fill="#ccc" class="taxonLabel">Conotheca</text><text x="286.9" y="148.4" fill="#2c7bb6" class="flag">[3]</text><text x="308.9" y="148.4" fill="#000" class="taxonLabel">Cupitheca holocyclata</text><text x="243.5" y="135.8" fill="grey" class="flag">[?]</text><text x="265.5" y="135.8" fill="#999" class="taxonLabel">Pedunculotheca diania</text><text x="200.1" y="123.3" fill="lightgrey" class="flag">[-]</text><text x="222.1" y="123.3" fill="#ccc" class="taxonLabel">Paterimitra</text><text x="178.5" y="110.7" fill="lightgrey" class="flag">[-]</text><text x="200.5" y="110.7" fill="#ccc" class="taxonLabel">Halkieria evangelista</text><text x="156.8" y="98.1" fill="lightgrey" class="flag">[-]</text><text x="178.8" y="98.1" fill="#ccc" class="taxonLabel">Dailyatia</text><text x="135.1" y="85.5" fill="lightgrey" class="flag">[-]</text><text x="157.1" y="85.5" fill="#ccc" class="taxonLabel">Eccentrotheca</text><text x="113.4" y="72.9" fill="lightgrey" class="flag">[-]</text><text x="135.4" y="72.9" fill="#ccc" class="taxonLabel">Cotyledion tylodes</text><text x="113.4" y="47.8" fill="lightgrey" class="flag">[-]</text><text x="135.4" y="47.8" fill="#ccc" class="taxonLabel">Namacalathus</text><text x="113.4" y="60.3" fill="lightgrey" class="flag">[-]</text><text x="135.4" y="60.3" fill="#ccc" class="taxonLabel">Phoronis</text><text x="91.7" y="22.6" fill="lightgrey" class="flag">[-]</text><text x="113.7" y="22.6" fill="#ccc" class="taxonLabel">Flustra</text><text x="91.7" y="35.2" fill="lightgrey" class="flag">[-]</text><text x="113.7" y="35.2" fill="#ccc" class="taxonLabel">Amathia</text><text x="48.4" y="10" fill="lightgrey" class="flag">[-]</text><text x="70.4" y="10" fill="#ccc" class="taxonLabel">Loxosomella</text><path d="M5,335.6V27.1H26.7M26.7,27.1V7H48.4M26.7,27.1V47.2H48.4M48.4,47.2V25.9H70M70,25.9V19.6H91.7M70,25.9V32.2H91.7M48.4,47.2V68.5H70M70,68.5V51H91.7M91.7,51V44.8H113.4M91.7,51V57.3H113.4M70,68.5V86H91.7M91.7,86V69.9H113.4M91.7,86V102H113.4M113.4,102V82.5H135.1M113.4,102V121.5H135.1M135.1,121.5V95.1H156.8M135.1,121.5V147.9H156.8M156.8,147.9V107.7H178.5M156.8,147.9V188.1H178.5M178.5,188.1V120.3H200.1M178.5,188.1V256H200.1M200.1,256V153.7H221.8M221.8,153.7V132.8H243.5M221.8,153.7V174.5H243.5M243.5,174.5V154.9H265.2M265.2,154.9V164.3H286.9M286.9,164.3V158H308.5M286.9,164.3V170.6H308.5M243.5,174.5V194.2H265.2M265.2,194.2V183.2H286.9M265.2,194.2V205.2H286.9M286.9,205.2V195.8H308.5M286.9,205.2V214.7H308.5M308.5,214.7V208.4H330.2M308.5,214.7V220.9H330.2M200.1,256V358.2H221.8M221.8,358.2V233.5H243.5M221.8,358.2V482.9H243.5M243.5,482.9V370.5H265.2M265.2,370.5V283.8H286.9M286.9,283.8V257.1H308.5M308.5,257.1V246.1H330.2M308.5,257.1V268.1H330.2M330.2,268.1V258.7H351.9M330.2,268.1V277.6H351.9M351.9,277.6V271.3H373.6M351.9,277.6V283.9H373.6M286.9,283.8V310.4H308.5M308.5,310.4V296.5H330.2M308.5,310.4V324.4H330.2M330.2,324.4V309H351.9M330.2,324.4V339.7H351.9M351.9,339.7V321.6H373.6M351.9,339.7V357.8H373.6M373.6,357.8V340.5H395.3M395.3,340.5V334.2H417M395.3,340.5V346.8H417M373.6,357.8V375.1H395.3M395.3,375.1V359.4H417M395.3,375.1V390.8H417M417,390.8V403.4H438.6M438.6,403.4V397.1H460.3M438.6,403.4V409.7H460.3M265.2,370.5V457.3H286.9M286.9,457.3V428.6H308.5M308.5,428.6V422.3H330.2M308.5,428.6V434.9H330.2M395.3,509.6V497.8H417M438.6,532.4V541.9H460.3M460.3,541.9V535.6H482M460.3,541.9V548.2H482M243.5,482.9V595.3H265.2M265.2,595.3V585.9H286.9M265.2,595.3V604.8H286.9M286.9,604.8V598.5H308.5M286.9,604.8V611.1H308.5M5,335.6V644.1H26.7M26.7,644.1V630H48.4M48.4,630V623.7H70M48.4,630V636.2H70M26.7,644.1V658.3H48.4M48.4,658.3V648.8H70M48.4,658.3V667.7H70M70,667.7V661.4H91.7M70,667.7V674H91.7" stroke="lightgrey" class="inapplicable"></path><path d="M265.2,154.9V145.4H286.9" stroke="#2c7bb6"></path><path d="M417,390.8V378.3H438.6M438.6,378.3V372H460.3M438.6,378.3V384.5H460.3" stroke="darkgrey"></path><path d="M286.9,457.3V486H308.5M308.5,486V447.5H330.2M308.5,486V524.5H330.2M330.2,524.5V481.9H351.9M351.9,481.9V466.3H373.6M373.6,466.3V460.1H395.3M373.6,466.3V472.6H395.3M351.9,481.9V497.4H373.6M373.6,497.4V485.2H395.3M373.6,497.4V509.6H395.3M395.3,509.6V521.4H417M417,521.4V510.4H438.6M417,521.4V532.4H438.6M438.6,532.4V523H460.3M330.2,524.5V567H351.9M351.9,567V573.3H373.6" stroke="#fdae61"></path><path d="M351.9,567V560.7H373.6" stroke="#abd9e9"></path><text x="28.7" y="30.1" class="node" fill="#4A6FE3">1</text><text x="50.4" y="50.2" class="node" fill="#4A6FE3">1</text><text x="72" y="28.9" class="node" fill="red">NA</text><text x="72" y="71.5" class="node" fill="red">NA</text><text x="93.7" y="54" class="node" fill="#4A6FE3">1</text><text x="93.7" y="89" class="node" fill="red">NA</text><text x="115.4" y="105" class="node" fill="red">NA</text><text x="137.1" y="124.5" class="node" fill="red">NA</text><text x="158.8" y="150.9" class="node" fill="red">NA</text><text x="180.5" y="191.1" class="node" fill="red">NA</text><text x="202.1" y="259" class="node" fill="red">NA</text><text x="223.8" y="156.7" class="node" fill="red">NA</text><text x="245.5" y="177.5" class="node" fill="red">NA</text><text x="267.2" y="157.9" class="node" fill="red">NA</text><text x="288.9" y="167.3" class="node" fill="red">NA</text><text x="267.2" y="197.2" class="node" fill="#5F7BE1">0.95</text><text x="288.9" y="208.2" class="node" fill="#4A6FE3">1</text><text x="310.5" y="217.7" class="node" fill="red">NA</text><text x="223.8" y="361.2" class="node" fill="red">NA</text><text x="245.5" y="485.9" class="node" fill="red">NA</text><text x="267.2" y="373.5" class="node" fill="red">NA</text><text x="288.9" y="286.8" class="node" fill="red">NA</text><text x="310.5" y="260.1" class="node" fill="red">NA</text><text x="332.2" y="271.1" class="node" fill="red">NA</text><text x="353.9" y="280.6" class="node" fill="red">NA</text><text x="310.5" y="313.4" class="node" fill="red">NA</text><text x="332.2" y="327.4" class="node" fill="red">NA</text><text x="353.9" y="342.7" class="node" fill="red">NA</text><text x="375.6" y="360.8" class="node" fill="red">NA</text><text x="397.3" y="343.5" class="node" fill="red">NA</text><text x="397.3" y="378.1" class="node" fill="red">NA</text><text x="419" y="393.8" class="node" fill="red">NA</text><text x="440.6" y="381.3" class="node" fill="red">NA</text><text x="440.6" y="406.4" class="node" fill="red">NA</text><text x="288.9" y="460.3" class="node" fill="#E5A5B1">0.3</text><text x="310.5" y="431.6" class="node" fill="red">NA</text><text x="310.5" y="489" class="node" fill="red">NA</text><text x="332.2" y="527.5" class="node" fill="red">NA</text><text x="353.9" y="484.9" class="node" fill="red">NA</text><text x="375.6" y="469.3" class="node" fill="red">NA</text><text x="375.6" y="500.4" class="node" fill="red">NA</text><text x="397.3" y="512.6" class="node" fill="red">NA</text><text x="419" y="524.4" class="node" fill="red">NA</text><text x="440.6" y="535.4" class="node" fill="red">NA</text><text x="462.3" y="544.9" class="node" fill="red">NA</text><text x="353.9" y="570" class="node" fill="red">NA</text><text x="267.2" y="598.3" class="node" fill="red">NA</text><text x="288.9" y="607.8" class="node" fill="#4A6FE3">1</text><text x="28.7" y="647.1" class="node" fill="#5F7BE1">0.95</text><text x="50.4" y="633" class="node" fill="#5F7BE1">0.95</text><text x="50.4" y="661.3" class="node" fill="red">NA</text><text x="72" y="670.7" class="node" fill="red">NA</text></svg>
