<svg xmlns="http://www.w3.org/2000/svg" version="1.1" width="682" height="555" class="tree" char="72">
 <text x="678" y="14.7" text-anchor="end" class="stepsLabel">Character adds <tspan class="score">2</tspan> to tree score</text>
 <text x="678" y="26.4" text-anchor="end" class="stepsLabel"><tspan class="score">0</tspan> additional regions</text>
 <text x="678" y="38.1" text-anchor="end" class="stepsLabel">CI = 0.5; Fitch CI = 0.5; Fitch RI = 0.5</text>
 <text x="678" y="61.5" text-anchor="end" class="stepsLabel"><tspan dy="16">An optimal tree under:</tspan><tspan x="680" style="font-style:italic" class="thisAn" dy="1.2em">Equal weights</tspan><tspan x="680" style="font-style:italic" class="notThisAn" dy="1.2em">Implied weights, k = 2</tspan><tspan x="680" style="font-style:italic" class="notThisAn" dy="1.2em">IW, k = 3</tspan><tspan x="680" style="font-style:italic" class="notThisAn" dy="1.2em">IW, k = 4.5</tspan></text>
 <text x="31.5" y="10" fill="#fc8d59" class="flag">[0]</text>
 <text x="53.5" y="10" class="taxonLabel">Dailyatia</text>
 <text x="137.5" y="46" fill="#fc8d59" class="flag">[0]</text>
 <text x="159.5" y="46" class="taxonLabel">Halkieria evangelista</text>
 <text x="58" y="22" fill="grey" class="flag">[?]</text>
 <text x="80" y="22" class="taxonLabel">Eccentrotheca</text>
 <text x="84.5" y="34" fill="#fc8d59" class="flag">[0]</text>
 <text x="106.5" y="34" class="taxonLabel">Cotyledion tylodes</text>
 <text x="137.5" y="466" fill="#fc8d59" class="flag">[0]</text>
 <text x="159.5" y="466" class="taxonLabel">Phoronis</text>
 <text x="164" y="478" fill="grey" class="flag">[?]</text>
 <text x="186" y="478" class="taxonLabel">Flustra</text>
 <text x="190.5" y="490" fill="grey" class="flag">[?]</text>
 <text x="212.5" y="490" class="taxonLabel">Loxosomella</text>
 <text x="243.5" y="502" fill="grey" class="flag">[?]</text>
 <text x="265.5" y="502" class="taxonLabel">Dentalium</text>
 <text x="270" y="514" fill="grey" class="flag">[?]</text>
 <text x="292" y="514" class="taxonLabel">Wiwaxia corrugata</text>
 <text x="270" y="526" fill="grey" class="flag">[?]</text>
 <text x="292" y="526" class="taxonLabel">Chiton</text>
 <text x="243.5" y="538" fill="grey" class="flag">[?]</text>
 <text x="265.5" y="538" class="taxonLabel">Serpula</text>
 <text x="243.5" y="550" fill="grey" class="flag">[?]</text>
 <text x="265.5" y="550" class="taxonLabel">Sipunculus</text>
 <text x="164" y="58" fill="grey" class="flag">[?]</text>
 <text x="186" y="58" class="taxonLabel">Heliomedusa orienta</text>
 <text x="217" y="70" fill="#fc8d59" class="flag">[0]</text>
 <text x="239" y="70" class="taxonLabel">Paterimitra</text>
 <text x="243.5" y="82" fill="grey" class="flag">[?]</text>
 <text x="265.5" y="82" class="taxonLabel">Haplophrentis carinatus</text>
 <text x="243.5" y="94" fill="grey" class="flag">[?]</text>
 <text x="265.5" y="94" class="taxonLabel">Pedunculotheca diania</text>
 <text x="296.5" y="118" fill="grey" class="flag">[?]</text>
 <text x="318.5" y="118" class="taxonLabel">Askepasma toddense</text>
 <text x="296.5" y="106" fill="grey" class="flag">[?]</text>
 <text x="318.5" y="106" class="taxonLabel">Micromitra</text>
 <text x="323" y="130" fill="#fc8d59" class="flag">[0]</text>
 <text x="345" y="130" class="taxonLabel">Salanygolina</text>
 <text x="349.5" y="142" fill="grey" class="flag">[?]</text>
 <text x="371.5" y="142" class="taxonLabel">Tomteluva perturbata</text>
 <text x="349.5" y="154" fill="grey" class="flag">[?]</text>
 <text x="371.5" y="154" class="taxonLabel">Yuganotheca elegans</text>
 <text x="429" y="202" fill="grey" class="flag">[?]</text>
 <text x="451" y="202" class="taxonLabel">Longtancunella chengjiangensis</text>
 <text x="349.5" y="166" fill="grey" class="flag">[?]</text>
 <text x="371.5" y="166" class="taxonLabel">Kutorgina chengjiangensis</text>
 <text x="376" y="178" fill="grey" class="flag">[?]</text>
 <text x="398" y="178" class="taxonLabel">Nisusia sulcata</text>
 <text x="402.5" y="190" fill="grey" class="flag">[?]</text>
 <text x="424.5" y="190" class="taxonLabel">Glyptoria</text>
 <text x="482" y="238" fill="grey" class="flag">[?]</text>
 <text x="504" y="238" class="taxonLabel">Orthis</text>
 <text x="482" y="226" fill="grey" class="flag">[?]</text>
 <text x="504" y="226" class="taxonLabel">Terebratulina</text>
 <text x="455.5" y="214" fill="grey" class="flag">[?]</text>
 <text x="477.5" y="214" class="taxonLabel">Alisina</text>
 <text x="349.5" y="250" fill="grey" class="flag">[?]</text>
 <text x="371.5" y="250" class="taxonLabel">Antigonambonites planus</text>
 <text x="349.5" y="262" fill="grey" class="flag">[?]</text>
 <text x="371.5" y="262" class="taxonLabel">Coolinia pecten</text>
 <text x="270" y="274" fill="grey" class="flag">[?]</text>
 <text x="292" y="274" class="taxonLabel">Gasconsia</text>
 <text x="296.5" y="286" fill="grey" class="flag">[?]</text>
 <text x="318.5" y="286" class="taxonLabel">Ussunia</text>
 <text x="323" y="298" fill="grey" class="flag">[?]</text>
 <text x="345" y="298" class="taxonLabel">Craniops</text>
 <text x="323" y="310" fill="grey" class="flag">[?]</text>
 <text x="345" y="310" class="taxonLabel">Novocrania</text>
 <text x="270" y="322" fill="grey" class="flag">[?]</text>
 <text x="292" y="322" class="taxonLabel">Micrina</text>
 <text x="296.5" y="334" fill="grey" class="flag">[?]</text>
 <text x="318.5" y="334" class="taxonLabel">Pelagodiscus atlanticus</text>
 <text x="296.5" y="346" fill="grey" class="flag">[?]</text>
 <text x="318.5" y="346" class="taxonLabel">Mickwitzia muralensis</text>
 <text x="270" y="358" fill="grey" class="flag">[?]</text>
 <text x="292" y="358" class="taxonLabel">Lingula</text>
 <text x="296.5" y="370" fill="grey" class="flag">[?]</text>
 <text x="318.5" y="370" class="taxonLabel">Eoobolus</text>
 <text x="323" y="382" fill="grey" class="flag">[?]</text>
 <text x="345" y="382" class="taxonLabel">Mummpikia nuda</text>
 <text x="349.5" y="394" fill="grey" class="flag">[?]</text>
 <text x="371.5" y="394" class="taxonLabel">Botsfordia</text>
 <text x="402.5" y="418" fill="grey" class="flag">[?]</text>
 <text x="424.5" y="418" class="taxonLabel">Lingulosacculus</text>
 <text x="376" y="406" fill="grey" class="flag">[?]</text>
 <text x="398" y="406" class="taxonLabel">Lingulellotreta malongensis</text>
 <text x="429" y="430" fill="#91bfdb" class="flag">[1]</text>
 <text x="451" y="430" class="taxonLabel">Clupeafumosus socialis</text>
 <text x="455.5" y="442" fill="#91bfdb" class="flag">[1]</text>
 <text x="477.5" y="442" class="taxonLabel">Siphonobolus priscus</text>
 <text x="455.5" y="454" fill="#91bfdb" class="flag">[1]</text>
 <text x="477.5" y="454" class="taxonLabel">Acanthotretella spinosa</text>
 <path d="M5,46.9V7H31.5M5,46.9V86.8H31.5M31.5,86.8V19H58M31.5,86.8V154.6H58M137.5,490.4V475H164M137.5,490.4V505.8H164M164,505.8V487H190.5" stroke="#91bfdb"></path>
 <path d="M58,154.6V31H84.5M58,154.6V278.2H84.5M84.5,278.2V79.7H111M111,79.7V43H137.5M111,79.7V116.4H137.5M137.5,116.4V55H164M137.5,116.4V177.8H164M164,177.8V76H190.5M190.5,76V67H217M190.5,76V85H217M217,85V79H243.5M217,85V91H243.5M164,177.8V279.6H190.5M190.5,279.6V211.7H217M217,211.7V142H243.5" stroke="darkgrey"></path>
 <path d="M243.5,142V109H270M270,109V103H296.5M270,109V115H296.5M243.5,142V175H270M270,175V136H296.5M296.5,136V127H323M296.5,136V145H323M323,145V139H349.5M323,145V151H349.5M270,175V213.9H296.5M296.5,213.9V174.8H323M323,174.8V163H349.5M323,174.8V186.6H349.5M349.5,186.6V175H376M349.5,186.6V198.2H376M376,198.2V187H402.5M376,198.2V209.5H402.5M402.5,209.5V199H429M402.5,209.5V220H429M429,220V211H455.5M429,220V229H455.5M455.5,229V223H482M455.5,229V235H482M296.5,213.9V253H323M323,253V247H349.5M323,253V259H349.5M217,211.7V281.5H243.5M243.5,281.5V271H270M243.5,281.5V292H270M270,292V283H296.5M270,292V301H296.5M296.5,301V295H323M296.5,301V307H323M190.5,279.6V347.5H217M217,347.5V328H243.5M243.5,328V319H270M243.5,328V337H270M270,337V331H296.5M270,337V343H296.5M217,347.5V367H243.5M243.5,367V355H270M243.5,367V378.9H270M270,378.9V367H296.5M270,378.9V390.8H296.5M296.5,390.8V379H323M296.5,390.8V402.6H323M323,402.6V391H349.5M323,402.6V414.2H349.5M349.5,414.2V403H376M349.5,414.2V425.5H376M376,425.5V415H402.5M376,425.5V436H402.5M402.5,436V427H429M402.5,436V445H429M429,445V439H455.5M429,445V451H455.5M84.5,278.2V476.7H111M111,476.7V463H137.5M111,476.7V490.4H137.5M164,505.8V524.5H190.5M190.5,524.5V508H217M217,508V499H243.5M217,508V517H243.5M243.5,517V511H270M243.5,517V523H270M190.5,524.5V541H217M217,541V535H243.5M217,541V547H243.5" stroke="#fc8d59"></path>
 <text x="7" y="49.9" class="node" fill="#4A6FE3">1</text>
 <text x="33.5" y="89.8" class="node" fill="#4A6FE3">1</text>
 <text x="60" y="157.6" class="node" fill="#ABB4E2">0.7</text>
 <text x="86.5" y="281.2" class="node" fill="#ABB4E2">0.7</text>
 <text x="113" y="82.7" class="node" fill="#ABB4E2">0.7</text>
 <text x="139.5" y="119.4" class="node" fill="#ABB4E2">0.7</text>
 <text x="166" y="180.8" class="node" fill="#ABB4E2">0.7</text>
 <text x="192.5" y="79" class="node" fill="#ABB4E2">0.7</text>
 <text x="219" y="88" class="node" fill="#ABB4E2">0.7</text>
 <text x="192.5" y="282.6" class="node" fill="#ABB4E2">0.7</text>
 <text x="219" y="214.7" class="node" fill="#DC6884">0.11</text>
 <text x="245.5" y="145" class="node" fill="#DC6884">0.11</text>
 <text x="272" y="112" class="node" fill="#DC6884">0.11</text>
 <text x="272" y="178" class="node" fill="#DC6884">0.11</text>
 <text x="298.5" y="139" class="node" fill="#DC6884">0.11</text>
 <text x="325" y="148" class="node" fill="#DC6884">0.11</text>
 <text x="298.5" y="216.9" class="node" fill="#4A6FE3">1</text>
 <text x="325" y="177.8" class="node" fill="#4A6FE3">1</text>
 <text x="351.5" y="189.6" class="node" fill="#5B78E2">0.96</text>
 <text x="378" y="201.2" class="node" fill="#5B78E2">0.96</text>
 <text x="404.5" y="212.5" class="node" fill="#ABB4E2">0.7</text>
 <text x="431" y="223" class="node" fill="#ABB4E2">0.7</text>
 <text x="457.5" y="232" class="node" fill="#4A6FE3">1</text>
 <text x="325" y="256" class="node" fill="#4A6FE3">1</text>
 <text x="245.5" y="284.5" class="node" fill="#5B78E2">0.96</text>
 <text x="272" y="295" class="node" fill="#5B78E2">0.96</text>
 <text x="298.5" y="304" class="node" fill="#4A6FE3">1</text>
 <text x="219" y="350.5" class="node" fill="#4A6FE3">1</text>
 <text x="245.5" y="331" class="node" fill="#929FE1">0.79</text>
 <text x="272" y="340" class="node" fill="#929FE1">0.79</text>
 <text x="245.5" y="370" class="node" fill="#4A6FE3">1</text>
 <text x="272" y="381.9" class="node" fill="#4A6FE3">1</text>
 <text x="298.5" y="393.8" class="node" fill="#5B78E2">0.96</text>
 <text x="325" y="405.6" class="node" fill="#5B78E2">0.96</text>
 <text x="351.5" y="417.2" class="node" fill="#C4C9E3">0.61</text>
 <text x="378" y="428.5" class="node" fill="#C4C9E3">0.61</text>
 <text x="404.5" y="439" class="node" fill="#627DE1">0.94</text>
 <text x="431" y="448" class="node" fill="#627DE1">0.94</text>
 <text x="113" y="479.7" class="node" fill="#4A6FE3">1</text>
 <text x="139.5" y="493.4" class="node" fill="#4A6FE3">1</text>
 <text x="166" y="508.8" class="node" fill="#E0E0E2">0.51</text>
 <text x="192.5" y="527.5" class="node" fill="#E0E0E2">0.51</text>
 <text x="219" y="511" class="node" fill="#E0E0E2">0.51</text>
 <text x="245.5" y="520" class="node" fill="#E0E0E2">0.51</text>
 <text x="219" y="544" class="node" fill="#E0E0E2">0.51</text>
 <text x="7" y="49.9" class="node" fill="#E0E0E2">0.51</text>
 <text x="33.5" y="89.8" class="node" fill="#E0E0E2">0.51</text>
 <text x="60" y="157.6" class="node" fill="#E0E0E2">0.51</text>
 <text x="86.5" y="281.2" class="node" fill="#4A6FE3">1</text>
 <text x="113" y="82.7" class="node" fill="#4A6FE3">1</text>
 <text x="139.5" y="119.4" class="node" fill="#8F9DE1">0.8</text>
 <text x="166" y="180.8" class="node" fill="#8F9DE1">0.8</text>
 <text x="192.5" y="79" class="node" fill="#4A6FE3">1</text>
 <text x="219" y="88" class="node" fill="#4A6FE3">1</text>
 <text x="192.5" y="282.6" class="node" fill="#4A6FE3">1</text>
 <text x="219" y="214.7" class="node" fill="#4A6FE3">1</text>
 <text x="245.5" y="145" class="node" fill="#4A6FE3">1</text>
 <text x="272" y="112" class="node" fill="#4A6FE3">1</text>
 <text x="272" y="178" class="node" fill="#4A6FE3">1</text>
 <text x="298.5" y="139" class="node" fill="#4A6FE3">1</text>
 <text x="325" y="148" class="node" fill="#ABB4E2">0.7</text>
 <text x="298.5" y="216.9" class="node" fill="#ABB4E2">0.7</text>
 <text x="325" y="177.8" class="node" fill="#ABB4E2">0.7</text>
 <text x="351.5" y="189.6" class="node" fill="#ABB4E2">0.7</text>
 <text x="378" y="201.2" class="node" fill="#ABB4E2">0.7</text>
 <text x="404.5" y="212.5" class="node" fill="#ABB4E2">0.7</text>
 <text x="431" y="223" class="node" fill="#ABB4E2">0.7</text>
 <text x="457.5" y="232" class="node" fill="#ABB4E2">0.7</text>
 <text x="325" y="256" class="node" fill="#ABB4E2">0.7</text>
 <text x="245.5" y="284.5" class="node" fill="#ABB4E2">0.7</text>
 <text x="272" y="295" class="node" fill="#ABB4E2">0.7</text>
 <text x="298.5" y="304" class="node" fill="#ABB4E2">0.7</text>
 <text x="219" y="350.5" class="node" fill="#ABB4E2">0.7</text>
 <text x="245.5" y="331" class="node" fill="#ABB4E2">0.7</text>
 <text x="272" y="340" class="node" fill="#ABB4E2">0.7</text>
 <text x="245.5" y="370" class="node" fill="#ABB4E2">0.7</text>
 <text x="272" y="381.9" class="node" fill="#E6AEB8">0.33</text>
 <text x="298.5" y="393.8" class="node" fill="#E6AEB8">0.33</text>
 <text x="325" y="405.6" class="node" fill="#E0E0E2">0.51</text>
 <text x="351.5" y="417.2" class="node" fill="#E0E0E2">0.51</text>
 <text x="378" y="428.5" class="node" fill="#4A6FE3">1</text>
 <text x="404.5" y="439" class="node" fill="#4A6FE3">1</text>
 <text x="431" y="448" class="node" fill="#ABB4E2">0.7</text>
 <text x="113" y="479.7" class="node" fill="#ABB4E2">0.7</text>
 <text x="139.5" y="493.4" class="node" fill="#ABB4E2">0.7</text>
 <text x="166" y="508.8" class="node" fill="#ABB4E2">0.7</text>
 <text x="192.5" y="527.5" class="node" fill="#ABB4E2">0.7</text>
 <text x="219" y="511" class="node" fill="#ABB4E2">0.7</text>
 <text x="245.5" y="520" class="node" fill="#4A6FE3">1</text>
 <text x="219" y="544" class="node" fill="#4A6FE3">1</text></svg>
