<svg xmlns="http://www.w3.org/2000/svg" version="1.1" width="682" height="682" class="tree" data-char="43"><text x="678" y="15.6" text-anchor="end" class="stepsLabel">Character adds <tspan class="score">2</tspan> to tree score</text><text x="678" y="28.2" text-anchor="end" class="stepsLabel"><tspan class="score">0</tspan> additional regions</text><text x="678" y="40.8" text-anchor="end" class="stepsLabel">CI = 0.5; Fitch CI = 0.5; Fitch RI = 0.5</text><text x="678" y="66" text-anchor="end" class="stepsLabel"><tspan dy="16" fill="#34caaf">An optimal tree under:</tspan><tspan x="680" style="font-style:italic" class="notThisAn" dy="1.2em">Equal weights</tspan><tspan x="680" style="font-style:italic" class="thisAn" dy="1.2em">Implied weights, k = 2</tspan><tspan x="680" style="font-style:italic" class="notThisAn" dy="1.2em">IW, k = 3</tspan><tspan x="680" style="font-style:italic" class="notThisAn" dy="1.2em">IW, k = 4.5</tspan><tspan x="680" style="font-style:italic" class="notThisAn" dy="1.2em">IW, k = 7</tspan><tspan x="680" style="font-style:italic" class="notThisAn" dy="1.2em">IW, k = 10.5</tspan><tspan x="680" style="font-style:italic" class="notThisAn" dy="1.2em">IW, k = 16</tspan><tspan x="680" style="font-style:italic" class="notThisAn" dy="1.2em">IW, k = 24</tspan></text><text x="95.9" y="664.2" fill="#fc8d59" class="flag">[0]</text><text x="117.9" y="664.2" fill="#000" class="taxonLabel">Tonicella</text><text x="95.9" y="677" fill="#fc8d59" class="flag">[0]</text><text x="117.9" y="677" fill="#000" class="taxonLabel">Dentalium</text><text x="73.1" y="651.3" fill="#fc8d59" class="flag">[0]</text><text x="95.1" y="651.3" fill="#000" class="taxonLabel">Wiwaxia corrugata</text><text x="73.1" y="625.7" fill="#fc8d59" class="flag">[0]</text><text x="95.1" y="625.7" fill="#000" class="taxonLabel">Sipunculus</text><text x="73.1" y="638.5" fill="#fc8d59" class="flag">[0]</text><text x="95.1" y="638.5" fill="#000" class="taxonLabel">Serpula</text><text x="323" y="587.2" fill="grey" class="flag">[?]</text><text x="345" y="587.2" fill="#999" class="taxonLabel">Acanthotretella spinosa</text><text x="323" y="600" fill="grey" class="flag">[?]</text><text x="345" y="600" fill="#999" class="taxonLabel">Siphonobolus priscus</text><text x="368.4" y="561.6" fill="#91bfdb" class="flag">[1]</text><text x="390.4" y="561.6" fill="#000" class="taxonLabel">Lingula</text><text x="368.4" y="574.4" fill="#91bfdb" class="flag">[1]</text><text x="390.4" y="574.4" fill="#000" class="taxonLabel">Pelagodiscus atlanticus</text><text x="413.9" y="535.9" fill="grey" class="flag">[?]</text><text x="435.9" y="535.9" fill="#999" class="taxonLabel">Eoobolus</text><text x="413.9" y="548.7" fill="grey" class="flag">[?]</text><text x="435.9" y="548.7" fill="#999" class="taxonLabel">Mummpikia nuda</text><text x="391.1" y="523.1" fill="grey" class="flag">[?]</text><text x="413.1" y="523.1" fill="#999" class="taxonLabel">Botsfordia</text><text x="368.4" y="510.2" fill="grey" class="flag">[?]</text><text x="390.4" y="510.2" fill="#999" class="taxonLabel">Lingulellotreta malongensis</text><text x="323" y="497.4" fill="grey" class="flag">[?]</text><text x="345" y="497.4" fill="#999" class="taxonLabel">Lingulosacculus</text><text x="277.6" y="484.6" fill="grey" class="flag">[?]</text><text x="299.6" y="484.6" fill="#999" class="taxonLabel">Clupeafumosus socialis</text><text x="300.3" y="458.9" fill="grey" class="flag">[?]</text><text x="322.3" y="458.9" fill="#999" class="taxonLabel">Micrina</text><text x="300.3" y="471.8" fill="grey" class="flag">[?]</text><text x="322.3" y="471.8" fill="#999" class="taxonLabel">Salanygolina</text><text x="413.9" y="433.3" fill="#fc8d59" class="flag">[0]</text><text x="435.9" y="433.3" fill="#000" class="taxonLabel">Terebratulina</text><text x="413.9" y="446.1" fill="grey" class="flag">[?]</text><text x="435.9" y="446.1" fill="#999" class="taxonLabel">Alisina</text><text x="391.1" y="420.5" fill="grey" class="flag">[?]</text><text x="413.1" y="420.5" fill="#999" class="taxonLabel">Orthis</text><text x="391.1" y="394.8" fill="grey" class="flag">[?]</text><text x="413.1" y="394.8" fill="#999" class="taxonLabel">Tomteluva perturbata</text><text x="391.1" y="407.6" fill="grey" class="flag">[?]</text><text x="413.1" y="407.6" fill="#999" class="taxonLabel">Glyptoria</text><text x="345.7" y="382" fill="grey" class="flag">[?]</text><text x="367.7" y="382" fill="#999" class="taxonLabel">Longtancunella chengjiangensis</text><text x="345.7" y="356.3" fill="grey" class="flag">[?]</text><text x="367.7" y="356.3" fill="#999" class="taxonLabel">Kutorgina chengjiangensis</text><text x="345.7" y="369.2" fill="grey" class="flag">[?]</text><text x="367.7" y="369.2" fill="#999" class="taxonLabel">Nisusia sulcata</text><text x="345.7" y="330.7" fill="grey" class="flag">[?]</text><text x="367.7" y="330.7" fill="#999" class="taxonLabel">Coolinia pecten</text><text x="345.7" y="343.5" fill="grey" class="flag">[?]</text><text x="367.7" y="343.5" fill="#999" class="taxonLabel">Antigonambonites planus</text><text x="413.9" y="305" fill="#91bfdb" class="flag">[1]</text><text x="435.9" y="305" fill="#000" class="taxonLabel">Novocrania</text><text x="413.9" y="317.8" fill="grey" class="flag">[?]</text><text x="435.9" y="317.8" fill="#999" class="taxonLabel">Craniops</text><text x="391.1" y="292.2" fill="grey" class="flag">[?]</text><text x="413.1" y="292.2" fill="#999" class="taxonLabel">Ussunia</text><text x="368.4" y="279.4" fill="grey" class="flag">[?]</text><text x="390.4" y="279.4" fill="#999" class="taxonLabel">Gasconsia</text><text x="482" y="253.7" fill="grey" class="flag">[?]</text><text x="504" y="253.7" fill="#999" class="taxonLabel">Pauxillites</text><text x="482" y="266.5" fill="grey" class="flag">[?]</text><text x="504" y="266.5" fill="#999" class="taxonLabel">Maxilites</text><text x="459.3" y="240.9" fill="grey" class="flag">[?]</text><text x="481.3" y="240.9" fill="#999" class="taxonLabel">Haplophrentis carinatus</text><text x="436.6" y="228.1" fill="grey" class="flag">[?]</text><text x="458.6" y="228.1" fill="#999" class="taxonLabel">Paramicrocornus</text><text x="413.9" y="215.2" fill="grey" class="flag">[?]</text><text x="435.9" y="215.2" fill="#999" class="taxonLabel">Pedunculotheca diania</text><text x="413.9" y="189.6" fill="grey" class="flag">[?]</text><text x="435.9" y="189.6" fill="#999" class="taxonLabel">Bactrotheca</text><text x="413.9" y="202.4" fill="grey" class="flag">[?]</text><text x="435.9" y="202.4" fill="#999" class="taxonLabel">Conotheca</text><text x="368.4" y="176.8" fill="grey" class="flag">[?]</text><text x="390.4" y="176.8" fill="#999" class="taxonLabel">Yuganotheca elegans</text><text x="254.9" y="151.1" fill="grey" class="flag">[?]</text><text x="276.9" y="151.1" fill="#999" class="taxonLabel">Micromitra</text><text x="254.9" y="163.9" fill="grey" class="flag">[?]</text><text x="276.9" y="163.9" fill="#999" class="taxonLabel">Askepasma toddense</text><text x="209.4" y="138.3" fill="grey" class="flag">[?]</text><text x="231.4" y="138.3" fill="#999" class="taxonLabel">Heliomedusa orienta</text><text x="186.7" y="125.4" fill="grey" class="flag">[?]</text><text x="208.7" y="125.4" fill="#999" class="taxonLabel">Mickwitzia muralensis</text><text x="164" y="112.6" fill="grey" class="flag">[?]</text><text x="186" y="112.6" fill="#999" class="taxonLabel">Paterimitra</text><text x="164" y="87" fill="grey" class="flag">[?]</text><text x="186" y="87" fill="#999" class="taxonLabel">Dailyatia</text><text x="164" y="99.8" fill="grey" class="flag">[?]</text><text x="186" y="99.8" fill="#999" class="taxonLabel">Halkieria evangelista</text><text x="164" y="61.3" fill="#fc8d59" class="flag">[0]</text><text x="186" y="61.3" fill="#000" class="taxonLabel">Phoronis</text><text x="164" y="74.1" fill="grey" class="flag">[?]</text><text x="186" y="74.1" fill="#999" class="taxonLabel">Namacalathus</text><text x="141.3" y="48.5" fill="grey" class="flag">[?]</text><text x="163.3" y="48.5" fill="#999" class="taxonLabel">Cotyledion tylodes</text><text x="95.9" y="35.7" fill="grey" class="flag">[?]</text><text x="117.9" y="35.7" fill="#999" class="taxonLabel">Eccentrotheca</text><text x="95.9" y="10" fill="#fc8d59" class="flag">[0]</text><text x="117.9" y="10" fill="#000" class="taxonLabel">Flustra</text><text x="95.9" y="22.8" fill="#fc8d59" class="flag">[0]</text><text x="117.9" y="22.8" fill="#000" class="taxonLabel">Amathia</text><text x="50.4" y="612.9" fill="#fc8d59" class="flag">[0]</text><text x="72.4" y="612.9" fill="#000" class="taxonLabel">Loxosomella</text><path d="M5,483.3V323H27.7M27.7,323V36.2H50.4M50.4,36.2V13.4H73.1M73.1,13.4V7H95.9M73.1,13.4V19.8H95.9M50.4,36.2V59H73.1M73.1,59V32.7H95.9M73.1,59V85.3H95.9M95.9,85.3V55.1H118.6M118.6,55.1V45.5H141.3M118.6,55.1V64.7H141.3M141.3,64.7V58.3H164M141.3,64.7V71.1H164M95.9,85.3V115.5H118.6M391.1,436.7V430.3H413.9M27.7,323V609.9H50.4M5,483.3V643.5H27.7M27.7,643.5V629.1H50.4M50.4,629.1V622.7H73.1M50.4,629.1V635.5H73.1M27.7,643.5V658H50.4M50.4,658V648.3H73.1M50.4,658V667.6H73.1M73.1,667.6V661.2H95.9M73.1,667.6V674H95.9" stroke="#fc8d59"></path><path d="M118.6,115.5V90.4H141.3M141.3,90.4V84H164M141.3,90.4V96.8H164M118.6,115.5V140.6H141.3M141.3,140.6V109.6H164M141.3,140.6V171.6H164M164,171.6V122.4H186.7M164,171.6V220.7H186.7M186.7,220.7V135.3H209.4M186.7,220.7V306.1H209.4M209.4,306.1V154.5H232.1M232.1,154.5V148.1H254.9M232.1,154.5V160.9H254.9M209.4,306.1V457.6H232.1M232.1,457.6V397.3H254.9M254.9,397.3V332.3H277.6M277.6,332.3V286.7H300.3M300.3,286.7V239.4H323M323,239.4V191.2H345.7M345.7,191.2V173.8H368.4M345.7,191.2V208.6H368.4M368.4,208.6V193H391.1M391.1,193V186.6H413.9M391.1,193V199.4H413.9M368.4,208.6V224.3H391.1M391.1,224.3V212.2H413.9M391.1,224.3V236.3H413.9M413.9,236.3V225.1H436.6M413.9,236.3V247.5H436.6M436.6,247.5V237.9H459.3M436.6,247.5V257.1H459.3M459.3,257.1V250.7H482M459.3,257.1V263.5H482M323,239.4V287.6H345.7M345.7,287.6V276.4H368.4M345.7,287.6V298.8H368.4M368.4,298.8V289.2H391.1M368.4,298.8V308.4H391.1M391.1,308.4V314.8H413.9M300.3,286.7V334.1H323M323,334.1V327.7H345.7M323,334.1V340.5H345.7M277.6,332.3V377.8H300.3M300.3,377.8V359.7H323M323,359.7V353.3H345.7M323,359.7V366.2H345.7M300.3,377.8V395.8H323M323,395.8V379H345.7M323,395.8V412.7H345.7M345.7,412.7V398.2H368.4M368.4,398.2V391.8H391.1M368.4,398.2V404.6H391.1M345.7,412.7V427.1H368.4M368.4,427.1V417.5H391.1M368.4,427.1V436.7H391.1M391.1,436.7V443.1H413.9M254.9,397.3V462.4H277.6M277.6,462.4V455.9H300.3M277.6,462.4V468.8H300.3M232.1,457.6V518H254.9M254.9,518V481.6H277.6M254.9,518V554.3H277.6M277.6,554.3V518.1H300.3M300.3,518.1V494.4H323M300.3,518.1V541.7H323M323,541.7V518.5H345.7M345.7,518.5V507.2H368.4M345.7,518.5V529.7H368.4M368.4,529.7V520.1H391.1M368.4,529.7V539.3H391.1M391.1,539.3V532.9H413.9M391.1,539.3V545.7H413.9M277.6,554.3V590.6H300.3M300.3,590.6V584.2H323M300.3,590.6V597H323" stroke="darkgrey"></path><path d="M391.1,308.4V302H413.9M323,541.7V565H345.7M345.7,565V558.6H368.4M345.7,565V571.4H368.4" stroke="#91bfdb"></path><text x="7" y="486.3" class="node" fill="#4A6FE3">1</text><text x="29.7" y="326" class="node" fill="#4A6FE3">1</text><text x="52.4" y="39.2" class="node" fill="#4A6FE3">1</text><text x="75.1" y="16.4" class="node" fill="#4A6FE3">1</text><text x="75.1" y="62" class="node" fill="#4A6FE3">1</text><text x="97.9" y="88.3" class="node" fill="#D64F73">0.04</text><text x="120.6" y="58.1" class="node" fill="#DB6581">0.1</text><text x="143.3" y="67.7" class="node" fill="#E4D6D8">0.46</text><text x="120.6" y="118.5" class="node" fill="#8998E1">0.82</text><text x="143.3" y="93.4" class="node" fill="#E17F94">0.18</text><text x="143.3" y="143.6" class="node" fill="#4F72E2">0.99</text><text x="166" y="174.6" class="node" fill="#4F72E2">0.99</text><text x="188.7" y="223.7" class="node" fill="#E07C92">0.17</text><text x="211.4" y="309.1" class="node" fill="#E07C92">0.17</text><text x="234.1" y="157.5" class="node" fill="#CACDE3">0.59</text><text x="234.1" y="460.6" class="node" fill="#E07C92">0.17</text><text x="256.9" y="400.3" class="node" fill="#E07C92">0.17</text><text x="279.6" y="335.3" class="node" fill="#E07C92">0.17</text><text x="302.3" y="289.7" class="node" fill="#E07C92">0.17</text><text x="325" y="242.4" class="node" fill="#E07C92">0.17</text><text x="347.7" y="194.2" class="node" fill="#E07C92">0.17</text><text x="370.4" y="211.6" class="node" fill="#4F72E2">0.99</text><text x="393.1" y="196" class="node" fill="#E4D3D6">0.45</text><text x="393.1" y="227.3" class="node" fill="#E07C92">0.17</text><text x="415.9" y="239.3" class="node" fill="#4A6FE3">1</text><text x="438.6" y="250.5" class="node" fill="#4A6FE3">1</text><text x="461.3" y="260.1" class="node" fill="#4A6FE3">1</text><text x="347.7" y="290.6" class="node" fill="#E07C92">0.17</text><text x="370.4" y="301.8" class="node" fill="#4A6FE3">1</text><text x="393.1" y="311.4" class="node" fill="#4A6FE3">1</text><text x="325" y="337.1" class="node" fill="#4A6FE3">1</text><text x="302.3" y="380.8" class="node" fill="#E495A5">0.25</text><text x="325" y="362.7" class="node" fill="#E2E2E2">0.5</text><text x="325" y="398.8" class="node" fill="#E495A5">0.25</text><text x="347.7" y="415.7" class="node" fill="#DB6581">0.1</text><text x="370.4" y="401.2" class="node" fill="#E07C92">0.17</text><text x="370.4" y="430.1" class="node" fill="#5B78E2">0.96</text><text x="393.1" y="439.7" class="node" fill="#E6BAC2">0.37</text><text x="279.6" y="465.4" class="node" fill="#E07C92">0.17</text><text x="256.9" y="521" class="node" fill="#9DA8E2">0.75</text><text x="279.6" y="557.3" class="node" fill="#E17F94">0.18</text><text x="302.3" y="521.1" class="node" fill="#D85778">0.06</text><text x="325" y="544.7" class="node" fill="#E17F94">0.18</text><text x="347.7" y="521.5" class="node" fill="#E18297">0.19</text><text x="370.4" y="532.7" class="node" fill="#E0E0E2">0.51</text><text x="393.1" y="542.3" class="node" fill="#E18297">0.19</text><text x="347.7" y="568" class="node" fill="#E17F94">0.18</text><text x="302.3" y="593.6" class="node" fill="#4F72E2">0.99</text><text x="29.7" y="646.5" class="node" fill="#4A6FE3">1</text><text x="52.4" y="632.1" class="node" fill="#4A6FE3">1</text><text x="52.4" y="661" class="node" fill="#4A6FE3">1</text><text x="75.1" y="670.6" class="node" fill="#4A6FE3">1</text></svg>
