<svg xmlns="http://www.w3.org/2000/svg" version="1.1" width="682" height="612" class="tree" data-char="105"><text x="678" y="15.4" text-anchor="end" class="stepsLabel">Character adds <tspan class="score">5</tspan> to tree score</text><text x="678" y="27.8" text-anchor="end" class="stepsLabel"><tspan class="score">1</tspan> additional region</text><text x="678" y="40.2" text-anchor="end" class="stepsLabel">CI = 0.2; Fitch CI = 0.25; Fitch RI = 0.57</text><text x="678" y="65" text-anchor="end" class="stepsLabel"><tspan dy="16" fill="#34caaf">An optimal tree under:</tspan><tspan x="680" style="font-style:italic" class="thisAn" dy="1.2em">Equal weights</tspan><tspan x="680" style="font-style:italic" class="notThisAn" dy="1.2em">Implied weights, k = 2</tspan><tspan x="680" style="font-style:italic" class="notThisAn" dy="1.2em">IW, k = 3</tspan><tspan x="680" style="font-style:italic" class="notThisAn" dy="1.2em">IW, k = 4.5</tspan><tspan x="680" style="font-style:italic" class="notThisAn" dy="1.2em">IW, k = 7</tspan><tspan x="680" style="font-style:italic" class="notThisAn" dy="1.2em">IW, k = 10.5</tspan><tspan x="680" style="font-style:italic" class="notThisAn" dy="1.2em">IW, k = 16</tspan><tspan x="680" style="font-style:italic" class="notThisAn" dy="1.2em">IW, k = 24</tspan></text><text x="73.1" y="594.3" fill="lightgrey" class="flag">[-]</text><text x="95.1" y="594.3" fill="#ccc" class="taxonLabel">Sipunculus</text><text x="73.1" y="607" fill="lightgrey" class="flag">[-]</text><text x="95.1" y="607" fill="#ccc" class="taxonLabel">Serpula</text><text x="95.9" y="568.9" fill="lightgrey" class="flag">[-]</text><text x="117.9" y="568.9" fill="#ccc" class="taxonLabel">Dentalium</text><text x="95.9" y="581.6" fill="lightgrey" class="flag">[-]</text><text x="117.9" y="581.6" fill="#ccc" class="taxonLabel">Wiwaxia corrugata</text><text x="73.1" y="556.2" fill="#e2e2a2" class="flag">[1]</text><text x="95.1" y="556.2" fill="#000" class="taxonLabel">Tonicella</text><text x="95.9" y="530.8" fill="lightgrey" class="flag">[-]</text><text x="117.9" y="530.8" fill="#ccc" class="taxonLabel">Dailyatia</text><text x="95.9" y="543.5" fill="lightgrey" class="flag">[-]</text><text x="117.9" y="543.5" fill="#ccc" class="taxonLabel">Loxosomella</text><text x="73.1" y="518.1" fill="lightgrey" class="flag">[-]</text><text x="95.1" y="518.1" fill="#ccc" class="taxonLabel">Eccentrotheca</text><text x="164" y="492.7" fill="#e2e2a2" class="flag">[1]</text><text x="186" y="492.7" fill="#000" class="taxonLabel">Ussunia</text><text x="164" y="505.4" fill="#e2e2a2" class="flag">[1]</text><text x="186" y="505.4" fill="#000" class="taxonLabel">Craniops</text><text x="277.6" y="467.3" fill="#e2e2a2" class="flag">[1]</text><text x="299.6" y="467.3" fill="#000" class="taxonLabel">Coolinia pecten</text><text x="277.6" y="480" fill="grey" class="flag">[12]</text><text x="299.6" y="480" fill="#999" class="taxonLabel">Antigonambonites planus</text><text x="391.1" y="441.9" fill="#e2e2a2" class="flag">[1]</text><text x="413.1" y="441.9" fill="#000" class="taxonLabel">Orthis</text><text x="391.1" y="454.6" fill="#e2e2a2" class="flag">[1]</text><text x="413.1" y="454.6" fill="#000" class="taxonLabel">Terebratulina</text><text x="368.4" y="429.2" fill="#e2e2a2" class="flag">[1]</text><text x="390.4" y="429.2" fill="#000" class="taxonLabel">Alisina</text><text x="345.7" y="416.5" fill="#e2e2a2" class="flag">[1]</text><text x="367.7" y="416.5" fill="#000" class="taxonLabel">Longtancunella chengjiangensis</text><text x="323" y="403.8" fill="#e2e2a2" class="flag">[1]</text><text x="345" y="403.8" fill="#000" class="taxonLabel">Glyptoria</text><text x="300.3" y="391.1" fill="grey" class="flag">[12]</text><text x="322.3" y="391.1" fill="#999" class="taxonLabel">Nisusia sulcata</text><text x="277.6" y="378.4" fill="grey" class="flag">[12]</text><text x="299.6" y="378.4" fill="#999" class="taxonLabel">Kutorgina chengjiangensis</text><text x="277.6" y="353" fill="#e2e2a2" class="flag">[1]</text><text x="299.6" y="353" fill="#000" class="taxonLabel">Tomteluva perturbata</text><text x="277.6" y="365.7" fill="#e2e2a2" class="flag">[1]</text><text x="299.6" y="365.7" fill="#000" class="taxonLabel">Yuganotheca elegans</text><text x="254.9" y="340.3" fill="grey" class="flag">[12]</text><text x="276.9" y="340.3" fill="#999" class="taxonLabel">Salanygolina</text><text x="300.3" y="314.9" fill="grey" class="flag">[12]</text><text x="322.3" y="314.9" fill="#999" class="taxonLabel">Mickwitzia muralensis</text><text x="300.3" y="327.6" fill="#e2e2a2" class="flag">[1]</text><text x="322.3" y="327.6" fill="#000" class="taxonLabel">Pelagodiscus atlanticus</text><text x="482" y="289.4" fill="#91bfdb" class="flag">[2]</text><text x="504" y="289.4" fill="#000" class="taxonLabel">Acanthotretella spinosa</text><text x="482" y="302.1" fill="#e2e2a2" class="flag">[1]</text><text x="504" y="302.1" fill="#000" class="taxonLabel">Siphonobolus priscus</text><text x="459.3" y="276.7" fill="#91bfdb" class="flag">[2]</text><text x="481.3" y="276.7" fill="#000" class="taxonLabel">Lingulosacculus</text><text x="436.6" y="264" fill="#91bfdb" class="flag">[2]</text><text x="458.6" y="264" fill="#000" class="taxonLabel">Clupeafumosus socialis</text><text x="413.9" y="251.3" fill="#91bfdb" class="flag">[2]</text><text x="435.9" y="251.3" fill="#000" class="taxonLabel">Lingulellotreta malongensis</text><text x="391.1" y="238.6" fill="#e2e2a2" class="flag">[1]</text><text x="413.1" y="238.6" fill="#000" class="taxonLabel">Botsfordia</text><text x="368.4" y="225.9" fill="#e2e2a2" class="flag">[1]</text><text x="390.4" y="225.9" fill="#000" class="taxonLabel">Mummpikia nuda</text><text x="345.7" y="213.2" fill="#e2e2a2" class="flag">[1]</text><text x="367.7" y="213.2" fill="#000" class="taxonLabel">Eoobolus</text><text x="323" y="200.5" fill="#e2e2a2" class="flag">[1]</text><text x="345" y="200.5" fill="#000" class="taxonLabel">Lingula</text><text x="300.3" y="187.8" fill="#91bfdb" class="flag">[2]</text><text x="322.3" y="187.8" fill="#000" class="taxonLabel">Micrina</text><text x="277.6" y="162.4" fill="#e2e2a2" class="flag">[1]</text><text x="299.6" y="162.4" fill="#000" class="taxonLabel">Heliomedusa orienta</text><text x="277.6" y="175.1" fill="#e2e2a2" class="flag">[1]</text><text x="299.6" y="175.1" fill="#000" class="taxonLabel">Novocrania</text><text x="254.9" y="137" fill="#e2e2a2" class="flag">[1]</text><text x="276.9" y="137" fill="#000" class="taxonLabel">Askepasma toddense</text><text x="254.9" y="149.7" fill="#e2e2a2" class="flag">[1]</text><text x="276.9" y="149.7" fill="#000" class="taxonLabel">Micromitra</text><text x="232.1" y="111.6" fill="#91bfdb" class="flag">[2]</text><text x="254.1" y="111.6" fill="#000" class="taxonLabel">Pedunculotheca diania</text><text x="232.1" y="124.3" fill="#91bfdb" class="flag">[2]</text><text x="254.1" y="124.3" fill="#000" class="taxonLabel">Haplophrentis carinatus</text><text x="209.4" y="98.9" fill="#91bfdb" class="flag">[2]</text><text x="231.4" y="98.9" fill="#000" class="taxonLabel">Paterimitra</text><text x="164" y="86.2" fill="#e2e2a2" class="flag">[1]</text><text x="186" y="86.2" fill="#000" class="taxonLabel">Gasconsia</text><text x="118.6" y="73.5" fill="#e2e2a2" class="flag">[1]</text><text x="140.6" y="73.5" fill="#000" class="taxonLabel">Halkieria evangelista</text><text x="141.3" y="48.1" fill="lightgrey" class="flag">[-]</text><text x="163.3" y="48.1" fill="#ccc" class="taxonLabel">Phoronis</text><text x="141.3" y="60.8" fill="lightgrey" class="flag">[-]</text><text x="163.3" y="60.8" fill="#ccc" class="taxonLabel">Namacalathus</text><text x="118.6" y="35.4" fill="lightgrey" class="flag">[-]</text><text x="140.6" y="35.4" fill="#ccc" class="taxonLabel">Cotyledion tylodes</text><text x="95.9" y="10" fill="lightgrey" class="flag">[-]</text><text x="117.9" y="10" fill="#ccc" class="taxonLabel">Flustra</text><text x="95.9" y="22.7" fill="lightgrey" class="flag">[-]</text><text x="117.9" y="22.7" fill="#ccc" class="taxonLabel">Amathia</text><path d="M5,437.7V295.1H27.7M27.7,295.1V65.6H50.4M50.4,65.6V13.4H73.1M73.1,13.4V7H95.9M73.1,13.4V19.7H95.9M50.4,65.6V117.9H73.1M73.1,117.9V41.9H95.9M95.9,41.9V32.4H118.6M95.9,41.9V51.5H118.6M118.6,51.5V45.1H141.3M118.6,51.5V57.8H141.3M27.7,295.1V524.6H50.4M50.4,524.6V515.1H73.1M50.4,524.6V534.1H73.1M73.1,534.1V527.8H95.9M73.1,534.1V540.5H95.9M5,437.7V580.2H27.7M27.7,580.2V562.7H50.4M50.4,562.7V572.2H73.1M73.1,572.2V565.9H95.9M73.1,572.2V578.6H95.9M27.7,580.2V597.6H50.4M50.4,597.6V591.3H73.1M50.4,597.6V604H73.1" stroke="lightgrey" class="inapplicable"></path><path d="M73.1,117.9V193.9H95.9M95.9,193.9V70.5H118.6M95.9,193.9V317.3H118.6M118.6,317.3V138.5H141.3M141.3,138.5V83.2H164M141.3,138.5V193.7H164M164,193.7V282.1H186.7M186.7,282.1V176.1H209.4M209.4,176.1V140.4H232.1M232.1,140.4V134H254.9M232.1,140.4V146.7H254.9M209.4,176.1V211.8H232.1M232.1,211.8V165.8H254.9M254.9,165.8V159.4H277.6M254.9,165.8V172.1H277.6M232.1,211.8V257.9H254.9M254.9,257.9V197.5H277.6M277.6,197.5V210.2H300.3M300.3,210.2V197.5H323M300.3,210.2V222.8H323M323,222.8V210.2H345.7M323,222.8V235.4H345.7M345.7,235.4V222.9H368.4M345.7,235.4V247.9H368.4M368.4,247.9V235.6H391.1M459.3,292.8V299.1H482M254.9,257.9V318.2H277.6M277.6,318.2V311.9H300.3M277.6,318.2V324.6H300.3M186.7,282.1V388H209.4M209.4,388V346.8H232.1M232.1,346.8V337.3H254.9M232.1,346.8V356.3H254.9M254.9,356.3V350H277.6M254.9,356.3V362.7H277.6M209.4,388V429.2H232.1M232.1,429.2V387.9H254.9M254.9,387.9V375.4H277.6M254.9,387.9V400.4H277.6M277.6,400.4V388.1H300.3M277.6,400.4V412.7H300.3M300.3,412.7V400.8H323M300.3,412.7V424.6H323M323,424.6V413.5H345.7M323,424.6V435.7H345.7M345.7,435.7V426.2H368.4M345.7,435.7V445.2H368.4M368.4,445.2V438.9H391.1M368.4,445.2V451.6H391.1M232.1,429.2V470.6H254.9M254.9,470.6V464.3H277.6M254.9,470.6V477H277.6M118.6,317.3V496H141.3M141.3,496V489.7H164M141.3,496V502.4H164M50.4,562.7V553.2H73.1" stroke="#e2e2a2"></path><path d="M164,193.7V105.4H186.7M186.7,105.4V95.9H209.4M186.7,105.4V115H209.4M209.4,115V108.6H232.1M209.4,115V121.3H232.1M277.6,197.5V184.8H300.3M368.4,247.9V260.2H391.1M391.1,260.2V248.3H413.9M391.1,260.2V272.2H413.9M413.9,272.2V261H436.6M413.9,272.2V283.3H436.6M436.6,283.3V273.7H459.3M436.6,283.3V292.8H459.3M459.3,292.8V286.4H482" stroke="#91bfdb"></path><text x="7" y="440.7" class="node" fill="#4A6FE3">1</text><text x="29.7" y="298.1" class="node" fill="#4A6FE3">1</text><text x="52.4" y="68.6" class="node" fill="#D7D9E3">0.54</text><text x="75.1" y="16.4" class="node" fill="#4A6FE3">1</text><text x="75.1" y="120.9" class="node" fill="#D7D9E3">0.54</text><text x="97.9" y="44.9" class="node" fill="#A0ABE2">0.74</text><text x="120.6" y="54.5" class="node" fill="#5B78E2">0.96</text><text x="97.9" y="196.9" class="node" fill="#CACDE3">0.59</text><text x="120.6" y="320.3" class="node" fill="#CACDE3">0.59</text><text x="143.3" y="141.5" class="node" fill="#D7D9E3">0.54</text><text x="166" y="196.7" class="node" fill="#D7D9E3">0.54</text><text x="188.7" y="108.4" class="node" fill="#D7D9E3">0.54</text><text x="211.4" y="118" class="node" fill="#4A6FE3">1</text><text x="188.7" y="285.1" class="node" fill="#D7D9E3">0.54</text><text x="211.4" y="179.1" class="node" fill="#D7D9E3">0.54</text><text x="234.1" y="143.4" class="node" fill="#AEB6E2">0.69</text><text x="234.1" y="214.8" class="node" fill="#D7D9E3">0.54</text><text x="256.9" y="168.8" class="node" fill="#D7D9E3">0.54</text><text x="256.9" y="260.9" class="node" fill="#D7D9E3">0.54</text><text x="279.6" y="200.5" class="node" fill="#E5A5B1">0.3</text><text x="302.3" y="213.2" class="node" fill="#CACDE3">0.59</text><text x="325" y="225.8" class="node" fill="#D7D9E3">0.54</text><text x="347.7" y="238.4" class="node" fill="#D7D9E3">0.54</text><text x="370.4" y="250.9" class="node" fill="#D7D9E3">0.54</text><text x="393.1" y="263.2" class="node" fill="#D2D4E3">0.56</text><text x="415.9" y="275.2" class="node" fill="#95A1E2">0.78</text><text x="438.6" y="286.3" class="node" fill="#E498A7">0.26</text><text x="461.3" y="295.8" class="node" fill="#4A6FE3">1</text><text x="279.6" y="321.2" class="node" fill="#D7D9E3">0.54</text><text x="211.4" y="391" class="node" fill="#A6AFE2">0.72</text><text x="234.1" y="349.8" class="node" fill="#E6BAC2">0.37</text><text x="256.9" y="359.3" class="node" fill="#B1B8E2">0.68</text><text x="234.1" y="432.2" class="node" fill="#5374E2">0.98</text><text x="256.9" y="390.9" class="node" fill="#CACDE3">0.59</text><text x="279.6" y="403.4" class="node" fill="#CACDE3">0.59</text><text x="302.3" y="415.7" class="node" fill="#C7CBE3">0.6</text><text x="325" y="427.6" class="node" fill="#C7CBE3">0.6</text><text x="347.7" y="438.7" class="node" fill="#4A6FE3">1</text><text x="370.4" y="448.2" class="node" fill="#929FE1">0.79</text><text x="256.9" y="473.6" class="node" fill="#4A6FE3">1</text><text x="143.3" y="499" class="node" fill="#D7D9E3">0.54</text><text x="52.4" y="527.6" class="node" fill="#D7D9E3">0.54</text><text x="75.1" y="537.1" class="node" fill="#D7D9E3">0.54</text><text x="29.7" y="583.2" class="node" fill="#4A6FE3">1</text><text x="52.4" y="565.7" class="node" fill="#4A6FE3">1</text><text x="75.1" y="575.2" class="node" fill="#4A6FE3">1</text><text x="52.4" y="600.6" class="node" fill="#4A6FE3">1</text></svg>
