<svg xmlns="http://www.w3.org/2000/svg" version="1.1" width="682" height="612" class="tree" data-char="94"><text x="678" y="16" text-anchor="end" class="stepsLabel">Character adds <tspan class="score">5</tspan> to tree score</text><text x="678" y="29" text-anchor="end" class="stepsLabel"><tspan class="score">1</tspan> additional region</text><text x="678" y="42" text-anchor="end" class="stepsLabel">CI = 0.4; Fitch CI = 0.5; Fitch RI = 0.71</text><text x="678" y="68" text-anchor="end" class="stepsLabel"><tspan dy="16">An optimal tree under:</tspan><tspan x="680" style="font-style:italic" class="thisAn" dy="1.2em">Equal weights</tspan><tspan x="680" style="font-style:italic" class="notThisAn" dy="1.2em">Implied weights, k = 2</tspan><tspan x="680" style="font-style:italic" class="notThisAn" dy="1.2em">IW, k = 3</tspan><tspan x="680" style="font-style:italic" class="notThisAn" dy="1.2em">IW, k = 4.5</tspan><tspan x="680" style="font-style:italic" class="notThisAn" dy="1.2em">IW, k = 7</tspan><tspan x="680" style="font-style:italic" class="notThisAn" dy="1.2em">IW, k = 10.5</tspan></text><text x="124.2" y="593.7" fill="lightgrey" class="flag">[-]</text><text x="146.2" y="593.7" fill="lightgrey" class="taxonLabel">Serpula</text><text x="124.2" y="607" fill="lightgrey" class="flag">[-]</text><text x="146.2" y="607" fill="lightgrey" class="taxonLabel">Wiwaxia corrugata</text><text x="94.4" y="580.5" fill="lightgrey" class="flag">[-]</text><text x="116.4" y="580.5" fill="lightgrey" class="taxonLabel">Sipunculus</text><text x="94.4" y="553.9" fill="lightgrey" class="flag">[-]</text><text x="116.4" y="553.9" fill="lightgrey" class="taxonLabel">Dentalium</text><text x="94.4" y="567.2" fill="#abd9e9" class="flag">[2]</text><text x="116.4" y="567.2" fill="#000" class="taxonLabel">Tonicella</text><text x="362.8" y="514.1" fill="#abd9e9" class="flag">[2]</text><text x="384.8" y="514.1" fill="#000" class="taxonLabel">Antigonambonites planus</text><text x="362.8" y="527.4" fill="#abd9e9" class="flag">[2]</text><text x="384.8" y="527.4" fill="#000" class="taxonLabel">Coolinia pecten</text><text x="482" y="487.6" fill="#abd9e9" class="flag">[2]</text><text x="504" y="487.6" fill="#000" class="taxonLabel">Orthis</text><text x="482" y="500.9" fill="#abd9e9" class="flag">[2]</text><text x="504" y="500.9" fill="#000" class="taxonLabel">Terebratulina</text><text x="452.2" y="474.3" fill="#abd9e9" class="flag">[2]</text><text x="474.2" y="474.3" fill="#000" class="taxonLabel">Alisina</text><text x="422.4" y="461.1" fill="#abd9e9" class="flag">[2]</text><text x="444.4" y="461.1" fill="#000" class="taxonLabel">Glyptoria</text><text x="392.6" y="447.8" fill="#abd9e9" class="flag">[2]</text><text x="414.6" y="447.8" fill="#000" class="taxonLabel">Nisusia sulcata</text><text x="362.8" y="434.5" fill="grey" class="flag">[?]</text><text x="384.8" y="434.5" fill="grey" class="taxonLabel">Kutorgina chengjiangensis</text><text x="303.1" y="421.3" fill="grey" class="flag">[?]</text><text x="325.1" y="421.3" fill="grey" class="taxonLabel">Longtancunella chengjiangensis</text><text x="332.9" y="394.7" fill="grey" class="flag">[?]</text><text x="354.9" y="394.7" fill="grey" class="taxonLabel">Yuganotheca elegans</text><text x="332.9" y="408" fill="#fdae61" class="flag">[1]</text><text x="354.9" y="408" fill="#000" class="taxonLabel">Tomteluva perturbata</text><text x="303.1" y="381.5" fill="#fdae61" class="flag">[1]</text><text x="325.1" y="381.5" fill="#000" class="taxonLabel">Salanygolina</text><text x="273.3" y="354.9" fill="#abd9e9" class="flag">[2]</text><text x="295.3" y="354.9" fill="#000" class="taxonLabel">Micromitra</text><text x="273.3" y="368.2" fill="#abd9e9" class="flag">[2]</text><text x="295.3" y="368.2" fill="#000" class="taxonLabel">Askepasma toddense</text><text x="303.1" y="328.4" fill="lightgrey" class="flag">[-]</text><text x="325.1" y="328.4" fill="lightgrey" class="taxonLabel">Novocrania</text><text x="303.1" y="341.7" fill="lightgrey" class="flag">[-]</text><text x="325.1" y="341.7" fill="lightgrey" class="taxonLabel">Craniops</text><text x="273.3" y="315.1" fill="lightgrey" class="flag">[-]</text><text x="295.3" y="315.1" fill="lightgrey" class="taxonLabel">Ussunia</text><text x="243.5" y="301.9" fill="#abd9e9" class="flag">[2]</text><text x="265.5" y="301.9" fill="#000" class="taxonLabel">Gasconsia</text><text x="452.2" y="275.3" fill="#2c7bb6" class="flag">[3]</text><text x="474.2" y="275.3" fill="#000" class="taxonLabel">Acanthotretella spinosa</text><text x="452.2" y="288.6" fill="#2c7bb6" class="flag">[3]</text><text x="474.2" y="288.6" fill="#000" class="taxonLabel">Siphonobolus priscus</text><text x="422.4" y="262.1" fill="#2c7bb6" class="flag">[3]</text><text x="444.4" y="262.1" fill="#000" class="taxonLabel">Lingulosacculus</text><text x="392.6" y="248.8" fill="#2c7bb6" class="flag">[3]</text><text x="414.6" y="248.8" fill="#000" class="taxonLabel">Clupeafumosus socialis</text><text x="362.8" y="235.5" fill="#2c7bb6" class="flag">[3]</text><text x="384.8" y="235.5" fill="#000" class="taxonLabel">Lingulellotreta malongensis</text><text x="332.9" y="222.3" fill="#abd9e9" class="flag">[2]</text><text x="354.9" y="222.3" fill="#000" class="taxonLabel">Botsfordia</text><text x="303.1" y="209" fill="#fdae61" class="flag">[1]</text><text x="325.1" y="209" fill="#000" class="taxonLabel">Mummpikia nuda</text><text x="273.3" y="195.7" fill="#abd9e9" class="flag">[2]</text><text x="295.3" y="195.7" fill="#000" class="taxonLabel">Eoobolus</text><text x="243.5" y="182.5" fill="lightgrey" class="flag">[-]</text><text x="265.5" y="182.5" fill="lightgrey" class="taxonLabel">Lingula</text><text x="273.3" y="155.9" fill="grey" class="flag">[23]</text><text x="295.3" y="155.9" fill="grey" class="taxonLabel">Mickwitzia muralensis</text><text x="273.3" y="169.2" fill="#2c7bb6" class="flag">[3]</text><text x="295.3" y="169.2" fill="#000" class="taxonLabel">Pelagodiscus atlanticus</text><text x="243.5" y="142.7" fill="#abd9e9" class="flag">[2]</text><text x="265.5" y="142.7" fill="#000" class="taxonLabel">Micrina</text><text x="213.7" y="116.1" fill="lightgrey" class="flag">[-]</text><text x="235.7" y="116.1" fill="lightgrey" class="taxonLabel">Pedunculotheca diania</text><text x="213.7" y="129.4" fill="lightgrey" class="flag">[-]</text><text x="235.7" y="129.4" fill="lightgrey" class="taxonLabel">Haplophrentis carinatus</text><text x="183.9" y="102.9" fill="#abd9e9" class="flag">[2]</text><text x="205.9" y="102.9" fill="#000" class="taxonLabel">Paterimitra</text><text x="124.2" y="89.6" fill="lightgrey" class="flag">[-]</text><text x="146.2" y="89.6" fill="lightgrey" class="taxonLabel">Heliomedusa orienta</text><text x="183.9" y="63.1" fill="lightgrey" class="flag">[-]</text><text x="205.9" y="63.1" fill="lightgrey" class="taxonLabel">Eccentrotheca</text><text x="183.9" y="76.3" fill="lightgrey" class="flag">[-]</text><text x="205.9" y="76.3" fill="lightgrey" class="taxonLabel">Dailyatia</text><text x="154.1" y="49.8" fill="lightgrey" class="flag">[-]</text><text x="176.1" y="49.8" fill="lightgrey" class="taxonLabel">Cotyledion tylodes</text><text x="183.9" y="10" fill="lightgrey" class="flag">[-]</text><text x="205.9" y="10" fill="lightgrey" class="taxonLabel">Flustra</text><text x="183.9" y="23.3" fill="lightgrey" class="flag">[-]</text><text x="205.9" y="23.3" fill="lightgrey" class="taxonLabel">Loxosomella</text><text x="154.1" y="36.5" fill="lightgrey" class="flag">[-]</text><text x="176.1" y="36.5" fill="lightgrey" class="taxonLabel">Phoronis</text><text x="64.6" y="540.7" fill="lightgrey" class="flag">[-]</text><text x="86.6" y="540.7" fill="lightgrey" class="taxonLabel">Halkieria evangelista</text><path d="M5,442.7V312.8H34.8M34.8,312.8V88H64.6M64.6,88V40.2H94.4M94.4,40.2V23.6H124.2M124.2,23.6V13.6H154.1M154.1,13.6V7H183.9M154.1,13.6V20.3H183.9M124.2,23.6V33.5H154.1M94.4,40.2V56.8H124.2M124.2,56.8V46.8H154.1M124.2,56.8V66.7H154.1M154.1,66.7V60.1H183.9M154.1,66.7V73.3H183.9M64.6,88V135.9H94.4M94.4,135.9V86.6H124.2M154.1,109.8V119.8H183.9M183.9,119.8V113.1H213.7M183.9,119.8V126.4H213.7M213.7,192.7V179.5H243.5M213.7,310.5V322.1H243.5M243.5,322.1V312.1H273.3M243.5,322.1V332H273.3M273.3,332V325.4H303.1M273.3,332V338.7H303.1M34.8,312.8V537.7H64.6M5,442.7V572.5H34.8M34.8,572.5V557.6H64.6M64.6,557.6V550.9H94.4M34.8,572.5V587.4H64.6M64.6,587.4V577.5H94.4M64.6,587.4V597.4H94.4M94.4,597.4V590.7H124.2M94.4,597.4V604H124.2" stroke="lightgrey" class="inapplicable"></path><path d="M94.4,135.9V185.1H124.2M124.2,185.1V109.8H154.1M154.1,109.8V99.9H183.9M124.2,185.1V260.4H154.1M154.1,260.4V171.1H183.9M183.9,171.1V149.6H213.7M213.7,149.6V139.7H243.5M213.7,149.6V159.6H243.5M183.9,171.1V192.7H213.7M213.7,192.7V205.9H243.5M243.5,205.9V192.7H273.3M243.5,205.9V219.1H273.3M273.3,219.1V232.1H303.1M303.1,232.1V219.3H332.9M154.1,260.4V349.6H183.9M183.9,349.6V310.5H213.7M213.7,310.5V298.9H243.5M183.9,349.6V388.8H213.7M213.7,388.8V358.6H243.5M243.5,358.6V351.9H273.3M243.5,358.6V365.2H273.3M213.7,388.8V419H243.5M243.5,419V449.7H273.3M273.3,449.7V418.3H303.1M273.3,449.7V481.1H303.1M303.1,481.1V444.4H332.9M332.9,444.4V431.5H362.8M332.9,444.4V457.2H362.8M362.8,457.2V444.8H392.6M362.8,457.2V469.7H392.6M392.6,469.7V458.1H422.4M392.6,469.7V481.3H422.4M422.4,481.3V471.3H452.2M422.4,481.3V491.2H452.2M452.2,491.2V484.6H482M452.2,491.2V497.9H482M303.1,481.1V517.8H332.9M332.9,517.8V511.1H362.8M332.9,517.8V524.4H362.8M64.6,557.6V564.2H94.4" stroke="#abd9e9"></path><path d="M243.5,159.6V152.9H273.3" stroke="darkgrey"></path><path d="M243.5,159.6V166.2H273.3M303.1,232.1V245H332.9M332.9,245V232.5H362.8M332.9,245V257.4H362.8M362.8,257.4V245.8H392.6M362.8,257.4V269H392.6M392.6,269V259.1H422.4M392.6,269V279H422.4M422.4,279V272.3H452.2M422.4,279V285.6H452.2" stroke="#2c7bb6"></path><path d="M273.3,219.1V206H303.1M243.5,419V388.4H273.3M273.3,388.4V378.5H303.1M273.3,388.4V398.4H303.1M303.1,398.4V391.7H332.9M303.1,398.4V405H332.9" stroke="#fdae61"></path><text x="7" y="445.7" class="node" fill="#4A6FE3">1</text><text x="36.8" y="315.8" class="node" fill="#4A6FE3">1</text><text x="66.6" y="91" class="node" fill="#8091E1">0.85</text><text x="96.4" y="43.2" class="node" fill="#8091E1">0.85</text><text x="126.2" y="26.6" class="node" fill="#4A6FE3">1</text><text x="156.1" y="16.6" class="node" fill="#4A6FE3">1</text><text x="126.2" y="59.8" class="node" fill="#8091E1">0.85</text><text x="156.1" y="69.7" class="node" fill="#8091E1">0.85</text><text x="96.4" y="138.9" class="node" fill="#8091E1">0.85</text><text x="126.2" y="188.1" class="node" fill="#8091E1">0.85</text><text x="156.1" y="112.8" class="node" fill="#B4BBE3">0.67</text><text x="185.9" y="122.8" class="node" fill="#4A6FE3">1</text><text x="156.1" y="263.4" class="node" fill="#4A6FE3">1</text><text x="185.9" y="174.1" class="node" fill="#B4BBE3">0.67</text><text x="215.7" y="152.6" class="node" fill="#B4BBE3">0.67</text><text x="245.5" y="162.6" class="node" fill="#ABB4E2">0.7</text><text x="215.7" y="195.7" class="node" fill="#ABB4E2">0.7</text><text x="245.5" y="208.9" class="node" fill="#ABB4E2">0.7</text><text x="275.3" y="222.1" class="node" fill="#B4BBE3">0.67</text><text x="305.1" y="235.1" class="node" fill="#B4BBE3">0.67</text><text x="334.9" y="248" class="node" fill="#B4BBE3">0.67</text><text x="364.8" y="260.4" class="node" fill="#E5CACE">0.42</text><text x="394.6" y="272" class="node" fill="#E38FA0">0.23</text><text x="424.4" y="282" class="node" fill="#4A6FE3">1</text><text x="185.9" y="352.6" class="node" fill="#4A6FE3">1</text><text x="215.7" y="313.5" class="node" fill="#4A6FE3">1</text><text x="245.5" y="325.1" class="node" fill="#4A6FE3">1</text><text x="275.3" y="335" class="node" fill="#4A6FE3">1</text><text x="215.7" y="391.8" class="node" fill="#A0ABE2">0.74</text><text x="245.5" y="361.6" class="node" fill="#4A6FE3">1</text><text x="245.5" y="422" class="node" fill="#8C9BE1">0.81</text><text x="275.3" y="391.4" class="node" fill="#BFC4E3">0.63</text><text x="305.1" y="401.4" class="node" fill="#627DE1">0.94</text><text x="275.3" y="452.7" class="node" fill="#4A6FE3">1</text><text x="305.1" y="484.1" class="node" fill="#E4D9DB">0.47</text><text x="334.9" y="447.4" class="node" fill="#E4D9DB">0.47</text><text x="364.8" y="460.2" class="node" fill="#E4D9DB">0.47</text><text x="394.6" y="472.7" class="node" fill="#E4D9DB">0.47</text><text x="424.4" y="484.3" class="node" fill="#4A6FE3">1</text><text x="454.2" y="494.2" class="node" fill="#97A4E2">0.77</text><text x="334.9" y="520.8" class="node" fill="#4A6FE3">1</text><text x="36.8" y="575.5" class="node" fill="#4A6FE3">1</text><text x="66.6" y="560.6" class="node" fill="#DADBE3">0.53</text><text x="66.6" y="590.4" class="node" fill="#DADBE3">0.53</text><text x="96.4" y="600.4" class="node" fill="#E59FAC">0.28</text></svg>
