<svg xmlns="http://www.w3.org/2000/svg" version="1.1" width="682" height="682" class="tree" data-char="217"><text x="678" y="15.4" text-anchor="end" class="stepsLabel">Character adds <tspan class="score">3</tspan> to tree score</text><text x="678" y="27.8" text-anchor="end" class="stepsLabel"><tspan class="score">0</tspan> additional regions</text><text x="678" y="40.2" text-anchor="end" class="stepsLabel">CI = 0.67; Fitch CI = 0.67; Fitch RI = 0.5</text><text x="678" y="65" text-anchor="end" class="stepsLabel"><tspan dy="16" fill="#34caaf">An optimal tree under:</tspan><tspan x="680" style="font-style:italic" class="thisAn" dy="1.2em">Equal weights</tspan><tspan x="680" style="font-style:italic" class="notThisAn" dy="1.2em">Implied weights, k = 2</tspan><tspan x="680" style="font-style:italic" class="notThisAn" dy="1.2em">IW, k = 3</tspan><tspan x="680" style="font-style:italic" class="notThisAn" dy="1.2em">IW, k = 4.5</tspan><tspan x="680" style="font-style:italic" class="notThisAn" dy="1.2em">IW, k = 7</tspan><tspan x="680" style="font-style:italic" class="notThisAn" dy="1.2em">IW, k = 10.5</tspan><tspan x="680" style="font-style:italic" class="notThisAn" dy="1.2em">IW, k = 16</tspan><tspan x="680" style="font-style:italic" class="notThisAn" dy="1.2em">IW, k = 24</tspan></text><text x="70" y="664.4" fill="#2c7bb6" class="flag">[3]</text><text x="92" y="664.4" fill="#000" class="taxonLabel">Serpula</text><text x="70" y="677" fill="#fdae61" class="flag">[1]</text><text x="92" y="677" fill="#000" class="taxonLabel">Sipunculus</text><text x="91.7" y="639.2" fill="#abd9e9" class="flag">[2]</text><text x="113.7" y="639.2" fill="#000" class="taxonLabel">Dentalium</text><text x="91.7" y="651.8" fill="#abd9e9" class="flag">[2]</text><text x="113.7" y="651.8" fill="#000" class="taxonLabel">Tonicella</text><text x="70" y="626.7" fill="grey" class="flag">[?]</text><text x="92" y="626.7" fill="#999" class="taxonLabel">Wiwaxia corrugata</text><text x="351.9" y="601.5" fill="grey" class="flag">[?]</text><text x="373.9" y="601.5" fill="#999" class="taxonLabel">Pauxillites</text><text x="351.9" y="614.1" fill="grey" class="flag">[?]</text><text x="373.9" y="614.1" fill="#999" class="taxonLabel">Maxilites</text><text x="330.2" y="588.9" fill="grey" class="flag">[?]</text><text x="352.2" y="588.9" fill="#999" class="taxonLabel">Haplophrentis carinatus</text><text x="308.5" y="576.3" fill="grey" class="flag">[?]</text><text x="330.5" y="576.3" fill="#999" class="taxonLabel">Paramicrocornus</text><text x="308.5" y="551.2" fill="grey" class="flag">[?]</text><text x="330.5" y="551.2" fill="#999" class="taxonLabel">Conotheca</text><text x="308.5" y="563.7" fill="grey" class="flag">[?]</text><text x="330.5" y="563.7" fill="#999" class="taxonLabel">Bactrotheca</text><text x="265.2" y="538.6" fill="grey" class="flag">[?]</text><text x="287.2" y="538.6" fill="#999" class="taxonLabel">Cupitheca holocyclata</text><text x="243.5" y="526" fill="grey" class="flag">[?]</text><text x="265.5" y="526" fill="#999" class="taxonLabel">Pedunculotheca diania</text><text x="308.5" y="500.8" fill="grey" class="flag">[?]</text><text x="330.5" y="500.8" fill="#999" class="taxonLabel">Askepasma toddense</text><text x="308.5" y="513.4" fill="grey" class="flag">[?]</text><text x="330.5" y="513.4" fill="#999" class="taxonLabel">Micromitra</text><text x="482" y="475.6" fill="#fdae61" class="flag">[1]</text><text x="504" y="475.6" fill="#000" class="taxonLabel">Terebratulina</text><text x="482" y="488.2" fill="grey" class="flag">[?]</text><text x="504" y="488.2" fill="#999" class="taxonLabel">Orthis</text><text x="460.3" y="463.1" fill="grey" class="flag">[?]</text><text x="482.3" y="463.1" fill="#999" class="taxonLabel">Alisina</text><text x="438.6" y="450.5" fill="grey" class="flag">[?]</text><text x="460.6" y="450.5" fill="#999" class="taxonLabel">Glyptoria</text><text x="438.6" y="425.3" fill="grey" class="flag">[?]</text><text x="460.6" y="425.3" fill="#999" class="taxonLabel">Kutorgina chengjiangensis</text><text x="438.6" y="437.9" fill="grey" class="flag">[?]</text><text x="460.6" y="437.9" fill="#999" class="taxonLabel">Nisusia sulcata</text><text x="417" y="400.1" fill="grey" class="flag">[?]</text><text x="439" y="400.1" fill="#999" class="taxonLabel">Antigonambonites planus</text><text x="417" y="412.7" fill="grey" class="flag">[?]</text><text x="439" y="412.7" fill="#999" class="taxonLabel">Coolinia pecten</text><text x="373.6" y="387.5" fill="grey" class="flag">[?]</text><text x="395.6" y="387.5" fill="#999" class="taxonLabel">Longtancunella chengjiangensis</text><text x="351.9" y="375" fill="grey" class="flag">[?]</text><text x="373.9" y="375" fill="#999" class="taxonLabel">Yuganotheca elegans</text><text x="330.2" y="362.4" fill="grey" class="flag">[?]</text><text x="352.2" y="362.4" fill="#999" class="taxonLabel">Tomteluva perturbata</text><text x="308.5" y="349.8" fill="grey" class="flag">[?]</text><text x="330.5" y="349.8" fill="#999" class="taxonLabel">Salanygolina</text><text x="373.6" y="324.6" fill="grey" class="flag">[?]</text><text x="395.6" y="324.6" fill="#999" class="taxonLabel">Craniops</text><text x="373.6" y="337.2" fill="#fdae61" class="flag">[1]</text><text x="395.6" y="337.2" fill="#000" class="taxonLabel">Novocrania</text><text x="351.9" y="312" fill="grey" class="flag">[?]</text><text x="373.9" y="312" fill="#999" class="taxonLabel">Ussunia</text><text x="330.2" y="299.5" fill="grey" class="flag">[?]</text><text x="352.2" y="299.5" fill="#999" class="taxonLabel">Gasconsia</text><text x="308.5" y="286.9" fill="grey" class="flag">[?]</text><text x="330.5" y="286.9" fill="#999" class="taxonLabel">Heliomedusa orienta</text><text x="395.3" y="261.7" fill="grey" class="flag">[?]</text><text x="417.3" y="261.7" fill="#999" class="taxonLabel">Siphonobolus priscus</text><text x="395.3" y="274.3" fill="grey" class="flag">[?]</text><text x="417.3" y="274.3" fill="#999" class="taxonLabel">Acanthotretella spinosa</text><text x="460.3" y="236.5" fill="grey" class="flag">[?]</text><text x="482.3" y="236.5" fill="#999" class="taxonLabel">Eoobolus</text><text x="460.3" y="249.1" fill="grey" class="flag">[?]</text><text x="482.3" y="249.1" fill="#999" class="taxonLabel">Mummpikia nuda</text><text x="438.6" y="223.9" fill="#fdae61" class="flag">[1]</text><text x="460.6" y="223.9" fill="#000" class="taxonLabel">Lingula</text><text x="417" y="211.4" fill="grey" class="flag">[?]</text><text x="439" y="211.4" fill="#999" class="taxonLabel">Botsfordia</text><text x="417" y="186.2" fill="grey" class="flag">[?]</text><text x="439" y="186.2" fill="#999" class="taxonLabel">Lingulosacculus</text><text x="417" y="198.8" fill="grey" class="flag">[?]</text><text x="439" y="198.8" fill="#999" class="taxonLabel">Lingulellotreta malongensis</text><text x="351.9" y="173.6" fill="grey" class="flag">[?]</text><text x="373.9" y="173.6" fill="#999" class="taxonLabel">Clupeafumosus socialis</text><text x="330.2" y="161" fill="#fdae61" class="flag">[1]</text><text x="352.2" y="161" fill="#000" class="taxonLabel">Pelagodiscus atlanticus</text><text x="308.5" y="148.4" fill="grey" class="flag">[?]</text><text x="330.5" y="148.4" fill="#999" class="taxonLabel">Mickwitzia muralensis</text><text x="243.5" y="135.8" fill="grey" class="flag">[?]</text><text x="265.5" y="135.8" fill="#999" class="taxonLabel">Micrina</text><text x="200.1" y="123.3" fill="grey" class="flag">[?]</text><text x="222.1" y="123.3" fill="#999" class="taxonLabel">Paterimitra</text><text x="178.5" y="110.7" fill="grey" class="flag">[?]</text><text x="200.5" y="110.7" fill="#999" class="taxonLabel">Halkieria evangelista</text><text x="156.8" y="98.1" fill="grey" class="flag">[?]</text><text x="178.8" y="98.1" fill="#999" class="taxonLabel">Dailyatia</text><text x="135.1" y="85.5" fill="grey" class="flag">[?]</text><text x="157.1" y="85.5" fill="#999" class="taxonLabel">Cotyledion tylodes</text><text x="113.4" y="72.9" fill="grey" class="flag">[?]</text><text x="135.4" y="72.9" fill="#999" class="taxonLabel">Eccentrotheca</text><text x="113.4" y="47.8" fill="#fdae61" class="flag">[1]</text><text x="135.4" y="47.8" fill="#000" class="taxonLabel">Phoronis</text><text x="113.4" y="60.3" fill="grey" class="flag">[?]</text><text x="135.4" y="60.3" fill="#999" class="taxonLabel">Namacalathus</text><text x="91.7" y="22.6" fill="#fdae61" class="flag">[1]</text><text x="113.7" y="22.6" fill="#000" class="taxonLabel">Flustra</text><text x="91.7" y="35.2" fill="#fdae61" class="flag">[1]</text><text x="113.7" y="35.2" fill="#000" class="taxonLabel">Amathia</text><text x="48.4" y="10" fill="#abd9e9" class="flag">[2]</text><text x="70.4" y="10" fill="#000" class="taxonLabel">Loxosomella</text><path d="M5,339V27.6H26.7M5,339V650.4H26.7M26.7,650.4V633.1H48.4M48.4,633.1V623.7H70M26.7,650.4V667.7H48.4" stroke="darkgrey"></path><path d="M26.7,27.6V7H48.4M48.4,633.1V642.5H70M70,642.5V636.2H91.7M70,642.5V648.8H91.7" stroke="#abd9e9"></path><path d="M26.7,27.6V48.2H48.4M48.4,48.2V25.9H70M70,25.9V19.6H91.7M70,25.9V32.2H91.7M48.4,48.2V70.5H70M70,70.5V51H91.7M91.7,51V44.8H113.4M91.7,51V57.3H113.4M70,70.5V90H91.7M91.7,90V69.9H113.4M91.7,90V110.1H113.4M113.4,110.1V82.5H135.1M113.4,110.1V137.6H135.1M135.1,137.6V95.1H156.8M135.1,137.6V180.1H156.8M156.8,180.1V107.7H178.5M156.8,180.1V252.5H178.5M178.5,252.5V120.3H200.1M178.5,252.5V384.8H200.1M200.1,384.8V231.8H221.8M221.8,231.8V132.8H243.5M221.8,231.8V330.7H243.5M243.5,330.7V229.3H265.2M265.2,229.3V162.9H286.9M286.9,162.9V145.4H308.5M286.9,162.9V180.3H308.5M308.5,180.3V158H330.2M308.5,180.3V202.7H330.2M330.2,202.7V170.6H351.9M330.2,202.7V234.7H351.9M351.9,234.7V204.4H373.6M373.6,204.4V189.5H395.3M395.3,189.5V183.2H417M395.3,189.5V195.8H417M373.6,204.4V219.4H395.3M395.3,219.4V208.4H417M395.3,219.4V230.4H417M417,230.4V220.9H438.6M417,230.4V239.8H438.6M438.6,239.8V233.5H460.3M438.6,239.8V246.1H460.3M351.9,234.7V265H373.6M373.6,265V258.7H395.3M373.6,265V271.3H395.3M265.2,229.3V295.7H286.9M286.9,295.7V283.9H308.5M286.9,295.7V307.5H308.5M308.5,307.5V296.5H330.2M308.5,307.5V318.5H330.2M330.2,318.5V309H351.9M330.2,318.5V327.9H351.9M351.9,327.9V321.6H373.6M351.9,327.9V334.2H373.6M243.5,330.7V432.2H265.2M265.2,432.2V360.2H286.9M286.9,360.2V346.8H308.5M286.9,360.2V373.7H308.5M308.5,373.7V359.4H330.2M308.5,373.7V388H330.2M330.2,388V372H351.9M330.2,388V404H351.9M351.9,404V384.5H373.6M351.9,404V423.5H373.6M373.6,423.5V403.4H395.3M395.3,403.4V397.1H417M395.3,403.4V409.7H417M373.6,423.5V443.5H395.3M395.3,443.5V428.6H417M417,428.6V422.3H438.6M417,428.6V434.9H438.6M395.3,443.5V458.5H417M417,458.5V447.5H438.6M417,458.5V469.5H438.6M438.6,469.5V460.1H460.3M438.6,469.5V478.9H460.3M460.3,478.9V472.6H482M460.3,478.9V485.2H482M265.2,432.2V504.1H286.9M286.9,504.1V497.8H308.5M286.9,504.1V510.4H308.5M200.1,384.8V537.7H221.8M221.8,537.7V523H243.5M221.8,537.7V552.5H243.5M243.5,552.5V535.6H265.2M243.5,552.5V569.4H265.2M265.2,569.4V554.4H286.9M286.9,554.4V548.2H308.5M286.9,554.4V560.7H308.5M265.2,569.4V584.3H286.9M286.9,584.3V573.3H308.5M286.9,584.3V595.3H308.5M308.5,595.3V585.9H330.2M308.5,595.3V604.8H330.2M330.2,604.8V598.5H351.9M330.2,604.8V611.1H351.9M48.4,667.7V674H70" stroke="#fdae61"></path><path d="M48.4,667.7V661.4H70" stroke="#2c7bb6"></path><text x="7" y="342" class="node" fill="#4A6FE3">1</text><text x="28.7" y="30.6" class="node" fill="#4A6FE3">1</text><text x="50.4" y="51.2" class="node" fill="#4A6FE3">1</text><text x="72" y="28.9" class="node" fill="#4A6FE3">1</text><text x="72" y="73.5" class="node" fill="#4A6FE3">1</text><text x="93.7" y="54" class="node" fill="#E6B1BB">0.34</text><text x="93.7" y="93" class="node" fill="#4A6FE3">1</text><text x="115.4" y="113.1" class="node" fill="#E6BDC5">0.38</text><text x="137.1" y="140.6" class="node" fill="#4A6FE3">1</text><text x="158.8" y="183.1" class="node" fill="#4A6FE3">1</text><text x="180.5" y="255.5" class="node" fill="#4A6FE3">1</text><text x="202.1" y="387.8" class="node" fill="#4A6FE3">1</text><text x="223.8" y="234.8" class="node" fill="#4A6FE3">1</text><text x="245.5" y="333.7" class="node" fill="#4A6FE3">1</text><text x="267.2" y="232.3" class="node" fill="#4A6FE3">1</text><text x="288.9" y="165.9" class="node" fill="#4A6FE3">1</text><text x="310.5" y="183.3" class="node" fill="#5F7BE1">0.95</text><text x="332.2" y="205.7" class="node" fill="#4A6FE3">1</text><text x="353.9" y="237.7" class="node" fill="#7388E1">0.89</text><text x="375.6" y="207.4" class="node" fill="#E3DCDD">0.48</text><text x="397.3" y="192.5" class="node" fill="#E49CAA">0.27</text><text x="397.3" y="222.4" class="node" fill="#9DA8E2">0.75</text><text x="419" y="233.4" class="node" fill="#9DA8E2">0.75</text><text x="440.6" y="242.8" class="node" fill="#E5CDD1">0.43</text><text x="375.6" y="268" class="node" fill="#4A6FE3">1</text><text x="288.9" y="298.7" class="node" fill="#4A6FE3">1</text><text x="310.5" y="310.5" class="node" fill="#5F7BE1">0.95</text><text x="332.2" y="321.5" class="node" fill="#4A6FE3">1</text><text x="353.9" y="330.9" class="node" fill="#4A6FE3">1</text><text x="267.2" y="435.2" class="node" fill="#4A6FE3">1</text><text x="288.9" y="363.2" class="node" fill="#4A6FE3">1</text><text x="310.5" y="376.7" class="node" fill="#A8B1E2">0.71</text><text x="332.2" y="391" class="node" fill="#E5A5B1">0.3</text><text x="353.9" y="407" class="node" fill="#5F7BE1">0.95</text><text x="375.6" y="426.5" class="node" fill="#5F7BE1">0.95</text><text x="397.3" y="406.4" class="node" fill="#4A6FE3">1</text><text x="397.3" y="446.5" class="node" fill="#5F7BE1">0.95</text><text x="419" y="431.6" class="node" fill="#D2D4E3">0.57</text><text x="419" y="461.5" class="node" fill="#4A6FE3">1</text><text x="440.6" y="472.5" class="node" fill="#4A6FE3">1</text><text x="462.3" y="481.9" class="node" fill="#D5D7E3">0.55</text><text x="288.9" y="507.1" class="node" fill="#4A6FE3">1</text><text x="223.8" y="540.7" class="node" fill="#4A6FE3">1</text><text x="245.5" y="555.5" class="node" fill="#4A6FE3">1</text><text x="267.2" y="572.4" class="node" fill="#D7D9E3">0.54</text><text x="288.9" y="557.4" class="node" fill="#4A6FE3">1</text><text x="288.9" y="587.3" class="node" fill="#4A6FE3">1</text><text x="310.5" y="598.3" class="node" fill="#4A6FE3">1</text><text x="332.2" y="607.8" class="node" fill="#4A6FE3">1</text><text x="28.7" y="653.4" class="node" fill="#4A6FE3">1</text><text x="50.4" y="636.1" class="node" fill="#4A6FE3">1</text><text x="72" y="645.5" class="node" fill="#4A6FE3">1</text><text x="50.4" y="670.7" class="node" fill="#4A6FE3">1</text></svg>
