<svg xmlns="http://www.w3.org/2000/svg" version="1.1" width="682" height="555" class="tree" data-char="195">
 <text x="678" y="14.7" text-anchor="end" class="stepsLabel">Character adds <tspan class="score">3</tspan> to tree score</text>
 <text x="678" y="26.4" text-anchor="end" class="stepsLabel"><tspan class="score">0</tspan> additional regions</text>
 <text x="678" y="38.1" text-anchor="end" class="stepsLabel">CI = 0.33; Fitch CI = 0.33; Fitch RI = 0</text>
 <text x="678" y="61.5" text-anchor="end" class="stepsLabel"><tspan dy="16">An optimal tree under:</tspan><tspan x="680" style="font-style:italic" class="notThisAn" dy="1.2em">Equal weights</tspan><tspan x="680" style="font-style:italic" class="notThisAn" dy="1.2em">Implied weights, k = 2</tspan><tspan x="680" style="font-style:italic" class="thisAn" dy="1.2em">IW, k = 3</tspan><tspan x="680" style="font-style:italic" class="thisAn" dy="1.2em">IW, k = 4.5</tspan><tspan x="680" style="font-style:italic" class="notThisAn" dy="1.2em">IW, k = 7</tspan></text>
 <text x="201.4" y="538" fill="grey" class="flag">[?]</text>
 <text x="223.4" y="538" fill="#111" class="taxonLabel">Dailyatia</text>
 <text x="201.4" y="550" fill="grey" class="flag">[?]</text>
 <text x="223.4" y="550" fill="#111" class="taxonLabel">Halkieria evangelista</text>
 <text x="173.4" y="526" fill="lightgrey" class="flag">[-]</text>
 <text x="195.4" y="526" fill="#d3d3d3" class="taxonLabel">Chiton</text>
 <text x="145.3" y="514" fill="grey" class="flag">[?]</text>
 <text x="167.3" y="514" fill="#111" class="taxonLabel">Eccentrotheca</text>
 <text x="117.2" y="502" fill="lightgrey" class="flag">[-]</text>
 <text x="139.2" y="502" fill="#d3d3d3" class="taxonLabel">Wiwaxia corrugata</text>
 <text x="89.2" y="490" fill="#e2e2a2" class="flag">[1]</text>
 <text x="111.2" y="490" fill="#111" class="taxonLabel">Dentalium</text>
 <text x="89.2" y="466" fill="lightgrey" class="flag">[-]</text>
 <text x="111.2" y="466" fill="#d3d3d3" class="taxonLabel">Sipunculus</text>
 <text x="89.2" y="478" fill="lightgrey" class="flag">[-]</text>
 <text x="111.2" y="478" fill="#d3d3d3" class="taxonLabel">Serpula</text>
 <text x="145.3" y="442" fill="#e2e2a2" class="flag">[1]</text>
 <text x="167.3" y="442" fill="#111" class="taxonLabel">Haplophrentis carinatus</text>
 <text x="145.3" y="454" fill="grey" class="flag">[?]</text>
 <text x="167.3" y="454" fill="#111" class="taxonLabel">Pedunculotheca diania</text>
 <text x="201.4" y="418" fill="grey" class="flag">[?]</text>
 <text x="223.4" y="418" fill="#111" class="taxonLabel">Mickwitzia muralensis</text>
 <text x="201.4" y="430" fill="grey" class="flag">[?]</text>
 <text x="223.4" y="430" fill="#111" class="taxonLabel">Micrina</text>
 <text x="257.5" y="394" fill="grey" class="flag">[?]</text>
 <text x="279.5" y="394" fill="#111" class="taxonLabel">Micromitra</text>
 <text x="257.5" y="406" fill="grey" class="flag">[?]</text>
 <text x="279.5" y="406" fill="#111" class="taxonLabel">Askepasma toddense</text>
 <text x="341.7" y="370" fill="lightgrey" class="flag">[-]</text>
 <text x="363.7" y="370" fill="#d3d3d3" class="taxonLabel">Novocrania</text>
 <text x="341.7" y="382" fill="grey" class="flag">[?]</text>
 <text x="363.7" y="382" fill="#111" class="taxonLabel">Craniops</text>
 <text x="313.6" y="358" fill="grey" class="flag">[?]</text>
 <text x="335.6" y="358" fill="#111" class="taxonLabel">Ussunia</text>
 <text x="285.6" y="346" fill="grey" class="flag">[?]</text>
 <text x="307.6" y="346" fill="#111" class="taxonLabel">Gasconsia</text>
 <text x="482" y="322" fill="grey" class="flag">[?]</text>
 <text x="504" y="322" fill="#111" class="taxonLabel">Orthis</text>
 <text x="482" y="334" fill="lightgrey" class="flag">[-]</text>
 <text x="504" y="334" fill="#d3d3d3" class="taxonLabel">Terebratulina</text>
 <text x="453.9" y="310" fill="grey" class="flag">[?]</text>
 <text x="475.9" y="310" fill="#111" class="taxonLabel">Alisina</text>
 <text x="425.9" y="298" fill="#e2e2a2" class="flag">[1]</text>
 <text x="447.9" y="298" fill="#111" class="taxonLabel">Longtancunella chengjiangensis</text>
 <text x="397.8" y="286" fill="grey" class="flag">[?]</text>
 <text x="419.8" y="286" fill="#111" class="taxonLabel">Glyptoria</text>
 <text x="369.8" y="274" fill="grey" class="flag">[?]</text>
 <text x="391.8" y="274" fill="#111" class="taxonLabel">Nisusia sulcata</text>
 <text x="341.7" y="262" fill="lightgrey" class="flag">[-]</text>
 <text x="363.7" y="262" fill="#d3d3d3" class="taxonLabel">Kutorgina chengjiangensis</text>
 <text x="341.7" y="238" fill="grey" class="flag">[?]</text>
 <text x="363.7" y="238" fill="#111" class="taxonLabel">Antigonambonites planus</text>
 <text x="341.7" y="250" fill="grey" class="flag">[?]</text>
 <text x="363.7" y="250" fill="#111" class="taxonLabel">Coolinia pecten</text>
 <text x="341.7" y="214" fill="#e2e2a2" class="flag">[1]</text>
 <text x="363.7" y="214" fill="#111" class="taxonLabel">Yuganotheca elegans</text>
 <text x="341.7" y="226" fill="grey" class="flag">[?]</text>
 <text x="363.7" y="226" fill="#111" class="taxonLabel">Tomteluva perturbata</text>
 <text x="313.6" y="202" fill="grey" class="flag">[?]</text>
 <text x="335.6" y="202" fill="#111" class="taxonLabel">Salanygolina</text>
 <text x="313.6" y="178" fill="#e2e2a2" class="flag">[1]</text>
 <text x="335.6" y="178" fill="#111" class="taxonLabel">Lingula</text>
 <text x="313.6" y="190" fill="#91bfdb" class="flag">[2]</text>
 <text x="335.6" y="190" fill="#111" class="taxonLabel">Pelagodiscus atlanticus</text>
 <text x="369.8" y="154" fill="grey" class="flag">[?]</text>
 <text x="391.8" y="154" fill="#111" class="taxonLabel">Eoobolus</text>
 <text x="369.8" y="166" fill="grey" class="flag">[?]</text>
 <text x="391.8" y="166" fill="#111" class="taxonLabel">Mummpikia nuda</text>
 <text x="341.7" y="142" fill="grey" class="flag">[?]</text>
 <text x="363.7" y="142" fill="#111" class="taxonLabel">Botsfordia</text>
 <text x="313.6" y="130" fill="#e2e2a2" class="flag">[1]</text>
 <text x="335.6" y="130" fill="#111" class="taxonLabel">Lingulellotreta malongensis</text>
 <text x="313.6" y="106" fill="#e2e2a2" class="flag">[1]</text>
 <text x="335.6" y="106" fill="#111" class="taxonLabel">Acanthotretella spinosa</text>
 <text x="313.6" y="118" fill="grey" class="flag">[?]</text>
 <text x="335.6" y="118" fill="#111" class="taxonLabel">Siphonobolus priscus</text>
 <text x="285.6" y="94" fill="#e2e2a2" class="flag">[1]</text>
 <text x="307.6" y="94" fill="#111" class="taxonLabel">Lingulosacculus</text>
 <text x="229.5" y="82" fill="grey" class="flag">[?]</text>
 <text x="251.5" y="82" fill="#111" class="taxonLabel">Clupeafumosus socialis</text>
 <text x="145.3" y="70" fill="grey" class="flag">[?]</text>
 <text x="167.3" y="70" fill="#111" class="taxonLabel">Paterimitra</text>
 <text x="89.2" y="58" fill="grey" class="flag">[?]</text>
 <text x="111.2" y="58" fill="#111" class="taxonLabel">Heliomedusa orienta</text>
 <text x="145.3" y="10" fill="#e2e2a2" class="flag">[1]</text>
 <text x="167.3" y="10" fill="#111" class="taxonLabel">Flustra</text>
 <text x="145.3" y="22" fill="#91bfdb" class="flag">[2]</text>
 <text x="167.3" y="22" fill="#111" class="taxonLabel">Loxosomella</text>
 <text x="117.2" y="34" fill="#e2e2a2" class="flag">[1]</text>
 <text x="139.2" y="34" fill="#111" class="taxonLabel">Phoronis</text>
 <text x="89.2" y="46" fill="#91bfdb" class="flag">[2]</text>
 <text x="111.2" y="46" fill="#111" class="taxonLabel">Cotyledion tylodes</text>
 <path d="M5,296.9V110H33.1M33.1,110V32.5H61.1M61.1,32.5V22H89.2M89.2,22V13H117.2M117.2,13V7H145.3M89.2,22V31H117.2M33.1,110V187.5H61.1M61.1,187.5V55H89.2M61.1,187.5V319.9H89.2M89.2,319.9V194.9H117.2M117.2,194.9V67H145.3M117.2,194.9V322.8H145.3M145.3,322.8V224.6H173.4M173.4,224.6V104.3H201.4M201.4,104.3V79H229.5M201.4,104.3V129.6H229.5M229.5,129.6V100H257.5M257.5,100V91H285.6M257.5,100V109H285.6M285.6,109V103H313.6M285.6,109V115H313.6M229.5,129.6V159.2H257.5M257.5,159.2V137.5H285.6M285.6,137.5V127H313.6M285.6,137.5V148H313.6M313.6,148V139H341.7M313.6,148V157H341.7M341.7,157V151H369.8M341.7,157V163H369.8M257.5,159.2V181H285.6M285.6,181V175H313.6M173.4,224.6V344.9H201.4M201.4,344.9V292.7H229.5M229.5,292.7V232H257.5M257.5,232V208H285.6M285.6,208V199H313.6M285.6,208V217H313.6M313.6,217V211H341.7M313.6,217V223H341.7M257.5,232V255.9H285.6M285.6,255.9V241H313.6M313.6,241V235H341.7M313.6,241V247H341.7M285.6,255.9V270.8H313.6M313.6,270.8V282.6H341.7M341.7,282.6V271H369.8M341.7,282.6V294.2H369.8M369.8,294.2V283H397.8M369.8,294.2V305.5H397.8M397.8,305.5V295H425.9M201.4,344.9V397H229.5M229.5,397V391H257.5M229.5,397V403H257.5M145.3,322.8V421H173.4M173.4,421V415H201.4M173.4,421V427H201.4M89.2,319.9V445H117.2M117.2,445V439H145.3M117.2,445V451H145.3M5,296.9V483.8H33.1M33.1,483.8V498.6H61.1M61.1,498.6V487H89.2" stroke="#e2e2a2"></path>
 <path d="M117.2,13V19H145.3M61.1,32.5V43H89.2M285.6,181V187H313.6" stroke="#91bfdb"></path>
 <path d="M313.6,270.8V259H341.7M397.8,305.5V316H425.9M425.9,316V307H453.9M425.9,316V325H453.9M453.9,325V319H482M453.9,325V331H482M229.5,292.7V353.5H257.5M257.5,353.5V343H285.6M257.5,353.5V364H285.6M285.6,364V355H313.6M285.6,364V373H313.6M313.6,373V367H341.7M313.6,373V379H341.7M33.1,483.8V469H61.1M61.1,469V463H89.2M61.1,469V475H89.2M61.1,498.6V510.2H89.2M89.2,510.2V499H117.2M89.2,510.2V521.5H117.2M117.2,521.5V511H145.3M117.2,521.5V532H145.3M145.3,532V523H173.4M145.3,532V541H173.4M173.4,541V535H201.4M173.4,541V547H201.4" stroke="lightgrey" class="inapplicable"></path>
 <text x="7" y="299.9" class="node" fill="#4A6FE3">1</text>
 <text x="35.1" y="113" class="node" fill="#E495A5">0.25</text>
 <text x="63.1" y="35.5" class="node" fill="#E495A5">0.25</text>
 <text x="91.2" y="25" class="node" fill="#E5A5B1">0.3</text>
 <text x="119.2" y="16" class="node" fill="#E5A5B1">0.3</text>
 <text x="63.1" y="190.5" class="node" fill="#4A6FE3">1</text>
 <text x="91.2" y="322.9" class="node" fill="#5B78E2">0.96</text>
 <text x="119.2" y="197.9" class="node" fill="#E49CAA">0.27</text>
 <text x="147.3" y="325.8" class="node" fill="#5B78E2">0.96</text>
 <text x="175.4" y="227.6" class="node" fill="#E5A5B1">0.3</text>
 <text x="203.4" y="107.3" class="node" fill="#E5A5B1">0.3</text>
 <text x="231.5" y="132.6" class="node" fill="#E5A5B1">0.3</text>
 <text x="259.5" y="103" class="node" fill="#E17F94">0.18</text>
 <text x="287.6" y="112" class="node" fill="#4A6FE3">1</text>
 <text x="259.5" y="162.2" class="node" fill="#E5A5B1">0.3</text>
 <text x="287.6" y="140.5" class="node" fill="#E5A8B3">0.31</text>
 <text x="315.6" y="151" class="node" fill="#E5A8B3">0.31</text>
 <text x="343.7" y="160" class="node" fill="#E5A8B3">0.31</text>
 <text x="287.6" y="184" class="node" fill="#E5A5B1">0.3</text>
 <text x="203.4" y="347.9" class="node" fill="#4A6FE3">1</text>
 <text x="231.5" y="295.7" class="node" fill="#DA5E7D">0.08</text>
 <text x="259.5" y="235" class="node" fill="#5B78E2">0.96</text>
 <text x="287.6" y="211" class="node" fill="#C1C6E3">0.62</text>
 <text x="315.6" y="220" class="node" fill="#627DE1">0.94</text>
 <text x="287.6" y="258.9" class="node" fill="#4A6FE3">1</text>
 <text x="315.6" y="244" class="node" fill="#4A6FE3">1</text>
 <text x="315.6" y="273.8" class="node" fill="#DDDEE3">0.52</text>
 <text x="343.7" y="285.6" class="node" fill="#DDDEE3">0.52</text>
 <text x="371.8" y="297.2" class="node" fill="#DDDEE3">0.52</text>
 <text x="399.8" y="308.5" class="node" fill="#DDDEE3">0.52</text>
 <text x="427.9" y="319" class="node" fill="#4A6FE3">1</text>
 <text x="455.9" y="328" class="node" fill="#8F9DE1">0.8</text>
 <text x="259.5" y="356.5" class="node" fill="#4A6FE3">1</text>
 <text x="287.6" y="367" class="node" fill="#4A6FE3">1</text>
 <text x="315.6" y="376" class="node" fill="#4A6FE3">1</text>
 <text x="231.5" y="400" class="node" fill="#4A6FE3">1</text>
 <text x="175.4" y="424" class="node" fill="#E495A5">0.25</text>
 <text x="119.2" y="448" class="node" fill="#4A6FE3">1</text>
 <text x="35.1" y="486.8" class="node" fill="#E495A5">0.25</text>
 <text x="63.1" y="472" class="node" fill="#4A6FE3">1</text>
 <text x="63.1" y="501.6" class="node" fill="#E495A5">0.25</text>
 <text x="91.2" y="513.2" class="node" fill="#E495A5">0.25</text>
 <text x="119.2" y="524.5" class="node" fill="#E495A5">0.25</text>
 <text x="147.3" y="535" class="node" fill="#E5A5B1">0.3</text>
 <text x="175.4" y="544" class="node" fill="#7388E1">0.89</text></svg>
