<svg xmlns="http://www.w3.org/2000/svg" version="1.1" width="682" height="555" class="tree" char="158">
 <text x="678" y="14.7" text-anchor="end" class="stepsLabel">Character adds <tspan class="score">2</tspan> to tree score</text>
 <text x="678" y="26.4" text-anchor="end" class="stepsLabel"><tspan class="score"></tspan> additional region</text>
 <text x="678" y="38.1" text-anchor="end" class="stepsLabel">CI = 0.5; Fitch CI = 0.5; Fitch RI = 0</text>
 <text x="678" y="61.5" text-anchor="end" class="stepsLabel"><tspan dy="16">An optimal tree under:</tspan><tspan x="680" style="font-style:italic" class="thisAn" dy="1.2em">Equal weights</tspan><tspan x="680" style="font-style:italic" class="notThisAn" dy="1.2em">Implied weights, k = 2</tspan><tspan x="680" style="font-style:italic" class="notThisAn" dy="1.2em">IW, k = 3</tspan><tspan x="680" style="font-style:italic" class="notThisAn" dy="1.2em">IW, k = 4.5</tspan></text>
 <text x="30.1" y="10" fill="grey" class="flag">[?]</text>
 <text x="52.1" y="10" class="taxonLabel">Dailyatia</text>
 <text x="130.5" y="142" fill="grey" class="flag">[?]</text>
 <text x="152.5" y="142" class="taxonLabel">Halkieria evangelista</text>
 <text x="55.2" y="22" fill="grey" class="flag">[?]</text>
 <text x="77.2" y="22" class="taxonLabel">Eccentrotheca</text>
 <text x="80.3" y="34" fill="grey" class="flag">[?]</text>
 <text x="102.3" y="34" class="taxonLabel">Cotyledion tylodes</text>
 <text x="130.5" y="46" fill="grey" class="flag">[?]</text>
 <text x="152.5" y="46" class="taxonLabel">Phoronis</text>
 <text x="155.6" y="58" fill="grey" class="flag">[?]</text>
 <text x="177.6" y="58" class="taxonLabel">Flustra</text>
 <text x="180.7" y="70" fill="#fc8d59" class="flag">[0]</text>
 <text x="202.7" y="70" class="taxonLabel">Loxosomella</text>
 <text x="230.9" y="82" fill="#91bfdb" class="flag">[1]</text>
 <text x="252.9" y="82" class="taxonLabel">Dentalium</text>
 <text x="256.1" y="94" fill="grey" class="flag">[?]</text>
 <text x="278.1" y="94" class="taxonLabel">Wiwaxia corrugata</text>
 <text x="256.1" y="106" fill="#fc8d59" class="flag">[0]</text>
 <text x="278.1" y="106" class="taxonLabel">Chiton</text>
 <text x="230.9" y="118" fill="#91bfdb" class="flag">[1]</text>
 <text x="252.9" y="118" class="taxonLabel">Serpula</text>
 <text x="230.9" y="130" fill="#91bfdb" class="flag">[1]</text>
 <text x="252.9" y="130" class="taxonLabel">Sipunculus</text>
 <text x="155.6" y="154" fill="grey" class="flag">[?]</text>
 <text x="177.6" y="154" class="taxonLabel">Heliomedusa orienta</text>
 <text x="205.8" y="166" fill="grey" class="flag">[?]</text>
 <text x="227.8" y="166" class="taxonLabel">Paterimitra</text>
 <text x="230.9" y="178" fill="grey" class="flag">[?]</text>
 <text x="252.9" y="178" class="taxonLabel">Haplophrentis carinatus</text>
 <text x="230.9" y="190" fill="grey" class="flag">[?]</text>
 <text x="252.9" y="190" class="taxonLabel">Pedunculotheca diania</text>
 <text x="281.2" y="358" fill="grey" class="flag">[?]</text>
 <text x="303.2" y="358" class="taxonLabel">Askepasma toddense</text>
 <text x="281.2" y="346" fill="grey" class="flag">[?]</text>
 <text x="303.2" y="346" class="taxonLabel">Micromitra</text>
 <text x="281.2" y="202" fill="grey" class="flag">[?]</text>
 <text x="303.2" y="202" class="taxonLabel">Salanygolina</text>
 <text x="331.4" y="214" fill="grey" class="flag">[?]</text>
 <text x="353.4" y="214" class="taxonLabel">Tomteluva perturbata</text>
 <text x="331.4" y="226" fill="grey" class="flag">[?]</text>
 <text x="353.4" y="226" class="taxonLabel">Yuganotheca elegans</text>
 <text x="331.4" y="238" fill="grey" class="flag">[?]</text>
 <text x="353.4" y="238" class="taxonLabel">Longtancunella chengjiangensis</text>
 <text x="381.6" y="250" fill="grey" class="flag">[?]</text>
 <text x="403.6" y="250" class="taxonLabel">Kutorgina chengjiangensis</text>
 <text x="406.7" y="262" fill="grey" class="flag">[?]</text>
 <text x="428.7" y="262" class="taxonLabel">Nisusia sulcata</text>
 <text x="431.8" y="274" fill="grey" class="flag">[?]</text>
 <text x="453.8" y="274" class="taxonLabel">Glyptoria</text>
 <text x="456.9" y="286" fill="grey" class="flag">[?]</text>
 <text x="478.9" y="286" class="taxonLabel">Orthis</text>
 <text x="482" y="310" fill="#91bfdb" class="flag">[1]</text>
 <text x="504" y="310" class="taxonLabel">Terebratulina</text>
 <text x="482" y="298" fill="grey" class="flag">[?]</text>
 <text x="504" y="298" class="taxonLabel">Alisina</text>
 <text x="381.6" y="322" fill="grey" class="flag">[?]</text>
 <text x="403.6" y="322" class="taxonLabel">Antigonambonites planus</text>
 <text x="381.6" y="334" fill="grey" class="flag">[?]</text>
 <text x="403.6" y="334" class="taxonLabel">Coolinia pecten</text>
 <text x="256.1" y="370" fill="grey" class="flag">[?]</text>
 <text x="278.1" y="370" class="taxonLabel">Gasconsia</text>
 <text x="281.2" y="382" fill="grey" class="flag">[?]</text>
 <text x="303.2" y="382" class="taxonLabel">Ussunia</text>
 <text x="306.3" y="394" fill="grey" class="flag">[?]</text>
 <text x="328.3" y="394" class="taxonLabel">Craniops</text>
 <text x="306.3" y="406" fill="#91bfdb" class="flag">[1]</text>
 <text x="328.3" y="406" class="taxonLabel">Novocrania</text>
 <text x="256.1" y="418" fill="grey" class="flag">[?]</text>
 <text x="278.1" y="418" class="taxonLabel">Micrina</text>
 <text x="281.2" y="430" fill="#91bfdb" class="flag">[1]</text>
 <text x="303.2" y="430" class="taxonLabel">Pelagodiscus atlanticus</text>
 <text x="281.2" y="442" fill="grey" class="flag">[?]</text>
 <text x="303.2" y="442" class="taxonLabel">Mickwitzia muralensis</text>
 <text x="256.1" y="454" fill="#91bfdb" class="flag">[1]</text>
 <text x="278.1" y="454" class="taxonLabel">Lingula</text>
 <text x="281.2" y="466" fill="grey" class="flag">[?]</text>
 <text x="303.2" y="466" class="taxonLabel">Eoobolus</text>
 <text x="306.3" y="478" fill="grey" class="flag">[?]</text>
 <text x="328.3" y="478" class="taxonLabel">Mummpikia nuda</text>
 <text x="331.4" y="490" fill="grey" class="flag">[?]</text>
 <text x="353.4" y="490" class="taxonLabel">Botsfordia</text>
 <text x="356.5" y="502" fill="grey" class="flag">[?]</text>
 <text x="378.5" y="502" class="taxonLabel">Lingulosacculus</text>
 <text x="381.6" y="514" fill="grey" class="flag">[?]</text>
 <text x="403.6" y="514" class="taxonLabel">Lingulellotreta malongensis</text>
 <text x="406.7" y="526" fill="grey" class="flag">[?]</text>
 <text x="428.7" y="526" class="taxonLabel">Clupeafumosus socialis</text>
 <text x="431.8" y="538" fill="grey" class="flag">[?]</text>
 <text x="453.8" y="538" class="taxonLabel">Siphonobolus priscus</text>
 <text x="431.8" y="550" fill="grey" class="flag">[?]</text>
 <text x="453.8" y="550" class="taxonLabel">Acanthotretella spinosa</text>
 <path d="M5,26.7V7H30.1M5,26.7V46.5H30.1M30.1,46.5V19H55.2M30.1,46.5V74H55.2M55.2,74V31H80.3M55.2,74V116.9H80.3M80.3,116.9V56.7H105.4M105.4,56.7V43H130.5M105.4,56.7V70.4H130.5M130.5,70.4V55H155.6M130.5,70.4V85.8H155.6M155.6,85.8V104.5H180.7M180.7,104.5V88H205.8M205.8,88V79H230.9M205.8,88V97H230.9M180.7,104.5V121H205.8M205.8,121V115H230.9M205.8,121V127H230.9M80.3,116.9V177.1H105.4M105.4,177.1V139H130.5M105.4,177.1V215.3H130.5M130.5,215.3V151H155.6M130.5,215.3V279.6H155.6M155.6,279.6V172H180.7M180.7,172V163H205.8M180.7,172V181H205.8M205.8,181V175H230.9M205.8,181V187H230.9M155.6,279.6V387.2H180.7M180.7,387.2V330.9H205.8M205.8,330.9V284.3H230.9M230.9,284.3V219.6H256.1M256.1,219.6V199H281.2M256.1,219.6V240.2H281.2M281.2,240.2V217H306.3M306.3,217V211H331.4M306.3,217V223H331.4M281.2,240.2V263.4H306.3M306.3,263.4V235H331.4M306.3,263.4V291.8H331.4M331.4,291.8V258.6H356.5M356.5,258.6V247H381.6M356.5,258.6V270.2H381.6M381.6,270.2V259H406.7M381.6,270.2V281.5H406.7M406.7,281.5V271H431.8M406.7,281.5V292H431.8M431.8,292V283H456.9M431.8,292V301H456.9M456.9,301V295H482M456.9,301V307H482M331.4,291.8V325H356.5M356.5,325V319H381.6M356.5,325V331H381.6M230.9,284.3V349H256.1M256.1,349V343H281.2M256.1,349V355H281.2M205.8,330.9V377.5H230.9M230.9,377.5V367H256.1M230.9,377.5V388H256.1M256.1,388V379H281.2M256.1,388V397H281.2M281.2,397V391H306.3M281.2,397V403H306.3M180.7,387.2V443.5H205.8M205.8,443.5V424H230.9M230.9,424V415H256.1M230.9,424V433H256.1M256.1,433V427H281.2M256.1,433V439H281.2M205.8,443.5V463H230.9M230.9,463V451H256.1M230.9,463V474.9H256.1M256.1,474.9V463H281.2M256.1,474.9V486.8H281.2M281.2,486.8V475H306.3M281.2,486.8V498.6H306.3M306.3,498.6V487H331.4M306.3,498.6V510.2H331.4M331.4,510.2V499H356.5M331.4,510.2V521.5H356.5M356.5,521.5V511H381.6M356.5,521.5V532H381.6M381.6,532V523H406.7M381.6,532V541H406.7M406.7,541V535H431.8M406.7,541V547H431.8" stroke="#91bfdb"></path>
 <path d="M155.6,85.8V67H180.7M230.9,97V103H256.1" stroke="#fc8d59"></path>
 <path d="M230.9,97V91H256.1" stroke="darkgrey"></path>
 <text x="7" y="29.7" class="node" fill="#4A6FE3">1</text>
 <text x="32.1" y="49.5" class="node" fill="#ABB4E2">0.7</text>
 <text x="57.2" y="77" class="node" fill="#DC6884">0.11</text>
 <text x="82.3" y="119.9" class="node" fill="#DC6884">0.11</text>
 <text x="107.4" y="59.7" class="node" fill="#ABB4E2">0.7</text>
 <text x="132.5" y="73.4" class="node" fill="#ABB4E2">0.7</text>
 <text x="157.6" y="88.8" class="node" fill="#ABB4E2">0.7</text>
 <text x="182.7" y="107.5" class="node" fill="#ABB4E2">0.7</text>
 <text x="207.8" y="91" class="node" fill="#ABB4E2">0.7</text>
 <text x="232.9" y="100" class="node" fill="#ABB4E2">0.7</text>
 <text x="207.8" y="124" class="node" fill="#4A6FE3">1</text>
 <text x="107.4" y="180.1" class="node" fill="#DC6884">0.11</text>
 <text x="132.5" y="218.3" class="node" fill="#4A6FE3">1</text>
 <text x="157.6" y="282.6" class="node" fill="#5B78E2">0.96</text>
 <text x="182.7" y="175" class="node" fill="#ABB4E2">0.7</text>
 <text x="207.8" y="184" class="node" fill="#4A6FE3">1</text>
 <text x="182.7" y="390.2" class="node" fill="#5B78E2">0.96</text>
 <text x="207.8" y="333.9" class="node" fill="#4A6FE3">1</text>
 <text x="232.9" y="287.3" class="node" fill="#929FE1">0.79</text>
 <text x="258.1" y="222.6" class="node" fill="#5B78E2">0.96</text>
 <text x="283.2" y="243.2" class="node" fill="#E6C1C7">0.39</text>
 <text x="308.3" y="220" class="node" fill="#627DE1">0.94</text>
 <text x="308.3" y="266.4" class="node" fill="#4A6FE3">1</text>
 <text x="333.4" y="294.8" class="node" fill="#E3DFE0">0.49</text>
 <text x="358.5" y="261.6" class="node" fill="#E3DFE0">0.49</text>
 <text x="383.6" y="273.2" class="node" fill="#E3DFE0">0.49</text>
 <text x="408.7" y="284.5" class="node" fill="#E3DFE0">0.49</text>
 <text x="433.8" y="295" class="node" fill="#4A6FE3">1</text>
 <text x="458.9" y="304" class="node" fill="#E28699">0.2</text>
 <text x="358.5" y="328" class="node" fill="#4A6FE3">1</text>
 <text x="258.1" y="352" class="node" fill="#4A6FE3">1</text>
 <text x="232.9" y="380.5" class="node" fill="#4A6FE3">1</text>
 <text x="258.1" y="391" class="node" fill="#4A6FE3">1</text>
 <text x="283.2" y="400" class="node" fill="#4A6FE3">1</text>
 <text x="207.8" y="446.5" class="node" fill="#ABB4E2">0.7</text>
 <text x="232.9" y="427" class="node" fill="#ABB4E2">0.7</text>
 <text x="258.1" y="436" class="node" fill="#ABB4E2">0.7</text>
 <text x="232.9" y="466" class="node" fill="#ABB4E2">0.7</text>
 <text x="258.1" y="477.9" class="node" fill="#ABB4E2">0.7</text>
 <text x="283.2" y="489.8" class="node" fill="#ABB4E2">0.7</text>
 <text x="308.3" y="501.6" class="node" fill="#ABB4E2">0.7</text>
 <text x="333.4" y="513.2" class="node" fill="#ABB4E2">0.7</text>
 <text x="358.5" y="524.5" class="node" fill="#E28699">0.2</text>
 <text x="383.6" y="535" class="node" fill="#E0E0E2">0.51</text>
 <text x="408.7" y="544" class="node" fill="#4A6FE3">1</text></svg>
