<svg xmlns="http://www.w3.org/2000/svg" version="1.1" width="682" height="612" class="tree" data-char="153"><text x="678" y="14.1" text-anchor="end" class="stepsLabel">Character adds <tspan class="score">2</tspan> to tree score</text><text x="678" y="25.2" text-anchor="end" class="stepsLabel"><tspan class="score">0</tspan> additional regions</text><text x="678" y="36.3" text-anchor="end" class="stepsLabel">CI = 0.5; Fitch CI = 0.5; Fitch RI = 0.67</text><text x="678" y="58.5" text-anchor="end" class="stepsLabel"><tspan dy="16" fill="#34caaf">An optimal tree under:</tspan><tspan x="680" style="font-style:italic" class="thisAn" dy="1.2em">Equal weights</tspan><tspan x="680" style="font-style:italic" class="notThisAn" dy="1.2em">Implied weights, k = 2</tspan><tspan x="680" style="font-style:italic" class="notThisAn" dy="1.2em">IW, k = 3</tspan><tspan x="680" style="font-style:italic" class="notThisAn" dy="1.2em">IW, k = 4.5</tspan><tspan x="680" style="font-style:italic" class="notThisAn" dy="1.2em">IW, k = 7</tspan><tspan x="680" style="font-style:italic" class="notThisAn" dy="1.2em">IW, k = 10.5</tspan><tspan x="680" style="font-style:italic" class="notThisAn" dy="1.2em">IW, k = 16</tspan><tspan x="680" style="font-style:italic" class="notThisAn" dy="1.2em">IW, k = 24</tspan></text><text x="100.4" y="595.7" fill="grey" class="flag">[?]</text><text x="122.4" y="595.7" fill="#999" class="taxonLabel">Wiwaxia corrugata</text><text x="100.4" y="607" fill="#91bfdb" class="flag">[1]</text><text x="122.4" y="607" fill="#000" class="taxonLabel">Dentalium</text><text x="76.6" y="584.5" fill="#91bfdb" class="flag">[1]</text><text x="98.6" y="584.5" fill="#000" class="taxonLabel">Tonicella</text><text x="76.6" y="561.9" fill="grey" class="flag">[?]</text><text x="98.6" y="561.9" fill="#999" class="taxonLabel">Serpula</text><text x="76.6" y="573.2" fill="#91bfdb" class="flag">[1]</text><text x="98.6" y="573.2" fill="#000" class="taxonLabel">Sipunculus</text><text x="362.8" y="528.2" fill="grey" class="flag">[?]</text><text x="384.8" y="528.2" fill="#999" class="taxonLabel">Coolinia pecten</text><text x="362.8" y="539.4" fill="grey" class="flag">[?]</text><text x="384.8" y="539.4" fill="#999" class="taxonLabel">Antigonambonites planus</text><text x="482" y="505.6" fill="grey" class="flag">[?]</text><text x="504" y="505.6" fill="#999" class="taxonLabel">Terebratulina</text><text x="482" y="516.9" fill="grey" class="flag">[?]</text><text x="504" y="516.9" fill="#999" class="taxonLabel">Orthis</text><text x="458.2" y="494.4" fill="grey" class="flag">[?]</text><text x="480.2" y="494.4" fill="#999" class="taxonLabel">Alisina</text><text x="434.3" y="483.1" fill="grey" class="flag">[?]</text><text x="456.3" y="483.1" fill="#999" class="taxonLabel">Longtancunella chengjiangensis</text><text x="410.5" y="471.8" fill="grey" class="flag">[?]</text><text x="432.5" y="471.8" fill="#999" class="taxonLabel">Glyptoria</text><text x="386.6" y="460.6" fill="grey" class="flag">[?]</text><text x="408.6" y="460.6" fill="#999" class="taxonLabel">Nisusia sulcata</text><text x="362.8" y="449.3" fill="grey" class="flag">[?]</text><text x="384.8" y="449.3" fill="#999" class="taxonLabel">Kutorgina chengjiangensis</text><text x="338.9" y="426.8" fill="grey" class="flag">[?]</text><text x="360.9" y="426.8" fill="#999" class="taxonLabel">Tomteluva perturbata</text><text x="338.9" y="438" fill="grey" class="flag">[?]</text><text x="360.9" y="438" fill="#999" class="taxonLabel">Yuganotheca elegans</text><text x="291.2" y="415.5" fill="grey" class="flag">[?]</text><text x="313.2" y="415.5" fill="#999" class="taxonLabel">Salanygolina</text><text x="267.4" y="404.2" fill="grey" class="flag">[?]</text><text x="289.4" y="404.2" fill="#999" class="taxonLabel">Askepasma toddense</text><text x="338.9" y="381.7" fill="grey" class="flag">[?]</text><text x="360.9" y="381.7" fill="#999" class="taxonLabel">Pelagodiscus atlanticus</text><text x="338.9" y="393" fill="grey" class="flag">[?]</text><text x="360.9" y="393" fill="#999" class="taxonLabel">Mummpikia nuda</text><text x="434.3" y="359.2" fill="grey" class="flag">[?]</text><text x="456.3" y="359.2" fill="#999" class="taxonLabel">Acanthotretella spinosa</text><text x="434.3" y="370.5" fill="grey" class="flag">[?]</text><text x="456.3" y="370.5" fill="#999" class="taxonLabel">Siphonobolus priscus</text><text x="410.5" y="347.9" fill="grey" class="flag">[?]</text><text x="432.5" y="347.9" fill="#999" class="taxonLabel">Lingulosacculus</text><text x="386.6" y="336.7" fill="grey" class="flag">[?]</text><text x="408.6" y="336.7" fill="#999" class="taxonLabel">Clupeafumosus socialis</text><text x="362.8" y="325.4" fill="#fc8d59" class="flag">[0]</text><text x="384.8" y="325.4" fill="#000" class="taxonLabel">Lingula</text><text x="338.9" y="314.1" fill="grey" class="flag">[?]</text><text x="360.9" y="314.1" fill="#999" class="taxonLabel">Lingulellotreta malongensis</text><text x="315.1" y="291.6" fill="grey" class="flag">[?]</text><text x="337.1" y="291.6" fill="#999" class="taxonLabel">Eoobolus</text><text x="315.1" y="302.9" fill="grey" class="flag">[?]</text><text x="337.1" y="302.9" fill="#999" class="taxonLabel">Botsfordia</text><text x="315.1" y="269.1" fill="grey" class="flag">[?]</text><text x="337.1" y="269.1" fill="#999" class="taxonLabel">Gasconsia</text><text x="315.1" y="280.3" fill="grey" class="flag">[?]</text><text x="337.1" y="280.3" fill="#999" class="taxonLabel">Micromitra</text><text x="386.6" y="246.5" fill="grey" class="flag">[?]</text><text x="408.6" y="246.5" fill="#999" class="taxonLabel">Craniops</text><text x="386.6" y="257.8" fill="#fc8d59" class="flag">[0]</text><text x="408.6" y="257.8" fill="#000" class="taxonLabel">Novocrania</text><text x="362.8" y="235.3" fill="grey" class="flag">[?]</text><text x="384.8" y="235.3" fill="#999" class="taxonLabel">Ussunia</text><text x="338.9" y="224" fill="grey" class="flag">[?]</text><text x="360.9" y="224" fill="#999" class="taxonLabel">Heliomedusa orienta</text><text x="315.1" y="212.8" fill="grey" class="flag">[?]</text><text x="337.1" y="212.8" fill="#999" class="taxonLabel">Mickwitzia muralensis</text><text x="219.7" y="201.5" fill="grey" class="flag">[?]</text><text x="241.7" y="201.5" fill="#999" class="taxonLabel">Micrina</text><text x="338.9" y="179" fill="grey" class="flag">[?]</text><text x="360.9" y="179" fill="#999" class="taxonLabel">Maxilites</text><text x="338.9" y="190.2" fill="grey" class="flag">[?]</text><text x="360.9" y="190.2" fill="#999" class="taxonLabel">Pauxillites</text><text x="315.1" y="167.7" fill="grey" class="flag">[?]</text><text x="337.1" y="167.7" fill="#999" class="taxonLabel">Paramicrocornus</text><text x="291.2" y="156.4" fill="grey" class="flag">[?]</text><text x="313.2" y="156.4" fill="#999" class="taxonLabel">Haplophrentis carinatus</text><text x="267.4" y="145.2" fill="grey" class="flag">[?]</text><text x="289.4" y="145.2" fill="#999" class="taxonLabel">Conotheca</text><text x="267.4" y="122.6" fill="grey" class="flag">[?]</text><text x="289.4" y="122.6" fill="#999" class="taxonLabel">Probactrotheca</text><text x="267.4" y="133.9" fill="grey" class="flag">[?]</text><text x="289.4" y="133.9" fill="#999" class="taxonLabel">Decoritheca</text><text x="219.7" y="111.4" fill="grey" class="flag">[?]</text><text x="241.7" y="111.4" fill="#999" class="taxonLabel">Pedunculotheca diania</text><text x="172" y="100.1" fill="grey" class="flag">[?]</text><text x="194" y="100.1" fill="#999" class="taxonLabel">Paterimitra</text><text x="148.1" y="88.8" fill="grey" class="flag">[?]</text><text x="170.1" y="88.8" fill="#999" class="taxonLabel">Halkieria evangelista</text><text x="124.2" y="77.6" fill="grey" class="flag">[?]</text><text x="146.2" y="77.6" fill="#999" class="taxonLabel">Dailyatia</text><text x="148.1" y="55.1" fill="grey" class="flag">[?]</text><text x="170.1" y="55.1" fill="#999" class="taxonLabel">Eccentrotheca</text><text x="148.1" y="66.3" fill="grey" class="flag">[?]</text><text x="170.1" y="66.3" fill="#999" class="taxonLabel">Cotyledion tylodes</text><text x="124.2" y="43.8" fill="#fc8d59" class="flag">[0]</text><text x="146.2" y="43.8" fill="#000" class="taxonLabel">Phoronis</text><text x="124.2" y="10" fill="#91bfdb" class="flag">[1]</text><text x="146.2" y="10" fill="#000" class="taxonLabel">Flustra</text><text x="124.2" y="21.3" fill="#91bfdb" class="flag">[1]</text><text x="146.2" y="21.3" fill="#000" class="taxonLabel">Amathia</text><text x="100.4" y="32.5" fill="grey" class="flag">[?]</text><text x="122.4" y="32.5" fill="#999" class="taxonLabel">Namacalathus</text><text x="52.7" y="550.7" fill="#fc8d59" class="flag">[0]</text><text x="74.7" y="550.7" fill="#000" class="taxonLabel">Loxosomella</text><path d="M5,437.2V297.2H28.9M28.9,297.2V46.8H52.7M52.7,46.8V21.1H76.6M76.6,21.1V29.5H100.4" stroke="darkgrey"></path><path d="M76.6,21.1V12.6H100.4M100.4,12.6V7H124.2M100.4,12.6V18.3H124.2M5,437.2V577.2H28.9M28.9,577.2V564.6H52.7M52.7,564.6V558.9H76.6M52.7,564.6V570.2H76.6M28.9,577.2V589.9H52.7M52.7,589.9V581.5H76.6M52.7,589.9V598.4H76.6M76.6,598.4V592.7H100.4M76.6,598.4V604H100.4" stroke="#91bfdb"></path><path d="M52.7,46.8V72.5H76.6M76.6,72.5V49.2H100.4M100.4,49.2V40.8H124.2M100.4,49.2V57.7H124.2M124.2,57.7V52.1H148.1M124.2,57.7V63.3H148.1M76.6,72.5V95.8H100.4M100.4,95.8V74.6H124.2M100.4,95.8V117.1H124.2M124.2,117.1V85.8H148.1M124.2,117.1V148.3H148.1M148.1,148.3V97.1H172M148.1,148.3V199.5H172M172,199.5V123.7H195.8M195.8,123.7V108.4H219.7M195.8,123.7V139H219.7M219.7,139V125.3H243.5M243.5,125.3V119.6H267.4M243.5,125.3V130.9H267.4M219.7,139V152.7H243.5M243.5,152.7V142.2H267.4M243.5,152.7V163.3H267.4M267.4,163.3V153.4H291.2M267.4,163.3V173.1H291.2M291.2,173.1V164.7H315.1M291.2,173.1V181.6H315.1M315.1,181.6V176H338.9M315.1,181.6V187.2H338.9M172,199.5V275.3H195.8M195.8,275.3V198.5H219.7M195.8,275.3V352H219.7M219.7,352V284.9H243.5M243.5,284.9V246H267.4M267.4,246V220.3H291.2M291.2,220.3V209.8H315.1M291.2,220.3V230.9H315.1M315.1,230.9V221H338.9M315.1,230.9V240.7H338.9M338.9,240.7V232.3H362.8M338.9,240.7V249.2H362.8M362.8,249.2V243.5H386.6M362.8,249.2V254.8H386.6M267.4,246V271.7H291.2M291.2,271.7V266.1H315.1M291.2,271.7V277.3H315.1M243.5,284.9V323.7H267.4M267.4,323.7V294.2H291.2M291.2,294.2V288.6H315.1M291.2,294.2V299.9H315.1M267.4,323.7V353.2H291.2M291.2,353.2V322H315.1M315.1,322V311.1H338.9M315.1,322V333H338.9M338.9,333V322.4H362.8M338.9,333V343.5H362.8M362.8,343.5V333.7H386.6M362.8,343.5V353.4H386.6M386.6,353.4V344.9H410.5M386.6,353.4V361.8H410.5M410.5,361.8V356.2H434.3M410.5,361.8V367.5H434.3M291.2,353.2V384.3H315.1M315.1,384.3V378.7H338.9M315.1,384.3V390H338.9M219.7,352V419.2H243.5M243.5,419.2V401.2H267.4M243.5,419.2V437.1H267.4M267.4,437.1V412.5H291.2M267.4,437.1V461.7H291.2M291.2,461.7V429.4H315.1M315.1,429.4V423.8H338.9M315.1,429.4V435H338.9M291.2,461.7V494.1H315.1M315.1,494.1V457.4H338.9M338.9,457.4V446.3H362.8M338.9,457.4V468.5H362.8M362.8,468.5V457.6H386.6M362.8,468.5V479.4H386.6M386.6,479.4V468.8H410.5M386.6,479.4V490H410.5M410.5,490V480.1H434.3M410.5,490V499.8H434.3M434.3,499.8V491.4H458.2M434.3,499.8V508.3H458.2M458.2,508.3V502.6H482M458.2,508.3V513.9H482M315.1,494.1V530.8H338.9M338.9,530.8V525.2H362.8M338.9,530.8V536.4H362.8M28.9,297.2V547.7H52.7" stroke="#fc8d59"></path><text x="7" y="440.2" class="node" fill="#4A6FE3">1</text><text x="30.9" y="300.2" class="node" fill="#4A6FE3">1</text><text x="54.7" y="49.8" class="node" fill="#4A6FE3">1</text><text x="78.6" y="24.1" class="node" fill="#E6B1BB">0.34</text><text x="102.4" y="15.6" class="node" fill="#4A6FE3">1</text><text x="78.6" y="75.5" class="node" fill="#E3DFE0">0.49</text><text x="102.4" y="52.2" class="node" fill="#DB617F">0.09</text><text x="126.2" y="60.7" class="node" fill="#E392A2">0.24</text><text x="102.4" y="98.8" class="node" fill="#E6C4C9">0.4</text><text x="126.2" y="120.1" class="node" fill="#A8B1E2">0.71</text><text x="150.1" y="151.3" class="node" fill="#A8B1E2">0.71</text><text x="174" y="202.5" class="node" fill="#A8B1E2">0.71</text><text x="197.8" y="126.7" class="node" fill="#A8B1E2">0.71</text><text x="221.7" y="142" class="node" fill="#4A6FE3">1</text><text x="245.5" y="128.3" class="node" fill="#E6B1BB">0.34</text><text x="245.5" y="155.7" class="node" fill="#E07C92">0.17</text><text x="269.4" y="166.3" class="node" fill="#7A8DE1">0.87</text><text x="293.2" y="176.1" class="node" fill="#C1C6E3">0.62</text><text x="317.1" y="184.6" class="node" fill="#4A6FE3">1</text><text x="197.8" y="278.3" class="node" fill="#667FE1">0.93</text><text x="221.7" y="355" class="node" fill="#D5D7E3">0.55</text><text x="245.5" y="287.9" class="node" fill="#B9BFE3">0.65</text><text x="269.4" y="249" class="node" fill="#D2D4E3">0.57</text><text x="293.2" y="223.3" class="node" fill="#D2D4E3">0.57</text><text x="317.1" y="233.9" class="node" fill="#7A8DE1">0.87</text><text x="340.9" y="243.7" class="node" fill="#4A6FE3">1</text><text x="364.8" y="252.2" class="node" fill="#4A6FE3">1</text><text x="293.2" y="274.7" class="node" fill="#BCC2E3">0.64</text><text x="269.4" y="326.7" class="node" fill="#A3ADE2">0.73</text><text x="293.2" y="297.2" class="node" fill="#E5C7CC">0.41</text><text x="293.2" y="356.2" class="node" fill="#DDDEE3">0.52</text><text x="317.1" y="325" class="node" fill="#E4D6D8">0.46</text><text x="340.9" y="336" class="node" fill="#DC6884">0.11</text><text x="364.8" y="346.5" class="node" fill="#AEB6E2">0.69</text><text x="388.6" y="356.4" class="node" fill="#E59FAC">0.29</text><text x="412.5" y="364.8" class="node" fill="#5776E2">0.97</text><text x="317.1" y="387.3" class="node" fill="#D2D4E3">0.56</text><text x="245.5" y="422.2" class="node" fill="#ABB4E2">0.7</text><text x="269.4" y="440.1" class="node" fill="#97A4E2">0.77</text><text x="293.2" y="464.7" class="node" fill="#D2D4E3">0.57</text><text x="317.1" y="432.4" class="node" fill="#DDDEE3">0.52</text><text x="317.1" y="497.1" class="node" fill="#9AA6E2">0.76</text><text x="340.9" y="460.4" class="node" fill="#929FE1">0.79</text><text x="364.8" y="471.5" class="node" fill="#929FE1">0.79</text><text x="388.6" y="482.4" class="node" fill="#929FE1">0.79</text><text x="412.5" y="493" class="node" fill="#7A8DE1">0.87</text><text x="436.3" y="502.8" class="node" fill="#4A6FE3">1</text><text x="460.2" y="511.3" class="node" fill="#929FE1">0.79</text><text x="340.9" y="533.8" class="node" fill="#4A6FE3">1</text><text x="30.9" y="580.2" class="node" fill="#4A6FE3">1</text><text x="54.7" y="567.6" class="node" fill="#4A6FE3">1</text><text x="54.7" y="592.9" class="node" fill="#4A6FE3">1</text><text x="78.6" y="601.4" class="node" fill="#6D84E1">0.91</text></svg>
