<svg xmlns="http://www.w3.org/2000/svg" version="1.1" width="682" height="682" class="tree" data-char="223"><text x="678" y="15.4" text-anchor="end" class="stepsLabel">Character adds <tspan class="score">2</tspan> to tree score</text><text x="678" y="27.8" text-anchor="end" class="stepsLabel"><tspan class="score">0</tspan> additional regions</text><text x="678" y="40.2" text-anchor="end" class="stepsLabel">CI = 0.5; Fitch CI = 0.5; Fitch RI = 0</text><text x="678" y="65" text-anchor="end" class="stepsLabel"><tspan dy="16" fill="#34caaf">An optimal tree under:</tspan><tspan x="680" style="font-style:italic" class="thisAn" dy="1.2em">Equal weights</tspan><tspan x="680" style="font-style:italic" class="notThisAn" dy="1.2em">Implied weights, k = 3</tspan><tspan x="680" style="font-style:italic" class="notThisAn" dy="1.2em">IW, k = 4.5</tspan><tspan x="680" style="font-style:italic" class="notThisAn" dy="1.2em">IW, k = 7</tspan><tspan x="680" style="font-style:italic" class="notThisAn" dy="1.2em">IW, k = 10.5</tspan><tspan x="680" style="font-style:italic" class="notThisAn" dy="1.2em">IW, k = 16</tspan><tspan x="680" style="font-style:italic" class="notThisAn" dy="1.2em">IW, k = 24</tspan></text><text x="70" y="664.4" fill="#91bfdb" class="flag">[2]</text><text x="92" y="664.4" fill="#000" class="taxonLabel">Serpula</text><text x="70" y="677" fill="#91bfdb" class="flag">[2]</text><text x="92" y="677" fill="#000" class="taxonLabel">Sipunculus</text><text x="91.7" y="639.2" fill="#e2e2a2" class="flag">[1]</text><text x="113.7" y="639.2" fill="#000" class="taxonLabel">Dentalium</text><text x="91.7" y="651.8" fill="#91bfdb" class="flag">[2]</text><text x="113.7" y="651.8" fill="#000" class="taxonLabel">Tonicella</text><text x="70" y="626.7" fill="grey" class="flag">[?]</text><text x="92" y="626.7" fill="#999" class="taxonLabel">Wiwaxia corrugata</text><text x="91.7" y="601.5" fill="#e2e2a2" class="flag">[1]</text><text x="113.7" y="601.5" fill="#000" class="taxonLabel">Flustra</text><text x="91.7" y="614.1" fill="#91bfdb" class="flag">[2]</text><text x="113.7" y="614.1" fill="#000" class="taxonLabel">Amathia</text><text x="330.2" y="576.3" fill="grey" class="flag">[?]</text><text x="352.2" y="576.3" fill="#999" class="taxonLabel">Micromitra</text><text x="330.2" y="588.9" fill="grey" class="flag">[?]</text><text x="352.2" y="588.9" fill="#999" class="taxonLabel">Askepasma toddense</text><text x="460.3" y="551.2" fill="grey" class="flag">[?]</text><text x="482.3" y="551.2" fill="#999" class="taxonLabel">Orthis</text><text x="460.3" y="563.7" fill="lightgrey" class="flag">[-]</text><text x="482.3" y="563.7" fill="#ccc" class="taxonLabel">Terebratulina</text><text x="438.6" y="538.6" fill="grey" class="flag">[?]</text><text x="460.6" y="538.6" fill="#999" class="taxonLabel">Alisina</text><text x="417" y="526" fill="grey" class="flag">[?]</text><text x="439" y="526" fill="#999" class="taxonLabel">Longtancunella chengjiangensis</text><text x="395.3" y="513.4" fill="grey" class="flag">[?]</text><text x="417.3" y="513.4" fill="#999" class="taxonLabel">Glyptoria</text><text x="417" y="488.2" fill="grey" class="flag">[?]</text><text x="439" y="488.2" fill="#999" class="taxonLabel">Tomteluva perturbata</text><text x="417" y="500.8" fill="grey" class="flag">[?]</text><text x="439" y="500.8" fill="#999" class="taxonLabel">Kutorgina chengjiangensis</text><text x="395.3" y="475.6" fill="grey" class="flag">[?]</text><text x="417.3" y="475.6" fill="#999" class="taxonLabel">Nisusia sulcata</text><text x="373.6" y="450.5" fill="grey" class="flag">[?]</text><text x="395.6" y="450.5" fill="#999" class="taxonLabel">Coolinia pecten</text><text x="373.6" y="463.1" fill="grey" class="flag">[?]</text><text x="395.6" y="463.1" fill="#999" class="taxonLabel">Antigonambonites planus</text><text x="330.2" y="437.9" fill="grey" class="flag">[?]</text><text x="352.2" y="437.9" fill="#999" class="taxonLabel">Salanygolina</text><text x="417" y="412.7" fill="lightgrey" class="flag">[-]</text><text x="439" y="412.7" fill="#ccc" class="taxonLabel">Pelagodiscus atlanticus</text><text x="417" y="425.3" fill="grey" class="flag">[?]</text><text x="439" y="425.3" fill="#999" class="taxonLabel">Mummpikia nuda</text><text x="482" y="387.5" fill="grey" class="flag">[?]</text><text x="504" y="387.5" fill="#999" class="taxonLabel">Acanthotretella spinosa</text><text x="482" y="400.1" fill="grey" class="flag">[?]</text><text x="504" y="400.1" fill="#999" class="taxonLabel">Siphonobolus priscus</text><text x="460.3" y="375" fill="grey" class="flag">[?]</text><text x="482.3" y="375" fill="#999" class="taxonLabel">Lingulosacculus</text><text x="438.6" y="362.4" fill="grey" class="flag">[?]</text><text x="460.6" y="362.4" fill="#999" class="taxonLabel">Clupeafumosus socialis</text><text x="417" y="349.8" fill="grey" class="flag">[?]</text><text x="439" y="349.8" fill="#999" class="taxonLabel">Lingulellotreta malongensis</text><text x="373.6" y="337.2" fill="grey" class="flag">[?]</text><text x="395.6" y="337.2" fill="#999" class="taxonLabel">Botsfordia</text><text x="351.9" y="324.6" fill="grey" class="flag">[?]</text><text x="373.9" y="324.6" fill="#999" class="taxonLabel">Eoobolus</text><text x="330.2" y="312" fill="lightgrey" class="flag">[-]</text><text x="352.2" y="312" fill="#ccc" class="taxonLabel">Lingula</text><text x="373.6" y="286.9" fill="grey" class="flag">[?]</text><text x="395.6" y="286.9" fill="#999" class="taxonLabel">Craniops</text><text x="373.6" y="299.5" fill="lightgrey" class="flag">[-]</text><text x="395.6" y="299.5" fill="#ccc" class="taxonLabel">Novocrania</text><text x="351.9" y="274.3" fill="grey" class="flag">[?]</text><text x="373.9" y="274.3" fill="#999" class="taxonLabel">Ussunia</text><text x="330.2" y="261.7" fill="grey" class="flag">[?]</text><text x="352.2" y="261.7" fill="#999" class="taxonLabel">Gasconsia</text><text x="308.5" y="236.5" fill="grey" class="flag">[?]</text><text x="330.5" y="236.5" fill="#999" class="taxonLabel">Heliomedusa orienta</text><text x="308.5" y="249.1" fill="grey" class="flag">[?]</text><text x="330.5" y="249.1" fill="#999" class="taxonLabel">Mickwitzia muralensis</text><text x="286.9" y="223.9" fill="grey" class="flag">[?]</text><text x="308.9" y="223.9" fill="#999" class="taxonLabel">Micrina</text><text x="243.5" y="211.4" fill="grey" class="flag">[?]</text><text x="265.5" y="211.4" fill="#999" class="taxonLabel">Yuganotheca elegans</text><text x="308.5" y="186.2" fill="grey" class="flag">[?]</text><text x="330.5" y="186.2" fill="#999" class="taxonLabel">Maxilites</text><text x="308.5" y="198.8" fill="grey" class="flag">[?]</text><text x="330.5" y="198.8" fill="#999" class="taxonLabel">Pauxillites</text><text x="286.9" y="173.6" fill="grey" class="flag">[?]</text><text x="308.9" y="173.6" fill="#999" class="taxonLabel">Haplophrentis carinatus</text><text x="330.2" y="148.4" fill="grey" class="flag">[?]</text><text x="352.2" y="148.4" fill="#999" class="taxonLabel">Conotheca</text><text x="330.2" y="161" fill="grey" class="flag">[?]</text><text x="352.2" y="161" fill="#999" class="taxonLabel">Bactrotheca</text><text x="308.5" y="135.8" fill="grey" class="flag">[?]</text><text x="330.5" y="135.8" fill="#999" class="taxonLabel">Cupitheca holocyclata</text><text x="286.9" y="123.3" fill="grey" class="flag">[?]</text><text x="308.9" y="123.3" fill="#999" class="taxonLabel">Paramicrocornus</text><text x="243.5" y="110.7" fill="grey" class="flag">[?]</text><text x="265.5" y="110.7" fill="#999" class="taxonLabel">Pedunculotheca diania</text><text x="200.1" y="98.1" fill="grey" class="flag">[?]</text><text x="222.1" y="98.1" fill="#999" class="taxonLabel">Paterimitra</text><text x="178.5" y="85.5" fill="grey" class="flag">[?]</text><text x="200.5" y="85.5" fill="#999" class="taxonLabel">Halkieria evangelista</text><text x="156.8" y="72.9" fill="grey" class="flag">[?]</text><text x="178.8" y="72.9" fill="#999" class="taxonLabel">Dailyatia</text><text x="135.1" y="60.3" fill="grey" class="flag">[?]</text><text x="157.1" y="60.3" fill="#999" class="taxonLabel">Eccentrotheca</text><text x="113.4" y="47.8" fill="grey" class="flag">[?]</text><text x="135.4" y="47.8" fill="#999" class="taxonLabel">Cotyledion tylodes</text><text x="113.4" y="22.6" fill="grey" class="flag">[?]</text><text x="135.4" y="22.6" fill="#999" class="taxonLabel">Namacalathus</text><text x="113.4" y="35.2" fill="#91bfdb" class="flag">[2]</text><text x="135.4" y="35.2" fill="#000" class="taxonLabel">Phoronis</text><text x="48.4" y="10" fill="#91bfdb" class="flag">[2]</text><text x="70.4" y="10" fill="#000" class="taxonLabel">Loxosomella</text><path d="M5,407.9V165.4H26.7M26.7,165.4V7H48.4M26.7,165.4V323.8H48.4M48.4,323.8V42.8H70M70,42.8V25.9H91.7M91.7,25.9V19.6H113.4M91.7,25.9V32.2H113.4M70,42.8V59.8H91.7M91.7,59.8V44.8H113.4M91.7,59.8V74.8H113.4M113.4,74.8V57.3H135.1M113.4,74.8V92.2H135.1M135.1,92.2V69.9H156.8M135.1,92.2V114.4H156.8M156.8,114.4V82.5H178.5M156.8,114.4V146.4H178.5M178.5,146.4V95.1H200.1M178.5,146.4V197.7H200.1M200.1,197.7V131.7H221.8M221.8,131.7V107.7H243.5M221.8,131.7V155.7H243.5M243.5,155.7V131.3H265.2M265.2,131.3V120.3H286.9M265.2,131.3V142.3H286.9M286.9,142.3V132.8H308.5M286.9,142.3V151.7H308.5M308.5,151.7V145.4H330.2M308.5,151.7V158H330.2M243.5,155.7V180H265.2M265.2,180V170.6H286.9M265.2,180V189.5H286.9M286.9,189.5V183.2H308.5M286.9,189.5V195.8H308.5M200.1,197.7V263.7H221.8M221.8,263.7V208.4H243.5M221.8,263.7V319H243.5M243.5,319V230.4H265.2M265.2,230.4V220.9H286.9M265.2,230.4V239.8H286.9M286.9,239.8V233.5H308.5M286.9,239.8V246.1H308.5M48.4,323.8V604.8H70M70,604.8V611.1H91.7M5,407.9V650.4H26.7M26.7,650.4V633.1H48.4M48.4,633.1V623.7H70M48.4,633.1V642.5H70M70,642.5V648.8H91.7M26.7,650.4V667.7H48.4M48.4,667.7V661.4H70M48.4,667.7V674H70" stroke="#91bfdb"></path><path d="M243.5,319V407.7H265.2M265.2,407.7V297.4H286.9M286.9,297.4V269.7H308.5M308.5,269.7V258.7H330.2M308.5,269.7V280.7H330.2M330.2,280.7V271.3H351.9M330.2,280.7V290.2H351.9M351.9,290.2V283.9H373.6M351.9,290.2V296.5H373.6M286.9,297.4V325.1H308.5M308.5,325.1V309H330.2M308.5,325.1V341.2H330.2M330.2,341.2V321.6H351.9M330.2,341.2V360.8H351.9M351.9,360.8V334.2H373.6M351.9,360.8V387.3H373.6M373.6,387.3V358.6H395.3M395.3,358.6V346.8H417M395.3,358.6V370.4H417M417,370.4V359.4H438.6M417,370.4V381.4H438.6M438.6,381.4V372H460.3M438.6,381.4V390.8H460.3M460.3,390.8V384.5H482M460.3,390.8V397.1H482M373.6,387.3V416H395.3M395.3,416V409.7H417M395.3,416V422.3H417M265.2,407.7V518H286.9M286.9,518V456.4H308.5M308.5,456.4V434.9H330.2M308.5,456.4V478H330.2M330.2,478V453.8H351.9M351.9,453.8V447.5H373.6M351.9,453.8V460.1H373.6M330.2,478V502.1H351.9M351.9,502.1V482.1H373.6M373.6,482.1V472.6H395.3M373.6,482.1V491.5H395.3M395.3,491.5V485.2H417M395.3,491.5V497.8H417M351.9,502.1V522.2H373.6M373.6,522.2V510.4H395.3M373.6,522.2V534H395.3M395.3,534V523H417M395.3,534V545H417M417,545V535.6H438.6M417,545V554.4H438.6M438.6,554.4V548.2H460.3M438.6,554.4V560.7H460.3M286.9,518V579.6H308.5M308.5,579.6V573.3H330.2M308.5,579.6V585.9H330.2" stroke="lightgrey" class="inapplicable"></path><path d="M70,604.8V598.5H91.7M70,642.5V636.2H91.7" stroke="#e2e2a2"></path><text x="28.7" y="168.4" class="node" fill="#4A6FE3">1</text><text x="50.4" y="326.8" class="node" fill="#4A6FE3">1</text><text x="72" y="45.8" class="node" fill="red">NA</text><text x="93.7" y="28.9" class="node" fill="red">NA</text><text x="93.7" y="62.8" class="node" fill="red">NA</text><text x="115.4" y="77.8" class="node" fill="red">NA</text><text x="137.1" y="95.2" class="node" fill="red">NA</text><text x="158.8" y="117.4" class="node" fill="red">NA</text><text x="180.5" y="149.4" class="node" fill="red">NA</text><text x="202.1" y="200.7" class="node" fill="red">NA</text><text x="223.8" y="134.7" class="node" fill="red">NA</text><text x="245.5" y="158.7" class="node" fill="red">NA</text><text x="267.2" y="134.3" class="node" fill="red">NA</text><text x="288.9" y="145.3" class="node" fill="red">NA</text><text x="310.5" y="154.7" class="node" fill="red">NA</text><text x="267.2" y="183" class="node" fill="#5F7BE1">0.95</text><text x="288.9" y="192.5" class="node" fill="#4A6FE3">1</text><text x="223.8" y="266.7" class="node" fill="red">NA</text><text x="245.5" y="322" class="node" fill="red">NA</text><text x="267.2" y="233.4" class="node" fill="red">NA</text><text x="288.9" y="242.8" class="node" fill="red">NA</text><text x="267.2" y="410.7" class="node" fill="#5F7BE1">0.95</text><text x="288.9" y="300.4" class="node" fill="#5F7BE1">0.95</text><text x="310.5" y="272.7" class="node" fill="red">NA</text><text x="332.2" y="283.7" class="node" fill="red">NA</text><text x="353.9" y="293.2" class="node" fill="red">NA</text><text x="310.5" y="328.1" class="node" fill="red">NA</text><text x="332.2" y="344.2" class="node" fill="red">NA</text><text x="353.9" y="363.8" class="node" fill="red">NA</text><text x="375.6" y="390.3" class="node" fill="red">NA</text><text x="397.3" y="361.6" class="node" fill="red">NA</text><text x="419" y="373.4" class="node" fill="red">NA</text><text x="440.6" y="384.4" class="node" fill="red">NA</text><text x="462.3" y="393.8" class="node" fill="red">NA</text><text x="397.3" y="419" class="node" fill="red">NA</text><text x="288.9" y="521" class="node" fill="red">NA</text><text x="310.5" y="459.4" class="node" fill="red">NA</text><text x="332.2" y="481" class="node" fill="red">NA</text><text x="353.9" y="456.8" class="node" fill="red">NA</text><text x="353.9" y="505.1" class="node" fill="red">NA</text><text x="375.6" y="485.1" class="node" fill="#4A6FE3">1</text><text x="397.3" y="494.5" class="node" fill="red">NA</text><text x="375.6" y="525.2" class="node" fill="red">NA</text><text x="397.3" y="537" class="node" fill="red">NA</text><text x="419" y="548" class="node" fill="red">NA</text><text x="440.6" y="557.4" class="node" fill="red">NA</text><text x="310.5" y="582.6" class="node" fill="red">NA</text><text x="72" y="607.8" class="node" fill="red">NA</text><text x="28.7" y="653.4" class="node" fill="red">NA</text><text x="50.4" y="636.1" class="node" fill="#4A6FE3">1</text><text x="72" y="645.5" class="node" fill="red">NA</text><text x="50.4" y="670.7" class="node" fill="red">NA</text></svg>
