<svg xmlns="http://www.w3.org/2000/svg" version="1.1" width="682" height="612" class="tree" data-char="178"><text x="678" y="16" text-anchor="end" class="stepsLabel">Character adds <tspan class="score">2</tspan> to tree score</text><text x="678" y="29" text-anchor="end" class="stepsLabel"><tspan class="score">0</tspan> additional regions</text><text x="678" y="42" text-anchor="end" class="stepsLabel">CI = 0.5; Fitch CI = 0.5; Fitch RI = 0.5</text><text x="678" y="68" text-anchor="end" class="stepsLabel"><tspan dy="16">An optimal tree under:</tspan><tspan x="680" style="font-style:italic" class="thisAn" dy="1.2em">Equal weights</tspan><tspan x="680" style="font-style:italic" class="notThisAn" dy="1.2em">Implied weights, k = 2</tspan><tspan x="680" style="font-style:italic" class="notThisAn" dy="1.2em">IW, k = 3</tspan><tspan x="680" style="font-style:italic" class="notThisAn" dy="1.2em">IW, k = 4.5</tspan><tspan x="680" style="font-style:italic" class="notThisAn" dy="1.2em">IW, k = 7</tspan><tspan x="680" style="font-style:italic" class="notThisAn" dy="1.2em">IW, k = 10.5</tspan></text><text x="89.2" y="593.7" fill="#e2e2a2" class="flag">[1]</text><text x="111.2" y="593.7" fill="#111" class="taxonLabel">Sipunculus</text><text x="89.2" y="607" fill="#e2e2a2" class="flag">[1]</text><text x="111.2" y="607" fill="#111" class="taxonLabel">Serpula</text><text x="117.2" y="567.2" fill="grey" class="flag">[?]</text><text x="139.2" y="567.2" fill="grey" class="taxonLabel">Wiwaxia corrugata</text><text x="117.2" y="580.5" fill="#e2e2a2" class="flag">[1]</text><text x="139.2" y="580.5" fill="#111" class="taxonLabel">Dentalium</text><text x="89.2" y="553.9" fill="#e2e2a2" class="flag">[1]</text><text x="111.2" y="553.9" fill="#111" class="taxonLabel">Tonicella</text><text x="482" y="514.1" fill="grey" class="flag">[?]</text><text x="504" y="514.1" fill="grey" class="taxonLabel">Orthis</text><text x="482" y="527.4" fill="grey" class="flag">[?]</text><text x="504" y="527.4" fill="grey" class="taxonLabel">Terebratulina</text><text x="453.9" y="500.9" fill="grey" class="flag">[?]</text><text x="475.9" y="500.9" fill="grey" class="taxonLabel">Alisina</text><text x="425.9" y="487.6" fill="grey" class="flag">[?]</text><text x="447.9" y="487.6" fill="grey" class="taxonLabel">Glyptoria</text><text x="397.8" y="474.3" fill="grey" class="flag">[?]</text><text x="419.8" y="474.3" fill="grey" class="taxonLabel">Nisusia sulcata</text><text x="369.8" y="461.1" fill="grey" class="flag">[?]</text><text x="391.8" y="461.1" fill="grey" class="taxonLabel">Kutorgina chengjiangensis</text><text x="369.8" y="434.5" fill="grey" class="flag">[?]</text><text x="391.8" y="434.5" fill="grey" class="taxonLabel">Coolinia pecten</text><text x="369.8" y="447.8" fill="grey" class="flag">[?]</text><text x="391.8" y="447.8" fill="grey" class="taxonLabel">Antigonambonites planus</text><text x="313.6" y="421.3" fill="grey" class="flag">[?]</text><text x="335.6" y="421.3" fill="grey" class="taxonLabel">Longtancunella chengjiangensis</text><text x="313.6" y="394.7" fill="grey" class="flag">[?]</text><text x="335.6" y="394.7" fill="grey" class="taxonLabel">Tomteluva perturbata</text><text x="313.6" y="408" fill="grey" class="flag">[?]</text><text x="335.6" y="408" fill="grey" class="taxonLabel">Yuganotheca elegans</text><text x="257.5" y="381.5" fill="grey" class="flag">[?]</text><text x="279.5" y="381.5" fill="grey" class="taxonLabel">Salanygolina</text><text x="257.5" y="354.9" fill="grey" class="flag">[?]</text><text x="279.5" y="354.9" fill="grey" class="taxonLabel">Micromitra</text><text x="257.5" y="368.2" fill="grey" class="flag">[?]</text><text x="279.5" y="368.2" fill="grey" class="taxonLabel">Askepasma toddense</text><text x="285.6" y="328.4" fill="grey" class="flag">[?]</text><text x="307.6" y="328.4" fill="grey" class="taxonLabel">Craniops</text><text x="285.6" y="341.7" fill="#91bfdb" class="flag">[2]</text><text x="307.6" y="341.7" fill="#111" class="taxonLabel">Novocrania</text><text x="257.5" y="315.1" fill="grey" class="flag">[?]</text><text x="279.5" y="315.1" fill="grey" class="taxonLabel">Ussunia</text><text x="229.5" y="301.9" fill="grey" class="flag">[?]</text><text x="251.5" y="301.9" fill="grey" class="taxonLabel">Gasconsia</text><text x="397.8" y="275.3" fill="grey" class="flag">[?]</text><text x="419.8" y="275.3" fill="grey" class="taxonLabel">Siphonobolus priscus</text><text x="397.8" y="288.6" fill="grey" class="flag">[?]</text><text x="419.8" y="288.6" fill="grey" class="taxonLabel">Acanthotretella spinosa</text><text x="397.8" y="248.8" fill="grey" class="flag">[?]</text><text x="419.8" y="248.8" fill="grey" class="taxonLabel">Clupeafumosus socialis</text><text x="397.8" y="262.1" fill="grey" class="flag">[?]</text><text x="419.8" y="262.1" fill="grey" class="taxonLabel">Lingulosacculus</text><text x="341.7" y="235.5" fill="grey" class="flag">[?]</text><text x="363.7" y="235.5" fill="grey" class="taxonLabel">Lingulellotreta malongensis</text><text x="313.6" y="222.3" fill="grey" class="flag">[?]</text><text x="335.6" y="222.3" fill="grey" class="taxonLabel">Botsfordia</text><text x="285.6" y="209" fill="grey" class="flag">[?]</text><text x="307.6" y="209" fill="grey" class="taxonLabel">Mummpikia nuda</text><text x="257.5" y="195.7" fill="grey" class="flag">[?]</text><text x="279.5" y="195.7" fill="grey" class="taxonLabel">Eoobolus</text><text x="229.5" y="182.5" fill="#91bfdb" class="flag">[2]</text><text x="251.5" y="182.5" fill="#111" class="taxonLabel">Lingula</text><text x="257.5" y="155.9" fill="grey" class="flag">[?]</text><text x="279.5" y="155.9" fill="grey" class="taxonLabel">Pelagodiscus atlanticus</text><text x="257.5" y="169.2" fill="grey" class="flag">[?]</text><text x="279.5" y="169.2" fill="grey" class="taxonLabel">Mickwitzia muralensis</text><text x="229.5" y="142.7" fill="grey" class="flag">[?]</text><text x="251.5" y="142.7" fill="grey" class="taxonLabel">Micrina</text><text x="201.4" y="116.1" fill="grey" class="flag">[?]</text><text x="223.4" y="116.1" fill="grey" class="taxonLabel">Haplophrentis carinatus</text><text x="201.4" y="129.4" fill="grey" class="flag">[?]</text><text x="223.4" y="129.4" fill="grey" class="taxonLabel">Pedunculotheca diania</text><text x="173.4" y="102.9" fill="grey" class="flag">[?]</text><text x="195.4" y="102.9" fill="grey" class="taxonLabel">Paterimitra</text><text x="117.2" y="89.6" fill="grey" class="flag">[?]</text><text x="139.2" y="89.6" fill="grey" class="taxonLabel">Heliomedusa orienta</text><text x="173.4" y="63.1" fill="grey" class="flag">[?]</text><text x="195.4" y="63.1" fill="grey" class="taxonLabel">Dailyatia</text><text x="173.4" y="76.3" fill="grey" class="flag">[?]</text><text x="195.4" y="76.3" fill="grey" class="taxonLabel">Eccentrotheca</text><text x="145.3" y="49.8" fill="grey" class="flag">[?]</text><text x="167.3" y="49.8" fill="grey" class="taxonLabel">Cotyledion tylodes</text><text x="173.4" y="10" fill="#e2e2a2" class="flag">[1]</text><text x="195.4" y="10" fill="#111" class="taxonLabel">Flustra</text><text x="173.4" y="23.3" fill="#91bfdb" class="flag">[2]</text><text x="195.4" y="23.3" fill="#111" class="taxonLabel">Loxosomella</text><text x="145.3" y="36.5" fill="#e2e2a2" class="flag">[1]</text><text x="167.3" y="36.5" fill="#111" class="taxonLabel">Phoronis</text><text x="61.1" y="540.7" fill="grey" class="flag">[?]</text><text x="83.1" y="540.7" fill="grey" class="taxonLabel">Halkieria evangelista</text><path d="M5,445.9V312.7H33.1M33.1,312.7V87.7H61.1M61.1,87.7V40.2H89.2M89.2,40.2V23.6H117.2M117.2,23.6V13.6H145.3M145.3,13.6V7H173.4M117.2,23.6V33.5H145.3M89.2,40.2V56.8H117.2M117.2,56.8V46.8H145.3M117.2,56.8V66.7H145.3M145.3,66.7V60.1H173.4M145.3,66.7V73.3H173.4M61.1,87.7V135.2H89.2M33.1,312.7V537.7H61.1M5,445.9V579.1H33.1M33.1,579.1V560.9H61.1M61.1,560.9V550.9H89.2M61.1,560.9V570.8H89.2M89.2,570.8V564.2H117.2M89.2,570.8V577.5H117.2M33.1,579.1V597.4H61.1M61.1,597.4V590.7H89.2M61.1,597.4V604H89.2" stroke="#e2e2a2"></path><path d="M145.3,13.6V20.3H173.4M117.2,183.8V257.8H145.3M145.3,257.8V171.3H173.4M173.4,171.3V149.6H201.4M201.4,149.6V139.7H229.5M201.4,149.6V159.6H229.5M229.5,159.6V152.9H257.5M229.5,159.6V166.2H257.5M173.4,171.3V192.9H201.4M201.4,192.9V179.5H229.5M201.4,192.9V206.4H229.5M229.5,206.4V192.7H257.5M229.5,206.4V220.1H257.5M257.5,220.1V206H285.6M257.5,220.1V234.2H285.6M285.6,234.2V219.3H313.6M285.6,234.2V249.1H313.6M313.6,249.1V232.5H341.7M313.6,249.1V265.7H341.7M341.7,265.7V252.4H369.8M369.8,252.4V245.8H397.8M369.8,252.4V259.1H397.8M341.7,265.7V279H369.8M369.8,279V272.3H397.8M369.8,279V285.6H397.8M145.3,257.8V344.4H173.4M173.4,344.4V310.5H201.4M201.4,310.5V298.9H229.5M201.4,310.5V322.1H229.5M229.5,322.1V312.1H257.5M229.5,322.1V332H257.5M257.5,332V325.4H285.6M257.5,332V338.7H285.6M173.4,344.4V378.2H201.4M201.4,378.2V358.6H229.5M229.5,358.6V351.9H257.5M229.5,358.6V365.2H257.5M201.4,378.2V397.9H229.5M229.5,397.9V378.5H257.5M229.5,397.9V417.4H257.5M257.5,417.4V398.4H285.6M285.6,398.4V391.7H313.6M285.6,398.4V405H313.6M257.5,417.4V436.4H285.6M285.6,436.4V418.3H313.6M285.6,436.4V454.5H313.6M313.6,454.5V438.2H341.7M341.7,438.2V431.5H369.8M341.7,438.2V444.8H369.8M313.6,454.5V470.9H341.7M341.7,470.9V458.1H369.8M341.7,470.9V483.8H369.8M369.8,483.8V471.3H397.8M369.8,483.8V496.2H397.8M397.8,496.2V484.6H425.9M397.8,496.2V507.8H425.9M425.9,507.8V497.9H453.9M425.9,507.8V517.8H453.9M453.9,517.8V511.1H482M453.9,517.8V524.4H482" stroke="#91bfdb"></path><path d="M89.2,135.2V86.6H117.2M89.2,135.2V183.8H117.2M117.2,183.8V109.8H145.3M145.3,109.8V99.9H173.4M145.3,109.8V119.8H173.4M173.4,119.8V113.1H201.4M173.4,119.8V126.4H201.4" stroke="darkgrey"></path><text x="7" y="448.9" class="node" fill="#4A6FE3">1</text><text x="35.1" y="315.7" class="node" fill="#4A6FE3">1</text><text x="63.1" y="90.7" class="node" fill="#8091E1">0.85</text><text x="91.2" y="43.2" class="node" fill="#8091E1">0.85</text><text x="119.2" y="26.6" class="node" fill="#4A6FE3">1</text><text x="147.3" y="16.6" class="node" fill="#4A6FE3">1</text><text x="119.2" y="59.8" class="node" fill="#8091E1">0.85</text><text x="147.3" y="69.7" class="node" fill="#8091E1">0.85</text><text x="91.2" y="138.2" class="node" fill="#8091E1">0.85</text><text x="119.2" y="186.8" class="node" fill="#8091E1">0.85</text><text x="147.3" y="112.8" class="node" fill="#B4BBE3">0.67</text><text x="175.4" y="122.8" class="node" fill="#4A6FE3">1</text><text x="147.3" y="260.8" class="node" fill="#4A6FE3">1</text><text x="175.4" y="174.3" class="node" fill="#B4BBE3">0.67</text><text x="203.4" y="152.6" class="node" fill="#B4BBE3">0.67</text><text x="231.5" y="162.6" class="node" fill="#ABB4E2">0.7</text><text x="203.4" y="195.9" class="node" fill="#ABB4E2">0.7</text><text x="231.5" y="209.4" class="node" fill="#ABB4E2">0.7</text><text x="259.5" y="223.1" class="node" fill="#B4BBE3">0.67</text><text x="287.6" y="237.2" class="node" fill="#B4BBE3">0.67</text><text x="315.6" y="252.1" class="node" fill="#B4BBE3">0.67</text><text x="343.7" y="268.7" class="node" fill="#E5CACE">0.42</text><text x="371.8" y="255.4" class="node" fill="#E07C92">0.17</text><text x="371.8" y="282" class="node" fill="#4A6FE3">1</text><text x="175.4" y="347.4" class="node" fill="#4A6FE3">1</text><text x="203.4" y="313.5" class="node" fill="#4A6FE3">1</text><text x="231.5" y="325.1" class="node" fill="#4A6FE3">1</text><text x="259.5" y="335" class="node" fill="#4A6FE3">1</text><text x="203.4" y="381.2" class="node" fill="#A0ABE2">0.74</text><text x="231.5" y="361.6" class="node" fill="#4A6FE3">1</text><text x="231.5" y="400.9" class="node" fill="#8C9BE1">0.81</text><text x="259.5" y="420.4" class="node" fill="#E6BAC2">0.37</text><text x="287.6" y="401.4" class="node" fill="#627DE1">0.94</text><text x="287.6" y="439.4" class="node" fill="#4A6FE3">1</text><text x="315.6" y="457.5" class="node" fill="#E4D9DB">0.47</text><text x="343.7" y="441.2" class="node" fill="#4A6FE3">1</text><text x="343.7" y="473.9" class="node" fill="#E4D9DB">0.47</text><text x="371.8" y="486.8" class="node" fill="#E4D9DB">0.47</text><text x="399.8" y="499.2" class="node" fill="#E4D9DB">0.47</text><text x="427.9" y="510.8" class="node" fill="#4A6FE3">1</text><text x="455.9" y="520.8" class="node" fill="#97A4E2">0.77</text><text x="35.1" y="582.1" class="node" fill="#4A6FE3">1</text><text x="63.1" y="563.9" class="node" fill="#E4D9DB">0.47</text><text x="91.2" y="573.8" class="node" fill="#E4D9DB">0.47</text><text x="63.1" y="600.4" class="node" fill="#A6AFE2">0.72</text></svg>
