<svg xmlns="http://www.w3.org/2000/svg" version="1.1" width="682" height="612" class="tree" data-char="161"><text x="678" y="15.7" text-anchor="end" class="stepsLabel">Character adds <tspan class="score">2</tspan> to tree score</text><text x="678" y="28.4" text-anchor="end" class="stepsLabel"><tspan class="score">0</tspan> additional regions</text><text x="678" y="41.1" text-anchor="end" class="stepsLabel">CI = 0.5; Fitch CI = 0.5; Fitch RI = 0.5</text><text x="678" y="66.5" text-anchor="end" class="stepsLabel"><tspan dy="16">An optimal tree under:</tspan><tspan x="680" style="font-style:italic" class="notThisAn" dy="1.2em">Equal weights</tspan><tspan x="680" style="font-style:italic" class="notThisAn" dy="1.2em">Implied weights, k = 2</tspan><tspan x="680" style="font-style:italic" class="thisAn" dy="1.2em">IW, k = 3</tspan><tspan x="680" style="font-style:italic" class="notThisAn" dy="1.2em">IW, k = 4.5</tspan><tspan x="680" style="font-style:italic" class="notThisAn" dy="1.2em">IW, k = 7</tspan><tspan x="680" style="font-style:italic" class="notThisAn" dy="1.2em">IW, k = 10.5</tspan><tspan x="680" style="font-style:italic" class="notThisAn" dy="1.2em">IW, k = 16</tspan><tspan x="680" style="font-style:italic" class="notThisAn" dy="1.2em">IW, k = 24</tspan></text><text x="88" y="594" fill="grey" class="flag">[?]</text><text x="110" y="594" fill="#999" class="taxonLabel">Wiwaxia corrugata</text><text x="88" y="607" fill="#91bfdb" class="flag">[1]</text><text x="110" y="607" fill="#000" class="taxonLabel">Tonicella</text><text x="67.2" y="581" fill="#fc8d59" class="flag">[0]</text><text x="89.2" y="581" fill="#000" class="taxonLabel">Dentalium</text><text x="67.2" y="555.1" fill="#91bfdb" class="flag">[1]</text><text x="89.2" y="555.1" fill="#000" class="taxonLabel">Serpula</text><text x="67.2" y="568.1" fill="#91bfdb" class="flag">[1]</text><text x="89.2" y="568.1" fill="#000" class="taxonLabel">Sipunculus</text><text x="233.1" y="516.2" fill="grey" class="flag">[?]</text><text x="255.1" y="516.2" fill="#999" class="taxonLabel">Pedunculotheca diania</text><text x="233.1" y="529.1" fill="grey" class="flag">[?]</text><text x="255.1" y="529.1" fill="#999" class="taxonLabel">Haplophrentis carinatus</text><text x="357.6" y="490.2" fill="#fc8d59" class="flag">[0]</text><text x="379.6" y="490.2" fill="#000" class="taxonLabel">Novocrania</text><text x="357.6" y="503.2" fill="grey" class="flag">[?]</text><text x="379.6" y="503.2" fill="#999" class="taxonLabel">Craniops</text><text x="336.8" y="477.2" fill="grey" class="flag">[?]</text><text x="358.8" y="477.2" fill="#999" class="taxonLabel">Ussunia</text><text x="316.1" y="464.2" fill="grey" class="flag">[?]</text><text x="338.1" y="464.2" fill="#999" class="taxonLabel">Gasconsia</text><text x="482" y="438.3" fill="grey" class="flag">[?]</text><text x="504" y="438.3" fill="#999" class="taxonLabel">Orthis</text><text x="482" y="451.3" fill="grey" class="flag">[?]</text><text x="504" y="451.3" fill="#999" class="taxonLabel">Terebratulina</text><text x="461.3" y="425.3" fill="grey" class="flag">[?]</text><text x="483.3" y="425.3" fill="#999" class="taxonLabel">Alisina</text><text x="440.5" y="412.3" fill="grey" class="flag">[?]</text><text x="462.5" y="412.3" fill="#999" class="taxonLabel">Longtancunella chengjiangensis</text><text x="419.8" y="399.3" fill="grey" class="flag">[?]</text><text x="441.8" y="399.3" fill="#999" class="taxonLabel">Glyptoria</text><text x="399" y="386.4" fill="grey" class="flag">[?]</text><text x="421" y="386.4" fill="#999" class="taxonLabel">Nisusia sulcata</text><text x="378.3" y="373.4" fill="grey" class="flag">[?]</text><text x="400.3" y="373.4" fill="#999" class="taxonLabel">Kutorgina chengjiangensis</text><text x="378.3" y="347.4" fill="grey" class="flag">[?]</text><text x="400.3" y="347.4" fill="#999" class="taxonLabel">Antigonambonites planus</text><text x="378.3" y="360.4" fill="grey" class="flag">[?]</text><text x="400.3" y="360.4" fill="#999" class="taxonLabel">Coolinia pecten</text><text x="378.3" y="321.5" fill="grey" class="flag">[?]</text><text x="400.3" y="321.5" fill="#999" class="taxonLabel">Tomteluva perturbata</text><text x="378.3" y="334.5" fill="grey" class="flag">[?]</text><text x="400.3" y="334.5" fill="#999" class="taxonLabel">Yuganotheca elegans</text><text x="357.6" y="308.5" fill="grey" class="flag">[?]</text><text x="379.6" y="308.5" fill="#999" class="taxonLabel">Salanygolina</text><text x="336.8" y="282.5" fill="grey" class="flag">[?]</text><text x="358.8" y="282.5" fill="#999" class="taxonLabel">Askepasma toddense</text><text x="336.8" y="295.5" fill="grey" class="flag">[?]</text><text x="358.8" y="295.5" fill="#999" class="taxonLabel">Micromitra</text><text x="357.6" y="256.6" fill="grey" class="flag">[?]</text><text x="379.6" y="256.6" fill="#999" class="taxonLabel">Mummpikia nuda</text><text x="357.6" y="269.6" fill="grey" class="flag">[?]</text><text x="379.6" y="269.6" fill="#999" class="taxonLabel">Botsfordia</text><text x="336.8" y="243.6" fill="grey" class="flag">[?]</text><text x="358.8" y="243.6" fill="#999" class="taxonLabel">Eoobolus</text><text x="357.6" y="217.7" fill="#fc8d59" class="flag">[0]</text><text x="379.6" y="217.7" fill="#000" class="taxonLabel">Lingula</text><text x="357.6" y="230.6" fill="grey" class="flag">[?]</text><text x="379.6" y="230.6" fill="#999" class="taxonLabel">Lingulellotreta malongensis</text><text x="399" y="191.7" fill="grey" class="flag">[?]</text><text x="421" y="191.7" fill="#999" class="taxonLabel">Acanthotretella spinosa</text><text x="399" y="204.7" fill="grey" class="flag">[?]</text><text x="421" y="204.7" fill="#999" class="taxonLabel">Siphonobolus priscus</text><text x="378.3" y="178.7" fill="grey" class="flag">[?]</text><text x="400.3" y="178.7" fill="#999" class="taxonLabel">Clupeafumosus socialis</text><text x="357.6" y="165.7" fill="grey" class="flag">[?]</text><text x="379.6" y="165.7" fill="#999" class="taxonLabel">Lingulosacculus</text><text x="316.1" y="139.8" fill="grey" class="flag">[?]</text><text x="338.1" y="139.8" fill="#999" class="taxonLabel">Pelagodiscus atlanticus</text><text x="316.1" y="152.8" fill="grey" class="flag">[?]</text><text x="338.1" y="152.8" fill="#999" class="taxonLabel">Mickwitzia muralensis</text><text x="253.9" y="126.8" fill="grey" class="flag">[?]</text><text x="275.9" y="126.8" fill="#999" class="taxonLabel">Micrina</text><text x="233.1" y="113.8" fill="grey" class="flag">[?]</text><text x="255.1" y="113.8" fill="#999" class="taxonLabel">Paterimitra</text><text x="191.7" y="100.8" fill="grey" class="flag">[?]</text><text x="213.7" y="100.8" fill="#999" class="taxonLabel">Heliomedusa orienta</text><text x="191.7" y="74.9" fill="grey" class="flag">[?]</text><text x="213.7" y="74.9" fill="#999" class="taxonLabel">Halkieria evangelista</text><text x="191.7" y="87.9" fill="grey" class="flag">[?]</text><text x="213.7" y="87.9" fill="#999" class="taxonLabel">Dailyatia</text><text x="150.2" y="61.9" fill="grey" class="flag">[?]</text><text x="172.2" y="61.9" fill="#999" class="taxonLabel">Cotyledion tylodes</text><text x="129.4" y="48.9" fill="grey" class="flag">[?]</text><text x="151.4" y="48.9" fill="#999" class="taxonLabel">Eccentrotheca</text><text x="108.7" y="36" fill="grey" class="flag">[?]</text><text x="130.7" y="36" fill="#999" class="taxonLabel">Namacalathus</text><text x="88" y="23" fill="grey" class="flag">[?]</text><text x="110" y="23" fill="#999" class="taxonLabel">Phoronis</text><text x="67.2" y="10" fill="grey" class="flag">[?]</text><text x="89.2" y="10" fill="#999" class="taxonLabel">Flustra</text><text x="46.5" y="542.1" fill="#91bfdb" class="flag">[1]</text><text x="68.5" y="542.1" fill="#000" class="taxonLabel">Loxosomella</text><path d="M5,426.9V280.5H25.7M25.7,280.5V22H46.5M25.7,280.5V539.1H46.5M5,426.9V573.2H25.7M25.7,573.2V558.6H46.5M46.5,558.6V552.1H67.2M46.5,558.6V565.1H67.2M25.7,573.2V587.8H46.5M46.5,587.8V597.5H67.2M67.2,597.5V591H88M67.2,597.5V604H88" stroke="#91bfdb"></path><path d="M46.5,22V7H67.2M46.5,22V36.9H67.2M67.2,36.9V20H88M67.2,36.9V53.9H88M88,53.9V33H108.7M88,53.9V74.8H108.7M108.7,74.8V45.9H129.4M108.7,74.8V103.7H129.4M129.4,103.7V58.9H150.2M129.4,103.7V148.4H150.2M150.2,148.4V78.4H170.9M170.9,78.4V71.9H191.7M170.9,78.4V84.9H191.7M150.2,148.4V218.4H170.9M170.9,218.4V97.8H191.7M170.9,218.4V339H191.7M191.7,339V158.5H212.4M212.4,158.5V110.8H233.1M212.4,158.5V206.1H233.1M233.1,206.1V123.8H253.9M191.7,339V519.6H212.4M212.4,519.6V513.2H233.1M212.4,519.6V526.1H233.1" stroke="darkgrey"></path><path d="M233.1,206.1V288.4H253.9M253.9,288.4V183.6H274.6M274.6,183.6V143.3H295.3M295.3,143.3V136.8H316.1M295.3,143.3V149.8H316.1M274.6,183.6V224H295.3M295.3,224V197.6H316.1M316.1,197.6V174.1H336.8M336.8,174.1V162.7H357.6M336.8,174.1V185.5H357.6M357.6,185.5V175.7H378.3M357.6,185.5V195.2H378.3M378.3,195.2V188.7H399M378.3,195.2V201.7H399M316.1,197.6V221.1H336.8M336.8,221.1V214.7H357.6M336.8,221.1V227.6H357.6M295.3,224V250.3H316.1M316.1,250.3V240.6H336.8M316.1,250.3V260.1H336.8M336.8,260.1V253.6H357.6M336.8,260.1V266.6H357.6M253.9,288.4V393.1H274.6M274.6,393.1V313.6H295.3M295.3,313.6V286H316.1M316.1,286V279.5H336.8M316.1,286V292.5H336.8M295.3,313.6V341.1H316.1M316.1,341.1V315.2H336.8M336.8,315.2V305.5H357.6M336.8,315.2V325H357.6M357.6,325V318.5H378.3M357.6,325V331.5H378.3M316.1,341.1V367H336.8M336.8,367V350.9H357.6M357.6,350.9V344.4H378.3M357.6,350.9V357.4H378.3M336.8,367V383.2H357.6M357.6,383.2V370.4H378.3M357.6,383.2V395.9H378.3M378.3,395.9V383.4H399M378.3,395.9V408.5H399M399,408.5V396.3H419.8M399,408.5V420.7H419.8M419.8,420.7V409.3H440.5M419.8,420.7V432H440.5M440.5,432V422.3H461.3M440.5,432V441.8H461.3M461.3,441.8V435.3H482M461.3,441.8V448.3H482M274.6,393.1V472.6H295.3M295.3,472.6V461.2H316.1M295.3,472.6V484H316.1M316.1,484V474.2H336.8M316.1,484V493.7H336.8M336.8,493.7V487.2H357.6M336.8,493.7V500.2H357.6M46.5,587.8V578H67.2" stroke="#fc8d59"></path><text x="7" y="429.9" class="node" fill="#4A6FE3">1</text><text x="27.7" y="283.5" class="node" fill="#4A6FE3">1</text><text x="48.5" y="25" class="node" fill="#6982E1">0.92</text><text x="69.2" y="39.9" class="node" fill="#6982E1">0.92</text><text x="90" y="56.9" class="node" fill="#E392A2">0.24</text><text x="110.7" y="77.8" class="node" fill="#6982E1">0.92</text><text x="131.4" y="106.7" class="node" fill="#E392A2">0.24</text><text x="152.2" y="151.4" class="node" fill="#BFC4E3">0.63</text><text x="172.9" y="81.4" class="node" fill="#E0E0E2">0.51</text><text x="172.9" y="221.4" class="node" fill="#4A6FE3">1</text><text x="193.7" y="342" class="node" fill="#E6BDC5">0.38</text><text x="214.4" y="161.5" class="node" fill="#E6BDC5">0.38</text><text x="235.1" y="209.1" class="node" fill="#E6BDC5">0.38</text><text x="255.9" y="291.4" class="node" fill="#E6BDC5">0.38</text><text x="276.6" y="186.6" class="node" fill="#E0E0E2">0.51</text><text x="297.3" y="146.3" class="node" fill="#4A6FE3">1</text><text x="297.3" y="227" class="node" fill="#4A6FE3">1</text><text x="318.1" y="200.6" class="node" fill="#E6BDC5">0.38</text><text x="338.8" y="177.1" class="node" fill="#8F9DE1">0.8</text><text x="359.6" y="188.5" class="node" fill="#E3DFE0">0.49</text><text x="380.3" y="198.2" class="node" fill="#4A6FE3">1</text><text x="338.8" y="224.1" class="node" fill="#E6BDC5">0.38</text><text x="318.1" y="253.3" class="node" fill="#E0E0E2">0.51</text><text x="338.8" y="263.1" class="node" fill="#E6BDC5">0.38</text><text x="276.6" y="396.1" class="node" fill="#E6BDC5">0.38</text><text x="297.3" y="316.6" class="node" fill="#D7D9E3">0.54</text><text x="318.1" y="289" class="node" fill="#B9BFE3">0.65</text><text x="318.1" y="344.1" class="node" fill="#4A6FE3">1</text><text x="338.8" y="318.2" class="node" fill="#929FE1">0.79</text><text x="359.6" y="328" class="node" fill="#7D8FE1">0.86</text><text x="338.8" y="370" class="node" fill="#8394E1">0.84</text><text x="359.6" y="353.9" class="node" fill="#4A6FE3">1</text><text x="359.6" y="386.2" class="node" fill="#8C9BE1">0.81</text><text x="380.3" y="398.9" class="node" fill="#8C9BE1">0.81</text><text x="401" y="411.5" class="node" fill="#7388E1">0.89</text><text x="421.8" y="423.7" class="node" fill="#7388E1">0.89</text><text x="442.5" y="435" class="node" fill="#4A6FE3">1</text><text x="463.3" y="444.8" class="node" fill="#667FE1">0.93</text><text x="297.3" y="475.6" class="node" fill="#E6BDC5">0.38</text><text x="318.1" y="487" class="node" fill="#627DE1">0.94</text><text x="338.8" y="496.7" class="node" fill="#4A6FE3">1</text><text x="214.4" y="522.6" class="node" fill="#4A6FE3">1</text><text x="27.7" y="576.2" class="node" fill="#4A6FE3">1</text><text x="48.5" y="561.6" class="node" fill="#4A6FE3">1</text><text x="48.5" y="590.8" class="node" fill="#4A6FE3">1</text><text x="69.2" y="600.5" class="node" fill="#E07C92">0.17</text></svg>
