<svg xmlns="http://www.w3.org/2000/svg" version="1.1" width="682" height="682" class="tree" data-char="16"><text x="678" y="15.4" text-anchor="end" class="stepsLabel">Character adds <tspan class="score">6</tspan> to tree score</text><text x="678" y="27.8" text-anchor="end" class="stepsLabel"><tspan class="score">2</tspan> additional regions</text><text x="678" y="40.2" text-anchor="end" class="stepsLabel">CI = 0.5; Fitch CI = 0.5; Fitch RI = 0.5</text><text x="678" y="65" text-anchor="end" class="stepsLabel"><tspan dy="16" fill="#34caaf">An optimal tree under:</tspan><tspan x="680" style="font-style:italic" class="thisAn" dy="1.2em">Equal weights</tspan><tspan x="680" style="font-style:italic" class="notThisAn" dy="1.2em">Implied weights, k = 2</tspan><tspan x="680" style="font-style:italic" class="notThisAn" dy="1.2em">IW, k = 3</tspan><tspan x="680" style="font-style:italic" class="notThisAn" dy="1.2em">IW, k = 4.5</tspan><tspan x="680" style="font-style:italic" class="notThisAn" dy="1.2em">IW, k = 7</tspan><tspan x="680" style="font-style:italic" class="notThisAn" dy="1.2em">IW, k = 10.5</tspan><tspan x="680" style="font-style:italic" class="notThisAn" dy="1.2em">IW, k = 16</tspan><tspan x="680" style="font-style:italic" class="notThisAn" dy="1.2em">IW, k = 24</tspan></text><text x="84.5" y="664.4" fill="lightgrey" class="flag">[-]</text><text x="106.5" y="664.4" fill="#ccc" class="taxonLabel">Dentalium</text><text x="84.5" y="677" fill="#fdae61" class="flag">[1]</text><text x="106.5" y="677" fill="#000" class="taxonLabel">Tonicella</text><text x="64.6" y="651.8" fill="#abd9e9" class="flag">[3]</text><text x="86.6" y="651.8" fill="#000" class="taxonLabel">Wiwaxia corrugata</text><text x="64.6" y="626.7" fill="lightgrey" class="flag">[-]</text><text x="86.6" y="626.7" fill="#ccc" class="taxonLabel">Sipunculus</text><text x="64.6" y="639.2" fill="#abd9e9" class="flag">[3]</text><text x="86.6" y="639.2" fill="#000" class="taxonLabel">Serpula</text><text x="84.5" y="601.5" fill="#2c7bb6" class="flag">[4]</text><text x="106.5" y="601.5" fill="#000" class="taxonLabel">Amathia</text><text x="84.5" y="614.1" fill="lightgrey" class="flag">[-]</text><text x="106.5" y="614.1" fill="#ccc" class="taxonLabel">Flustra</text><text x="402.5" y="576.3" fill="grey" class="flag">[?]</text><text x="424.5" y="576.3" fill="#999" class="taxonLabel">Antigonambonites planus</text><text x="402.5" y="588.9" fill="grey" class="flag">[?]</text><text x="424.5" y="588.9" fill="#999" class="taxonLabel">Coolinia pecten</text><text x="482" y="551.2" fill="grey" class="flag">[?]</text><text x="504" y="551.2" fill="#999" class="taxonLabel">Orthis</text><text x="482" y="563.7" fill="#e2e2a2" class="flag">[2]</text><text x="504" y="563.7" fill="#000" class="taxonLabel">Terebratulina</text><text x="462.1" y="538.6" fill="#e2e2a2" class="flag">[2]</text><text x="484.1" y="538.6" fill="#000" class="taxonLabel">Alisina</text><text x="442.2" y="526" fill="grey" class="flag">[?]</text><text x="464.2" y="526" fill="#999" class="taxonLabel">Glyptoria</text><text x="422.4" y="513.4" fill="grey" class="flag">[?]</text><text x="444.4" y="513.4" fill="#999" class="taxonLabel">Nisusia sulcata</text><text x="402.5" y="500.8" fill="#e2e2a2" class="flag">[2]</text><text x="424.5" y="500.8" fill="#000" class="taxonLabel">Kutorgina chengjiangensis</text><text x="362.8" y="488.2" fill="#e2e2a2" class="flag">[2]</text><text x="384.8" y="488.2" fill="#000" class="taxonLabel">Longtancunella chengjiangensis</text><text x="342.9" y="475.6" fill="#e2e2a2" class="flag">[2]</text><text x="364.9" y="475.6" fill="#000" class="taxonLabel">Yuganotheca elegans</text><text x="323" y="463.1" fill="grey" class="flag">[?]</text><text x="345" y="463.1" fill="#999" class="taxonLabel">Tomteluva perturbata</text><text x="303.1" y="450.5" fill="grey" class="flag">[?]</text><text x="325.1" y="450.5" fill="#999" class="taxonLabel">Salanygolina</text><text x="303.1" y="425.3" fill="#e2e2a2" class="flag">[2]</text><text x="325.1" y="425.3" fill="#000" class="taxonLabel">Micromitra</text><text x="303.1" y="437.9" fill="grey" class="flag">[?]</text><text x="325.1" y="437.9" fill="#999" class="taxonLabel">Askepasma toddense</text><text x="362.8" y="400.1" fill="grey" class="flag">[?]</text><text x="384.8" y="400.1" fill="#999" class="taxonLabel">Craniops</text><text x="362.8" y="412.7" fill="lightgrey" class="flag">[-]</text><text x="384.8" y="412.7" fill="#ccc" class="taxonLabel">Novocrania</text><text x="342.9" y="387.5" fill="grey" class="flag">[?]</text><text x="364.9" y="387.5" fill="#999" class="taxonLabel">Ussunia</text><text x="323" y="375" fill="grey" class="flag">[?]</text><text x="345" y="375" fill="#999" class="taxonLabel">Gasconsia</text><text x="303.1" y="362.4" fill="#fdae61" class="flag">[1]</text><text x="325.1" y="362.4" fill="#000" class="taxonLabel">Heliomedusa orienta</text><text x="422.4" y="337.2" fill="#fdae61" class="flag">[1]</text><text x="444.4" y="337.2" fill="#000" class="taxonLabel">Siphonobolus priscus</text><text x="422.4" y="349.8" fill="#fdae61" class="flag">[1]</text><text x="444.4" y="349.8" fill="#000" class="taxonLabel">Acanthotretella spinosa</text><text x="402.5" y="324.6" fill="grey" class="flag">[?]</text><text x="424.5" y="324.6" fill="#999" class="taxonLabel">Lingulosacculus</text><text x="382.6" y="312" fill="grey" class="flag">[?]</text><text x="404.6" y="312" fill="#999" class="taxonLabel">Clupeafumosus socialis</text><text x="422.4" y="286.9" fill="grey" class="flag">[?]</text><text x="444.4" y="286.9" fill="#999" class="taxonLabel">Mummpikia nuda</text><text x="422.4" y="299.5" fill="grey" class="flag">[?]</text><text x="444.4" y="299.5" fill="#999" class="taxonLabel">Eoobolus</text><text x="402.5" y="274.3" fill="grey" class="flag">[?]</text><text x="424.5" y="274.3" fill="#999" class="taxonLabel">Botsfordia</text><text x="382.6" y="261.7" fill="#e2e2a2" class="flag">[2]</text><text x="404.6" y="261.7" fill="#000" class="taxonLabel">Lingulellotreta malongensis</text><text x="342.9" y="249.1" fill="#e2e2a2" class="flag">[2]</text><text x="364.9" y="249.1" fill="#000" class="taxonLabel">Lingula</text><text x="323" y="236.5" fill="#e2e2a2" class="flag">[2]</text><text x="345" y="236.5" fill="#000" class="taxonLabel">Pelagodiscus atlanticus</text><text x="303.1" y="223.9" fill="#fdae61" class="flag">[1]</text><text x="325.1" y="223.9" fill="#000" class="taxonLabel">Mickwitzia muralensis</text><text x="243.5" y="211.4" fill="#fdae61" class="flag">[1]</text><text x="265.5" y="211.4" fill="#000" class="taxonLabel">Micrina</text><text x="342.9" y="186.2" fill="grey" class="flag">[?]</text><text x="364.9" y="186.2" fill="#999" class="taxonLabel">Maxilites</text><text x="342.9" y="198.8" fill="grey" class="flag">[?]</text><text x="364.9" y="198.8" fill="#999" class="taxonLabel">Pauxillites</text><text x="323" y="173.6" fill="lightgrey" class="flag">[-]</text><text x="345" y="173.6" fill="#ccc" class="taxonLabel">Haplophrentis carinatus</text><text x="303.1" y="161" fill="grey" class="flag">[?]</text><text x="325.1" y="161" fill="#999" class="taxonLabel">Paramicrocornus</text><text x="303.1" y="135.8" fill="grey" class="flag">[?]</text><text x="325.1" y="135.8" fill="#999" class="taxonLabel">Conotheca</text><text x="303.1" y="148.4" fill="grey" class="flag">[?]</text><text x="325.1" y="148.4" fill="#999" class="taxonLabel">Bactrotheca</text><text x="263.4" y="123.3" fill="grey" class="flag">[?]</text><text x="285.4" y="123.3" fill="#999" class="taxonLabel">Cupitheca holocyclata</text><text x="243.5" y="110.7" fill="grey" class="flag">[?]</text><text x="265.5" y="110.7" fill="#999" class="taxonLabel">Pedunculotheca diania</text><text x="203.8" y="98.1" fill="lightgrey" class="flag">[-]</text><text x="225.8" y="98.1" fill="#ccc" class="taxonLabel">Paterimitra</text><text x="183.9" y="85.5" fill="grey" class="flag">[?]</text><text x="205.9" y="85.5" fill="#999" class="taxonLabel">Halkieria evangelista</text><text x="164" y="72.9" fill="grey" class="flag">[?]</text><text x="186" y="72.9" fill="#999" class="taxonLabel">Dailyatia</text><text x="144.1" y="60.3" fill="grey" class="flag">[?]</text><text x="166.1" y="60.3" fill="#999" class="taxonLabel">Eccentrotheca</text><text x="124.2" y="47.8" fill="lightgrey" class="flag">[-]</text><text x="146.2" y="47.8" fill="#ccc" class="taxonLabel">Cotyledion tylodes</text><text x="104.4" y="35.2" fill="lightgrey" class="flag">[-]</text><text x="126.4" y="35.2" fill="#ccc" class="taxonLabel">Phoronis</text><text x="84.5" y="22.6" fill="lightgrey" class="flag">[-]</text><text x="106.5" y="22.6" fill="#ccc" class="taxonLabel">Namacalathus</text><text x="44.8" y="10" fill="lightgrey" class="flag">[-]</text><text x="66.8" y="10" fill="#ccc" class="taxonLabel">Loxosomella</text><path d="M5,403.5V162.9H24.9M24.9,162.9V7H44.8M24.9,162.9V318.8H44.8M44.8,318.8V32.8H64.6M64.6,32.8V19.6H84.5M64.6,32.8V46.1H84.5M84.5,46.1V32.2H104.4M84.5,46.1V60H104.4M104.4,60V44.8H124.2M104.4,60V75.3H124.2M124.2,75.3V57.3H144.1M124.2,75.3V93.3H144.1M144.1,93.3V69.9H164M144.1,93.3V116.8H164M164,116.8V82.5H183.9M164,116.8V151H183.9M183.9,151V95.1H203.8M183.9,151V207H203.8M203.8,207V122.4H223.6M223.6,122.4V107.7H243.5M223.6,122.4V137.2H243.5M243.5,137.2V120.3H263.4M243.5,137.2V154.1H263.4M263.4,154.1V139.1H283.2M283.2,139.1V132.8H303.1M283.2,139.1V145.4H303.1M263.4,154.1V169H283.2M283.2,169V158H303.1M283.2,169V180H303.1M303.1,180V170.6H323M303.1,180V189.5H323M323,189.5V183.2H342.9M323,189.5V195.8H342.9M283.2,371.2V383H303.1M303.1,383V372H323M303.1,383V394H323M323,394V384.5H342.9M323,394V403.4H342.9M342.9,403.4V397.1H362.8M342.9,403.4V409.7H362.8M44.8,318.8V604.8H64.6M64.6,604.8V611.1H84.5M44.8,630V623.7H64.6M64.6,667.7V661.4H84.5" stroke="lightgrey" class="inapplicable"></path><path d="M203.8,207V291.5H223.6M223.6,291.5V208.4H243.5M223.6,291.5V374.6H243.5M243.5,374.6V303.8H263.4M263.4,303.8V236.5H283.2M283.2,236.5V220.9H303.1M382.6,331.1V340.5H402.5M402.5,340.5V334.2H422.4M402.5,340.5V346.8H422.4M263.4,303.8V371.2H283.2M283.2,371.2V359.4H303.1M64.6,667.7V674H84.5" stroke="#fdae61"></path><path d="M283.2,236.5V252H303.1M303.1,252V233.5H323M303.1,252V270.5H323M323,270.5V246.1H342.9M323,270.5V294.9H342.9M342.9,294.9V269.7H362.8M362.8,269.7V258.7H382.6M362.8,269.7V280.7H382.6M382.6,280.7V271.3H402.5M382.6,280.7V290.2H402.5M402.5,290.2V283.9H422.4M402.5,290.2V296.5H422.4M342.9,294.9V320H362.8M243.5,374.6V445.4H263.4M263.4,445.4V428.6H283.2M283.2,428.6V422.3H303.1M283.2,428.6V434.9H303.1M263.4,445.4V462.2H283.2M283.2,462.2V447.5H303.1M283.2,462.2V476.9H303.1M303.1,476.9V460.1H323M303.1,476.9V493.8H323M323,493.8V472.6H342.9M323,493.8V515H342.9M342.9,515V485.2H362.8M342.9,515V544.8H362.8M362.8,544.8V510H382.6M382.6,510V497.8H402.5M382.6,510V522.2H402.5M402.5,522.2V510.4H422.4M402.5,522.2V534H422.4M422.4,534V523H442.2M422.4,534V545H442.2M442.2,545V535.6H462.1M442.2,545V554.4H462.1M462.1,554.4V548.2H482M462.1,554.4V560.7H482M362.8,544.8V579.6H382.6M382.6,579.6V573.3H402.5M382.6,579.6V585.9H402.5" stroke="#e2e2a2"></path><path d="M362.8,320V309H382.6M362.8,320V331.1H382.6M382.6,331.1V321.6H402.5" stroke="darkgrey"></path><path d="M64.6,604.8V598.5H84.5" stroke="#2c7bb6"></path><path d="M5,403.5V644.1H24.9M24.9,644.1V630H44.8M44.8,630V636.2H64.6M24.9,644.1V658.3H44.8M44.8,658.3V648.8H64.6M44.8,658.3V667.7H64.6" stroke="#abd9e9"></path><text x="26.9" y="165.9" class="node" fill="#4A6FE3">1</text><text x="46.8" y="321.8" class="node" fill="#4A6FE3">1</text><text x="66.6" y="35.8" class="node" fill="#4A6FE3">1</text><text x="86.5" y="49.1" class="node" fill="#E6ABB6">0.32</text><text x="106.4" y="63" class="node" fill="#7388E1">0.89</text><text x="126.2" y="78.3" class="node" fill="#E392A2">0.24</text><text x="146.1" y="96.3" class="node" fill="#A8B1E2">0.71</text><text x="166" y="119.8" class="node" fill="#7388E1">0.89</text><text x="185.9" y="154" class="node" fill="#7388E1">0.89</text><text x="205.8" y="210" class="node" fill="#A8B1E2">0.71</text><text x="225.6" y="125.4" class="node" fill="#7388E1">0.89</text><text x="245.5" y="140.2" class="node" fill="#7388E1">0.89</text><text x="265.4" y="157.1" class="node" fill="#D2D4E3">0.57</text><text x="285.2" y="142.1" class="node" fill="#667FE1">0.93</text><text x="285.2" y="172" class="node" fill="#4A6FE3">1</text><text x="305.1" y="183" class="node" fill="#4A6FE3">1</text><text x="325" y="192.5" class="node" fill="#4A6FE3">1</text><text x="225.6" y="294.5" class="node" fill="#8998E1">0.82</text><text x="245.5" y="377.6" class="node" fill="#CFD2E3">0.58</text><text x="265.4" y="306.8" class="node" fill="#CFD2E3">0.58</text><text x="285.2" y="239.5" class="node" fill="#7A8DE1">0.87</text><text x="305.1" y="255" class="node" fill="#BFC4E3">0.63</text><text x="325" y="273.5" class="node" fill="#9AA6E2">0.76</text><text x="344.9" y="297.9" class="node" fill="#E38C9E">0.22</text><text x="364.8" y="272.7" class="node" fill="#E6ABB6">0.32</text><text x="384.6" y="283.7" class="node" fill="#D2D4E3">0.57</text><text x="404.5" y="293.2" class="node" fill="#E4D6D8">0.46</text><text x="364.8" y="323" class="node" fill="#DDDEE3">0.52</text><text x="384.6" y="334.1" class="node" fill="#E59FAC">0.29</text><text x="404.5" y="343.5" class="node" fill="#4A6FE3">1</text><text x="285.2" y="374.2" class="node" fill="#AEB6E2">0.69</text><text x="305.1" y="386" class="node" fill="#DDDEE3">0.52</text><text x="325" y="397" class="node" fill="#8998E1">0.82</text><text x="344.9" y="406.4" class="node" fill="#8998E1">0.82</text><text x="265.4" y="448.4" class="node" fill="#9AA6E2">0.76</text><text x="285.2" y="431.6" class="node" fill="#768BE1">0.88</text><text x="285.2" y="465.2" class="node" fill="#7A8DE1">0.87</text><text x="305.1" y="479.9" class="node" fill="#BCC2E3">0.64</text><text x="325" y="496.8" class="node" fill="#DD6C86">0.12</text><text x="344.9" y="518" class="node" fill="#E6C1C7">0.39</text><text x="364.8" y="547.8" class="node" fill="#E6C1C7">0.39</text><text x="384.6" y="513" class="node" fill="#E6C1C7">0.39</text><text x="404.5" y="525.2" class="node" fill="#E17F94">0.18</text><text x="424.4" y="537" class="node" fill="#9AA6E2">0.76</text><text x="444.2" y="548" class="node" fill="#4A6FE3">1</text><text x="464.1" y="557.4" class="node" fill="#8C9BE1">0.81</text><text x="384.6" y="582.6" class="node" fill="#4A6FE3">1</text><text x="66.6" y="607.8" class="node" fill="#4A6FE3">1</text><text x="26.9" y="647.1" class="node" fill="#4A6FE3">1</text><text x="46.8" y="633" class="node" fill="#4A6FE3">1</text><text x="46.8" y="661.3" class="node" fill="#4A6FE3">1</text><text x="66.6" y="670.7" class="node" fill="#4A6FE3">1</text><circle cx="44.8" cy="318.8"/><text x="41.8" y="321.8" class="dud-step">Nonsensical Fitch step</text></svg>
<svg xmlns="http://www.w3.org/2000/svg" version="1.1" width="682" height="682" class="tree" data-char="16"><text x="678" y="15.4" text-anchor="end" class="stepsLabel">Character adds <tspan class="score">6</tspan> to tree score</text><text x="678" y="27.8" text-anchor="end" class="stepsLabel"><tspan class="score">2</tspan> additional regions</text><text x="678" y="40.2" text-anchor="end" class="stepsLabel">CI = 0.5; Fitch CI = 0.5; Fitch RI = 0.5</text><text x="678" y="65" text-anchor="end" class="stepsLabel"><tspan dy="16" fill="#34caaf">An optimal tree under:</tspan><tspan x="680" style="font-style:italic" class="thisAn" dy="1.2em">Equal weights</tspan><tspan x="680" style="font-style:italic" class="notThisAn" dy="1.2em">Implied weights, k = 2</tspan><tspan x="680" style="font-style:italic" class="notThisAn" dy="1.2em">IW, k = 3</tspan><tspan x="680" style="font-style:italic" class="notThisAn" dy="1.2em">IW, k = 4.5</tspan><tspan x="680" style="font-style:italic" class="notThisAn" dy="1.2em">IW, k = 7</tspan><tspan x="680" style="font-style:italic" class="notThisAn" dy="1.2em">IW, k = 10.5</tspan><tspan x="680" style="font-style:italic" class="notThisAn" dy="1.2em">IW, k = 16</tspan><tspan x="680" style="font-style:italic" class="notThisAn" dy="1.2em">IW, k = 24</tspan></text><text x="84.5" y="664.4" fill="lightgrey" class="flag">[-]</text><text x="106.5" y="664.4" fill="#ccc" class="taxonLabel">Dentalium</text><text x="84.5" y="677" fill="#fdae61" class="flag">[1]</text><text x="106.5" y="677" fill="#000" class="taxonLabel">Tonicella</text><text x="64.6" y="651.8" fill="#abd9e9" class="flag">[3]</text><text x="86.6" y="651.8" fill="#000" class="taxonLabel">Wiwaxia corrugata</text><text x="64.6" y="626.7" fill="lightgrey" class="flag">[-]</text><text x="86.6" y="626.7" fill="#ccc" class="taxonLabel">Sipunculus</text><text x="64.6" y="639.2" fill="#abd9e9" class="flag">[3]</text><text x="86.6" y="639.2" fill="#000" class="taxonLabel">Serpula</text><text x="84.5" y="601.5" fill="#2c7bb6" class="flag">[4]</text><text x="106.5" y="601.5" fill="#000" class="taxonLabel">Amathia</text><text x="84.5" y="614.1" fill="lightgrey" class="flag">[-]</text><text x="106.5" y="614.1" fill="#ccc" class="taxonLabel">Flustra</text><text x="402.5" y="576.3" fill="grey" class="flag">[?]</text><text x="424.5" y="576.3" fill="#999" class="taxonLabel">Antigonambonites planus</text><text x="402.5" y="588.9" fill="grey" class="flag">[?]</text><text x="424.5" y="588.9" fill="#999" class="taxonLabel">Coolinia pecten</text><text x="482" y="551.2" fill="grey" class="flag">[?]</text><text x="504" y="551.2" fill="#999" class="taxonLabel">Orthis</text><text x="482" y="563.7" fill="#e2e2a2" class="flag">[2]</text><text x="504" y="563.7" fill="#000" class="taxonLabel">Terebratulina</text><text x="462.1" y="538.6" fill="#e2e2a2" class="flag">[2]</text><text x="484.1" y="538.6" fill="#000" class="taxonLabel">Alisina</text><text x="442.2" y="526" fill="grey" class="flag">[?]</text><text x="464.2" y="526" fill="#999" class="taxonLabel">Glyptoria</text><text x="422.4" y="513.4" fill="grey" class="flag">[?]</text><text x="444.4" y="513.4" fill="#999" class="taxonLabel">Nisusia sulcata</text><text x="402.5" y="500.8" fill="#e2e2a2" class="flag">[2]</text><text x="424.5" y="500.8" fill="#000" class="taxonLabel">Kutorgina chengjiangensis</text><text x="362.8" y="488.2" fill="#e2e2a2" class="flag">[2]</text><text x="384.8" y="488.2" fill="#000" class="taxonLabel">Longtancunella chengjiangensis</text><text x="342.9" y="475.6" fill="#e2e2a2" class="flag">[2]</text><text x="364.9" y="475.6" fill="#000" class="taxonLabel">Yuganotheca elegans</text><text x="323" y="463.1" fill="grey" class="flag">[?]</text><text x="345" y="463.1" fill="#999" class="taxonLabel">Tomteluva perturbata</text><text x="303.1" y="450.5" fill="grey" class="flag">[?]</text><text x="325.1" y="450.5" fill="#999" class="taxonLabel">Salanygolina</text><text x="303.1" y="425.3" fill="#e2e2a2" class="flag">[2]</text><text x="325.1" y="425.3" fill="#000" class="taxonLabel">Micromitra</text><text x="303.1" y="437.9" fill="grey" class="flag">[?]</text><text x="325.1" y="437.9" fill="#999" class="taxonLabel">Askepasma toddense</text><text x="362.8" y="400.1" fill="grey" class="flag">[?]</text><text x="384.8" y="400.1" fill="#999" class="taxonLabel">Craniops</text><text x="362.8" y="412.7" fill="lightgrey" class="flag">[-]</text><text x="384.8" y="412.7" fill="#ccc" class="taxonLabel">Novocrania</text><text x="342.9" y="387.5" fill="grey" class="flag">[?]</text><text x="364.9" y="387.5" fill="#999" class="taxonLabel">Ussunia</text><text x="323" y="375" fill="grey" class="flag">[?]</text><text x="345" y="375" fill="#999" class="taxonLabel">Gasconsia</text><text x="303.1" y="362.4" fill="#fdae61" class="flag">[1]</text><text x="325.1" y="362.4" fill="#000" class="taxonLabel">Heliomedusa orienta</text><text x="422.4" y="337.2" fill="#fdae61" class="flag">[1]</text><text x="444.4" y="337.2" fill="#000" class="taxonLabel">Siphonobolus priscus</text><text x="422.4" y="349.8" fill="#fdae61" class="flag">[1]</text><text x="444.4" y="349.8" fill="#000" class="taxonLabel">Acanthotretella spinosa</text><text x="402.5" y="324.6" fill="grey" class="flag">[?]</text><text x="424.5" y="324.6" fill="#999" class="taxonLabel">Lingulosacculus</text><text x="382.6" y="312" fill="grey" class="flag">[?]</text><text x="404.6" y="312" fill="#999" class="taxonLabel">Clupeafumosus socialis</text><text x="422.4" y="286.9" fill="grey" class="flag">[?]</text><text x="444.4" y="286.9" fill="#999" class="taxonLabel">Mummpikia nuda</text><text x="422.4" y="299.5" fill="grey" class="flag">[?]</text><text x="444.4" y="299.5" fill="#999" class="taxonLabel">Eoobolus</text><text x="402.5" y="274.3" fill="grey" class="flag">[?]</text><text x="424.5" y="274.3" fill="#999" class="taxonLabel">Botsfordia</text><text x="382.6" y="261.7" fill="#e2e2a2" class="flag">[2]</text><text x="404.6" y="261.7" fill="#000" class="taxonLabel">Lingulellotreta malongensis</text><text x="342.9" y="249.1" fill="#e2e2a2" class="flag">[2]</text><text x="364.9" y="249.1" fill="#000" class="taxonLabel">Lingula</text><text x="323" y="236.5" fill="#e2e2a2" class="flag">[2]</text><text x="345" y="236.5" fill="#000" class="taxonLabel">Pelagodiscus atlanticus</text><text x="303.1" y="223.9" fill="#fdae61" class="flag">[1]</text><text x="325.1" y="223.9" fill="#000" class="taxonLabel">Mickwitzia muralensis</text><text x="243.5" y="211.4" fill="#fdae61" class="flag">[1]</text><text x="265.5" y="211.4" fill="#000" class="taxonLabel">Micrina</text><text x="342.9" y="186.2" fill="grey" class="flag">[?]</text><text x="364.9" y="186.2" fill="#999" class="taxonLabel">Maxilites</text><text x="342.9" y="198.8" fill="grey" class="flag">[?]</text><text x="364.9" y="198.8" fill="#999" class="taxonLabel">Pauxillites</text><text x="323" y="173.6" fill="lightgrey" class="flag">[-]</text><text x="345" y="173.6" fill="#ccc" class="taxonLabel">Haplophrentis carinatus</text><text x="303.1" y="161" fill="grey" class="flag">[?]</text><text x="325.1" y="161" fill="#999" class="taxonLabel">Paramicrocornus</text><text x="303.1" y="135.8" fill="grey" class="flag">[?]</text><text x="325.1" y="135.8" fill="#999" class="taxonLabel">Conotheca</text><text x="303.1" y="148.4" fill="grey" class="flag">[?]</text><text x="325.1" y="148.4" fill="#999" class="taxonLabel">Bactrotheca</text><text x="263.4" y="123.3" fill="grey" class="flag">[?]</text><text x="285.4" y="123.3" fill="#999" class="taxonLabel">Cupitheca holocyclata</text><text x="243.5" y="110.7" fill="grey" class="flag">[?]</text><text x="265.5" y="110.7" fill="#999" class="taxonLabel">Pedunculotheca diania</text><text x="203.8" y="98.1" fill="lightgrey" class="flag">[-]</text><text x="225.8" y="98.1" fill="#ccc" class="taxonLabel">Paterimitra</text><text x="183.9" y="85.5" fill="grey" class="flag">[?]</text><text x="205.9" y="85.5" fill="#999" class="taxonLabel">Halkieria evangelista</text><text x="164" y="72.9" fill="grey" class="flag">[?]</text><text x="186" y="72.9" fill="#999" class="taxonLabel">Dailyatia</text><text x="144.1" y="60.3" fill="grey" class="flag">[?]</text><text x="166.1" y="60.3" fill="#999" class="taxonLabel">Eccentrotheca</text><text x="124.2" y="47.8" fill="lightgrey" class="flag">[-]</text><text x="146.2" y="47.8" fill="#ccc" class="taxonLabel">Cotyledion tylodes</text><text x="104.4" y="35.2" fill="lightgrey" class="flag">[-]</text><text x="126.4" y="35.2" fill="#ccc" class="taxonLabel">Phoronis</text><text x="84.5" y="22.6" fill="lightgrey" class="flag">[-]</text><text x="106.5" y="22.6" fill="#ccc" class="taxonLabel">Namacalathus</text><text x="44.8" y="10" fill="lightgrey" class="flag">[-]</text><text x="66.8" y="10" fill="#ccc" class="taxonLabel">Loxosomella</text><path d="M5,403.5V162.9H24.9M24.9,162.9V7H44.8M24.9,162.9V318.8H44.8M44.8,318.8V32.8H64.6M64.6,32.8V19.6H84.5M64.6,32.8V46.1H84.5M84.5,46.1V32.2H104.4M84.5,46.1V60H104.4M104.4,60V44.8H124.2M104.4,60V75.3H124.2M124.2,75.3V57.3H144.1M124.2,75.3V93.3H144.1M144.1,93.3V69.9H164M144.1,93.3V116.8H164M164,116.8V82.5H183.9M164,116.8V151H183.9M183.9,151V95.1H203.8M183.9,151V207H203.8M203.8,207V122.4H223.6M223.6,122.4V107.7H243.5M223.6,122.4V137.2H243.5M243.5,137.2V120.3H263.4M243.5,137.2V154.1H263.4M263.4,154.1V139.1H283.2M283.2,139.1V132.8H303.1M283.2,139.1V145.4H303.1M263.4,154.1V169H283.2M283.2,169V158H303.1M283.2,169V180H303.1M303.1,180V170.6H323M303.1,180V189.5H323M323,189.5V183.2H342.9M323,189.5V195.8H342.9M283.2,371.2V383H303.1M303.1,383V372H323M303.1,383V394H323M323,394V384.5H342.9M323,394V403.4H342.9M342.9,403.4V397.1H362.8M342.9,403.4V409.7H362.8M44.8,318.8V604.8H64.6M64.6,604.8V611.1H84.5M44.8,630V623.7H64.6M64.6,667.7V661.4H84.5" stroke="lightgrey" class="inapplicable"></path><path d="M203.8,207V291.5H223.6M223.6,291.5V208.4H243.5M223.6,291.5V374.6H243.5M243.5,374.6V303.8H263.4M263.4,303.8V236.5H283.2M283.2,236.5V220.9H303.1M382.6,331.1V340.5H402.5M402.5,340.5V334.2H422.4M402.5,340.5V346.8H422.4M263.4,303.8V371.2H283.2M283.2,371.2V359.4H303.1M64.6,667.7V674H84.5" stroke="#fdae61"></path><path d="M283.2,236.5V252H303.1M303.1,252V233.5H323M303.1,252V270.5H323M323,270.5V246.1H342.9M323,270.5V294.9H342.9M342.9,294.9V269.7H362.8M362.8,269.7V258.7H382.6M362.8,269.7V280.7H382.6M382.6,280.7V271.3H402.5M382.6,280.7V290.2H402.5M402.5,290.2V283.9H422.4M402.5,290.2V296.5H422.4M342.9,294.9V320H362.8M243.5,374.6V445.4H263.4M263.4,445.4V428.6H283.2M283.2,428.6V422.3H303.1M283.2,428.6V434.9H303.1M263.4,445.4V462.2H283.2M283.2,462.2V447.5H303.1M283.2,462.2V476.9H303.1M303.1,476.9V460.1H323M303.1,476.9V493.8H323M323,493.8V472.6H342.9M323,493.8V515H342.9M342.9,515V485.2H362.8M342.9,515V544.8H362.8M362.8,544.8V510H382.6M382.6,510V497.8H402.5M382.6,510V522.2H402.5M402.5,522.2V510.4H422.4M402.5,522.2V534H422.4M422.4,534V523H442.2M422.4,534V545H442.2M442.2,545V535.6H462.1M442.2,545V554.4H462.1M462.1,554.4V548.2H482M462.1,554.4V560.7H482M362.8,544.8V579.6H382.6M382.6,579.6V573.3H402.5M382.6,579.6V585.9H402.5" stroke="#e2e2a2"></path><path d="M362.8,320V309H382.6M362.8,320V331.1H382.6M382.6,331.1V321.6H402.5" stroke="darkgrey"></path><path d="M64.6,604.8V598.5H84.5" stroke="#2c7bb6"></path><path d="M5,403.5V644.1H24.9M24.9,644.1V630H44.8M44.8,630V636.2H64.6M24.9,644.1V658.3H44.8M44.8,658.3V648.8H64.6M44.8,658.3V667.7H64.6" stroke="#abd9e9"></path><text x="26.9" y="165.9" class="node" fill="#4A6FE3">1</text><text x="46.8" y="321.8" class="node" fill="#4A6FE3">1</text><text x="66.6" y="35.8" class="node" fill="#4A6FE3">1</text><text x="86.5" y="49.1" class="node" fill="#E6ABB6">0.32</text><text x="106.4" y="63" class="node" fill="#7388E1">0.89</text><text x="126.2" y="78.3" class="node" fill="#E392A2">0.24</text><text x="146.1" y="96.3" class="node" fill="#A8B1E2">0.71</text><text x="166" y="119.8" class="node" fill="#7388E1">0.89</text><text x="185.9" y="154" class="node" fill="#7388E1">0.89</text><text x="205.8" y="210" class="node" fill="#A8B1E2">0.71</text><text x="225.6" y="125.4" class="node" fill="#7388E1">0.89</text><text x="245.5" y="140.2" class="node" fill="#7388E1">0.89</text><text x="265.4" y="157.1" class="node" fill="#D2D4E3">0.57</text><text x="285.2" y="142.1" class="node" fill="#667FE1">0.93</text><text x="285.2" y="172" class="node" fill="#4A6FE3">1</text><text x="305.1" y="183" class="node" fill="#4A6FE3">1</text><text x="325" y="192.5" class="node" fill="#4A6FE3">1</text><text x="225.6" y="294.5" class="node" fill="#8998E1">0.82</text><text x="245.5" y="377.6" class="node" fill="#CFD2E3">0.58</text><text x="265.4" y="306.8" class="node" fill="#CFD2E3">0.58</text><text x="285.2" y="239.5" class="node" fill="#7A8DE1">0.87</text><text x="305.1" y="255" class="node" fill="#BFC4E3">0.63</text><text x="325" y="273.5" class="node" fill="#9AA6E2">0.76</text><text x="344.9" y="297.9" class="node" fill="#E38C9E">0.22</text><text x="364.8" y="272.7" class="node" fill="#E6ABB6">0.32</text><text x="384.6" y="283.7" class="node" fill="#D2D4E3">0.57</text><text x="404.5" y="293.2" class="node" fill="#E4D6D8">0.46</text><text x="364.8" y="323" class="node" fill="#DDDEE3">0.52</text><text x="384.6" y="334.1" class="node" fill="#E59FAC">0.29</text><text x="404.5" y="343.5" class="node" fill="#4A6FE3">1</text><text x="285.2" y="374.2" class="node" fill="#AEB6E2">0.69</text><text x="305.1" y="386" class="node" fill="#DDDEE3">0.52</text><text x="325" y="397" class="node" fill="#8998E1">0.82</text><text x="344.9" y="406.4" class="node" fill="#8998E1">0.82</text><text x="265.4" y="448.4" class="node" fill="#9AA6E2">0.76</text><text x="285.2" y="431.6" class="node" fill="#768BE1">0.88</text><text x="285.2" y="465.2" class="node" fill="#7A8DE1">0.87</text><text x="305.1" y="479.9" class="node" fill="#BCC2E3">0.64</text><text x="325" y="496.8" class="node" fill="#DD6C86">0.12</text><text x="344.9" y="518" class="node" fill="#E6C1C7">0.39</text><text x="364.8" y="547.8" class="node" fill="#E6C1C7">0.39</text><text x="384.6" y="513" class="node" fill="#E6C1C7">0.39</text><text x="404.5" y="525.2" class="node" fill="#E17F94">0.18</text><text x="424.4" y="537" class="node" fill="#9AA6E2">0.76</text><text x="444.2" y="548" class="node" fill="#4A6FE3">1</text><text x="464.1" y="557.4" class="node" fill="#8C9BE1">0.81</text><text x="384.6" y="582.6" class="node" fill="#4A6FE3">1</text><text x="66.6" y="607.8" class="node" fill="#4A6FE3">1</text><text x="26.9" y="647.1" class="node" fill="#4A6FE3">1</text><text x="46.8" y="633" class="node" fill="#4A6FE3">1</text><text x="46.8" y="661.3" class="node" fill="#4A6FE3">1</text><text x="66.6" y="670.7" class="node" fill="#4A6FE3">1</text><circle cx="5" cy="403.5"/><text x="2" y="406.5" class="dud-step">Nonsensical Fitch step</text></svg>
