<svg xmlns="http://www.w3.org/2000/svg" version="1.1" width="682" height="612" class="tree" data-char="149"><text x="678" y="15.4" text-anchor="end" class="stepsLabel">Character adds <tspan class="score">2</tspan> to tree score</text><text x="678" y="27.8" text-anchor="end" class="stepsLabel"><tspan class="score">0</tspan> additional regions</text><text x="678" y="40.2" text-anchor="end" class="stepsLabel">CI = 0.5; Fitch CI = 0.5; Fitch RI = 0.67</text><text x="678" y="65" text-anchor="end" class="stepsLabel"><tspan dy="16">An optimal tree under:</tspan><tspan x="680" style="font-style:italic" class="notThisAn" dy="1.2em">Equal weights</tspan><tspan x="680" style="font-style:italic" class="thisAn" dy="1.2em">Implied weights, k = 2</tspan><tspan x="680" style="font-style:italic" class="thisAn" dy="1.2em">IW, k = 3</tspan><tspan x="680" style="font-style:italic" class="notThisAn" dy="1.2em">IW, k = 4.5</tspan><tspan x="680" style="font-style:italic" class="notThisAn" dy="1.2em">IW, k = 7</tspan><tspan x="680" style="font-style:italic" class="notThisAn" dy="1.2em">IW, k = 10.5</tspan><tspan x="680" style="font-style:italic" class="notThisAn" dy="1.2em">IW, k = 16</tspan><tspan x="680" style="font-style:italic" class="notThisAn" dy="1.2em">IW, k = 24</tspan></text><text x="67.2" y="594.3" fill="#91bfdb" class="flag">[1]</text><text x="89.2" y="594.3" fill="#000" class="taxonLabel">Sipunculus</text><text x="67.2" y="607" fill="grey" class="flag">[?]</text><text x="89.2" y="607" fill="#999" class="taxonLabel">Serpula</text><text x="88" y="568.9" fill="#91bfdb" class="flag">[1]</text><text x="110" y="568.9" fill="#000" class="taxonLabel">Tonicella</text><text x="88" y="581.6" fill="grey" class="flag">[?]</text><text x="110" y="581.6" fill="#999" class="taxonLabel">Wiwaxia corrugata</text><text x="67.2" y="556.2" fill="#91bfdb" class="flag">[1]</text><text x="89.2" y="556.2" fill="#000" class="taxonLabel">Dentalium</text><text x="150.2" y="518.1" fill="grey" class="flag">[?]</text><text x="172.2" y="518.1" fill="#999" class="taxonLabel">Namacalathus</text><text x="150.2" y="530.8" fill="#fc8d59" class="flag">[0]</text><text x="172.2" y="530.8" fill="#000" class="taxonLabel">Phoronis</text><text x="129.4" y="505.4" fill="grey" class="flag">[?]</text><text x="151.4" y="505.4" fill="#999" class="taxonLabel">Cotyledion tylodes</text><text x="191.7" y="480" fill="grey" class="flag">[?]</text><text x="213.7" y="480" fill="#999" class="taxonLabel">Haplophrentis carinatus</text><text x="191.7" y="492.7" fill="grey" class="flag">[?]</text><text x="213.7" y="492.7" fill="#999" class="taxonLabel">Pedunculotheca diania</text><text x="274.6" y="454.6" fill="grey" class="flag">[?]</text><text x="296.6" y="454.6" fill="#999" class="taxonLabel">Mickwitzia muralensis</text><text x="274.6" y="467.3" fill="grey" class="flag">[?]</text><text x="296.6" y="467.3" fill="#999" class="taxonLabel">Pelagodiscus atlanticus</text><text x="316.1" y="429.2" fill="grey" class="flag">[?]</text><text x="338.1" y="429.2" fill="#999" class="taxonLabel">Botsfordia</text><text x="316.1" y="441.9" fill="grey" class="flag">[?]</text><text x="338.1" y="441.9" fill="#999" class="taxonLabel">Mummpikia nuda</text><text x="295.3" y="416.5" fill="grey" class="flag">[?]</text><text x="317.3" y="416.5" fill="#999" class="taxonLabel">Eoobolus</text><text x="316.1" y="391.1" fill="grey" class="flag">[?]</text><text x="338.1" y="391.1" fill="#999" class="taxonLabel">Lingulellotreta malongensis</text><text x="316.1" y="403.8" fill="#fc8d59" class="flag">[0]</text><text x="338.1" y="403.8" fill="#000" class="taxonLabel">Lingula</text><text x="357.6" y="365.7" fill="grey" class="flag">[?]</text><text x="379.6" y="365.7" fill="#999" class="taxonLabel">Acanthotretella spinosa</text><text x="357.6" y="378.4" fill="grey" class="flag">[?]</text><text x="379.6" y="378.4" fill="#999" class="taxonLabel">Siphonobolus priscus</text><text x="336.8" y="353" fill="grey" class="flag">[?]</text><text x="358.8" y="353" fill="#999" class="taxonLabel">Lingulosacculus</text><text x="316.1" y="340.3" fill="grey" class="flag">[?]</text><text x="338.1" y="340.3" fill="#999" class="taxonLabel">Clupeafumosus socialis</text><text x="357.6" y="314.9" fill="grey" class="flag">[?]</text><text x="379.6" y="314.9" fill="#999" class="taxonLabel">Coolinia pecten</text><text x="357.6" y="327.6" fill="grey" class="flag">[?]</text><text x="379.6" y="327.6" fill="#999" class="taxonLabel">Antigonambonites planus</text><text x="482" y="289.4" fill="grey" class="flag">[?]</text><text x="504" y="289.4" fill="#999" class="taxonLabel">Terebratulina</text><text x="482" y="302.1" fill="grey" class="flag">[?]</text><text x="504" y="302.1" fill="#999" class="taxonLabel">Orthis</text><text x="461.3" y="276.7" fill="grey" class="flag">[?]</text><text x="483.3" y="276.7" fill="#999" class="taxonLabel">Alisina</text><text x="440.5" y="264" fill="grey" class="flag">[?]</text><text x="462.5" y="264" fill="#999" class="taxonLabel">Longtancunella chengjiangensis</text><text x="419.8" y="251.3" fill="grey" class="flag">[?]</text><text x="441.8" y="251.3" fill="#999" class="taxonLabel">Glyptoria</text><text x="399" y="238.6" fill="grey" class="flag">[?]</text><text x="421" y="238.6" fill="#999" class="taxonLabel">Tomteluva perturbata</text><text x="378.3" y="225.9" fill="grey" class="flag">[?]</text><text x="400.3" y="225.9" fill="#999" class="taxonLabel">Nisusia sulcata</text><text x="357.6" y="213.2" fill="grey" class="flag">[?]</text><text x="379.6" y="213.2" fill="#999" class="taxonLabel">Kutorgina chengjiangensis</text><text x="316.1" y="200.5" fill="grey" class="flag">[?]</text><text x="338.1" y="200.5" fill="#999" class="taxonLabel">Yuganotheca elegans</text><text x="295.3" y="187.8" fill="grey" class="flag">[?]</text><text x="317.3" y="187.8" fill="#999" class="taxonLabel">Salanygolina</text><text x="295.3" y="162.4" fill="grey" class="flag">[?]</text><text x="317.3" y="162.4" fill="#999" class="taxonLabel">Askepasma toddense</text><text x="295.3" y="175.1" fill="grey" class="flag">[?]</text><text x="317.3" y="175.1" fill="#999" class="taxonLabel">Micromitra</text><text x="316.1" y="137" fill="#fc8d59" class="flag">[0]</text><text x="338.1" y="137" fill="#000" class="taxonLabel">Novocrania</text><text x="316.1" y="149.7" fill="grey" class="flag">[?]</text><text x="338.1" y="149.7" fill="#999" class="taxonLabel">Craniops</text><text x="295.3" y="124.3" fill="grey" class="flag">[?]</text><text x="317.3" y="124.3" fill="#999" class="taxonLabel">Ussunia</text><text x="274.6" y="111.6" fill="grey" class="flag">[?]</text><text x="296.6" y="111.6" fill="#999" class="taxonLabel">Gasconsia</text><text x="212.4" y="98.9" fill="grey" class="flag">[?]</text><text x="234.4" y="98.9" fill="#999" class="taxonLabel">Micrina</text><text x="191.7" y="86.2" fill="grey" class="flag">[?]</text><text x="213.7" y="86.2" fill="#999" class="taxonLabel">Paterimitra</text><text x="150.2" y="73.5" fill="grey" class="flag">[?]</text><text x="172.2" y="73.5" fill="#999" class="taxonLabel">Heliomedusa orienta</text><text x="150.2" y="48.1" fill="grey" class="flag">[?]</text><text x="172.2" y="48.1" fill="#999" class="taxonLabel">Halkieria evangelista</text><text x="150.2" y="60.8" fill="grey" class="flag">[?]</text><text x="172.2" y="60.8" fill="#999" class="taxonLabel">Dailyatia</text><text x="88" y="35.4" fill="grey" class="flag">[?]</text><text x="110" y="35.4" fill="#999" class="taxonLabel">Eccentrotheca</text><text x="88" y="10" fill="#91bfdb" class="flag">[1]</text><text x="110" y="10" fill="#000" class="taxonLabel">Flustra</text><text x="88" y="22.7" fill="#91bfdb" class="flag">[1]</text><text x="110" y="22.7" fill="#000" class="taxonLabel">Amathia</text><text x="46.5" y="543.5" fill="#fc8d59" class="flag">[0]</text><text x="68.5" y="543.5" fill="#000" class="taxonLabel">Loxosomella</text><path d="M5,448.7V317.2H25.7M25.7,317.2V93.9H46.5M46.5,93.9V174.4H67.2M67.2,174.4V32.4H88" stroke="darkgrey"></path><path d="M46.5,93.9V13.4H67.2M67.2,13.4V7H88M67.2,13.4V19.7H88M5,448.7V580.2H25.7M25.7,580.2V562.7H46.5M46.5,562.7V553.2H67.2M46.5,562.7V572.2H67.2M67.2,572.2V565.9H88M67.2,572.2V578.6H88M25.7,580.2V597.6H46.5M46.5,597.6V591.3H67.2M46.5,597.6V604H67.2" stroke="#91bfdb"></path><path d="M67.2,174.4V316.5H88M88,316.5V121.1H108.7M108.7,121.1V51.5H129.4M129.4,51.5V45.1H150.2M129.4,51.5V57.8H150.2M108.7,121.1V190.6H129.4M129.4,190.6V70.5H150.2M129.4,190.6V310.8H150.2M150.2,310.8V138.2H170.9M170.9,138.2V83.2H191.7M170.9,138.2V193.3H191.7M191.7,193.3V95.9H212.4M191.7,193.3V290.6H212.4M212.4,290.6V153.7H233.1M233.1,153.7V119.7H253.9M253.9,119.7V108.6H274.6M253.9,119.7V130.8H274.6M274.6,130.8V121.3H295.3M274.6,130.8V140.4H295.3M295.3,140.4V134H316.1M295.3,140.4V146.7H316.1M233.1,153.7V187.6H253.9M253.9,187.6V165.8H274.6M274.6,165.8V159.4H295.3M274.6,165.8V172.1H295.3M253.9,187.6V209.4H274.6M274.6,209.4V184.8H295.3M274.6,209.4V234H295.3M295.3,234V197.5H316.1M295.3,234V270.5H316.1M316.1,270.5V222.8H336.8M336.8,222.8V210.2H357.6M336.8,222.8V235.4H357.6M357.6,235.4V222.9H378.3M357.6,235.4V247.9H378.3M378.3,247.9V235.6H399M378.3,247.9V260.2H399M399,260.2V248.3H419.8M399,260.2V272.2H419.8M419.8,272.2V261H440.5M419.8,272.2V283.3H440.5M440.5,283.3V273.7H461.3M440.5,283.3V292.8H461.3M461.3,292.8V286.4H482M461.3,292.8V299.1H482M316.1,270.5V318.2H336.8M336.8,318.2V311.9H357.6M336.8,318.2V324.6H357.6M212.4,290.6V427.6H233.1M233.1,427.6V397.2H253.9M253.9,397.2V371.4H274.6M274.6,371.4V348.4H295.3M295.3,348.4V337.3H316.1M295.3,348.4V359.5H316.1M316.1,359.5V350H336.8M316.1,359.5V369H336.8M336.8,369V362.7H357.6M336.8,369V375.4H357.6M274.6,371.4V394.4H295.3M295.3,394.4V388.1H316.1M295.3,394.4V400.8H316.1M253.9,397.2V423H274.6M274.6,423V413.5H295.3M274.6,423V432.5H295.3M295.3,432.5V426.2H316.1M295.3,432.5V438.9H316.1M233.1,427.6V457.9H253.9M253.9,457.9V451.6H274.6M253.9,457.9V464.3H274.6M150.2,310.8V483.3H170.9M170.9,483.3V477H191.7M170.9,483.3V489.7H191.7M88,316.5V511.9H108.7M108.7,511.9V502.4H129.4M108.7,511.9V521.4H129.4M129.4,521.4V515.1H150.2M129.4,521.4V527.8H150.2M25.7,317.2V540.5H46.5" stroke="#fc8d59"></path><text x="7" y="451.7" class="node" fill="#4A6FE3">1</text><text x="27.7" y="320.2" class="node" fill="#4A6FE3">1</text><text x="48.5" y="96.9" class="node" fill="#4A6FE3">1</text><text x="69.2" y="16.4" class="node" fill="#4A6FE3">1</text><text x="69.2" y="177.4" class="node" fill="#4A6FE3">1</text><text x="90" y="319.5" class="node" fill="#E17F94">0.18</text><text x="110.7" y="124.1" class="node" fill="#E0E0E2">0.51</text><text x="131.4" y="54.5" class="node" fill="#E5D0D3">0.44</text><text x="131.4" y="193.6" class="node" fill="#4A6FE3">1</text><text x="152.2" y="313.8" class="node" fill="#E3DCDD">0.48</text><text x="172.9" y="141.2" class="node" fill="#E6C4C9">0.4</text><text x="193.7" y="196.3" class="node" fill="#E4D6D8">0.46</text><text x="214.4" y="293.6" class="node" fill="#E6BDC5">0.38</text><text x="235.1" y="156.7" class="node" fill="#E6BDC5">0.38</text><text x="255.9" y="122.7" class="node" fill="#4A6FE3">1</text><text x="276.6" y="133.8" class="node" fill="#4A6FE3">1</text><text x="297.3" y="143.4" class="node" fill="#4A6FE3">1</text><text x="255.9" y="190.6" class="node" fill="#4A6FE3">1</text><text x="276.6" y="168.8" class="node" fill="#4A6FE3">1</text><text x="276.6" y="212.4" class="node" fill="#4A6FE3">1</text><text x="297.3" y="237" class="node" fill="#E6BAC2">0.37</text><text x="318.1" y="273.5" class="node" fill="#E6B7C0">0.36</text><text x="338.8" y="225.8" class="node" fill="#E59FAC">0.29</text><text x="359.6" y="238.4" class="node" fill="#E59FAC">0.29</text><text x="380.3" y="250.9" class="node" fill="#E59FAC">0.29</text><text x="401" y="263.2" class="node" fill="#4A6FE3">1</text><text x="421.8" y="275.2" class="node" fill="#4A6FE3">1</text><text x="442.5" y="286.3" class="node" fill="#4A6FE3">1</text><text x="463.3" y="295.8" class="node" fill="#4A6FE3">1</text><text x="338.8" y="321.2" class="node" fill="#4A6FE3">1</text><text x="235.1" y="430.6" class="node" fill="#E6BDC5">0.38</text><text x="255.9" y="400.2" class="node" fill="#E6BDC5">0.38</text><text x="276.6" y="374.4" class="node" fill="#E6C1C7">0.39</text><text x="297.3" y="351.4" class="node" fill="#8394E1">0.84</text><text x="318.1" y="362.5" class="node" fill="#E38C9E">0.22</text><text x="338.8" y="372" class="node" fill="#4A6FE3">1</text><text x="297.3" y="397.4" class="node" fill="#E6BDC5">0.38</text><text x="276.6" y="426" class="node" fill="#E6C1C7">0.39</text><text x="297.3" y="435.5" class="node" fill="#E6C1C7">0.39</text><text x="255.9" y="460.9" class="node" fill="#E6BDC5">0.38</text><text x="172.9" y="486.3" class="node" fill="#4A6FE3">1</text><text x="110.7" y="514.9" class="node" fill="#E5C7CC">0.41</text><text x="131.4" y="524.4" class="node" fill="#4A6FE3">1</text><text x="27.7" y="583.2" class="node" fill="#4A6FE3">1</text><text x="48.5" y="565.7" class="node" fill="#4A6FE3">1</text><text x="69.2" y="575.2" class="node" fill="#E6BDC5">0.38</text><text x="48.5" y="600.6" class="node" fill="#4A6FE3">1</text></svg>
