<svg xmlns="http://www.w3.org/2000/svg" version="1.1" width="682" height="682" class="tree" data-char="106"><text x="678" y="15.6" text-anchor="end" class="stepsLabel">Character adds <tspan class="score">5</tspan> to tree score</text><text x="678" y="28.2" text-anchor="end" class="stepsLabel"><tspan class="score">0</tspan> additional regions</text><text x="678" y="40.8" text-anchor="end" class="stepsLabel">CI = 0.2; Fitch CI = 0.2; Fitch RI = 0.83</text><text x="678" y="66" text-anchor="end" class="stepsLabel"><tspan dy="16" fill="#34caaf">An optimal tree under:</tspan><tspan x="680" style="font-style:italic" class="thisAn" dy="1.2em">Equal weights</tspan><tspan x="680" style="font-style:italic" class="notThisAn" dy="1.2em">Implied weights, k = 2</tspan><tspan x="680" style="font-style:italic" class="notThisAn" dy="1.2em">IW, k = 3</tspan><tspan x="680" style="font-style:italic" class="notThisAn" dy="1.2em">IW, k = 4.5</tspan><tspan x="680" style="font-style:italic" class="notThisAn" dy="1.2em">IW, k = 7</tspan><tspan x="680" style="font-style:italic" class="notThisAn" dy="1.2em">IW, k = 10.5</tspan><tspan x="680" style="font-style:italic" class="notThisAn" dy="1.2em">IW, k = 16</tspan><tspan x="680" style="font-style:italic" class="notThisAn" dy="1.2em">IW, k = 24</tspan></text><text x="91.7" y="664.2" fill="#91bfdb" class="flag">[1]</text><text x="113.7" y="664.2" fill="#000" class="taxonLabel">Tonicella</text><text x="91.7" y="677" fill="#fc8d59" class="flag">[0]</text><text x="113.7" y="677" fill="#000" class="taxonLabel">Dentalium</text><text x="70" y="651.3" fill="#fc8d59" class="flag">[0]</text><text x="92" y="651.3" fill="#000" class="taxonLabel">Wiwaxia corrugata</text><text x="70" y="625.7" fill="#fc8d59" class="flag">[0]</text><text x="92" y="625.7" fill="#000" class="taxonLabel">Sipunculus</text><text x="70" y="638.5" fill="#fc8d59" class="flag">[0]</text><text x="92" y="638.5" fill="#000" class="taxonLabel">Serpula</text><text x="373.6" y="587.2" fill="#fc8d59" class="flag">[0]</text><text x="395.6" y="587.2" fill="#000" class="taxonLabel">Pauxillites</text><text x="373.6" y="600" fill="#fc8d59" class="flag">[0]</text><text x="395.6" y="600" fill="#000" class="taxonLabel">Maxilites</text><text x="351.9" y="574.4" fill="#fc8d59" class="flag">[0]</text><text x="373.9" y="574.4" fill="#000" class="taxonLabel">Haplophrentis carinatus</text><text x="330.2" y="561.6" fill="#fc8d59" class="flag">[0]</text><text x="352.2" y="561.6" fill="#000" class="taxonLabel">Paramicrocornus</text><text x="308.5" y="548.7" fill="#fc8d59" class="flag">[0]</text><text x="330.5" y="548.7" fill="#000" class="taxonLabel">Bactrotheca</text><text x="286.9" y="535.9" fill="#fc8d59" class="flag">[0]</text><text x="308.9" y="535.9" fill="#000" class="taxonLabel">Conotheca</text><text x="265.2" y="523.1" fill="#fc8d59" class="flag">[0]</text><text x="287.2" y="523.1" fill="#000" class="taxonLabel">Pedunculotheca diania</text><text x="417" y="497.4" fill="#91bfdb" class="flag">[1]</text><text x="439" y="497.4" fill="#000" class="taxonLabel">Pelagodiscus atlanticus</text><text x="417" y="510.2" fill="#91bfdb" class="flag">[1]</text><text x="439" y="510.2" fill="#000" class="taxonLabel">Mummpikia nuda</text><text x="460.3" y="471.8" fill="#91bfdb" class="flag">[1]</text><text x="482.3" y="471.8" fill="#000" class="taxonLabel">Siphonobolus priscus</text><text x="460.3" y="484.6" fill="#91bfdb" class="flag">[1]</text><text x="482.3" y="484.6" fill="#000" class="taxonLabel">Acanthotretella spinosa</text><text x="460.3" y="446.1" fill="#91bfdb" class="flag">[1]</text><text x="482.3" y="446.1" fill="#000" class="taxonLabel">Clupeafumosus socialis</text><text x="460.3" y="458.9" fill="#91bfdb" class="flag">[1]</text><text x="482.3" y="458.9" fill="#000" class="taxonLabel">Lingulosacculus</text><text x="417" y="433.3" fill="#91bfdb" class="flag">[1]</text><text x="439" y="433.3" fill="#000" class="taxonLabel">Lingulellotreta malongensis</text><text x="373.6" y="420.5" fill="#91bfdb" class="flag">[1]</text><text x="395.6" y="420.5" fill="#000" class="taxonLabel">Botsfordia</text><text x="351.9" y="407.6" fill="#91bfdb" class="flag">[1]</text><text x="373.9" y="407.6" fill="#000" class="taxonLabel">Eoobolus</text><text x="330.2" y="394.8" fill="#fc8d59" class="flag">[0]</text><text x="352.2" y="394.8" fill="#000" class="taxonLabel">Lingula</text><text x="417" y="369.2" fill="#fc8d59" class="flag">[0]</text><text x="439" y="369.2" fill="#000" class="taxonLabel">Novocrania</text><text x="417" y="382" fill="#fc8d59" class="flag">[0]</text><text x="439" y="382" fill="#000" class="taxonLabel">Craniops</text><text x="395.3" y="356.3" fill="#fc8d59" class="flag">[0]</text><text x="417.3" y="356.3" fill="#000" class="taxonLabel">Ussunia</text><text x="373.6" y="343.5" fill="#fc8d59" class="flag">[0]</text><text x="395.6" y="343.5" fill="#000" class="taxonLabel">Heliomedusa orienta</text><text x="351.9" y="330.7" fill="#91bfdb" class="flag">[1]</text><text x="373.9" y="330.7" fill="#000" class="taxonLabel">Mickwitzia muralensis</text><text x="351.9" y="305" fill="#91bfdb" class="flag">[1]</text><text x="373.9" y="305" fill="#000" class="taxonLabel">Micromitra</text><text x="351.9" y="317.8" fill="#91bfdb" class="flag">[1]</text><text x="373.9" y="317.8" fill="#000" class="taxonLabel">Gasconsia</text><text x="373.6" y="279.4" fill="grey" class="flag">[?]</text><text x="395.6" y="279.4" fill="#999" class="taxonLabel">Yuganotheca elegans</text><text x="373.6" y="292.2" fill="grey" class="flag">[?]</text><text x="395.6" y="292.2" fill="#999" class="taxonLabel">Longtancunella chengjiangensis</text><text x="417" y="253.7" fill="#91bfdb" class="flag">[1]</text><text x="439" y="253.7" fill="#000" class="taxonLabel">Antigonambonites planus</text><text x="417" y="266.5" fill="#91bfdb" class="flag">[1]</text><text x="439" y="266.5" fill="#000" class="taxonLabel">Coolinia pecten</text><text x="482" y="228.1" fill="#91bfdb" class="flag">[1]</text><text x="504" y="228.1" fill="#000" class="taxonLabel">Orthis</text><text x="482" y="240.9" fill="#91bfdb" class="flag">[1]</text><text x="504" y="240.9" fill="#000" class="taxonLabel">Terebratulina</text><text x="460.3" y="215.2" fill="#91bfdb" class="flag">[1]</text><text x="482.3" y="215.2" fill="#000" class="taxonLabel">Alisina</text><text x="438.6" y="202.4" fill="#91bfdb" class="flag">[1]</text><text x="460.6" y="202.4" fill="#000" class="taxonLabel">Glyptoria</text><text x="438.6" y="176.8" fill="#91bfdb" class="flag">[1]</text><text x="460.6" y="176.8" fill="#000" class="taxonLabel">Nisusia sulcata</text><text x="438.6" y="189.6" fill="#91bfdb" class="flag">[1]</text><text x="460.6" y="189.6" fill="#000" class="taxonLabel">Kutorgina chengjiangensis</text><text x="373.6" y="163.9" fill="#91bfdb" class="flag">[1]</text><text x="395.6" y="163.9" fill="#000" class="taxonLabel">Tomteluva perturbata</text><text x="330.2" y="151.1" fill="#91bfdb" class="flag">[1]</text><text x="352.2" y="151.1" fill="#000" class="taxonLabel">Salanygolina</text><text x="308.5" y="138.3" fill="#91bfdb" class="flag">[1]</text><text x="330.5" y="138.3" fill="#000" class="taxonLabel">Askepasma toddense</text><text x="265.2" y="125.4" fill="#91bfdb" class="flag">[1]</text><text x="287.2" y="125.4" fill="#000" class="taxonLabel">Micrina</text><text x="221.8" y="112.6" fill="#91bfdb" class="flag">[1]</text><text x="243.8" y="112.6" fill="#000" class="taxonLabel">Paterimitra</text><text x="200.1" y="99.8" fill="#fc8d59" class="flag">[0]</text><text x="222.1" y="99.8" fill="#000" class="taxonLabel">Halkieria evangelista</text><text x="178.5" y="87" fill="#fc8d59" class="flag">[0]</text><text x="200.5" y="87" fill="#000" class="taxonLabel">Dailyatia</text><text x="156.8" y="74.1" fill="#fc8d59" class="flag">[0]</text><text x="178.8" y="74.1" fill="#000" class="taxonLabel">Cotyledion tylodes</text><text x="135.1" y="61.3" fill="#fc8d59" class="flag">[0]</text><text x="157.1" y="61.3" fill="#000" class="taxonLabel">Eccentrotheca</text><text x="113.4" y="48.5" fill="#fc8d59" class="flag">[0]</text><text x="135.4" y="48.5" fill="#000" class="taxonLabel">Phoronis</text><text x="91.7" y="35.7" fill="#fc8d59" class="flag">[0]</text><text x="113.7" y="35.7" fill="#000" class="taxonLabel">Namacalathus</text><text x="91.7" y="10" fill="#fc8d59" class="flag">[0]</text><text x="113.7" y="10" fill="#000" class="taxonLabel">Flustra</text><text x="91.7" y="22.8" fill="#fc8d59" class="flag">[0]</text><text x="113.7" y="22.8" fill="#000" class="taxonLabel">Amathia</text><text x="48.4" y="612.9" fill="#fc8d59" class="flag">[0]</text><text x="70.4" y="612.9" fill="#000" class="taxonLabel">Loxosomella</text><path d="M5,481.8V320.1H26.7M26.7,320.1V30.3H48.4M48.4,30.3V13.4H70M70,13.4V7H91.7M70,13.4V19.8H91.7M48.4,30.3V47.3H70M70,47.3V32.7H91.7M70,47.3V61.9H91.7M91.7,61.9V45.5H113.4M91.7,61.9V78.3H113.4M113.4,78.3V58.3H135.1M113.4,78.3V98.2H135.1M135.1,98.2V71.1H156.8M135.1,98.2V125.3H156.8M156.8,125.3V84H178.5M156.8,125.3V166.6H178.5M178.5,166.6V96.8H200.1M178.5,166.6V236.4H200.1M330.2,339.7V351.7H351.9M351.9,351.7V340.5H373.6M351.9,351.7V362.9H373.6M373.6,362.9V353.3H395.3M373.6,362.9V372.6H395.3M395.3,372.6V366.2H417M395.3,372.6V379H417M308.5,408.4V391.8H330.2M221.8,363.3V532.7H243.5M243.5,532.7V520.1H265.2M243.5,532.7V545.3H265.2M265.2,545.3V532.9H286.9M265.2,545.3V557.8H286.9M286.9,557.8V545.7H308.5M286.9,557.8V569.8H308.5M308.5,569.8V558.6H330.2M308.5,569.8V581H330.2M330.2,581V571.4H351.9M330.2,581V590.6H351.9M351.9,590.6V584.2H373.6M351.9,590.6V597H373.6M26.7,320.1V609.9H48.4M5,481.8V643.5H26.7M26.7,643.5V629.1H48.4M48.4,629.1V622.7H70M48.4,629.1V635.5H70M26.7,643.5V658H48.4M48.4,658V648.3H70M48.4,658V667.6H70M70,667.6V674H91.7" stroke="#fc8d59"></path><path d="M200.1,236.4V109.6H221.8M221.8,363.3V193.8H243.5M243.5,193.8V122.4H265.2M243.5,193.8V265.2H265.2M265.2,265.2V164.2H286.9M286.9,164.2V135.3H308.5M286.9,164.2V193.1H308.5M308.5,193.1V148.1H330.2M308.5,193.1V238.2H330.2M330.2,238.2V193.6H351.9M351.9,193.6V160.9H373.6M351.9,193.6V226.3H373.6M373.6,226.3V195.4H395.3M395.3,195.4V180.2H417M417,180.2V173.8H438.6M417,180.2V186.6H438.6M395.3,195.4V210.6H417M417,210.6V199.4H438.6M417,210.6V221.9H438.6M438.6,221.9V212.2H460.3M438.6,221.9V231.5H460.3M460.3,231.5V225.1H482M460.3,231.5V237.9H482M373.6,226.3V257.1H395.3M395.3,257.1V250.7H417M395.3,257.1V263.5H417M330.2,238.2V282.8H351.9M351.9,282.8V276.4H373.6M351.9,282.8V289.2H373.6M265.2,265.2V366.3H286.9M286.9,366.3V324.1H308.5M308.5,324.1V308.4H330.2M330.2,308.4V302H351.9M330.2,308.4V314.8H351.9M308.5,324.1V339.7H330.2M330.2,339.7V327.7H351.9M286.9,366.3V408.4H308.5M308.5,408.4V425.1H330.2M330.2,425.1V404.6H351.9M330.2,425.1V445.5H351.9M351.9,445.5V417.5H373.6M351.9,445.5V473.6H373.6M373.6,473.6V446.3H395.3M395.3,446.3V430.3H417M395.3,446.3V462.4H417M417,462.4V449.5H438.6M438.6,449.5V443.1H460.3M438.6,449.5V455.9H460.3M417,462.4V475.2H438.6M438.6,475.2V468.8H460.3M438.6,475.2V481.6H460.3M373.6,473.6V500.8H395.3M395.3,500.8V494.4H417M395.3,500.8V507.2H417M70,667.6V661.2H91.7" stroke="#91bfdb"></path><path d="M200.1,236.4V363.3H221.8" stroke="darkgrey"></path><text x="7" y="484.8" class="node" fill="#4A6FE3">1</text><text x="28.7" y="323.1" class="node" fill="#4A6FE3">1</text><text x="50.4" y="33.3" class="node" fill="#4A6FE3">1</text><text x="72" y="16.4" class="node" fill="#4A6FE3">1</text><text x="72" y="50.3" class="node" fill="#4A6FE3">1</text><text x="93.7" y="64.9" class="node" fill="#E59FAC">0.28</text><text x="115.4" y="81.3" class="node" fill="#9AA6E2">0.76</text><text x="137.1" y="101.2" class="node" fill="#E07C92">0.17</text><text x="158.8" y="128.3" class="node" fill="#9AA6E2">0.76</text><text x="180.5" y="169.6" class="node" fill="#9AA6E2">0.76</text><text x="202.1" y="239.4" class="node" fill="#4A6FE3">1</text><text x="223.8" y="366.3" class="node" fill="#4A6FE3">1</text><text x="245.5" y="196.8" class="node" fill="#9AA6E2">0.76</text><text x="267.2" y="268.2" class="node" fill="#C7CBE3">0.6</text><text x="288.9" y="167.2" class="node" fill="#D7D9E3">0.54</text><text x="310.5" y="196.1" class="node" fill="#9AA6E2">0.76</text><text x="332.2" y="241.2" class="node" fill="#E4D6D8">0.46</text><text x="353.9" y="196.6" class="node" fill="#DA5E7D">0.08</text><text x="375.6" y="229.3" class="node" fill="#E5CDD1">0.43</text><text x="397.3" y="198.4" class="node" fill="#E6C1C7">0.39</text><text x="419" y="183.2" class="node" fill="#CFD2E3">0.58</text><text x="419" y="213.6" class="node" fill="#E3DFE0">0.49</text><text x="440.6" y="224.9" class="node" fill="#627DE1">0.94</text><text x="462.3" y="234.5" class="node" fill="#E2E2E2">0.5</text><text x="397.3" y="260.1" class="node" fill="#4A6FE3">1</text><text x="353.9" y="285.8" class="node" fill="#DA5E7D">0.08</text><text x="288.9" y="369.3" class="node" fill="#D7D9E3">0.54</text><text x="310.5" y="327.1" class="node" fill="#D7D9E3">0.54</text><text x="332.2" y="311.4" class="node" fill="#D7D9E3">0.54</text><text x="332.2" y="342.7" class="node" fill="#D7D9E3">0.54</text><text x="353.9" y="354.7" class="node" fill="#9AA6E2">0.76</text><text x="375.6" y="365.9" class="node" fill="#4A6FE3">1</text><text x="397.3" y="375.6" class="node" fill="#4A6FE3">1</text><text x="310.5" y="411.4" class="node" fill="#95A1E2">0.78</text><text x="332.2" y="428.1" class="node" fill="#E4D9DB">0.47</text><text x="353.9" y="448.5" class="node" fill="#E4D9DB">0.47</text><text x="375.6" y="476.6" class="node" fill="#E4D9DB">0.47</text><text x="397.3" y="449.3" class="node" fill="#E2E2E2">0.5</text><text x="419" y="465.4" class="node" fill="#9AA6E2">0.76</text><text x="440.6" y="452.5" class="node" fill="#E59FAC">0.29</text><text x="440.6" y="478.2" class="node" fill="#4F72E2">0.99</text><text x="397.3" y="503.8" class="node" fill="#DDDEE3">0.52</text><text x="245.5" y="535.7" class="node" fill="#4A6FE3">1</text><text x="267.2" y="548.3" class="node" fill="#9AA6E2">0.76</text><text x="288.9" y="560.8" class="node" fill="#E392A2">0.24</text><text x="310.5" y="572.8" class="node" fill="#4A6FE3">1</text><text x="332.2" y="584" class="node" fill="#4A6FE3">1</text><text x="353.9" y="593.6" class="node" fill="#4A6FE3">1</text><text x="28.7" y="646.5" class="node" fill="#4A6FE3">1</text><text x="50.4" y="632.1" class="node" fill="#4A6FE3">1</text><text x="50.4" y="661" class="node" fill="#4A6FE3">1</text><text x="72" y="670.6" class="node" fill="#4A6FE3">1</text></svg>
