<svg xmlns="http://www.w3.org/2000/svg" version="1.1" width="682" height="682" class="tree" data-char="154"><text x="678" y="15.4" text-anchor="end" class="stepsLabel">Character adds <tspan class="score">4</tspan> to tree score</text><text x="678" y="27.8" text-anchor="end" class="stepsLabel"><tspan class="score">0</tspan> additional regions</text><text x="678" y="40.2" text-anchor="end" class="stepsLabel">CI = 0.25; Fitch CI = 0.25; Fitch RI = 0.25</text><text x="678" y="65" text-anchor="end" class="stepsLabel"><tspan dy="16" fill="#34caaf">An optimal tree under:</tspan><tspan x="680" style="font-style:italic" class="thisAn" dy="1.2em">Equal weights</tspan><tspan x="680" style="font-style:italic" class="notThisAn" dy="1.2em">Implied weights, k = 2</tspan><tspan x="680" style="font-style:italic" class="notThisAn" dy="1.2em">IW, k = 3</tspan><tspan x="680" style="font-style:italic" class="notThisAn" dy="1.2em">IW, k = 4.5</tspan><tspan x="680" style="font-style:italic" class="notThisAn" dy="1.2em">IW, k = 7</tspan><tspan x="680" style="font-style:italic" class="notThisAn" dy="1.2em">IW, k = 10.5</tspan><tspan x="680" style="font-style:italic" class="notThisAn" dy="1.2em">IW, k = 16</tspan><tspan x="680" style="font-style:italic" class="notThisAn" dy="1.2em">IW, k = 24</tspan></text><text x="91.7" y="664.4" fill="#fc8d59" class="flag">[0]</text><text x="113.7" y="664.4" fill="#000" class="taxonLabel">Tonicella</text><text x="91.7" y="677" fill="#91bfdb" class="flag">[1]</text><text x="113.7" y="677" fill="#000" class="taxonLabel">Dentalium</text><text x="70" y="651.8" fill="grey" class="flag">[?]</text><text x="92" y="651.8" fill="#999" class="taxonLabel">Wiwaxia corrugata</text><text x="70" y="626.7" fill="#91bfdb" class="flag">[1]</text><text x="92" y="626.7" fill="#000" class="taxonLabel">Serpula</text><text x="70" y="639.2" fill="#91bfdb" class="flag">[1]</text><text x="92" y="639.2" fill="#000" class="taxonLabel">Sipunculus</text><text x="91.7" y="601.5" fill="#fc8d59" class="flag">[0]</text><text x="113.7" y="601.5" fill="#000" class="taxonLabel">Flustra</text><text x="91.7" y="614.1" fill="#fc8d59" class="flag">[0]</text><text x="113.7" y="614.1" fill="#000" class="taxonLabel">Amathia</text><text x="330.2" y="576.3" fill="grey" class="flag">[?]</text><text x="352.2" y="576.3" fill="#999" class="taxonLabel">Conotheca</text><text x="330.2" y="588.9" fill="grey" class="flag">[?]</text><text x="352.2" y="588.9" fill="#999" class="taxonLabel">Bactrotheca</text><text x="308.5" y="563.7" fill="grey" class="flag">[?]</text><text x="330.5" y="563.7" fill="#999" class="taxonLabel">Cupitheca holocyclata</text><text x="351.9" y="538.6" fill="grey" class="flag">[?]</text><text x="373.9" y="538.6" fill="#999" class="taxonLabel">Maxilites</text><text x="351.9" y="551.2" fill="grey" class="flag">[?]</text><text x="373.9" y="551.2" fill="#999" class="taxonLabel">Pauxillites</text><text x="330.2" y="526" fill="grey" class="flag">[?]</text><text x="352.2" y="526" fill="#999" class="taxonLabel">Haplophrentis carinatus</text><text x="308.5" y="513.4" fill="grey" class="flag">[?]</text><text x="330.5" y="513.4" fill="#999" class="taxonLabel">Paramicrocornus</text><text x="265.2" y="500.8" fill="grey" class="flag">[?]</text><text x="287.2" y="500.8" fill="#999" class="taxonLabel">Pedunculotheca diania</text><text x="330.2" y="475.6" fill="grey" class="flag">[?]</text><text x="352.2" y="475.6" fill="#999" class="taxonLabel">Mickwitzia muralensis</text><text x="330.2" y="488.2" fill="grey" class="flag">[?]</text><text x="352.2" y="488.2" fill="#999" class="taxonLabel">Heliomedusa orienta</text><text x="308.5" y="463.1" fill="grey" class="flag">[?]</text><text x="330.5" y="463.1" fill="#999" class="taxonLabel">Micrina</text><text x="351.9" y="437.9" fill="grey" class="flag">[?]</text><text x="373.9" y="437.9" fill="#999" class="taxonLabel">Micromitra</text><text x="351.9" y="450.5" fill="grey" class="flag">[?]</text><text x="373.9" y="450.5" fill="#999" class="taxonLabel">Askepasma toddense</text><text x="395.3" y="412.7" fill="grey" class="flag">[?]</text><text x="417.3" y="412.7" fill="#999" class="taxonLabel">Antigonambonites planus</text><text x="395.3" y="425.3" fill="grey" class="flag">[?]</text><text x="417.3" y="425.3" fill="#999" class="taxonLabel">Coolinia pecten</text><text x="482" y="387.5" fill="grey" class="flag">[?]</text><text x="504" y="387.5" fill="#999" class="taxonLabel">Orthis</text><text x="482" y="400.1" fill="#fc8d59" class="flag">[0]</text><text x="504" y="400.1" fill="#000" class="taxonLabel">Terebratulina</text><text x="460.3" y="375" fill="grey" class="flag">[?]</text><text x="482.3" y="375" fill="#999" class="taxonLabel">Alisina</text><text x="438.6" y="362.4" fill="grey" class="flag">[?]</text><text x="460.6" y="362.4" fill="#999" class="taxonLabel">Longtancunella chengjiangensis</text><text x="417" y="349.8" fill="grey" class="flag">[?]</text><text x="439" y="349.8" fill="#999" class="taxonLabel">Glyptoria</text><text x="438.6" y="324.6" fill="grey" class="flag">[?]</text><text x="460.6" y="324.6" fill="#999" class="taxonLabel">Tomteluva perturbata</text><text x="438.6" y="337.2" fill="grey" class="flag">[?]</text><text x="460.6" y="337.2" fill="#999" class="taxonLabel">Kutorgina chengjiangensis</text><text x="417" y="312" fill="grey" class="flag">[?]</text><text x="439" y="312" fill="#999" class="taxonLabel">Nisusia sulcata</text><text x="351.9" y="299.5" fill="grey" class="flag">[?]</text><text x="373.9" y="299.5" fill="#999" class="taxonLabel">Salanygolina</text><text x="482" y="274.3" fill="grey" class="flag">[?]</text><text x="504" y="274.3" fill="#999" class="taxonLabel">Siphonobolus priscus</text><text x="482" y="286.9" fill="grey" class="flag">[?]</text><text x="504" y="286.9" fill="#999" class="taxonLabel">Acanthotretella spinosa</text><text x="482" y="249.1" fill="grey" class="flag">[?]</text><text x="504" y="249.1" fill="#999" class="taxonLabel">Lingulosacculus</text><text x="482" y="261.7" fill="grey" class="flag">[?]</text><text x="504" y="261.7" fill="#999" class="taxonLabel">Clupeafumosus socialis</text><text x="438.6" y="236.5" fill="grey" class="flag">[?]</text><text x="460.6" y="236.5" fill="#999" class="taxonLabel">Lingulellotreta malongensis</text><text x="438.6" y="211.4" fill="grey" class="flag">[?]</text><text x="460.6" y="211.4" fill="#999" class="taxonLabel">Mummpikia nuda</text><text x="438.6" y="223.9" fill="#fc8d59" class="flag">[0]</text><text x="460.6" y="223.9" fill="#000" class="taxonLabel">Pelagodiscus atlanticus</text><text x="395.3" y="198.8" fill="grey" class="flag">[?]</text><text x="417.3" y="198.8" fill="#999" class="taxonLabel">Botsfordia</text><text x="373.6" y="186.2" fill="grey" class="flag">[?]</text><text x="395.6" y="186.2" fill="#999" class="taxonLabel">Eoobolus</text><text x="351.9" y="173.6" fill="#91bfdb" class="flag">[1]</text><text x="373.9" y="173.6" fill="#000" class="taxonLabel">Lingula</text><text x="395.3" y="148.4" fill="#91bfdb" class="flag">[1]</text><text x="417.3" y="148.4" fill="#000" class="taxonLabel">Novocrania</text><text x="395.3" y="161" fill="grey" class="flag">[?]</text><text x="417.3" y="161" fill="#999" class="taxonLabel">Craniops</text><text x="373.6" y="135.8" fill="grey" class="flag">[?]</text><text x="395.6" y="135.8" fill="#999" class="taxonLabel">Ussunia</text><text x="351.9" y="123.3" fill="grey" class="flag">[?]</text><text x="373.9" y="123.3" fill="#999" class="taxonLabel">Gasconsia</text><text x="265.2" y="110.7" fill="grey" class="flag">[?]</text><text x="287.2" y="110.7" fill="#999" class="taxonLabel">Yuganotheca elegans</text><text x="221.8" y="98.1" fill="grey" class="flag">[?]</text><text x="243.8" y="98.1" fill="#999" class="taxonLabel">Paterimitra</text><text x="200.1" y="85.5" fill="grey" class="flag">[?]</text><text x="222.1" y="85.5" fill="#999" class="taxonLabel">Halkieria evangelista</text><text x="178.5" y="72.9" fill="grey" class="flag">[?]</text><text x="200.5" y="72.9" fill="#999" class="taxonLabel">Dailyatia</text><text x="156.8" y="60.3" fill="grey" class="flag">[?]</text><text x="178.8" y="60.3" fill="#999" class="taxonLabel">Cotyledion tylodes</text><text x="135.1" y="47.8" fill="grey" class="flag">[?]</text><text x="157.1" y="47.8" fill="#999" class="taxonLabel">Eccentrotheca</text><text x="113.4" y="35.2" fill="grey" class="flag">[?]</text><text x="135.4" y="35.2" fill="#999" class="taxonLabel">Namacalathus</text><text x="91.7" y="22.6" fill="#91bfdb" class="flag">[1]</text><text x="113.7" y="22.6" fill="#000" class="taxonLabel">Phoronis</text><text x="48.4" y="10" fill="#91bfdb" class="flag">[1]</text><text x="70.4" y="10" fill="#000" class="taxonLabel">Loxosomella</text><path d="M5,403.7V163.2H26.7M26.7,163.2V7H48.4M26.7,163.2V319.5H48.4M48.4,319.5V34.2H70M70,34.2V19.6H91.7M70,34.2V48.8H91.7M91.7,48.8V32.2H113.4M91.7,48.8V65.5H113.4M113.4,65.5V44.8H135.1M113.4,65.5V86.2H135.1M135.1,86.2V57.3H156.8M135.1,86.2V115.1H156.8M156.8,115.1V69.9H178.5M156.8,115.1V160.2H178.5M178.5,160.2V82.5H200.1M178.5,160.2V237.9H200.1M200.1,237.9V95.1H221.8M200.1,237.9V380.7H221.8M221.8,380.7V239.6H243.5M243.5,239.6V107.7H265.2M243.5,239.6V371.5H265.2M265.2,371.5V273.5H286.9M286.9,273.5V157.9H308.5M308.5,157.9V131.3H330.2M330.2,131.3V120.3H351.9M330.2,131.3V142.3H351.9M351.9,142.3V132.8H373.6M351.9,142.3V151.7H373.6M373.6,151.7V145.4H395.3M373.6,151.7V158H395.3M308.5,157.9V184.6H330.2M330.2,184.6V170.6H351.9M330.2,184.6V198.5H351.9M286.9,273.5V389H308.5M265.2,371.5V469.5H286.9M286.9,469.5V460.1H308.5M286.9,469.5V478.9H308.5M308.5,478.9V472.6H330.2M308.5,478.9V485.2H330.2M221.8,380.7V521.8H243.5M243.5,521.8V497.8H265.2M243.5,521.8V545.8H265.2M265.2,545.8V521.4H286.9M286.9,521.4V510.4H308.5M286.9,521.4V532.4H308.5M308.5,532.4V523H330.2M308.5,532.4V541.9H330.2M330.2,541.9V535.6H351.9M330.2,541.9V548.2H351.9M265.2,545.8V570.2H286.9M286.9,570.2V560.7H308.5M286.9,570.2V579.6H308.5M308.5,579.6V573.3H330.2M308.5,579.6V585.9H330.2M5,403.7V644.1H26.7M26.7,644.1V630H48.4M48.4,630V623.7H70M48.4,630V636.2H70M26.7,644.1V658.3H48.4M48.4,658.3V648.8H70M48.4,658.3V667.7H70M70,667.7V674H91.7" stroke="#91bfdb"></path><path d="M351.9,198.5V183.2H373.6M351.9,198.5V213.9H373.6M373.6,213.9V195.8H395.3M373.6,213.9V232H395.3M395.3,232V214.7H417M417,214.7V208.4H438.6M395.3,232V249.3H417M417,249.3V233.5H438.6M417,249.3V265H438.6M438.6,265V252.4H460.3M460.3,252.4V246.1H482M460.3,252.4V258.7H482M438.6,265V277.6H460.3M460.3,277.6V271.3H482M460.3,277.6V283.9H482M308.5,389V336.9H330.2M330.2,336.9V296.5H351.9M330.2,336.9V377.3H351.9M351.9,377.3V338.5H373.6M373.6,338.5V318.5H395.3M395.3,318.5V309H417M395.3,318.5V327.9H417M417,327.9V321.6H438.6M417,327.9V334.2H438.6M373.6,338.5V358.6H395.3M395.3,358.6V346.8H417M395.3,358.6V370.4H417M417,370.4V359.4H438.6M417,370.4V381.4H438.6M438.6,381.4V372H460.3M438.6,381.4V390.8H460.3M460.3,390.8V384.5H482M351.9,377.3V416H373.6M373.6,416V409.7H395.3M373.6,416V422.3H395.3M308.5,389V441.2H330.2M330.2,441.2V434.9H351.9M330.2,441.2V447.5H351.9" stroke="darkgrey"></path><path d="M417,214.7V220.9H438.6M460.3,390.8V397.1H482M48.4,319.5V604.8H70M70,604.8V598.5H91.7M70,604.8V611.1H91.7M70,667.7V661.4H91.7" stroke="#fc8d59"></path><text x="7" y="406.7" class="node" fill="#4A6FE3">1</text><text x="28.7" y="166.2" class="node" fill="#4A6FE3">1</text><text x="50.4" y="322.5" class="node" fill="#4A6FE3">1</text><text x="72" y="37.2" class="node" fill="#4A6FE3">1</text><text x="93.7" y="51.8" class="node" fill="#E498A7">0.26</text><text x="115.4" y="68.5" class="node" fill="#7086E1">0.9</text><text x="137.1" y="89.2" class="node" fill="#E495A5">0.25</text><text x="158.8" y="118.1" class="node" fill="#A3ADE2">0.73</text><text x="180.5" y="163.2" class="node" fill="#7086E1">0.9</text><text x="202.1" y="240.9" class="node" fill="#7086E1">0.9</text><text x="223.8" y="383.7" class="node" fill="#A3ADE2">0.73</text><text x="245.5" y="242.6" class="node" fill="#8394E1">0.84</text><text x="267.2" y="374.5" class="node" fill="#CFD2E3">0.58</text><text x="288.9" y="276.5" class="node" fill="#D2D4E3">0.57</text><text x="310.5" y="160.9" class="node" fill="#CFD2E3">0.58</text><text x="332.2" y="134.3" class="node" fill="#CFD2E3">0.58</text><text x="353.9" y="145.3" class="node" fill="#8394E1">0.84</text><text x="375.6" y="154.7" class="node" fill="#8394E1">0.84</text><text x="332.2" y="187.6" class="node" fill="#B1B8E2">0.68</text><text x="353.9" y="201.5" class="node" fill="#D2D4E3">0.57</text><text x="375.6" y="216.9" class="node" fill="#D2D4E3">0.57</text><text x="397.3" y="235" class="node" fill="#D2D4E3">0.57</text><text x="419" y="217.7" class="node" fill="#D2D4E3">0.57</text><text x="419" y="252.3" class="node" fill="#D2D4E3">0.57</text><text x="440.6" y="268" class="node" fill="#7086E1">0.9</text><text x="462.3" y="255.4" class="node" fill="#E6B1BB">0.34</text><text x="462.3" y="280.6" class="node" fill="#4A6FE3">1</text><text x="310.5" y="392" class="node" fill="#D2D4E3">0.57</text><text x="332.2" y="339.9" class="node" fill="#CFD2E3">0.58</text><text x="353.9" y="380.3" class="node" fill="#D2D4E3">0.57</text><text x="375.6" y="341.5" class="node" fill="#DDDEE3">0.52</text><text x="397.3" y="321.5" class="node" fill="#E59FAC">0.29</text><text x="419" y="330.9" class="node" fill="#D95A7A">0.07</text><text x="397.3" y="361.6" class="node" fill="#B1B8E2">0.68</text><text x="419" y="373.4" class="node" fill="#D2D4E3">0.57</text><text x="440.6" y="384.4" class="node" fill="#4A6FE3">1</text><text x="462.3" y="393.8" class="node" fill="#4F72E2">0.99</text><text x="375.6" y="419" class="node" fill="#4A6FE3">1</text><text x="332.2" y="444.2" class="node" fill="#7388E1">0.89</text><text x="288.9" y="472.5" class="node" fill="#D2D4E3">0.57</text><text x="310.5" y="481.9" class="node" fill="#CFD2E3">0.58</text><text x="245.5" y="524.8" class="node" fill="#7086E1">0.9</text><text x="267.2" y="548.8" class="node" fill="#7086E1">0.9</text><text x="288.9" y="524.4" class="node" fill="#95A1E2">0.78</text><text x="310.5" y="535.4" class="node" fill="#4A6FE3">1</text><text x="332.2" y="544.9" class="node" fill="#4A6FE3">1</text><text x="288.9" y="573.2" class="node" fill="#CFD2E3">0.58</text><text x="310.5" y="582.6" class="node" fill="#627DE1">0.94</text><text x="72" y="607.8" class="node" fill="#4A6FE3">1</text><text x="28.7" y="647.1" class="node" fill="#4A6FE3">1</text><text x="50.4" y="633" class="node" fill="#4A6FE3">1</text><text x="50.4" y="661.3" class="node" fill="#4A6FE3">1</text><text x="72" y="670.7" class="node" fill="#4A6FE3">1</text></svg>
