<svg xmlns="http://www.w3.org/2000/svg" version="1.1" width="682" height="612" class="tree" data-char="39"><text x="678" y="15.4" text-anchor="end" class="stepsLabel">Character adds <tspan class="score">3</tspan> to tree score</text><text x="678" y="27.8" text-anchor="end" class="stepsLabel"><tspan class="score">0</tspan> additional regions</text><text x="678" y="40.2" text-anchor="end" class="stepsLabel">CI = 0.33; Fitch CI = 0.33; Fitch RI = 0.5</text><text x="678" y="65" text-anchor="end" class="stepsLabel"><tspan dy="16">An optimal tree under:</tspan><tspan x="680" style="font-style:italic" class="thisAn" dy="1.2em">Equal weights</tspan><tspan x="680" style="font-style:italic" class="notThisAn" dy="1.2em">Implied weights, k = 2</tspan><tspan x="680" style="font-style:italic" class="notThisAn" dy="1.2em">IW, k = 3</tspan><tspan x="680" style="font-style:italic" class="notThisAn" dy="1.2em">IW, k = 4.5</tspan><tspan x="680" style="font-style:italic" class="notThisAn" dy="1.2em">IW, k = 7</tspan><tspan x="680" style="font-style:italic" class="notThisAn" dy="1.2em">IW, k = 10.5</tspan><tspan x="680" style="font-style:italic" class="notThisAn" dy="1.2em">IW, k = 16</tspan><tspan x="680" style="font-style:italic" class="notThisAn" dy="1.2em">IW, k = 24</tspan></text><text x="89.2" y="594.3" fill="#fc8d59" class="flag">[0]</text><text x="111.2" y="594.3" fill="#000" class="taxonLabel">Sipunculus</text><text x="89.2" y="607" fill="#fc8d59" class="flag">[0]</text><text x="111.2" y="607" fill="#000" class="taxonLabel">Serpula</text><text x="117.2" y="568.9" fill="#fc8d59" class="flag">[0]</text><text x="139.2" y="568.9" fill="#000" class="taxonLabel">Tonicella</text><text x="117.2" y="581.6" fill="#fc8d59" class="flag">[0]</text><text x="139.2" y="581.6" fill="#000" class="taxonLabel">Dentalium</text><text x="89.2" y="556.2" fill="#fc8d59" class="flag">[0]</text><text x="111.2" y="556.2" fill="#000" class="taxonLabel">Wiwaxia corrugata</text><text x="313.6" y="518.1" fill="grey" class="flag">[?]</text><text x="335.6" y="518.1" fill="#999" class="taxonLabel">Craniops</text><text x="313.6" y="530.8" fill="#91bfdb" class="flag">[1]</text><text x="335.6" y="530.8" fill="#000" class="taxonLabel">Novocrania</text><text x="285.6" y="505.4" fill="#91bfdb" class="flag">[1]</text><text x="307.6" y="505.4" fill="#000" class="taxonLabel">Heliomedusa orienta</text><text x="482" y="480" fill="grey" class="flag">[?]</text><text x="504" y="480" fill="#999" class="taxonLabel">Acanthotretella spinosa</text><text x="482" y="492.7" fill="grey" class="flag">[?]</text><text x="504" y="492.7" fill="#999" class="taxonLabel">Siphonobolus priscus</text><text x="453.9" y="467.3" fill="grey" class="flag">[?]</text><text x="475.9" y="467.3" fill="#999" class="taxonLabel">Clupeafumosus socialis</text><text x="453.9" y="441.9" fill="#fc8d59" class="flag">[0]</text><text x="475.9" y="441.9" fill="#000" class="taxonLabel">Lingulellotreta malongensis</text><text x="453.9" y="454.6" fill="grey" class="flag">[?]</text><text x="475.9" y="454.6" fill="#999" class="taxonLabel">Lingulosacculus</text><text x="397.8" y="429.2" fill="grey" class="flag">[?]</text><text x="419.8" y="429.2" fill="#999" class="taxonLabel">Botsfordia</text><text x="369.8" y="416.5" fill="grey" class="flag">[?]</text><text x="391.8" y="416.5" fill="#999" class="taxonLabel">Mummpikia nuda</text><text x="341.7" y="403.8" fill="grey" class="flag">[?]</text><text x="363.7" y="403.8" fill="#999" class="taxonLabel">Eoobolus</text><text x="313.6" y="391.1" fill="#91bfdb" class="flag">[1]</text><text x="335.6" y="391.1" fill="#000" class="taxonLabel">Lingula</text><text x="341.7" y="365.7" fill="grey" class="flag">[?]</text><text x="363.7" y="365.7" fill="#999" class="taxonLabel">Mickwitzia muralensis</text><text x="341.7" y="378.4" fill="#91bfdb" class="flag">[1]</text><text x="363.7" y="378.4" fill="#000" class="taxonLabel">Pelagodiscus atlanticus</text><text x="313.6" y="353" fill="grey" class="flag">[?]</text><text x="335.6" y="353" fill="#999" class="taxonLabel">Micrina</text><text x="341.7" y="327.6" fill="grey" class="flag">[?]</text><text x="363.7" y="327.6" fill="#999" class="taxonLabel">Coolinia pecten</text><text x="341.7" y="340.3" fill="grey" class="flag">[?]</text><text x="363.7" y="340.3" fill="#999" class="taxonLabel">Antigonambonites planus</text><text x="482" y="302.1" fill="#91bfdb" class="flag">[1]</text><text x="504" y="302.1" fill="#000" class="taxonLabel">Terebratulina</text><text x="482" y="314.9" fill="grey" class="flag">[?]</text><text x="504" y="314.9" fill="#999" class="taxonLabel">Orthis</text><text x="453.9" y="289.4" fill="grey" class="flag">[?]</text><text x="475.9" y="289.4" fill="#999" class="taxonLabel">Alisina</text><text x="425.9" y="276.7" fill="grey" class="flag">[?]</text><text x="447.9" y="276.7" fill="#999" class="taxonLabel">Longtancunella chengjiangensis</text><text x="397.8" y="264" fill="grey" class="flag">[?]</text><text x="419.8" y="264" fill="#999" class="taxonLabel">Glyptoria</text><text x="369.8" y="251.3" fill="grey" class="flag">[?]</text><text x="391.8" y="251.3" fill="#999" class="taxonLabel">Nisusia sulcata</text><text x="341.7" y="238.6" fill="grey" class="flag">[?]</text><text x="363.7" y="238.6" fill="#999" class="taxonLabel">Kutorgina chengjiangensis</text><text x="341.7" y="213.2" fill="grey" class="flag">[?]</text><text x="363.7" y="213.2" fill="#999" class="taxonLabel">Tomteluva perturbata</text><text x="341.7" y="225.9" fill="#fc8d59" class="flag">[0]</text><text x="363.7" y="225.9" fill="#000" class="taxonLabel">Yuganotheca elegans</text><text x="313.6" y="200.5" fill="grey" class="flag">[?]</text><text x="335.6" y="200.5" fill="#999" class="taxonLabel">Salanygolina</text><text x="285.6" y="175.1" fill="grey" class="flag">[?]</text><text x="307.6" y="175.1" fill="#999" class="taxonLabel">Micromitra</text><text x="285.6" y="187.8" fill="grey" class="flag">[?]</text><text x="307.6" y="187.8" fill="#999" class="taxonLabel">Askepasma toddense</text><text x="257.5" y="149.7" fill="grey" class="flag">[?]</text><text x="279.5" y="149.7" fill="#999" class="taxonLabel">Pedunculotheca diania</text><text x="257.5" y="162.4" fill="#fc8d59" class="flag">[0]</text><text x="279.5" y="162.4" fill="#000" class="taxonLabel">Haplophrentis carinatus</text><text x="229.5" y="137" fill="grey" class="flag">[?]</text><text x="251.5" y="137" fill="#999" class="taxonLabel">Paterimitra</text><text x="173.4" y="124.3" fill="grey" class="flag">[?]</text><text x="195.4" y="124.3" fill="#999" class="taxonLabel">Gasconsia</text><text x="229.5" y="98.9" fill="#fc8d59" class="flag">[0]</text><text x="251.5" y="98.9" fill="#000" class="taxonLabel">Phoronis</text><text x="229.5" y="111.6" fill="grey" class="flag">[?]</text><text x="251.5" y="111.6" fill="#999" class="taxonLabel">Namacalathus</text><text x="257.5" y="73.5" fill="grey" class="flag">[?]</text><text x="279.5" y="73.5" fill="#999" class="taxonLabel">Eccentrotheca</text><text x="257.5" y="86.2" fill="#fc8d59" class="flag">[0]</text><text x="279.5" y="86.2" fill="#000" class="taxonLabel">Cotyledion tylodes</text><text x="229.5" y="60.8" fill="grey" class="flag">[?]</text><text x="251.5" y="60.8" fill="#999" class="taxonLabel">Dailyatia</text><text x="173.4" y="48.1" fill="grey" class="flag">[?]</text><text x="195.4" y="48.1" fill="#999" class="taxonLabel">Halkieria evangelista</text><text x="117.2" y="35.4" fill="grey" class="flag">[?]</text><text x="139.2" y="35.4" fill="#999" class="taxonLabel">Ussunia</text><text x="117.2" y="10" fill="#fc8d59" class="flag">[0]</text><text x="139.2" y="10" fill="#000" class="taxonLabel">Flustra</text><text x="117.2" y="22.7" fill="#fc8d59" class="flag">[0]</text><text x="139.2" y="22.7" fill="#000" class="taxonLabel">Amathia</text><text x="61.1" y="543.5" fill="#fc8d59" class="flag">[0]</text><text x="83.1" y="543.5" fill="#000" class="taxonLabel">Loxosomella</text><path d="M5,436.5V292.9H33.1M33.1,292.9V45.3H61.1M61.1,45.3V13.4H89.2M89.2,13.4V7H117.2M89.2,13.4V19.7H117.2M61.1,45.3V77.2H89.2M89.2,77.2V32.4H117.2M89.2,77.2V122H117.2M117.2,122V65H145.3M145.3,65V45.1H173.4M145.3,65V84.8H173.4M173.4,84.8V67.3H201.4M201.4,67.3V57.8H229.5M201.4,67.3V76.9H229.5M229.5,76.9V70.5H257.5M229.5,76.9V83.2H257.5M173.4,84.8V102.3H201.4M201.4,102.3V95.9H229.5M201.4,102.3V108.6H229.5M117.2,122V179H145.3M145.3,179V121.3H173.4M145.3,179V236.7H173.4M173.4,236.7V143.5H201.4M201.4,143.5V134H229.5M201.4,143.5V153.1H229.5M229.5,153.1V146.7H257.5M229.5,153.1V159.4H257.5M173.4,236.7V329.8H201.4M313.6,216.6V222.9H341.7M425.9,445.2V438.9H453.9M33.1,292.9V540.5H61.1M5,436.5V580.2H33.1M33.1,580.2V562.7H61.1M61.1,562.7V553.2H89.2M61.1,562.7V572.2H89.2M89.2,572.2V565.9H117.2M89.2,572.2V578.6H117.2M33.1,580.2V597.6H61.1M61.1,597.6V591.3H89.2M61.1,597.6V604H89.2" stroke="#fc8d59"></path><path d="M201.4,329.8V213.4H229.5M229.5,213.4V178.5H257.5M257.5,178.5V172.1H285.6M257.5,178.5V184.8H285.6M229.5,213.4V248.3H257.5M257.5,248.3V207.1H285.6M285.6,207.1V197.5H313.6M285.6,207.1V216.6H313.6M313.6,216.6V210.2H341.7M257.5,248.3V289.5H285.6M285.6,289.5V248.1H313.6M313.6,248.1V235.6H341.7M313.6,248.1V260.6H341.7M341.7,260.6V248.3H369.8M341.7,260.6V273H369.8M369.8,273V261H397.8M369.8,273V284.9H397.8M397.8,284.9V273.7H425.9M397.8,284.9V296H425.9M425.9,296V286.4H453.9M425.9,296V305.5H453.9M453.9,305.5V311.9H482M285.6,289.5V330.9H313.6M313.6,330.9V324.6H341.7M313.6,330.9V337.3H341.7M313.6,414.5V400.8H341.7M313.6,414.5V428.2H341.7M341.7,428.2V413.5H369.8M341.7,428.2V442.8H369.8M369.8,442.8V426.2H397.8M369.8,442.8V459.5H397.8M397.8,459.5V445.2H425.9M425.9,445.2V451.6H453.9M397.8,459.5V473.8H425.9M425.9,473.8V464.3H453.9M425.9,473.8V483.3H453.9M453.9,483.3V477H482M453.9,483.3V489.7H482" stroke="darkgrey"></path><path d="M453.9,305.5V299.1H482M201.4,329.8V446.1H229.5M229.5,446.1V380.4H257.5M257.5,380.4V359.5H285.6M285.6,359.5V350H313.6M285.6,359.5V369H313.6M313.6,369V362.7H341.7M313.6,369V375.4H341.7M257.5,380.4V401.3H285.6M285.6,401.3V388.1H313.6M285.6,401.3V414.5H313.6M229.5,446.1V511.9H257.5M257.5,511.9V502.4H285.6M257.5,511.9V521.4H285.6M285.6,521.4V515.1H313.6M285.6,521.4V527.8H313.6" stroke="#91bfdb"></path><text x="7" y="439.5" class="node" fill="#4A6FE3">1</text><text x="35.1" y="295.9" class="node" fill="#4A6FE3">1</text><text x="63.1" y="48.3" class="node" fill="#97A4E2">0.77</text><text x="91.2" y="16.4" class="node" fill="#4A6FE3">1</text><text x="91.2" y="80.2" class="node" fill="#97A4E2">0.77</text><text x="119.2" y="125" class="node" fill="#DADBE3">0.53</text><text x="147.3" y="68" class="node" fill="#DADBE3">0.53</text><text x="175.4" y="87.8" class="node" fill="#DADBE3">0.53</text><text x="203.4" y="70.3" class="node" fill="#DB617F">0.09</text><text x="231.5" y="79.9" class="node" fill="#E28699">0.2</text><text x="203.4" y="105.3" class="node" fill="#4A6FE3">1</text><text x="147.3" y="182" class="node" fill="#DADBE3">0.53</text><text x="175.4" y="239.7" class="node" fill="#DADBE3">0.53</text><text x="203.4" y="146.5" class="node" fill="#E6BAC2">0.37</text><text x="231.5" y="156.1" class="node" fill="#4A6FE3">1</text><text x="203.4" y="332.8" class="node" fill="#DADBE3">0.53</text><text x="231.5" y="216.4" class="node" fill="#667FE1">0.93</text><text x="259.5" y="181.5" class="node" fill="#4A6FE3">1</text><text x="259.5" y="251.3" class="node" fill="#667FE1">0.93</text><text x="287.6" y="210.1" class="node" fill="#E3DFE0">0.49</text><text x="315.6" y="219.6" class="node" fill="#9AA6E2">0.76</text><text x="287.6" y="292.5" class="node" fill="#7A8DE1">0.87</text><text x="315.6" y="251.1" class="node" fill="#E4D9DB">0.47</text><text x="343.7" y="263.6" class="node" fill="#E4D9DB">0.47</text><text x="371.8" y="276" class="node" fill="#C7CBE3">0.6</text><text x="399.8" y="287.9" class="node" fill="#C7CBE3">0.6</text><text x="427.9" y="299" class="node" fill="#4A6FE3">1</text><text x="455.9" y="308.5" class="node" fill="#8696E1">0.83</text><text x="315.6" y="333.9" class="node" fill="#4A6FE3">1</text><text x="231.5" y="449.1" class="node" fill="#DADBE3">0.53</text><text x="259.5" y="383.4" class="node" fill="#DADBE3">0.53</text><text x="287.6" y="362.5" class="node" fill="#E07C92">0.17</text><text x="315.6" y="372" class="node" fill="#9DA8E2">0.75</text><text x="287.6" y="404.3" class="node" fill="#9DA8E2">0.75</text><text x="315.6" y="417.5" class="node" fill="#C1C6E3">0.62</text><text x="343.7" y="431.2" class="node" fill="#DADBE3">0.53</text><text x="371.8" y="445.8" class="node" fill="#DADBE3">0.53</text><text x="399.8" y="462.5" class="node" fill="#DADBE3">0.53</text><text x="427.9" y="448.2" class="node" fill="#DB6581">0.1</text><text x="427.9" y="476.8" class="node" fill="#E5D0D3">0.44</text><text x="455.9" y="486.3" class="node" fill="#4A6FE3">1</text><text x="259.5" y="514.9" class="node" fill="#DADBE3">0.53</text><text x="287.6" y="524.4" class="node" fill="#4A6FE3">1</text><text x="35.1" y="583.2" class="node" fill="#4A6FE3">1</text><text x="63.1" y="565.7" class="node" fill="#4A6FE3">1</text><text x="91.2" y="575.2" class="node" fill="#7A8DE1">0.87</text><text x="63.1" y="600.6" class="node" fill="#4A6FE3">1</text></svg>
