<svg xmlns="http://www.w3.org/2000/svg" version="1.1" width="682" height="555" class="tree" data-char="151">
 <text x="678" y="14.7" text-anchor="end" class="stepsLabel">Character adds <tspan class="score">2</tspan> to tree score</text>
 <text x="678" y="26.4" text-anchor="end" class="stepsLabel"><tspan class="score">0</tspan> additional regions</text>
 <text x="678" y="38.1" text-anchor="end" class="stepsLabel">CI = 0.5; Fitch CI = 0.5; Fitch RI = 0.67</text>
 <text x="678" y="61.5" text-anchor="end" class="stepsLabel"><tspan dy="16">An optimal tree under:</tspan><tspan x="680" style="font-style:italic" class="thisAn" dy="1.2em">Equal weights</tspan><tspan x="680" style="font-style:italic" class="notThisAn" dy="1.2em">Implied weights, k = 2</tspan><tspan x="680" style="font-style:italic" class="notThisAn" dy="1.2em">IW, k = 3</tspan><tspan x="680" style="font-style:italic" class="notThisAn" dy="1.2em">IW, k = 4.5</tspan><tspan x="680" style="font-style:italic" class="notThisAn" dy="1.2em">IW, k = 7</tspan></text>
 <text x="100.4" y="538" fill="#91bfdb" class="flag">[1]</text>
 <text x="122.4" y="538" fill="#111" class="taxonLabel">Chiton</text>
 <text x="100.4" y="550" fill="#91bfdb" class="flag">[1]</text>
 <text x="122.4" y="550" fill="#111" class="taxonLabel">Wiwaxia corrugata</text>
 <text x="76.6" y="526" fill="#91bfdb" class="flag">[1]</text>
 <text x="98.6" y="526" fill="#111" class="taxonLabel">Dentalium</text>
 <text x="76.6" y="502" fill="#fc8d59" class="flag">[0]</text>
 <text x="98.6" y="502" fill="#111" class="taxonLabel">Sipunculus</text>
 <text x="76.6" y="514" fill="#fc8d59" class="flag">[0]</text>
 <text x="98.6" y="514" fill="#111" class="taxonLabel">Serpula</text>
 <text x="148.1" y="442" fill="grey" class="flag">[?]</text>
 <text x="170.1" y="442" fill="#111" class="taxonLabel">Cotyledion tylodes</text>
 <text x="148.1" y="454" fill="grey" class="flag">[?]</text>
 <text x="170.1" y="454" fill="#111" class="taxonLabel">Eccentrotheca</text>
 <text x="434.3" y="418" fill="grey" class="flag">[?]</text>
 <text x="456.3" y="418" fill="#111" class="taxonLabel">Acanthotretella spinosa</text>
 <text x="434.3" y="430" fill="grey" class="flag">[?]</text>
 <text x="456.3" y="430" fill="#111" class="taxonLabel">Siphonobolus priscus</text>
 <text x="410.5" y="406" fill="grey" class="flag">[?]</text>
 <text x="432.5" y="406" fill="#111" class="taxonLabel">Clupeafumosus socialis</text>
 <text x="386.6" y="394" fill="grey" class="flag">[?]</text>
 <text x="408.6" y="394" fill="#111" class="taxonLabel">Lingulellotreta malongensis</text>
 <text x="362.8" y="382" fill="grey" class="flag">[?]</text>
 <text x="384.8" y="382" fill="#111" class="taxonLabel">Lingulosacculus</text>
 <text x="338.9" y="370" fill="grey" class="flag">[?]</text>
 <text x="360.9" y="370" fill="#111" class="taxonLabel">Botsfordia</text>
 <text x="315.1" y="358" fill="grey" class="flag">[?]</text>
 <text x="337.1" y="358" fill="#111" class="taxonLabel">Mummpikia nuda</text>
 <text x="291.2" y="346" fill="grey" class="flag">[?]</text>
 <text x="313.2" y="346" fill="#111" class="taxonLabel">Eoobolus</text>
 <text x="267.4" y="334" fill="#fc8d59" class="flag">[0]</text>
 <text x="289.4" y="334" fill="#111" class="taxonLabel">Lingula</text>
 <text x="291.2" y="310" fill="grey" class="flag">[?]</text>
 <text x="313.2" y="310" fill="#111" class="taxonLabel">Mickwitzia muralensis</text>
 <text x="291.2" y="322" fill="grey" class="flag">[?]</text>
 <text x="313.2" y="322" fill="#111" class="taxonLabel">Pelagodiscus atlanticus</text>
 <text x="267.4" y="298" fill="grey" class="flag">[?]</text>
 <text x="289.4" y="298" fill="#111" class="taxonLabel">Micrina</text>
 <text x="315.1" y="274" fill="#fc8d59" class="flag">[0]</text>
 <text x="337.1" y="274" fill="#111" class="taxonLabel">Novocrania</text>
 <text x="315.1" y="286" fill="grey" class="flag">[?]</text>
 <text x="337.1" y="286" fill="#111" class="taxonLabel">Craniops</text>
 <text x="291.2" y="262" fill="grey" class="flag">[?]</text>
 <text x="313.2" y="262" fill="#111" class="taxonLabel">Ussunia</text>
 <text x="267.4" y="250" fill="grey" class="flag">[?]</text>
 <text x="289.4" y="250" fill="#111" class="taxonLabel">Gasconsia</text>
 <text x="386.6" y="226" fill="grey" class="flag">[?]</text>
 <text x="408.6" y="226" fill="#111" class="taxonLabel">Coolinia pecten</text>
 <text x="386.6" y="238" fill="grey" class="flag">[?]</text>
 <text x="408.6" y="238" fill="#111" class="taxonLabel">Antigonambonites planus</text>
 <text x="482" y="202" fill="grey" class="flag">[?]</text>
 <text x="504" y="202" fill="#111" class="taxonLabel">Orthis</text>
 <text x="482" y="214" fill="grey" class="flag">[?]</text>
 <text x="504" y="214" fill="#111" class="taxonLabel">Terebratulina</text>
 <text x="458.2" y="190" fill="grey" class="flag">[?]</text>
 <text x="480.2" y="190" fill="#111" class="taxonLabel">Alisina</text>
 <text x="434.3" y="178" fill="grey" class="flag">[?]</text>
 <text x="456.3" y="178" fill="#111" class="taxonLabel">Glyptoria</text>
 <text x="410.5" y="166" fill="grey" class="flag">[?]</text>
 <text x="432.5" y="166" fill="#111" class="taxonLabel">Nisusia sulcata</text>
 <text x="386.6" y="154" fill="grey" class="flag">[?]</text>
 <text x="408.6" y="154" fill="#111" class="taxonLabel">Kutorgina chengjiangensis</text>
 <text x="338.9" y="142" fill="grey" class="flag">[?]</text>
 <text x="360.9" y="142" fill="#111" class="taxonLabel">Longtancunella chengjiangensis</text>
 <text x="338.9" y="118" fill="grey" class="flag">[?]</text>
 <text x="360.9" y="118" fill="#111" class="taxonLabel">Yuganotheca elegans</text>
 <text x="338.9" y="130" fill="grey" class="flag">[?]</text>
 <text x="360.9" y="130" fill="#111" class="taxonLabel">Tomteluva perturbata</text>
 <text x="291.2" y="106" fill="grey" class="flag">[?]</text>
 <text x="313.2" y="106" fill="#111" class="taxonLabel">Salanygolina</text>
 <text x="291.2" y="82" fill="grey" class="flag">[?]</text>
 <text x="313.2" y="82" fill="#111" class="taxonLabel">Askepasma toddense</text>
 <text x="291.2" y="94" fill="grey" class="flag">[?]</text>
 <text x="313.2" y="94" fill="#111" class="taxonLabel">Micromitra</text>
 <text x="243.5" y="58" fill="grey" class="flag">[?]</text>
 <text x="265.5" y="58" fill="#111" class="taxonLabel">Pedunculotheca diania</text>
 <text x="243.5" y="70" fill="grey" class="flag">[?]</text>
 <text x="265.5" y="70" fill="#111" class="taxonLabel">Haplophrentis carinatus</text>
 <text x="219.7" y="46" fill="grey" class="flag">[?]</text>
 <text x="241.7" y="46" fill="#111" class="taxonLabel">Paterimitra</text>
 <text x="172" y="34" fill="grey" class="flag">[?]</text>
 <text x="194" y="34" fill="#111" class="taxonLabel">Heliomedusa orienta</text>
 <text x="172" y="10" fill="grey" class="flag">[?]</text>
 <text x="194" y="10" fill="#111" class="taxonLabel">Dailyatia</text>
 <text x="172" y="22" fill="grey" class="flag">[?]</text>
 <text x="194" y="22" fill="#111" class="taxonLabel">Halkieria evangelista</text>
 <text x="100.4" y="466" fill="#fc8d59" class="flag">[0]</text>
 <text x="122.4" y="466" fill="#111" class="taxonLabel">Phoronis</text>
 <text x="76.6" y="478" fill="#fc8d59" class="flag">[0]</text>
 <text x="98.6" y="478" fill="#111" class="taxonLabel">Flustra</text>
 <text x="52.7" y="490" fill="#91bfdb" class="flag">[1]</text>
 <text x="74.7" y="490" fill="#111" class="taxonLabel">Loxosomella</text>
 <path d="M5,484.9V451.2H28.9M5,484.9V518.5H28.9" stroke="darkgrey"></path>
 <path d="M28.9,451.2V415.4H52.7M52.7,415.4V355.8H76.6M76.6,355.8V248.6H100.4M100.4,248.6V52.3H124.2M124.2,52.3V13H148.1M148.1,13V7H172M148.1,13V19H172M124.2,52.3V91.5H148.1M148.1,91.5V31H172M148.1,91.5V152.1H172M172,152.1V52H195.8M195.8,52V43H219.7M195.8,52V61H219.7M219.7,61V55H243.5M219.7,61V67H243.5M172,152.1V252.2H195.8M195.8,252.2V180.9H219.7M219.7,180.9V104.3H243.5M243.5,104.3V85H267.4M267.4,85V79H291.2M267.4,85V91H291.2M243.5,104.3V123.6H267.4M267.4,123.6V103H291.2M267.4,123.6V144.2H291.2M291.2,144.2V121H315.1M315.1,121V115H338.9M315.1,121V127H338.9M291.2,144.2V167.4H315.1M315.1,167.4V139H338.9M315.1,167.4V195.8H338.9M338.9,195.8V162.6H362.8M362.8,162.6V151H386.6M362.8,162.6V174.2H386.6M386.6,174.2V163H410.5M386.6,174.2V185.5H410.5M410.5,185.5V175H434.3M410.5,185.5V196H434.3M434.3,196V187H458.2M434.3,196V205H458.2M458.2,205V199H482M458.2,205V211H482M338.9,195.8V229H362.8M362.8,229V223H386.6M362.8,229V235H386.6M219.7,180.9V257.5H243.5M243.5,257.5V247H267.4M243.5,257.5V268H267.4M267.4,268V259H291.2M267.4,268V277H291.2M291.2,277V271H315.1M291.2,277V283H315.1M195.8,252.2V323.5H219.7M219.7,323.5V304H243.5M243.5,304V295H267.4M243.5,304V313H267.4M267.4,313V307H291.2M267.4,313V319H291.2M219.7,323.5V343H243.5M243.5,343V331H267.4M243.5,343V354.9H267.4M267.4,354.9V343H291.2M267.4,354.9V366.8H291.2M291.2,366.8V355H315.1M291.2,366.8V378.6H315.1M315.1,378.6V367H338.9M315.1,378.6V390.2H338.9M338.9,390.2V379H362.8M338.9,390.2V401.5H362.8M362.8,401.5V391H386.6M362.8,401.5V412H386.6M386.6,412V403H410.5M386.6,412V421H410.5M410.5,421V415H434.3M410.5,421V427H434.3M100.4,248.6V445H124.2M124.2,445V439H148.1M124.2,445V451H148.1M76.6,355.8V463H100.4M52.7,415.4V475H76.6M28.9,518.5V505H52.7M52.7,505V499H76.6M52.7,505V511H76.6" stroke="#fc8d59"></path>
 <path d="M28.9,451.2V487H52.7M28.9,518.5V532H52.7M52.7,532V523H76.6M52.7,532V541H76.6M76.6,541V535H100.4M76.6,541V547H100.4" stroke="#91bfdb"></path>
 <text x="7" y="487.9" class="node" fill="#4A6FE3">1</text>
 <text x="30.9" y="454.2" class="node" fill="#ABB4E2">0.7</text>
 <text x="54.7" y="418.4" class="node" fill="#ABB4E2">0.7</text>
 <text x="78.6" y="358.8" class="node" fill="#ABB4E2">0.7</text>
 <text x="102.4" y="251.6" class="node" fill="#ABB4E2">0.7</text>
 <text x="126.2" y="55.3" class="node" fill="#CACDE3">0.59</text>
 <text x="150.1" y="16" class="node" fill="#7388E1">0.89</text>
 <text x="150.1" y="94.5" class="node" fill="#4A6FE3">1</text>
 <text x="174" y="155.1" class="node" fill="#5B78E2">0.96</text>
 <text x="197.8" y="55" class="node" fill="#AEB6E2">0.69</text>
 <text x="221.7" y="64" class="node" fill="#4A6FE3">1</text>
 <text x="197.8" y="255.2" class="node" fill="#5B78E2">0.96</text>
 <text x="221.7" y="183.9" class="node" fill="#4A6FE3">1</text>
 <text x="245.5" y="107.3" class="node" fill="#929FE1">0.79</text>
 <text x="269.4" y="88" class="node" fill="#4A6FE3">1</text>
 <text x="269.4" y="126.6" class="node" fill="#5B78E2">0.96</text>
 <text x="293.2" y="147.2" class="node" fill="#E6BDC5">0.38</text>
 <text x="317.1" y="124" class="node" fill="#627DE1">0.94</text>
 <text x="317.1" y="170.4" class="node" fill="#4A6FE3">1</text>
 <text x="340.9" y="198.8" class="node" fill="#E3DCDD">0.48</text>
 <text x="364.8" y="165.6" class="node" fill="#E3DCDD">0.48</text>
 <text x="388.6" y="177.2" class="node" fill="#E3DCDD">0.48</text>
 <text x="412.5" y="188.5" class="node" fill="#E3DCDD">0.48</text>
 <text x="436.3" y="199" class="node" fill="#4A6FE3">1</text>
 <text x="460.2" y="208" class="node" fill="#8F9DE1">0.8</text>
 <text x="364.8" y="232" class="node" fill="#4A6FE3">1</text>
 <text x="245.5" y="260.5" class="node" fill="#4A6FE3">1</text>
 <text x="269.4" y="271" class="node" fill="#4A6FE3">1</text>
 <text x="293.2" y="280" class="node" fill="#4A6FE3">1</text>
 <text x="221.7" y="326.5" class="node" fill="#AEB6E2">0.69</text>
 <text x="245.5" y="307" class="node" fill="#AEB6E2">0.69</text>
 <text x="269.4" y="316" class="node" fill="#ABB4E2">0.7</text>
 <text x="245.5" y="346" class="node" fill="#ABB4E2">0.7</text>
 <text x="269.4" y="357.9" class="node" fill="#ABB4E2">0.7</text>
 <text x="293.2" y="369.8" class="node" fill="#AEB6E2">0.69</text>
 <text x="317.1" y="381.6" class="node" fill="#AEB6E2">0.69</text>
 <text x="340.9" y="393.2" class="node" fill="#AEB6E2">0.69</text>
 <text x="364.8" y="404.5" class="node" fill="#E28699">0.2</text>
 <text x="388.6" y="415" class="node" fill="#DDDEE3">0.52</text>
 <text x="412.5" y="424" class="node" fill="#4A6FE3">1</text>
 <text x="126.2" y="448" class="node" fill="#E2899B">0.21</text>
 <text x="30.9" y="521.5" class="node" fill="#ABB4E2">0.7</text>
 <text x="54.7" y="508" class="node" fill="#4A6FE3">1</text>
 <text x="54.7" y="535" class="node" fill="#ABB4E2">0.7</text>
 <text x="78.6" y="544" class="node" fill="#ABB4E2">0.7</text></svg>
