<svg xmlns="http://www.w3.org/2000/svg" version="1.1" width="682" height="682" class="tree" data-char="79"><text x="678" y="15.4" text-anchor="end" class="stepsLabel">Character adds <tspan class="score">3</tspan> to tree score</text><text x="678" y="27.8" text-anchor="end" class="stepsLabel"><tspan class="score">0</tspan> additional regions</text><text x="678" y="40.2" text-anchor="end" class="stepsLabel">CI = 0.33; Fitch CI = 0.33; Fitch RI = 0.6</text><text x="678" y="65" text-anchor="end" class="stepsLabel"><tspan dy="16" fill="#34caaf">An optimal tree under:</tspan><tspan x="680" style="font-style:italic" class="notThisAn" dy="1.2em">Equal weights</tspan><tspan x="680" style="font-style:italic" class="notThisAn" dy="1.2em">Implied weights, k = 2</tspan><tspan x="680" style="font-style:italic" class="thisAn" dy="1.2em">IW, k = 3</tspan><tspan x="680" style="font-style:italic" class="notThisAn" dy="1.2em">IW, k = 4.5</tspan><tspan x="680" style="font-style:italic" class="notThisAn" dy="1.2em">IW, k = 7</tspan><tspan x="680" style="font-style:italic" class="notThisAn" dy="1.2em">IW, k = 10.5</tspan><tspan x="680" style="font-style:italic" class="notThisAn" dy="1.2em">IW, k = 16</tspan><tspan x="680" style="font-style:italic" class="notThisAn" dy="1.2em">IW, k = 24</tspan></text><text x="111" y="664.4" fill="#fc8d59" class="flag">[0]</text><text x="133" y="664.4" fill="#000" class="taxonLabel">Dentalium</text><text x="111" y="677" fill="#fc8d59" class="flag">[0]</text><text x="133" y="677" fill="#000" class="taxonLabel">Tonicella</text><text x="84.5" y="651.8" fill="#fc8d59" class="flag">[0]</text><text x="106.5" y="651.8" fill="#000" class="taxonLabel">Wiwaxia corrugata</text><text x="84.5" y="626.7" fill="#fc8d59" class="flag">[0]</text><text x="106.5" y="626.7" fill="#000" class="taxonLabel">Serpula</text><text x="84.5" y="639.2" fill="#fc8d59" class="flag">[0]</text><text x="106.5" y="639.2" fill="#000" class="taxonLabel">Sipunculus</text><text x="111" y="601.5" fill="#fc8d59" class="flag">[0]</text><text x="133" y="601.5" fill="#000" class="taxonLabel">Amathia</text><text x="111" y="614.1" fill="#fc8d59" class="flag">[0]</text><text x="133" y="614.1" fill="#000" class="taxonLabel">Flustra</text><text x="349.5" y="576.3" fill="#fc8d59" class="flag">[0]</text><text x="371.5" y="576.3" fill="#000" class="taxonLabel">Maxilites</text><text x="349.5" y="588.9" fill="#fc8d59" class="flag">[0]</text><text x="371.5" y="588.9" fill="#000" class="taxonLabel">Pauxillites</text><text x="323" y="563.7" fill="#fc8d59" class="flag">[0]</text><text x="345" y="563.7" fill="#000" class="taxonLabel">Haplophrentis carinatus</text><text x="296.5" y="551.2" fill="#fc8d59" class="flag">[0]</text><text x="318.5" y="551.2" fill="#000" class="taxonLabel">Paramicrocornus</text><text x="376" y="526" fill="#fc8d59" class="flag">[0]</text><text x="398" y="526" fill="#000" class="taxonLabel">Phoronis</text><text x="376" y="538.6" fill="#fc8d59" class="flag">[0]</text><text x="398" y="538.6" fill="#000" class="taxonLabel">Namacalathus</text><text x="349.5" y="513.4" fill="#fc8d59" class="flag">[0]</text><text x="371.5" y="513.4" fill="#000" class="taxonLabel">Cotyledion tylodes</text><text x="349.5" y="488.2" fill="#fc8d59" class="flag">[0]</text><text x="371.5" y="488.2" fill="#000" class="taxonLabel">Bactrotheca</text><text x="349.5" y="500.8" fill="#fc8d59" class="flag">[0]</text><text x="371.5" y="500.8" fill="#000" class="taxonLabel">Conotheca</text><text x="296.5" y="475.6" fill="#fc8d59" class="flag">[0]</text><text x="318.5" y="475.6" fill="#000" class="taxonLabel">Cupitheca holocyclata</text><text x="243.5" y="463.1" fill="#fc8d59" class="flag">[0]</text><text x="265.5" y="463.1" fill="#000" class="taxonLabel">Pedunculotheca diania</text><text x="349.5" y="437.9" fill="#91bfdb" class="flag">[1]</text><text x="371.5" y="437.9" fill="#000" class="taxonLabel">Coolinia pecten</text><text x="349.5" y="450.5" fill="#91bfdb" class="flag">[1]</text><text x="371.5" y="450.5" fill="#000" class="taxonLabel">Antigonambonites planus</text><text x="323" y="425.3" fill="#fc8d59" class="flag">[0]</text><text x="345" y="425.3" fill="#000" class="taxonLabel">Salanygolina</text><text x="455.5" y="400.1" fill="#91bfdb" class="flag">[1]</text><text x="477.5" y="400.1" fill="#000" class="taxonLabel">Alisina</text><text x="455.5" y="412.7" fill="#91bfdb" class="flag">[1]</text><text x="477.5" y="412.7" fill="#000" class="taxonLabel">Terebratulina</text><text x="429" y="387.5" fill="#91bfdb" class="flag">[1]</text><text x="451" y="387.5" fill="#000" class="taxonLabel">Orthis</text><text x="402.5" y="375" fill="#fc8d59" class="flag">[0]</text><text x="424.5" y="375" fill="#000" class="taxonLabel">Longtancunella chengjiangensis</text><text x="376" y="362.4" fill="#fc8d59" class="flag">[0]</text><text x="398" y="362.4" fill="#000" class="taxonLabel">Glyptoria</text><text x="349.5" y="349.8" fill="#fc8d59" class="flag">[0]</text><text x="371.5" y="349.8" fill="#000" class="taxonLabel">Tomteluva perturbata</text><text x="349.5" y="324.6" fill="#fc8d59" class="flag">[0]</text><text x="371.5" y="324.6" fill="#000" class="taxonLabel">Kutorgina chengjiangensis</text><text x="349.5" y="337.2" fill="#fc8d59" class="flag">[0]</text><text x="371.5" y="337.2" fill="#000" class="taxonLabel">Nisusia sulcata</text><text x="376" y="299.5" fill="#fc8d59" class="flag">[0]</text><text x="398" y="299.5" fill="#000" class="taxonLabel">Pelagodiscus atlanticus</text><text x="376" y="312" fill="#fc8d59" class="flag">[0]</text><text x="398" y="312" fill="#000" class="taxonLabel">Mickwitzia muralensis</text><text x="429" y="274.3" fill="#fc8d59" class="flag">[0]</text><text x="451" y="274.3" fill="#000" class="taxonLabel">Botsfordia</text><text x="429" y="286.9" fill="#fc8d59" class="flag">[0]</text><text x="451" y="286.9" fill="#000" class="taxonLabel">Mummpikia nuda</text><text x="402.5" y="261.7" fill="#fc8d59" class="flag">[0]</text><text x="424.5" y="261.7" fill="#000" class="taxonLabel">Eoobolus</text><text x="482" y="236.5" fill="#fc8d59" class="flag">[0]</text><text x="504" y="236.5" fill="#000" class="taxonLabel">Siphonobolus priscus</text><text x="482" y="249.1" fill="#fc8d59" class="flag">[0]</text><text x="504" y="249.1" fill="#000" class="taxonLabel">Acanthotretella spinosa</text><text x="455.5" y="223.9" fill="#fc8d59" class="flag">[0]</text><text x="477.5" y="223.9" fill="#000" class="taxonLabel">Lingulosacculus</text><text x="429" y="211.4" fill="#fc8d59" class="flag">[0]</text><text x="451" y="211.4" fill="#000" class="taxonLabel">Clupeafumosus socialis</text><text x="429" y="186.2" fill="#fc8d59" class="flag">[0]</text><text x="451" y="186.2" fill="#000" class="taxonLabel">Lingulellotreta malongensis</text><text x="429" y="198.8" fill="#fc8d59" class="flag">[0]</text><text x="451" y="198.8" fill="#000" class="taxonLabel">Lingula</text><text x="455.5" y="161" fill="#fc8d59" class="flag">[0]</text><text x="477.5" y="161" fill="#000" class="taxonLabel">Novocrania</text><text x="455.5" y="173.6" fill="#fc8d59" class="flag">[0]</text><text x="477.5" y="173.6" fill="#000" class="taxonLabel">Craniops</text><text x="429" y="148.4" fill="#fc8d59" class="flag">[0]</text><text x="451" y="148.4" fill="#000" class="taxonLabel">Ussunia</text><text x="402.5" y="135.8" fill="#fc8d59" class="flag">[0]</text><text x="424.5" y="135.8" fill="#000" class="taxonLabel">Heliomedusa orienta</text><text x="376" y="123.3" fill="#91bfdb" class="flag">[1]</text><text x="398" y="123.3" fill="#000" class="taxonLabel">Gasconsia</text><text x="349.5" y="110.7" fill="#fc8d59" class="flag">[0]</text><text x="371.5" y="110.7" fill="#000" class="taxonLabel">Micromitra</text><text x="296.5" y="98.1" fill="#fc8d59" class="flag">[0]</text><text x="318.5" y="98.1" fill="#000" class="taxonLabel">Askepasma toddense</text><text x="270" y="72.9" fill="grey" class="flag">[?]</text><text x="292" y="72.9" fill="#999" class="taxonLabel">Yuganotheca elegans</text><text x="270" y="85.5" fill="#fc8d59" class="flag">[0]</text><text x="292" y="85.5" fill="#000" class="taxonLabel">Micrina</text><text x="111" y="664.4" fill="#fc8d59" class="flag">[0]</text><text x="133" y="664.4" fill="#000" class="taxonLabel">Dentalium</text><text x="111" y="677" fill="#fc8d59" class="flag">[0]</text><text x="133" y="677" fill="#000" class="taxonLabel">Tonicella</text><text x="84.5" y="651.8" fill="#fc8d59" class="flag">[0]</text><text x="106.5" y="651.8" fill="#000" class="taxonLabel">Wiwaxia corrugata</text><text x="84.5" y="626.7" fill="#fc8d59" class="flag">[0]</text><text x="106.5" y="626.7" fill="#000" class="taxonLabel">Serpula</text><text x="84.5" y="639.2" fill="#fc8d59" class="flag">[0]</text><text x="106.5" y="639.2" fill="#000" class="taxonLabel">Sipunculus</text><path d="M5,405.4V166.6H31.5M31.5,166.6V7H58M31.5,166.6V326.3H58M58,326.3V47.7H84.5M84.5,47.7V19.6H111M84.5,47.7V75.9H111M111,75.9V32.2H137.5M111,75.9V119.6H137.5M137.5,119.6V44.8H164M137.5,119.6V194.5H164M164,194.5V57.3H190.5M164,194.5V331.7H190.5M190.5,331.7V171.2H217M217,171.2V76.2H243.5M243.5,76.2V69.9H270M243.5,76.2V82.5H270M217,171.2V266.2H243.5M243.5,266.2V144.9H270M270,144.9V95.1H296.5M270,144.9V194.7H296.5M296.5,194.7V119.9H323M323,119.9V107.7H349.5M323,119.9V132.1H349.5M349.5,132.1V143.9H376M376,143.9V132.8H402.5M376,143.9V154.9H402.5M402.5,154.9V145.4H429M402.5,154.9V164.3H429M429,164.3V158H455.5M429,164.3V170.6H455.5M296.5,194.7V269.5H323M323,269.5V236.3H349.5M349.5,236.3V204.4H376M376,204.4V189.5H402.5M402.5,189.5V183.2H429M402.5,189.5V195.8H429M376,204.4V219.4H402.5M402.5,219.4V208.4H429M402.5,219.4V230.4H429M429,230.4V220.9H455.5M429,230.4V239.8H455.5M455.5,239.8V233.5H482M455.5,239.8V246.1H482M349.5,236.3V268.1H376M376,268.1V258.7H402.5M376,268.1V277.6H402.5M402.5,277.6V271.3H429M402.5,277.6V283.9H429M323,269.5V302.7H349.5M349.5,302.7V296.5H376M349.5,302.7V309H376M243.5,266.2V387.6H270M270,387.6V343.4H296.5M296.5,343.4V327.9H323M323,327.9V321.6H349.5M323,327.9V334.2H349.5M296.5,343.4V359H323M323,359V346.8H349.5M323,359V371.2H349.5M349.5,371.2V359.4H376M349.5,371.2V383H376M376,383V372H402.5M270,387.6V431.7H296.5M296.5,431.7V422.3H323M190.5,331.7V492.1H217M217,492.1V460.1H243.5M217,492.1V524.2H243.5M243.5,524.2V489.2H270M270,489.2V472.6H296.5M270,489.2V505.7H296.5M296.5,505.7V491.5H323M323,491.5V485.2H349.5M323,491.5V497.8H349.5M296.5,505.7V519.8H323M323,519.8V510.4H349.5M323,519.8V529.3H349.5M349.5,529.3V523H376M349.5,529.3V535.6H376M243.5,524.2V559.2H270M270,559.2V548.2H296.5M270,559.2V570.2H296.5M296.5,570.2V560.7H323M296.5,570.2V579.6H323M323,579.6V573.3H349.5M323,579.6V585.9H349.5M58,326.3V604.8H84.5M84.5,604.8V598.5H111M84.5,604.8V611.1H111M5,405.4V644.1H31.5M31.5,644.1V630H58M58,630V623.7H84.5M58,630V636.2H84.5M31.5,644.1V658.3H58M58,658.3V648.8H84.5M58,658.3V667.7H84.5M84.5,667.7V661.4H111M84.5,667.7V674H111" stroke="#fc8d59"></path><path d="M349.5,132.1V120.3H376M376,383V394H402.5M402.5,394V384.5H429M402.5,394V403.4H429M429,403.4V397.1H455.5M429,403.4V409.7H455.5M296.5,431.7V441.2H323M323,441.2V434.9H349.5M323,441.2V447.5H349.5" stroke="#91bfdb"></path><text x="166" y="47.8" class="node" fill="#4A6FE3">1</text><text x="139.5" y="35.2" class="node" fill="#4A6FE3">1</text><text x="113" y="22.6" class="node" fill="#4A6FE3">1</text><text x="60" y="10" class="node" fill="#D75376">0.05</text><text x="7" y="408.4" class="node" fill="#D75376">0.05</text><text x="33.5" y="169.6" class="node" fill="#D75376">0.05</text><text x="60" y="329.3" class="node" fill="#D75376">0.05</text><text x="86.5" y="50.7" class="node" fill="#4A6FE3">1</text><text x="113" y="78.9" class="node" fill="#D4486F">0.02</text><text x="139.5" y="122.6" class="node" fill="#D64F73">0.04</text><text x="166" y="197.5" class="node" fill="#D64F73">0.04</text><text x="192.5" y="334.7" class="node" fill="#D64F73">0.04</text><text x="219" y="174.2" class="node" fill="#D64F73">0.04</text><text x="245.5" y="79.2" class="node" fill="#D85778">0.06</text><text x="245.5" y="269.2" class="node" fill="#D85778">0.06</text><text x="272" y="147.9" class="node" fill="#4A6FE3">1</text><text x="298.5" y="197.7" class="node" fill="#4A6FE3">1</text><text x="325" y="122.9" class="node" fill="#D85778">0.06</text><text x="351.5" y="135.1" class="node" fill="#D85778">0.06</text><text x="378" y="146.9" class="node" fill="#D85778">0.06</text><text x="404.5" y="157.9" class="node" fill="#D85778">0.06</text><text x="431" y="167.3" class="node" fill="#4A6FE3">1</text><text x="325" y="272.5" class="node" fill="#E6B1BB">0.34</text><text x="351.5" y="239.3" class="node" fill="#4A6FE3">1</text><text x="378" y="207.4" class="node" fill="#D85778">0.06</text><text x="404.5" y="192.5" class="node" fill="#D85778">0.06</text><text x="404.5" y="222.4" class="node" fill="#D85778">0.06</text><text x="431" y="233.4" class="node" fill="#4F72E2">0.99</text><text x="457.5" y="242.8" class="node" fill="#5F7BE1">0.95</text><text x="378" y="271.1" class="node" fill="#95A1E2">0.78</text><text x="404.5" y="280.6" class="node" fill="#B6BDE3">0.66</text><text x="351.5" y="305.7" class="node" fill="#4A6FE3">1</text><text x="272" y="390.6" class="node" fill="#4A6FE3">1</text><text x="298.5" y="346.4" class="node" fill="#4A6FE3">1</text><text x="325" y="330.9" class="node" fill="#D75376">0.05</text><text x="325" y="362" class="node" fill="#D64F73">0.04</text><text x="351.5" y="374.2" class="node" fill="#4A6FE3">1</text><text x="378" y="386" class="node" fill="#D75376">0.05</text><text x="404.5" y="397" class="node" fill="#D75376">0.05</text><text x="431" y="406.4" class="node" fill="#D75376">0.05</text><text x="298.5" y="434.7" class="node" fill="#D75376">0.05</text><text x="325" y="444.2" class="node" fill="#4A6FE3">1</text><text x="219" y="495.1" class="node" fill="#D85778">0.06</text><text x="245.5" y="527.2" class="node" fill="#E6B1BB">0.34</text><text x="166" y="47.8" class="node" fill="#929FE1">0.79</text><text x="139.5" y="35.2" class="node" fill="#4A6FE3">1</text><text x="113" y="22.6" class="node" fill="#4A6FE3">1</text><text x="60" y="10" class="node" fill="#4A6FE3">1</text><text x="7" y="408.4" class="node" fill="#4A6FE3">1</text><text x="33.5" y="169.6" class="node" fill="#4A6FE3">1</text><text x="60" y="329.3" class="node" fill="#4A6FE3">1</text><text x="86.5" y="50.7" class="node" fill="#4A6FE3">1</text></svg>
