<svg xmlns="http://www.w3.org/2000/svg" version="1.1" width="682" height="612" class="tree" data-char="133"><text x="678" y="15.4" text-anchor="end" class="stepsLabel">Character adds <tspan class="score">4</tspan> to tree score</text><text x="678" y="27.8" text-anchor="end" class="stepsLabel"><tspan class="score">0</tspan> additional regions</text><text x="678" y="40.2" text-anchor="end" class="stepsLabel">CI = 0.25; Fitch CI = 0.25; Fitch RI = 0.4</text><text x="678" y="65" text-anchor="end" class="stepsLabel"><tspan dy="16">An optimal tree under:</tspan><tspan x="680" style="font-style:italic" class="notThisAn" dy="1.2em">Equal weights</tspan><tspan x="680" style="font-style:italic" class="notThisAn" dy="1.2em">Implied weights, k = 2</tspan><tspan x="680" style="font-style:italic" class="notThisAn" dy="1.2em">IW, k = 3</tspan><tspan x="680" style="font-style:italic" class="notThisAn" dy="1.2em">IW, k = 4.5</tspan><tspan x="680" style="font-style:italic" class="notThisAn" dy="1.2em">IW, k = 7</tspan><tspan x="680" style="font-style:italic" class="thisAn" dy="1.2em">IW, k = 10.5</tspan><tspan x="680" style="font-style:italic" class="notThisAn" dy="1.2em">IW, k = 16</tspan><tspan x="680" style="font-style:italic" class="notThisAn" dy="1.2em">IW, k = 24</tspan></text><text x="73.1" y="594.3" fill="#e2e2a2" class="flag">[1]</text><text x="95.1" y="594.3" fill="#000" class="taxonLabel">Serpula</text><text x="73.1" y="607" fill="#91bfdb" class="flag">[2]</text><text x="95.1" y="607" fill="#000" class="taxonLabel">Sipunculus</text><text x="95.9" y="568.9" fill="#91bfdb" class="flag">[2]</text><text x="117.9" y="568.9" fill="#000" class="taxonLabel">Tonicella</text><text x="95.9" y="581.6" fill="#91bfdb" class="flag">[2]</text><text x="117.9" y="581.6" fill="#000" class="taxonLabel">Dentalium</text><text x="73.1" y="556.2" fill="grey" class="flag">[?]</text><text x="95.1" y="556.2" fill="#999" class="taxonLabel">Wiwaxia corrugata</text><text x="141.3" y="518.1" fill="#e2e2a2" class="flag">[1]</text><text x="163.3" y="518.1" fill="#000" class="taxonLabel">Phoronis</text><text x="141.3" y="530.8" fill="grey" class="flag">[?]</text><text x="163.3" y="530.8" fill="#999" class="taxonLabel">Namacalathus</text><text x="118.6" y="505.4" fill="grey" class="flag">[?]</text><text x="140.6" y="505.4" fill="#999" class="taxonLabel">Cotyledion tylodes</text><text x="232.1" y="480" fill="grey" class="flag">[?]</text><text x="254.1" y="480" fill="#999" class="taxonLabel">Haplophrentis carinatus</text><text x="232.1" y="492.7" fill="grey" class="flag">[?]</text><text x="254.1" y="492.7" fill="#999" class="taxonLabel">Pedunculotheca diania</text><text x="391.1" y="454.6" fill="grey" class="flag">[?]</text><text x="413.1" y="454.6" fill="#999" class="taxonLabel">Craniops</text><text x="391.1" y="467.3" fill="#91bfdb" class="flag">[2]</text><text x="413.1" y="467.3" fill="#000" class="taxonLabel">Novocrania</text><text x="368.4" y="441.9" fill="grey" class="flag">[?]</text><text x="390.4" y="441.9" fill="#999" class="taxonLabel">Ussunia</text><text x="345.7" y="429.2" fill="grey" class="flag">[?]</text><text x="367.7" y="429.2" fill="#999" class="taxonLabel">Heliomedusa orienta</text><text x="323" y="416.5" fill="grey" class="flag">[?]</text><text x="345" y="416.5" fill="#999" class="taxonLabel">Gasconsia</text><text x="368.4" y="391.1" fill="grey" class="flag">[?]</text><text x="390.4" y="391.1" fill="#999" class="taxonLabel">Mummpikia nuda</text><text x="368.4" y="403.8" fill="grey" class="flag">[?]</text><text x="390.4" y="403.8" fill="#999" class="taxonLabel">Botsfordia</text><text x="345.7" y="378.4" fill="grey" class="flag">[?]</text><text x="367.7" y="378.4" fill="#999" class="taxonLabel">Eoobolus</text><text x="436.6" y="353" fill="#e2e2a2" class="flag">[1]</text><text x="458.6" y="353" fill="#000" class="taxonLabel">Siphonobolus priscus</text><text x="436.6" y="365.7" fill="grey" class="flag">[?]</text><text x="458.6" y="365.7" fill="#999" class="taxonLabel">Acanthotretella spinosa</text><text x="413.9" y="340.3" fill="grey" class="flag">[?]</text><text x="435.9" y="340.3" fill="#999" class="taxonLabel">Lingulosacculus</text><text x="391.1" y="327.6" fill="grey" class="flag">[?]</text><text x="413.1" y="327.6" fill="#999" class="taxonLabel">Clupeafumosus socialis</text><text x="391.1" y="302.1" fill="#e2e2a2" class="flag">[1]</text><text x="413.1" y="302.1" fill="#000" class="taxonLabel">Lingula</text><text x="391.1" y="314.9" fill="grey" class="flag">[?]</text><text x="413.1" y="314.9" fill="#999" class="taxonLabel">Lingulellotreta malongensis</text><text x="345.7" y="289.4" fill="#e2e2a2" class="flag">[1]</text><text x="367.7" y="289.4" fill="#000" class="taxonLabel">Pelagodiscus atlanticus</text><text x="368.4" y="264" fill="grey" class="flag">[?]</text><text x="390.4" y="264" fill="#999" class="taxonLabel">Yuganotheca elegans</text><text x="368.4" y="276.7" fill="grey" class="flag">[?]</text><text x="390.4" y="276.7" fill="#999" class="taxonLabel">Tomteluva perturbata</text><text x="345.7" y="251.3" fill="grey" class="flag">[?]</text><text x="367.7" y="251.3" fill="#999" class="taxonLabel">Salanygolina</text><text x="368.4" y="225.9" fill="grey" class="flag">[?]</text><text x="390.4" y="225.9" fill="#999" class="taxonLabel">Coolinia pecten</text><text x="368.4" y="238.6" fill="grey" class="flag">[?]</text><text x="390.4" y="238.6" fill="#999" class="taxonLabel">Antigonambonites planus</text><text x="482" y="200.5" fill="grey" class="flag">[?]</text><text x="504" y="200.5" fill="#999" class="taxonLabel">Orthis</text><text x="482" y="213.2" fill="#91bfdb" class="flag">[2]</text><text x="504" y="213.2" fill="#000" class="taxonLabel">Terebratulina</text><text x="459.3" y="187.8" fill="grey" class="flag">[?]</text><text x="481.3" y="187.8" fill="#999" class="taxonLabel">Alisina</text><text x="436.6" y="175.1" fill="grey" class="flag">[?]</text><text x="458.6" y="175.1" fill="#999" class="taxonLabel">Longtancunella chengjiangensis</text><text x="413.9" y="162.4" fill="grey" class="flag">[?]</text><text x="435.9" y="162.4" fill="#999" class="taxonLabel">Glyptoria</text><text x="391.1" y="149.7" fill="grey" class="flag">[?]</text><text x="413.1" y="149.7" fill="#999" class="taxonLabel">Nisusia sulcata</text><text x="368.4" y="137" fill="grey" class="flag">[?]</text><text x="390.4" y="137" fill="#999" class="taxonLabel">Kutorgina chengjiangensis</text><text x="323" y="111.6" fill="grey" class="flag">[?]</text><text x="345" y="111.6" fill="#999" class="taxonLabel">Askepasma toddense</text><text x="323" y="124.3" fill="grey" class="flag">[?]</text><text x="345" y="124.3" fill="#999" class="taxonLabel">Micromitra</text><text x="254.9" y="98.9" fill="grey" class="flag">[?]</text><text x="276.9" y="98.9" fill="#999" class="taxonLabel">Mickwitzia muralensis</text><text x="232.1" y="86.2" fill="grey" class="flag">[?]</text><text x="254.1" y="86.2" fill="#999" class="taxonLabel">Micrina</text><text x="186.7" y="73.5" fill="grey" class="flag">[?]</text><text x="208.7" y="73.5" fill="#999" class="taxonLabel">Paterimitra</text><text x="164" y="60.8" fill="grey" class="flag">[?]</text><text x="186" y="60.8" fill="#999" class="taxonLabel">Halkieria evangelista</text><text x="141.3" y="48.1" fill="grey" class="flag">[?]</text><text x="163.3" y="48.1" fill="#999" class="taxonLabel">Dailyatia</text><text x="118.6" y="35.4" fill="grey" class="flag">[?]</text><text x="140.6" y="35.4" fill="#999" class="taxonLabel">Eccentrotheca</text><text x="95.9" y="10" fill="#91bfdb" class="flag">[2]</text><text x="117.9" y="10" fill="#000" class="taxonLabel">Flustra</text><text x="95.9" y="22.7" fill="#91bfdb" class="flag">[2]</text><text x="117.9" y="22.7" fill="#000" class="taxonLabel">Amathia</text><text x="50.4" y="543.5" fill="#e2e2a2" class="flag">[1]</text><text x="72.4" y="543.5" fill="#000" class="taxonLabel">Loxosomella</text><path d="M5,462.5V344.9H27.7M27.7,344.9V149.3H50.4M50.4,149.3V13.4H73.1M73.1,13.4V7H95.9M73.1,13.4V19.7H95.9M50.4,149.3V285.2H73.1M73.1,285.2V58.4H95.9M95.9,58.4V32.4H118.6M95.9,58.4V84.5H118.6M118.6,84.5V45.1H141.3M118.6,84.5V123.8H141.3M141.3,123.8V57.8H164M141.3,123.8V189.8H164M164,189.8V70.5H186.7M164,189.8V309.1H186.7M186.7,309.1V134.8H209.4M209.4,134.8V83.2H232.1M209.4,134.8V186.4H232.1M232.1,186.4V95.9H254.9M232.1,186.4V276.9H254.9M254.9,276.9V168.9H277.6M277.6,168.9V115H300.3M300.3,115V108.6H323M300.3,115V121.3H323M277.6,168.9V222.9H300.3M300.3,222.9V187.9H323M323,187.9V146.5H345.7M345.7,146.5V134H368.4M345.7,146.5V159H368.4M368.4,159V146.7H391.1M368.4,159V171.3H391.1M391.1,171.3V159.4H413.9M391.1,171.3V183.2H413.9M413.9,183.2V172.1H436.6M413.9,183.2V194.4H436.6M436.6,194.4V184.8H459.3M436.6,194.4V203.9H459.3M459.3,203.9V197.5H482M459.3,203.9V210.2H482M323,187.9V229.3H345.7M345.7,229.3V222.9H368.4M345.7,229.3V235.6H368.4M300.3,222.9V257.9H323M323,257.9V248.3H345.7M323,257.9V267.4H345.7M345.7,267.4V261H368.4M345.7,267.4V273.7H368.4M254.9,276.9V384.8H277.6M277.6,384.8V344.2H300.3M277.6,384.8V425.4H300.3M300.3,425.4V413.5H323M300.3,425.4V437.3H323M323,437.3V426.2H345.7M323,437.3V448.4H345.7M345.7,448.4V438.9H368.4M345.7,448.4V457.9H368.4M368.4,457.9V451.6H391.1M368.4,457.9V464.3H391.1M186.7,309.1V483.3H209.4M209.4,483.3V477H232.1M209.4,483.3V489.7H232.1M73.1,285.2V511.9H95.9M5,462.5V580.2H27.7M27.7,580.2V562.7H50.4M50.4,562.7V553.2H73.1M50.4,562.7V572.2H73.1M73.1,572.2V565.9H95.9M73.1,572.2V578.6H95.9M27.7,580.2V597.6H50.4M50.4,597.6V604H73.1" stroke="#91bfdb"></path><path d="M300.3,344.2V303.5H323M323,303.5V286.4H345.7M323,303.5V320.6H345.7M345.7,320.6V305.5H368.4M368.4,305.5V299.1H391.1M368.4,305.5V311.9H391.1M345.7,320.6V335.7H368.4M368.4,335.7V324.6H391.1M368.4,335.7V346.8H391.1M391.1,346.8V337.3H413.9M391.1,346.8V356.3H413.9M413.9,356.3V350H436.6M413.9,356.3V362.7H436.6M118.6,521.4V515.1H141.3M27.7,344.9V540.5H50.4M50.4,597.6V591.3H73.1" stroke="#e2e2a2"></path><path d="M300.3,344.2V384.9H323M323,384.9V375.4H345.7M323,384.9V394.4H345.7M345.7,394.4V388.1H368.4M345.7,394.4V400.8H368.4M95.9,511.9V502.4H118.6M95.9,511.9V521.4H118.6M118.6,521.4V527.8H141.3" stroke="darkgrey"></path><text x="7" y="465.5" class="node" fill="#4A6FE3">1</text><text x="29.7" y="347.9" class="node" fill="#4A6FE3">1</text><text x="52.4" y="152.3" class="node" fill="#E0E0E2">0.51</text><text x="75.1" y="16.4" class="node" fill="#4A6FE3">1</text><text x="75.1" y="288.2" class="node" fill="#E0E0E2">0.51</text><text x="97.9" y="61.4" class="node" fill="#DB617F">0.09</text><text x="120.6" y="87.5" class="node" fill="#A8B1E2">0.71</text><text x="143.3" y="126.8" class="node" fill="#D2D4E3">0.57</text><text x="166" y="192.8" class="node" fill="#4F72E2">0.99</text><text x="188.7" y="312.1" class="node" fill="#BFC4E3">0.63</text><text x="211.4" y="137.8" class="node" fill="#E3DFE0">0.49</text><text x="234.1" y="189.4" class="node" fill="#E6AEB8">0.33</text><text x="256.9" y="279.9" class="node" fill="#E5A5B1">0.3</text><text x="279.6" y="171.9" class="node" fill="#8091E1">0.85</text><text x="302.3" y="118" class="node" fill="#4A6FE3">1</text><text x="302.3" y="225.9" class="node" fill="#8091E1">0.85</text><text x="325" y="190.9" class="node" fill="#A3ADE2">0.73</text><text x="347.7" y="149.5" class="node" fill="#A6AFE2">0.72</text><text x="370.4" y="162" class="node" fill="#A6AFE2">0.72</text><text x="393.1" y="174.3" class="node" fill="#4F72E2">0.99</text><text x="415.9" y="186.2" class="node" fill="#4F72E2">0.99</text><text x="438.6" y="197.4" class="node" fill="#4A6FE3">1</text><text x="461.3" y="206.9" class="node" fill="#4F72E2">0.99</text><text x="347.7" y="232.3" class="node" fill="#4A6FE3">1</text><text x="325" y="260.9" class="node" fill="#D2D4E3">0.57</text><text x="347.7" y="270.4" class="node" fill="#CACDE3">0.59</text><text x="279.6" y="387.8" class="node" fill="#E5A5B1">0.3</text><text x="302.3" y="347.2" class="node" fill="#DDDEE3">0.52</text><text x="325" y="306.5" class="node" fill="#DDDEE3">0.52</text><text x="347.7" y="323.6" class="node" fill="#929FE1">0.79</text><text x="370.4" y="308.5" class="node" fill="#929FE1">0.79</text><text x="370.4" y="338.7" class="node" fill="#4A6FE3">1</text><text x="393.1" y="349.8" class="node" fill="#E6ABB6">0.32</text><text x="415.9" y="359.3" class="node" fill="#4A6FE3">1</text><text x="325" y="387.9" class="node" fill="#4F72E2">0.99</text><text x="347.7" y="397.4" class="node" fill="#929FE1">0.79</text><text x="302.3" y="428.4" class="node" fill="#E3DFE0">0.49</text><text x="325" y="440.3" class="node" fill="#E3DFE0">0.49</text><text x="347.7" y="451.4" class="node" fill="#4F72E2">0.99</text><text x="370.4" y="460.9" class="node" fill="#4A6FE3">1</text><text x="211.4" y="486.3" class="node" fill="#4A6FE3">1</text><text x="97.9" y="514.9" class="node" fill="#E59FAC">0.29</text><text x="120.6" y="524.4" class="node" fill="#4A6FE3">1</text><text x="29.7" y="583.2" class="node" fill="#4A6FE3">1</text><text x="52.4" y="565.7" class="node" fill="#4A6FE3">1</text><text x="75.1" y="575.2" class="node" fill="#A3ADE2">0.73</text><text x="52.4" y="600.6" class="node" fill="#4A6FE3">1</text></svg>
