<svg xmlns="http://www.w3.org/2000/svg" version="1.1" width="682" height="612" class="tree" data-char="210"><text x="678" y="14.1" text-anchor="end" class="stepsLabel">Character adds <tspan class="score">3</tspan> to tree score</text><text x="678" y="25.2" text-anchor="end" class="stepsLabel"><tspan class="score">0</tspan> additional regions</text><text x="678" y="36.3" text-anchor="end" class="stepsLabel">CI = 0.67; Fitch CI = 0.67; Fitch RI = 0.8</text><text x="678" y="58.5" text-anchor="end" class="stepsLabel"><tspan dy="16" fill="#34caaf">An optimal tree under:</tspan><tspan x="680" style="font-style:italic" class="thisAn" dy="1.2em">Equal weights</tspan><tspan x="680" style="font-style:italic" class="notThisAn" dy="1.2em">Implied weights, k = 2</tspan><tspan x="680" style="font-style:italic" class="notThisAn" dy="1.2em">IW, k = 3</tspan><tspan x="680" style="font-style:italic" class="notThisAn" dy="1.2em">IW, k = 4.5</tspan><tspan x="680" style="font-style:italic" class="notThisAn" dy="1.2em">IW, k = 7</tspan><tspan x="680" style="font-style:italic" class="notThisAn" dy="1.2em">IW, k = 10.5</tspan><tspan x="680" style="font-style:italic" class="notThisAn" dy="1.2em">IW, k = 16</tspan><tspan x="680" style="font-style:italic" class="notThisAn" dy="1.2em">IW, k = 24</tspan></text><text x="91.7" y="595.7" fill="grey" class="flag">[?]</text><text x="113.7" y="595.7" fill="#999" class="taxonLabel">Wiwaxia corrugata</text><text x="91.7" y="607" fill="#fdae61" class="flag">[1]</text><text x="113.7" y="607" fill="#000" class="taxonLabel">Dentalium</text><text x="70" y="584.5" fill="#fdae61" class="flag">[1]</text><text x="92" y="584.5" fill="#000" class="taxonLabel">Tonicella</text><text x="70" y="561.9" fill="#abd9e9" class="flag">[2]</text><text x="92" y="561.9" fill="#000" class="taxonLabel">Serpula</text><text x="70" y="573.2" fill="#abd9e9" class="flag">[2]</text><text x="92" y="573.2" fill="#000" class="taxonLabel">Sipunculus</text><text x="373.6" y="528.2" fill="grey" class="flag">[?]</text><text x="395.6" y="528.2" fill="#999" class="taxonLabel">Coolinia pecten</text><text x="373.6" y="539.4" fill="grey" class="flag">[?]</text><text x="395.6" y="539.4" fill="#999" class="taxonLabel">Antigonambonites planus</text><text x="482" y="505.6" fill="#2c7bb6" class="flag">[3]</text><text x="504" y="505.6" fill="#000" class="taxonLabel">Terebratulina</text><text x="482" y="516.9" fill="grey" class="flag">[?]</text><text x="504" y="516.9" fill="#999" class="taxonLabel">Orthis</text><text x="460.3" y="494.4" fill="grey" class="flag">[?]</text><text x="482.3" y="494.4" fill="#999" class="taxonLabel">Alisina</text><text x="438.6" y="483.1" fill="grey" class="flag">[?]</text><text x="460.6" y="483.1" fill="#999" class="taxonLabel">Longtancunella chengjiangensis</text><text x="417" y="471.8" fill="grey" class="flag">[?]</text><text x="439" y="471.8" fill="#999" class="taxonLabel">Glyptoria</text><text x="395.3" y="460.6" fill="grey" class="flag">[?]</text><text x="417.3" y="460.6" fill="#999" class="taxonLabel">Nisusia sulcata</text><text x="373.6" y="449.3" fill="grey" class="flag">[?]</text><text x="395.6" y="449.3" fill="#999" class="taxonLabel">Kutorgina chengjiangensis</text><text x="351.9" y="426.8" fill="grey" class="flag">[?]</text><text x="373.9" y="426.8" fill="#999" class="taxonLabel">Tomteluva perturbata</text><text x="351.9" y="438" fill="grey" class="flag">[?]</text><text x="373.9" y="438" fill="#999" class="taxonLabel">Yuganotheca elegans</text><text x="308.5" y="415.5" fill="grey" class="flag">[?]</text><text x="330.5" y="415.5" fill="#999" class="taxonLabel">Salanygolina</text><text x="286.9" y="404.2" fill="grey" class="flag">[?]</text><text x="308.9" y="404.2" fill="#999" class="taxonLabel">Askepasma toddense</text><text x="395.3" y="381.7" fill="grey" class="flag">[?]</text><text x="417.3" y="381.7" fill="#999" class="taxonLabel">Acanthotretella spinosa</text><text x="395.3" y="393" fill="grey" class="flag">[?]</text><text x="417.3" y="393" fill="#999" class="taxonLabel">Siphonobolus priscus</text><text x="373.6" y="370.5" fill="grey" class="flag">[?]</text><text x="395.6" y="370.5" fill="#999" class="taxonLabel">Clupeafumosus socialis</text><text x="373.6" y="347.9" fill="grey" class="flag">[?]</text><text x="395.6" y="347.9" fill="#999" class="taxonLabel">Lingulosacculus</text><text x="373.6" y="359.2" fill="grey" class="flag">[?]</text><text x="395.6" y="359.2" fill="#999" class="taxonLabel">Lingulellotreta malongensis</text><text x="373.6" y="325.4" fill="grey" class="flag">[?]</text><text x="395.6" y="325.4" fill="#999" class="taxonLabel">Mummpikia nuda</text><text x="373.6" y="336.7" fill="#2c7bb6" class="flag">[3]</text><text x="395.6" y="336.7" fill="#000" class="taxonLabel">Pelagodiscus atlanticus</text><text x="351.9" y="314.1" fill="#2c7bb6" class="flag">[3]</text><text x="373.9" y="314.1" fill="#000" class="taxonLabel">Lingula</text><text x="330.2" y="291.6" fill="grey" class="flag">[?]</text><text x="352.2" y="291.6" fill="#999" class="taxonLabel">Eoobolus</text><text x="330.2" y="302.9" fill="grey" class="flag">[?]</text><text x="352.2" y="302.9" fill="#999" class="taxonLabel">Botsfordia</text><text x="395.3" y="269.1" fill="grey" class="flag">[?]</text><text x="417.3" y="269.1" fill="#999" class="taxonLabel">Craniops</text><text x="395.3" y="280.3" fill="#2c7bb6" class="flag">[3]</text><text x="417.3" y="280.3" fill="#000" class="taxonLabel">Novocrania</text><text x="373.6" y="257.8" fill="grey" class="flag">[?]</text><text x="395.6" y="257.8" fill="#999" class="taxonLabel">Ussunia</text><text x="351.9" y="246.5" fill="grey" class="flag">[?]</text><text x="373.9" y="246.5" fill="#999" class="taxonLabel">Heliomedusa orienta</text><text x="330.2" y="235.3" fill="grey" class="flag">[?]</text><text x="352.2" y="235.3" fill="#999" class="taxonLabel">Mickwitzia muralensis</text><text x="330.2" y="212.8" fill="grey" class="flag">[?]</text><text x="352.2" y="212.8" fill="#999" class="taxonLabel">Micromitra</text><text x="330.2" y="224" fill="grey" class="flag">[?]</text><text x="352.2" y="224" fill="#999" class="taxonLabel">Gasconsia</text><text x="243.5" y="201.5" fill="grey" class="flag">[?]</text><text x="265.5" y="201.5" fill="#999" class="taxonLabel">Micrina</text><text x="373.6" y="179" fill="grey" class="flag">[?]</text><text x="395.6" y="179" fill="#999" class="taxonLabel">Pauxillites</text><text x="373.6" y="190.2" fill="grey" class="flag">[?]</text><text x="395.6" y="190.2" fill="#999" class="taxonLabel">Maxilites</text><text x="351.9" y="167.7" fill="grey" class="flag">[?]</text><text x="373.9" y="167.7" fill="#999" class="taxonLabel">Haplophrentis carinatus</text><text x="330.2" y="156.4" fill="grey" class="flag">[?]</text><text x="352.2" y="156.4" fill="#999" class="taxonLabel">Paramicrocornus</text><text x="308.5" y="145.2" fill="grey" class="flag">[?]</text><text x="330.5" y="145.2" fill="#999" class="taxonLabel">Probactrotheca</text><text x="286.9" y="133.9" fill="grey" class="flag">[?]</text><text x="308.9" y="133.9" fill="#999" class="taxonLabel">Decoritheca</text><text x="265.2" y="122.6" fill="grey" class="flag">[?]</text><text x="287.2" y="122.6" fill="#999" class="taxonLabel">Conotheca</text><text x="243.5" y="111.4" fill="grey" class="flag">[?]</text><text x="265.5" y="111.4" fill="#999" class="taxonLabel">Pedunculotheca diania</text><text x="200.1" y="100.1" fill="grey" class="flag">[?]</text><text x="222.1" y="100.1" fill="#999" class="taxonLabel">Paterimitra</text><text x="178.5" y="88.8" fill="grey" class="flag">[?]</text><text x="200.5" y="88.8" fill="#999" class="taxonLabel">Halkieria evangelista</text><text x="156.8" y="77.6" fill="grey" class="flag">[?]</text><text x="178.8" y="77.6" fill="#999" class="taxonLabel">Dailyatia</text><text x="135.1" y="66.3" fill="#fdae61" class="flag">[1]</text><text x="157.1" y="66.3" fill="#000" class="taxonLabel">Phoronis</text><text x="113.4" y="55.1" fill="grey" class="flag">[?]</text><text x="135.4" y="55.1" fill="#999" class="taxonLabel">Cotyledion tylodes</text><text x="91.7" y="43.8" fill="grey" class="flag">[?]</text><text x="113.7" y="43.8" fill="#999" class="taxonLabel">Eccentrotheca</text><text x="113.4" y="10" fill="#abd9e9" class="flag">[2]</text><text x="135.4" y="10" fill="#000" class="taxonLabel">Flustra</text><text x="113.4" y="21.3" fill="#abd9e9" class="flag">[2]</text><text x="135.4" y="21.3" fill="#000" class="taxonLabel">Amathia</text><text x="91.7" y="32.5" fill="grey" class="flag">[?]</text><text x="113.7" y="32.5" fill="#999" class="taxonLabel">Namacalathus</text><text x="48.4" y="550.7" fill="#abd9e9" class="flag">[2]</text><text x="70.4" y="550.7" fill="#000" class="taxonLabel">Loxosomella</text><path d="M5,434.8V292.4H26.7M26.7,292.4V37.2H48.4M48.4,37.2V21.1H70M70,21.1V12.6H91.7M91.7,12.6V7H113.4M91.7,12.6V18.3H113.4M70,21.1V29.5H91.7M48.4,37.2V53.2H70M26.7,292.4V547.7H48.4M5,434.8V577.2H26.7M26.7,577.2V564.6H48.4M48.4,564.6V558.9H70M48.4,564.6V570.2H70" stroke="#abd9e9"></path><path d="M70,53.2V40.8H91.7M70,53.2V65.7H91.7M91.7,65.7V52.1H113.4M91.7,65.7V79.4H113.4M113.4,79.4V95.4H135.1M135.1,95.4V74.6H156.8M135.1,95.4V116.2H156.8M156.8,116.2V85.8H178.5M156.8,116.2V146.5H178.5M178.5,146.5V97.1H200.1M178.5,146.5V196H200.1M200.1,196V119.6H221.8M221.8,119.6V108.4H243.5M221.8,119.6V130.7H243.5M243.5,130.7V119.6H265.2M243.5,130.7V141.8H265.2M265.2,141.8V130.9H286.9M265.2,141.8V152.7H286.9M286.9,152.7V142.2H308.5M286.9,152.7V163.3H308.5M308.5,163.3V153.4H330.2M308.5,163.3V173.1H330.2M330.2,173.1V164.7H351.9M330.2,173.1V181.6H351.9M351.9,181.6V176H373.6M351.9,181.6V187.2H373.6M200.1,196V272.4H221.8M221.8,272.4V198.5H243.5" stroke="darkgrey"></path><path d="M113.4,79.4V63.3H135.1M26.7,577.2V589.9H48.4M48.4,589.9V581.5H70M48.4,589.9V598.4H70M70,598.4V592.7H91.7M70,598.4V604H91.7" stroke="#fdae61"></path><path d="M221.8,272.4V346.3H243.5M243.5,346.3V273.5H265.2M265.2,273.5V229.1H286.9M286.9,229.1V215.4H308.5M308.5,215.4V209.8H330.2M308.5,215.4V221H330.2M286.9,229.1V242.8H308.5M308.5,242.8V232.3H330.2M308.5,242.8V253.4H330.2M330.2,253.4V243.5H351.9M330.2,253.4V263.3H351.9M351.9,263.3V254.8H373.6M351.9,263.3V271.7H373.6M373.6,271.7V266.1H395.3M373.6,271.7V277.3H395.3M265.2,273.5V317.8H286.9M286.9,317.8V294.2H308.5M308.5,294.2V288.6H330.2M308.5,294.2V299.9H330.2M286.9,317.8V341.4H308.5M308.5,341.4V319.6H330.2M330.2,319.6V311.1H351.9M330.2,319.6V328H351.9M351.9,328V322.4H373.6M351.9,328V333.7H373.6M308.5,341.4V363.2H330.2M330.2,363.2V350.6H351.9M351.9,350.6V344.9H373.6M351.9,350.6V356.2H373.6M330.2,363.2V375.9H351.9M351.9,375.9V367.5H373.6M351.9,375.9V384.3H373.6M373.6,384.3V378.7H395.3M373.6,384.3V390H395.3M243.5,346.3V419.2H265.2M265.2,419.2V401.2H286.9M265.2,419.2V437.1H286.9M286.9,437.1V412.5H308.5M286.9,437.1V461.7H308.5M308.5,461.7V429.4H330.2M330.2,429.4V423.8H351.9M330.2,429.4V435H351.9M308.5,461.7V494.1H330.2M330.2,494.1V457.4H351.9M351.9,457.4V446.3H373.6M351.9,457.4V468.5H373.6M373.6,468.5V457.6H395.3M373.6,468.5V479.4H395.3M395.3,479.4V468.8H417M395.3,479.4V490H417M417,490V480.1H438.6M417,490V499.8H438.6M438.6,499.8V491.4H460.3M438.6,499.8V508.3H460.3M460.3,508.3V502.6H482M460.3,508.3V513.9H482M330.2,494.1V530.8H351.9M351.9,530.8V525.2H373.6M351.9,530.8V536.4H373.6" stroke="#2c7bb6"></path><text x="7" y="437.8" class="node" fill="#4A6FE3">1</text><text x="28.7" y="295.4" class="node" fill="#4A6FE3">1</text><text x="50.4" y="40.2" class="node" fill="#4A6FE3">1</text><text x="72" y="24.1" class="node" fill="#E6B1BB">0.34</text><text x="93.7" y="15.6" class="node" fill="#4A6FE3">1</text><text x="72" y="56.2" class="node" fill="#E3DFE0">0.49</text><text x="93.7" y="68.7" class="node" fill="#E17F94">0.18</text><text x="115.4" y="82.4" class="node" fill="#DC6884">0.11</text><text x="137.1" y="98.4" class="node" fill="#E6C4C9">0.4</text><text x="158.8" y="119.2" class="node" fill="#A8B1E2">0.71</text><text x="180.5" y="149.5" class="node" fill="#A8B1E2">0.71</text><text x="202.1" y="199" class="node" fill="#A8B1E2">0.71</text><text x="223.8" y="122.6" class="node" fill="#A8B1E2">0.71</text><text x="245.5" y="133.7" class="node" fill="#4A6FE3">1</text><text x="267.2" y="144.8" class="node" fill="#E17F94">0.18</text><text x="288.9" y="155.7" class="node" fill="#DB6581">0.1</text><text x="310.5" y="166.3" class="node" fill="#7A8DE1">0.87</text><text x="332.2" y="176.1" class="node" fill="#E6B1BB">0.34</text><text x="353.9" y="184.6" class="node" fill="#4A6FE3">1</text><text x="223.8" y="275.4" class="node" fill="#667FE1">0.93</text><text x="245.5" y="349.3" class="node" fill="#D5D7E3">0.55</text><text x="267.2" y="276.5" class="node" fill="#B9BFE3">0.65</text><text x="288.9" y="232.1" class="node" fill="#D2D4E3">0.57</text><text x="310.5" y="218.4" class="node" fill="#BCC2E3">0.64</text><text x="310.5" y="245.8" class="node" fill="#D2D4E3">0.57</text><text x="332.2" y="256.4" class="node" fill="#7A8DE1">0.87</text><text x="353.9" y="266.3" class="node" fill="#4A6FE3">1</text><text x="375.6" y="274.7" class="node" fill="#4A6FE3">1</text><text x="288.9" y="320.8" class="node" fill="#A3ADE2">0.73</text><text x="310.5" y="297.2" class="node" fill="#E5C7CC">0.41</text><text x="310.5" y="344.4" class="node" fill="#DDDEE3">0.52</text><text x="332.2" y="322.6" class="node" fill="#E6AEB8">0.33</text><text x="353.9" y="331" class="node" fill="#D2D4E3">0.56</text><text x="332.2" y="366.2" class="node" fill="#E392A2">0.24</text><text x="353.9" y="353.6" class="node" fill="#D54C71">0.03</text><text x="353.9" y="378.9" class="node" fill="#E6B1BB">0.34</text><text x="375.6" y="387.3" class="node" fill="#5776E2">0.97</text><text x="267.2" y="422.2" class="node" fill="#ABB4E2">0.7</text><text x="288.9" y="440.1" class="node" fill="#97A4E2">0.77</text><text x="310.5" y="464.7" class="node" fill="#D2D4E3">0.57</text><text x="332.2" y="432.4" class="node" fill="#DDDEE3">0.52</text><text x="332.2" y="497.1" class="node" fill="#9AA6E2">0.76</text><text x="353.9" y="460.4" class="node" fill="#929FE1">0.79</text><text x="375.6" y="471.5" class="node" fill="#929FE1">0.79</text><text x="397.3" y="482.4" class="node" fill="#929FE1">0.79</text><text x="419" y="493" class="node" fill="#7A8DE1">0.87</text><text x="440.6" y="502.8" class="node" fill="#4A6FE3">1</text><text x="462.3" y="511.3" class="node" fill="#929FE1">0.79</text><text x="353.9" y="533.8" class="node" fill="#4A6FE3">1</text><text x="28.7" y="580.2" class="node" fill="#4A6FE3">1</text><text x="50.4" y="567.6" class="node" fill="#4A6FE3">1</text><text x="50.4" y="592.9" class="node" fill="#4A6FE3">1</text><text x="72" y="601.4" class="node" fill="#6D84E1">0.91</text></svg>
