<svg xmlns="http://www.w3.org/2000/svg" version="1.1" width="682" height="612" class="tree" data-char="17"><text x="678" y="15.4" text-anchor="end" class="stepsLabel">Character adds <tspan class="score">3</tspan> to tree score</text><text x="678" y="27.8" text-anchor="end" class="stepsLabel"><tspan class="score">2</tspan> additional regions</text><text x="678" y="40.2" text-anchor="end" class="stepsLabel">CI = 0.33; Fitch CI = 0.5; Fitch RI = 0</text><text x="678" y="65" text-anchor="end" class="stepsLabel"><tspan dy="16" fill="#34caaf">An optimal tree under:</tspan><tspan x="680" style="font-style:italic" class="thisAn" dy="1.2em">Equal weights</tspan><tspan x="680" style="font-style:italic" class="notThisAn" dy="1.2em">Implied weights, k = 2</tspan><tspan x="680" style="font-style:italic" class="notThisAn" dy="1.2em">IW, k = 3</tspan><tspan x="680" style="font-style:italic" class="notThisAn" dy="1.2em">IW, k = 4.5</tspan><tspan x="680" style="font-style:italic" class="notThisAn" dy="1.2em">IW, k = 7</tspan><tspan x="680" style="font-style:italic" class="notThisAn" dy="1.2em">IW, k = 10.5</tspan><tspan x="680" style="font-style:italic" class="notThisAn" dy="1.2em">IW, k = 16</tspan><tspan x="680" style="font-style:italic" class="notThisAn" dy="1.2em">IW, k = 24</tspan></text><text x="76.6" y="594.3" fill="#91bfdb" class="flag">[2]</text><text x="98.6" y="594.3" fill="#000" class="taxonLabel">Sipunculus</text><text x="76.6" y="607" fill="#e2e2a2" class="flag">[1]</text><text x="98.6" y="607" fill="#000" class="taxonLabel">Serpula</text><text x="100.4" y="568.9" fill="lightgrey" class="flag">[-]</text><text x="122.4" y="568.9" fill="#ccc" class="taxonLabel">Dentalium</text><text x="100.4" y="581.6" fill="#e2e2a2" class="flag">[1]</text><text x="122.4" y="581.6" fill="#000" class="taxonLabel">Wiwaxia corrugata</text><text x="76.6" y="556.2" fill="#e2e2a2" class="flag">[1]</text><text x="98.6" y="556.2" fill="#000" class="taxonLabel">Tonicella</text><text x="100.4" y="530.8" fill="grey" class="flag">[?]</text><text x="122.4" y="530.8" fill="#999" class="taxonLabel">Dailyatia</text><text x="100.4" y="543.5" fill="lightgrey" class="flag">[-]</text><text x="122.4" y="543.5" fill="#ccc" class="taxonLabel">Loxosomella</text><text x="76.6" y="518.1" fill="grey" class="flag">[?]</text><text x="98.6" y="518.1" fill="#999" class="taxonLabel">Eccentrotheca</text><text x="172" y="492.7" fill="grey" class="flag">[?]</text><text x="194" y="492.7" fill="#999" class="taxonLabel">Ussunia</text><text x="172" y="505.4" fill="grey" class="flag">[?]</text><text x="194" y="505.4" fill="#999" class="taxonLabel">Craniops</text><text x="291.2" y="467.3" fill="grey" class="flag">[?]</text><text x="313.2" y="467.3" fill="#999" class="taxonLabel">Coolinia pecten</text><text x="291.2" y="480" fill="grey" class="flag">[?]</text><text x="313.2" y="480" fill="#999" class="taxonLabel">Antigonambonites planus</text><text x="410.5" y="441.9" fill="grey" class="flag">[?]</text><text x="432.5" y="441.9" fill="#999" class="taxonLabel">Orthis</text><text x="410.5" y="454.6" fill="#e2e2a2" class="flag">[1]</text><text x="432.5" y="454.6" fill="#000" class="taxonLabel">Terebratulina</text><text x="386.6" y="429.2" fill="grey" class="flag">[?]</text><text x="408.6" y="429.2" fill="#999" class="taxonLabel">Alisina</text><text x="362.8" y="416.5" fill="grey" class="flag">[?]</text><text x="384.8" y="416.5" fill="#999" class="taxonLabel">Longtancunella chengjiangensis</text><text x="338.9" y="403.8" fill="grey" class="flag">[?]</text><text x="360.9" y="403.8" fill="#999" class="taxonLabel">Glyptoria</text><text x="315.1" y="391.1" fill="grey" class="flag">[?]</text><text x="337.1" y="391.1" fill="#999" class="taxonLabel">Nisusia sulcata</text><text x="291.2" y="378.4" fill="grey" class="flag">[?]</text><text x="313.2" y="378.4" fill="#999" class="taxonLabel">Kutorgina chengjiangensis</text><text x="291.2" y="353" fill="grey" class="flag">[?]</text><text x="313.2" y="353" fill="#999" class="taxonLabel">Tomteluva perturbata</text><text x="291.2" y="365.7" fill="grey" class="flag">[?]</text><text x="313.2" y="365.7" fill="#999" class="taxonLabel">Yuganotheca elegans</text><text x="267.4" y="340.3" fill="grey" class="flag">[?]</text><text x="289.4" y="340.3" fill="#999" class="taxonLabel">Salanygolina</text><text x="315.1" y="314.9" fill="grey" class="flag">[?]</text><text x="337.1" y="314.9" fill="#999" class="taxonLabel">Mickwitzia muralensis</text><text x="315.1" y="327.6" fill="#e2e2a2" class="flag">[1]</text><text x="337.1" y="327.6" fill="#000" class="taxonLabel">Pelagodiscus atlanticus</text><text x="482" y="289.4" fill="grey" class="flag">[?]</text><text x="504" y="289.4" fill="#999" class="taxonLabel">Acanthotretella spinosa</text><text x="482" y="302.1" fill="grey" class="flag">[?]</text><text x="504" y="302.1" fill="#999" class="taxonLabel">Siphonobolus priscus</text><text x="458.2" y="276.7" fill="grey" class="flag">[?]</text><text x="480.2" y="276.7" fill="#999" class="taxonLabel">Clupeafumosus socialis</text><text x="458.2" y="251.3" fill="grey" class="flag">[?]</text><text x="480.2" y="251.3" fill="#999" class="taxonLabel">Lingulellotreta malongensis</text><text x="458.2" y="264" fill="grey" class="flag">[?]</text><text x="480.2" y="264" fill="#999" class="taxonLabel">Lingulosacculus</text><text x="410.5" y="238.6" fill="grey" class="flag">[?]</text><text x="432.5" y="238.6" fill="#999" class="taxonLabel">Botsfordia</text><text x="386.6" y="225.9" fill="grey" class="flag">[?]</text><text x="408.6" y="225.9" fill="#999" class="taxonLabel">Mummpikia nuda</text><text x="362.8" y="213.2" fill="grey" class="flag">[?]</text><text x="384.8" y="213.2" fill="#999" class="taxonLabel">Eoobolus</text><text x="338.9" y="200.5" fill="#e2e2a2" class="flag">[1]</text><text x="360.9" y="200.5" fill="#000" class="taxonLabel">Lingula</text><text x="315.1" y="187.8" fill="grey" class="flag">[?]</text><text x="337.1" y="187.8" fill="#999" class="taxonLabel">Micrina</text><text x="291.2" y="162.4" fill="lightgrey" class="flag">[-]</text><text x="313.2" y="162.4" fill="#ccc" class="taxonLabel">Novocrania</text><text x="291.2" y="175.1" fill="grey" class="flag">[?]</text><text x="313.2" y="175.1" fill="#999" class="taxonLabel">Heliomedusa orienta</text><text x="267.4" y="137" fill="grey" class="flag">[?]</text><text x="289.4" y="137" fill="#999" class="taxonLabel">Askepasma toddense</text><text x="267.4" y="149.7" fill="grey" class="flag">[?]</text><text x="289.4" y="149.7" fill="#999" class="taxonLabel">Micromitra</text><text x="243.5" y="111.6" fill="grey" class="flag">[?]</text><text x="265.5" y="111.6" fill="#999" class="taxonLabel">Pedunculotheca diania</text><text x="243.5" y="124.3" fill="lightgrey" class="flag">[-]</text><text x="265.5" y="124.3" fill="#ccc" class="taxonLabel">Haplophrentis carinatus</text><text x="219.7" y="98.9" fill="grey" class="flag">[?]</text><text x="241.7" y="98.9" fill="#999" class="taxonLabel">Paterimitra</text><text x="172" y="86.2" fill="grey" class="flag">[?]</text><text x="194" y="86.2" fill="#999" class="taxonLabel">Gasconsia</text><text x="124.2" y="73.5" fill="grey" class="flag">[?]</text><text x="146.2" y="73.5" fill="#999" class="taxonLabel">Halkieria evangelista</text><text x="148.1" y="48.1" fill="lightgrey" class="flag">[-]</text><text x="170.1" y="48.1" fill="#ccc" class="taxonLabel">Phoronis</text><text x="148.1" y="60.8" fill="lightgrey" class="flag">[-]</text><text x="170.1" y="60.8" fill="#ccc" class="taxonLabel">Namacalathus</text><text x="124.2" y="35.4" fill="lightgrey" class="flag">[-]</text><text x="146.2" y="35.4" fill="#ccc" class="taxonLabel">Cotyledion tylodes</text><text x="100.4" y="10" fill="lightgrey" class="flag">[-]</text><text x="122.4" y="10" fill="#ccc" class="taxonLabel">Flustra</text><text x="100.4" y="22.7" fill="#91bfdb" class="flag">[2]</text><text x="122.4" y="22.7" fill="#000" class="taxonLabel">Amathia</text><path d="M5,437.7V295.1H28.9M28.9,295.1V65.6H52.7M52.7,65.6V13.4H76.6M76.6,13.4V7H100.4M52.7,65.6V117.9H76.6M76.6,117.9V41.9H100.4M100.4,41.9V32.4H124.2M100.4,41.9V51.5H124.2M124.2,51.5V45.1H148.1M124.2,51.5V57.8H148.1M76.6,117.9V193.9H100.4M100.4,193.9V70.5H124.2M100.4,193.9V317.3H124.2M124.2,317.3V138.5H148.1M148.1,138.5V83.2H172M148.1,138.5V193.8H172M172,193.8V105.4H195.8M195.8,105.4V95.9H219.7M195.8,105.4V115H219.7M219.7,115V108.6H243.5M219.7,115V121.3H243.5M243.5,211.9V165.8H267.4M267.4,165.8V159.4H291.2M267.4,165.8V172.1H291.2M124.2,317.3V496H148.1M148.1,496V489.7H172M148.1,496V502.4H172M28.9,295.1V524.6H52.7M52.7,524.6V515.1H76.6M52.7,524.6V534.1H76.6M76.6,534.1V527.8H100.4M76.6,534.1V540.5H100.4M76.6,572.2V565.9H100.4" stroke="lightgrey" class="inapplicable"></path><path d="M76.6,13.4V19.7H100.4M52.7,597.6V591.3H76.6" stroke="#91bfdb"></path><path d="M172,193.8V282.1H195.8M195.8,282.1V176.1H219.7M219.7,176.1V140.4H243.5M243.5,140.4V134H267.4M243.5,140.4V146.7H267.4M219.7,176.1V211.9H243.5M243.5,211.9V258H267.4M267.4,258V197.8H291.2M291.2,197.8V184.8H315.1M291.2,197.8V210.7H315.1M315.1,210.7V197.5H338.9M315.1,210.7V223.9H338.9M338.9,223.9V210.2H362.8M338.9,223.9V237.6H362.8M362.8,237.6V222.9H386.6M362.8,237.6V252.3H386.6M386.6,252.3V235.6H410.5M386.6,252.3V269H410.5M410.5,269V254.7H434.3M434.3,254.7V248.3H458.2M434.3,254.7V261H458.2M410.5,269V283.3H434.3M434.3,283.3V273.7H458.2M434.3,283.3V292.8H458.2M458.2,292.8V286.4H482M458.2,292.8V299.1H482M267.4,258V318.2H291.2M291.2,318.2V311.9H315.1M291.2,318.2V324.6H315.1M195.8,282.1V388H219.7M219.7,388V346.8H243.5M243.5,346.8V337.3H267.4M243.5,346.8V356.3H267.4M267.4,356.3V350H291.2M267.4,356.3V362.7H291.2M219.7,388V429.2H243.5M243.5,429.2V387.9H267.4M267.4,387.9V375.4H291.2M267.4,387.9V400.4H291.2M291.2,400.4V388.1H315.1M291.2,400.4V412.7H315.1M315.1,412.7V400.8H338.9M315.1,412.7V424.6H338.9M338.9,424.6V413.5H362.8M338.9,424.6V435.7H362.8M362.8,435.7V426.2H386.6M362.8,435.7V445.2H386.6M386.6,445.2V438.9H410.5M386.6,445.2V451.6H410.5M243.5,429.2V470.6H267.4M267.4,470.6V464.3H291.2M267.4,470.6V477H291.2M5,437.7V580.2H28.9M28.9,580.2V562.7H52.7M52.7,562.7V553.2H76.6M52.7,562.7V572.2H76.6M76.6,572.2V578.6H100.4M28.9,580.2V597.6H52.7M52.7,597.6V604H76.6" stroke="#e2e2a2"></path><text x="7" y="440.7" class="node" fill="#4A6FE3">1</text><text x="30.9" y="298.1" class="node" fill="#4A6FE3">1</text><text x="54.7" y="68.6" class="node" fill="#D7D9E3">0.54</text><text x="78.6" y="16.4" class="node" fill="#4A6FE3">1</text><text x="78.6" y="120.9" class="node" fill="#D7D9E3">0.54</text><text x="102.4" y="44.9" class="node" fill="#A0ABE2">0.74</text><text x="126.2" y="54.5" class="node" fill="#5B78E2">0.96</text><text x="102.4" y="196.9" class="node" fill="#CACDE3">0.59</text><text x="126.2" y="320.3" class="node" fill="#CACDE3">0.59</text><text x="150.1" y="141.5" class="node" fill="#D7D9E3">0.54</text><text x="174" y="196.8" class="node" fill="#D7D9E3">0.54</text><text x="197.8" y="108.4" class="node" fill="#D7D9E3">0.54</text><text x="221.7" y="118" class="node" fill="#4A6FE3">1</text><text x="197.8" y="285.1" class="node" fill="#D7D9E3">0.54</text><text x="221.7" y="179.1" class="node" fill="#D7D9E3">0.54</text><text x="245.5" y="143.4" class="node" fill="#AEB6E2">0.69</text><text x="245.5" y="214.9" class="node" fill="#D7D9E3">0.54</text><text x="269.4" y="168.8" class="node" fill="#D7D9E3">0.54</text><text x="269.4" y="261" class="node" fill="#D7D9E3">0.54</text><text x="293.2" y="200.8" class="node" fill="#E5A5B1">0.3</text><text x="317.1" y="213.7" class="node" fill="#CACDE3">0.59</text><text x="340.9" y="226.9" class="node" fill="#D7D9E3">0.54</text><text x="364.8" y="240.6" class="node" fill="#D7D9E3">0.54</text><text x="388.6" y="255.3" class="node" fill="#D7D9E3">0.54</text><text x="412.5" y="272" class="node" fill="#D2D4E3">0.56</text><text x="436.3" y="257.7" class="node" fill="#DA5E7D">0.08</text><text x="436.3" y="286.3" class="node" fill="#E4D6D8">0.46</text><text x="460.2" y="295.8" class="node" fill="#4A6FE3">1</text><text x="293.2" y="321.2" class="node" fill="#D7D9E3">0.54</text><text x="221.7" y="391" class="node" fill="#A6AFE2">0.72</text><text x="245.5" y="349.8" class="node" fill="#E6BAC2">0.37</text><text x="269.4" y="359.3" class="node" fill="#B1B8E2">0.68</text><text x="245.5" y="432.2" class="node" fill="#5374E2">0.98</text><text x="269.4" y="390.9" class="node" fill="#CACDE3">0.59</text><text x="293.2" y="403.4" class="node" fill="#CACDE3">0.59</text><text x="317.1" y="415.7" class="node" fill="#C7CBE3">0.6</text><text x="340.9" y="427.6" class="node" fill="#C7CBE3">0.6</text><text x="364.8" y="438.7" class="node" fill="#4A6FE3">1</text><text x="388.6" y="448.2" class="node" fill="#929FE1">0.79</text><text x="269.4" y="473.6" class="node" fill="#4A6FE3">1</text><text x="150.1" y="499" class="node" fill="#D7D9E3">0.54</text><text x="54.7" y="527.6" class="node" fill="#D7D9E3">0.54</text><text x="78.6" y="537.1" class="node" fill="#D7D9E3">0.54</text><text x="30.9" y="583.2" class="node" fill="#4A6FE3">1</text><text x="54.7" y="565.7" class="node" fill="#4A6FE3">1</text><text x="78.6" y="575.2" class="node" fill="#4A6FE3">1</text><text x="54.7" y="600.6" class="node" fill="#4A6FE3">1</text></svg>
