<svg xmlns="http://www.w3.org/2000/svg" version="1.1" width="682" height="682" class="tree" data-char="106"><text x="678" y="15.4" text-anchor="end" class="stepsLabel">Character adds <tspan class="score">5</tspan> to tree score</text><text x="678" y="27.8" text-anchor="end" class="stepsLabel"><tspan class="score">0</tspan> additional regions</text><text x="678" y="40.2" text-anchor="end" class="stepsLabel">CI = 0.2; Fitch CI = 0.2; Fitch RI = 0.78</text><text x="678" y="65" text-anchor="end" class="stepsLabel"><tspan dy="16" fill="#34caaf">An optimal tree under:</tspan><tspan x="680" style="font-style:italic" class="notThisAn" dy="1.2em">Equal weights</tspan><tspan x="680" style="font-style:italic" class="notThisAn" dy="1.2em">Implied weights, k = 2</tspan><tspan x="680" style="font-style:italic" class="notThisAn" dy="1.2em">IW, k = 3</tspan><tspan x="680" style="font-style:italic" class="notThisAn" dy="1.2em">IW, k = 4.5</tspan><tspan x="680" style="font-style:italic" class="notThisAn" dy="1.2em">IW, k = 7</tspan><tspan x="680" style="font-style:italic" class="thisAn" dy="1.2em">IW, k = 10.5</tspan><tspan x="680" style="font-style:italic" class="thisAn" dy="1.2em">IW, k = 16</tspan><tspan x="680" style="font-style:italic" class="notThisAn" dy="1.2em">IW, k = 24</tspan></text><text x="91.7" y="664.4" fill="#fc8d59" class="flag">[0]</text><text x="113.7" y="664.4" fill="#000" class="taxonLabel">Dentalium</text><text x="91.7" y="677" fill="#91bfdb" class="flag">[1]</text><text x="113.7" y="677" fill="#000" class="taxonLabel">Tonicella</text><text x="70" y="651.8" fill="#fc8d59" class="flag">[0]</text><text x="92" y="651.8" fill="#000" class="taxonLabel">Wiwaxia corrugata</text><text x="70" y="626.7" fill="#fc8d59" class="flag">[0]</text><text x="92" y="626.7" fill="#000" class="taxonLabel">Serpula</text><text x="70" y="639.2" fill="#fc8d59" class="flag">[0]</text><text x="92" y="639.2" fill="#000" class="taxonLabel">Sipunculus</text><text x="113.4" y="601.5" fill="#fc8d59" class="flag">[0]</text><text x="135.4" y="601.5" fill="#000" class="taxonLabel">Phoronis</text><text x="113.4" y="614.1" fill="#fc8d59" class="flag">[0]</text><text x="135.4" y="614.1" fill="#000" class="taxonLabel">Namacalathus</text><text x="482" y="576.3" fill="#91bfdb" class="flag">[1]</text><text x="504" y="576.3" fill="#000" class="taxonLabel">Orthis</text><text x="482" y="588.9" fill="#91bfdb" class="flag">[1]</text><text x="504" y="588.9" fill="#000" class="taxonLabel">Terebratulina</text><text x="460.3" y="563.7" fill="#91bfdb" class="flag">[1]</text><text x="482.3" y="563.7" fill="#000" class="taxonLabel">Alisina</text><text x="438.6" y="551.2" fill="#91bfdb" class="flag">[1]</text><text x="460.6" y="551.2" fill="#000" class="taxonLabel">Longtancunella chengjiangensis</text><text x="417" y="538.6" fill="#91bfdb" class="flag">[1]</text><text x="439" y="538.6" fill="#000" class="taxonLabel">Glyptoria</text><text x="395.3" y="526" fill="#91bfdb" class="flag">[1]</text><text x="417.3" y="526" fill="#000" class="taxonLabel">Tomteluva perturbata</text><text x="395.3" y="500.8" fill="#91bfdb" class="flag">[1]</text><text x="417.3" y="500.8" fill="#000" class="taxonLabel">Kutorgina chengjiangensis</text><text x="395.3" y="513.4" fill="#91bfdb" class="flag">[1]</text><text x="417.3" y="513.4" fill="#000" class="taxonLabel">Nisusia sulcata</text><text x="373.6" y="475.6" fill="#91bfdb" class="flag">[1]</text><text x="395.6" y="475.6" fill="#000" class="taxonLabel">Coolinia pecten</text><text x="373.6" y="488.2" fill="#91bfdb" class="flag">[1]</text><text x="395.6" y="488.2" fill="#000" class="taxonLabel">Antigonambonites planus</text><text x="330.2" y="463.1" fill="#91bfdb" class="flag">[1]</text><text x="352.2" y="463.1" fill="#000" class="taxonLabel">Salanygolina</text><text x="330.2" y="437.9" fill="#91bfdb" class="flag">[1]</text><text x="352.2" y="437.9" fill="#000" class="taxonLabel">Askepasma toddense</text><text x="330.2" y="450.5" fill="#91bfdb" class="flag">[1]</text><text x="352.2" y="450.5" fill="#000" class="taxonLabel">Micromitra</text><text x="482" y="412.7" fill="#91bfdb" class="flag">[1]</text><text x="504" y="412.7" fill="#000" class="taxonLabel">Siphonobolus priscus</text><text x="482" y="425.3" fill="#91bfdb" class="flag">[1]</text><text x="504" y="425.3" fill="#000" class="taxonLabel">Acanthotretella spinosa</text><text x="460.3" y="400.1" fill="#91bfdb" class="flag">[1]</text><text x="482.3" y="400.1" fill="#000" class="taxonLabel">Lingulosacculus</text><text x="438.6" y="387.5" fill="#91bfdb" class="flag">[1]</text><text x="460.6" y="387.5" fill="#000" class="taxonLabel">Clupeafumosus socialis</text><text x="417" y="375" fill="#91bfdb" class="flag">[1]</text><text x="439" y="375" fill="#000" class="taxonLabel">Lingulellotreta malongensis</text><text x="417" y="349.8" fill="#91bfdb" class="flag">[1]</text><text x="439" y="349.8" fill="#000" class="taxonLabel">Mummpikia nuda</text><text x="417" y="362.4" fill="#fc8d59" class="flag">[0]</text><text x="439" y="362.4" fill="#000" class="taxonLabel">Pelagodiscus atlanticus</text><text x="373.6" y="337.2" fill="#91bfdb" class="flag">[1]</text><text x="395.6" y="337.2" fill="#000" class="taxonLabel">Botsfordia</text><text x="351.9" y="324.6" fill="#91bfdb" class="flag">[1]</text><text x="373.9" y="324.6" fill="#000" class="taxonLabel">Eoobolus</text><text x="330.2" y="312" fill="#91bfdb" class="flag">[1]</text><text x="352.2" y="312" fill="#000" class="taxonLabel">Lingula</text><text x="373.6" y="286.9" fill="#fc8d59" class="flag">[0]</text><text x="395.6" y="286.9" fill="#000" class="taxonLabel">Craniops</text><text x="373.6" y="299.5" fill="#fc8d59" class="flag">[0]</text><text x="395.6" y="299.5" fill="#000" class="taxonLabel">Novocrania</text><text x="351.9" y="274.3" fill="#fc8d59" class="flag">[0]</text><text x="373.9" y="274.3" fill="#000" class="taxonLabel">Ussunia</text><text x="330.2" y="261.7" fill="#91bfdb" class="flag">[1]</text><text x="352.2" y="261.7" fill="#000" class="taxonLabel">Gasconsia</text><text x="308.5" y="236.5" fill="#91bfdb" class="flag">[1]</text><text x="330.5" y="236.5" fill="#000" class="taxonLabel">Heliomedusa orienta</text><text x="308.5" y="249.1" fill="#91bfdb" class="flag">[1]</text><text x="330.5" y="249.1" fill="#000" class="taxonLabel">Mickwitzia muralensis</text><text x="286.9" y="223.9" fill="#91bfdb" class="flag">[1]</text><text x="308.9" y="223.9" fill="#000" class="taxonLabel">Micrina</text><text x="243.5" y="211.4" fill="grey" class="flag">[?]</text><text x="265.5" y="211.4" fill="#999" class="taxonLabel">Yuganotheca elegans</text><text x="330.2" y="186.2" fill="#91bfdb" class="flag">[1]</text><text x="352.2" y="186.2" fill="#000" class="taxonLabel">Maxilites</text><text x="330.2" y="198.8" fill="#91bfdb" class="flag">[1]</text><text x="352.2" y="198.8" fill="#000" class="taxonLabel">Pauxillites</text><text x="308.5" y="173.6" fill="#91bfdb" class="flag">[1]</text><text x="330.5" y="173.6" fill="#000" class="taxonLabel">Haplophrentis carinatus</text><text x="286.9" y="161" fill="#91bfdb" class="flag">[1]</text><text x="308.9" y="161" fill="#000" class="taxonLabel">Paramicrocornus</text><text x="308.5" y="135.8" fill="#fc8d59" class="flag">[0]</text><text x="330.5" y="135.8" fill="#000" class="taxonLabel">Bactrotheca</text><text x="308.5" y="148.4" fill="#fc8d59" class="flag">[0]</text><text x="330.5" y="148.4" fill="#000" class="taxonLabel">Conotheca</text><text x="286.9" y="123.3" fill="#fc8d59" class="flag">[0]</text><text x="308.9" y="123.3" fill="#000" class="taxonLabel">Cupitheca holocyclata</text><text x="243.5" y="110.7" fill="grey" class="flag">[?]</text><text x="265.5" y="110.7" fill="#999" class="taxonLabel">Pedunculotheca diania</text><text x="200.1" y="98.1" fill="#91bfdb" class="flag">[1]</text><text x="222.1" y="98.1" fill="#000" class="taxonLabel">Paterimitra</text><text x="178.5" y="85.5" fill="#91bfdb" class="flag">[1]</text><text x="200.5" y="85.5" fill="#000" class="taxonLabel">Halkieria evangelista</text><text x="156.8" y="72.9" fill="#fc8d59" class="flag">[0]</text><text x="178.8" y="72.9" fill="#000" class="taxonLabel">Dailyatia</text><text x="91.7" y="664.4" fill="#fc8d59" class="flag">[0]</text><text x="113.7" y="664.4" fill="#000" class="taxonLabel">Dentalium</text><text x="91.7" y="677" fill="#91bfdb" class="flag">[1]</text><text x="113.7" y="677" fill="#000" class="taxonLabel">Tonicella</text><text x="70" y="651.8" fill="#fc8d59" class="flag">[0]</text><text x="92" y="651.8" fill="#000" class="taxonLabel">Wiwaxia corrugata</text><text x="70" y="626.7" fill="#fc8d59" class="flag">[0]</text><text x="92" y="626.7" fill="#000" class="taxonLabel">Serpula</text><text x="70" y="639.2" fill="#fc8d59" class="flag">[0]</text><text x="92" y="639.2" fill="#000" class="taxonLabel">Sipunculus</text><path d="M5,368.6V93H26.7M26.7,93V7H48.4M26.7,93V179H48.4M48.4,179V25.9H70M70,25.9V19.6H91.7M70,25.9V32.2H91.7M48.4,179V332.2H70M70,332.2V59.6H91.7M91.7,59.6V44.8H113.4M91.7,59.6V74.4H113.4M113.4,74.4V57.3H135.1M113.4,74.4V91.5H135.1M135.1,91.5V69.9H156.8M243.5,149.4V129.7H265.2M265.2,129.7V120.3H286.9M265.2,129.7V139.1H286.9M286.9,139.1V132.8H308.5M286.9,139.1V145.4H308.5M308.5,269.7V280.7H330.2M330.2,280.7V271.3H351.9M330.2,280.7V290.2H351.9M351.9,290.2V283.9H373.6M351.9,290.2V296.5H373.6M395.3,353.1V359.4H417M70,332.2V604.8H91.7M91.7,604.8V598.5H113.4M91.7,604.8V611.1H113.4M5,368.6V644.1H26.7M26.7,644.1V630H48.4M48.4,630V623.7H70M48.4,630V636.2H70M26.7,644.1V658.3H48.4M48.4,658.3V648.8H70M48.4,658.3V667.7H70M70,667.7V661.4H91.7" stroke="#fc8d59"></path><path d="M135.1,91.5V113.1H156.8M156.8,113.1V82.5H178.5M156.8,113.1V143.8H178.5M178.5,143.8V95.1H200.1M178.5,143.8V192.4H200.1M200.1,192.4V128.5H221.8M221.8,128.5V107.7H243.5M221.8,128.5V149.4H243.5M243.5,149.4V169H265.2M265.2,169V158H286.9M265.2,169V180H286.9M286.9,180V170.6H308.5M286.9,180V189.5H308.5M308.5,189.5V183.2H330.2M308.5,189.5V195.8H330.2M200.1,192.4V256.4H221.8M221.8,256.4V208.4H243.5M221.8,256.4V304.4H243.5M243.5,304.4V230.4H265.2M265.2,230.4V220.9H286.9M265.2,230.4V239.8H286.9M286.9,239.8V233.5H308.5M286.9,239.8V246.1H308.5M243.5,304.4V378.3H265.2M265.2,378.3V296.2H286.9M286.9,296.2V269.7H308.5M308.5,269.7V258.7H330.2M286.9,296.2V322.8H308.5M308.5,322.8V309H330.2M308.5,322.8V336.5H330.2M330.2,336.5V321.6H351.9M330.2,336.5V351.3H351.9M351.9,351.3V334.2H373.6M351.9,351.3V368.4H373.6M373.6,368.4V353.1H395.3M395.3,353.1V346.8H417M373.6,368.4V383.8H395.3M395.3,383.8V372H417M395.3,383.8V395.6H417M417,395.6V384.5H438.6M417,395.6V406.6H438.6M438.6,406.6V397.1H460.3M438.6,406.6V416H460.3M460.3,416V409.7H482M460.3,416V422.3H482M265.2,378.3V460.4H286.9M286.9,460.4V441.2H308.5M308.5,441.2V434.9H330.2M308.5,441.2V447.5H330.2M286.9,460.4V479.7H308.5M308.5,479.7V460.1H330.2M308.5,479.7V499.3H330.2M330.2,499.3V478.9H351.9M351.9,478.9V472.6H373.6M351.9,478.9V485.2H373.6M330.2,499.3V519.6H351.9M351.9,519.6V504.1H373.6M373.6,504.1V497.8H395.3M373.6,504.1V510.4H395.3M351.9,519.6V535.2H373.6M373.6,535.2V523H395.3M373.6,535.2V547.4H395.3M395.3,547.4V535.6H417M395.3,547.4V559.2H417M417,559.2V548.2H438.6M417,559.2V570.2H438.6M438.6,570.2V560.7H460.3M438.6,570.2V579.6H460.3M460.3,579.6V573.3H482M460.3,579.6V585.9H482M70,667.7V674H91.7" stroke="#91bfdb"></path><text x="115.4" y="47.8" class="node" fill="#4A6FE3">1</text><text x="93.7" y="22.6" class="node" fill="#4A6FE3">1</text><text x="93.7" y="35.2" class="node" fill="#4A6FE3">1</text><text x="50.4" y="10" class="node" fill="#4A6FE3">1</text><text x="7" y="371.6" class="node" fill="#627DE1">0.94</text><text x="28.7" y="96" class="node" fill="#E6ABB6">0.32</text><text x="50.4" y="182" class="node" fill="#627DE1">0.94</text><text x="72" y="28.9" class="node" fill="#627DE1">0.94</text><text x="72" y="335.2" class="node" fill="#627DE1">0.94</text><text x="93.7" y="62.6" class="node" fill="#627DE1">0.94</text><text x="115.4" y="77.4" class="node" fill="#627DE1">0.94</text><text x="137.1" y="94.5" class="node" fill="#627DE1">0.94</text><text x="158.8" y="116.1" class="node" fill="#627DE1">0.94</text><text x="180.5" y="146.8" class="node" fill="#4A6FE3">1</text><text x="202.1" y="195.4" class="node" fill="#929FE1">0.79</text><text x="223.8" y="131.5" class="node" fill="#4A6FE3">1</text><text x="245.5" y="152.4" class="node" fill="#4A6FE3">1</text><text x="267.2" y="132.7" class="node" fill="#4A6FE3">1</text><text x="288.9" y="142.1" class="node" fill="#5776E2">0.97</text><text x="267.2" y="172" class="node" fill="#627DE1">0.94</text><text x="288.9" y="183" class="node" fill="#627DE1">0.94</text><text x="310.5" y="192.5" class="node" fill="#627DE1">0.94</text><text x="223.8" y="259.4" class="node" fill="#627DE1">0.94</text><text x="245.5" y="307.4" class="node" fill="#627DE1">0.94</text><text x="267.2" y="233.4" class="node" fill="#4A6FE3">1</text><text x="288.9" y="242.8" class="node" fill="#4A6FE3">1</text><text x="267.2" y="381.3" class="node" fill="#627DE1">0.94</text><text x="288.9" y="299.2" class="node" fill="#627DE1">0.94</text><text x="310.5" y="272.7" class="node" fill="#627DE1">0.94</text><text x="332.2" y="283.7" class="node" fill="#627DE1">0.94</text><text x="353.9" y="293.2" class="node" fill="#627DE1">0.94</text><text x="310.5" y="325.8" class="node" fill="#627DE1">0.94</text><text x="332.2" y="339.5" class="node" fill="#4A6FE3">1</text><text x="353.9" y="354.3" class="node" fill="#E6B1BB">0.34</text><text x="375.6" y="371.4" class="node" fill="#4A6FE3">1</text><text x="397.3" y="356.1" class="node" fill="#5F7BE1">0.95</text><text x="397.3" y="386.8" class="node" fill="#5F7BE1">0.95</text><text x="419" y="398.6" class="node" fill="#4F72E2">0.99</text><text x="440.6" y="409.6" class="node" fill="#5F7BE1">0.95</text><text x="462.3" y="419" class="node" fill="#4A6FE3">1</text><text x="288.9" y="463.4" class="node" fill="#5F7BE1">0.95</text><text x="310.5" y="444.2" class="node" fill="#95A1E2">0.78</text><text x="310.5" y="482.7" class="node" fill="#B6BDE3">0.66</text><text x="332.2" y="502.3" class="node" fill="#4A6FE3">1</text><text x="115.4" y="47.8" class="node" fill="#4A6FE3">1</text><text x="93.7" y="22.6" class="node" fill="#4A6FE3">1</text><text x="93.7" y="35.2" class="node" fill="#5F7BE1">0.95</text><text x="50.4" y="10" class="node" fill="#E6B1BB">0.34</text><text x="7" y="371.6" class="node" fill="#4A6FE3">1</text><text x="28.7" y="96" class="node" fill="#4A6FE3">1</text><text x="50.4" y="182" class="node" fill="#4A6FE3">1</text><text x="72" y="28.9" class="node" fill="#4A6FE3">1</text></svg>
