<svg xmlns="http://www.w3.org/2000/svg" version="1.1" width="682" height="682" class="tree" data-char="65"><text x="678" y="15.4" text-anchor="end" class="stepsLabel">Character adds <tspan class="score">2</tspan> to tree score</text><text x="678" y="27.8" text-anchor="end" class="stepsLabel"><tspan class="score">0</tspan> additional regions</text><text x="678" y="40.2" text-anchor="end" class="stepsLabel">CI = 0.5; Fitch CI = 0.5; Fitch RI = 0.86</text><text x="678" y="65" text-anchor="end" class="stepsLabel"><tspan dy="16" fill="#34caaf">An optimal tree under:</tspan><tspan x="680" style="font-style:italic" class="notThisAn" dy="1.2em">Implied weights, k = 3</tspan><tspan x="680" style="font-style:italic" class="notThisAn" dy="1.2em">IW, k = 4.5</tspan><tspan x="680" style="font-style:italic" class="notThisAn" dy="1.2em">IW, k = 7</tspan><tspan x="680" style="font-style:italic" class="notThisAn" dy="1.2em">IW, k = 10.5</tspan><tspan x="680" style="font-style:italic" class="notThisAn" dy="1.2em">IW, k = 16</tspan><tspan x="680" style="font-style:italic" class="notThisAn" dy="1.2em">IW, k = 24</tspan><tspan x="680" style="font-style:italic" class="thisAn" dy="1.2em">Equal weights</tspan></text><text x="300.3" y="664.4" fill="#91bfdb" class="flag">[1]</text><text x="322.3" y="664.4" fill="#000" class="taxonLabel">Mickwitzia muralensis</text><text x="300.3" y="677" fill="#91bfdb" class="flag">[1]</text><text x="322.3" y="677" fill="#000" class="taxonLabel">Heliomedusa orienta</text><text x="277.6" y="651.8" fill="#91bfdb" class="flag">[1]</text><text x="299.6" y="651.8" fill="#000" class="taxonLabel">Micrina</text><text x="482" y="626.7" fill="#91bfdb" class="flag">[1]</text><text x="504" y="626.7" fill="#000" class="taxonLabel">Siphonobolus priscus</text><text x="482" y="639.2" fill="#91bfdb" class="flag">[1]</text><text x="504" y="639.2" fill="#000" class="taxonLabel">Acanthotretella spinosa</text><text x="459.3" y="614.1" fill="#91bfdb" class="flag">[1]</text><text x="481.3" y="614.1" fill="#000" class="taxonLabel">Clupeafumosus socialis</text><text x="436.6" y="601.5" fill="#91bfdb" class="flag">[1]</text><text x="458.6" y="601.5" fill="#000" class="taxonLabel">Lingulosacculus</text><text x="413.9" y="588.9" fill="#91bfdb" class="flag">[1]</text><text x="435.9" y="588.9" fill="#000" class="taxonLabel">Lingulellotreta malongensis</text><text x="413.9" y="563.7" fill="#91bfdb" class="flag">[1]</text><text x="435.9" y="563.7" fill="#000" class="taxonLabel">Pelagodiscus atlanticus</text><text x="413.9" y="576.3" fill="#91bfdb" class="flag">[1]</text><text x="435.9" y="576.3" fill="#000" class="taxonLabel">Mummpikia nuda</text><text x="368.4" y="551.2" fill="#91bfdb" class="flag">[1]</text><text x="390.4" y="551.2" fill="#000" class="taxonLabel">Botsfordia</text><text x="345.7" y="538.6" fill="#91bfdb" class="flag">[1]</text><text x="367.7" y="538.6" fill="#000" class="taxonLabel">Eoobolus</text><text x="323" y="526" fill="#91bfdb" class="flag">[1]</text><text x="345" y="526" fill="#000" class="taxonLabel">Lingula</text><text x="368.4" y="500.8" fill="#91bfdb" class="flag">[1]</text><text x="390.4" y="500.8" fill="#000" class="taxonLabel">Novocrania</text><text x="368.4" y="513.4" fill="#91bfdb" class="flag">[1]</text><text x="390.4" y="513.4" fill="#000" class="taxonLabel">Craniops</text><text x="345.7" y="488.2" fill="#91bfdb" class="flag">[1]</text><text x="367.7" y="488.2" fill="#000" class="taxonLabel">Ussunia</text><text x="323" y="475.6" fill="#91bfdb" class="flag">[1]</text><text x="345" y="475.6" fill="#000" class="taxonLabel">Gasconsia</text><text x="459.3" y="450.5" fill="#91bfdb" class="flag">[1]</text><text x="481.3" y="450.5" fill="#000" class="taxonLabel">Terebratulina</text><text x="459.3" y="463.1" fill="#91bfdb" class="flag">[1]</text><text x="481.3" y="463.1" fill="#000" class="taxonLabel">Orthis</text><text x="436.6" y="437.9" fill="#91bfdb" class="flag">[1]</text><text x="458.6" y="437.9" fill="#000" class="taxonLabel">Alisina</text><text x="413.9" y="425.3" fill="#91bfdb" class="flag">[1]</text><text x="435.9" y="425.3" fill="#000" class="taxonLabel">Longtancunella chengjiangensis</text><text x="391.1" y="412.7" fill="#91bfdb" class="flag">[1]</text><text x="413.1" y="412.7" fill="#000" class="taxonLabel">Glyptoria</text><text x="413.9" y="387.5" fill="#91bfdb" class="flag">[1]</text><text x="435.9" y="387.5" fill="#000" class="taxonLabel">Nisusia sulcata</text><text x="413.9" y="400.1" fill="#91bfdb" class="flag">[1]</text><text x="435.9" y="400.1" fill="#000" class="taxonLabel">Kutorgina chengjiangensis</text><text x="391.1" y="375" fill="#91bfdb" class="flag">[1]</text><text x="413.1" y="375" fill="#000" class="taxonLabel">Tomteluva perturbata</text><text x="368.4" y="349.8" fill="#91bfdb" class="flag">[1]</text><text x="390.4" y="349.8" fill="#000" class="taxonLabel">Coolinia pecten</text><text x="368.4" y="362.4" fill="#91bfdb" class="flag">[1]</text><text x="390.4" y="362.4" fill="#000" class="taxonLabel">Antigonambonites planus</text><text x="323" y="337.2" fill="#91bfdb" class="flag">[1]</text><text x="345" y="337.2" fill="#000" class="taxonLabel">Salanygolina</text><text x="323" y="312" fill="#91bfdb" class="flag">[1]</text><text x="345" y="312" fill="#000" class="taxonLabel">Micromitra</text><text x="323" y="324.6" fill="#91bfdb" class="flag">[1]</text><text x="345" y="324.6" fill="#000" class="taxonLabel">Askepasma toddense</text><text x="232.1" y="299.5" fill="#91bfdb" class="flag">[1]</text><text x="254.1" y="299.5" fill="#000" class="taxonLabel">Yuganotheca elegans</text><text x="300.3" y="274.3" fill="#91bfdb" class="flag">[1]</text><text x="322.3" y="274.3" fill="#000" class="taxonLabel">Pauxillites</text><text x="300.3" y="286.9" fill="#91bfdb" class="flag">[1]</text><text x="322.3" y="286.9" fill="#000" class="taxonLabel">Maxilites</text><text x="277.6" y="261.7" fill="#91bfdb" class="flag">[1]</text><text x="299.6" y="261.7" fill="#000" class="taxonLabel">Haplophrentis carinatus</text><text x="323" y="236.5" fill="#91bfdb" class="flag">[1]</text><text x="345" y="236.5" fill="#000" class="taxonLabel">Conotheca</text><text x="323" y="249.1" fill="#91bfdb" class="flag">[1]</text><text x="345" y="249.1" fill="#000" class="taxonLabel">Bactrotheca</text><text x="300.3" y="223.9" fill="#91bfdb" class="flag">[1]</text><text x="322.3" y="223.9" fill="#000" class="taxonLabel">Cupitheca holocyclata</text><text x="277.6" y="211.4" fill="#91bfdb" class="flag">[1]</text><text x="299.6" y="211.4" fill="#000" class="taxonLabel">Paramicrocornus</text><text x="232.1" y="198.8" fill="#91bfdb" class="flag">[1]</text><text x="254.1" y="198.8" fill="#000" class="taxonLabel">Pedunculotheca diania</text><text x="186.7" y="186.2" fill="#91bfdb" class="flag">[1]</text><text x="208.7" y="186.2" fill="#000" class="taxonLabel">Paterimitra</text><text x="164" y="173.6" fill="#91bfdb" class="flag">[1]</text><text x="186" y="173.6" fill="#000" class="taxonLabel">Halkieria evangelista</text><text x="141.3" y="161" fill="#91bfdb" class="flag">[1]</text><text x="163.3" y="161" fill="#000" class="taxonLabel">Dailyatia</text><text x="118.6" y="148.4" fill="#91bfdb" class="flag">[1]</text><text x="140.6" y="148.4" fill="#000" class="taxonLabel">Eccentrotheca</text><text x="95.9" y="135.8" fill="#91bfdb" class="flag">[1]</text><text x="117.9" y="135.8" fill="#000" class="taxonLabel">Cotyledion tylodes</text><text x="95.9" y="110.7" fill="#fc8d59" class="flag">[0]</text><text x="117.9" y="110.7" fill="#000" class="taxonLabel">Phoronis</text><text x="95.9" y="123.3" fill="#fc8d59" class="flag">[0]</text><text x="117.9" y="123.3" fill="#000" class="taxonLabel">Namacalathus</text><text x="73.1" y="85.5" fill="#fc8d59" class="flag">[0]</text><text x="95.1" y="85.5" fill="#000" class="taxonLabel">Flustra</text><text x="73.1" y="98.1" fill="#fc8d59" class="flag">[0]</text><text x="95.1" y="98.1" fill="#000" class="taxonLabel">Amathia</text><text x="95.9" y="60.3" fill="#fc8d59" class="flag">[0]</text><text x="117.9" y="60.3" fill="#000" class="taxonLabel">Sipunculus</text><text x="95.9" y="72.9" fill="#fc8d59" class="flag">[0]</text><text x="117.9" y="72.9" fill="#000" class="taxonLabel">Serpula</text><text x="118.6" y="35.2" fill="#91bfdb" class="flag">[1]</text><text x="140.6" y="35.2" fill="#000" class="taxonLabel">Tonicella</text><text x="118.6" y="47.8" fill="#91bfdb" class="flag">[1]</text><text x="140.6" y="47.8" fill="#000" class="taxonLabel">Dentalium</text><text x="95.9" y="22.6" fill="#fc8d59" class="flag">[0]</text><text x="117.9" y="22.6" fill="#000" class="taxonLabel">Wiwaxia corrugata</text><text x="50.4" y="10" fill="#fc8d59" class="flag">[0]</text><text x="72.4" y="10" fill="#000" class="taxonLabel">Loxosomella</text><path d="M5,68.4V26.7H27.7M27.7,26.7V7H50.4M27.7,26.7V46.3H50.4M50.4,46.3V29H73.1M73.1,29V19.6H95.9M50.4,46.3V63.6H73.1M73.1,63.6V57.3H95.9M73.1,63.6V69.9H95.9M5,68.4V110.1H27.7M27.7,110.1V88.8H50.4M50.4,88.8V82.5H73.1M50.4,88.8V95.1H73.1M27.7,110.1V131.4H50.4M50.4,131.4V114H73.1M73.1,114V107.7H95.9M73.1,114V120.3H95.9" stroke="#fc8d59"></path><path d="M73.1,29V38.5H95.9M95.9,38.5V32.2H118.6M95.9,38.5V44.8H118.6M50.4,131.4V148.9H73.1M73.1,148.9V132.8H95.9M73.1,148.9V164.9H95.9M95.9,164.9V145.4H118.6M95.9,164.9V184.5H118.6M118.6,184.5V158H141.3M118.6,184.5V210.9H141.3M141.3,210.9V170.6H164M141.3,210.9V251.2H164M164,251.2V183.2H186.7M164,251.2V319.1H186.7M186.7,319.1V219.8H209.4M209.4,219.8V195.8H232.1M209.4,219.8V243.8H232.1M232.1,243.8V219.4H254.9M254.9,219.4V208.4H277.6M254.9,219.4V230.4H277.6M277.6,230.4V220.9H300.3M277.6,230.4V239.8H300.3M300.3,239.8V233.5H323M300.3,239.8V246.1H323M232.1,243.8V268.1H254.9M254.9,268.1V258.7H277.6M254.9,268.1V277.6H277.6M277.6,277.6V271.3H300.3M277.6,277.6V283.9H300.3M186.7,319.1V418.5H209.4M209.4,418.5V296.5H232.1M209.4,418.5V540.6H232.1M232.1,540.6V422.9H254.9M254.9,422.9V335.5H277.6M277.6,335.5V315.3H300.3M300.3,315.3V309H323M300.3,315.3V321.6H323M277.6,335.5V355.7H300.3M300.3,355.7V334.2H323M300.3,355.7V377.3H323M323,377.3V353.1H345.7M345.7,353.1V346.8H368.4M345.7,353.1V359.4H368.4M323,377.3V401.5H345.7M345.7,401.5V381.4H368.4M368.4,381.4V372H391.1M368.4,381.4V390.8H391.1M391.1,390.8V384.5H413.9M391.1,390.8V397.1H413.9M345.7,401.5V421.5H368.4M368.4,421.5V409.7H391.1M368.4,421.5V433.3H391.1M391.1,433.3V422.3H413.9M391.1,433.3V444.3H413.9M413.9,444.3V434.9H436.6M413.9,444.3V453.8H436.6M436.6,453.8V447.5H459.3M436.6,453.8V460.1H459.3M254.9,422.9V510.2H277.6M277.6,510.2V483.7H300.3M300.3,483.7V472.6H323M300.3,483.7V494.7H323M323,494.7V485.2H345.7M323,494.7V504.1H345.7M345.7,504.1V497.8H368.4M345.7,504.1V510.4H368.4M277.6,510.2V536.7H300.3M300.3,536.7V523H323M300.3,536.7V550.4H323M323,550.4V535.6H345.7M323,550.4V565.3H345.7M345.7,565.3V548.2H368.4M345.7,565.3V582.4H368.4M368.4,582.4V567H391.1M391.1,567V560.7H413.9M391.1,567V573.3H413.9M368.4,582.4V597.7H391.1M391.1,597.7V585.9H413.9M391.1,597.7V609.5H413.9M413.9,609.5V598.5H436.6M413.9,609.5V620.5H436.6M436.6,620.5V611.1H459.3M436.6,620.5V630H459.3M459.3,630V623.7H482M459.3,630V636.2H482M232.1,540.6V658.3H254.9M254.9,658.3V648.8H277.6M254.9,658.3V667.7H277.6M277.6,667.7V661.4H300.3M277.6,667.7V674H300.3" stroke="#91bfdb"></path><text x="29.7" y="29.7" class="node" fill="#4A6FE3">1</text><text x="52.4" y="49.3" class="node" fill="#4A6FE3">1</text><text x="75.1" y="32" class="node" fill="#4A6FE3">1</text><text x="97.9" y="41.5" class="node" fill="#4A6FE3">1</text><text x="75.1" y="66.6" class="node" fill="#4A6FE3">1</text><text x="29.7" y="113.1" class="node" fill="#4A6FE3">1</text><text x="52.4" y="91.8" class="node" fill="#4A6FE3">1</text><text x="52.4" y="134.4" class="node" fill="#4A6FE3">1</text><text x="75.1" y="117" class="node" fill="#E6B4BD">0.35</text><text x="75.1" y="151.9" class="node" fill="#627DE1">0.94</text><text x="97.9" y="167.9" class="node" fill="#E5A8B3">0.31</text><text x="120.6" y="187.5" class="node" fill="#627DE1">0.94</text><text x="143.3" y="213.9" class="node" fill="#627DE1">0.94</text><text x="166" y="254.2" class="node" fill="#627DE1">0.94</text><text x="188.7" y="322.1" class="node" fill="#627DE1">0.94</text><text x="211.4" y="222.8" class="node" fill="#627DE1">0.94</text><text x="234.1" y="246.8" class="node" fill="#627DE1">0.94</text><text x="256.9" y="222.4" class="node" fill="#E2899B">0.21</text><text x="279.6" y="233.4" class="node" fill="#627DE1">0.94</text><text x="302.3" y="242.8" class="node" fill="#4A6FE3">1</text><text x="256.9" y="271.1" class="node" fill="#4A6FE3">1</text><text x="279.6" y="280.6" class="node" fill="#4A6FE3">1</text><text x="211.4" y="421.5" class="node" fill="#4A6FE3">1</text><text x="234.1" y="543.6" class="node" fill="#5374E2">0.98</text><text x="256.9" y="425.9" class="node" fill="#627DE1">0.94</text><text x="279.6" y="338.5" class="node" fill="#5B78E2">0.96</text><text x="302.3" y="318.3" class="node" fill="#5B78E2">0.96</text><text x="302.3" y="358.7" class="node" fill="#4A6FE3">1</text><text x="325" y="380.3" class="node" fill="#5B78E2">0.96</text><text x="347.7" y="356.1" class="node" fill="#4A6FE3">1</text><text x="347.7" y="404.5" class="node" fill="#5F7BE1">0.95</text><text x="370.4" y="384.4" class="node" fill="#E59FAC">0.28</text><text x="393.1" y="393.8" class="node" fill="#95A1E2">0.78</text><text x="370.4" y="424.5" class="node" fill="#4A6FE3">1</text><text x="393.1" y="436.3" class="node" fill="#4A6FE3">1</text><text x="415.9" y="447.3" class="node" fill="#4A6FE3">1</text><text x="438.6" y="456.8" class="node" fill="#5B78E2">0.96</text><text x="279.6" y="513.2" class="node" fill="#627DE1">0.94</text><text x="302.3" y="486.7" class="node" fill="#627DE1">0.94</text><text x="325" y="497.7" class="node" fill="#4A6FE3">1</text><text x="347.7" y="507.1" class="node" fill="#4A6FE3">1</text><text x="302.3" y="539.7" class="node" fill="#627DE1">0.94</text><text x="325" y="553.4" class="node" fill="#667FE1">0.93</text><text x="347.7" y="568.3" class="node" fill="#667FE1">0.93</text><text x="370.4" y="585.4" class="node" fill="#667FE1">0.93</text><text x="393.1" y="570" class="node" fill="#667FE1">0.93</text><text x="393.1" y="600.7" class="node" fill="#627DE1">0.94</text><text x="415.9" y="612.5" class="node" fill="#4A6FE3">1</text><text x="438.6" y="623.5" class="node" fill="#E6B7C0">0.36</text><text x="461.3" y="633" class="node" fill="#4A6FE3">1</text><text x="256.9" y="661.3" class="node" fill="#627DE1">0.94</text><text x="279.6" y="670.7" class="node" fill="#627DE1">0.94</text></svg>
