<svg xmlns="http://www.w3.org/2000/svg" version="1.1" width="682" height="555" class="tree" char="3">
 <text x="678" y="17.7" text-anchor="end" class="stepsLabel">Character adds <tspan class="score">1</tspan> to tree score</text>
 <text x="678" y="32.4" text-anchor="end" class="stepsLabel"><tspan class="score"></tspan> additional region</text>
 <text x="678" y="47.1" text-anchor="end" class="stepsLabel">CI = 1; Fitch CI = 1; Fitch RI = 1</text>
 <text x="678" y="76.5" text-anchor="end" class="stepsLabel"><tspan dy="16">An optimal tree under:</tspan><tspan x="680" style="font-style:italic" class="notThisAn" dy="1.2em">Equal weights</tspan><tspan x="680" style="font-style:italic" class="notThisAn" dy="1.2em">Implied weights, k = 2</tspan><tspan x="680" style="font-style:italic" class="notThisAn" dy="1.2em">IW, k = 3</tspan><tspan x="680" style="font-style:italic" class="notThisAn" dy="1.2em">IW, k = 4.5</tspan><tspan x="680" style="font-style:italic" class="thisAn" dy="1.2em">IW, k = 7</tspan><tspan x="680" style="font-style:italic" class="thisAn" dy="1.2em">IW, k = 10.5</tspan><tspan x="680" style="font-style:italic" class="thisAn" dy="1.2em">IW, k = 16</tspan><tspan x="680" style="font-style:italic" class="thisAn" dy="1.2em">IW, k = 24</tspan></text>
 <text x="35.1" y="8" fill="#fc8d59" class="flag">[0]</text>
 <text x="55.1" y="8" class="taxonLabel">Dailyatia</text>
 <text x="91.2" y="23.1" fill="#fc8d59" class="flag">[0]</text>
 <text x="111.2" y="23.1" class="taxonLabel">Eccentrotheca</text>
 <text x="91.2" y="38.3" fill="lightgrey" class="flag">[-]</text>
 <text x="111.2" y="38.3" class="taxonLabel">Phoronis</text>
 <text x="91.2" y="53.4" fill="#fc8d59" class="flag">[0]</text>
 <text x="111.2" y="53.4" class="taxonLabel">Paterimitra</text>
 <text x="203.4" y="68.6" fill="#91bfdb" class="flag">[1]</text>
 <text x="223.4" y="68.6" class="taxonLabel">Micromitra</text>
 <text x="203.4" y="83.7" fill="#91bfdb" class="flag">[1]</text>
 <text x="223.4" y="83.7" class="taxonLabel">Askepasma toddense</text>
 <text x="231.5" y="98.8" fill="#91bfdb" class="flag">[1]</text>
 <text x="251.5" y="98.8" class="taxonLabel">Salanygolina</text>
 <text x="259.5" y="114" fill="#91bfdb" class="flag">[1]</text>
 <text x="279.5" y="114" class="taxonLabel">Tomteluva perturbata</text>
 <text x="259.5" y="129.1" fill="#91bfdb" class="flag">[1]</text>
 <text x="279.5" y="129.1" class="taxonLabel">Yuganotheca elegans</text>
 <text x="259.5" y="144.2" fill="#91bfdb" class="flag">[1]</text>
 <text x="279.5" y="144.2" class="taxonLabel">Coolinia pecten</text>
 <text x="259.5" y="159.4" fill="#91bfdb" class="flag">[1]</text>
 <text x="279.5" y="159.4" class="taxonLabel">Antigonambonites planus</text>
 <text x="259.5" y="174.5" fill="#91bfdb" class="flag">[1]</text>
 <text x="279.5" y="174.5" class="taxonLabel">Kutorgina chengjiangensis</text>
 <text x="287.6" y="189.7" fill="#91bfdb" class="flag">[1]</text>
 <text x="307.6" y="189.7" class="taxonLabel">Nisusia sulcata</text>
 <text x="315.6" y="204.8" fill="#91bfdb" class="flag">[1]</text>
 <text x="335.6" y="204.8" class="taxonLabel">Glyptoria</text>
 <text x="343.7" y="219.9" fill="#91bfdb" class="flag">[1]</text>
 <text x="363.7" y="219.9" class="taxonLabel">Longtancunella chengjiangensis</text>
 <text x="371.8" y="235.1" fill="#91bfdb" class="flag">[1]</text>
 <text x="391.8" y="235.1" class="taxonLabel">Alisina</text>
 <text x="399.8" y="250.2" fill="#91bfdb" class="flag">[1]</text>
 <text x="419.8" y="250.2" class="taxonLabel">Terebratulina</text>
 <text x="399.8" y="265.4" fill="#91bfdb" class="flag">[1]</text>
 <text x="419.8" y="265.4" class="taxonLabel">Orthis</text>
 <text x="203.4" y="280.5" fill="#91bfdb" class="flag">[1]</text>
 <text x="223.4" y="280.5" class="taxonLabel">Gasconsia</text>
 <text x="231.5" y="295.6" fill="#91bfdb" class="flag">[1]</text>
 <text x="251.5" y="295.6" class="taxonLabel">Heliomedusa orienta</text>
 <text x="259.5" y="310.8" fill="#91bfdb" class="flag">[1]</text>
 <text x="279.5" y="310.8" class="taxonLabel">Ussunia</text>
 <text x="287.6" y="325.9" fill="#91bfdb" class="flag">[1]</text>
 <text x="307.6" y="325.9" class="taxonLabel">Novocrania</text>
 <text x="287.6" y="341.1" fill="#91bfdb" class="flag">[1]</text>
 <text x="307.6" y="341.1" class="taxonLabel">Craniops</text>
 <text x="203.4" y="356.2" fill="#91bfdb" class="flag">[1]</text>
 <text x="223.4" y="356.2" class="taxonLabel">Pelagodiscus atlanticus</text>
 <text x="231.5" y="371.3" fill="#91bfdb" class="flag">[1]</text>
 <text x="251.5" y="371.3" class="taxonLabel">Mickwitzia muralensis</text>
 <text x="259.5" y="386.5" fill="#91bfdb" class="flag">[1]</text>
 <text x="279.5" y="386.5" class="taxonLabel">Micrina</text>
 <text x="287.6" y="401.6" fill="#91bfdb" class="flag">[1]</text>
 <text x="307.6" y="401.6" class="taxonLabel">Lingula</text>
 <text x="315.6" y="416.8" fill="#91bfdb" class="flag">[1]</text>
 <text x="335.6" y="416.8" class="taxonLabel">Eoobolus</text>
 <text x="343.7" y="431.9" fill="#91bfdb" class="flag">[1]</text>
 <text x="363.7" y="431.9" class="taxonLabel">Mummpikia nuda</text>
 <text x="371.8" y="447" fill="#91bfdb" class="flag">[1]</text>
 <text x="391.8" y="447" class="taxonLabel">Botsfordia</text>
 <text x="399.8" y="462.2" fill="#91bfdb" class="flag">[1]</text>
 <text x="419.8" y="462.2" class="taxonLabel">Lingulellotreta malongensis</text>
 <text x="427.9" y="477.3" fill="#91bfdb" class="flag">[1]</text>
 <text x="447.9" y="477.3" class="taxonLabel">Clupeafumosus socialis</text>
 <text x="455.9" y="492.4" fill="#91bfdb" class="flag">[1]</text>
 <text x="475.9" y="492.4" class="taxonLabel">Lingulosacculus</text>
 <text x="484" y="507.6" fill="#91bfdb" class="flag">[1]</text>
 <text x="504" y="507.6" class="taxonLabel">Siphonobolus priscus</text>
 <text x="484" y="522.7" fill="#91bfdb" class="flag">[1]</text>
 <text x="504" y="522.7" class="taxonLabel">Acanthotretella spinosa</text>
 <text x="147.3" y="537.9" fill="grey" class="flag">[01]</text>
 <text x="167.3" y="537.9" class="taxonLabel">Haplophrentis carinatus</text>
 <text x="147.3" y="553" fill="#91bfdb" class="flag">[1]</text>
 <text x="167.3" y="553" class="taxonLabel">Pedunculotheca diania</text>
 <path d="M5,63.2V5H33.1M5,63.2V121.5H33.1M33.1,121.5V27.7H61.1M61.1,27.7V20.1H89.2M33.1,121.5V215.2H61.1M61.1,215.2V50.4H89.2" stroke="#fc8d59"></path>
 <path d="M61.1,27.7V35.3H89.2" stroke="lightgrey" class="inapplicable"></path>
 <path d="M61.1,215.2V380H89.2M89.2,380V217.6H117.2M117.2,217.6V105.3H145.3M145.3,105.3V73.1H173.4M173.4,73.1V65.6H201.4M173.4,73.1V80.7H201.4M145.3,105.3V137.4H173.4M173.4,137.4V107.2H201.4M201.4,107.2V95.8H229.5M201.4,107.2V118.5H229.5M229.5,118.5V111H257.5M229.5,118.5V126.1H257.5M173.4,137.4V167.6H201.4M201.4,167.6V148.8H229.5M229.5,148.8V141.2H257.5M229.5,148.8V156.4H257.5M201.4,167.6V186.4H229.5M229.5,186.4V171.5H257.5M229.5,186.4V201.3H257.5M257.5,201.3V186.7H285.6M257.5,201.3V216H285.6M285.6,216V201.8H313.6M285.6,216V230.2H313.6M313.6,230.2V216.9H341.7M313.6,230.2V243.4H341.7M341.7,243.4V232.1H369.8M341.7,243.4V254.8H369.8M369.8,254.8V247.2H397.8M369.8,254.8V262.4H397.8M117.2,217.6V330H145.3M145.3,330V291.7H173.4M173.4,291.7V277.5H201.4M173.4,291.7V305.9H201.4M201.4,305.9V292.6H229.5M201.4,305.9V319.1H229.5M229.5,319.1V307.8H257.5M229.5,319.1V330.5H257.5M257.5,330.5V322.9H285.6M257.5,330.5V338.1H285.6M145.3,330V368.3H173.4M173.4,368.3V353.2H201.4M173.4,368.3V383.5H201.4M201.4,383.5V368.3H229.5M201.4,383.5V398.6H229.5M229.5,398.6V383.5H257.5M229.5,398.6V413.7H257.5M257.5,413.7V398.6H285.6M257.5,413.7V428.8H285.6M285.6,428.8V413.8H313.6M285.6,428.8V443.8H313.6M313.6,443.8V428.9H341.7M313.6,443.8V458.7H341.7M341.7,458.7V444H369.8M341.7,458.7V473.4H369.8M369.8,473.4V459.2H397.8M369.8,473.4V487.6H397.8M397.8,487.6V474.3H425.9M397.8,487.6V500.8H425.9M425.9,500.8V489.4H453.9M425.9,500.8V512.2H453.9M453.9,512.2V504.6H482M453.9,512.2V519.7H482M89.2,380V542.4H117.2M117.2,542.4V534.9H145.3M117.2,542.4V550H145.3" stroke="#91bfdb"></path></svg>
