<svg xmlns="http://www.w3.org/2000/svg" version="1.1" width="682" height="612" class="tree" data-char="65"><text x="678" y="16" text-anchor="end" class="stepsLabel">Character adds <tspan class="score">3</tspan> to tree score</text><text x="678" y="29" text-anchor="end" class="stepsLabel"><tspan class="score">0</tspan> additional regions</text><text x="678" y="42" text-anchor="end" class="stepsLabel">CI = 0.33; Fitch CI = 0.33; Fitch RI = 0</text><text x="678" y="68" text-anchor="end" class="stepsLabel"><tspan dy="16">An optimal tree under:</tspan><tspan x="680" style="font-style:italic" class="notThisAn" dy="1.2em">Equal weights</tspan><tspan x="680" style="font-style:italic" class="notThisAn" dy="1.2em">Implied weights, k = 2</tspan><tspan x="680" style="font-style:italic" class="notThisAn" dy="1.2em">IW, k = 3</tspan><tspan x="680" style="font-style:italic" class="notThisAn" dy="1.2em">IW, k = 4.5</tspan><tspan x="680" style="font-style:italic" class="notThisAn" dy="1.2em">IW, k = 7</tspan><tspan x="680" style="font-style:italic" class="thisAn" dy="1.2em">IW, k = 10.5</tspan></text><text x="124.2" y="593.7" fill="lightgrey" class="flag">[-]</text><text x="146.2" y="593.7" fill="lightgrey" class="taxonLabel">Wiwaxia corrugata</text><text x="124.2" y="607" fill="lightgrey" class="flag">[-]</text><text x="146.2" y="607" fill="lightgrey" class="taxonLabel">Dentalium</text><text x="94.4" y="580.5" fill="lightgrey" class="flag">[-]</text><text x="116.4" y="580.5" fill="lightgrey" class="taxonLabel">Tonicella</text><text x="94.4" y="553.9" fill="lightgrey" class="flag">[-]</text><text x="116.4" y="553.9" fill="lightgrey" class="taxonLabel">Sipunculus</text><text x="94.4" y="567.2" fill="lightgrey" class="flag">[-]</text><text x="116.4" y="567.2" fill="lightgrey" class="taxonLabel">Serpula</text><text x="452.2" y="514.1" fill="#e2e2a2" class="flag">[1]</text><text x="474.2" y="514.1" fill="#000" class="taxonLabel">Acanthotretella spinosa</text><text x="452.2" y="527.4" fill="#e2e2a2" class="flag">[1]</text><text x="474.2" y="527.4" fill="#000" class="taxonLabel">Siphonobolus priscus</text><text x="422.4" y="500.9" fill="#e2e2a2" class="flag">[1]</text><text x="444.4" y="500.9" fill="#000" class="taxonLabel">Lingulosacculus</text><text x="392.6" y="487.6" fill="#e2e2a2" class="flag">[1]</text><text x="414.6" y="487.6" fill="#000" class="taxonLabel">Clupeafumosus socialis</text><text x="362.8" y="474.3" fill="#e2e2a2" class="flag">[1]</text><text x="384.8" y="474.3" fill="#000" class="taxonLabel">Lingulellotreta malongensis</text><text x="332.9" y="461.1" fill="#e2e2a2" class="flag">[1]</text><text x="354.9" y="461.1" fill="#000" class="taxonLabel">Botsfordia</text><text x="303.1" y="447.8" fill="#e2e2a2" class="flag">[1]</text><text x="325.1" y="447.8" fill="#000" class="taxonLabel">Mummpikia nuda</text><text x="273.3" y="434.5" fill="#e2e2a2" class="flag">[1]</text><text x="295.3" y="434.5" fill="#000" class="taxonLabel">Eoobolus</text><text x="243.5" y="421.3" fill="#e2e2a2" class="flag">[1]</text><text x="265.5" y="421.3" fill="#000" class="taxonLabel">Lingula</text><text x="273.3" y="394.7" fill="#e2e2a2" class="flag">[1]</text><text x="295.3" y="394.7" fill="#000" class="taxonLabel">Mickwitzia muralensis</text><text x="273.3" y="408" fill="#e2e2a2" class="flag">[1]</text><text x="295.3" y="408" fill="#000" class="taxonLabel">Pelagodiscus atlanticus</text><text x="243.5" y="381.5" fill="lightgrey" class="flag">[-]</text><text x="265.5" y="381.5" fill="lightgrey" class="taxonLabel">Micrina</text><text x="303.1" y="354.9" fill="#e2e2a2" class="flag">[1]</text><text x="325.1" y="354.9" fill="#000" class="taxonLabel">Craniops</text><text x="303.1" y="368.2" fill="#e2e2a2" class="flag">[1]</text><text x="325.1" y="368.2" fill="#000" class="taxonLabel">Novocrania</text><text x="273.3" y="341.7" fill="#e2e2a2" class="flag">[1]</text><text x="295.3" y="341.7" fill="#000" class="taxonLabel">Ussunia</text><text x="243.5" y="328.4" fill="#e2e2a2" class="flag">[1]</text><text x="265.5" y="328.4" fill="#000" class="taxonLabel">Gasconsia</text><text x="332.9" y="301.9" fill="#91bfdb" class="flag">[2]</text><text x="354.9" y="301.9" fill="#000" class="taxonLabel">Tomteluva perturbata</text><text x="332.9" y="315.1" fill="#e2e2a2" class="flag">[1]</text><text x="354.9" y="315.1" fill="#000" class="taxonLabel">Yuganotheca elegans</text><text x="303.1" y="288.6" fill="#e2e2a2" class="flag">[1]</text><text x="325.1" y="288.6" fill="#000" class="taxonLabel">Salanygolina</text><text x="332.9" y="262.1" fill="#e2e2a2" class="flag">[1]</text><text x="354.9" y="262.1" fill="#000" class="taxonLabel">Antigonambonites planus</text><text x="332.9" y="275.3" fill="#e2e2a2" class="flag">[1]</text><text x="354.9" y="275.3" fill="#000" class="taxonLabel">Coolinia pecten</text><text x="482" y="235.5" fill="grey" class="flag">[12]</text><text x="504" y="235.5" fill="grey" class="taxonLabel">Terebratulina</text><text x="482" y="248.8" fill="#e2e2a2" class="flag">[1]</text><text x="504" y="248.8" fill="#000" class="taxonLabel">Orthis</text><text x="452.2" y="222.3" fill="#e2e2a2" class="flag">[1]</text><text x="474.2" y="222.3" fill="#000" class="taxonLabel">Alisina</text><text x="422.4" y="209" fill="#e2e2a2" class="flag">[1]</text><text x="444.4" y="209" fill="#000" class="taxonLabel">Longtancunella chengjiangensis</text><text x="392.6" y="195.7" fill="#91bfdb" class="flag">[2]</text><text x="414.6" y="195.7" fill="#000" class="taxonLabel">Glyptoria</text><text x="362.8" y="182.5" fill="#e2e2a2" class="flag">[1]</text><text x="384.8" y="182.5" fill="#000" class="taxonLabel">Nisusia sulcata</text><text x="332.9" y="169.2" fill="#e2e2a2" class="flag">[1]</text><text x="354.9" y="169.2" fill="#000" class="taxonLabel">Kutorgina chengjiangensis</text><text x="273.3" y="142.7" fill="#91bfdb" class="flag">[2]</text><text x="295.3" y="142.7" fill="#000" class="taxonLabel">Askepasma toddense</text><text x="273.3" y="155.9" fill="#e2e2a2" class="flag">[1]</text><text x="295.3" y="155.9" fill="#000" class="taxonLabel">Micromitra</text><text x="213.7" y="116.1" fill="#e2e2a2" class="flag">[1]</text><text x="235.7" y="116.1" fill="#000" class="taxonLabel">Haplophrentis carinatus</text><text x="213.7" y="129.4" fill="#e2e2a2" class="flag">[1]</text><text x="235.7" y="129.4" fill="#000" class="taxonLabel">Pedunculotheca diania</text><text x="183.9" y="102.9" fill="lightgrey" class="flag">[-]</text><text x="205.9" y="102.9" fill="lightgrey" class="taxonLabel">Paterimitra</text><text x="124.2" y="89.6" fill="#e2e2a2" class="flag">[1]</text><text x="146.2" y="89.6" fill="#000" class="taxonLabel">Heliomedusa orienta</text><text x="183.9" y="63.1" fill="lightgrey" class="flag">[-]</text><text x="205.9" y="63.1" fill="lightgrey" class="taxonLabel">Dailyatia</text><text x="183.9" y="76.3" fill="lightgrey" class="flag">[-]</text><text x="205.9" y="76.3" fill="lightgrey" class="taxonLabel">Eccentrotheca</text><text x="154.1" y="49.8" fill="lightgrey" class="flag">[-]</text><text x="176.1" y="49.8" fill="lightgrey" class="taxonLabel">Cotyledion tylodes</text><text x="183.9" y="10" fill="lightgrey" class="flag">[-]</text><text x="205.9" y="10" fill="lightgrey" class="taxonLabel">Flustra</text><text x="183.9" y="23.3" fill="lightgrey" class="flag">[-]</text><text x="205.9" y="23.3" fill="lightgrey" class="taxonLabel">Loxosomella</text><text x="154.1" y="36.5" fill="lightgrey" class="flag">[-]</text><text x="176.1" y="36.5" fill="lightgrey" class="taxonLabel">Phoronis</text><text x="64.6" y="540.7" fill="lightgrey" class="flag">[-]</text><text x="86.6" y="540.7" fill="lightgrey" class="taxonLabel">Halkieria evangelista</text><path d="M5,445.1V317.8H34.8M34.8,317.8V97.9H64.6M64.6,97.9V40.2H94.4M94.4,40.2V23.6H124.2M124.2,23.6V13.6H154.1M154.1,13.6V7H183.9M154.1,13.6V20.3H183.9M124.2,23.6V33.5H154.1M94.4,40.2V56.8H124.2M124.2,56.8V46.8H154.1M124.2,56.8V66.7H154.1M154.1,66.7V60.1H183.9M154.1,66.7V73.3H183.9M154.1,109.8V99.9H183.9M213.7,388.4V378.5H243.5M34.8,317.8V537.7H64.6M5,445.1V572.5H34.8M34.8,572.5V557.6H64.6M64.6,557.6V550.9H94.4M64.6,557.6V564.2H94.4M34.8,572.5V587.4H64.6M64.6,587.4V577.5H94.4M64.6,587.4V597.4H94.4M94.4,597.4V590.7H124.2M94.4,597.4V604H124.2" stroke="lightgrey" class="inapplicable"></path><path d="M64.6,97.9V155.7H94.4M94.4,155.7V86.6H124.2M94.4,155.7V224.9H124.2M124.2,224.9V109.8H154.1M154.1,109.8V119.8H183.9M183.9,119.8V113.1H213.7M183.9,119.8V126.4H213.7M124.2,224.9V339.9H154.1M154.1,339.9V269.8H183.9M183.9,269.8V202.7H213.7M213.7,202.7V146.3H243.5M243.5,146.3V152.9H273.3M213.7,202.7V259H243.5M243.5,259V222.5H273.3M273.3,222.5V179.3H303.1M303.1,179.3V166.2H332.9M303.1,179.3V192.3H332.9M332.9,192.3V179.5H362.8M332.9,192.3V205.2H362.8M362.8,205.2V217.6H392.6M392.6,217.6V206H422.4M392.6,217.6V229.2H422.4M422.4,229.2V219.3H452.2M422.4,229.2V239.2H452.2M452.2,239.2V232.5H482M452.2,239.2V245.8H482M273.3,222.5V265.7H303.1M303.1,265.7V259.1H332.9M303.1,265.7V272.3H332.9M243.5,259V295.6H273.3M273.3,295.6V285.6H303.1M273.3,295.6V305.5H303.1M303.1,305.5V312.1H332.9M183.9,269.8V337H213.7M213.7,337V325.4H243.5M213.7,337V348.6H243.5M243.5,348.6V338.7H273.3M243.5,348.6V358.6H273.3M273.3,358.6V351.9H303.1M273.3,358.6V365.2H303.1M154.1,339.9V409.9H183.9M183.9,409.9V388.4H213.7M213.7,388.4V398.4H243.5M243.5,398.4V391.7H273.3M243.5,398.4V405H273.3M183.9,409.9V431.5H213.7M213.7,431.5V418.3H243.5M213.7,431.5V444.7H243.5M243.5,444.7V431.5H273.3M243.5,444.7V457.9H273.3M273.3,457.9V444.8H303.1M273.3,457.9V470.9H303.1M303.1,470.9V458.1H332.9M303.1,470.9V483.8H332.9M332.9,483.8V471.3H362.8M332.9,483.8V496.2H362.8M362.8,496.2V484.6H392.6M362.8,496.2V507.8H392.6M392.6,507.8V497.9H422.4M392.6,507.8V517.8H422.4M422.4,517.8V511.1H452.2M422.4,517.8V524.4H452.2" stroke="#e2e2a2"></path><path d="M243.5,146.3V139.7H273.3M362.8,205.2V192.7H392.6M303.1,305.5V298.9H332.9" stroke="#91bfdb"></path><text x="7" y="448.1" class="node" fill="#4A6FE3">1</text><text x="36.8" y="320.8" class="node" fill="#4A6FE3">1</text><text x="66.6" y="100.9" class="node" fill="#8091E1">0.85</text><text x="96.4" y="43.2" class="node" fill="#8091E1">0.85</text><text x="126.2" y="26.6" class="node" fill="#4A6FE3">1</text><text x="156.1" y="16.6" class="node" fill="#4A6FE3">1</text><text x="126.2" y="59.8" class="node" fill="#8091E1">0.85</text><text x="156.1" y="69.7" class="node" fill="#8091E1">0.85</text><text x="96.4" y="158.7" class="node" fill="#8091E1">0.85</text><text x="126.2" y="227.9" class="node" fill="#8091E1">0.85</text><text x="156.1" y="112.8" class="node" fill="#B4BBE3">0.67</text><text x="185.9" y="122.8" class="node" fill="#4A6FE3">1</text><text x="156.1" y="342.9" class="node" fill="#4A6FE3">1</text><text x="185.9" y="272.8" class="node" fill="#4A6FE3">1</text><text x="215.7" y="205.7" class="node" fill="#A0ABE2">0.74</text><text x="245.5" y="149.3" class="node" fill="#4A6FE3">1</text><text x="245.5" y="262" class="node" fill="#8C9BE1">0.81</text><text x="275.3" y="225.5" class="node" fill="#4A6FE3">1</text><text x="305.1" y="182.3" class="node" fill="#DADBE3">0.53</text><text x="334.9" y="195.3" class="node" fill="#DADBE3">0.53</text><text x="364.8" y="208.2" class="node" fill="#DADBE3">0.53</text><text x="394.6" y="220.6" class="node" fill="#DADBE3">0.53</text><text x="424.4" y="232.2" class="node" fill="#4A6FE3">1</text><text x="454.2" y="242.2" class="node" fill="#97A4E2">0.77</text><text x="305.1" y="268.7" class="node" fill="#4A6FE3">1</text><text x="275.3" y="298.6" class="node" fill="#BFC4E3">0.63</text><text x="305.1" y="308.5" class="node" fill="#627DE1">0.94</text><text x="215.7" y="340" class="node" fill="#4A6FE3">1</text><text x="245.5" y="351.6" class="node" fill="#4A6FE3">1</text><text x="275.3" y="361.6" class="node" fill="#4A6FE3">1</text><text x="185.9" y="412.9" class="node" fill="#B4BBE3">0.67</text><text x="215.7" y="391.4" class="node" fill="#B4BBE3">0.67</text><text x="245.5" y="401.4" class="node" fill="#ABB4E2">0.7</text><text x="215.7" y="434.5" class="node" fill="#ABB4E2">0.7</text><text x="245.5" y="447.7" class="node" fill="#ABB4E2">0.7</text><text x="275.3" y="460.9" class="node" fill="#B4BBE3">0.67</text><text x="305.1" y="473.9" class="node" fill="#B4BBE3">0.67</text><text x="334.9" y="486.8" class="node" fill="#B4BBE3">0.67</text><text x="364.8" y="499.2" class="node" fill="#E5CACE">0.42</text><text x="394.6" y="510.8" class="node" fill="#E38FA0">0.23</text><text x="424.4" y="520.8" class="node" fill="#4A6FE3">1</text><text x="36.8" y="575.5" class="node" fill="#4A6FE3">1</text><text x="66.6" y="560.6" class="node" fill="#A6AFE2">0.72</text><text x="66.6" y="590.4" class="node" fill="#E4D9DB">0.47</text><text x="96.4" y="600.4" class="node" fill="#E4D9DB">0.47</text></svg>
