<svg xmlns="http://www.w3.org/2000/svg" version="1.1" width="682" height="612" class="tree" data-char="39"><text x="678" y="16" text-anchor="end" class="stepsLabel">Character adds <tspan class="score">1</tspan> to tree score</text><text x="678" y="29" text-anchor="end" class="stepsLabel"><tspan class="score">0</tspan> additional regions</text><text x="678" y="42" text-anchor="end" class="stepsLabel">CI = 1; Fitch CI = 1; Fitch RI = 1</text><text x="678" y="68" text-anchor="end" class="stepsLabel"><tspan dy="16">An optimal tree under:</tspan><tspan x="680" style="font-style:italic" class="notThisAn" dy="1.2em">Equal weights</tspan><tspan x="680" style="font-style:italic" class="notThisAn" dy="1.2em">Implied weights, k = 2</tspan><tspan x="680" style="font-style:italic" class="notThisAn" dy="1.2em">IW, k = 3</tspan><tspan x="680" style="font-style:italic" class="thisAn" dy="1.2em">IW, k = 4.5</tspan><tspan x="680" style="font-style:italic" class="notThisAn" dy="1.2em">IW, k = 7</tspan><tspan x="680" style="font-style:italic" class="notThisAn" dy="1.2em">IW, k = 10.5</tspan><tspan x="680" style="font-style:italic" class="notThisAn" dy="1.2em">IW, k = 16</tspan><tspan x="680" style="font-style:italic" class="notThisAn" dy="1.2em">IW, k = 24</tspan></text><text x="91.7" y="593.7" fill="lightgrey" class="flag">[-]</text><text x="113.7" y="593.7" fill="lightgrey" class="taxonLabel">Tonicella</text><text x="91.7" y="607" fill="grey" class="flag">[?]</text><text x="113.7" y="607" fill="grey" class="taxonLabel">Wiwaxia corrugata</text><text x="70" y="580.5" fill="#e2e2a2" class="flag">[1]</text><text x="92" y="580.5" fill="#000" class="taxonLabel">Dentalium</text><text x="70" y="553.9" fill="#e2e2a2" class="flag">[1]</text><text x="92" y="553.9" fill="#000" class="taxonLabel">Sipunculus</text><text x="70" y="567.2" fill="#e2e2a2" class="flag">[1]</text><text x="92" y="567.2" fill="#000" class="taxonLabel">Serpula</text><text x="221.8" y="514.1" fill="grey" class="flag">[?]</text><text x="243.8" y="514.1" fill="grey" class="taxonLabel">Haplophrentis carinatus</text><text x="221.8" y="527.4" fill="grey" class="flag">[?]</text><text x="243.8" y="527.4" fill="grey" class="taxonLabel">Pedunculotheca diania</text><text x="351.9" y="487.6" fill="grey" class="flag">[?]</text><text x="373.9" y="487.6" fill="grey" class="taxonLabel">Craniops</text><text x="351.9" y="500.9" fill="grey" class="flag">[?]</text><text x="373.9" y="500.9" fill="grey" class="taxonLabel">Novocrania</text><text x="330.2" y="474.3" fill="grey" class="flag">[?]</text><text x="352.2" y="474.3" fill="grey" class="taxonLabel">Ussunia</text><text x="308.5" y="461.1" fill="grey" class="flag">[?]</text><text x="330.5" y="461.1" fill="grey" class="taxonLabel">Gasconsia</text><text x="330.2" y="434.5" fill="grey" class="flag">[?]</text><text x="352.2" y="434.5" fill="grey" class="taxonLabel">Askepasma toddense</text><text x="330.2" y="447.8" fill="grey" class="flag">[?]</text><text x="352.2" y="447.8" fill="grey" class="taxonLabel">Micromitra</text><text x="373.6" y="408" fill="grey" class="flag">[?]</text><text x="395.6" y="408" fill="grey" class="taxonLabel">Tomteluva perturbata</text><text x="373.6" y="421.3" fill="grey" class="flag">[?]</text><text x="395.6" y="421.3" fill="grey" class="taxonLabel">Yuganotheca elegans</text><text x="351.9" y="394.7" fill="grey" class="flag">[?]</text><text x="373.9" y="394.7" fill="grey" class="taxonLabel">Salanygolina</text><text x="482" y="368.2" fill="grey" class="flag">[?]</text><text x="504" y="368.2" fill="grey" class="taxonLabel">Orthis</text><text x="482" y="381.5" fill="#91bfdb" class="flag">[2]</text><text x="504" y="381.5" fill="#000" class="taxonLabel">Terebratulina</text><text x="460.3" y="354.9" fill="grey" class="flag">[?]</text><text x="482.3" y="354.9" fill="grey" class="taxonLabel">Alisina</text><text x="438.6" y="341.7" fill="grey" class="flag">[?]</text><text x="460.6" y="341.7" fill="grey" class="taxonLabel">Longtancunella chengjiangensis</text><text x="417" y="328.4" fill="grey" class="flag">[?]</text><text x="439" y="328.4" fill="grey" class="taxonLabel">Glyptoria</text><text x="395.3" y="315.1" fill="grey" class="flag">[?]</text><text x="417.3" y="315.1" fill="grey" class="taxonLabel">Nisusia sulcata</text><text x="373.6" y="301.9" fill="grey" class="flag">[?]</text><text x="395.6" y="301.9" fill="grey" class="taxonLabel">Kutorgina chengjiangensis</text><text x="373.6" y="275.3" fill="grey" class="flag">[?]</text><text x="395.6" y="275.3" fill="grey" class="taxonLabel">Antigonambonites planus</text><text x="373.6" y="288.6" fill="grey" class="flag">[?]</text><text x="395.6" y="288.6" fill="grey" class="taxonLabel">Coolinia pecten</text><text x="308.5" y="248.8" fill="grey" class="flag">[?]</text><text x="330.5" y="248.8" fill="grey" class="taxonLabel">Mickwitzia muralensis</text><text x="308.5" y="262.1" fill="grey" class="flag">[?]</text><text x="330.5" y="262.1" fill="grey" class="taxonLabel">Pelagodiscus atlanticus</text><text x="351.9" y="222.3" fill="grey" class="flag">[?]</text><text x="373.9" y="222.3" fill="grey" class="taxonLabel">Mummpikia nuda</text><text x="351.9" y="235.5" fill="grey" class="flag">[?]</text><text x="373.9" y="235.5" fill="grey" class="taxonLabel">Botsfordia</text><text x="330.2" y="209" fill="grey" class="flag">[?]</text><text x="352.2" y="209" fill="grey" class="taxonLabel">Eoobolus</text><text x="395.3" y="182.5" fill="grey" class="flag">[?]</text><text x="417.3" y="182.5" fill="grey" class="taxonLabel">Acanthotretella spinosa</text><text x="395.3" y="195.7" fill="grey" class="flag">[?]</text><text x="417.3" y="195.7" fill="grey" class="taxonLabel">Siphonobolus priscus</text><text x="373.6" y="169.2" fill="grey" class="flag">[?]</text><text x="395.6" y="169.2" fill="grey" class="taxonLabel">Clupeafumosus socialis</text><text x="351.9" y="155.9" fill="grey" class="flag">[?]</text><text x="373.9" y="155.9" fill="grey" class="taxonLabel">Lingulosacculus</text><text x="351.9" y="129.4" fill="#91bfdb" class="flag">[2]</text><text x="373.9" y="129.4" fill="#000" class="taxonLabel">Lingula</text><text x="351.9" y="142.7" fill="grey" class="flag">[?]</text><text x="373.9" y="142.7" fill="grey" class="taxonLabel">Lingulellotreta malongensis</text><text x="243.5" y="116.1" fill="grey" class="flag">[?]</text><text x="265.5" y="116.1" fill="grey" class="taxonLabel">Micrina</text><text x="221.8" y="102.9" fill="grey" class="flag">[?]</text><text x="243.8" y="102.9" fill="grey" class="taxonLabel">Paterimitra</text><text x="178.5" y="89.6" fill="grey" class="flag">[?]</text><text x="200.5" y="89.6" fill="grey" class="taxonLabel">Heliomedusa orienta</text><text x="178.5" y="63.1" fill="grey" class="flag">[?]</text><text x="200.5" y="63.1" fill="grey" class="taxonLabel">Halkieria evangelista</text><text x="178.5" y="76.3" fill="grey" class="flag">[?]</text><text x="200.5" y="76.3" fill="grey" class="taxonLabel">Dailyatia</text><text x="135.1" y="49.8" fill="grey" class="flag">[?]</text><text x="157.1" y="49.8" fill="grey" class="taxonLabel">Eccentrotheca</text><text x="113.4" y="36.5" fill="grey" class="flag">[?]</text><text x="135.4" y="36.5" fill="grey" class="taxonLabel">Cotyledion tylodes</text><text x="91.7" y="23.3" fill="#91bfdb" class="flag">[2]</text><text x="113.7" y="23.3" fill="#000" class="taxonLabel">Phoronis</text><text x="70" y="10" fill="#91bfdb" class="flag">[2]</text><text x="92" y="10" fill="#000" class="taxonLabel">Flustra</text><text x="48.4" y="540.7" fill="grey" class="flag">[?]</text><text x="70.4" y="540.7" fill="grey" class="taxonLabel">Loxosomella</text><path d="M5,426.8V281H26.7M26.7,281V537.7H48.4" stroke="darkgrey"></path><path d="M26.7,281V24.4H48.4M48.4,24.4V7H70M48.4,24.4V41.8H70M70,41.8V20.3H91.7M70,41.8V63.4H91.7M91.7,63.4V33.5H113.4M91.7,63.4V93.2H113.4M113.4,93.2V46.8H135.1M113.4,93.2V139.6H135.1M135.1,139.6V66.7H156.8M156.8,66.7V60.1H178.5M156.8,66.7V73.3H178.5M135.1,139.6V212.6H156.8M156.8,212.6V86.6H178.5M156.8,212.6V338.5H178.5M178.5,338.5V159.3H200.1M200.1,159.3V99.9H221.8M200.1,159.3V218.8H221.8M221.8,218.8V113.1H243.5M221.8,218.8V324.5H243.5M243.5,324.5V217.4H265.2M265.2,217.4V182.4H286.9M286.9,182.4V148.8H308.5M308.5,148.8V133H330.2M330.2,133V126.4H351.9M330.2,133V139.7H351.9M308.5,148.8V164.5H330.2M330.2,164.5V152.9H351.9M330.2,164.5V176.2H351.9M351.9,176.2V166.2H373.6M351.9,176.2V186.1H373.6M373.6,186.1V179.5H395.3M373.6,186.1V192.7H395.3M286.9,182.4V216H308.5M308.5,216V206H330.2M308.5,216V225.9H330.2M330.2,225.9V219.3H351.9M330.2,225.9V232.5H351.9M265.2,217.4V252.4H286.9M286.9,252.4V245.8H308.5M286.9,252.4V259.1H308.5M243.5,324.5V431.5H265.2M265.2,431.5V393.4H286.9M286.9,393.4V348.6H308.5M308.5,348.6V295.4H330.2M330.2,295.4V279H351.9M351.9,279V272.3H373.6M351.9,279V285.6H373.6M330.2,295.4V311.9H351.9M351.9,311.9V298.9H373.6M351.9,311.9V325H373.6M373.6,325V312.1H395.3M373.6,325V337.8H395.3M395.3,337.8V325.4H417M395.3,337.8V350.3H417M417,350.3V338.7H438.6M417,350.3V361.9H438.6M438.6,361.9V351.9H460.3M438.6,361.9V371.8H460.3M460.3,371.8V365.2H482M460.3,371.8V378.5H482M308.5,348.6V401.7H330.2M330.2,401.7V391.7H351.9M330.2,401.7V411.6H351.9M351.9,411.6V405H373.6M351.9,411.6V418.3H373.6M286.9,393.4V438.2H308.5M308.5,438.2V431.5H330.2M308.5,438.2V444.8H330.2M265.2,431.5V469.7H286.9M286.9,469.7V458.1H308.5M286.9,469.7V481.3H308.5M308.5,481.3V471.3H330.2M308.5,481.3V491.2H330.2M330.2,491.2V484.6H351.9M330.2,491.2V497.9H351.9M178.5,338.5V517.8H200.1M200.1,517.8V511.1H221.8M200.1,517.8V524.4H221.8" stroke="#91bfdb"></path><path d="M5,426.8V572.5H26.7M26.7,572.5V557.6H48.4M48.4,557.6V550.9H70M48.4,557.6V564.2H70M26.7,572.5V587.4H48.4M48.4,587.4V577.5H70" stroke="#e2e2a2"></path><path d="M48.4,587.4V597.4H70M70,597.4V590.7H91.7M70,597.4V604H91.7" stroke="lightgrey" class="inapplicable"></path><text x="7" y="429.8" class="node" fill="#4A6FE3">1</text><text x="28.7" y="284" class="node" fill="#4A6FE3">1</text><text x="50.4" y="27.4" class="node" fill="#4A6FE3">1</text><text x="72" y="44.8" class="node" fill="#4A6FE3">1</text><text x="93.7" y="66.4" class="node" fill="#4A6FE3">1</text><text x="115.4" y="96.2" class="node" fill="#E6ABB6">0.32</text><text x="137.1" y="142.6" class="node" fill="#4A6FE3">1</text><text x="158.8" y="69.7" class="node" fill="#4A6FE3">1</text><text x="158.8" y="215.6" class="node" fill="#4A6FE3">1</text><text x="180.5" y="341.5" class="node" fill="#9DA8E2">0.75</text><text x="202.1" y="162.3" class="node" fill="#D95A7A">0.07</text><text x="223.8" y="221.8" class="node" fill="#9DA8E2">0.75</text><text x="245.5" y="327.5" class="node" fill="#D95A7A">0.07</text><text x="267.2" y="220.4" class="node" fill="#D95A7A">0.07</text><text x="288.9" y="185.4" class="node" fill="#9DA8E2">0.75</text><text x="310.5" y="151.8" class="node" fill="#D95A7A">0.07</text><text x="332.2" y="136" class="node" fill="#D95A7A">0.07</text><text x="332.2" y="167.5" class="node" fill="#E3DCDD">0.48</text><text x="353.9" y="179.2" class="node" fill="#E6BAC2">0.37</text><text x="375.6" y="189.1" class="node" fill="#4A6FE3">1</text><text x="310.5" y="219" class="node" fill="#E6AEB8">0.33</text><text x="332.2" y="228.9" class="node" fill="#D95A7A">0.07</text><text x="288.9" y="255.4" class="node" fill="#9DA8E2">0.75</text><text x="267.2" y="434.5" class="node" fill="#4A6FE3">1</text><text x="288.9" y="396.4" class="node" fill="#8C9BE1">0.81</text><text x="310.5" y="351.6" class="node" fill="#667FE1">0.93</text><text x="332.2" y="298.4" class="node" fill="#4A6FE3">1</text><text x="353.9" y="282" class="node" fill="#4A6FE3">1</text><text x="353.9" y="314.9" class="node" fill="#7A8DE1">0.87</text><text x="375.6" y="328" class="node" fill="#7A8DE1">0.87</text><text x="397.3" y="340.8" class="node" fill="#7A8DE1">0.87</text><text x="419" y="353.3" class="node" fill="#7A8DE1">0.87</text><text x="440.6" y="364.9" class="node" fill="#4A6FE3">1</text><text x="462.3" y="374.8" class="node" fill="#5B78E2">0.96</text><text x="332.2" y="404.7" class="node" fill="#A0ABE2">0.74</text><text x="353.9" y="414.6" class="node" fill="#7388E1">0.89</text><text x="310.5" y="441.2" class="node" fill="#4A6FE3">1</text><text x="288.9" y="472.7" class="node" fill="#4A6FE3">1</text><text x="310.5" y="484.3" class="node" fill="#4A6FE3">1</text><text x="332.2" y="494.2" class="node" fill="#4A6FE3">1</text><text x="202.1" y="520.8" class="node" fill="#4A6FE3">1</text><text x="28.7" y="575.5" class="node" fill="#4A6FE3">1</text><text x="50.4" y="560.6" class="node" fill="#4A6FE3">1</text><text x="50.4" y="590.4" class="node" fill="#4A6FE3">1</text><text x="72" y="600.4" class="node" fill="#97A4E2">0.77</text></svg>
