<svg xmlns="http://www.w3.org/2000/svg" version="1.1" width="682" height="612" class="tree" data-char="175"><text x="678" y="15.4" text-anchor="end" class="stepsLabel">Character adds <tspan class="score">1</tspan> to tree score</text><text x="678" y="27.8" text-anchor="end" class="stepsLabel"><tspan class="score">0</tspan> additional regions</text><text x="678" y="40.2" text-anchor="end" class="stepsLabel">CI = 1; Fitch CI = 1; Fitch RI = 1</text><text x="678" y="65" text-anchor="end" class="stepsLabel"><tspan dy="16" fill="#34caaf">An optimal tree under:</tspan><tspan x="680" style="font-style:italic" class="thisAn" dy="1.2em">Equal weights</tspan><tspan x="680" style="font-style:italic" class="notThisAn" dy="1.2em">Implied weights, k = 2</tspan><tspan x="680" style="font-style:italic" class="notThisAn" dy="1.2em">IW, k = 3</tspan><tspan x="680" style="font-style:italic" class="notThisAn" dy="1.2em">IW, k = 4.5</tspan><tspan x="680" style="font-style:italic" class="notThisAn" dy="1.2em">IW, k = 7</tspan><tspan x="680" style="font-style:italic" class="notThisAn" dy="1.2em">IW, k = 10.5</tspan><tspan x="680" style="font-style:italic" class="notThisAn" dy="1.2em">IW, k = 16</tspan><tspan x="680" style="font-style:italic" class="notThisAn" dy="1.2em">IW, k = 24</tspan></text><text x="100.4" y="594.3" fill="#e2e2a2" class="flag">[1]</text><text x="122.4" y="594.3" fill="#000" class="taxonLabel">Tonicella</text><text x="100.4" y="607" fill="grey" class="flag">[?]</text><text x="122.4" y="607" fill="#999" class="taxonLabel">Dentalium</text><text x="76.6" y="581.6" fill="grey" class="flag">[?]</text><text x="98.6" y="581.6" fill="#999" class="taxonLabel">Wiwaxia corrugata</text><text x="76.6" y="556.2" fill="#91bfdb" class="flag">[2]</text><text x="98.6" y="556.2" fill="#000" class="taxonLabel">Sipunculus</text><text x="76.6" y="568.9" fill="#91bfdb" class="flag">[2]</text><text x="98.6" y="568.9" fill="#000" class="taxonLabel">Serpula</text><text x="219.7" y="518.1" fill="grey" class="flag">[?]</text><text x="241.7" y="518.1" fill="#999" class="taxonLabel">Pedunculotheca diania</text><text x="219.7" y="530.8" fill="grey" class="flag">[?]</text><text x="241.7" y="530.8" fill="#999" class="taxonLabel">Haplophrentis carinatus</text><text x="362.8" y="492.7" fill="#e2e2a2" class="flag">[1]</text><text x="384.8" y="492.7" fill="#000" class="taxonLabel">Novocrania</text><text x="362.8" y="505.4" fill="grey" class="flag">[?]</text><text x="384.8" y="505.4" fill="#999" class="taxonLabel">Craniops</text><text x="338.9" y="480" fill="grey" class="flag">[?]</text><text x="360.9" y="480" fill="#999" class="taxonLabel">Ussunia</text><text x="315.1" y="467.3" fill="grey" class="flag">[?]</text><text x="337.1" y="467.3" fill="#999" class="taxonLabel">Gasconsia</text><text x="338.9" y="441.9" fill="grey" class="flag">[?]</text><text x="360.9" y="441.9" fill="#999" class="taxonLabel">Mummpikia nuda</text><text x="338.9" y="454.6" fill="grey" class="flag">[?]</text><text x="360.9" y="454.6" fill="#999" class="taxonLabel">Pelagodiscus atlanticus</text><text x="458.2" y="416.5" fill="grey" class="flag">[?]</text><text x="480.2" y="416.5" fill="#999" class="taxonLabel">Siphonobolus priscus</text><text x="458.2" y="429.2" fill="grey" class="flag">[?]</text><text x="480.2" y="429.2" fill="#999" class="taxonLabel">Acanthotretella spinosa</text><text x="458.2" y="391.1" fill="grey" class="flag">[?]</text><text x="480.2" y="391.1" fill="#999" class="taxonLabel">Lingulosacculus</text><text x="458.2" y="403.8" fill="grey" class="flag">[?]</text><text x="480.2" y="403.8" fill="#999" class="taxonLabel">Clupeafumosus socialis</text><text x="410.5" y="378.4" fill="grey" class="flag">[?]</text><text x="432.5" y="378.4" fill="#999" class="taxonLabel">Lingulellotreta malongensis</text><text x="386.6" y="365.7" fill="grey" class="flag">[?]</text><text x="408.6" y="365.7" fill="#999" class="taxonLabel">Botsfordia</text><text x="362.8" y="353" fill="#e2e2a2" class="flag">[1]</text><text x="384.8" y="353" fill="#000" class="taxonLabel">Lingula</text><text x="338.9" y="340.3" fill="grey" class="flag">[?]</text><text x="360.9" y="340.3" fill="#999" class="taxonLabel">Eoobolus</text><text x="482" y="314.9" fill="grey" class="flag">[?]</text><text x="504" y="314.9" fill="#999" class="taxonLabel">Terebratulina</text><text x="482" y="327.6" fill="grey" class="flag">[?]</text><text x="504" y="327.6" fill="#999" class="taxonLabel">Orthis</text><text x="458.2" y="302.1" fill="grey" class="flag">[?]</text><text x="480.2" y="302.1" fill="#999" class="taxonLabel">Alisina</text><text x="434.3" y="289.4" fill="grey" class="flag">[?]</text><text x="456.3" y="289.4" fill="#999" class="taxonLabel">Longtancunella chengjiangensis</text><text x="410.5" y="276.7" fill="grey" class="flag">[?]</text><text x="432.5" y="276.7" fill="#999" class="taxonLabel">Glyptoria</text><text x="386.6" y="264" fill="grey" class="flag">[?]</text><text x="408.6" y="264" fill="#999" class="taxonLabel">Nisusia sulcata</text><text x="362.8" y="251.3" fill="grey" class="flag">[?]</text><text x="384.8" y="251.3" fill="#999" class="taxonLabel">Kutorgina chengjiangensis</text><text x="362.8" y="225.9" fill="grey" class="flag">[?]</text><text x="384.8" y="225.9" fill="#999" class="taxonLabel">Coolinia pecten</text><text x="362.8" y="238.6" fill="grey" class="flag">[?]</text><text x="384.8" y="238.6" fill="#999" class="taxonLabel">Antigonambonites planus</text><text x="362.8" y="200.5" fill="grey" class="flag">[?]</text><text x="384.8" y="200.5" fill="#999" class="taxonLabel">Tomteluva perturbata</text><text x="362.8" y="213.2" fill="grey" class="flag">[?]</text><text x="384.8" y="213.2" fill="#999" class="taxonLabel">Yuganotheca elegans</text><text x="338.9" y="187.8" fill="grey" class="flag">[?]</text><text x="360.9" y="187.8" fill="#999" class="taxonLabel">Salanygolina</text><text x="315.1" y="162.4" fill="grey" class="flag">[?]</text><text x="337.1" y="162.4" fill="#999" class="taxonLabel">Micromitra</text><text x="315.1" y="175.1" fill="grey" class="flag">[?]</text><text x="337.1" y="175.1" fill="#999" class="taxonLabel">Askepasma toddense</text><text x="267.4" y="137" fill="grey" class="flag">[?]</text><text x="289.4" y="137" fill="#999" class="taxonLabel">Mickwitzia muralensis</text><text x="267.4" y="149.7" fill="grey" class="flag">[?]</text><text x="289.4" y="149.7" fill="#999" class="taxonLabel">Micrina</text><text x="219.7" y="124.3" fill="grey" class="flag">[?]</text><text x="241.7" y="124.3" fill="#999" class="taxonLabel">Paterimitra</text><text x="172" y="111.6" fill="grey" class="flag">[?]</text><text x="194" y="111.6" fill="#999" class="taxonLabel">Heliomedusa orienta</text><text x="148.1" y="98.9" fill="grey" class="flag">[?]</text><text x="170.1" y="98.9" fill="#999" class="taxonLabel">Halkieria evangelista</text><text x="124.2" y="86.2" fill="grey" class="flag">[?]</text><text x="146.2" y="86.2" fill="#999" class="taxonLabel">Dailyatia</text><text x="148.1" y="60.8" fill="grey" class="flag">[?]</text><text x="170.1" y="60.8" fill="#999" class="taxonLabel">Phoronis</text><text x="148.1" y="73.5" fill="grey" class="flag">[?]</text><text x="170.1" y="73.5" fill="#999" class="taxonLabel">Namacalathus</text><text x="148.1" y="35.4" fill="grey" class="flag">[?]</text><text x="170.1" y="35.4" fill="#999" class="taxonLabel">Eccentrotheca</text><text x="148.1" y="48.1" fill="grey" class="flag">[?]</text><text x="170.1" y="48.1" fill="#999" class="taxonLabel">Cotyledion tylodes</text><text x="100.4" y="10" fill="grey" class="flag">[?]</text><text x="122.4" y="10" fill="#999" class="taxonLabel">Flustra</text><text x="100.4" y="22.7" fill="grey" class="flag">[?]</text><text x="122.4" y="22.7" fill="#999" class="taxonLabel">Amathia</text><text x="52.7" y="543.5" fill="lightgrey" class="flag">[-]</text><text x="74.7" y="543.5" fill="#ccc" class="taxonLabel">Loxosomella</text><path d="M5,434.6V295.3H28.9M28.9,295.3V50.2H52.7M52.7,50.2V13.4H76.6M76.6,13.4V7H100.4M76.6,13.4V19.7H100.4M52.7,50.2V87.1H76.6M76.6,87.1V51.5H100.4M100.4,51.5V38.8H124.2M124.2,38.8V32.4H148.1M124.2,38.8V45.1H148.1M100.4,51.5V64.2H124.2M124.2,64.2V57.8H148.1M124.2,64.2V70.5H148.1M76.6,87.1V122.7H100.4M100.4,122.7V83.2H124.2M100.4,122.7V162.1H124.2M124.2,162.1V95.9H148.1M124.2,162.1V228.3H148.1M148.1,228.3V108.6H172M148.1,228.3V347.9H172M172,347.9V174.4H195.8M195.8,174.4V121.3H219.7M195.8,174.4V227.5H219.7M219.7,227.5V140.4H243.5M243.5,140.4V134H267.4M243.5,140.4V146.7H267.4M219.7,227.5V314.7H243.5M243.5,314.7V192.7H267.4M267.4,192.7V165.8H291.2M291.2,165.8V159.4H315.1M291.2,165.8V172.1H315.1M267.4,192.7V219.7H291.2M291.2,219.7V194.4H315.1M315.1,194.4V184.8H338.9M315.1,194.4V203.9H338.9M338.9,203.9V197.5H362.8M338.9,203.9V210.2H362.8M291.2,219.7V245.1H315.1M315.1,245.1V229.3H338.9M338.9,229.3V222.9H362.8M338.9,229.3V235.6H362.8M315.1,245.1V260.8H338.9M338.9,260.8V248.3H362.8M338.9,260.8V273.3H362.8M362.8,273.3V261H386.6M362.8,273.3V285.7H386.6M386.6,285.7V273.7H410.5M386.6,285.7V297.6H410.5M410.5,297.6V286.4H434.3M410.5,297.6V308.7H434.3M434.3,308.7V299.1H458.2M434.3,308.7V318.2H458.2M458.2,318.2V311.9H482M458.2,318.2V324.6H482M243.5,314.7V436.6H267.4M267.4,436.6V397.8H291.2M291.2,397.8V350.4H315.1M315.1,350.4V337.3H338.9M315.1,350.4V363.5H338.9M338.9,363.5V350H362.8M338.9,363.5V376.9H362.8M362.8,376.9V362.7H386.6M362.8,376.9V391.2H386.6M386.6,391.2V375.4H410.5M386.6,391.2V407.1H410.5M410.5,407.1V394.4H434.3M434.3,394.4V388.1H458.2M434.3,394.4V400.8H458.2M410.5,407.1V419.8H434.3M434.3,419.8V413.5H458.2M434.3,419.8V426.2H458.2M291.2,397.8V445.2H315.1M315.1,445.2V438.9H338.9M315.1,445.2V451.6H338.9M267.4,436.6V475.4H291.2M291.2,475.4V464.3H315.1M291.2,475.4V486.5H315.1M315.1,486.5V477H338.9M315.1,486.5V496H338.9M338.9,496V489.7H362.8M338.9,496V502.4H362.8M172,347.9V521.4H195.8M195.8,521.4V515.1H219.7M195.8,521.4V527.8H219.7M5,434.6V573.8H28.9M28.9,573.8V588.1H52.7M52.7,588.1V578.6H76.6M52.7,588.1V597.6H76.6M76.6,597.6V591.3H100.4M76.6,597.6V604H100.4" stroke="#e2e2a2"></path><path d="M28.9,295.3V540.5H52.7" stroke="lightgrey" class="inapplicable"></path><path d="M28.9,573.8V559.5H52.7M52.7,559.5V553.2H76.6M52.7,559.5V565.9H76.6" stroke="#91bfdb"></path><text x="7" y="437.6" class="node" fill="#4A6FE3">1</text><text x="30.9" y="298.3" class="node" fill="#4A6FE3">1</text><text x="54.7" y="53.2" class="node" fill="#4A6FE3">1</text><text x="78.6" y="16.4" class="node" fill="#4A6FE3">1</text><text x="78.6" y="90.1" class="node" fill="#4A6FE3">1</text><text x="102.4" y="54.5" class="node" fill="#E6C4C9">0.4</text><text x="126.2" y="41.8" class="node" fill="#E17F94">0.18</text><text x="126.2" y="67.2" class="node" fill="#4A6FE3">1</text><text x="102.4" y="125.7" class="node" fill="#D2D4E3">0.57</text><text x="126.2" y="165.1" class="node" fill="#C4C9E3">0.61</text><text x="150.1" y="231.3" class="node" fill="#4A6FE3">1</text><text x="174" y="350.9" class="node" fill="#E5CACE">0.42</text><text x="197.8" y="177.4" class="node" fill="#E6B4BD">0.35</text><text x="221.7" y="230.5" class="node" fill="#E6C4C9">0.4</text><text x="245.5" y="143.4" class="node" fill="#D95A7A">0.07</text><text x="245.5" y="317.7" class="node" fill="#DB617F">0.09</text><text x="269.4" y="195.7" class="node" fill="#7A8DE1">0.87</text><text x="293.2" y="168.8" class="node" fill="#4A6FE3">1</text><text x="293.2" y="222.7" class="node" fill="#7A8DE1">0.87</text><text x="317.1" y="197.4" class="node" fill="#D5D7E3">0.55</text><text x="340.9" y="206.9" class="node" fill="#D2D4E3">0.56</text><text x="317.1" y="248.1" class="node" fill="#9DA8E2">0.75</text><text x="340.9" y="232.3" class="node" fill="#4A6FE3">1</text><text x="340.9" y="263.8" class="node" fill="#9DA8E2">0.75</text><text x="364.8" y="276.3" class="node" fill="#9DA8E2">0.75</text><text x="388.6" y="288.7" class="node" fill="#4A6FE3">1</text><text x="412.5" y="300.6" class="node" fill="#4A6FE3">1</text><text x="436.3" y="311.7" class="node" fill="#4A6FE3">1</text><text x="460.2" y="321.2" class="node" fill="#4A6FE3">1</text><text x="269.4" y="439.6" class="node" fill="#B4BBE3">0.67</text><text x="293.2" y="400.8" class="node" fill="#B4BBE3">0.67</text><text x="317.1" y="353.4" class="node" fill="#DDDEE3">0.52</text><text x="340.9" y="366.5" class="node" fill="#DDDEE3">0.52</text><text x="364.8" y="379.9" class="node" fill="#DDDEE3">0.52</text><text x="388.6" y="394.2" class="node" fill="#D7D9E3">0.54</text><text x="412.5" y="410.1" class="node" fill="#7D8FE1">0.86</text><text x="436.3" y="397.4" class="node" fill="#E5A8B3">0.31</text><text x="436.3" y="422.8" class="node" fill="#4A6FE3">1</text><text x="317.1" y="448.2" class="node" fill="#DADBE3">0.53</text><text x="293.2" y="478.4" class="node" fill="#4A6FE3">1</text><text x="317.1" y="489.5" class="node" fill="#4A6FE3">1</text><text x="340.9" y="499" class="node" fill="#4A6FE3">1</text><text x="197.8" y="524.4" class="node" fill="#4A6FE3">1</text><text x="30.9" y="576.8" class="node" fill="#4A6FE3">1</text><text x="54.7" y="562.5" class="node" fill="#4A6FE3">1</text><text x="54.7" y="591.1" class="node" fill="#4A6FE3">1</text><text x="78.6" y="600.6" class="node" fill="#B4BBE3">0.67</text></svg>
