<svg xmlns="http://www.w3.org/2000/svg" version="1.1" width="682" height="612" class="tree" data-char="26"><text x="678" y="15.4" text-anchor="end" class="stepsLabel">Character adds <tspan class="score">4</tspan> to tree score</text><text x="678" y="27.8" text-anchor="end" class="stepsLabel"><tspan class="score">0</tspan> additional regions</text><text x="678" y="40.2" text-anchor="end" class="stepsLabel">CI = 0.25; Fitch CI = 0.25; Fitch RI = 0.4</text><text x="678" y="65" text-anchor="end" class="stepsLabel"><tspan dy="16">An optimal tree under:</tspan><tspan x="680" style="font-style:italic" class="notThisAn" dy="1.2em">Equal weights</tspan><tspan x="680" style="font-style:italic" class="notThisAn" dy="1.2em">Implied weights, k = 2</tspan><tspan x="680" style="font-style:italic" class="notThisAn" dy="1.2em">IW, k = 3</tspan><tspan x="680" style="font-style:italic" class="notThisAn" dy="1.2em">IW, k = 4.5</tspan><tspan x="680" style="font-style:italic" class="notThisAn" dy="1.2em">IW, k = 7</tspan><tspan x="680" style="font-style:italic" class="notThisAn" dy="1.2em">IW, k = 10.5</tspan><tspan x="680" style="font-style:italic" class="thisAn" dy="1.2em">IW, k = 16</tspan><tspan x="680" style="font-style:italic" class="notThisAn" dy="1.2em">IW, k = 24</tspan></text><text x="80.3" y="594.3" fill="lightgrey" class="flag">[-]</text><text x="102.3" y="594.3" fill="#ccc" class="taxonLabel">Sipunculus</text><text x="80.3" y="607" fill="lightgrey" class="flag">[-]</text><text x="102.3" y="607" fill="#ccc" class="taxonLabel">Serpula</text><text x="105.4" y="568.9" fill="lightgrey" class="flag">[-]</text><text x="127.4" y="568.9" fill="#ccc" class="taxonLabel">Dentalium</text><text x="105.4" y="581.6" fill="lightgrey" class="flag">[-]</text><text x="127.4" y="581.6" fill="#ccc" class="taxonLabel">Tonicella</text><text x="80.3" y="556.2" fill="lightgrey" class="flag">[-]</text><text x="102.3" y="556.2" fill="#ccc" class="taxonLabel">Wiwaxia corrugata</text><text x="230.9" y="518.1" fill="lightgrey" class="flag">[-]</text><text x="252.9" y="518.1" fill="#ccc" class="taxonLabel">Haplophrentis carinatus</text><text x="230.9" y="530.8" fill="#e2e2a2" class="flag">[1]</text><text x="252.9" y="530.8" fill="#000" class="taxonLabel">Pedunculotheca diania</text><text x="431.8" y="492.7" fill="grey" class="flag">[?]</text><text x="453.8" y="492.7" fill="#999" class="taxonLabel">Mummpikia nuda</text><text x="431.8" y="505.4" fill="grey" class="flag">[?]</text><text x="453.8" y="505.4" fill="#999" class="taxonLabel">Eoobolus</text><text x="406.7" y="480" fill="grey" class="flag">[?]</text><text x="428.7" y="480" fill="#999" class="taxonLabel">Botsfordia</text><text x="381.6" y="467.3" fill="#e2e2a2" class="flag">[1]</text><text x="403.6" y="467.3" fill="#000" class="taxonLabel">Lingulellotreta malongensis</text><text x="431.8" y="441.9" fill="grey" class="flag">[?]</text><text x="453.8" y="441.9" fill="#999" class="taxonLabel">Siphonobolus priscus</text><text x="431.8" y="454.6" fill="#e2e2a2" class="flag">[1]</text><text x="453.8" y="454.6" fill="#000" class="taxonLabel">Acanthotretella spinosa</text><text x="406.7" y="429.2" fill="grey" class="flag">[?]</text><text x="428.7" y="429.2" fill="#999" class="taxonLabel">Clupeafumosus socialis</text><text x="381.6" y="416.5" fill="grey" class="flag">[?]</text><text x="403.6" y="416.5" fill="#999" class="taxonLabel">Lingulosacculus</text><text x="331.4" y="403.8" fill="#91bfdb" class="flag">[2]</text><text x="353.4" y="403.8" fill="#000" class="taxonLabel">Lingula</text><text x="331.4" y="378.4" fill="grey" class="flag">[?]</text><text x="353.4" y="378.4" fill="#999" class="taxonLabel">Mickwitzia muralensis</text><text x="331.4" y="391.1" fill="#e2e2a2" class="flag">[1]</text><text x="353.4" y="391.1" fill="#000" class="taxonLabel">Pelagodiscus atlanticus</text><text x="381.6" y="353" fill="lightgrey" class="flag">[-]</text><text x="403.6" y="353" fill="#ccc" class="taxonLabel">Craniops</text><text x="381.6" y="365.7" fill="lightgrey" class="flag">[-]</text><text x="403.6" y="365.7" fill="#ccc" class="taxonLabel">Novocrania</text><text x="356.5" y="340.3" fill="lightgrey" class="flag">[-]</text><text x="378.5" y="340.3" fill="#ccc" class="taxonLabel">Ussunia</text><text x="331.4" y="327.6" fill="lightgrey" class="flag">[-]</text><text x="353.4" y="327.6" fill="#ccc" class="taxonLabel">Heliomedusa orienta</text><text x="306.3" y="314.9" fill="lightgrey" class="flag">[-]</text><text x="328.3" y="314.9" fill="#ccc" class="taxonLabel">Gasconsia</text><text x="306.3" y="289.4" fill="grey" class="flag">[?]</text><text x="328.3" y="289.4" fill="#999" class="taxonLabel">Micromitra</text><text x="306.3" y="302.1" fill="grey" class="flag">[?]</text><text x="328.3" y="302.1" fill="#999" class="taxonLabel">Askepasma toddense</text><text x="356.5" y="264" fill="grey" class="flag">[?]</text><text x="378.5" y="264" fill="#999" class="taxonLabel">Coolinia pecten</text><text x="356.5" y="276.7" fill="#91bfdb" class="flag">[2]</text><text x="378.5" y="276.7" fill="#000" class="taxonLabel">Antigonambonites planus</text><text x="482" y="238.6" fill="grey" class="flag">[?]</text><text x="504" y="238.6" fill="#999" class="taxonLabel">Orthis</text><text x="482" y="251.3" fill="#e2e2a2" class="flag">[1]</text><text x="504" y="251.3" fill="#000" class="taxonLabel">Terebratulina</text><text x="456.9" y="225.9" fill="#91bfdb" class="flag">[2]</text><text x="478.9" y="225.9" fill="#000" class="taxonLabel">Alisina</text><text x="431.8" y="213.2" fill="#91bfdb" class="flag">[2]</text><text x="453.8" y="213.2" fill="#000" class="taxonLabel">Longtancunella chengjiangensis</text><text x="406.7" y="200.5" fill="grey" class="flag">[?]</text><text x="428.7" y="200.5" fill="#999" class="taxonLabel">Glyptoria</text><text x="381.6" y="187.8" fill="#91bfdb" class="flag">[2]</text><text x="403.6" y="187.8" fill="#000" class="taxonLabel">Nisusia sulcata</text><text x="356.5" y="175.1" fill="#e2e2a2" class="flag">[1]</text><text x="378.5" y="175.1" fill="#000" class="taxonLabel">Kutorgina chengjiangensis</text><text x="356.5" y="149.7" fill="grey" class="flag">[?]</text><text x="378.5" y="149.7" fill="#999" class="taxonLabel">Tomteluva perturbata</text><text x="356.5" y="162.4" fill="#91bfdb" class="flag">[2]</text><text x="378.5" y="162.4" fill="#000" class="taxonLabel">Yuganotheca elegans</text><text x="331.4" y="137" fill="grey" class="flag">[?]</text><text x="353.4" y="137" fill="#999" class="taxonLabel">Salanygolina</text><text x="230.9" y="124.3" fill="grey" class="flag">[?]</text><text x="252.9" y="124.3" fill="#999" class="taxonLabel">Micrina</text><text x="180.7" y="111.6" fill="grey" class="flag">[?]</text><text x="202.7" y="111.6" fill="#999" class="taxonLabel">Paterimitra</text><text x="155.6" y="98.9" fill="lightgrey" class="flag">[-]</text><text x="177.6" y="98.9" fill="#ccc" class="taxonLabel">Halkieria evangelista</text><text x="130.5" y="86.2" fill="grey" class="flag">[?]</text><text x="152.5" y="86.2" fill="#999" class="taxonLabel">Dailyatia</text><text x="180.7" y="60.8" fill="lightgrey" class="flag">[-]</text><text x="202.7" y="60.8" fill="#ccc" class="taxonLabel">Namacalathus</text><text x="180.7" y="73.5" fill="lightgrey" class="flag">[-]</text><text x="202.7" y="73.5" fill="#ccc" class="taxonLabel">Phoronis</text><text x="155.6" y="48.1" fill="grey" class="flag">[?]</text><text x="177.6" y="48.1" fill="#999" class="taxonLabel">Eccentrotheca</text><text x="130.5" y="35.4" fill="lightgrey" class="flag">[-]</text><text x="152.5" y="35.4" fill="#ccc" class="taxonLabel">Cotyledion tylodes</text><text x="105.4" y="10" fill="lightgrey" class="flag">[-]</text><text x="127.4" y="10" fill="#ccc" class="taxonLabel">Flustra</text><text x="105.4" y="22.7" fill="lightgrey" class="flag">[-]</text><text x="127.4" y="22.7" fill="#ccc" class="taxonLabel">Amathia</text><text x="55.2" y="543.5" fill="lightgrey" class="flag">[-]</text><text x="77.2" y="543.5" fill="#ccc" class="taxonLabel">Loxosomella</text><path d="M5,437.4V294.6H30.1M30.1,294.6V48.8H55.2M55.2,48.8V13.4H80.3M80.3,13.4V7H105.4M80.3,13.4V19.7H105.4M55.2,48.8V84.2H80.3M80.3,84.2V43.5H105.4M105.4,43.5V32.4H130.5M105.4,43.5V54.6H130.5M130.5,54.6V45.1H155.6M130.5,54.6V64.2H155.6M155.6,64.2V57.8H180.7M155.6,64.2V70.5H180.7M80.3,84.2V125H105.4M105.4,125V83.2H130.5M105.4,125V166.7H130.5M130.5,166.7V95.9H155.6M256.1,363.7V323.8H281.2M281.2,323.8V311.9H306.3M281.2,323.8V335.7H306.3M306.3,335.7V324.6H331.4M306.3,335.7V346.8H331.4M331.4,346.8V337.3H356.5M331.4,346.8V356.3H356.5M356.5,356.3V350H381.6M356.5,356.3V362.7H381.6M205.8,521.4V515.1H230.9M30.1,294.6V540.5H55.2M5,437.4V580.2H30.1M30.1,580.2V562.7H55.2M55.2,562.7V553.2H80.3M55.2,562.7V572.2H80.3M80.3,572.2V565.9H105.4M80.3,572.2V578.6H105.4M30.1,580.2V597.6H55.2M55.2,597.6V591.3H80.3M55.2,597.6V604H80.3" stroke="lightgrey" class="inapplicable"></path><path d="M130.5,166.7V237.5H155.6M155.6,237.5V108.6H180.7M155.6,237.5V366.4H180.7M180.7,366.4V211.3H205.8M205.8,211.3V121.3H230.9M205.8,211.3V301.2H230.9M230.9,301.2V238.8H256.1M331.4,184.6V172.1H356.5M456.9,242V248.3H482M230.9,301.2V363.7H256.1M256.1,363.7V403.5H281.2M281.2,403.5V381.7H306.3M306.3,381.7V375.4H331.4M306.3,381.7V388.1H331.4M281.2,403.5V425.4H306.3M306.3,425.4V450H331.4M331.4,450V424.6H356.5M356.5,424.6V413.5H381.6M356.5,424.6V435.7H381.6M381.6,435.7V426.2H406.7M381.6,435.7V445.2H406.7M406.7,445.2V438.9H431.8M406.7,445.2V451.6H431.8M331.4,450V475.4H356.5M356.5,475.4V464.3H381.6M356.5,475.4V486.5H381.6M381.6,486.5V477H406.7M381.6,486.5V496H406.7M406.7,496V489.7H431.8M406.7,496V502.4H431.8M180.7,366.4V521.4H205.8M205.8,521.4V527.8H230.9" stroke="#e2e2a2"></path><path d="M256.1,238.8V184.8H281.2M281.2,184.8V143.5H306.3M306.3,143.5V134H331.4M306.3,143.5V153.1H331.4M331.4,153.1V146.7H356.5M331.4,153.1V159.4H356.5M281.2,184.8V226H306.3M306.3,226V184.6H331.4M331.4,184.6V197.1H356.5M356.5,197.1V184.8H381.6M356.5,197.1V209.4H381.6M381.6,209.4V197.5H406.7M381.6,209.4V221.3H406.7M406.7,221.3V210.2H431.8M406.7,221.3V232.5H431.8M431.8,232.5V222.9H456.9M431.8,232.5V242H456.9M306.3,226V267.4H331.4M331.4,267.4V261H356.5M331.4,267.4V273.7H356.5M306.3,425.4V400.8H331.4" stroke="#91bfdb"></path><path d="M456.9,242V235.6H482M256.1,238.8V292.8H281.2M281.2,292.8V286.4H306.3M281.2,292.8V299.1H306.3" stroke="darkgrey"></path><text x="7" y="440.4" class="node" fill="#4A6FE3">1</text><text x="32.1" y="297.6" class="node" fill="#4A6FE3">1</text><text x="57.2" y="51.8" class="node" fill="#E0E0E2">0.51</text><text x="82.3" y="16.4" class="node" fill="#4A6FE3">1</text><text x="82.3" y="87.2" class="node" fill="#E0E0E2">0.51</text><text x="107.4" y="46.5" class="node" fill="#E5A5B1">0.3</text><text x="132.5" y="57.6" class="node" fill="#E07C92">0.17</text><text x="157.6" y="67.2" class="node" fill="#4A6FE3">1</text><text x="107.4" y="128" class="node" fill="#A8B1E2">0.71</text><text x="132.5" y="169.7" class="node" fill="#D2D4E3">0.57</text><text x="157.6" y="240.5" class="node" fill="#4F72E2">0.99</text><text x="182.7" y="369.4" class="node" fill="#BFC4E3">0.63</text><text x="207.8" y="214.3" class="node" fill="#E3DFE0">0.49</text><text x="232.9" y="304.2" class="node" fill="#E6AEB8">0.33</text><text x="258.1" y="241.8" class="node" fill="#8091E1">0.85</text><text x="283.2" y="187.8" class="node" fill="#8091E1">0.85</text><text x="308.3" y="146.5" class="node" fill="#D2D4E3">0.57</text><text x="333.4" y="156.1" class="node" fill="#CACDE3">0.59</text><text x="308.3" y="229" class="node" fill="#A3ADE2">0.73</text><text x="333.4" y="187.6" class="node" fill="#A6AFE2">0.72</text><text x="358.5" y="200.1" class="node" fill="#A6AFE2">0.72</text><text x="383.6" y="212.4" class="node" fill="#4F72E2">0.99</text><text x="408.7" y="224.3" class="node" fill="#4F72E2">0.99</text><text x="433.8" y="235.5" class="node" fill="#4A6FE3">1</text><text x="458.9" y="245" class="node" fill="#4F72E2">0.99</text><text x="333.4" y="270.4" class="node" fill="#4A6FE3">1</text><text x="283.2" y="295.8" class="node" fill="#4A6FE3">1</text><text x="258.1" y="366.7" class="node" fill="#E17F94">0.18</text><text x="283.2" y="326.8" class="node" fill="#E3DFE0">0.49</text><text x="308.3" y="338.7" class="node" fill="#E3DFE0">0.49</text><text x="333.4" y="349.8" class="node" fill="#4F72E2">0.99</text><text x="358.5" y="359.3" class="node" fill="#4A6FE3">1</text><text x="283.2" y="406.5" class="node" fill="#E4D6D8">0.46</text><text x="308.3" y="384.7" class="node" fill="#E3DCDD">0.48</text><text x="308.3" y="428.4" class="node" fill="#E3DCDD">0.48</text><text x="333.4" y="453" class="node" fill="#E2899B">0.21</text><text x="358.5" y="427.6" class="node" fill="#4A6FE3">1</text><text x="383.6" y="438.7" class="node" fill="#E6AEB8">0.33</text><text x="408.7" y="448.2" class="node" fill="#4A6FE3">1</text><text x="358.5" y="478.4" class="node" fill="#E28699">0.2</text><text x="383.6" y="489.5" class="node" fill="#4F72E2">0.99</text><text x="408.7" y="499" class="node" fill="#E28699">0.2</text><text x="207.8" y="524.4" class="node" fill="#4A6FE3">1</text><text x="32.1" y="583.2" class="node" fill="#4A6FE3">1</text><text x="57.2" y="565.7" class="node" fill="#4A6FE3">1</text><text x="82.3" y="575.2" class="node" fill="#A3ADE2">0.73</text><text x="57.2" y="600.6" class="node" fill="#4A6FE3">1</text></svg>
