<svg xmlns="http://www.w3.org/2000/svg" version="1.1" width="682" height="612" class="tree" data-char="139"><text x="678" y="15.4" text-anchor="end" class="stepsLabel">Character adds <tspan class="score">2</tspan> to tree score</text><text x="678" y="27.8" text-anchor="end" class="stepsLabel"><tspan class="score">0</tspan> additional regions</text><text x="678" y="40.2" text-anchor="end" class="stepsLabel">CI = 0.5; Fitch CI = 0.5; Fitch RI = 0.67</text><text x="678" y="65" text-anchor="end" class="stepsLabel"><tspan dy="16" fill="#34caaf">An optimal tree under:</tspan><tspan x="680" style="font-style:italic" class="notThisAn" dy="1.2em">Equal weights</tspan><tspan x="680" style="font-style:italic" class="notThisAn" dy="1.2em">Implied weights, k = 2</tspan><tspan x="680" style="font-style:italic" class="notThisAn" dy="1.2em">IW, k = 3</tspan><tspan x="680" style="font-style:italic" class="thisAn" dy="1.2em">IW, k = 4.5</tspan><tspan x="680" style="font-style:italic" class="notThisAn" dy="1.2em">IW, k = 7</tspan><tspan x="680" style="font-style:italic" class="notThisAn" dy="1.2em">IW, k = 10.5</tspan><tspan x="680" style="font-style:italic" class="notThisAn" dy="1.2em">IW, k = 16</tspan><tspan x="680" style="font-style:italic" class="notThisAn" dy="1.2em">IW, k = 24</tspan></text><text x="124.2" y="594.3" fill="#91bfdb" class="flag">[1]</text><text x="146.2" y="594.3" fill="#000" class="taxonLabel">Dentalium</text><text x="124.2" y="607" fill="grey" class="flag">[?]</text><text x="146.2" y="607" fill="#999" class="taxonLabel">Wiwaxia corrugata</text><text x="94.4" y="581.6" fill="#91bfdb" class="flag">[1]</text><text x="116.4" y="581.6" fill="#000" class="taxonLabel">Tonicella</text><text x="94.4" y="556.2" fill="#91bfdb" class="flag">[1]</text><text x="116.4" y="556.2" fill="#000" class="taxonLabel">Serpula</text><text x="94.4" y="568.9" fill="#91bfdb" class="flag">[1]</text><text x="116.4" y="568.9" fill="#000" class="taxonLabel">Sipunculus</text><text x="482" y="518.1" fill="#91bfdb" class="flag">[1]</text><text x="504" y="518.1" fill="#000" class="taxonLabel">Terebratulina</text><text x="482" y="530.8" fill="grey" class="flag">[?]</text><text x="504" y="530.8" fill="#999" class="taxonLabel">Orthis</text><text x="452.2" y="505.4" fill="grey" class="flag">[?]</text><text x="474.2" y="505.4" fill="#999" class="taxonLabel">Alisina</text><text x="422.4" y="492.7" fill="grey" class="flag">[?]</text><text x="444.4" y="492.7" fill="#999" class="taxonLabel">Longtancunella chengjiangensis</text><text x="392.6" y="480" fill="grey" class="flag">[?]</text><text x="414.6" y="480" fill="#999" class="taxonLabel">Glyptoria</text><text x="362.8" y="467.3" fill="grey" class="flag">[?]</text><text x="384.8" y="467.3" fill="#999" class="taxonLabel">Nisusia sulcata</text><text x="332.9" y="454.6" fill="grey" class="flag">[?]</text><text x="354.9" y="454.6" fill="#999" class="taxonLabel">Kutorgina chengjiangensis</text><text x="332.9" y="429.2" fill="grey" class="flag">[?]</text><text x="354.9" y="429.2" fill="#999" class="taxonLabel">Coolinia pecten</text><text x="332.9" y="441.9" fill="grey" class="flag">[?]</text><text x="354.9" y="441.9" fill="#999" class="taxonLabel">Antigonambonites planus</text><text x="303.1" y="403.8" fill="grey" class="flag">[?]</text><text x="325.1" y="403.8" fill="#999" class="taxonLabel">Salanygolina</text><text x="303.1" y="416.5" fill="grey" class="flag">[?]</text><text x="325.1" y="416.5" fill="#999" class="taxonLabel">Tomteluva perturbata</text><text x="422.4" y="378.4" fill="grey" class="flag">[?]</text><text x="444.4" y="378.4" fill="#999" class="taxonLabel">Botsfordia</text><text x="422.4" y="391.1" fill="grey" class="flag">[?]</text><text x="444.4" y="391.1" fill="#999" class="taxonLabel">Mummpikia nuda</text><text x="392.6" y="365.7" fill="grey" class="flag">[?]</text><text x="414.6" y="365.7" fill="#999" class="taxonLabel">Eoobolus</text><text x="452.2" y="340.3" fill="#91bfdb" class="flag">[1]</text><text x="474.2" y="340.3" fill="#000" class="taxonLabel">Lingula</text><text x="452.2" y="353" fill="grey" class="flag">[?]</text><text x="474.2" y="353" fill="#999" class="taxonLabel">Lingulellotreta malongensis</text><text x="482" y="314.9" fill="grey" class="flag">[?]</text><text x="504" y="314.9" fill="#999" class="taxonLabel">Siphonobolus priscus</text><text x="482" y="327.6" fill="grey" class="flag">[?]</text><text x="504" y="327.6" fill="#999" class="taxonLabel">Acanthotretella spinosa</text><text x="482" y="289.4" fill="grey" class="flag">[?]</text><text x="504" y="289.4" fill="#999" class="taxonLabel">Lingulosacculus</text><text x="482" y="302.1" fill="grey" class="flag">[?]</text><text x="504" y="302.1" fill="#999" class="taxonLabel">Clupeafumosus socialis</text><text x="392.6" y="276.7" fill="#91bfdb" class="flag">[1]</text><text x="414.6" y="276.7" fill="#000" class="taxonLabel">Pelagodiscus atlanticus</text><text x="332.9" y="264" fill="grey" class="flag">[?]</text><text x="354.9" y="264" fill="#999" class="taxonLabel">Gasconsia</text><text x="303.1" y="251.3" fill="grey" class="flag">[?]</text><text x="325.1" y="251.3" fill="#999" class="taxonLabel">Micromitra</text><text x="422.4" y="225.9" fill="#91bfdb" class="flag">[1]</text><text x="444.4" y="225.9" fill="#000" class="taxonLabel">Novocrania</text><text x="422.4" y="238.6" fill="grey" class="flag">[?]</text><text x="444.4" y="238.6" fill="#999" class="taxonLabel">Craniops</text><text x="392.6" y="213.2" fill="grey" class="flag">[?]</text><text x="414.6" y="213.2" fill="#999" class="taxonLabel">Ussunia</text><text x="362.8" y="200.5" fill="grey" class="flag">[?]</text><text x="384.8" y="200.5" fill="#999" class="taxonLabel">Heliomedusa orienta</text><text x="362.8" y="175.1" fill="grey" class="flag">[?]</text><text x="384.8" y="175.1" fill="#999" class="taxonLabel">Pedunculotheca diania</text><text x="362.8" y="187.8" fill="grey" class="flag">[?]</text><text x="384.8" y="187.8" fill="#999" class="taxonLabel">Haplophrentis carinatus</text><text x="303.1" y="162.4" fill="grey" class="flag">[?]</text><text x="325.1" y="162.4" fill="#999" class="taxonLabel">Micrina</text><text x="213.7" y="149.7" fill="grey" class="flag">[?]</text><text x="235.7" y="149.7" fill="#999" class="taxonLabel">Askepasma toddense</text><text x="213.7" y="124.3" fill="grey" class="flag">[?]</text><text x="235.7" y="124.3" fill="#999" class="taxonLabel">Mickwitzia muralensis</text><text x="213.7" y="137" fill="grey" class="flag">[?]</text><text x="235.7" y="137" fill="#999" class="taxonLabel">Yuganotheca elegans</text><text x="213.7" y="98.9" fill="grey" class="flag">[?]</text><text x="235.7" y="98.9" fill="#999" class="taxonLabel">Halkieria evangelista</text><text x="213.7" y="111.6" fill="grey" class="flag">[?]</text><text x="235.7" y="111.6" fill="#999" class="taxonLabel">Dailyatia</text><text x="183.9" y="86.2" fill="grey" class="flag">[?]</text><text x="205.9" y="86.2" fill="#999" class="taxonLabel">Paterimitra</text><text x="213.7" y="60.8" fill="grey" class="flag">[?]</text><text x="235.7" y="60.8" fill="#999" class="taxonLabel">Namacalathus</text><text x="213.7" y="73.5" fill="#fc8d59" class="flag">[0]</text><text x="235.7" y="73.5" fill="#000" class="taxonLabel">Phoronis</text><text x="183.9" y="48.1" fill="grey" class="flag">[?]</text><text x="205.9" y="48.1" fill="#999" class="taxonLabel">Cotyledion tylodes</text><text x="154.1" y="35.4" fill="grey" class="flag">[?]</text><text x="176.1" y="35.4" fill="#999" class="taxonLabel">Eccentrotheca</text><text x="124.2" y="10" fill="#fc8d59" class="flag">[0]</text><text x="146.2" y="10" fill="#000" class="taxonLabel">Flustra</text><text x="124.2" y="22.7" fill="#fc8d59" class="flag">[0]</text><text x="146.2" y="22.7" fill="#000" class="taxonLabel">Amathia</text><text x="64.6" y="543.5" fill="#fc8d59" class="flag">[0]</text><text x="86.6" y="543.5" fill="#000" class="taxonLabel">Loxosomella</text><path d="M5,435V296.2H34.8M34.8,296.2V51.9H64.6M64.6,51.9V13.4H94.4M94.4,13.4V7H124.2M94.4,13.4V19.7H124.2M64.6,51.9V90.5H94.4M94.4,90.5V43.5H124.2M124.2,43.5V32.4H154.1M124.2,43.5V54.6H154.1M154.1,54.6V45.1H183.9M154.1,54.6V64.2H183.9M183.9,64.2V57.8H213.7M183.9,64.2V70.5H213.7M94.4,90.5V137.4H124.2M34.8,296.2V540.5H64.6" stroke="#fc8d59"></path><path d="M124.2,137.4V92.7H154.1M154.1,92.7V83.2H183.9M154.1,92.7V102.3H183.9M183.9,102.3V95.9H213.7M183.9,102.3V108.6H213.7M124.2,137.4V182.1H154.1M154.1,182.1V127.7H183.9M183.9,127.7V121.3H213.7M183.9,127.7V134H213.7M154.1,182.1V236.5H183.9M183.9,236.5V146.7H213.7" stroke="darkgrey"></path><path d="M183.9,236.5V326.3H213.7M213.7,326.3V224.9H243.5M243.5,224.9V176.5H273.3M273.3,176.5V159.4H303.1M273.3,176.5V193.6H303.1M303.1,193.6V178.5H332.9M332.9,178.5V172.1H362.8M332.9,178.5V184.8H362.8M303.1,193.6V208.6H332.9M332.9,208.6V197.5H362.8M332.9,208.6V219.8H362.8M362.8,219.8V210.2H392.6M362.8,219.8V229.3H392.6M392.6,229.3V222.9H422.4M392.6,229.3V235.6H422.4M243.5,224.9V273.3H273.3M273.3,273.3V248.3H303.1M273.3,273.3V298.4H303.1M303.1,298.4V261H332.9M303.1,298.4V335.7H332.9M332.9,335.7V299.1H362.8M362.8,299.1V273.7H392.6M362.8,299.1V324.6H392.6M392.6,324.6V305.5H422.4M422.4,305.5V292.8H452.2M452.2,292.8V286.4H482M452.2,292.8V299.1H482M422.4,305.5V318.2H452.2M452.2,318.2V311.9H482M452.2,318.2V324.6H482M392.6,324.6V343.6H422.4M422.4,343.6V337.3H452.2M422.4,343.6V350H452.2M332.9,335.7V372.2H362.8M362.8,372.2V362.7H392.6M362.8,372.2V381.7H392.6M392.6,381.7V375.4H422.4M392.6,381.7V388.1H422.4M213.7,326.3V427.7H243.5M243.5,427.7V407.1H273.3M273.3,407.1V400.8H303.1M273.3,407.1V413.5H303.1M243.5,427.7V448.3H273.3M273.3,448.3V432.5H303.1M303.1,432.5V426.2H332.9M303.1,432.5V438.9H332.9M273.3,448.3V464.1H303.1M303.1,464.1V451.6H332.9M303.1,464.1V476.6H332.9M332.9,476.6V464.3H362.8M332.9,476.6V488.9H362.8M362.8,488.9V477H392.6M362.8,488.9V500.8H392.6M392.6,500.8V489.7H422.4M392.6,500.8V511.9H422.4M422.4,511.9V502.4H452.2M422.4,511.9V521.4H452.2M452.2,521.4V515.1H482M452.2,521.4V527.8H482M5,435V573.8H34.8M34.8,573.8V559.5H64.6M64.6,559.5V553.2H94.4M64.6,559.5V565.9H94.4M34.8,573.8V588.1H64.6M64.6,588.1V578.6H94.4M64.6,588.1V597.6H94.4M94.4,597.6V591.3H124.2M94.4,597.6V604H124.2" stroke="#91bfdb"></path><text x="7" y="438" class="node" fill="#4A6FE3">1</text><text x="36.8" y="299.2" class="node" fill="#4A6FE3">1</text><text x="66.6" y="54.9" class="node" fill="#E5CACE">0.42</text><text x="96.4" y="16.4" class="node" fill="#4A6FE3">1</text><text x="96.4" y="93.5" class="node" fill="#E5CACE">0.42</text><text x="126.2" y="46.5" class="node" fill="#E5A8B3">0.31</text><text x="156.1" y="57.6" class="node" fill="#A0ABE2">0.74</text><text x="185.9" y="67.2" class="node" fill="#5B78E2">0.96</text><text x="126.2" y="140.4" class="node" fill="#E4D6D8">0.46</text><text x="156.1" y="95.7" class="node" fill="#E5C7CC">0.41</text><text x="185.9" y="105.3" class="node" fill="#E5C7CC">0.41</text><text x="156.1" y="185.1" class="node" fill="#E4D6D8">0.46</text><text x="185.9" y="130.7" class="node" fill="#E38C9E">0.22</text><text x="185.9" y="239.5" class="node" fill="#E38C9E">0.22</text><text x="215.7" y="329.3" class="node" fill="#E38C9E">0.22</text><text x="245.5" y="227.9" class="node" fill="#E38C9E">0.22</text><text x="275.3" y="179.5" class="node" fill="#E38C9E">0.22</text><text x="305.1" y="196.6" class="node" fill="#E38C9E">0.22</text><text x="334.9" y="181.5" class="node" fill="#4A6FE3">1</text><text x="334.9" y="211.6" class="node" fill="#E38C9E">0.22</text><text x="364.8" y="222.8" class="node" fill="#E4D6D8">0.46</text><text x="394.6" y="232.3" class="node" fill="#E4D6D8">0.46</text><text x="275.3" y="276.3" class="node" fill="#E498A7">0.26</text><text x="305.1" y="301.4" class="node" fill="#DB617F">0.09</text><text x="334.9" y="338.7" class="node" fill="#E4D6D8">0.46</text><text x="364.8" y="302.1" class="node" fill="#E498A7">0.26</text><text x="394.6" y="327.6" class="node" fill="#E6C1C7">0.39</text><text x="424.4" y="308.5" class="node" fill="#95A1E2">0.78</text><text x="454.2" y="295.8" class="node" fill="#E59FAC">0.29</text><text x="454.2" y="321.2" class="node" fill="#4A6FE3">1</text><text x="424.4" y="346.6" class="node" fill="#E5CDD1">0.43</text><text x="364.8" y="375.2" class="node" fill="#E5A8B3">0.31</text><text x="394.6" y="384.7" class="node" fill="#E498A7">0.26</text><text x="245.5" y="430.7" class="node" fill="#E49CAA">0.27</text><text x="275.3" y="410.1" class="node" fill="#DB617F">0.09</text><text x="275.3" y="451.3" class="node" fill="#5374E2">0.98</text><text x="305.1" y="435.5" class="node" fill="#4A6FE3">1</text><text x="305.1" y="467.1" class="node" fill="#CACDE3">0.59</text><text x="334.9" y="479.6" class="node" fill="#CACDE3">0.59</text><text x="364.8" y="491.9" class="node" fill="#C7CBE3">0.6</text><text x="394.6" y="503.8" class="node" fill="#C7CBE3">0.6</text><text x="424.4" y="514.9" class="node" fill="#4A6FE3">1</text><text x="454.2" y="524.4" class="node" fill="#929FE1">0.79</text><text x="36.8" y="576.8" class="node" fill="#4A6FE3">1</text><text x="66.6" y="562.5" class="node" fill="#4A6FE3">1</text><text x="66.6" y="591.1" class="node" fill="#4A6FE3">1</text><text x="96.4" y="600.6" class="node" fill="#4A6FE3">1</text></svg>
