<svg xmlns="http://www.w3.org/2000/svg" version="1.1" width="682" height="612" class="tree" data-char="94"><text x="678" y="16" text-anchor="end" class="stepsLabel">Character adds <tspan class="score">5</tspan> to tree score</text><text x="678" y="29" text-anchor="end" class="stepsLabel"><tspan class="score">1</tspan> additional region</text><text x="678" y="42" text-anchor="end" class="stepsLabel">CI = 0.4; Fitch CI = 0.5; Fitch RI = 0.71</text><text x="678" y="68" text-anchor="end" class="stepsLabel"><tspan dy="16">An optimal tree under:</tspan><tspan x="680" style="font-style:italic" class="thisAn" dy="1.2em">Equal weights</tspan><tspan x="680" style="font-style:italic" class="notThisAn" dy="1.2em">Implied weights, k = 2</tspan><tspan x="680" style="font-style:italic" class="notThisAn" dy="1.2em">IW, k = 3</tspan><tspan x="680" style="font-style:italic" class="notThisAn" dy="1.2em">IW, k = 4.5</tspan><tspan x="680" style="font-style:italic" class="notThisAn" dy="1.2em">IW, k = 7</tspan><tspan x="680" style="font-style:italic" class="notThisAn" dy="1.2em">IW, k = 10.5</tspan></text><text x="76.6" y="593.7" fill="lightgrey" class="flag">[-]</text><text x="98.6" y="593.7" fill="lightgrey" class="taxonLabel">Sipunculus</text><text x="76.6" y="607" fill="lightgrey" class="flag">[-]</text><text x="98.6" y="607" fill="lightgrey" class="taxonLabel">Serpula</text><text x="100.4" y="567.2" fill="#abd9e9" class="flag">[2]</text><text x="122.4" y="567.2" fill="#111" class="taxonLabel">Tonicella</text><text x="100.4" y="580.5" fill="lightgrey" class="flag">[-]</text><text x="122.4" y="580.5" fill="lightgrey" class="taxonLabel">Wiwaxia corrugata</text><text x="76.6" y="553.9" fill="lightgrey" class="flag">[-]</text><text x="98.6" y="553.9" fill="lightgrey" class="taxonLabel">Dentalium</text><text x="458.2" y="461.1" fill="#2c7bb6" class="flag">[3]</text><text x="480.2" y="461.1" fill="#111" class="taxonLabel">Acanthotretella spinosa</text><text x="458.2" y="474.3" fill="#2c7bb6" class="flag">[3]</text><text x="480.2" y="474.3" fill="#111" class="taxonLabel">Siphonobolus priscus</text><text x="434.3" y="447.8" fill="#2c7bb6" class="flag">[3]</text><text x="456.3" y="447.8" fill="#111" class="taxonLabel">Clupeafumosus socialis</text><text x="410.5" y="434.5" fill="#2c7bb6" class="flag">[3]</text><text x="432.5" y="434.5" fill="#111" class="taxonLabel">Lingulosacculus</text><text x="386.6" y="421.3" fill="#2c7bb6" class="flag">[3]</text><text x="408.6" y="421.3" fill="#111" class="taxonLabel">Lingulellotreta malongensis</text><text x="362.8" y="408" fill="#abd9e9" class="flag">[2]</text><text x="384.8" y="408" fill="#111" class="taxonLabel">Botsfordia</text><text x="338.9" y="394.7" fill="#fdae61" class="flag">[1]</text><text x="360.9" y="394.7" fill="#111" class="taxonLabel">Mummpikia nuda</text><text x="315.1" y="381.5" fill="#abd9e9" class="flag">[2]</text><text x="337.1" y="381.5" fill="#111" class="taxonLabel">Eoobolus</text><text x="291.2" y="368.2" fill="lightgrey" class="flag">[-]</text><text x="313.2" y="368.2" fill="lightgrey" class="taxonLabel">Lingula</text><text x="315.1" y="341.7" fill="grey" class="flag">[23]</text><text x="337.1" y="341.7" fill="grey" class="taxonLabel">Mickwitzia muralensis</text><text x="315.1" y="354.9" fill="#2c7bb6" class="flag">[3]</text><text x="337.1" y="354.9" fill="#111" class="taxonLabel">Pelagodiscus atlanticus</text><text x="291.2" y="328.4" fill="#abd9e9" class="flag">[2]</text><text x="313.2" y="328.4" fill="#111" class="taxonLabel">Micrina</text><text x="338.9" y="301.9" fill="lightgrey" class="flag">[-]</text><text x="360.9" y="301.9" fill="lightgrey" class="taxonLabel">Novocrania</text><text x="338.9" y="315.1" fill="lightgrey" class="flag">[-]</text><text x="360.9" y="315.1" fill="lightgrey" class="taxonLabel">Craniops</text><text x="315.1" y="288.6" fill="lightgrey" class="flag">[-]</text><text x="337.1" y="288.6" fill="lightgrey" class="taxonLabel">Ussunia</text><text x="291.2" y="275.3" fill="#abd9e9" class="flag">[2]</text><text x="313.2" y="275.3" fill="#111" class="taxonLabel">Gasconsia</text><text x="386.6" y="248.8" fill="#abd9e9" class="flag">[2]</text><text x="408.6" y="248.8" fill="#111" class="taxonLabel">Coolinia pecten</text><text x="386.6" y="262.1" fill="#abd9e9" class="flag">[2]</text><text x="408.6" y="262.1" fill="#111" class="taxonLabel">Antigonambonites planus</text><text x="482" y="222.3" fill="#abd9e9" class="flag">[2]</text><text x="504" y="222.3" fill="#111" class="taxonLabel">Terebratulina</text><text x="482" y="235.5" fill="#abd9e9" class="flag">[2]</text><text x="504" y="235.5" fill="#111" class="taxonLabel">Alisina</text><text x="458.2" y="209" fill="#abd9e9" class="flag">[2]</text><text x="480.2" y="209" fill="#111" class="taxonLabel">Orthis</text><text x="434.3" y="195.7" fill="#abd9e9" class="flag">[2]</text><text x="456.3" y="195.7" fill="#111" class="taxonLabel">Glyptoria</text><text x="410.5" y="182.5" fill="#abd9e9" class="flag">[2]</text><text x="432.5" y="182.5" fill="#111" class="taxonLabel">Nisusia sulcata</text><text x="386.6" y="169.2" fill="grey" class="flag">[?]</text><text x="408.6" y="169.2" fill="grey" class="taxonLabel">Kutorgina chengjiangensis</text><text x="338.9" y="155.9" fill="grey" class="flag">[?]</text><text x="360.9" y="155.9" fill="grey" class="taxonLabel">Longtancunella chengjiangensis</text><text x="362.8" y="129.4" fill="grey" class="flag">[?]</text><text x="384.8" y="129.4" fill="grey" class="taxonLabel">Yuganotheca elegans</text><text x="362.8" y="142.7" fill="#fdae61" class="flag">[1]</text><text x="384.8" y="142.7" fill="#111" class="taxonLabel">Tomteluva perturbata</text><text x="338.9" y="116.1" fill="#fdae61" class="flag">[1]</text><text x="360.9" y="116.1" fill="#111" class="taxonLabel">Salanygolina</text><text x="315.1" y="89.6" fill="#abd9e9" class="flag">[2]</text><text x="337.1" y="89.6" fill="#111" class="taxonLabel">Askepasma toddense</text><text x="315.1" y="102.9" fill="#abd9e9" class="flag">[2]</text><text x="337.1" y="102.9" fill="#111" class="taxonLabel">Micromitra</text><text x="267.4" y="63.1" fill="lightgrey" class="flag">[-]</text><text x="289.4" y="63.1" fill="lightgrey" class="taxonLabel">Pedunculotheca diania</text><text x="267.4" y="76.3" fill="lightgrey" class="flag">[-]</text><text x="289.4" y="76.3" fill="lightgrey" class="taxonLabel">Haplophrentis carinatus</text><text x="243.5" y="49.8" fill="#abd9e9" class="flag">[2]</text><text x="265.5" y="49.8" fill="#111" class="taxonLabel">Paterimitra</text><text x="195.8" y="36.5" fill="lightgrey" class="flag">[-]</text><text x="217.8" y="36.5" fill="lightgrey" class="taxonLabel">Heliomedusa orienta</text><text x="195.8" y="10" fill="lightgrey" class="flag">[-]</text><text x="217.8" y="10" fill="lightgrey" class="taxonLabel">Dailyatia</text><text x="195.8" y="23.3" fill="lightgrey" class="flag">[-]</text><text x="217.8" y="23.3" fill="lightgrey" class="taxonLabel">Halkieria evangelista</text><text x="148.1" y="487.6" fill="lightgrey" class="flag">[-]</text><text x="170.1" y="487.6" fill="lightgrey" class="taxonLabel">Cotyledion tylodes</text><text x="124.2" y="500.9" fill="lightgrey" class="flag">[-]</text><text x="146.2" y="500.9" fill="lightgrey" class="taxonLabel">Eccentrotheca</text><text x="100.4" y="514.1" fill="lightgrey" class="flag">[-]</text><text x="122.4" y="514.1" fill="lightgrey" class="taxonLabel">Phoronis</text><text x="76.6" y="527.4" fill="lightgrey" class="flag">[-]</text><text x="98.6" y="527.4" fill="lightgrey" class="taxonLabel">Flustra</text><text x="52.7" y="540.7" fill="lightgrey" class="flag">[-]</text><text x="74.7" y="540.7" fill="lightgrey" class="taxonLabel">Loxosomella</text><path d="M5,545.5V511.9H28.9M28.9,511.9V486.1H52.7M52.7,486.1V447.8H76.6M76.6,447.8V384.4H100.4M100.4,384.4V271H124.2M124.2,271V57.3H148.1M148.1,57.3V13.6H172M172,13.6V7H195.8M172,13.6V20.3H195.8M148.1,57.3V101H172M172,101V33.5H195.8M219.7,56.8V66.7H243.5M243.5,66.7V60.1H267.4M243.5,66.7V73.3H267.4M267.4,283.9V295.6H291.2M291.2,295.6V285.6H315.1M291.2,295.6V305.5H315.1M315.1,305.5V298.9H338.9M315.1,305.5V312.1H338.9M267.4,378.4V365.2H291.2M124.2,271V484.6H148.1M100.4,384.4V497.9H124.2M76.6,447.8V511.1H100.4M52.7,486.1V524.4H76.6M28.9,511.9V537.7H52.7M5,545.5V579.1H28.9M28.9,579.1V560.9H52.7M52.7,560.9V550.9H76.6M52.7,560.9V570.8H76.6M76.6,570.8V577.5H100.4M28.9,579.1V597.4H52.7M52.7,597.4V590.7H76.6M52.7,597.4V604H76.6" stroke="lightgrey" class="inapplicable"></path><path d="M172,101V168.5H195.8M195.8,168.5V56.8H219.7M219.7,56.8V46.8H243.5M195.8,168.5V280.3H219.7M219.7,280.3V203.7H243.5M243.5,203.7V123.5H267.4M267.4,123.5V93.2H291.2M291.2,93.2V86.6H315.1M291.2,93.2V99.9H315.1M267.4,123.5V153.7H291.2M291.2,153.7V184.3H315.1M315.1,184.3V152.9H338.9M315.1,184.3V215.7H338.9M338.9,215.7V179.1H362.8M362.8,179.1V166.2H386.6M362.8,179.1V191.9H386.6M386.6,191.9V179.5H410.5M386.6,191.9V204.3H410.5M410.5,204.3V192.7H434.3M410.5,204.3V216H434.3M434.3,216V206H458.2M434.3,216V225.9H458.2M458.2,225.9V219.3H482M458.2,225.9V232.5H482M338.9,215.7V252.4H362.8M362.8,252.4V245.8H386.6M362.8,252.4V259.1H386.6M243.5,203.7V283.9H267.4M267.4,283.9V272.3H291.2M219.7,280.3V356.9H243.5M243.5,356.9V335.4H267.4M267.4,335.4V325.4H291.2M267.4,335.4V345.3H291.2M243.5,356.9V378.4H267.4M267.4,378.4V391.6H291.2M291.2,391.6V378.5H315.1M291.2,391.6V404.8H315.1M315.1,404.8V417.9H338.9M338.9,417.9V405H362.8M76.6,570.8V564.2H100.4" stroke="#abd9e9"></path><path d="M291.2,153.7V123.1H315.1M315.1,123.1V113.1H338.9M315.1,123.1V133H338.9M338.9,133V126.4H362.8M338.9,133V139.7H362.8M315.1,404.8V391.7H338.9" stroke="#fdae61"></path><path d="M291.2,345.3V338.7H315.1" stroke="darkgrey"></path><path d="M291.2,345.3V351.9H315.1M338.9,417.9V430.7H362.8M362.8,430.7V418.3H386.6M362.8,430.7V443.1H386.6M386.6,443.1V431.5H410.5M386.6,443.1V454.8H410.5M410.5,454.8V444.8H434.3M410.5,454.8V464.7H434.3M434.3,464.7V458.1H458.2M434.3,464.7V471.3H458.2" stroke="#2c7bb6"></path><text x="7" y="548.5" class="node" fill="#4A6FE3">1</text><text x="30.9" y="514.9" class="node" fill="#9DA8E2">0.75</text><text x="54.7" y="489.1" class="node" fill="#9DA8E2">0.75</text><text x="78.6" y="450.8" class="node" fill="#9DA8E2">0.75</text><text x="102.4" y="387.4" class="node" fill="#9DA8E2">0.75</text><text x="126.2" y="274" class="node" fill="#E392A2">0.24</text><text x="150.1" y="60.3" class="node" fill="#B6BDE3">0.66</text><text x="174" y="16.6" class="node" fill="#6D84E1">0.91</text><text x="174" y="104" class="node" fill="#4A6FE3">1</text><text x="197.8" y="171.5" class="node" fill="#5B78E2">0.96</text><text x="221.7" y="59.8" class="node" fill="#A0ABE2">0.74</text><text x="245.5" y="69.7" class="node" fill="#4A6FE3">1</text><text x="221.7" y="283.3" class="node" fill="#5B78E2">0.96</text><text x="245.5" y="206.7" class="node" fill="#4A6FE3">1</text><text x="269.4" y="126.5" class="node" fill="#8998E1">0.82</text><text x="293.2" y="96.2" class="node" fill="#4A6FE3">1</text><text x="293.2" y="156.7" class="node" fill="#5B78E2">0.96</text><text x="317.1" y="126.1" class="node" fill="#B1B8E2">0.68</text><text x="340.9" y="136" class="node" fill="#5F7BE1">0.95</text><text x="317.1" y="187.3" class="node" fill="#4A6FE3">1</text><text x="340.9" y="218.7" class="node" fill="#E6C4C9">0.4</text><text x="364.8" y="182.1" class="node" fill="#E6C4C9">0.4</text><text x="388.6" y="194.9" class="node" fill="#E6C4C9">0.4</text><text x="412.5" y="207.3" class="node" fill="#E6C4C9">0.4</text><text x="436.3" y="219" class="node" fill="#4A6FE3">1</text><text x="460.2" y="228.9" class="node" fill="#DF798F">0.16</text><text x="364.8" y="255.4" class="node" fill="#4A6FE3">1</text><text x="269.4" y="286.9" class="node" fill="#4A6FE3">1</text><text x="293.2" y="298.6" class="node" fill="#4A6FE3">1</text><text x="317.1" y="308.5" class="node" fill="#4A6FE3">1</text><text x="245.5" y="359.9" class="node" fill="#A0ABE2">0.74</text><text x="269.4" y="338.4" class="node" fill="#A0ABE2">0.74</text><text x="293.2" y="348.3" class="node" fill="#9DA8E2">0.75</text><text x="269.4" y="381.4" class="node" fill="#9DA8E2">0.75</text><text x="293.2" y="394.6" class="node" fill="#9DA8E2">0.75</text><text x="317.1" y="407.8" class="node" fill="#A0ABE2">0.74</text><text x="340.9" y="420.9" class="node" fill="#A0ABE2">0.74</text><text x="364.8" y="433.7" class="node" fill="#A0ABE2">0.74</text><text x="388.6" y="446.1" class="node" fill="#E6BDC5">0.38</text><text x="412.5" y="457.8" class="node" fill="#DADBE3">0.53</text><text x="436.3" y="467.7" class="node" fill="#4A6FE3">1</text><text x="30.9" y="582.1" class="node" fill="#9DA8E2">0.75</text><text x="54.7" y="563.9" class="node" fill="#9DA8E2">0.75</text><text x="78.6" y="573.8" class="node" fill="#9DA8E2">0.75</text><text x="54.7" y="600.4" class="node" fill="#4A6FE3">1</text></svg>
