<svg xmlns="http://www.w3.org/2000/svg" version="1.1" width="682" height="612" class="tree" data-char="101"><text x="678" y="16" text-anchor="end" class="stepsLabel">Character adds <tspan class="score">5</tspan> to tree score</text><text x="678" y="29" text-anchor="end" class="stepsLabel"><tspan class="score">0</tspan> additional regions</text><text x="678" y="42" text-anchor="end" class="stepsLabel">CI = 0.2; Fitch CI = 0.2; Fitch RI = 0.56</text><text x="678" y="68" text-anchor="end" class="stepsLabel"><tspan dy="16">An optimal tree under:</tspan><tspan x="680" style="font-style:italic" class="notThisAn" dy="1.2em">Equal weights</tspan><tspan x="680" style="font-style:italic" class="notThisAn" dy="1.2em">Implied weights, k = 2</tspan><tspan x="680" style="font-style:italic" class="thisAn" dy="1.2em">IW, k = 3</tspan><tspan x="680" style="font-style:italic" class="notThisAn" dy="1.2em">IW, k = 4.5</tspan><tspan x="680" style="font-style:italic" class="notThisAn" dy="1.2em">IW, k = 7</tspan><tspan x="680" style="font-style:italic" class="notThisAn" dy="1.2em">IW, k = 10.5</tspan></text><text x="117.2" y="593.7" fill="#fc8d59" class="flag">[0]</text><text x="139.2" y="593.7" fill="#111" class="taxonLabel">Dentalium</text><text x="117.2" y="607" fill="#fc8d59" class="flag">[0]</text><text x="139.2" y="607" fill="#111" class="taxonLabel">Wiwaxia corrugata</text><text x="89.2" y="580.5" fill="#fc8d59" class="flag">[0]</text><text x="111.2" y="580.5" fill="#111" class="taxonLabel">Tonicella</text><text x="89.2" y="553.9" fill="#fc8d59" class="flag">[0]</text><text x="111.2" y="553.9" fill="#111" class="taxonLabel">Serpula</text><text x="89.2" y="567.2" fill="#fc8d59" class="flag">[0]</text><text x="111.2" y="567.2" fill="#111" class="taxonLabel">Sipunculus</text><text x="173.4" y="514.1" fill="#91bfdb" class="flag">[1]</text><text x="195.4" y="514.1" fill="#111" class="taxonLabel">Pedunculotheca diania</text><text x="173.4" y="527.4" fill="#fc8d59" class="flag">[0]</text><text x="195.4" y="527.4" fill="#111" class="taxonLabel">Haplophrentis carinatus</text><text x="313.6" y="487.6" fill="#91bfdb" class="flag">[1]</text><text x="335.6" y="487.6" fill="#111" class="taxonLabel">Yuganotheca elegans</text><text x="313.6" y="500.9" fill="#91bfdb" class="flag">[1]</text><text x="335.6" y="500.9" fill="#111" class="taxonLabel">Tomteluva perturbata</text><text x="285.6" y="474.3" fill="#91bfdb" class="flag">[1]</text><text x="307.6" y="474.3" fill="#111" class="taxonLabel">Salanygolina</text><text x="482" y="447.8" fill="#fc8d59" class="flag">[0]</text><text x="504" y="447.8" fill="#111" class="taxonLabel">Terebratulina</text><text x="482" y="461.1" fill="#fc8d59" class="flag">[0]</text><text x="504" y="461.1" fill="#111" class="taxonLabel">Orthis</text><text x="453.9" y="434.5" fill="#91bfdb" class="flag">[1]</text><text x="475.9" y="434.5" fill="#111" class="taxonLabel">Alisina</text><text x="425.9" y="421.3" fill="#91bfdb" class="flag">[1]</text><text x="447.9" y="421.3" fill="#111" class="taxonLabel">Longtancunella chengjiangensis</text><text x="397.8" y="408" fill="#fc8d59" class="flag">[0]</text><text x="419.8" y="408" fill="#111" class="taxonLabel">Glyptoria</text><text x="369.8" y="394.7" fill="#91bfdb" class="flag">[1]</text><text x="391.8" y="394.7" fill="#111" class="taxonLabel">Nisusia sulcata</text><text x="341.7" y="381.5" fill="#91bfdb" class="flag">[1]</text><text x="363.7" y="381.5" fill="#111" class="taxonLabel">Kutorgina chengjiangensis</text><text x="341.7" y="354.9" fill="#91bfdb" class="flag">[1]</text><text x="363.7" y="354.9" fill="#111" class="taxonLabel">Coolinia pecten</text><text x="341.7" y="368.2" fill="#91bfdb" class="flag">[1]</text><text x="363.7" y="368.2" fill="#111" class="taxonLabel">Antigonambonites planus</text><text x="397.8" y="328.4" fill="#fc8d59" class="flag">[0]</text><text x="419.8" y="328.4" fill="#111" class="taxonLabel">Craniops</text><text x="397.8" y="341.7" fill="#fc8d59" class="flag">[0]</text><text x="419.8" y="341.7" fill="#111" class="taxonLabel">Novocrania</text><text x="369.8" y="315.1" fill="#fc8d59" class="flag">[0]</text><text x="391.8" y="315.1" fill="#111" class="taxonLabel">Ussunia</text><text x="341.7" y="301.9" fill="#fc8d59" class="flag">[0]</text><text x="363.7" y="301.9" fill="#111" class="taxonLabel">Gasconsia</text><text x="341.7" y="275.3" fill="#fc8d59" class="flag">[0]</text><text x="363.7" y="275.3" fill="#111" class="taxonLabel">Askepasma toddense</text><text x="341.7" y="288.6" fill="#fc8d59" class="flag">[0]</text><text x="363.7" y="288.6" fill="#111" class="taxonLabel">Micromitra</text><text x="341.7" y="248.8" fill="#fc8d59" class="flag">[0]</text><text x="363.7" y="248.8" fill="#111" class="taxonLabel">Siphonobolus priscus</text><text x="341.7" y="262.1" fill="#fc8d59" class="flag">[0]</text><text x="363.7" y="262.1" fill="#111" class="taxonLabel">Acanthotretella spinosa</text><text x="369.8" y="222.3" fill="#fc8d59" class="flag">[0]</text><text x="391.8" y="222.3" fill="#111" class="taxonLabel">Lingula</text><text x="369.8" y="235.5" fill="#fc8d59" class="flag">[0]</text><text x="391.8" y="235.5" fill="#111" class="taxonLabel">Pelagodiscus atlanticus</text><text x="425.9" y="195.7" fill="#fc8d59" class="flag">[0]</text><text x="447.9" y="195.7" fill="#111" class="taxonLabel">Mummpikia nuda</text><text x="425.9" y="209" fill="#fc8d59" class="flag">[0]</text><text x="447.9" y="209" fill="#111" class="taxonLabel">Eoobolus</text><text x="397.8" y="182.5" fill="#fc8d59" class="flag">[0]</text><text x="419.8" y="182.5" fill="#111" class="taxonLabel">Botsfordia</text><text x="369.8" y="169.2" fill="#fc8d59" class="flag">[0]</text><text x="391.8" y="169.2" fill="#111" class="taxonLabel">Lingulellotreta malongensis</text><text x="285.6" y="155.9" fill="grey" class="flag">[?]</text><text x="307.6" y="155.9" fill="grey" class="taxonLabel">Lingulosacculus</text><text x="257.5" y="142.7" fill="#fc8d59" class="flag">[0]</text><text x="279.5" y="142.7" fill="#111" class="taxonLabel">Clupeafumosus socialis</text><text x="229.5" y="116.1" fill="#fc8d59" class="flag">[0]</text><text x="251.5" y="116.1" fill="#111" class="taxonLabel">Mickwitzia muralensis</text><text x="229.5" y="129.4" fill="#fc8d59" class="flag">[0]</text><text x="251.5" y="129.4" fill="#111" class="taxonLabel">Micrina</text><text x="173.4" y="102.9" fill="#fc8d59" class="flag">[0]</text><text x="195.4" y="102.9" fill="#111" class="taxonLabel">Paterimitra</text><text x="117.2" y="89.6" fill="#fc8d59" class="flag">[0]</text><text x="139.2" y="89.6" fill="#111" class="taxonLabel">Heliomedusa orienta</text><text x="173.4" y="63.1" fill="#fc8d59" class="flag">[0]</text><text x="195.4" y="63.1" fill="#111" class="taxonLabel">Dailyatia</text><text x="173.4" y="76.3" fill="#fc8d59" class="flag">[0]</text><text x="195.4" y="76.3" fill="#111" class="taxonLabel">Eccentrotheca</text><text x="145.3" y="49.8" fill="#fc8d59" class="flag">[0]</text><text x="167.3" y="49.8" fill="#111" class="taxonLabel">Cotyledion tylodes</text><text x="173.4" y="10" fill="#fc8d59" class="flag">[0]</text><text x="195.4" y="10" fill="#111" class="taxonLabel">Flustra</text><text x="173.4" y="23.3" fill="#fc8d59" class="flag">[0]</text><text x="195.4" y="23.3" fill="#111" class="taxonLabel">Loxosomella</text><text x="145.3" y="36.5" fill="#fc8d59" class="flag">[0]</text><text x="167.3" y="36.5" fill="#111" class="taxonLabel">Phoronis</text><text x="61.1" y="540.7" fill="#fc8d59" class="flag">[0]</text><text x="83.1" y="540.7" fill="#111" class="taxonLabel">Halkieria evangelista</text><path d="M5,452V331.5H33.1M33.1,331.5V125.4H61.1M61.1,125.4V40.2H89.2M89.2,40.2V23.6H117.2M117.2,23.6V13.6H145.3M145.3,13.6V7H173.4M145.3,13.6V20.3H173.4M117.2,23.6V33.5H145.3M89.2,40.2V56.8H117.2M117.2,56.8V46.8H145.3M117.2,56.8V66.7H145.3M145.3,66.7V60.1H173.4M145.3,66.7V73.3H173.4M61.1,125.4V210.6H89.2M89.2,210.6V86.6H117.2M89.2,210.6V334.6H117.2M117.2,334.6V151.5H145.3M145.3,151.5V99.9H173.4M145.3,151.5V203.1H173.4M173.4,203.1V119.8H201.4M201.4,119.8V113.1H229.5M201.4,119.8V126.4H229.5M173.4,203.1V286.5H201.4M201.4,286.5V164.9H229.5M229.5,164.9V139.7H257.5M229.5,164.9V190H257.5M257.5,190V152.9H285.6M257.5,190V227.1H285.6M285.6,227.1V201.9H313.6M313.6,201.9V177.8H341.7M341.7,177.8V166.2H369.8M341.7,177.8V189.4H369.8M369.8,189.4V179.5H397.8M369.8,189.4V199.4H397.8M397.8,199.4V192.7H425.9M397.8,199.4V206H425.9M313.6,201.9V225.9H341.7M341.7,225.9V219.3H369.8M341.7,225.9V232.5H369.8M285.6,227.1V252.4H313.6M313.6,252.4V245.8H341.7M313.6,252.4V259.1H341.7M201.4,286.5V408.1H229.5M257.5,334.9V294.7H285.6M285.6,294.7V279H313.6M313.6,279V272.3H341.7M313.6,279V285.6H341.7M285.6,294.7V310.5H313.6M313.6,310.5V298.9H341.7M313.6,310.5V322.1H341.7M341.7,322.1V312.1H369.8M341.7,322.1V332H369.8M369.8,332V325.4H397.8M369.8,332V338.7H397.8M369.8,417.4V405H397.8M425.9,441.5V451.4H453.9M453.9,451.4V444.8H482M453.9,451.4V458.1H482M117.2,334.6V517.8H145.3M145.3,517.8V524.4H173.4M33.1,331.5V537.7H61.1M5,452V572.5H33.1M33.1,572.5V557.6H61.1M61.1,557.6V550.9H89.2M61.1,557.6V564.2H89.2M33.1,572.5V587.4H61.1M61.1,587.4V577.5H89.2M61.1,587.4V597.4H89.2M89.2,597.4V590.7H117.2M89.2,597.4V604H117.2" stroke="#fc8d59"></path><path d="M229.5,408.1V334.9H257.5" stroke="darkgrey"></path><path d="M257.5,334.9V375H285.6M285.6,375V358.6H313.6M313.6,358.6V351.9H341.7M313.6,358.6V365.2H341.7M285.6,375V391.5H313.6M313.6,391.5V378.5H341.7M313.6,391.5V404.6H341.7M341.7,404.6V391.7H369.8M341.7,404.6V417.4H369.8M369.8,417.4V429.9H397.8M397.8,429.9V418.3H425.9M397.8,429.9V441.5H425.9M425.9,441.5V431.5H453.9M229.5,408.1V481.3H257.5M257.5,481.3V471.3H285.6M257.5,481.3V491.2H285.6M285.6,491.2V484.6H313.6M285.6,491.2V497.9H313.6M145.3,517.8V511.1H173.4" stroke="#91bfdb"></path><text x="7" y="455" class="node" fill="#4A6FE3">1</text><text x="35.1" y="334.5" class="node" fill="#4A6FE3">1</text><text x="63.1" y="128.4" class="node" fill="#8091E1">0.85</text><text x="91.2" y="43.2" class="node" fill="#8091E1">0.85</text><text x="119.2" y="26.6" class="node" fill="#4A6FE3">1</text><text x="147.3" y="16.6" class="node" fill="#4A6FE3">1</text><text x="119.2" y="59.8" class="node" fill="#8091E1">0.85</text><text x="147.3" y="69.7" class="node" fill="#8091E1">0.85</text><text x="91.2" y="213.6" class="node" fill="#8091E1">0.85</text><text x="119.2" y="337.6" class="node" fill="#8091E1">0.85</text><text x="147.3" y="154.5" class="node" fill="#E18297">0.19</text><text x="175.4" y="206.1" class="node" fill="#4A6FE3">1</text><text x="203.4" y="122.8" class="node" fill="#E5A5B1">0.3</text><text x="203.4" y="289.5" class="node" fill="#E5A5B1">0.3</text><text x="231.5" y="167.9" class="node" fill="#E5A5B1">0.3</text><text x="259.5" y="193" class="node" fill="#E5A5B1">0.3</text><text x="287.6" y="230.1" class="node" fill="#DB6581">0.1</text><text x="315.6" y="204.9" class="node" fill="#E5A5B1">0.3</text><text x="343.7" y="180.8" class="node" fill="#E6AEB8">0.33</text><text x="371.8" y="192.4" class="node" fill="#E6AEB8">0.33</text><text x="399.8" y="202.4" class="node" fill="#E6AEB8">0.33</text><text x="343.7" y="228.9" class="node" fill="#E5A5B1">0.3</text><text x="315.6" y="255.4" class="node" fill="#4A6FE3">1</text><text x="231.5" y="411.1" class="node" fill="#4A6FE3">1</text><text x="259.5" y="337.9" class="node" fill="#E18297">0.19</text><text x="287.6" y="297.7" class="node" fill="#E38C9E">0.22</text><text x="315.6" y="282" class="node" fill="#4A6FE3">1</text><text x="315.6" y="313.5" class="node" fill="#4A6FE3">1</text><text x="343.7" y="325.1" class="node" fill="#4A6FE3">1</text><text x="371.8" y="335" class="node" fill="#4A6FE3">1</text><text x="287.6" y="378" class="node" fill="#4A6FE3">1</text><text x="315.6" y="361.6" class="node" fill="#4A6FE3">1</text><text x="315.6" y="394.5" class="node" fill="#DADBE3">0.53</text><text x="343.7" y="407.6" class="node" fill="#DADBE3">0.53</text><text x="371.8" y="420.4" class="node" fill="#DADBE3">0.53</text><text x="399.8" y="432.9" class="node" fill="#DADBE3">0.53</text><text x="427.9" y="444.5" class="node" fill="#4A6FE3">1</text><text x="455.9" y="454.4" class="node" fill="#97A4E2">0.77</text><text x="259.5" y="484.3" class="node" fill="#BFC4E3">0.63</text><text x="287.6" y="494.2" class="node" fill="#627DE1">0.94</text><text x="147.3" y="520.8" class="node" fill="#4A6FE3">1</text><text x="35.1" y="575.5" class="node" fill="#4A6FE3">1</text><text x="63.1" y="560.6" class="node" fill="#A6AFE2">0.72</text><text x="63.1" y="590.4" class="node" fill="#E4D9DB">0.47</text><text x="91.2" y="600.4" class="node" fill="#E4D9DB">0.47</text></svg>
