<svg xmlns="http://www.w3.org/2000/svg" version="1.1" width="682" height="595" class="tree" char="1">
 <text x="678" y="16.6" text-anchor="end" class="stepsLabel">Character adds <tspan class="score">1</tspan> to tree score</text>
 <text x="678" y="30.2" text-anchor="end" class="stepsLabel"><tspan class="score"></tspan> additional region</text>
 <text x="678" y="43.8" text-anchor="end" class="stepsLabel">CI = 1; Fitch CI = 1; Fitch RI = n/a</text>
 <text x="678" y="71" text-anchor="end" class="stepsLabel"><tspan dy="16">A most parsimonious tree under:</tspan><tspan x="680" style="font-style:italic" class="notThisAn" dy="1.2em">Equal weights</tspan><tspan x="680" style="font-style:italic" class="notThisAn" dy="1.2em">Implied weights, k = 2</tspan><tspan x="680" style="font-style:italic" class="notThisAn" dy="1.2em">Implied weights, k = 3</tspan><tspan x="680" style="font-style:italic" class="notThisAn" dy="1.2em">Implied weights, k = 4.5</tspan><tspan x="680" style="font-style:italic" class="thisAn" dy="1.2em">Implied weights, k = 7</tspan><tspan x="680" style="font-style:italic" class="thisAn" dy="1.2em">Implied weights, k = 10.5</tspan><tspan x="680" style="font-style:italic" class="thisAn" dy="1.2em">Implied weights, k = 16</tspan><tspan x="680" style="font-style:italic" class="thisAn" dy="1.2em">Implied weights, k = 24</tspan></text>
 <text x="40.9" y="15" fill="#91bfdb" class="flag">[1]</text>
 <text x="60.9" y="15" class="taxonLabel">Dailyatia</text>
 <text x="98.8" y="42.9" fill="#91bfdb" class="flag">[1]</text>
 <text x="118.8" y="42.9" class="taxonLabel">Eccentrotheca</text>
 <text x="98.8" y="29" fill="#fc8d59" class="flag">[0]</text>
 <text x="118.8" y="29" class="taxonLabel">Phoronis</text>
 <text x="98.8" y="56.9" fill="#91bfdb" class="flag">[1]</text>
 <text x="118.8" y="56.9" class="taxonLabel">Paterimitra</text>
 <text x="214.6" y="322.4" fill="#91bfdb" class="flag">[1]</text>
 <text x="234.6" y="322.4" class="taxonLabel">Micromitra</text>
 <text x="214.6" y="308.4" fill="#91bfdb" class="flag">[1]</text>
 <text x="234.6" y="308.4" class="taxonLabel">Askepasma toddense</text>
 <text x="243.5" y="462.1" fill="#91bfdb" class="flag">[1]</text>
 <text x="263.5" y="462.1" class="taxonLabel">Salanygolina</text>
 <text x="272.5" y="490.1" fill="#91bfdb" class="flag">[1]</text>
 <text x="292.5" y="490.1" class="taxonLabel">Tomteluva perturbata</text>
 <text x="272.5" y="476.1" fill="#91bfdb" class="flag">[1]</text>
 <text x="292.5" y="476.1" class="taxonLabel">Yuganotheca elegans</text>
 <text x="272.5" y="350.3" fill="#91bfdb" class="flag">[1]</text>
 <text x="292.5" y="350.3" class="taxonLabel">Coolinia pecten</text>
 <text x="272.5" y="336.4" fill="#91bfdb" class="flag">[1]</text>
 <text x="292.5" y="336.4" class="taxonLabel">Antigonambonites planus</text>
 <text x="272.5" y="364.3" fill="#91bfdb" class="flag">[1]</text>
 <text x="292.5" y="364.3" class="taxonLabel">Kutorgina chengjiangensis</text>
 <text x="301.4" y="378.3" fill="#91bfdb" class="flag">[1]</text>
 <text x="321.4" y="378.3" class="taxonLabel">Nisusia sulcata</text>
 <text x="330.4" y="392.2" fill="#91bfdb" class="flag">[1]</text>
 <text x="350.4" y="392.2" class="taxonLabel">Glyptoria</text>
 <text x="359.3" y="406.2" fill="#91bfdb" class="flag">[1]</text>
 <text x="379.3" y="406.2" class="taxonLabel">Longtancunella chengjiangensis</text>
 <text x="388.2" y="420.2" fill="#91bfdb" class="flag">[1]</text>
 <text x="408.2" y="420.2" class="taxonLabel">Alisina</text>
 <text x="417.2" y="448.1" fill="#91bfdb" class="flag">[1]</text>
 <text x="437.2" y="448.1" class="taxonLabel">Terebratulina</text>
 <text x="417.2" y="434.2" fill="#91bfdb" class="flag">[1]</text>
 <text x="437.2" y="434.2" class="taxonLabel">Orthis</text>
 <text x="214.6" y="238.6" fill="#91bfdb" class="flag">[1]</text>
 <text x="234.6" y="238.6" class="taxonLabel">Gasconsia</text>
 <text x="243.5" y="252.5" fill="#91bfdb" class="flag">[1]</text>
 <text x="263.5" y="252.5" class="taxonLabel">Heliomedusa orienta</text>
 <text x="272.5" y="266.5" fill="#91bfdb" class="flag">[1]</text>
 <text x="292.5" y="266.5" class="taxonLabel">Ussunia</text>
 <text x="301.4" y="294.4" fill="#91bfdb" class="flag">[1]</text>
 <text x="321.4" y="294.4" class="taxonLabel">Novocrania</text>
 <text x="301.4" y="280.5" fill="#91bfdb" class="flag">[1]</text>
 <text x="321.4" y="280.5" class="taxonLabel">Craniops</text>
 <text x="214.6" y="70.9" fill="#91bfdb" class="flag">[1]</text>
 <text x="234.6" y="70.9" class="taxonLabel">Pelagodiscus atlanticus</text>
 <text x="243.5" y="84.9" fill="#91bfdb" class="flag">[1]</text>
 <text x="263.5" y="84.9" class="taxonLabel">Mickwitzia muralensis</text>
 <text x="272.5" y="98.8" fill="#91bfdb" class="flag">[1]</text>
 <text x="292.5" y="98.8" class="taxonLabel">Micrina</text>
 <text x="301.4" y="112.8" fill="#91bfdb" class="flag">[1]</text>
 <text x="321.4" y="112.8" class="taxonLabel">Lingula</text>
 <text x="330.4" y="126.8" fill="#91bfdb" class="flag">[1]</text>
 <text x="350.4" y="126.8" class="taxonLabel">Eoobolus</text>
 <text x="359.3" y="140.8" fill="#91bfdb" class="flag">[1]</text>
 <text x="379.3" y="140.8" class="taxonLabel">Mummpikia nuda</text>
 <text x="388.2" y="154.7" fill="#91bfdb" class="flag">[1]</text>
 <text x="408.2" y="154.7" class="taxonLabel">Botsfordia</text>
 <text x="446.1" y="182.7" fill="#91bfdb" class="flag">[1]</text>
 <text x="466.1" y="182.7" class="taxonLabel">Lingulellotreta malongensis</text>
 <text x="475.1" y="196.6" fill="#91bfdb" class="flag">[1]</text>
 <text x="495.1" y="196.6" class="taxonLabel">Clupeafumosus socialis</text>
 <text x="417.2" y="168.7" fill="#91bfdb" class="flag">[1]</text>
 <text x="437.2" y="168.7" class="taxonLabel">Lingulosacculus</text>
 <text x="504" y="224.6" fill="#91bfdb" class="flag">[1]</text>
 <text x="524" y="224.6" class="taxonLabel">Siphonobolus priscus</text>
 <text x="504" y="210.6" fill="#91bfdb" class="flag">[1]</text>
 <text x="524" y="210.6" class="taxonLabel">Acanthotretella spinosa</text>
 <text x="156.7" y="518" fill="#91bfdb" class="flag">[1]</text>
 <text x="176.7" y="518" class="taxonLabel">Haplophrentis carinatus</text>
 <text x="156.7" y="504" fill="#91bfdb" class="flag">[1]</text>
 <text x="176.7" y="504" class="taxonLabel">Pedunculotheca diania</text>
 <path d="M10,69.2V12H38.9M10,69.2V126.5H38.9M38.9,126.5V33H67.9M67.9,33V39.9H96.8M38.9,126.5V220H67.9M67.9,220V53.9H96.8M67.9,220V386.1H96.8M96.8,386.1V264.1H125.8M125.8,264.1V165.3H154.7M154.7,165.3V81.9H183.6M183.6,81.9V67.9H212.6M183.6,81.9V95.8H212.6M212.6,95.8V81.9H241.5M212.6,95.8V109.8H241.5M241.5,109.8V95.8H270.5M241.5,109.8V123.7H270.5M270.5,123.7V109.8H299.4M270.5,123.7V137.6H299.4M299.4,137.6V123.8H328.4M299.4,137.6V151.5H328.4M328.4,151.5V137.8H357.3M328.4,151.5V165.3H357.3M357.3,165.3V151.7H386.2M357.3,165.3V178.8H386.2M386.2,178.8V165.7H415.2M386.2,178.8V191.9H415.2M415.2,191.9V179.7H444.1M415.2,191.9V204.1H444.1M444.1,204.1V193.6H473.1M444.1,204.1V214.6H473.1M473.1,214.6V207.6H502M473.1,214.6V221.6H502M154.7,165.3V248.7H183.6M183.6,248.7V235.6H212.6M183.6,248.7V261.8H212.6M212.6,261.8V249.5H241.5M212.6,261.8V274H241.5M241.5,274V263.5H270.5M241.5,274V284.5H270.5M270.5,284.5V277.5H299.4M270.5,284.5V291.4H299.4M125.8,264.1V363H154.7M154.7,363V312.4H183.6M183.6,312.4V305.4H212.6M183.6,312.4V319.4H212.6M154.7,363V413.6H183.6M183.6,413.6V357.7H212.6M212.6,357.7V340.3H241.5M241.5,340.3V333.4H270.5M241.5,340.3V347.3H270.5M212.6,357.7V375.1H241.5M241.5,375.1V361.3H270.5M241.5,375.1V388.8H270.5M270.5,388.8V375.3H299.4M270.5,388.8V402.3H299.4M299.4,402.3V389.2H328.4M299.4,402.3V415.4H328.4M328.4,415.4V403.2H357.3M328.4,415.4V427.7H357.3M357.3,427.7V417.2H386.2M357.3,427.7V438.2H386.2M386.2,438.2V431.2H415.2M386.2,438.2V445.1H415.2M183.6,413.6V469.6H212.6M212.6,469.6V459.1H241.5M212.6,469.6V480.1H241.5M241.5,480.1V473.1H270.5M241.5,480.1V487.1H270.5M96.8,386.1V508H125.8M125.8,508V501H154.7M125.8,508V515H154.7" stroke="#91bfdb"></path>
 <path d="M67.9,33V26H96.8" stroke="#fc8d59"></path></svg>
