<svg xmlns="http://www.w3.org/2000/svg" version="1.1" width="682" height="682" class="tree" data-char="111"><text x="678" y="15.6" text-anchor="end" class="stepsLabel">Character adds <tspan class="score">3</tspan> to tree score</text><text x="678" y="28.2" text-anchor="end" class="stepsLabel"><tspan class="score">1</tspan> additional region</text><text x="678" y="40.8" text-anchor="end" class="stepsLabel">CI = 0.67; Fitch CI = 0.67; Fitch RI = 0</text><text x="678" y="66" text-anchor="end" class="stepsLabel"><tspan dy="16" fill="#34caaf">An optimal tree under:</tspan><tspan x="680" style="font-style:italic" class="thisAn" dy="1.2em">Equal weights</tspan><tspan x="680" style="font-style:italic" class="notThisAn" dy="1.2em">Implied weights, k = 2</tspan><tspan x="680" style="font-style:italic" class="notThisAn" dy="1.2em">IW, k = 3</tspan><tspan x="680" style="font-style:italic" class="notThisAn" dy="1.2em">IW, k = 4.5</tspan><tspan x="680" style="font-style:italic" class="notThisAn" dy="1.2em">IW, k = 7</tspan><tspan x="680" style="font-style:italic" class="notThisAn" dy="1.2em">IW, k = 10.5</tspan><tspan x="680" style="font-style:italic" class="notThisAn" dy="1.2em">IW, k = 16</tspan><tspan x="680" style="font-style:italic" class="notThisAn" dy="1.2em">IW, k = 24</tspan></text><text x="91.7" y="664.2" fill="#2c7bb6" class="flag">[3]</text><text x="113.7" y="664.2" fill="#000" class="taxonLabel">Tonicella</text><text x="91.7" y="677" fill="lightgrey" class="flag">[-]</text><text x="113.7" y="677" fill="#ccc" class="taxonLabel">Dentalium</text><text x="70" y="651.3" fill="lightgrey" class="flag">[-]</text><text x="92" y="651.3" fill="#ccc" class="taxonLabel">Wiwaxia corrugata</text><text x="70" y="625.7" fill="lightgrey" class="flag">[-]</text><text x="92" y="625.7" fill="#ccc" class="taxonLabel">Serpula</text><text x="70" y="638.5" fill="lightgrey" class="flag">[-]</text><text x="92" y="638.5" fill="#ccc" class="taxonLabel">Sipunculus</text><text x="156.8" y="587.2" fill="lightgrey" class="flag">[-]</text><text x="178.8" y="587.2" fill="#ccc" class="taxonLabel">Cotyledion tylodes</text><text x="156.8" y="600" fill="lightgrey" class="flag">[-]</text><text x="178.8" y="600" fill="#ccc" class="taxonLabel">Eccentrotheca</text><text x="330.2" y="561.6" fill="lightgrey" class="flag">[-]</text><text x="352.2" y="561.6" fill="#ccc" class="taxonLabel">Pauxillites</text><text x="330.2" y="574.4" fill="lightgrey" class="flag">[-]</text><text x="352.2" y="574.4" fill="#ccc" class="taxonLabel">Maxilites</text><text x="308.5" y="548.7" fill="lightgrey" class="flag">[-]</text><text x="330.5" y="548.7" fill="#ccc" class="taxonLabel">Haplophrentis carinatus</text><text x="286.9" y="535.9" fill="lightgrey" class="flag">[-]</text><text x="308.9" y="535.9" fill="#ccc" class="taxonLabel">Paramicrocornus</text><text x="286.9" y="510.2" fill="lightgrey" class="flag">[-]</text><text x="308.9" y="510.2" fill="#ccc" class="taxonLabel">Bactrotheca</text><text x="286.9" y="523.1" fill="lightgrey" class="flag">[-]</text><text x="308.9" y="523.1" fill="#ccc" class="taxonLabel">Conotheca</text><text x="243.5" y="497.4" fill="lightgrey" class="flag">[-]</text><text x="265.5" y="497.4" fill="#ccc" class="taxonLabel">Pedunculotheca diania</text><text x="438.6" y="471.8" fill="lightgrey" class="flag">[-]</text><text x="460.6" y="471.8" fill="#ccc" class="taxonLabel">Siphonobolus priscus</text><text x="438.6" y="484.6" fill="lightgrey" class="flag">[-]</text><text x="460.6" y="484.6" fill="#ccc" class="taxonLabel">Acanthotretella spinosa</text><text x="417" y="458.9" fill="lightgrey" class="flag">[-]</text><text x="439" y="458.9" fill="#ccc" class="taxonLabel">Clupeafumosus socialis</text><text x="395.3" y="446.1" fill="lightgrey" class="flag">[-]</text><text x="417.3" y="446.1" fill="#ccc" class="taxonLabel">Lingulosacculus</text><text x="373.6" y="433.3" fill="lightgrey" class="flag">[-]</text><text x="395.6" y="433.3" fill="#ccc" class="taxonLabel">Lingulellotreta malongensis</text><text x="373.6" y="407.6" fill="lightgrey" class="flag">[-]</text><text x="395.6" y="407.6" fill="#ccc" class="taxonLabel">Mummpikia nuda</text><text x="373.6" y="420.5" fill="lightgrey" class="flag">[-]</text><text x="395.6" y="420.5" fill="#ccc" class="taxonLabel">Pelagodiscus atlanticus</text><text x="330.2" y="394.8" fill="lightgrey" class="flag">[-]</text><text x="352.2" y="394.8" fill="#ccc" class="taxonLabel">Botsfordia</text><text x="308.5" y="382" fill="#fdae61" class="flag">[1]</text><text x="330.5" y="382" fill="#000" class="taxonLabel">Eoobolus</text><text x="286.9" y="369.2" fill="lightgrey" class="flag">[-]</text><text x="308.9" y="369.2" fill="#ccc" class="taxonLabel">Lingula</text><text x="373.6" y="343.5" fill="lightgrey" class="flag">[-]</text><text x="395.6" y="343.5" fill="#ccc" class="taxonLabel">Novocrania</text><text x="373.6" y="356.3" fill="lightgrey" class="flag">[-]</text><text x="395.6" y="356.3" fill="#ccc" class="taxonLabel">Craniops</text><text x="351.9" y="330.7" fill="lightgrey" class="flag">[-]</text><text x="373.9" y="330.7" fill="#ccc" class="taxonLabel">Ussunia</text><text x="330.2" y="317.8" fill="lightgrey" class="flag">[-]</text><text x="352.2" y="317.8" fill="#ccc" class="taxonLabel">Heliomedusa orienta</text><text x="308.5" y="305" fill="#fdae61" class="flag">[1]</text><text x="330.5" y="305" fill="#000" class="taxonLabel">Mickwitzia muralensis</text><text x="308.5" y="279.4" fill="#fdae61" class="flag">[1]</text><text x="330.5" y="279.4" fill="#000" class="taxonLabel">Micromitra</text><text x="308.5" y="292.2" fill="#fdae61" class="flag">[1]</text><text x="330.5" y="292.2" fill="#000" class="taxonLabel">Gasconsia</text><text x="395.3" y="253.7" fill="#fdae61" class="flag">[1]</text><text x="417.3" y="253.7" fill="#000" class="taxonLabel">Antigonambonites planus</text><text x="395.3" y="266.5" fill="#fdae61" class="flag">[1]</text><text x="417.3" y="266.5" fill="#000" class="taxonLabel">Coolinia pecten</text><text x="482" y="228.1" fill="#abd9e9" class="flag">[2]</text><text x="504" y="228.1" fill="#000" class="taxonLabel">Terebratulina</text><text x="482" y="240.9" fill="lightgrey" class="flag">[-]</text><text x="504" y="240.9" fill="#ccc" class="taxonLabel">Orthis</text><text x="460.3" y="215.2" fill="grey" class="flag">[12]</text><text x="482.3" y="215.2" fill="#999" class="taxonLabel">Alisina</text><text x="438.6" y="202.4" fill="grey" class="flag">[?]</text><text x="460.6" y="202.4" fill="#999" class="taxonLabel">Longtancunella chengjiangensis</text><text x="417" y="189.6" fill="lightgrey" class="flag">[-]</text><text x="439" y="189.6" fill="#ccc" class="taxonLabel">Glyptoria</text><text x="417" y="163.9" fill="#fdae61" class="flag">[1]</text><text x="439" y="163.9" fill="#000" class="taxonLabel">Kutorgina chengjiangensis</text><text x="417" y="176.8" fill="#fdae61" class="flag">[1]</text><text x="439" y="176.8" fill="#000" class="taxonLabel">Nisusia sulcata</text><text x="351.9" y="151.1" fill="#abd9e9" class="flag">[2]</text><text x="373.9" y="151.1" fill="#000" class="taxonLabel">Tomteluva perturbata</text><text x="330.2" y="138.3" fill="grey" class="flag">[?]</text><text x="352.2" y="138.3" fill="#999" class="taxonLabel">Yuganotheca elegans</text><text x="308.5" y="125.4" fill="#fdae61" class="flag">[1]</text><text x="330.5" y="125.4" fill="#000" class="taxonLabel">Salanygolina</text><text x="286.9" y="112.6" fill="lightgrey" class="flag">[-]</text><text x="308.9" y="112.6" fill="#ccc" class="taxonLabel">Askepasma toddense</text><text x="265.2" y="99.8" fill="#fdae61" class="flag">[1]</text><text x="287.2" y="99.8" fill="#000" class="taxonLabel">Micrina</text><text x="200.1" y="87" fill="#fdae61" class="flag">[1]</text><text x="222.1" y="87" fill="#000" class="taxonLabel">Paterimitra</text><text x="178.5" y="74.1" fill="lightgrey" class="flag">[-]</text><text x="200.5" y="74.1" fill="#ccc" class="taxonLabel">Halkieria evangelista</text><text x="156.8" y="61.3" fill="lightgrey" class="flag">[-]</text><text x="178.8" y="61.3" fill="#ccc" class="taxonLabel">Dailyatia</text><text x="113.4" y="48.5" fill="lightgrey" class="flag">[-]</text><text x="135.4" y="48.5" fill="#ccc" class="taxonLabel">Phoronis</text><text x="91.7" y="35.7" fill="lightgrey" class="flag">[-]</text><text x="113.7" y="35.7" fill="#ccc" class="taxonLabel">Namacalathus</text><text x="91.7" y="10" fill="lightgrey" class="flag">[-]</text><text x="113.7" y="10" fill="#ccc" class="taxonLabel">Flustra</text><text x="91.7" y="22.8" fill="lightgrey" class="flag">[-]</text><text x="113.7" y="22.8" fill="#ccc" class="taxonLabel">Amathia</text><text x="48.4" y="612.9" fill="lightgrey" class="flag">[-]</text><text x="70.4" y="612.9" fill="#ccc" class="taxonLabel">Loxosomella</text><path d="M5,490.2V336.9H26.7M26.7,336.9V63.9H48.4M48.4,63.9V13.4H70M70,13.4V7H91.7M70,13.4V19.8H91.7M48.4,63.9V114.5H70M70,114.5V32.7H91.7M70,114.5V196.3H91.7M91.7,196.3V45.5H113.4M91.7,196.3V347.1H113.4M113.4,347.1V103.5H135.1M135.1,103.5V58.3H156.8M135.1,103.5V148.7H156.8M156.8,148.7V71.1H178.5M265.2,125.3V109.6H286.9M395.3,198.6V186.6H417M460.3,231.5V237.9H482M286.9,314V326.1H308.5M308.5,326.1V314.8H330.2M308.5,326.1V337.3H330.2M330.2,337.3V327.7H351.9M330.2,337.3V346.9H351.9M351.9,346.9V340.5H373.6M351.9,346.9V353.3H373.6M265.2,380.1V366.2H286.9M286.9,394.1V409.2H308.5M308.5,409.2V391.8H330.2M308.5,409.2V426.7H330.2M330.2,426.7V411H351.9M351.9,411V404.6H373.6M351.9,411V417.5H373.6M330.2,426.7V442.3H351.9M351.9,442.3V430.3H373.6M351.9,442.3V454.3H373.6M373.6,454.3V443.1H395.3M373.6,454.3V465.6H395.3M395.3,465.6V455.9H417M395.3,465.6V475.2H417M417,475.2V468.8H438.6M417,475.2V481.6H438.6M200.1,368.4V511.7H221.8M221.8,511.7V494.4H243.5M221.8,511.7V528.9H243.5M243.5,528.9V513.7H265.2M265.2,513.7V507.2H286.9M265.2,513.7V520.1H286.9M243.5,528.9V544.1H265.2M265.2,544.1V532.9H286.9M265.2,544.1V555.4H286.9M286.9,555.4V545.7H308.5M286.9,555.4V565H308.5M308.5,565V558.6H330.2M308.5,565V571.4H330.2M113.4,347.1V590.6H135.1M135.1,590.6V584.2H156.8M135.1,590.6V597H156.8M26.7,336.9V609.9H48.4M5,490.2V643.5H26.7M26.7,643.5V629.1H48.4M48.4,629.1V622.7H70M48.4,629.1V635.5H70M26.7,643.5V658H48.4M48.4,658V648.3H70M48.4,658V667.6H70M70,667.6V674H91.7" stroke="lightgrey" class="inapplicable"></path><path d="M156.8,148.7V226.2H178.5M178.5,226.2V84H200.1M178.5,226.2V368.4H200.1M200.1,368.4V225.2H221.8M221.8,225.2V111.1H243.5M243.5,111.1V96.8H265.2M243.5,111.1V125.3H265.2M265.2,125.3V141.1H286.9M286.9,141.1V122.4H308.5M286.9,141.1V159.7H308.5M308.5,159.7V135.3H330.2M308.5,159.7V184.1H330.2M330.2,184.1V220H351.9M351.9,220V183H373.6M373.6,183V167.3H395.3M395.3,167.3V160.9H417M395.3,167.3V173.8H417M373.6,183V198.6H395.3M351.9,220V257.1H373.6M373.6,257.1V250.7H395.3M373.6,257.1V263.5H395.3M221.8,225.2V339.3H243.5M243.5,339.3V298.4H265.2M265.2,298.4V282.8H286.9M286.9,282.8V276.4H308.5M286.9,282.8V289.2H308.5M265.2,298.4V314H286.9M286.9,314V302H308.5M243.5,339.3V380.1H265.2M265.2,380.1V394.1H286.9M286.9,394.1V379H308.5" stroke="#fdae61"></path><path d="M330.2,184.1V148.1H351.9M460.3,231.5V225.1H482" stroke="#abd9e9"></path><path d="M395.3,198.6V210.6H417M417,210.6V199.4H438.6M417,210.6V221.9H438.6M438.6,221.9V212.2H460.3M438.6,221.9V231.5H460.3" stroke="darkgrey"></path><path d="M70,667.6V661.2H91.7" stroke="#2c7bb6"></path><text x="7" y="493.2" class="node" fill="#4A6FE3">1</text><text x="28.7" y="339.9" class="node" fill="#4A6FE3">1</text><text x="50.4" y="66.9" class="node" fill="#4A6FE3">1</text><text x="72" y="16.4" class="node" fill="#4A6FE3">1</text><text x="72" y="117.5" class="node" fill="#4A6FE3">1</text><text x="93.7" y="199.3" class="node" fill="#E6BAC2">0.37</text><text x="115.4" y="350.1" class="node" fill="#4A6FE3">1</text><text x="137.1" y="106.5" class="node" fill="#AEB6E2">0.69</text><text x="158.8" y="151.7" class="node" fill="#4A6FE3">1</text><text x="180.5" y="229.2" class="node" fill="#4A6FE3">1</text><text x="202.1" y="371.4" class="node" fill="#4A6FE3">1</text><text x="223.8" y="228.2" class="node" fill="#4A6FE3">1</text><text x="245.5" y="114.1" class="node" fill="#E38C9E">0.22</text><text x="267.2" y="128.3" class="node" fill="#A8B1E2">0.71</text><text x="288.9" y="144.1" class="node" fill="#4A6FE3">1</text><text x="310.5" y="162.7" class="node" fill="#C4C9E3">0.61</text><text x="332.2" y="187.1" class="node" fill="#D85778">0.06</text><text x="353.9" y="223" class="node" fill="#E5A8B3">0.31</text><text x="375.6" y="186" class="node" fill="#E6B4BD">0.35</text><text x="397.3" y="170.3" class="node" fill="#E4D3D6">0.45</text><text x="397.3" y="201.6" class="node" fill="#E6BAC2">0.37</text><text x="419" y="213.6" class="node" fill="#E6BAC2">0.37</text><text x="440.6" y="224.9" class="node" fill="#6982E1">0.92</text><text x="462.3" y="234.5" class="node" fill="#B9BFE3">0.65</text><text x="375.6" y="260.1" class="node" fill="#4A6FE3">1</text><text x="245.5" y="342.3" class="node" fill="#A8B1E2">0.71</text><text x="267.2" y="301.4" class="node" fill="#A8B1E2">0.71</text><text x="288.9" y="285.8" class="node" fill="#A8B1E2">0.71</text><text x="288.9" y="317" class="node" fill="#A8B1E2">0.71</text><text x="310.5" y="329.1" class="node" fill="#4A6FE3">1</text><text x="332.2" y="340.3" class="node" fill="#4A6FE3">1</text><text x="353.9" y="349.9" class="node" fill="#4A6FE3">1</text><text x="267.2" y="383.1" class="node" fill="#A8B1E2">0.71</text><text x="288.9" y="397.1" class="node" fill="#C1C6E3">0.62</text><text x="310.5" y="412.2" class="node" fill="#C1C6E3">0.62</text><text x="332.2" y="429.7" class="node" fill="#C1C6E3">0.62</text><text x="353.9" y="414" class="node" fill="#B1B8E2">0.68</text><text x="353.9" y="445.3" class="node" fill="#B9BFE3">0.65</text><text x="375.6" y="457.3" class="node" fill="#4F72E2">0.99</text><text x="397.3" y="468.6" class="node" fill="#E6B4BD">0.35</text><text x="419" y="478.2" class="node" fill="#4F72E2">0.99</text><text x="223.8" y="514.7" class="node" fill="#4A6FE3">1</text><text x="245.5" y="531.9" class="node" fill="#4A6FE3">1</text><text x="267.2" y="516.7" class="node" fill="#E6B4BD">0.35</text><text x="267.2" y="547.1" class="node" fill="#4A6FE3">1</text><text x="288.9" y="558.4" class="node" fill="#4A6FE3">1</text><text x="310.5" y="568" class="node" fill="#4A6FE3">1</text><text x="137.1" y="593.6" class="node" fill="#E6B4BD">0.35</text><text x="28.7" y="646.5" class="node" fill="#4A6FE3">1</text><text x="50.4" y="632.1" class="node" fill="#4A6FE3">1</text><text x="50.4" y="661" class="node" fill="#4A6FE3">1</text><text x="72" y="670.6" class="node" fill="#4A6FE3">1</text></svg>
