<svg xmlns="http://www.w3.org/2000/svg" version="1.1" width="682" height="612" class="tree" data-char="202"><text x="678" y="16" text-anchor="end" class="stepsLabel">Character adds <tspan class="score">2</tspan> to tree score</text><text x="678" y="29" text-anchor="end" class="stepsLabel"><tspan class="score">0</tspan> additional regions</text><text x="678" y="42" text-anchor="end" class="stepsLabel">CI = 0.5; Fitch CI = 0.5; Fitch RI = 0</text><text x="678" y="68" text-anchor="end" class="stepsLabel"><tspan dy="16">An optimal tree under:</tspan><tspan x="680" style="font-style:italic" class="thisAn" dy="1.2em">Equal weights</tspan><tspan x="680" style="font-style:italic" class="notThisAn" dy="1.2em">Implied weights, k = 2</tspan><tspan x="680" style="font-style:italic" class="notThisAn" dy="1.2em">IW, k = 3</tspan><tspan x="680" style="font-style:italic" class="notThisAn" dy="1.2em">IW, k = 4.5</tspan><tspan x="680" style="font-style:italic" class="notThisAn" dy="1.2em">IW, k = 7</tspan><tspan x="680" style="font-style:italic" class="notThisAn" dy="1.2em">IW, k = 10.5</tspan><tspan x="680" style="font-style:italic" class="notThisAn" dy="1.2em">IW, k = 16</tspan><tspan x="680" style="font-style:italic" class="notThisAn" dy="1.2em">IW, k = 24</tspan></text><text x="100.4" y="593.7" fill="#fc8d59" class="flag">[0]</text><text x="122.4" y="593.7" fill="#000" class="taxonLabel">Tonicella</text><text x="100.4" y="607" fill="#91bfdb" class="flag">[1]</text><text x="122.4" y="607" fill="#000" class="taxonLabel">Dentalium</text><text x="76.6" y="580.5" fill="grey" class="flag">[?]</text><text x="98.6" y="580.5" fill="grey" class="taxonLabel">Wiwaxia corrugata</text><text x="76.6" y="553.9" fill="#91bfdb" class="flag">[1]</text><text x="98.6" y="553.9" fill="#000" class="taxonLabel">Serpula</text><text x="76.6" y="567.2" fill="#91bfdb" class="flag">[1]</text><text x="98.6" y="567.2" fill="#000" class="taxonLabel">Sipunculus</text><text x="410.5" y="514.1" fill="grey" class="flag">[?]</text><text x="432.5" y="514.1" fill="grey" class="taxonLabel">Siphonobolus priscus</text><text x="410.5" y="527.4" fill="grey" class="flag">[?]</text><text x="432.5" y="527.4" fill="grey" class="taxonLabel">Acanthotretella spinosa</text><text x="386.6" y="500.9" fill="grey" class="flag">[?]</text><text x="408.6" y="500.9" fill="grey" class="taxonLabel">Clupeafumosus socialis</text><text x="386.6" y="474.3" fill="grey" class="flag">[?]</text><text x="408.6" y="474.3" fill="grey" class="taxonLabel">Lingulellotreta malongensis</text><text x="386.6" y="487.6" fill="grey" class="flag">[?]</text><text x="408.6" y="487.6" fill="grey" class="taxonLabel">Lingulosacculus</text><text x="338.9" y="461.1" fill="grey" class="flag">[?]</text><text x="360.9" y="461.1" fill="grey" class="taxonLabel">Botsfordia</text><text x="315.1" y="447.8" fill="grey" class="flag">[?]</text><text x="337.1" y="447.8" fill="grey" class="taxonLabel">Mummpikia nuda</text><text x="291.2" y="434.5" fill="grey" class="flag">[?]</text><text x="313.2" y="434.5" fill="grey" class="taxonLabel">Eoobolus</text><text x="267.4" y="421.3" fill="#91bfdb" class="flag">[1]</text><text x="289.4" y="421.3" fill="#000" class="taxonLabel">Lingula</text><text x="291.2" y="394.7" fill="#91bfdb" class="flag">[1]</text><text x="313.2" y="394.7" fill="#000" class="taxonLabel">Pelagodiscus atlanticus</text><text x="291.2" y="408" fill="grey" class="flag">[?]</text><text x="313.2" y="408" fill="grey" class="taxonLabel">Mickwitzia muralensis</text><text x="267.4" y="381.5" fill="grey" class="flag">[?]</text><text x="289.4" y="381.5" fill="grey" class="taxonLabel">Micrina</text><text x="315.1" y="354.9" fill="#91bfdb" class="flag">[1]</text><text x="337.1" y="354.9" fill="#000" class="taxonLabel">Novocrania</text><text x="315.1" y="368.2" fill="grey" class="flag">[?]</text><text x="337.1" y="368.2" fill="grey" class="taxonLabel">Craniops</text><text x="291.2" y="341.7" fill="grey" class="flag">[?]</text><text x="313.2" y="341.7" fill="grey" class="taxonLabel">Ussunia</text><text x="267.4" y="328.4" fill="grey" class="flag">[?]</text><text x="289.4" y="328.4" fill="grey" class="taxonLabel">Gasconsia</text><text x="386.6" y="301.9" fill="grey" class="flag">[?]</text><text x="408.6" y="301.9" fill="grey" class="taxonLabel">Antigonambonites planus</text><text x="386.6" y="315.1" fill="grey" class="flag">[?]</text><text x="408.6" y="315.1" fill="grey" class="taxonLabel">Coolinia pecten</text><text x="482" y="275.3" fill="#91bfdb" class="flag">[1]</text><text x="504" y="275.3" fill="#000" class="taxonLabel">Terebratulina</text><text x="482" y="288.6" fill="grey" class="flag">[?]</text><text x="504" y="288.6" fill="grey" class="taxonLabel">Orthis</text><text x="458.2" y="262.1" fill="grey" class="flag">[?]</text><text x="480.2" y="262.1" fill="grey" class="taxonLabel">Alisina</text><text x="434.3" y="248.8" fill="grey" class="flag">[?]</text><text x="456.3" y="248.8" fill="grey" class="taxonLabel">Glyptoria</text><text x="410.5" y="235.5" fill="grey" class="flag">[?]</text><text x="432.5" y="235.5" fill="grey" class="taxonLabel">Nisusia sulcata</text><text x="386.6" y="222.3" fill="grey" class="flag">[?]</text><text x="408.6" y="222.3" fill="grey" class="taxonLabel">Kutorgina chengjiangensis</text><text x="338.9" y="209" fill="grey" class="flag">[?]</text><text x="360.9" y="209" fill="grey" class="taxonLabel">Longtancunella chengjiangensis</text><text x="338.9" y="182.5" fill="grey" class="flag">[?]</text><text x="360.9" y="182.5" fill="grey" class="taxonLabel">Tomteluva perturbata</text><text x="338.9" y="195.7" fill="grey" class="flag">[?]</text><text x="360.9" y="195.7" fill="grey" class="taxonLabel">Yuganotheca elegans</text><text x="291.2" y="169.2" fill="grey" class="flag">[?]</text><text x="313.2" y="169.2" fill="grey" class="taxonLabel">Salanygolina</text><text x="291.2" y="142.7" fill="grey" class="flag">[?]</text><text x="313.2" y="142.7" fill="grey" class="taxonLabel">Micromitra</text><text x="291.2" y="155.9" fill="grey" class="flag">[?]</text><text x="313.2" y="155.9" fill="grey" class="taxonLabel">Askepasma toddense</text><text x="243.5" y="116.1" fill="grey" class="flag">[?]</text><text x="265.5" y="116.1" fill="grey" class="taxonLabel">Haplophrentis carinatus</text><text x="243.5" y="129.4" fill="grey" class="flag">[?]</text><text x="265.5" y="129.4" fill="grey" class="taxonLabel">Pedunculotheca diania</text><text x="219.7" y="102.9" fill="grey" class="flag">[?]</text><text x="241.7" y="102.9" fill="grey" class="taxonLabel">Paterimitra</text><text x="172" y="89.6" fill="grey" class="flag">[?]</text><text x="194" y="89.6" fill="grey" class="taxonLabel">Heliomedusa orienta</text><text x="172" y="63.1" fill="grey" class="flag">[?]</text><text x="194" y="63.1" fill="grey" class="taxonLabel">Dailyatia</text><text x="172" y="76.3" fill="grey" class="flag">[?]</text><text x="194" y="76.3" fill="grey" class="taxonLabel">Halkieria evangelista</text><text x="148.1" y="36.5" fill="grey" class="flag">[?]</text><text x="170.1" y="36.5" fill="grey" class="taxonLabel">Cotyledion tylodes</text><text x="148.1" y="49.8" fill="grey" class="flag">[?]</text><text x="170.1" y="49.8" fill="grey" class="taxonLabel">Eccentrotheca</text><text x="100.4" y="23.3" fill="grey" class="flag">[?]</text><text x="122.4" y="23.3" fill="grey" class="taxonLabel">Phoronis</text><text x="76.6" y="10" fill="grey" class="flag">[?]</text><text x="98.6" y="10" fill="grey" class="taxonLabel">Flustra</text><text x="52.7" y="540.7" fill="#fc8d59" class="flag">[0]</text><text x="74.7" y="540.7" fill="#000" class="taxonLabel">Loxosomella</text><path d="M5,427.5V282.5H28.9M28.9,282.5V27.4H52.7M52.7,27.4V7H76.6M52.7,27.4V47.7H76.6M76.6,47.7V20.3H100.4M76.6,47.7V75.2H100.4M100.4,75.2V40.2H124.2M124.2,40.2V33.5H148.1M124.2,40.2V46.8H148.1M100.4,75.2V110.1H124.2M124.2,110.1V66.7H148.1M148.1,66.7V60.1H172M148.1,66.7V73.3H172M124.2,110.1V153.6H148.1M148.1,153.6V86.6H172M148.1,153.6V220.5H172M172,220.5V109.8H195.8M195.8,109.8V99.9H219.7M195.8,109.8V119.8H219.7M219.7,119.8V113.1H243.5M219.7,119.8V126.4H243.5M172,220.5V331.3H195.8M195.8,331.3V252.3H219.7M219.7,252.3V167.6H243.5M243.5,167.6V146.3H267.4M267.4,146.3V139.7H291.2M267.4,146.3V152.9H291.2M243.5,167.6V189H267.4M267.4,189V166.2H291.2M267.4,189V211.8H291.2M291.2,211.8V186.1H315.1M315.1,186.1V179.5H338.9M315.1,186.1V192.7H338.9M291.2,211.8V237.4H315.1M315.1,237.4V206H338.9M315.1,237.4V268.8H338.9M338.9,268.8V232.1H362.8M362.8,232.1V219.3H386.6M362.8,232.1V245H386.6M386.6,245V232.5H410.5M386.6,245V257.4H410.5M410.5,257.4V245.8H434.3M410.5,257.4V269H434.3M434.3,269V259.1H458.2M434.3,269V279H458.2M458.2,279V272.3H482M458.2,279V285.6H482M338.9,268.8V305.5H362.8M362.8,305.5V298.9H386.6M362.8,305.5V312.1H386.6M219.7,252.3V337H243.5M243.5,337V325.4H267.4M243.5,337V348.6H267.4M267.4,348.6V338.7H291.2M267.4,348.6V358.6H291.2M291.2,358.6V351.9H315.1M291.2,358.6V365.2H315.1M195.8,331.3V410.2H219.7M219.7,410.2V388.4H243.5M243.5,388.4V378.5H267.4M243.5,388.4V398.4H267.4M267.4,398.4V391.7H291.2M267.4,398.4V405H291.2M219.7,410.2V432.1H243.5M243.5,432.1V418.3H267.4M243.5,432.1V445.8H267.4M267.4,445.8V431.5H291.2M267.4,445.8V460.1H291.2M291.2,460.1V444.8H315.1M291.2,460.1V475.5H315.1M315.1,475.5V458.1H338.9M315.1,475.5V492.9H338.9M338.9,492.9V478H362.8M362.8,478V471.3H386.6M362.8,478V484.6H386.6M338.9,492.9V507.8H362.8M362.8,507.8V497.9H386.6M362.8,507.8V517.8H386.6M386.6,517.8V511.1H410.5M386.6,517.8V524.4H410.5M5,427.5V572.5H28.9M28.9,572.5V557.6H52.7M52.7,557.6V550.9H76.6M52.7,557.6V564.2H76.6M28.9,572.5V587.4H52.7M52.7,587.4V577.5H76.6M52.7,587.4V597.4H76.6M76.6,597.4V604H100.4" stroke="#91bfdb"></path><path d="M28.9,282.5V537.7H52.7M76.6,597.4V590.7H100.4" stroke="#fc8d59"></path><text x="7" y="430.5" class="node" fill="#4A6FE3">1</text><text x="30.9" y="285.5" class="node" fill="#4A6FE3">1</text><text x="54.7" y="30.4" class="node" fill="#4A6FE3">1</text><text x="78.6" y="50.7" class="node" fill="#4A6FE3">1</text><text x="102.4" y="78.2" class="node" fill="#4A6FE3">1</text><text x="126.2" y="43.2" class="node" fill="#E6BDC5">0.38</text><text x="126.2" y="113.1" class="node" fill="#4A6FE3">1</text><text x="150.1" y="69.7" class="node" fill="#4A6FE3">1</text><text x="150.1" y="156.6" class="node" fill="#4A6FE3">1</text><text x="174" y="223.5" class="node" fill="#9DA8E2">0.75</text><text x="197.8" y="112.8" class="node" fill="#B4BBE3">0.67</text><text x="221.7" y="122.8" class="node" fill="#4A6FE3">1</text><text x="197.8" y="334.3" class="node" fill="#9DA8E2">0.75</text><text x="221.7" y="255.3" class="node" fill="#4A6FE3">1</text><text x="245.5" y="170.6" class="node" fill="#8C9BE1">0.81</text><text x="269.4" y="149.3" class="node" fill="#4A6FE3">1</text><text x="269.4" y="192" class="node" fill="#667FE1">0.93</text><text x="293.2" y="214.8" class="node" fill="#E498A7">0.26</text><text x="317.1" y="189.1" class="node" fill="#7388E1">0.89</text><text x="317.1" y="240.4" class="node" fill="#4A6FE3">1</text><text x="340.9" y="271.8" class="node" fill="#DD6F88">0.13</text><text x="364.8" y="235.1" class="node" fill="#DD6F88">0.13</text><text x="388.6" y="248" class="node" fill="#DD6F88">0.13</text><text x="412.5" y="260.4" class="node" fill="#DD6F88">0.13</text><text x="436.3" y="272" class="node" fill="#4A6FE3">1</text><text x="460.2" y="282" class="node" fill="#5B78E2">0.96</text><text x="364.8" y="308.5" class="node" fill="#4A6FE3">1</text><text x="245.5" y="340" class="node" fill="#4A6FE3">1</text><text x="269.4" y="351.6" class="node" fill="#4A6FE3">1</text><text x="293.2" y="361.6" class="node" fill="#4A6FE3">1</text><text x="221.7" y="413.2" class="node" fill="#B4BBE3">0.67</text><text x="245.5" y="391.4" class="node" fill="#B4BBE3">0.67</text><text x="269.4" y="401.4" class="node" fill="#9DA8E2">0.75</text><text x="245.5" y="435.1" class="node" fill="#9DA8E2">0.75</text><text x="269.4" y="448.8" class="node" fill="#B4BBE3">0.67</text><text x="293.2" y="463.1" class="node" fill="#B4BBE3">0.67</text><text x="317.1" y="478.5" class="node" fill="#B4BBE3">0.67</text><text x="340.9" y="495.9" class="node" fill="#B4BBE3">0.67</text><text x="364.8" y="481" class="node" fill="#DF798F">0.16</text><text x="364.8" y="510.8" class="node" fill="#E6BAC2">0.37</text><text x="388.6" y="520.8" class="node" fill="#4A6FE3">1</text><text x="30.9" y="575.5" class="node" fill="#4A6FE3">1</text><text x="54.7" y="560.6" class="node" fill="#4A6FE3">1</text><text x="54.7" y="590.4" class="node" fill="#4A6FE3">1</text><text x="78.6" y="600.4" class="node" fill="#E38FA0">0.23</text></svg>
