<svg xmlns="http://www.w3.org/2000/svg" version="1.1" width="682" height="612" class="tree" data-char="146"><text x="678" y="16" text-anchor="end" class="stepsLabel">Character adds <tspan class="score">2</tspan> to tree score</text><text x="678" y="29" text-anchor="end" class="stepsLabel"><tspan class="score">0</tspan> additional regions</text><text x="678" y="42" text-anchor="end" class="stepsLabel">CI = 0.5; Fitch CI = 0.5; Fitch RI = 0.5</text><text x="678" y="68" text-anchor="end" class="stepsLabel"><tspan dy="16">An optimal tree under:</tspan><tspan x="680" style="font-style:italic" class="notThisAn" dy="1.2em">Equal weights</tspan><tspan x="680" style="font-style:italic" class="notThisAn" dy="1.2em">Implied weights, k = 2</tspan><tspan x="680" style="font-style:italic" class="notThisAn" dy="1.2em">IW, k = 3</tspan><tspan x="680" style="font-style:italic" class="thisAn" dy="1.2em">IW, k = 4.5</tspan><tspan x="680" style="font-style:italic" class="notThisAn" dy="1.2em">IW, k = 7</tspan><tspan x="680" style="font-style:italic" class="notThisAn" dy="1.2em">IW, k = 10.5</tspan></text><text x="84.5" y="593.7" fill="#e2e2a2" class="flag">[1]</text><text x="106.5" y="593.7" fill="#111" class="taxonLabel">Serpula</text><text x="84.5" y="607" fill="#e2e2a2" class="flag">[1]</text><text x="106.5" y="607" fill="#111" class="taxonLabel">Sipunculus</text><text x="111" y="567.2" fill="grey" class="flag">[?]</text><text x="133" y="567.2" fill="grey" class="taxonLabel">Wiwaxia corrugata</text><text x="111" y="580.5" fill="#e2e2a2" class="flag">[1]</text><text x="133" y="580.5" fill="#111" class="taxonLabel">Dentalium</text><text x="84.5" y="553.9" fill="#e2e2a2" class="flag">[1]</text><text x="106.5" y="553.9" fill="#111" class="taxonLabel">Tonicella</text><text x="164" y="514.1" fill="grey" class="flag">[?]</text><text x="186" y="514.1" fill="grey" class="taxonLabel">Pedunculotheca diania</text><text x="164" y="527.4" fill="grey" class="flag">[?]</text><text x="186" y="527.4" fill="grey" class="taxonLabel">Haplophrentis carinatus</text><text x="296.5" y="487.6" fill="grey" class="flag">[?]</text><text x="318.5" y="487.6" fill="grey" class="taxonLabel">Acanthotretella spinosa</text><text x="296.5" y="500.9" fill="grey" class="flag">[?]</text><text x="318.5" y="500.9" fill="grey" class="taxonLabel">Siphonobolus priscus</text><text x="349.5" y="461.1" fill="grey" class="flag">[?]</text><text x="371.5" y="461.1" fill="grey" class="taxonLabel">Pelagodiscus atlanticus</text><text x="349.5" y="474.3" fill="#91bfdb" class="flag">[2]</text><text x="371.5" y="474.3" fill="#111" class="taxonLabel">Lingula</text><text x="402.5" y="434.5" fill="grey" class="flag">[?]</text><text x="424.5" y="434.5" fill="grey" class="taxonLabel">Eoobolus</text><text x="402.5" y="447.8" fill="grey" class="flag">[?]</text><text x="424.5" y="447.8" fill="grey" class="taxonLabel">Mummpikia nuda</text><text x="376" y="421.3" fill="grey" class="flag">[?]</text><text x="398" y="421.3" fill="grey" class="taxonLabel">Botsfordia</text><text x="349.5" y="408" fill="grey" class="flag">[?]</text><text x="371.5" y="408" fill="grey" class="taxonLabel">Lingulellotreta malongensis</text><text x="296.5" y="394.7" fill="grey" class="flag">[?]</text><text x="318.5" y="394.7" fill="grey" class="taxonLabel">Lingulosacculus</text><text x="243.5" y="381.5" fill="grey" class="flag">[?]</text><text x="265.5" y="381.5" fill="grey" class="taxonLabel">Clupeafumosus socialis</text><text x="323" y="354.9" fill="grey" class="flag">[?]</text><text x="345" y="354.9" fill="grey" class="taxonLabel">Craniops</text><text x="323" y="368.2" fill="#91bfdb" class="flag">[2]</text><text x="345" y="368.2" fill="#111" class="taxonLabel">Novocrania</text><text x="296.5" y="341.7" fill="grey" class="flag">[?]</text><text x="318.5" y="341.7" fill="grey" class="taxonLabel">Ussunia</text><text x="270" y="328.4" fill="grey" class="flag">[?]</text><text x="292" y="328.4" fill="grey" class="taxonLabel">Gasconsia</text><text x="296.5" y="301.9" fill="grey" class="flag">[?]</text><text x="318.5" y="301.9" fill="grey" class="taxonLabel">Askepasma toddense</text><text x="296.5" y="315.1" fill="grey" class="flag">[?]</text><text x="318.5" y="315.1" fill="grey" class="taxonLabel">Micromitra</text><text x="482" y="275.3" fill="grey" class="flag">[?]</text><text x="504" y="275.3" fill="grey" class="taxonLabel">Orthis</text><text x="482" y="288.6" fill="grey" class="flag">[?]</text><text x="504" y="288.6" fill="grey" class="taxonLabel">Terebratulina</text><text x="455.5" y="262.1" fill="grey" class="flag">[?]</text><text x="477.5" y="262.1" fill="grey" class="taxonLabel">Alisina</text><text x="429" y="248.8" fill="grey" class="flag">[?]</text><text x="451" y="248.8" fill="grey" class="taxonLabel">Longtancunella chengjiangensis</text><text x="402.5" y="235.5" fill="grey" class="flag">[?]</text><text x="424.5" y="235.5" fill="grey" class="taxonLabel">Glyptoria</text><text x="376" y="222.3" fill="grey" class="flag">[?]</text><text x="398" y="222.3" fill="grey" class="taxonLabel">Nisusia sulcata</text><text x="349.5" y="209" fill="grey" class="flag">[?]</text><text x="371.5" y="209" fill="grey" class="taxonLabel">Kutorgina chengjiangensis</text><text x="349.5" y="182.5" fill="grey" class="flag">[?]</text><text x="371.5" y="182.5" fill="grey" class="taxonLabel">Coolinia pecten</text><text x="349.5" y="195.7" fill="grey" class="flag">[?]</text><text x="371.5" y="195.7" fill="grey" class="taxonLabel">Antigonambonites planus</text><text x="349.5" y="155.9" fill="grey" class="flag">[?]</text><text x="371.5" y="155.9" fill="grey" class="taxonLabel">Tomteluva perturbata</text><text x="349.5" y="169.2" fill="grey" class="flag">[?]</text><text x="371.5" y="169.2" fill="grey" class="taxonLabel">Yuganotheca elegans</text><text x="323" y="142.7" fill="grey" class="flag">[?]</text><text x="345" y="142.7" fill="grey" class="taxonLabel">Salanygolina</text><text x="217" y="116.1" fill="grey" class="flag">[?]</text><text x="239" y="116.1" fill="grey" class="taxonLabel">Mickwitzia muralensis</text><text x="217" y="129.4" fill="grey" class="flag">[?]</text><text x="239" y="129.4" fill="grey" class="taxonLabel">Micrina</text><text x="164" y="102.9" fill="grey" class="flag">[?]</text><text x="186" y="102.9" fill="grey" class="taxonLabel">Paterimitra</text><text x="111" y="89.6" fill="grey" class="flag">[?]</text><text x="133" y="89.6" fill="grey" class="taxonLabel">Heliomedusa orienta</text><text x="164" y="63.1" fill="grey" class="flag">[?]</text><text x="186" y="63.1" fill="grey" class="taxonLabel">Dailyatia</text><text x="164" y="76.3" fill="grey" class="flag">[?]</text><text x="186" y="76.3" fill="grey" class="taxonLabel">Eccentrotheca</text><text x="137.5" y="49.8" fill="grey" class="flag">[?]</text><text x="159.5" y="49.8" fill="grey" class="taxonLabel">Cotyledion tylodes</text><text x="164" y="10" fill="#e2e2a2" class="flag">[1]</text><text x="186" y="10" fill="#111" class="taxonLabel">Flustra</text><text x="164" y="23.3" fill="#e2e2a2" class="flag">[1]</text><text x="186" y="23.3" fill="#111" class="taxonLabel">Loxosomella</text><text x="137.5" y="36.5" fill="#91bfdb" class="flag">[2]</text><text x="159.5" y="36.5" fill="#111" class="taxonLabel">Phoronis</text><text x="58" y="540.7" fill="grey" class="flag">[?]</text><text x="80" y="540.7" fill="grey" class="taxonLabel">Halkieria evangelista</text><path d="M5,455.8V332.6H31.5M31.5,332.6V127.5H58M58,127.5V40.2H84.5M84.5,40.2V23.6H111M84.5,40.2V56.8H111M111,56.8V46.8H137.5M111,56.8V66.7H137.5M137.5,66.7V60.1H164M137.5,66.7V73.3H164M58,127.5V214.7H84.5M84.5,214.7V86.6H111M84.5,214.7V342.9H111M111,342.9V168H137.5M137.5,168V99.9H164M137.5,168V236.1H164M164,236.1V119.8H190.5M190.5,119.8V113.1H217M190.5,119.8V126.4H217M111,342.9V517.8H137.5M137.5,517.8V511.1H164M137.5,517.8V524.4H164M31.5,332.6V537.7H58" stroke="darkgrey"></path><path d="M111,23.6V13.6H137.5M137.5,13.6V7H164M137.5,13.6V20.3H164M5,455.8V579.1H31.5M31.5,579.1V560.9H58M58,560.9V550.9H84.5M58,560.9V570.8H84.5M84.5,570.8V564.2H111M84.5,570.8V577.5H111M31.5,579.1V597.4H58M58,597.4V590.7H84.5M58,597.4V604H84.5" stroke="#e2e2a2"></path><path d="M111,23.6V33.5H137.5M164,236.1V352.5H190.5M190.5,352.5V288.9H217M217,288.9V240.8H243.5M243.5,240.8V176.1H270M270,176.1V149.6H296.5M296.5,149.6V139.7H323M296.5,149.6V159.6H323M323,159.6V152.9H349.5M323,159.6V166.2H349.5M270,176.1V202.6H296.5M296.5,202.6V186.1H323M323,186.1V179.5H349.5M323,186.1V192.7H349.5M296.5,202.6V219.1H323M323,219.1V206H349.5M323,219.1V232.1H349.5M349.5,232.1V219.3H376M349.5,232.1V245H376M376,245V232.5H402.5M376,245V257.4H402.5M402.5,257.4V245.8H429M402.5,257.4V269H429M429,269V259.1H455.5M429,269V279H455.5M455.5,279V272.3H482M455.5,279V285.6H482M243.5,240.8V305.5H270M270,305.5V298.9H296.5M270,305.5V312.1H296.5M217,288.9V337H243.5M243.5,337V325.4H270M243.5,337V348.6H270M270,348.6V338.7H296.5M270,348.6V358.6H296.5M296.5,358.6V351.9H323M296.5,358.6V365.2H323M190.5,352.5V416.1H217M217,416.1V378.5H243.5M217,416.1V453.7H243.5M243.5,453.7V416.2H270M270,416.2V391.7H296.5M270,416.2V440.7H296.5M296.5,440.7V416.6H323M323,416.6V405H349.5M323,416.6V428.2H349.5M349.5,428.2V418.3H376M349.5,428.2V438.2H376M376,438.2V431.5H402.5M376,438.2V444.8H402.5M296.5,440.7V464.7H323M323,464.7V458.1H349.5M323,464.7V471.3H349.5M243.5,453.7V491.2H270M270,491.2V484.6H296.5M270,491.2V497.9H296.5" stroke="#91bfdb"></path><text x="7" y="458.8" class="node" fill="#4A6FE3">1</text><text x="33.5" y="335.6" class="node" fill="#4A6FE3">1</text><text x="60" y="130.5" class="node" fill="#8091E1">0.85</text><text x="86.5" y="43.2" class="node" fill="#8091E1">0.85</text><text x="113" y="26.6" class="node" fill="#4A6FE3">1</text><text x="139.5" y="16.6" class="node" fill="#4A6FE3">1</text><text x="113" y="59.8" class="node" fill="#8091E1">0.85</text><text x="139.5" y="69.7" class="node" fill="#8091E1">0.85</text><text x="86.5" y="217.7" class="node" fill="#8091E1">0.85</text><text x="113" y="345.9" class="node" fill="#8091E1">0.85</text><text x="139.5" y="171" class="node" fill="#E18297">0.19</text><text x="166" y="239.1" class="node" fill="#4A6FE3">1</text><text x="192.5" y="122.8" class="node" fill="#E5A5B1">0.3</text><text x="192.5" y="355.5" class="node" fill="#E5A5B1">0.3</text><text x="219" y="291.9" class="node" fill="#4A6FE3">1</text><text x="245.5" y="243.8" class="node" fill="#A0ABE2">0.74</text><text x="272" y="179.1" class="node" fill="#8C9BE1">0.81</text><text x="298.5" y="152.6" class="node" fill="#BFC4E3">0.63</text><text x="325" y="162.6" class="node" fill="#627DE1">0.94</text><text x="298.5" y="205.6" class="node" fill="#4A6FE3">1</text><text x="325" y="189.1" class="node" fill="#4A6FE3">1</text><text x="325" y="222.1" class="node" fill="#DADBE3">0.53</text><text x="351.5" y="235.1" class="node" fill="#DADBE3">0.53</text><text x="378" y="248" class="node" fill="#DADBE3">0.53</text><text x="404.5" y="260.4" class="node" fill="#DADBE3">0.53</text><text x="431" y="272" class="node" fill="#4A6FE3">1</text><text x="457.5" y="282" class="node" fill="#97A4E2">0.77</text><text x="272" y="308.5" class="node" fill="#4A6FE3">1</text><text x="245.5" y="340" class="node" fill="#4A6FE3">1</text><text x="272" y="351.6" class="node" fill="#4A6FE3">1</text><text x="298.5" y="361.6" class="node" fill="#4A6FE3">1</text><text x="219" y="419.1" class="node" fill="#E5A5B1">0.3</text><text x="245.5" y="456.7" class="node" fill="#E5A5B1">0.3</text><text x="272" y="419.2" class="node" fill="#DB6581">0.1</text><text x="298.5" y="443.7" class="node" fill="#E5A5B1">0.3</text><text x="325" y="419.6" class="node" fill="#E6AEB8">0.33</text><text x="351.5" y="431.2" class="node" fill="#E6AEB8">0.33</text><text x="378" y="441.2" class="node" fill="#E6AEB8">0.33</text><text x="325" y="467.7" class="node" fill="#E5A5B1">0.3</text><text x="272" y="494.2" class="node" fill="#4A6FE3">1</text><text x="139.5" y="520.8" class="node" fill="#4A6FE3">1</text><text x="33.5" y="582.1" class="node" fill="#4A6FE3">1</text><text x="60" y="563.9" class="node" fill="#E4D9DB">0.47</text><text x="86.5" y="573.8" class="node" fill="#E4D9DB">0.47</text><text x="60" y="600.4" class="node" fill="#A6AFE2">0.72</text></svg>
