<svg xmlns="http://www.w3.org/2000/svg" version="1.1" width="682" height="555" class="tree" data-char="139">
 <text x="678" y="14.7" text-anchor="end" class="stepsLabel">Character adds <tspan class="score">2</tspan> to tree score</text>
 <text x="678" y="26.4" text-anchor="end" class="stepsLabel"><tspan class="score">0</tspan> additional regions</text>
 <text x="678" y="38.1" text-anchor="end" class="stepsLabel">CI = 0.5; Fitch CI = 0.5; Fitch RI = 0.5</text>
 <text x="678" y="61.5" text-anchor="end" class="stepsLabel"><tspan dy="16">An optimal tree under:</tspan><tspan x="680" style="font-style:italic" class="notThisAn" dy="1.2em">Equal weights</tspan><tspan x="680" style="font-style:italic" class="notThisAn" dy="1.2em">Implied weights, k = 2</tspan><tspan x="680" style="font-style:italic" class="notThisAn" dy="1.2em">IW, k = 3</tspan><tspan x="680" style="font-style:italic" class="notThisAn" dy="1.2em">IW, k = 4.5</tspan><tspan x="680" style="font-style:italic" class="notThisAn" dy="1.2em">IW, k = 7</tspan><tspan x="680" style="font-style:italic" class="thisAn" dy="1.2em">IW, k = 10.5</tspan><tspan x="680" style="font-style:italic" class="thisAn" dy="1.2em">IW, k = 16</tspan><tspan x="680" style="font-style:italic" class="thisAn" dy="1.2em">IW, k = 24</tspan></text>
 <text x="105.4" y="538" fill="#e2e2a2" class="flag">[1]</text>
 <text x="127.4" y="538" fill="#111" class="taxonLabel">Tonicella</text>
 <text x="105.4" y="550" fill="grey" class="flag">[?]</text>
 <text x="127.4" y="550" fill="#111" class="taxonLabel">Wiwaxia corrugata</text>
 <text x="80.3" y="526" fill="#91bfdb" class="flag">[2]</text>
 <text x="102.3" y="526" fill="#111" class="taxonLabel">Dentalium</text>
 <text x="80.3" y="502" fill="#91bfdb" class="flag">[2]</text>
 <text x="102.3" y="502" fill="#111" class="taxonLabel">Sipunculus</text>
 <text x="80.3" y="514" fill="#91bfdb" class="flag">[2]</text>
 <text x="102.3" y="514" fill="#111" class="taxonLabel">Serpula</text>
 <text x="431.8" y="466" fill="grey" class="flag">[?]</text>
 <text x="453.8" y="466" fill="#111" class="taxonLabel">Acanthotretella spinosa</text>
 <text x="431.8" y="478" fill="grey" class="flag">[?]</text>
 <text x="453.8" y="478" fill="#111" class="taxonLabel">Siphonobolus priscus</text>
 <text x="406.7" y="454" fill="grey" class="flag">[?]</text>
 <text x="428.7" y="454" fill="#111" class="taxonLabel">Clupeafumosus socialis</text>
 <text x="406.7" y="430" fill="grey" class="flag">[?]</text>
 <text x="428.7" y="430" fill="#111" class="taxonLabel">Lingulellotreta malongensis</text>
 <text x="406.7" y="442" fill="grey" class="flag">[?]</text>
 <text x="428.7" y="442" fill="#111" class="taxonLabel">Lingulosacculus</text>
 <text x="356.5" y="418" fill="grey" class="flag">[?]</text>
 <text x="378.5" y="418" fill="#111" class="taxonLabel">Botsfordia</text>
 <text x="331.4" y="406" fill="grey" class="flag">[?]</text>
 <text x="353.4" y="406" fill="#111" class="taxonLabel">Mummpikia nuda</text>
 <text x="306.3" y="394" fill="grey" class="flag">[?]</text>
 <text x="328.3" y="394" fill="#111" class="taxonLabel">Eoobolus</text>
 <text x="281.2" y="382" fill="#e2e2a2" class="flag">[1]</text>
 <text x="303.2" y="382" fill="#111" class="taxonLabel">Lingula</text>
 <text x="306.3" y="358" fill="grey" class="flag">[?]</text>
 <text x="328.3" y="358" fill="#111" class="taxonLabel">Mickwitzia muralensis</text>
 <text x="306.3" y="370" fill="grey" class="flag">[?]</text>
 <text x="328.3" y="370" fill="#111" class="taxonLabel">Pelagodiscus atlanticus</text>
 <text x="281.2" y="346" fill="grey" class="flag">[?]</text>
 <text x="303.2" y="346" fill="#111" class="taxonLabel">Micrina</text>
 <text x="331.4" y="322" fill="#e2e2a2" class="flag">[1]</text>
 <text x="353.4" y="322" fill="#111" class="taxonLabel">Novocrania</text>
 <text x="331.4" y="334" fill="grey" class="flag">[?]</text>
 <text x="353.4" y="334" fill="#111" class="taxonLabel">Craniops</text>
 <text x="306.3" y="310" fill="grey" class="flag">[?]</text>
 <text x="328.3" y="310" fill="#111" class="taxonLabel">Ussunia</text>
 <text x="281.2" y="298" fill="grey" class="flag">[?]</text>
 <text x="303.2" y="298" fill="#111" class="taxonLabel">Gasconsia</text>
 <text x="356.5" y="274" fill="grey" class="flag">[?]</text>
 <text x="378.5" y="274" fill="#111" class="taxonLabel">Antigonambonites planus</text>
 <text x="356.5" y="286" fill="grey" class="flag">[?]</text>
 <text x="378.5" y="286" fill="#111" class="taxonLabel">Coolinia pecten</text>
 <text x="482" y="250" fill="grey" class="flag">[?]</text>
 <text x="504" y="250" fill="#111" class="taxonLabel">Orthis</text>
 <text x="482" y="262" fill="grey" class="flag">[?]</text>
 <text x="504" y="262" fill="#111" class="taxonLabel">Terebratulina</text>
 <text x="456.9" y="238" fill="grey" class="flag">[?]</text>
 <text x="478.9" y="238" fill="#111" class="taxonLabel">Alisina</text>
 <text x="431.8" y="226" fill="grey" class="flag">[?]</text>
 <text x="453.8" y="226" fill="#111" class="taxonLabel">Longtancunella chengjiangensis</text>
 <text x="406.7" y="214" fill="grey" class="flag">[?]</text>
 <text x="428.7" y="214" fill="#111" class="taxonLabel">Glyptoria</text>
 <text x="381.6" y="202" fill="grey" class="flag">[?]</text>
 <text x="403.6" y="202" fill="#111" class="taxonLabel">Nisusia sulcata</text>
 <text x="356.5" y="190" fill="grey" class="flag">[?]</text>
 <text x="378.5" y="190" fill="#111" class="taxonLabel">Kutorgina chengjiangensis</text>
 <text x="356.5" y="166" fill="grey" class="flag">[?]</text>
 <text x="378.5" y="166" fill="#111" class="taxonLabel">Yuganotheca elegans</text>
 <text x="356.5" y="178" fill="grey" class="flag">[?]</text>
 <text x="378.5" y="178" fill="#111" class="taxonLabel">Tomteluva perturbata</text>
 <text x="331.4" y="154" fill="grey" class="flag">[?]</text>
 <text x="353.4" y="154" fill="#111" class="taxonLabel">Salanygolina</text>
 <text x="306.3" y="130" fill="grey" class="flag">[?]</text>
 <text x="328.3" y="130" fill="#111" class="taxonLabel">Micromitra</text>
 <text x="306.3" y="142" fill="grey" class="flag">[?]</text>
 <text x="328.3" y="142" fill="#111" class="taxonLabel">Askepasma toddense</text>
 <text x="256.1" y="106" fill="grey" class="flag">[?]</text>
 <text x="278.1" y="106" fill="#111" class="taxonLabel">Haplophrentis carinatus</text>
 <text x="256.1" y="118" fill="grey" class="flag">[?]</text>
 <text x="278.1" y="118" fill="#111" class="taxonLabel">Pedunculotheca diania</text>
 <text x="230.9" y="94" fill="grey" class="flag">[?]</text>
 <text x="252.9" y="94" fill="#111" class="taxonLabel">Paterimitra</text>
 <text x="180.7" y="82" fill="grey" class="flag">[?]</text>
 <text x="202.7" y="82" fill="#111" class="taxonLabel">Heliomedusa orienta</text>
 <text x="180.7" y="58" fill="grey" class="flag">[?]</text>
 <text x="202.7" y="58" fill="#111" class="taxonLabel">Halkieria evangelista</text>
 <text x="180.7" y="70" fill="grey" class="flag">[?]</text>
 <text x="202.7" y="70" fill="#111" class="taxonLabel">Dailyatia</text>
 <text x="155.6" y="34" fill="grey" class="flag">[?]</text>
 <text x="177.6" y="34" fill="#111" class="taxonLabel">Eccentrotheca</text>
 <text x="155.6" y="46" fill="grey" class="flag">[?]</text>
 <text x="177.6" y="46" fill="#111" class="taxonLabel">Cotyledion tylodes</text>
 <text x="105.4" y="22" fill="#e2e2a2" class="flag">[1]</text>
 <text x="127.4" y="22" fill="#111" class="taxonLabel">Phoronis</text>
 <text x="80.3" y="10" fill="#e2e2a2" class="flag">[1]</text>
 <text x="102.3" y="10" fill="#111" class="taxonLabel">Flustra</text>
 <text x="55.2" y="490" fill="#e2e2a2" class="flag">[1]</text>
 <text x="77.2" y="490" fill="#111" class="taxonLabel">Loxosomella</text>
 <path d="M5,387.4V256.2H30.1M30.1,256.2V25.5H55.2M55.2,25.5V7H80.3M55.2,25.5V43.9H80.3M80.3,43.9V19H105.4M80.3,43.9V68.9H105.4M105.4,68.9V37H130.5M130.5,37V31H155.6M130.5,37V43H155.6M105.4,68.9V100.7H130.5M130.5,100.7V61H155.6M155.6,61V55H180.7M155.6,61V67H180.7M130.5,100.7V140.4H155.6M155.6,140.4V79H180.7M155.6,140.4V201.9H180.7M180.7,201.9V100H205.8M205.8,100V91H230.9M205.8,100V109H230.9M230.9,109V103H256.1M230.9,109V115H256.1M180.7,201.9V303.7H205.8M205.8,303.7V235.7H230.9M230.9,235.7V166H256.1M256.1,166V133H281.2M281.2,133V127H306.3M281.2,133V139H306.3M256.1,166V199H281.2M281.2,199V160H306.3M306.3,160V151H331.4M306.3,160V169H331.4M331.4,169V163H356.5M331.4,169V175H356.5M281.2,199V237.9H306.3M306.3,237.9V198.8H331.4M331.4,198.8V187H356.5M331.4,198.8V210.6H356.5M356.5,210.6V199H381.6M356.5,210.6V222.2H381.6M381.6,222.2V211H406.7M381.6,222.2V233.5H406.7M406.7,233.5V223H431.8M406.7,233.5V244H431.8M431.8,244V235H456.9M431.8,244V253H456.9M456.9,253V247H482M456.9,253V259H482M306.3,237.9V277H331.4M331.4,277V271H356.5M331.4,277V283H356.5M230.9,235.7V305.5H256.1M256.1,305.5V295H281.2M256.1,305.5V316H281.2M281.2,316V307H306.3M281.2,316V325H306.3M306.3,325V319H331.4M306.3,325V331H331.4M205.8,303.7V371.7H230.9M230.9,371.7V352H256.1M256.1,352V343H281.2M256.1,352V361H281.2M281.2,361V355H306.3M281.2,361V367H306.3M230.9,371.7V391.5H256.1M256.1,391.5V379H281.2M256.1,391.5V403.9H281.2M281.2,403.9V391H306.3M281.2,403.9V416.9H306.3M306.3,416.9V403H331.4M306.3,416.9V430.8H331.4M331.4,430.8V415H356.5M331.4,430.8V446.5H356.5M356.5,446.5V433H381.6M381.6,433V427H406.7M381.6,433V439H406.7M356.5,446.5V460H381.6M381.6,460V451H406.7M381.6,460V469H406.7M406.7,469V463H431.8M406.7,469V475H431.8M30.1,256.2V487H55.2M80.3,541V535H105.4" stroke="#e2e2a2"></path>
 <path d="M5,387.4V518.5H30.1M30.1,518.5V532H55.2M55.2,532V541H80.3M80.3,541V547H105.4" stroke="darkgrey"></path>
 <path d="M30.1,518.5V505H55.2M55.2,505V499H80.3M55.2,505V511H80.3M55.2,532V523H80.3" stroke="#91bfdb"></path>
 <text x="7" y="390.4" class="node" fill="#4A6FE3">1</text>
 <text x="32.1" y="259.2" class="node" fill="#8998E1">0.82</text>
 <text x="57.2" y="28.5" class="node" fill="#8998E1">0.82</text>
 <text x="82.3" y="46.9" class="node" fill="#8998E1">0.82</text>
 <text x="107.4" y="71.9" class="node" fill="#8998E1">0.82</text>
 <text x="132.5" y="40" class="node" fill="#E495A5">0.25</text>
 <text x="132.5" y="103.7" class="node" fill="#9DA8E2">0.75</text>
 <text x="157.6" y="64" class="node" fill="#667FE1">0.93</text>
 <text x="157.6" y="143.4" class="node" fill="#4A6FE3">1</text>
 <text x="182.7" y="204.9" class="node" fill="#5776E2">0.97</text>
 <text x="207.8" y="103" class="node" fill="#8C9BE1">0.81</text>
 <text x="232.9" y="112" class="node" fill="#4A6FE3">1</text>
 <text x="207.8" y="306.7" class="node" fill="#5776E2">0.97</text>
 <text x="232.9" y="238.7" class="node" fill="#4A6FE3">1</text>
 <text x="258.1" y="169" class="node" fill="#7A8DE1">0.87</text>
 <text x="283.2" y="136" class="node" fill="#4A6FE3">1</text>
 <text x="283.2" y="202" class="node" fill="#5776E2">0.97</text>
 <text x="308.3" y="163" class="node" fill="#9AA6E2">0.76</text>
 <text x="333.4" y="172" class="node" fill="#5B78E2">0.96</text>
 <text x="308.3" y="240.9" class="node" fill="#4A6FE3">1</text>
 <text x="333.4" y="201.8" class="node" fill="#ABB4E2">0.7</text>
 <text x="358.5" y="213.6" class="node" fill="#ABB4E2">0.7</text>
 <text x="383.6" y="225.2" class="node" fill="#ABB4E2">0.7</text>
 <text x="408.7" y="236.5" class="node" fill="#ABB4E2">0.7</text>
 <text x="433.8" y="247" class="node" fill="#4A6FE3">1</text>
 <text x="458.9" y="256" class="node" fill="#768BE1">0.88</text>
 <text x="333.4" y="280" class="node" fill="#4A6FE3">1</text>
 <text x="258.1" y="308.5" class="node" fill="#4A6FE3">1</text>
 <text x="283.2" y="319" class="node" fill="#4A6FE3">1</text>
 <text x="308.3" y="328" class="node" fill="#4A6FE3">1</text>
 <text x="232.9" y="374.7" class="node" fill="#8C9BE1">0.81</text>
 <text x="258.1" y="355" class="node" fill="#8C9BE1">0.81</text>
 <text x="283.2" y="364" class="node" fill="#8998E1">0.82</text>
 <text x="258.1" y="394.5" class="node" fill="#8998E1">0.82</text>
 <text x="283.2" y="406.9" class="node" fill="#8998E1">0.82</text>
 <text x="308.3" y="419.9" class="node" fill="#8C9BE1">0.81</text>
 <text x="333.4" y="433.8" class="node" fill="#8C9BE1">0.81</text>
 <text x="358.5" y="449.5" class="node" fill="#8C9BE1">0.81</text>
 <text x="383.6" y="436" class="node" fill="#E17F94">0.18</text>
 <text x="383.6" y="463" class="node" fill="#D5D7E3">0.55</text>
 <text x="408.7" y="472" class="node" fill="#4A6FE3">1</text>
 <text x="32.1" y="521.5" class="node" fill="#8998E1">0.82</text>
 <text x="57.2" y="508" class="node" fill="#4A6FE3">1</text>
 <text x="57.2" y="535" class="node" fill="#8998E1">0.82</text>
 <text x="82.3" y="544" class="node" fill="#8998E1">0.82</text></svg>
