<svg xmlns="http://www.w3.org/2000/svg" version="1.1" viewBox="0 0 682 520" preserveAspectRatio="xMidYMid meet" class="tree" data-char=""><text x="678" y="12.4" text-anchor="end" class="stepsLabel">Character adds <tspan class="score">3</tspan> to tree score</text><text x="678" y="21.8" text-anchor="end" class="stepsLabel"><tspan class="score">0</tspan> additional regions</text><text x="678" y="31.2" text-anchor="end" class="stepsLabel"></text><text x="678" y="50" text-anchor="end" class="stepsLabel"><tspan dy="16" fill="#34caaf">An optimal tree under:</tspan><tspan x="680" style="font-style:italic" class="notThisAn" dy="1.2em">Implied weights, k = 3</tspan><tspan x="680" style="font-style:italic" class="notThisAn" dy="1.2em">IW, k = 4.5</tspan><tspan x="680" style="font-style:italic" class="notThisAn" dy="1.2em">IW, k = 7</tspan><tspan x="680" style="font-style:italic" class="notThisAn" dy="1.2em">IW, k = 10.5</tspan><tspan x="680" style="font-style:italic" class="notThisAn" dy="1.2em">IW, k = 16</tspan><tspan x="680" style="font-style:italic" class="notThisAn" dy="1.2em">IW, k = 24</tspan><tspan x="680" style="font-style:italic" class="thisAn" dy="1.2em">Equal weights</tspan></text><text x="70" y="505.5" fill="lightgrey" class="flag">[-]</text><text x="92" y="505.5" fill="#ccc" class="taxonLabel">Flustra</text><text x="70" y="515" fill="lightgrey" class="flag">[-]</text><text x="92" y="515" fill="#ccc" class="taxonLabel">Amathia</text><text x="308.5" y="400.7" fill="grey" class="flag">[12]</text><text x="330.5" y="400.7" fill="#999" class="taxonLabel">Pauxillites</text><text x="308.5" y="410.2" fill="grey" class="flag">[?]</text><text x="330.5" y="410.2" fill="#999" class="taxonLabel">Maxilites</text><text x="286.9" y="419.7" fill="#e2e2a2" class="flag">[1]</text><text x="308.9" y="419.7" fill="#000" class="taxonLabel">Haplophrentis carinatus</text><text x="330.2" y="362.5" fill="#e2e2a2" class="flag">[1]</text><text x="352.2" y="362.5" fill="#000" class="taxonLabel">Conotheca</text><text x="330.2" y="372.1" fill="#e2e2a2" class="flag">[1]</text><text x="352.2" y="372.1" fill="#000" class="taxonLabel">Bactrotheca</text><text x="308.5" y="381.6" fill="#e2e2a2" class="flag">[1]</text><text x="330.5" y="381.6" fill="#000" class="taxonLabel">Cupitheca holocyclata</text><text x="286.9" y="391.1" fill="grey" class="flag">[?]</text><text x="308.9" y="391.1" fill="#999" class="taxonLabel">Paramicrocornus</text><text x="243.5" y="429.2" fill="#e2e2a2" class="flag">[1]</text><text x="265.5" y="429.2" fill="#000" class="taxonLabel">Pedunculotheca diania</text><text x="308.5" y="324.4" fill="#91bfdb" class="flag">[2]</text><text x="330.5" y="324.4" fill="#000" class="taxonLabel">Mickwitzia muralensis</text><text x="308.5" y="334" fill="grey" class="flag">[?]</text><text x="330.5" y="334" fill="#999" class="taxonLabel">Heliomedusa orienta</text><text x="286.9" y="343.5" fill="#91bfdb" class="flag">[2]</text><text x="308.9" y="343.5" fill="#000" class="taxonLabel">Micrina</text><text x="330.2" y="305.4" fill="grey" class="flag">[?]</text><text x="352.2" y="305.4" fill="#999" class="taxonLabel">Micromitra</text><text x="330.2" y="314.9" fill="grey" class="flag">[?]</text><text x="352.2" y="314.9" fill="#999" class="taxonLabel">Askepasma toddense</text><text x="373.6" y="276.8" fill="#91bfdb" class="flag">[2]</text><text x="395.6" y="276.8" fill="#000" class="taxonLabel">Coolinia pecten</text><text x="373.6" y="286.3" fill="#91bfdb" class="flag">[2]</text><text x="395.6" y="286.3" fill="#000" class="taxonLabel">Antigonambonites planus</text><text x="417" y="248.2" fill="lightgrey" class="flag">[-]</text><text x="439" y="248.2" fill="#ccc" class="taxonLabel">Tomteluva perturbata</text><text x="417" y="257.7" fill="lightgrey" class="flag">[-]</text><text x="439" y="257.7" fill="#ccc" class="taxonLabel">Kutorgina chengjiangensis</text><text x="395.3" y="267.3" fill="lightgrey" class="flag">[-]</text><text x="417.3" y="267.3" fill="#ccc" class="taxonLabel">Nisusia sulcata</text><text x="460.3" y="200.6" fill="lightgrey" class="flag">[-]</text><text x="482.3" y="200.6" fill="#ccc" class="taxonLabel">Terebratulina</text><text x="460.3" y="210.1" fill="lightgrey" class="flag">[-]</text><text x="482.3" y="210.1" fill="#ccc" class="taxonLabel">Orthis</text><text x="438.6" y="219.6" fill="lightgrey" class="flag">[-]</text><text x="460.6" y="219.6" fill="#ccc" class="taxonLabel">Alisina</text><text x="417" y="229.2" fill="grey" class="flag">[?]</text><text x="439" y="229.2" fill="#999" class="taxonLabel">Longtancunella chengjiangensis</text><text x="395.3" y="238.7" fill="lightgrey" class="flag">[-]</text><text x="417.3" y="238.7" fill="#ccc" class="taxonLabel">Glyptoria</text><text x="330.2" y="295.8" fill="#91bfdb" class="flag">[2]</text><text x="352.2" y="295.8" fill="#000" class="taxonLabel">Salanygolina</text><text x="373.6" y="162.5" fill="lightgrey" class="flag">[-]</text><text x="395.6" y="162.5" fill="#ccc" class="taxonLabel">Novocrania</text><text x="373.6" y="172" fill="#e2e2a2" class="flag">[1]</text><text x="395.6" y="172" fill="#000" class="taxonLabel">Craniops</text><text x="351.9" y="181.5" fill="grey" class="flag">[?]</text><text x="373.9" y="181.5" fill="#999" class="taxonLabel">Ussunia</text><text x="330.2" y="191" fill="grey" class="flag">[?]</text><text x="352.2" y="191" fill="#999" class="taxonLabel">Gasconsia</text><text x="417" y="114.8" fill="#91bfdb" class="flag">[2]</text><text x="439" y="114.8" fill="#000" class="taxonLabel">Pelagodiscus atlanticus</text><text x="417" y="124.3" fill="grey" class="flag">[?]</text><text x="439" y="124.3" fill="#999" class="taxonLabel">Mummpikia nuda</text><text x="482" y="67.2" fill="#e2e2a2" class="flag">[1]</text><text x="504" y="67.2" fill="#000" class="taxonLabel">Siphonobolus priscus</text><text x="482" y="76.7" fill="grey" class="flag">[?]</text><text x="504" y="76.7" fill="#999" class="taxonLabel">Acanthotretella spinosa</text><text x="460.3" y="86.2" fill="grey" class="flag">[?]</text><text x="482.3" y="86.2" fill="#999" class="taxonLabel">Lingulosacculus</text><text x="438.6" y="95.8" fill="#91bfdb" class="flag">[2]</text><text x="460.6" y="95.8" fill="#000" class="taxonLabel">Clupeafumosus socialis</text><text x="417" y="105.3" fill="#91bfdb" class="flag">[2]</text><text x="439" y="105.3" fill="#000" class="taxonLabel">Lingulellotreta malongensis</text><text x="373.6" y="133.9" fill="grey" class="flag">[?]</text><text x="395.6" y="133.9" fill="#999" class="taxonLabel">Botsfordia</text><text x="351.9" y="143.4" fill="#91bfdb" class="flag">[2]</text><text x="373.9" y="143.4" fill="#000" class="taxonLabel">Eoobolus</text><text x="330.2" y="152.9" fill="#91bfdb" class="flag">[2]</text><text x="352.2" y="152.9" fill="#000" class="taxonLabel">Lingula</text><text x="243.5" y="353" fill="grey" class="flag">[?]</text><text x="265.5" y="353" fill="#999" class="taxonLabel">Yuganotheca elegans</text><text x="200.1" y="438.8" fill="#e2e2a2" class="flag">[1]</text><text x="222.1" y="438.8" fill="#000" class="taxonLabel">Paterimitra</text><text x="178.5" y="448.3" fill="grey" class="flag">[?]</text><text x="200.5" y="448.3" fill="#999" class="taxonLabel">Halkieria evangelista</text><text x="156.8" y="457.8" fill="lightgrey" class="flag">[-]</text><text x="178.8" y="457.8" fill="#ccc" class="taxonLabel">Dailyatia</text><text x="135.1" y="467.4" fill="grey" class="flag">[?]</text><text x="157.1" y="467.4" fill="#999" class="taxonLabel">Eccentrotheca</text><text x="113.4" y="476.9" fill="grey" class="flag">[?]</text><text x="135.4" y="476.9" fill="#999" class="taxonLabel">Cotyledion tylodes</text><text x="91.7" y="486.4" fill="lightgrey" class="flag">[-]</text><text x="113.7" y="486.4" fill="#ccc" class="taxonLabel">Phoronis</text><text x="70" y="495.9" fill="grey" class="flag">[?]</text><text x="92" y="495.9" fill="#999" class="taxonLabel">Namacalathus</text><text x="91.7" y="38.6" fill="lightgrey" class="flag">[-]</text><text x="113.7" y="38.6" fill="#ccc" class="taxonLabel">Sipunculus</text><text x="91.7" y="48.1" fill="lightgrey" class="flag">[-]</text><text x="113.7" y="48.1" fill="#ccc" class="taxonLabel">Serpula</text><text x="113.4" y="10" fill="lightgrey" class="flag">[-]</text><text x="135.4" y="10" fill="#ccc" class="taxonLabel">Tonicella</text><text x="113.4" y="19.5" fill="lightgrey" class="flag">[-]</text><text x="135.4" y="19.5" fill="#ccc" class="taxonLabel">Dentalium</text><text x="91.7" y="29.1" fill="grey" class="flag">[?]</text><text x="113.7" y="29.1" fill="#999" class="taxonLabel">Wiwaxia corrugata</text><text x="48.4" y="57.6" fill="lightgrey" class="flag">[-]</text><text x="70.4" y="57.6" fill="#ccc" class="taxonLabel">Loxosomella</text><path d="M5,268.6V42.1H26.7M26.7,42.1V29.6H48.4M48.4,29.6V18.9H70M70,18.9V11.8H91.7M91.7,11.8V7H113.4M91.7,11.8V16.5H113.4M70,18.9V26.1H91.7M48.4,29.6V40.3H70M70,40.3V35.6H91.7M70,40.3V45.1H91.7M26.7,42.1V54.6H48.4M5,268.6V495.1H26.7M26.7,495.1V483H48.4M48.4,483V473H70M70,473V462.7H91.7M91.7,462.7V451.4H113.4M113.4,451.4V438.5H135.1M351.9,164.2V159.5H373.6M330.2,260.2V241.9H351.9M351.9,241.9V226.7H373.6M373.6,226.7V217.8H395.3M395.3,217.8V209.5H417M417,209.5V202.3H438.6M438.6,202.3V197.6H460.3M438.6,202.3V207.1H460.3M417,209.5V216.6H438.6M395.3,217.8V226.2H417M373.6,226.7V235.7H395.3M351.9,241.9V257.1H373.6M373.6,257.1V250H395.3M395.3,250V245.2H417M395.3,250V254.7H417M373.6,257.1V264.3H395.3M135.1,438.5V454.8H156.8M113.4,451.4V464.4H135.1M91.7,462.7V473.9H113.4M70,473V483.4H91.7M48.4,483V492.9H70M26.7,495.1V507.2H48.4M48.4,507.2V502.5H70M48.4,507.2V512H70" stroke="lightgrey" class="inapplicable"></path><path d="M135.1,438.5V422.2H156.8M156.8,422.2V399.2H178.5M178.5,399.2V362.6H200.1M200.1,362.6V314.8H221.8M460.3,68.9V64.2H482M351.9,164.2V169H373.6M200.1,362.6V410.5H221.8M221.8,410.5V394.7H243.5M243.5,394.7V379.8H265.2M265.2,379.8V371.5H286.9M286.9,371.5V364.3H308.5M308.5,364.3V359.5H330.2M308.5,364.3V369.1H330.2M286.9,371.5V378.6H308.5M265.2,379.8V388.1H286.9M243.5,394.7V409.6H265.2M265.2,409.6V402.4H286.9M286.9,402.4V397.7H308.5M286.9,402.4V407.2H308.5M265.2,409.6V416.7H286.9M221.8,410.5V426.2H243.5M178.5,399.2V435.8H200.1M156.8,422.2V445.3H178.5" stroke="#e2e2a2"></path><path d="M221.8,314.8V279.5H243.5M243.5,279.5V225.7H265.2M265.2,225.7V159.6H286.9M286.9,159.6V139.5H308.5M308.5,139.5V129.2H330.2M330.2,129.2V117.9H351.9M351.9,117.9V105H373.6M373.6,105V93.4H395.3M395.3,93.4V84.4H417M417,84.4V76.1H438.6M417,84.4V92.8H438.6M395.3,93.4V102.3H417M373.6,105V116.6H395.3M395.3,116.6V111.8H417M395.3,116.6V121.3H417M351.9,117.9V130.9H373.6M330.2,129.2V140.4H351.9M308.5,139.5V149.9H330.2M286.9,159.6V179.7H308.5M265.2,225.7V291.8H286.9M286.9,291.8V276.5H308.5M308.5,276.5V260.2H330.2M330.2,260.2V278.6H351.9M351.9,278.6V273.8H373.6M351.9,278.6V283.3H373.6M308.5,276.5V292.8H330.2M286.9,291.8V307.1H308.5M308.5,307.1V302.4H330.2M308.5,307.1V311.9H330.2M243.5,279.5V333.3H265.2M265.2,333.3V326.2H286.9M286.9,326.2V321.4H308.5M286.9,326.2V331H308.5M265.2,333.3V340.5H286.9" stroke="#91bfdb"></path><path d="M438.6,76.1V68.9H460.3M460.3,68.9V73.7H482M438.6,76.1V83.2H460.3M308.5,179.7V171.4H330.2M330.2,171.4V164.2H351.9M330.2,171.4V178.5H351.9M308.5,179.7V188H330.2M221.8,314.8V350H243.5" stroke="darkgrey"></path><text x="28.7" y="45.1" class="node" fill="#4A6FE3">1</text><text x="50.4" y="32.6" class="node" fill="#4A6FE3">1</text><text x="72" y="21.9" class="node" fill="#4A6FE3">1</text><text x="93.7" y="14.8" class="node" fill="#4A6FE3">1</text><text x="72" y="43.3" class="node" fill="#4A6FE3">1</text><text x="28.7" y="498.1" class="node" fill="#4A6FE3">1</text><text x="50.4" y="486" class="node" fill="#E6B4BD">0.35</text><text x="72" y="476" class="node" fill="#627DE1">0.94</text><text x="93.7" y="465.7" class="node" fill="#E5A8B3">0.31</text><text x="115.4" y="454.4" class="node" fill="#627DE1">0.94</text><text x="137.1" y="441.5" class="node" fill="#627DE1">0.94</text><text x="158.8" y="425.2" class="node" fill="#627DE1">0.94</text><text x="180.5" y="402.2" class="node" fill="#627DE1">0.94</text><text x="202.1" y="365.6" class="node" fill="#4A6FE3">1</text><text x="223.8" y="317.8" class="node" fill="#5374E2">0.98</text><text x="245.5" y="282.5" class="node" fill="#627DE1">0.94</text><text x="267.2" y="228.7" class="node" fill="#627DE1">0.94</text><text x="288.9" y="162.6" class="node" fill="#627DE1">0.94</text><text x="310.5" y="142.5" class="node" fill="#667FE1">0.93</text><text x="332.2" y="132.2" class="node" fill="#667FE1">0.93</text><text x="353.9" y="120.9" class="node" fill="#667FE1">0.93</text><text x="375.6" y="108" class="node" fill="#627DE1">0.94</text><text x="397.3" y="96.4" class="node" fill="#4A6FE3">1</text><text x="419" y="87.4" class="node" fill="#E6AEB8">0.33</text><text x="440.6" y="79.1" class="node" fill="#4A6FE3">1</text><text x="462.3" y="71.9" class="node" fill="#667FE1">0.93</text><text x="397.3" y="119.6" class="node" fill="#627DE1">0.94</text><text x="310.5" y="182.7" class="node" fill="#4A6FE3">1</text><text x="332.2" y="174.4" class="node" fill="#4A6FE3">1</text><text x="353.9" y="167.2" class="node" fill="#5B78E2">0.96</text><text x="288.9" y="294.8" class="node" fill="#4A6FE3">1</text><text x="310.5" y="279.5" class="node" fill="#5B78E2">0.96</text><text x="332.2" y="263.2" class="node" fill="#5F7BE1">0.95</text><text x="353.9" y="244.9" class="node" fill="#4A6FE3">1</text><text x="375.6" y="229.7" class="node" fill="#4A6FE3">1</text><text x="397.3" y="220.8" class="node" fill="#4A6FE3">1</text><text x="419" y="212.5" class="node" fill="#5B78E2">0.96</text><text x="440.6" y="205.3" class="node" fill="#E59FAC">0.28</text><text x="375.6" y="260.1" class="node" fill="#DB617F">0.09</text><text x="397.3" y="253" class="node" fill="#4A6FE3">1</text><text x="353.9" y="281.6" class="node" fill="#5B78E2">0.96</text><text x="310.5" y="310.1" class="node" fill="#627DE1">0.94</text><text x="267.2" y="336.3" class="node" fill="#627DE1">0.94</text><text x="288.9" y="329.2" class="node" fill="#627DE1">0.94</text><text x="223.8" y="413.5" class="node" fill="#627DE1">0.94</text><text x="245.5" y="397.7" class="node" fill="#E2899B">0.21</text><text x="267.2" y="382.8" class="node" fill="#627DE1">0.94</text><text x="288.9" y="374.5" class="node" fill="#4A6FE3">1</text><text x="310.5" y="367.3" class="node" fill="#4A6FE3">1</text><text x="267.2" y="412.6" class="node" fill="#4A6FE3">1</text><text x="288.9" y="405.4" class="node" fill="#4A6FE3">1</text><text x="50.4" y="510.2" class="node" fill="#4A6FE3">1</text></svg>
