<svg xmlns="http://www.w3.org/2000/svg" version="1.1" width="682" height="612" class="tree" data-char="61"><text x="678" y="14.3" text-anchor="end" class="stepsLabel">Character adds <tspan class="score">3</tspan> to tree score</text><text x="678" y="25.6" text-anchor="end" class="stepsLabel"><tspan class="score">0</tspan> additional regions</text><text x="678" y="36.9" text-anchor="end" class="stepsLabel">CI = 0.33; Fitch CI = 0.33; Fitch RI = 0</text><text x="678" y="59.5" text-anchor="end" class="stepsLabel"><tspan dy="16" fill="#34caaf">An optimal tree under:</tspan><tspan x="680" style="font-style:italic" class="thisAn" dy="1.2em">Equal weights</tspan><tspan x="680" style="font-style:italic" class="notThisAn" dy="1.2em">Implied weights, k = 2</tspan><tspan x="680" style="font-style:italic" class="notThisAn" dy="1.2em">IW, k = 3</tspan><tspan x="680" style="font-style:italic" class="notThisAn" dy="1.2em">IW, k = 4.5</tspan><tspan x="680" style="font-style:italic" class="notThisAn" dy="1.2em">IW, k = 7</tspan><tspan x="680" style="font-style:italic" class="notThisAn" dy="1.2em">IW, k = 10.5</tspan><tspan x="680" style="font-style:italic" class="notThisAn" dy="1.2em">IW, k = 16</tspan><tspan x="680" style="font-style:italic" class="notThisAn" dy="1.2em">IW, k = 24</tspan></text><text x="95.9" y="595.5" fill="lightgrey" class="flag">[-]</text><text x="117.9" y="595.5" fill="#ccc" class="taxonLabel">Wiwaxia corrugata</text><text x="95.9" y="607" fill="lightgrey" class="flag">[-]</text><text x="117.9" y="607" fill="#ccc" class="taxonLabel">Dentalium</text><text x="73.1" y="584" fill="lightgrey" class="flag">[-]</text><text x="95.1" y="584" fill="#ccc" class="taxonLabel">Tonicella</text><text x="73.1" y="561.1" fill="lightgrey" class="flag">[-]</text><text x="95.1" y="561.1" fill="#ccc" class="taxonLabel">Serpula</text><text x="73.1" y="572.6" fill="lightgrey" class="flag">[-]</text><text x="95.1" y="572.6" fill="#ccc" class="taxonLabel">Sipunculus</text><text x="164" y="526.6" fill="grey" class="flag">[?]</text><text x="186" y="526.6" fill="#999" class="taxonLabel">Namacalathus</text><text x="164" y="538.1" fill="#91bfdb" class="flag">[2]</text><text x="186" y="538.1" fill="#000" class="taxonLabel">Cotyledion tylodes</text><text x="459.3" y="503.7" fill="grey" class="flag">[?]</text><text x="481.3" y="503.7" fill="#999" class="taxonLabel">Siphonobolus priscus</text><text x="459.3" y="515.2" fill="#e2e2a2" class="flag">[1]</text><text x="481.3" y="515.2" fill="#000" class="taxonLabel">Acanthotretella spinosa</text><text x="459.3" y="480.7" fill="#e2e2a2" class="flag">[1]</text><text x="481.3" y="480.7" fill="#000" class="taxonLabel">Lingulosacculus</text><text x="459.3" y="492.2" fill="grey" class="flag">[?]</text><text x="481.3" y="492.2" fill="#999" class="taxonLabel">Clupeafumosus socialis</text><text x="413.9" y="469.2" fill="#e2e2a2" class="flag">[1]</text><text x="435.9" y="469.2" fill="#000" class="taxonLabel">Lingulellotreta malongensis</text><text x="391.1" y="457.7" fill="grey" class="flag">[?]</text><text x="413.1" y="457.7" fill="#999" class="taxonLabel">Botsfordia</text><text x="368.4" y="446.3" fill="grey" class="flag">[?]</text><text x="390.4" y="446.3" fill="#999" class="taxonLabel">Mummpikia nuda</text><text x="345.7" y="434.8" fill="grey" class="flag">[?]</text><text x="367.7" y="434.8" fill="#999" class="taxonLabel">Eoobolus</text><text x="323" y="423.3" fill="#e2e2a2" class="flag">[1]</text><text x="345" y="423.3" fill="#000" class="taxonLabel">Lingula</text><text x="323" y="400.3" fill="grey" class="flag">[?]</text><text x="345" y="400.3" fill="#999" class="taxonLabel">Mickwitzia muralensis</text><text x="323" y="411.8" fill="#91bfdb" class="flag">[2]</text><text x="345" y="411.8" fill="#000" class="taxonLabel">Pelagodiscus atlanticus</text><text x="413.9" y="377.4" fill="grey" class="flag">[?]</text><text x="435.9" y="377.4" fill="#999" class="taxonLabel">Coolinia pecten</text><text x="413.9" y="388.9" fill="grey" class="flag">[?]</text><text x="435.9" y="388.9" fill="#999" class="taxonLabel">Antigonambonites planus</text><text x="482" y="354.4" fill="lightgrey" class="flag">[-]</text><text x="504" y="354.4" fill="#ccc" class="taxonLabel">Terebratulina</text><text x="482" y="365.9" fill="grey" class="flag">[?]</text><text x="504" y="365.9" fill="#999" class="taxonLabel">Orthis</text><text x="459.3" y="342.9" fill="grey" class="flag">[?]</text><text x="481.3" y="342.9" fill="#999" class="taxonLabel">Alisina</text><text x="436.6" y="331.5" fill="grey" class="flag">[?]</text><text x="458.6" y="331.5" fill="#999" class="taxonLabel">Glyptoria</text><text x="436.6" y="308.5" fill="grey" class="flag">[?]</text><text x="458.6" y="308.5" fill="#999" class="taxonLabel">Nisusia sulcata</text><text x="436.6" y="320" fill="lightgrey" class="flag">[-]</text><text x="458.6" y="320" fill="#ccc" class="taxonLabel">Kutorgina chengjiangensis</text><text x="368.4" y="297" fill="#e2e2a2" class="flag">[1]</text><text x="390.4" y="297" fill="#000" class="taxonLabel">Longtancunella chengjiangensis</text><text x="368.4" y="274.1" fill="#e2e2a2" class="flag">[1]</text><text x="390.4" y="274.1" fill="#000" class="taxonLabel">Yuganotheca elegans</text><text x="368.4" y="285.5" fill="grey" class="flag">[?]</text><text x="390.4" y="285.5" fill="#999" class="taxonLabel">Tomteluva perturbata</text><text x="323" y="262.6" fill="grey" class="flag">[?]</text><text x="345" y="262.6" fill="#999" class="taxonLabel">Salanygolina</text><text x="323" y="239.6" fill="grey" class="flag">[?]</text><text x="345" y="239.6" fill="#999" class="taxonLabel">Micromitra</text><text x="323" y="251.1" fill="grey" class="flag">[?]</text><text x="345" y="251.1" fill="#999" class="taxonLabel">Askepasma toddense</text><text x="391.1" y="216.7" fill="grey" class="flag">[?]</text><text x="413.1" y="216.7" fill="#999" class="taxonLabel">Probactrotheca</text><text x="391.1" y="228.1" fill="grey" class="flag">[?]</text><text x="413.1" y="228.1" fill="#999" class="taxonLabel">Conotheca</text><text x="391.1" y="193.7" fill="grey" class="flag">[?]</text><text x="413.1" y="193.7" fill="#999" class="taxonLabel">Maxilites</text><text x="391.1" y="205.2" fill="grey" class="flag">[?]</text><text x="413.1" y="205.2" fill="#999" class="taxonLabel">Pauxillites</text><text x="368.4" y="170.7" fill="#e2e2a2" class="flag">[1]</text><text x="390.4" y="170.7" fill="#000" class="taxonLabel">Haplophrentis carinatus</text><text x="368.4" y="182.2" fill="grey" class="flag">[?]</text><text x="390.4" y="182.2" fill="#999" class="taxonLabel">Decoritheca</text><text x="323" y="159.2" fill="grey" class="flag">[?]</text><text x="345" y="159.2" fill="#999" class="taxonLabel">Pedunculotheca diania</text><text x="300.3" y="147.8" fill="grey" class="flag">[?]</text><text x="322.3" y="147.8" fill="#999" class="taxonLabel">Paterimitra</text><text x="277.6" y="136.3" fill="grey" class="flag">[?]</text><text x="299.6" y="136.3" fill="#999" class="taxonLabel">Micrina</text><text x="232.1" y="124.8" fill="grey" class="flag">[?]</text><text x="254.1" y="124.8" fill="#999" class="taxonLabel">Heliomedusa orienta</text><text x="209.4" y="113.3" fill="grey" class="flag">[?]</text><text x="231.4" y="113.3" fill="#999" class="taxonLabel">Gasconsia</text><text x="232.1" y="90.4" fill="lightgrey" class="flag">[-]</text><text x="254.1" y="90.4" fill="#ccc" class="taxonLabel">Novocrania</text><text x="232.1" y="101.8" fill="grey" class="flag">[?]</text><text x="254.1" y="101.8" fill="#999" class="taxonLabel">Craniops</text><text x="209.4" y="78.9" fill="grey" class="flag">[?]</text><text x="231.4" y="78.9" fill="#999" class="taxonLabel">Ussunia</text><text x="164" y="67.4" fill="grey" class="flag">[?]</text><text x="186" y="67.4" fill="#999" class="taxonLabel">Halkieria evangelista</text><text x="141.3" y="44.4" fill="grey" class="flag">[?]</text><text x="163.3" y="44.4" fill="#999" class="taxonLabel">Eccentrotheca</text><text x="141.3" y="55.9" fill="grey" class="flag">[?]</text><text x="163.3" y="55.9" fill="#999" class="taxonLabel">Dailyatia</text><text x="95.9" y="33" fill="#e2e2a2" class="flag">[1]</text><text x="117.9" y="33" fill="#000" class="taxonLabel">Phoronis</text><text x="95.9" y="10" fill="#e2e2a2" class="flag">[1]</text><text x="117.9" y="10" fill="#000" class="taxonLabel">Flustra</text><text x="95.9" y="21.5" fill="#e2e2a2" class="flag">[1]</text><text x="117.9" y="21.5" fill="#000" class="taxonLabel">Amathia</text><text x="50.4" y="549.6" fill="#91bfdb" class="flag">[2]</text><text x="72.4" y="549.6" fill="#000" class="taxonLabel">Loxosomella</text><path d="M5,439.6V302.5H27.7M300.3,403.1V397.3H323M141.3,529.4V523.6H164" stroke="darkgrey"></path><path d="M27.7,302.5V58.5H50.4M50.4,58.5V12.7H73.1M73.1,12.7V7H95.9M73.1,12.7V18.5H95.9M50.4,58.5V104.2H73.1M73.1,104.2V30H95.9M73.1,104.2V178.4H95.9M95.9,178.4V47.2H118.6M118.6,47.2V41.4H141.3M118.6,47.2V52.9H141.3M95.9,178.4V309.6H118.6M118.6,309.6V89.9H141.3M141.3,89.9V64.4H164M141.3,89.9V115.4H164M164,115.4V146.3H186.7M186.7,146.3V110.3H209.4M186.7,146.3V182.3H209.4M209.4,182.3V121.8H232.1M209.4,182.3V242.8H232.1M232.1,242.8V146.2H254.9M254.9,146.2V133.3H277.6M254.9,146.2V159.1H277.6M277.6,159.1V144.8H300.3M277.6,159.1V173.5H300.3M300.3,173.5V156.2H323M300.3,173.5V190.7H323M323,190.7V173.5H345.7M345.7,173.5V167.7H368.4M345.7,173.5V179.2H368.4M323,190.7V207.9H345.7M345.7,207.9V196.4H368.4M368.4,196.4V190.7H391.1M368.4,196.4V202.2H391.1M345.7,207.9V219.4H368.4M368.4,219.4V213.7H391.1M368.4,219.4V225.1H391.1M232.1,242.8V339.3H254.9M254.9,339.3V261.1H277.6M277.6,261.1V242.4H300.3M300.3,242.4V236.6H323M300.3,242.4V248.1H323M277.6,261.1V279.8H300.3M300.3,279.8V259.6H323M300.3,279.8V300H323M323,300V276.8H345.7M345.7,276.8V271.1H368.4M345.7,276.8V282.5H368.4M323,300V323.3H345.7M345.7,323.3V294H368.4M345.7,323.3V352.5H368.4M368.4,352.5V380.1H391.1M391.1,380.1V374.4H413.9M391.1,380.1V385.9H413.9M254.9,339.3V417.5H277.6M277.6,417.5V403.1H300.3M277.6,417.5V432H300.3M300.3,432V420.3H323M300.3,432V443.6H323M323,443.6V431.8H345.7M323,443.6V455.5H345.7M345.7,455.5V443.3H368.4M345.7,455.5V467.7H368.4M368.4,467.7V454.7H391.1M368.4,467.7V480.6H391.1M391.1,480.6V466.2H413.9M391.1,480.6V494.9H413.9M413.9,494.9V483.5H436.6M436.6,483.5V477.7H459.3M436.6,483.5V489.2H459.3M413.9,494.9V506.4H436.6M436.6,506.4V500.7H459.3M436.6,506.4V512.2H459.3M118.6,309.6V529.4H141.3" stroke="#e2e2a2"></path><path d="M164,115.4V84.5H186.7M186.7,84.5V75.9H209.4M186.7,84.5V93.1H209.4M209.4,93.1V87.4H232.1M209.4,93.1V98.8H232.1M368.4,352.5V324.9H391.1M391.1,324.9V311.2H413.9M413.9,311.2V305.5H436.6M413.9,311.2V317H436.6M391.1,324.9V338.5H413.9M413.9,338.5V328.5H436.6M413.9,338.5V348.6H436.6M436.6,348.6V339.9H459.3M436.6,348.6V357.2H459.3M459.3,357.2V351.4H482M459.3,357.2V362.9H482M5,439.6V576.7H27.7M27.7,576.7V563.8H50.4M50.4,563.8V558.1H73.1M50.4,563.8V569.6H73.1M27.7,576.7V589.6H50.4M50.4,589.6V581H73.1M50.4,589.6V598.3H73.1M73.1,598.3V592.5H95.9M73.1,598.3V604H95.9" stroke="lightgrey" class="inapplicable"></path><path d="M300.3,403.1V408.8H323M141.3,529.4V535.1H164M27.7,302.5V546.6H50.4" stroke="#91bfdb"></path><text x="7" y="442.6" class="node" fill="#4A6FE3">1</text><text x="29.7" y="305.5" class="node" fill="#4A6FE3">1</text><text x="52.4" y="61.5" class="node" fill="#4A6FE3">1</text><text x="75.1" y="15.7" class="node" fill="#4A6FE3">1</text><text x="75.1" y="107.2" class="node" fill="#4A6FE3">1</text><text x="97.9" y="181.4" class="node" fill="#4A6FE3">1</text><text x="120.6" y="50.2" class="node" fill="#E59FAC">0.29</text><text x="120.6" y="312.6" class="node" fill="#7388E1">0.89</text><text x="143.3" y="92.9" class="node" fill="#4A6FE3">1</text><text x="166" y="118.4" class="node" fill="#4A6FE3">1</text><text x="188.7" y="87.5" class="node" fill="#4A6FE3">1</text><text x="211.4" y="96.1" class="node" fill="#4A6FE3">1</text><text x="188.7" y="149.3" class="node" fill="#4A6FE3">1</text><text x="211.4" y="185.3" class="node" fill="#4A6FE3">1</text><text x="234.1" y="245.8" class="node" fill="#4A6FE3">1</text><text x="256.9" y="149.2" class="node" fill="#4A6FE3">1</text><text x="279.6" y="162.1" class="node" fill="#4A6FE3">1</text><text x="302.3" y="176.5" class="node" fill="#4A6FE3">1</text><text x="325" y="193.7" class="node" fill="#4A6FE3">1</text><text x="347.7" y="176.5" class="node" fill="#DE728B">0.14</text><text x="347.7" y="210.9" class="node" fill="#E0E0E2">0.51</text><text x="370.4" y="199.4" class="node" fill="#4A6FE3">1</text><text x="370.4" y="222.4" class="node" fill="#4A6FE3">1</text><text x="256.9" y="342.3" class="node" fill="#4A6FE3">1</text><text x="279.6" y="264.1" class="node" fill="#6982E1">0.92</text><text x="302.3" y="245.4" class="node" fill="#4A6FE3">1</text><text x="302.3" y="282.8" class="node" fill="#4A6FE3">1</text><text x="325" y="303" class="node" fill="#E5D0D3">0.44</text><text x="347.7" y="279.8" class="node" fill="#5374E2">0.98</text><text x="347.7" y="326.3" class="node" fill="#B1B8E2">0.68</text><text x="370.4" y="355.5" class="node" fill="#8F9DE1">0.8</text><text x="393.1" y="327.9" class="node" fill="#8394E1">0.84</text><text x="415.9" y="314.2" class="node" fill="#E5A8B3">0.31</text><text x="415.9" y="341.5" class="node" fill="#6D84E1">0.91</text><text x="438.6" y="351.6" class="node" fill="#667FE1">0.93</text><text x="461.3" y="360.2" class="node" fill="#C4C9E3">0.61</text><text x="393.1" y="383.1" class="node" fill="#4A6FE3">1</text><text x="279.6" y="420.5" class="node" fill="#4A6FE3">1</text><text x="302.3" y="406.1" class="node" fill="#4A6FE3">1</text><text x="302.3" y="435" class="node" fill="#4A6FE3">1</text><text x="325" y="446.6" class="node" fill="#4A6FE3">1</text><text x="347.7" y="458.5" class="node" fill="#8091E1">0.85</text><text x="370.4" y="470.7" class="node" fill="#8091E1">0.85</text><text x="393.1" y="483.6" class="node" fill="#8091E1">0.85</text><text x="415.9" y="497.9" class="node" fill="#C1C6E3">0.62</text><text x="438.6" y="486.5" class="node" fill="#E38FA0">0.23</text><text x="438.6" y="509.4" class="node" fill="#4A6FE3">1</text><text x="143.3" y="532.4" class="node" fill="#7388E1">0.89</text><text x="29.7" y="579.7" class="node" fill="#4A6FE3">1</text><text x="52.4" y="566.8" class="node" fill="#4A6FE3">1</text><text x="52.4" y="592.6" class="node" fill="#4A6FE3">1</text><text x="75.1" y="601.3" class="node" fill="#4A6FE3">1</text></svg>
