<svg xmlns="http://www.w3.org/2000/svg" version="1.1" width="682" height="682" class="tree" data-char="196"><text x="678" y="15.6" text-anchor="end" class="stepsLabel">Character adds <tspan class="score">3</tspan> to tree score</text><text x="678" y="28.2" text-anchor="end" class="stepsLabel"><tspan class="score">0</tspan> additional regions</text><text x="678" y="40.8" text-anchor="end" class="stepsLabel">CI = 0.33; Fitch CI = 0.33; Fitch RI = 0.5</text><text x="678" y="66" text-anchor="end" class="stepsLabel"><tspan dy="16" fill="#34caaf">An optimal tree under:</tspan><tspan x="680" style="font-style:italic" class="thisAn" dy="1.2em">Equal weights</tspan><tspan x="680" style="font-style:italic" class="notThisAn" dy="1.2em">Implied weights, k = 2</tspan><tspan x="680" style="font-style:italic" class="notThisAn" dy="1.2em">IW, k = 3</tspan><tspan x="680" style="font-style:italic" class="notThisAn" dy="1.2em">IW, k = 4.5</tspan><tspan x="680" style="font-style:italic" class="notThisAn" dy="1.2em">IW, k = 7</tspan><tspan x="680" style="font-style:italic" class="notThisAn" dy="1.2em">IW, k = 10.5</tspan><tspan x="680" style="font-style:italic" class="notThisAn" dy="1.2em">IW, k = 16</tspan><tspan x="680" style="font-style:italic" class="notThisAn" dy="1.2em">IW, k = 24</tspan></text><text x="73.1" y="664.2" fill="#e2e2a2" class="flag">[1]</text><text x="95.1" y="664.2" fill="#000" class="taxonLabel">Serpula</text><text x="73.1" y="677" fill="#91bfdb" class="flag">[2]</text><text x="95.1" y="677" fill="#000" class="taxonLabel">Sipunculus</text><text x="95.9" y="638.5" fill="#e2e2a2" class="flag">[1]</text><text x="117.9" y="638.5" fill="#000" class="taxonLabel">Tonicella</text><text x="95.9" y="651.3" fill="#e2e2a2" class="flag">[1]</text><text x="117.9" y="651.3" fill="#000" class="taxonLabel">Dentalium</text><text x="73.1" y="625.7" fill="grey" class="flag">[?]</text><text x="95.1" y="625.7" fill="#999" class="taxonLabel">Wiwaxia corrugata</text><text x="368.4" y="587.2" fill="grey" class="flag">[?]</text><text x="390.4" y="587.2" fill="#999" class="taxonLabel">Pauxillites</text><text x="368.4" y="600" fill="grey" class="flag">[?]</text><text x="390.4" y="600" fill="#999" class="taxonLabel">Maxilites</text><text x="345.7" y="574.4" fill="grey" class="flag">[?]</text><text x="367.7" y="574.4" fill="#999" class="taxonLabel">Haplophrentis carinatus</text><text x="323" y="561.6" fill="grey" class="flag">[?]</text><text x="345" y="561.6" fill="#999" class="taxonLabel">Paramicrocornus</text><text x="300.3" y="548.7" fill="grey" class="flag">[?]</text><text x="322.3" y="548.7" fill="#999" class="taxonLabel">Bactrotheca</text><text x="277.6" y="535.9" fill="grey" class="flag">[?]</text><text x="299.6" y="535.9" fill="#999" class="taxonLabel">Conotheca</text><text x="254.9" y="523.1" fill="grey" class="flag">[?]</text><text x="276.9" y="523.1" fill="#999" class="taxonLabel">Pedunculotheca diania</text><text x="413.9" y="497.4" fill="#91bfdb" class="flag">[2]</text><text x="435.9" y="497.4" fill="#000" class="taxonLabel">Pelagodiscus atlanticus</text><text x="413.9" y="510.2" fill="grey" class="flag">[?]</text><text x="435.9" y="510.2" fill="#999" class="taxonLabel">Mummpikia nuda</text><text x="482" y="471.8" fill="grey" class="flag">[?]</text><text x="504" y="471.8" fill="#999" class="taxonLabel">Siphonobolus priscus</text><text x="482" y="484.6" fill="grey" class="flag">[?]</text><text x="504" y="484.6" fill="#999" class="taxonLabel">Acanthotretella spinosa</text><text x="459.3" y="458.9" fill="grey" class="flag">[?]</text><text x="481.3" y="458.9" fill="#999" class="taxonLabel">Lingulosacculus</text><text x="436.6" y="446.1" fill="grey" class="flag">[?]</text><text x="458.6" y="446.1" fill="#999" class="taxonLabel">Clupeafumosus socialis</text><text x="413.9" y="433.3" fill="grey" class="flag">[?]</text><text x="435.9" y="433.3" fill="#999" class="taxonLabel">Lingulellotreta malongensis</text><text x="368.4" y="420.5" fill="grey" class="flag">[?]</text><text x="390.4" y="420.5" fill="#999" class="taxonLabel">Botsfordia</text><text x="345.7" y="407.6" fill="grey" class="flag">[?]</text><text x="367.7" y="407.6" fill="#999" class="taxonLabel">Eoobolus</text><text x="323" y="394.8" fill="#91bfdb" class="flag">[2]</text><text x="345" y="394.8" fill="#000" class="taxonLabel">Lingula</text><text x="413.9" y="369.2" fill="#91bfdb" class="flag">[2]</text><text x="435.9" y="369.2" fill="#000" class="taxonLabel">Novocrania</text><text x="413.9" y="382" fill="grey" class="flag">[?]</text><text x="435.9" y="382" fill="#999" class="taxonLabel">Craniops</text><text x="391.1" y="356.3" fill="grey" class="flag">[?]</text><text x="413.1" y="356.3" fill="#999" class="taxonLabel">Ussunia</text><text x="368.4" y="343.5" fill="grey" class="flag">[?]</text><text x="390.4" y="343.5" fill="#999" class="taxonLabel">Heliomedusa orienta</text><text x="345.7" y="330.7" fill="grey" class="flag">[?]</text><text x="367.7" y="330.7" fill="#999" class="taxonLabel">Mickwitzia muralensis</text><text x="345.7" y="305" fill="grey" class="flag">[?]</text><text x="367.7" y="305" fill="#999" class="taxonLabel">Micromitra</text><text x="345.7" y="317.8" fill="grey" class="flag">[?]</text><text x="367.7" y="317.8" fill="#999" class="taxonLabel">Gasconsia</text><text x="368.4" y="279.4" fill="grey" class="flag">[?]</text><text x="390.4" y="279.4" fill="#999" class="taxonLabel">Tomteluva perturbata</text><text x="368.4" y="292.2" fill="grey" class="flag">[?]</text><text x="390.4" y="292.2" fill="#999" class="taxonLabel">Yuganotheca elegans</text><text x="482" y="253.7" fill="grey" class="flag">[?]</text><text x="504" y="253.7" fill="#999" class="taxonLabel">Alisina</text><text x="482" y="266.5" fill="#e2e2a2" class="flag">[1]</text><text x="504" y="266.5" fill="#000" class="taxonLabel">Terebratulina</text><text x="459.3" y="240.9" fill="grey" class="flag">[?]</text><text x="481.3" y="240.9" fill="#999" class="taxonLabel">Orthis</text><text x="436.6" y="228.1" fill="grey" class="flag">[?]</text><text x="458.6" y="228.1" fill="#999" class="taxonLabel">Glyptoria</text><text x="436.6" y="202.4" fill="grey" class="flag">[?]</text><text x="458.6" y="202.4" fill="#999" class="taxonLabel">Kutorgina chengjiangensis</text><text x="436.6" y="215.2" fill="grey" class="flag">[?]</text><text x="458.6" y="215.2" fill="#999" class="taxonLabel">Nisusia sulcata</text><text x="413.9" y="176.8" fill="grey" class="flag">[?]</text><text x="435.9" y="176.8" fill="#999" class="taxonLabel">Antigonambonites planus</text><text x="413.9" y="189.6" fill="grey" class="flag">[?]</text><text x="435.9" y="189.6" fill="#999" class="taxonLabel">Coolinia pecten</text><text x="368.4" y="163.9" fill="grey" class="flag">[?]</text><text x="390.4" y="163.9" fill="#999" class="taxonLabel">Longtancunella chengjiangensis</text><text x="323" y="151.1" fill="grey" class="flag">[?]</text><text x="345" y="151.1" fill="#999" class="taxonLabel">Salanygolina</text><text x="300.3" y="138.3" fill="grey" class="flag">[?]</text><text x="322.3" y="138.3" fill="#999" class="taxonLabel">Askepasma toddense</text><text x="254.9" y="125.4" fill="grey" class="flag">[?]</text><text x="276.9" y="125.4" fill="#999" class="taxonLabel">Micrina</text><text x="209.4" y="112.6" fill="grey" class="flag">[?]</text><text x="231.4" y="112.6" fill="#999" class="taxonLabel">Paterimitra</text><text x="186.7" y="99.8" fill="grey" class="flag">[?]</text><text x="208.7" y="99.8" fill="#999" class="taxonLabel">Halkieria evangelista</text><text x="164" y="87" fill="grey" class="flag">[?]</text><text x="186" y="87" fill="#999" class="taxonLabel">Eccentrotheca</text><text x="141.3" y="74.1" fill="grey" class="flag">[?]</text><text x="163.3" y="74.1" fill="#999" class="taxonLabel">Cotyledion tylodes</text><text x="118.6" y="61.3" fill="grey" class="flag">[?]</text><text x="140.6" y="61.3" fill="#999" class="taxonLabel">Dailyatia</text><text x="118.6" y="35.7" fill="grey" class="flag">[?]</text><text x="140.6" y="35.7" fill="#999" class="taxonLabel">Namacalathus</text><text x="118.6" y="48.5" fill="#e2e2a2" class="flag">[1]</text><text x="140.6" y="48.5" fill="#000" class="taxonLabel">Phoronis</text><text x="95.9" y="10" fill="#91bfdb" class="flag">[2]</text><text x="117.9" y="10" fill="#000" class="taxonLabel">Flustra</text><text x="95.9" y="22.8" fill="#91bfdb" class="flag">[2]</text><text x="117.9" y="22.8" fill="#000" class="taxonLabel">Amathia</text><text x="50.4" y="612.9" fill="lightgrey" class="flag">[-]</text><text x="72.4" y="612.9" fill="#ccc" class="taxonLabel">Loxosomella</text><path d="M5,486.5V323H27.7M27.7,323V36H50.4M50.4,36V58.7H73.1M73.1,58.7V39.1H95.9M95.9,39.1V32.7H118.6M95.9,39.1V45.5H118.6M73.1,58.7V78.3H95.9M95.9,78.3V58.3H118.6M95.9,78.3V98.2H118.6M118.6,98.2V71.1H141.3M118.6,98.2V125.3H141.3M141.3,125.3V84H164M141.3,125.3V166.6H164M164,166.6V96.8H186.7M164,166.6V236.3H186.7M186.7,236.3V109.6H209.4M186.7,236.3V363.1H209.4M209.4,363.1V193.4H232.1M232.1,193.4V122.4H254.9M232.1,193.4V264.4H254.9M254.9,264.4V162.6H277.6M277.6,162.6V135.3H300.3M277.6,162.6V189.9H300.3M300.3,189.9V148.1H323M300.3,189.9V231.8H323M323,231.8V180.8H345.7M345.7,180.8V160.9H368.4M345.7,180.8V200.6H368.4M368.4,200.6V180.2H391.1M391.1,180.2V173.8H413.9M391.1,180.2V186.6H413.9M368.4,200.6V221H391.1M391.1,221V205.8H413.9M413.9,205.8V199.4H436.6M413.9,205.8V212.2H436.6M391.1,221V236.3H413.9M413.9,236.3V225.1H436.6M413.9,236.3V247.5H436.6M436.6,247.5V237.9H459.3M436.6,247.5V257.1H459.3M459.3,257.1V250.7H482M459.3,257.1V263.5H482M323,231.8V282.8H345.7M345.7,282.8V276.4H368.4M345.7,282.8V289.2H368.4M209.4,363.1V532.7H232.1M232.1,532.7V520.1H254.9M232.1,532.7V545.3H254.9M254.9,545.3V532.9H277.6M254.9,545.3V557.8H277.6M277.6,557.8V545.7H300.3M277.6,557.8V569.8H300.3M300.3,569.8V558.6H323M300.3,569.8V581H323M323,581V571.4H345.7M323,581V590.6H345.7M345.7,590.6V584.2H368.4M345.7,590.6V597H368.4M5,486.5V649.9H27.7M27.7,649.9V632.3H50.4M50.4,632.3V622.7H73.1M50.4,632.3V641.9H73.1M73.1,641.9V635.5H95.9M73.1,641.9V648.3H95.9M27.7,649.9V667.6H50.4M50.4,667.6V661.2H73.1" stroke="#e2e2a2"></path><path d="M50.4,36V13.4H73.1M73.1,13.4V7H95.9M73.1,13.4V19.8H95.9M254.9,264.4V366.1H277.6M277.6,366.1V324.1H300.3M300.3,324.1V308.4H323M323,308.4V302H345.7M323,308.4V314.8H345.7M300.3,324.1V339.7H323M323,339.7V327.7H345.7M323,339.7V351.7H345.7M345.7,351.7V340.5H368.4M345.7,351.7V362.9H368.4M368.4,362.9V353.3H391.1M368.4,362.9V372.6H391.1M391.1,372.6V366.2H413.9M391.1,372.6V379H413.9M277.6,366.1V408.2H300.3M300.3,408.2V391.8H323M300.3,408.2V424.6H323M323,424.6V404.6H345.7M323,424.6V444.5H345.7M345.7,444.5V417.5H368.4M345.7,444.5V471.6H368.4M368.4,471.6V442.3H391.1M391.1,442.3V430.3H413.9M391.1,442.3V454.3H413.9M413.9,454.3V443.1H436.6M413.9,454.3V465.6H436.6M436.6,465.6V455.9H459.3M436.6,465.6V475.2H459.3M459.3,475.2V468.8H482M459.3,475.2V481.6H482M368.4,471.6V500.8H391.1M391.1,500.8V494.4H413.9M391.1,500.8V507.2H413.9M50.4,667.6V674H73.1" stroke="#91bfdb"></path><path d="M27.7,323V609.9H50.4" stroke="lightgrey" class="inapplicable"></path><text x="7" y="489.5" class="node" fill="#4A6FE3">1</text><text x="29.7" y="326" class="node" fill="#4A6FE3">1</text><text x="52.4" y="39" class="node" fill="#4A6FE3">1</text><text x="75.1" y="16.4" class="node" fill="#4A6FE3">1</text><text x="75.1" y="61.7" class="node" fill="#4A6FE3">1</text><text x="97.9" y="42.1" class="node" fill="#E4D6D8">0.46</text><text x="97.9" y="81.3" class="node" fill="#8998E1">0.82</text><text x="120.6" y="101.2" class="node" fill="#DC6884">0.11</text><text x="143.3" y="128.3" class="node" fill="#DA5E7D">0.08</text><text x="166" y="169.6" class="node" fill="#8998E1">0.82</text><text x="188.7" y="239.3" class="node" fill="#4F72E2">0.99</text><text x="211.4" y="366.1" class="node" fill="#4F72E2">0.99</text><text x="234.1" y="196.4" class="node" fill="#8998E1">0.82</text><text x="256.9" y="267.4" class="node" fill="#DADBE3">0.53</text><text x="279.6" y="165.6" class="node" fill="#E6C4C9">0.4</text><text x="302.3" y="192.9" class="node" fill="#9AA6E2">0.76</text><text x="325" y="234.8" class="node" fill="#E6B1BB">0.34</text><text x="347.7" y="183.8" class="node" fill="#E498A7">0.26</text><text x="370.4" y="203.6" class="node" fill="#E5C7CC">0.41</text><text x="393.1" y="183.2" class="node" fill="#4A6FE3">1</text><text x="393.1" y="224" class="node" fill="#E6BDC5">0.38</text><text x="415.9" y="208.8" class="node" fill="#E2E2E2">0.5</text><text x="415.9" y="239.3" class="node" fill="#E4D3D6">0.45</text><text x="438.6" y="250.5" class="node" fill="#5B78E2">0.96</text><text x="461.3" y="260.1" class="node" fill="#E6BAC2">0.37</text><text x="347.7" y="285.8" class="node" fill="#B9BFE3">0.65</text><text x="279.6" y="369.1" class="node" fill="#E5C7CC">0.41</text><text x="302.3" y="327.1" class="node" fill="#E5C7CC">0.41</text><text x="325" y="311.4" class="node" fill="#E6C4C9">0.4</text><text x="325" y="342.7" class="node" fill="#E5C7CC">0.41</text><text x="347.7" y="354.7" class="node" fill="#8696E1">0.83</text><text x="370.4" y="365.9" class="node" fill="#4A6FE3">1</text><text x="393.1" y="375.6" class="node" fill="#4A6FE3">1</text><text x="302.3" y="411.2" class="node" fill="#9DA8E2">0.75</text><text x="325" y="427.6" class="node" fill="#E6B4BD">0.35</text><text x="347.7" y="447.5" class="node" fill="#E6B4BD">0.35</text><text x="370.4" y="474.6" class="node" fill="#E6B4BD">0.35</text><text x="393.1" y="445.3" class="node" fill="#E6BAC2">0.37</text><text x="415.9" y="457.3" class="node" fill="#97A4E2">0.77</text><text x="438.6" y="468.6" class="node" fill="#E49CAA">0.27</text><text x="461.3" y="478.2" class="node" fill="#4F72E2">0.99</text><text x="393.1" y="503.8" class="node" fill="#E3DFE0">0.49</text><text x="234.1" y="535.7" class="node" fill="#4F72E2">0.99</text><text x="256.9" y="548.3" class="node" fill="#8696E1">0.83</text><text x="279.6" y="560.8" class="node" fill="#E5A5B1">0.3</text><text x="302.3" y="572.8" class="node" fill="#4A6FE3">1</text><text x="325" y="584" class="node" fill="#4A6FE3">1</text><text x="347.7" y="593.6" class="node" fill="#4A6FE3">1</text><text x="29.7" y="652.9" class="node" fill="#4A6FE3">1</text><text x="52.4" y="635.3" class="node" fill="#4A6FE3">1</text><text x="75.1" y="644.9" class="node" fill="#4A6FE3">1</text><text x="52.4" y="670.6" class="node" fill="#4A6FE3">1</text></svg>
