<svg xmlns="http://www.w3.org/2000/svg" version="1.1" width="682" height="612" class="tree" data-char="25"><text x="678" y="15.7" text-anchor="end" class="stepsLabel">Character adds <tspan class="score">4</tspan> to tree score</text><text x="678" y="28.4" text-anchor="end" class="stepsLabel"><tspan class="score">0</tspan> additional regions</text><text x="678" y="41.1" text-anchor="end" class="stepsLabel">CI = 0.25; Fitch CI = 0.25; Fitch RI = 0.4</text><text x="678" y="66.5" text-anchor="end" class="stepsLabel"><tspan dy="16">An optimal tree under:</tspan><tspan x="680" style="font-style:italic" class="thisAn" dy="1.2em">Equal weights</tspan><tspan x="680" style="font-style:italic" class="notThisAn" dy="1.2em">Implied weights, k = 2</tspan><tspan x="680" style="font-style:italic" class="notThisAn" dy="1.2em">IW, k = 3</tspan><tspan x="680" style="font-style:italic" class="notThisAn" dy="1.2em">IW, k = 4.5</tspan><tspan x="680" style="font-style:italic" class="notThisAn" dy="1.2em">IW, k = 7</tspan><tspan x="680" style="font-style:italic" class="notThisAn" dy="1.2em">IW, k = 10.5</tspan><tspan x="680" style="font-style:italic" class="notThisAn" dy="1.2em">IW, k = 16</tspan><tspan x="680" style="font-style:italic" class="notThisAn" dy="1.2em">IW, k = 24</tspan></text><text x="88" y="594" fill="lightgrey" class="flag">[-]</text><text x="110" y="594" fill="#ccc" class="taxonLabel">Dentalium</text><text x="88" y="607" fill="lightgrey" class="flag">[-]</text><text x="110" y="607" fill="#ccc" class="taxonLabel">Tonicella</text><text x="67.2" y="581" fill="lightgrey" class="flag">[-]</text><text x="89.2" y="581" fill="#ccc" class="taxonLabel">Wiwaxia corrugata</text><text x="67.2" y="555.1" fill="lightgrey" class="flag">[-]</text><text x="89.2" y="555.1" fill="#ccc" class="taxonLabel">Serpula</text><text x="67.2" y="568.1" fill="lightgrey" class="flag">[-]</text><text x="89.2" y="568.1" fill="#ccc" class="taxonLabel">Sipunculus</text><text x="233.1" y="516.2" fill="lightgrey" class="flag">[-]</text><text x="255.1" y="516.2" fill="#ccc" class="taxonLabel">Haplophrentis carinatus</text><text x="233.1" y="529.1" fill="#e2e2a2" class="flag">[1]</text><text x="255.1" y="529.1" fill="#000" class="taxonLabel">Pedunculotheca diania</text><text x="378.3" y="490.2" fill="grey" class="flag">[?]</text><text x="400.3" y="490.2" fill="#999" class="taxonLabel">Tomteluva perturbata</text><text x="378.3" y="503.2" fill="#91bfdb" class="flag">[2]</text><text x="400.3" y="503.2" fill="#000" class="taxonLabel">Yuganotheca elegans</text><text x="357.6" y="477.2" fill="grey" class="flag">[?]</text><text x="379.6" y="477.2" fill="#999" class="taxonLabel">Salanygolina</text><text x="482" y="451.3" fill="grey" class="flag">[?]</text><text x="504" y="451.3" fill="#999" class="taxonLabel">Orthis</text><text x="482" y="464.2" fill="#e2e2a2" class="flag">[1]</text><text x="504" y="464.2" fill="#000" class="taxonLabel">Terebratulina</text><text x="461.3" y="438.3" fill="#91bfdb" class="flag">[2]</text><text x="483.3" y="438.3" fill="#000" class="taxonLabel">Alisina</text><text x="440.5" y="425.3" fill="#91bfdb" class="flag">[2]</text><text x="462.5" y="425.3" fill="#000" class="taxonLabel">Longtancunella chengjiangensis</text><text x="419.8" y="412.3" fill="grey" class="flag">[?]</text><text x="441.8" y="412.3" fill="#999" class="taxonLabel">Glyptoria</text><text x="399" y="399.3" fill="#91bfdb" class="flag">[2]</text><text x="421" y="399.3" fill="#000" class="taxonLabel">Nisusia sulcata</text><text x="378.3" y="386.4" fill="#e2e2a2" class="flag">[1]</text><text x="400.3" y="386.4" fill="#000" class="taxonLabel">Kutorgina chengjiangensis</text><text x="378.3" y="360.4" fill="#91bfdb" class="flag">[2]</text><text x="400.3" y="360.4" fill="#000" class="taxonLabel">Antigonambonites planus</text><text x="378.3" y="373.4" fill="grey" class="flag">[?]</text><text x="400.3" y="373.4" fill="#999" class="taxonLabel">Coolinia pecten</text><text x="316.1" y="347.4" fill="lightgrey" class="flag">[-]</text><text x="338.1" y="347.4" fill="#ccc" class="taxonLabel">Gasconsia</text><text x="295.3" y="334.5" fill="grey" class="flag">[?]</text><text x="317.3" y="334.5" fill="#999" class="taxonLabel">Micromitra</text><text x="274.6" y="321.5" fill="grey" class="flag">[?]</text><text x="296.6" y="321.5" fill="#999" class="taxonLabel">Askepasma toddense</text><text x="440.5" y="295.5" fill="#e2e2a2" class="flag">[1]</text><text x="462.5" y="295.5" fill="#000" class="taxonLabel">Acanthotretella spinosa</text><text x="440.5" y="308.5" fill="grey" class="flag">[?]</text><text x="462.5" y="308.5" fill="#999" class="taxonLabel">Siphonobolus priscus</text><text x="419.8" y="282.5" fill="grey" class="flag">[?]</text><text x="441.8" y="282.5" fill="#999" class="taxonLabel">Lingulosacculus</text><text x="399" y="269.6" fill="grey" class="flag">[?]</text><text x="421" y="269.6" fill="#999" class="taxonLabel">Clupeafumosus socialis</text><text x="378.3" y="256.6" fill="#e2e2a2" class="flag">[1]</text><text x="400.3" y="256.6" fill="#000" class="taxonLabel">Lingulellotreta malongensis</text><text x="357.6" y="243.6" fill="grey" class="flag">[?]</text><text x="379.6" y="243.6" fill="#999" class="taxonLabel">Botsfordia</text><text x="336.8" y="230.6" fill="grey" class="flag">[?]</text><text x="358.8" y="230.6" fill="#999" class="taxonLabel">Mummpikia nuda</text><text x="316.1" y="217.7" fill="grey" class="flag">[?]</text><text x="338.1" y="217.7" fill="#999" class="taxonLabel">Eoobolus</text><text x="295.3" y="204.7" fill="#91bfdb" class="flag">[2]</text><text x="317.3" y="204.7" fill="#000" class="taxonLabel">Lingula</text><text x="316.1" y="178.7" fill="grey" class="flag">[?]</text><text x="338.1" y="178.7" fill="#999" class="taxonLabel">Mickwitzia muralensis</text><text x="316.1" y="191.7" fill="#e2e2a2" class="flag">[1]</text><text x="338.1" y="191.7" fill="#000" class="taxonLabel">Pelagodiscus atlanticus</text><text x="295.3" y="165.7" fill="grey" class="flag">[?]</text><text x="317.3" y="165.7" fill="#999" class="taxonLabel">Micrina</text><text x="233.1" y="152.8" fill="grey" class="flag">[?]</text><text x="255.1" y="152.8" fill="#999" class="taxonLabel">Paterimitra</text><text x="191.7" y="139.8" fill="lightgrey" class="flag">[-]</text><text x="213.7" y="139.8" fill="#ccc" class="taxonLabel">Heliomedusa orienta</text><text x="212.4" y="113.8" fill="lightgrey" class="flag">[-]</text><text x="234.4" y="113.8" fill="#ccc" class="taxonLabel">Novocrania</text><text x="212.4" y="126.8" fill="lightgrey" class="flag">[-]</text><text x="234.4" y="126.8" fill="#ccc" class="taxonLabel">Craniops</text><text x="191.7" y="100.8" fill="lightgrey" class="flag">[-]</text><text x="213.7" y="100.8" fill="#ccc" class="taxonLabel">Ussunia</text><text x="150.2" y="87.9" fill="lightgrey" class="flag">[-]</text><text x="172.2" y="87.9" fill="#ccc" class="taxonLabel">Halkieria evangelista</text><text x="170.9" y="61.9" fill="grey" class="flag">[?]</text><text x="192.9" y="61.9" fill="#999" class="taxonLabel">Eccentrotheca</text><text x="170.9" y="74.9" fill="grey" class="flag">[?]</text><text x="192.9" y="74.9" fill="#999" class="taxonLabel">Dailyatia</text><text x="150.2" y="48.9" fill="lightgrey" class="flag">[-]</text><text x="172.2" y="48.9" fill="#ccc" class="taxonLabel">Cotyledion tylodes</text><text x="108.7" y="36" fill="lightgrey" class="flag">[-]</text><text x="130.7" y="36" fill="#ccc" class="taxonLabel">Phoronis</text><text x="88" y="23" fill="lightgrey" class="flag">[-]</text><text x="110" y="23" fill="#ccc" class="taxonLabel">Namacalathus</text><text x="67.2" y="10" fill="lightgrey" class="flag">[-]</text><text x="89.2" y="10" fill="#ccc" class="taxonLabel">Flustra</text><text x="46.5" y="542.1" fill="lightgrey" class="flag">[-]</text><text x="68.5" y="542.1" fill="#ccc" class="taxonLabel">Loxosomella</text><path d="M5,427.4V281.7H25.7M25.7,281.7V24.3H46.5M46.5,24.3V7H67.2M46.5,24.3V41.7H67.2M67.2,41.7V20H88M67.2,41.7V63.4H88M88,63.4V33H108.7M88,63.4V93.8H108.7M108.7,93.8V55.7H129.4M129.4,55.7V45.9H150.2M129.4,55.7V65.4H150.2M150.2,65.4V58.9H170.9M150.2,65.4V71.9H170.9M108.7,93.8V131.9H129.4M129.4,131.9V84.9H150.2M129.4,131.9V178.9H150.2M150.2,178.9V107.6H170.9M170.9,107.6V97.8H191.7M170.9,107.6V117.3H191.7M191.7,117.3V110.8H212.4M191.7,117.3V123.8H212.4M150.2,178.9V250.3H170.9M170.9,250.3V136.8H191.7M295.3,388.2V344.4H316.1M212.4,519.6V513.2H233.1M25.7,281.7V539.1H46.5M5,427.4V573.2H25.7M25.7,573.2V558.6H46.5M46.5,558.6V552.1H67.2M46.5,558.6V565.1H67.2M25.7,573.2V587.8H46.5M46.5,587.8V578H67.2M46.5,587.8V597.5H67.2M67.2,597.5V591H88M67.2,597.5V604H88" stroke="lightgrey" class="inapplicable"></path><path d="M170.9,250.3V363.8H191.7M191.7,363.8V208.1H212.4M212.4,208.1V149.8H233.1M212.4,208.1V266.3H233.1M233.1,266.3V193.5H253.9M253.9,193.5V172.5H274.6M274.6,172.5V162.7H295.3M274.6,172.5V182.2H295.3M295.3,182.2V175.7H316.1M295.3,182.2V188.7H316.1M253.9,193.5V214.6H274.6M274.6,214.6V227.5H295.3M295.3,227.5V214.7H316.1M295.3,227.5V240.4H316.1M316.1,240.4V227.6H336.8M316.1,240.4V253.2H336.8M336.8,253.2V240.6H357.6M336.8,253.2V265.8H357.6M357.6,265.8V253.6H378.3M357.6,265.8V277.9H378.3M378.3,277.9V266.6H399M378.3,277.9V289.3H399M399,289.3V279.5H419.8M399,289.3V299H419.8M419.8,299V292.5H440.5M419.8,299V305.5H440.5M233.1,266.3V339.2H253.9M357.6,396.1V383.4H378.3M461.3,454.8V461.2H482M191.7,363.8V519.6H212.4M212.4,519.6V526.1H233.1" stroke="#e2e2a2"></path><path d="M274.6,214.6V201.7H295.3M295.3,388.2V432H316.1M316.1,432V380H336.8M336.8,380V363.9H357.6M357.6,363.9V357.4H378.3M357.6,363.9V370.4H378.3M336.8,380V396.1H357.6M357.6,396.1V408.9H378.3M378.3,408.9V396.3H399M378.3,408.9V421.5H399M399,421.5V409.3H419.8M399,421.5V433.7H419.8M419.8,433.7V422.3H440.5M419.8,433.7V445H440.5M440.5,445V435.3H461.3M440.5,445V454.8H461.3M316.1,432V484H336.8M336.8,484V474.2H357.6M336.8,484V493.7H357.6M357.6,493.7V487.2H378.3M357.6,493.7V500.2H378.3" stroke="#91bfdb"></path><path d="M253.9,339.2V318.5H274.6M253.9,339.2V359.8H274.6M274.6,359.8V331.5H295.3M274.6,359.8V388.2H295.3M461.3,454.8V448.3H482" stroke="darkgrey"></path><text x="7" y="430.4" class="node" fill="#4A6FE3">1</text><text x="27.7" y="284.7" class="node" fill="#4A6FE3">1</text><text x="48.5" y="27.3" class="node" fill="#6D84E1">0.91</text><text x="69.2" y="44.7" class="node" fill="#6D84E1">0.91</text><text x="90" y="66.4" class="node" fill="#E6ABB6">0.32</text><text x="110.7" y="96.8" class="node" fill="#6D84E1">0.91</text><text x="131.4" y="58.7" class="node" fill="#DB617F">0.09</text><text x="152.2" y="68.4" class="node" fill="#DD6C86">0.12</text><text x="131.4" y="134.9" class="node" fill="#E5CACE">0.42</text><text x="152.2" y="181.9" class="node" fill="#4A6FE3">1</text><text x="172.9" y="110.6" class="node" fill="#667FE1">0.93</text><text x="193.7" y="120.3" class="node" fill="#4A6FE3">1</text><text x="172.9" y="253.3" class="node" fill="#D2D4E3">0.56</text><text x="193.7" y="366.8" class="node" fill="#D2D4E3">0.56</text><text x="214.4" y="211.1" class="node" fill="#E6AEB8">0.33</text><text x="235.1" y="269.3" class="node" fill="#D2D4E3">0.56</text><text x="255.9" y="196.5" class="node" fill="#D2D4E3">0.56</text><text x="276.6" y="175.5" class="node" fill="#D2D4E3">0.56</text><text x="297.3" y="185.2" class="node" fill="#4A6FE3">1</text><text x="276.6" y="217.6" class="node" fill="#4A6FE3">1</text><text x="297.3" y="230.5" class="node" fill="#D2D4E3">0.57</text><text x="318.1" y="243.4" class="node" fill="#D2D4E3">0.56</text><text x="338.8" y="256.2" class="node" fill="#D2D4E3">0.56</text><text x="359.6" y="268.8" class="node" fill="#D2D4E3">0.56</text><text x="380.3" y="280.9" class="node" fill="#97A4E2">0.77</text><text x="401" y="292.3" class="node" fill="#E392A2">0.24</text><text x="421.8" y="302" class="node" fill="#4A6FE3">1</text><text x="255.9" y="342.2" class="node" fill="#D2D4E3">0.56</text><text x="276.6" y="362.8" class="node" fill="#DB6581">0.1</text><text x="297.3" y="391.2" class="node" fill="#E18297">0.19</text><text x="318.1" y="435" class="node" fill="#4A6FE3">1</text><text x="338.8" y="383" class="node" fill="#8998E1">0.82</text><text x="359.6" y="366.9" class="node" fill="#4A6FE3">1</text><text x="359.6" y="399.1" class="node" fill="#929FE1">0.79</text><text x="380.3" y="411.9" class="node" fill="#929FE1">0.79</text><text x="401" y="424.5" class="node" fill="#768BE1">0.88</text><text x="421.8" y="436.7" class="node" fill="#768BE1">0.88</text><text x="442.5" y="448" class="node" fill="#4A6FE3">1</text><text x="463.3" y="457.8" class="node" fill="#6982E1">0.92</text><text x="338.8" y="487" class="node" fill="#9AA6E2">0.76</text><text x="359.6" y="496.7" class="node" fill="#8394E1">0.84</text><text x="214.4" y="522.6" class="node" fill="#4A6FE3">1</text><text x="27.7" y="576.2" class="node" fill="#4A6FE3">1</text><text x="48.5" y="561.6" class="node" fill="#4A6FE3">1</text><text x="48.5" y="590.8" class="node" fill="#4A6FE3">1</text><text x="69.2" y="600.5" class="node" fill="#8F9DE1">0.8</text></svg>
