<svg xmlns="http://www.w3.org/2000/svg" version="1.1" width="682" height="612" class="tree" data-char="139"><text x="678" y="15.7" text-anchor="end" class="stepsLabel">Character adds <tspan class="score">2</tspan> to tree score</text><text x="678" y="28.4" text-anchor="end" class="stepsLabel"><tspan class="score">0</tspan> additional regions</text><text x="678" y="41.1" text-anchor="end" class="stepsLabel">CI = 0.5; Fitch CI = 0.5; Fitch RI = 0</text><text x="678" y="66.5" text-anchor="end" class="stepsLabel"><tspan dy="16">An optimal tree under:</tspan><tspan x="680" style="font-style:italic" class="thisAn" dy="1.2em">Equal weights</tspan><tspan x="680" style="font-style:italic" class="notThisAn" dy="1.2em">Implied weights, k = 2</tspan><tspan x="680" style="font-style:italic" class="notThisAn" dy="1.2em">IW, k = 3</tspan><tspan x="680" style="font-style:italic" class="notThisAn" dy="1.2em">IW, k = 4.5</tspan><tspan x="680" style="font-style:italic" class="notThisAn" dy="1.2em">IW, k = 7</tspan><tspan x="680" style="font-style:italic" class="notThisAn" dy="1.2em">IW, k = 10.5</tspan><tspan x="680" style="font-style:italic" class="notThisAn" dy="1.2em">IW, k = 16</tspan><tspan x="680" style="font-style:italic" class="notThisAn" dy="1.2em">IW, k = 24</tspan></text><text x="91.7" y="594" fill="#fc8d59" class="flag">[0]</text><text x="113.7" y="594" fill="#000" class="taxonLabel">Tonicella</text><text x="91.7" y="607" fill="#fc8d59" class="flag">[0]</text><text x="113.7" y="607" fill="#000" class="taxonLabel">Dentalium</text><text x="70" y="581" fill="grey" class="flag">[?]</text><text x="92" y="581" fill="grey" class="taxonLabel">Wiwaxia corrugata</text><text x="70" y="555.1" fill="#fc8d59" class="flag">[0]</text><text x="92" y="555.1" fill="#000" class="taxonLabel">Serpula</text><text x="70" y="568.1" fill="#fc8d59" class="flag">[0]</text><text x="92" y="568.1" fill="#000" class="taxonLabel">Sipunculus</text><text x="243.5" y="516.2" fill="grey" class="flag">[?]</text><text x="265.5" y="516.2" fill="grey" class="taxonLabel">Haplophrentis carinatus</text><text x="243.5" y="529.1" fill="grey" class="flag">[?]</text><text x="265.5" y="529.1" fill="grey" class="taxonLabel">Pedunculotheca diania</text><text x="395.3" y="490.2" fill="grey" class="flag">[?]</text><text x="417.3" y="490.2" fill="grey" class="taxonLabel">Antigonambonites planus</text><text x="395.3" y="503.2" fill="grey" class="flag">[?]</text><text x="417.3" y="503.2" fill="grey" class="taxonLabel">Coolinia pecten</text><text x="482" y="464.2" fill="#91bfdb" class="flag">[1]</text><text x="504" y="464.2" fill="#000" class="taxonLabel">Terebratulina</text><text x="482" y="477.2" fill="grey" class="flag">[?]</text><text x="504" y="477.2" fill="grey" class="taxonLabel">Orthis</text><text x="460.3" y="451.3" fill="grey" class="flag">[?]</text><text x="482.3" y="451.3" fill="grey" class="taxonLabel">Alisina</text><text x="438.6" y="438.3" fill="grey" class="flag">[?]</text><text x="460.6" y="438.3" fill="grey" class="taxonLabel">Glyptoria</text><text x="417" y="425.3" fill="grey" class="flag">[?]</text><text x="439" y="425.3" fill="grey" class="taxonLabel">Nisusia sulcata</text><text x="395.3" y="412.3" fill="grey" class="flag">[?]</text><text x="417.3" y="412.3" fill="grey" class="taxonLabel">Kutorgina chengjiangensis</text><text x="351.9" y="399.3" fill="grey" class="flag">[?]</text><text x="373.9" y="399.3" fill="grey" class="taxonLabel">Longtancunella chengjiangensis</text><text x="351.9" y="373.4" fill="grey" class="flag">[?]</text><text x="373.9" y="373.4" fill="grey" class="taxonLabel">Tomteluva perturbata</text><text x="351.9" y="386.4" fill="grey" class="flag">[?]</text><text x="373.9" y="386.4" fill="grey" class="taxonLabel">Yuganotheca elegans</text><text x="308.5" y="360.4" fill="grey" class="flag">[?]</text><text x="330.5" y="360.4" fill="grey" class="taxonLabel">Salanygolina</text><text x="330.2" y="334.5" fill="grey" class="flag">[?]</text><text x="352.2" y="334.5" fill="grey" class="taxonLabel">Gasconsia</text><text x="330.2" y="347.4" fill="grey" class="flag">[?]</text><text x="352.2" y="347.4" fill="grey" class="taxonLabel">Micromitra</text><text x="308.5" y="321.5" fill="grey" class="flag">[?]</text><text x="330.5" y="321.5" fill="grey" class="taxonLabel">Askepasma toddense</text><text x="460.3" y="295.5" fill="grey" class="flag">[?]</text><text x="482.3" y="295.5" fill="grey" class="taxonLabel">Acanthotretella spinosa</text><text x="460.3" y="308.5" fill="grey" class="flag">[?]</text><text x="482.3" y="308.5" fill="grey" class="taxonLabel">Siphonobolus priscus</text><text x="438.6" y="282.5" fill="grey" class="flag">[?]</text><text x="460.6" y="282.5" fill="grey" class="taxonLabel">Lingulosacculus</text><text x="417" y="269.6" fill="grey" class="flag">[?]</text><text x="439" y="269.6" fill="grey" class="taxonLabel">Clupeafumosus socialis</text><text x="395.3" y="256.6" fill="grey" class="flag">[?]</text><text x="417.3" y="256.6" fill="grey" class="taxonLabel">Lingulellotreta malongensis</text><text x="373.6" y="243.6" fill="grey" class="flag">[?]</text><text x="395.6" y="243.6" fill="grey" class="taxonLabel">Botsfordia</text><text x="351.9" y="230.6" fill="grey" class="flag">[?]</text><text x="373.9" y="230.6" fill="grey" class="taxonLabel">Mummpikia nuda</text><text x="330.2" y="217.7" fill="grey" class="flag">[?]</text><text x="352.2" y="217.7" fill="grey" class="taxonLabel">Eoobolus</text><text x="308.5" y="204.7" fill="#fc8d59" class="flag">[0]</text><text x="330.5" y="204.7" fill="#000" class="taxonLabel">Lingula</text><text x="330.2" y="178.7" fill="#fc8d59" class="flag">[0]</text><text x="352.2" y="178.7" fill="#000" class="taxonLabel">Pelagodiscus atlanticus</text><text x="330.2" y="191.7" fill="grey" class="flag">[?]</text><text x="352.2" y="191.7" fill="grey" class="taxonLabel">Mickwitzia muralensis</text><text x="308.5" y="165.7" fill="grey" class="flag">[?]</text><text x="330.5" y="165.7" fill="grey" class="taxonLabel">Micrina</text><text x="243.5" y="152.8" fill="grey" class="flag">[?]</text><text x="265.5" y="152.8" fill="grey" class="taxonLabel">Paterimitra</text><text x="200.1" y="139.8" fill="grey" class="flag">[?]</text><text x="222.1" y="139.8" fill="grey" class="taxonLabel">Heliomedusa orienta</text><text x="221.8" y="113.8" fill="#fc8d59" class="flag">[0]</text><text x="243.8" y="113.8" fill="#000" class="taxonLabel">Novocrania</text><text x="221.8" y="126.8" fill="grey" class="flag">[?]</text><text x="243.8" y="126.8" fill="grey" class="taxonLabel">Craniops</text><text x="200.1" y="100.8" fill="grey" class="flag">[?]</text><text x="222.1" y="100.8" fill="grey" class="taxonLabel">Ussunia</text><text x="178.5" y="74.9" fill="grey" class="flag">[?]</text><text x="200.5" y="74.9" fill="grey" class="taxonLabel">Dailyatia</text><text x="178.5" y="87.9" fill="grey" class="flag">[?]</text><text x="200.5" y="87.9" fill="grey" class="taxonLabel">Halkieria evangelista</text><text x="135.1" y="61.9" fill="grey" class="flag">[?]</text><text x="157.1" y="61.9" fill="grey" class="taxonLabel">Cotyledion tylodes</text><text x="113.4" y="48.9" fill="grey" class="flag">[?]</text><text x="135.4" y="48.9" fill="grey" class="taxonLabel">Eccentrotheca</text><text x="113.4" y="23" fill="#fc8d59" class="flag">[0]</text><text x="135.4" y="23" fill="#000" class="taxonLabel">Phoronis</text><text x="113.4" y="36" fill="grey" class="flag">[?]</text><text x="135.4" y="36" fill="grey" class="taxonLabel">Namacalathus</text><text x="70" y="10" fill="#fc8d59" class="flag">[0]</text><text x="92" y="10" fill="#000" class="taxonLabel">Flustra</text><text x="48.4" y="542.1" fill="#91bfdb" class="flag">[1]</text><text x="70.4" y="542.1" fill="#000" class="taxonLabel">Loxosomella</text><path d="M5,428.3V283.4H26.7M26.7,283.4V27.6H48.4M48.4,27.6V7H70M48.4,27.6V48.2H70M70,48.2V26.5H91.7M91.7,26.5V20H113.4M91.7,26.5V33H113.4M70,48.2V69.9H91.7M91.7,69.9V45.9H113.4M91.7,69.9V93.9H113.4M113.4,93.9V58.9H135.1M113.4,93.9V128.9H135.1M135.1,128.9V78.4H156.8M156.8,78.4V71.9H178.5M156.8,78.4V84.9H178.5M135.1,128.9V179.4H156.8M156.8,179.4V107.6H178.5M178.5,107.6V97.8H200.1M178.5,107.6V117.3H200.1M200.1,117.3V110.8H221.8M200.1,117.3V123.8H221.8M156.8,179.4V251.2H178.5M178.5,251.2V136.8H200.1M178.5,251.2V365.7H200.1M200.1,365.7V211.8H221.8M221.8,211.8V149.8H243.5M221.8,211.8V273.7H243.5M243.5,273.7V193.5H265.2M265.2,193.5V172.5H286.9M286.9,172.5V162.7H308.5M286.9,172.5V182.2H308.5M308.5,182.2V175.7H330.2M308.5,182.2V188.7H330.2M265.2,193.5V214.6H286.9M286.9,214.6V201.7H308.5M286.9,214.6V227.5H308.5M308.5,227.5V214.7H330.2M308.5,227.5V240.4H330.2M330.2,240.4V227.6H351.9M330.2,240.4V253.2H351.9M351.9,253.2V240.6H373.6M351.9,253.2V265.8H373.6M373.6,265.8V253.6H395.3M373.6,265.8V277.9H395.3M395.3,277.9V266.6H417M395.3,277.9V289.3H417M417,289.3V279.5H438.6M417,289.3V299H438.6M438.6,299V292.5H460.3M438.6,299V305.5H460.3M243.5,273.7V354H265.2M200.1,365.7V519.6H221.8M221.8,519.6V513.2H243.5M221.8,519.6V526.1H243.5M5,428.3V573.2H26.7M26.7,573.2V558.6H48.4M48.4,558.6V552.1H70M48.4,558.6V565.1H70M26.7,573.2V587.8H48.4M48.4,587.8V578H70M48.4,587.8V597.5H70M70,597.5V591H91.7M70,597.5V604H91.7" stroke="#fc8d59"></path><path d="M265.2,354V328.2H286.9M286.9,328.2V318.5H308.5M286.9,328.2V337.9H308.5M308.5,337.9V331.5H330.2M308.5,337.9V344.4H330.2M265.2,354V379.7H286.9M286.9,379.7V357.4H308.5M286.9,379.7V402H308.5M308.5,402V376.9H330.2M330.2,376.9V370.4H351.9M330.2,376.9V383.4H351.9M308.5,402V427.1H330.2M330.2,427.1V396.3H351.9M330.2,427.1V457.8H351.9M351.9,457.8V421.9H373.6M373.6,421.9V409.3H395.3M373.6,421.9V434.5H395.3M395.3,434.5V422.3H417M395.3,434.5V446.6H417M417,446.6V435.3H438.6M417,446.6V458H438.6M438.6,458V448.3H460.3M438.6,458V467.7H460.3M460.3,467.7V474.2H482M351.9,457.8V493.7H373.6M373.6,493.7V487.2H395.3M373.6,493.7V500.2H395.3" stroke="darkgrey"></path><path d="M460.3,467.7V461.2H482M26.7,283.4V539.1H48.4" stroke="#91bfdb"></path><text x="7" y="431.3" class="node" fill="#4A6FE3">1</text><text x="28.7" y="286.4" class="node" fill="#4A6FE3">1</text><text x="50.4" y="30.6" class="node" fill="#6D84E1">0.91</text><text x="72" y="51.2" class="node" fill="#6D84E1">0.91</text><text x="93.7" y="29.5" class="node" fill="#E6BAC2">0.37</text><text x="93.7" y="72.9" class="node" fill="#6D84E1">0.91</text><text x="115.4" y="96.9" class="node" fill="#E38FA0">0.23</text><text x="137.1" y="131.9" class="node" fill="#CFD2E3">0.58</text><text x="158.8" y="81.4" class="node" fill="#CFD2E3">0.58</text><text x="158.8" y="182.4" class="node" fill="#4A6FE3">1</text><text x="180.5" y="110.6" class="node" fill="#667FE1">0.93</text><text x="202.1" y="120.3" class="node" fill="#4A6FE3">1</text><text x="180.5" y="254.2" class="node" fill="#D2D4E3">0.56</text><text x="202.1" y="368.7" class="node" fill="#D2D4E3">0.56</text><text x="223.8" y="214.8" class="node" fill="#E6AEB8">0.33</text><text x="245.5" y="276.7" class="node" fill="#D2D4E3">0.56</text><text x="267.2" y="196.5" class="node" fill="#D2D4E3">0.56</text><text x="288.9" y="175.5" class="node" fill="#D2D4E3">0.56</text><text x="310.5" y="185.2" class="node" fill="#4A6FE3">1</text><text x="288.9" y="217.6" class="node" fill="#4A6FE3">1</text><text x="310.5" y="230.5" class="node" fill="#D2D4E3">0.57</text><text x="332.2" y="243.4" class="node" fill="#D2D4E3">0.56</text><text x="353.9" y="256.2" class="node" fill="#D2D4E3">0.56</text><text x="375.6" y="268.8" class="node" fill="#D2D4E3">0.56</text><text x="397.3" y="280.9" class="node" fill="#97A4E2">0.77</text><text x="419" y="292.3" class="node" fill="#E392A2">0.24</text><text x="440.6" y="302" class="node" fill="#4A6FE3">1</text><text x="267.2" y="357" class="node" fill="#D2D4E3">0.56</text><text x="288.9" y="331.2" class="node" fill="#E38FA0">0.23</text><text x="310.5" y="340.9" class="node" fill="#E6B1BB">0.34</text><text x="288.9" y="382.7" class="node" fill="#4A6FE3">1</text><text x="310.5" y="405" class="node" fill="#E392A2">0.24</text><text x="332.2" y="379.9" class="node" fill="#8394E1">0.84</text><text x="332.2" y="430.1" class="node" fill="#8998E1">0.82</text><text x="353.9" y="460.8" class="node" fill="#DD6C86">0.12</text><text x="375.6" y="424.9" class="node" fill="#DD6C86">0.12</text><text x="397.3" y="437.5" class="node" fill="#DD6C86">0.12</text><text x="419" y="449.6" class="node" fill="#DD6C86">0.12</text><text x="440.6" y="461" class="node" fill="#4A6FE3">1</text><text x="462.3" y="470.7" class="node" fill="#6982E1">0.92</text><text x="375.6" y="496.7" class="node" fill="#4A6FE3">1</text><text x="223.8" y="522.6" class="node" fill="#4A6FE3">1</text><text x="28.7" y="576.2" class="node" fill="#4A6FE3">1</text><text x="50.4" y="561.6" class="node" fill="#4A6FE3">1</text><text x="50.4" y="590.8" class="node" fill="#4A6FE3">1</text><text x="72" y="600.5" class="node" fill="#8F9DE1">0.8</text></svg>
