<svg xmlns="http://www.w3.org/2000/svg" version="1.1" width="682" height="612" class="tree" data-char="137"><text x="678" y="15.4" text-anchor="end" class="stepsLabel">Character adds <tspan class="score">2</tspan> to tree score</text><text x="678" y="27.8" text-anchor="end" class="stepsLabel"><tspan class="score">0</tspan> additional regions</text><text x="678" y="40.2" text-anchor="end" class="stepsLabel">CI = 0.5; Fitch CI = 0.5; Fitch RI = 0.75</text><text x="678" y="65" text-anchor="end" class="stepsLabel"><tspan dy="16">An optimal tree under:</tspan><tspan x="680" style="font-style:italic" class="thisAn" dy="1.2em">Equal weights</tspan><tspan x="680" style="font-style:italic" class="notThisAn" dy="1.2em">Implied weights, k = 2</tspan><tspan x="680" style="font-style:italic" class="notThisAn" dy="1.2em">IW, k = 3</tspan><tspan x="680" style="font-style:italic" class="notThisAn" dy="1.2em">IW, k = 4.5</tspan><tspan x="680" style="font-style:italic" class="notThisAn" dy="1.2em">IW, k = 7</tspan><tspan x="680" style="font-style:italic" class="notThisAn" dy="1.2em">IW, k = 10.5</tspan><tspan x="680" style="font-style:italic" class="notThisAn" dy="1.2em">IW, k = 16</tspan><tspan x="680" style="font-style:italic" class="notThisAn" dy="1.2em">IW, k = 24</tspan></text><text x="100.4" y="594.3" fill="#fc8d59" class="flag">[0]</text><text x="122.4" y="594.3" fill="#000" class="taxonLabel">Tonicella</text><text x="100.4" y="607" fill="#fc8d59" class="flag">[0]</text><text x="122.4" y="607" fill="#000" class="taxonLabel">Dentalium</text><text x="76.6" y="581.6" fill="#fc8d59" class="flag">[0]</text><text x="98.6" y="581.6" fill="#000" class="taxonLabel">Wiwaxia corrugata</text><text x="76.6" y="556.2" fill="#fc8d59" class="flag">[0]</text><text x="98.6" y="556.2" fill="#000" class="taxonLabel">Serpula</text><text x="76.6" y="568.9" fill="#fc8d59" class="flag">[0]</text><text x="98.6" y="568.9" fill="#000" class="taxonLabel">Sipunculus</text><text x="195.8" y="518.1" fill="grey" class="flag">[?]</text><text x="217.8" y="518.1" fill="#999" class="taxonLabel">Haplophrentis carinatus</text><text x="195.8" y="530.8" fill="grey" class="flag">[?]</text><text x="217.8" y="530.8" fill="#999" class="taxonLabel">Pedunculotheca diania</text><text x="291.2" y="492.7" fill="grey" class="flag">[?]</text><text x="313.2" y="492.7" fill="#999" class="taxonLabel">Mickwitzia muralensis</text><text x="291.2" y="505.4" fill="grey" class="flag">[?]</text><text x="313.2" y="505.4" fill="#999" class="taxonLabel">Pelagodiscus atlanticus</text><text x="482" y="467.3" fill="grey" class="flag">[?]</text><text x="504" y="467.3" fill="#999" class="taxonLabel">Siphonobolus priscus</text><text x="482" y="480" fill="grey" class="flag">[?]</text><text x="504" y="480" fill="#999" class="taxonLabel">Acanthotretella spinosa</text><text x="458.2" y="454.6" fill="grey" class="flag">[?]</text><text x="480.2" y="454.6" fill="#999" class="taxonLabel">Lingulosacculus</text><text x="434.3" y="441.9" fill="grey" class="flag">[?]</text><text x="456.3" y="441.9" fill="#999" class="taxonLabel">Clupeafumosus socialis</text><text x="410.5" y="429.2" fill="grey" class="flag">[?]</text><text x="432.5" y="429.2" fill="#999" class="taxonLabel">Lingulellotreta malongensis</text><text x="386.6" y="416.5" fill="grey" class="flag">[?]</text><text x="408.6" y="416.5" fill="#999" class="taxonLabel">Botsfordia</text><text x="362.8" y="403.8" fill="grey" class="flag">[?]</text><text x="384.8" y="403.8" fill="#999" class="taxonLabel">Mummpikia nuda</text><text x="338.9" y="391.1" fill="grey" class="flag">[?]</text><text x="360.9" y="391.1" fill="#999" class="taxonLabel">Eoobolus</text><text x="315.1" y="378.4" fill="#fc8d59" class="flag">[0]</text><text x="337.1" y="378.4" fill="#000" class="taxonLabel">Lingula</text><text x="291.2" y="365.7" fill="grey" class="flag">[?]</text><text x="313.2" y="365.7" fill="#999" class="taxonLabel">Micrina</text><text x="291.2" y="340.3" fill="#fc8d59" class="flag">[0]</text><text x="313.2" y="340.3" fill="#000" class="taxonLabel">Novocrania</text><text x="291.2" y="353" fill="grey" class="flag">[?]</text><text x="313.2" y="353" fill="#999" class="taxonLabel">Craniops</text><text x="267.4" y="327.6" fill="grey" class="flag">[?]</text><text x="289.4" y="327.6" fill="#999" class="taxonLabel">Heliomedusa orienta</text><text x="362.8" y="302.1" fill="grey" class="flag">[?]</text><text x="384.8" y="302.1" fill="#999" class="taxonLabel">Antigonambonites planus</text><text x="362.8" y="314.9" fill="grey" class="flag">[?]</text><text x="384.8" y="314.9" fill="#999" class="taxonLabel">Coolinia pecten</text><text x="482" y="276.7" fill="grey" class="flag">[?]</text><text x="504" y="276.7" fill="#999" class="taxonLabel">Terebratulina</text><text x="482" y="289.4" fill="grey" class="flag">[?]</text><text x="504" y="289.4" fill="#999" class="taxonLabel">Orthis</text><text x="458.2" y="264" fill="grey" class="flag">[?]</text><text x="480.2" y="264" fill="#999" class="taxonLabel">Alisina</text><text x="434.3" y="251.3" fill="grey" class="flag">[?]</text><text x="456.3" y="251.3" fill="#999" class="taxonLabel">Longtancunella chengjiangensis</text><text x="410.5" y="238.6" fill="grey" class="flag">[?]</text><text x="432.5" y="238.6" fill="#999" class="taxonLabel">Glyptoria</text><text x="386.6" y="225.9" fill="grey" class="flag">[?]</text><text x="408.6" y="225.9" fill="#999" class="taxonLabel">Nisusia sulcata</text><text x="362.8" y="213.2" fill="grey" class="flag">[?]</text><text x="384.8" y="213.2" fill="#999" class="taxonLabel">Kutorgina chengjiangensis</text><text x="315.1" y="200.5" fill="grey" class="flag">[?]</text><text x="337.1" y="200.5" fill="#999" class="taxonLabel">Tomteluva perturbata</text><text x="291.2" y="187.8" fill="grey" class="flag">[?]</text><text x="313.2" y="187.8" fill="#999" class="taxonLabel">Yuganotheca elegans</text><text x="267.4" y="175.1" fill="grey" class="flag">[?]</text><text x="289.4" y="175.1" fill="#999" class="taxonLabel">Salanygolina</text><text x="267.4" y="149.7" fill="grey" class="flag">[?]</text><text x="289.4" y="149.7" fill="#999" class="taxonLabel">Micromitra</text><text x="267.4" y="162.4" fill="grey" class="flag">[?]</text><text x="289.4" y="162.4" fill="#999" class="taxonLabel">Askepasma toddense</text><text x="195.8" y="137" fill="grey" class="flag">[?]</text><text x="217.8" y="137" fill="#999" class="taxonLabel">Paterimitra</text><text x="148.1" y="124.3" fill="grey" class="flag">[?]</text><text x="170.1" y="124.3" fill="#999" class="taxonLabel">Gasconsia</text><text x="243.5" y="98.9" fill="#91bfdb" class="flag">[1]</text><text x="265.5" y="98.9" fill="#000" class="taxonLabel">Namacalathus</text><text x="243.5" y="111.6" fill="#91bfdb" class="flag">[1]</text><text x="265.5" y="111.6" fill="#000" class="taxonLabel">Phoronis</text><text x="219.7" y="86.2" fill="grey" class="flag">[?]</text><text x="241.7" y="86.2" fill="#999" class="taxonLabel">Cotyledion tylodes</text><text x="195.8" y="73.5" fill="grey" class="flag">[?]</text><text x="217.8" y="73.5" fill="#999" class="taxonLabel">Dailyatia</text><text x="172" y="60.8" fill="grey" class="flag">[?]</text><text x="194" y="60.8" fill="#999" class="taxonLabel">Eccentrotheca</text><text x="148.1" y="48.1" fill="grey" class="flag">[?]</text><text x="170.1" y="48.1" fill="#999" class="taxonLabel">Halkieria evangelista</text><text x="100.4" y="35.4" fill="grey" class="flag">[?]</text><text x="122.4" y="35.4" fill="#999" class="taxonLabel">Ussunia</text><text x="100.4" y="10" fill="#91bfdb" class="flag">[1]</text><text x="122.4" y="10" fill="#000" class="taxonLabel">Flustra</text><text x="100.4" y="22.7" fill="#91bfdb" class="flag">[1]</text><text x="122.4" y="22.7" fill="#000" class="taxonLabel">Amathia</text><text x="52.7" y="543.5" fill="#91bfdb" class="flag">[1]</text><text x="74.7" y="543.5" fill="#000" class="taxonLabel">Loxosomella</text><path d="M5,435.1V296.4H28.9M28.9,296.4V52.3H52.7M52.7,52.3V13.4H76.6M76.6,13.4V7H100.4M76.6,13.4V19.7H100.4M52.7,52.3V91.2H76.6M76.6,91.2V32.4H100.4M76.6,91.2V150H100.4M100.4,150V57.4H124.2M124.2,57.4V45.1H148.1M124.2,57.4V69.7H148.1M148.1,69.7V57.8H172M148.1,69.7V81.6H172M172,81.6V70.5H195.8M172,81.6V92.7H195.8M195.8,92.7V83.2H219.7M195.8,92.7V102.3H219.7M219.7,102.3V95.9H243.5M219.7,102.3V108.6H243.5M100.4,150V242.5H124.2M28.9,296.4V540.5H52.7" stroke="#91bfdb"></path><path d="M124.2,242.5V121.3H148.1M124.2,242.5V363.8H148.1M148.1,363.8V206.1H172M172,206.1V134H195.8M172,206.1V278.2H195.8M195.8,278.2V171.5H219.7M219.7,171.5V153.1H243.5M243.5,153.1V146.7H267.4M243.5,153.1V159.4H267.4M219.7,171.5V190H243.5M243.5,190V172.1H267.4M243.5,190V207.8H267.4M267.4,207.8V184.8H291.2M267.4,207.8V230.8H291.2M291.2,230.8V197.5H315.1M291.2,230.8V264.1H315.1M315.1,264.1V222.7H338.9M338.9,222.7V210.2H362.8M338.9,222.7V235.2H362.8M362.8,235.2V222.9H386.6M362.8,235.2V247.5H386.6M386.6,247.5V235.6H410.5M386.6,247.5V259.5H410.5M410.5,259.5V248.3H434.3M410.5,259.5V270.6H434.3M434.3,270.6V261H458.2M434.3,270.6V280.1H458.2M458.2,280.1V273.7H482M458.2,280.1V286.4H482M315.1,264.1V305.5H338.9M338.9,305.5V299.1H362.8M338.9,305.5V311.9H362.8M148.1,363.8V521.4H172M172,521.4V515.1H195.8M172,521.4V527.8H195.8" stroke="darkgrey"></path><path d="M195.8,278.2V384.9H219.7M219.7,384.9V334.1H243.5M243.5,334.1V324.6H267.4M243.5,334.1V343.6H267.4M267.4,343.6V337.3H291.2M267.4,343.6V350H291.2M219.7,384.9V435.7H243.5M243.5,435.7V375.3H267.4M267.4,375.3V362.7H291.2M267.4,375.3V388H291.2M291.2,388V375.4H315.1M291.2,388V400.7H315.1M315.1,400.7V388.1H338.9M315.1,400.7V413.3H338.9M338.9,413.3V400.8H362.8M338.9,413.3V425.8H362.8M362.8,425.8V413.5H386.6M362.8,425.8V438.1H386.6M386.6,438.1V426.2H410.5M386.6,438.1V450H410.5M410.5,450V438.9H434.3M410.5,450V461.1H434.3M434.3,461.1V451.6H458.2M434.3,461.1V470.6H458.2M458.2,470.6V464.3H482M458.2,470.6V477H482M243.5,435.7V496H267.4M267.4,496V489.7H291.2M267.4,496V502.4H291.2M5,435.1V573.8H28.9M28.9,573.8V559.5H52.7M52.7,559.5V553.2H76.6M52.7,559.5V565.9H76.6M28.9,573.8V588.1H52.7M52.7,588.1V578.6H76.6M52.7,588.1V597.6H76.6M76.6,597.6V591.3H100.4M76.6,597.6V604H100.4" stroke="#fc8d59"></path><text x="7" y="438.1" class="node" fill="#4A6FE3">1</text><text x="30.9" y="299.4" class="node" fill="#4A6FE3">1</text><text x="54.7" y="55.3" class="node" fill="#97A4E2">0.77</text><text x="78.6" y="16.4" class="node" fill="#4A6FE3">1</text><text x="78.6" y="94.2" class="node" fill="#97A4E2">0.77</text><text x="102.4" y="153" class="node" fill="#DADBE3">0.53</text><text x="126.2" y="60.4" class="node" fill="#DADBE3">0.53</text><text x="150.1" y="72.7" class="node" fill="#DADBE3">0.53</text><text x="174" y="84.6" class="node" fill="#DD6F88">0.13</text><text x="197.8" y="95.7" class="node" fill="#E5A5B1">0.3</text><text x="221.7" y="105.3" class="node" fill="#4A6FE3">1</text><text x="126.2" y="245.5" class="node" fill="#DADBE3">0.53</text><text x="150.1" y="366.8" class="node" fill="#DADBE3">0.53</text><text x="174" y="209.1" class="node" fill="#DF798F">0.16</text><text x="197.8" y="281.2" class="node" fill="#DADBE3">0.53</text><text x="221.7" y="174.5" class="node" fill="#667FE1">0.93</text><text x="245.5" y="156.1" class="node" fill="#4A6FE3">1</text><text x="245.5" y="193" class="node" fill="#667FE1">0.93</text><text x="269.4" y="210.8" class="node" fill="#E5D0D3">0.44</text><text x="293.2" y="233.8" class="node" fill="#E07C92">0.17</text><text x="317.1" y="267.1" class="node" fill="#7A8DE1">0.87</text><text x="340.9" y="225.7" class="node" fill="#E4D9DB">0.47</text><text x="364.8" y="238.2" class="node" fill="#E4D9DB">0.47</text><text x="388.6" y="250.5" class="node" fill="#C7CBE3">0.6</text><text x="412.5" y="262.5" class="node" fill="#C7CBE3">0.6</text><text x="436.3" y="273.6" class="node" fill="#4A6FE3">1</text><text x="460.2" y="283.1" class="node" fill="#8696E1">0.83</text><text x="340.9" y="308.5" class="node" fill="#4A6FE3">1</text><text x="221.7" y="387.9" class="node" fill="#DADBE3">0.53</text><text x="245.5" y="337.1" class="node" fill="#DADBE3">0.53</text><text x="269.4" y="346.6" class="node" fill="#4A6FE3">1</text><text x="245.5" y="438.7" class="node" fill="#DADBE3">0.53</text><text x="269.4" y="378.3" class="node" fill="#E6B7C0">0.36</text><text x="293.2" y="391" class="node" fill="#9DA8E2">0.75</text><text x="317.1" y="403.7" class="node" fill="#C1C6E3">0.62</text><text x="340.9" y="416.3" class="node" fill="#DADBE3">0.53</text><text x="364.8" y="428.8" class="node" fill="#DADBE3">0.53</text><text x="388.6" y="441.1" class="node" fill="#DADBE3">0.53</text><text x="412.5" y="453" class="node" fill="#8F9DE1">0.8</text><text x="436.3" y="464.1" class="node" fill="#E59FAC">0.28</text><text x="460.2" y="473.6" class="node" fill="#4A6FE3">1</text><text x="269.4" y="499" class="node" fill="#9DA8E2">0.75</text><text x="174" y="524.4" class="node" fill="#4A6FE3">1</text><text x="30.9" y="576.8" class="node" fill="#4A6FE3">1</text><text x="54.7" y="562.5" class="node" fill="#4A6FE3">1</text><text x="54.7" y="591.1" class="node" fill="#4A6FE3">1</text><text x="78.6" y="600.6" class="node" fill="#7A8DE1">0.87</text></svg>
