<svg xmlns="http://www.w3.org/2000/svg" version="1.1" width="682" height="612" class="tree" data-char="90"><text x="678" y="15.4" text-anchor="end" class="stepsLabel">Character adds <tspan class="score">2</tspan> to tree score</text><text x="678" y="27.8" text-anchor="end" class="stepsLabel"><tspan class="score">1</tspan> additional region</text><text x="678" y="40.2" text-anchor="end" class="stepsLabel">CI = 0.5; Fitch CI = 0.5; Fitch RI = 0.75</text><text x="678" y="65" text-anchor="end" class="stepsLabel"><tspan dy="16">An optimal tree under:</tspan><tspan x="680" style="font-style:italic" class="thisAn" dy="1.2em">Equal weights</tspan><tspan x="680" style="font-style:italic" class="notThisAn" dy="1.2em">Implied weights, k = 2</tspan><tspan x="680" style="font-style:italic" class="notThisAn" dy="1.2em">IW, k = 3</tspan><tspan x="680" style="font-style:italic" class="notThisAn" dy="1.2em">IW, k = 4.5</tspan><tspan x="680" style="font-style:italic" class="notThisAn" dy="1.2em">IW, k = 7</tspan><tspan x="680" style="font-style:italic" class="notThisAn" dy="1.2em">IW, k = 10.5</tspan><tspan x="680" style="font-style:italic" class="notThisAn" dy="1.2em">IW, k = 16</tspan><tspan x="680" style="font-style:italic" class="notThisAn" dy="1.2em">IW, k = 24</tspan></text><text x="105.4" y="594.3" fill="lightgrey" class="flag">[-]</text><text x="127.4" y="594.3" fill="#ccc" class="taxonLabel">Dentalium</text><text x="105.4" y="607" fill="#e2e2a2" class="flag">[1]</text><text x="127.4" y="607" fill="#000" class="taxonLabel">Tonicella</text><text x="80.3" y="581.6" fill="lightgrey" class="flag">[-]</text><text x="102.3" y="581.6" fill="#ccc" class="taxonLabel">Wiwaxia corrugata</text><text x="80.3" y="556.2" fill="lightgrey" class="flag">[-]</text><text x="102.3" y="556.2" fill="#ccc" class="taxonLabel">Sipunculus</text><text x="80.3" y="568.9" fill="lightgrey" class="flag">[-]</text><text x="102.3" y="568.9" fill="#ccc" class="taxonLabel">Serpula</text><text x="205.8" y="518.1" fill="lightgrey" class="flag">[-]</text><text x="227.8" y="518.1" fill="#ccc" class="taxonLabel">Phoronis</text><text x="205.8" y="530.8" fill="lightgrey" class="flag">[-]</text><text x="227.8" y="530.8" fill="#ccc" class="taxonLabel">Namacalathus</text><text x="180.7" y="505.4" fill="lightgrey" class="flag">[-]</text><text x="202.7" y="505.4" fill="#ccc" class="taxonLabel">Cotyledion tylodes</text><text x="356.5" y="480" fill="#91bfdb" class="flag">[2]</text><text x="378.5" y="480" fill="#000" class="taxonLabel">Tomteluva perturbata</text><text x="356.5" y="492.7" fill="lightgrey" class="flag">[-]</text><text x="378.5" y="492.7" fill="#ccc" class="taxonLabel">Yuganotheca elegans</text><text x="331.4" y="467.3" fill="#91bfdb" class="flag">[2]</text><text x="353.4" y="467.3" fill="#000" class="taxonLabel">Salanygolina</text><text x="482" y="441.9" fill="lightgrey" class="flag">[-]</text><text x="504" y="441.9" fill="#ccc" class="taxonLabel">Terebratulina</text><text x="482" y="454.6" fill="#e2e2a2" class="flag">[1]</text><text x="504" y="454.6" fill="#000" class="taxonLabel">Orthis</text><text x="456.9" y="429.2" fill="#e2e2a2" class="flag">[1]</text><text x="478.9" y="429.2" fill="#000" class="taxonLabel">Alisina</text><text x="431.8" y="416.5" fill="lightgrey" class="flag">[-]</text><text x="453.8" y="416.5" fill="#ccc" class="taxonLabel">Longtancunella chengjiangensis</text><text x="406.7" y="403.8" fill="#e2e2a2" class="flag">[1]</text><text x="428.7" y="403.8" fill="#000" class="taxonLabel">Glyptoria</text><text x="381.6" y="391.1" fill="#e2e2a2" class="flag">[1]</text><text x="403.6" y="391.1" fill="#000" class="taxonLabel">Nisusia sulcata</text><text x="356.5" y="378.4" fill="#91bfdb" class="flag">[2]</text><text x="378.5" y="378.4" fill="#000" class="taxonLabel">Kutorgina chengjiangensis</text><text x="356.5" y="353" fill="#91bfdb" class="flag">[2]</text><text x="378.5" y="353" fill="#000" class="taxonLabel">Coolinia pecten</text><text x="356.5" y="365.7" fill="#91bfdb" class="flag">[2]</text><text x="378.5" y="365.7" fill="#000" class="taxonLabel">Antigonambonites planus</text><text x="306.3" y="327.6" fill="lightgrey" class="flag">[-]</text><text x="328.3" y="327.6" fill="#ccc" class="taxonLabel">Askepasma toddense</text><text x="306.3" y="340.3" fill="lightgrey" class="flag">[-]</text><text x="328.3" y="340.3" fill="#ccc" class="taxonLabel">Micromitra</text><text x="306.3" y="302.1" fill="lightgrey" class="flag">[-]</text><text x="328.3" y="302.1" fill="#ccc" class="taxonLabel">Pedunculotheca diania</text><text x="306.3" y="314.9" fill="lightgrey" class="flag">[-]</text><text x="328.3" y="314.9" fill="#ccc" class="taxonLabel">Haplophrentis carinatus</text><text x="281.2" y="289.4" fill="lightgrey" class="flag">[-]</text><text x="303.2" y="289.4" fill="#ccc" class="taxonLabel">Paterimitra</text><text x="306.3" y="264" fill="grey" class="flag">[?]</text><text x="328.3" y="264" fill="#999" class="taxonLabel">Mummpikia nuda</text><text x="306.3" y="276.7" fill="lightgrey" class="flag">[-]</text><text x="328.3" y="276.7" fill="#ccc" class="taxonLabel">Pelagodiscus atlanticus</text><text x="456.9" y="238.6" fill="lightgrey" class="flag">[-]</text><text x="478.9" y="238.6" fill="#ccc" class="taxonLabel">Siphonobolus priscus</text><text x="456.9" y="251.3" fill="lightgrey" class="flag">[-]</text><text x="478.9" y="251.3" fill="#ccc" class="taxonLabel">Acanthotretella spinosa</text><text x="431.8" y="225.9" fill="lightgrey" class="flag">[-]</text><text x="453.8" y="225.9" fill="#ccc" class="taxonLabel">Lingulosacculus</text><text x="406.7" y="213.2" fill="lightgrey" class="flag">[-]</text><text x="428.7" y="213.2" fill="#ccc" class="taxonLabel">Clupeafumosus socialis</text><text x="381.6" y="200.5" fill="lightgrey" class="flag">[-]</text><text x="403.6" y="200.5" fill="#ccc" class="taxonLabel">Lingulellotreta malongensis</text><text x="356.5" y="187.8" fill="lightgrey" class="flag">[-]</text><text x="378.5" y="187.8" fill="#ccc" class="taxonLabel">Botsfordia</text><text x="331.4" y="175.1" fill="lightgrey" class="flag">[-]</text><text x="353.4" y="175.1" fill="#ccc" class="taxonLabel">Lingula</text><text x="306.3" y="162.4" fill="lightgrey" class="flag">[-]</text><text x="328.3" y="162.4" fill="#ccc" class="taxonLabel">Eoobolus</text><text x="331.4" y="137" fill="lightgrey" class="flag">[-]</text><text x="353.4" y="137" fill="#ccc" class="taxonLabel">Novocrania</text><text x="331.4" y="149.7" fill="lightgrey" class="flag">[-]</text><text x="353.4" y="149.7" fill="#ccc" class="taxonLabel">Craniops</text><text x="306.3" y="124.3" fill="lightgrey" class="flag">[-]</text><text x="328.3" y="124.3" fill="#ccc" class="taxonLabel">Ussunia</text><text x="281.2" y="111.6" fill="lightgrey" class="flag">[-]</text><text x="303.2" y="111.6" fill="#ccc" class="taxonLabel">Gasconsia</text><text x="256.1" y="86.2" fill="lightgrey" class="flag">[-]</text><text x="278.1" y="86.2" fill="#ccc" class="taxonLabel">Mickwitzia muralensis</text><text x="256.1" y="98.9" fill="lightgrey" class="flag">[-]</text><text x="278.1" y="98.9" fill="#ccc" class="taxonLabel">Heliomedusa orienta</text><text x="230.9" y="73.5" fill="lightgrey" class="flag">[-]</text><text x="252.9" y="73.5" fill="#ccc" class="taxonLabel">Micrina</text><text x="180.7" y="60.8" fill="lightgrey" class="flag">[-]</text><text x="202.7" y="60.8" fill="#ccc" class="taxonLabel">Halkieria evangelista</text><text x="130.5" y="48.1" fill="lightgrey" class="flag">[-]</text><text x="152.5" y="48.1" fill="#ccc" class="taxonLabel">Eccentrotheca</text><text x="105.4" y="35.4" fill="lightgrey" class="flag">[-]</text><text x="127.4" y="35.4" fill="#ccc" class="taxonLabel">Dailyatia</text><text x="105.4" y="10" fill="lightgrey" class="flag">[-]</text><text x="127.4" y="10" fill="#ccc" class="taxonLabel">Flustra</text><text x="105.4" y="22.7" fill="lightgrey" class="flag">[-]</text><text x="127.4" y="22.7" fill="#ccc" class="taxonLabel">Amathia</text><text x="55.2" y="543.5" fill="lightgrey" class="flag">[-]</text><text x="77.2" y="543.5" fill="#ccc" class="taxonLabel">Loxosomella</text><path d="M5,436.9V300H30.1M30.1,300V59.4H55.2M55.2,59.4V13.4H80.3M80.3,13.4V7H105.4M80.3,13.4V19.7H105.4M55.2,59.4V105.5H80.3M80.3,105.5V32.4H105.4M80.3,105.5V178.6H105.4M105.4,178.6V45.1H130.5M105.4,178.6V312H130.5M130.5,312V112.2H155.6M155.6,112.2V57.8H180.7M155.6,112.2V166.6H180.7M180.7,166.6V80H205.8M205.8,80V70.5H230.9M205.8,80V89.6H230.9M230.9,89.6V83.2H256.1M230.9,89.6V95.9H256.1M180.7,166.6V253.1H205.8M205.8,253.1V169.7H230.9M230.9,169.7V119.7H256.1M256.1,119.7V108.6H281.2M256.1,119.7V130.8H281.2M281.2,130.8V121.3H306.3M281.2,130.8V140.4H306.3M306.3,140.4V134H331.4M306.3,140.4V146.7H331.4M230.9,169.7V219.7H256.1M256.1,219.7V172H281.2M281.2,172V159.4H306.3M281.2,172V184.6H306.3M306.3,184.6V172.1H331.4M306.3,184.6V197.1H331.4M331.4,197.1V184.8H356.5M331.4,197.1V209.4H356.5M356.5,209.4V197.5H381.6M356.5,209.4V221.3H381.6M381.6,221.3V210.2H406.7M381.6,221.3V232.5H406.7M406.7,232.5V222.9H431.8M406.7,232.5V242H431.8M431.8,242V235.6H456.9M431.8,242V248.3H456.9M256.1,219.7V267.4H281.2M281.2,267.4V261H306.3M281.2,267.4V273.7H306.3M205.8,253.1V336.4H230.9M230.9,336.4V296H256.1M256.1,296V286.4H281.2M256.1,296V305.5H281.2M281.2,305.5V299.1H306.3M281.2,305.5V311.9H306.3M230.9,336.4V376.9H256.1M256.1,376.9V330.9H281.2M281.2,330.9V324.6H306.3M281.2,330.9V337.3H306.3M406.7,424.6V413.5H431.8M456.9,445.2V438.9H482M331.4,483.3V489.7H356.5M130.5,312V511.9H155.6M155.6,511.9V502.4H180.7M155.6,511.9V521.4H180.7M180.7,521.4V515.1H205.8M180.7,521.4V527.8H205.8M30.1,300V540.5H55.2M5,436.9V573.8H30.1M30.1,573.8V559.5H55.2M55.2,559.5V553.2H80.3M55.2,559.5V565.9H80.3M30.1,573.8V588.1H55.2M55.2,588.1V578.6H80.3M55.2,588.1V597.6H80.3M80.3,597.6V591.3H105.4" stroke="lightgrey" class="inapplicable"></path><path d="M256.1,376.9V422.9H281.2M281.2,422.9V372.1H306.3M306.3,372.1V356.3H331.4M331.4,356.3V350H356.5M331.4,356.3V362.7H356.5M306.3,372.1V387.9H331.4M331.4,387.9V375.4H356.5M281.2,422.9V473.8H306.3M306.3,473.8V464.3H331.4M306.3,473.8V483.3H331.4M331.4,483.3V477H356.5" stroke="#91bfdb"></path><path d="M331.4,387.9V400.4H356.5M356.5,400.4V388.1H381.6M356.5,400.4V412.7H381.6M381.6,412.7V400.8H406.7M381.6,412.7V424.6H406.7M406.7,424.6V435.7H431.8M431.8,435.7V426.2H456.9M431.8,435.7V445.2H456.9M456.9,445.2V451.6H482M80.3,597.6V604H105.4" stroke="#e2e2a2"></path><text x="7" y="439.9" class="node" fill="#4A6FE3">1</text><text x="32.1" y="303" class="node" fill="#4A6FE3">1</text><text x="57.2" y="62.4" class="node" fill="#4A6FE3">1</text><text x="82.3" y="16.4" class="node" fill="#4A6FE3">1</text><text x="82.3" y="108.5" class="node" fill="#4A6FE3">1</text><text x="107.4" y="181.6" class="node" fill="#D54C71">0.03</text><text x="132.5" y="315" class="node" fill="#D4486F">0.02</text><text x="157.6" y="115.2" class="node" fill="#D2D4E3">0.56</text><text x="182.7" y="169.6" class="node" fill="#4A6FE3">1</text><text x="207.8" y="83" class="node" fill="#DDDEE3">0.52</text><text x="232.9" y="92.6" class="node" fill="#DDDEE3">0.52</text><text x="207.8" y="256.1" class="node" fill="#DDDEE3">0.52</text><text x="232.9" y="172.7" class="node" fill="#C1C6E3">0.62</text><text x="258.1" y="122.7" class="node" fill="#4A6FE3">1</text><text x="283.2" y="133.8" class="node" fill="#4A6FE3">1</text><text x="308.3" y="143.4" class="node" fill="#4A6FE3">1</text><text x="258.1" y="222.7" class="node" fill="#C1C6E3">0.62</text><text x="283.2" y="175" class="node" fill="#C7CBE3">0.6</text><text x="308.3" y="187.6" class="node" fill="#C7CBE3">0.6</text><text x="333.4" y="200.1" class="node" fill="#C7CBE3">0.6</text><text x="358.5" y="212.4" class="node" fill="#C1C6E3">0.62</text><text x="383.6" y="224.3" class="node" fill="#8394E1">0.84</text><text x="408.7" y="235.5" class="node" fill="#E38C9E">0.22</text><text x="433.8" y="245" class="node" fill="#4A6FE3">1</text><text x="283.2" y="270.4" class="node" fill="#C4C9E3">0.61</text><text x="232.9" y="339.4" class="node" fill="#DDDEE3">0.52</text><text x="258.1" y="299" class="node" fill="#C7CBE3">0.6</text><text x="283.2" y="308.5" class="node" fill="#4A6FE3">1</text><text x="258.1" y="379.9" class="node" fill="#4A6FE3">1</text><text x="283.2" y="333.9" class="node" fill="#4A6FE3">1</text><text x="283.2" y="425.9" class="node" fill="#4A6FE3">1</text><text x="308.3" y="375.1" class="node" fill="#A8B1E2">0.71</text><text x="333.4" y="359.3" class="node" fill="#4A6FE3">1</text><text x="333.4" y="390.9" class="node" fill="#A8B1E2">0.71</text><text x="358.5" y="403.4" class="node" fill="#A8B1E2">0.71</text><text x="383.6" y="415.7" class="node" fill="#4A6FE3">1</text><text x="408.7" y="427.6" class="node" fill="#4A6FE3">1</text><text x="433.8" y="438.7" class="node" fill="#4A6FE3">1</text><text x="458.9" y="448.2" class="node" fill="#4A6FE3">1</text><text x="308.3" y="476.8" class="node" fill="#BFC4E3">0.63</text><text x="333.4" y="486.3" class="node" fill="#BCC2E3">0.64</text><text x="157.6" y="514.9" class="node" fill="#E5C7CC">0.41</text><text x="182.7" y="524.4" class="node" fill="#4A6FE3">1</text><text x="32.1" y="576.8" class="node" fill="#4A6FE3">1</text><text x="57.2" y="562.5" class="node" fill="#4A6FE3">1</text><text x="57.2" y="591.1" class="node" fill="#4A6FE3">1</text><text x="82.3" y="600.6" class="node" fill="#C1C6E3">0.62</text></svg>
