<svg xmlns="http://www.w3.org/2000/svg" version="1.1" width="682" height="555" class="tree" char="3">
 <text x="678" y="17.7" text-anchor="end" class="stepsLabel">Character adds <tspan class="score">1</tspan> to tree score</text>
 <text x="678" y="32.4" text-anchor="end" class="stepsLabel"><tspan class="score"></tspan> additional region</text>
 <text x="678" y="47.1" text-anchor="end" class="stepsLabel">CI = 1; Fitch CI = 1; Fitch RI = 1</text>
 <text x="678" y="76.5" text-anchor="end" class="stepsLabel"><tspan dy="16">An optimal tree under:</tspan><tspan x="680" style="font-style:italic" class="thisAn" dy="1.2em">Equal weights</tspan><tspan x="680" style="font-style:italic" class="notThisAn" dy="1.2em">Implied weights, k = 2</tspan><tspan x="680" style="font-style:italic" class="notThisAn" dy="1.2em">IW, k = 3</tspan><tspan x="680" style="font-style:italic" class="notThisAn" dy="1.2em">IW, k = 4.5</tspan><tspan x="680" style="font-style:italic" class="notThisAn" dy="1.2em">IW, k = 7</tspan><tspan x="680" style="font-style:italic" class="notThisAn" dy="1.2em">IW, k = 10.5</tspan><tspan x="680" style="font-style:italic" class="notThisAn" dy="1.2em">IW, k = 16</tspan><tspan x="680" style="font-style:italic" class="notThisAn" dy="1.2em">IW, k = 24</tspan></text>
 <text x="35.1" y="8" fill="#fc8d59" class="flag">[0]</text>
 <text x="55.1" y="8" class="taxonLabel">Dailyatia</text>
 <text x="91.2" y="38.3" fill="#fc8d59" class="flag">[0]</text>
 <text x="111.2" y="38.3" class="taxonLabel">Eccentrotheca</text>
 <text x="91.2" y="23.1" fill="lightgrey" class="flag">[-]</text>
 <text x="111.2" y="23.1" class="taxonLabel">Phoronis</text>
 <text x="91.2" y="53.4" fill="#fc8d59" class="flag">[0]</text>
 <text x="111.2" y="53.4" class="taxonLabel">Paterimitra</text>
 <text x="147.3" y="83.7" fill="#91bfdb" class="flag">[1]</text>
 <text x="167.3" y="83.7" class="taxonLabel">Pedunculotheca diania</text>
 <text x="147.3" y="68.6" fill="grey" class="flag">[01]</text>
 <text x="167.3" y="68.6" class="taxonLabel">Haplophrentis carinatus</text>
 <text x="203.4" y="310.8" fill="#91bfdb" class="flag">[1]</text>
 <text x="223.4" y="310.8" class="taxonLabel">Gasconsia</text>
 <text x="231.5" y="325.9" fill="#91bfdb" class="flag">[1]</text>
 <text x="251.5" y="325.9" class="taxonLabel">Heliomedusa orienta</text>
 <text x="259.5" y="341.1" fill="#91bfdb" class="flag">[1]</text>
 <text x="279.5" y="341.1" class="taxonLabel">Ussunia</text>
 <text x="287.6" y="371.3" fill="#91bfdb" class="flag">[1]</text>
 <text x="307.6" y="371.3" class="taxonLabel">Craniops</text>
 <text x="287.6" y="356.2" fill="#91bfdb" class="flag">[1]</text>
 <text x="307.6" y="356.2" class="taxonLabel">Novocrania</text>
 <text x="203.4" y="386.5" fill="#91bfdb" class="flag">[1]</text>
 <text x="223.4" y="386.5" class="taxonLabel">Pelagodiscus atlanticus</text>
 <text x="231.5" y="401.6" fill="#91bfdb" class="flag">[1]</text>
 <text x="251.5" y="401.6" class="taxonLabel">Mickwitzia muralensis</text>
 <text x="259.5" y="416.8" fill="#91bfdb" class="flag">[1]</text>
 <text x="279.5" y="416.8" class="taxonLabel">Micrina</text>
 <text x="287.6" y="431.9" fill="#91bfdb" class="flag">[1]</text>
 <text x="307.6" y="431.9" class="taxonLabel">Lingula</text>
 <text x="315.6" y="447" fill="#91bfdb" class="flag">[1]</text>
 <text x="335.6" y="447" class="taxonLabel">Eoobolus</text>
 <text x="343.7" y="462.2" fill="#91bfdb" class="flag">[1]</text>
 <text x="363.7" y="462.2" class="taxonLabel">Mummpikia nuda</text>
 <text x="371.8" y="477.3" fill="#91bfdb" class="flag">[1]</text>
 <text x="391.8" y="477.3" class="taxonLabel">Botsfordia</text>
 <text x="427.9" y="507.6" fill="#91bfdb" class="flag">[1]</text>
 <text x="447.9" y="507.6" class="taxonLabel">Lingulosacculus</text>
 <text x="399.8" y="492.4" fill="#91bfdb" class="flag">[1]</text>
 <text x="419.8" y="492.4" class="taxonLabel">Lingulellotreta malongensis</text>
 <text x="455.9" y="522.7" fill="#91bfdb" class="flag">[1]</text>
 <text x="475.9" y="522.7" class="taxonLabel">Clupeafumosus socialis</text>
 <text x="484" y="553" fill="#91bfdb" class="flag">[1]</text>
 <text x="504" y="553" class="taxonLabel">Acanthotretella spinosa</text>
 <text x="484" y="537.9" fill="#91bfdb" class="flag">[1]</text>
 <text x="504" y="537.9" class="taxonLabel">Siphonobolus priscus</text>
 <text x="203.4" y="114" fill="#91bfdb" class="flag">[1]</text>
 <text x="223.4" y="114" class="taxonLabel">Askepasma toddense</text>
 <text x="203.4" y="98.8" fill="#91bfdb" class="flag">[1]</text>
 <text x="223.4" y="98.8" class="taxonLabel">Micromitra</text>
 <text x="231.5" y="129.1" fill="#91bfdb" class="flag">[1]</text>
 <text x="251.5" y="129.1" class="taxonLabel">Salanygolina</text>
 <text x="259.5" y="144.2" fill="#91bfdb" class="flag">[1]</text>
 <text x="279.5" y="144.2" class="taxonLabel">Tomteluva perturbata</text>
 <text x="259.5" y="159.4" fill="#91bfdb" class="flag">[1]</text>
 <text x="279.5" y="159.4" class="taxonLabel">Yuganotheca elegans</text>
 <text x="287.6" y="189.7" fill="#91bfdb" class="flag">[1]</text>
 <text x="307.6" y="189.7" class="taxonLabel">Kutorgina chengjiangensis</text>
 <text x="315.6" y="204.8" fill="#91bfdb" class="flag">[1]</text>
 <text x="335.6" y="204.8" class="taxonLabel">Nisusia sulcata</text>
 <text x="343.7" y="219.9" fill="#91bfdb" class="flag">[1]</text>
 <text x="363.7" y="219.9" class="taxonLabel">Glyptoria</text>
 <text x="231.5" y="174.5" fill="#91bfdb" class="flag">[1]</text>
 <text x="251.5" y="174.5" class="taxonLabel">Longtancunella chengjiangensis</text>
 <text x="371.8" y="235.1" fill="#91bfdb" class="flag">[1]</text>
 <text x="391.8" y="235.1" class="taxonLabel">Alisina</text>
 <text x="399.8" y="265.4" fill="#91bfdb" class="flag">[1]</text>
 <text x="419.8" y="265.4" class="taxonLabel">Orthis</text>
 <text x="399.8" y="250.2" fill="#91bfdb" class="flag">[1]</text>
 <text x="419.8" y="250.2" class="taxonLabel">Terebratulina</text>
 <text x="287.6" y="295.6" fill="#91bfdb" class="flag">[1]</text>
 <text x="307.6" y="295.6" class="taxonLabel">Coolinia pecten</text>
 <text x="287.6" y="280.5" fill="#91bfdb" class="flag">[1]</text>
 <text x="307.6" y="280.5" class="taxonLabel">Antigonambonites planus</text>
 <path d="M5,35.9V5H33.1M5,35.9V66.7H33.1M33.1,66.7V27.7H61.1M61.1,27.7V35.3H89.2M33.1,66.7V105.8H61.1M61.1,105.8V50.4H89.2" stroke="#fc8d59"></path>
 <path d="M61.1,27.7V20.1H89.2" stroke="lightgrey" class="inapplicable"></path>
 <path d="M61.1,105.8V161.1H89.2M89.2,161.1V73.1H117.2M117.2,73.1V65.6H145.3M117.2,73.1V80.7H145.3M89.2,161.1V249.1H117.2M117.2,249.1V137.9H145.3M145.3,137.9V103.4H173.4M173.4,103.4V95.8H201.4M173.4,103.4V111H201.4M145.3,137.9V172.4H173.4M173.4,172.4V137.5H201.4M201.4,137.5V126.1H229.5M201.4,137.5V148.8H229.5M229.5,148.8V141.2H257.5M229.5,148.8V156.4H257.5M173.4,172.4V207.4H201.4M201.4,207.4V171.5H229.5M201.4,207.4V243.2H229.5M229.5,243.2V201.3H257.5M257.5,201.3V186.7H285.6M257.5,201.3V216H285.6M285.6,216V201.8H313.6M285.6,216V230.2H313.6M313.6,230.2V216.9H341.7M313.6,230.2V243.4H341.7M341.7,243.4V232.1H369.8M341.7,243.4V254.8H369.8M369.8,254.8V247.2H397.8M369.8,254.8V262.4H397.8M229.5,243.2V285.1H257.5M257.5,285.1V277.5H285.6M257.5,285.1V292.6H285.6M117.2,249.1V360.3H145.3M145.3,360.3V322H173.4M173.4,322V307.8H201.4M173.4,322V336.2H201.4M201.4,336.2V322.9H229.5M201.4,336.2V349.4H229.5M229.5,349.4V338.1H257.5M229.5,349.4V360.8H257.5M257.5,360.8V353.2H285.6M257.5,360.8V368.3H285.6M145.3,360.3V398.6H173.4M173.4,398.6V383.5H201.4M173.4,398.6V413.7H201.4M201.4,413.7V398.6H229.5M201.4,413.7V428.9H229.5M229.5,428.9V413.8H257.5M229.5,428.9V444H257.5M257.5,444V428.9H285.6M257.5,444V459H285.6M285.6,459V444H313.6M285.6,459V474.1H313.6M313.6,474.1V459.2H341.7M313.6,474.1V489H341.7M341.7,489V474.3H369.8M341.7,489V503.6H369.8M369.8,503.6V489.4H397.8M369.8,503.6V517.8H397.8M397.8,517.8V504.6H425.9M397.8,517.8V531.1H425.9M425.9,531.1V519.7H453.9M425.9,531.1V542.4H453.9M453.9,542.4V534.9H482M453.9,542.4V550H482" stroke="#91bfdb"></path></svg>
