<svg xmlns="http://www.w3.org/2000/svg" version="1.1" width="682" height="682" class="tree" data-char="13"><text x="678" y="15.6" text-anchor="end" class="stepsLabel">Character adds <tspan class="score">2</tspan> to tree score</text><text x="678" y="28.2" text-anchor="end" class="stepsLabel"><tspan class="score">2</tspan> additional regions</text><text x="678" y="40.8" text-anchor="end" class="stepsLabel">CI = 0.5; Fitch CI = 1; Fitch RI = 1</text><text x="678" y="66" text-anchor="end" class="stepsLabel"><tspan dy="16" fill="#34caaf">An optimal tree under:</tspan><tspan x="680" style="font-style:italic" class="thisAn" dy="1.2em">Equal weights</tspan><tspan x="680" style="font-style:italic" class="notThisAn" dy="1.2em">Implied weights, k = 2</tspan><tspan x="680" style="font-style:italic" class="notThisAn" dy="1.2em">IW, k = 3</tspan><tspan x="680" style="font-style:italic" class="notThisAn" dy="1.2em">IW, k = 4.5</tspan><tspan x="680" style="font-style:italic" class="notThisAn" dy="1.2em">IW, k = 7</tspan><tspan x="680" style="font-style:italic" class="notThisAn" dy="1.2em">IW, k = 10.5</tspan><tspan x="680" style="font-style:italic" class="notThisAn" dy="1.2em">IW, k = 16</tspan><tspan x="680" style="font-style:italic" class="notThisAn" dy="1.2em">IW, k = 24</tspan></text><text x="100.4" y="664.2" fill="lightgrey" class="flag">[-]</text><text x="122.4" y="664.2" fill="#ccc" class="taxonLabel">Dentalium</text><text x="100.4" y="677" fill="#e2e2a2" class="flag">[1]</text><text x="122.4" y="677" fill="#000" class="taxonLabel">Tonicella</text><text x="76.6" y="651.3" fill="#e2e2a2" class="flag">[1]</text><text x="98.6" y="651.3" fill="#000" class="taxonLabel">Wiwaxia corrugata</text><text x="76.6" y="625.7" fill="#e2e2a2" class="flag">[1]</text><text x="98.6" y="625.7" fill="#000" class="taxonLabel">Serpula</text><text x="76.6" y="638.5" fill="lightgrey" class="flag">[-]</text><text x="98.6" y="638.5" fill="#ccc" class="taxonLabel">Sipunculus</text><text x="482" y="587.2" fill="grey" class="flag">[?]</text><text x="504" y="587.2" fill="#999" class="taxonLabel">Acanthotretella spinosa</text><text x="482" y="600" fill="grey" class="flag">[?]</text><text x="504" y="600" fill="#999" class="taxonLabel">Siphonobolus priscus</text><text x="458.2" y="574.4" fill="grey" class="flag">[?]</text><text x="480.2" y="574.4" fill="#999" class="taxonLabel">Clupeafumosus socialis</text><text x="434.3" y="561.6" fill="grey" class="flag">[?]</text><text x="456.3" y="561.6" fill="#999" class="taxonLabel">Lingulosacculus</text><text x="410.5" y="548.7" fill="grey" class="flag">[?]</text><text x="432.5" y="548.7" fill="#999" class="taxonLabel">Lingulellotreta malongensis</text><text x="410.5" y="523.1" fill="grey" class="flag">[?]</text><text x="432.5" y="523.1" fill="#999" class="taxonLabel">Mummpikia nuda</text><text x="410.5" y="535.9" fill="#91bfdb" class="flag">[2]</text><text x="432.5" y="535.9" fill="#000" class="taxonLabel">Pelagodiscus atlanticus</text><text x="362.8" y="510.2" fill="grey" class="flag">[?]</text><text x="384.8" y="510.2" fill="#999" class="taxonLabel">Botsfordia</text><text x="338.9" y="497.4" fill="grey" class="flag">[?]</text><text x="360.9" y="497.4" fill="#999" class="taxonLabel">Eoobolus</text><text x="315.1" y="484.6" fill="#91bfdb" class="flag">[2]</text><text x="337.1" y="484.6" fill="#000" class="taxonLabel">Lingula</text><text x="410.5" y="458.9" fill="lightgrey" class="flag">[-]</text><text x="432.5" y="458.9" fill="#ccc" class="taxonLabel">Novocrania</text><text x="410.5" y="471.8" fill="grey" class="flag">[?]</text><text x="432.5" y="471.8" fill="#999" class="taxonLabel">Craniops</text><text x="386.6" y="446.1" fill="grey" class="flag">[?]</text><text x="408.6" y="446.1" fill="#999" class="taxonLabel">Ussunia</text><text x="362.8" y="433.3" fill="grey" class="flag">[?]</text><text x="384.8" y="433.3" fill="#999" class="taxonLabel">Heliomedusa orienta</text><text x="338.9" y="420.5" fill="grey" class="flag">[?]</text><text x="360.9" y="420.5" fill="#999" class="taxonLabel">Mickwitzia muralensis</text><text x="338.9" y="394.8" fill="grey" class="flag">[?]</text><text x="360.9" y="394.8" fill="#999" class="taxonLabel">Gasconsia</text><text x="338.9" y="407.6" fill="grey" class="flag">[?]</text><text x="360.9" y="407.6" fill="#999" class="taxonLabel">Micromitra</text><text x="482" y="369.2" fill="#91bfdb" class="flag">[2]</text><text x="504" y="369.2" fill="#000" class="taxonLabel">Terebratulina</text><text x="482" y="382" fill="grey" class="flag">[?]</text><text x="504" y="382" fill="#999" class="taxonLabel">Alisina</text><text x="458.2" y="356.3" fill="grey" class="flag">[?]</text><text x="480.2" y="356.3" fill="#999" class="taxonLabel">Orthis</text><text x="434.3" y="343.5" fill="grey" class="flag">[?]</text><text x="456.3" y="343.5" fill="#999" class="taxonLabel">Glyptoria</text><text x="410.5" y="330.7" fill="grey" class="flag">[?]</text><text x="432.5" y="330.7" fill="#999" class="taxonLabel">Tomteluva perturbata</text><text x="410.5" y="305" fill="grey" class="flag">[?]</text><text x="432.5" y="305" fill="#999" class="taxonLabel">Kutorgina chengjiangensis</text><text x="410.5" y="317.8" fill="grey" class="flag">[?]</text><text x="432.5" y="317.8" fill="#999" class="taxonLabel">Nisusia sulcata</text><text x="434.3" y="279.4" fill="grey" class="flag">[?]</text><text x="456.3" y="279.4" fill="#999" class="taxonLabel">Coolinia pecten</text><text x="434.3" y="292.2" fill="grey" class="flag">[?]</text><text x="456.3" y="292.2" fill="#999" class="taxonLabel">Antigonambonites planus</text><text x="410.5" y="266.5" fill="grey" class="flag">[?]</text><text x="432.5" y="266.5" fill="#999" class="taxonLabel">Yuganotheca elegans</text><text x="386.6" y="253.7" fill="grey" class="flag">[?]</text><text x="408.6" y="253.7" fill="#999" class="taxonLabel">Longtancunella chengjiangensis</text><text x="338.9" y="240.9" fill="grey" class="flag">[?]</text><text x="360.9" y="240.9" fill="#999" class="taxonLabel">Salanygolina</text><text x="315.1" y="228.1" fill="grey" class="flag">[?]</text><text x="337.1" y="228.1" fill="#999" class="taxonLabel">Askepasma toddense</text><text x="291.2" y="215.2" fill="grey" class="flag">[?]</text><text x="313.2" y="215.2" fill="#999" class="taxonLabel">Micrina</text><text x="386.6" y="189.6" fill="grey" class="flag">[?]</text><text x="408.6" y="189.6" fill="#999" class="taxonLabel">Pauxillites</text><text x="386.6" y="202.4" fill="grey" class="flag">[?]</text><text x="408.6" y="202.4" fill="#999" class="taxonLabel">Maxilites</text><text x="362.8" y="176.8" fill="lightgrey" class="flag">[-]</text><text x="384.8" y="176.8" fill="#ccc" class="taxonLabel">Haplophrentis carinatus</text><text x="338.9" y="163.9" fill="grey" class="flag">[?]</text><text x="360.9" y="163.9" fill="#999" class="taxonLabel">Paramicrocornus</text><text x="315.1" y="151.1" fill="grey" class="flag">[?]</text><text x="337.1" y="151.1" fill="#999" class="taxonLabel">Bactrotheca</text><text x="291.2" y="138.3" fill="grey" class="flag">[?]</text><text x="313.2" y="138.3" fill="#999" class="taxonLabel">Conotheca</text><text x="267.4" y="125.4" fill="grey" class="flag">[?]</text><text x="289.4" y="125.4" fill="#999" class="taxonLabel">Pedunculotheca diania</text><text x="219.7" y="112.6" fill="grey" class="flag">[?]</text><text x="241.7" y="112.6" fill="#999" class="taxonLabel">Paterimitra</text><text x="195.8" y="99.8" fill="grey" class="flag">[?]</text><text x="217.8" y="99.8" fill="#999" class="taxonLabel">Halkieria evangelista</text><text x="172" y="87" fill="grey" class="flag">[?]</text><text x="194" y="87" fill="#999" class="taxonLabel">Dailyatia</text><text x="148.1" y="74.1" fill="lightgrey" class="flag">[-]</text><text x="170.1" y="74.1" fill="#ccc" class="taxonLabel">Cotyledion tylodes</text><text x="124.2" y="61.3" fill="grey" class="flag">[?]</text><text x="146.2" y="61.3" fill="#999" class="taxonLabel">Eccentrotheca</text><text x="124.2" y="35.7" fill="lightgrey" class="flag">[-]</text><text x="146.2" y="35.7" fill="#ccc" class="taxonLabel">Phoronis</text><text x="124.2" y="48.5" fill="lightgrey" class="flag">[-]</text><text x="146.2" y="48.5" fill="#ccc" class="taxonLabel">Namacalathus</text><text x="100.4" y="10" fill="lightgrey" class="flag">[-]</text><text x="122.4" y="10" fill="#ccc" class="taxonLabel">Flustra</text><text x="100.4" y="22.8" fill="#91bfdb" class="flag">[2]</text><text x="122.4" y="22.8" fill="#000" class="taxonLabel">Amathia</text><text x="52.7" y="612.9" fill="lightgrey" class="flag">[-]</text><text x="74.7" y="612.9" fill="#ccc" class="taxonLabel">Loxosomella</text><path d="M5,483V322.5H28.9M28.9,322.5V35.1H52.7M52.7,35.1V13.4H76.6M76.6,13.4V7H100.4M52.7,35.1V56.7H76.6M76.6,56.7V39.1H100.4M100.4,39.1V32.7H124.2M100.4,39.1V45.5H124.2M76.6,56.7V74.4H100.4M100.4,74.4V58.3H124.2M100.4,74.4V90.4H124.2M124.2,90.4V71.1H148.1M124.2,90.4V109.7H148.1M148.1,109.7V84H172M148.1,109.7V135.4H172M172,135.4V96.8H195.8M172,135.4V174H195.8M195.8,174V109.6H219.7M195.8,174V238.4H219.7M219.7,238.4V135.1H243.5M243.5,135.1V122.4H267.4M243.5,135.1V147.7H267.4M267.4,147.7V135.3H291.2M267.4,147.7V160.1H291.2M291.2,160.1V148.1H315.1M291.2,160.1V172.1H315.1M315.1,172.1V160.9H338.9M315.1,172.1V183.4H338.9M338.9,183.4V173.8H362.8M338.9,183.4V193H362.8M362.8,193V186.6H386.6M362.8,193V199.4H386.6M291.2,413.9V429.5H315.1M315.1,429.5V417.5H338.9M315.1,429.5V441.5H338.9M338.9,441.5V430.3H362.8M338.9,441.5V452.7H362.8M362.8,452.7V443.1H386.6M362.8,452.7V462.4H386.6M386.6,462.4V455.9H410.5M386.6,462.4V468.8H410.5M28.9,322.5V609.9H52.7M52.7,629.1V635.5H76.6M76.6,667.6V661.2H100.4" stroke="lightgrey" class="inapplicable"></path><path d="M76.6,13.4V19.8H100.4M219.7,238.4V341.7H243.5M243.5,341.7V228.7H267.4M267.4,228.7V212.2H291.2M267.4,228.7V245.3H291.2M291.2,245.3V225.1H315.1M291.2,245.3V265.4H315.1M315.1,265.4V237.9H338.9M315.1,265.4V293H338.9M338.9,293V261.9H362.8M362.8,261.9V250.7H386.6M362.8,261.9V273.2H386.6M386.6,273.2V263.5H410.5M386.6,273.2V282.8H410.5M410.5,282.8V276.4H434.3M410.5,282.8V289.2H434.3M338.9,293V324.1H362.8M362.8,324.1V308.4H386.6M386.6,308.4V302H410.5M386.6,308.4V314.8H410.5M362.8,324.1V339.7H386.6M386.6,339.7V327.7H410.5M386.6,339.7V351.7H410.5M410.5,351.7V340.5H434.3M410.5,351.7V362.9H434.3M434.3,362.9V353.3H458.2M434.3,362.9V372.6H458.2M458.2,372.6V366.2H482M458.2,372.6V379H482M243.5,341.7V454.7H267.4M267.4,454.7V413.9H291.2M291.2,413.9V398.2H315.1M315.1,398.2V391.8H338.9M315.1,398.2V404.6H338.9M267.4,454.7V495.6H291.2M291.2,495.6V481.6H315.1M291.2,495.6V509.6H315.1M315.1,509.6V494.4H338.9M315.1,509.6V524.7H338.9M338.9,524.7V507.2H362.8M338.9,524.7V542.1H362.8M362.8,542.1V526.5H386.6M386.6,526.5V520.1H410.5M386.6,526.5V532.9H410.5M362.8,542.1V557.8H386.6M386.6,557.8V545.7H410.5M386.6,557.8V569.8H410.5M410.5,569.8V558.6H434.3M410.5,569.8V581H434.3M434.3,581V571.4H458.2M434.3,581V590.6H458.2M458.2,590.6V584.2H482M458.2,590.6V597H482" stroke="#91bfdb"></path><path d="M5,483V643.5H28.9M28.9,643.5V629.1H52.7M52.7,629.1V622.7H76.6M28.9,643.5V658H52.7M52.7,658V648.3H76.6M52.7,658V667.6H76.6M76.6,667.6V674H100.4" stroke="#e2e2a2"></path><text x="7" y="486" class="node" fill="#4A6FE3">1</text><text x="30.9" y="325.5" class="node" fill="#4A6FE3">1</text><text x="54.7" y="38.1" class="node" fill="#4A6FE3">1</text><text x="78.6" y="16.4" class="node" fill="#4A6FE3">1</text><text x="78.6" y="59.7" class="node" fill="#4A6FE3">1</text><text x="102.4" y="42.1" class="node" fill="#E5D0D3">0.44</text><text x="102.4" y="77.4" class="node" fill="#9AA6E2">0.76</text><text x="126.2" y="93.4" class="node" fill="#E07C92">0.17</text><text x="150.1" y="112.7" class="node" fill="#9AA6E2">0.76</text><text x="174" y="138.4" class="node" fill="#9AA6E2">0.76</text><text x="197.8" y="177" class="node" fill="#4A6FE3">1</text><text x="221.7" y="241.4" class="node" fill="#4A6FE3">1</text><text x="245.5" y="138.1" class="node" fill="#4A6FE3">1</text><text x="269.4" y="150.7" class="node" fill="#9AA6E2">0.76</text><text x="293.2" y="163.1" class="node" fill="#E392A2">0.24</text><text x="317.1" y="175.1" class="node" fill="#4A6FE3">1</text><text x="340.9" y="186.4" class="node" fill="#4A6FE3">1</text><text x="364.8" y="196" class="node" fill="#4A6FE3">1</text><text x="245.5" y="344.7" class="node" fill="#9AA6E2">0.76</text><text x="269.4" y="231.7" class="node" fill="#E07C92">0.17</text><text x="293.2" y="248.3" class="node" fill="#D7D9E3">0.54</text><text x="317.1" y="268.4" class="node" fill="#9AA6E2">0.76</text><text x="340.9" y="296" class="node" fill="#E4D6D8">0.46</text><text x="364.8" y="264.9" class="node" fill="#D4486F">0.02</text><text x="388.6" y="276.2" class="node" fill="#D4486F">0.02</text><text x="412.5" y="285.8" class="node" fill="#4A6FE3">1</text><text x="364.8" y="327.1" class="node" fill="#D64F73">0.04</text><text x="388.6" y="311.4" class="node" fill="#CFD2E3">0.58</text><text x="388.6" y="342.7" class="node" fill="#DD6F88">0.13</text><text x="412.5" y="354.7" class="node" fill="#E3DFE0">0.49</text><text x="436.3" y="365.9" class="node" fill="#627DE1">0.94</text><text x="460.2" y="375.6" class="node" fill="#E2E2E2">0.5</text><text x="269.4" y="457.7" class="node" fill="#D7D9E3">0.54</text><text x="293.2" y="416.9" class="node" fill="#D7D9E3">0.54</text><text x="317.1" y="401.2" class="node" fill="#D7D9E3">0.54</text><text x="317.1" y="432.5" class="node" fill="#D7D9E3">0.54</text><text x="340.9" y="444.5" class="node" fill="#9AA6E2">0.76</text><text x="364.8" y="455.7" class="node" fill="#4A6FE3">1</text><text x="388.6" y="465.4" class="node" fill="#4A6FE3">1</text><text x="293.2" y="498.6" class="node" fill="#95A1E2">0.78</text><text x="317.1" y="512.6" class="node" fill="#E4D9DB">0.47</text><text x="340.9" y="527.7" class="node" fill="#E4D9DB">0.47</text><text x="364.8" y="545.1" class="node" fill="#E4D9DB">0.47</text><text x="388.6" y="529.5" class="node" fill="#DDDEE3">0.52</text><text x="388.6" y="560.8" class="node" fill="#E2E2E2">0.5</text><text x="412.5" y="572.8" class="node" fill="#9AA6E2">0.76</text><text x="436.3" y="584" class="node" fill="#E498A7">0.26</text><text x="460.2" y="593.6" class="node" fill="#4F72E2">0.99</text><text x="30.9" y="646.5" class="node" fill="#4A6FE3">1</text><text x="54.7" y="632.1" class="node" fill="#4A6FE3">1</text><text x="54.7" y="661" class="node" fill="#4A6FE3">1</text><text x="78.6" y="670.6" class="node" fill="#4A6FE3">1</text></svg>
