<svg xmlns="http://www.w3.org/2000/svg" version="1.1" width="682" height="555" class="tree" char="4">
 <text x="678" y="17.7" text-anchor="end" class="stepsLabel">Character adds <tspan class="score">5</tspan> to tree score</text>
 <text x="678" y="32.4" text-anchor="end" class="stepsLabel"><tspan class="score"></tspan> additional region</text>
 <text x="678" y="47.1" text-anchor="end" class="stepsLabel">CI = 0.2; Fitch CI = 0.2; Fitch RI = 0.64</text>
 <text x="678" y="76.5" text-anchor="end" class="stepsLabel"><tspan dy="16">An optimal tree under:</tspan><tspan x="680" style="font-style:italic" class="notThisAn" dy="1.2em">Equal weights</tspan><tspan x="680" style="font-style:italic" class="thisAn" dy="1.2em">Implied weights, k = 2</tspan><tspan x="680" style="font-style:italic" class="thisAn" dy="1.2em">IW, k = 3</tspan><tspan x="680" style="font-style:italic" class="notThisAn" dy="1.2em">IW, k = 4.5</tspan><tspan x="680" style="font-style:italic" class="notThisAn" dy="1.2em">IW, k = 7</tspan><tspan x="680" style="font-style:italic" class="notThisAn" dy="1.2em">IW, k = 10.5</tspan><tspan x="680" style="font-style:italic" class="notThisAn" dy="1.2em">IW, k = 16</tspan><tspan x="680" style="font-style:italic" class="notThisAn" dy="1.2em">IW, k = 24</tspan></text>
 <text x="33.5" y="8" fill="lightgrey" class="flag">[-]</text>
 <text x="53.5" y="8" class="taxonLabel">Dailyatia</text>
 <text x="86.5" y="38.3" fill="lightgrey" class="flag">[-]</text>
 <text x="106.5" y="38.3" class="taxonLabel">Eccentrotheca</text>
 <text x="60" y="23.1" fill="lightgrey" class="flag">[-]</text>
 <text x="80" y="23.1" class="taxonLabel">Phoronis</text>
 <text x="113" y="53.4" fill="#e2e2a2" class="flag">[1]</text>
 <text x="133" y="53.4" class="taxonLabel">Paterimitra</text>
 <text x="139.5" y="68.6" fill="#e2e2a2" class="flag">[1]</text>
 <text x="159.5" y="68.6" class="taxonLabel">Micrina</text>
 <text x="166" y="83.7" fill="#e2e2a2" class="flag">[1]</text>
 <text x="186" y="83.7" class="taxonLabel">Heliomedusa orienta</text>
 <text x="219" y="98.8" fill="#e2e2a2" class="flag">[1]</text>
 <text x="239" y="98.8" class="taxonLabel">Mickwitzia muralensis</text>
 <text x="245.5" y="129.1" fill="#e2e2a2" class="flag">[1]</text>
 <text x="265.5" y="129.1" class="taxonLabel">Haplophrentis carinatus</text>
 <text x="245.5" y="114" fill="#e2e2a2" class="flag">[1]</text>
 <text x="265.5" y="114" class="taxonLabel">Pedunculotheca diania</text>
 <text x="245.5" y="144.2" fill="#e2e2a2" class="flag">[1]</text>
 <text x="265.5" y="144.2" class="taxonLabel">Clupeafumosus socialis</text>
 <text x="272" y="159.4" fill="#e2e2a2" class="flag">[1]</text>
 <text x="292" y="159.4" class="taxonLabel">Lingulosacculus</text>
 <text x="325" y="189.7" fill="#e2e2a2" class="flag">[1]</text>
 <text x="345" y="189.7" class="taxonLabel">Siphonobolus priscus</text>
 <text x="325" y="174.5" fill="#e2e2a2" class="flag">[1]</text>
 <text x="345" y="174.5" class="taxonLabel">Acanthotretella spinosa</text>
 <text x="351.5" y="235.1" fill="#e2e2a2" class="flag">[1]</text>
 <text x="371.5" y="235.1" class="taxonLabel">Lingulellotreta malongensis</text>
 <text x="378" y="250.2" fill="#e2e2a2" class="flag">[1]</text>
 <text x="398" y="250.2" class="taxonLabel">Botsfordia</text>
 <text x="404.5" y="265.4" fill="#e2e2a2" class="flag">[1]</text>
 <text x="424.5" y="265.4" class="taxonLabel">Mummpikia nuda</text>
 <text x="404.5" y="280.5" fill="#e2e2a2" class="flag">[1]</text>
 <text x="424.5" y="280.5" class="taxonLabel">Eoobolus</text>
 <text x="351.5" y="219.9" fill="#e2e2a2" class="flag">[1]</text>
 <text x="371.5" y="219.9" class="taxonLabel">Pelagodiscus atlanticus</text>
 <text x="351.5" y="204.8" fill="#e2e2a2" class="flag">[1]</text>
 <text x="371.5" y="204.8" class="taxonLabel">Lingula</text>
 <text x="325" y="431.9" fill="#91bfdb" class="flag">[2]</text>
 <text x="345" y="431.9" class="taxonLabel">Salanygolina</text>
 <text x="351.5" y="462.2" fill="#e2e2a2" class="flag">[1]</text>
 <text x="371.5" y="462.2" class="taxonLabel">Tomteluva perturbata</text>
 <text x="351.5" y="447" fill="grey" class="flag">[?]</text>
 <text x="371.5" y="447" class="taxonLabel">Yuganotheca elegans</text>
 <text x="351.5" y="295.6" fill="grey" class="flag">[12]</text>
 <text x="371.5" y="295.6" class="taxonLabel">Kutorgina chengjiangensis</text>
 <text x="378" y="310.8" fill="#91bfdb" class="flag">[2]</text>
 <text x="398" y="310.8" class="taxonLabel">Nisusia sulcata</text>
 <text x="404.5" y="325.9" fill="#91bfdb" class="flag">[2]</text>
 <text x="424.5" y="325.9" class="taxonLabel">Glyptoria</text>
 <text x="431" y="341.1" fill="#91bfdb" class="flag">[2]</text>
 <text x="451" y="341.1" class="taxonLabel">Longtancunella chengjiangensis</text>
 <text x="457.5" y="356.2" fill="#91bfdb" class="flag">[2]</text>
 <text x="477.5" y="356.2" class="taxonLabel">Alisina</text>
 <text x="484" y="386.5" fill="#91bfdb" class="flag">[2]</text>
 <text x="504" y="386.5" class="taxonLabel">Orthis</text>
 <text x="484" y="371.3" fill="#e2e2a2" class="flag">[1]</text>
 <text x="504" y="371.3" class="taxonLabel">Terebratulina</text>
 <text x="351.5" y="416.8" fill="#91bfdb" class="flag">[2]</text>
 <text x="371.5" y="416.8" class="taxonLabel">Coolinia pecten</text>
 <text x="351.5" y="401.6" fill="#91bfdb" class="flag">[2]</text>
 <text x="371.5" y="401.6" class="taxonLabel">Antigonambonites planus</text>
 <text x="298.5" y="492.4" fill="#91bfdb" class="flag">[2]</text>
 <text x="318.5" y="492.4" class="taxonLabel">Micromitra</text>
 <text x="298.5" y="477.3" fill="#91bfdb" class="flag">[2]</text>
 <text x="318.5" y="477.3" class="taxonLabel">Askepasma toddense</text>
 <text x="272" y="507.6" fill="#91bfdb" class="flag">[2]</text>
 <text x="292" y="507.6" class="taxonLabel">Gasconsia</text>
 <text x="298.5" y="522.7" fill="#e2e2a2" class="flag">[1]</text>
 <text x="318.5" y="522.7" class="taxonLabel">Ussunia</text>
 <text x="325" y="553" fill="#e2e2a2" class="flag">[1]</text>
 <text x="345" y="553" class="taxonLabel">Craniops</text>
 <text x="325" y="537.9" fill="#91bfdb" class="flag">[2]</text>
 <text x="345" y="537.9" class="taxonLabel">Novocrania</text>
 <path d="M5,21.7V5H31.5M5,21.7V38.5H31.5M31.5,38.5V20.1H58M31.5,38.5V56.8H58M58,56.8V35.3H84.5" stroke="lightgrey" class="inapplicable"></path>
 <path d="M58,56.8V78.4H84.5M84.5,78.4V50.4H111M84.5,78.4V106.3H111M111,106.3V65.6H137.5M111,106.3V147.1H137.5M137.5,147.1V80.7H164M137.5,147.1V213.5H164M164,213.5V107.2H190.5M190.5,107.2V95.8H217M190.5,107.2V118.5H217M217,118.5V111H243.5M217,118.5V126.1H243.5M164,213.5V319.8H190.5M190.5,319.8V160.5H217M217,160.5V141.2H243.5M217,160.5V179.8H243.5M243.5,179.8V156.4H270M243.5,179.8V203.2H270M270,203.2V179.1H296.5M296.5,179.1V171.5H323M296.5,179.1V186.7H323M270,203.2V227.4H296.5M296.5,227.4V209.4H323M323,209.4V201.8H349.5M323,209.4V216.9H349.5M296.5,227.4V245.3H323M323,245.3V232.1H349.5M323,245.3V258.6H349.5M349.5,258.6V247.2H376M349.5,258.6V269.9H376M376,269.9V262.4H402.5M376,269.9V277.5H402.5M190.5,319.8V479H217M455.5,375.9V368.3H482M323,451.6V459.2H349.5M270,531.1V519.7H296.5M296.5,542.4V550H323" stroke="#e2e2a2"></path>
 <path d="M217,479V440.2H243.5M243.5,440.2V398.6H270M270,398.6V356.9H296.5M296.5,356.9V307.5H323M323,307.5V292.6H349.5M323,307.5V322.4H349.5M349.5,322.4V307.8H376M349.5,322.4V337.1H376M376,337.1V322.9H402.5M376,337.1V351.3H402.5M402.5,351.3V338.1H429M402.5,351.3V364.5H429M429,364.5V353.2H455.5M429,364.5V375.9H455.5M455.5,375.9V383.5H482M296.5,356.9V406.2H323M323,406.2V398.6H349.5M323,406.2V413.8H349.5M270,398.6V440.2H296.5M296.5,440.2V428.9H323M296.5,440.2V451.6H323M243.5,440.2V481.9H270M270,481.9V474.3H296.5M270,481.9V489.4H296.5M243.5,517.8V504.6H270M296.5,542.4V534.9H323" stroke="#91bfdb"></path>
 <path d="M323,451.6V444H349.5M217,479V517.8H243.5M243.5,517.8V531.1H270M270,531.1V542.4H296.5" stroke="darkgrey"></path></svg>
