<svg xmlns="http://www.w3.org/2000/svg" version="1.1" width="682" height="555" class="tree" char="1">
 <text x="678" y="17.7" text-anchor="end" class="stepsLabel">Character adds <tspan class="score">1</tspan> to tree score</text>
 <text x="678" y="32.4" text-anchor="end" class="stepsLabel"><tspan class="score"></tspan> additional region</text>
 <text x="678" y="47.1" text-anchor="end" class="stepsLabel">CI = 1; Fitch CI = 1; Fitch RI = n/a</text>
 <text x="678" y="76.5" text-anchor="end" class="stepsLabel"><tspan dy="16">An optimal tree under:</tspan><tspan x="680" style="font-style:italic" class="thisAn" dy="1.2em">Equal weights</tspan><tspan x="680" style="font-style:italic" class="notThisAn" dy="1.2em">Implied weights, k = 2</tspan><tspan x="680" style="font-style:italic" class="notThisAn" dy="1.2em">IW, k = 3</tspan><tspan x="680" style="font-style:italic" class="notThisAn" dy="1.2em">IW, k = 4.5</tspan><tspan x="680" style="font-style:italic" class="notThisAn" dy="1.2em">IW, k = 7</tspan><tspan x="680" style="font-style:italic" class="notThisAn" dy="1.2em">IW, k = 10.5</tspan><tspan x="680" style="font-style:italic" class="notThisAn" dy="1.2em">IW, k = 16</tspan><tspan x="680" style="font-style:italic" class="notThisAn" dy="1.2em">IW, k = 24</tspan></text>
 <text x="33.5" y="8" fill="#91bfdb" class="flag">[1]</text>
 <text x="53.5" y="8" class="taxonLabel">Dailyatia</text>
 <text x="86.5" y="38.3" fill="#91bfdb" class="flag">[1]</text>
 <text x="106.5" y="38.3" class="taxonLabel">Eccentrotheca</text>
 <text x="60" y="23.1" fill="#fc8d59" class="flag">[0]</text>
 <text x="80" y="23.1" class="taxonLabel">Phoronis</text>
 <text x="113" y="53.4" fill="#91bfdb" class="flag">[1]</text>
 <text x="133" y="53.4" class="taxonLabel">Paterimitra</text>
 <text x="166" y="83.7" fill="#91bfdb" class="flag">[1]</text>
 <text x="186" y="83.7" class="taxonLabel">Pedunculotheca diania</text>
 <text x="166" y="68.6" fill="#91bfdb" class="flag">[1]</text>
 <text x="186" y="68.6" class="taxonLabel">Haplophrentis carinatus</text>
 <text x="219" y="310.8" fill="#91bfdb" class="flag">[1]</text>
 <text x="239" y="310.8" class="taxonLabel">Gasconsia</text>
 <text x="245.5" y="325.9" fill="#91bfdb" class="flag">[1]</text>
 <text x="265.5" y="325.9" class="taxonLabel">Heliomedusa orienta</text>
 <text x="272" y="341.1" fill="#91bfdb" class="flag">[1]</text>
 <text x="292" y="341.1" class="taxonLabel">Ussunia</text>
 <text x="298.5" y="371.3" fill="#91bfdb" class="flag">[1]</text>
 <text x="318.5" y="371.3" class="taxonLabel">Craniops</text>
 <text x="298.5" y="356.2" fill="#91bfdb" class="flag">[1]</text>
 <text x="318.5" y="356.2" class="taxonLabel">Novocrania</text>
 <text x="219" y="386.5" fill="#91bfdb" class="flag">[1]</text>
 <text x="239" y="386.5" class="taxonLabel">Pelagodiscus atlanticus</text>
 <text x="245.5" y="401.6" fill="#91bfdb" class="flag">[1]</text>
 <text x="265.5" y="401.6" class="taxonLabel">Mickwitzia muralensis</text>
 <text x="272" y="416.8" fill="#91bfdb" class="flag">[1]</text>
 <text x="292" y="416.8" class="taxonLabel">Micrina</text>
 <text x="298.5" y="431.9" fill="#91bfdb" class="flag">[1]</text>
 <text x="318.5" y="431.9" class="taxonLabel">Lingula</text>
 <text x="325" y="447" fill="#91bfdb" class="flag">[1]</text>
 <text x="345" y="447" class="taxonLabel">Eoobolus</text>
 <text x="351.5" y="462.2" fill="#91bfdb" class="flag">[1]</text>
 <text x="371.5" y="462.2" class="taxonLabel">Mummpikia nuda</text>
 <text x="378" y="477.3" fill="#91bfdb" class="flag">[1]</text>
 <text x="398" y="477.3" class="taxonLabel">Botsfordia</text>
 <text x="431" y="507.6" fill="#91bfdb" class="flag">[1]</text>
 <text x="451" y="507.6" class="taxonLabel">Lingulosacculus</text>
 <text x="404.5" y="492.4" fill="#91bfdb" class="flag">[1]</text>
 <text x="424.5" y="492.4" class="taxonLabel">Lingulellotreta malongensis</text>
 <text x="457.5" y="522.7" fill="#91bfdb" class="flag">[1]</text>
 <text x="477.5" y="522.7" class="taxonLabel">Clupeafumosus socialis</text>
 <text x="484" y="553" fill="#91bfdb" class="flag">[1]</text>
 <text x="504" y="553" class="taxonLabel">Acanthotretella spinosa</text>
 <text x="484" y="537.9" fill="#91bfdb" class="flag">[1]</text>
 <text x="504" y="537.9" class="taxonLabel">Siphonobolus priscus</text>
 <text x="219" y="295.6" fill="#91bfdb" class="flag">[1]</text>
 <text x="239" y="295.6" class="taxonLabel">Askepasma toddense</text>
 <text x="219" y="280.5" fill="#91bfdb" class="flag">[1]</text>
 <text x="239" y="280.5" class="taxonLabel">Micromitra</text>
 <text x="219" y="98.8" fill="#91bfdb" class="flag">[1]</text>
 <text x="239" y="98.8" class="taxonLabel">Salanygolina</text>
 <text x="272" y="129.1" fill="#91bfdb" class="flag">[1]</text>
 <text x="292" y="129.1" class="taxonLabel">Tomteluva perturbata</text>
 <text x="245.5" y="114" fill="#91bfdb" class="flag">[1]</text>
 <text x="265.5" y="114" class="taxonLabel">Yuganotheca elegans</text>
 <text x="325" y="174.5" fill="#91bfdb" class="flag">[1]</text>
 <text x="345" y="174.5" class="taxonLabel">Kutorgina chengjiangensis</text>
 <text x="351.5" y="189.7" fill="#91bfdb" class="flag">[1]</text>
 <text x="371.5" y="189.7" class="taxonLabel">Nisusia sulcata</text>
 <text x="378" y="204.8" fill="#91bfdb" class="flag">[1]</text>
 <text x="398" y="204.8" class="taxonLabel">Glyptoria</text>
 <text x="404.5" y="219.9" fill="#91bfdb" class="flag">[1]</text>
 <text x="424.5" y="219.9" class="taxonLabel">Longtancunella chengjiangensis</text>
 <text x="431" y="235.1" fill="#91bfdb" class="flag">[1]</text>
 <text x="451" y="235.1" class="taxonLabel">Alisina</text>
 <text x="457.5" y="265.4" fill="#91bfdb" class="flag">[1]</text>
 <text x="477.5" y="265.4" class="taxonLabel">Orthis</text>
 <text x="457.5" y="250.2" fill="#91bfdb" class="flag">[1]</text>
 <text x="477.5" y="250.2" class="taxonLabel">Terebratulina</text>
 <text x="325" y="159.4" fill="#91bfdb" class="flag">[1]</text>
 <text x="345" y="159.4" class="taxonLabel">Coolinia pecten</text>
 <text x="325" y="144.2" fill="#91bfdb" class="flag">[1]</text>
 <text x="345" y="144.2" class="taxonLabel">Antigonambonites planus</text>
 <path d="M5,26.1V5H31.5M5,26.1V47.2H31.5M31.5,47.2V74.3H58M58,74.3V35.3H84.5M58,74.3V113.4H84.5M84.5,113.4V50.4H111M84.5,113.4V176.3H111M111,176.3V73.1H137.5M137.5,73.1V65.6H164M137.5,73.1V80.7H164M111,176.3V279.5H137.5M137.5,279.5V198.7H164M164,198.7V112.4H190.5M190.5,112.4V95.8H217M190.5,112.4V128.9H217M217,128.9V111H243.5M217,128.9V146.9H243.5M243.5,146.9V126.1H270M243.5,146.9V167.6H270M270,167.6V148.8H296.5M296.5,148.8V141.2H323M296.5,148.8V156.4H323M270,167.6V186.4H296.5M296.5,186.4V171.5H323M296.5,186.4V201.3H323M323,201.3V186.7H349.5M323,201.3V216H349.5M349.5,216V201.8H376M349.5,216V230.2H376M376,230.2V216.9H402.5M376,230.2V243.4H402.5M402.5,243.4V232.1H429M402.5,243.4V254.8H429M429,254.8V247.2H455.5M429,254.8V262.4H455.5M164,198.7V285.1H190.5M190.5,285.1V277.5H217M190.5,285.1V292.6H217M137.5,279.5V360.3H164M164,360.3V322H190.5M190.5,322V307.8H217M190.5,322V336.2H217M217,336.2V322.9H243.5M217,336.2V349.4H243.5M243.5,349.4V338.1H270M243.5,349.4V360.8H270M270,360.8V353.2H296.5M270,360.8V368.3H296.5M164,360.3V398.6H190.5M190.5,398.6V383.5H217M190.5,398.6V413.7H217M217,413.7V398.6H243.5M217,413.7V428.9H243.5M243.5,428.9V413.8H270M243.5,428.9V444H270M270,444V428.9H296.5M270,444V459H296.5M296.5,459V444H323M296.5,459V474.1H323M323,474.1V459.2H349.5M323,474.1V489H349.5M349.5,489V474.3H376M349.5,489V503.6H376M376,503.6V489.4H402.5M376,503.6V517.8H402.5M402.5,517.8V504.6H429M402.5,517.8V531.1H429M429,531.1V519.7H455.5M429,531.1V542.4H455.5M455.5,542.4V534.9H482M455.5,542.4V550H482" stroke="#91bfdb"></path>
 <path d="M31.5,47.2V20.1H58" stroke="#fc8d59"></path></svg>
