<svg xmlns="http://www.w3.org/2000/svg" version="1.1" width="682" height="612" class="tree" data-char="138"><text x="678" y="16" text-anchor="end" class="stepsLabel">Character adds <tspan class="score">2</tspan> to tree score</text><text x="678" y="29" text-anchor="end" class="stepsLabel"><tspan class="score">0</tspan> additional regions</text><text x="678" y="42" text-anchor="end" class="stepsLabel">CI = 0.5; Fitch CI = 0.5; Fitch RI = 0.5</text><text x="678" y="68" text-anchor="end" class="stepsLabel"><tspan dy="16">An optimal tree under:</tspan><tspan x="680" style="font-style:italic" class="thisAn" dy="1.2em">Equal weights</tspan><tspan x="680" style="font-style:italic" class="notThisAn" dy="1.2em">Implied weights, k = 2</tspan><tspan x="680" style="font-style:italic" class="notThisAn" dy="1.2em">IW, k = 3</tspan><tspan x="680" style="font-style:italic" class="notThisAn" dy="1.2em">IW, k = 4.5</tspan><tspan x="680" style="font-style:italic" class="notThisAn" dy="1.2em">IW, k = 7</tspan><tspan x="680" style="font-style:italic" class="notThisAn" dy="1.2em">IW, k = 10.5</tspan><tspan x="680" style="font-style:italic" class="notThisAn" dy="1.2em">IW, k = 16</tspan><tspan x="680" style="font-style:italic" class="notThisAn" dy="1.2em">IW, k = 24</tspan></text><text x="73.1" y="593.7" fill="#91bfdb" class="flag">[1]</text><text x="95.1" y="593.7" fill="#111" class="taxonLabel">Serpula</text><text x="73.1" y="607" fill="#91bfdb" class="flag">[1]</text><text x="95.1" y="607" fill="#111" class="taxonLabel">Sipunculus</text><text x="95.9" y="567.2" fill="grey" class="flag">[?]</text><text x="117.9" y="567.2" fill="grey" class="taxonLabel">Wiwaxia corrugata</text><text x="95.9" y="580.5" fill="#fc8d59" class="flag">[0]</text><text x="117.9" y="580.5" fill="#111" class="taxonLabel">Tonicella</text><text x="73.1" y="553.9" fill="#fc8d59" class="flag">[0]</text><text x="95.1" y="553.9" fill="#111" class="taxonLabel">Dentalium</text><text x="323" y="461.1" fill="grey" class="flag">[?]</text><text x="345" y="461.1" fill="grey" class="taxonLabel">Craniops</text><text x="323" y="474.3" fill="#fc8d59" class="flag">[0]</text><text x="345" y="474.3" fill="#111" class="taxonLabel">Novocrania</text><text x="300.3" y="447.8" fill="grey" class="flag">[?]</text><text x="322.3" y="447.8" fill="grey" class="taxonLabel">Ussunia</text><text x="277.6" y="434.5" fill="grey" class="flag">[?]</text><text x="299.6" y="434.5" fill="grey" class="taxonLabel">Gasconsia</text><text x="391.1" y="408" fill="grey" class="flag">[?]</text><text x="413.1" y="408" fill="grey" class="taxonLabel">Antigonambonites planus</text><text x="391.1" y="421.3" fill="grey" class="flag">[?]</text><text x="413.1" y="421.3" fill="grey" class="taxonLabel">Coolinia pecten</text><text x="482" y="381.5" fill="grey" class="flag">[?]</text><text x="504" y="381.5" fill="grey" class="taxonLabel">Orthis</text><text x="482" y="394.7" fill="grey" class="flag">[?]</text><text x="504" y="394.7" fill="grey" class="taxonLabel">Terebratulina</text><text x="459.3" y="368.2" fill="grey" class="flag">[?]</text><text x="481.3" y="368.2" fill="grey" class="taxonLabel">Alisina</text><text x="436.6" y="354.9" fill="grey" class="flag">[?]</text><text x="458.6" y="354.9" fill="grey" class="taxonLabel">Glyptoria</text><text x="413.9" y="341.7" fill="grey" class="flag">[?]</text><text x="435.9" y="341.7" fill="grey" class="taxonLabel">Nisusia sulcata</text><text x="391.1" y="328.4" fill="grey" class="flag">[?]</text><text x="413.1" y="328.4" fill="grey" class="taxonLabel">Kutorgina chengjiangensis</text><text x="345.7" y="315.1" fill="grey" class="flag">[?]</text><text x="367.7" y="315.1" fill="grey" class="taxonLabel">Longtancunella chengjiangensis</text><text x="345.7" y="288.6" fill="grey" class="flag">[?]</text><text x="367.7" y="288.6" fill="grey" class="taxonLabel">Yuganotheca elegans</text><text x="345.7" y="301.9" fill="grey" class="flag">[?]</text><text x="367.7" y="301.9" fill="grey" class="taxonLabel">Tomteluva perturbata</text><text x="300.3" y="275.3" fill="grey" class="flag">[?]</text><text x="322.3" y="275.3" fill="grey" class="taxonLabel">Salanygolina</text><text x="300.3" y="248.8" fill="grey" class="flag">[?]</text><text x="322.3" y="248.8" fill="grey" class="taxonLabel">Micromitra</text><text x="300.3" y="262.1" fill="grey" class="flag">[?]</text><text x="322.3" y="262.1" fill="grey" class="taxonLabel">Askepasma toddense</text><text x="413.9" y="222.3" fill="grey" class="flag">[?]</text><text x="435.9" y="222.3" fill="grey" class="taxonLabel">Siphonobolus priscus</text><text x="413.9" y="235.5" fill="grey" class="flag">[?]</text><text x="435.9" y="235.5" fill="grey" class="taxonLabel">Acanthotretella spinosa</text><text x="391.1" y="209" fill="grey" class="flag">[?]</text><text x="413.1" y="209" fill="grey" class="taxonLabel">Clupeafumosus socialis</text><text x="391.1" y="182.5" fill="grey" class="flag">[?]</text><text x="413.1" y="182.5" fill="grey" class="taxonLabel">Lingulosacculus</text><text x="391.1" y="195.7" fill="grey" class="flag">[?]</text><text x="413.1" y="195.7" fill="grey" class="taxonLabel">Lingulellotreta malongensis</text><text x="345.7" y="169.2" fill="grey" class="flag">[?]</text><text x="367.7" y="169.2" fill="grey" class="taxonLabel">Botsfordia</text><text x="323" y="155.9" fill="grey" class="flag">[?]</text><text x="345" y="155.9" fill="grey" class="taxonLabel">Mummpikia nuda</text><text x="300.3" y="142.7" fill="grey" class="flag">[?]</text><text x="322.3" y="142.7" fill="grey" class="taxonLabel">Eoobolus</text><text x="277.6" y="129.4" fill="#fc8d59" class="flag">[0]</text><text x="299.6" y="129.4" fill="#111" class="taxonLabel">Lingula</text><text x="300.3" y="102.9" fill="grey" class="flag">[?]</text><text x="322.3" y="102.9" fill="grey" class="taxonLabel">Pelagodiscus atlanticus</text><text x="300.3" y="116.1" fill="grey" class="flag">[?]</text><text x="322.3" y="116.1" fill="grey" class="taxonLabel">Mickwitzia muralensis</text><text x="277.6" y="89.6" fill="grey" class="flag">[?]</text><text x="299.6" y="89.6" fill="grey" class="taxonLabel">Micrina</text><text x="254.9" y="63.1" fill="grey" class="flag">[?]</text><text x="276.9" y="63.1" fill="grey" class="taxonLabel">Haplophrentis carinatus</text><text x="254.9" y="76.3" fill="grey" class="flag">[?]</text><text x="276.9" y="76.3" fill="grey" class="taxonLabel">Pedunculotheca diania</text><text x="232.1" y="49.8" fill="grey" class="flag">[?]</text><text x="254.1" y="49.8" fill="grey" class="taxonLabel">Paterimitra</text><text x="186.7" y="36.5" fill="grey" class="flag">[?]</text><text x="208.7" y="36.5" fill="grey" class="taxonLabel">Heliomedusa orienta</text><text x="186.7" y="10" fill="grey" class="flag">[?]</text><text x="208.7" y="10" fill="grey" class="taxonLabel">Dailyatia</text><text x="186.7" y="23.3" fill="grey" class="flag">[?]</text><text x="208.7" y="23.3" fill="grey" class="taxonLabel">Halkieria evangelista</text><text x="141.3" y="487.6" fill="grey" class="flag">[?]</text><text x="163.3" y="487.6" fill="grey" class="taxonLabel">Cotyledion tylodes</text><text x="118.6" y="500.9" fill="grey" class="flag">[?]</text><text x="140.6" y="500.9" fill="grey" class="taxonLabel">Eccentrotheca</text><text x="95.9" y="514.1" fill="#fc8d59" class="flag">[0]</text><text x="117.9" y="514.1" fill="#111" class="taxonLabel">Phoronis</text><text x="73.1" y="527.4" fill="#fc8d59" class="flag">[0]</text><text x="95.1" y="527.4" fill="#111" class="taxonLabel">Flustra</text><text x="50.4" y="540.7" fill="#91bfdb" class="flag">[1]</text><text x="72.4" y="540.7" fill="#111" class="taxonLabel">Loxosomella</text><path d="M5,545.4V511.7H27.7M5,545.4V579.1H27.7" stroke="darkgrey"></path><path d="M27.7,511.7V485.8H50.4M50.4,485.8V447.1H73.1M73.1,447.1V383.1H95.9M95.9,383.1V268.3H118.6M118.6,268.3V52.1H141.3M141.3,52.1V13.6H164M164,13.6V7H186.7M164,13.6V20.3H186.7M141.3,52.1V90.6H164M164,90.6V33.5H186.7M164,90.6V147.6H186.7M186.7,147.6V56.8H209.4M209.4,56.8V46.8H232.1M209.4,56.8V66.7H232.1M232.1,66.7V60.1H254.9M232.1,66.7V73.3H254.9M186.7,147.6V238.4H209.4M209.4,238.4V118.4H232.1M232.1,118.4V96.6H254.9M254.9,96.6V86.6H277.6M254.9,96.6V106.5H277.6M277.6,106.5V99.9H300.3M277.6,106.5V113.1H300.3M232.1,118.4V140.2H254.9M254.9,140.2V126.4H277.6M254.9,140.2V154H277.6M277.6,154V139.7H300.3M277.6,154V168.3H300.3M300.3,168.3V152.9H323M300.3,168.3V183.6H323M323,183.6V166.2H345.7M323,183.6V201H345.7M345.7,201V186.1H368.4M368.4,186.1V179.5H391.1M368.4,186.1V192.7H391.1M345.7,201V216H368.4M368.4,216V206H391.1M368.4,216V225.9H391.1M391.1,225.9V219.3H413.9M391.1,225.9V232.5H413.9M209.4,238.4V358.5H232.1M232.1,358.5V273.8H254.9M254.9,273.8V252.4H277.6M277.6,252.4V245.8H300.3M277.6,252.4V259.1H300.3M254.9,273.8V295.1H277.6M277.6,295.1V272.3H300.3M277.6,295.1V317.9H300.3M300.3,317.9V292.2H323M323,292.2V285.6H345.7M323,292.2V298.9H345.7M300.3,317.9V343.5H323M323,343.5V312.1H345.7M323,343.5V374.9H345.7M345.7,374.9V338.3H368.4M368.4,338.3V325.4H391.1M368.4,338.3V351.1H391.1M391.1,351.1V338.7H413.9M391.1,351.1V363.5H413.9M413.9,363.5V351.9H436.6M413.9,363.5V375.2H436.6M436.6,375.2V365.2H459.3M436.6,375.2V385.1H459.3M459.3,385.1V378.5H482M459.3,385.1V391.7H482M345.7,374.9V411.6H368.4M368.4,411.6V405H391.1M368.4,411.6V418.3H391.1M232.1,358.5V443.1H254.9M254.9,443.1V431.5H277.6M254.9,443.1V454.8H277.6M277.6,454.8V444.8H300.3M277.6,454.8V464.7H300.3M300.3,464.7V458.1H323M300.3,464.7V471.3H323M118.6,268.3V484.6H141.3M95.9,383.1V497.9H118.6M73.1,447.1V511.1H95.9M50.4,485.8V524.4H73.1M27.7,579.1V560.9H50.4M50.4,560.9V550.9H73.1M50.4,560.9V570.8H73.1M73.1,570.8V564.2H95.9M73.1,570.8V577.5H95.9" stroke="#fc8d59"></path><path d="M27.7,511.7V537.7H50.4M27.7,579.1V597.4H50.4M50.4,597.4V590.7H73.1M50.4,597.4V604H73.1" stroke="#91bfdb"></path><text x="7" y="548.4" class="node" fill="#4A6FE3">1</text><text x="29.7" y="514.7" class="node" fill="#8998E1">0.82</text><text x="52.4" y="488.8" class="node" fill="#8998E1">0.82</text><text x="75.1" y="450.1" class="node" fill="#8998E1">0.82</text><text x="97.9" y="386.1" class="node" fill="#8998E1">0.82</text><text x="120.6" y="271.3" class="node" fill="#E498A7">0.26</text><text x="143.3" y="55.1" class="node" fill="#9DA8E2">0.75</text><text x="166" y="16.6" class="node" fill="#667FE1">0.93</text><text x="166" y="93.6" class="node" fill="#4A6FE3">1</text><text x="188.7" y="150.6" class="node" fill="#5776E2">0.97</text><text x="211.4" y="59.8" class="node" fill="#8C9BE1">0.81</text><text x="234.1" y="69.7" class="node" fill="#4A6FE3">1</text><text x="211.4" y="241.4" class="node" fill="#5776E2">0.97</text><text x="234.1" y="121.4" class="node" fill="#8C9BE1">0.81</text><text x="256.9" y="99.6" class="node" fill="#8C9BE1">0.81</text><text x="279.6" y="109.5" class="node" fill="#8998E1">0.82</text><text x="256.9" y="143.2" class="node" fill="#8998E1">0.82</text><text x="279.6" y="157" class="node" fill="#8998E1">0.82</text><text x="302.3" y="171.3" class="node" fill="#8C9BE1">0.81</text><text x="325" y="186.6" class="node" fill="#8C9BE1">0.81</text><text x="347.7" y="204" class="node" fill="#8C9BE1">0.81</text><text x="370.4" y="189.1" class="node" fill="#E17F94">0.18</text><text x="370.4" y="219" class="node" fill="#D5D7E3">0.55</text><text x="393.1" y="228.9" class="node" fill="#4A6FE3">1</text><text x="234.1" y="361.5" class="node" fill="#4A6FE3">1</text><text x="256.9" y="276.8" class="node" fill="#7A8DE1">0.87</text><text x="279.6" y="255.4" class="node" fill="#4A6FE3">1</text><text x="279.6" y="298.1" class="node" fill="#5776E2">0.97</text><text x="302.3" y="320.9" class="node" fill="#E392A2">0.24</text><text x="325" y="295.2" class="node" fill="#5B78E2">0.96</text><text x="325" y="346.5" class="node" fill="#4A6FE3">1</text><text x="347.7" y="377.9" class="node" fill="#E5A5B1">0.3</text><text x="370.4" y="341.3" class="node" fill="#E5A5B1">0.3</text><text x="393.1" y="354.1" class="node" fill="#E5A5B1">0.3</text><text x="415.9" y="366.5" class="node" fill="#E5A5B1">0.3</text><text x="438.6" y="378.2" class="node" fill="#4A6FE3">1</text><text x="461.3" y="388.1" class="node" fill="#768BE1">0.88</text><text x="370.4" y="414.6" class="node" fill="#4A6FE3">1</text><text x="256.9" y="446.1" class="node" fill="#4A6FE3">1</text><text x="279.6" y="457.8" class="node" fill="#4A6FE3">1</text><text x="302.3" y="467.7" class="node" fill="#4A6FE3">1</text><text x="29.7" y="582.1" class="node" fill="#8998E1">0.82</text><text x="52.4" y="563.9" class="node" fill="#8998E1">0.82</text><text x="75.1" y="573.8" class="node" fill="#8998E1">0.82</text><text x="52.4" y="600.4" class="node" fill="#4A6FE3">1</text></svg>
