<svg xmlns="http://www.w3.org/2000/svg" version="1.1" width="682" height="555" class="tree" char="120">
 <text x="678" y="14.7" text-anchor="end" class="stepsLabel">Character adds <tspan class="score">2</tspan> to tree score</text>
 <text x="678" y="26.4" text-anchor="end" class="stepsLabel"><tspan class="score">0</tspan> additional regions</text>
 <text x="678" y="38.1" text-anchor="end" class="stepsLabel">CI = 0.5; Fitch CI = 0.5; Fitch RI = 0</text>
 <text x="678" y="61.5" text-anchor="end" class="stepsLabel"><tspan dy="16">An optimal tree under:</tspan><tspan x="680" style="font-style:italic" class="thisAn" dy="1.2em">Equal weights</tspan><tspan x="680" style="font-style:italic" class="notThisAn" dy="1.2em">Implied weights, k = 2</tspan><tspan x="680" style="font-style:italic" class="notThisAn" dy="1.2em">IW, k = 3</tspan><tspan x="680" style="font-style:italic" class="notThisAn" dy="1.2em">IW, k = 4.5</tspan><tspan x="680" style="font-style:italic" class="notThisAn" dy="1.2em">IW, k = 7</tspan></text>
 <text x="28.9" y="10" fill="#91bfdb" class="flag">[1]</text>
 <text x="50.9" y="10" class="taxonLabel">Dailyatia</text>
 <text x="124.2" y="46" fill="#91bfdb" class="flag">[1]</text>
 <text x="146.2" y="46" class="taxonLabel">Halkieria evangelista</text>
 <text x="52.7" y="22" fill="grey" class="flag">[?]</text>
 <text x="74.7" y="22" class="taxonLabel">Eccentrotheca</text>
 <text x="76.6" y="34" fill="#91bfdb" class="flag">[1]</text>
 <text x="98.6" y="34" class="taxonLabel">Cotyledion tylodes</text>
 <text x="124.2" y="466" fill="#91bfdb" class="flag">[1]</text>
 <text x="146.2" y="466" class="taxonLabel">Phoronis</text>
 <text x="148.1" y="478" fill="grey" class="flag">[?]</text>
 <text x="170.1" y="478" class="taxonLabel">Flustra</text>
 <text x="172" y="490" fill="grey" class="flag">[?]</text>
 <text x="194" y="490" class="taxonLabel">Loxosomella</text>
 <text x="219.7" y="502" fill="grey" class="flag">[?]</text>
 <text x="241.7" y="502" class="taxonLabel">Dentalium</text>
 <text x="243.5" y="514" fill="grey" class="flag">[?]</text>
 <text x="265.5" y="514" class="taxonLabel">Wiwaxia corrugata</text>
 <text x="243.5" y="526" fill="grey" class="flag">[?]</text>
 <text x="265.5" y="526" class="taxonLabel">Chiton</text>
 <text x="219.7" y="538" fill="grey" class="flag">[?]</text>
 <text x="241.7" y="538" class="taxonLabel">Serpula</text>
 <text x="219.7" y="550" fill="grey" class="flag">[?]</text>
 <text x="241.7" y="550" class="taxonLabel">Sipunculus</text>
 <text x="148.1" y="58" fill="grey" class="flag">[?]</text>
 <text x="170.1" y="58" class="taxonLabel">Heliomedusa orienta</text>
 <text x="195.8" y="70" fill="#91bfdb" class="flag">[1]</text>
 <text x="217.8" y="70" class="taxonLabel">Paterimitra</text>
 <text x="219.7" y="82" fill="grey" class="flag">[?]</text>
 <text x="241.7" y="82" class="taxonLabel">Haplophrentis carinatus</text>
 <text x="219.7" y="94" fill="grey" class="flag">[?]</text>
 <text x="241.7" y="94" class="taxonLabel">Pedunculotheca diania</text>
 <text x="267.4" y="106" fill="grey" class="flag">[?]</text>
 <text x="289.4" y="106" class="taxonLabel">Askepasma toddense</text>
 <text x="267.4" y="118" fill="grey" class="flag">[?]</text>
 <text x="289.4" y="118" class="taxonLabel">Micromitra</text>
 <text x="267.4" y="130" fill="#91bfdb" class="flag">[1]</text>
 <text x="289.4" y="130" class="taxonLabel">Salanygolina</text>
 <text x="315.1" y="154" fill="grey" class="flag">[?]</text>
 <text x="337.1" y="154" class="taxonLabel">Tomteluva perturbata</text>
 <text x="291.2" y="142" fill="grey" class="flag">[?]</text>
 <text x="313.2" y="142" class="taxonLabel">Yuganotheca elegans</text>
 <text x="434.3" y="202" fill="grey" class="flag">[?]</text>
 <text x="456.3" y="202" class="taxonLabel">Longtancunella chengjiangensis</text>
 <text x="362.8" y="166" fill="grey" class="flag">[?]</text>
 <text x="384.8" y="166" class="taxonLabel">Kutorgina chengjiangensis</text>
 <text x="386.6" y="178" fill="grey" class="flag">[?]</text>
 <text x="408.6" y="178" class="taxonLabel">Nisusia sulcata</text>
 <text x="410.5" y="190" fill="grey" class="flag">[?]</text>
 <text x="432.5" y="190" class="taxonLabel">Glyptoria</text>
 <text x="482" y="238" fill="grey" class="flag">[?]</text>
 <text x="504" y="238" class="taxonLabel">Orthis</text>
 <text x="482" y="226" fill="grey" class="flag">[?]</text>
 <text x="504" y="226" class="taxonLabel">Terebratulina</text>
 <text x="458.2" y="214" fill="grey" class="flag">[?]</text>
 <text x="480.2" y="214" class="taxonLabel">Alisina</text>
 <text x="362.8" y="250" fill="grey" class="flag">[?]</text>
 <text x="384.8" y="250" class="taxonLabel">Antigonambonites planus</text>
 <text x="362.8" y="262" fill="grey" class="flag">[?]</text>
 <text x="384.8" y="262" class="taxonLabel">Coolinia pecten</text>
 <text x="243.5" y="274" fill="grey" class="flag">[?]</text>
 <text x="265.5" y="274" class="taxonLabel">Gasconsia</text>
 <text x="267.4" y="286" fill="grey" class="flag">[?]</text>
 <text x="289.4" y="286" class="taxonLabel">Ussunia</text>
 <text x="291.2" y="298" fill="grey" class="flag">[?]</text>
 <text x="313.2" y="298" class="taxonLabel">Craniops</text>
 <text x="291.2" y="310" fill="grey" class="flag">[?]</text>
 <text x="313.2" y="310" class="taxonLabel">Novocrania</text>
 <text x="243.5" y="322" fill="grey" class="flag">[?]</text>
 <text x="265.5" y="322" class="taxonLabel">Micrina</text>
 <text x="267.4" y="346" fill="grey" class="flag">[?]</text>
 <text x="289.4" y="346" class="taxonLabel">Pelagodiscus atlanticus</text>
 <text x="267.4" y="334" fill="grey" class="flag">[?]</text>
 <text x="289.4" y="334" class="taxonLabel">Mickwitzia muralensis</text>
 <text x="243.5" y="358" fill="grey" class="flag">[?]</text>
 <text x="265.5" y="358" class="taxonLabel">Lingula</text>
 <text x="267.4" y="370" fill="grey" class="flag">[?]</text>
 <text x="289.4" y="370" class="taxonLabel">Eoobolus</text>
 <text x="291.2" y="382" fill="grey" class="flag">[?]</text>
 <text x="313.2" y="382" class="taxonLabel">Mummpikia nuda</text>
 <text x="315.1" y="394" fill="grey" class="flag">[?]</text>
 <text x="337.1" y="394" class="taxonLabel">Botsfordia</text>
 <text x="338.9" y="406" fill="grey" class="flag">[?]</text>
 <text x="360.9" y="406" class="taxonLabel">Lingulosacculus</text>
 <text x="362.8" y="418" fill="grey" class="flag">[?]</text>
 <text x="384.8" y="418" class="taxonLabel">Lingulellotreta malongensis</text>
 <text x="386.6" y="430" fill="#fc8d59" class="flag">[0]</text>
 <text x="408.6" y="430" class="taxonLabel">Clupeafumosus socialis</text>
 <text x="410.5" y="442" fill="#fc8d59" class="flag">[0]</text>
 <text x="432.5" y="442" class="taxonLabel">Siphonobolus priscus</text>
 <text x="410.5" y="454" fill="#91bfdb" class="flag">[1]</text>
 <text x="432.5" y="454" class="taxonLabel">Acanthotretella spinosa</text>
 <path d="M5,46.9V7H28.9M5,46.9V86.7H28.9M219.7,126.4V109H243.5M243.5,109V103H267.4M243.5,109V115H267.4M219.7,126.4V143.9H243.5M243.5,143.9V127H267.4M243.5,143.9V160.7H267.4M267.4,160.7V139H291.2M267.4,160.7V182.5H291.2M291.2,182.5V151H315.1M291.2,182.5V213.9H315.1M315.1,213.9V174.8H338.9M338.9,174.8V163H362.8M338.9,174.8V186.6H362.8M362.8,186.6V175H386.6M362.8,186.6V198.2H386.6M386.6,198.2V187H410.5M386.6,198.2V209.5H410.5M410.5,209.5V199H434.3M410.5,209.5V220H434.3M434.3,220V211H458.2M434.3,220V229H458.2M458.2,229V223H482M458.2,229V235H482M315.1,213.9V253H338.9M338.9,253V247H362.8M338.9,253V259H362.8M195.8,204V281.5H219.7M219.7,281.5V271H243.5M219.7,281.5V292H243.5M243.5,292V283H267.4M243.5,292V301H267.4M267.4,301V295H291.2M267.4,301V307H291.2M172,275.7V347.5H195.8M195.8,347.5V328H219.7M219.7,328V319H243.5M219.7,328V337H243.5M243.5,337V331H267.4M243.5,337V343H267.4M195.8,347.5V367H219.7M219.7,367V355H243.5M219.7,367V378.9H243.5M243.5,378.9V367H267.4M243.5,378.9V390.8H267.4M267.4,390.8V379H291.2M267.4,390.8V402.6H291.2M291.2,402.6V391H315.1M291.2,402.6V414.2H315.1M315.1,414.2V403H338.9M315.1,414.2V425.5H338.9M338.9,425.5V415H362.8M338.9,425.5V436H362.8M362.8,436V427H386.6M362.8,436V445H386.6M386.6,445V439H410.5M386.6,445V451H410.5M76.6,278V476.7H100.4M100.4,476.7V463H124.2M100.4,476.7V490.4H124.2M148.1,505.8V487H172M148.1,505.8V524.5H172M172,524.5V508H195.8M195.8,508V499H219.7M195.8,508V517H219.7M219.7,517V511H243.5M219.7,517V523H243.5M172,524.5V541H195.8M195.8,541V535H219.7M195.8,541V547H219.7" stroke="#91bfdb"></path>
 <path d="M28.9,86.7V19H52.7M28.9,86.7V154.5H52.7M52.7,154.5V31H76.6M52.7,154.5V278H76.6M76.6,278V79.2H100.4M100.4,79.2V43H124.2M100.4,79.2V115.4H124.2M124.2,115.4V55H148.1M124.2,115.4V175.9H148.1M148.1,175.9V76H172M172,76V67H195.8M172,76V85H195.8M195.8,85V79H219.7M195.8,85V91H219.7M148.1,175.9V275.7H172M172,275.7V204H195.8M195.8,204V126.4H219.7" stroke="darkgrey"></path>
 <path d="M124.2,490.4V475H148.1M124.2,490.4V505.8H148.1" stroke="#fc8d59"></path>
 <text x="7" y="49.9" class="node" fill="#4A6FE3">1</text>
 <text x="30.9" y="89.7" class="node" fill="#ABB4E2">0.7</text>
 <text x="54.7" y="157.5" class="node" fill="#ABB4E2">0.7</text>
 <text x="78.6" y="281" class="node" fill="#ABB4E2">0.7</text>
 <text x="102.4" y="82.2" class="node" fill="#ABB4E2">0.7</text>
 <text x="126.2" y="118.4" class="node" fill="#DC6884">0.11</text>
 <text x="150.1" y="178.9" class="node" fill="#DC6884">0.11</text>
 <text x="174" y="79" class="node" fill="#DC6884">0.11</text>
 <text x="197.8" y="88" class="node" fill="#4A6FE3">1</text>
 <text x="174" y="278.7" class="node" fill="#5B78E2">0.96</text>
 <text x="197.8" y="207" class="node" fill="#AEB6E2">0.69</text>
 <text x="221.7" y="129.4" class="node" fill="#4A6FE3">1</text>
 <text x="245.5" y="112" class="node" fill="#5B78E2">0.96</text>
 <text x="245.5" y="146.9" class="node" fill="#4A6FE3">1</text>
 <text x="269.4" y="163.7" class="node" fill="#929FE1">0.79</text>
 <text x="293.2" y="185.5" class="node" fill="#4A6FE3">1</text>
 <text x="317.1" y="216.9" class="node" fill="#5B78E2">0.96</text>
 <text x="340.9" y="177.8" class="node" fill="#E6BDC5">0.38</text>
 <text x="364.8" y="189.6" class="node" fill="#D85778">0.06</text>
 <text x="388.6" y="201.2" class="node" fill="#4A6FE3">1</text>
 <text x="412.5" y="212.5" class="node" fill="#DDDEE3">0.52</text>
 <text x="436.3" y="223" class="node" fill="#DDDEE3">0.52</text>
 <text x="460.2" y="232" class="node" fill="#DDDEE3">0.52</text>
 <text x="340.9" y="256" class="node" fill="#DDDEE3">0.52</text>
 <text x="221.7" y="284.5" class="node" fill="#4A6FE3">1</text>
 <text x="245.5" y="295" class="node" fill="#8F9DE1">0.8</text>
 <text x="269.4" y="304" class="node" fill="#4A6FE3">1</text>
 <text x="197.8" y="350.5" class="node" fill="#4A6FE3">1</text>
 <text x="221.7" y="331" class="node" fill="#4A6FE3">1</text>
 <text x="245.5" y="340" class="node" fill="#4A6FE3">1</text>
 <text x="221.7" y="370" class="node" fill="#AEB6E2">0.69</text>
 <text x="245.5" y="381.9" class="node" fill="#AEB6E2">0.69</text>
 <text x="269.4" y="393.8" class="node" fill="#ABB4E2">0.7</text>
 <text x="293.2" y="405.6" class="node" fill="#ABB4E2">0.7</text>
 <text x="317.1" y="417.2" class="node" fill="#ABB4E2">0.7</text>
 <text x="340.9" y="428.5" class="node" fill="#AEB6E2">0.69</text>
 <text x="364.8" y="439" class="node" fill="#AEB6E2">0.69</text>
 <text x="388.6" y="448" class="node" fill="#AEB6E2">0.69</text>
 <text x="102.4" y="479.7" class="node" fill="#E28699">0.2</text>
 <text x="126.2" y="493.4" class="node" fill="#DDDEE3">0.52</text>
 <text x="150.1" y="508.8" class="node" fill="#4A6FE3">1</text>
 <text x="174" y="527.5" class="node" fill="#ABB4E2">0.7</text>
 <text x="197.8" y="511" class="node" fill="#ABB4E2">0.7</text>
 <text x="221.7" y="520" class="node" fill="#ABB4E2">0.7</text>
 <text x="197.8" y="544" class="node" fill="#4A6FE3">1</text></svg>
