<svg xmlns="http://www.w3.org/2000/svg" version="1.1" width="682" height="612" class="tree" data-char="9"><text x="678" y="15.4" text-anchor="end" class="stepsLabel">Character adds <tspan class="score">5</tspan> to tree score</text><text x="678" y="27.8" text-anchor="end" class="stepsLabel"><tspan class="score">0</tspan> additional regions</text><text x="678" y="40.2" text-anchor="end" class="stepsLabel">CI = 0.2; Fitch CI = 0.2; Fitch RI = 0.33</text><text x="678" y="65" text-anchor="end" class="stepsLabel"><tspan dy="16">An optimal tree under:</tspan><tspan x="680" style="font-style:italic" class="notThisAn" dy="1.2em">Equal weights</tspan><tspan x="680" style="font-style:italic" class="notThisAn" dy="1.2em">Implied weights, k = 2</tspan><tspan x="680" style="font-style:italic" class="notThisAn" dy="1.2em">IW, k = 3</tspan><tspan x="680" style="font-style:italic" class="notThisAn" dy="1.2em">IW, k = 4.5</tspan><tspan x="680" style="font-style:italic" class="notThisAn" dy="1.2em">IW, k = 7</tspan><tspan x="680" style="font-style:italic" class="thisAn" dy="1.2em">IW, k = 10.5</tspan><tspan x="680" style="font-style:italic" class="notThisAn" dy="1.2em">IW, k = 16</tspan><tspan x="680" style="font-style:italic" class="notThisAn" dy="1.2em">IW, k = 24</tspan></text><text x="76.6" y="594.3" fill="#91bfdb" class="flag">[1]</text><text x="98.6" y="594.3" fill="#000" class="taxonLabel">Serpula</text><text x="76.6" y="607" fill="#91bfdb" class="flag">[1]</text><text x="98.6" y="607" fill="#000" class="taxonLabel">Sipunculus</text><text x="100.4" y="568.9" fill="#91bfdb" class="flag">[1]</text><text x="122.4" y="568.9" fill="#000" class="taxonLabel">Tonicella</text><text x="100.4" y="581.6" fill="#fc8d59" class="flag">[0]</text><text x="122.4" y="581.6" fill="#000" class="taxonLabel">Dentalium</text><text x="76.6" y="556.2" fill="#91bfdb" class="flag">[1]</text><text x="98.6" y="556.2" fill="#000" class="taxonLabel">Wiwaxia corrugata</text><text x="172" y="518.1" fill="#fc8d59" class="flag">[0]</text><text x="194" y="518.1" fill="#000" class="taxonLabel">Phoronis</text><text x="172" y="530.8" fill="#fc8d59" class="flag">[0]</text><text x="194" y="530.8" fill="#000" class="taxonLabel">Namacalathus</text><text x="148.1" y="505.4" fill="#fc8d59" class="flag">[0]</text><text x="170.1" y="505.4" fill="#000" class="taxonLabel">Cotyledion tylodes</text><text x="243.5" y="480" fill="grey" class="flag">[?]</text><text x="265.5" y="480" fill="#999" class="taxonLabel">Haplophrentis carinatus</text><text x="243.5" y="492.7" fill="grey" class="flag">[?]</text><text x="265.5" y="492.7" fill="#999" class="taxonLabel">Pedunculotheca diania</text><text x="362.8" y="454.6" fill="grey" class="flag">[?]</text><text x="384.8" y="454.6" fill="#999" class="taxonLabel">Mummpikia nuda</text><text x="362.8" y="467.3" fill="grey" class="flag">[?]</text><text x="384.8" y="467.3" fill="#999" class="taxonLabel">Botsfordia</text><text x="338.9" y="441.9" fill="grey" class="flag">[?]</text><text x="360.9" y="441.9" fill="#999" class="taxonLabel">Eoobolus</text><text x="434.3" y="416.5" fill="#91bfdb" class="flag">[1]</text><text x="456.3" y="416.5" fill="#000" class="taxonLabel">Siphonobolus priscus</text><text x="434.3" y="429.2" fill="#91bfdb" class="flag">[1]</text><text x="456.3" y="429.2" fill="#000" class="taxonLabel">Acanthotretella spinosa</text><text x="410.5" y="403.8" fill="grey" class="flag">[?]</text><text x="432.5" y="403.8" fill="#999" class="taxonLabel">Lingulosacculus</text><text x="386.6" y="391.1" fill="#91bfdb" class="flag">[1]</text><text x="408.6" y="391.1" fill="#000" class="taxonLabel">Clupeafumosus socialis</text><text x="386.6" y="365.7" fill="#91bfdb" class="flag">[1]</text><text x="408.6" y="365.7" fill="#000" class="taxonLabel">Lingula</text><text x="386.6" y="378.4" fill="#91bfdb" class="flag">[1]</text><text x="408.6" y="378.4" fill="#000" class="taxonLabel">Lingulellotreta malongensis</text><text x="338.9" y="353" fill="#91bfdb" class="flag">[1]</text><text x="360.9" y="353" fill="#000" class="taxonLabel">Pelagodiscus atlanticus</text><text x="386.6" y="327.6" fill="grey" class="flag">[?]</text><text x="408.6" y="327.6" fill="#999" class="taxonLabel">Craniops</text><text x="386.6" y="340.3" fill="#fc8d59" class="flag">[0]</text><text x="408.6" y="340.3" fill="#000" class="taxonLabel">Novocrania</text><text x="362.8" y="314.9" fill="grey" class="flag">[?]</text><text x="384.8" y="314.9" fill="#999" class="taxonLabel">Ussunia</text><text x="338.9" y="302.1" fill="#91bfdb" class="flag">[1]</text><text x="360.9" y="302.1" fill="#000" class="taxonLabel">Heliomedusa orienta</text><text x="315.1" y="289.4" fill="grey" class="flag">[?]</text><text x="337.1" y="289.4" fill="#999" class="taxonLabel">Gasconsia</text><text x="362.8" y="264" fill="grey" class="flag">[?]</text><text x="384.8" y="264" fill="#999" class="taxonLabel">Tomteluva perturbata</text><text x="362.8" y="276.7" fill="#91bfdb" class="flag">[1]</text><text x="384.8" y="276.7" fill="#000" class="taxonLabel">Yuganotheca elegans</text><text x="338.9" y="251.3" fill="#91bfdb" class="flag">[1]</text><text x="360.9" y="251.3" fill="#000" class="taxonLabel">Salanygolina</text><text x="362.8" y="225.9" fill="#91bfdb" class="flag">[1]</text><text x="384.8" y="225.9" fill="#000" class="taxonLabel">Coolinia pecten</text><text x="362.8" y="238.6" fill="#91bfdb" class="flag">[1]</text><text x="384.8" y="238.6" fill="#000" class="taxonLabel">Antigonambonites planus</text><text x="482" y="200.5" fill="grey" class="flag">[?]</text><text x="504" y="200.5" fill="#999" class="taxonLabel">Orthis</text><text x="482" y="213.2" fill="#91bfdb" class="flag">[1]</text><text x="504" y="213.2" fill="#000" class="taxonLabel">Terebratulina</text><text x="458.2" y="187.8" fill="#91bfdb" class="flag">[1]</text><text x="480.2" y="187.8" fill="#000" class="taxonLabel">Alisina</text><text x="434.3" y="175.1" fill="#91bfdb" class="flag">[1]</text><text x="456.3" y="175.1" fill="#000" class="taxonLabel">Longtancunella chengjiangensis</text><text x="410.5" y="162.4" fill="grey" class="flag">[?]</text><text x="432.5" y="162.4" fill="#999" class="taxonLabel">Glyptoria</text><text x="386.6" y="149.7" fill="grey" class="flag">[?]</text><text x="408.6" y="149.7" fill="#999" class="taxonLabel">Nisusia sulcata</text><text x="362.8" y="137" fill="#91bfdb" class="flag">[1]</text><text x="384.8" y="137" fill="#000" class="taxonLabel">Kutorgina chengjiangensis</text><text x="315.1" y="111.6" fill="#91bfdb" class="flag">[1]</text><text x="337.1" y="111.6" fill="#000" class="taxonLabel">Micromitra</text><text x="315.1" y="124.3" fill="#91bfdb" class="flag">[1]</text><text x="337.1" y="124.3" fill="#000" class="taxonLabel">Askepasma toddense</text><text x="267.4" y="86.2" fill="#91bfdb" class="flag">[1]</text><text x="289.4" y="86.2" fill="#000" class="taxonLabel">Mickwitzia muralensis</text><text x="267.4" y="98.9" fill="#91bfdb" class="flag">[1]</text><text x="289.4" y="98.9" fill="#000" class="taxonLabel">Micrina</text><text x="195.8" y="73.5" fill="grey" class="flag">[?]</text><text x="217.8" y="73.5" fill="#999" class="taxonLabel">Paterimitra</text><text x="172" y="60.8" fill="grey" class="flag">[?]</text><text x="194" y="60.8" fill="#999" class="taxonLabel">Halkieria evangelista</text><text x="148.1" y="48.1" fill="grey" class="flag">[?]</text><text x="170.1" y="48.1" fill="#999" class="taxonLabel">Dailyatia</text><text x="100.4" y="35.4" fill="grey" class="flag">[?]</text><text x="122.4" y="35.4" fill="#999" class="taxonLabel">Eccentrotheca</text><text x="100.4" y="10" fill="#fc8d59" class="flag">[0]</text><text x="122.4" y="10" fill="#000" class="taxonLabel">Flustra</text><text x="100.4" y="22.7" fill="#91bfdb" class="flag">[1]</text><text x="122.4" y="22.7" fill="#000" class="taxonLabel">Amathia</text><text x="52.7" y="543.5" fill="#fc8d59" class="flag">[0]</text><text x="74.7" y="543.5" fill="#000" class="taxonLabel">Loxosomella</text><path d="M5,447.6V315.1H28.9M28.9,315.1V89.6H52.7M52.7,89.6V13.4H76.6M52.7,89.6V165.9H76.6M76.6,165.9V32.4H100.4M76.6,165.9V299.4H100.4M100.4,299.4V87H124.2M124.2,87V45.1H148.1M124.2,87V128.9H148.1M148.1,128.9V57.8H172M148.1,128.9V199.9H172M172,199.9V70.5H195.8M172,199.9V329.3H195.8M338.9,321.4V311.9H362.8M338.9,321.4V330.9H362.8M362.8,330.9V324.6H386.6M195.8,329.3V483.3H219.7M219.7,483.3V477H243.5M219.7,483.3V489.7H243.5" stroke="darkgrey"></path><path d="M76.6,13.4V7H100.4M362.8,330.9V337.3H386.6M100.4,299.4V511.9H124.2M124.2,511.9V502.4H148.1M124.2,511.9V521.4H148.1M148.1,521.4V515.1H172M148.1,521.4V527.8H172M28.9,315.1V540.5H52.7M76.6,572.2V578.6H100.4" stroke="#fc8d59"></path><path d="M76.6,13.4V19.7H100.4M195.8,329.3V175.3H219.7M219.7,175.3V89.6H243.5M243.5,89.6V83.2H267.4M243.5,89.6V95.9H267.4M219.7,175.3V261H243.5M243.5,261V168.9H267.4M267.4,168.9V115H291.2M291.2,115V108.6H315.1M291.2,115V121.3H315.1M267.4,168.9V222.9H291.2M291.2,222.9V187.9H315.1M315.1,187.9V146.5H338.9M338.9,146.5V134H362.8M338.9,146.5V159H362.8M362.8,159V146.7H386.6M362.8,159V171.3H386.6M386.6,171.3V159.4H410.5M386.6,171.3V183.2H410.5M410.5,183.2V172.1H434.3M410.5,183.2V194.4H434.3M434.3,194.4V184.8H458.2M434.3,194.4V203.9H458.2M458.2,203.9V197.5H482M458.2,203.9V210.2H482M315.1,187.9V229.3H338.9M338.9,229.3V222.9H362.8M338.9,229.3V235.6H362.8M291.2,222.9V257.9H315.1M315.1,257.9V248.3H338.9M315.1,257.9V267.4H338.9M338.9,267.4V261H362.8M338.9,267.4V273.7H362.8M243.5,261V353H267.4M267.4,353V298.4H291.2M291.2,298.4V286.4H315.1M291.2,298.4V310.3H315.1M315.1,310.3V299.1H338.9M315.1,310.3V321.4H338.9M267.4,353V407.7H291.2M291.2,407.7V367H315.1M315.1,367V350H338.9M315.1,367V384.1H338.9M338.9,384.1V369H362.8M362.8,369V362.7H386.6M362.8,369V375.4H386.6M338.9,384.1V399.2H362.8M362.8,399.2V388.1H386.6M362.8,399.2V410.3H386.6M386.6,410.3V400.8H410.5M386.6,410.3V419.8H410.5M410.5,419.8V413.5H434.3M410.5,419.8V426.2H434.3M291.2,407.7V448.4H315.1M315.1,448.4V438.9H338.9M315.1,448.4V457.9H338.9M338.9,457.9V451.6H362.8M338.9,457.9V464.3H362.8M5,447.6V580.2H28.9M28.9,580.2V562.7H52.7M52.7,562.7V553.2H76.6M52.7,562.7V572.2H76.6M76.6,572.2V565.9H100.4M28.9,580.2V597.6H52.7M52.7,597.6V591.3H76.6M52.7,597.6V604H76.6" stroke="#91bfdb"></path><text x="7" y="450.6" class="node" fill="#4A6FE3">1</text><text x="30.9" y="318.1" class="node" fill="#4A6FE3">1</text><text x="54.7" y="92.6" class="node" fill="#97A4E2">0.77</text><text x="78.6" y="16.4" class="node" fill="#4A6FE3">1</text><text x="78.6" y="168.9" class="node" fill="#97A4E2">0.77</text><text x="102.4" y="302.4" class="node" fill="#D75376">0.05</text><text x="126.2" y="90" class="node" fill="#E6B1BB">0.34</text><text x="150.1" y="131.9" class="node" fill="#E49CAA">0.27</text><text x="174" y="202.9" class="node" fill="#E4D9DB">0.47</text><text x="197.8" y="332.3" class="node" fill="#E5A5B1">0.3</text><text x="221.7" y="178.3" class="node" fill="#E38FA0">0.23</text><text x="245.5" y="92.6" class="node" fill="#DC6884">0.11</text><text x="245.5" y="264" class="node" fill="#DF758D">0.15</text><text x="269.4" y="171.9" class="node" fill="#667FE1">0.93</text><text x="293.2" y="118" class="node" fill="#4A6FE3">1</text><text x="293.2" y="225.9" class="node" fill="#667FE1">0.93</text><text x="317.1" y="190.9" class="node" fill="#7A8DE1">0.87</text><text x="340.9" y="149.5" class="node" fill="#E4D9DB">0.47</text><text x="364.8" y="162" class="node" fill="#E4D9DB">0.47</text><text x="388.6" y="174.3" class="node" fill="#C7CBE3">0.6</text><text x="412.5" y="186.2" class="node" fill="#C7CBE3">0.6</text><text x="436.3" y="197.4" class="node" fill="#4A6FE3">1</text><text x="460.2" y="206.9" class="node" fill="#8696E1">0.83</text><text x="340.9" y="232.3" class="node" fill="#4A6FE3">1</text><text x="317.1" y="260.9" class="node" fill="#E3DFE0">0.49</text><text x="340.9" y="270.4" class="node" fill="#9AA6E2">0.76</text><text x="269.4" y="356" class="node" fill="#DF758D">0.15</text><text x="293.2" y="301.4" class="node" fill="#E38FA0">0.23</text><text x="317.1" y="313.3" class="node" fill="#E38FA0">0.23</text><text x="340.9" y="324.4" class="node" fill="#E4D9DB">0.47</text><text x="364.8" y="333.9" class="node" fill="#4A6FE3">1</text><text x="293.2" y="410.7" class="node" fill="#E495A5">0.25</text><text x="317.1" y="370" class="node" fill="#E495A5">0.25</text><text x="340.9" y="387.1" class="node" fill="#E6BDC5">0.38</text><text x="364.8" y="372" class="node" fill="#E6BDC5">0.38</text><text x="364.8" y="402.2" class="node" fill="#8F9DE1">0.8</text><text x="388.6" y="413.3" class="node" fill="#E59FAC">0.28</text><text x="412.5" y="422.8" class="node" fill="#4A6FE3">1</text><text x="317.1" y="451.4" class="node" fill="#E4D9DB">0.47</text><text x="340.9" y="460.9" class="node" fill="#E6BDC5">0.38</text><text x="221.7" y="486.3" class="node" fill="#4A6FE3">1</text><text x="126.2" y="514.9" class="node" fill="#E5A5B1">0.3</text><text x="150.1" y="524.4" class="node" fill="#4A6FE3">1</text><text x="30.9" y="583.2" class="node" fill="#4A6FE3">1</text><text x="54.7" y="565.7" class="node" fill="#4A6FE3">1</text><text x="78.6" y="575.2" class="node" fill="#7A8DE1">0.87</text><text x="54.7" y="600.6" class="node" fill="#4A6FE3">1</text></svg>
