<svg xmlns="http://www.w3.org/2000/svg" version="1.1" width="682" height="682" class="tree" data-char="135"><text x="678" y="15.6" text-anchor="end" class="stepsLabel">Character adds <tspan class="score">1</tspan> to tree score</text><text x="678" y="28.2" text-anchor="end" class="stepsLabel"><tspan class="score">0</tspan> additional regions</text><text x="678" y="40.8" text-anchor="end" class="stepsLabel">CI = 1; Fitch CI = 1; Fitch RI = n/a</text><text x="678" y="66" text-anchor="end" class="stepsLabel"><tspan dy="16" fill="#34caaf">An optimal tree under:</tspan><tspan x="680" style="font-style:italic" class="thisAn" dy="1.2em">Equal weights</tspan><tspan x="680" style="font-style:italic" class="notThisAn" dy="1.2em">Implied weights, k = 2</tspan><tspan x="680" style="font-style:italic" class="notThisAn" dy="1.2em">IW, k = 3</tspan><tspan x="680" style="font-style:italic" class="notThisAn" dy="1.2em">IW, k = 4.5</tspan><tspan x="680" style="font-style:italic" class="notThisAn" dy="1.2em">IW, k = 7</tspan><tspan x="680" style="font-style:italic" class="notThisAn" dy="1.2em">IW, k = 10.5</tspan><tspan x="680" style="font-style:italic" class="notThisAn" dy="1.2em">IW, k = 16</tspan><tspan x="680" style="font-style:italic" class="notThisAn" dy="1.2em">IW, k = 24</tspan></text><text x="100.4" y="664.2" fill="#fc8d59" class="flag">[0]</text><text x="122.4" y="664.2" fill="#000" class="taxonLabel">Tonicella</text><text x="100.4" y="677" fill="#fc8d59" class="flag">[0]</text><text x="122.4" y="677" fill="#000" class="taxonLabel">Dentalium</text><text x="76.6" y="651.3" fill="#fc8d59" class="flag">[0]</text><text x="98.6" y="651.3" fill="#000" class="taxonLabel">Wiwaxia corrugata</text><text x="76.6" y="625.7" fill="#fc8d59" class="flag">[0]</text><text x="98.6" y="625.7" fill="#000" class="taxonLabel">Serpula</text><text x="76.6" y="638.5" fill="#fc8d59" class="flag">[0]</text><text x="98.6" y="638.5" fill="#000" class="taxonLabel">Sipunculus</text><text x="386.6" y="587.2" fill="#fc8d59" class="flag">[0]</text><text x="408.6" y="587.2" fill="#000" class="taxonLabel">Pauxillites</text><text x="386.6" y="600" fill="#fc8d59" class="flag">[0]</text><text x="408.6" y="600" fill="#000" class="taxonLabel">Maxilites</text><text x="362.8" y="574.4" fill="#fc8d59" class="flag">[0]</text><text x="384.8" y="574.4" fill="#000" class="taxonLabel">Haplophrentis carinatus</text><text x="338.9" y="561.6" fill="#fc8d59" class="flag">[0]</text><text x="360.9" y="561.6" fill="#000" class="taxonLabel">Paramicrocornus</text><text x="315.1" y="548.7" fill="#fc8d59" class="flag">[0]</text><text x="337.1" y="548.7" fill="#000" class="taxonLabel">Conotheca</text><text x="291.2" y="535.9" fill="#fc8d59" class="flag">[0]</text><text x="313.2" y="535.9" fill="#000" class="taxonLabel">Bactrotheca</text><text x="267.4" y="523.1" fill="#fc8d59" class="flag">[0]</text><text x="289.4" y="523.1" fill="#000" class="taxonLabel">Pedunculotheca diania</text><text x="482" y="497.4" fill="grey" class="flag">[?]</text><text x="504" y="497.4" fill="#999" class="taxonLabel">Siphonobolus priscus</text><text x="482" y="510.2" fill="#fc8d59" class="flag">[0]</text><text x="504" y="510.2" fill="#000" class="taxonLabel">Acanthotretella spinosa</text><text x="458.2" y="484.6" fill="grey" class="flag">[?]</text><text x="480.2" y="484.6" fill="#999" class="taxonLabel">Clupeafumosus socialis</text><text x="434.3" y="471.8" fill="grey" class="flag">[?]</text><text x="456.3" y="471.8" fill="#999" class="taxonLabel">Lingulosacculus</text><text x="410.5" y="458.9" fill="grey" class="flag">[?]</text><text x="432.5" y="458.9" fill="#999" class="taxonLabel">Lingulellotreta malongensis</text><text x="410.5" y="433.3" fill="#fc8d59" class="flag">[0]</text><text x="432.5" y="433.3" fill="#000" class="taxonLabel">Pelagodiscus atlanticus</text><text x="410.5" y="446.1" fill="grey" class="flag">[?]</text><text x="432.5" y="446.1" fill="#999" class="taxonLabel">Mummpikia nuda</text><text x="362.8" y="420.5" fill="grey" class="flag">[?]</text><text x="384.8" y="420.5" fill="#999" class="taxonLabel">Botsfordia</text><text x="338.9" y="407.6" fill="grey" class="flag">[?]</text><text x="360.9" y="407.6" fill="#999" class="taxonLabel">Eoobolus</text><text x="315.1" y="394.8" fill="#fc8d59" class="flag">[0]</text><text x="337.1" y="394.8" fill="#000" class="taxonLabel">Lingula</text><text x="410.5" y="369.2" fill="#fc8d59" class="flag">[0]</text><text x="432.5" y="369.2" fill="#000" class="taxonLabel">Novocrania</text><text x="410.5" y="382" fill="grey" class="flag">[?]</text><text x="432.5" y="382" fill="#999" class="taxonLabel">Craniops</text><text x="386.6" y="356.3" fill="#fc8d59" class="flag">[0]</text><text x="408.6" y="356.3" fill="#000" class="taxonLabel">Ussunia</text><text x="362.8" y="343.5" fill="grey" class="flag">[?]</text><text x="384.8" y="343.5" fill="#999" class="taxonLabel">Heliomedusa orienta</text><text x="338.9" y="330.7" fill="grey" class="flag">[?]</text><text x="360.9" y="330.7" fill="#999" class="taxonLabel">Mickwitzia muralensis</text><text x="338.9" y="305" fill="grey" class="flag">[?]</text><text x="360.9" y="305" fill="#999" class="taxonLabel">Gasconsia</text><text x="338.9" y="317.8" fill="grey" class="flag">[?]</text><text x="360.9" y="317.8" fill="#999" class="taxonLabel">Micromitra</text><text x="458.2" y="279.4" fill="grey" class="flag">[?]</text><text x="480.2" y="279.4" fill="#999" class="taxonLabel">Orthis</text><text x="458.2" y="292.2" fill="#fc8d59" class="flag">[0]</text><text x="480.2" y="292.2" fill="#000" class="taxonLabel">Terebratulina</text><text x="434.3" y="266.5" fill="grey" class="flag">[?]</text><text x="456.3" y="266.5" fill="#999" class="taxonLabel">Alisina</text><text x="410.5" y="253.7" fill="grey" class="flag">[?]</text><text x="432.5" y="253.7" fill="#999" class="taxonLabel">Glyptoria</text><text x="386.6" y="240.9" fill="grey" class="flag">[?]</text><text x="408.6" y="240.9" fill="#999" class="taxonLabel">Nisusia sulcata</text><text x="362.8" y="228.1" fill="grey" class="flag">[?]</text><text x="384.8" y="228.1" fill="#999" class="taxonLabel">Kutorgina chengjiangensis</text><text x="410.5" y="202.4" fill="grey" class="flag">[?]</text><text x="432.5" y="202.4" fill="#999" class="taxonLabel">Antigonambonites planus</text><text x="410.5" y="215.2" fill="grey" class="flag">[?]</text><text x="432.5" y="215.2" fill="#999" class="taxonLabel">Coolinia pecten</text><text x="434.3" y="176.8" fill="grey" class="flag">[?]</text><text x="456.3" y="176.8" fill="#999" class="taxonLabel">Tomteluva perturbata</text><text x="434.3" y="189.6" fill="grey" class="flag">[?]</text><text x="456.3" y="189.6" fill="#999" class="taxonLabel">Yuganotheca elegans</text><text x="410.5" y="163.9" fill="grey" class="flag">[?]</text><text x="432.5" y="163.9" fill="#999" class="taxonLabel">Salanygolina</text><text x="362.8" y="151.1" fill="grey" class="flag">[?]</text><text x="384.8" y="151.1" fill="#999" class="taxonLabel">Longtancunella chengjiangensis</text><text x="315.1" y="138.3" fill="#fc8d59" class="flag">[0]</text><text x="337.1" y="138.3" fill="#000" class="taxonLabel">Askepasma toddense</text><text x="291.2" y="125.4" fill="grey" class="flag">[?]</text><text x="313.2" y="125.4" fill="#999" class="taxonLabel">Micrina</text><text x="219.7" y="112.6" fill="grey" class="flag">[?]</text><text x="241.7" y="112.6" fill="#999" class="taxonLabel">Paterimitra</text><text x="195.8" y="99.8" fill="#91bfdb" class="flag">[1]</text><text x="217.8" y="99.8" fill="#000" class="taxonLabel">Halkieria evangelista</text><text x="172" y="87" fill="grey" class="flag">[?]</text><text x="194" y="87" fill="#999" class="taxonLabel">Dailyatia</text><text x="148.1" y="74.1" fill="grey" class="flag">[?]</text><text x="170.1" y="74.1" fill="#999" class="taxonLabel">Eccentrotheca</text><text x="124.2" y="61.3" fill="grey" class="flag">[?]</text><text x="146.2" y="61.3" fill="#999" class="taxonLabel">Cotyledion tylodes</text><text x="124.2" y="35.7" fill="#fc8d59" class="flag">[0]</text><text x="146.2" y="35.7" fill="#000" class="taxonLabel">Phoronis</text><text x="124.2" y="48.5" fill="#fc8d59" class="flag">[0]</text><text x="146.2" y="48.5" fill="#000" class="taxonLabel">Namacalathus</text><text x="100.4" y="10" fill="#fc8d59" class="flag">[0]</text><text x="122.4" y="10" fill="#000" class="taxonLabel">Flustra</text><text x="100.4" y="22.8" fill="#fc8d59" class="flag">[0]</text><text x="122.4" y="22.8" fill="#000" class="taxonLabel">Amathia</text><text x="52.7" y="612.9" fill="#fc8d59" class="flag">[0]</text><text x="74.7" y="612.9" fill="#000" class="taxonLabel">Loxosomella</text><path d="M5,483.3V323.1H28.9M28.9,323.1V36.3H52.7M52.7,36.3V13.4H76.6M76.6,13.4V7H100.4M76.6,13.4V19.8H100.4M52.7,36.3V59.1H76.6M76.6,59.1V39.1H100.4M100.4,39.1V32.7H124.2M100.4,39.1V45.5H124.2M76.6,59.1V79.2H100.4M100.4,79.2V58.3H124.2M100.4,79.2V100.1H124.2M124.2,100.1V71.1H148.1M124.2,100.1V129.1H148.1M148.1,129.1V84H172M148.1,129.1V174.3H172M172,174.3V251.8H195.8M195.8,251.8V109.6H219.7M195.8,251.8V394H219.7M219.7,394V255.3H243.5M243.5,255.3V145.7H267.4M267.4,145.7V122.4H291.2M267.4,145.7V169H291.2M291.2,169V135.3H315.1M291.2,169V202.8H315.1M315.1,202.8V168.1H338.9M338.9,168.1V148.1H362.8M338.9,168.1V188.2H362.8M362.8,188.2V170.5H386.6M386.6,170.5V160.9H410.5M386.6,170.5V180.2H410.5M410.5,180.2V173.8H434.3M410.5,180.2V186.6H434.3M362.8,188.2V205.8H386.6M386.6,205.8V199.4H410.5M386.6,205.8V212.2H410.5M315.1,202.8V237.5H338.9M338.9,237.5V225.1H362.8M338.9,237.5V249.9H362.8M362.8,249.9V237.9H386.6M362.8,249.9V261.9H386.6M386.6,261.9V250.7H410.5M386.6,261.9V273.2H410.5M410.5,273.2V263.5H434.3M410.5,273.2V282.8H434.3M434.3,282.8V276.4H458.2M434.3,282.8V289.2H458.2M243.5,255.3V364.9H267.4M267.4,364.9V324.1H291.2M291.2,324.1V308.4H315.1M315.1,308.4V302H338.9M315.1,308.4V314.8H338.9M291.2,324.1V339.7H315.1M315.1,339.7V327.7H338.9M315.1,339.7V351.7H338.9M338.9,351.7V340.5H362.8M338.9,351.7V362.9H362.8M362.8,362.9V353.3H386.6M362.8,362.9V372.6H386.6M386.6,372.6V366.2H410.5M386.6,372.6V379H410.5M267.4,364.9V405.8H291.2M291.2,405.8V391.8H315.1M291.2,405.8V419.8H315.1M315.1,419.8V404.6H338.9M315.1,419.8V434.9H338.9M338.9,434.9V417.5H362.8M338.9,434.9V452.3H362.8M362.8,452.3V436.7H386.6M386.6,436.7V430.3H410.5M386.6,436.7V443.1H410.5M362.8,452.3V468H386.6M386.6,468V455.9H410.5M386.6,468V480H410.5M410.5,480V468.8H434.3M410.5,480V491.2H434.3M434.3,491.2V481.6H458.2M434.3,491.2V500.8H458.2M458.2,500.8V494.4H482M458.2,500.8V507.2H482M219.7,394V532.7H243.5M243.5,532.7V520.1H267.4M243.5,532.7V545.3H267.4M267.4,545.3V532.9H291.2M267.4,545.3V557.8H291.2M291.2,557.8V545.7H315.1M291.2,557.8V569.8H315.1M315.1,569.8V558.6H338.9M315.1,569.8V581H338.9M338.9,581V571.4H362.8M338.9,581V590.6H362.8M362.8,590.6V584.2H386.6M362.8,590.6V597H386.6M28.9,323.1V609.9H52.7M5,483.3V643.5H28.9M28.9,643.5V629.1H52.7M52.7,629.1V622.7H76.6M52.7,629.1V635.5H76.6M28.9,643.5V658H52.7M52.7,658V648.3H76.6M52.7,658V667.6H76.6M76.6,667.6V661.2H100.4M76.6,667.6V674H100.4" stroke="#fc8d59"></path><path d="M172,174.3V96.8H195.8" stroke="#91bfdb"></path><text x="7" y="486.3" class="node" fill="#4A6FE3">1</text><text x="30.9" y="326.1" class="node" fill="#4A6FE3">1</text><text x="54.7" y="39.3" class="node" fill="#4A6FE3">1</text><text x="78.6" y="16.4" class="node" fill="#4A6FE3">1</text><text x="78.6" y="62.1" class="node" fill="#4A6FE3">1</text><text x="102.4" y="42.1" class="node" fill="#E49CAA">0.27</text><text x="102.4" y="82.2" class="node" fill="#4A6FE3">1</text><text x="126.2" y="103.1" class="node" fill="#E59FAC">0.29</text><text x="150.1" y="132.1" class="node" fill="#AEB6E2">0.69</text><text x="174" y="177.3" class="node" fill="#4A6FE3">1</text><text x="197.8" y="254.8" class="node" fill="#4A6FE3">1</text><text x="221.7" y="397" class="node" fill="#4A6FE3">1</text><text x="245.5" y="258.3" class="node" fill="#4A6FE3">1</text><text x="269.4" y="148.7" class="node" fill="#E38C9E">0.22</text><text x="293.2" y="172" class="node" fill="#A8B1E2">0.71</text><text x="317.1" y="205.8" class="node" fill="#4A6FE3">1</text><text x="340.9" y="171.1" class="node" fill="#D4486F">0.02</text><text x="364.8" y="191.2" class="node" fill="#E5A8B3">0.31</text><text x="388.6" y="173.5" class="node" fill="#E6BDC5">0.38</text><text x="412.5" y="183.2" class="node" fill="#8C9BE1">0.81</text><text x="388.6" y="208.8" class="node" fill="#4A6FE3">1</text><text x="340.9" y="240.5" class="node" fill="#E0E0E2">0.51</text><text x="364.8" y="252.9" class="node" fill="#E38FA0">0.23</text><text x="388.6" y="264.9" class="node" fill="#BFC4E3">0.63</text><text x="412.5" y="276.2" class="node" fill="#6982E1">0.92</text><text x="436.3" y="285.8" class="node" fill="#B9BFE3">0.65</text><text x="269.4" y="367.9" class="node" fill="#A8B1E2">0.71</text><text x="293.2" y="327.1" class="node" fill="#A8B1E2">0.71</text><text x="317.1" y="311.4" class="node" fill="#A8B1E2">0.71</text><text x="317.1" y="342.7" class="node" fill="#A8B1E2">0.71</text><text x="340.9" y="354.7" class="node" fill="#4A6FE3">1</text><text x="364.8" y="365.9" class="node" fill="#4A6FE3">1</text><text x="388.6" y="375.6" class="node" fill="#4A6FE3">1</text><text x="293.2" y="408.8" class="node" fill="#A8B1E2">0.71</text><text x="317.1" y="422.8" class="node" fill="#C1C6E3">0.62</text><text x="340.9" y="437.9" class="node" fill="#C1C6E3">0.62</text><text x="364.8" y="455.3" class="node" fill="#C1C6E3">0.62</text><text x="388.6" y="439.7" class="node" fill="#B1B8E2">0.68</text><text x="388.6" y="471" class="node" fill="#B9BFE3">0.65</text><text x="412.5" y="483" class="node" fill="#4F72E2">0.99</text><text x="436.3" y="494.2" class="node" fill="#E6B4BD">0.35</text><text x="460.2" y="503.8" class="node" fill="#4F72E2">0.99</text><text x="245.5" y="535.7" class="node" fill="#4A6FE3">1</text><text x="269.4" y="548.3" class="node" fill="#4A6FE3">1</text><text x="293.2" y="560.8" class="node" fill="#E6B1BB">0.34</text><text x="317.1" y="572.8" class="node" fill="#4A6FE3">1</text><text x="340.9" y="584" class="node" fill="#4A6FE3">1</text><text x="364.8" y="593.6" class="node" fill="#4A6FE3">1</text><text x="30.9" y="646.5" class="node" fill="#4A6FE3">1</text><text x="54.7" y="632.1" class="node" fill="#4A6FE3">1</text><text x="54.7" y="661" class="node" fill="#4A6FE3">1</text><text x="78.6" y="670.6" class="node" fill="#4A6FE3">1</text></svg>
