<svg xmlns="http://www.w3.org/2000/svg" version="1.1" width="682" height="612" class="tree" data-char="86"><text x="678" y="15.7" text-anchor="end" class="stepsLabel">Character adds <tspan class="score">2</tspan> to tree score</text><text x="678" y="28.4" text-anchor="end" class="stepsLabel"><tspan class="score">1</tspan> additional region</text><text x="678" y="41.1" text-anchor="end" class="stepsLabel">CI = 0.5; Fitch CI = 0.5; Fitch RI = 0.75</text><text x="678" y="66.5" text-anchor="end" class="stepsLabel"><tspan dy="16">An optimal tree under:</tspan><tspan x="680" style="font-style:italic" class="notThisAn" dy="1.2em">Equal weights</tspan><tspan x="680" style="font-style:italic" class="notThisAn" dy="1.2em">Implied weights, k = 2</tspan><tspan x="680" style="font-style:italic" class="notThisAn" dy="1.2em">IW, k = 3</tspan><tspan x="680" style="font-style:italic" class="notThisAn" dy="1.2em">IW, k = 4.5</tspan><tspan x="680" style="font-style:italic" class="notThisAn" dy="1.2em">IW, k = 7</tspan><tspan x="680" style="font-style:italic" class="notThisAn" dy="1.2em">IW, k = 10.5</tspan><tspan x="680" style="font-style:italic" class="notThisAn" dy="1.2em">IW, k = 16</tspan><tspan x="680" style="font-style:italic" class="thisAn" dy="1.2em">IW, k = 24</tspan></text><text x="70" y="594" fill="lightgrey" class="flag">[-]</text><text x="92" y="594" fill="#ccc" class="taxonLabel">Serpula</text><text x="70" y="607" fill="lightgrey" class="flag">[-]</text><text x="92" y="607" fill="#ccc" class="taxonLabel">Sipunculus</text><text x="91.7" y="568.1" fill="#e2e2a2" class="flag">[1]</text><text x="113.7" y="568.1" fill="#000" class="taxonLabel">Tonicella</text><text x="91.7" y="581" fill="lightgrey" class="flag">[-]</text><text x="113.7" y="581" fill="#ccc" class="taxonLabel">Dentalium</text><text x="70" y="555.1" fill="lightgrey" class="flag">[-]</text><text x="92" y="555.1" fill="#ccc" class="taxonLabel">Wiwaxia corrugata</text><text x="243.5" y="516.2" fill="lightgrey" class="flag">[-]</text><text x="265.5" y="516.2" fill="#ccc" class="taxonLabel">Pedunculotheca diania</text><text x="243.5" y="529.1" fill="lightgrey" class="flag">[-]</text><text x="265.5" y="529.1" fill="#ccc" class="taxonLabel">Haplophrentis carinatus</text><text x="308.5" y="490.2" fill="lightgrey" class="flag">[-]</text><text x="330.5" y="490.2" fill="#ccc" class="taxonLabel">Pelagodiscus atlanticus</text><text x="308.5" y="503.2" fill="lightgrey" class="flag">[-]</text><text x="330.5" y="503.2" fill="#ccc" class="taxonLabel">Mickwitzia muralensis</text><text x="395.3" y="464.2" fill="lightgrey" class="flag">[-]</text><text x="417.3" y="464.2" fill="#ccc" class="taxonLabel">Eoobolus</text><text x="395.3" y="477.2" fill="grey" class="flag">[?]</text><text x="417.3" y="477.2" fill="#999" class="taxonLabel">Mummpikia nuda</text><text x="373.6" y="451.3" fill="lightgrey" class="flag">[-]</text><text x="395.6" y="451.3" fill="#ccc" class="taxonLabel">Botsfordia</text><text x="351.9" y="438.3" fill="lightgrey" class="flag">[-]</text><text x="373.9" y="438.3" fill="#ccc" class="taxonLabel">Lingulellotreta malongensis</text><text x="373.6" y="412.3" fill="lightgrey" class="flag">[-]</text><text x="395.6" y="412.3" fill="#ccc" class="taxonLabel">Acanthotretella spinosa</text><text x="373.6" y="425.3" fill="lightgrey" class="flag">[-]</text><text x="395.6" y="425.3" fill="#ccc" class="taxonLabel">Siphonobolus priscus</text><text x="373.6" y="386.4" fill="lightgrey" class="flag">[-]</text><text x="395.6" y="386.4" fill="#ccc" class="taxonLabel">Clupeafumosus socialis</text><text x="373.6" y="399.3" fill="lightgrey" class="flag">[-]</text><text x="395.6" y="399.3" fill="#ccc" class="taxonLabel">Lingulosacculus</text><text x="308.5" y="373.4" fill="lightgrey" class="flag">[-]</text><text x="330.5" y="373.4" fill="#ccc" class="taxonLabel">Lingula</text><text x="373.6" y="347.4" fill="lightgrey" class="flag">[-]</text><text x="395.6" y="347.4" fill="#ccc" class="taxonLabel">Novocrania</text><text x="373.6" y="360.4" fill="lightgrey" class="flag">[-]</text><text x="395.6" y="360.4" fill="#ccc" class="taxonLabel">Craniops</text><text x="351.9" y="334.5" fill="lightgrey" class="flag">[-]</text><text x="373.9" y="334.5" fill="#ccc" class="taxonLabel">Ussunia</text><text x="330.2" y="321.5" fill="lightgrey" class="flag">[-]</text><text x="352.2" y="321.5" fill="#ccc" class="taxonLabel">Heliomedusa orienta</text><text x="308.5" y="308.5" fill="lightgrey" class="flag">[-]</text><text x="330.5" y="308.5" fill="#ccc" class="taxonLabel">Gasconsia</text><text x="330.2" y="282.5" fill="lightgrey" class="flag">[-]</text><text x="352.2" y="282.5" fill="#ccc" class="taxonLabel">Askepasma toddense</text><text x="330.2" y="295.5" fill="lightgrey" class="flag">[-]</text><text x="352.2" y="295.5" fill="#ccc" class="taxonLabel">Micromitra</text><text x="373.6" y="256.6" fill="lightgrey" class="flag">[-]</text><text x="395.6" y="256.6" fill="#ccc" class="taxonLabel">Yuganotheca elegans</text><text x="373.6" y="269.6" fill="#91bfdb" class="flag">[2]</text><text x="395.6" y="269.6" fill="#000" class="taxonLabel">Tomteluva perturbata</text><text x="351.9" y="243.6" fill="#91bfdb" class="flag">[2]</text><text x="373.9" y="243.6" fill="#000" class="taxonLabel">Salanygolina</text><text x="373.6" y="217.7" fill="#91bfdb" class="flag">[2]</text><text x="395.6" y="217.7" fill="#000" class="taxonLabel">Coolinia pecten</text><text x="373.6" y="230.6" fill="#91bfdb" class="flag">[2]</text><text x="395.6" y="230.6" fill="#000" class="taxonLabel">Antigonambonites planus</text><text x="482" y="191.7" fill="lightgrey" class="flag">[-]</text><text x="504" y="191.7" fill="#ccc" class="taxonLabel">Terebratulina</text><text x="482" y="204.7" fill="#e2e2a2" class="flag">[1]</text><text x="504" y="204.7" fill="#000" class="taxonLabel">Orthis</text><text x="460.3" y="178.7" fill="#e2e2a2" class="flag">[1]</text><text x="482.3" y="178.7" fill="#000" class="taxonLabel">Alisina</text><text x="438.6" y="165.7" fill="lightgrey" class="flag">[-]</text><text x="460.6" y="165.7" fill="#ccc" class="taxonLabel">Longtancunella chengjiangensis</text><text x="417" y="152.8" fill="#e2e2a2" class="flag">[1]</text><text x="439" y="152.8" fill="#000" class="taxonLabel">Glyptoria</text><text x="395.3" y="139.8" fill="#e2e2a2" class="flag">[1]</text><text x="417.3" y="139.8" fill="#000" class="taxonLabel">Nisusia sulcata</text><text x="373.6" y="126.8" fill="#91bfdb" class="flag">[2]</text><text x="395.6" y="126.8" fill="#000" class="taxonLabel">Kutorgina chengjiangensis</text><text x="243.5" y="113.8" fill="lightgrey" class="flag">[-]</text><text x="265.5" y="113.8" fill="#ccc" class="taxonLabel">Micrina</text><text x="200.1" y="100.8" fill="lightgrey" class="flag">[-]</text><text x="222.1" y="100.8" fill="#ccc" class="taxonLabel">Paterimitra</text><text x="178.5" y="87.9" fill="lightgrey" class="flag">[-]</text><text x="200.5" y="87.9" fill="#ccc" class="taxonLabel">Halkieria evangelista</text><text x="156.8" y="74.9" fill="lightgrey" class="flag">[-]</text><text x="178.8" y="74.9" fill="#ccc" class="taxonLabel">Dailyatia</text><text x="135.1" y="61.9" fill="lightgrey" class="flag">[-]</text><text x="157.1" y="61.9" fill="#ccc" class="taxonLabel">Cotyledion tylodes</text><text x="113.4" y="48.9" fill="lightgrey" class="flag">[-]</text><text x="135.4" y="48.9" fill="#ccc" class="taxonLabel">Eccentrotheca</text><text x="113.4" y="23" fill="lightgrey" class="flag">[-]</text><text x="135.4" y="23" fill="#ccc" class="taxonLabel">Phoronis</text><text x="113.4" y="36" fill="lightgrey" class="flag">[-]</text><text x="135.4" y="36" fill="#ccc" class="taxonLabel">Namacalathus</text><text x="70" y="10" fill="lightgrey" class="flag">[-]</text><text x="92" y="10" fill="#ccc" class="taxonLabel">Flustra</text><text x="48.4" y="542.1" fill="lightgrey" class="flag">[-]</text><text x="70.4" y="542.1" fill="#ccc" class="taxonLabel">Loxosomella</text><path d="M5,431.3V283H26.7M26.7,283V26.8H48.4M48.4,26.8V7H70M48.4,26.8V46.7H70M70,46.7V26.5H91.7M91.7,26.5V20H113.4M91.7,26.5V33H113.4M70,46.7V66.9H91.7M91.7,66.9V45.9H113.4M91.7,66.9V87.8H113.4M113.4,87.8V58.9H135.1M113.4,87.8V116.7H135.1M135.1,116.7V71.9H156.8M135.1,116.7V161.6H156.8M156.8,161.6V84.9H178.5M156.8,161.6V238.3H178.5M178.5,238.3V97.8H200.1M178.5,238.3V378.7H200.1M200.1,378.7V237.8H221.8M221.8,237.8V110.8H243.5M221.8,237.8V364.8H243.5M243.5,364.8V284H265.2M265.2,284V250.3H286.9M417,174.1V162.7H438.6M460.3,195.2V188.7H482M351.9,260.1V253.6H373.6M286.9,250.3V286H308.5M308.5,286V279.5H330.2M308.5,286V292.5H330.2M265.2,284V317.7H286.9M286.9,317.7V305.5H308.5M286.9,317.7V329.8H308.5M308.5,329.8V318.5H330.2M308.5,329.8V341.2H330.2M330.2,341.2V331.5H351.9M330.2,341.2V350.9H351.9M351.9,350.9V344.4H373.6M351.9,350.9V357.4H373.6M243.5,364.8V445.6H265.2M265.2,445.6V397.6H286.9M286.9,397.6V370.4H308.5M286.9,397.6V424.7H308.5M308.5,424.7V402.8H330.2M330.2,402.8V389.9H351.9M351.9,389.9V383.4H373.6M351.9,389.9V396.3H373.6M330.2,402.8V415.8H351.9M351.9,415.8V409.3H373.6M351.9,415.8V422.3H373.6M308.5,424.7V446.6H330.2M330.2,446.6V435.3H351.9M330.2,446.6V458H351.9M351.9,458V448.3H373.6M351.9,458V467.7H373.6M373.6,467.7V461.2H395.3M373.6,467.7V474.2H395.3M265.2,445.6V493.7H286.9M286.9,493.7V487.2H308.5M286.9,493.7V500.2H308.5M200.1,378.7V519.6H221.8M221.8,519.6V513.2H243.5M221.8,519.6V526.1H243.5M26.7,283V539.1H48.4M5,431.3V579.7H26.7M26.7,579.7V561.8H48.4M48.4,561.8V552.1H70M48.4,561.8V571.6H70M70,571.6V578H91.7M26.7,579.7V597.5H48.4M48.4,597.5V591H70M48.4,597.5V604H70" stroke="lightgrey" class="inapplicable"></path><path d="M286.9,250.3V214.6H308.5M308.5,214.6V178.9H330.2M330.2,178.9V136.6H351.9M351.9,136.6V123.8H373.6M330.2,178.9V221.1H351.9M351.9,221.1V214.7H373.6M351.9,221.1V227.6H373.6M308.5,214.6V250.3H330.2M330.2,250.3V240.6H351.9M330.2,250.3V260.1H351.9M351.9,260.1V266.6H373.6" stroke="#91bfdb"></path><path d="M351.9,136.6V149.4H373.6M373.6,149.4V136.8H395.3M373.6,149.4V161.9H395.3M395.3,161.9V149.8H417M395.3,161.9V174.1H417M417,174.1V185.5H438.6M438.6,185.5V175.7H460.3M438.6,185.5V195.2H460.3M460.3,195.2V201.7H482M70,571.6V565.1H91.7" stroke="#e2e2a2"></path><text x="7" y="434.3" class="node" fill="#4A6FE3">1</text><text x="28.7" y="286" class="node" fill="#4A6FE3">1</text><text x="50.4" y="29.8" class="node" fill="#6982E1">0.92</text><text x="72" y="49.7" class="node" fill="#6982E1">0.92</text><text x="93.7" y="29.5" class="node" fill="#E6BAC2">0.37</text><text x="93.7" y="69.9" class="node" fill="#6982E1">0.92</text><text x="115.4" y="90.8" class="node" fill="#E392A2">0.24</text><text x="137.1" y="119.7" class="node" fill="#BFC4E3">0.63</text><text x="158.8" y="164.6" class="node" fill="#E3DFE0">0.49</text><text x="180.5" y="241.3" class="node" fill="#4A6FE3">1</text><text x="202.1" y="381.7" class="node" fill="#DD6F88">0.13</text><text x="223.8" y="240.8" class="node" fill="#DD6F88">0.13</text><text x="245.5" y="367.8" class="node" fill="#DD6F88">0.13</text><text x="267.2" y="287" class="node" fill="#DD6F88">0.13</text><text x="288.9" y="253.3" class="node" fill="#D7D9E3">0.54</text><text x="310.5" y="217.6" class="node" fill="#4A6FE3">1</text><text x="332.2" y="181.9" class="node" fill="#8394E1">0.84</text><text x="353.9" y="139.6" class="node" fill="#8C9BE1">0.81</text><text x="375.6" y="152.4" class="node" fill="#8C9BE1">0.81</text><text x="397.3" y="164.9" class="node" fill="#7388E1">0.89</text><text x="419" y="177.1" class="node" fill="#7388E1">0.89</text><text x="440.6" y="188.5" class="node" fill="#4A6FE3">1</text><text x="462.3" y="198.2" class="node" fill="#667FE1">0.93</text><text x="353.9" y="224.1" class="node" fill="#4A6FE3">1</text><text x="332.2" y="253.3" class="node" fill="#929FE1">0.79</text><text x="353.9" y="263.1" class="node" fill="#7D8FE1">0.86</text><text x="310.5" y="289" class="node" fill="#B9BFE3">0.65</text><text x="288.9" y="320.7" class="node" fill="#DD6F88">0.13</text><text x="310.5" y="332.8" class="node" fill="#DD6F88">0.13</text><text x="332.2" y="344.2" class="node" fill="#627DE1">0.94</text><text x="353.9" y="353.9" class="node" fill="#4A6FE3">1</text><text x="267.2" y="448.6" class="node" fill="#E0E0E2">0.51</text><text x="288.9" y="400.6" class="node" fill="#4A6FE3">1</text><text x="310.5" y="427.7" class="node" fill="#C1C6E3">0.62</text><text x="332.2" y="405.8" class="node" fill="#8F9DE1">0.8</text><text x="353.9" y="392.9" class="node" fill="#E495A5">0.25</text><text x="353.9" y="418.8" class="node" fill="#4A6FE3">1</text><text x="332.2" y="449.6" class="node" fill="#DD6F88">0.13</text><text x="353.9" y="461" class="node" fill="#E0E0E2">0.51</text><text x="375.6" y="470.7" class="node" fill="#DD6F88">0.13</text><text x="288.9" y="496.7" class="node" fill="#4A6FE3">1</text><text x="223.8" y="522.6" class="node" fill="#4A6FE3">1</text><text x="28.7" y="582.7" class="node" fill="#4A6FE3">1</text><text x="50.4" y="564.8" class="node" fill="#4A6FE3">1</text><text x="72" y="574.6" class="node" fill="#8696E1">0.83</text><text x="50.4" y="600.5" class="node" fill="#4A6FE3">1</text></svg>
