<svg xmlns="http://www.w3.org/2000/svg" version="1.1" width="682" height="612" class="tree" data-char="185"><text x="678" y="15.7" text-anchor="end" class="stepsLabel">Character adds <tspan class="score">2</tspan> to tree score</text><text x="678" y="28.4" text-anchor="end" class="stepsLabel"><tspan class="score">0</tspan> additional regions</text><text x="678" y="41.1" text-anchor="end" class="stepsLabel">CI = 0.5; Fitch CI = 0.5; Fitch RI = 0</text><text x="678" y="66.5" text-anchor="end" class="stepsLabel"><tspan dy="16">An optimal tree under:</tspan><tspan x="680" style="font-style:italic" class="thisAn" dy="1.2em">Equal weights</tspan><tspan x="680" style="font-style:italic" class="notThisAn" dy="1.2em">Implied weights, k = 2</tspan><tspan x="680" style="font-style:italic" class="notThisAn" dy="1.2em">IW, k = 3</tspan><tspan x="680" style="font-style:italic" class="notThisAn" dy="1.2em">IW, k = 4.5</tspan><tspan x="680" style="font-style:italic" class="notThisAn" dy="1.2em">IW, k = 7</tspan><tspan x="680" style="font-style:italic" class="notThisAn" dy="1.2em">IW, k = 10.5</tspan><tspan x="680" style="font-style:italic" class="notThisAn" dy="1.2em">IW, k = 16</tspan><tspan x="680" style="font-style:italic" class="notThisAn" dy="1.2em">IW, k = 24</tspan></text><text x="67.2" y="594" fill="#91bfdb" class="flag">[1]</text><text x="89.2" y="594" fill="#000" class="taxonLabel">Serpula</text><text x="67.2" y="607" fill="#91bfdb" class="flag">[1]</text><text x="89.2" y="607" fill="#000" class="taxonLabel">Sipunculus</text><text x="88" y="568.1" fill="#91bfdb" class="flag">[1]</text><text x="110" y="568.1" fill="#000" class="taxonLabel">Dentalium</text><text x="88" y="581" fill="#91bfdb" class="flag">[1]</text><text x="110" y="581" fill="#000" class="taxonLabel">Tonicella</text><text x="67.2" y="555.1" fill="grey" class="flag">[?]</text><text x="89.2" y="555.1" fill="grey" class="taxonLabel">Wiwaxia corrugata</text><text x="253.9" y="516.2" fill="grey" class="flag">[?]</text><text x="275.9" y="516.2" fill="grey" class="taxonLabel">Haplophrentis carinatus</text><text x="253.9" y="529.1" fill="grey" class="flag">[?]</text><text x="275.9" y="529.1" fill="grey" class="taxonLabel">Pedunculotheca diania</text><text x="336.8" y="490.2" fill="grey" class="flag">[?]</text><text x="358.8" y="490.2" fill="grey" class="taxonLabel">Mickwitzia muralensis</text><text x="336.8" y="503.2" fill="grey" class="flag">[?]</text><text x="358.8" y="503.2" fill="grey" class="taxonLabel">Pelagodiscus atlanticus</text><text x="316.1" y="477.2" fill="grey" class="flag">[?]</text><text x="338.1" y="477.2" fill="grey" class="taxonLabel">Micrina</text><text x="440.5" y="451.3" fill="grey" class="flag">[?]</text><text x="462.5" y="451.3" fill="grey" class="taxonLabel">Acanthotretella spinosa</text><text x="440.5" y="464.2" fill="grey" class="flag">[?]</text><text x="462.5" y="464.2" fill="grey" class="taxonLabel">Siphonobolus priscus</text><text x="440.5" y="425.3" fill="grey" class="flag">[?]</text><text x="462.5" y="425.3" fill="grey" class="taxonLabel">Lingulosacculus</text><text x="440.5" y="438.3" fill="grey" class="flag">[?]</text><text x="462.5" y="438.3" fill="grey" class="taxonLabel">Clupeafumosus socialis</text><text x="399" y="412.3" fill="grey" class="flag">[?]</text><text x="421" y="412.3" fill="grey" class="taxonLabel">Lingulellotreta malongensis</text><text x="378.3" y="399.3" fill="grey" class="flag">[?]</text><text x="400.3" y="399.3" fill="grey" class="taxonLabel">Botsfordia</text><text x="357.6" y="386.4" fill="grey" class="flag">[?]</text><text x="379.6" y="386.4" fill="grey" class="taxonLabel">Mummpikia nuda</text><text x="336.8" y="373.4" fill="grey" class="flag">[?]</text><text x="358.8" y="373.4" fill="grey" class="taxonLabel">Eoobolus</text><text x="316.1" y="360.4" fill="grey" class="flag">[?]</text><text x="338.1" y="360.4" fill="grey" class="taxonLabel">Lingula</text><text x="316.1" y="334.5" fill="grey" class="flag">[?]</text><text x="338.1" y="334.5" fill="grey" class="taxonLabel">Gasconsia</text><text x="316.1" y="347.4" fill="grey" class="flag">[?]</text><text x="338.1" y="347.4" fill="grey" class="taxonLabel">Micromitra</text><text x="399" y="308.5" fill="grey" class="flag">[?]</text><text x="421" y="308.5" fill="grey" class="taxonLabel">Coolinia pecten</text><text x="399" y="321.5" fill="grey" class="flag">[?]</text><text x="421" y="321.5" fill="grey" class="taxonLabel">Antigonambonites planus</text><text x="482" y="282.5" fill="grey" class="flag">[?]</text><text x="504" y="282.5" fill="grey" class="taxonLabel">Terebratulina</text><text x="482" y="295.5" fill="grey" class="flag">[?]</text><text x="504" y="295.5" fill="grey" class="taxonLabel">Alisina</text><text x="461.3" y="269.6" fill="grey" class="flag">[?]</text><text x="483.3" y="269.6" fill="grey" class="taxonLabel">Orthis</text><text x="440.5" y="256.6" fill="grey" class="flag">[?]</text><text x="462.5" y="256.6" fill="grey" class="taxonLabel">Glyptoria</text><text x="419.8" y="243.6" fill="grey" class="flag">[?]</text><text x="441.8" y="243.6" fill="grey" class="taxonLabel">Nisusia sulcata</text><text x="399" y="230.6" fill="grey" class="flag">[?]</text><text x="421" y="230.6" fill="grey" class="taxonLabel">Kutorgina chengjiangensis</text><text x="357.6" y="217.7" fill="grey" class="flag">[?]</text><text x="379.6" y="217.7" fill="grey" class="taxonLabel">Longtancunella chengjiangensis</text><text x="378.3" y="191.7" fill="grey" class="flag">[?]</text><text x="400.3" y="191.7" fill="grey" class="taxonLabel">Yuganotheca elegans</text><text x="378.3" y="204.7" fill="grey" class="flag">[?]</text><text x="400.3" y="204.7" fill="grey" class="taxonLabel">Tomteluva perturbata</text><text x="357.6" y="178.7" fill="grey" class="flag">[?]</text><text x="379.6" y="178.7" fill="grey" class="taxonLabel">Salanygolina</text><text x="316.1" y="165.7" fill="grey" class="flag">[?]</text><text x="338.1" y="165.7" fill="grey" class="taxonLabel">Askepasma toddense</text><text x="253.9" y="152.8" fill="grey" class="flag">[?]</text><text x="275.9" y="152.8" fill="grey" class="taxonLabel">Paterimitra</text><text x="212.4" y="139.8" fill="grey" class="flag">[?]</text><text x="234.4" y="139.8" fill="grey" class="taxonLabel">Heliomedusa orienta</text><text x="212.4" y="113.8" fill="grey" class="flag">[?]</text><text x="234.4" y="113.8" fill="grey" class="taxonLabel">Craniops</text><text x="212.4" y="126.8" fill="grey" class="flag">[?]</text><text x="234.4" y="126.8" fill="grey" class="taxonLabel">Novocrania</text><text x="170.9" y="100.8" fill="grey" class="flag">[?]</text><text x="192.9" y="100.8" fill="grey" class="taxonLabel">Ussunia</text><text x="170.9" y="74.9" fill="grey" class="flag">[?]</text><text x="192.9" y="74.9" fill="grey" class="taxonLabel">Halkieria evangelista</text><text x="170.9" y="87.9" fill="grey" class="flag">[?]</text><text x="192.9" y="87.9" fill="grey" class="taxonLabel">Dailyatia</text><text x="129.4" y="61.9" fill="grey" class="flag">[?]</text><text x="151.4" y="61.9" fill="grey" class="taxonLabel">Eccentrotheca</text><text x="108.7" y="48.9" fill="grey" class="flag">[?]</text><text x="130.7" y="48.9" fill="grey" class="taxonLabel">Cotyledion tylodes</text><text x="108.7" y="23" fill="grey" class="flag">[?]</text><text x="130.7" y="23" fill="grey" class="taxonLabel">Namacalathus</text><text x="108.7" y="36" fill="#91bfdb" class="flag">[1]</text><text x="130.7" y="36" fill="#000" class="taxonLabel">Phoronis</text><text x="67.2" y="10" fill="#fc8d59" class="flag">[0]</text><text x="89.2" y="10" fill="#000" class="taxonLabel">Flustra</text><text x="46.5" y="542.1" fill="#fc8d59" class="flag">[0]</text><text x="68.5" y="542.1" fill="#000" class="taxonLabel">Loxosomella</text><path d="M5,431.2V282.8H25.7M25.7,282.8V26.5H46.5M46.5,26.5V45.9H67.2M67.2,45.9V26.5H88M88,26.5V20H108.7M67.2,45.9V65.4H88M88,65.4V45.9H108.7M88,65.4V84.9H108.7M108.7,84.9V58.9H129.4M108.7,84.9V110.8H129.4M129.4,110.8V78.4H150.2M150.2,78.4V71.9H170.9M150.2,78.4V84.9H170.9M129.4,110.8V143.3H150.2M150.2,143.3V97.8H170.9M150.2,143.3V188.8H170.9M170.9,188.8V117.3H191.7M191.7,117.3V110.8H212.4M191.7,117.3V123.8H212.4M170.9,188.8V260.2H191.7M191.7,260.2V136.8H212.4M191.7,260.2V383.6H212.4M212.4,383.6V247.6H233.1M233.1,247.6V149.8H253.9M233.1,247.6V345.4H253.9M253.9,345.4V263.5H274.6M274.6,263.5V189.1H295.3M295.3,189.1V162.7H316.1M295.3,189.1V215.4H316.1M316.1,215.4V185.5H336.8M336.8,185.5V175.7H357.6M336.8,185.5V195.2H357.6M357.6,195.2V188.7H378.3M357.6,195.2V201.7H378.3M316.1,215.4V245.4H336.8M336.8,245.4V214.7H357.6M336.8,245.4V276.1H357.6M357.6,276.1V240.2H378.3M378.3,240.2V227.6H399M378.3,240.2V252.8H399M399,252.8V240.6H419.8M399,252.8V264.9H419.8M419.8,264.9V253.6H440.5M419.8,264.9V276.3H440.5M440.5,276.3V266.6H461.3M440.5,276.3V286H461.3M461.3,286V279.5H482M461.3,286V292.5H482M357.6,276.1V312H378.3M378.3,312V305.5H399M378.3,312V318.5H399M274.6,263.5V337.9H295.3M295.3,337.9V331.5H316.1M295.3,337.9V344.4H316.1M253.9,345.4V427.3H274.6M274.6,427.3V370.6H295.3M295.3,370.6V357.4H316.1M295.3,370.6V383.8H316.1M316.1,383.8V370.4H336.8M316.1,383.8V397.2H336.8M336.8,397.2V383.4H357.6M336.8,397.2V410.9H357.6M357.6,410.9V396.3H378.3M357.6,410.9V425.5H378.3M378.3,425.5V409.3H399M378.3,425.5V441.8H399M399,441.8V428.8H419.8M419.8,428.8V422.3H440.5M419.8,428.8V435.3H440.5M399,441.8V454.8H419.8M419.8,454.8V448.3H440.5M419.8,454.8V461.2H440.5M274.6,427.3V484H295.3M295.3,484V474.2H316.1M295.3,484V493.7H316.1M316.1,493.7V487.2H336.8M316.1,493.7V500.2H336.8M212.4,383.6V519.6H233.1M233.1,519.6V513.2H253.9M233.1,519.6V526.1H253.9" stroke="darkgrey"></path><path d="M46.5,26.5V7H67.2M25.7,282.8V539.1H46.5" stroke="#fc8d59"></path><path d="M88,26.5V33H108.7M5,431.2V579.7H25.7M25.7,579.7V561.8H46.5M46.5,561.8V552.1H67.2M46.5,561.8V571.6H67.2M67.2,571.6V565.1H88M67.2,571.6V578H88M25.7,579.7V597.5H46.5M46.5,597.5V591H67.2M46.5,597.5V604H67.2" stroke="#91bfdb"></path><text x="7" y="434.2" class="node" fill="#4A6FE3">1</text><text x="27.7" y="285.8" class="node" fill="#4A6FE3">1</text><text x="48.5" y="29.5" class="node" fill="#5776E2">0.97</text><text x="69.2" y="48.9" class="node" fill="#5776E2">0.97</text><text x="90" y="29.5" class="node" fill="#6982E1">0.92</text><text x="90" y="68.4" class="node" fill="#5776E2">0.97</text><text x="110.7" y="87.9" class="node" fill="#E495A5">0.25</text><text x="131.4" y="113.8" class="node" fill="#8F9DE1">0.8</text><text x="152.2" y="81.4" class="node" fill="#AEB6E2">0.69</text><text x="152.2" y="146.3" class="node" fill="#4A6FE3">1</text><text x="172.9" y="191.8" class="node" fill="#E495A5">0.25</text><text x="193.7" y="120.3" class="node" fill="#4A6FE3">1</text><text x="193.7" y="263.2" class="node" fill="#8998E1">0.82</text><text x="214.4" y="386.6" class="node" fill="#8998E1">0.82</text><text x="235.1" y="250.6" class="node" fill="#E4D9DB">0.47</text><text x="255.9" y="348.4" class="node" fill="#8998E1">0.82</text><text x="276.6" y="266.5" class="node" fill="#8998E1">0.82</text><text x="297.3" y="192.1" class="node" fill="#E17F94">0.18</text><text x="318.1" y="218.4" class="node" fill="#4A6FE3">1</text><text x="338.8" y="188.5" class="node" fill="#8998E1">0.82</text><text x="359.6" y="198.2" class="node" fill="#5374E2">0.98</text><text x="338.8" y="248.4" class="node" fill="#6982E1">0.92</text><text x="359.6" y="279.1" class="node" fill="#B1B8E2">0.68</text><text x="380.3" y="243.2" class="node" fill="#B1B8E2">0.68</text><text x="401" y="255.8" class="node" fill="#B1B8E2">0.68</text><text x="421.8" y="267.9" class="node" fill="#B1B8E2">0.68</text><text x="442.5" y="279.3" class="node" fill="#4A6FE3">1</text><text x="463.3" y="289" class="node" fill="#E6AEB8">0.33</text><text x="380.3" y="315" class="node" fill="#4A6FE3">1</text><text x="297.3" y="340.9" class="node" fill="#D2D4E3">0.57</text><text x="276.6" y="430.3" class="node" fill="#8696E1">0.83</text><text x="297.3" y="373.6" class="node" fill="#4A6FE3">1</text><text x="318.1" y="386.8" class="node" fill="#5776E2">0.97</text><text x="338.8" y="400.2" class="node" fill="#8696E1">0.83</text><text x="359.6" y="413.9" class="node" fill="#8696E1">0.83</text><text x="380.3" y="428.5" class="node" fill="#8696E1">0.83</text><text x="401" y="444.8" class="node" fill="#A3ADE2">0.73</text><text x="421.8" y="431.8" class="node" fill="#E495A5">0.25</text><text x="421.8" y="457.8" class="node" fill="#4A6FE3">1</text><text x="297.3" y="487" class="node" fill="#8696E1">0.83</text><text x="318.1" y="496.7" class="node" fill="#4A6FE3">1</text><text x="235.1" y="522.6" class="node" fill="#4A6FE3">1</text><text x="27.7" y="582.7" class="node" fill="#4A6FE3">1</text><text x="48.5" y="564.8" class="node" fill="#4A6FE3">1</text><text x="69.2" y="574.6" class="node" fill="#4A6FE3">1</text><text x="48.5" y="600.5" class="node" fill="#4A6FE3">1</text></svg>
