<svg xmlns="http://www.w3.org/2000/svg" version="1.1" width="682" height="682" class="tree" data-char="182"><text x="678" y="15.4" text-anchor="end" class="stepsLabel">Character adds <tspan class="score">2</tspan> to tree score</text><text x="678" y="27.8" text-anchor="end" class="stepsLabel"><tspan class="score">0</tspan> additional regions</text><text x="678" y="40.2" text-anchor="end" class="stepsLabel">CI = 0.5; Fitch CI = 0.5; Fitch RI = 0.67</text><text x="678" y="65" text-anchor="end" class="stepsLabel"><tspan dy="16" fill="#34caaf">An optimal tree under:</tspan><tspan x="680" style="font-style:italic" class="notThisAn" dy="1.2em">Implied weights, k = 3</tspan><tspan x="680" style="font-style:italic" class="notThisAn" dy="1.2em">IW, k = 4.5</tspan><tspan x="680" style="font-style:italic" class="notThisAn" dy="1.2em">IW, k = 7</tspan><tspan x="680" style="font-style:italic" class="notThisAn" dy="1.2em">IW, k = 10.5</tspan><tspan x="680" style="font-style:italic" class="notThisAn" dy="1.2em">IW, k = 16</tspan><tspan x="680" style="font-style:italic" class="notThisAn" dy="1.2em">IW, k = 24</tspan><tspan x="680" style="font-style:italic" class="thisAn" dy="1.2em">Equal weights</tspan></text><text x="306.3" y="664.4" fill="grey" class="flag">[?]</text><text x="328.3" y="664.4" fill="#999" class="taxonLabel">Mickwitzia muralensis</text><text x="306.3" y="677" fill="grey" class="flag">[?]</text><text x="328.3" y="677" fill="#999" class="taxonLabel">Heliomedusa orienta</text><text x="281.2" y="651.8" fill="grey" class="flag">[?]</text><text x="303.2" y="651.8" fill="#999" class="taxonLabel">Micrina</text><text x="331.4" y="626.7" fill="grey" class="flag">[?]</text><text x="353.4" y="626.7" fill="#999" class="taxonLabel">Askepasma toddense</text><text x="331.4" y="639.2" fill="grey" class="flag">[?]</text><text x="353.4" y="639.2" fill="#999" class="taxonLabel">Micromitra</text><text x="381.6" y="601.5" fill="grey" class="flag">[?]</text><text x="403.6" y="601.5" fill="#999" class="taxonLabel">Antigonambonites planus</text><text x="381.6" y="614.1" fill="grey" class="flag">[?]</text><text x="403.6" y="614.1" fill="#999" class="taxonLabel">Coolinia pecten</text><text x="482" y="576.3" fill="grey" class="flag">[?]</text><text x="504" y="576.3" fill="#999" class="taxonLabel">Terebratulina</text><text x="482" y="588.9" fill="grey" class="flag">[?]</text><text x="504" y="588.9" fill="#999" class="taxonLabel">Orthis</text><text x="456.9" y="563.7" fill="grey" class="flag">[?]</text><text x="478.9" y="563.7" fill="#999" class="taxonLabel">Alisina</text><text x="431.8" y="551.2" fill="grey" class="flag">[?]</text><text x="453.8" y="551.2" fill="#999" class="taxonLabel">Longtancunella chengjiangensis</text><text x="406.7" y="538.6" fill="grey" class="flag">[?]</text><text x="428.7" y="538.6" fill="#999" class="taxonLabel">Glyptoria</text><text x="431.8" y="513.4" fill="grey" class="flag">[?]</text><text x="453.8" y="513.4" fill="#999" class="taxonLabel">Tomteluva perturbata</text><text x="431.8" y="526" fill="grey" class="flag">[?]</text><text x="453.8" y="526" fill="#999" class="taxonLabel">Kutorgina chengjiangensis</text><text x="406.7" y="500.8" fill="grey" class="flag">[?]</text><text x="428.7" y="500.8" fill="#999" class="taxonLabel">Nisusia sulcata</text><text x="331.4" y="488.2" fill="grey" class="flag">[?]</text><text x="353.4" y="488.2" fill="#999" class="taxonLabel">Salanygolina</text><text x="482" y="463.1" fill="grey" class="flag">[?]</text><text x="504" y="463.1" fill="#999" class="taxonLabel">Siphonobolus priscus</text><text x="482" y="475.6" fill="grey" class="flag">[?]</text><text x="504" y="475.6" fill="#999" class="taxonLabel">Acanthotretella spinosa</text><text x="482" y="437.9" fill="grey" class="flag">[?]</text><text x="504" y="437.9" fill="#999" class="taxonLabel">Clupeafumosus socialis</text><text x="482" y="450.5" fill="grey" class="flag">[?]</text><text x="504" y="450.5" fill="#999" class="taxonLabel">Lingulosacculus</text><text x="431.8" y="425.3" fill="grey" class="flag">[?]</text><text x="453.8" y="425.3" fill="#999" class="taxonLabel">Lingulellotreta malongensis</text><text x="431.8" y="400.1" fill="grey" class="flag">[?]</text><text x="453.8" y="400.1" fill="#999" class="taxonLabel">Mummpikia nuda</text><text x="431.8" y="412.7" fill="grey" class="flag">[?]</text><text x="453.8" y="412.7" fill="#999" class="taxonLabel">Pelagodiscus atlanticus</text><text x="381.6" y="387.5" fill="grey" class="flag">[?]</text><text x="403.6" y="387.5" fill="#999" class="taxonLabel">Botsfordia</text><text x="356.5" y="375" fill="grey" class="flag">[?]</text><text x="378.5" y="375" fill="#999" class="taxonLabel">Eoobolus</text><text x="331.4" y="362.4" fill="#fc8d59" class="flag">[0]</text><text x="353.4" y="362.4" fill="#000" class="taxonLabel">Lingula</text><text x="381.6" y="337.2" fill="#fc8d59" class="flag">[0]</text><text x="403.6" y="337.2" fill="#000" class="taxonLabel">Novocrania</text><text x="381.6" y="349.8" fill="grey" class="flag">[?]</text><text x="403.6" y="349.8" fill="#999" class="taxonLabel">Craniops</text><text x="356.5" y="324.6" fill="grey" class="flag">[?]</text><text x="378.5" y="324.6" fill="#999" class="taxonLabel">Ussunia</text><text x="331.4" y="312" fill="grey" class="flag">[?]</text><text x="353.4" y="312" fill="#999" class="taxonLabel">Gasconsia</text><text x="230.9" y="299.5" fill="grey" class="flag">[?]</text><text x="252.9" y="299.5" fill="#999" class="taxonLabel">Yuganotheca elegans</text><text x="306.3" y="274.3" fill="grey" class="flag">[?]</text><text x="328.3" y="274.3" fill="#999" class="taxonLabel">Pauxillites</text><text x="306.3" y="286.9" fill="grey" class="flag">[?]</text><text x="328.3" y="286.9" fill="#999" class="taxonLabel">Maxilites</text><text x="281.2" y="261.7" fill="grey" class="flag">[?]</text><text x="303.2" y="261.7" fill="#999" class="taxonLabel">Haplophrentis carinatus</text><text x="331.4" y="236.5" fill="grey" class="flag">[?]</text><text x="353.4" y="236.5" fill="#999" class="taxonLabel">Bactrotheca</text><text x="331.4" y="249.1" fill="grey" class="flag">[?]</text><text x="353.4" y="249.1" fill="#999" class="taxonLabel">Conotheca</text><text x="306.3" y="223.9" fill="grey" class="flag">[?]</text><text x="328.3" y="223.9" fill="#999" class="taxonLabel">Cupitheca holocyclata</text><text x="281.2" y="211.4" fill="grey" class="flag">[?]</text><text x="303.2" y="211.4" fill="#999" class="taxonLabel">Paramicrocornus</text><text x="230.9" y="198.8" fill="grey" class="flag">[?]</text><text x="252.9" y="198.8" fill="#999" class="taxonLabel">Pedunculotheca diania</text><text x="180.7" y="186.2" fill="grey" class="flag">[?]</text><text x="202.7" y="186.2" fill="#999" class="taxonLabel">Paterimitra</text><text x="155.6" y="173.6" fill="grey" class="flag">[?]</text><text x="177.6" y="173.6" fill="#999" class="taxonLabel">Halkieria evangelista</text><text x="130.5" y="161" fill="grey" class="flag">[?]</text><text x="152.5" y="161" fill="#999" class="taxonLabel">Dailyatia</text><text x="130.5" y="135.8" fill="grey" class="flag">[?]</text><text x="152.5" y="135.8" fill="#999" class="taxonLabel">Cotyledion tylodes</text><text x="130.5" y="148.4" fill="grey" class="flag">[?]</text><text x="152.5" y="148.4" fill="#999" class="taxonLabel">Eccentrotheca</text><text x="105.4" y="110.7" fill="#fc8d59" class="flag">[0]</text><text x="127.4" y="110.7" fill="#000" class="taxonLabel">Phoronis</text><text x="105.4" y="123.3" fill="grey" class="flag">[?]</text><text x="127.4" y="123.3" fill="#999" class="taxonLabel">Namacalathus</text><text x="80.3" y="85.5" fill="#fc8d59" class="flag">[0]</text><text x="102.3" y="85.5" fill="#000" class="taxonLabel">Amathia</text><text x="80.3" y="98.1" fill="#fc8d59" class="flag">[0]</text><text x="102.3" y="98.1" fill="#000" class="taxonLabel">Flustra</text><text x="105.4" y="60.3" fill="#fc8d59" class="flag">[0]</text><text x="127.4" y="60.3" fill="#000" class="taxonLabel">Sipunculus</text><text x="105.4" y="72.9" fill="#91bfdb" class="flag">[1]</text><text x="127.4" y="72.9" fill="#000" class="taxonLabel">Serpula</text><text x="130.5" y="35.2" fill="#91bfdb" class="flag">[1]</text><text x="152.5" y="35.2" fill="#000" class="taxonLabel">Tonicella</text><text x="130.5" y="47.8" fill="#91bfdb" class="flag">[1]</text><text x="152.5" y="47.8" fill="#000" class="taxonLabel">Dentalium</text><text x="105.4" y="22.6" fill="grey" class="flag">[?]</text><text x="127.4" y="22.6" fill="#999" class="taxonLabel">Wiwaxia corrugata</text><text x="55.2" y="10" fill="#91bfdb" class="flag">[1]</text><text x="77.2" y="10" fill="#000" class="taxonLabel">Loxosomella</text><path d="M5,70V26.7H30.1M30.1,26.7V7H55.2M30.1,26.7V46.3H55.2M55.2,46.3V29H80.3M80.3,29V19.6H105.4M80.3,29V38.5H105.4M105.4,38.5V32.2H130.5M105.4,38.5V44.8H130.5M55.2,46.3V63.6H80.3M80.3,63.6V69.9H105.4" stroke="#91bfdb"></path><path d="M80.3,63.6V57.3H105.4M5,70V113.4H30.1M30.1,113.4V88.8H55.2M55.2,88.8V82.5H80.3M55.2,88.8V95.1H80.3M30.1,113.4V138H55.2M55.2,138V114H80.3M80.3,114V107.7H105.4M80.3,114V120.3H105.4M55.2,138V162.1H80.3M80.3,162.1V139.1H105.4M105.4,139.1V132.8H130.5M105.4,139.1V145.4H130.5M80.3,162.1V185.1H105.4M105.4,185.1V158H130.5M105.4,185.1V212.1H130.5M130.5,212.1V170.6H155.6M130.5,212.1V253.6H155.6M155.6,253.6V183.2H180.7M155.6,253.6V324.1H180.7M180.7,324.1V219.8H205.8M205.8,219.8V195.8H230.9M205.8,219.8V243.8H230.9M230.9,243.8V219.4H256.1M256.1,219.4V208.4H281.2M256.1,219.4V230.4H281.2M281.2,230.4V220.9H306.3M281.2,230.4V239.8H306.3M306.3,239.8V233.5H331.4M306.3,239.8V246.1H331.4M230.9,243.8V268.1H256.1M256.1,268.1V258.7H281.2M256.1,268.1V277.6H281.2M281.2,277.6V271.3H306.3M281.2,277.6V283.9H306.3M180.7,324.1V428.4H205.8M205.8,428.4V296.5H230.9M205.8,428.4V560.3H230.9M230.9,560.3V462.2H256.1M256.1,462.2V346.7H281.2M281.2,346.7V320H306.3M306.3,320V309H331.4M306.3,320V331.1H331.4M331.4,331.1V321.6H356.5M331.4,331.1V340.5H356.5M356.5,340.5V334.2H381.6M356.5,340.5V346.8H381.6M281.2,346.7V373.3H306.3M306.3,373.3V359.4H331.4M306.3,373.3V387.3H331.4M331.4,387.3V372H356.5M331.4,387.3V402.6H356.5M356.5,402.6V384.5H381.6M356.5,402.6V420.7H381.6M381.6,420.7V403.4H406.7M406.7,403.4V397.1H431.8M406.7,403.4V409.7H431.8M381.6,420.7V438H406.7M406.7,438V422.3H431.8M406.7,438V453.8H431.8M431.8,453.8V441.2H456.9M456.9,441.2V434.9H482M456.9,441.2V447.5H482M431.8,453.8V466.3H456.9M456.9,466.3V460.1H482M456.9,466.3V472.6H482M256.1,462.2V577.8H281.2M281.2,577.8V525.6H306.3M306.3,525.6V485.2H331.4M306.3,525.6V566H331.4M331.4,566V527.3H356.5M356.5,527.3V507.3H381.6M381.6,507.3V497.8H406.7M381.6,507.3V516.7H406.7M406.7,516.7V510.4H431.8M406.7,516.7V523H431.8M356.5,527.3V547.4H381.6M381.6,547.4V535.6H406.7M381.6,547.4V559.2H406.7M406.7,559.2V548.2H431.8M406.7,559.2V570.2H431.8M431.8,570.2V560.7H456.9M431.8,570.2V579.6H456.9M456.9,579.6V573.3H482M456.9,579.6V585.9H482M331.4,566V604.8H356.5M356.5,604.8V598.5H381.6M356.5,604.8V611.1H381.6M281.2,577.8V630H306.3M306.3,630V623.7H331.4M306.3,630V636.2H331.4M230.9,560.3V658.3H256.1M256.1,658.3V648.8H281.2M256.1,658.3V667.7H281.2M281.2,667.7V661.4H306.3M281.2,667.7V674H306.3" stroke="#fc8d59"></path><text x="32.1" y="29.7" class="node" fill="#4A6FE3">1</text><text x="57.2" y="49.3" class="node" fill="#4A6FE3">1</text><text x="82.3" y="32" class="node" fill="#4A6FE3">1</text><text x="107.4" y="41.5" class="node" fill="#4A6FE3">1</text><text x="82.3" y="66.6" class="node" fill="#4A6FE3">1</text><text x="32.1" y="116.4" class="node" fill="#4A6FE3">1</text><text x="57.2" y="91.8" class="node" fill="#4A6FE3">1</text><text x="57.2" y="141" class="node" fill="#4A6FE3">1</text><text x="82.3" y="117" class="node" fill="#E6B4BD">0.35</text><text x="82.3" y="165.1" class="node" fill="#627DE1">0.94</text><text x="107.4" y="142.1" class="node" fill="#E5A5B1">0.3</text><text x="107.4" y="188.1" class="node" fill="#627DE1">0.94</text><text x="132.5" y="215.1" class="node" fill="#627DE1">0.94</text><text x="157.6" y="256.6" class="node" fill="#627DE1">0.94</text><text x="182.7" y="327.1" class="node" fill="#627DE1">0.94</text><text x="207.8" y="222.8" class="node" fill="#627DE1">0.94</text><text x="232.9" y="246.8" class="node" fill="#627DE1">0.94</text><text x="258.1" y="222.4" class="node" fill="#E2899B">0.21</text><text x="283.2" y="233.4" class="node" fill="#627DE1">0.94</text><text x="308.3" y="242.8" class="node" fill="#4A6FE3">1</text><text x="258.1" y="271.1" class="node" fill="#4A6FE3">1</text><text x="283.2" y="280.6" class="node" fill="#4A6FE3">1</text><text x="207.8" y="431.4" class="node" fill="#4A6FE3">1</text><text x="232.9" y="563.3" class="node" fill="#5374E2">0.98</text><text x="258.1" y="465.2" class="node" fill="#627DE1">0.94</text><text x="283.2" y="349.7" class="node" fill="#627DE1">0.94</text><text x="308.3" y="323" class="node" fill="#627DE1">0.94</text><text x="333.4" y="334.1" class="node" fill="#4A6FE3">1</text><text x="358.5" y="343.5" class="node" fill="#4A6FE3">1</text><text x="308.3" y="376.3" class="node" fill="#627DE1">0.94</text><text x="333.4" y="390.3" class="node" fill="#667FE1">0.93</text><text x="358.5" y="405.6" class="node" fill="#667FE1">0.93</text><text x="383.6" y="423.7" class="node" fill="#667FE1">0.93</text><text x="408.7" y="406.4" class="node" fill="#667FE1">0.93</text><text x="408.7" y="441" class="node" fill="#627DE1">0.94</text><text x="433.8" y="456.8" class="node" fill="#4A6FE3">1</text><text x="458.9" y="444.2" class="node" fill="#E5A8B3">0.31</text><text x="458.9" y="469.3" class="node" fill="#4A6FE3">1</text><text x="283.2" y="580.8" class="node" fill="#5B78E2">0.96</text><text x="308.3" y="528.6" class="node" fill="#4A6FE3">1</text><text x="333.4" y="569" class="node" fill="#5B78E2">0.96</text><text x="358.5" y="530.3" class="node" fill="#5F7BE1">0.95</text><text x="383.6" y="510.3" class="node" fill="#E59FAC">0.28</text><text x="408.7" y="519.7" class="node" fill="#DB617F">0.09</text><text x="383.6" y="550.4" class="node" fill="#4A6FE3">1</text><text x="408.7" y="562.2" class="node" fill="#4A6FE3">1</text><text x="433.8" y="573.2" class="node" fill="#4A6FE3">1</text><text x="458.9" y="582.6" class="node" fill="#5B78E2">0.96</text><text x="358.5" y="607.8" class="node" fill="#4A6FE3">1</text><text x="308.3" y="633" class="node" fill="#5B78E2">0.96</text><text x="258.1" y="661.3" class="node" fill="#627DE1">0.94</text><text x="283.2" y="670.7" class="node" fill="#627DE1">0.94</text></svg>
