<svg xmlns="http://www.w3.org/2000/svg" version="1.1" width="682" height="555" class="tree" char="82">
 <text x="678" y="17.6" text-anchor="end" class="stepsLabel">Character adds <tspan class="score">4</tspan> to tree score</text>
 <text x="678" y="32.2" text-anchor="end" class="stepsLabel"><tspan class="score"></tspan> additional region</text>
 <text x="678" y="46.8" text-anchor="end" class="stepsLabel">CI = 0.25; Fitch CI = 0.25; Fitch RI = 0.25</text>
 <text x="678" y="76" text-anchor="end" class="stepsLabel"><tspan dy="16">An optimal tree under:</tspan><tspan x="680" style="font-style:italic" class="notThisAn" dy="1.2em">Equal weights</tspan><tspan x="680" style="font-style:italic" class="notThisAn" dy="1.2em">Implied weights, k = 2</tspan><tspan x="680" style="font-style:italic" class="notThisAn" dy="1.2em">IW, k = 3</tspan><tspan x="680" style="font-style:italic" class="thisAn" dy="1.2em">IW, k = 4.5</tspan><tspan x="680" style="font-style:italic" class="notThisAn" dy="1.2em">IW, k = 7</tspan><tspan x="680" style="font-style:italic" class="notThisAn" dy="1.2em">IW, k = 10.5</tspan><tspan x="680" style="font-style:italic" class="notThisAn" dy="1.2em">IW, k = 16</tspan><tspan x="680" style="font-style:italic" class="notThisAn" dy="1.2em">IW, k = 24</tspan></text>
 <text x="33.1" y="10" fill="grey" class="flag">[?]</text>
 <text x="55.1" y="10" class="taxonLabel">Dailyatia</text>
 <text x="61.1" y="25" fill="lightgrey" class="flag">[-]</text>
 <text x="83.1" y="25" class="taxonLabel">Phoronis</text>
 <text x="89.2" y="40" fill="grey" class="flag">[?]</text>
 <text x="111.2" y="40" class="taxonLabel">Eccentrotheca</text>
 <text x="117.2" y="55" fill="lightgrey" class="flag">[-]</text>
 <text x="139.2" y="55" class="taxonLabel">Paterimitra</text>
 <text x="173.4" y="70" fill="#e2e2a2" class="flag">[1]</text>
 <text x="195.4" y="70" class="taxonLabel">Micrina</text>
 <text x="257.5" y="85" fill="grey" class="flag">[?]</text>
 <text x="279.5" y="85" class="taxonLabel">Gasconsia</text>
 <text x="285.6" y="100" fill="#e2e2a2" class="flag">[1]</text>
 <text x="307.6" y="100" class="taxonLabel">Heliomedusa orienta</text>
 <text x="313.6" y="115" fill="lightgrey" class="flag">[-]</text>
 <text x="335.6" y="115" class="taxonLabel">Ussunia</text>
 <text x="341.7" y="130" fill="#91bfdb" class="flag">[2]</text>
 <text x="363.7" y="130" class="taxonLabel">Novocrania</text>
 <text x="341.7" y="145" fill="grey" class="flag">[?]</text>
 <text x="363.7" y="145" class="taxonLabel">Craniops</text>
 <text x="257.5" y="370" fill="#e2e2a2" class="flag">[1]</text>
 <text x="279.5" y="370" class="taxonLabel">Mickwitzia muralensis</text>
 <text x="257.5" y="385" fill="#91bfdb" class="flag">[2]</text>
 <text x="279.5" y="385" class="taxonLabel">Pelagodiscus atlanticus</text>
 <text x="257.5" y="400" fill="#91bfdb" class="flag">[2]</text>
 <text x="279.5" y="400" class="taxonLabel">Lingula</text>
 <text x="313.6" y="415" fill="grey" class="flag">[?]</text>
 <text x="335.6" y="415" class="taxonLabel">Clupeafumosus socialis</text>
 <text x="341.7" y="430" fill="grey" class="flag">[?]</text>
 <text x="363.7" y="430" class="taxonLabel">Lingulosacculus</text>
 <text x="369.8" y="445" fill="#e2e2a2" class="flag">[1]</text>
 <text x="391.8" y="445" class="taxonLabel">Acanthotretella spinosa</text>
 <text x="369.8" y="460" fill="#e2e2a2" class="flag">[1]</text>
 <text x="391.8" y="460" class="taxonLabel">Siphonobolus priscus</text>
 <text x="313.6" y="475" fill="grey" class="flag">[?]</text>
 <text x="335.6" y="475" class="taxonLabel">Lingulellotreta malongensis</text>
 <text x="341.7" y="490" fill="grey" class="flag">[?]</text>
 <text x="363.7" y="490" class="taxonLabel">Botsfordia</text>
 <text x="369.8" y="505" fill="grey" class="flag">[?]</text>
 <text x="391.8" y="505" class="taxonLabel">Mummpikia nuda</text>
 <text x="369.8" y="520" fill="grey" class="flag">[?]</text>
 <text x="391.8" y="520" class="taxonLabel">Eoobolus</text>
 <text x="285.6" y="340" fill="grey" class="flag">[?]</text>
 <text x="307.6" y="340" class="taxonLabel">Askepasma toddense</text>
 <text x="285.6" y="355" fill="#91bfdb" class="flag">[2]</text>
 <text x="307.6" y="355" class="taxonLabel">Micromitra</text>
 <text x="313.6" y="160" fill="grey" class="flag">[?]</text>
 <text x="335.6" y="160" class="taxonLabel">Salanygolina</text>
 <text x="341.7" y="175" fill="#91bfdb" class="flag">[2]</text>
 <text x="363.7" y="175" class="taxonLabel">Yuganotheca elegans</text>
 <text x="341.7" y="190" fill="grey" class="flag">[?]</text>
 <text x="363.7" y="190" class="taxonLabel">Tomteluva perturbata</text>
 <text x="341.7" y="310" fill="grey" class="flag">[?]</text>
 <text x="363.7" y="310" class="taxonLabel">Coolinia pecten</text>
 <text x="341.7" y="325" fill="grey" class="flag">[?]</text>
 <text x="363.7" y="325" class="taxonLabel">Antigonambonites planus</text>
 <text x="341.7" y="205" fill="#91bfdb" class="flag">[2]</text>
 <text x="363.7" y="205" class="taxonLabel">Kutorgina chengjiangensis</text>
 <text x="369.8" y="220" fill="grey" class="flag">[?]</text>
 <text x="391.8" y="220" class="taxonLabel">Nisusia sulcata</text>
 <text x="397.8" y="235" fill="grey" class="flag">[?]</text>
 <text x="419.8" y="235" class="taxonLabel">Glyptoria</text>
 <text x="425.9" y="250" fill="#91bfdb" class="flag">[2]</text>
 <text x="447.9" y="250" class="taxonLabel">Longtancunella chengjiangensis</text>
 <text x="453.9" y="265" fill="#91bfdb" class="flag">[2]</text>
 <text x="475.9" y="265" class="taxonLabel">Alisina</text>
 <text x="482" y="280" fill="#91bfdb" class="flag">[2]</text>
 <text x="504" y="280" class="taxonLabel">Terebratulina</text>
 <text x="482" y="295" fill="grey" class="flag">[?]</text>
 <text x="504" y="295" class="taxonLabel">Orthis</text>
 <text x="173.4" y="535" fill="grey" class="flag">[?]</text>
 <text x="195.4" y="535" class="taxonLabel">Haplophrentis carinatus</text>
 <text x="173.4" y="550" fill="grey" class="flag">[?]</text>
 <text x="195.4" y="550" class="taxonLabel">Pedunculotheca diania</text>
 <path d="M5,39.4V7H33.1M5,39.4V71.8H33.1M33.1,71.8V22H61.1M33.1,71.8V121.5H61.1M61.1,121.5V37H89.2M61.1,121.5V206H89.2M89.2,206V52H117.2M285.6,123.2V112H313.6" stroke="lightgrey" class="inapplicable"></path>
 <path d="M89.2,206V360.1H117.2M117.2,360.1V180.7H145.3M145.3,180.7V294.3H173.4M173.4,294.3V188.4H201.4M201.4,188.4V96.1H229.5M229.5,96.1V82H257.5M229.5,96.1V110.1H257.5M257.5,110.1V123.2H285.6M285.6,123.2V134.5H313.6M313.6,134.5V142H341.7M173.4,294.3V400.3H201.4M201.4,400.3V374.5H229.5M201.4,400.3V426.1H229.5M229.5,426.1V455.1H257.5M257.5,455.1V425.1H285.6M285.6,425.1V412H313.6M285.6,425.1V438.2H313.6M313.6,438.2V427H341.7M257.5,455.1V485.1H285.6M285.6,485.1V472H313.6M285.6,485.1V498.2H313.6M313.6,498.2V487H341.7M313.6,498.2V509.5H341.7M341.7,509.5V502H369.8M341.7,509.5V517H369.8M117.2,360.1V539.5H145.3M145.3,539.5V532H173.4M145.3,539.5V547H173.4" stroke="darkgrey"></path>
 <path d="M145.3,180.7V67H173.4M257.5,110.1V97H285.6M229.5,374.5V367H257.5M313.6,438.2V449.5H341.7M341.7,449.5V442H369.8M341.7,449.5V457H369.8" stroke="#e2e2a2"></path>
 <path d="M313.6,134.5V127H341.7M201.4,188.4V280.7H229.5M229.5,280.7V216.9H257.5M257.5,216.9V168.2H285.6M285.6,168.2V157H313.6M285.6,168.2V179.5H313.6M313.6,179.5V172H341.7M313.6,179.5V187H341.7M257.5,216.9V265.6H285.6M285.6,265.6V216.8H313.6M313.6,216.8V202H341.7M313.6,216.8V231.5H341.7M341.7,231.5V217H369.8M341.7,231.5V246.1H369.8M369.8,246.1V232H397.8M369.8,246.1V260.1H397.8M397.8,260.1V247H425.9M397.8,260.1V273.2H425.9M425.9,273.2V262H453.9M425.9,273.2V284.5H453.9M453.9,284.5V277H482M453.9,284.5V292H482M285.6,265.6V314.5H313.6M313.6,314.5V307H341.7M313.6,314.5V322H341.7M229.5,280.7V344.5H257.5M257.5,344.5V337H285.6M257.5,344.5V352H285.6M229.5,374.5V382H257.5M229.5,426.1V397H257.5" stroke="#91bfdb"></path>
 <text x="7" y="42.4" class="node" fill="#4A6FE3">1</text>
 <text x="35.1" y="74.8" class="node" fill="#4A6FE3">1</text>
 <text x="63.1" y="124.5" class="node" fill="#E6B1BB">0.34</text>
 <text x="91.2" y="209" class="node" fill="#4A6FE3">1</text>
 <text x="119.2" y="363.1" class="node" fill="#4A6FE3">1</text>
 <text x="147.3" y="183.7" class="node" fill="#7A8DE1">0.87</text>
 <text x="175.4" y="297.3" class="node" fill="#DD6F88">0.13</text>
 <text x="203.4" y="191.4" class="node" fill="#D95A7A">0.07</text>
 <text x="231.5" y="99.1" class="node" fill="#7A8DE1">0.87</text>
 <text x="259.5" y="113.1" class="node" fill="#7A8DE1">0.87</text>
 <text x="287.6" y="126.2" class="node" fill="#4A6FE3">1</text>
 <text x="315.6" y="137.5" class="node" fill="#4A6FE3">1</text>
 <text x="231.5" y="283.7" class="node" fill="#4A6FE3">1</text>
 <text x="259.5" y="219.9" class="node" fill="#4A6FE3">1</text>
 <text x="287.6" y="171.2" class="node" fill="#8C9BE1">0.81</text>
 <text x="315.6" y="182.5" class="node" fill="#6D84E1">0.91</text>
 <text x="287.6" y="268.6" class="node" fill="#4A6FE3">1</text>
 <text x="315.6" y="219.8" class="node" fill="#768BE1">0.88</text>
 <text x="343.7" y="234.5" class="node" fill="#768BE1">0.88</text>
 <text x="371.8" y="249.1" class="node" fill="#768BE1">0.88</text>
 <text x="399.8" y="263.1" class="node" fill="#768BE1">0.88</text>
 <text x="427.9" y="276.2" class="node" fill="#4A6FE3">1</text>
 <text x="455.9" y="287.5" class="node" fill="#667FE1">0.93</text>
 <text x="315.6" y="317.5" class="node" fill="#4A6FE3">1</text>
 <text x="259.5" y="347.5" class="node" fill="#4A6FE3">1</text>
 <text x="203.4" y="403.3" class="node" fill="#DD6F88">0.13</text>
 <text x="231.5" y="377.5" class="node" fill="#DD6F88">0.13</text>
 <text x="231.5" y="429.1" class="node" fill="#7A8DE1">0.87</text>
 <text x="259.5" y="458.1" class="node" fill="#7A8DE1">0.87</text>
 <text x="287.6" y="428.1" class="node" fill="#D7D9E3">0.54</text>
 <text x="315.6" y="441.2" class="node" fill="#E392A2">0.24</text>
 <text x="343.7" y="452.5" class="node" fill="#4A6FE3">1</text>
 <text x="287.6" y="488.1" class="node" fill="#E498A7">0.26</text>
 <text x="315.6" y="501.2" class="node" fill="#E498A7">0.26</text>
 <text x="343.7" y="512.5" class="node" fill="#E498A7">0.26</text>
 <text x="147.3" y="542.5" class="node" fill="#4A6FE3">1</text></svg>
