<svg xmlns="http://www.w3.org/2000/svg" version="1.1" width="682" height="595" class="tree" char="4">
 <text x="678" y="16.6" text-anchor="end" class="stepsLabel">Character adds <tspan class="score">5</tspan> to tree score</text>
 <text x="678" y="30.2" text-anchor="end" class="stepsLabel"><tspan class="score"></tspan> additional region</text>
 <text x="678" y="43.8" text-anchor="end" class="stepsLabel">CI = 0.2; Fitch CI = 0.2; Fitch RI = 0.64</text>
 <text x="678" y="71" text-anchor="end" class="stepsLabel"><tspan dy="16">A most parsimonious tree under:</tspan><tspan x="680" style="font-style:italic" class="thisAn" dy="1.2em">Equal weights</tspan><tspan x="680" style="font-style:italic" class="notThisAn" dy="1.2em">Implied weights, k = 2</tspan><tspan x="680" style="font-style:italic" class="notThisAn" dy="1.2em">Implied weights, k = 3</tspan><tspan x="680" style="font-style:italic" class="notThisAn" dy="1.2em">Implied weights, k = 4.5</tspan><tspan x="680" style="font-style:italic" class="notThisAn" dy="1.2em">Implied weights, k = 7</tspan><tspan x="680" style="font-style:italic" class="notThisAn" dy="1.2em">Implied weights, k = 10.5</tspan><tspan x="680" style="font-style:italic" class="notThisAn" dy="1.2em">Implied weights, k = 16</tspan><tspan x="680" style="font-style:italic" class="notThisAn" dy="1.2em">Implied weights, k = 24</tspan></text>
 <text x="40.9" y="15" fill="lightgrey" class="flag">[-]</text>
 <text x="60.9" y="15" class="taxonLabel">Dailyatia</text>
 <text x="98.8" y="42.9" fill="lightgrey" class="flag">[-]</text>
 <text x="118.8" y="42.9" class="taxonLabel">Eccentrotheca</text>
 <text x="98.8" y="29" fill="lightgrey" class="flag">[-]</text>
 <text x="118.8" y="29" class="taxonLabel">Phoronis</text>
 <text x="98.8" y="56.9" fill="#e2e2a2" class="flag">[1]</text>
 <text x="118.8" y="56.9" class="taxonLabel">Paterimitra</text>
 <text x="156.7" y="70.9" fill="#e2e2a2" class="flag">[1]</text>
 <text x="176.7" y="70.9" class="taxonLabel">Pedunculotheca diania</text>
 <text x="156.7" y="84.9" fill="#e2e2a2" class="flag">[1]</text>
 <text x="176.7" y="84.9" class="taxonLabel">Haplophrentis carinatus</text>
 <text x="214.6" y="98.8" fill="#91bfdb" class="flag">[2]</text>
 <text x="234.6" y="98.8" class="taxonLabel">Gasconsia</text>
 <text x="243.5" y="112.8" fill="#e2e2a2" class="flag">[1]</text>
 <text x="263.5" y="112.8" class="taxonLabel">Heliomedusa orienta</text>
 <text x="272.5" y="126.8" fill="#e2e2a2" class="flag">[1]</text>
 <text x="292.5" y="126.8" class="taxonLabel">Ussunia</text>
 <text x="301.4" y="140.8" fill="#e2e2a2" class="flag">[1]</text>
 <text x="321.4" y="140.8" class="taxonLabel">Craniops</text>
 <text x="301.4" y="154.7" fill="#91bfdb" class="flag">[2]</text>
 <text x="321.4" y="154.7" class="taxonLabel">Novocrania</text>
 <text x="214.6" y="168.7" fill="#e2e2a2" class="flag">[1]</text>
 <text x="234.6" y="168.7" class="taxonLabel">Pelagodiscus atlanticus</text>
 <text x="243.5" y="182.7" fill="#e2e2a2" class="flag">[1]</text>
 <text x="263.5" y="182.7" class="taxonLabel">Mickwitzia muralensis</text>
 <text x="272.5" y="196.6" fill="#e2e2a2" class="flag">[1]</text>
 <text x="292.5" y="196.6" class="taxonLabel">Micrina</text>
 <text x="301.4" y="210.6" fill="#e2e2a2" class="flag">[1]</text>
 <text x="321.4" y="210.6" class="taxonLabel">Lingula</text>
 <text x="330.4" y="224.6" fill="#e2e2a2" class="flag">[1]</text>
 <text x="350.4" y="224.6" class="taxonLabel">Eoobolus</text>
 <text x="359.3" y="238.6" fill="#e2e2a2" class="flag">[1]</text>
 <text x="379.3" y="238.6" class="taxonLabel">Mummpikia nuda</text>
 <text x="388.2" y="252.5" fill="#e2e2a2" class="flag">[1]</text>
 <text x="408.2" y="252.5" class="taxonLabel">Botsfordia</text>
 <text x="475.1" y="294.4" fill="#e2e2a2" class="flag">[1]</text>
 <text x="495.1" y="294.4" class="taxonLabel">Lingulosacculus</text>
 <text x="417.2" y="266.5" fill="#e2e2a2" class="flag">[1]</text>
 <text x="437.2" y="266.5" class="taxonLabel">Lingulellotreta malongensis</text>
 <text x="446.1" y="280.5" fill="#e2e2a2" class="flag">[1]</text>
 <text x="466.1" y="280.5" class="taxonLabel">Clupeafumosus socialis</text>
 <text x="504" y="308.4" fill="#e2e2a2" class="flag">[1]</text>
 <text x="524" y="308.4" class="taxonLabel">Acanthotretella spinosa</text>
 <text x="504" y="322.4" fill="#e2e2a2" class="flag">[1]</text>
 <text x="524" y="322.4" class="taxonLabel">Siphonobolus priscus</text>
 <text x="214.6" y="336.4" fill="#91bfdb" class="flag">[2]</text>
 <text x="234.6" y="336.4" class="taxonLabel">Askepasma toddense</text>
 <text x="214.6" y="350.3" fill="#91bfdb" class="flag">[2]</text>
 <text x="234.6" y="350.3" class="taxonLabel">Micromitra</text>
 <text x="243.5" y="364.3" fill="#91bfdb" class="flag">[2]</text>
 <text x="263.5" y="364.3" class="taxonLabel">Salanygolina</text>
 <text x="272.5" y="392.2" fill="#e2e2a2" class="flag">[1]</text>
 <text x="292.5" y="392.2" class="taxonLabel">Tomteluva perturbata</text>
 <text x="272.5" y="378.3" fill="grey" class="flag">[?]</text>
 <text x="292.5" y="378.3" class="taxonLabel">Yuganotheca elegans</text>
 <text x="301.4" y="420.2" fill="grey" class="flag">[12]</text>
 <text x="321.4" y="420.2" class="taxonLabel">Kutorgina chengjiangensis</text>
 <text x="330.4" y="434.2" fill="#91bfdb" class="flag">[2]</text>
 <text x="350.4" y="434.2" class="taxonLabel">Nisusia sulcata</text>
 <text x="359.3" y="448.1" fill="#91bfdb" class="flag">[2]</text>
 <text x="379.3" y="448.1" class="taxonLabel">Glyptoria</text>
 <text x="243.5" y="406.2" fill="#91bfdb" class="flag">[2]</text>
 <text x="263.5" y="406.2" class="taxonLabel">Longtancunella chengjiangensis</text>
 <text x="417.2" y="490.1" fill="#91bfdb" class="flag">[2]</text>
 <text x="437.2" y="490.1" class="taxonLabel">Alisina</text>
 <text x="388.2" y="462.1" fill="#91bfdb" class="flag">[2]</text>
 <text x="408.2" y="462.1" class="taxonLabel">Orthis</text>
 <text x="417.2" y="476.1" fill="#e2e2a2" class="flag">[1]</text>
 <text x="437.2" y="476.1" class="taxonLabel">Terebratulina</text>
 <text x="301.4" y="504" fill="#91bfdb" class="flag">[2]</text>
 <text x="321.4" y="504" class="taxonLabel">Coolinia pecten</text>
 <text x="301.4" y="518" fill="#91bfdb" class="flag">[2]</text>
 <text x="321.4" y="518" class="taxonLabel">Antigonambonites planus</text>
 <path d="M10,41.8V12H38.9M10,41.8V71.6H38.9M38.9,71.6V33H67.9M67.9,33V26H96.8M67.9,33V39.9H96.8" stroke="lightgrey" class="inapplicable"></path>
 <path d="M38.9,71.6V110.2H67.9M67.9,110.2V53.9H96.8M67.9,110.2V166.6H96.8M96.8,166.6V74.9H125.8M125.8,74.9V67.9H154.7M125.8,74.9V81.9H154.7M96.8,166.6V258.2H125.8M125.8,258.2V144.3H154.7M154.7,144.3V108.9H183.6M183.6,108.9V122H212.6M212.6,122V109.8H241.5M212.6,122V134.3H241.5M241.5,134.3V123.8H270.5M241.5,134.3V144.7H270.5M270.5,144.7V137.8H299.4M154.7,144.3V179.7H183.6M183.6,179.7V165.7H212.6M183.6,179.7V193.6H212.6M212.6,193.6V179.7H241.5M212.6,193.6V207.6H241.5M241.5,207.6V193.6H270.5M241.5,207.6V221.5H270.5M270.5,221.5V207.6H299.4M270.5,221.5V235.4H299.4M299.4,235.4V221.6H328.4M299.4,235.4V249.3H328.4M328.4,249.3V235.6H357.3M328.4,249.3V263.1H357.3M357.3,263.1V249.5H386.2M357.3,263.1V276.6H386.2M386.2,276.6V263.5H415.2M386.2,276.6V289.7H415.2M415.2,289.7V277.5H444.1M415.2,289.7V301.9H444.1M444.1,301.9V291.4H473.1M444.1,301.9V312.4H473.1M473.1,312.4V305.4H502M473.1,312.4V319.4H502M241.5,382.3V389.2H270.5M386.2,480.1V473.1H415.2" stroke="#e2e2a2"></path>
 <path d="M183.6,108.9V95.8H212.6M270.5,144.7V151.7H299.4M125.8,258.2V372.2H154.7M154.7,372.2V340.3H183.6M183.6,340.3V333.4H212.6M183.6,340.3V347.3H212.6M154.7,372.2V404H183.6M183.6,404V371.8H212.6M212.6,371.8V361.3H241.5M212.6,371.8V382.3H241.5M183.6,404V436.3H212.6M212.6,436.3V403.2H241.5M212.6,436.3V469.4H241.5M241.5,469.4V430.7H270.5M270.5,430.7V417.2H299.4M270.5,430.7V444.3H299.4M299.4,444.3V431.2H328.4M299.4,444.3V457.4H328.4M328.4,457.4V445.1H357.3M328.4,457.4V469.6H357.3M357.3,469.6V459.1H386.2M357.3,469.6V480.1H386.2M386.2,480.1V487.1H415.2M241.5,469.4V508H270.5M270.5,508V501H299.4M270.5,508V515H299.4" stroke="#91bfdb"></path>
 <path d="M241.5,382.3V375.3H270.5" stroke="darkgrey"></path></svg>
