<svg xmlns="http://www.w3.org/2000/svg" version="1.1" width="682" height="682" class="tree" data-char="68"><text x="678" y="15.6" text-anchor="end" class="stepsLabel">Character adds <tspan class="score">6</tspan> to tree score</text><text x="678" y="28.2" text-anchor="end" class="stepsLabel"><tspan class="score">1</tspan> additional region</text><text x="678" y="40.8" text-anchor="end" class="stepsLabel">CI = 0.17; Fitch CI = 0.2; Fitch RI = 0.64</text><text x="678" y="66" text-anchor="end" class="stepsLabel"><tspan dy="16" fill="#34caaf">An optimal tree under:</tspan><tspan x="680" style="font-style:italic" class="thisAn" dy="1.2em">Equal weights</tspan><tspan x="680" style="font-style:italic" class="notThisAn" dy="1.2em">Implied weights, k = 2</tspan><tspan x="680" style="font-style:italic" class="notThisAn" dy="1.2em">IW, k = 3</tspan><tspan x="680" style="font-style:italic" class="notThisAn" dy="1.2em">IW, k = 4.5</tspan><tspan x="680" style="font-style:italic" class="notThisAn" dy="1.2em">IW, k = 7</tspan><tspan x="680" style="font-style:italic" class="notThisAn" dy="1.2em">IW, k = 10.5</tspan><tspan x="680" style="font-style:italic" class="notThisAn" dy="1.2em">IW, k = 16</tspan><tspan x="680" style="font-style:italic" class="notThisAn" dy="1.2em">IW, k = 24</tspan></text><text x="73.1" y="664.2" fill="lightgrey" class="flag">[-]</text><text x="95.1" y="664.2" fill="#ccc" class="taxonLabel">Serpula</text><text x="73.1" y="677" fill="lightgrey" class="flag">[-]</text><text x="95.1" y="677" fill="#ccc" class="taxonLabel">Sipunculus</text><text x="95.9" y="638.5" fill="#e2e2a2" class="flag">[1]</text><text x="117.9" y="638.5" fill="#000" class="taxonLabel">Tonicella</text><text x="95.9" y="651.3" fill="lightgrey" class="flag">[-]</text><text x="117.9" y="651.3" fill="#ccc" class="taxonLabel">Dentalium</text><text x="73.1" y="625.7" fill="lightgrey" class="flag">[-]</text><text x="95.1" y="625.7" fill="#ccc" class="taxonLabel">Wiwaxia corrugata</text><text x="141.3" y="587.2" fill="lightgrey" class="flag">[-]</text><text x="163.3" y="587.2" fill="#ccc" class="taxonLabel">Eccentrotheca</text><text x="141.3" y="600" fill="lightgrey" class="flag">[-]</text><text x="163.3" y="600" fill="#ccc" class="taxonLabel">Cotyledion tylodes</text><text x="459.3" y="561.6" fill="#e2e2a2" class="flag">[1]</text><text x="481.3" y="561.6" fill="#000" class="taxonLabel">Siphonobolus priscus</text><text x="459.3" y="574.4" fill="#e2e2a2" class="flag">[1]</text><text x="481.3" y="574.4" fill="#000" class="taxonLabel">Acanthotretella spinosa</text><text x="436.6" y="548.7" fill="#e2e2a2" class="flag">[1]</text><text x="458.6" y="548.7" fill="#000" class="taxonLabel">Clupeafumosus socialis</text><text x="413.9" y="535.9" fill="#e2e2a2" class="flag">[1]</text><text x="435.9" y="535.9" fill="#000" class="taxonLabel">Lingulosacculus</text><text x="391.1" y="523.1" fill="#e2e2a2" class="flag">[1]</text><text x="413.1" y="523.1" fill="#000" class="taxonLabel">Lingulellotreta malongensis</text><text x="391.1" y="497.4" fill="#e2e2a2" class="flag">[1]</text><text x="413.1" y="497.4" fill="#000" class="taxonLabel">Pelagodiscus atlanticus</text><text x="391.1" y="510.2" fill="#e2e2a2" class="flag">[1]</text><text x="413.1" y="510.2" fill="#000" class="taxonLabel">Mummpikia nuda</text><text x="345.7" y="484.6" fill="#e2e2a2" class="flag">[1]</text><text x="367.7" y="484.6" fill="#000" class="taxonLabel">Botsfordia</text><text x="323" y="471.8" fill="#e2e2a2" class="flag">[1]</text><text x="345" y="471.8" fill="#000" class="taxonLabel">Eoobolus</text><text x="300.3" y="458.9" fill="#e2e2a2" class="flag">[1]</text><text x="322.3" y="458.9" fill="#000" class="taxonLabel">Lingula</text><text x="391.1" y="433.3" fill="#91bfdb" class="flag">[2]</text><text x="413.1" y="433.3" fill="#000" class="taxonLabel">Novocrania</text><text x="391.1" y="446.1" fill="#e2e2a2" class="flag">[1]</text><text x="413.1" y="446.1" fill="#000" class="taxonLabel">Craniops</text><text x="368.4" y="420.5" fill="#e2e2a2" class="flag">[1]</text><text x="390.4" y="420.5" fill="#000" class="taxonLabel">Ussunia</text><text x="345.7" y="407.6" fill="#e2e2a2" class="flag">[1]</text><text x="367.7" y="407.6" fill="#000" class="taxonLabel">Heliomedusa orienta</text><text x="323" y="394.8" fill="#e2e2a2" class="flag">[1]</text><text x="345" y="394.8" fill="#000" class="taxonLabel">Mickwitzia muralensis</text><text x="323" y="369.2" fill="#91bfdb" class="flag">[2]</text><text x="345" y="369.2" fill="#000" class="taxonLabel">Micromitra</text><text x="323" y="382" fill="#91bfdb" class="flag">[2]</text><text x="345" y="382" fill="#000" class="taxonLabel">Gasconsia</text><text x="368.4" y="343.5" fill="#91bfdb" class="flag">[2]</text><text x="390.4" y="343.5" fill="#000" class="taxonLabel">Antigonambonites planus</text><text x="368.4" y="356.3" fill="#91bfdb" class="flag">[2]</text><text x="390.4" y="356.3" fill="#000" class="taxonLabel">Coolinia pecten</text><text x="482" y="317.8" fill="#91bfdb" class="flag">[2]</text><text x="504" y="317.8" fill="#000" class="taxonLabel">Orthis</text><text x="482" y="330.7" fill="#e2e2a2" class="flag">[1]</text><text x="504" y="330.7" fill="#000" class="taxonLabel">Terebratulina</text><text x="459.3" y="305" fill="#91bfdb" class="flag">[2]</text><text x="481.3" y="305" fill="#000" class="taxonLabel">Alisina</text><text x="436.6" y="292.2" fill="#91bfdb" class="flag">[2]</text><text x="458.6" y="292.2" fill="#000" class="taxonLabel">Longtancunella chengjiangensis</text><text x="413.9" y="279.4" fill="#91bfdb" class="flag">[2]</text><text x="435.9" y="279.4" fill="#000" class="taxonLabel">Glyptoria</text><text x="391.1" y="266.5" fill="#91bfdb" class="flag">[2]</text><text x="413.1" y="266.5" fill="#000" class="taxonLabel">Nisusia sulcata</text><text x="368.4" y="253.7" fill="grey" class="flag">[12]</text><text x="390.4" y="253.7" fill="#999" class="taxonLabel">Kutorgina chengjiangensis</text><text x="345.7" y="228.1" fill="grey" class="flag">[?]</text><text x="367.7" y="228.1" fill="#999" class="taxonLabel">Yuganotheca elegans</text><text x="345.7" y="240.9" fill="#e2e2a2" class="flag">[1]</text><text x="367.7" y="240.9" fill="#000" class="taxonLabel">Tomteluva perturbata</text><text x="300.3" y="215.2" fill="#91bfdb" class="flag">[2]</text><text x="322.3" y="215.2" fill="#000" class="taxonLabel">Salanygolina</text><text x="277.6" y="202.4" fill="#91bfdb" class="flag">[2]</text><text x="299.6" y="202.4" fill="#000" class="taxonLabel">Askepasma toddense</text><text x="232.1" y="189.6" fill="#e2e2a2" class="flag">[1]</text><text x="254.1" y="189.6" fill="#000" class="taxonLabel">Micrina</text><text x="323" y="163.9" fill="#e2e2a2" class="flag">[1]</text><text x="345" y="163.9" fill="#000" class="taxonLabel">Maxilites</text><text x="323" y="176.8" fill="#e2e2a2" class="flag">[1]</text><text x="345" y="176.8" fill="#000" class="taxonLabel">Pauxillites</text><text x="300.3" y="151.1" fill="#e2e2a2" class="flag">[1]</text><text x="322.3" y="151.1" fill="#000" class="taxonLabel">Haplophrentis carinatus</text><text x="277.6" y="138.3" fill="#e2e2a2" class="flag">[1]</text><text x="299.6" y="138.3" fill="#000" class="taxonLabel">Paramicrocornus</text><text x="277.6" y="112.6" fill="#e2e2a2" class="flag">[1]</text><text x="299.6" y="112.6" fill="#000" class="taxonLabel">Bactrotheca</text><text x="277.6" y="125.4" fill="#e2e2a2" class="flag">[1]</text><text x="299.6" y="125.4" fill="#000" class="taxonLabel">Conotheca</text><text x="232.1" y="99.8" fill="#e2e2a2" class="flag">[1]</text><text x="254.1" y="99.8" fill="#000" class="taxonLabel">Pedunculotheca diania</text><text x="186.7" y="87" fill="#e2e2a2" class="flag">[1]</text><text x="208.7" y="87" fill="#000" class="taxonLabel">Paterimitra</text><text x="164" y="74.1" fill="#e2e2a2" class="flag">[1]</text><text x="186" y="74.1" fill="#000" class="taxonLabel">Halkieria evangelista</text><text x="141.3" y="61.3" fill="lightgrey" class="flag">[-]</text><text x="163.3" y="61.3" fill="#ccc" class="taxonLabel">Dailyatia</text><text x="118.6" y="35.7" fill="lightgrey" class="flag">[-]</text><text x="140.6" y="35.7" fill="#ccc" class="taxonLabel">Phoronis</text><text x="118.6" y="48.5" fill="lightgrey" class="flag">[-]</text><text x="140.6" y="48.5" fill="#ccc" class="taxonLabel">Namacalathus</text><text x="95.9" y="10" fill="lightgrey" class="flag">[-]</text><text x="117.9" y="10" fill="#ccc" class="taxonLabel">Flustra</text><text x="95.9" y="22.8" fill="lightgrey" class="flag">[-]</text><text x="117.9" y="22.8" fill="#ccc" class="taxonLabel">Amathia</text><text x="50.4" y="612.9" fill="lightgrey" class="flag">[-]</text><text x="72.4" y="612.9" fill="#ccc" class="taxonLabel">Loxosomella</text><path d="M5,502.5V355.1H27.7M27.7,355.1V100.4H50.4M50.4,100.4V13.4H73.1M73.1,13.4V7H95.9M73.1,13.4V19.8H95.9M50.4,100.4V187.3H73.1M73.1,187.3V39.1H95.9M95.9,39.1V32.7H118.6M95.9,39.1V45.5H118.6M73.1,187.3V335.6H95.9M95.9,335.6V80.5H118.6M118.6,80.5V58.3H141.3M95.9,335.6V590.6H118.6M118.6,590.6V584.2H141.3M118.6,590.6V597H141.3M27.7,355.1V609.9H50.4M5,502.5V649.9H27.7M27.7,649.9V632.3H50.4M50.4,632.3V622.7H73.1M50.4,632.3V641.9H73.1M73.1,641.9V648.3H95.9M27.7,649.9V667.6H50.4M50.4,667.6V661.2H73.1M50.4,667.6V674H73.1" stroke="lightgrey" class="inapplicable"></path><path d="M118.6,80.5V102.7H141.3M141.3,102.7V71.1H164M141.3,102.7V134.4H164M164,134.4V84H186.7M164,134.4V184.8H186.7M186.7,184.8V114H209.4M209.4,114V96.8H232.1M209.4,114V131.3H232.1M232.1,131.3V116H254.9M254.9,116V109.6H277.6M254.9,116V122.4H277.6M232.1,131.3V146.5H254.9M254.9,146.5V135.3H277.6M254.9,146.5V157.7H277.6M277.6,157.7V148.1H300.3M277.6,157.7V167.3H300.3M300.3,167.3V160.9H323M300.3,167.3V173.8H323M186.7,184.8V255.5H209.4M209.4,255.5V186.6H232.1M209.4,255.5V324.4H232.1M323,231.5V237.9H345.7M459.3,321.3V327.7H482M232.1,324.4V429.1H254.9M254.9,429.1V388.2H277.6M277.6,388.2V403.8H300.3M300.3,403.8V391.8H323M300.3,403.8V415.9H323M323,415.9V404.6H345.7M323,415.9V427.1H345.7M345.7,427.1V417.5H368.4M345.7,427.1V436.7H368.4M368.4,436.7V443.1H391.1M254.9,429.1V469.9H277.6M277.6,469.9V455.9H300.3M277.6,469.9V483.9H300.3M300.3,483.9V468.8H323M300.3,483.9V499H323M323,499V481.6H345.7M323,499V516.5H345.7M345.7,516.5V500.8H368.4M368.4,500.8V494.4H391.1M368.4,500.8V507.2H391.1M345.7,516.5V532.1H368.4M368.4,532.1V520.1H391.1M368.4,532.1V544.1H391.1M391.1,544.1V532.9H413.9M391.1,544.1V555.4H413.9M413.9,555.4V545.7H436.6M413.9,555.4V565H436.6M436.6,565V558.6H459.3M436.6,565V571.4H459.3M73.1,641.9V635.5H95.9" stroke="#e2e2a2"></path><path d="M232.1,324.4V219.8H254.9M254.9,219.8V199.4H277.6M254.9,219.8V240.3H277.6M277.6,240.3V212.2H300.3M277.6,240.3V268.3H300.3M300.3,268.3V231.5H323M300.3,268.3V305.1H323M323,305.1V263.3H345.7M345.7,263.3V250.7H368.4M345.7,263.3V276H368.4M368.4,276V263.5H391.1M368.4,276V288.4H391.1M391.1,288.4V276.4H413.9M391.1,288.4V300.4H413.9M413.9,300.4V289.2H436.6M413.9,300.4V311.6H436.6M436.6,311.6V302H459.3M436.6,311.6V321.3H459.3M459.3,321.3V314.8H482M323,305.1V346.9H345.7M345.7,346.9V340.5H368.4M345.7,346.9V353.3H368.4M277.6,388.2V372.6H300.3M300.3,372.6V366.2H323M300.3,372.6V379H323M368.4,436.7V430.3H391.1" stroke="#91bfdb"></path><path d="M323,231.5V225.1H345.7" stroke="darkgrey"></path><text x="7" y="505.5" class="node" fill="#4A6FE3">1</text><text x="29.7" y="358.1" class="node" fill="#4A6FE3">1</text><text x="52.4" y="103.4" class="node" fill="#4A6FE3">1</text><text x="75.1" y="16.4" class="node" fill="#4A6FE3">1</text><text x="75.1" y="190.3" class="node" fill="#4A6FE3">1</text><text x="97.9" y="42.1" class="node" fill="#E4D6D8">0.46</text><text x="97.9" y="338.6" class="node" fill="#8998E1">0.82</text><text x="120.6" y="83.5" class="node" fill="#8998E1">0.82</text><text x="143.3" y="105.7" class="node" fill="#8998E1">0.82</text><text x="166" y="137.4" class="node" fill="#4F72E2">0.99</text><text x="188.7" y="187.8" class="node" fill="#4F72E2">0.99</text><text x="211.4" y="117" class="node" fill="#4F72E2">0.99</text><text x="234.1" y="134.3" class="node" fill="#8696E1">0.83</text><text x="256.9" y="119" class="node" fill="#E4D3D6">0.45</text><text x="256.9" y="149.5" class="node" fill="#4A6FE3">1</text><text x="279.6" y="160.7" class="node" fill="#4A6FE3">1</text><text x="302.3" y="170.3" class="node" fill="#4A6FE3">1</text><text x="211.4" y="258.5" class="node" fill="#8998E1">0.82</text><text x="234.1" y="327.4" class="node" fill="#DADBE3">0.53</text><text x="256.9" y="222.8" class="node" fill="#E6C4C9">0.4</text><text x="279.6" y="243.3" class="node" fill="#9AA6E2">0.76</text><text x="302.3" y="271.3" class="node" fill="#E6B1BB">0.34</text><text x="325" y="234.5" class="node" fill="#B9BFE3">0.65</text><text x="325" y="308.1" class="node" fill="#E498A7">0.26</text><text x="347.7" y="266.3" class="node" fill="#E5A5B1">0.3</text><text x="370.4" y="279" class="node" fill="#E59FAC">0.28</text><text x="393.1" y="291.4" class="node" fill="#E6BDC5">0.38</text><text x="415.9" y="303.4" class="node" fill="#E5D0D3">0.44</text><text x="438.6" y="314.6" class="node" fill="#5B78E2">0.96</text><text x="461.3" y="324.3" class="node" fill="#BFC4E3">0.63</text><text x="347.7" y="349.9" class="node" fill="#4A6FE3">1</text><text x="256.9" y="432.1" class="node" fill="#E5C7CC">0.41</text><text x="279.6" y="391.2" class="node" fill="#E5C7CC">0.41</text><text x="302.3" y="375.6" class="node" fill="#E6C4C9">0.4</text><text x="302.3" y="406.8" class="node" fill="#E5C7CC">0.41</text><text x="325" y="418.9" class="node" fill="#8696E1">0.83</text><text x="347.7" y="430.1" class="node" fill="#4A6FE3">1</text><text x="370.4" y="439.7" class="node" fill="#4A6FE3">1</text><text x="279.6" y="472.9" class="node" fill="#9DA8E2">0.75</text><text x="302.3" y="486.9" class="node" fill="#E6B4BD">0.35</text><text x="325" y="502" class="node" fill="#E6B4BD">0.35</text><text x="347.7" y="519.5" class="node" fill="#E6B4BD">0.35</text><text x="370.4" y="503.8" class="node" fill="#E3DFE0">0.49</text><text x="370.4" y="535.1" class="node" fill="#E6BAC2">0.37</text><text x="393.1" y="547.1" class="node" fill="#97A4E2">0.77</text><text x="415.9" y="558.4" class="node" fill="#E5A5B1">0.3</text><text x="438.6" y="568" class="node" fill="#4F72E2">0.99</text><text x="120.6" y="593.6" class="node" fill="#E5A8B3">0.31</text><text x="29.7" y="652.9" class="node" fill="#4A6FE3">1</text><text x="52.4" y="635.3" class="node" fill="#4A6FE3">1</text><text x="75.1" y="644.9" class="node" fill="#4A6FE3">1</text><text x="52.4" y="670.6" class="node" fill="#4A6FE3">1</text></svg>
