<svg xmlns="http://www.w3.org/2000/svg" version="1.1" width="682" height="612" class="tree" data-char="168"><text x="678" y="15.4" text-anchor="end" class="stepsLabel">Character adds <tspan class="score">2</tspan> to tree score</text><text x="678" y="27.8" text-anchor="end" class="stepsLabel"><tspan class="score">0</tspan> additional regions</text><text x="678" y="40.2" text-anchor="end" class="stepsLabel">CI = 0.5; Fitch CI = 0.5; Fitch RI = 0.67</text><text x="678" y="65" text-anchor="end" class="stepsLabel"><tspan dy="16">An optimal tree under:</tspan><tspan x="680" style="font-style:italic" class="notThisAn" dy="1.2em">Equal weights</tspan><tspan x="680" style="font-style:italic" class="notThisAn" dy="1.2em">Implied weights, k = 2</tspan><tspan x="680" style="font-style:italic" class="notThisAn" dy="1.2em">IW, k = 3</tspan><tspan x="680" style="font-style:italic" class="notThisAn" dy="1.2em">IW, k = 4.5</tspan><tspan x="680" style="font-style:italic" class="thisAn" dy="1.2em">IW, k = 7</tspan><tspan x="680" style="font-style:italic" class="notThisAn" dy="1.2em">IW, k = 10.5</tspan><tspan x="680" style="font-style:italic" class="notThisAn" dy="1.2em">IW, k = 16</tspan><tspan x="680" style="font-style:italic" class="notThisAn" dy="1.2em">IW, k = 24</tspan></text><text x="105.4" y="594.3" fill="#fc8d59" class="flag">[0]</text><text x="127.4" y="594.3" fill="#000" class="taxonLabel">Dentalium</text><text x="105.4" y="607" fill="#fc8d59" class="flag">[0]</text><text x="127.4" y="607" fill="#000" class="taxonLabel">Tonicella</text><text x="80.3" y="581.6" fill="grey" class="flag">[?]</text><text x="102.3" y="581.6" fill="#999" class="taxonLabel">Wiwaxia corrugata</text><text x="80.3" y="556.2" fill="#91bfdb" class="flag">[1]</text><text x="102.3" y="556.2" fill="#000" class="taxonLabel">Serpula</text><text x="80.3" y="568.9" fill="#fc8d59" class="flag">[0]</text><text x="102.3" y="568.9" fill="#000" class="taxonLabel">Sipunculus</text><text x="80.3" y="530.8" fill="grey" class="flag">[?]</text><text x="102.3" y="530.8" fill="#999" class="taxonLabel">Cotyledion tylodes</text><text x="80.3" y="543.5" fill="#fc8d59" class="flag">[0]</text><text x="102.3" y="543.5" fill="#000" class="taxonLabel">Loxosomella</text><text x="256.1" y="505.4" fill="grey" class="flag">[?]</text><text x="278.1" y="505.4" fill="#999" class="taxonLabel">Haplophrentis carinatus</text><text x="256.1" y="518.1" fill="grey" class="flag">[?]</text><text x="278.1" y="518.1" fill="#999" class="taxonLabel">Pedunculotheca diania</text><text x="230.9" y="492.7" fill="grey" class="flag">[?]</text><text x="252.9" y="492.7" fill="#999" class="taxonLabel">Yuganotheca elegans</text><text x="381.6" y="467.3" fill="#91bfdb" class="flag">[1]</text><text x="403.6" y="467.3" fill="#000" class="taxonLabel">Lingula</text><text x="381.6" y="480" fill="grey" class="flag">[?]</text><text x="403.6" y="480" fill="#999" class="taxonLabel">Lingulellotreta malongensis</text><text x="431.8" y="441.9" fill="grey" class="flag">[?]</text><text x="453.8" y="441.9" fill="#999" class="taxonLabel">Siphonobolus priscus</text><text x="431.8" y="454.6" fill="grey" class="flag">[?]</text><text x="453.8" y="454.6" fill="#999" class="taxonLabel">Acanthotretella spinosa</text><text x="406.7" y="429.2" fill="grey" class="flag">[?]</text><text x="428.7" y="429.2" fill="#999" class="taxonLabel">Lingulosacculus</text><text x="381.6" y="416.5" fill="grey" class="flag">[?]</text><text x="403.6" y="416.5" fill="#999" class="taxonLabel">Clupeafumosus socialis</text><text x="331.4" y="403.8" fill="grey" class="flag">[?]</text><text x="353.4" y="403.8" fill="#999" class="taxonLabel">Pelagodiscus atlanticus</text><text x="356.5" y="378.4" fill="grey" class="flag">[?]</text><text x="378.5" y="378.4" fill="#999" class="taxonLabel">Botsfordia</text><text x="356.5" y="391.1" fill="grey" class="flag">[?]</text><text x="378.5" y="391.1" fill="#999" class="taxonLabel">Mummpikia nuda</text><text x="331.4" y="365.7" fill="grey" class="flag">[?]</text><text x="353.4" y="365.7" fill="#999" class="taxonLabel">Eoobolus</text><text x="356.5" y="340.3" fill="#91bfdb" class="flag">[1]</text><text x="378.5" y="340.3" fill="#000" class="taxonLabel">Novocrania</text><text x="356.5" y="353" fill="grey" class="flag">[?]</text><text x="378.5" y="353" fill="#999" class="taxonLabel">Craniops</text><text x="331.4" y="327.6" fill="grey" class="flag">[?]</text><text x="353.4" y="327.6" fill="#999" class="taxonLabel">Ussunia</text><text x="306.3" y="314.9" fill="grey" class="flag">[?]</text><text x="328.3" y="314.9" fill="#999" class="taxonLabel">Gasconsia</text><text x="482" y="289.4" fill="grey" class="flag">[?]</text><text x="504" y="289.4" fill="#999" class="taxonLabel">Orthis</text><text x="482" y="302.1" fill="#91bfdb" class="flag">[1]</text><text x="504" y="302.1" fill="#000" class="taxonLabel">Terebratulina</text><text x="456.9" y="276.7" fill="grey" class="flag">[?]</text><text x="478.9" y="276.7" fill="#999" class="taxonLabel">Alisina</text><text x="431.8" y="264" fill="grey" class="flag">[?]</text><text x="453.8" y="264" fill="#999" class="taxonLabel">Longtancunella chengjiangensis</text><text x="406.7" y="251.3" fill="grey" class="flag">[?]</text><text x="428.7" y="251.3" fill="#999" class="taxonLabel">Glyptoria</text><text x="381.6" y="238.6" fill="grey" class="flag">[?]</text><text x="403.6" y="238.6" fill="#999" class="taxonLabel">Nisusia sulcata</text><text x="356.5" y="225.9" fill="grey" class="flag">[?]</text><text x="378.5" y="225.9" fill="#999" class="taxonLabel">Kutorgina chengjiangensis</text><text x="356.5" y="200.5" fill="grey" class="flag">[?]</text><text x="378.5" y="200.5" fill="#999" class="taxonLabel">Antigonambonites planus</text><text x="356.5" y="213.2" fill="grey" class="flag">[?]</text><text x="378.5" y="213.2" fill="#999" class="taxonLabel">Coolinia pecten</text><text x="331.4" y="175.1" fill="grey" class="flag">[?]</text><text x="353.4" y="175.1" fill="#999" class="taxonLabel">Tomteluva perturbata</text><text x="331.4" y="187.8" fill="grey" class="flag">[?]</text><text x="353.4" y="187.8" fill="#999" class="taxonLabel">Salanygolina</text><text x="306.3" y="149.7" fill="grey" class="flag">[?]</text><text x="328.3" y="149.7" fill="#999" class="taxonLabel">Askepasma toddense</text><text x="306.3" y="162.4" fill="grey" class="flag">[?]</text><text x="328.3" y="162.4" fill="#999" class="taxonLabel">Micromitra</text><text x="281.2" y="124.3" fill="grey" class="flag">[?]</text><text x="303.2" y="124.3" fill="#999" class="taxonLabel">Heliomedusa orienta</text><text x="281.2" y="137" fill="grey" class="flag">[?]</text><text x="303.2" y="137" fill="#999" class="taxonLabel">Mickwitzia muralensis</text><text x="256.1" y="111.6" fill="grey" class="flag">[?]</text><text x="278.1" y="111.6" fill="#999" class="taxonLabel">Micrina</text><text x="180.7" y="98.9" fill="grey" class="flag">[?]</text><text x="202.7" y="98.9" fill="#999" class="taxonLabel">Paterimitra</text><text x="155.6" y="86.2" fill="grey" class="flag">[?]</text><text x="177.6" y="86.2" fill="#999" class="taxonLabel">Halkieria evangelista</text><text x="130.5" y="73.5" fill="grey" class="flag">[?]</text><text x="152.5" y="73.5" fill="#999" class="taxonLabel">Dailyatia</text><text x="155.6" y="48.1" fill="#fc8d59" class="flag">[0]</text><text x="177.6" y="48.1" fill="#000" class="taxonLabel">Phoronis</text><text x="155.6" y="60.8" fill="grey" class="flag">[?]</text><text x="177.6" y="60.8" fill="#999" class="taxonLabel">Namacalathus</text><text x="130.5" y="35.4" fill="grey" class="flag">[?]</text><text x="152.5" y="35.4" fill="#999" class="taxonLabel">Eccentrotheca</text><text x="105.4" y="10" fill="#fc8d59" class="flag">[0]</text><text x="127.4" y="10" fill="#000" class="taxonLabel">Flustra</text><text x="105.4" y="22.7" fill="#fc8d59" class="flag">[0]</text><text x="127.4" y="22.7" fill="#000" class="taxonLabel">Amathia</text><path d="M5,431.7V289.6H30.1M30.1,289.6V45H55.2M55.2,45V13.4H80.3M80.3,13.4V7H105.4M80.3,13.4V19.7H105.4M55.2,45V76.6H80.3M80.3,76.6V41.9H105.4M105.4,41.9V32.4H130.5M105.4,41.9V51.5H130.5M130.5,51.5V45.1H155.6M130.5,51.5V57.8H155.6M80.3,76.6V111.3H105.4M30.1,289.6V534.1H55.2M55.2,534.1V527.8H80.3M55.2,534.1V540.5H80.3M5,431.7V573.8H30.1M30.1,573.8V559.5H55.2M55.2,559.5V565.9H80.3M30.1,573.8V588.1H55.2M55.2,588.1V578.6H80.3M55.2,588.1V597.6H80.3M80.3,597.6V591.3H105.4M80.3,597.6V604H105.4" stroke="#fc8d59"></path><path d="M105.4,111.3V70.5H130.5M105.4,111.3V152.1H130.5M130.5,152.1V83.2H155.6M130.5,152.1V221.1H155.6M155.6,221.1V95.9H180.7M155.6,221.1V346.2H180.7M180.7,346.2V193.2H205.8M205.8,193.2V118.1H230.9M230.9,118.1V108.6H256.1M230.9,118.1V127.7H256.1M256.1,127.7V121.3H281.2M256.1,127.7V134H281.2M180.7,346.2V499.2H205.8M205.8,499.2V489.7H230.9M205.8,499.2V508.7H230.9M230.9,508.7V502.4H256.1M230.9,508.7V515.1H256.1" stroke="darkgrey"></path><path d="M205.8,193.2V268.3H230.9M230.9,268.3V176.1H256.1M256.1,176.1V153.1H281.2M281.2,153.1V146.7H306.3M281.2,153.1V159.4H306.3M256.1,176.1V199.1H281.2M281.2,199.1V178.5H306.3M306.3,178.5V172.1H331.4M306.3,178.5V184.8H331.4M281.2,199.1V219.7H306.3M306.3,219.7V203.9H331.4M331.4,203.9V197.5H356.5M331.4,203.9V210.2H356.5M306.3,219.7V235.4H331.4M331.4,235.4V222.9H356.5M331.4,235.4V247.9H356.5M356.5,247.9V235.6H381.6M356.5,247.9V260.2H381.6M381.6,260.2V248.3H406.7M381.6,260.2V272.2H406.7M406.7,272.2V261H431.8M406.7,272.2V283.3H431.8M431.8,283.3V273.7H456.9M431.8,283.3V292.8H456.9M456.9,292.8V286.4H482M456.9,292.8V299.1H482M230.9,268.3V360.6H256.1M256.1,360.6V323H281.2M281.2,323V311.9H306.3M281.2,323V334.1H306.3M306.3,334.1V324.6H331.4M306.3,334.1V343.6H331.4M331.4,343.6V337.3H356.5M331.4,343.6V350H356.5M256.1,360.6V398.2H281.2M281.2,398.2V372.2H306.3M306.3,372.2V362.7H331.4M306.3,372.2V381.7H331.4M331.4,381.7V375.4H356.5M331.4,381.7V388.1H356.5M281.2,398.2V424.2H306.3M306.3,424.2V400.8H331.4M306.3,424.2V447.6H331.4M331.4,447.6V424.6H356.5M356.5,424.6V413.5H381.6M356.5,424.6V435.7H381.6M381.6,435.7V426.2H406.7M381.6,435.7V445.2H406.7M406.7,445.2V438.9H431.8M406.7,445.2V451.6H431.8M331.4,447.6V470.6H356.5M356.5,470.6V464.3H381.6M356.5,470.6V477H381.6M55.2,559.5V553.2H80.3" stroke="#91bfdb"></path><text x="7" y="434.7" class="node" fill="#4A6FE3">1</text><text x="32.1" y="292.6" class="node" fill="#4A6FE3">1</text><text x="57.2" y="48" class="node" fill="#E38C9E">0.22</text><text x="82.3" y="16.4" class="node" fill="#4A6FE3">1</text><text x="82.3" y="79.6" class="node" fill="#DF758D">0.15</text><text x="107.4" y="44.9" class="node" fill="#E07C92">0.17</text><text x="132.5" y="54.5" class="node" fill="#4A6FE3">1</text><text x="107.4" y="114.3" class="node" fill="#A8B1E2">0.71</text><text x="132.5" y="155.1" class="node" fill="#D2D4E3">0.57</text><text x="157.6" y="224.1" class="node" fill="#4F72E2">0.99</text><text x="182.7" y="349.2" class="node" fill="#BFC4E3">0.63</text><text x="207.8" y="196.2" class="node" fill="#DF758D">0.15</text><text x="232.9" y="121.1" class="node" fill="#DF758D">0.15</text><text x="258.1" y="130.7" class="node" fill="#DF758D">0.15</text><text x="232.9" y="271.3" class="node" fill="#DF758D">0.15</text><text x="258.1" y="179.1" class="node" fill="#DF758D">0.15</text><text x="283.2" y="156.1" class="node" fill="#4A6FE3">1</text><text x="283.2" y="202.1" class="node" fill="#DF758D">0.15</text><text x="308.3" y="181.5" class="node" fill="#DF758D">0.15</text><text x="308.3" y="222.7" class="node" fill="#A3ADE2">0.73</text><text x="333.4" y="206.9" class="node" fill="#4A6FE3">1</text><text x="333.4" y="238.4" class="node" fill="#A6AFE2">0.72</text><text x="358.5" y="250.9" class="node" fill="#A6AFE2">0.72</text><text x="383.6" y="263.2" class="node" fill="#4F72E2">0.99</text><text x="408.7" y="275.2" class="node" fill="#4F72E2">0.99</text><text x="433.8" y="286.3" class="node" fill="#4A6FE3">1</text><text x="458.9" y="295.8" class="node" fill="#4F72E2">0.99</text><text x="258.1" y="363.6" class="node" fill="#E38C9E">0.22</text><text x="283.2" y="326" class="node" fill="#E2E2E2">0.5</text><text x="308.3" y="337.1" class="node" fill="#4F72E2">0.99</text><text x="333.4" y="346.6" class="node" fill="#4A6FE3">1</text><text x="283.2" y="401.2" class="node" fill="#DDDEE3">0.52</text><text x="308.3" y="375.2" class="node" fill="#4F72E2">0.99</text><text x="333.4" y="384.7" class="node" fill="#929FE1">0.79</text><text x="308.3" y="427.2" class="node" fill="#DDDEE3">0.52</text><text x="333.4" y="450.6" class="node" fill="#929FE1">0.79</text><text x="358.5" y="427.6" class="node" fill="#4A6FE3">1</text><text x="383.6" y="438.7" class="node" fill="#E6ABB6">0.32</text><text x="408.7" y="448.2" class="node" fill="#4A6FE3">1</text><text x="358.5" y="473.6" class="node" fill="#929FE1">0.79</text><text x="207.8" y="502.2" class="node" fill="#DF758D">0.15</text><text x="232.9" y="511.7" class="node" fill="#4A6FE3">1</text><text x="57.2" y="537.1" class="node" fill="#E498A7">0.26</text><text x="32.1" y="576.8" class="node" fill="#4A6FE3">1</text><text x="57.2" y="562.5" class="node" fill="#4A6FE3">1</text><text x="57.2" y="591.1" class="node" fill="#4A6FE3">1</text><text x="82.3" y="600.6" class="node" fill="#A3ADE2">0.73</text></svg>
