<svg xmlns="http://www.w3.org/2000/svg" version="1.1" width="682" height="612" class="tree" data-char="185"><text x="678" y="14.3" text-anchor="end" class="stepsLabel">Character adds <tspan class="score">1</tspan> to tree score</text><text x="678" y="25.6" text-anchor="end" class="stepsLabel"><tspan class="score">0</tspan> additional regions</text><text x="678" y="36.9" text-anchor="end" class="stepsLabel">CI = 1; Fitch CI = 1; Fitch RI = 1</text><text x="678" y="59.5" text-anchor="end" class="stepsLabel"><tspan dy="16" fill="#34caaf">An optimal tree under:</tspan><tspan x="680" style="font-style:italic" class="thisAn" dy="1.2em">Equal weights</tspan><tspan x="680" style="font-style:italic" class="notThisAn" dy="1.2em">Implied weights, k = 2</tspan><tspan x="680" style="font-style:italic" class="notThisAn" dy="1.2em">IW, k = 3</tspan><tspan x="680" style="font-style:italic" class="notThisAn" dy="1.2em">IW, k = 4.5</tspan><tspan x="680" style="font-style:italic" class="notThisAn" dy="1.2em">IW, k = 7</tspan><tspan x="680" style="font-style:italic" class="notThisAn" dy="1.2em">IW, k = 10.5</tspan><tspan x="680" style="font-style:italic" class="notThisAn" dy="1.2em">IW, k = 16</tspan><tspan x="680" style="font-style:italic" class="notThisAn" dy="1.2em">IW, k = 24</tspan></text><text x="91.7" y="595.5" fill="grey" class="flag">[?]</text><text x="113.7" y="595.5" fill="#999" class="taxonLabel">Wiwaxia corrugata</text><text x="91.7" y="607" fill="#91bfdb" class="flag">[1]</text><text x="113.7" y="607" fill="#000" class="taxonLabel">Dentalium</text><text x="70" y="584" fill="#91bfdb" class="flag">[1]</text><text x="92" y="584" fill="#000" class="taxonLabel">Tonicella</text><text x="70" y="561.1" fill="#91bfdb" class="flag">[1]</text><text x="92" y="561.1" fill="#000" class="taxonLabel">Serpula</text><text x="70" y="572.6" fill="#91bfdb" class="flag">[1]</text><text x="92" y="572.6" fill="#000" class="taxonLabel">Sipunculus</text><text x="460.3" y="526.6" fill="grey" class="flag">[?]</text><text x="482.3" y="526.6" fill="#999" class="taxonLabel">Siphonobolus priscus</text><text x="460.3" y="538.1" fill="grey" class="flag">[?]</text><text x="482.3" y="538.1" fill="#999" class="taxonLabel">Acanthotretella spinosa</text><text x="438.6" y="515.2" fill="grey" class="flag">[?]</text><text x="460.6" y="515.2" fill="#999" class="taxonLabel">Clupeafumosus socialis</text><text x="438.6" y="492.2" fill="grey" class="flag">[?]</text><text x="460.6" y="492.2" fill="#999" class="taxonLabel">Lingulellotreta malongensis</text><text x="438.6" y="503.7" fill="grey" class="flag">[?]</text><text x="460.6" y="503.7" fill="#999" class="taxonLabel">Lingulosacculus</text><text x="395.3" y="480.7" fill="grey" class="flag">[?]</text><text x="417.3" y="480.7" fill="#999" class="taxonLabel">Botsfordia</text><text x="373.6" y="469.2" fill="grey" class="flag">[?]</text><text x="395.6" y="469.2" fill="#999" class="taxonLabel">Mummpikia nuda</text><text x="351.9" y="457.7" fill="grey" class="flag">[?]</text><text x="373.9" y="457.7" fill="#999" class="taxonLabel">Eoobolus</text><text x="330.2" y="446.3" fill="#fc8d59" class="flag">[0]</text><text x="352.2" y="446.3" fill="#000" class="taxonLabel">Lingula</text><text x="330.2" y="423.3" fill="grey" class="flag">[?]</text><text x="352.2" y="423.3" fill="#999" class="taxonLabel">Mickwitzia muralensis</text><text x="330.2" y="434.8" fill="#fc8d59" class="flag">[0]</text><text x="352.2" y="434.8" fill="#000" class="taxonLabel">Pelagodiscus atlanticus</text><text x="373.6" y="400.3" fill="grey" class="flag">[?]</text><text x="395.6" y="400.3" fill="#999" class="taxonLabel">Yuganotheca elegans</text><text x="373.6" y="411.8" fill="grey" class="flag">[?]</text><text x="395.6" y="411.8" fill="#999" class="taxonLabel">Tomteluva perturbata</text><text x="417" y="377.4" fill="grey" class="flag">[?]</text><text x="439" y="377.4" fill="#999" class="taxonLabel">Coolinia pecten</text><text x="417" y="388.9" fill="grey" class="flag">[?]</text><text x="439" y="388.9" fill="#999" class="taxonLabel">Antigonambonites planus</text><text x="482" y="354.4" fill="grey" class="flag">[?]</text><text x="504" y="354.4" fill="#999" class="taxonLabel">Orthis</text><text x="482" y="365.9" fill="#fc8d59" class="flag">[0]</text><text x="504" y="365.9" fill="#000" class="taxonLabel">Terebratulina</text><text x="460.3" y="342.9" fill="grey" class="flag">[?]</text><text x="482.3" y="342.9" fill="#999" class="taxonLabel">Alisina</text><text x="438.6" y="331.5" fill="grey" class="flag">[?]</text><text x="460.6" y="331.5" fill="#999" class="taxonLabel">Glyptoria</text><text x="438.6" y="308.5" fill="grey" class="flag">[?]</text><text x="460.6" y="308.5" fill="#999" class="taxonLabel">Kutorgina chengjiangensis</text><text x="438.6" y="320" fill="grey" class="flag">[?]</text><text x="460.6" y="320" fill="#999" class="taxonLabel">Nisusia sulcata</text><text x="373.6" y="297" fill="grey" class="flag">[?]</text><text x="395.6" y="297" fill="#999" class="taxonLabel">Longtancunella chengjiangensis</text><text x="330.2" y="285.5" fill="grey" class="flag">[?]</text><text x="352.2" y="285.5" fill="#999" class="taxonLabel">Salanygolina</text><text x="330.2" y="262.6" fill="grey" class="flag">[?]</text><text x="352.2" y="262.6" fill="#999" class="taxonLabel">Askepasma toddense</text><text x="330.2" y="274.1" fill="grey" class="flag">[?]</text><text x="352.2" y="274.1" fill="#999" class="taxonLabel">Micromitra</text><text x="395.3" y="239.6" fill="grey" class="flag">[?]</text><text x="417.3" y="239.6" fill="#999" class="taxonLabel">Probactrotheca</text><text x="395.3" y="251.1" fill="grey" class="flag">[?]</text><text x="417.3" y="251.1" fill="#999" class="taxonLabel">Conotheca</text><text x="395.3" y="216.7" fill="grey" class="flag">[?]</text><text x="417.3" y="216.7" fill="#999" class="taxonLabel">Maxilites</text><text x="395.3" y="228.1" fill="grey" class="flag">[?]</text><text x="417.3" y="228.1" fill="#999" class="taxonLabel">Pauxillites</text><text x="373.6" y="193.7" fill="grey" class="flag">[?]</text><text x="395.6" y="193.7" fill="#999" class="taxonLabel">Decoritheca</text><text x="373.6" y="205.2" fill="grey" class="flag">[?]</text><text x="395.6" y="205.2" fill="#999" class="taxonLabel">Haplophrentis carinatus</text><text x="330.2" y="182.2" fill="grey" class="flag">[?]</text><text x="352.2" y="182.2" fill="#999" class="taxonLabel">Pedunculotheca diania</text><text x="308.5" y="170.7" fill="grey" class="flag">[?]</text><text x="330.5" y="170.7" fill="#999" class="taxonLabel">Paterimitra</text><text x="286.9" y="159.2" fill="grey" class="flag">[?]</text><text x="308.9" y="159.2" fill="#999" class="taxonLabel">Micrina</text><text x="243.5" y="147.8" fill="grey" class="flag">[?]</text><text x="265.5" y="147.8" fill="#999" class="taxonLabel">Heliomedusa orienta</text><text x="221.8" y="136.3" fill="grey" class="flag">[?]</text><text x="243.8" y="136.3" fill="#999" class="taxonLabel">Gasconsia</text><text x="243.5" y="113.3" fill="#fc8d59" class="flag">[0]</text><text x="265.5" y="113.3" fill="#000" class="taxonLabel">Novocrania</text><text x="243.5" y="124.8" fill="grey" class="flag">[?]</text><text x="265.5" y="124.8" fill="#999" class="taxonLabel">Craniops</text><text x="221.8" y="101.8" fill="grey" class="flag">[?]</text><text x="243.8" y="101.8" fill="#999" class="taxonLabel">Ussunia</text><text x="178.5" y="90.4" fill="grey" class="flag">[?]</text><text x="200.5" y="90.4" fill="#999" class="taxonLabel">Halkieria evangelista</text><text x="178.5" y="67.4" fill="grey" class="flag">[?]</text><text x="200.5" y="67.4" fill="#999" class="taxonLabel">Namacalathus</text><text x="178.5" y="78.9" fill="grey" class="flag">[?]</text><text x="200.5" y="78.9" fill="#999" class="taxonLabel">Cotyledion tylodes</text><text x="135.1" y="55.9" fill="grey" class="flag">[?]</text><text x="157.1" y="55.9" fill="#999" class="taxonLabel">Dailyatia</text><text x="113.4" y="44.4" fill="grey" class="flag">[?]</text><text x="135.4" y="44.4" fill="#999" class="taxonLabel">Eccentrotheca</text><text x="91.7" y="33" fill="#fc8d59" class="flag">[0]</text><text x="113.7" y="33" fill="#000" class="taxonLabel">Phoronis</text><text x="91.7" y="10" fill="#fc8d59" class="flag">[0]</text><text x="113.7" y="10" fill="#000" class="taxonLabel">Flustra</text><text x="91.7" y="21.5" fill="#fc8d59" class="flag">[0]</text><text x="113.7" y="21.5" fill="#000" class="taxonLabel">Amathia</text><text x="48.4" y="549.6" fill="#fc8d59" class="flag">[0]</text><text x="70.4" y="549.6" fill="#000" class="taxonLabel">Loxosomella</text><path d="M5,432V287.3H26.7M26.7,287.3V28.1H48.4M48.4,28.1V12.7H70M70,12.7V7H91.7M70,12.7V18.5H91.7M48.4,28.1V43.4H70M70,43.4V30H91.7M70,43.4V56.8H91.7M91.7,56.8V41.4H113.4M91.7,56.8V72.3H113.4M113.4,72.3V52.9H135.1M113.4,72.3V91.6H135.1M135.1,91.6V70.1H156.8M156.8,70.1V64.4H178.5M156.8,70.1V75.9H178.5M135.1,91.6V113H156.8M156.8,113V87.4H178.5M156.8,113V138.7H178.5M178.5,138.7V107.5H200.1M200.1,107.5V98.8H221.8M200.1,107.5V116.1H221.8M221.8,116.1V110.3H243.5M221.8,116.1V121.8H243.5M178.5,138.7V169.9H200.1M200.1,169.9V133.3H221.8M200.1,169.9V206.5H221.8M221.8,206.5V144.8H243.5M221.8,206.5V268.3H243.5M243.5,268.3V169.2H265.2M265.2,169.2V156.2H286.9M265.2,169.2V182.1H286.9M286.9,182.1V167.7H308.5M286.9,182.1V196.4H308.5M308.5,196.4V179.2H330.2M308.5,196.4V213.7H330.2M330.2,213.7V196.4H351.9M351.9,196.4V190.7H373.6M351.9,196.4V202.2H373.6M330.2,213.7V230.9H351.9M351.9,230.9V219.4H373.6M373.6,219.4V213.7H395.3M373.6,219.4V225.1H395.3M351.9,230.9V242.4H373.6M373.6,242.4V236.6H395.3M373.6,242.4V248.1H395.3M243.5,268.3V367.4H265.2M265.2,367.4V294.1H286.9M286.9,294.1V265.3H308.5M308.5,265.3V259.6H330.2M308.5,265.3V271.1H330.2M286.9,294.1V322.9H308.5M308.5,322.9V282.5H330.2M308.5,322.9V363.2H330.2M330.2,363.2V323.3H351.9M351.9,323.3V294H373.6M351.9,323.3V352.5H373.6M373.6,352.5V324.9H395.3M395.3,324.9V311.2H417M417,311.2V305.5H438.6M417,311.2V317H438.6M395.3,324.9V338.5H417M417,338.5V328.5H438.6M417,338.5V348.6H438.6M438.6,348.6V339.9H460.3M438.6,348.6V357.2H460.3M460.3,357.2V351.4H482M460.3,357.2V362.9H482M373.6,352.5V380.1H395.3M395.3,380.1V374.4H417M395.3,380.1V385.9H417M330.2,363.2V403.1H351.9M351.9,403.1V397.3H373.6M351.9,403.1V408.8H373.6M265.2,367.4V440.6H286.9M286.9,440.6V426H308.5M308.5,426V420.3H330.2M308.5,426V431.8H330.2M286.9,440.6V455.2H308.5M308.5,455.2V443.3H330.2M308.5,455.2V467.1H330.2M330.2,467.1V454.7H351.9M330.2,467.1V479.5H351.9M351.9,479.5V466.2H373.6M351.9,479.5V492.8H373.6M373.6,492.8V477.7H395.3M373.6,492.8V507.8H395.3M395.3,507.8V494.9H417M417,494.9V489.2H438.6M417,494.9V500.7H438.6M395.3,507.8V520.8H417M417,520.8V512.2H438.6M417,520.8V529.4H438.6M438.6,529.4V523.6H460.3M438.6,529.4V535.1H460.3M26.7,287.3V546.6H48.4" stroke="#fc8d59"></path><path d="M5,432V576.7H26.7M26.7,576.7V563.8H48.4M48.4,563.8V558.1H70M48.4,563.8V569.6H70M26.7,576.7V589.6H48.4M48.4,589.6V581H70M48.4,589.6V598.3H70M70,598.3V592.5H91.7M70,598.3V604H91.7" stroke="#91bfdb"></path><text x="7" y="435" class="node" fill="#4A6FE3">1</text><text x="28.7" y="290.3" class="node" fill="#4A6FE3">1</text><text x="50.4" y="31.1" class="node" fill="#4A6FE3">1</text><text x="72" y="15.7" class="node" fill="#4A6FE3">1</text><text x="72" y="46.4" class="node" fill="#4A6FE3">1</text><text x="93.7" y="59.8" class="node" fill="#4A6FE3">1</text><text x="115.4" y="75.3" class="node" fill="#E3DCDD">0.48</text><text x="137.1" y="94.6" class="node" fill="#7388E1">0.89</text><text x="158.8" y="73.1" class="node" fill="#7388E1">0.89</text><text x="158.8" y="116" class="node" fill="#4A6FE3">1</text><text x="180.5" y="141.7" class="node" fill="#4A6FE3">1</text><text x="202.1" y="110.5" class="node" fill="#4A6FE3">1</text><text x="223.8" y="119.1" class="node" fill="#4A6FE3">1</text><text x="202.1" y="172.9" class="node" fill="#4A6FE3">1</text><text x="223.8" y="209.5" class="node" fill="#4A6FE3">1</text><text x="245.5" y="271.3" class="node" fill="#4A6FE3">1</text><text x="267.2" y="172.2" class="node" fill="#4A6FE3">1</text><text x="288.9" y="185.1" class="node" fill="#4A6FE3">1</text><text x="310.5" y="199.4" class="node" fill="#4A6FE3">1</text><text x="332.2" y="216.7" class="node" fill="#4A6FE3">1</text><text x="353.9" y="199.4" class="node" fill="#DE728B">0.14</text><text x="353.9" y="233.9" class="node" fill="#E0E0E2">0.51</text><text x="375.6" y="222.4" class="node" fill="#4A6FE3">1</text><text x="375.6" y="245.4" class="node" fill="#4A6FE3">1</text><text x="267.2" y="370.4" class="node" fill="#4A6FE3">1</text><text x="288.9" y="297.1" class="node" fill="#6982E1">0.92</text><text x="310.5" y="268.3" class="node" fill="#4A6FE3">1</text><text x="310.5" y="325.9" class="node" fill="#4A6FE3">1</text><text x="332.2" y="366.2" class="node" fill="#E5D0D3">0.44</text><text x="353.9" y="326.3" class="node" fill="#B1B8E2">0.68</text><text x="375.6" y="355.5" class="node" fill="#8F9DE1">0.8</text><text x="397.3" y="327.9" class="node" fill="#8394E1">0.84</text><text x="419" y="314.2" class="node" fill="#E5A8B3">0.31</text><text x="419" y="341.5" class="node" fill="#6D84E1">0.91</text><text x="440.6" y="351.6" class="node" fill="#667FE1">0.93</text><text x="462.3" y="360.2" class="node" fill="#C4C9E3">0.61</text><text x="397.3" y="383.1" class="node" fill="#4A6FE3">1</text><text x="353.9" y="406.1" class="node" fill="#5374E2">0.98</text><text x="288.9" y="443.6" class="node" fill="#4A6FE3">1</text><text x="310.5" y="429" class="node" fill="#4A6FE3">1</text><text x="310.5" y="458.2" class="node" fill="#4A6FE3">1</text><text x="332.2" y="470.1" class="node" fill="#4A6FE3">1</text><text x="353.9" y="482.5" class="node" fill="#8091E1">0.85</text><text x="375.6" y="495.8" class="node" fill="#8091E1">0.85</text><text x="397.3" y="510.8" class="node" fill="#8091E1">0.85</text><text x="419" y="497.9" class="node" fill="#E38FA0">0.23</text><text x="419" y="523.8" class="node" fill="#D2D4E3">0.57</text><text x="440.6" y="532.4" class="node" fill="#4A6FE3">1</text><text x="28.7" y="579.7" class="node" fill="#4A6FE3">1</text><text x="50.4" y="566.8" class="node" fill="#4A6FE3">1</text><text x="50.4" y="592.6" class="node" fill="#4A6FE3">1</text><text x="72" y="601.3" class="node" fill="#4A6FE3">1</text></svg>
