<svg xmlns="http://www.w3.org/2000/svg" version="1.1" width="682" height="612" class="tree" data-char="167"><text x="678" y="15.7" text-anchor="end" class="stepsLabel">Character adds <tspan class="score">1</tspan> to tree score</text><text x="678" y="28.4" text-anchor="end" class="stepsLabel"><tspan class="score">0</tspan> additional regions</text><text x="678" y="41.1" text-anchor="end" class="stepsLabel">CI = 1; Fitch CI = 1; Fitch RI = 1</text><text x="678" y="66.5" text-anchor="end" class="stepsLabel"><tspan dy="16">An optimal tree under:</tspan><tspan x="680" style="font-style:italic" class="thisAn" dy="1.2em">Equal weights</tspan><tspan x="680" style="font-style:italic" class="notThisAn" dy="1.2em">Implied weights, k = 2</tspan><tspan x="680" style="font-style:italic" class="notThisAn" dy="1.2em">IW, k = 3</tspan><tspan x="680" style="font-style:italic" class="notThisAn" dy="1.2em">IW, k = 4.5</tspan><tspan x="680" style="font-style:italic" class="notThisAn" dy="1.2em">IW, k = 7</tspan><tspan x="680" style="font-style:italic" class="notThisAn" dy="1.2em">IW, k = 10.5</tspan><tspan x="680" style="font-style:italic" class="notThisAn" dy="1.2em">IW, k = 16</tspan><tspan x="680" style="font-style:italic" class="notThisAn" dy="1.2em">IW, k = 24</tspan></text><text x="95.9" y="594" fill="#e2e2a2" class="flag">[1]</text><text x="117.9" y="594" fill="#000" class="taxonLabel">Tonicella</text><text x="95.9" y="607" fill="grey" class="flag">[?]</text><text x="117.9" y="607" fill="grey" class="taxonLabel">Dentalium</text><text x="73.1" y="581" fill="grey" class="flag">[?]</text><text x="95.1" y="581" fill="grey" class="taxonLabel">Wiwaxia corrugata</text><text x="73.1" y="555.1" fill="#91bfdb" class="flag">[2]</text><text x="95.1" y="555.1" fill="#000" class="taxonLabel">Serpula</text><text x="73.1" y="568.1" fill="#91bfdb" class="flag">[2]</text><text x="95.1" y="568.1" fill="#000" class="taxonLabel">Sipunculus</text><text x="300.3" y="516.2" fill="grey" class="flag">[?]</text><text x="322.3" y="516.2" fill="grey" class="taxonLabel">Micromitra</text><text x="300.3" y="529.1" fill="grey" class="flag">[?]</text><text x="322.3" y="529.1" fill="grey" class="taxonLabel">Askepasma toddense</text><text x="482" y="490.2" fill="grey" class="flag">[?]</text><text x="504" y="490.2" fill="grey" class="taxonLabel">Alisina</text><text x="482" y="503.2" fill="grey" class="flag">[?]</text><text x="504" y="503.2" fill="grey" class="taxonLabel">Terebratulina</text><text x="459.3" y="477.2" fill="grey" class="flag">[?]</text><text x="481.3" y="477.2" fill="grey" class="taxonLabel">Orthis</text><text x="436.6" y="464.2" fill="grey" class="flag">[?]</text><text x="458.6" y="464.2" fill="grey" class="taxonLabel">Glyptoria</text><text x="413.9" y="451.3" fill="grey" class="flag">[?]</text><text x="435.9" y="451.3" fill="grey" class="taxonLabel">Nisusia sulcata</text><text x="391.1" y="438.3" fill="grey" class="flag">[?]</text><text x="413.1" y="438.3" fill="grey" class="taxonLabel">Kutorgina chengjiangensis</text><text x="391.1" y="412.3" fill="grey" class="flag">[?]</text><text x="413.1" y="412.3" fill="grey" class="taxonLabel">Antigonambonites planus</text><text x="391.1" y="425.3" fill="grey" class="flag">[?]</text><text x="413.1" y="425.3" fill="grey" class="taxonLabel">Coolinia pecten</text><text x="345.7" y="399.3" fill="grey" class="flag">[?]</text><text x="367.7" y="399.3" fill="grey" class="taxonLabel">Longtancunella chengjiangensis</text><text x="368.4" y="373.4" fill="grey" class="flag">[?]</text><text x="390.4" y="373.4" fill="grey" class="taxonLabel">Tomteluva perturbata</text><text x="368.4" y="386.4" fill="grey" class="flag">[?]</text><text x="390.4" y="386.4" fill="grey" class="taxonLabel">Yuganotheca elegans</text><text x="345.7" y="360.4" fill="grey" class="flag">[?]</text><text x="367.7" y="360.4" fill="grey" class="taxonLabel">Salanygolina</text><text x="300.3" y="347.4" fill="grey" class="flag">[?]</text><text x="322.3" y="347.4" fill="grey" class="taxonLabel">Gasconsia</text><text x="436.6" y="321.5" fill="grey" class="flag">[?]</text><text x="458.6" y="321.5" fill="grey" class="taxonLabel">Acanthotretella spinosa</text><text x="436.6" y="334.5" fill="grey" class="flag">[?]</text><text x="458.6" y="334.5" fill="grey" class="taxonLabel">Siphonobolus priscus</text><text x="413.9" y="308.5" fill="grey" class="flag">[?]</text><text x="435.9" y="308.5" fill="grey" class="taxonLabel">Clupeafumosus socialis</text><text x="413.9" y="282.5" fill="grey" class="flag">[?]</text><text x="435.9" y="282.5" fill="grey" class="taxonLabel">Lingulellotreta malongensis</text><text x="413.9" y="295.5" fill="grey" class="flag">[?]</text><text x="435.9" y="295.5" fill="grey" class="taxonLabel">Lingulosacculus</text><text x="368.4" y="269.6" fill="grey" class="flag">[?]</text><text x="390.4" y="269.6" fill="grey" class="taxonLabel">Botsfordia</text><text x="345.7" y="256.6" fill="grey" class="flag">[?]</text><text x="367.7" y="256.6" fill="grey" class="taxonLabel">Mummpikia nuda</text><text x="323" y="243.6" fill="grey" class="flag">[?]</text><text x="345" y="243.6" fill="grey" class="taxonLabel">Eoobolus</text><text x="300.3" y="230.6" fill="#e2e2a2" class="flag">[1]</text><text x="322.3" y="230.6" fill="#000" class="taxonLabel">Lingula</text><text x="323" y="204.7" fill="grey" class="flag">[?]</text><text x="345" y="204.7" fill="grey" class="taxonLabel">Mickwitzia muralensis</text><text x="323" y="217.7" fill="grey" class="flag">[?]</text><text x="345" y="217.7" fill="grey" class="taxonLabel">Pelagodiscus atlanticus</text><text x="300.3" y="191.7" fill="grey" class="flag">[?]</text><text x="322.3" y="191.7" fill="grey" class="taxonLabel">Micrina</text><text x="277.6" y="165.7" fill="grey" class="flag">[?]</text><text x="299.6" y="165.7" fill="grey" class="taxonLabel">Pedunculotheca diania</text><text x="277.6" y="178.7" fill="grey" class="flag">[?]</text><text x="299.6" y="178.7" fill="grey" class="taxonLabel">Haplophrentis carinatus</text><text x="254.9" y="152.8" fill="grey" class="flag">[?]</text><text x="276.9" y="152.8" fill="grey" class="taxonLabel">Paterimitra</text><text x="209.4" y="139.8" fill="grey" class="flag">[?]</text><text x="231.4" y="139.8" fill="grey" class="taxonLabel">Heliomedusa orienta</text><text x="232.1" y="113.8" fill="#e2e2a2" class="flag">[1]</text><text x="254.1" y="113.8" fill="#000" class="taxonLabel">Novocrania</text><text x="232.1" y="126.8" fill="grey" class="flag">[?]</text><text x="254.1" y="126.8" fill="grey" class="taxonLabel">Craniops</text><text x="209.4" y="100.8" fill="grey" class="flag">[?]</text><text x="231.4" y="100.8" fill="grey" class="taxonLabel">Ussunia</text><text x="164" y="87.9" fill="grey" class="flag">[?]</text><text x="186" y="87.9" fill="grey" class="taxonLabel">Halkieria evangelista</text><text x="164" y="61.9" fill="grey" class="flag">[?]</text><text x="186" y="61.9" fill="grey" class="taxonLabel">Dailyatia</text><text x="164" y="74.9" fill="grey" class="flag">[?]</text><text x="186" y="74.9" fill="grey" class="taxonLabel">Cotyledion tylodes</text><text x="118.6" y="48.9" fill="grey" class="flag">[?]</text><text x="140.6" y="48.9" fill="grey" class="taxonLabel">Eccentrotheca</text><text x="118.6" y="23" fill="grey" class="flag">[?]</text><text x="140.6" y="23" fill="grey" class="taxonLabel">Namacalathus</text><text x="118.6" y="36" fill="grey" class="flag">[?]</text><text x="140.6" y="36" fill="grey" class="taxonLabel">Phoronis</text><text x="73.1" y="10" fill="grey" class="flag">[?]</text><text x="95.1" y="10" fill="grey" class="taxonLabel">Flustra</text><text x="50.4" y="542.1" fill="lightgrey" class="flag">[-]</text><text x="72.4" y="542.1" fill="lightgrey" class="taxonLabel">Loxosomella</text><path d="M5,428.2V283.2H27.7M27.7,283.2V27.3H50.4M50.4,27.3V7H73.1M50.4,27.3V47.5H73.1M73.1,47.5V26.5H95.9M95.9,26.5V20H118.6M95.9,26.5V33H118.6M73.1,47.5V68.6H95.9M95.9,68.6V45.9H118.6M95.9,68.6V91.3H118.6M118.6,91.3V65.4H141.3M141.3,65.4V58.9H164M141.3,65.4V71.9H164M118.6,91.3V117.1H141.3M141.3,117.1V84.9H164M141.3,117.1V149.4H164M164,149.4V107.6H186.7M186.7,107.6V97.8H209.4M186.7,107.6V117.3H209.4M209.4,117.3V110.8H232.1M209.4,117.3V123.8H232.1M164,149.4V191.2H186.7M186.7,191.2V136.8H209.4M186.7,191.2V245.6H209.4M209.4,245.6V159.5H232.1M232.1,159.5V149.8H254.9M232.1,159.5V169.2H254.9M254.9,169.2V162.7H277.6M254.9,169.2V175.7H277.6M209.4,245.6V331.7H232.1M232.1,331.7V219.8H254.9M254.9,219.8V198.4H277.6M277.6,198.4V188.7H300.3M277.6,198.4V208.2H300.3M300.3,208.2V201.7H323M300.3,208.2V214.7H323M254.9,219.8V241.1H277.6M277.6,241.1V227.6H300.3M277.6,241.1V254.6H300.3M300.3,254.6V240.6H323M300.3,254.6V268.6H323M323,268.6V253.6H345.7M323,268.6V283.6H345.7M345.7,283.6V266.6H368.4M345.7,283.6V300.6H368.4M368.4,300.6V286H391.1M391.1,286V279.5H413.9M391.1,286V292.5H413.9M368.4,300.6V315.2H391.1M391.1,315.2V305.5H413.9M391.1,315.2V325H413.9M413.9,325V318.5H436.6M413.9,325V331.5H436.6M232.1,331.7V443.6H254.9M254.9,443.6V367.5H277.6M277.6,367.5V344.4H300.3M277.6,367.5V390.6H300.3M300.3,390.6V367.1H323M323,367.1V357.4H345.7M323,367.1V376.9H345.7M345.7,376.9V370.4H368.4M345.7,376.9V383.4H368.4M300.3,390.6V414.1H323M323,414.1V396.3H345.7M323,414.1V431.8H345.7M345.7,431.8V415.8H368.4M368.4,415.8V409.3H391.1M368.4,415.8V422.3H391.1M345.7,431.8V447.9H368.4M368.4,447.9V435.3H391.1M368.4,447.9V460.4H391.1M391.1,460.4V448.3H413.9M391.1,460.4V472.6H413.9M413.9,472.6V461.2H436.6M413.9,472.6V484H436.6M436.6,484V474.2H459.3M436.6,484V493.7H459.3M459.3,493.7V487.2H482M459.3,493.7V500.2H482M254.9,443.6V519.6H277.6M277.6,519.6V513.2H300.3M277.6,519.6V526.1H300.3M5,428.2V573.2H27.7M27.7,573.2V587.8H50.4M50.4,587.8V578H73.1M50.4,587.8V597.5H73.1M73.1,597.5V591H95.9M73.1,597.5V604H95.9" stroke="#e2e2a2"></path><path d="M27.7,283.2V539.1H50.4" stroke="lightgrey" class="inapplicable"></path><path d="M27.7,573.2V558.6H50.4M50.4,558.6V552.1H73.1M50.4,558.6V565.1H73.1" stroke="#91bfdb"></path><text x="7" y="431.2" class="node" fill="#4A6FE3">1</text><text x="29.7" y="286.2" class="node" fill="#4A6FE3">1</text><text x="52.4" y="30.3" class="node" fill="#6D84E1">0.91</text><text x="75.1" y="50.5" class="node" fill="#6D84E1">0.91</text><text x="97.9" y="29.5" class="node" fill="#E6BAC2">0.37</text><text x="97.9" y="71.6" class="node" fill="#6D84E1">0.91</text><text x="120.6" y="94.3" class="node" fill="#E38FA0">0.23</text><text x="143.3" y="68.4" class="node" fill="#D95A7A">0.07</text><text x="143.3" y="120.1" class="node" fill="#E5CACE">0.42</text><text x="166" y="152.4" class="node" fill="#4A6FE3">1</text><text x="188.7" y="110.6" class="node" fill="#667FE1">0.93</text><text x="211.4" y="120.3" class="node" fill="#4A6FE3">1</text><text x="188.7" y="194.2" class="node" fill="#D2D4E3">0.56</text><text x="211.4" y="248.6" class="node" fill="#D2D4E3">0.56</text><text x="234.1" y="162.5" class="node" fill="#E38FA0">0.23</text><text x="256.9" y="172.2" class="node" fill="#4A6FE3">1</text><text x="234.1" y="334.7" class="node" fill="#D2D4E3">0.56</text><text x="256.9" y="222.8" class="node" fill="#D2D4E3">0.56</text><text x="279.6" y="201.4" class="node" fill="#D2D4E3">0.56</text><text x="302.3" y="211.2" class="node" fill="#4A6FE3">1</text><text x="279.6" y="244.1" class="node" fill="#4A6FE3">1</text><text x="302.3" y="257.6" class="node" fill="#D2D4E3">0.57</text><text x="325" y="271.6" class="node" fill="#D2D4E3">0.56</text><text x="347.7" y="286.6" class="node" fill="#D2D4E3">0.56</text><text x="370.4" y="303.6" class="node" fill="#D2D4E3">0.56</text><text x="393.1" y="289" class="node" fill="#DD6F88">0.13</text><text x="393.1" y="318.2" class="node" fill="#DDDEE3">0.52</text><text x="415.9" y="328" class="node" fill="#4A6FE3">1</text><text x="256.9" y="446.6" class="node" fill="#D2D4E3">0.56</text><text x="279.6" y="370.5" class="node" fill="#E18297">0.19</text><text x="302.3" y="393.6" class="node" fill="#4A6FE3">1</text><text x="325" y="370.1" class="node" fill="#9AA6E2">0.76</text><text x="347.7" y="379.9" class="node" fill="#8394E1">0.84</text><text x="325" y="417.1" class="node" fill="#8998E1">0.82</text><text x="347.7" y="434.8" class="node" fill="#DD6C86">0.12</text><text x="370.4" y="418.8" class="node" fill="#4A6FE3">1</text><text x="370.4" y="450.9" class="node" fill="#DD6C86">0.12</text><text x="393.1" y="463.4" class="node" fill="#DD6C86">0.12</text><text x="415.9" y="475.6" class="node" fill="#DD6C86">0.12</text><text x="438.6" y="487" class="node" fill="#4A6FE3">1</text><text x="461.3" y="496.7" class="node" fill="#DA5E7D">0.08</text><text x="279.6" y="522.6" class="node" fill="#C4C9E3">0.61</text><text x="29.7" y="576.2" class="node" fill="#4A6FE3">1</text><text x="52.4" y="561.6" class="node" fill="#4A6FE3">1</text><text x="52.4" y="590.8" class="node" fill="#4A6FE3">1</text><text x="75.1" y="600.5" class="node" fill="#8F9DE1">0.8</text></svg>
