<svg xmlns="http://www.w3.org/2000/svg" version="1.1" width="682" height="612" class="tree" data-char="27"><text x="678" y="14.3" text-anchor="end" class="stepsLabel">Character adds <tspan class="score">3</tspan> to tree score</text><text x="678" y="25.6" text-anchor="end" class="stepsLabel"><tspan class="score">0</tspan> additional regions</text><text x="678" y="36.9" text-anchor="end" class="stepsLabel">CI = 0.33; Fitch CI = 0.33; Fitch RI = 0.5</text><text x="678" y="59.5" text-anchor="end" class="stepsLabel"><tspan dy="16" fill="#34caaf">An optimal tree under:</tspan><tspan x="680" style="font-style:italic" class="thisAn" dy="1.2em">Equal weights</tspan><tspan x="680" style="font-style:italic" class="notThisAn" dy="1.2em">Implied weights, k = 2</tspan><tspan x="680" style="font-style:italic" class="notThisAn" dy="1.2em">IW, k = 3</tspan><tspan x="680" style="font-style:italic" class="notThisAn" dy="1.2em">IW, k = 4.5</tspan><tspan x="680" style="font-style:italic" class="notThisAn" dy="1.2em">IW, k = 7</tspan><tspan x="680" style="font-style:italic" class="notThisAn" dy="1.2em">IW, k = 10.5</tspan><tspan x="680" style="font-style:italic" class="notThisAn" dy="1.2em">IW, k = 16</tspan><tspan x="680" style="font-style:italic" class="notThisAn" dy="1.2em">IW, k = 24</tspan></text><text x="88" y="595.5" fill="#fc8d59" class="flag">[0]</text><text x="110" y="595.5" fill="#000" class="taxonLabel">Dentalium</text><text x="88" y="607" fill="#fc8d59" class="flag">[0]</text><text x="110" y="607" fill="#000" class="taxonLabel">Wiwaxia corrugata</text><text x="67.2" y="584" fill="#fc8d59" class="flag">[0]</text><text x="89.2" y="584" fill="#000" class="taxonLabel">Tonicella</text><text x="67.2" y="561.1" fill="#fc8d59" class="flag">[0]</text><text x="89.2" y="561.1" fill="#000" class="taxonLabel">Sipunculus</text><text x="67.2" y="572.6" fill="#fc8d59" class="flag">[0]</text><text x="89.2" y="572.6" fill="#000" class="taxonLabel">Serpula</text><text x="316.1" y="526.6" fill="grey" class="flag">[?]</text><text x="338.1" y="526.6" fill="#999" class="taxonLabel">Tomteluva perturbata</text><text x="316.1" y="538.1" fill="#91bfdb" class="flag">[1]</text><text x="338.1" y="538.1" fill="#000" class="taxonLabel">Yuganotheca elegans</text><text x="357.6" y="503.7" fill="#fc8d59" class="flag">[0]</text><text x="379.6" y="503.7" fill="#000" class="taxonLabel">Antigonambonites planus</text><text x="357.6" y="515.2" fill="grey" class="flag">[?]</text><text x="379.6" y="515.2" fill="#999" class="taxonLabel">Coolinia pecten</text><text x="461.3" y="480.7" fill="#91bfdb" class="flag">[1]</text><text x="483.3" y="480.7" fill="#000" class="taxonLabel">Terebratulina</text><text x="461.3" y="492.2" fill="grey" class="flag">[?]</text><text x="483.3" y="492.2" fill="#999" class="taxonLabel">Orthis</text><text x="440.5" y="469.2" fill="#fc8d59" class="flag">[0]</text><text x="462.5" y="469.2" fill="#000" class="taxonLabel">Alisina</text><text x="419.8" y="457.7" fill="#fc8d59" class="flag">[0]</text><text x="441.8" y="457.7" fill="#000" class="taxonLabel">Longtancunella chengjiangensis</text><text x="399" y="446.3" fill="grey" class="flag">[?]</text><text x="421" y="446.3" fill="#999" class="taxonLabel">Glyptoria</text><text x="378.3" y="434.8" fill="#fc8d59" class="flag">[0]</text><text x="400.3" y="434.8" fill="#000" class="taxonLabel">Nisusia sulcata</text><text x="357.6" y="423.3" fill="#fc8d59" class="flag">[0]</text><text x="379.6" y="423.3" fill="#000" class="taxonLabel">Kutorgina chengjiangensis</text><text x="316.1" y="411.8" fill="grey" class="flag">[?]</text><text x="338.1" y="411.8" fill="#999" class="taxonLabel">Salanygolina</text><text x="482" y="388.9" fill="#91bfdb" class="flag">[1]</text><text x="504" y="388.9" fill="#000" class="taxonLabel">Acanthotretella spinosa</text><text x="482" y="400.3" fill="grey" class="flag">[?]</text><text x="504" y="400.3" fill="#999" class="taxonLabel">Siphonobolus priscus</text><text x="461.3" y="377.4" fill="grey" class="flag">[?]</text><text x="483.3" y="377.4" fill="#999" class="taxonLabel">Lingulosacculus</text><text x="440.5" y="365.9" fill="grey" class="flag">[?]</text><text x="462.5" y="365.9" fill="#999" class="taxonLabel">Clupeafumosus socialis</text><text x="419.8" y="354.4" fill="#91bfdb" class="flag">[1]</text><text x="441.8" y="354.4" fill="#000" class="taxonLabel">Lingulellotreta malongensis</text><text x="399" y="342.9" fill="grey" class="flag">[?]</text><text x="421" y="342.9" fill="#999" class="taxonLabel">Botsfordia</text><text x="378.3" y="331.5" fill="grey" class="flag">[?]</text><text x="400.3" y="331.5" fill="#999" class="taxonLabel">Mummpikia nuda</text><text x="357.6" y="320" fill="grey" class="flag">[?]</text><text x="379.6" y="320" fill="#999" class="taxonLabel">Eoobolus</text><text x="336.8" y="308.5" fill="#91bfdb" class="flag">[1]</text><text x="358.8" y="308.5" fill="#000" class="taxonLabel">Lingula</text><text x="336.8" y="285.5" fill="#fc8d59" class="flag">[0]</text><text x="358.8" y="285.5" fill="#000" class="taxonLabel">Pelagodiscus atlanticus</text><text x="336.8" y="297" fill="grey" class="flag">[?]</text><text x="358.8" y="297" fill="#999" class="taxonLabel">Mickwitzia muralensis</text><text x="316.1" y="262.6" fill="grey" class="flag">[?]</text><text x="338.1" y="262.6" fill="#999" class="taxonLabel">Askepasma toddense</text><text x="316.1" y="274.1" fill="#fc8d59" class="flag">[0]</text><text x="338.1" y="274.1" fill="#000" class="taxonLabel">Micromitra</text><text x="357.6" y="239.6" fill="#fc8d59" class="flag">[0]</text><text x="379.6" y="239.6" fill="#000" class="taxonLabel">Conotheca</text><text x="357.6" y="251.1" fill="#fc8d59" class="flag">[0]</text><text x="379.6" y="251.1" fill="#000" class="taxonLabel">Probactrotheca</text><text x="399" y="216.7" fill="#fc8d59" class="flag">[0]</text><text x="421" y="216.7" fill="#000" class="taxonLabel">Maxilites</text><text x="399" y="228.1" fill="#fc8d59" class="flag">[0]</text><text x="421" y="228.1" fill="#000" class="taxonLabel">Pauxillites</text><text x="378.3" y="205.2" fill="#fc8d59" class="flag">[0]</text><text x="400.3" y="205.2" fill="#000" class="taxonLabel">Haplophrentis carinatus</text><text x="357.6" y="193.7" fill="#fc8d59" class="flag">[0]</text><text x="379.6" y="193.7" fill="#000" class="taxonLabel">Decoritheca</text><text x="316.1" y="182.2" fill="#fc8d59" class="flag">[0]</text><text x="338.1" y="182.2" fill="#000" class="taxonLabel">Pedunculotheca diania</text><text x="295.3" y="170.7" fill="grey" class="flag">[?]</text><text x="317.3" y="170.7" fill="#999" class="taxonLabel">Paterimitra</text><text x="274.6" y="159.2" fill="grey" class="flag">[?]</text><text x="296.6" y="159.2" fill="#999" class="taxonLabel">Micrina</text><text x="233.1" y="147.8" fill="#fc8d59" class="flag">[0]</text><text x="255.1" y="147.8" fill="#000" class="taxonLabel">Heliomedusa orienta</text><text x="212.4" y="136.3" fill="#fc8d59" class="flag">[0]</text><text x="234.4" y="136.3" fill="#000" class="taxonLabel">Gasconsia</text><text x="233.1" y="113.3" fill="#fc8d59" class="flag">[0]</text><text x="255.1" y="113.3" fill="#000" class="taxonLabel">Craniops</text><text x="233.1" y="124.8" fill="#fc8d59" class="flag">[0]</text><text x="255.1" y="124.8" fill="#000" class="taxonLabel">Novocrania</text><text x="212.4" y="101.8" fill="#fc8d59" class="flag">[0]</text><text x="234.4" y="101.8" fill="#000" class="taxonLabel">Ussunia</text><text x="170.9" y="90.4" fill="#fc8d59" class="flag">[0]</text><text x="192.9" y="90.4" fill="#000" class="taxonLabel">Halkieria evangelista</text><text x="170.9" y="67.4" fill="#fc8d59" class="flag">[0]</text><text x="192.9" y="67.4" fill="#000" class="taxonLabel">Namacalathus</text><text x="170.9" y="78.9" fill="#fc8d59" class="flag">[0]</text><text x="192.9" y="78.9" fill="#000" class="taxonLabel">Cotyledion tylodes</text><text x="129.4" y="55.9" fill="grey" class="flag">[?]</text><text x="151.4" y="55.9" fill="#999" class="taxonLabel">Eccentrotheca</text><text x="108.7" y="44.4" fill="grey" class="flag">[?]</text><text x="130.7" y="44.4" fill="#999" class="taxonLabel">Dailyatia</text><text x="88" y="33" fill="#fc8d59" class="flag">[0]</text><text x="110" y="33" fill="#000" class="taxonLabel">Phoronis</text><text x="88" y="10" fill="#fc8d59" class="flag">[0]</text><text x="110" y="10" fill="#000" class="taxonLabel">Flustra</text><text x="88" y="21.5" fill="#fc8d59" class="flag">[0]</text><text x="110" y="21.5" fill="#000" class="taxonLabel">Amathia</text><text x="46.5" y="549.6" fill="#fc8d59" class="flag">[0]</text><text x="68.5" y="549.6" fill="#000" class="taxonLabel">Loxosomella</text><path d="M5,432V287.3H25.7M25.7,287.3V28.1H46.5M46.5,28.1V12.7H67.2M67.2,12.7V7H88M67.2,12.7V18.5H88M46.5,28.1V43.4H67.2M67.2,43.4V30H88M67.2,43.4V56.9H88M88,56.9V41.4H108.7M88,56.9V72.4H108.7M108.7,72.4V52.9H129.4M108.7,72.4V91.9H129.4M129.4,91.9V70.1H150.2M150.2,70.1V64.4H170.9M150.2,70.1V75.9H170.9M129.4,91.9V113.6H150.2M150.2,113.6V87.4H170.9M150.2,113.6V139.8H170.9M170.9,139.8V107.5H191.7M191.7,107.5V98.8H212.4M191.7,107.5V116.1H212.4M212.4,116.1V110.3H233.1M212.4,116.1V121.8H233.1M170.9,139.8V172.1H191.7M191.7,172.1V133.3H212.4M191.7,172.1V210.9H212.4M212.4,210.9V144.8H233.1M212.4,210.9V277.1H233.1M233.1,277.1V170.2H253.9M253.9,170.2V156.2H274.6M253.9,170.2V184.1H274.6M274.6,184.1V167.7H295.3M274.6,184.1V200.4H295.3M295.3,200.4V179.2H316.1M295.3,200.4V221.5H316.1M316.1,221.5V200.7H336.8M336.8,200.7V190.7H357.6M336.8,200.7V210.8H357.6M357.6,210.8V202.2H378.3M357.6,210.8V219.4H378.3M378.3,219.4V213.7H399M378.3,219.4V225.1H399M316.1,221.5V242.4H336.8M336.8,242.4V236.6H357.6M336.8,242.4V248.1H357.6M233.1,277.1V384.1H253.9M253.9,384.1V284H274.6M274.6,284V265.3H295.3M295.3,265.3V259.6H316.1M295.3,265.3V271.1H316.1M274.6,284V302.6H295.3M295.3,302.6V288.3H316.1M316.1,288.3V282.5H336.8M316.1,288.3V294H336.8M253.9,384.1V484.1H274.6M274.6,484.1V438.9H295.3M295.3,438.9V408.8H316.1M295.3,438.9V469H316.1M316.1,469V431.6H336.8M336.8,431.6V420.3H357.6M336.8,431.6V442.9H357.6M357.6,442.9V431.8H378.3M357.6,442.9V454H378.3M378.3,454V443.3H399M378.3,454V464.8H399M399,464.8V454.7H419.8M399,464.8V474.8H419.8M419.8,474.8V466.2H440.5M419.8,474.8V483.5H440.5M316.1,469V506.4H336.8M336.8,506.4V500.7H357.6M336.8,506.4V512.2H357.6M274.6,484.1V529.4H295.3M25.7,287.3V546.6H46.5M5,432V576.7H25.7M25.7,576.7V563.8H46.5M46.5,563.8V558.1H67.2M46.5,563.8V569.6H67.2M25.7,576.7V589.6H46.5M46.5,589.6V581H67.2M46.5,589.6V598.3H67.2M67.2,598.3V592.5H88M67.2,598.3V604H88" stroke="#fc8d59"></path><path d="M295.3,302.6V316.9H316.1M316.1,316.9V305.5H336.8M316.1,316.9V328.4H336.8M336.8,328.4V317H357.6M336.8,328.4V339.8H357.6M357.6,339.8V328.5H378.3M357.6,339.8V351.1H378.3M378.3,351.1V339.9H399M378.3,351.1V362.2H399M399,362.2V351.4H419.8M399,362.2V372.9H419.8M419.8,372.9V362.9H440.5M419.8,372.9V383H440.5M440.5,383V374.4H461.3M440.5,383V391.6H461.3M461.3,391.6V385.9H482M461.3,391.6V397.3H482M440.5,483.5V477.7H461.3M295.3,529.4V535.1H316.1" stroke="#91bfdb"></path><path d="M440.5,483.5V489.2H461.3M295.3,529.4V523.6H316.1" stroke="darkgrey"></path><text x="7" y="435" class="node" fill="#4A6FE3">1</text><text x="27.7" y="290.3" class="node" fill="#4A6FE3">1</text><text x="48.5" y="31.1" class="node" fill="#4A6FE3">1</text><text x="69.2" y="15.7" class="node" fill="#4A6FE3">1</text><text x="69.2" y="46.4" class="node" fill="#4A6FE3">1</text><text x="90" y="59.9" class="node" fill="#4A6FE3">1</text><text x="110.7" y="75.4" class="node" fill="#E38FA0">0.23</text><text x="131.4" y="94.9" class="node" fill="#7388E1">0.89</text><text x="152.2" y="73.1" class="node" fill="#7388E1">0.89</text><text x="152.2" y="116.6" class="node" fill="#4A6FE3">1</text><text x="172.9" y="142.8" class="node" fill="#4A6FE3">1</text><text x="193.7" y="110.5" class="node" fill="#4A6FE3">1</text><text x="214.4" y="119.1" class="node" fill="#4A6FE3">1</text><text x="193.7" y="175.1" class="node" fill="#4A6FE3">1</text><text x="214.4" y="213.9" class="node" fill="#4A6FE3">1</text><text x="235.1" y="280.1" class="node" fill="#4A6FE3">1</text><text x="255.9" y="173.2" class="node" fill="#4A6FE3">1</text><text x="276.6" y="187.1" class="node" fill="#4A6FE3">1</text><text x="297.3" y="203.4" class="node" fill="#4A6FE3">1</text><text x="318.1" y="224.5" class="node" fill="#4A6FE3">1</text><text x="338.8" y="203.7" class="node" fill="#E07C92">0.17</text><text x="359.6" y="213.8" class="node" fill="#E3DFE0">0.49</text><text x="380.3" y="222.4" class="node" fill="#4A6FE3">1</text><text x="338.8" y="245.4" class="node" fill="#4A6FE3">1</text><text x="255.9" y="387.1" class="node" fill="#4A6FE3">1</text><text x="276.6" y="287" class="node" fill="#DA5E7D">0.08</text><text x="297.3" y="268.3" class="node" fill="#4A6FE3">1</text><text x="297.3" y="305.6" class="node" fill="#4A6FE3">1</text><text x="318.1" y="291.3" class="node" fill="#4A6FE3">1</text><text x="318.1" y="319.9" class="node" fill="#4A6FE3">1</text><text x="338.8" y="331.4" class="node" fill="#4A6FE3">1</text><text x="359.6" y="342.8" class="node" fill="#8091E1">0.85</text><text x="380.3" y="354.1" class="node" fill="#8091E1">0.85</text><text x="401" y="365.2" class="node" fill="#8091E1">0.85</text><text x="421.8" y="375.9" class="node" fill="#C1C6E3">0.62</text><text x="442.5" y="386" class="node" fill="#E28699">0.2</text><text x="463.3" y="394.6" class="node" fill="#4A6FE3">1</text><text x="276.6" y="487.1" class="node" fill="#4A6FE3">1</text><text x="297.3" y="441.9" class="node" fill="#DA5E7D">0.08</text><text x="318.1" y="472" class="node" fill="#B1B8E2">0.68</text><text x="338.8" y="434.6" class="node" fill="#DB617F">0.09</text><text x="359.6" y="445.9" class="node" fill="#DB617F">0.09</text><text x="380.3" y="457" class="node" fill="#DB617F">0.09</text><text x="401" y="467.8" class="node" fill="#DB617F">0.09</text><text x="421.8" y="477.8" class="node" fill="#667FE1">0.93</text><text x="442.5" y="486.5" class="node" fill="#C4C9E3">0.61</text><text x="338.8" y="509.4" class="node" fill="#4A6FE3">1</text><text x="297.3" y="532.4" class="node" fill="#5374E2">0.98</text><text x="27.7" y="579.7" class="node" fill="#4A6FE3">1</text><text x="48.5" y="566.8" class="node" fill="#4A6FE3">1</text><text x="48.5" y="592.6" class="node" fill="#4A6FE3">1</text><text x="69.2" y="601.3" class="node" fill="#4A6FE3">1</text></svg>
