<svg xmlns="http://www.w3.org/2000/svg" version="1.1" width="682" height="682" class="tree" data-char="69"><text x="678" y="15.4" text-anchor="end" class="stepsLabel">Character adds <tspan class="score">3</tspan> to tree score</text><text x="678" y="27.8" text-anchor="end" class="stepsLabel"><tspan class="score">0</tspan> additional regions</text><text x="678" y="40.2" text-anchor="end" class="stepsLabel">CI = 0.33; Fitch CI = 0.33; Fitch RI = 0.6</text><text x="678" y="65" text-anchor="end" class="stepsLabel"><tspan dy="16" fill="#34caaf">An optimal tree under:</tspan><tspan x="680" style="font-style:italic" class="thisAn" dy="1.2em">Equal weights</tspan><tspan x="680" style="font-style:italic" class="notThisAn" dy="1.2em">Implied weights, k = 2</tspan><tspan x="680" style="font-style:italic" class="notThisAn" dy="1.2em">IW, k = 3</tspan><tspan x="680" style="font-style:italic" class="notThisAn" dy="1.2em">IW, k = 4.5</tspan><tspan x="680" style="font-style:italic" class="notThisAn" dy="1.2em">IW, k = 7</tspan><tspan x="680" style="font-style:italic" class="notThisAn" dy="1.2em">IW, k = 10.5</tspan><tspan x="680" style="font-style:italic" class="notThisAn" dy="1.2em">IW, k = 16</tspan><tspan x="680" style="font-style:italic" class="notThisAn" dy="1.2em">IW, k = 24</tspan></text><text x="88" y="664.4" fill="#fc8d59" class="flag">[0]</text><text x="110" y="664.4" fill="#000" class="taxonLabel">Dentalium</text><text x="88" y="677" fill="#fc8d59" class="flag">[0]</text><text x="110" y="677" fill="#000" class="taxonLabel">Tonicella</text><text x="67.2" y="651.8" fill="#fc8d59" class="flag">[0]</text><text x="89.2" y="651.8" fill="#000" class="taxonLabel">Wiwaxia corrugata</text><text x="67.2" y="626.7" fill="#fc8d59" class="flag">[0]</text><text x="89.2" y="626.7" fill="#000" class="taxonLabel">Sipunculus</text><text x="67.2" y="639.2" fill="#fc8d59" class="flag">[0]</text><text x="89.2" y="639.2" fill="#000" class="taxonLabel">Serpula</text><text x="150.2" y="601.5" fill="#fc8d59" class="flag">[0]</text><text x="172.2" y="601.5" fill="#000" class="taxonLabel">Eccentrotheca</text><text x="150.2" y="614.1" fill="#fc8d59" class="flag">[0]</text><text x="172.2" y="614.1" fill="#000" class="taxonLabel">Cotyledion tylodes</text><text x="295.3" y="576.3" fill="#fc8d59" class="flag">[0]</text><text x="317.3" y="576.3" fill="#000" class="taxonLabel">Bactrotheca</text><text x="295.3" y="588.9" fill="#fc8d59" class="flag">[0]</text><text x="317.3" y="588.9" fill="#000" class="taxonLabel">Conotheca</text><text x="274.6" y="563.7" fill="#fc8d59" class="flag">[0]</text><text x="296.6" y="563.7" fill="#000" class="taxonLabel">Cupitheca holocyclata</text><text x="316.1" y="538.6" fill="#91bfdb" class="flag">[1]</text><text x="338.1" y="538.6" fill="#000" class="taxonLabel">Maxilites</text><text x="316.1" y="551.2" fill="#91bfdb" class="flag">[1]</text><text x="338.1" y="551.2" fill="#000" class="taxonLabel">Pauxillites</text><text x="295.3" y="526" fill="#91bfdb" class="flag">[1]</text><text x="317.3" y="526" fill="#000" class="taxonLabel">Haplophrentis carinatus</text><text x="274.6" y="513.4" fill="#fc8d59" class="flag">[0]</text><text x="296.6" y="513.4" fill="#000" class="taxonLabel">Paramicrocornus</text><text x="233.1" y="500.8" fill="#fc8d59" class="flag">[0]</text><text x="255.1" y="500.8" fill="#000" class="taxonLabel">Pedunculotheca diania</text><text x="295.3" y="475.6" fill="#fc8d59" class="flag">[0]</text><text x="317.3" y="475.6" fill="#000" class="taxonLabel">Heliomedusa orienta</text><text x="295.3" y="488.2" fill="#fc8d59" class="flag">[0]</text><text x="317.3" y="488.2" fill="#000" class="taxonLabel">Mickwitzia muralensis</text><text x="274.6" y="463.1" fill="#fc8d59" class="flag">[0]</text><text x="296.6" y="463.1" fill="#000" class="taxonLabel">Micrina</text><text x="316.1" y="437.9" fill="#fc8d59" class="flag">[0]</text><text x="338.1" y="437.9" fill="#000" class="taxonLabel">Askepasma toddense</text><text x="316.1" y="450.5" fill="#fc8d59" class="flag">[0]</text><text x="338.1" y="450.5" fill="#000" class="taxonLabel">Micromitra</text><text x="482" y="412.7" fill="#fc8d59" class="flag">[0]</text><text x="504" y="412.7" fill="#000" class="taxonLabel">Terebratulina</text><text x="482" y="425.3" fill="#fc8d59" class="flag">[0]</text><text x="504" y="425.3" fill="#000" class="taxonLabel">Orthis</text><text x="461.3" y="400.1" fill="#fc8d59" class="flag">[0]</text><text x="483.3" y="400.1" fill="#000" class="taxonLabel">Alisina</text><text x="440.5" y="387.5" fill="#fc8d59" class="flag">[0]</text><text x="462.5" y="387.5" fill="#000" class="taxonLabel">Longtancunella chengjiangensis</text><text x="419.8" y="375" fill="#fc8d59" class="flag">[0]</text><text x="441.8" y="375" fill="#000" class="taxonLabel">Glyptoria</text><text x="399" y="362.4" fill="#fc8d59" class="flag">[0]</text><text x="421" y="362.4" fill="#000" class="taxonLabel">Nisusia sulcata</text><text x="378.3" y="349.8" fill="#fc8d59" class="flag">[0]</text><text x="400.3" y="349.8" fill="#000" class="taxonLabel">Kutorgina chengjiangensis</text><text x="378.3" y="324.6" fill="#fc8d59" class="flag">[0]</text><text x="400.3" y="324.6" fill="#000" class="taxonLabel">Coolinia pecten</text><text x="378.3" y="337.2" fill="#fc8d59" class="flag">[0]</text><text x="400.3" y="337.2" fill="#000" class="taxonLabel">Antigonambonites planus</text><text x="336.8" y="312" fill="#fc8d59" class="flag">[0]</text><text x="358.8" y="312" fill="#000" class="taxonLabel">Tomteluva perturbata</text><text x="316.1" y="299.5" fill="#fc8d59" class="flag">[0]</text><text x="338.1" y="299.5" fill="#000" class="taxonLabel">Salanygolina</text><text x="461.3" y="274.3" fill="#fc8d59" class="flag">[0]</text><text x="483.3" y="274.3" fill="#000" class="taxonLabel">Acanthotretella spinosa</text><text x="461.3" y="286.9" fill="#fc8d59" class="flag">[0]</text><text x="483.3" y="286.9" fill="#000" class="taxonLabel">Siphonobolus priscus</text><text x="440.5" y="261.7" fill="#fc8d59" class="flag">[0]</text><text x="462.5" y="261.7" fill="#000" class="taxonLabel">Clupeafumosus socialis</text><text x="419.8" y="249.1" fill="#fc8d59" class="flag">[0]</text><text x="441.8" y="249.1" fill="#000" class="taxonLabel">Lingulosacculus</text><text x="399" y="236.5" fill="#fc8d59" class="flag">[0]</text><text x="421" y="236.5" fill="#000" class="taxonLabel">Lingulellotreta malongensis</text><text x="399" y="211.4" fill="#fc8d59" class="flag">[0]</text><text x="421" y="211.4" fill="#000" class="taxonLabel">Mummpikia nuda</text><text x="399" y="223.9" fill="#fc8d59" class="flag">[0]</text><text x="421" y="223.9" fill="#000" class="taxonLabel">Pelagodiscus atlanticus</text><text x="357.6" y="198.8" fill="#fc8d59" class="flag">[0]</text><text x="379.6" y="198.8" fill="#000" class="taxonLabel">Botsfordia</text><text x="336.8" y="186.2" fill="#fc8d59" class="flag">[0]</text><text x="358.8" y="186.2" fill="#000" class="taxonLabel">Eoobolus</text><text x="316.1" y="173.6" fill="#fc8d59" class="flag">[0]</text><text x="338.1" y="173.6" fill="#000" class="taxonLabel">Lingula</text><text x="357.6" y="148.4" fill="#fc8d59" class="flag">[0]</text><text x="379.6" y="148.4" fill="#000" class="taxonLabel">Craniops</text><text x="357.6" y="161" fill="#fc8d59" class="flag">[0]</text><text x="379.6" y="161" fill="#000" class="taxonLabel">Novocrania</text><text x="336.8" y="135.8" fill="#fc8d59" class="flag">[0]</text><text x="358.8" y="135.8" fill="#000" class="taxonLabel">Ussunia</text><text x="316.1" y="123.3" fill="#fc8d59" class="flag">[0]</text><text x="338.1" y="123.3" fill="#000" class="taxonLabel">Gasconsia</text><text x="233.1" y="110.7" fill="#fc8d59" class="flag">[0]</text><text x="255.1" y="110.7" fill="#000" class="taxonLabel">Yuganotheca elegans</text><text x="191.7" y="98.1" fill="#91bfdb" class="flag">[1]</text><text x="213.7" y="98.1" fill="#000" class="taxonLabel">Paterimitra</text><text x="170.9" y="85.5" fill="#91bfdb" class="flag">[1]</text><text x="192.9" y="85.5" fill="#000" class="taxonLabel">Halkieria evangelista</text><text x="150.2" y="72.9" fill="#91bfdb" class="flag">[1]</text><text x="172.2" y="72.9" fill="#000" class="taxonLabel">Dailyatia</text><text x="108.7" y="60.3" fill="#fc8d59" class="flag">[0]</text><text x="130.7" y="60.3" fill="#000" class="taxonLabel">Namacalathus</text><text x="88" y="47.8" fill="#fc8d59" class="flag">[0]</text><text x="110" y="47.8" fill="#000" class="taxonLabel">Phoronis</text><text x="88" y="22.6" fill="#fc8d59" class="flag">[0]</text><text x="110" y="22.6" fill="#000" class="taxonLabel">Flustra</text><text x="88" y="35.2" fill="#fc8d59" class="flag">[0]</text><text x="110" y="35.2" fill="#000" class="taxonLabel">Amathia</text><text x="46.5" y="10" fill="#fc8d59" class="flag">[0]</text><text x="68.5" y="10" fill="#000" class="taxonLabel">Loxosomella</text><path d="M5,342.9V41.6H25.7M25.7,41.6V7H46.5M25.7,41.6V76.3H46.5M46.5,76.3V25.9H67.2M67.2,25.9V19.6H88M67.2,25.9V32.2H88M46.5,76.3V126.7H67.2M67.2,126.7V44.8H88M67.2,126.7V208.6H88M88,208.6V57.3H108.7M88,208.6V359.9H108.7M170.9,237.5V379.9H191.7M191.7,379.9V238H212.4M212.4,238V107.7H233.1M212.4,238V368.3H233.1M233.1,368.3V267H253.9M253.9,267V157.8H274.6M274.6,157.8V131.3H295.3M295.3,131.3V120.3H316.1M295.3,131.3V142.3H316.1M316.1,142.3V132.8H336.8M316.1,142.3V151.7H336.8M336.8,151.7V145.4H357.6M336.8,151.7V158H357.6M274.6,157.8V184.3H295.3M295.3,184.3V170.6H316.1M295.3,184.3V198H316.1M316.1,198V183.2H336.8M316.1,198V212.9H336.8M336.8,212.9V195.8H357.6M336.8,212.9V230H357.6M357.6,230V214.7H378.3M378.3,214.7V208.4H399M378.3,214.7V220.9H399M357.6,230V245.3H378.3M378.3,245.3V233.5H399M378.3,245.3V257.1H399M399,257.1V246.1H419.8M399,257.1V268.1H419.8M419.8,268.1V258.7H440.5M419.8,268.1V277.6H440.5M440.5,277.6V271.3H461.3M440.5,277.6V283.9H461.3M253.9,267V376.3H274.6M274.6,376.3V311.4H295.3M295.3,311.4V296.5H316.1M295.3,311.4V326.3H316.1M316.1,326.3V309H336.8M316.1,326.3V343.5H336.8M336.8,343.5V327.9H357.6M357.6,327.9V321.6H378.3M357.6,327.9V334.2H378.3M336.8,343.5V359.2H357.6M357.6,359.2V346.8H378.3M357.6,359.2V371.6H378.3M378.3,371.6V359.4H399M378.3,371.6V383.8H399M399,383.8V372H419.8M399,383.8V395.6H419.8M419.8,395.6V384.5H440.5M419.8,395.6V406.6H440.5M440.5,406.6V397.1H461.3M440.5,406.6V416H461.3M461.3,416V409.7H482M461.3,416V422.3H482M274.6,376.3V441.2H295.3M295.3,441.2V434.9H316.1M295.3,441.2V447.5H316.1M233.1,368.3V469.5H253.9M253.9,469.5V460.1H274.6M253.9,469.5V478.9H274.6M274.6,478.9V472.6H295.3M274.6,478.9V485.2H295.3M191.7,379.9V521.8H212.4M212.4,521.8V497.8H233.1M212.4,521.8V545.8H233.1M233.1,545.8V521.4H253.9M253.9,521.4V510.4H274.6M233.1,545.8V570.2H253.9M253.9,570.2V560.7H274.6M253.9,570.2V579.6H274.6M274.6,579.6V573.3H295.3M274.6,579.6V585.9H295.3M108.7,359.9V604.8H129.4M129.4,604.8V598.5H150.2M129.4,604.8V611.1H150.2M5,342.9V644.1H25.7M25.7,644.1V630H46.5M46.5,630V623.7H67.2M46.5,630V636.2H67.2M25.7,644.1V658.3H46.5M46.5,658.3V648.8H67.2M46.5,658.3V667.7H67.2M67.2,667.7V661.4H88M67.2,667.7V674H88" stroke="#fc8d59"></path><path d="M108.7,359.9V115H129.4M129.4,115V69.9H150.2M129.4,115V160H150.2M150.2,160V82.5H170.9M150.2,160V237.5H170.9M170.9,237.5V95.1H191.7M253.9,521.4V532.4H274.6M274.6,532.4V523H295.3M274.6,532.4V541.9H295.3M295.3,541.9V535.6H316.1M295.3,541.9V548.2H316.1" stroke="#91bfdb"></path><text x="7" y="345.9" class="node" fill="#4A6FE3">1</text><text x="27.7" y="44.6" class="node" fill="#4A6FE3">1</text><text x="48.5" y="79.3" class="node" fill="#4A6FE3">1</text><text x="69.2" y="28.9" class="node" fill="#4A6FE3">1</text><text x="69.2" y="129.7" class="node" fill="#4A6FE3">1</text><text x="90" y="211.6" class="node" fill="#E498A7">0.26</text><text x="110.7" y="362.9" class="node" fill="#7086E1">0.9</text><text x="131.4" y="118" class="node" fill="#A3ADE2">0.73</text><text x="152.2" y="163" class="node" fill="#7086E1">0.9</text><text x="172.9" y="240.5" class="node" fill="#7086E1">0.9</text><text x="193.7" y="382.9" class="node" fill="#A3ADE2">0.73</text><text x="214.4" y="241" class="node" fill="#8394E1">0.84</text><text x="235.1" y="371.3" class="node" fill="#CFD2E3">0.58</text><text x="255.9" y="270" class="node" fill="#D2D4E3">0.57</text><text x="276.6" y="160.8" class="node" fill="#CFD2E3">0.58</text><text x="297.3" y="134.3" class="node" fill="#CFD2E3">0.58</text><text x="318.1" y="145.3" class="node" fill="#8394E1">0.84</text><text x="338.8" y="154.7" class="node" fill="#8394E1">0.84</text><text x="297.3" y="187.3" class="node" fill="#B1B8E2">0.68</text><text x="318.1" y="201" class="node" fill="#D2D4E3">0.57</text><text x="338.8" y="215.9" class="node" fill="#D2D4E3">0.57</text><text x="359.6" y="233" class="node" fill="#D2D4E3">0.57</text><text x="380.3" y="217.7" class="node" fill="#D2D4E3">0.57</text><text x="380.3" y="248.3" class="node" fill="#D2D4E3">0.57</text><text x="401" y="260.1" class="node" fill="#7086E1">0.9</text><text x="421.8" y="271.1" class="node" fill="#E59FAC">0.28</text><text x="442.5" y="280.6" class="node" fill="#4A6FE3">1</text><text x="276.6" y="379.3" class="node" fill="#D2D4E3">0.57</text><text x="297.3" y="314.4" class="node" fill="#CFD2E3">0.58</text><text x="318.1" y="329.3" class="node" fill="#D2D4E3">0.57</text><text x="338.8" y="346.5" class="node" fill="#D85778">0.06</text><text x="359.6" y="330.9" class="node" fill="#4A6FE3">1</text><text x="359.6" y="362.2" class="node" fill="#D85778">0.06</text><text x="380.3" y="374.6" class="node" fill="#D54C71">0.03</text><text x="401" y="386.8" class="node" fill="#B1B8E2">0.68</text><text x="421.8" y="398.6" class="node" fill="#D2D4E3">0.57</text><text x="442.5" y="409.6" class="node" fill="#4A6FE3">1</text><text x="463.3" y="419" class="node" fill="#4F72E2">0.99</text><text x="297.3" y="444.2" class="node" fill="#7388E1">0.89</text><text x="255.9" y="472.5" class="node" fill="#D2D4E3">0.57</text><text x="276.6" y="481.9" class="node" fill="#CFD2E3">0.58</text><text x="214.4" y="524.8" class="node" fill="#7086E1">0.9</text><text x="235.1" y="548.8" class="node" fill="#7086E1">0.9</text><text x="255.9" y="524.4" class="node" fill="#95A1E2">0.78</text><text x="276.6" y="535.4" class="node" fill="#4A6FE3">1</text><text x="297.3" y="544.9" class="node" fill="#4A6FE3">1</text><text x="255.9" y="573.2" class="node" fill="#CFD2E3">0.58</text><text x="276.6" y="582.6" class="node" fill="#627DE1">0.94</text><text x="131.4" y="607.8" class="node" fill="#E49CAA">0.27</text><text x="27.7" y="647.1" class="node" fill="#4A6FE3">1</text><text x="48.5" y="633" class="node" fill="#4A6FE3">1</text><text x="48.5" y="661.3" class="node" fill="#4A6FE3">1</text><text x="69.2" y="670.7" class="node" fill="#4A6FE3">1</text></svg>
