<svg xmlns="http://www.w3.org/2000/svg" version="1.1" width="682" height="682" class="tree" data-char="134"><text x="678" y="15.4" text-anchor="end" class="stepsLabel">Character adds <tspan class="score">5</tspan> to tree score</text><text x="678" y="27.8" text-anchor="end" class="stepsLabel"><tspan class="score">0</tspan> additional regions</text><text x="678" y="40.2" text-anchor="end" class="stepsLabel">CI = 0.2; Fitch CI = 0.2; Fitch RI = 0.2</text><text x="678" y="65" text-anchor="end" class="stepsLabel"><tspan dy="16" fill="#34caaf">An optimal tree under:</tspan><tspan x="680" style="font-style:italic" class="thisAn" dy="1.2em">Equal weights</tspan><tspan x="680" style="font-style:italic" class="notThisAn" dy="1.2em">Implied weights, k = 3</tspan><tspan x="680" style="font-style:italic" class="notThisAn" dy="1.2em">IW, k = 4.5</tspan><tspan x="680" style="font-style:italic" class="notThisAn" dy="1.2em">IW, k = 7</tspan><tspan x="680" style="font-style:italic" class="notThisAn" dy="1.2em">IW, k = 10.5</tspan><tspan x="680" style="font-style:italic" class="notThisAn" dy="1.2em">IW, k = 16</tspan><tspan x="680" style="font-style:italic" class="notThisAn" dy="1.2em">IW, k = 24</tspan></text><text x="291.2" y="664.4" fill="#e2e2a2" class="flag">[1]</text><text x="313.2" y="664.4" fill="#000" class="taxonLabel">Mickwitzia muralensis</text><text x="291.2" y="677" fill="grey" class="flag">[?]</text><text x="313.2" y="677" fill="#999" class="taxonLabel">Heliomedusa orienta</text><text x="267.4" y="651.8" fill="#91bfdb" class="flag">[2]</text><text x="289.4" y="651.8" fill="#000" class="taxonLabel">Micrina</text><text x="315.1" y="626.7" fill="#91bfdb" class="flag">[2]</text><text x="337.1" y="626.7" fill="#000" class="taxonLabel">Askepasma toddense</text><text x="315.1" y="639.2" fill="#e2e2a2" class="flag">[1]</text><text x="337.1" y="639.2" fill="#000" class="taxonLabel">Micromitra</text><text x="362.8" y="601.5" fill="#e2e2a2" class="flag">[1]</text><text x="384.8" y="601.5" fill="#000" class="taxonLabel">Antigonambonites planus</text><text x="362.8" y="614.1" fill="#e2e2a2" class="flag">[1]</text><text x="384.8" y="614.1" fill="#000" class="taxonLabel">Coolinia pecten</text><text x="386.6" y="576.3" fill="lightgrey" class="flag">[-]</text><text x="408.6" y="576.3" fill="#ccc" class="taxonLabel">Kutorgina chengjiangensis</text><text x="386.6" y="588.9" fill="lightgrey" class="flag">[-]</text><text x="408.6" y="588.9" fill="#ccc" class="taxonLabel">Nisusia sulcata</text><text x="482" y="551.2" fill="lightgrey" class="flag">[-]</text><text x="504" y="551.2" fill="#ccc" class="taxonLabel">Terebratulina</text><text x="482" y="563.7" fill="lightgrey" class="flag">[-]</text><text x="504" y="563.7" fill="#ccc" class="taxonLabel">Orthis</text><text x="458.2" y="538.6" fill="grey" class="flag">[?]</text><text x="480.2" y="538.6" fill="#999" class="taxonLabel">Alisina</text><text x="434.3" y="526" fill="grey" class="flag">[?]</text><text x="456.3" y="526" fill="#999" class="taxonLabel">Longtancunella chengjiangensis</text><text x="410.5" y="513.4" fill="lightgrey" class="flag">[-]</text><text x="432.5" y="513.4" fill="#ccc" class="taxonLabel">Glyptoria</text><text x="386.6" y="500.8" fill="grey" class="flag">[?]</text><text x="408.6" y="500.8" fill="#999" class="taxonLabel">Tomteluva perturbata</text><text x="315.1" y="488.2" fill="#91bfdb" class="flag">[2]</text><text x="337.1" y="488.2" fill="#000" class="taxonLabel">Salanygolina</text><text x="362.8" y="463.1" fill="#e2e2a2" class="flag">[1]</text><text x="384.8" y="463.1" fill="#000" class="taxonLabel">Craniops</text><text x="362.8" y="475.6" fill="#e2e2a2" class="flag">[1]</text><text x="384.8" y="475.6" fill="#000" class="taxonLabel">Novocrania</text><text x="338.9" y="450.5" fill="grey" class="flag">[?]</text><text x="360.9" y="450.5" fill="#999" class="taxonLabel">Ussunia</text><text x="315.1" y="437.9" fill="#e2e2a2" class="flag">[1]</text><text x="337.1" y="437.9" fill="#000" class="taxonLabel">Gasconsia</text><text x="482" y="412.7" fill="#e2e2a2" class="flag">[1]</text><text x="504" y="412.7" fill="#000" class="taxonLabel">Siphonobolus priscus</text><text x="482" y="425.3" fill="lightgrey" class="flag">[-]</text><text x="504" y="425.3" fill="#ccc" class="taxonLabel">Acanthotretella spinosa</text><text x="458.2" y="400.1" fill="lightgrey" class="flag">[-]</text><text x="480.2" y="400.1" fill="#ccc" class="taxonLabel">Lingulosacculus</text><text x="434.3" y="387.5" fill="#e2e2a2" class="flag">[1]</text><text x="456.3" y="387.5" fill="#000" class="taxonLabel">Clupeafumosus socialis</text><text x="410.5" y="375" fill="grey" class="flag">[?]</text><text x="432.5" y="375" fill="#999" class="taxonLabel">Lingulellotreta malongensis</text><text x="410.5" y="349.8" fill="#e2e2a2" class="flag">[1]</text><text x="432.5" y="349.8" fill="#000" class="taxonLabel">Mummpikia nuda</text><text x="410.5" y="362.4" fill="#e2e2a2" class="flag">[1]</text><text x="432.5" y="362.4" fill="#000" class="taxonLabel">Pelagodiscus atlanticus</text><text x="362.8" y="337.2" fill="#e2e2a2" class="flag">[1]</text><text x="384.8" y="337.2" fill="#000" class="taxonLabel">Botsfordia</text><text x="338.9" y="324.6" fill="#e2e2a2" class="flag">[1]</text><text x="360.9" y="324.6" fill="#000" class="taxonLabel">Eoobolus</text><text x="315.1" y="312" fill="#e2e2a2" class="flag">[1]</text><text x="337.1" y="312" fill="#000" class="taxonLabel">Lingula</text><text x="219.7" y="299.5" fill="lightgrey" class="flag">[-]</text><text x="241.7" y="299.5" fill="#ccc" class="taxonLabel">Yuganotheca elegans</text><text x="291.2" y="274.3" fill="grey" class="flag">[?]</text><text x="313.2" y="274.3" fill="#999" class="taxonLabel">Pauxillites</text><text x="291.2" y="286.9" fill="#e2e2a2" class="flag">[1]</text><text x="313.2" y="286.9" fill="#000" class="taxonLabel">Maxilites</text><text x="267.4" y="261.7" fill="grey" class="flag">[?]</text><text x="289.4" y="261.7" fill="#999" class="taxonLabel">Haplophrentis carinatus</text><text x="315.1" y="236.5" fill="grey" class="flag">[?]</text><text x="337.1" y="236.5" fill="#999" class="taxonLabel">Bactrotheca</text><text x="315.1" y="249.1" fill="grey" class="flag">[?]</text><text x="337.1" y="249.1" fill="#999" class="taxonLabel">Conotheca</text><text x="291.2" y="223.9" fill="lightgrey" class="flag">[-]</text><text x="313.2" y="223.9" fill="#ccc" class="taxonLabel">Cupitheca holocyclata</text><text x="267.4" y="211.4" fill="lightgrey" class="flag">[-]</text><text x="289.4" y="211.4" fill="#ccc" class="taxonLabel">Paramicrocornus</text><text x="219.7" y="198.8" fill="grey" class="flag">[?]</text><text x="241.7" y="198.8" fill="#999" class="taxonLabel">Pedunculotheca diania</text><text x="172" y="186.2" fill="#91bfdb" class="flag">[2]</text><text x="194" y="186.2" fill="#000" class="taxonLabel">Paterimitra</text><text x="148.1" y="173.6" fill="lightgrey" class="flag">[-]</text><text x="170.1" y="173.6" fill="#ccc" class="taxonLabel">Halkieria evangelista</text><text x="124.2" y="161" fill="#91bfdb" class="flag">[2]</text><text x="146.2" y="161" fill="#000" class="taxonLabel">Dailyatia</text><text x="124.2" y="135.8" fill="grey" class="flag">[?]</text><text x="146.2" y="135.8" fill="#999" class="taxonLabel">Cotyledion tylodes</text><text x="124.2" y="148.4" fill="#91bfdb" class="flag">[2]</text><text x="146.2" y="148.4" fill="#000" class="taxonLabel">Eccentrotheca</text><text x="100.4" y="110.7" fill="#e2e2a2" class="flag">[1]</text><text x="122.4" y="110.7" fill="#000" class="taxonLabel">Namacalathus</text><text x="100.4" y="123.3" fill="lightgrey" class="flag">[-]</text><text x="122.4" y="123.3" fill="#ccc" class="taxonLabel">Phoronis</text><text x="76.6" y="85.5" fill="lightgrey" class="flag">[-]</text><text x="98.6" y="85.5" fill="#ccc" class="taxonLabel">Amathia</text><text x="76.6" y="98.1" fill="lightgrey" class="flag">[-]</text><text x="98.6" y="98.1" fill="#ccc" class="taxonLabel">Flustra</text><text x="100.4" y="60.3" fill="lightgrey" class="flag">[-]</text><text x="122.4" y="60.3" fill="#ccc" class="taxonLabel">Sipunculus</text><text x="100.4" y="72.9" fill="lightgrey" class="flag">[-]</text><text x="122.4" y="72.9" fill="#ccc" class="taxonLabel">Serpula</text><text x="124.2" y="35.2" fill="lightgrey" class="flag">[-]</text><text x="146.2" y="35.2" fill="#ccc" class="taxonLabel">Tonicella</text><text x="124.2" y="47.8" fill="lightgrey" class="flag">[-]</text><text x="146.2" y="47.8" fill="#ccc" class="taxonLabel">Dentalium</text><text x="100.4" y="22.6" fill="lightgrey" class="flag">[-]</text><text x="122.4" y="22.6" fill="#ccc" class="taxonLabel">Wiwaxia corrugata</text><text x="52.7" y="10" fill="lightgrey" class="flag">[-]</text><text x="74.7" y="10" fill="#ccc" class="taxonLabel">Loxosomella</text><path d="M5,70.1V26.7H28.9M28.9,26.7V7H52.7M28.9,26.7V46.3H52.7M52.7,46.3V29H76.6M76.6,29V19.6H100.4M76.6,29V38.5H100.4M100.4,38.5V32.2H124.2M100.4,38.5V44.8H124.2M52.7,46.3V63.6H76.6M76.6,63.6V57.3H100.4M76.6,63.6V69.9H100.4M5,70.1V113.5H28.9M28.9,113.5V88.8H52.7M52.7,88.8V82.5H76.6M52.7,88.8V95.1H76.6M76.6,114V120.3H100.4M124.2,212.7V170.6H148.1M219.7,243.8V219.4H243.5M243.5,219.4V208.4H267.4M243.5,219.4V230.4H267.4M267.4,230.4V220.9H291.2M267.4,230.4V239.8H291.2M291.2,239.8V233.5H315.1M291.2,239.8V246.1H315.1M195.8,433.3V296.5H219.7M434.3,406.6V397.1H458.2M458.2,416V422.3H482M315.1,574.8V544.8H338.9M338.9,544.8V510H362.8M362.8,510V497.8H386.6M362.8,510V522.2H386.6M386.6,522.2V510.4H410.5M386.6,522.2V534H410.5M410.5,534V523H434.3M410.5,534V545H434.3M434.3,545V535.6H458.2M434.3,545V554.4H458.2M458.2,554.4V548.2H482M458.2,554.4V560.7H482M338.9,544.8V579.6H362.8M362.8,579.6V573.3H386.6M362.8,579.6V585.9H386.6" stroke="lightgrey" class="inapplicable"></path><path d="M28.9,113.5V138.1H52.7M52.7,138.1V114H76.6" stroke="darkgrey"></path><path d="M76.6,114V107.7H100.4M148.1,254.9V326.5H172M172,326.5V219.8H195.8M195.8,219.8V195.8H219.7M195.8,219.8V243.8H219.7M219.7,243.8V268.1H243.5M243.5,268.1V258.7H267.4M243.5,268.1V277.6H267.4M267.4,277.6V271.3H291.2M267.4,277.6V283.9H291.2M172,326.5V433.3H195.8M195.8,433.3V570.2H219.7M219.7,570.2V482.2H243.5M243.5,482.2V384.3H267.4M267.4,384.3V322.8H291.2M291.2,322.8V309H315.1M291.2,322.8V336.5H315.1M315.1,336.5V321.6H338.9M315.1,336.5V351.3H338.9M338.9,351.3V334.2H362.8M338.9,351.3V368.4H362.8M362.8,368.4V353.1H386.6M386.6,353.1V346.8H410.5M386.6,353.1V359.4H410.5M362.8,368.4V383.8H386.6M386.6,383.8V372H410.5M386.6,383.8V395.6H410.5M410.5,395.6V384.5H434.3M410.5,395.6V406.6H434.3M434.3,406.6V416H458.2M458.2,416V409.7H482M267.4,384.3V445.9H291.2M291.2,445.9V434.9H315.1M291.2,445.9V456.9H315.1M315.1,456.9V447.5H338.9M315.1,456.9V466.3H338.9M338.9,466.3V460.1H362.8M338.9,466.3V472.6H362.8M243.5,482.2V580H267.4M267.4,580V530H291.2M291.2,530V574.8H315.1M315.1,574.8V604.8H338.9M338.9,604.8V598.5H362.8M338.9,604.8V611.1H362.8M267.4,580V630H291.2M291.2,630V636.2H315.1M219.7,570.2V658.3H243.5M243.5,658.3V667.7H267.4M267.4,667.7V661.4H291.2M267.4,667.7V674H291.2" stroke="#e2e2a2"></path><path d="M52.7,138.1V162.3H76.6M76.6,162.3V139.1H100.4M100.4,139.1V132.8H124.2M100.4,139.1V145.4H124.2M76.6,162.3V185.4H100.4M100.4,185.4V158H124.2M100.4,185.4V212.7H124.2M124.2,212.7V254.9H148.1M148.1,254.9V183.2H172M291.2,530V485.2H315.1M291.2,630V623.7H315.1M243.5,658.3V648.8H267.4" stroke="#91bfdb"></path><text x="30.9" y="29.7" class="node" fill="#4A6FE3">1</text><text x="54.7" y="49.3" class="node" fill="#4A6FE3">1</text><text x="78.6" y="32" class="node" fill="red">NA</text><text x="102.4" y="41.5" class="node" fill="red">NA</text><text x="78.6" y="66.6" class="node" fill="red">NA</text><text x="30.9" y="116.5" class="node" fill="red">NA</text><text x="54.7" y="91.8" class="node" fill="red">NA</text><text x="54.7" y="141.1" class="node" fill="red">NA</text><text x="78.6" y="117" class="node" fill="#4A6FE3">1</text><text x="78.6" y="165.3" class="node" fill="red">NA</text><text x="102.4" y="142.1" class="node" fill="red">NA</text><text x="102.4" y="188.4" class="node" fill="red">NA</text><text x="126.2" y="215.7" class="node" fill="#E5A5B1">0.3</text><text x="150.1" y="257.9" class="node" fill="red">NA</text><text x="174" y="329.5" class="node" fill="red">NA</text><text x="197.8" y="222.8" class="node" fill="red">NA</text><text x="221.7" y="246.8" class="node" fill="red">NA</text><text x="245.5" y="222.4" class="node" fill="red">NA</text><text x="269.4" y="233.4" class="node" fill="red">NA</text><text x="293.2" y="242.8" class="node" fill="red">NA</text><text x="245.5" y="271.1" class="node" fill="#627DE1">0.94</text><text x="269.4" y="280.6" class="node" fill="#4A6FE3">1</text><text x="197.8" y="436.3" class="node" fill="red">NA</text><text x="221.7" y="573.2" class="node" fill="red">NA</text><text x="245.5" y="485.2" class="node" fill="red">NA</text><text x="269.4" y="387.3" class="node" fill="red">NA</text><text x="293.2" y="325.8" class="node" fill="red">NA</text><text x="317.1" y="339.5" class="node" fill="red">NA</text><text x="340.9" y="354.3" class="node" fill="red">NA</text><text x="364.8" y="371.4" class="node" fill="red">NA</text><text x="388.6" y="356.1" class="node" fill="red">NA</text><text x="388.6" y="386.8" class="node" fill="red">NA</text><text x="412.5" y="398.6" class="node" fill="red">NA</text><text x="436.3" y="409.6" class="node" fill="red">NA</text><text x="460.2" y="419" class="node" fill="red">NA</text><text x="293.2" y="448.9" class="node" fill="red">NA</text><text x="317.1" y="459.9" class="node" fill="red">NA</text><text x="340.9" y="469.3" class="node" fill="red">NA</text><text x="269.4" y="583" class="node" fill="red">NA</text><text x="293.2" y="533" class="node" fill="red">NA</text><text x="317.1" y="577.8" class="node" fill="red">NA</text><text x="340.9" y="547.8" class="node" fill="red">NA</text><text x="364.8" y="513" class="node" fill="red">NA</text><text x="388.6" y="525.2" class="node" fill="red">NA</text><text x="412.5" y="537" class="node" fill="red">NA</text><text x="436.3" y="548" class="node" fill="red">NA</text><text x="460.2" y="557.4" class="node" fill="red">NA</text><text x="364.8" y="582.6" class="node" fill="red">NA</text><text x="340.9" y="607.8" class="node" fill="red">NA</text><text x="293.2" y="633" class="node" fill="red">NA</text><text x="245.5" y="661.3" class="node" fill="#4A6FE3">1</text><text x="269.4" y="670.7" class="node" fill="red">NA</text></svg>
