<svg xmlns="http://www.w3.org/2000/svg" version="1.1" width="682" height="612" class="tree" data-char="84"><text x="678" y="14.1" text-anchor="end" class="stepsLabel">Character adds <tspan class="score">2</tspan> to tree score</text><text x="678" y="25.2" text-anchor="end" class="stepsLabel"><tspan class="score">0</tspan> additional regions</text><text x="678" y="36.3" text-anchor="end" class="stepsLabel">CI = 1; Fitch CI = 1; Fitch RI = 1</text><text x="678" y="58.5" text-anchor="end" class="stepsLabel"><tspan dy="16" fill="#34caaf">An optimal tree under:</tspan><tspan x="680" style="font-style:italic" class="thisAn" dy="1.2em">Equal weights</tspan><tspan x="680" style="font-style:italic" class="notThisAn" dy="1.2em">Implied weights, k = 2</tspan><tspan x="680" style="font-style:italic" class="notThisAn" dy="1.2em">IW, k = 3</tspan><tspan x="680" style="font-style:italic" class="notThisAn" dy="1.2em">IW, k = 4.5</tspan><tspan x="680" style="font-style:italic" class="notThisAn" dy="1.2em">IW, k = 7</tspan><tspan x="680" style="font-style:italic" class="notThisAn" dy="1.2em">IW, k = 10.5</tspan><tspan x="680" style="font-style:italic" class="notThisAn" dy="1.2em">IW, k = 16</tspan><tspan x="680" style="font-style:italic" class="notThisAn" dy="1.2em">IW, k = 24</tspan></text><text x="88" y="595.7" fill="lightgrey" class="flag">[-]</text><text x="110" y="595.7" fill="#ccc" class="taxonLabel">Dentalium</text><text x="88" y="607" fill="lightgrey" class="flag">[-]</text><text x="110" y="607" fill="#ccc" class="taxonLabel">Wiwaxia corrugata</text><text x="67.2" y="584.5" fill="lightgrey" class="flag">[-]</text><text x="89.2" y="584.5" fill="#ccc" class="taxonLabel">Tonicella</text><text x="67.2" y="561.9" fill="lightgrey" class="flag">[-]</text><text x="89.2" y="561.9" fill="#ccc" class="taxonLabel">Sipunculus</text><text x="67.2" y="573.2" fill="lightgrey" class="flag">[-]</text><text x="89.2" y="573.2" fill="#ccc" class="taxonLabel">Serpula</text><text x="357.6" y="528.2" fill="grey" class="flag">[?]</text><text x="379.6" y="528.2" fill="#999" class="taxonLabel">Mummpikia nuda</text><text x="357.6" y="539.4" fill="lightgrey" class="flag">[-]</text><text x="379.6" y="539.4" fill="#ccc" class="taxonLabel">Pelagodiscus atlanticus</text><text x="336.8" y="516.9" fill="lightgrey" class="flag">[-]</text><text x="358.8" y="516.9" fill="#ccc" class="taxonLabel">Lingula</text><text x="399" y="494.4" fill="grey" class="flag">[?]</text><text x="421" y="494.4" fill="#999" class="taxonLabel">Siphonobolus priscus</text><text x="399" y="505.6" fill="grey" class="flag">[?]</text><text x="421" y="505.6" fill="#999" class="taxonLabel">Acanthotretella spinosa</text><text x="378.3" y="483.1" fill="lightgrey" class="flag">[-]</text><text x="400.3" y="483.1" fill="#ccc" class="taxonLabel">Lingulosacculus</text><text x="357.6" y="471.8" fill="lightgrey" class="flag">[-]</text><text x="379.6" y="471.8" fill="#ccc" class="taxonLabel">Clupeafumosus socialis</text><text x="336.8" y="460.6" fill="lightgrey" class="flag">[-]</text><text x="358.8" y="460.6" fill="#ccc" class="taxonLabel">Lingulellotreta malongensis</text><text x="316.1" y="438" fill="lightgrey" class="flag">[-]</text><text x="338.1" y="438" fill="#ccc" class="taxonLabel">Botsfordia</text><text x="316.1" y="449.3" fill="lightgrey" class="flag">[-]</text><text x="338.1" y="449.3" fill="#ccc" class="taxonLabel">Eoobolus</text><text x="316.1" y="415.5" fill="grey" class="flag">[?]</text><text x="338.1" y="415.5" fill="#999" class="taxonLabel">Micromitra</text><text x="316.1" y="426.8" fill="#abd9e9" class="flag">[2]</text><text x="338.1" y="426.8" fill="#000" class="taxonLabel">Gasconsia</text><text x="378.3" y="393" fill="#abd9e9" class="flag">[2]</text><text x="400.3" y="393" fill="#000" class="taxonLabel">Novocrania</text><text x="378.3" y="404.2" fill="grey" class="flag">[?]</text><text x="400.3" y="404.2" fill="#999" class="taxonLabel">Craniops</text><text x="357.6" y="381.7" fill="grey" class="flag">[?]</text><text x="379.6" y="381.7" fill="#999" class="taxonLabel">Ussunia</text><text x="336.8" y="370.5" fill="grey" class="flag">[?]</text><text x="358.8" y="370.5" fill="#999" class="taxonLabel">Heliomedusa orienta</text><text x="316.1" y="359.2" fill="lightgrey" class="flag">[-]</text><text x="338.1" y="359.2" fill="#ccc" class="taxonLabel">Mickwitzia muralensis</text><text x="378.3" y="336.7" fill="grey" class="flag">[?]</text><text x="400.3" y="336.7" fill="#999" class="taxonLabel">Antigonambonites planus</text><text x="378.3" y="347.9" fill="#abd9e9" class="flag">[2]</text><text x="400.3" y="347.9" fill="#000" class="taxonLabel">Coolinia pecten</text><text x="482" y="314.1" fill="#fdae61" class="flag">[1]</text><text x="504" y="314.1" fill="#000" class="taxonLabel">Orthis</text><text x="482" y="325.4" fill="#fdae61" class="flag">[1]</text><text x="504" y="325.4" fill="#000" class="taxonLabel">Terebratulina</text><text x="461.3" y="302.9" fill="#fdae61" class="flag">[1]</text><text x="483.3" y="302.9" fill="#000" class="taxonLabel">Alisina</text><text x="440.5" y="291.6" fill="grey" class="flag">[?]</text><text x="462.5" y="291.6" fill="#999" class="taxonLabel">Longtancunella chengjiangensis</text><text x="419.8" y="280.3" fill="#2c7bb6" class="flag">[3]</text><text x="441.8" y="280.3" fill="#000" class="taxonLabel">Glyptoria</text><text x="399" y="269.1" fill="#abd9e9" class="flag">[2]</text><text x="421" y="269.1" fill="#000" class="taxonLabel">Nisusia sulcata</text><text x="378.3" y="257.8" fill="#abd9e9" class="flag">[2]</text><text x="400.3" y="257.8" fill="#000" class="taxonLabel">Kutorgina chengjiangensis</text><text x="336.8" y="246.5" fill="grey" class="flag">[?]</text><text x="358.8" y="246.5" fill="#999" class="taxonLabel">Tomteluva perturbata</text><text x="316.1" y="235.3" fill="grey" class="flag">[?]</text><text x="338.1" y="235.3" fill="#999" class="taxonLabel">Yuganotheca elegans</text><text x="295.3" y="224" fill="grey" class="flag">[?]</text><text x="317.3" y="224" fill="#999" class="taxonLabel">Salanygolina</text><text x="274.6" y="212.8" fill="grey" class="flag">[?]</text><text x="296.6" y="212.8" fill="#999" class="taxonLabel">Askepasma toddense</text><text x="233.1" y="201.5" fill="grey" class="flag">[?]</text><text x="255.1" y="201.5" fill="#999" class="taxonLabel">Micrina</text><text x="336.8" y="179" fill="grey" class="flag">[?]</text><text x="358.8" y="179" fill="#999" class="taxonLabel">Maxilites</text><text x="336.8" y="190.2" fill="grey" class="flag">[?]</text><text x="358.8" y="190.2" fill="#999" class="taxonLabel">Pauxillites</text><text x="316.1" y="167.7" fill="grey" class="flag">[?]</text><text x="338.1" y="167.7" fill="#999" class="taxonLabel">Haplophrentis carinatus</text><text x="295.3" y="156.4" fill="grey" class="flag">[?]</text><text x="317.3" y="156.4" fill="#999" class="taxonLabel">Paramicrocornus</text><text x="274.6" y="145.2" fill="grey" class="flag">[?]</text><text x="296.6" y="145.2" fill="#999" class="taxonLabel">Conotheca</text><text x="274.6" y="122.6" fill="grey" class="flag">[?]</text><text x="296.6" y="122.6" fill="#999" class="taxonLabel">Decoritheca</text><text x="274.6" y="133.9" fill="grey" class="flag">[?]</text><text x="296.6" y="133.9" fill="#999" class="taxonLabel">Probactrotheca</text><text x="233.1" y="111.4" fill="grey" class="flag">[?]</text><text x="255.1" y="111.4" fill="#999" class="taxonLabel">Pedunculotheca diania</text><text x="191.7" y="100.1" fill="grey" class="flag">[?]</text><text x="213.7" y="100.1" fill="#999" class="taxonLabel">Paterimitra</text><text x="170.9" y="88.8" fill="grey" class="flag">[?]</text><text x="192.9" y="88.8" fill="#999" class="taxonLabel">Halkieria evangelista</text><text x="150.2" y="77.6" fill="lightgrey" class="flag">[-]</text><text x="172.2" y="77.6" fill="#ccc" class="taxonLabel">Dailyatia</text><text x="129.4" y="66.3" fill="lightgrey" class="flag">[-]</text><text x="151.4" y="66.3" fill="#ccc" class="taxonLabel">Phoronis</text><text x="108.7" y="55.1" fill="lightgrey" class="flag">[-]</text><text x="130.7" y="55.1" fill="#ccc" class="taxonLabel">Cotyledion tylodes</text><text x="88" y="43.8" fill="lightgrey" class="flag">[-]</text><text x="110" y="43.8" fill="#ccc" class="taxonLabel">Eccentrotheca</text><text x="108.7" y="10" fill="lightgrey" class="flag">[-]</text><text x="130.7" y="10" fill="#ccc" class="taxonLabel">Flustra</text><text x="108.7" y="21.3" fill="lightgrey" class="flag">[-]</text><text x="130.7" y="21.3" fill="#ccc" class="taxonLabel">Amathia</text><text x="88" y="32.5" fill="lightgrey" class="flag">[-]</text><text x="110" y="32.5" fill="#ccc" class="taxonLabel">Namacalathus</text><text x="46.5" y="550.7" fill="lightgrey" class="flag">[-]</text><text x="68.5" y="550.7" fill="#ccc" class="taxonLabel">Loxosomella</text><path d="M5,434.8V292.4H25.7M25.7,292.4V37.1H46.5M46.5,37.1V21.1H67.2M67.2,21.1V12.6H88M88,12.6V7H108.7M88,12.6V18.3H108.7M67.2,21.1V29.5H88M46.5,37.1V53.2H67.2M67.2,53.2V40.8H88M67.2,53.2V65.6H88M88,65.6V52.1H108.7M88,65.6V79.2H108.7M108.7,79.2V63.3H129.4M108.7,79.2V95H129.4M129.4,95V74.6H150.2M295.3,366.7V356.2H316.1M253.9,430.2V468H274.6M274.6,468V440.7H295.3M295.3,440.7V435H316.1M295.3,440.7V446.3H316.1M274.6,468V495.2H295.3M295.3,495.2V468.1H316.1M316.1,468.1V457.6H336.8M316.1,468.1V478.7H336.8M336.8,478.7V468.8H357.6M336.8,478.7V488.5H357.6M357.6,488.5V480.1H378.3M357.6,488.5V497H378.3M378.3,497V491.4H399M378.3,497V502.6H399M295.3,495.2V522.3H316.1M316.1,522.3V513.9H336.8M316.1,522.3V530.8H336.8M336.8,530.8V525.2H357.6M336.8,530.8V536.4H357.6M25.7,292.4V547.7H46.5M5,434.8V577.2H25.7M25.7,577.2V564.6H46.5M46.5,564.6V558.9H67.2M46.5,564.6V570.2H67.2M25.7,577.2V589.9H46.5M46.5,589.9V581.5H67.2M46.5,589.9V598.4H67.2M67.2,598.4V592.7H88M67.2,598.4V604H88" stroke="lightgrey" class="inapplicable"></path><path d="M129.4,95V115.5H150.2M150.2,115.5V85.8H170.9M150.2,115.5V145.1H170.9M170.9,145.1V97.1H191.7M170.9,145.1V193.2H191.7M191.7,193.2V123.7H212.4M212.4,123.7V108.4H233.1M212.4,123.7V139H233.1M233.1,139V125.3H253.9M253.9,125.3V119.6H274.6M253.9,125.3V130.9H274.6M233.1,139V152.7H253.9M253.9,152.7V142.2H274.6M253.9,152.7V163.3H274.6M274.6,163.3V153.4H295.3M274.6,163.3V173.1H295.3M295.3,173.1V164.7H316.1M295.3,173.1V181.6H316.1M316.1,181.6V176H336.8M316.1,181.6V187.2H336.8M191.7,193.2V262.6H212.4M212.4,262.6V198.5H233.1M212.4,262.6V326.7H233.1M233.1,326.7V223.3H253.9M253.9,223.3V209.8H274.6M253.9,223.3V236.8H274.6M274.6,236.8V221H295.3M274.6,236.8V252.7H295.3M295.3,252.7V232.3H316.1M295.3,252.7V273.1H316.1M316.1,273.1V243.5H336.8M316.1,273.1V302.6H336.8M336.8,302.6V265.9H357.6M357.6,265.9V254.8H378.3M357.6,265.9V277H378.3M378.3,277V266.1H399M378.3,277V287.9H399M336.8,302.6V339.3H357.6M357.6,339.3V333.7H378.3M357.6,339.3V344.9H378.3M233.1,326.7V430.2H253.9M253.9,430.2V392.4H274.6M274.6,392.4V366.7H295.3M295.3,366.7V377.3H316.1M316.1,377.3V367.5H336.8M316.1,377.3V387.2H336.8M336.8,387.2V378.7H357.6M336.8,387.2V395.6H357.6M357.6,395.6V390H378.3M357.6,395.6V401.2H378.3M274.6,392.4V418.1H295.3M295.3,418.1V412.5H316.1M295.3,418.1V423.8H316.1" stroke="#abd9e9"></path><path d="M399,287.9V277.3H419.8" stroke="#2c7bb6"></path><path d="M399,287.9V298.5H419.8M419.8,298.5V288.6H440.5" stroke="darkgrey"></path><path d="M419.8,298.5V308.3H440.5M440.5,308.3V299.9H461.3M440.5,308.3V316.8H461.3M461.3,316.8V311.1H482M461.3,316.8V322.4H482" stroke="#fdae61"></path><text x="7" y="437.8" class="node" fill="#4A6FE3">1</text><text x="27.7" y="295.4" class="node" fill="#4A6FE3">1</text><text x="48.5" y="40.1" class="node" fill="#4A6FE3">1</text><text x="69.2" y="24.1" class="node" fill="#E6B1BB">0.34</text><text x="90" y="15.6" class="node" fill="#4A6FE3">1</text><text x="69.2" y="56.2" class="node" fill="#E3DFE0">0.49</text><text x="90" y="68.6" class="node" fill="#E17F94">0.18</text><text x="110.7" y="82.2" class="node" fill="#DC6884">0.11</text><text x="131.4" y="98" class="node" fill="#E6C4C9">0.4</text><text x="152.2" y="118.5" class="node" fill="#A8B1E2">0.71</text><text x="172.9" y="148.1" class="node" fill="#A8B1E2">0.71</text><text x="193.7" y="196.2" class="node" fill="#A8B1E2">0.71</text><text x="214.4" y="126.7" class="node" fill="#A8B1E2">0.71</text><text x="235.1" y="142" class="node" fill="#4A6FE3">1</text><text x="255.9" y="128.3" class="node" fill="#E6B1BB">0.34</text><text x="255.9" y="155.7" class="node" fill="#E07C92">0.17</text><text x="276.6" y="166.3" class="node" fill="#7A8DE1">0.87</text><text x="297.3" y="176.1" class="node" fill="#E6B1BB">0.34</text><text x="318.1" y="184.6" class="node" fill="#4A6FE3">1</text><text x="214.4" y="265.6" class="node" fill="#667FE1">0.93</text><text x="235.1" y="329.7" class="node" fill="#D5D7E3">0.55</text><text x="255.9" y="226.3" class="node" fill="#ABB4E2">0.7</text><text x="276.6" y="239.8" class="node" fill="#97A4E2">0.77</text><text x="297.3" y="255.7" class="node" fill="#D2D4E3">0.57</text><text x="318.1" y="276.1" class="node" fill="#E495A5">0.25</text><text x="338.8" y="305.6" class="node" fill="#9AA6E2">0.76</text><text x="359.6" y="268.9" class="node" fill="#929FE1">0.79</text><text x="380.3" y="280" class="node" fill="#929FE1">0.79</text><text x="401" y="290.9" class="node" fill="#929FE1">0.79</text><text x="421.8" y="301.5" class="node" fill="#7A8DE1">0.87</text><text x="442.5" y="311.3" class="node" fill="#4A6FE3">1</text><text x="463.3" y="319.8" class="node" fill="#929FE1">0.79</text><text x="359.6" y="342.3" class="node" fill="#4A6FE3">1</text><text x="255.9" y="433.2" class="node" fill="#B9BFE3">0.65</text><text x="276.6" y="395.4" class="node" fill="#D2D4E3">0.57</text><text x="297.3" y="369.7" class="node" fill="#D2D4E3">0.57</text><text x="318.1" y="380.3" class="node" fill="#7A8DE1">0.87</text><text x="338.8" y="390.2" class="node" fill="#4A6FE3">1</text><text x="359.6" y="398.6" class="node" fill="#4A6FE3">1</text><text x="297.3" y="421.1" class="node" fill="#BCC2E3">0.64</text><text x="276.6" y="471" class="node" fill="#A3ADE2">0.73</text><text x="297.3" y="443.7" class="node" fill="#E5C7CC">0.41</text><text x="297.3" y="498.2" class="node" fill="#DDDEE3">0.52</text><text x="318.1" y="471.1" class="node" fill="#E392A2">0.24</text><text x="338.8" y="481.7" class="node" fill="#AEB6E2">0.69</text><text x="359.6" y="491.5" class="node" fill="#E59FAC">0.29</text><text x="380.3" y="500" class="node" fill="#5776E2">0.97</text><text x="318.1" y="525.3" class="node" fill="#E6AEB8">0.33</text><text x="338.8" y="533.8" class="node" fill="#D2D4E3">0.56</text><text x="27.7" y="580.2" class="node" fill="#4A6FE3">1</text><text x="48.5" y="567.6" class="node" fill="#4A6FE3">1</text><text x="48.5" y="592.9" class="node" fill="#4A6FE3">1</text><text x="69.2" y="601.4" class="node" fill="#6D84E1">0.91</text></svg>
