<svg xmlns="http://www.w3.org/2000/svg" version="1.1" width="682" height="612" class="tree" data-char="92"><text x="678" y="16" text-anchor="end" class="stepsLabel">Character adds <tspan class="score">6</tspan> to tree score</text><text x="678" y="29" text-anchor="end" class="stepsLabel"><tspan class="score">1</tspan> additional region</text><text x="678" y="42" text-anchor="end" class="stepsLabel">CI = 0.17; Fitch CI = 0.2; Fitch RI = 0.56</text><text x="678" y="68" text-anchor="end" class="stepsLabel"><tspan dy="16">An optimal tree under:</tspan><tspan x="680" style="font-style:italic" class="thisAn" dy="1.2em">Equal weights</tspan><tspan x="680" style="font-style:italic" class="notThisAn" dy="1.2em">Implied weights, k = 2</tspan><tspan x="680" style="font-style:italic" class="notThisAn" dy="1.2em">IW, k = 3</tspan><tspan x="680" style="font-style:italic" class="notThisAn" dy="1.2em">IW, k = 4.5</tspan><tspan x="680" style="font-style:italic" class="notThisAn" dy="1.2em">IW, k = 7</tspan><tspan x="680" style="font-style:italic" class="notThisAn" dy="1.2em">IW, k = 10.5</tspan></text><text x="70" y="593.7" fill="lightgrey" class="flag">[-]</text><text x="92" y="593.7" fill="lightgrey" class="taxonLabel">Serpula</text><text x="70" y="607" fill="lightgrey" class="flag">[-]</text><text x="92" y="607" fill="lightgrey" class="taxonLabel">Sipunculus</text><text x="91.7" y="567.2" fill="lightgrey" class="flag">[-]</text><text x="113.7" y="567.2" fill="lightgrey" class="taxonLabel">Wiwaxia corrugata</text><text x="91.7" y="580.5" fill="#e2e2a2" class="flag">[1]</text><text x="113.7" y="580.5" fill="#111" class="taxonLabel">Tonicella</text><text x="70" y="553.9" fill="lightgrey" class="flag">[-]</text><text x="92" y="553.9" fill="lightgrey" class="taxonLabel">Dentalium</text><text x="308.5" y="461.1" fill="#91bfdb" class="flag">[2]</text><text x="330.5" y="461.1" fill="#111" class="taxonLabel">Craniops</text><text x="308.5" y="474.3" fill="#91bfdb" class="flag">[2]</text><text x="330.5" y="474.3" fill="#111" class="taxonLabel">Novocrania</text><text x="286.9" y="447.8" fill="#e2e2a2" class="flag">[1]</text><text x="308.9" y="447.8" fill="#111" class="taxonLabel">Ussunia</text><text x="265.2" y="434.5" fill="#e2e2a2" class="flag">[1]</text><text x="287.2" y="434.5" fill="#111" class="taxonLabel">Gasconsia</text><text x="286.9" y="408" fill="#e2e2a2" class="flag">[1]</text><text x="308.9" y="408" fill="#111" class="taxonLabel">Micromitra</text><text x="286.9" y="421.3" fill="#e2e2a2" class="flag">[1]</text><text x="308.9" y="421.3" fill="#111" class="taxonLabel">Askepasma toddense</text><text x="482" y="381.5" fill="#e2e2a2" class="flag">[1]</text><text x="504" y="381.5" fill="#111" class="taxonLabel">Terebratulina</text><text x="482" y="394.7" fill="#e2e2a2" class="flag">[1]</text><text x="504" y="394.7" fill="#111" class="taxonLabel">Orthis</text><text x="460.3" y="368.2" fill="#e2e2a2" class="flag">[1]</text><text x="482.3" y="368.2" fill="#111" class="taxonLabel">Alisina</text><text x="438.6" y="354.9" fill="#e2e2a2" class="flag">[1]</text><text x="460.6" y="354.9" fill="#111" class="taxonLabel">Longtancunella chengjiangensis</text><text x="417" y="341.7" fill="#e2e2a2" class="flag">[1]</text><text x="439" y="341.7" fill="#111" class="taxonLabel">Glyptoria</text><text x="395.3" y="328.4" fill="grey" class="flag">[12]</text><text x="417.3" y="328.4" fill="grey" class="taxonLabel">Nisusia sulcata</text><text x="373.6" y="315.1" fill="grey" class="flag">[12]</text><text x="395.6" y="315.1" fill="grey" class="taxonLabel">Kutorgina chengjiangensis</text><text x="373.6" y="288.6" fill="grey" class="flag">[12]</text><text x="395.6" y="288.6" fill="grey" class="taxonLabel">Antigonambonites planus</text><text x="373.6" y="301.9" fill="#e2e2a2" class="flag">[1]</text><text x="395.6" y="301.9" fill="#111" class="taxonLabel">Coolinia pecten</text><text x="330.2" y="275.3" fill="#e2e2a2" class="flag">[1]</text><text x="352.2" y="275.3" fill="#111" class="taxonLabel">Tomteluva perturbata</text><text x="308.5" y="262.1" fill="#e2e2a2" class="flag">[1]</text><text x="330.5" y="262.1" fill="#111" class="taxonLabel">Yuganotheca elegans</text><text x="286.9" y="248.8" fill="grey" class="flag">[12]</text><text x="308.9" y="248.8" fill="grey" class="taxonLabel">Salanygolina</text><text x="417" y="222.3" fill="#e2e2a2" class="flag">[1]</text><text x="439" y="222.3" fill="#111" class="taxonLabel">Siphonobolus priscus</text><text x="417" y="235.5" fill="#91bfdb" class="flag">[2]</text><text x="439" y="235.5" fill="#111" class="taxonLabel">Acanthotretella spinosa</text><text x="395.3" y="209" fill="#91bfdb" class="flag">[2]</text><text x="417.3" y="209" fill="#111" class="taxonLabel">Clupeafumosus socialis</text><text x="373.6" y="195.7" fill="#91bfdb" class="flag">[2]</text><text x="395.6" y="195.7" fill="#111" class="taxonLabel">Lingulellotreta malongensis</text><text x="351.9" y="182.5" fill="#91bfdb" class="flag">[2]</text><text x="373.9" y="182.5" fill="#111" class="taxonLabel">Lingulosacculus</text><text x="330.2" y="169.2" fill="#e2e2a2" class="flag">[1]</text><text x="352.2" y="169.2" fill="#111" class="taxonLabel">Botsfordia</text><text x="308.5" y="155.9" fill="#e2e2a2" class="flag">[1]</text><text x="330.5" y="155.9" fill="#111" class="taxonLabel">Mummpikia nuda</text><text x="286.9" y="142.7" fill="#e2e2a2" class="flag">[1]</text><text x="308.9" y="142.7" fill="#111" class="taxonLabel">Eoobolus</text><text x="265.2" y="129.4" fill="#e2e2a2" class="flag">[1]</text><text x="287.2" y="129.4" fill="#111" class="taxonLabel">Lingula</text><text x="286.9" y="102.9" fill="#e2e2a2" class="flag">[1]</text><text x="308.9" y="102.9" fill="#111" class="taxonLabel">Pelagodiscus atlanticus</text><text x="286.9" y="116.1" fill="grey" class="flag">[12]</text><text x="308.9" y="116.1" fill="grey" class="taxonLabel">Mickwitzia muralensis</text><text x="265.2" y="89.6" fill="#91bfdb" class="flag">[2]</text><text x="287.2" y="89.6" fill="#111" class="taxonLabel">Micrina</text><text x="243.5" y="63.1" fill="#91bfdb" class="flag">[2]</text><text x="265.5" y="63.1" fill="#111" class="taxonLabel">Haplophrentis carinatus</text><text x="243.5" y="76.3" fill="#91bfdb" class="flag">[2]</text><text x="265.5" y="76.3" fill="#111" class="taxonLabel">Pedunculotheca diania</text><text x="221.8" y="49.8" fill="#91bfdb" class="flag">[2]</text><text x="243.8" y="49.8" fill="#111" class="taxonLabel">Paterimitra</text><text x="178.5" y="36.5" fill="#e2e2a2" class="flag">[1]</text><text x="200.5" y="36.5" fill="#111" class="taxonLabel">Heliomedusa orienta</text><text x="178.5" y="10" fill="lightgrey" class="flag">[-]</text><text x="200.5" y="10" fill="lightgrey" class="taxonLabel">Dailyatia</text><text x="178.5" y="23.3" fill="#e2e2a2" class="flag">[1]</text><text x="200.5" y="23.3" fill="#111" class="taxonLabel">Halkieria evangelista</text><text x="135.1" y="487.6" fill="lightgrey" class="flag">[-]</text><text x="157.1" y="487.6" fill="lightgrey" class="taxonLabel">Eccentrotheca</text><text x="113.4" y="500.9" fill="lightgrey" class="flag">[-]</text><text x="135.4" y="500.9" fill="lightgrey" class="taxonLabel">Cotyledion tylodes</text><text x="91.7" y="514.1" fill="lightgrey" class="flag">[-]</text><text x="113.7" y="514.1" fill="lightgrey" class="taxonLabel">Phoronis</text><text x="70" y="527.4" fill="lightgrey" class="flag">[-]</text><text x="92" y="527.4" fill="lightgrey" class="taxonLabel">Flustra</text><text x="48.4" y="540.7" fill="lightgrey" class="flag">[-]</text><text x="70.4" y="540.7" fill="lightgrey" class="taxonLabel">Loxosomella</text><path d="M5,545.4V511.8H26.7M26.7,511.8V485.9H48.4M48.4,485.9V447.4H70M70,447.4V383.6H91.7M91.7,383.6V269.3H113.4M156.8,13.6V7H178.5M113.4,269.3V484.6H135.1M91.7,383.6V497.9H113.4M70,447.4V511.1H91.7M48.4,485.9V524.4H70M26.7,511.8V537.7H48.4M5,545.4V579.1H26.7M26.7,579.1V560.9H48.4M48.4,560.9V550.9H70M48.4,560.9V570.8H70M70,570.8V564.2H91.7M26.7,579.1V597.4H48.4M48.4,597.4V590.7H70M48.4,597.4V604H70" stroke="lightgrey" class="inapplicable"></path><path d="M113.4,269.3V54H135.1M135.1,54V13.6H156.8M156.8,13.6V20.3H178.5M135.1,54V94.4H156.8M156.8,94.4V33.5H178.5M156.8,94.4V155.3H178.5M178.5,155.3V253.8H200.1M200.1,253.8V118.1H221.8M221.8,118.1V96.6H243.5M243.5,96.6V106.5H265.2M265.2,106.5V99.9H286.9M265.2,106.5V113.1H286.9M221.8,118.1V139.6H243.5M243.5,139.6V126.4H265.2M243.5,139.6V152.8H265.2M265.2,152.8V139.7H286.9M265.2,152.8V166H286.9M286.9,166V152.9H308.5M286.9,166V179.1H308.5M308.5,179.1V166.2H330.2M395.3,225.9V219.3H417M200.1,253.8V389.6H221.8M221.8,389.6V336H243.5M243.5,336V260.3H265.2M265.2,260.3V245.8H286.9M265.2,260.3V274.8H286.9M286.9,274.8V259.1H308.5M286.9,274.8V290.5H308.5M308.5,290.5V272.3H330.2M308.5,290.5V308.7H330.2M330.2,308.7V292.2H351.9M351.9,292.2V285.6H373.6M351.9,292.2V298.9H373.6M330.2,308.7V325.2H351.9M351.9,325.2V312.1H373.6M351.9,325.2V338.3H373.6M373.6,338.3V325.4H395.3M373.6,338.3V351.1H395.3M395.3,351.1V338.7H417M395.3,351.1V363.5H417M417,363.5V351.9H438.6M417,363.5V375.2H438.6M438.6,375.2V365.2H460.3M438.6,375.2V385.1H460.3M460.3,385.1V378.5H482M460.3,385.1V391.7H482M243.5,336V411.6H265.2M265.2,411.6V405H286.9M265.2,411.6V418.3H286.9M221.8,389.6V443.1H243.5M243.5,443.1V431.5H265.2M243.5,443.1V454.8H265.2M265.2,454.8V444.8H286.9M70,570.8V577.5H91.7" stroke="#e2e2a2"></path><path d="M178.5,155.3V56.8H200.1M200.1,56.8V46.8H221.8M200.1,56.8V66.7H221.8M221.8,66.7V60.1H243.5M221.8,66.7V73.3H243.5M243.5,96.6V86.6H265.2M308.5,179.1V191.9H330.2M330.2,191.9V179.5H351.9M330.2,191.9V204.3H351.9M351.9,204.3V192.7H373.6M351.9,204.3V216H373.6M373.6,216V206H395.3M373.6,216V225.9H395.3M395.3,225.9V232.5H417M265.2,454.8V464.7H286.9M286.9,464.7V458.1H308.5M286.9,464.7V471.3H308.5" stroke="#91bfdb"></path><text x="7" y="548.4" class="node" fill="#4A6FE3">1</text><text x="28.7" y="514.8" class="node" fill="#9DA8E2">0.75</text><text x="50.4" y="488.9" class="node" fill="#9DA8E2">0.75</text><text x="72" y="450.4" class="node" fill="#9DA8E2">0.75</text><text x="93.7" y="386.6" class="node" fill="#9DA8E2">0.75</text><text x="115.4" y="272.3" class="node" fill="#E392A2">0.24</text><text x="137.1" y="57" class="node" fill="#B6BDE3">0.66</text><text x="158.8" y="16.6" class="node" fill="#6D84E1">0.91</text><text x="158.8" y="97.4" class="node" fill="#4A6FE3">1</text><text x="180.5" y="158.3" class="node" fill="#5B78E2">0.96</text><text x="202.1" y="59.8" class="node" fill="#A0ABE2">0.74</text><text x="223.8" y="69.7" class="node" fill="#4A6FE3">1</text><text x="202.1" y="256.8" class="node" fill="#5B78E2">0.96</text><text x="223.8" y="121.1" class="node" fill="#A0ABE2">0.74</text><text x="245.5" y="99.6" class="node" fill="#A0ABE2">0.74</text><text x="267.2" y="109.5" class="node" fill="#9DA8E2">0.75</text><text x="245.5" y="142.6" class="node" fill="#9DA8E2">0.75</text><text x="267.2" y="155.8" class="node" fill="#9DA8E2">0.75</text><text x="288.9" y="169" class="node" fill="#A0ABE2">0.74</text><text x="310.5" y="182.1" class="node" fill="#A0ABE2">0.74</text><text x="332.2" y="194.9" class="node" fill="#A0ABE2">0.74</text><text x="353.9" y="207.3" class="node" fill="#E28699">0.2</text><text x="375.6" y="219" class="node" fill="#DADBE3">0.53</text><text x="397.3" y="228.9" class="node" fill="#4A6FE3">1</text><text x="223.8" y="392.6" class="node" fill="#4A6FE3">1</text><text x="245.5" y="339" class="node" fill="#8998E1">0.82</text><text x="267.2" y="263.3" class="node" fill="#5B78E2">0.96</text><text x="288.9" y="277.8" class="node" fill="#E6ABB6">0.32</text><text x="310.5" y="293.5" class="node" fill="#D75376">0.05</text><text x="332.2" y="311.7" class="node" fill="#4A6FE3">1</text><text x="353.9" y="295.2" class="node" fill="#4A6FE3">1</text><text x="353.9" y="328.2" class="node" fill="#C7CBE3">0.6</text><text x="375.6" y="341.3" class="node" fill="#C7CBE3">0.6</text><text x="397.3" y="354.1" class="node" fill="#C7CBE3">0.6</text><text x="419" y="366.5" class="node" fill="#C7CBE3">0.6</text><text x="440.6" y="378.2" class="node" fill="#4A6FE3">1</text><text x="462.3" y="388.1" class="node" fill="#8394E1">0.84</text><text x="267.2" y="414.6" class="node" fill="#4A6FE3">1</text><text x="245.5" y="446.1" class="node" fill="#4A6FE3">1</text><text x="267.2" y="457.8" class="node" fill="#4A6FE3">1</text><text x="288.9" y="467.7" class="node" fill="#4A6FE3">1</text><text x="28.7" y="582.1" class="node" fill="#9DA8E2">0.75</text><text x="50.4" y="563.9" class="node" fill="#9DA8E2">0.75</text><text x="72" y="573.8" class="node" fill="#9DA8E2">0.75</text><text x="50.4" y="600.4" class="node" fill="#4A6FE3">1</text></svg>
