<svg xmlns="http://www.w3.org/2000/svg" version="1.1" width="682" height="612" class="tree" data-char="30"><text x="678" y="15.7" text-anchor="end" class="stepsLabel">Character adds <tspan class="score">1</tspan> to tree score</text><text x="678" y="28.4" text-anchor="end" class="stepsLabel"><tspan class="score">0</tspan> additional regions</text><text x="678" y="41.1" text-anchor="end" class="stepsLabel">CI = 1; Fitch CI = 1; Fitch RI = 1</text><text x="678" y="66.5" text-anchor="end" class="stepsLabel"><tspan dy="16">An optimal tree under:</tspan><tspan x="680" style="font-style:italic" class="notThisAn" dy="1.2em">Equal weights</tspan><tspan x="680" style="font-style:italic" class="notThisAn" dy="1.2em">Implied weights, k = 2</tspan><tspan x="680" style="font-style:italic" class="notThisAn" dy="1.2em">IW, k = 3</tspan><tspan x="680" style="font-style:italic" class="notThisAn" dy="1.2em">IW, k = 4.5</tspan><tspan x="680" style="font-style:italic" class="notThisAn" dy="1.2em">IW, k = 7</tspan><tspan x="680" style="font-style:italic" class="notThisAn" dy="1.2em">IW, k = 10.5</tspan><tspan x="680" style="font-style:italic" class="notThisAn" dy="1.2em">IW, k = 16</tspan><tspan x="680" style="font-style:italic" class="thisAn" dy="1.2em">IW, k = 24</tspan></text><text x="70" y="594" fill="#fc8d59" class="flag">[0]</text><text x="92" y="594" fill="#000" class="taxonLabel">Serpula</text><text x="70" y="607" fill="#fc8d59" class="flag">[0]</text><text x="92" y="607" fill="#000" class="taxonLabel">Sipunculus</text><text x="91.7" y="568.1" fill="#fc8d59" class="flag">[0]</text><text x="113.7" y="568.1" fill="#000" class="taxonLabel">Tonicella</text><text x="91.7" y="581" fill="#fc8d59" class="flag">[0]</text><text x="113.7" y="581" fill="#000" class="taxonLabel">Dentalium</text><text x="70" y="555.1" fill="#fc8d59" class="flag">[0]</text><text x="92" y="555.1" fill="#000" class="taxonLabel">Wiwaxia corrugata</text><text x="308.5" y="516.2" fill="#91bfdb" class="flag">[1]</text><text x="330.5" y="516.2" fill="#000" class="taxonLabel">Pelagodiscus atlanticus</text><text x="308.5" y="529.1" fill="grey" class="flag">[?]</text><text x="330.5" y="529.1" fill="#999" class="taxonLabel">Mickwitzia muralensis</text><text x="395.3" y="490.2" fill="#91bfdb" class="flag">[1]</text><text x="417.3" y="490.2" fill="#000" class="taxonLabel">Acanthotretella spinosa</text><text x="395.3" y="503.2" fill="#91bfdb" class="flag">[1]</text><text x="417.3" y="503.2" fill="#000" class="taxonLabel">Siphonobolus priscus</text><text x="373.6" y="477.2" fill="#91bfdb" class="flag">[1]</text><text x="395.6" y="477.2" fill="#000" class="taxonLabel">Lingulosacculus</text><text x="351.9" y="464.2" fill="#91bfdb" class="flag">[1]</text><text x="373.9" y="464.2" fill="#000" class="taxonLabel">Clupeafumosus socialis</text><text x="395.3" y="438.3" fill="#91bfdb" class="flag">[1]</text><text x="417.3" y="438.3" fill="#000" class="taxonLabel">Eoobolus</text><text x="395.3" y="451.3" fill="grey" class="flag">[?]</text><text x="417.3" y="451.3" fill="#999" class="taxonLabel">Mummpikia nuda</text><text x="373.6" y="425.3" fill="#91bfdb" class="flag">[1]</text><text x="395.6" y="425.3" fill="#000" class="taxonLabel">Botsfordia</text><text x="351.9" y="412.3" fill="#91bfdb" class="flag">[1]</text><text x="373.9" y="412.3" fill="#000" class="taxonLabel">Lingulellotreta malongensis</text><text x="308.5" y="399.3" fill="#91bfdb" class="flag">[1]</text><text x="330.5" y="399.3" fill="#000" class="taxonLabel">Lingula</text><text x="373.6" y="373.4" fill="#91bfdb" class="flag">[1]</text><text x="395.6" y="373.4" fill="#000" class="taxonLabel">Novocrania</text><text x="373.6" y="386.4" fill="grey" class="flag">[?]</text><text x="395.6" y="386.4" fill="#999" class="taxonLabel">Craniops</text><text x="351.9" y="360.4" fill="grey" class="flag">[?]</text><text x="373.9" y="360.4" fill="#999" class="taxonLabel">Ussunia</text><text x="330.2" y="347.4" fill="#91bfdb" class="flag">[1]</text><text x="352.2" y="347.4" fill="#000" class="taxonLabel">Heliomedusa orienta</text><text x="308.5" y="334.5" fill="grey" class="flag">[?]</text><text x="330.5" y="334.5" fill="#999" class="taxonLabel">Gasconsia</text><text x="373.6" y="308.5" fill="#91bfdb" class="flag">[1]</text><text x="395.6" y="308.5" fill="#000" class="taxonLabel">Yuganotheca elegans</text><text x="373.6" y="321.5" fill="grey" class="flag">[?]</text><text x="395.6" y="321.5" fill="#999" class="taxonLabel">Tomteluva perturbata</text><text x="351.9" y="295.5" fill="grey" class="flag">[?]</text><text x="373.9" y="295.5" fill="#999" class="taxonLabel">Salanygolina</text><text x="373.6" y="269.6" fill="grey" class="flag">[?]</text><text x="395.6" y="269.6" fill="#999" class="taxonLabel">Coolinia pecten</text><text x="373.6" y="282.5" fill="grey" class="flag">[?]</text><text x="395.6" y="282.5" fill="#999" class="taxonLabel">Antigonambonites planus</text><text x="482" y="243.6" fill="#91bfdb" class="flag">[1]</text><text x="504" y="243.6" fill="#000" class="taxonLabel">Terebratulina</text><text x="482" y="256.6" fill="#91bfdb" class="flag">[1]</text><text x="504" y="256.6" fill="#000" class="taxonLabel">Orthis</text><text x="460.3" y="230.6" fill="#91bfdb" class="flag">[1]</text><text x="482.3" y="230.6" fill="#000" class="taxonLabel">Alisina</text><text x="438.6" y="217.7" fill="#91bfdb" class="flag">[1]</text><text x="460.6" y="217.7" fill="#000" class="taxonLabel">Longtancunella chengjiangensis</text><text x="417" y="204.7" fill="#91bfdb" class="flag">[1]</text><text x="439" y="204.7" fill="#000" class="taxonLabel">Glyptoria</text><text x="395.3" y="191.7" fill="#91bfdb" class="flag">[1]</text><text x="417.3" y="191.7" fill="#000" class="taxonLabel">Nisusia sulcata</text><text x="373.6" y="178.7" fill="grey" class="flag">[?]</text><text x="395.6" y="178.7" fill="#999" class="taxonLabel">Kutorgina chengjiangensis</text><text x="330.2" y="152.8" fill="#91bfdb" class="flag">[1]</text><text x="352.2" y="152.8" fill="#000" class="taxonLabel">Askepasma toddense</text><text x="330.2" y="165.7" fill="#91bfdb" class="flag">[1]</text><text x="352.2" y="165.7" fill="#000" class="taxonLabel">Micromitra</text><text x="243.5" y="139.8" fill="grey" class="flag">[?]</text><text x="265.5" y="139.8" fill="#999" class="taxonLabel">Micrina</text><text x="243.5" y="113.8" fill="grey" class="flag">[?]</text><text x="265.5" y="113.8" fill="#999" class="taxonLabel">Pedunculotheca diania</text><text x="243.5" y="126.8" fill="grey" class="flag">[?]</text><text x="265.5" y="126.8" fill="#999" class="taxonLabel">Haplophrentis carinatus</text><text x="200.1" y="100.8" fill="grey" class="flag">[?]</text><text x="222.1" y="100.8" fill="#999" class="taxonLabel">Paterimitra</text><text x="178.5" y="87.9" fill="#fc8d59" class="flag">[0]</text><text x="200.5" y="87.9" fill="#000" class="taxonLabel">Halkieria evangelista</text><text x="156.8" y="74.9" fill="#fc8d59" class="flag">[0]</text><text x="178.8" y="74.9" fill="#000" class="taxonLabel">Dailyatia</text><text x="135.1" y="61.9" fill="#fc8d59" class="flag">[0]</text><text x="157.1" y="61.9" fill="#000" class="taxonLabel">Cotyledion tylodes</text><text x="113.4" y="48.9" fill="#fc8d59" class="flag">[0]</text><text x="135.4" y="48.9" fill="#000" class="taxonLabel">Eccentrotheca</text><text x="113.4" y="23" fill="#fc8d59" class="flag">[0]</text><text x="135.4" y="23" fill="#000" class="taxonLabel">Phoronis</text><text x="113.4" y="36" fill="#fc8d59" class="flag">[0]</text><text x="135.4" y="36" fill="#000" class="taxonLabel">Namacalathus</text><text x="70" y="10" fill="#fc8d59" class="flag">[0]</text><text x="92" y="10" fill="#000" class="taxonLabel">Flustra</text><text x="48.4" y="542.1" fill="#fc8d59" class="flag">[0]</text><text x="70.4" y="542.1" fill="#000" class="taxonLabel">Loxosomella</text><path d="M5,430.9V282.2H26.7M26.7,282.2V25.3H48.4M48.4,25.3V7H70M48.4,25.3V43.7H70M70,43.7V26.5H91.7M91.7,26.5V20H113.4M91.7,26.5V33H113.4M70,43.7V60.9H91.7M91.7,60.9V45.9H113.4M91.7,60.9V75.8H113.4M113.4,75.8V58.9H135.1M113.4,75.8V92.7H135.1M135.1,92.7V71.9H156.8M135.1,92.7V113.5H156.8M156.8,113.5V84.9H178.5M156.8,113.5V142.1H178.5M26.7,282.2V539.1H48.4M5,430.9V579.7H26.7M26.7,579.7V561.8H48.4M48.4,561.8V552.1H70M48.4,561.8V571.6H70M70,571.6V565.1H91.7M70,571.6V578H91.7M26.7,579.7V597.5H48.4M48.4,597.5V591H70M48.4,597.5V604H70" stroke="#fc8d59"></path><path d="M178.5,142.1V97.8H200.1M178.5,142.1V186.4H200.1M200.1,186.4V117.3H221.8M221.8,117.3V110.8H243.5M221.8,117.3V123.8H243.5M200.1,186.4V255.4H221.8M221.8,255.4V136.8H243.5" stroke="darkgrey"></path><path d="M221.8,255.4V374H243.5M243.5,374V277.5H265.2M265.2,277.5V211.4H286.9M286.9,211.4V156.2H308.5M308.5,156.2V149.8H330.2M308.5,156.2V162.7H330.2M286.9,211.4V266.5H308.5M308.5,266.5V230.8H330.2M330.2,230.8V188.5H351.9M351.9,188.5V175.7H373.6M351.9,188.5V201.3H373.6M373.6,201.3V188.7H395.3M373.6,201.3V213.8H395.3M395.3,213.8V201.7H417M395.3,213.8V226H417M417,226V214.7H438.6M417,226V237.4H438.6M438.6,237.4V227.6H460.3M438.6,237.4V247.1H460.3M460.3,247.1V240.6H482M460.3,247.1V253.6H482M330.2,230.8V273.1H351.9M351.9,273.1V266.6H373.6M351.9,273.1V279.5H373.6M308.5,266.5V302.3H330.2M330.2,302.3V292.5H351.9M330.2,302.3V312H351.9M351.9,312V305.5H373.6M351.9,312V318.5H373.6M265.2,277.5V343.6H286.9M286.9,343.6V331.5H308.5M286.9,343.6V355.8H308.5M308.5,355.8V344.4H330.2M308.5,355.8V367.1H330.2M330.2,367.1V357.4H351.9M330.2,367.1V376.9H351.9M351.9,376.9V370.4H373.6M351.9,376.9V383.4H373.6M243.5,374V470.6H265.2M265.2,470.6V421.5H286.9M286.9,421.5V396.3H308.5M286.9,421.5V446.6H308.5M308.5,446.6V420.7H330.2M330.2,420.7V409.3H351.9M330.2,420.7V432H351.9M351.9,432V422.3H373.6M351.9,432V441.8H373.6M373.6,441.8V435.3H395.3M373.6,441.8V448.3H395.3M308.5,446.6V472.6H330.2M330.2,472.6V461.2H351.9M330.2,472.6V484H351.9M351.9,484V474.2H373.6M351.9,484V493.7H373.6M373.6,493.7V487.2H395.3M373.6,493.7V500.2H395.3M265.2,470.6V519.6H286.9M286.9,519.6V513.2H308.5M286.9,519.6V526.1H308.5" stroke="#91bfdb"></path><text x="7" y="433.9" class="node" fill="#4A6FE3">1</text><text x="28.7" y="285.2" class="node" fill="#4A6FE3">1</text><text x="50.4" y="28.3" class="node" fill="#6982E1">0.92</text><text x="72" y="46.7" class="node" fill="#6982E1">0.92</text><text x="93.7" y="29.5" class="node" fill="#E6BAC2">0.37</text><text x="93.7" y="63.9" class="node" fill="#6982E1">0.92</text><text x="115.4" y="78.8" class="node" fill="#E392A2">0.24</text><text x="137.1" y="95.7" class="node" fill="#BFC4E3">0.63</text><text x="158.8" y="116.5" class="node" fill="#E3DFE0">0.49</text><text x="180.5" y="145.1" class="node" fill="#4A6FE3">1</text><text x="202.1" y="189.4" class="node" fill="#DD6F88">0.13</text><text x="223.8" y="120.3" class="node" fill="#4A6FE3">1</text><text x="223.8" y="258.4" class="node" fill="#DD6F88">0.13</text><text x="245.5" y="377" class="node" fill="#DD6F88">0.13</text><text x="267.2" y="280.5" class="node" fill="#DD6F88">0.13</text><text x="288.9" y="214.4" class="node" fill="#D7D9E3">0.54</text><text x="310.5" y="159.2" class="node" fill="#B9BFE3">0.65</text><text x="310.5" y="269.5" class="node" fill="#4A6FE3">1</text><text x="332.2" y="233.8" class="node" fill="#8394E1">0.84</text><text x="353.9" y="191.5" class="node" fill="#8C9BE1">0.81</text><text x="375.6" y="204.3" class="node" fill="#8C9BE1">0.81</text><text x="397.3" y="216.8" class="node" fill="#7388E1">0.89</text><text x="419" y="229" class="node" fill="#7388E1">0.89</text><text x="440.6" y="240.4" class="node" fill="#4A6FE3">1</text><text x="462.3" y="250.1" class="node" fill="#667FE1">0.93</text><text x="353.9" y="276.1" class="node" fill="#4A6FE3">1</text><text x="332.2" y="305.3" class="node" fill="#929FE1">0.79</text><text x="353.9" y="315" class="node" fill="#7D8FE1">0.86</text><text x="288.9" y="346.6" class="node" fill="#DD6F88">0.13</text><text x="310.5" y="358.8" class="node" fill="#DD6F88">0.13</text><text x="332.2" y="370.1" class="node" fill="#627DE1">0.94</text><text x="353.9" y="379.9" class="node" fill="#4A6FE3">1</text><text x="267.2" y="473.6" class="node" fill="#E0E0E2">0.51</text><text x="288.9" y="424.5" class="node" fill="#4A6FE3">1</text><text x="310.5" y="449.6" class="node" fill="#C1C6E3">0.62</text><text x="332.2" y="423.7" class="node" fill="#DD6F88">0.13</text><text x="353.9" y="435" class="node" fill="#E0E0E2">0.51</text><text x="375.6" y="444.8" class="node" fill="#DD6F88">0.13</text><text x="332.2" y="475.6" class="node" fill="#8F9DE1">0.8</text><text x="353.9" y="487" class="node" fill="#E495A5">0.25</text><text x="375.6" y="496.7" class="node" fill="#4A6FE3">1</text><text x="288.9" y="522.6" class="node" fill="#4A6FE3">1</text><text x="28.7" y="582.7" class="node" fill="#4A6FE3">1</text><text x="50.4" y="564.8" class="node" fill="#4A6FE3">1</text><text x="72" y="574.6" class="node" fill="#8696E1">0.83</text><text x="50.4" y="600.5" class="node" fill="#4A6FE3">1</text></svg>
