<svg xmlns="http://www.w3.org/2000/svg" version="1.1" width="682" height="612" class="tree" data-char="149"><text x="678" y="14.1" text-anchor="end" class="stepsLabel">Character adds <tspan class="score">3</tspan> to tree score</text><text x="678" y="25.2" text-anchor="end" class="stepsLabel"><tspan class="score">0</tspan> additional regions</text><text x="678" y="36.3" text-anchor="end" class="stepsLabel">CI = 0.33; Fitch CI = 0.33; Fitch RI = 0.5</text><text x="678" y="58.5" text-anchor="end" class="stepsLabel"><tspan dy="16" fill="#34caaf">An optimal tree under:</tspan><tspan x="680" style="font-style:italic" class="thisAn" dy="1.2em">Equal weights</tspan><tspan x="680" style="font-style:italic" class="notThisAn" dy="1.2em">Implied weights, k = 2</tspan><tspan x="680" style="font-style:italic" class="notThisAn" dy="1.2em">IW, k = 3</tspan><tspan x="680" style="font-style:italic" class="notThisAn" dy="1.2em">IW, k = 4.5</tspan><tspan x="680" style="font-style:italic" class="notThisAn" dy="1.2em">IW, k = 7</tspan><tspan x="680" style="font-style:italic" class="notThisAn" dy="1.2em">IW, k = 10.5</tspan><tspan x="680" style="font-style:italic" class="notThisAn" dy="1.2em">IW, k = 16</tspan><tspan x="680" style="font-style:italic" class="notThisAn" dy="1.2em">IW, k = 24</tspan></text><text x="84.5" y="595.7" fill="#91bfdb" class="flag">[1]</text><text x="106.5" y="595.7" fill="#000" class="taxonLabel">Tonicella</text><text x="84.5" y="607" fill="#fc8d59" class="flag">[0]</text><text x="106.5" y="607" fill="#000" class="taxonLabel">Dentalium</text><text x="64.6" y="584.5" fill="grey" class="flag">[?]</text><text x="86.6" y="584.5" fill="#999" class="taxonLabel">Wiwaxia corrugata</text><text x="64.6" y="561.9" fill="#91bfdb" class="flag">[1]</text><text x="86.6" y="561.9" fill="#000" class="taxonLabel">Sipunculus</text><text x="64.6" y="573.2" fill="#fc8d59" class="flag">[0]</text><text x="86.6" y="573.2" fill="#000" class="taxonLabel">Serpula</text><text x="362.8" y="528.2" fill="#91bfdb" class="flag">[1]</text><text x="384.8" y="528.2" fill="#000" class="taxonLabel">Pelagodiscus atlanticus</text><text x="362.8" y="539.4" fill="grey" class="flag">[?]</text><text x="384.8" y="539.4" fill="#999" class="taxonLabel">Mummpikia nuda</text><text x="342.9" y="516.9" fill="#91bfdb" class="flag">[1]</text><text x="364.9" y="516.9" fill="#000" class="taxonLabel">Lingula</text><text x="382.6" y="494.4" fill="grey" class="flag">[?]</text><text x="404.6" y="494.4" fill="#999" class="taxonLabel">Acanthotretella spinosa</text><text x="382.6" y="505.6" fill="grey" class="flag">[?]</text><text x="404.6" y="505.6" fill="#999" class="taxonLabel">Siphonobolus priscus</text><text x="382.6" y="471.8" fill="grey" class="flag">[?]</text><text x="404.6" y="471.8" fill="#999" class="taxonLabel">Lingulosacculus</text><text x="382.6" y="483.1" fill="grey" class="flag">[?]</text><text x="404.6" y="483.1" fill="#999" class="taxonLabel">Clupeafumosus socialis</text><text x="342.9" y="460.6" fill="grey" class="flag">[?]</text><text x="364.9" y="460.6" fill="#999" class="taxonLabel">Lingulellotreta malongensis</text><text x="323" y="438" fill="grey" class="flag">[?]</text><text x="345" y="438" fill="#999" class="taxonLabel">Eoobolus</text><text x="323" y="449.3" fill="grey" class="flag">[?]</text><text x="345" y="449.3" fill="#999" class="taxonLabel">Botsfordia</text><text x="382.6" y="415.5" fill="grey" class="flag">[?]</text><text x="404.6" y="415.5" fill="#999" class="taxonLabel">Craniops</text><text x="382.6" y="426.8" fill="#91bfdb" class="flag">[1]</text><text x="404.6" y="426.8" fill="#000" class="taxonLabel">Novocrania</text><text x="362.8" y="404.2" fill="grey" class="flag">[?]</text><text x="384.8" y="404.2" fill="#999" class="taxonLabel">Ussunia</text><text x="342.9" y="393" fill="grey" class="flag">[?]</text><text x="364.9" y="393" fill="#999" class="taxonLabel">Heliomedusa orienta</text><text x="323" y="381.7" fill="grey" class="flag">[?]</text><text x="345" y="381.7" fill="#999" class="taxonLabel">Mickwitzia muralensis</text><text x="323" y="359.2" fill="grey" class="flag">[?]</text><text x="345" y="359.2" fill="#999" class="taxonLabel">Micromitra</text><text x="323" y="370.5" fill="grey" class="flag">[?]</text><text x="345" y="370.5" fill="#999" class="taxonLabel">Gasconsia</text><text x="482" y="336.7" fill="#fc8d59" class="flag">[0]</text><text x="504" y="336.7" fill="#000" class="taxonLabel">Terebratulina</text><text x="482" y="347.9" fill="grey" class="flag">[?]</text><text x="504" y="347.9" fill="#999" class="taxonLabel">Orthis</text><text x="462.1" y="325.4" fill="grey" class="flag">[?]</text><text x="484.1" y="325.4" fill="#999" class="taxonLabel">Alisina</text><text x="442.2" y="314.1" fill="grey" class="flag">[?]</text><text x="464.2" y="314.1" fill="#999" class="taxonLabel">Longtancunella chengjiangensis</text><text x="422.4" y="302.9" fill="grey" class="flag">[?]</text><text x="444.4" y="302.9" fill="#999" class="taxonLabel">Glyptoria</text><text x="402.5" y="291.6" fill="grey" class="flag">[?]</text><text x="424.5" y="291.6" fill="#999" class="taxonLabel">Nisusia sulcata</text><text x="382.6" y="280.3" fill="grey" class="flag">[?]</text><text x="404.6" y="280.3" fill="#999" class="taxonLabel">Kutorgina chengjiangensis</text><text x="382.6" y="257.8" fill="grey" class="flag">[?]</text><text x="404.6" y="257.8" fill="#999" class="taxonLabel">Coolinia pecten</text><text x="382.6" y="269.1" fill="grey" class="flag">[?]</text><text x="404.6" y="269.1" fill="#999" class="taxonLabel">Antigonambonites planus</text><text x="342.9" y="246.5" fill="grey" class="flag">[?]</text><text x="364.9" y="246.5" fill="#999" class="taxonLabel">Tomteluva perturbata</text><text x="323" y="235.3" fill="grey" class="flag">[?]</text><text x="345" y="235.3" fill="#999" class="taxonLabel">Yuganotheca elegans</text><text x="303.1" y="224" fill="grey" class="flag">[?]</text><text x="325.1" y="224" fill="#999" class="taxonLabel">Salanygolina</text><text x="283.2" y="212.8" fill="grey" class="flag">[?]</text><text x="305.2" y="212.8" fill="#999" class="taxonLabel">Askepasma toddense</text><text x="243.5" y="201.5" fill="grey" class="flag">[?]</text><text x="265.5" y="201.5" fill="#999" class="taxonLabel">Micrina</text><text x="323" y="179" fill="grey" class="flag">[?]</text><text x="345" y="179" fill="#999" class="taxonLabel">Pauxillites</text><text x="323" y="190.2" fill="grey" class="flag">[?]</text><text x="345" y="190.2" fill="#999" class="taxonLabel">Maxilites</text><text x="303.1" y="167.7" fill="grey" class="flag">[?]</text><text x="325.1" y="167.7" fill="#999" class="taxonLabel">Paramicrocornus</text><text x="283.2" y="156.4" fill="grey" class="flag">[?]</text><text x="305.2" y="156.4" fill="#999" class="taxonLabel">Haplophrentis carinatus</text><text x="303.1" y="133.9" fill="grey" class="flag">[?]</text><text x="325.1" y="133.9" fill="#999" class="taxonLabel">Probactrotheca</text><text x="303.1" y="145.2" fill="grey" class="flag">[?]</text><text x="325.1" y="145.2" fill="#999" class="taxonLabel">Conotheca</text><text x="283.2" y="122.6" fill="grey" class="flag">[?]</text><text x="305.2" y="122.6" fill="#999" class="taxonLabel">Decoritheca</text><text x="243.5" y="111.4" fill="grey" class="flag">[?]</text><text x="265.5" y="111.4" fill="#999" class="taxonLabel">Pedunculotheca diania</text><text x="203.8" y="100.1" fill="grey" class="flag">[?]</text><text x="225.8" y="100.1" fill="#999" class="taxonLabel">Paterimitra</text><text x="183.9" y="88.8" fill="grey" class="flag">[?]</text><text x="205.9" y="88.8" fill="#999" class="taxonLabel">Halkieria evangelista</text><text x="164" y="77.6" fill="grey" class="flag">[?]</text><text x="186" y="77.6" fill="#999" class="taxonLabel">Cotyledion tylodes</text><text x="144.1" y="66.3" fill="grey" class="flag">[?]</text><text x="166.1" y="66.3" fill="#999" class="taxonLabel">Eccentrotheca</text><text x="124.2" y="55.1" fill="grey" class="flag">[?]</text><text x="146.2" y="55.1" fill="#999" class="taxonLabel">Dailyatia</text><text x="104.4" y="43.8" fill="#fc8d59" class="flag">[0]</text><text x="126.4" y="43.8" fill="#000" class="taxonLabel">Phoronis</text><text x="84.5" y="32.5" fill="grey" class="flag">[?]</text><text x="106.5" y="32.5" fill="#999" class="taxonLabel">Namacalathus</text><text x="84.5" y="10" fill="#fc8d59" class="flag">[0]</text><text x="106.5" y="10" fill="#000" class="taxonLabel">Flustra</text><text x="84.5" y="21.3" fill="#fc8d59" class="flag">[0]</text><text x="106.5" y="21.3" fill="#000" class="taxonLabel">Amathia</text><text x="44.8" y="550.7" fill="#fc8d59" class="flag">[0]</text><text x="66.8" y="550.7" fill="#000" class="taxonLabel">Loxosomella</text><path d="M5,432.3V287.3H24.9M24.9,287.3V27H44.8M44.8,27V12.6H64.6M64.6,12.6V7H84.5M64.6,12.6V18.3H84.5M44.8,27V41.4H64.6M64.6,41.4V29.5H84.5M64.6,41.4V53.2H84.5M84.5,53.2V40.8H104.4M84.5,53.2V65.6H104.4M104.4,65.6V52.1H124.2M104.4,65.6V79.2H124.2M124.2,79.2V63.3H144.1M124.2,79.2V95.1H144.1M144.1,95.1V74.6H164M144.1,95.1V115.6H164M164,115.6V85.8H183.9M164,115.6V145.4H183.9M183.9,145.4V97.1H203.8M183.9,145.4V193.6H203.8M203.8,193.6V127H223.6M223.6,127V108.4H243.5M223.6,127V145.7H243.5M243.5,145.7V128.1H263.4M263.4,128.1V119.6H283.2M263.4,128.1V136.5H283.2M283.2,136.5V130.9H303.1M283.2,136.5V142.2H303.1M243.5,145.7V163.3H263.4M263.4,163.3V153.4H283.2M263.4,163.3V173.1H283.2M283.2,173.1V164.7H303.1M283.2,173.1V181.6H303.1M303.1,181.6V176H323M303.1,181.6V187.2H323M203.8,193.6V260.2H223.6M223.6,260.2V198.5H243.5M223.6,260.2V321.9H243.5M243.5,321.9V221.5H263.4M263.4,221.5V209.8H283.2M263.4,221.5V233.3H283.2M283.2,233.3V221H303.1M283.2,233.3V245.6H303.1M303.1,245.6V232.3H323M303.1,245.6V259H323M323,259V243.5H342.9M323,259V274.4H342.9M342.9,274.4V260.4H362.8M362.8,260.4V254.8H382.6M362.8,260.4V266.1H382.6M342.9,274.4V288.4H362.8M362.8,288.4V277.3H382.6M362.8,288.4V299.5H382.6M382.6,299.5V288.6H402.5M382.6,299.5V310.4H402.5M402.5,310.4V299.9H422.4M402.5,310.4V321H422.4M422.4,321V311.1H442.2M422.4,321V330.8H442.2M442.2,330.8V322.4H462.1M442.2,330.8V339.3H462.1M462.1,339.3V333.7H482M462.1,339.3V344.9H482M24.9,287.3V547.7H44.8M5,432.3V577.2H24.9M24.9,577.2V564.6H44.8M44.8,564.6V570.2H64.6M24.9,577.2V589.9H44.8M44.8,589.9V581.5H64.6M44.8,589.9V598.4H64.6M64.6,598.4V604H84.5" stroke="#fc8d59"></path><path d="M243.5,321.9V422.2H263.4M263.4,422.2V375.5H283.2M283.2,375.5V361.8H303.1M303.1,361.8V356.2H323M303.1,361.8V367.5H323M283.2,375.5V389.3H303.1M303.1,389.3V378.7H323M303.1,389.3V399.8H323M323,399.8V390H342.9M323,399.8V409.7H342.9M342.9,409.7V401.2H362.8M342.9,409.7V418.1H362.8M362.8,418.1V412.5H382.6M362.8,418.1V423.8H382.6M263.4,422.2V468.8H283.2M283.2,468.8V440.7H303.1M303.1,440.7V435H323M303.1,440.7V446.3H323M283.2,468.8V497H303.1M303.1,497V471.6H323M323,471.6V457.6H342.9M323,471.6V485.7H342.9M342.9,485.7V474.5H362.8M362.8,474.5V468.8H382.6M362.8,474.5V480.1H382.6M342.9,485.7V497H362.8M362.8,497V491.4H382.6M362.8,497V502.6H382.6M303.1,497V522.3H323M323,522.3V513.9H342.9M323,522.3V530.8H342.9M342.9,530.8V525.2H362.8M342.9,530.8V536.4H362.8M44.8,564.6V558.9H64.6M64.6,598.4V592.7H84.5" stroke="#91bfdb"></path><text x="7" y="435.3" class="node" fill="#4A6FE3">1</text><text x="26.9" y="290.3" class="node" fill="#4A6FE3">1</text><text x="46.8" y="30" class="node" fill="#4A6FE3">1</text><text x="66.6" y="15.6" class="node" fill="#4A6FE3">1</text><text x="66.6" y="44.4" class="node" fill="#B6BDE3">0.66</text><text x="86.5" y="56.2" class="node" fill="#E3DFE0">0.49</text><text x="106.4" y="68.6" class="node" fill="#E17F94">0.18</text><text x="126.2" y="82.2" class="node" fill="#DA5E7D">0.08</text><text x="146.1" y="98.1" class="node" fill="#D95A7A">0.07</text><text x="166" y="118.6" class="node" fill="#A8B1E2">0.71</text><text x="185.9" y="148.4" class="node" fill="#A8B1E2">0.71</text><text x="205.8" y="196.6" class="node" fill="#A8B1E2">0.71</text><text x="225.6" y="130" class="node" fill="#A8B1E2">0.71</text><text x="245.5" y="148.7" class="node" fill="#4A6FE3">1</text><text x="265.4" y="131.1" class="node" fill="#E392A2">0.24</text><text x="285.2" y="139.5" class="node" fill="#D7D9E3">0.54</text><text x="265.4" y="166.3" class="node" fill="#7A8DE1">0.87</text><text x="285.2" y="176.1" class="node" fill="#C1C6E3">0.62</text><text x="305.1" y="184.6" class="node" fill="#4A6FE3">1</text><text x="225.6" y="263.2" class="node" fill="#667FE1">0.93</text><text x="245.5" y="324.9" class="node" fill="#D5D7E3">0.55</text><text x="265.4" y="224.5" class="node" fill="#ABB4E2">0.7</text><text x="285.2" y="236.3" class="node" fill="#97A4E2">0.77</text><text x="305.1" y="248.6" class="node" fill="#D2D4E3">0.57</text><text x="325" y="262" class="node" fill="#E495A5">0.25</text><text x="344.9" y="277.4" class="node" fill="#9AA6E2">0.76</text><text x="364.8" y="263.4" class="node" fill="#4A6FE3">1</text><text x="364.8" y="291.4" class="node" fill="#929FE1">0.79</text><text x="384.6" y="302.5" class="node" fill="#929FE1">0.79</text><text x="404.5" y="313.4" class="node" fill="#929FE1">0.79</text><text x="424.4" y="324" class="node" fill="#7A8DE1">0.87</text><text x="444.2" y="333.8" class="node" fill="#4A6FE3">1</text><text x="464.1" y="342.3" class="node" fill="#929FE1">0.79</text><text x="265.4" y="425.2" class="node" fill="#B9BFE3">0.65</text><text x="285.2" y="378.5" class="node" fill="#D2D4E3">0.57</text><text x="305.1" y="364.8" class="node" fill="#BCC2E3">0.64</text><text x="305.1" y="392.3" class="node" fill="#D2D4E3">0.57</text><text x="325" y="402.8" class="node" fill="#7A8DE1">0.87</text><text x="344.9" y="412.7" class="node" fill="#4A6FE3">1</text><text x="364.8" y="421.1" class="node" fill="#4A6FE3">1</text><text x="285.2" y="471.8" class="node" fill="#A3ADE2">0.73</text><text x="305.1" y="443.7" class="node" fill="#E5C7CC">0.41</text><text x="305.1" y="500" class="node" fill="#DDDEE3">0.52</text><text x="325" y="474.6" class="node" fill="#E392A2">0.24</text><text x="344.9" y="488.7" class="node" fill="#AEB6E2">0.69</text><text x="364.8" y="477.5" class="node" fill="#E498A7">0.26</text><text x="364.8" y="500" class="node" fill="#5776E2">0.97</text><text x="325" y="525.3" class="node" fill="#E6AEB8">0.33</text><text x="344.9" y="533.8" class="node" fill="#D2D4E3">0.56</text><text x="26.9" y="580.2" class="node" fill="#4A6FE3">1</text><text x="46.8" y="567.6" class="node" fill="#4A6FE3">1</text><text x="46.8" y="592.9" class="node" fill="#4A6FE3">1</text><text x="66.6" y="601.4" class="node" fill="#DB617F">0.09</text></svg>
