<svg xmlns="http://www.w3.org/2000/svg" version="1.1" width="682" height="612" class="tree" data-char="144"><text x="678" y="15.4" text-anchor="end" class="stepsLabel">Character adds <tspan class="score">4</tspan> to tree score</text><text x="678" y="27.8" text-anchor="end" class="stepsLabel"><tspan class="score">0</tspan> additional regions</text><text x="678" y="40.2" text-anchor="end" class="stepsLabel">CI = 0.75; Fitch CI = 0.75; Fitch RI = 0.75</text><text x="678" y="65" text-anchor="end" class="stepsLabel"><tspan dy="16">An optimal tree under:</tspan><tspan x="680" style="font-style:italic" class="thisAn" dy="1.2em">Equal weights</tspan><tspan x="680" style="font-style:italic" class="notThisAn" dy="1.2em">Implied weights, k = 2</tspan><tspan x="680" style="font-style:italic" class="notThisAn" dy="1.2em">IW, k = 3</tspan><tspan x="680" style="font-style:italic" class="notThisAn" dy="1.2em">IW, k = 4.5</tspan><tspan x="680" style="font-style:italic" class="notThisAn" dy="1.2em">IW, k = 7</tspan><tspan x="680" style="font-style:italic" class="notThisAn" dy="1.2em">IW, k = 10.5</tspan><tspan x="680" style="font-style:italic" class="notThisAn" dy="1.2em">IW, k = 16</tspan><tspan x="680" style="font-style:italic" class="notThisAn" dy="1.2em">IW, k = 24</tspan></text><text x="84.5" y="594.3" fill="#abd9e9" class="flag">[3]</text><text x="106.5" y="594.3" fill="#000" class="taxonLabel">Serpula</text><text x="84.5" y="607" fill="#abd9e9" class="flag">[3]</text><text x="106.5" y="607" fill="#000" class="taxonLabel">Sipunculus</text><text x="111" y="568.9" fill="#2c7bb6" class="flag">[4]</text><text x="133" y="568.9" fill="#000" class="taxonLabel">Tonicella</text><text x="111" y="581.6" fill="#2c7bb6" class="flag">[4]</text><text x="133" y="581.6" fill="#000" class="taxonLabel">Dentalium</text><text x="84.5" y="556.2" fill="grey" class="flag">[?]</text><text x="106.5" y="556.2" fill="#999" class="taxonLabel">Wiwaxia corrugata</text><text x="349.5" y="518.1" fill="grey" class="flag">[?]</text><text x="371.5" y="518.1" fill="#999" class="taxonLabel">Yuganotheca elegans</text><text x="349.5" y="530.8" fill="grey" class="flag">[?]</text><text x="371.5" y="530.8" fill="#999" class="taxonLabel">Tomteluva perturbata</text><text x="323" y="505.4" fill="grey" class="flag">[?]</text><text x="345" y="505.4" fill="#999" class="taxonLabel">Salanygolina</text><text x="349.5" y="480" fill="grey" class="flag">[?]</text><text x="371.5" y="480" fill="#999" class="taxonLabel">Antigonambonites planus</text><text x="349.5" y="492.7" fill="grey" class="flag">[?]</text><text x="371.5" y="492.7" fill="#999" class="taxonLabel">Coolinia pecten</text><text x="482" y="454.6" fill="grey" class="flag">[?]</text><text x="504" y="454.6" fill="#999" class="taxonLabel">Orthis</text><text x="482" y="467.3" fill="#abd9e9" class="flag">[3]</text><text x="504" y="467.3" fill="#000" class="taxonLabel">Terebratulina</text><text x="455.5" y="441.9" fill="grey" class="flag">[?]</text><text x="477.5" y="441.9" fill="#999" class="taxonLabel">Alisina</text><text x="429" y="429.2" fill="grey" class="flag">[?]</text><text x="451" y="429.2" fill="#999" class="taxonLabel">Longtancunella chengjiangensis</text><text x="402.5" y="416.5" fill="grey" class="flag">[?]</text><text x="424.5" y="416.5" fill="#999" class="taxonLabel">Glyptoria</text><text x="376" y="403.8" fill="grey" class="flag">[?]</text><text x="398" y="403.8" fill="#999" class="taxonLabel">Nisusia sulcata</text><text x="349.5" y="391.1" fill="grey" class="flag">[?]</text><text x="371.5" y="391.1" fill="#999" class="taxonLabel">Kutorgina chengjiangensis</text><text x="296.5" y="365.7" fill="grey" class="flag">[?]</text><text x="318.5" y="365.7" fill="#999" class="taxonLabel">Micromitra</text><text x="296.5" y="378.4" fill="grey" class="flag">[?]</text><text x="318.5" y="378.4" fill="#999" class="taxonLabel">Askepasma toddense</text><text x="296.5" y="340.3" fill="grey" class="flag">[?]</text><text x="318.5" y="340.3" fill="#999" class="taxonLabel">Haplophrentis carinatus</text><text x="296.5" y="353" fill="grey" class="flag">[?]</text><text x="318.5" y="353" fill="#999" class="taxonLabel">Pedunculotheca diania</text><text x="270" y="327.6" fill="grey" class="flag">[?]</text><text x="292" y="327.6" fill="#999" class="taxonLabel">Paterimitra</text><text x="455.5" y="302.1" fill="grey" class="flag">[?]</text><text x="477.5" y="302.1" fill="#999" class="taxonLabel">Acanthotretella spinosa</text><text x="455.5" y="314.9" fill="grey" class="flag">[?]</text><text x="477.5" y="314.9" fill="#999" class="taxonLabel">Siphonobolus priscus</text><text x="429" y="289.4" fill="grey" class="flag">[?]</text><text x="451" y="289.4" fill="#999" class="taxonLabel">Clupeafumosus socialis</text><text x="402.5" y="276.7" fill="grey" class="flag">[?]</text><text x="424.5" y="276.7" fill="#999" class="taxonLabel">Lingulellotreta malongensis</text><text x="376" y="264" fill="grey" class="flag">[?]</text><text x="398" y="264" fill="#999" class="taxonLabel">Lingulosacculus</text><text x="349.5" y="251.3" fill="grey" class="flag">[?]</text><text x="371.5" y="251.3" fill="#999" class="taxonLabel">Botsfordia</text><text x="323" y="238.6" fill="#fdae61" class="flag">[1]</text><text x="345" y="238.6" fill="#000" class="taxonLabel">Lingula</text><text x="296.5" y="225.9" fill="grey" class="flag">[?]</text><text x="318.5" y="225.9" fill="#999" class="taxonLabel">Eoobolus</text><text x="296.5" y="200.5" fill="#fdae61" class="flag">[1]</text><text x="318.5" y="200.5" fill="#000" class="taxonLabel">Pelagodiscus atlanticus</text><text x="296.5" y="213.2" fill="grey" class="flag">[?]</text><text x="318.5" y="213.2" fill="#999" class="taxonLabel">Mummpikia nuda</text><text x="323" y="175.1" fill="grey" class="flag">[?]</text><text x="345" y="175.1" fill="#999" class="taxonLabel">Craniops</text><text x="323" y="187.8" fill="#e2e2a2" class="flag">[2]</text><text x="345" y="187.8" fill="#000" class="taxonLabel">Novocrania</text><text x="296.5" y="162.4" fill="grey" class="flag">[?]</text><text x="318.5" y="162.4" fill="#999" class="taxonLabel">Ussunia</text><text x="270" y="149.7" fill="grey" class="flag">[?]</text><text x="292" y="149.7" fill="#999" class="taxonLabel">Gasconsia</text><text x="243.5" y="124.3" fill="grey" class="flag">[?]</text><text x="265.5" y="124.3" fill="#999" class="taxonLabel">Heliomedusa orienta</text><text x="243.5" y="137" fill="grey" class="flag">[?]</text><text x="265.5" y="137" fill="#999" class="taxonLabel">Mickwitzia muralensis</text><text x="217" y="111.6" fill="grey" class="flag">[?]</text><text x="239" y="111.6" fill="#999" class="taxonLabel">Micrina</text><text x="164" y="98.9" fill="grey" class="flag">[?]</text><text x="186" y="98.9" fill="#999" class="taxonLabel">Halkieria evangelista</text><text x="217" y="73.5" fill="#e2e2a2" class="flag">[2]</text><text x="239" y="73.5" fill="#000" class="taxonLabel">Phoronis</text><text x="217" y="86.2" fill="grey" class="flag">[?]</text><text x="239" y="86.2" fill="#999" class="taxonLabel">Namacalathus</text><text x="190.5" y="60.8" fill="grey" class="flag">[?]</text><text x="212.5" y="60.8" fill="#999" class="taxonLabel">Dailyatia</text><text x="164" y="48.1" fill="grey" class="flag">[?]</text><text x="186" y="48.1" fill="#999" class="taxonLabel">Cotyledion tylodes</text><text x="111" y="35.4" fill="grey" class="flag">[?]</text><text x="133" y="35.4" fill="#999" class="taxonLabel">Eccentrotheca</text><text x="111" y="10" fill="#2c7bb6" class="flag">[4]</text><text x="133" y="10" fill="#000" class="taxonLabel">Flustra</text><text x="111" y="22.7" fill="#2c7bb6" class="flag">[4]</text><text x="133" y="22.7" fill="#000" class="taxonLabel">Amathia</text><text x="58" y="543.5" fill="#2c7bb6" class="flag">[4]</text><text x="80" y="543.5" fill="#000" class="taxonLabel">Loxosomella</text><path d="M5,435.3V290.4H31.5M31.5,290.4V40.4H58M58,40.4V13.4H84.5M84.5,13.4V7H111M84.5,13.4V19.7H111M58,40.4V67.4H84.5M31.5,290.4V540.5H58M5,435.3V580.2H31.5M31.5,580.2V562.7H58M58,562.7V553.2H84.5M58,562.7V572.2H84.5M84.5,572.2V565.9H111M84.5,572.2V578.6H111" stroke="#2c7bb6"></path><path d="M84.5,67.4V32.4H111M217,378.5V334.1H243.5M243.5,334.1V324.6H270M243.5,334.1V343.6H270M270,343.6V337.3H296.5M270,343.6V350H296.5M217,378.5V423H243.5M243.5,423V369H270M270,369V362.7H296.5M270,369V375.4H296.5M243.5,423V476.9H270M270,476.9V441.9H296.5M296.5,441.9V400.6H323M323,400.6V388.1H349.5M323,400.6V413.1H349.5M349.5,413.1V400.8H376M349.5,413.1V425.4H376M376,425.4V413.5H402.5M376,425.4V437.3H402.5M402.5,437.3V426.2H429M402.5,437.3V448.4H429M429,448.4V438.9H455.5M429,448.4V457.9H455.5M455.5,457.9V451.6H482M296.5,441.9V483.3H323M323,483.3V477H349.5M323,483.3V489.7H349.5M270,476.9V511.9H296.5M296.5,511.9V502.4H323M296.5,511.9V521.4H323M323,521.4V515.1H349.5M323,521.4V527.8H349.5" stroke="darkgrey"></path><path d="M84.5,67.4V102.3H111M111,102.3V56.2H137.5M137.5,56.2V45.1H164M137.5,56.2V67.3H164M164,67.3V57.8H190.5M164,67.3V76.9H190.5M190.5,76.9V70.5H217M190.5,76.9V83.2H217M111,102.3V148.4H137.5M137.5,148.4V95.9H164M137.5,148.4V200.9H164M164,200.9V118.1H190.5M190.5,118.1V108.6H217M190.5,118.1V127.7H217M217,127.7V121.3H243.5M217,127.7V134H243.5M164,200.9V283.6H190.5M190.5,283.6V188.8H217M217,188.8V157.8H243.5M243.5,157.8V146.7H270M243.5,157.8V169H270M270,169V159.4H296.5M270,169V178.5H296.5M296.5,178.5V172.1H323M296.5,178.5V184.8H323M190.5,283.6V378.5H217" stroke="#e2e2a2"></path><path d="M217,188.8V219.7H243.5M243.5,219.7V203.9H270M270,203.9V197.5H296.5M270,203.9V210.2H296.5M243.5,219.7V235.5H270M270,235.5V222.9H296.5M270,235.5V248.1H296.5M296.5,248.1V235.6H323M296.5,248.1V260.6H323M323,260.6V248.3H349.5M323,260.6V273H349.5M349.5,273V261H376M349.5,273V284.9H376M376,284.9V273.7H402.5M376,284.9V296H402.5M402.5,296V286.4H429M402.5,296V305.5H429M429,305.5V299.1H455.5M429,305.5V311.9H455.5" stroke="#fdae61"></path><path d="M455.5,457.9V464.3H482M31.5,580.2V597.6H58M58,597.6V591.3H84.5M58,597.6V604H84.5" stroke="#abd9e9"></path><text x="7" y="438.3" class="node" fill="#4A6FE3">1</text><text x="33.5" y="293.4" class="node" fill="#4A6FE3">1</text><text x="60" y="43.4" class="node" fill="#4A6FE3">1</text><text x="86.5" y="16.4" class="node" fill="#4A6FE3">1</text><text x="86.5" y="70.4" class="node" fill="#4A6FE3">1</text><text x="113" y="105.3" class="node" fill="#E17F94">0.18</text><text x="139.5" y="59.2" class="node" fill="#E38FA0">0.23</text><text x="166" y="70.3" class="node" fill="#DD6F88">0.13</text><text x="192.5" y="79.9" class="node" fill="#4A6FE3">1</text><text x="139.5" y="151.4" class="node" fill="#D2D4E3">0.56</text><text x="166" y="203.9" class="node" fill="#4A6FE3">1</text><text x="192.5" y="121.1" class="node" fill="#DDDEE3">0.52</text><text x="219" y="130.7" class="node" fill="#DDDEE3">0.52</text><text x="192.5" y="286.6" class="node" fill="#DDDEE3">0.52</text><text x="219" y="191.8" class="node" fill="#C1C6E3">0.62</text><text x="245.5" y="160.8" class="node" fill="#4A6FE3">1</text><text x="272" y="172" class="node" fill="#4A6FE3">1</text><text x="298.5" y="181.5" class="node" fill="#4A6FE3">1</text><text x="245.5" y="222.7" class="node" fill="#C1C6E3">0.62</text><text x="272" y="206.9" class="node" fill="#C4C9E3">0.61</text><text x="272" y="238.5" class="node" fill="#C7CBE3">0.6</text><text x="298.5" y="251.1" class="node" fill="#C7CBE3">0.6</text><text x="325" y="263.6" class="node" fill="#C7CBE3">0.6</text><text x="351.5" y="276" class="node" fill="#C1C6E3">0.62</text><text x="378" y="287.9" class="node" fill="#DB617F">0.09</text><text x="404.5" y="299" class="node" fill="#E4D6D8">0.46</text><text x="431" y="308.5" class="node" fill="#4A6FE3">1</text><text x="219" y="381.5" class="node" fill="#DDDEE3">0.52</text><text x="245.5" y="337.1" class="node" fill="#C7CBE3">0.6</text><text x="272" y="346.6" class="node" fill="#4A6FE3">1</text><text x="245.5" y="426" class="node" fill="#4A6FE3">1</text><text x="272" y="372" class="node" fill="#4A6FE3">1</text><text x="272" y="479.9" class="node" fill="#4A6FE3">1</text><text x="298.5" y="444.9" class="node" fill="#A8B1E2">0.71</text><text x="325" y="403.6" class="node" fill="#A8B1E2">0.71</text><text x="351.5" y="416.1" class="node" fill="#A8B1E2">0.71</text><text x="378" y="428.4" class="node" fill="#4A6FE3">1</text><text x="404.5" y="440.3" class="node" fill="#4A6FE3">1</text><text x="431" y="451.4" class="node" fill="#4A6FE3">1</text><text x="457.5" y="460.9" class="node" fill="#4A6FE3">1</text><text x="325" y="486.3" class="node" fill="#4A6FE3">1</text><text x="298.5" y="514.9" class="node" fill="#BFC4E3">0.63</text><text x="325" y="524.4" class="node" fill="#BCC2E3">0.64</text><text x="33.5" y="583.2" class="node" fill="#4A6FE3">1</text><text x="60" y="565.7" class="node" fill="#4A6FE3">1</text><text x="86.5" y="575.2" class="node" fill="#C1C6E3">0.62</text><text x="60" y="600.6" class="node" fill="#4A6FE3">1</text></svg>
