<svg xmlns="http://www.w3.org/2000/svg" version="1.1" width="682" height="612" class="tree" data-char="29"><text x="678" y="14.1" text-anchor="end" class="stepsLabel">Character adds <tspan class="score">4</tspan> to tree score</text><text x="678" y="25.2" text-anchor="end" class="stepsLabel"><tspan class="score">0</tspan> additional regions</text><text x="678" y="36.3" text-anchor="end" class="stepsLabel">CI = 0.25; Fitch CI = 0.25; Fitch RI = 0.4</text><text x="678" y="58.5" text-anchor="end" class="stepsLabel"><tspan dy="16" fill="#34caaf">An optimal tree under:</tspan><tspan x="680" style="font-style:italic" class="notThisAn" dy="1.2em">Equal weights</tspan><tspan x="680" style="font-style:italic" class="thisAn" dy="1.2em">Implied weights, k = 2</tspan><tspan x="680" style="font-style:italic" class="notThisAn" dy="1.2em">IW, k = 3</tspan><tspan x="680" style="font-style:italic" class="notThisAn" dy="1.2em">IW, k = 4.5</tspan><tspan x="680" style="font-style:italic" class="notThisAn" dy="1.2em">IW, k = 7</tspan><tspan x="680" style="font-style:italic" class="notThisAn" dy="1.2em">IW, k = 10.5</tspan><tspan x="680" style="font-style:italic" class="notThisAn" dy="1.2em">IW, k = 16</tspan><tspan x="680" style="font-style:italic" class="notThisAn" dy="1.2em">IW, k = 24</tspan></text><text x="105.4" y="595.7" fill="lightgrey" class="flag">[-]</text><text x="127.4" y="595.7" fill="#ccc" class="taxonLabel">Wiwaxia corrugata</text><text x="105.4" y="607" fill="lightgrey" class="flag">[-]</text><text x="127.4" y="607" fill="#ccc" class="taxonLabel">Dentalium</text><text x="80.3" y="584.5" fill="lightgrey" class="flag">[-]</text><text x="102.3" y="584.5" fill="#ccc" class="taxonLabel">Tonicella</text><text x="80.3" y="561.9" fill="lightgrey" class="flag">[-]</text><text x="102.3" y="561.9" fill="#ccc" class="taxonLabel">Sipunculus</text><text x="80.3" y="573.2" fill="lightgrey" class="flag">[-]</text><text x="102.3" y="573.2" fill="#ccc" class="taxonLabel">Serpula</text><text x="431.8" y="528.2" fill="lightgrey" class="flag">[-]</text><text x="453.8" y="528.2" fill="#ccc" class="taxonLabel">Craniops</text><text x="431.8" y="539.4" fill="lightgrey" class="flag">[-]</text><text x="453.8" y="539.4" fill="#ccc" class="taxonLabel">Novocrania</text><text x="406.7" y="516.9" fill="lightgrey" class="flag">[-]</text><text x="428.7" y="516.9" fill="#ccc" class="taxonLabel">Ussunia</text><text x="381.6" y="505.6" fill="lightgrey" class="flag">[-]</text><text x="403.6" y="505.6" fill="#ccc" class="taxonLabel">Heliomedusa orienta</text><text x="356.5" y="494.4" fill="lightgrey" class="flag">[-]</text><text x="378.5" y="494.4" fill="#ccc" class="taxonLabel">Gasconsia</text><text x="356.5" y="471.8" fill="grey" class="flag">[?]</text><text x="378.5" y="471.8" fill="#999" class="taxonLabel">Micromitra</text><text x="356.5" y="483.1" fill="grey" class="flag">[?]</text><text x="378.5" y="483.1" fill="#999" class="taxonLabel">Askepasma toddense</text><text x="381.6" y="449.3" fill="#e2e2a2" class="flag">[1]</text><text x="403.6" y="449.3" fill="#000" class="taxonLabel">Acanthotretella spinosa</text><text x="381.6" y="460.6" fill="grey" class="flag">[?]</text><text x="403.6" y="460.6" fill="#999" class="taxonLabel">Siphonobolus priscus</text><text x="431.8" y="426.8" fill="#91bfdb" class="flag">[2]</text><text x="453.8" y="426.8" fill="#000" class="taxonLabel">Lingula</text><text x="431.8" y="438" fill="#e2e2a2" class="flag">[1]</text><text x="453.8" y="438" fill="#000" class="taxonLabel">Pelagodiscus atlanticus</text><text x="482" y="404.2" fill="grey" class="flag">[?]</text><text x="504" y="404.2" fill="#999" class="taxonLabel">Mummpikia nuda</text><text x="482" y="415.5" fill="grey" class="flag">[?]</text><text x="504" y="415.5" fill="#999" class="taxonLabel">Eoobolus</text><text x="456.9" y="393" fill="grey" class="flag">[?]</text><text x="478.9" y="393" fill="#999" class="taxonLabel">Botsfordia</text><text x="431.8" y="381.7" fill="#e2e2a2" class="flag">[1]</text><text x="453.8" y="381.7" fill="#000" class="taxonLabel">Lingulellotreta malongensis</text><text x="381.6" y="370.5" fill="grey" class="flag">[?]</text><text x="403.6" y="370.5" fill="#999" class="taxonLabel">Lingulosacculus</text><text x="331.4" y="359.2" fill="grey" class="flag">[?]</text><text x="353.4" y="359.2" fill="#999" class="taxonLabel">Clupeafumosus socialis</text><text x="381.6" y="336.7" fill="grey" class="flag">[?]</text><text x="403.6" y="336.7" fill="#999" class="taxonLabel">Tomteluva perturbata</text><text x="381.6" y="347.9" fill="grey" class="flag">[?]</text><text x="403.6" y="347.9" fill="#999" class="taxonLabel">Glyptoria</text><text x="406.7" y="314.1" fill="#91bfdb" class="flag">[2]</text><text x="428.7" y="314.1" fill="#000" class="taxonLabel">Alisina</text><text x="406.7" y="325.4" fill="#e2e2a2" class="flag">[1]</text><text x="428.7" y="325.4" fill="#000" class="taxonLabel">Terebratulina</text><text x="381.6" y="302.9" fill="grey" class="flag">[?]</text><text x="403.6" y="302.9" fill="#999" class="taxonLabel">Orthis</text><text x="331.4" y="291.6" fill="#91bfdb" class="flag">[2]</text><text x="353.4" y="291.6" fill="#000" class="taxonLabel">Longtancunella chengjiangensis</text><text x="306.3" y="280.3" fill="#91bfdb" class="flag">[2]</text><text x="328.3" y="280.3" fill="#000" class="taxonLabel">Nisusia sulcata</text><text x="331.4" y="257.8" fill="grey" class="flag">[?]</text><text x="353.4" y="257.8" fill="#999" class="taxonLabel">Coolinia pecten</text><text x="331.4" y="269.1" fill="#91bfdb" class="flag">[2]</text><text x="353.4" y="269.1" fill="#000" class="taxonLabel">Antigonambonites planus</text><text x="306.3" y="246.5" fill="#91bfdb" class="flag">[2]</text><text x="328.3" y="246.5" fill="#000" class="taxonLabel">Yuganotheca elegans</text><text x="281.2" y="235.3" fill="#e2e2a2" class="flag">[1]</text><text x="303.2" y="235.3" fill="#000" class="taxonLabel">Kutorgina chengjiangensis</text><text x="230.9" y="224" fill="grey" class="flag">[?]</text><text x="252.9" y="224" fill="#999" class="taxonLabel">Micrina</text><text x="205.8" y="212.8" fill="grey" class="flag">[?]</text><text x="227.8" y="212.8" fill="#999" class="taxonLabel">Salanygolina</text><text x="180.7" y="201.5" fill="grey" class="flag">[?]</text><text x="202.7" y="201.5" fill="#999" class="taxonLabel">Mickwitzia muralensis</text><text x="155.6" y="190.2" fill="grey" class="flag">[?]</text><text x="177.6" y="190.2" fill="#999" class="taxonLabel">Paterimitra</text><text x="130.5" y="179" fill="#e2e2a2" class="flag">[1]</text><text x="152.5" y="179" fill="#000" class="taxonLabel">Pedunculotheca diania</text><text x="180.7" y="156.4" fill="grey" class="flag">[?]</text><text x="202.7" y="156.4" fill="#999" class="taxonLabel">Dailyatia</text><text x="180.7" y="167.7" fill="lightgrey" class="flag">[-]</text><text x="202.7" y="167.7" fill="#ccc" class="taxonLabel">Halkieria evangelista</text><text x="230.9" y="133.9" fill="lightgrey" class="flag">[-]</text><text x="252.9" y="133.9" fill="#ccc" class="taxonLabel">Namacalathus</text><text x="230.9" y="145.2" fill="lightgrey" class="flag">[-]</text><text x="252.9" y="145.2" fill="#ccc" class="taxonLabel">Phoronis</text><text x="205.8" y="122.6" fill="lightgrey" class="flag">[-]</text><text x="227.8" y="122.6" fill="#ccc" class="taxonLabel">Cotyledion tylodes</text><text x="180.7" y="111.4" fill="grey" class="flag">[?]</text><text x="202.7" y="111.4" fill="#999" class="taxonLabel">Eccentrotheca</text><text x="180.7" y="88.8" fill="grey" class="flag">[?]</text><text x="202.7" y="88.8" fill="#999" class="taxonLabel">Probactrotheca</text><text x="180.7" y="100.1" fill="lightgrey" class="flag">[-]</text><text x="202.7" y="100.1" fill="#ccc" class="taxonLabel">Conotheca</text><text x="256.1" y="66.3" fill="lightgrey" class="flag">[-]</text><text x="278.1" y="66.3" fill="#ccc" class="taxonLabel">Pauxillites</text><text x="256.1" y="77.6" fill="lightgrey" class="flag">[-]</text><text x="278.1" y="77.6" fill="#ccc" class="taxonLabel">Maxilites</text><text x="230.9" y="55.1" fill="lightgrey" class="flag">[-]</text><text x="252.9" y="55.1" fill="#ccc" class="taxonLabel">Paramicrocornus</text><text x="205.8" y="43.8" fill="lightgrey" class="flag">[-]</text><text x="227.8" y="43.8" fill="#ccc" class="taxonLabel">Haplophrentis carinatus</text><text x="180.7" y="32.5" fill="lightgrey" class="flag">[-]</text><text x="202.7" y="32.5" fill="#ccc" class="taxonLabel">Decoritheca</text><text x="105.4" y="10" fill="lightgrey" class="flag">[-]</text><text x="127.4" y="10" fill="#ccc" class="taxonLabel">Flustra</text><text x="105.4" y="21.3" fill="lightgrey" class="flag">[-]</text><text x="127.4" y="21.3" fill="#ccc" class="taxonLabel">Amathia</text><text x="55.2" y="550.7" fill="lightgrey" class="flag">[-]</text><text x="77.2" y="550.7" fill="#ccc" class="taxonLabel">Loxosomella</text><path d="M5,445.3V313.4H30.1M30.1,313.4V79.1H55.2M55.2,79.1V12.6H80.3M80.3,12.6V7H105.4M80.3,12.6V18.3H105.4M55.2,79.1V145.7H80.3M80.3,145.7V102.2H105.4M105.4,102.2V65.8H130.5M130.5,65.8V40.1H155.6M155.6,40.1V29.5H180.7M155.6,40.1V50.6H180.7M180.7,50.6V40.8H205.8M180.7,50.6V60.5H205.8M205.8,60.5V52.1H230.9M205.8,60.5V69H230.9M230.9,69V63.3H256.1M230.9,69V74.6H256.1M130.5,65.8V91.5H155.6M155.6,91.5V85.8H180.7M155.6,91.5V97.1H180.7M105.4,102.2V138.6H130.5M130.5,138.6V118.2H155.6M155.6,118.2V108.4H180.7M155.6,118.2V128.1H180.7M180.7,128.1V119.6H205.8M180.7,128.1V136.5H205.8M205.8,136.5V130.9H230.9M205.8,136.5V142.2H230.9M130.5,138.6V159.1H155.6M155.6,159.1V153.4H180.7M155.6,159.1V164.7H180.7M306.3,488.2V501.9H331.4M331.4,501.9V491.4H356.5M331.4,501.9V512.5H356.5M356.5,512.5V502.6H381.6M356.5,512.5V522.3H381.6M381.6,522.3V513.9H406.7M381.6,522.3V530.8H406.7M406.7,530.8V525.2H431.8M406.7,530.8V536.4H431.8M30.1,313.4V547.7H55.2M5,445.3V577.2H30.1M30.1,577.2V564.6H55.2M55.2,564.6V558.9H80.3M55.2,564.6V570.2H80.3M30.1,577.2V589.9H55.2M55.2,589.9V581.5H80.3M55.2,589.9V598.4H80.3M80.3,598.4V592.7H105.4M80.3,598.4V604H105.4" stroke="lightgrey" class="inapplicable"></path><path d="M80.3,145.7V189.1H105.4M105.4,189.1V176H130.5M105.4,189.1V202.2H130.5M130.5,202.2V187.2H155.6M130.5,202.2V217.3H155.6M155.6,217.3V198.5H180.7M155.6,217.3V236H180.7M180.7,236V209.8H205.8M180.7,236V262.3H205.8M205.8,262.3V221H230.9M205.8,262.3V303.6H230.9M230.9,303.6V242.1H256.1M256.1,242.1V232.3H281.2M230.9,303.6V365H256.1M381.6,316.8V322.4H406.7M256.1,365V438.2H281.2M281.2,438.2V388.1H306.3M306.3,388.1V356.2H331.4M306.3,388.1V420.1H331.4M331.4,420.1V388.2H356.5M356.5,388.2V367.5H381.6M356.5,388.2V409H381.6M381.6,409V388.6H406.7M406.7,388.6V378.7H431.8M406.7,388.6V398.4H431.8M431.8,398.4V390H456.9M431.8,398.4V406.9H456.9M456.9,406.9V401.2H482M456.9,406.9V412.5H482M381.6,409V429.4H406.7M406.7,429.4V435H431.8M331.4,420.1V451.9H356.5M356.5,451.9V446.3H381.6M356.5,451.9V457.6H381.6M281.2,438.2V488.2H306.3M306.3,488.2V474.5H331.4M331.4,474.5V468.8H356.5M331.4,474.5V480.1H356.5" stroke="#e2e2a2"></path><path d="M256.1,242.1V252H281.2M281.2,252V243.5H306.3M281.2,252V260.4H306.3M306.3,260.4V254.8H331.4M306.3,260.4V266.1H331.4M256.1,365V291.8H281.2M281.2,291.8V277.3H306.3M281.2,291.8V306.2H306.3M306.3,306.2V288.6H331.4M306.3,306.2V323.8H331.4M331.4,323.8V308.3H356.5M356.5,308.3V299.9H381.6M356.5,308.3V316.8H381.6M381.6,316.8V311.1H406.7M331.4,323.8V339.3H356.5M356.5,339.3V333.7H381.6M356.5,339.3V344.9H381.6M406.7,429.4V423.8H431.8" stroke="#91bfdb"></path><text x="7" y="448.3" class="node" fill="#4A6FE3">1</text><text x="32.1" y="316.4" class="node" fill="#4A6FE3">1</text><text x="57.2" y="82.1" class="node" fill="#4A6FE3">1</text><text x="82.3" y="15.6" class="node" fill="#4A6FE3">1</text><text x="82.3" y="148.7" class="node" fill="#B6BDE3">0.66</text><text x="107.4" y="105.2" class="node" fill="#E59FAC">0.29</text><text x="132.5" y="68.8" class="node" fill="#4A6FE3">1</text><text x="157.6" y="43.1" class="node" fill="#E59FAC">0.29</text><text x="182.7" y="53.6" class="node" fill="#7A8DE1">0.87</text><text x="207.8" y="63.5" class="node" fill="#C1C6E3">0.62</text><text x="232.9" y="72" class="node" fill="#4A6FE3">1</text><text x="157.6" y="94.5" class="node" fill="#D7D9E3">0.54</text><text x="132.5" y="141.6" class="node" fill="#E59FAC">0.29</text><text x="157.6" y="121.2" class="node" fill="#E59FAC">0.29</text><text x="182.7" y="131.1" class="node" fill="#DB617F">0.09</text><text x="207.8" y="139.5" class="node" fill="#E6C1C7">0.39</text><text x="157.6" y="162.1" class="node" fill="#E59FAC">0.29</text><text x="107.4" y="192.1" class="node" fill="#E59FAC">0.29</text><text x="132.5" y="205.2" class="node" fill="#E59FAC">0.29</text><text x="157.6" y="220.3" class="node" fill="#667FE1">0.93</text><text x="182.7" y="239" class="node" fill="#DF798F">0.16</text><text x="207.8" y="265.3" class="node" fill="#DF798F">0.16</text><text x="232.9" y="306.6" class="node" fill="#DF798F">0.16</text><text x="258.1" y="245.1" class="node" fill="#DF798F">0.16</text><text x="283.2" y="255" class="node" fill="#DF798F">0.16</text><text x="308.3" y="263.4" class="node" fill="#4A6FE3">1</text><text x="258.1" y="368" class="node" fill="#DF798F">0.16</text><text x="283.2" y="294.8" class="node" fill="#DF798F">0.16</text><text x="308.3" y="309.2" class="node" fill="#DF798F">0.16</text><text x="333.4" y="326.8" class="node" fill="#D85778">0.06</text><text x="358.5" y="311.3" class="node" fill="#4A6FE3">1</text><text x="383.6" y="319.8" class="node" fill="#E2899B">0.21</text><text x="358.5" y="342.3" class="node" fill="#DF798F">0.16</text><text x="283.2" y="441.2" class="node" fill="#DF798F">0.16</text><text x="308.3" y="391.1" class="node" fill="#A3ADE2">0.73</text><text x="333.4" y="423.1" class="node" fill="#DF798F">0.16</text><text x="358.5" y="391.2" class="node" fill="#D64F73">0.04</text><text x="383.6" y="412" class="node" fill="#DF798F">0.16</text><text x="408.7" y="391.6" class="node" fill="#DF798F">0.16</text><text x="433.8" y="401.4" class="node" fill="#E5D0D3">0.44</text><text x="458.9" y="409.9" class="node" fill="#DF798F">0.16</text><text x="408.7" y="432.4" class="node" fill="#E07C92">0.17</text><text x="358.5" y="454.9" class="node" fill="#5776E2">0.97</text><text x="308.3" y="491.2" class="node" fill="#DF798F">0.16</text><text x="333.4" y="477.5" class="node" fill="#DF798F">0.16</text><text x="333.4" y="504.9" class="node" fill="#E392A2">0.24</text><text x="358.5" y="515.5" class="node" fill="#7A8DE1">0.87</text><text x="383.6" y="525.3" class="node" fill="#4A6FE3">1</text><text x="408.7" y="533.8" class="node" fill="#4A6FE3">1</text><text x="32.1" y="580.2" class="node" fill="#4A6FE3">1</text><text x="57.2" y="567.6" class="node" fill="#4A6FE3">1</text><text x="57.2" y="592.9" class="node" fill="#4A6FE3">1</text><text x="82.3" y="601.4" class="node" fill="#6D84E1">0.91</text></svg>
