<svg xmlns="http://www.w3.org/2000/svg" version="1.1" width="682" height="612" class="tree" data-char="83"><text x="678" y="15.4" text-anchor="end" class="stepsLabel">Character adds <tspan class="score">1</tspan> to tree score</text><text x="678" y="27.8" text-anchor="end" class="stepsLabel"><tspan class="score">0</tspan> additional regions</text><text x="678" y="40.2" text-anchor="end" class="stepsLabel">CI = 1; Fitch CI = 1; Fitch RI = n/a</text><text x="678" y="65" text-anchor="end" class="stepsLabel"><tspan dy="16" fill="#34caaf">An optimal tree under:</tspan><tspan x="680" style="font-style:italic" class="thisAn" dy="1.2em">Equal weights</tspan><tspan x="680" style="font-style:italic" class="notThisAn" dy="1.2em">Implied weights, k = 2</tspan><tspan x="680" style="font-style:italic" class="notThisAn" dy="1.2em">IW, k = 3</tspan><tspan x="680" style="font-style:italic" class="notThisAn" dy="1.2em">IW, k = 4.5</tspan><tspan x="680" style="font-style:italic" class="notThisAn" dy="1.2em">IW, k = 7</tspan><tspan x="680" style="font-style:italic" class="notThisAn" dy="1.2em">IW, k = 10.5</tspan><tspan x="680" style="font-style:italic" class="notThisAn" dy="1.2em">IW, k = 16</tspan><tspan x="680" style="font-style:italic" class="notThisAn" dy="1.2em">IW, k = 24</tspan></text><text x="89.2" y="594.3" fill="lightgrey" class="flag">[-]</text><text x="111.2" y="594.3" fill="#ccc" class="taxonLabel">Sipunculus</text><text x="89.2" y="607" fill="lightgrey" class="flag">[-]</text><text x="111.2" y="607" fill="#ccc" class="taxonLabel">Serpula</text><text x="117.2" y="568.9" fill="lightgrey" class="flag">[-]</text><text x="139.2" y="568.9" fill="#ccc" class="taxonLabel">Dentalium</text><text x="117.2" y="581.6" fill="lightgrey" class="flag">[-]</text><text x="139.2" y="581.6" fill="#ccc" class="taxonLabel">Tonicella</text><text x="89.2" y="556.2" fill="lightgrey" class="flag">[-]</text><text x="111.2" y="556.2" fill="#ccc" class="taxonLabel">Wiwaxia corrugata</text><text x="313.6" y="518.1" fill="lightgrey" class="flag">[-]</text><text x="335.6" y="518.1" fill="#ccc" class="taxonLabel">Novocrania</text><text x="313.6" y="530.8" fill="lightgrey" class="flag">[-]</text><text x="335.6" y="530.8" fill="#ccc" class="taxonLabel">Craniops</text><text x="285.6" y="505.4" fill="lightgrey" class="flag">[-]</text><text x="307.6" y="505.4" fill="#ccc" class="taxonLabel">Ussunia</text><text x="257.5" y="492.7" fill="lightgrey" class="flag">[-]</text><text x="279.5" y="492.7" fill="#ccc" class="taxonLabel">Gasconsia</text><text x="285.6" y="467.3" fill="lightgrey" class="flag">[-]</text><text x="307.6" y="467.3" fill="#ccc" class="taxonLabel">Mummpikia nuda</text><text x="285.6" y="480" fill="lightgrey" class="flag">[-]</text><text x="307.6" y="480" fill="#ccc" class="taxonLabel">Pelagodiscus atlanticus</text><text x="453.9" y="441.9" fill="lightgrey" class="flag">[-]</text><text x="475.9" y="441.9" fill="#ccc" class="taxonLabel">Siphonobolus priscus</text><text x="453.9" y="454.6" fill="lightgrey" class="flag">[-]</text><text x="475.9" y="454.6" fill="#ccc" class="taxonLabel">Acanthotretella spinosa</text><text x="425.9" y="429.2" fill="lightgrey" class="flag">[-]</text><text x="447.9" y="429.2" fill="#ccc" class="taxonLabel">Clupeafumosus socialis</text><text x="397.8" y="416.5" fill="lightgrey" class="flag">[-]</text><text x="419.8" y="416.5" fill="#ccc" class="taxonLabel">Lingulellotreta malongensis</text><text x="369.8" y="403.8" fill="lightgrey" class="flag">[-]</text><text x="391.8" y="403.8" fill="#ccc" class="taxonLabel">Lingulosacculus</text><text x="341.7" y="391.1" fill="lightgrey" class="flag">[-]</text><text x="363.7" y="391.1" fill="#ccc" class="taxonLabel">Botsfordia</text><text x="313.6" y="378.4" fill="lightgrey" class="flag">[-]</text><text x="335.6" y="378.4" fill="#ccc" class="taxonLabel">Lingula</text><text x="285.6" y="365.7" fill="lightgrey" class="flag">[-]</text><text x="307.6" y="365.7" fill="#ccc" class="taxonLabel">Eoobolus</text><text x="285.6" y="340.3" fill="#fc8d59" class="flag">[0]</text><text x="307.6" y="340.3" fill="#000" class="taxonLabel">Pedunculotheca diania</text><text x="285.6" y="353" fill="#91bfdb" class="flag">[1]</text><text x="307.6" y="353" fill="#000" class="taxonLabel">Haplophrentis carinatus</text><text x="257.5" y="327.6" fill="lightgrey" class="flag">[-]</text><text x="279.5" y="327.6" fill="#ccc" class="taxonLabel">Paterimitra</text><text x="341.7" y="302.1" fill="lightgrey" class="flag">[-]</text><text x="363.7" y="302.1" fill="#ccc" class="taxonLabel">Tomteluva perturbata</text><text x="341.7" y="314.9" fill="lightgrey" class="flag">[-]</text><text x="363.7" y="314.9" fill="#ccc" class="taxonLabel">Yuganotheca elegans</text><text x="313.6" y="289.4" fill="lightgrey" class="flag">[-]</text><text x="335.6" y="289.4" fill="#ccc" class="taxonLabel">Salanygolina</text><text x="482" y="264" fill="lightgrey" class="flag">[-]</text><text x="504" y="264" fill="#ccc" class="taxonLabel">Terebratulina</text><text x="482" y="276.7" fill="lightgrey" class="flag">[-]</text><text x="504" y="276.7" fill="#ccc" class="taxonLabel">Orthis</text><text x="453.9" y="251.3" fill="lightgrey" class="flag">[-]</text><text x="475.9" y="251.3" fill="#ccc" class="taxonLabel">Alisina</text><text x="425.9" y="238.6" fill="lightgrey" class="flag">[-]</text><text x="447.9" y="238.6" fill="#ccc" class="taxonLabel">Longtancunella chengjiangensis</text><text x="397.8" y="225.9" fill="lightgrey" class="flag">[-]</text><text x="419.8" y="225.9" fill="#ccc" class="taxonLabel">Glyptoria</text><text x="369.8" y="213.2" fill="lightgrey" class="flag">[-]</text><text x="391.8" y="213.2" fill="#ccc" class="taxonLabel">Nisusia sulcata</text><text x="341.7" y="200.5" fill="lightgrey" class="flag">[-]</text><text x="363.7" y="200.5" fill="#ccc" class="taxonLabel">Kutorgina chengjiangensis</text><text x="341.7" y="175.1" fill="lightgrey" class="flag">[-]</text><text x="363.7" y="175.1" fill="#ccc" class="taxonLabel">Coolinia pecten</text><text x="341.7" y="187.8" fill="lightgrey" class="flag">[-]</text><text x="363.7" y="187.8" fill="#ccc" class="taxonLabel">Antigonambonites planus</text><text x="285.6" y="149.7" fill="lightgrey" class="flag">[-]</text><text x="307.6" y="149.7" fill="#ccc" class="taxonLabel">Askepasma toddense</text><text x="285.6" y="162.4" fill="lightgrey" class="flag">[-]</text><text x="307.6" y="162.4" fill="#ccc" class="taxonLabel">Micromitra</text><text x="229.5" y="124.3" fill="lightgrey" class="flag">[-]</text><text x="251.5" y="124.3" fill="#ccc" class="taxonLabel">Mickwitzia muralensis</text><text x="229.5" y="137" fill="lightgrey" class="flag">[-]</text><text x="251.5" y="137" fill="#ccc" class="taxonLabel">Heliomedusa orienta</text><text x="201.4" y="111.6" fill="lightgrey" class="flag">[-]</text><text x="223.4" y="111.6" fill="#ccc" class="taxonLabel">Micrina</text><text x="145.3" y="98.9" fill="lightgrey" class="flag">[-]</text><text x="167.3" y="98.9" fill="#ccc" class="taxonLabel">Halkieria evangelista</text><text x="229.5" y="73.5" fill="lightgrey" class="flag">[-]</text><text x="251.5" y="73.5" fill="#ccc" class="taxonLabel">Phoronis</text><text x="229.5" y="86.2" fill="lightgrey" class="flag">[-]</text><text x="251.5" y="86.2" fill="#ccc" class="taxonLabel">Namacalathus</text><text x="201.4" y="60.8" fill="lightgrey" class="flag">[-]</text><text x="223.4" y="60.8" fill="#ccc" class="taxonLabel">Dailyatia</text><text x="173.4" y="48.1" fill="lightgrey" class="flag">[-]</text><text x="195.4" y="48.1" fill="#ccc" class="taxonLabel">Cotyledion tylodes</text><text x="145.3" y="35.4" fill="lightgrey" class="flag">[-]</text><text x="167.3" y="35.4" fill="#ccc" class="taxonLabel">Eccentrotheca</text><text x="117.2" y="10" fill="lightgrey" class="flag">[-]</text><text x="139.2" y="10" fill="#ccc" class="taxonLabel">Flustra</text><text x="117.2" y="22.7" fill="lightgrey" class="flag">[-]</text><text x="139.2" y="22.7" fill="#ccc" class="taxonLabel">Amathia</text><text x="61.1" y="543.5" fill="lightgrey" class="flag">[-]</text><text x="83.1" y="543.5" fill="#ccc" class="taxonLabel">Loxosomella</text><path d="M5,440.2V300.2H33.1M33.1,300.2V59.9H61.1M61.1,59.9V13.4H89.2M89.2,13.4V7H117.2M89.2,13.4V19.7H117.2M61.1,59.9V106.4H89.2M89.2,106.4V44.3H117.2M117.2,44.3V32.4H145.3M117.2,44.3V56.2H145.3M145.3,56.2V45.1H173.4M145.3,56.2V67.3H173.4M173.4,67.3V57.8H201.4M173.4,67.3V76.9H201.4M201.4,76.9V70.5H229.5M201.4,76.9V83.2H229.5M89.2,106.4V168.6H117.2M117.2,168.6V95.9H145.3M117.2,168.6V241.2H145.3M145.3,241.2V118.1H173.4M173.4,118.1V108.6H201.4M173.4,118.1V127.7H201.4M201.4,127.7V121.3H229.5M201.4,127.7V134H229.5M145.3,241.2V364.2H173.4M173.4,364.2V266.6H201.4M201.4,266.6V199.1H229.5M229.5,199.1V153.1H257.5M257.5,153.1V146.7H285.6M257.5,153.1V159.4H285.6M229.5,199.1V245.1H257.5M257.5,245.1V194.3H285.6M285.6,194.3V178.5H313.6M313.6,178.5V172.1H341.7M313.6,178.5V184.8H341.7M285.6,194.3V210H313.6M313.6,210V197.5H341.7M313.6,210V222.5H341.7M341.7,222.5V210.2H369.8M341.7,222.5V234.8H369.8M369.8,234.8V222.9H397.8M369.8,234.8V246.8H397.8M397.8,246.8V235.6H425.9M397.8,246.8V257.9H425.9M425.9,257.9V248.3H453.9M425.9,257.9V267.4H453.9M453.9,267.4V261H482M453.9,267.4V273.7H482M257.5,245.1V296H285.6M285.6,296V286.4H313.6M285.6,296V305.5H313.6M313.6,305.5V299.1H341.7M313.6,305.5V311.9H341.7M201.4,266.6V334.1H229.5M229.5,334.1V324.6H257.5M173.4,364.2V461.9H201.4M201.4,461.9V422.9H229.5M229.5,422.9V375.3H257.5M257.5,375.3V362.7H285.6M257.5,375.3V387.9H285.6M285.6,387.9V375.4H313.6M285.6,387.9V400.4H313.6M313.6,400.4V388.1H341.7M313.6,400.4V412.7H341.7M341.7,412.7V400.8H369.8M341.7,412.7V424.6H369.8M369.8,424.6V413.5H397.8M369.8,424.6V435.7H397.8M397.8,435.7V426.2H425.9M397.8,435.7V445.2H425.9M425.9,445.2V438.9H453.9M425.9,445.2V451.6H453.9M229.5,422.9V470.6H257.5M257.5,470.6V464.3H285.6M257.5,470.6V477H285.6M201.4,461.9V500.8H229.5M229.5,500.8V489.7H257.5M229.5,500.8V511.9H257.5M257.5,511.9V502.4H285.6M257.5,511.9V521.4H285.6M285.6,521.4V515.1H313.6M285.6,521.4V527.8H313.6M33.1,300.2V540.5H61.1M5,440.2V580.2H33.1M33.1,580.2V562.7H61.1M61.1,562.7V553.2H89.2M61.1,562.7V572.2H89.2M89.2,572.2V565.9H117.2M89.2,572.2V578.6H117.2M33.1,580.2V597.6H61.1M61.1,597.6V591.3H89.2M61.1,597.6V604H89.2" stroke="lightgrey" class="inapplicable"></path><path d="M229.5,334.1V343.6H257.5" stroke="darkgrey"></path><path d="M257.5,343.6V337.3H285.6" stroke="#fc8d59"></path><path d="M257.5,343.6V350H285.6" stroke="#91bfdb"></path><text x="7" y="443.2" class="node" fill="#4A6FE3">1</text><text x="35.1" y="303.2" class="node" fill="#4A6FE3">1</text><text x="63.1" y="62.9" class="node" fill="#4A6FE3">1</text><text x="91.2" y="16.4" class="node" fill="#4A6FE3">1</text><text x="91.2" y="109.4" class="node" fill="#4A6FE3">1</text><text x="119.2" y="47.3" class="node" fill="#E38FA0">0.23</text><text x="147.3" y="59.2" class="node" fill="#E28699">0.2</text><text x="175.4" y="70.3" class="node" fill="#DD6C86">0.12</text><text x="203.4" y="79.9" class="node" fill="#4A6FE3">1</text><text x="119.2" y="171.6" class="node" fill="#C4C9E3">0.61</text><text x="147.3" y="244.2" class="node" fill="#4A6FE3">1</text><text x="175.4" y="121.1" class="node" fill="#CFD2E3">0.58</text><text x="203.4" y="130.7" class="node" fill="#CFD2E3">0.58</text><text x="175.4" y="367.2" class="node" fill="#E4D6D8">0.46</text><text x="203.4" y="269.6" class="node" fill="#E4D6D8">0.46</text><text x="231.5" y="202.1" class="node" fill="#7A8DE1">0.87</text><text x="259.5" y="156.1" class="node" fill="#4A6FE3">1</text><text x="259.5" y="248.1" class="node" fill="#7A8DE1">0.87</text><text x="287.6" y="197.3" class="node" fill="#9DA8E2">0.75</text><text x="315.6" y="181.5" class="node" fill="#4A6FE3">1</text><text x="315.6" y="213" class="node" fill="#9DA8E2">0.75</text><text x="343.7" y="225.5" class="node" fill="#9DA8E2">0.75</text><text x="371.8" y="237.8" class="node" fill="#4A6FE3">1</text><text x="399.8" y="249.8" class="node" fill="#4A6FE3">1</text><text x="427.9" y="260.9" class="node" fill="#4A6FE3">1</text><text x="455.9" y="270.4" class="node" fill="#4A6FE3">1</text><text x="287.6" y="299" class="node" fill="#D5D7E3">0.55</text><text x="315.6" y="308.5" class="node" fill="#D2D4E3">0.56</text><text x="231.5" y="337.1" class="node" fill="#DDDEE3">0.52</text><text x="259.5" y="346.6" class="node" fill="#4A6FE3">1</text><text x="203.4" y="464.9" class="node" fill="#B4BBE3">0.67</text><text x="231.5" y="425.9" class="node" fill="#B4BBE3">0.67</text><text x="259.5" y="378.3" class="node" fill="#DDDEE3">0.52</text><text x="287.6" y="390.9" class="node" fill="#DDDEE3">0.52</text><text x="315.6" y="403.4" class="node" fill="#DDDEE3">0.52</text><text x="343.7" y="415.7" class="node" fill="#D7D9E3">0.54</text><text x="371.8" y="427.6" class="node" fill="#DA5E7D">0.08</text><text x="399.8" y="438.7" class="node" fill="#E4D3D6">0.45</text><text x="427.9" y="448.2" class="node" fill="#4A6FE3">1</text><text x="259.5" y="473.6" class="node" fill="#DADBE3">0.53</text><text x="231.5" y="503.8" class="node" fill="#4A6FE3">1</text><text x="259.5" y="514.9" class="node" fill="#4A6FE3">1</text><text x="287.6" y="524.4" class="node" fill="#4A6FE3">1</text><text x="35.1" y="583.2" class="node" fill="#4A6FE3">1</text><text x="63.1" y="565.7" class="node" fill="#4A6FE3">1</text><text x="91.2" y="575.2" class="node" fill="#B4BBE3">0.67</text><text x="63.1" y="600.6" class="node" fill="#4A6FE3">1</text></svg>
