<svg xmlns="http://www.w3.org/2000/svg" version="1.1" width="682" height="612" class="tree" data-char="207"><text x="678" y="15.4" text-anchor="end" class="stepsLabel">Character adds <tspan class="score">3</tspan> to tree score</text><text x="678" y="27.8" text-anchor="end" class="stepsLabel"><tspan class="score">0</tspan> additional regions</text><text x="678" y="40.2" text-anchor="end" class="stepsLabel">CI = 0.67; Fitch CI = 0.67; Fitch RI = 0.8</text><text x="678" y="65" text-anchor="end" class="stepsLabel"><tspan dy="16">An optimal tree under:</tspan><tspan x="680" style="font-style:italic" class="notThisAn" dy="1.2em">Equal weights</tspan><tspan x="680" style="font-style:italic" class="thisAn" dy="1.2em">Implied weights, k = 2</tspan><tspan x="680" style="font-style:italic" class="notThisAn" dy="1.2em">IW, k = 3</tspan><tspan x="680" style="font-style:italic" class="notThisAn" dy="1.2em">IW, k = 4.5</tspan><tspan x="680" style="font-style:italic" class="notThisAn" dy="1.2em">IW, k = 7</tspan><tspan x="680" style="font-style:italic" class="notThisAn" dy="1.2em">IW, k = 10.5</tspan><tspan x="680" style="font-style:italic" class="notThisAn" dy="1.2em">IW, k = 16</tspan><tspan x="680" style="font-style:italic" class="notThisAn" dy="1.2em">IW, k = 24</tspan></text><text x="95.9" y="594.3" fill="#fdae61" class="flag">[1]</text><text x="117.9" y="594.3" fill="#000" class="taxonLabel">Tonicella</text><text x="95.9" y="607" fill="grey" class="flag">[?]</text><text x="117.9" y="607" fill="#999" class="taxonLabel">Wiwaxia corrugata</text><text x="73.1" y="581.6" fill="#fdae61" class="flag">[1]</text><text x="95.1" y="581.6" fill="#000" class="taxonLabel">Dentalium</text><text x="73.1" y="556.2" fill="#abd9e9" class="flag">[2]</text><text x="95.1" y="556.2" fill="#000" class="taxonLabel">Sipunculus</text><text x="73.1" y="568.9" fill="#abd9e9" class="flag">[2]</text><text x="95.1" y="568.9" fill="#000" class="taxonLabel">Serpula</text><text x="95.9" y="530.8" fill="#abd9e9" class="flag">[2]</text><text x="117.9" y="530.8" fill="#000" class="taxonLabel">Loxosomella</text><text x="95.9" y="543.5" fill="grey" class="flag">[?]</text><text x="117.9" y="543.5" fill="#999" class="taxonLabel">Eccentrotheca</text><text x="118.6" y="505.4" fill="grey" class="flag">[?]</text><text x="140.6" y="505.4" fill="#999" class="taxonLabel">Halkieria evangelista</text><text x="118.6" y="518.1" fill="grey" class="flag">[?]</text><text x="140.6" y="518.1" fill="#999" class="taxonLabel">Dailyatia</text><text x="95.9" y="492.7" fill="grey" class="flag">[?]</text><text x="117.9" y="492.7" fill="#999" class="taxonLabel">Cotyledion tylodes</text><text x="164" y="467.3" fill="grey" class="flag">[?]</text><text x="186" y="467.3" fill="#999" class="taxonLabel">Pedunculotheca diania</text><text x="164" y="480" fill="grey" class="flag">[?]</text><text x="186" y="480" fill="#999" class="taxonLabel">Haplophrentis carinatus</text><text x="323" y="441.9" fill="grey" class="flag">[?]</text><text x="345" y="441.9" fill="#999" class="taxonLabel">Siphonobolus priscus</text><text x="323" y="454.6" fill="grey" class="flag">[?]</text><text x="345" y="454.6" fill="#999" class="taxonLabel">Acanthotretella spinosa</text><text x="323" y="416.5" fill="grey" class="flag">[?]</text><text x="345" y="416.5" fill="#999" class="taxonLabel">Lingulosacculus</text><text x="323" y="429.2" fill="grey" class="flag">[?]</text><text x="345" y="429.2" fill="#999" class="taxonLabel">Clupeafumosus socialis</text><text x="300.3" y="391.1" fill="#2c7bb6" class="flag">[3]</text><text x="322.3" y="391.1" fill="#000" class="taxonLabel">Lingula</text><text x="300.3" y="403.8" fill="grey" class="flag">[?]</text><text x="322.3" y="403.8" fill="#999" class="taxonLabel">Lingulellotreta malongensis</text><text x="300.3" y="365.7" fill="grey" class="flag">[?]</text><text x="322.3" y="365.7" fill="#999" class="taxonLabel">Mummpikia nuda</text><text x="300.3" y="378.4" fill="grey" class="flag">[?]</text><text x="322.3" y="378.4" fill="#999" class="taxonLabel">Botsfordia</text><text x="277.6" y="353" fill="grey" class="flag">[?]</text><text x="299.6" y="353" fill="#999" class="taxonLabel">Eoobolus</text><text x="254.9" y="327.6" fill="#2c7bb6" class="flag">[3]</text><text x="276.9" y="327.6" fill="#000" class="taxonLabel">Pelagodiscus atlanticus</text><text x="254.9" y="340.3" fill="grey" class="flag">[?]</text><text x="276.9" y="340.3" fill="#999" class="taxonLabel">Mickwitzia muralensis</text><text x="300.3" y="302.1" fill="#2c7bb6" class="flag">[3]</text><text x="322.3" y="302.1" fill="#000" class="taxonLabel">Novocrania</text><text x="300.3" y="314.9" fill="grey" class="flag">[?]</text><text x="322.3" y="314.9" fill="#999" class="taxonLabel">Craniops</text><text x="277.6" y="289.4" fill="grey" class="flag">[?]</text><text x="299.6" y="289.4" fill="#999" class="taxonLabel">Ussunia</text><text x="254.9" y="276.7" fill="grey" class="flag">[?]</text><text x="276.9" y="276.7" fill="#999" class="taxonLabel">Gasconsia</text><text x="277.6" y="251.3" fill="grey" class="flag">[?]</text><text x="299.6" y="251.3" fill="#999" class="taxonLabel">Micromitra</text><text x="277.6" y="264" fill="grey" class="flag">[?]</text><text x="299.6" y="264" fill="#999" class="taxonLabel">Askepasma toddense</text><text x="482" y="225.9" fill="#2c7bb6" class="flag">[3]</text><text x="504" y="225.9" fill="#000" class="taxonLabel">Terebratulina</text><text x="482" y="238.6" fill="grey" class="flag">[?]</text><text x="504" y="238.6" fill="#999" class="taxonLabel">Orthis</text><text x="459.3" y="213.2" fill="grey" class="flag">[?]</text><text x="481.3" y="213.2" fill="#999" class="taxonLabel">Alisina</text><text x="436.6" y="200.5" fill="grey" class="flag">[?]</text><text x="458.6" y="200.5" fill="#999" class="taxonLabel">Longtancunella chengjiangensis</text><text x="413.9" y="187.8" fill="grey" class="flag">[?]</text><text x="435.9" y="187.8" fill="#999" class="taxonLabel">Glyptoria</text><text x="391.1" y="175.1" fill="grey" class="flag">[?]</text><text x="413.1" y="175.1" fill="#999" class="taxonLabel">Tomteluva perturbata</text><text x="368.4" y="162.4" fill="grey" class="flag">[?]</text><text x="390.4" y="162.4" fill="#999" class="taxonLabel">Nisusia sulcata</text><text x="345.7" y="149.7" fill="grey" class="flag">[?]</text><text x="367.7" y="149.7" fill="#999" class="taxonLabel">Kutorgina chengjiangensis</text><text x="345.7" y="124.3" fill="grey" class="flag">[?]</text><text x="367.7" y="124.3" fill="#999" class="taxonLabel">Coolinia pecten</text><text x="345.7" y="137" fill="grey" class="flag">[?]</text><text x="367.7" y="137" fill="#999" class="taxonLabel">Antigonambonites planus</text><text x="300.3" y="111.6" fill="grey" class="flag">[?]</text><text x="322.3" y="111.6" fill="#999" class="taxonLabel">Yuganotheca elegans</text><text x="277.6" y="98.9" fill="grey" class="flag">[?]</text><text x="299.6" y="98.9" fill="#999" class="taxonLabel">Salanygolina</text><text x="186.7" y="86.2" fill="grey" class="flag">[?]</text><text x="208.7" y="86.2" fill="#999" class="taxonLabel">Micrina</text><text x="164" y="73.5" fill="grey" class="flag">[?]</text><text x="186" y="73.5" fill="#999" class="taxonLabel">Paterimitra</text><text x="118.6" y="60.8" fill="grey" class="flag">[?]</text><text x="140.6" y="60.8" fill="#999" class="taxonLabel">Heliomedusa orienta</text><text x="118.6" y="35.4" fill="grey" class="flag">[?]</text><text x="140.6" y="35.4" fill="#999" class="taxonLabel">Namacalathus</text><text x="118.6" y="48.1" fill="#fdae61" class="flag">[1]</text><text x="140.6" y="48.1" fill="#000" class="taxonLabel">Phoronis</text><text x="95.9" y="10" fill="#abd9e9" class="flag">[2]</text><text x="117.9" y="10" fill="#000" class="taxonLabel">Flustra</text><text x="95.9" y="22.7" fill="#abd9e9" class="flag">[2]</text><text x="117.9" y="22.7" fill="#000" class="taxonLabel">Amathia</text><path d="M5,431.4V288.9H27.7M27.7,288.9V61.1H50.4M50.4,61.1V13.4H73.1M73.1,13.4V7H95.9M73.1,13.4V19.7H95.9M50.4,61.1V108.9H73.1M27.7,288.9V516.7H50.4M50.4,516.7V499.2H73.1M73.1,499.2V489.7H95.9M73.1,499.2V508.7H95.9M95.9,508.7V502.4H118.6M95.9,508.7V515.1H118.6M50.4,516.7V534.1H73.1M73.1,534.1V527.8H95.9M73.1,534.1V540.5H95.9M5,431.4V573.8H27.7M27.7,573.8V559.5H50.4M50.4,559.5V553.2H73.1M50.4,559.5V565.9H73.1" stroke="#abd9e9"></path><path d="M73.1,108.9V38.8H95.9M95.9,38.8V32.4H118.6M73.1,108.9V179.1H95.9M95.9,179.1V57.8H118.6M95.9,179.1V300.4H118.6M118.6,300.4V130.1H141.3M141.3,130.1V70.5H164M141.3,130.1V189.7H164M164,189.7V83.2H186.7M118.6,300.4V470.6H141.3M141.3,470.6V464.3H164M141.3,470.6V477H164" stroke="darkgrey"></path><path d="M95.9,38.8V45.1H118.6M27.7,573.8V588.1H50.4M50.4,588.1V578.6H73.1M50.4,588.1V597.6H73.1M73.1,597.6V591.3H95.9M73.1,597.6V604H95.9" stroke="#fdae61"></path><path d="M164,189.7V296.3H186.7M186.7,296.3V233.8H209.4M209.4,233.8V182.8H232.1M232.1,182.8V111H254.9M254.9,111V95.9H277.6M254.9,111V126.1H277.6M277.6,126.1V108.6H300.3M277.6,126.1V143.5H300.3M300.3,143.5V127.7H323M323,127.7V121.3H345.7M323,127.7V134H345.7M300.3,143.5V159.3H323M323,159.3V146.7H345.7M323,159.3V171.9H345.7M345.7,171.9V159.4H368.4M345.7,171.9V184.4H368.4M368.4,184.4V172.1H391.1M368.4,184.4V196.7H391.1M391.1,196.7V184.8H413.9M391.1,196.7V208.6H413.9M413.9,208.6V197.5H436.6M413.9,208.6V219.8H436.6M436.6,219.8V210.2H459.3M436.6,219.8V229.3H459.3M459.3,229.3V222.9H482M459.3,229.3V235.6H482M232.1,182.8V254.7H254.9M254.9,254.7V248.3H277.6M254.9,254.7V261H277.6M209.4,233.8V284.9H232.1M232.1,284.9V273.7H254.9M232.1,284.9V296H254.9M254.9,296V286.4H277.6M254.9,296V305.5H277.6M277.6,305.5V299.1H300.3M277.6,305.5V311.9H300.3M186.7,296.3V358.7H209.4M209.4,358.7V330.9H232.1M232.1,330.9V324.6H254.9M232.1,330.9V337.3H254.9M209.4,358.7V386.5H232.1M232.1,386.5V359.5H254.9M254.9,359.5V350H277.6M254.9,359.5V369H277.6M277.6,369V362.7H300.3M277.6,369V375.4H300.3M232.1,386.5V413.5H254.9M254.9,413.5V394.4H277.6M277.6,394.4V388.1H300.3M277.6,394.4V400.8H300.3M254.9,413.5V432.5H277.6M277.6,432.5V419.8H300.3M300.3,419.8V413.5H323M300.3,419.8V426.2H323M277.6,432.5V445.2H300.3M300.3,445.2V438.9H323M300.3,445.2V451.6H323" stroke="#2c7bb6"></path><text x="7" y="434.4" class="node" fill="#4A6FE3">1</text><text x="29.7" y="291.9" class="node" fill="#4A6FE3">1</text><text x="52.4" y="64.1" class="node" fill="#E49CAA">0.27</text><text x="75.1" y="16.4" class="node" fill="#4A6FE3">1</text><text x="75.1" y="111.9" class="node" fill="#E49CAA">0.27</text><text x="97.9" y="41.8" class="node" fill="#4A6FE3">1</text><text x="97.9" y="182.1" class="node" fill="#4F72E2">0.99</text><text x="120.6" y="303.4" class="node" fill="#E6B4BD">0.35</text><text x="143.3" y="133.1" class="node" fill="#E6B4BD">0.35</text><text x="166" y="192.7" class="node" fill="#E6B4BD">0.35</text><text x="188.7" y="299.3" class="node" fill="#E59FAC">0.28</text><text x="211.4" y="236.8" class="node" fill="#E49CAA">0.27</text><text x="234.1" y="185.8" class="node" fill="#8091E1">0.85</text><text x="256.9" y="114" class="node" fill="#8091E1">0.85</text><text x="279.6" y="129.1" class="node" fill="#E59FAC">0.28</text><text x="302.3" y="146.5" class="node" fill="#E49CAA">0.27</text><text x="325" y="130.7" class="node" fill="#4A6FE3">1</text><text x="325" y="162.3" class="node" fill="#E49CAA">0.27</text><text x="347.7" y="174.9" class="node" fill="#E49CAA">0.27</text><text x="370.4" y="187.4" class="node" fill="#E49CAA">0.27</text><text x="393.1" y="199.7" class="node" fill="#4F72E2">0.99</text><text x="415.9" y="211.6" class="node" fill="#4F72E2">0.99</text><text x="438.6" y="222.8" class="node" fill="#4A6FE3">1</text><text x="461.3" y="232.3" class="node" fill="#4F72E2">0.99</text><text x="256.9" y="257.7" class="node" fill="#4A6FE3">1</text><text x="234.1" y="287.9" class="node" fill="#E2E2E2">0.5</text><text x="256.9" y="299" class="node" fill="#4F72E2">0.99</text><text x="279.6" y="308.5" class="node" fill="#4A6FE3">1</text><text x="211.4" y="361.7" class="node" fill="#E4D6D8">0.46</text><text x="234.1" y="333.9" class="node" fill="#E3DCDD">0.48</text><text x="234.1" y="389.5" class="node" fill="#E3DCDD">0.48</text><text x="256.9" y="362.5" class="node" fill="#4F72E2">0.99</text><text x="279.6" y="372" class="node" fill="#929FE1">0.79</text><text x="256.9" y="416.5" class="node" fill="#929FE1">0.79</text><text x="279.6" y="397.4" class="node" fill="#929FE1">0.79</text><text x="279.6" y="435.5" class="node" fill="#4A6FE3">1</text><text x="302.3" y="422.8" class="node" fill="#E6B4BD">0.35</text><text x="302.3" y="448.2" class="node" fill="#4A6FE3">1</text><text x="143.3" y="473.6" class="node" fill="#4A6FE3">1</text><text x="52.4" y="519.7" class="node" fill="#E49CAA">0.27</text><text x="75.1" y="502.2" class="node" fill="#D95A7A">0.07</text><text x="97.9" y="511.7" class="node" fill="#E5C7CC">0.41</text><text x="75.1" y="537.1" class="node" fill="#D85778">0.06</text><text x="29.7" y="576.8" class="node" fill="#4A6FE3">1</text><text x="52.4" y="562.5" class="node" fill="#4A6FE3">1</text><text x="52.4" y="591.1" class="node" fill="#4A6FE3">1</text><text x="75.1" y="600.6" class="node" fill="#E49CAA">0.27</text></svg>
