<svg xmlns="http://www.w3.org/2000/svg" version="1.1" width="682" height="682" class="tree" data-char="109"><text x="678" y="15.4" text-anchor="end" class="stepsLabel">Character adds <tspan class="score">6</tspan> to tree score (<tspan class="score fitch">5</tspan> with Fitch)</text><text x="678" y="27.8" text-anchor="end" class="stepsLabel"><tspan class="score">1</tspan> additional region (not counted by Fitch)</text><text x="678" y="40.2" text-anchor="end" class="stepsLabel">CI = 0.17; Fitch CI = 0.2; Fitch RI = 0.67</text><text x="678" y="65" text-anchor="end" class="stepsLabel"><tspan dy="16" fill="#34caaf">An optimal tree under:</tspan><tspan x="680" style="font-style:italic" class="thisAn" dy="1.2em">Equal weights</tspan><tspan x="680" style="font-style:italic" class="notThisAn" dy="1.2em">Implied weights, k = 2</tspan><tspan x="680" style="font-style:italic" class="notThisAn" dy="1.2em">IW, k = 3</tspan><tspan x="680" style="font-style:italic" class="notThisAn" dy="1.2em">IW, k = 4.5</tspan><tspan x="680" style="font-style:italic" class="notThisAn" dy="1.2em">IW, k = 7</tspan><tspan x="680" style="font-style:italic" class="notThisAn" dy="1.2em">IW, k = 10.5</tspan><tspan x="680" style="font-style:italic" class="notThisAn" dy="1.2em">IW, k = 16</tspan><tspan x="680" style="font-style:italic" class="notThisAn" dy="1.2em">IW, k = 24</tspan></text><text x="70" y="664.4" fill="lightgrey" class="flag">[-]</text><text x="92" y="664.4" fill="#ccc" class="taxonLabel">Sipunculus</text><text x="70" y="677" fill="lightgrey" class="flag">[-]</text><text x="92" y="677" fill="#ccc" class="taxonLabel">Serpula</text><text x="91.7" y="639.2" fill="#e2e2a2" class="flag">[1]</text><text x="113.7" y="639.2" fill="#000" class="taxonLabel">Tonicella</text><text x="91.7" y="651.8" fill="lightgrey" class="flag">[-]</text><text x="113.7" y="651.8" fill="#ccc" class="taxonLabel">Dentalium</text><text x="70" y="626.7" fill="lightgrey" class="flag">[-]</text><text x="92" y="626.7" fill="#ccc" class="taxonLabel">Wiwaxia corrugata</text><text x="395.3" y="601.5" fill="#e2e2a2" class="flag">[1]</text><text x="417.3" y="601.5" fill="#000" class="taxonLabel">Coolinia pecten</text><text x="395.3" y="614.1" fill="grey" class="flag">[12]</text><text x="417.3" y="614.1" fill="#999" class="taxonLabel">Antigonambonites planus</text><text x="482" y="576.3" fill="#e2e2a2" class="flag">[1]</text><text x="504" y="576.3" fill="#000" class="taxonLabel">Terebratulina</text><text x="482" y="588.9" fill="#e2e2a2" class="flag">[1]</text><text x="504" y="588.9" fill="#000" class="taxonLabel">Orthis</text><text x="460.3" y="563.7" fill="#e2e2a2" class="flag">[1]</text><text x="482.3" y="563.7" fill="#000" class="taxonLabel">Alisina</text><text x="438.6" y="551.2" fill="#e2e2a2" class="flag">[1]</text><text x="460.6" y="551.2" fill="#000" class="taxonLabel">Glyptoria</text><text x="417" y="538.6" fill="grey" class="flag">[12]</text><text x="439" y="538.6" fill="#999" class="taxonLabel">Nisusia sulcata</text><text x="395.3" y="526" fill="grey" class="flag">[12]</text><text x="417.3" y="526" fill="#999" class="taxonLabel">Kutorgina chengjiangensis</text><text x="351.9" y="513.4" fill="#e2e2a2" class="flag">[1]</text><text x="373.9" y="513.4" fill="#000" class="taxonLabel">Longtancunella chengjiangensis</text><text x="351.9" y="488.2" fill="#e2e2a2" class="flag">[1]</text><text x="373.9" y="488.2" fill="#000" class="taxonLabel">Tomteluva perturbata</text><text x="351.9" y="500.8" fill="#e2e2a2" class="flag">[1]</text><text x="373.9" y="500.8" fill="#000" class="taxonLabel">Yuganotheca elegans</text><text x="308.5" y="475.6" fill="grey" class="flag">[12]</text><text x="330.5" y="475.6" fill="#999" class="taxonLabel">Salanygolina</text><text x="308.5" y="450.5" fill="#e2e2a2" class="flag">[1]</text><text x="330.5" y="450.5" fill="#000" class="taxonLabel">Askepasma toddense</text><text x="308.5" y="463.1" fill="#e2e2a2" class="flag">[1]</text><text x="330.5" y="463.1" fill="#000" class="taxonLabel">Micromitra</text><text x="373.6" y="425.3" fill="#e2e2a2" class="flag">[1]</text><text x="395.6" y="425.3" fill="#000" class="taxonLabel">Novocrania</text><text x="373.6" y="437.9" fill="#e2e2a2" class="flag">[1]</text><text x="395.6" y="437.9" fill="#000" class="taxonLabel">Craniops</text><text x="351.9" y="412.7" fill="#e2e2a2" class="flag">[1]</text><text x="373.9" y="412.7" fill="#000" class="taxonLabel">Ussunia</text><text x="330.2" y="400.1" fill="#e2e2a2" class="flag">[1]</text><text x="352.2" y="400.1" fill="#000" class="taxonLabel">Gasconsia</text><text x="308.5" y="387.5" fill="#e2e2a2" class="flag">[1]</text><text x="330.5" y="387.5" fill="#000" class="taxonLabel">Heliomedusa orienta</text><text x="395.3" y="362.4" fill="#91bfdb" class="flag">[2]</text><text x="417.3" y="362.4" fill="#000" class="taxonLabel">Acanthotretella spinosa</text><text x="395.3" y="375" fill="#e2e2a2" class="flag">[1]</text><text x="417.3" y="375" fill="#000" class="taxonLabel">Siphonobolus priscus</text><text x="460.3" y="337.2" fill="#e2e2a2" class="flag">[1]</text><text x="482.3" y="337.2" fill="#000" class="taxonLabel">Mummpikia nuda</text><text x="460.3" y="349.8" fill="#e2e2a2" class="flag">[1]</text><text x="482.3" y="349.8" fill="#000" class="taxonLabel">Eoobolus</text><text x="438.6" y="324.6" fill="#e2e2a2" class="flag">[1]</text><text x="460.6" y="324.6" fill="#000" class="taxonLabel">Botsfordia</text><text x="438.6" y="299.5" fill="#91bfdb" class="flag">[2]</text><text x="460.6" y="299.5" fill="#000" class="taxonLabel">Lingulellotreta malongensis</text><text x="438.6" y="312" fill="#91bfdb" class="flag">[2]</text><text x="460.6" y="312" fill="#000" class="taxonLabel">Lingulosacculus</text><text x="395.3" y="286.9" fill="#e2e2a2" class="flag">[1]</text><text x="417.3" y="286.9" fill="#000" class="taxonLabel">Lingula</text><text x="351.9" y="274.3" fill="#91bfdb" class="flag">[2]</text><text x="373.9" y="274.3" fill="#000" class="taxonLabel">Clupeafumosus socialis</text><text x="330.2" y="261.7" fill="#e2e2a2" class="flag">[1]</text><text x="352.2" y="261.7" fill="#000" class="taxonLabel">Pelagodiscus atlanticus</text><text x="308.5" y="249.1" fill="grey" class="flag">[12]</text><text x="330.5" y="249.1" fill="#999" class="taxonLabel">Mickwitzia muralensis</text><text x="243.5" y="236.5" fill="#91bfdb" class="flag">[2]</text><text x="265.5" y="236.5" fill="#000" class="taxonLabel">Micrina</text><text x="351.9" y="211.4" fill="#91bfdb" class="flag">[2]</text><text x="373.9" y="211.4" fill="#000" class="taxonLabel">Pauxillites</text><text x="351.9" y="223.9" fill="#91bfdb" class="flag">[2]</text><text x="373.9" y="223.9" fill="#000" class="taxonLabel">Maxilites</text><text x="330.2" y="198.8" fill="#91bfdb" class="flag">[2]</text><text x="352.2" y="198.8" fill="#000" class="taxonLabel">Haplophrentis carinatus</text><text x="308.5" y="186.2" fill="#91bfdb" class="flag">[2]</text><text x="330.5" y="186.2" fill="#000" class="taxonLabel">Paramicrocornus</text><text x="308.5" y="161" fill="#91bfdb" class="flag">[2]</text><text x="330.5" y="161" fill="#000" class="taxonLabel">Bactrotheca</text><text x="308.5" y="173.6" fill="#91bfdb" class="flag">[2]</text><text x="330.5" y="173.6" fill="#000" class="taxonLabel">Conotheca</text><text x="265.2" y="148.4" fill="lightgrey" class="flag">[-]</text><text x="287.2" y="148.4" fill="#ccc" class="taxonLabel">Cupitheca holocyclata</text><text x="243.5" y="135.8" fill="#91bfdb" class="flag">[2]</text><text x="265.5" y="135.8" fill="#000" class="taxonLabel">Pedunculotheca diania</text><text x="200.1" y="123.3" fill="#91bfdb" class="flag">[2]</text><text x="222.1" y="123.3" fill="#000" class="taxonLabel">Paterimitra</text><text x="178.5" y="110.7" fill="#e2e2a2" class="flag">[1]</text><text x="200.5" y="110.7" fill="#000" class="taxonLabel">Halkieria evangelista</text><text x="156.8" y="98.1" fill="lightgrey" class="flag">[-]</text><text x="178.8" y="98.1" fill="#ccc" class="taxonLabel">Dailyatia</text><text x="135.1" y="85.5" fill="lightgrey" class="flag">[-]</text><text x="157.1" y="85.5" fill="#ccc" class="taxonLabel">Eccentrotheca</text><text x="113.4" y="72.9" fill="lightgrey" class="flag">[-]</text><text x="135.4" y="72.9" fill="#ccc" class="taxonLabel">Cotyledion tylodes</text><text x="113.4" y="47.8" fill="lightgrey" class="flag">[-]</text><text x="135.4" y="47.8" fill="#ccc" class="taxonLabel">Phoronis</text><text x="113.4" y="60.3" fill="lightgrey" class="flag">[-]</text><text x="135.4" y="60.3" fill="#ccc" class="taxonLabel">Namacalathus</text><text x="91.7" y="22.6" fill="lightgrey" class="flag">[-]</text><text x="113.7" y="22.6" fill="#ccc" class="taxonLabel">Flustra</text><text x="91.7" y="35.2" fill="lightgrey" class="flag">[-]</text><text x="113.7" y="35.2" fill="#ccc" class="taxonLabel">Amathia</text><text x="48.4" y="10" fill="lightgrey" class="flag">[-]</text><text x="70.4" y="10" fill="#ccc" class="taxonLabel">Loxosomella</text><path d="M5,338.7V27H26.7M26.7,27V7H48.4M26.7,27V47H48.4M48.4,47V25.9H70M70,25.9V19.6H91.7M70,25.9V32.2H91.7M48.4,47V68.1H70M70,68.1V51H91.7M91.7,51V44.8H113.4M91.7,51V57.3H113.4M70,68.1V85.2H91.7M91.7,85.2V69.9H113.4M91.7,85.2V100.5H113.4M113.4,100.5V82.5H135.1M113.4,100.5V118.6H135.1M135.1,118.6V95.1H156.8M243.5,162.3V145.4H265.2M5,338.7V650.4H26.7M26.7,650.4V633.1H48.4M48.4,633.1V623.7H70M48.4,633.1V642.5H70M70,642.5V648.8H91.7M26.7,650.4V667.7H48.4M48.4,667.7V661.4H70M48.4,667.7V674H70" stroke="lightgrey" class="inapplicable"></path><path d="M135.1,118.6V142.1H156.8" stroke="darkgrey"></path><path d="M156.8,142.1V107.7H178.5M221.8,317.7V401.9H243.5M243.5,401.9V329.8H265.2M265.2,329.8V263.3H286.9M286.9,263.3V246.1H308.5M286.9,263.3V280.4H308.5M308.5,280.4V258.7H330.2M308.5,280.4V302.2H330.2M330.2,302.2V333H351.9M351.9,333V300.4H373.6M373.6,300.4V283.9H395.3M373.6,300.4V316.9H395.3M395.3,316.9V331.1H417M417,331.1V321.6H438.6M417,331.1V340.5H438.6M438.6,340.5V334.2H460.3M438.6,340.5V346.8H460.3M351.9,333V365.7H373.6M373.6,365.7V372H395.3M265.2,329.8V396.3H286.9M286.9,396.3V384.5H308.5M286.9,396.3V408.1H308.5M308.5,408.1V397.1H330.2M308.5,408.1V419.2H330.2M330.2,419.2V409.7H351.9M330.2,419.2V428.6H351.9M351.9,428.6V422.3H373.6M351.9,428.6V434.9H373.6M243.5,401.9V474H265.2M265.2,474V453.8H286.9M286.9,453.8V447.5H308.5M286.9,453.8V460.1H308.5M265.2,474V494.2H286.9M286.9,494.2V472.6H308.5M286.9,494.2V515.9H308.5M308.5,515.9V491.5H330.2M330.2,491.5V485.2H351.9M330.2,491.5V497.8H351.9M308.5,515.9V540.2H330.2M330.2,540.2V510.4H351.9M330.2,540.2V570H351.9M351.9,570V535.2H373.6M373.6,535.2V523H395.3M373.6,535.2V547.4H395.3M395.3,547.4V535.6H417M395.3,547.4V559.2H417M417,559.2V548.2H438.6M417,559.2V570.2H438.6M438.6,570.2V560.7H460.3M438.6,570.2V579.6H460.3M460.3,579.6V573.3H482M460.3,579.6V585.9H482M351.9,570V604.8H373.6M373.6,604.8V598.5H395.3M373.6,604.8V611.1H395.3M70,642.5V636.2H91.7" stroke="#e2e2a2"></path><path d="M156.8,142.1V176.5H178.5M178.5,176.5V120.3H200.1M178.5,176.5V232.7H200.1M200.1,232.7V147.6H221.8M221.8,147.6V132.8H243.5M221.8,147.6V162.3H243.5M243.5,162.3V179.3H265.2M265.2,179.3V164.3H286.9M286.9,164.3V158H308.5M286.9,164.3V170.6H308.5M265.2,179.3V194.2H286.9M286.9,194.2V183.2H308.5M286.9,194.2V205.2H308.5M308.5,205.2V195.8H330.2M308.5,205.2V214.7H330.2M330.2,214.7V208.4H351.9M330.2,214.7V220.9H351.9M200.1,232.7V317.7H221.8M221.8,317.7V233.5H243.5M330.2,302.2V271.3H351.9M395.3,316.9V302.7H417M417,302.7V296.5H438.6M417,302.7V309H438.6M373.6,365.7V359.4H395.3" stroke="#91bfdb"></path><text x="7" y="341.7" class="node" fill="#4A6FE3">1</text><text x="28.7" y="30" class="node" fill="#4A6FE3">1</text><text x="50.4" y="50" class="node" fill="#4A6FE3">1</text><text x="72" y="28.9" class="node" fill="#4A6FE3">1</text><text x="72" y="71.1" class="node" fill="#4A6FE3">1</text><text x="93.7" y="54" class="node" fill="#E6C1C7">0.39</text><text x="93.7" y="88.2" class="node" fill="#7A8DE1">0.87</text><text x="115.4" y="103.5" class="node" fill="#E495A5">0.25</text><text x="137.1" y="121.6" class="node" fill="#7A8DE1">0.87</text><text x="158.8" y="145.1" class="node" fill="#7A8DE1">0.87</text><text x="180.5" y="179.5" class="node" fill="#7A8DE1">0.87</text><text x="202.1" y="235.7" class="node" fill="#7A8DE1">0.87</text><text x="223.8" y="150.6" class="node" fill="#7A8DE1">0.87</text><text x="245.5" y="165.3" class="node" fill="#7A8DE1">0.87</text><text x="267.2" y="182.3" class="node" fill="#E4D9DB">0.47</text><text x="288.9" y="167.3" class="node" fill="#6982E1">0.92</text><text x="288.9" y="197.2" class="node" fill="#4A6FE3">1</text><text x="310.5" y="208.2" class="node" fill="#4A6FE3">1</text><text x="332.2" y="217.7" class="node" fill="#4A6FE3">1</text><text x="223.8" y="320.7" class="node" fill="#4A6FE3">1</text><text x="245.5" y="404.9" class="node" fill="#A8B1E2">0.71</text><text x="267.2" y="332.8" class="node" fill="#A8B1E2">0.71</text><text x="288.9" y="266.3" class="node" fill="#8394E1">0.84</text><text x="310.5" y="283.4" class="node" fill="#97A4E2">0.77</text><text x="332.2" y="305.2" class="node" fill="#A8B1E2">0.71</text><text x="353.9" y="336" class="node" fill="#E4D3D6">0.45</text><text x="375.6" y="303.4" class="node" fill="#E392A2">0.24</text><text x="397.3" y="319.9" class="node" fill="#D75376">0.05</text><text x="419" y="305.7" class="node" fill="#DD6F88">0.13</text><text x="419" y="334.1" class="node" fill="#E4D9DB">0.47</text><text x="440.6" y="343.5" class="node" fill="#E6B4BD">0.35</text><text x="375.6" y="368.7" class="node" fill="#4A6FE3">1</text><text x="288.9" y="399.3" class="node" fill="#8394E1">0.84</text><text x="310.5" y="411.1" class="node" fill="#BFC4E3">0.63</text><text x="332.2" y="422.2" class="node" fill="#4A6FE3">1</text><text x="353.9" y="431.6" class="node" fill="#4A6FE3">1</text><text x="267.2" y="477" class="node" fill="#A8B1E2">0.71</text><text x="288.9" y="456.8" class="node" fill="#7D8FE1">0.86</text><text x="288.9" y="497.2" class="node" fill="#8394E1">0.84</text><text x="310.5" y="518.9" class="node" fill="#D2D4E3">0.56</text><text x="332.2" y="494.5" class="node" fill="#E4D6D8">0.46</text><text x="332.2" y="543.2" class="node" fill="#E4D9DB">0.47</text><text x="353.9" y="573" class="node" fill="#E4D9DB">0.47</text><text x="375.6" y="538.2" class="node" fill="#E4D9DB">0.47</text><text x="397.3" y="550.4" class="node" fill="#E2899B">0.21</text><text x="419" y="562.2" class="node" fill="#A8B1E2">0.71</text><text x="440.6" y="573.2" class="node" fill="#4A6FE3">1</text><text x="462.3" y="582.6" class="node" fill="#97A4E2">0.77</text><text x="375.6" y="607.8" class="node" fill="#4A6FE3">1</text><text x="28.7" y="653.4" class="node" fill="#4A6FE3">1</text><text x="50.4" y="636.1" class="node" fill="#4A6FE3">1</text><text x="72" y="645.5" class="node" fill="#4A6FE3">1</text><text x="50.4" y="670.7" class="node" fill="#4A6FE3">1</text></svg>
