<svg xmlns="http://www.w3.org/2000/svg" version="1.1" width="682" height="612" class="tree" data-char="156"><text x="678" y="15.4" text-anchor="end" class="stepsLabel">Character adds <tspan class="score">2</tspan> to tree score</text><text x="678" y="27.8" text-anchor="end" class="stepsLabel"><tspan class="score">0</tspan> additional regions</text><text x="678" y="40.2" text-anchor="end" class="stepsLabel">CI = 0.5; Fitch CI = 0.5; Fitch RI = 0.5</text><text x="678" y="65" text-anchor="end" class="stepsLabel"><tspan dy="16">An optimal tree under:</tspan><tspan x="680" style="font-style:italic" class="thisAn" dy="1.2em">Equal weights</tspan><tspan x="680" style="font-style:italic" class="notThisAn" dy="1.2em">Implied weights, k = 2</tspan><tspan x="680" style="font-style:italic" class="notThisAn" dy="1.2em">IW, k = 3</tspan><tspan x="680" style="font-style:italic" class="notThisAn" dy="1.2em">IW, k = 4.5</tspan><tspan x="680" style="font-style:italic" class="notThisAn" dy="1.2em">IW, k = 7</tspan><tspan x="680" style="font-style:italic" class="notThisAn" dy="1.2em">IW, k = 10.5</tspan><tspan x="680" style="font-style:italic" class="notThisAn" dy="1.2em">IW, k = 16</tspan><tspan x="680" style="font-style:italic" class="notThisAn" dy="1.2em">IW, k = 24</tspan></text><text x="84.5" y="594.3" fill="#91bfdb" class="flag">[2]</text><text x="106.5" y="594.3" fill="#000" class="taxonLabel">Serpula</text><text x="84.5" y="607" fill="#91bfdb" class="flag">[2]</text><text x="106.5" y="607" fill="#000" class="taxonLabel">Sipunculus</text><text x="111" y="568.9" fill="#91bfdb" class="flag">[2]</text><text x="133" y="568.9" fill="#000" class="taxonLabel">Dentalium</text><text x="111" y="581.6" fill="#e2e2a2" class="flag">[1]</text><text x="133" y="581.6" fill="#000" class="taxonLabel">Tonicella</text><text x="84.5" y="556.2" fill="grey" class="flag">[?]</text><text x="106.5" y="556.2" fill="#999" class="taxonLabel">Wiwaxia corrugata</text><text x="296.5" y="518.1" fill="#e2e2a2" class="flag">[1]</text><text x="318.5" y="518.1" fill="#000" class="taxonLabel">Novocrania</text><text x="296.5" y="530.8" fill="grey" class="flag">[?]</text><text x="318.5" y="530.8" fill="#999" class="taxonLabel">Craniops</text><text x="270" y="505.4" fill="grey" class="flag">[?]</text><text x="292" y="505.4" fill="#999" class="taxonLabel">Heliomedusa orienta</text><text x="455.5" y="480" fill="grey" class="flag">[?]</text><text x="477.5" y="480" fill="#999" class="taxonLabel">Siphonobolus priscus</text><text x="455.5" y="492.7" fill="grey" class="flag">[?]</text><text x="477.5" y="492.7" fill="#999" class="taxonLabel">Acanthotretella spinosa</text><text x="455.5" y="454.6" fill="grey" class="flag">[?]</text><text x="477.5" y="454.6" fill="#999" class="taxonLabel">Clupeafumosus socialis</text><text x="455.5" y="467.3" fill="grey" class="flag">[?]</text><text x="477.5" y="467.3" fill="#999" class="taxonLabel">Lingulosacculus</text><text x="402.5" y="441.9" fill="grey" class="flag">[?]</text><text x="424.5" y="441.9" fill="#999" class="taxonLabel">Lingulellotreta malongensis</text><text x="376" y="429.2" fill="grey" class="flag">[?]</text><text x="398" y="429.2" fill="#999" class="taxonLabel">Botsfordia</text><text x="349.5" y="416.5" fill="grey" class="flag">[?]</text><text x="371.5" y="416.5" fill="#999" class="taxonLabel">Mummpikia nuda</text><text x="323" y="403.8" fill="grey" class="flag">[?]</text><text x="345" y="403.8" fill="#999" class="taxonLabel">Eoobolus</text><text x="296.5" y="391.1" fill="#e2e2a2" class="flag">[1]</text><text x="318.5" y="391.1" fill="#000" class="taxonLabel">Lingula</text><text x="323" y="365.7" fill="grey" class="flag">[?]</text><text x="345" y="365.7" fill="#999" class="taxonLabel">Mickwitzia muralensis</text><text x="323" y="378.4" fill="#e2e2a2" class="flag">[1]</text><text x="345" y="378.4" fill="#000" class="taxonLabel">Pelagodiscus atlanticus</text><text x="296.5" y="353" fill="grey" class="flag">[?]</text><text x="318.5" y="353" fill="#999" class="taxonLabel">Micrina</text><text x="376" y="327.6" fill="grey" class="flag">[?]</text><text x="398" y="327.6" fill="#999" class="taxonLabel">Antigonambonites planus</text><text x="376" y="340.3" fill="grey" class="flag">[?]</text><text x="398" y="340.3" fill="#999" class="taxonLabel">Coolinia pecten</text><text x="482" y="302.1" fill="#e2e2a2" class="flag">[1]</text><text x="504" y="302.1" fill="#000" class="taxonLabel">Terebratulina</text><text x="482" y="314.9" fill="grey" class="flag">[?]</text><text x="504" y="314.9" fill="#999" class="taxonLabel">Orthis</text><text x="455.5" y="289.4" fill="grey" class="flag">[?]</text><text x="477.5" y="289.4" fill="#999" class="taxonLabel">Alisina</text><text x="429" y="276.7" fill="grey" class="flag">[?]</text><text x="451" y="276.7" fill="#999" class="taxonLabel">Glyptoria</text><text x="402.5" y="264" fill="grey" class="flag">[?]</text><text x="424.5" y="264" fill="#999" class="taxonLabel">Nisusia sulcata</text><text x="376" y="251.3" fill="grey" class="flag">[?]</text><text x="398" y="251.3" fill="#999" class="taxonLabel">Kutorgina chengjiangensis</text><text x="323" y="238.6" fill="grey" class="flag">[?]</text><text x="345" y="238.6" fill="#999" class="taxonLabel">Longtancunella chengjiangensis</text><text x="323" y="213.2" fill="grey" class="flag">[?]</text><text x="345" y="213.2" fill="#999" class="taxonLabel">Yuganotheca elegans</text><text x="323" y="225.9" fill="grey" class="flag">[?]</text><text x="345" y="225.9" fill="#999" class="taxonLabel">Tomteluva perturbata</text><text x="270" y="200.5" fill="grey" class="flag">[?]</text><text x="292" y="200.5" fill="#999" class="taxonLabel">Salanygolina</text><text x="270" y="175.1" fill="grey" class="flag">[?]</text><text x="292" y="175.1" fill="#999" class="taxonLabel">Micromitra</text><text x="270" y="187.8" fill="grey" class="flag">[?]</text><text x="292" y="187.8" fill="#999" class="taxonLabel">Askepasma toddense</text><text x="243.5" y="149.7" fill="grey" class="flag">[?]</text><text x="265.5" y="149.7" fill="#999" class="taxonLabel">Pedunculotheca diania</text><text x="243.5" y="162.4" fill="grey" class="flag">[?]</text><text x="265.5" y="162.4" fill="#999" class="taxonLabel">Haplophrentis carinatus</text><text x="217" y="137" fill="grey" class="flag">[?]</text><text x="239" y="137" fill="#999" class="taxonLabel">Paterimitra</text><text x="164" y="124.3" fill="grey" class="flag">[?]</text><text x="186" y="124.3" fill="#999" class="taxonLabel">Gasconsia</text><text x="270" y="98.9" fill="grey" class="flag">[?]</text><text x="292" y="98.9" fill="#999" class="taxonLabel">Namacalathus</text><text x="270" y="111.6" fill="#e2e2a2" class="flag">[1]</text><text x="292" y="111.6" fill="#000" class="taxonLabel">Phoronis</text><text x="243.5" y="86.2" fill="grey" class="flag">[?]</text><text x="265.5" y="86.2" fill="#999" class="taxonLabel">Eccentrotheca</text><text x="217" y="73.5" fill="grey" class="flag">[?]</text><text x="239" y="73.5" fill="#999" class="taxonLabel">Cotyledion tylodes</text><text x="190.5" y="60.8" fill="grey" class="flag">[?]</text><text x="212.5" y="60.8" fill="#999" class="taxonLabel">Dailyatia</text><text x="164" y="48.1" fill="grey" class="flag">[?]</text><text x="186" y="48.1" fill="#999" class="taxonLabel">Halkieria evangelista</text><text x="111" y="35.4" fill="grey" class="flag">[?]</text><text x="133" y="35.4" fill="#999" class="taxonLabel">Ussunia</text><text x="111" y="10" fill="#e2e2a2" class="flag">[1]</text><text x="133" y="10" fill="#000" class="taxonLabel">Flustra</text><text x="111" y="22.7" fill="grey" class="flag">[?]</text><text x="133" y="22.7" fill="#999" class="taxonLabel">Amathia</text><text x="58" y="543.5" fill="#e2e2a2" class="flag">[1]</text><text x="80" y="543.5" fill="#000" class="taxonLabel">Loxosomella</text><path d="M5,436.2V292.3H31.5M31.5,292.3V44.1H58M58,44.1V13.4H84.5M84.5,13.4V7H111M84.5,13.4V19.7H111M58,44.1V74.8H84.5M84.5,74.8V32.4H111M84.5,74.8V117.3H111M111,117.3V57.4H137.5M137.5,57.4V45.1H164M137.5,57.4V69.7H164M164,69.7V57.8H190.5M164,69.7V81.6H190.5M190.5,81.6V70.5H217M190.5,81.6V92.7H217M217,92.7V83.2H243.5M217,92.7V102.3H243.5M243.5,102.3V95.9H270M243.5,102.3V108.6H270M111,117.3V177.2H137.5M137.5,177.2V121.3H164M137.5,177.2V233H164M164,233V143.5H190.5M190.5,143.5V134H217M190.5,143.5V153.1H217M217,153.1V146.7H243.5M217,153.1V159.4H243.5M164,233V322.5H190.5M190.5,322.5V198.9H217M217,198.9V178.5H243.5M243.5,178.5V172.1H270M243.5,178.5V184.8H270M217,198.9V219.3H243.5M243.5,219.3V197.5H270M243.5,219.3V241.1H270M270,241.1V216.6H296.5M296.5,216.6V210.2H323M296.5,216.6V222.9H323M270,241.1V265.7H296.5M296.5,265.7V235.6H323M296.5,265.7V295.8H323M323,295.8V260.6H349.5M349.5,260.6V248.3H376M349.5,260.6V273H376M376,273V261H402.5M376,273V284.9H402.5M402.5,284.9V273.7H429M402.5,284.9V296H429M429,296V286.4H455.5M429,296V305.5H455.5M455.5,305.5V299.1H482M455.5,305.5V311.9H482M323,295.8V330.9H349.5M349.5,330.9V324.6H376M349.5,330.9V337.3H376M190.5,322.5V446.1H217M217,446.1V380.2H243.5M243.5,380.2V359.5H270M270,359.5V350H296.5M270,359.5V369H296.5M296.5,369V362.7H323M296.5,369V375.4H323M243.5,380.2V401H270M270,401V388.1H296.5M270,401V413.9H296.5M296.5,413.9V400.8H323M296.5,413.9V427H323M323,427V413.5H349.5M323,427V440.5H349.5M349.5,440.5V426.2H376M349.5,440.5V454.8H376M376,454.8V438.9H402.5M376,454.8V470.6H402.5M402.5,470.6V457.9H429M429,457.9V451.6H455.5M429,457.9V464.3H455.5M402.5,470.6V483.3H429M429,483.3V477H455.5M429,483.3V489.7H455.5M217,446.1V511.9H243.5M243.5,511.9V502.4H270M243.5,511.9V521.4H270M270,521.4V515.1H296.5M270,521.4V527.8H296.5M31.5,292.3V540.5H58M84.5,572.2V578.6H111" stroke="#e2e2a2"></path><path d="M5,436.2V580.2H31.5M31.5,580.2V562.7H58M58,562.7V553.2H84.5M58,562.7V572.2H84.5" stroke="darkgrey"></path><path d="M84.5,572.2V565.9H111M31.5,580.2V597.6H58M58,597.6V591.3H84.5M58,597.6V604H84.5" stroke="#91bfdb"></path><text x="7" y="439.2" class="node" fill="#4A6FE3">1</text><text x="33.5" y="295.3" class="node" fill="#4A6FE3">1</text><text x="60" y="47.1" class="node" fill="#97A4E2">0.77</text><text x="86.5" y="16.4" class="node" fill="#4A6FE3">1</text><text x="86.5" y="77.8" class="node" fill="#97A4E2">0.77</text><text x="113" y="120.3" class="node" fill="#DADBE3">0.53</text><text x="139.5" y="60.4" class="node" fill="#DADBE3">0.53</text><text x="166" y="72.7" class="node" fill="#DADBE3">0.53</text><text x="192.5" y="84.6" class="node" fill="#E5A8B3">0.31</text><text x="219" y="95.7" class="node" fill="#DF798F">0.16</text><text x="245.5" y="105.3" class="node" fill="#4A6FE3">1</text><text x="139.5" y="180.2" class="node" fill="#DADBE3">0.53</text><text x="166" y="236" class="node" fill="#DADBE3">0.53</text><text x="192.5" y="146.5" class="node" fill="#E6BAC2">0.37</text><text x="219" y="156.1" class="node" fill="#4A6FE3">1</text><text x="192.5" y="325.5" class="node" fill="#DADBE3">0.53</text><text x="219" y="201.9" class="node" fill="#667FE1">0.93</text><text x="245.5" y="181.5" class="node" fill="#4A6FE3">1</text><text x="245.5" y="222.3" class="node" fill="#667FE1">0.93</text><text x="272" y="244.1" class="node" fill="#E5D0D3">0.44</text><text x="298.5" y="219.6" class="node" fill="#9AA6E2">0.76</text><text x="298.5" y="268.7" class="node" fill="#7A8DE1">0.87</text><text x="325" y="298.8" class="node" fill="#E6C4C9">0.4</text><text x="351.5" y="263.6" class="node" fill="#E6C4C9">0.4</text><text x="378" y="276" class="node" fill="#E6C4C9">0.4</text><text x="404.5" y="287.9" class="node" fill="#E6C4C9">0.4</text><text x="431" y="299" class="node" fill="#4A6FE3">1</text><text x="457.5" y="308.5" class="node" fill="#8696E1">0.83</text><text x="351.5" y="333.9" class="node" fill="#4A6FE3">1</text><text x="219" y="449.1" class="node" fill="#DADBE3">0.53</text><text x="245.5" y="383.2" class="node" fill="#DADBE3">0.53</text><text x="272" y="362.5" class="node" fill="#E07C92">0.17</text><text x="298.5" y="372" class="node" fill="#9DA8E2">0.75</text><text x="272" y="404" class="node" fill="#9DA8E2">0.75</text><text x="298.5" y="416.9" class="node" fill="#C1C6E3">0.62</text><text x="325" y="430" class="node" fill="#DADBE3">0.53</text><text x="351.5" y="443.5" class="node" fill="#DADBE3">0.53</text><text x="378" y="457.8" class="node" fill="#DADBE3">0.53</text><text x="404.5" y="473.6" class="node" fill="#8F9DE1">0.8</text><text x="431" y="460.9" class="node" fill="#E49CAA">0.27</text><text x="431" y="486.3" class="node" fill="#4A6FE3">1</text><text x="245.5" y="514.9" class="node" fill="#DADBE3">0.53</text><text x="272" y="524.4" class="node" fill="#4A6FE3">1</text><text x="33.5" y="583.2" class="node" fill="#4A6FE3">1</text><text x="60" y="565.7" class="node" fill="#4A6FE3">1</text><text x="86.5" y="575.2" class="node" fill="#7A8DE1">0.87</text><text x="60" y="600.6" class="node" fill="#4A6FE3">1</text></svg>
