<svg xmlns="http://www.w3.org/2000/svg" version="1.1" width="682" height="612" class="tree" data-char="211"><text x="678" y="15.7" text-anchor="end" class="stepsLabel">Character adds <tspan class="score">3</tspan> to tree score</text><text x="678" y="28.4" text-anchor="end" class="stepsLabel"><tspan class="score">0</tspan> additional regions</text><text x="678" y="41.1" text-anchor="end" class="stepsLabel">CI = 0.67; Fitch CI = 0.67; Fitch RI = 0.5</text><text x="678" y="66.5" text-anchor="end" class="stepsLabel"><tspan dy="16">An optimal tree under:</tspan><tspan x="680" style="font-style:italic" class="thisAn" dy="1.2em">Equal weights</tspan><tspan x="680" style="font-style:italic" class="notThisAn" dy="1.2em">Implied weights, k = 2</tspan><tspan x="680" style="font-style:italic" class="notThisAn" dy="1.2em">IW, k = 3</tspan><tspan x="680" style="font-style:italic" class="notThisAn" dy="1.2em">IW, k = 4.5</tspan><tspan x="680" style="font-style:italic" class="notThisAn" dy="1.2em">IW, k = 7</tspan><tspan x="680" style="font-style:italic" class="notThisAn" dy="1.2em">IW, k = 10.5</tspan><tspan x="680" style="font-style:italic" class="notThisAn" dy="1.2em">IW, k = 16</tspan><tspan x="680" style="font-style:italic" class="notThisAn" dy="1.2em">IW, k = 24</tspan></text><text x="64.6" y="594" fill="#2c7bb6" class="flag">[3]</text><text x="86.6" y="594" fill="#000" class="taxonLabel">Serpula</text><text x="64.6" y="607" fill="#fdae61" class="flag">[1]</text><text x="86.6" y="607" fill="#000" class="taxonLabel">Sipunculus</text><text x="84.5" y="568.1" fill="#abd9e9" class="flag">[2]</text><text x="106.5" y="568.1" fill="#000" class="taxonLabel">Tonicella</text><text x="84.5" y="581" fill="#abd9e9" class="flag">[2]</text><text x="106.5" y="581" fill="#000" class="taxonLabel">Dentalium</text><text x="64.6" y="555.1" fill="grey" class="flag">[?]</text><text x="86.6" y="555.1" fill="#999" class="taxonLabel">Wiwaxia corrugata</text><text x="243.5" y="516.2" fill="grey" class="flag">[?]</text><text x="265.5" y="516.2" fill="#999" class="taxonLabel">Haplophrentis carinatus</text><text x="243.5" y="529.1" fill="grey" class="flag">[?]</text><text x="265.5" y="529.1" fill="#999" class="taxonLabel">Pedunculotheca diania</text><text x="382.6" y="490.2" fill="grey" class="flag">[?]</text><text x="404.6" y="490.2" fill="#999" class="taxonLabel">Tomteluva perturbata</text><text x="382.6" y="503.2" fill="grey" class="flag">[?]</text><text x="404.6" y="503.2" fill="#999" class="taxonLabel">Yuganotheca elegans</text><text x="362.8" y="477.2" fill="grey" class="flag">[?]</text><text x="384.8" y="477.2" fill="#999" class="taxonLabel">Salanygolina</text><text x="482" y="451.3" fill="grey" class="flag">[?]</text><text x="504" y="451.3" fill="#999" class="taxonLabel">Orthis</text><text x="482" y="464.2" fill="#fdae61" class="flag">[1]</text><text x="504" y="464.2" fill="#000" class="taxonLabel">Terebratulina</text><text x="462.1" y="438.3" fill="grey" class="flag">[?]</text><text x="484.1" y="438.3" fill="#999" class="taxonLabel">Alisina</text><text x="442.2" y="425.3" fill="grey" class="flag">[?]</text><text x="464.2" y="425.3" fill="#999" class="taxonLabel">Longtancunella chengjiangensis</text><text x="422.4" y="412.3" fill="grey" class="flag">[?]</text><text x="444.4" y="412.3" fill="#999" class="taxonLabel">Glyptoria</text><text x="402.5" y="399.3" fill="grey" class="flag">[?]</text><text x="424.5" y="399.3" fill="#999" class="taxonLabel">Nisusia sulcata</text><text x="382.6" y="386.4" fill="grey" class="flag">[?]</text><text x="404.6" y="386.4" fill="#999" class="taxonLabel">Kutorgina chengjiangensis</text><text x="382.6" y="360.4" fill="grey" class="flag">[?]</text><text x="404.6" y="360.4" fill="#999" class="taxonLabel">Antigonambonites planus</text><text x="382.6" y="373.4" fill="grey" class="flag">[?]</text><text x="404.6" y="373.4" fill="#999" class="taxonLabel">Coolinia pecten</text><text x="323" y="347.4" fill="grey" class="flag">[?]</text><text x="345" y="347.4" fill="#999" class="taxonLabel">Gasconsia</text><text x="303.1" y="334.5" fill="grey" class="flag">[?]</text><text x="325.1" y="334.5" fill="#999" class="taxonLabel">Micromitra</text><text x="283.2" y="321.5" fill="grey" class="flag">[?]</text><text x="305.2" y="321.5" fill="#999" class="taxonLabel">Askepasma toddense</text><text x="422.4" y="295.5" fill="grey" class="flag">[?]</text><text x="444.4" y="295.5" fill="#999" class="taxonLabel">Acanthotretella spinosa</text><text x="422.4" y="308.5" fill="grey" class="flag">[?]</text><text x="444.4" y="308.5" fill="#999" class="taxonLabel">Siphonobolus priscus</text><text x="422.4" y="269.6" fill="grey" class="flag">[?]</text><text x="444.4" y="269.6" fill="#999" class="taxonLabel">Clupeafumosus socialis</text><text x="422.4" y="282.5" fill="grey" class="flag">[?]</text><text x="444.4" y="282.5" fill="#999" class="taxonLabel">Lingulosacculus</text><text x="382.6" y="256.6" fill="grey" class="flag">[?]</text><text x="404.6" y="256.6" fill="#999" class="taxonLabel">Lingulellotreta malongensis</text><text x="362.8" y="243.6" fill="grey" class="flag">[?]</text><text x="384.8" y="243.6" fill="#999" class="taxonLabel">Botsfordia</text><text x="342.9" y="230.6" fill="grey" class="flag">[?]</text><text x="364.9" y="230.6" fill="#999" class="taxonLabel">Mummpikia nuda</text><text x="323" y="217.7" fill="grey" class="flag">[?]</text><text x="345" y="217.7" fill="#999" class="taxonLabel">Eoobolus</text><text x="303.1" y="204.7" fill="#fdae61" class="flag">[1]</text><text x="325.1" y="204.7" fill="#000" class="taxonLabel">Lingula</text><text x="323" y="178.7" fill="#fdae61" class="flag">[1]</text><text x="345" y="178.7" fill="#000" class="taxonLabel">Pelagodiscus atlanticus</text><text x="323" y="191.7" fill="grey" class="flag">[?]</text><text x="345" y="191.7" fill="#999" class="taxonLabel">Mickwitzia muralensis</text><text x="303.1" y="165.7" fill="grey" class="flag">[?]</text><text x="325.1" y="165.7" fill="#999" class="taxonLabel">Micrina</text><text x="243.5" y="152.8" fill="grey" class="flag">[?]</text><text x="265.5" y="152.8" fill="#999" class="taxonLabel">Paterimitra</text><text x="203.8" y="139.8" fill="grey" class="flag">[?]</text><text x="225.8" y="139.8" fill="#999" class="taxonLabel">Heliomedusa orienta</text><text x="223.6" y="113.8" fill="#fdae61" class="flag">[1]</text><text x="245.6" y="113.8" fill="#000" class="taxonLabel">Novocrania</text><text x="223.6" y="126.8" fill="grey" class="flag">[?]</text><text x="245.6" y="126.8" fill="#999" class="taxonLabel">Craniops</text><text x="203.8" y="100.8" fill="grey" class="flag">[?]</text><text x="225.8" y="100.8" fill="#999" class="taxonLabel">Ussunia</text><text x="164" y="87.9" fill="grey" class="flag">[?]</text><text x="186" y="87.9" fill="#999" class="taxonLabel">Halkieria evangelista</text><text x="144.1" y="74.9" fill="grey" class="flag">[?]</text><text x="166.1" y="74.9" fill="#999" class="taxonLabel">Cotyledion tylodes</text><text x="144.1" y="48.9" fill="grey" class="flag">[?]</text><text x="166.1" y="48.9" fill="#999" class="taxonLabel">Dailyatia</text><text x="144.1" y="61.9" fill="grey" class="flag">[?]</text><text x="166.1" y="61.9" fill="#999" class="taxonLabel">Eccentrotheca</text><text x="104.4" y="36" fill="grey" class="flag">[?]</text><text x="126.4" y="36" fill="#999" class="taxonLabel">Namacalathus</text><text x="84.5" y="23" fill="#fdae61" class="flag">[1]</text><text x="106.5" y="23" fill="#000" class="taxonLabel">Phoronis</text><text x="64.6" y="10" fill="#fdae61" class="flag">[1]</text><text x="86.6" y="10" fill="#000" class="taxonLabel">Flustra</text><text x="44.8" y="542.1" fill="#abd9e9" class="flag">[2]</text><text x="66.8" y="542.1" fill="#000" class="taxonLabel">Loxosomella</text><path d="M5,430.2V280.7H24.9M5,430.2V579.7H24.9M24.9,579.7V561.8H44.8M44.8,561.8V552.1H64.6M24.9,579.7V597.5H44.8" stroke="darkgrey"></path><path d="M24.9,280.7V22.3H44.8M44.8,22.3V7H64.6M44.8,22.3V37.5H64.6M64.6,37.5V20H84.5M64.6,37.5V55.1H84.5M84.5,55.1V33H104.4M84.5,55.1V77.2H104.4M104.4,77.2V52.4H124.2M124.2,52.4V45.9H144.1M124.2,52.4V58.9H144.1M104.4,77.2V101.9H124.2M124.2,101.9V71.9H144.1M124.2,101.9V131.9H144.1M144.1,131.9V84.9H164M144.1,131.9V179H164M164,179V107.6H183.9M183.9,107.6V97.8H203.8M183.9,107.6V117.3H203.8M203.8,117.3V110.8H223.6M203.8,117.3V123.8H223.6M164,179V250.3H183.9M183.9,250.3V136.8H203.8M183.9,250.3V363.9H203.8M203.8,363.9V208.1H223.6M223.6,208.1V149.8H243.5M223.6,208.1V266.4H243.5M243.5,266.4V193.7H263.4M263.4,193.7V172.5H283.2M283.2,172.5V162.7H303.1M283.2,172.5V182.2H303.1M303.1,182.2V175.7H323M303.1,182.2V188.7H323M263.4,193.7V214.9H283.2M283.2,214.9V201.7H303.1M283.2,214.9V228H303.1M303.1,228V214.7H323M303.1,228V241.4H323M323,241.4V227.6H342.9M323,241.4V255.2H342.9M342.9,255.2V240.6H362.8M342.9,255.2V269.8H362.8M362.8,269.8V253.6H382.6M362.8,269.8V286H382.6M382.6,286V273.1H402.5M402.5,273.1V266.6H422.4M402.5,273.1V279.5H422.4M382.6,286V299H402.5M402.5,299V292.5H422.4M402.5,299V305.5H422.4M243.5,266.4V339.2H263.4M263.4,339.2V318.5H283.2M263.4,339.2V359.8H283.2M283.2,359.8V331.5H303.1M283.2,359.8V388.2H303.1M303.1,388.2V344.4H323M303.1,388.2V432H323M323,432V380H342.9M342.9,380V363.9H362.8M362.8,363.9V357.4H382.6M362.8,363.9V370.4H382.6M342.9,380V396.1H362.8M362.8,396.1V383.4H382.6M362.8,396.1V408.9H382.6M382.6,408.9V396.3H402.5M382.6,408.9V421.5H402.5M402.5,421.5V409.3H422.4M402.5,421.5V433.7H422.4M422.4,433.7V422.3H442.2M422.4,433.7V445H442.2M442.2,445V435.3H462.1M442.2,445V454.8H462.1M462.1,454.8V448.3H482M462.1,454.8V461.2H482M323,432V484H342.9M342.9,484V474.2H362.8M342.9,484V493.7H362.8M362.8,493.7V487.2H382.6M362.8,493.7V500.2H382.6M203.8,363.9V519.6H223.6M223.6,519.6V513.2H243.5M223.6,519.6V526.1H243.5M44.8,597.5V604H64.6" stroke="#fdae61"></path><path d="M24.9,280.7V539.1H44.8M44.8,561.8V571.6H64.6M64.6,571.6V565.1H84.5M64.6,571.6V578H84.5" stroke="#abd9e9"></path><path d="M44.8,597.5V591H64.6" stroke="#2c7bb6"></path><text x="7" y="433.2" class="node" fill="#4A6FE3">1</text><text x="26.9" y="283.7" class="node" fill="#4A6FE3">1</text><text x="46.8" y="25.3" class="node" fill="#6982E1">0.92</text><text x="66.6" y="40.5" class="node" fill="#6982E1">0.92</text><text x="86.5" y="58.1" class="node" fill="#E392A2">0.24</text><text x="106.4" y="80.2" class="node" fill="#6982E1">0.92</text><text x="126.2" y="55.4" class="node" fill="#DC6884">0.11</text><text x="126.2" y="104.9" class="node" fill="#DB6581">0.1</text><text x="146.1" y="134.9" class="node" fill="#E3DFE0">0.49</text><text x="166" y="182" class="node" fill="#4A6FE3">1</text><text x="185.9" y="110.6" class="node" fill="#627DE1">0.94</text><text x="205.8" y="120.3" class="node" fill="#4A6FE3">1</text><text x="185.9" y="253.3" class="node" fill="#E3DFE0">0.49</text><text x="205.8" y="366.9" class="node" fill="#E3DFE0">0.49</text><text x="225.6" y="211.1" class="node" fill="#E59FAC">0.29</text><text x="245.5" y="269.4" class="node" fill="#E3DFE0">0.49</text><text x="265.4" y="196.7" class="node" fill="#E3DFE0">0.49</text><text x="285.2" y="175.5" class="node" fill="#E3DFE0">0.49</text><text x="305.1" y="185.2" class="node" fill="#4A6FE3">1</text><text x="285.2" y="217.9" class="node" fill="#4A6FE3">1</text><text x="305.1" y="231" class="node" fill="#C1C6E3">0.62</text><text x="325" y="244.4" class="node" fill="#E3DFE0">0.49</text><text x="344.9" y="258.2" class="node" fill="#E3DFE0">0.49</text><text x="364.8" y="272.8" class="node" fill="#E3DFE0">0.49</text><text x="384.6" y="289" class="node" fill="#8F9DE1">0.8</text><text x="404.5" y="276.1" class="node" fill="#E495A5">0.25</text><text x="404.5" y="302" class="node" fill="#4A6FE3">1</text><text x="265.4" y="342.2" class="node" fill="#E3DFE0">0.49</text><text x="285.2" y="362.8" class="node" fill="#DB617F">0.09</text><text x="305.1" y="391.2" class="node" fill="#E07C92">0.17</text><text x="325" y="435" class="node" fill="#4A6FE3">1</text><text x="344.9" y="383" class="node" fill="#8394E1">0.84</text><text x="364.8" y="366.9" class="node" fill="#4A6FE3">1</text><text x="364.8" y="399.1" class="node" fill="#8C9BE1">0.81</text><text x="384.6" y="411.9" class="node" fill="#8C9BE1">0.81</text><text x="404.5" y="424.5" class="node" fill="#7388E1">0.89</text><text x="424.4" y="436.7" class="node" fill="#7388E1">0.89</text><text x="444.2" y="448" class="node" fill="#4A6FE3">1</text><text x="464.1" y="457.8" class="node" fill="#667FE1">0.93</text><text x="344.9" y="487" class="node" fill="#929FE1">0.79</text><text x="364.8" y="496.7" class="node" fill="#7D8FE1">0.86</text><text x="225.6" y="522.6" class="node" fill="#4A6FE3">1</text><text x="26.9" y="582.7" class="node" fill="#4A6FE3">1</text><text x="46.8" y="564.8" class="node" fill="#4A6FE3">1</text><text x="66.6" y="574.6" class="node" fill="#8696E1">0.83</text><text x="46.8" y="600.5" class="node" fill="#4A6FE3">1</text></svg>
