<svg xmlns="http://www.w3.org/2000/svg" version="1.1" width="682" height="612" class="tree" data-char="48"><text x="678" y="15.4" text-anchor="end" class="stepsLabel">Character adds <tspan class="score">2</tspan> to tree score</text><text x="678" y="27.8" text-anchor="end" class="stepsLabel"><tspan class="score">0</tspan> additional regions</text><text x="678" y="40.2" text-anchor="end" class="stepsLabel">CI = 0.5; Fitch CI = 0.5; Fitch RI = 0</text><text x="678" y="65" text-anchor="end" class="stepsLabel"><tspan dy="16">An optimal tree under:</tspan><tspan x="680" style="font-style:italic" class="thisAn" dy="1.2em">Equal weights</tspan><tspan x="680" style="font-style:italic" class="notThisAn" dy="1.2em">Implied weights, k = 2</tspan><tspan x="680" style="font-style:italic" class="notThisAn" dy="1.2em">IW, k = 3</tspan><tspan x="680" style="font-style:italic" class="notThisAn" dy="1.2em">IW, k = 4.5</tspan><tspan x="680" style="font-style:italic" class="notThisAn" dy="1.2em">IW, k = 7</tspan><tspan x="680" style="font-style:italic" class="notThisAn" dy="1.2em">IW, k = 10.5</tspan><tspan x="680" style="font-style:italic" class="notThisAn" dy="1.2em">IW, k = 16</tspan><tspan x="680" style="font-style:italic" class="notThisAn" dy="1.2em">IW, k = 24</tspan></text><text x="117.2" y="594.3" fill="#fc8d59" class="flag">[0]</text><text x="139.2" y="594.3" fill="#000" class="taxonLabel">Dentalium</text><text x="117.2" y="607" fill="#fc8d59" class="flag">[0]</text><text x="139.2" y="607" fill="#000" class="taxonLabel">Tonicella</text><text x="89.2" y="581.6" fill="#fc8d59" class="flag">[0]</text><text x="111.2" y="581.6" fill="#000" class="taxonLabel">Wiwaxia corrugata</text><text x="89.2" y="556.2" fill="#fc8d59" class="flag">[0]</text><text x="111.2" y="556.2" fill="#000" class="taxonLabel">Serpula</text><text x="89.2" y="568.9" fill="#fc8d59" class="flag">[0]</text><text x="111.2" y="568.9" fill="#000" class="taxonLabel">Sipunculus</text><text x="313.6" y="518.1" fill="grey" class="flag">[?]</text><text x="335.6" y="518.1" fill="#999" class="taxonLabel">Craniops</text><text x="313.6" y="530.8" fill="#91bfdb" class="flag">[1]</text><text x="335.6" y="530.8" fill="#000" class="taxonLabel">Novocrania</text><text x="285.6" y="505.4" fill="grey" class="flag">[?]</text><text x="307.6" y="505.4" fill="#999" class="taxonLabel">Ussunia</text><text x="257.5" y="492.7" fill="grey" class="flag">[?]</text><text x="279.5" y="492.7" fill="#999" class="taxonLabel">Gasconsia</text><text x="285.6" y="467.3" fill="#91bfdb" class="flag">[1]</text><text x="307.6" y="467.3" fill="#000" class="taxonLabel">Pelagodiscus atlanticus</text><text x="285.6" y="480" fill="grey" class="flag">[?]</text><text x="307.6" y="480" fill="#999" class="taxonLabel">Mummpikia nuda</text><text x="425.9" y="441.9" fill="grey" class="flag">[?]</text><text x="447.9" y="441.9" fill="#999" class="taxonLabel">Acanthotretella spinosa</text><text x="425.9" y="454.6" fill="grey" class="flag">[?]</text><text x="447.9" y="454.6" fill="#999" class="taxonLabel">Siphonobolus priscus</text><text x="425.9" y="416.5" fill="grey" class="flag">[?]</text><text x="447.9" y="416.5" fill="#999" class="taxonLabel">Clupeafumosus socialis</text><text x="425.9" y="429.2" fill="grey" class="flag">[?]</text><text x="447.9" y="429.2" fill="#999" class="taxonLabel">Lingulosacculus</text><text x="369.8" y="403.8" fill="grey" class="flag">[?]</text><text x="391.8" y="403.8" fill="#999" class="taxonLabel">Lingulellotreta malongensis</text><text x="341.7" y="391.1" fill="grey" class="flag">[?]</text><text x="363.7" y="391.1" fill="#999" class="taxonLabel">Botsfordia</text><text x="313.6" y="378.4" fill="#fc8d59" class="flag">[0]</text><text x="335.6" y="378.4" fill="#000" class="taxonLabel">Lingula</text><text x="285.6" y="365.7" fill="grey" class="flag">[?]</text><text x="307.6" y="365.7" fill="#999" class="taxonLabel">Eoobolus</text><text x="341.7" y="340.3" fill="grey" class="flag">[?]</text><text x="363.7" y="340.3" fill="#999" class="taxonLabel">Yuganotheca elegans</text><text x="341.7" y="353" fill="grey" class="flag">[?]</text><text x="363.7" y="353" fill="#999" class="taxonLabel">Tomteluva perturbata</text><text x="313.6" y="327.6" fill="grey" class="flag">[?]</text><text x="335.6" y="327.6" fill="#999" class="taxonLabel">Salanygolina</text><text x="482" y="302.1" fill="grey" class="flag">[?]</text><text x="504" y="302.1" fill="#999" class="taxonLabel">Orthis</text><text x="482" y="314.9" fill="#fc8d59" class="flag">[0]</text><text x="504" y="314.9" fill="#000" class="taxonLabel">Terebratulina</text><text x="453.9" y="289.4" fill="grey" class="flag">[?]</text><text x="475.9" y="289.4" fill="#999" class="taxonLabel">Alisina</text><text x="425.9" y="276.7" fill="grey" class="flag">[?]</text><text x="447.9" y="276.7" fill="#999" class="taxonLabel">Longtancunella chengjiangensis</text><text x="397.8" y="264" fill="grey" class="flag">[?]</text><text x="419.8" y="264" fill="#999" class="taxonLabel">Glyptoria</text><text x="369.8" y="251.3" fill="grey" class="flag">[?]</text><text x="391.8" y="251.3" fill="#999" class="taxonLabel">Nisusia sulcata</text><text x="341.7" y="238.6" fill="grey" class="flag">[?]</text><text x="363.7" y="238.6" fill="#999" class="taxonLabel">Kutorgina chengjiangensis</text><text x="341.7" y="213.2" fill="grey" class="flag">[?]</text><text x="363.7" y="213.2" fill="#999" class="taxonLabel">Antigonambonites planus</text><text x="341.7" y="225.9" fill="grey" class="flag">[?]</text><text x="363.7" y="225.9" fill="#999" class="taxonLabel">Coolinia pecten</text><text x="285.6" y="187.8" fill="grey" class="flag">[?]</text><text x="307.6" y="187.8" fill="#999" class="taxonLabel">Askepasma toddense</text><text x="285.6" y="200.5" fill="grey" class="flag">[?]</text><text x="307.6" y="200.5" fill="#999" class="taxonLabel">Micromitra</text><text x="285.6" y="162.4" fill="grey" class="flag">[?]</text><text x="307.6" y="162.4" fill="#999" class="taxonLabel">Haplophrentis carinatus</text><text x="285.6" y="175.1" fill="grey" class="flag">[?]</text><text x="307.6" y="175.1" fill="#999" class="taxonLabel">Pedunculotheca diania</text><text x="257.5" y="149.7" fill="grey" class="flag">[?]</text><text x="279.5" y="149.7" fill="#999" class="taxonLabel">Paterimitra</text><text x="229.5" y="124.3" fill="grey" class="flag">[?]</text><text x="251.5" y="124.3" fill="#999" class="taxonLabel">Heliomedusa orienta</text><text x="229.5" y="137" fill="grey" class="flag">[?]</text><text x="251.5" y="137" fill="#999" class="taxonLabel">Mickwitzia muralensis</text><text x="201.4" y="111.6" fill="grey" class="flag">[?]</text><text x="223.4" y="111.6" fill="#999" class="taxonLabel">Micrina</text><text x="145.3" y="98.9" fill="grey" class="flag">[?]</text><text x="167.3" y="98.9" fill="#999" class="taxonLabel">Halkieria evangelista</text><text x="173.4" y="73.5" fill="grey" class="flag">[?]</text><text x="195.4" y="73.5" fill="#999" class="taxonLabel">Eccentrotheca</text><text x="173.4" y="86.2" fill="#fc8d59" class="flag">[0]</text><text x="195.4" y="86.2" fill="#000" class="taxonLabel">Cotyledion tylodes</text><text x="201.4" y="48.1" fill="#fc8d59" class="flag">[0]</text><text x="223.4" y="48.1" fill="#000" class="taxonLabel">Phoronis</text><text x="201.4" y="60.8" fill="grey" class="flag">[?]</text><text x="223.4" y="60.8" fill="#999" class="taxonLabel">Namacalathus</text><text x="173.4" y="35.4" fill="grey" class="flag">[?]</text><text x="195.4" y="35.4" fill="#999" class="taxonLabel">Dailyatia</text><text x="117.2" y="10" fill="#fc8d59" class="flag">[0]</text><text x="139.2" y="10" fill="#000" class="taxonLabel">Flustra</text><text x="117.2" y="22.7" fill="#fc8d59" class="flag">[0]</text><text x="139.2" y="22.7" fill="#000" class="taxonLabel">Amathia</text><text x="61.1" y="543.5" fill="#fc8d59" class="flag">[0]</text><text x="83.1" y="543.5" fill="#000" class="taxonLabel">Loxosomella</text><path d="M5,437.4V301H33.1M33.1,301V61.5H61.1M61.1,61.5V13.4H89.2M89.2,13.4V7H117.2M89.2,13.4V19.7H117.2M61.1,61.5V109.6H89.2M89.2,109.6V59.4H117.2M117.2,59.4V41.9H145.3M145.3,41.9V32.4H173.4M145.3,41.9V51.5H173.4M173.4,51.5V45.1H201.4M173.4,51.5V57.8H201.4M117.2,59.4V76.9H145.3M145.3,76.9V70.5H173.4M145.3,76.9V83.2H173.4M89.2,109.6V159.8H117.2M117.2,159.8V95.9H145.3M117.2,159.8V223.8H145.3M145.3,223.8V118.1H173.4M173.4,118.1V108.6H201.4M173.4,118.1V127.7H201.4M201.4,127.7V121.3H229.5M201.4,127.7V134H229.5M145.3,223.8V329.4H173.4M173.4,329.4V196.7H201.4M201.4,196.7V156.2H229.5M229.5,156.2V146.7H257.5M229.5,156.2V165.8H257.5M257.5,165.8V159.4H285.6M257.5,165.8V172.1H285.6M201.4,196.7V237.2H229.5M229.5,237.2V191.2H257.5M257.5,191.2V184.8H285.6M257.5,191.2V197.5H285.6M229.5,237.2V283.2H257.5M257.5,283.2V232.4H285.6M285.6,232.4V216.6H313.6M313.6,216.6V210.2H341.7M313.6,216.6V222.9H341.7M285.6,232.4V248.1H313.6M313.6,248.1V235.6H341.7M313.6,248.1V260.6H341.7M341.7,260.6V248.3H369.8M341.7,260.6V273H369.8M369.8,273V261H397.8M369.8,273V284.9H397.8M397.8,284.9V273.7H425.9M397.8,284.9V296H425.9M425.9,296V286.4H453.9M425.9,296V305.5H453.9M453.9,305.5V299.1H482M453.9,305.5V311.9H482M257.5,283.2V334.1H285.6M285.6,334.1V324.6H313.6M285.6,334.1V343.6H313.6M313.6,343.6V337.3H341.7M313.6,343.6V350H341.7M173.4,329.4V462H201.4M285.6,388.9V375.4H313.6M33.1,301V540.5H61.1M5,437.4V573.8H33.1M33.1,573.8V559.5H61.1M61.1,559.5V553.2H89.2M61.1,559.5V565.9H89.2M33.1,573.8V588.1H61.1M61.1,588.1V578.6H89.2M61.1,588.1V597.6H89.2M89.2,597.6V591.3H117.2M89.2,597.6V604H117.2" stroke="#fc8d59"></path><path d="M201.4,462V423.2H229.5M229.5,423.2V375.8H257.5M257.5,375.8V362.7H285.6M257.5,375.8V388.9H285.6M285.6,388.9V402.4H313.6M313.6,402.4V388.1H341.7M313.6,402.4V416.6H341.7M341.7,416.6V400.8H369.8M341.7,416.6V432.5H369.8M369.8,432.5V419.8H397.8M397.8,419.8V413.5H425.9M397.8,419.8V426.2H425.9M369.8,432.5V445.2H397.8M397.8,445.2V438.9H425.9M397.8,445.2V451.6H425.9M229.5,423.2V470.6H257.5M257.5,470.6V477H285.6M201.4,462V500.8H229.5M229.5,500.8V489.7H257.5M229.5,500.8V511.9H257.5M257.5,511.9V502.4H285.6M257.5,511.9V521.4H285.6M285.6,521.4V515.1H313.6" stroke="darkgrey"></path><path d="M257.5,470.6V464.3H285.6M285.6,521.4V527.8H313.6" stroke="#91bfdb"></path><text x="7" y="440.4" class="node" fill="#4A6FE3">1</text><text x="35.1" y="304" class="node" fill="#4A6FE3">1</text><text x="63.1" y="64.5" class="node" fill="#4A6FE3">1</text><text x="91.2" y="16.4" class="node" fill="#4A6FE3">1</text><text x="91.2" y="112.6" class="node" fill="#4A6FE3">1</text><text x="119.2" y="62.4" class="node" fill="#E49CAA">0.27</text><text x="147.3" y="44.9" class="node" fill="#DD6F88">0.13</text><text x="175.4" y="54.5" class="node" fill="#4A6FE3">1</text><text x="147.3" y="79.9" class="node" fill="#E17F94">0.18</text><text x="119.2" y="162.8" class="node" fill="#D2D4E3">0.56</text><text x="147.3" y="226.8" class="node" fill="#4A6FE3">1</text><text x="175.4" y="121.1" class="node" fill="#DDDEE3">0.52</text><text x="203.4" y="130.7" class="node" fill="#DDDEE3">0.52</text><text x="175.4" y="332.4" class="node" fill="#DDDEE3">0.52</text><text x="203.4" y="199.7" class="node" fill="#DDDEE3">0.52</text><text x="231.5" y="159.2" class="node" fill="#C7CBE3">0.6</text><text x="259.5" y="168.8" class="node" fill="#4A6FE3">1</text><text x="231.5" y="240.2" class="node" fill="#4A6FE3">1</text><text x="259.5" y="194.2" class="node" fill="#4A6FE3">1</text><text x="259.5" y="286.2" class="node" fill="#4A6FE3">1</text><text x="287.6" y="235.4" class="node" fill="#A8B1E2">0.71</text><text x="315.6" y="219.6" class="node" fill="#4A6FE3">1</text><text x="315.6" y="251.1" class="node" fill="#A8B1E2">0.71</text><text x="343.7" y="263.6" class="node" fill="#A8B1E2">0.71</text><text x="371.8" y="276" class="node" fill="#4A6FE3">1</text><text x="399.8" y="287.9" class="node" fill="#4A6FE3">1</text><text x="427.9" y="299" class="node" fill="#4A6FE3">1</text><text x="455.9" y="308.5" class="node" fill="#4A6FE3">1</text><text x="287.6" y="337.1" class="node" fill="#BFC4E3">0.63</text><text x="315.6" y="346.6" class="node" fill="#BCC2E3">0.64</text><text x="203.4" y="465" class="node" fill="#C1C6E3">0.62</text><text x="231.5" y="426.2" class="node" fill="#C1C6E3">0.62</text><text x="259.5" y="378.8" class="node" fill="#C7CBE3">0.6</text><text x="287.6" y="391.9" class="node" fill="#C7CBE3">0.6</text><text x="315.6" y="405.4" class="node" fill="#C7CBE3">0.6</text><text x="343.7" y="419.6" class="node" fill="#C1C6E3">0.62</text><text x="371.8" y="435.5" class="node" fill="#8394E1">0.84</text><text x="399.8" y="422.8" class="node" fill="#E6ABB6">0.32</text><text x="399.8" y="448.2" class="node" fill="#4A6FE3">1</text><text x="259.5" y="473.6" class="node" fill="#C4C9E3">0.61</text><text x="231.5" y="503.8" class="node" fill="#4A6FE3">1</text><text x="259.5" y="514.9" class="node" fill="#4A6FE3">1</text><text x="287.6" y="524.4" class="node" fill="#4A6FE3">1</text><text x="35.1" y="576.8" class="node" fill="#4A6FE3">1</text><text x="63.1" y="562.5" class="node" fill="#4A6FE3">1</text><text x="63.1" y="591.1" class="node" fill="#4A6FE3">1</text><text x="91.2" y="600.6" class="node" fill="#C1C6E3">0.62</text></svg>
