<svg xmlns="http://www.w3.org/2000/svg" version="1.1" width="682" height="555" class="tree" char="1">
 <text x="678" y="17.7" text-anchor="end" class="stepsLabel">Character adds <tspan class="score">1</tspan> to tree score</text>
 <text x="678" y="32.4" text-anchor="end" class="stepsLabel"><tspan class="score"></tspan> additional region</text>
 <text x="678" y="47.1" text-anchor="end" class="stepsLabel">CI = 1; Fitch CI = 1; Fitch RI = n/a</text>
 <text x="678" y="76.5" text-anchor="end" class="stepsLabel"><tspan dy="16">An optimal tree under:</tspan><tspan x="680" style="font-style:italic" class="thisAn" dy="1.2em">Equal weights</tspan><tspan x="680" style="font-style:italic" class="notThisAn" dy="1.2em">Implied weights, k = 2</tspan><tspan x="680" style="font-style:italic" class="notThisAn" dy="1.2em">IW, k = 3</tspan><tspan x="680" style="font-style:italic" class="notThisAn" dy="1.2em">IW, k = 4.5</tspan><tspan x="680" style="font-style:italic" class="notThisAn" dy="1.2em">IW, k = 7</tspan><tspan x="680" style="font-style:italic" class="notThisAn" dy="1.2em">IW, k = 10.5</tspan><tspan x="680" style="font-style:italic" class="notThisAn" dy="1.2em">IW, k = 16</tspan><tspan x="680" style="font-style:italic" class="notThisAn" dy="1.2em">IW, k = 24</tspan></text>
 <text x="35.1" y="8" fill="#91bfdb" class="flag">[1]</text>
 <text x="55.1" y="8" class="taxonLabel">Dailyatia</text>
 <text x="91.2" y="38.3" fill="#91bfdb" class="flag">[1]</text>
 <text x="111.2" y="38.3" class="taxonLabel">Eccentrotheca</text>
 <text x="63.1" y="23.1" fill="#fc8d59" class="flag">[0]</text>
 <text x="83.1" y="23.1" class="taxonLabel">Phoronis</text>
 <text x="119.2" y="53.4" fill="#91bfdb" class="flag">[1]</text>
 <text x="139.2" y="53.4" class="taxonLabel">Paterimitra</text>
 <text x="175.4" y="83.7" fill="#91bfdb" class="flag">[1]</text>
 <text x="195.4" y="83.7" class="taxonLabel">Pedunculotheca diania</text>
 <text x="175.4" y="68.6" fill="#91bfdb" class="flag">[1]</text>
 <text x="195.4" y="68.6" class="taxonLabel">Haplophrentis carinatus</text>
 <text x="231.5" y="98.8" fill="#91bfdb" class="flag">[1]</text>
 <text x="251.5" y="98.8" class="taxonLabel">Gasconsia</text>
 <text x="259.5" y="114" fill="#91bfdb" class="flag">[1]</text>
 <text x="279.5" y="114" class="taxonLabel">Heliomedusa orienta</text>
 <text x="287.6" y="129.1" fill="#91bfdb" class="flag">[1]</text>
 <text x="307.6" y="129.1" class="taxonLabel">Ussunia</text>
 <text x="315.6" y="159.4" fill="#91bfdb" class="flag">[1]</text>
 <text x="335.6" y="159.4" class="taxonLabel">Craniops</text>
 <text x="315.6" y="144.2" fill="#91bfdb" class="flag">[1]</text>
 <text x="335.6" y="144.2" class="taxonLabel">Novocrania</text>
 <text x="231.5" y="174.5" fill="#91bfdb" class="flag">[1]</text>
 <text x="251.5" y="174.5" class="taxonLabel">Pelagodiscus atlanticus</text>
 <text x="259.5" y="189.7" fill="#91bfdb" class="flag">[1]</text>
 <text x="279.5" y="189.7" class="taxonLabel">Mickwitzia muralensis</text>
 <text x="287.6" y="204.8" fill="#91bfdb" class="flag">[1]</text>
 <text x="307.6" y="204.8" class="taxonLabel">Micrina</text>
 <text x="315.6" y="219.9" fill="#91bfdb" class="flag">[1]</text>
 <text x="335.6" y="219.9" class="taxonLabel">Lingula</text>
 <text x="343.7" y="235.1" fill="#91bfdb" class="flag">[1]</text>
 <text x="363.7" y="235.1" class="taxonLabel">Eoobolus</text>
 <text x="371.8" y="250.2" fill="#91bfdb" class="flag">[1]</text>
 <text x="391.8" y="250.2" class="taxonLabel">Mummpikia nuda</text>
 <text x="399.8" y="265.4" fill="#91bfdb" class="flag">[1]</text>
 <text x="419.8" y="265.4" class="taxonLabel">Botsfordia</text>
 <text x="455.9" y="295.6" fill="#91bfdb" class="flag">[1]</text>
 <text x="475.9" y="295.6" class="taxonLabel">Lingulosacculus</text>
 <text x="455.9" y="280.5" fill="#91bfdb" class="flag">[1]</text>
 <text x="475.9" y="280.5" class="taxonLabel">Lingulellotreta malongensis</text>
 <text x="455.9" y="310.8" fill="#91bfdb" class="flag">[1]</text>
 <text x="475.9" y="310.8" class="taxonLabel">Clupeafumosus socialis</text>
 <text x="484" y="341.1" fill="#91bfdb" class="flag">[1]</text>
 <text x="504" y="341.1" class="taxonLabel">Acanthotretella spinosa</text>
 <text x="484" y="325.9" fill="#91bfdb" class="flag">[1]</text>
 <text x="504" y="325.9" class="taxonLabel">Siphonobolus priscus</text>
 <text x="231.5" y="371.3" fill="#91bfdb" class="flag">[1]</text>
 <text x="251.5" y="371.3" class="taxonLabel">Askepasma toddense</text>
 <text x="231.5" y="356.2" fill="#91bfdb" class="flag">[1]</text>
 <text x="251.5" y="356.2" class="taxonLabel">Micromitra</text>
 <text x="231.5" y="386.5" fill="#91bfdb" class="flag">[1]</text>
 <text x="251.5" y="386.5" class="taxonLabel">Salanygolina</text>
 <text x="287.6" y="416.8" fill="#91bfdb" class="flag">[1]</text>
 <text x="307.6" y="416.8" class="taxonLabel">Tomteluva perturbata</text>
 <text x="287.6" y="401.6" fill="#91bfdb" class="flag">[1]</text>
 <text x="307.6" y="401.6" class="taxonLabel">Yuganotheca elegans</text>
 <text x="315.6" y="462.2" fill="#91bfdb" class="flag">[1]</text>
 <text x="335.6" y="462.2" class="taxonLabel">Kutorgina chengjiangensis</text>
 <text x="343.7" y="477.3" fill="#91bfdb" class="flag">[1]</text>
 <text x="363.7" y="477.3" class="taxonLabel">Nisusia sulcata</text>
 <text x="371.8" y="492.4" fill="#91bfdb" class="flag">[1]</text>
 <text x="391.8" y="492.4" class="taxonLabel">Glyptoria</text>
 <text x="399.8" y="507.6" fill="#91bfdb" class="flag">[1]</text>
 <text x="419.8" y="507.6" class="taxonLabel">Longtancunella chengjiangensis</text>
 <text x="427.9" y="522.7" fill="#91bfdb" class="flag">[1]</text>
 <text x="447.9" y="522.7" class="taxonLabel">Alisina</text>
 <text x="455.9" y="553" fill="#91bfdb" class="flag">[1]</text>
 <text x="475.9" y="553" class="taxonLabel">Orthis</text>
 <text x="455.9" y="537.9" fill="#91bfdb" class="flag">[1]</text>
 <text x="475.9" y="537.9" class="taxonLabel">Terebratulina</text>
 <text x="315.6" y="447" fill="#91bfdb" class="flag">[1]</text>
 <text x="335.6" y="447" class="taxonLabel">Coolinia pecten</text>
 <text x="315.6" y="431.9" fill="#91bfdb" class="flag">[1]</text>
 <text x="335.6" y="431.9" class="taxonLabel">Antigonambonites planus</text>
 <path d="M5,25.7V5H33.1M5,25.7V46.4H33.1M33.1,46.4V72.7H61.1M61.1,72.7V35.3H89.2M61.1,72.7V110H89.2M89.2,110V50.4H117.2M89.2,110V169.6H117.2M117.2,169.6V73.1H145.3M145.3,73.1V65.6H173.4M145.3,73.1V80.7H173.4M117.2,169.6V266.2H145.3M145.3,266.2V148.4H173.4M173.4,148.4V110H201.4M201.4,110V95.8H229.5M201.4,110V124.2H229.5M229.5,124.2V111H257.5M229.5,124.2V137.5H257.5M257.5,137.5V126.1H285.6M257.5,137.5V148.8H285.6M285.6,148.8V141.2H313.6M285.6,148.8V156.4H313.6M173.4,148.4V186.7H201.4M201.4,186.7V171.5H229.5M201.4,186.7V202H229.5M229.5,202V186.7H257.5M229.5,202V217.2H257.5M257.5,217.2V201.8H285.6M257.5,217.2V232.7H285.6M285.6,232.7V216.9H313.6M285.6,232.7V248.4H313.6M313.6,248.4V232.1H341.7M313.6,248.4V264.7H341.7M341.7,264.7V247.2H369.8M341.7,264.7V282.2H369.8M369.8,282.2V262.4H397.8M369.8,282.2V302.1H397.8M397.8,302.1V285.1H425.9M425.9,285.1V277.5H453.9M425.9,285.1V292.6H453.9M397.8,302.1V319.1H425.9M425.9,319.1V307.8H453.9M425.9,319.1V330.5H453.9M453.9,330.5V322.9H482M453.9,330.5V338.1H482M145.3,266.2V383.9H173.4M173.4,383.9V360.8H201.4M201.4,360.8V353.2H229.5M201.4,360.8V368.3H229.5M173.4,383.9V407.1H201.4M201.4,407.1V383.5H229.5M201.4,407.1V430.7H229.5M229.5,430.7V406.2H257.5M257.5,406.2V398.6H285.6M257.5,406.2V413.8H285.6M229.5,430.7V455.3H257.5M257.5,455.3V436.5H285.6M285.6,436.5V428.9H313.6M285.6,436.5V444H313.6M257.5,455.3V474.1H285.6M285.6,474.1V459.2H313.6M285.6,474.1V489H313.6M313.6,489V474.3H341.7M313.6,489V503.6H341.7M341.7,503.6V489.4H369.8M341.7,503.6V517.8H369.8M369.8,517.8V504.6H397.8M369.8,517.8V531.1H397.8M397.8,531.1V519.7H425.9M397.8,531.1V542.4H425.9M425.9,542.4V534.9H453.9M425.9,542.4V550H453.9" stroke="#91bfdb"></path>
 <path d="M33.1,46.4V20.1H61.1" stroke="#fc8d59"></path></svg>
