<svg xmlns="http://www.w3.org/2000/svg" version="1.1" width="682" height="612" class="tree" data-char="182"><text x="678" y="15.4" text-anchor="end" class="stepsLabel">Character adds <tspan class="score">1</tspan> to tree score</text><text x="678" y="27.8" text-anchor="end" class="stepsLabel"><tspan class="score">0</tspan> additional regions</text><text x="678" y="40.2" text-anchor="end" class="stepsLabel">CI = 1; Fitch CI = 1; Fitch RI = 1</text><text x="678" y="65" text-anchor="end" class="stepsLabel"><tspan dy="16" fill="#34caaf">An optimal tree under:</tspan><tspan x="680" style="font-style:italic" class="thisAn" dy="1.2em">Equal weights</tspan><tspan x="680" style="font-style:italic" class="notThisAn" dy="1.2em">Implied weights, k = 2</tspan><tspan x="680" style="font-style:italic" class="notThisAn" dy="1.2em">IW, k = 3</tspan><tspan x="680" style="font-style:italic" class="notThisAn" dy="1.2em">IW, k = 4.5</tspan><tspan x="680" style="font-style:italic" class="notThisAn" dy="1.2em">IW, k = 7</tspan><tspan x="680" style="font-style:italic" class="notThisAn" dy="1.2em">IW, k = 10.5</tspan><tspan x="680" style="font-style:italic" class="notThisAn" dy="1.2em">IW, k = 16</tspan><tspan x="680" style="font-style:italic" class="notThisAn" dy="1.2em">IW, k = 24</tspan></text><text x="73.1" y="594.3" fill="#91bfdb" class="flag">[1]</text><text x="95.1" y="594.3" fill="#000" class="taxonLabel">Sipunculus</text><text x="73.1" y="607" fill="#91bfdb" class="flag">[1]</text><text x="95.1" y="607" fill="#000" class="taxonLabel">Serpula</text><text x="95.9" y="568.9" fill="#91bfdb" class="flag">[1]</text><text x="117.9" y="568.9" fill="#000" class="taxonLabel">Dentalium</text><text x="95.9" y="581.6" fill="grey" class="flag">[?]</text><text x="117.9" y="581.6" fill="#999" class="taxonLabel">Wiwaxia corrugata</text><text x="73.1" y="556.2" fill="#91bfdb" class="flag">[1]</text><text x="95.1" y="556.2" fill="#000" class="taxonLabel">Tonicella</text><text x="95.9" y="530.8" fill="grey" class="flag">[?]</text><text x="117.9" y="530.8" fill="#999" class="taxonLabel">Dailyatia</text><text x="95.9" y="543.5" fill="#91bfdb" class="flag">[1]</text><text x="117.9" y="543.5" fill="#000" class="taxonLabel">Loxosomella</text><text x="73.1" y="518.1" fill="grey" class="flag">[?]</text><text x="95.1" y="518.1" fill="#999" class="taxonLabel">Eccentrotheca</text><text x="141.3" y="492.7" fill="#fc8d59" class="flag">[0]</text><text x="163.3" y="492.7" fill="#000" class="taxonLabel">Phoronis</text><text x="141.3" y="505.4" fill="grey" class="flag">[?]</text><text x="163.3" y="505.4" fill="#999" class="taxonLabel">Namacalathus</text><text x="118.6" y="480" fill="grey" class="flag">[?]</text><text x="140.6" y="480" fill="#999" class="taxonLabel">Cotyledion tylodes</text><text x="164" y="454.6" fill="grey" class="flag">[?]</text><text x="186" y="454.6" fill="#999" class="taxonLabel">Ussunia</text><text x="164" y="467.3" fill="grey" class="flag">[?]</text><text x="186" y="467.3" fill="#999" class="taxonLabel">Craniops</text><text x="232.1" y="429.2" fill="grey" class="flag">[?]</text><text x="254.1" y="429.2" fill="#999" class="taxonLabel">Pedunculotheca diania</text><text x="232.1" y="441.9" fill="grey" class="flag">[?]</text><text x="254.1" y="441.9" fill="#999" class="taxonLabel">Haplophrentis carinatus</text><text x="209.4" y="416.5" fill="grey" class="flag">[?]</text><text x="231.4" y="416.5" fill="#999" class="taxonLabel">Paterimitra</text><text x="277.6" y="391.1" fill="grey" class="flag">[?]</text><text x="299.6" y="391.1" fill="#999" class="taxonLabel">Yuganotheca elegans</text><text x="277.6" y="403.8" fill="grey" class="flag">[?]</text><text x="299.6" y="403.8" fill="#999" class="taxonLabel">Tomteluva perturbata</text><text x="323" y="365.7" fill="grey" class="flag">[?]</text><text x="345" y="365.7" fill="#999" class="taxonLabel">Coolinia pecten</text><text x="323" y="378.4" fill="grey" class="flag">[?]</text><text x="345" y="378.4" fill="#999" class="taxonLabel">Antigonambonites planus</text><text x="413.9" y="340.3" fill="grey" class="flag">[?]</text><text x="435.9" y="340.3" fill="#999" class="taxonLabel">Alisina</text><text x="413.9" y="353" fill="#fc8d59" class="flag">[0]</text><text x="435.9" y="353" fill="#000" class="taxonLabel">Terebratulina</text><text x="391.1" y="327.6" fill="grey" class="flag">[?]</text><text x="413.1" y="327.6" fill="#999" class="taxonLabel">Orthis</text><text x="368.4" y="314.9" fill="grey" class="flag">[?]</text><text x="390.4" y="314.9" fill="#999" class="taxonLabel">Glyptoria</text><text x="345.7" y="302.1" fill="grey" class="flag">[?]</text><text x="367.7" y="302.1" fill="#999" class="taxonLabel">Nisusia sulcata</text><text x="323" y="289.4" fill="grey" class="flag">[?]</text><text x="345" y="289.4" fill="#999" class="taxonLabel">Kutorgina chengjiangensis</text><text x="277.6" y="276.7" fill="grey" class="flag">[?]</text><text x="299.6" y="276.7" fill="#999" class="taxonLabel">Longtancunella chengjiangensis</text><text x="232.1" y="264" fill="grey" class="flag">[?]</text><text x="254.1" y="264" fill="#999" class="taxonLabel">Salanygolina</text><text x="254.9" y="238.6" fill="grey" class="flag">[?]</text><text x="276.9" y="238.6" fill="#999" class="taxonLabel">Askepasma toddense</text><text x="254.9" y="251.3" fill="grey" class="flag">[?]</text><text x="276.9" y="251.3" fill="#999" class="taxonLabel">Micromitra</text><text x="300.3" y="213.2" fill="grey" class="flag">[?]</text><text x="322.3" y="213.2" fill="#999" class="taxonLabel">Mickwitzia muralensis</text><text x="300.3" y="225.9" fill="#fc8d59" class="flag">[0]</text><text x="322.3" y="225.9" fill="#000" class="taxonLabel">Pelagodiscus atlanticus</text><text x="482" y="187.8" fill="grey" class="flag">[?]</text><text x="504" y="187.8" fill="#999" class="taxonLabel">Acanthotretella spinosa</text><text x="482" y="200.5" fill="grey" class="flag">[?]</text><text x="504" y="200.5" fill="#999" class="taxonLabel">Siphonobolus priscus</text><text x="459.3" y="175.1" fill="grey" class="flag">[?]</text><text x="481.3" y="175.1" fill="#999" class="taxonLabel">Clupeafumosus socialis</text><text x="436.6" y="162.4" fill="grey" class="flag">[?]</text><text x="458.6" y="162.4" fill="#999" class="taxonLabel">Lingulosacculus</text><text x="413.9" y="149.7" fill="grey" class="flag">[?]</text><text x="435.9" y="149.7" fill="#999" class="taxonLabel">Lingulellotreta malongensis</text><text x="391.1" y="137" fill="grey" class="flag">[?]</text><text x="413.1" y="137" fill="#999" class="taxonLabel">Botsfordia</text><text x="368.4" y="124.3" fill="grey" class="flag">[?]</text><text x="390.4" y="124.3" fill="#999" class="taxonLabel">Mummpikia nuda</text><text x="345.7" y="111.6" fill="grey" class="flag">[?]</text><text x="367.7" y="111.6" fill="#999" class="taxonLabel">Eoobolus</text><text x="323" y="98.9" fill="#fc8d59" class="flag">[0]</text><text x="345" y="98.9" fill="#000" class="taxonLabel">Lingula</text><text x="300.3" y="86.2" fill="grey" class="flag">[?]</text><text x="322.3" y="86.2" fill="#999" class="taxonLabel">Micrina</text><text x="277.6" y="60.8" fill="#fc8d59" class="flag">[0]</text><text x="299.6" y="60.8" fill="#000" class="taxonLabel">Novocrania</text><text x="277.6" y="73.5" fill="grey" class="flag">[?]</text><text x="299.6" y="73.5" fill="#999" class="taxonLabel">Heliomedusa orienta</text><text x="164" y="48.1" fill="grey" class="flag">[?]</text><text x="186" y="48.1" fill="#999" class="taxonLabel">Gasconsia</text><text x="118.6" y="35.4" fill="grey" class="flag">[?]</text><text x="140.6" y="35.4" fill="#999" class="taxonLabel">Halkieria evangelista</text><text x="95.9" y="10" fill="#fc8d59" class="flag">[0]</text><text x="117.9" y="10" fill="#000" class="taxonLabel">Flustra</text><text x="95.9" y="22.7" fill="#fc8d59" class="flag">[0]</text><text x="117.9" y="22.7" fill="#000" class="taxonLabel">Amathia</text><path d="M5,464.4V348.7H27.7M27.7,348.7V524.6H50.4M50.4,524.6V515.1H73.1M50.4,524.6V534.1H73.1M73.1,534.1V527.8H95.9M73.1,534.1V540.5H95.9M5,464.4V580.2H27.7M27.7,580.2V562.7H50.4M50.4,562.7V553.2H73.1M50.4,562.7V572.2H73.1M73.1,572.2V565.9H95.9M73.1,572.2V578.6H95.9M27.7,580.2V597.6H50.4M50.4,597.6V591.3H73.1M50.4,597.6V604H73.1" stroke="#91bfdb"></path><path d="M27.7,348.7V172.8H50.4M50.4,172.8V13.4H73.1M73.1,13.4V7H95.9M73.1,13.4V19.7H95.9M50.4,172.8V332.2H73.1M73.1,332.2V177.8H95.9M95.9,177.8V32.4H118.6M95.9,177.8V323.2H118.6M118.6,323.2V188.4H141.3M141.3,188.4V45.1H164M141.3,188.4V331.8H164M164,331.8V240.6H186.7M186.7,240.6V176.1H209.4M209.4,176.1V110.2H232.1M232.1,110.2V64.2H254.9M254.9,64.2V57.8H277.6M254.9,64.2V70.5H277.6M232.1,110.2V156.2H254.9M254.9,156.2V95.9H277.6M277.6,95.9V83.2H300.3M277.6,95.9V108.6H300.3M300.3,108.6V95.9H323M300.3,108.6V121.2H323M323,121.2V108.6H345.7M323,121.2V133.8H345.7M345.7,133.8V121.3H368.4M345.7,133.8V146.3H368.4M368.4,146.3V134H391.1M368.4,146.3V158.6H391.1M391.1,158.6V146.7H413.9M391.1,158.6V170.5H413.9M413.9,170.5V159.4H436.6M413.9,170.5V181.7H436.6M436.6,181.7V172.1H459.3M436.6,181.7V191.2H459.3M459.3,191.2V184.8H482M459.3,191.2V197.5H482M254.9,156.2V216.6H277.6M277.6,216.6V210.2H300.3M277.6,216.6V222.9H300.3M209.4,176.1V242H232.1M232.1,242V235.6H254.9M232.1,242V248.3H254.9M186.7,240.6V305.1H209.4M209.4,305.1V261H232.1M209.4,305.1V349.1H232.1M232.1,349.1V303.8H254.9M254.9,303.8V273.7H277.6M254.9,303.8V333.9H277.6M277.6,333.9V298.8H300.3M300.3,298.8V286.4H323M300.3,298.8V311.1H323M323,311.1V299.1H345.7M323,311.1V323H345.7M345.7,323V311.9H368.4M345.7,323V334.1H368.4M368.4,334.1V324.6H391.1M368.4,334.1V343.6H391.1M391.1,343.6V337.3H413.9M391.1,343.6V350H413.9M277.6,333.9V369H300.3M300.3,369V362.7H323M300.3,369V375.4H323M232.1,349.1V394.4H254.9M254.9,394.4V388.1H277.6M254.9,394.4V400.8H277.6M164,331.8V423H186.7M186.7,423V413.5H209.4M186.7,423V432.5H209.4M209.4,432.5V426.2H232.1M209.4,432.5V438.9H232.1M118.6,323.2V457.9H141.3M141.3,457.9V451.6H164M141.3,457.9V464.3H164M73.1,332.2V486.5H95.9M95.9,486.5V477H118.6M95.9,486.5V496H118.6M118.6,496V489.7H141.3M118.6,496V502.4H141.3" stroke="#fc8d59"></path><text x="7" y="467.4" class="node" fill="#4A6FE3">1</text><text x="29.7" y="351.7" class="node" fill="#4A6FE3">1</text><text x="52.4" y="175.8" class="node" fill="#D7D9E3">0.54</text><text x="75.1" y="16.4" class="node" fill="#4A6FE3">1</text><text x="75.1" y="335.2" class="node" fill="#D7D9E3">0.54</text><text x="97.9" y="180.8" class="node" fill="#CACDE3">0.59</text><text x="120.6" y="326.2" class="node" fill="#CACDE3">0.59</text><text x="143.3" y="191.4" class="node" fill="#D7D9E3">0.54</text><text x="166" y="334.8" class="node" fill="#D7D9E3">0.54</text><text x="188.7" y="243.6" class="node" fill="#D7D9E3">0.54</text><text x="211.4" y="179.1" class="node" fill="#D7D9E3">0.54</text><text x="234.1" y="113.2" class="node" fill="#D7D9E3">0.54</text><text x="256.9" y="67.2" class="node" fill="#D7D9E3">0.54</text><text x="256.9" y="159.2" class="node" fill="#D7D9E3">0.54</text><text x="279.6" y="98.9" class="node" fill="#E5A5B1">0.3</text><text x="302.3" y="111.6" class="node" fill="#CACDE3">0.59</text><text x="325" y="124.2" class="node" fill="#D7D9E3">0.54</text><text x="347.7" y="136.8" class="node" fill="#D7D9E3">0.54</text><text x="370.4" y="149.3" class="node" fill="#D7D9E3">0.54</text><text x="393.1" y="161.6" class="node" fill="#D2D4E3">0.56</text><text x="415.9" y="173.5" class="node" fill="#95A1E2">0.78</text><text x="438.6" y="184.7" class="node" fill="#E4D6D8">0.46</text><text x="461.3" y="194.2" class="node" fill="#4A6FE3">1</text><text x="279.6" y="219.6" class="node" fill="#D7D9E3">0.54</text><text x="234.1" y="245" class="node" fill="#AEB6E2">0.69</text><text x="211.4" y="308.1" class="node" fill="#A6AFE2">0.72</text><text x="234.1" y="352.1" class="node" fill="#E28699">0.2</text><text x="256.9" y="306.8" class="node" fill="#5374E2">0.98</text><text x="279.6" y="336.9" class="node" fill="#E6C1C7">0.39</text><text x="302.3" y="301.8" class="node" fill="#E6C1C7">0.39</text><text x="325" y="314.1" class="node" fill="#E6C1C7">0.39</text><text x="347.7" y="326" class="node" fill="#E6C1C7">0.39</text><text x="370.4" y="337.1" class="node" fill="#4A6FE3">1</text><text x="393.1" y="346.6" class="node" fill="#E2899B">0.21</text><text x="302.3" y="372" class="node" fill="#4A6FE3">1</text><text x="256.9" y="397.4" class="node" fill="#B1B8E2">0.68</text><text x="188.7" y="426" class="node" fill="#D7D9E3">0.54</text><text x="211.4" y="435.5" class="node" fill="#4A6FE3">1</text><text x="143.3" y="460.9" class="node" fill="#D7D9E3">0.54</text><text x="97.9" y="489.5" class="node" fill="#A0ABE2">0.74</text><text x="120.6" y="499" class="node" fill="#5B78E2">0.96</text><text x="52.4" y="527.6" class="node" fill="#D7D9E3">0.54</text><text x="75.1" y="537.1" class="node" fill="#D7D9E3">0.54</text><text x="29.7" y="583.2" class="node" fill="#4A6FE3">1</text><text x="52.4" y="565.7" class="node" fill="#4A6FE3">1</text><text x="75.1" y="575.2" class="node" fill="#4A6FE3">1</text><text x="52.4" y="600.6" class="node" fill="#4A6FE3">1</text></svg>
