<svg xmlns="http://www.w3.org/2000/svg" version="1.1" width="682" height="555" class="tree" char="3">
 <text x="678" y="17.7" text-anchor="end" class="stepsLabel">Character adds <tspan class="score">1</tspan> to tree score</text>
 <text x="678" y="32.4" text-anchor="end" class="stepsLabel"><tspan class="score"></tspan> additional region</text>
 <text x="678" y="47.1" text-anchor="end" class="stepsLabel">CI = 1; Fitch CI = 1; Fitch RI = 1</text>
 <text x="678" y="76.5" text-anchor="end" class="stepsLabel"><tspan dy="16">An optimal tree under:</tspan><tspan x="680" style="font-style:italic" class="notThisAn" dy="1.2em">Equal weights</tspan><tspan x="680" style="font-style:italic" class="notThisAn" dy="1.2em">Implied weights, k = 2</tspan><tspan x="680" style="font-style:italic" class="notThisAn" dy="1.2em">IW, k = 3</tspan><tspan x="680" style="font-style:italic" class="notThisAn" dy="1.2em">IW, k = 4.5</tspan><tspan x="680" style="font-style:italic" class="thisAn" dy="1.2em">IW, k = 7</tspan><tspan x="680" style="font-style:italic" class="thisAn" dy="1.2em">IW, k = 10.5</tspan><tspan x="680" style="font-style:italic" class="thisAn" dy="1.2em">IW, k = 16</tspan><tspan x="680" style="font-style:italic" class="thisAn" dy="1.2em">IW, k = 24</tspan></text>
 <text x="35.1" y="8" fill="#fc8d59" class="flag">[0]</text>
 <text x="55.1" y="8" class="taxonLabel">Dailyatia</text>
 <text x="91.2" y="38.3" fill="#fc8d59" class="flag">[0]</text>
 <text x="111.2" y="38.3" class="taxonLabel">Eccentrotheca</text>
 <text x="63.1" y="23.1" fill="lightgrey" class="flag">[-]</text>
 <text x="83.1" y="23.1" class="taxonLabel">Phoronis</text>
 <text x="119.2" y="53.4" fill="#fc8d59" class="flag">[0]</text>
 <text x="139.2" y="53.4" class="taxonLabel">Paterimitra</text>
 <text x="231.5" y="68.6" fill="#91bfdb" class="flag">[1]</text>
 <text x="251.5" y="68.6" class="taxonLabel">Micromitra</text>
 <text x="231.5" y="83.7" fill="#91bfdb" class="flag">[1]</text>
 <text x="251.5" y="83.7" class="taxonLabel">Askepasma toddense</text>
 <text x="259.5" y="235.1" fill="#91bfdb" class="flag">[1]</text>
 <text x="279.5" y="235.1" class="taxonLabel">Salanygolina</text>
 <text x="287.6" y="265.4" fill="#91bfdb" class="flag">[1]</text>
 <text x="307.6" y="265.4" class="taxonLabel">Tomteluva perturbata</text>
 <text x="287.6" y="250.2" fill="#91bfdb" class="flag">[1]</text>
 <text x="307.6" y="250.2" class="taxonLabel">Yuganotheca elegans</text>
 <text x="287.6" y="114" fill="#91bfdb" class="flag">[1]</text>
 <text x="307.6" y="114" class="taxonLabel">Coolinia pecten</text>
 <text x="287.6" y="98.8" fill="#91bfdb" class="flag">[1]</text>
 <text x="307.6" y="98.8" class="taxonLabel">Antigonambonites planus</text>
 <text x="287.6" y="129.1" fill="#91bfdb" class="flag">[1]</text>
 <text x="307.6" y="129.1" class="taxonLabel">Kutorgina chengjiangensis</text>
 <text x="315.6" y="144.2" fill="#91bfdb" class="flag">[1]</text>
 <text x="335.6" y="144.2" class="taxonLabel">Nisusia sulcata</text>
 <text x="343.7" y="159.4" fill="#91bfdb" class="flag">[1]</text>
 <text x="363.7" y="159.4" class="taxonLabel">Glyptoria</text>
 <text x="371.8" y="174.5" fill="#91bfdb" class="flag">[1]</text>
 <text x="391.8" y="174.5" class="taxonLabel">Longtancunella chengjiangensis</text>
 <text x="399.8" y="189.7" fill="#91bfdb" class="flag">[1]</text>
 <text x="419.8" y="189.7" class="taxonLabel">Alisina</text>
 <text x="427.9" y="219.9" fill="#91bfdb" class="flag">[1]</text>
 <text x="447.9" y="219.9" class="taxonLabel">Terebratulina</text>
 <text x="427.9" y="204.8" fill="#91bfdb" class="flag">[1]</text>
 <text x="447.9" y="204.8" class="taxonLabel">Orthis</text>
 <text x="231.5" y="280.5" fill="#91bfdb" class="flag">[1]</text>
 <text x="251.5" y="280.5" class="taxonLabel">Gasconsia</text>
 <text x="259.5" y="295.6" fill="#91bfdb" class="flag">[1]</text>
 <text x="279.5" y="295.6" class="taxonLabel">Heliomedusa orienta</text>
 <text x="287.6" y="310.8" fill="#91bfdb" class="flag">[1]</text>
 <text x="307.6" y="310.8" class="taxonLabel">Ussunia</text>
 <text x="315.6" y="341.1" fill="#91bfdb" class="flag">[1]</text>
 <text x="335.6" y="341.1" class="taxonLabel">Novocrania</text>
 <text x="315.6" y="325.9" fill="#91bfdb" class="flag">[1]</text>
 <text x="335.6" y="325.9" class="taxonLabel">Craniops</text>
 <text x="231.5" y="356.2" fill="#91bfdb" class="flag">[1]</text>
 <text x="251.5" y="356.2" class="taxonLabel">Pelagodiscus atlanticus</text>
 <text x="259.5" y="371.3" fill="#91bfdb" class="flag">[1]</text>
 <text x="279.5" y="371.3" class="taxonLabel">Mickwitzia muralensis</text>
 <text x="287.6" y="386.5" fill="#91bfdb" class="flag">[1]</text>
 <text x="307.6" y="386.5" class="taxonLabel">Micrina</text>
 <text x="315.6" y="401.6" fill="#91bfdb" class="flag">[1]</text>
 <text x="335.6" y="401.6" class="taxonLabel">Lingula</text>
 <text x="343.7" y="416.8" fill="#91bfdb" class="flag">[1]</text>
 <text x="363.7" y="416.8" class="taxonLabel">Eoobolus</text>
 <text x="371.8" y="431.9" fill="#91bfdb" class="flag">[1]</text>
 <text x="391.8" y="431.9" class="taxonLabel">Mummpikia nuda</text>
 <text x="399.8" y="447" fill="#91bfdb" class="flag">[1]</text>
 <text x="419.8" y="447" class="taxonLabel">Botsfordia</text>
 <text x="427.9" y="462.2" fill="#91bfdb" class="flag">[1]</text>
 <text x="447.9" y="462.2" class="taxonLabel">Lingulellotreta malongensis</text>
 <text x="484" y="477.3" fill="#91bfdb" class="flag">[1]</text>
 <text x="504" y="477.3" class="taxonLabel">Clupeafumosus socialis</text>
 <text x="484" y="492.4" fill="#91bfdb" class="flag">[1]</text>
 <text x="504" y="492.4" class="taxonLabel">Lingulosacculus</text>
 <text x="484" y="507.6" fill="#91bfdb" class="flag">[1]</text>
 <text x="504" y="507.6" class="taxonLabel">Siphonobolus priscus</text>
 <text x="484" y="522.7" fill="#91bfdb" class="flag">[1]</text>
 <text x="504" y="522.7" class="taxonLabel">Acanthotretella spinosa</text>
 <text x="175.4" y="553" fill="grey" class="flag">[01]</text>
 <text x="195.4" y="553" class="taxonLabel">Haplophrentis carinatus</text>
 <text x="175.4" y="537.9" fill="#91bfdb" class="flag">[1]</text>
 <text x="195.4" y="537.9" class="taxonLabel">Pedunculotheca diania</text>
 <path d="M5,39.2V5H33.1M5,39.2V73.4H33.1M33.1,73.4V126.7H61.1M61.1,126.7V35.3H89.2M61.1,126.7V218.1H89.2M89.2,218.1V50.4H117.2" stroke="#fc8d59"></path>
 <path d="M33.1,73.4V20.1H61.1" stroke="lightgrey" class="inapplicable"></path>
 <path d="M89.2,218.1V385.7H117.2M117.2,385.7V229H145.3M145.3,229V128H173.4M173.4,128V73.1H201.4M201.4,73.1V65.6H229.5M201.4,73.1V80.7H229.5M173.4,128V182.8H201.4M201.4,182.8V122.2H229.5M229.5,122.2V103.4H257.5M257.5,103.4V95.8H285.6M257.5,103.4V111H285.6M229.5,122.2V141H257.5M257.5,141V126.1H285.6M257.5,141V155.9H285.6M285.6,155.9V141.2H313.6M285.6,155.9V170.6H313.6M313.6,170.6V156.4H341.7M313.6,170.6V184.8H341.7M341.7,184.8V171.5H369.8M341.7,184.8V198H369.8M369.8,198V186.7H397.8M369.8,198V209.4H397.8M397.8,209.4V201.8H425.9M397.8,209.4V216.9H425.9M201.4,182.8V243.4H229.5M229.5,243.4V232.1H257.5M229.5,243.4V254.8H257.5M257.5,254.8V247.2H285.6M257.5,254.8V262.4H285.6M145.3,229V330H173.4M173.4,330V291.7H201.4M201.4,291.7V277.5H229.5M201.4,291.7V305.9H229.5M229.5,305.9V292.6H257.5M229.5,305.9V319.1H257.5M257.5,319.1V307.8H285.6M257.5,319.1V330.5H285.6M285.6,330.5V322.9H313.6M285.6,330.5V338.1H313.6M173.4,330V368.4H201.4M201.4,368.4V353.2H229.5M201.4,368.4V383.5H229.5M229.5,383.5V368.3H257.5M229.5,383.5V398.7H257.5M257.5,398.7V383.5H285.6M257.5,398.7V414H285.6M285.6,414V398.6H313.6M285.6,414V429.4H313.6M313.6,429.4V413.8H341.7M313.6,429.4V445H341.7M341.7,445V428.9H369.8M341.7,445V461.1H369.8M369.8,461.1V444H397.8M369.8,461.1V478.1H397.8M397.8,478.1V459.2H425.9M397.8,478.1V497H425.9M425.9,497V481.9H453.9M453.9,481.9V474.3H482M453.9,481.9V489.4H482M425.9,497V512.2H453.9M453.9,512.2V504.6H482M453.9,512.2V519.7H482M117.2,385.7V542.4H145.3M145.3,542.4V534.9H173.4M145.3,542.4V550H173.4" stroke="#91bfdb"></path></svg>
