<svg xmlns="http://www.w3.org/2000/svg" version="1.1" width="682" height="555" class="tree" char="23">
 <text x="678" y="17.6" text-anchor="end" class="stepsLabel">Character adds <tspan class="score">6</tspan> to tree score</text>
 <text x="678" y="32.2" text-anchor="end" class="stepsLabel"><tspan class="score"></tspan> additional region</text>
 <text x="678" y="46.8" text-anchor="end" class="stepsLabel">CI = 0.17; Fitch CI = 0.17; Fitch RI = 0.62</text>
 <text x="678" y="76" text-anchor="end" class="stepsLabel"><tspan dy="16">An optimal tree under:</tspan><tspan x="680" style="font-style:italic" class="notThisAn" dy="1.2em">Equal weights</tspan><tspan x="680" style="font-style:italic" class="notThisAn" dy="1.2em">Implied weights, k = 2</tspan><tspan x="680" style="font-style:italic" class="notThisAn" dy="1.2em">IW, k = 3</tspan><tspan x="680" style="font-style:italic" class="thisAn" dy="1.2em">IW, k = 4.5</tspan><tspan x="680" style="font-style:italic" class="notThisAn" dy="1.2em">IW, k = 7</tspan><tspan x="680" style="font-style:italic" class="notThisAn" dy="1.2em">IW, k = 10.5</tspan><tspan x="680" style="font-style:italic" class="notThisAn" dy="1.2em">IW, k = 16</tspan><tspan x="680" style="font-style:italic" class="notThisAn" dy="1.2em">IW, k = 24</tspan></text>
 <text x="34.8" y="10" fill="lightgrey" class="flag">[-]</text>
 <text x="56.8" y="10" class="taxonLabel">Dailyatia</text>
 <text x="64.6" y="25" fill="lightgrey" class="flag">[-]</text>
 <text x="86.6" y="25" class="taxonLabel">Phoronis</text>
 <text x="94.4" y="40" fill="lightgrey" class="flag">[-]</text>
 <text x="116.4" y="40" class="taxonLabel">Eccentrotheca</text>
 <text x="124.2" y="55" fill="#91bfdb" class="flag">[1]</text>
 <text x="146.2" y="55" class="taxonLabel">Paterimitra</text>
 <text x="183.9" y="70" fill="#fc8d59" class="flag">[0]</text>
 <text x="205.9" y="70" class="taxonLabel">Micrina</text>
 <text x="273.3" y="85" fill="#fc8d59" class="flag">[0]</text>
 <text x="295.3" y="85" class="taxonLabel">Gasconsia</text>
 <text x="303.1" y="100" fill="#fc8d59" class="flag">[0]</text>
 <text x="325.1" y="100" class="taxonLabel">Heliomedusa orienta</text>
 <text x="332.9" y="115" fill="#fc8d59" class="flag">[0]</text>
 <text x="354.9" y="115" class="taxonLabel">Ussunia</text>
 <text x="362.8" y="145" fill="#fc8d59" class="flag">[0]</text>
 <text x="384.8" y="145" class="taxonLabel">Novocrania</text>
 <text x="362.8" y="130" fill="#fc8d59" class="flag">[0]</text>
 <text x="384.8" y="130" class="taxonLabel">Craniops</text>
 <text x="303.1" y="175" fill="#fc8d59" class="flag">[0]</text>
 <text x="325.1" y="175" class="taxonLabel">Mickwitzia muralensis</text>
 <text x="303.1" y="160" fill="#fc8d59" class="flag">[0]</text>
 <text x="325.1" y="160" class="taxonLabel">Pelagodiscus atlanticus</text>
 <text x="303.1" y="190" fill="#fc8d59" class="flag">[0]</text>
 <text x="325.1" y="190" class="taxonLabel">Lingula</text>
 <text x="392.6" y="220" fill="#91bfdb" class="flag">[1]</text>
 <text x="414.6" y="220" class="taxonLabel">Clupeafumosus socialis</text>
 <text x="392.6" y="205" fill="grey" class="flag">[?]</text>
 <text x="414.6" y="205" class="taxonLabel">Lingulosacculus</text>
 <text x="392.6" y="235" fill="#fc8d59" class="flag">[0]</text>
 <text x="414.6" y="235" class="taxonLabel">Acanthotretella spinosa</text>
 <text x="392.6" y="250" fill="grey" class="flag">[01]</text>
 <text x="414.6" y="250" class="taxonLabel">Siphonobolus priscus</text>
 <text x="362.8" y="265" fill="#fc8d59" class="flag">[0]</text>
 <text x="384.8" y="265" class="taxonLabel">Lingulellotreta malongensis</text>
 <text x="392.6" y="280" fill="#fc8d59" class="flag">[0]</text>
 <text x="414.6" y="280" class="taxonLabel">Botsfordia</text>
 <text x="422.4" y="310" fill="grey" class="flag">[?]</text>
 <text x="444.4" y="310" class="taxonLabel">Mummpikia nuda</text>
 <text x="422.4" y="295" fill="#91bfdb" class="flag">[1]</text>
 <text x="444.4" y="295" class="taxonLabel">Eoobolus</text>
 <text x="273.3" y="520" fill="#91bfdb" class="flag">[1]</text>
 <text x="295.3" y="520" class="taxonLabel">Askepasma toddense</text>
 <text x="273.3" y="505" fill="#91bfdb" class="flag">[1]</text>
 <text x="295.3" y="505" class="taxonLabel">Micromitra</text>
 <text x="303.1" y="325" fill="#91bfdb" class="flag">[1]</text>
 <text x="325.1" y="325" class="taxonLabel">Salanygolina</text>
 <text x="332.9" y="355" fill="grey" class="flag">[?]</text>
 <text x="354.9" y="355" class="taxonLabel">Yuganotheca elegans</text>
 <text x="332.9" y="340" fill="#fc8d59" class="flag">[0]</text>
 <text x="354.9" y="340" class="taxonLabel">Tomteluva perturbata</text>
 <text x="332.9" y="385" fill="#91bfdb" class="flag">[1]</text>
 <text x="354.9" y="385" class="taxonLabel">Coolinia pecten</text>
 <text x="332.9" y="370" fill="#91bfdb" class="flag">[1]</text>
 <text x="354.9" y="370" class="taxonLabel">Antigonambonites planus</text>
 <text x="332.9" y="400" fill="#91bfdb" class="flag">[1]</text>
 <text x="354.9" y="400" class="taxonLabel">Kutorgina chengjiangensis</text>
 <text x="362.8" y="415" fill="#91bfdb" class="flag">[1]</text>
 <text x="384.8" y="415" class="taxonLabel">Nisusia sulcata</text>
 <text x="392.6" y="430" fill="#91bfdb" class="flag">[1]</text>
 <text x="414.6" y="430" class="taxonLabel">Glyptoria</text>
 <text x="422.4" y="445" fill="grey" class="flag">[?]</text>
 <text x="444.4" y="445" class="taxonLabel">Longtancunella chengjiangensis</text>
 <text x="452.2" y="460" fill="#91bfdb" class="flag">[1]</text>
 <text x="474.2" y="460" class="taxonLabel">Alisina</text>
 <text x="482" y="490" fill="#91bfdb" class="flag">[1]</text>
 <text x="504" y="490" class="taxonLabel">Terebratulina</text>
 <text x="482" y="475" fill="#fc8d59" class="flag">[0]</text>
 <text x="504" y="475" class="taxonLabel">Orthis</text>
 <text x="183.9" y="550" fill="#91bfdb" class="flag">[1]</text>
 <text x="205.9" y="550" class="taxonLabel">Haplophrentis carinatus</text>
 <text x="183.9" y="535" fill="grey" class="flag">[01]</text>
 <text x="205.9" y="535" class="taxonLabel">Pedunculotheca diania</text>
 <path d="M5,39.3V7H34.8M5,39.3V71.6H34.8M34.8,71.6V22H64.6M34.8,71.6V121.3H64.6M64.6,121.3V37H94.4" stroke="lightgrey" class="inapplicable"></path>
 <path d="M64.6,121.3V205.5H94.4M94.4,205.5V52H124.2M94.4,205.5V359H124.2M124.2,359V178.5H154.1M362.8,209.5V217H392.6M392.6,299.5V292H422.4M183.9,290.1V436.3H213.7M213.7,436.3V363.2H243.5M243.5,363.2V333.2H273.3M273.3,333.2V322H303.1M273.3,333.2V344.5H303.1M243.5,363.2V393.1H273.3M273.3,393.1V374.5H303.1M303.1,374.5V367H332.9M303.1,374.5V382H332.9M273.3,393.1V411.8H303.1M303.1,411.8V397H332.9M303.1,411.8V426.5H332.9M332.9,426.5V412H362.8M332.9,426.5V441.1H362.8M362.8,441.1V427H392.6M362.8,441.1V455.1H392.6M392.6,455.1V442H422.4M392.6,455.1V468.2H422.4M422.4,468.2V457H452.2M422.4,468.2V479.5H452.2M452.2,479.5V487H482M213.7,436.3V509.5H243.5M243.5,509.5V502H273.3M243.5,509.5V517H273.3M124.2,359V539.5H154.1M154.1,539.5V532H183.9M154.1,539.5V547H183.9" stroke="#91bfdb"></path>
 <path d="M154.1,178.5V67H183.9M183.9,290.1V143.8H213.7M213.7,143.8V96.1H243.5M243.5,96.1V82H273.3M243.5,96.1V110.1H273.3M273.3,110.1V97H303.1M273.3,110.1V123.2H303.1M303.1,123.2V112H332.9M303.1,123.2V134.5H332.9M332.9,134.5V127H362.8M332.9,134.5V142H362.8M213.7,143.8V191.5H243.5M243.5,191.5V164.5H273.3M273.3,164.5V157H303.1M273.3,164.5V172H303.1M243.5,191.5V218.4H273.3M273.3,218.4V187H303.1M273.3,218.4V249.8H303.1M303.1,249.8V224.5H332.9M332.9,224.5V209.5H362.8M332.9,224.5V239.5H362.8M362.8,239.5V232H392.6M362.8,239.5V247H392.6M303.1,249.8V275.1H332.9M332.9,275.1V262H362.8M332.9,275.1V288.2H362.8M362.8,288.2V277H392.6M362.8,288.2V299.5H392.6M303.1,344.5V337H332.9M452.2,479.5V472H482" stroke="#fc8d59"></path>
 <path d="M154.1,178.5V290.1H183.9M362.8,209.5V202H392.6M392.6,299.5V307H422.4M303.1,344.5V352H332.9" stroke="darkgrey"></path>
 <text x="7" y="42.3" class="node" fill="#4A6FE3">1</text>
 <text x="36.8" y="74.6" class="node" fill="#4A6FE3">1</text>
 <text x="66.6" y="124.3" class="node" fill="#E6B1BB">0.34</text>
 <text x="96.4" y="208.5" class="node" fill="#4A6FE3">1</text>
 <text x="126.2" y="362" class="node" fill="#4A6FE3">1</text>
 <text x="156.1" y="181.5" class="node" fill="#7A8DE1">0.87</text>
 <text x="185.9" y="293.1" class="node" fill="#DD6F88">0.13</text>
 <text x="215.7" y="146.8" class="node" fill="#D95A7A">0.07</text>
 <text x="245.5" y="99.1" class="node" fill="#7A8DE1">0.87</text>
 <text x="275.3" y="113.1" class="node" fill="#7A8DE1">0.87</text>
 <text x="305.1" y="126.2" class="node" fill="#4A6FE3">1</text>
 <text x="334.9" y="137.5" class="node" fill="#4A6FE3">1</text>
 <text x="245.5" y="194.5" class="node" fill="#DD6F88">0.13</text>
 <text x="275.3" y="167.5" class="node" fill="#DD6F88">0.13</text>
 <text x="275.3" y="221.4" class="node" fill="#7A8DE1">0.87</text>
 <text x="305.1" y="252.8" class="node" fill="#7A8DE1">0.87</text>
 <text x="334.9" y="227.5" class="node" fill="#D7D9E3">0.54</text>
 <text x="364.8" y="212.5" class="node" fill="#E07C92">0.17</text>
 <text x="364.8" y="242.5" class="node" fill="#4A6FE3">1</text>
 <text x="334.9" y="278.1" class="node" fill="#E498A7">0.26</text>
 <text x="364.8" y="291.2" class="node" fill="#E498A7">0.26</text>
 <text x="394.6" y="302.5" class="node" fill="#E498A7">0.26</text>
 <text x="215.7" y="439.3" class="node" fill="#4A6FE3">1</text>
 <text x="245.5" y="366.2" class="node" fill="#4A6FE3">1</text>
 <text x="275.3" y="336.2" class="node" fill="#8C9BE1">0.81</text>
 <text x="305.1" y="347.5" class="node" fill="#6D84E1">0.91</text>
 <text x="275.3" y="396.1" class="node" fill="#4A6FE3">1</text>
 <text x="305.1" y="377.5" class="node" fill="#4A6FE3">1</text>
 <text x="305.1" y="414.8" class="node" fill="#768BE1">0.88</text>
 <text x="334.9" y="429.5" class="node" fill="#768BE1">0.88</text>
 <text x="364.8" y="444.1" class="node" fill="#768BE1">0.88</text>
 <text x="394.6" y="458.1" class="node" fill="#768BE1">0.88</text>
 <text x="424.4" y="471.2" class="node" fill="#4A6FE3">1</text>
 <text x="454.2" y="482.5" class="node" fill="#667FE1">0.93</text>
 <text x="245.5" y="512.5" class="node" fill="#4A6FE3">1</text>
 <text x="156.1" y="542.5" class="node" fill="#4A6FE3">1</text></svg>
