<svg xmlns="http://www.w3.org/2000/svg" version="1.1" width="682" height="612" class="tree" data-char="16"><text x="678" y="15.7" text-anchor="end" class="stepsLabel">Character adds <tspan class="score">2</tspan> to tree score</text><text x="678" y="28.4" text-anchor="end" class="stepsLabel"><tspan class="score">0</tspan> additional regions</text><text x="678" y="41.1" text-anchor="end" class="stepsLabel">CI = 0.5; Fitch CI = 0.5; Fitch RI = 0.67</text><text x="678" y="66.5" text-anchor="end" class="stepsLabel"><tspan dy="16">An optimal tree under:</tspan><tspan x="680" style="font-style:italic" class="thisAn" dy="1.2em">Equal weights</tspan><tspan x="680" style="font-style:italic" class="notThisAn" dy="1.2em">Implied weights, k = 2</tspan><tspan x="680" style="font-style:italic" class="notThisAn" dy="1.2em">IW, k = 3</tspan><tspan x="680" style="font-style:italic" class="notThisAn" dy="1.2em">IW, k = 4.5</tspan><tspan x="680" style="font-style:italic" class="notThisAn" dy="1.2em">IW, k = 7</tspan><tspan x="680" style="font-style:italic" class="notThisAn" dy="1.2em">IW, k = 10.5</tspan><tspan x="680" style="font-style:italic" class="notThisAn" dy="1.2em">IW, k = 16</tspan><tspan x="680" style="font-style:italic" class="notThisAn" dy="1.2em">IW, k = 24</tspan></text><text x="70" y="594" fill="#91bfdb" class="flag">[1]</text><text x="92" y="594" fill="#000" class="taxonLabel">Serpula</text><text x="70" y="607" fill="#91bfdb" class="flag">[1]</text><text x="92" y="607" fill="#000" class="taxonLabel">Sipunculus</text><text x="91.7" y="568.1" fill="#fc8d59" class="flag">[0]</text><text x="113.7" y="568.1" fill="#000" class="taxonLabel">Dentalium</text><text x="91.7" y="581" fill="#91bfdb" class="flag">[1]</text><text x="113.7" y="581" fill="#000" class="taxonLabel">Tonicella</text><text x="70" y="555.1" fill="#91bfdb" class="flag">[1]</text><text x="92" y="555.1" fill="#000" class="taxonLabel">Wiwaxia corrugata</text><text x="243.5" y="516.2" fill="grey" class="flag">[?]</text><text x="265.5" y="516.2" fill="grey" class="taxonLabel">Haplophrentis carinatus</text><text x="243.5" y="529.1" fill="grey" class="flag">[?]</text><text x="265.5" y="529.1" fill="grey" class="taxonLabel">Pedunculotheca diania</text><text x="460.3" y="490.2" fill="grey" class="flag">[?]</text><text x="482.3" y="490.2" fill="grey" class="taxonLabel">Acanthotretella spinosa</text><text x="460.3" y="503.2" fill="grey" class="flag">[?]</text><text x="482.3" y="503.2" fill="grey" class="taxonLabel">Siphonobolus priscus</text><text x="438.6" y="477.2" fill="grey" class="flag">[?]</text><text x="460.6" y="477.2" fill="grey" class="taxonLabel">Lingulosacculus</text><text x="417" y="464.2" fill="grey" class="flag">[?]</text><text x="439" y="464.2" fill="grey" class="taxonLabel">Clupeafumosus socialis</text><text x="395.3" y="451.3" fill="grey" class="flag">[?]</text><text x="417.3" y="451.3" fill="grey" class="taxonLabel">Lingulellotreta malongensis</text><text x="373.6" y="438.3" fill="grey" class="flag">[?]</text><text x="395.6" y="438.3" fill="grey" class="taxonLabel">Botsfordia</text><text x="351.9" y="425.3" fill="grey" class="flag">[?]</text><text x="373.9" y="425.3" fill="grey" class="taxonLabel">Mummpikia nuda</text><text x="330.2" y="412.3" fill="grey" class="flag">[?]</text><text x="352.2" y="412.3" fill="grey" class="taxonLabel">Eoobolus</text><text x="308.5" y="399.3" fill="#fc8d59" class="flag">[0]</text><text x="330.5" y="399.3" fill="#000" class="taxonLabel">Lingula</text><text x="330.2" y="373.4" fill="grey" class="flag">[?]</text><text x="352.2" y="373.4" fill="grey" class="taxonLabel">Mickwitzia muralensis</text><text x="330.2" y="386.4" fill="#fc8d59" class="flag">[0]</text><text x="352.2" y="386.4" fill="#000" class="taxonLabel">Pelagodiscus atlanticus</text><text x="308.5" y="360.4" fill="grey" class="flag">[?]</text><text x="330.5" y="360.4" fill="grey" class="taxonLabel">Micrina</text><text x="373.6" y="334.5" fill="grey" class="flag">[?]</text><text x="395.6" y="334.5" fill="grey" class="taxonLabel">Yuganotheca elegans</text><text x="373.6" y="347.4" fill="grey" class="flag">[?]</text><text x="395.6" y="347.4" fill="grey" class="taxonLabel">Tomteluva perturbata</text><text x="351.9" y="321.5" fill="grey" class="flag">[?]</text><text x="373.9" y="321.5" fill="grey" class="taxonLabel">Salanygolina</text><text x="482" y="295.5" fill="#fc8d59" class="flag">[0]</text><text x="504" y="295.5" fill="#000" class="taxonLabel">Terebratulina</text><text x="482" y="308.5" fill="grey" class="flag">[?]</text><text x="504" y="308.5" fill="grey" class="taxonLabel">Orthis</text><text x="460.3" y="282.5" fill="grey" class="flag">[?]</text><text x="482.3" y="282.5" fill="grey" class="taxonLabel">Alisina</text><text x="438.6" y="269.6" fill="grey" class="flag">[?]</text><text x="460.6" y="269.6" fill="grey" class="taxonLabel">Glyptoria</text><text x="417" y="256.6" fill="grey" class="flag">[?]</text><text x="439" y="256.6" fill="grey" class="taxonLabel">Nisusia sulcata</text><text x="395.3" y="243.6" fill="grey" class="flag">[?]</text><text x="417.3" y="243.6" fill="grey" class="taxonLabel">Kutorgina chengjiangensis</text><text x="395.3" y="217.7" fill="grey" class="flag">[?]</text><text x="417.3" y="217.7" fill="grey" class="taxonLabel">Coolinia pecten</text><text x="395.3" y="230.6" fill="grey" class="flag">[?]</text><text x="417.3" y="230.6" fill="grey" class="taxonLabel">Antigonambonites planus</text><text x="351.9" y="204.7" fill="grey" class="flag">[?]</text><text x="373.9" y="204.7" fill="grey" class="taxonLabel">Longtancunella chengjiangensis</text><text x="330.2" y="178.7" fill="grey" class="flag">[?]</text><text x="352.2" y="178.7" fill="grey" class="taxonLabel">Micromitra</text><text x="330.2" y="191.7" fill="grey" class="flag">[?]</text><text x="352.2" y="191.7" fill="grey" class="taxonLabel">Gasconsia</text><text x="286.9" y="165.7" fill="grey" class="flag">[?]</text><text x="308.9" y="165.7" fill="grey" class="taxonLabel">Askepasma toddense</text><text x="243.5" y="152.8" fill="grey" class="flag">[?]</text><text x="265.5" y="152.8" fill="grey" class="taxonLabel">Paterimitra</text><text x="200.1" y="139.8" fill="grey" class="flag">[?]</text><text x="222.1" y="139.8" fill="grey" class="taxonLabel">Heliomedusa orienta</text><text x="200.1" y="113.8" fill="#fc8d59" class="flag">[0]</text><text x="222.1" y="113.8" fill="#000" class="taxonLabel">Novocrania</text><text x="200.1" y="126.8" fill="grey" class="flag">[?]</text><text x="222.1" y="126.8" fill="grey" class="taxonLabel">Craniops</text><text x="156.8" y="100.8" fill="grey" class="flag">[?]</text><text x="178.8" y="100.8" fill="grey" class="taxonLabel">Ussunia</text><text x="156.8" y="74.9" fill="grey" class="flag">[?]</text><text x="178.8" y="74.9" fill="grey" class="taxonLabel">Dailyatia</text><text x="156.8" y="87.9" fill="#fc8d59" class="flag">[0]</text><text x="178.8" y="87.9" fill="#000" class="taxonLabel">Halkieria evangelista</text><text x="135.1" y="48.9" fill="#fc8d59" class="flag">[0]</text><text x="157.1" y="48.9" fill="#000" class="taxonLabel">Cotyledion tylodes</text><text x="135.1" y="61.9" fill="grey" class="flag">[?]</text><text x="157.1" y="61.9" fill="grey" class="taxonLabel">Eccentrotheca</text><text x="113.4" y="23" fill="#fc8d59" class="flag">[0]</text><text x="135.4" y="23" fill="#000" class="taxonLabel">Namacalathus</text><text x="113.4" y="36" fill="#fc8d59" class="flag">[0]</text><text x="135.4" y="36" fill="#000" class="taxonLabel">Phoronis</text><text x="70" y="10" fill="#fc8d59" class="flag">[0]</text><text x="92" y="10" fill="#000" class="taxonLabel">Flustra</text><text x="48.4" y="542.1" fill="#fc8d59" class="flag">[0]</text><text x="70.4" y="542.1" fill="#000" class="taxonLabel">Loxosomella</text><path d="M5,432.2V284.8H26.7M26.7,284.8V30.4H48.4M48.4,30.4V7H70M48.4,30.4V53.8H70M70,53.8V26.5H91.7M91.7,26.5V20H113.4M91.7,26.5V33H113.4M70,53.8V81.2H91.7M91.7,81.2V52.4H113.4M113.4,52.4V45.9H135.1M113.4,52.4V58.9H135.1M91.7,81.2V110H113.4M113.4,110V78.4H135.1M135.1,78.4V71.9H156.8M135.1,78.4V84.9H156.8M113.4,110V141.6H135.1M135.1,141.6V97.8H156.8M135.1,141.6V185.4H156.8M156.8,185.4V117.3H178.5M178.5,117.3V110.8H200.1M178.5,117.3V123.8H200.1M156.8,185.4V253.5H178.5M178.5,253.5V136.8H200.1M178.5,253.5V370.2H200.1M200.1,370.2V220.8H221.8M221.8,220.8V149.8H243.5M221.8,220.8V291.8H243.5M243.5,291.8V195.4H265.2M265.2,195.4V162.7H286.9M265.2,195.4V228H286.9M286.9,228V182.2H308.5M308.5,182.2V175.7H330.2M308.5,182.2V188.7H330.2M286.9,228V273.8H308.5M308.5,273.8V219.4H330.2M330.2,219.4V201.7H351.9M330.2,219.4V237.2H351.9M351.9,237.2V221.1H373.6M373.6,221.1V214.7H395.3M373.6,221.1V227.6H395.3M351.9,237.2V253.2H373.6M373.6,253.2V240.6H395.3M373.6,253.2V265.8H395.3M395.3,265.8V253.6H417M395.3,265.8V277.9H417M417,277.9V266.6H438.6M417,277.9V289.3H438.6M438.6,289.3V279.5H460.3M438.6,289.3V299H460.3M460.3,299V292.5H482M460.3,299V305.5H482M308.5,273.8V328.2H330.2M330.2,328.2V318.5H351.9M330.2,328.2V337.9H351.9M351.9,337.9V331.5H373.6M351.9,337.9V344.4H373.6M243.5,291.8V388.2H265.2M265.2,388.2V367.1H286.9M286.9,367.1V357.4H308.5M286.9,367.1V376.9H308.5M308.5,376.9V370.4H330.2M308.5,376.9V383.4H330.2M265.2,388.2V409.3H286.9M286.9,409.3V396.3H308.5M286.9,409.3V422.2H308.5M308.5,422.2V409.3H330.2M308.5,422.2V435.1H330.2M330.2,435.1V422.3H351.9M330.2,435.1V447.9H351.9M351.9,447.9V435.3H373.6M351.9,447.9V460.4H373.6M373.6,460.4V448.3H395.3M373.6,460.4V472.6H395.3M395.3,472.6V461.2H417M395.3,472.6V484H417M417,484V474.2H438.6M417,484V493.7H438.6M438.6,493.7V487.2H460.3M438.6,493.7V500.2H460.3M200.1,370.2V519.6H221.8M221.8,519.6V513.2H243.5M221.8,519.6V526.1H243.5M26.7,284.8V539.1H48.4M70,571.6V565.1H91.7" stroke="#fc8d59"></path><path d="M5,432.2V579.7H26.7M26.7,579.7V561.8H48.4M48.4,561.8V552.1H70M48.4,561.8V571.6H70M70,571.6V578H91.7M26.7,579.7V597.5H48.4M48.4,597.5V591H70M48.4,597.5V604H70" stroke="#91bfdb"></path><text x="7" y="435.2" class="node" fill="#4A6FE3">1</text><text x="28.7" y="287.8" class="node" fill="#4A6FE3">1</text><text x="50.4" y="33.4" class="node" fill="#6D84E1">0.91</text><text x="72" y="56.8" class="node" fill="#5B78E2">0.96</text><text x="93.7" y="29.5" class="node" fill="#7086E1">0.9</text><text x="93.7" y="84.2" class="node" fill="#6D84E1">0.91</text><text x="115.4" y="55.4" class="node" fill="#E18297">0.19</text><text x="115.4" y="113" class="node" fill="#8C9BE1">0.81</text><text x="137.1" y="81.4" class="node" fill="#A8B1E2">0.71</text><text x="137.1" y="144.6" class="node" fill="#4A6FE3">1</text><text x="158.8" y="188.4" class="node" fill="#E392A2">0.24</text><text x="180.5" y="120.3" class="node" fill="#4A6FE3">1</text><text x="180.5" y="256.5" class="node" fill="#97A4E2">0.77</text><text x="202.1" y="373.2" class="node" fill="#97A4E2">0.77</text><text x="223.8" y="223.8" class="node" fill="#E5D0D3">0.44</text><text x="245.5" y="294.8" class="node" fill="#97A4E2">0.77</text><text x="267.2" y="198.4" class="node" fill="#97A4E2">0.77</text><text x="288.9" y="231" class="node" fill="#DD6F88">0.13</text><text x="310.5" y="185.2" class="node" fill="#DADBE3">0.53</text><text x="310.5" y="276.8" class="node" fill="#4A6FE3">1</text><text x="332.2" y="222.4" class="node" fill="#7086E1">0.9</text><text x="353.9" y="240.2" class="node" fill="#BFC4E3">0.63</text><text x="375.6" y="224.1" class="node" fill="#4A6FE3">1</text><text x="375.6" y="256.2" class="node" fill="#BFC4E3">0.63</text><text x="397.3" y="268.8" class="node" fill="#BFC4E3">0.63</text><text x="419" y="280.9" class="node" fill="#BFC4E3">0.63</text><text x="440.6" y="292.3" class="node" fill="#4A6FE3">1</text><text x="462.3" y="302" class="node" fill="#AEB6E2">0.69</text><text x="332.2" y="331.2" class="node" fill="#8C9BE1">0.81</text><text x="353.9" y="340.9" class="node" fill="#5B78E2">0.96</text><text x="267.2" y="391.2" class="node" fill="#95A1E2">0.78</text><text x="288.9" y="370.1" class="node" fill="#95A1E2">0.78</text><text x="310.5" y="379.9" class="node" fill="#4A6FE3">1</text><text x="288.9" y="412.3" class="node" fill="#4A6FE3">1</text><text x="310.5" y="425.2" class="node" fill="#6D84E1">0.91</text><text x="332.2" y="438.1" class="node" fill="#95A1E2">0.78</text><text x="353.9" y="450.9" class="node" fill="#95A1E2">0.78</text><text x="375.6" y="463.4" class="node" fill="#95A1E2">0.78</text><text x="397.3" y="475.6" class="node" fill="#9DA8E2">0.75</text><text x="419" y="487" class="node" fill="#E495A5">0.25</text><text x="440.6" y="496.7" class="node" fill="#4A6FE3">1</text><text x="223.8" y="522.6" class="node" fill="#4A6FE3">1</text><text x="28.7" y="582.7" class="node" fill="#4A6FE3">1</text><text x="50.4" y="564.8" class="node" fill="#4A6FE3">1</text><text x="72" y="574.6" class="node" fill="#4A6FE3">1</text><text x="50.4" y="600.5" class="node" fill="#4A6FE3">1</text></svg>
