<svg xmlns="http://www.w3.org/2000/svg" version="1.1" width="682" height="682" class="tree" data-char="54"><text x="678" y="15.4" text-anchor="end" class="stepsLabel">Character adds <tspan class="score">3</tspan> to tree score</text><text x="678" y="27.8" text-anchor="end" class="stepsLabel"><tspan class="score">0</tspan> additional regions</text><text x="678" y="40.2" text-anchor="end" class="stepsLabel">CI = 0.33; Fitch CI = 0.33; Fitch RI = 0.78</text><text x="678" y="65" text-anchor="end" class="stepsLabel"><tspan dy="16" fill="#34caaf">An optimal tree under:</tspan><tspan x="680" style="font-style:italic" class="thisAn" dy="1.2em">Equal weights</tspan><tspan x="680" style="font-style:italic" class="notThisAn" dy="1.2em">Implied weights, k = 3</tspan><tspan x="680" style="font-style:italic" class="notThisAn" dy="1.2em">IW, k = 4.5</tspan><tspan x="680" style="font-style:italic" class="notThisAn" dy="1.2em">IW, k = 7</tspan><tspan x="680" style="font-style:italic" class="notThisAn" dy="1.2em">IW, k = 10.5</tspan><tspan x="680" style="font-style:italic" class="notThisAn" dy="1.2em">IW, k = 16</tspan><tspan x="680" style="font-style:italic" class="notThisAn" dy="1.2em">IW, k = 24</tspan></text><text x="295.3" y="664.4" fill="grey" class="flag">[?]</text><text x="317.3" y="664.4" fill="#999" class="taxonLabel">Bactrotheca</text><text x="295.3" y="677" fill="grey" class="flag">[?]</text><text x="317.3" y="677" fill="#999" class="taxonLabel">Conotheca</text><text x="274.6" y="651.8" fill="grey" class="flag">[?]</text><text x="296.6" y="651.8" fill="#999" class="taxonLabel">Cupitheca holocyclata</text><text x="316.1" y="626.7" fill="grey" class="flag">[?]</text><text x="338.1" y="626.7" fill="#999" class="taxonLabel">Pauxillites</text><text x="316.1" y="639.2" fill="grey" class="flag">[?]</text><text x="338.1" y="639.2" fill="#999" class="taxonLabel">Maxilites</text><text x="295.3" y="614.1" fill="#91bfdb" class="flag">[1]</text><text x="317.3" y="614.1" fill="#000" class="taxonLabel">Haplophrentis carinatus</text><text x="274.6" y="601.5" fill="grey" class="flag">[?]</text><text x="296.6" y="601.5" fill="#999" class="taxonLabel">Paramicrocornus</text><text x="233.1" y="588.9" fill="grey" class="flag">[?]</text><text x="255.1" y="588.9" fill="#999" class="taxonLabel">Pedunculotheca diania</text><text x="399" y="563.7" fill="grey" class="flag">[?]</text><text x="421" y="563.7" fill="#999" class="taxonLabel">Mummpikia nuda</text><text x="399" y="576.3" fill="#fc8d59" class="flag">[0]</text><text x="421" y="576.3" fill="#000" class="taxonLabel">Pelagodiscus atlanticus</text><text x="461.3" y="538.6" fill="grey" class="flag">[?]</text><text x="483.3" y="538.6" fill="#999" class="taxonLabel">Acanthotretella spinosa</text><text x="461.3" y="551.2" fill="grey" class="flag">[?]</text><text x="483.3" y="551.2" fill="#999" class="taxonLabel">Siphonobolus priscus</text><text x="440.5" y="526" fill="grey" class="flag">[?]</text><text x="462.5" y="526" fill="#999" class="taxonLabel">Clupeafumosus socialis</text><text x="419.8" y="513.4" fill="#91bfdb" class="flag">[1]</text><text x="441.8" y="513.4" fill="#000" class="taxonLabel">Lingulosacculus</text><text x="399" y="500.8" fill="#91bfdb" class="flag">[1]</text><text x="421" y="500.8" fill="#000" class="taxonLabel">Lingulellotreta malongensis</text><text x="357.6" y="488.2" fill="grey" class="flag">[?]</text><text x="379.6" y="488.2" fill="#999" class="taxonLabel">Botsfordia</text><text x="336.8" y="475.6" fill="#91bfdb" class="flag">[1]</text><text x="358.8" y="475.6" fill="#000" class="taxonLabel">Eoobolus</text><text x="316.1" y="463.1" fill="#91bfdb" class="flag">[1]</text><text x="338.1" y="463.1" fill="#000" class="taxonLabel">Lingula</text><text x="357.6" y="437.9" fill="#91bfdb" class="flag">[1]</text><text x="379.6" y="437.9" fill="#000" class="taxonLabel">Novocrania</text><text x="357.6" y="450.5" fill="grey" class="flag">[?]</text><text x="379.6" y="450.5" fill="#999" class="taxonLabel">Craniops</text><text x="336.8" y="425.3" fill="grey" class="flag">[?]</text><text x="358.8" y="425.3" fill="#999" class="taxonLabel">Ussunia</text><text x="316.1" y="412.7" fill="grey" class="flag">[?]</text><text x="338.1" y="412.7" fill="#999" class="taxonLabel">Gasconsia</text><text x="482" y="387.5" fill="#91bfdb" class="flag">[1]</text><text x="504" y="387.5" fill="#000" class="taxonLabel">Terebratulina</text><text x="482" y="400.1" fill="grey" class="flag">[?]</text><text x="504" y="400.1" fill="#999" class="taxonLabel">Orthis</text><text x="461.3" y="375" fill="grey" class="flag">[?]</text><text x="483.3" y="375" fill="#999" class="taxonLabel">Alisina</text><text x="440.5" y="362.4" fill="grey" class="flag">[?]</text><text x="462.5" y="362.4" fill="#999" class="taxonLabel">Longtancunella chengjiangensis</text><text x="419.8" y="349.8" fill="grey" class="flag">[?]</text><text x="441.8" y="349.8" fill="#999" class="taxonLabel">Glyptoria</text><text x="399" y="337.2" fill="grey" class="flag">[?]</text><text x="421" y="337.2" fill="#999" class="taxonLabel">Nisusia sulcata</text><text x="378.3" y="324.6" fill="grey" class="flag">[?]</text><text x="400.3" y="324.6" fill="#999" class="taxonLabel">Kutorgina chengjiangensis</text><text x="378.3" y="299.5" fill="grey" class="flag">[?]</text><text x="400.3" y="299.5" fill="#999" class="taxonLabel">Antigonambonites planus</text><text x="378.3" y="312" fill="grey" class="flag">[?]</text><text x="400.3" y="312" fill="#999" class="taxonLabel">Coolinia pecten</text><text x="336.8" y="286.9" fill="grey" class="flag">[?]</text><text x="358.8" y="286.9" fill="#999" class="taxonLabel">Tomteluva perturbata</text><text x="316.1" y="274.3" fill="grey" class="flag">[?]</text><text x="338.1" y="274.3" fill="#999" class="taxonLabel">Salanygolina</text><text x="316.1" y="249.1" fill="grey" class="flag">[?]</text><text x="338.1" y="249.1" fill="#999" class="taxonLabel">Micromitra</text><text x="316.1" y="261.7" fill="grey" class="flag">[?]</text><text x="338.1" y="261.7" fill="#999" class="taxonLabel">Askepasma toddense</text><text x="295.3" y="223.9" fill="grey" class="flag">[?]</text><text x="317.3" y="223.9" fill="#999" class="taxonLabel">Mickwitzia muralensis</text><text x="295.3" y="236.5" fill="#91bfdb" class="flag">[1]</text><text x="317.3" y="236.5" fill="#000" class="taxonLabel">Heliomedusa orienta</text><text x="274.6" y="211.4" fill="grey" class="flag">[?]</text><text x="296.6" y="211.4" fill="#999" class="taxonLabel">Micrina</text><text x="233.1" y="198.8" fill="#91bfdb" class="flag">[1]</text><text x="255.1" y="198.8" fill="#000" class="taxonLabel">Yuganotheca elegans</text><text x="191.7" y="186.2" fill="grey" class="flag">[?]</text><text x="213.7" y="186.2" fill="#999" class="taxonLabel">Paterimitra</text><text x="170.9" y="173.6" fill="grey" class="flag">[?]</text><text x="192.9" y="173.6" fill="#999" class="taxonLabel">Halkieria evangelista</text><text x="150.2" y="161" fill="grey" class="flag">[?]</text><text x="172.2" y="161" fill="#999" class="taxonLabel">Dailyatia</text><text x="129.4" y="148.4" fill="#fc8d59" class="flag">[0]</text><text x="151.4" y="148.4" fill="#000" class="taxonLabel">Cotyledion tylodes</text><text x="108.7" y="135.8" fill="grey" class="flag">[?]</text><text x="130.7" y="135.8" fill="#999" class="taxonLabel">Eccentrotheca</text><text x="88" y="123.3" fill="#fc8d59" class="flag">[0]</text><text x="110" y="123.3" fill="#000" class="taxonLabel">Phoronis</text><text x="67.2" y="110.7" fill="grey" class="flag">[?]</text><text x="89.2" y="110.7" fill="#999" class="taxonLabel">Namacalathus</text><text x="67.2" y="85.5" fill="#fc8d59" class="flag">[0]</text><text x="89.2" y="85.5" fill="#000" class="taxonLabel">Amathia</text><text x="67.2" y="98.1" fill="#fc8d59" class="flag">[0]</text><text x="89.2" y="98.1" fill="#000" class="taxonLabel">Flustra</text><text x="88" y="60.3" fill="#91bfdb" class="flag">[1]</text><text x="110" y="60.3" fill="#000" class="taxonLabel">Sipunculus</text><text x="88" y="72.9" fill="#fc8d59" class="flag">[0]</text><text x="110" y="72.9" fill="#000" class="taxonLabel">Serpula</text><text x="108.7" y="35.2" fill="#fc8d59" class="flag">[0]</text><text x="130.7" y="35.2" fill="#000" class="taxonLabel">Tonicella</text><text x="108.7" y="47.8" fill="#fc8d59" class="flag">[0]</text><text x="130.7" y="47.8" fill="#000" class="taxonLabel">Dentalium</text><text x="88" y="22.6" fill="#fc8d59" class="flag">[0]</text><text x="110" y="22.6" fill="#000" class="taxonLabel">Wiwaxia corrugata</text><text x="46.5" y="10" fill="#fc8d59" class="flag">[0]</text><text x="68.5" y="10" fill="#000" class="taxonLabel">Loxosomella</text><path d="M5,66V26.7H25.7M25.7,26.7V7H46.5M25.7,26.7V46.3H46.5M46.5,46.3V29H67.2M67.2,29V19.6H88M67.2,29V38.5H88M88,38.5V32.2H108.7M88,38.5V44.8H108.7M46.5,46.3V63.6H67.2M67.2,63.6V69.9H88M5,66V105.4H25.7M25.7,105.4V88.8H46.5M46.5,88.8V82.5H67.2M46.5,88.8V95.1H67.2M25.7,105.4V122H46.5M46.5,122V107.7H67.2M46.5,122V136.2H67.2M67.2,136.2V120.3H88M67.2,136.2V152.2H88M88,152.2V132.8H108.7M88,152.2V171.6H108.7M108.7,171.6V145.4H129.4M108.7,171.6V197.8H129.4M378.3,567V573.3H399" stroke="#fc8d59"></path><path d="M67.2,63.6V57.3H88M170.9,304.6V426H191.7M191.7,426V242.1H212.4M212.4,242.1V195.8H233.1M212.4,242.1V288.3H233.1M233.1,288.3V217.8H253.9M253.9,217.8V208.4H274.6M253.9,217.8V227.2H274.6M274.6,227.2V220.9H295.3M274.6,227.2V233.5H295.3M233.1,288.3V358.9H253.9M253.9,358.9V269.3H274.6M274.6,269.3V252.4H295.3M295.3,252.4V246.1H316.1M295.3,252.4V258.7H316.1M274.6,269.3V286.2H295.3M295.3,286.2V271.3H316.1M295.3,286.2V301.1H316.1M316.1,301.1V283.9H336.8M316.1,301.1V318.4H336.8M336.8,318.4V302.7H357.6M357.6,302.7V296.5H378.3M357.6,302.7V309H378.3M336.8,318.4V334H357.6M357.6,334V321.6H378.3M357.6,334V346.4H378.3M378.3,346.4V334.2H399M378.3,346.4V358.6H399M399,358.6V346.8H419.8M399,358.6V370.4H419.8M419.8,370.4V359.4H440.5M419.8,370.4V381.4H440.5M440.5,381.4V372H461.3M440.5,381.4V390.8H461.3M461.3,390.8V384.5H482M461.3,390.8V397.1H482M253.9,358.9V448.4H274.6M274.6,448.4V420.7H295.3M295.3,420.7V409.7H316.1M295.3,420.7V431.7H316.1M316.1,431.7V422.3H336.8M316.1,431.7V441.2H336.8M336.8,441.2V434.9H357.6M336.8,441.2V447.5H357.6M274.6,448.4V476.1H295.3M295.3,476.1V460.1H316.1M295.3,476.1V492.2H316.1M316.1,492.2V472.6H336.8M316.1,492.2V511.8H336.8M336.8,511.8V485.2H357.6M336.8,511.8V538.3H357.6M357.6,538.3V509.6H378.3M378.3,509.6V497.8H399M378.3,509.6V521.4H399M399,521.4V510.4H419.8M399,521.4V532.4H419.8M419.8,532.4V523H440.5M419.8,532.4V541.9H440.5M440.5,541.9V535.6H461.3M440.5,541.9V548.2H461.3M357.6,538.3V567H378.3M191.7,426V609.9H212.4M212.4,609.9V585.9H233.1M212.4,609.9V633.9H233.1M233.1,633.9V609.5H253.9M253.9,609.5V598.5H274.6M253.9,609.5V620.5H274.6M274.6,620.5V611.1H295.3M274.6,620.5V630H295.3M295.3,630V623.7H316.1M295.3,630V636.2H316.1M233.1,633.9V658.3H253.9M253.9,658.3V648.8H274.6M253.9,658.3V667.7H274.6M274.6,667.7V661.4H295.3M274.6,667.7V674H295.3" stroke="#91bfdb"></path><path d="M129.4,197.8V158H150.2M129.4,197.8V237.6H150.2M150.2,237.6V170.6H170.9M150.2,237.6V304.6H170.9M170.9,304.6V183.2H191.7M378.3,567V560.7H399" stroke="darkgrey"></path><text x="27.7" y="29.7" class="node" fill="#4A6FE3">1</text><text x="48.5" y="49.3" class="node" fill="#4A6FE3">1</text><text x="69.2" y="32" class="node" fill="red">NA</text><text x="90" y="41.5" class="node" fill="red">NA</text><text x="69.2" y="66.6" class="node" fill="red">NA</text><text x="27.7" y="108.4" class="node" fill="red">NA</text><text x="48.5" y="91.8" class="node" fill="red">NA</text><text x="48.5" y="125" class="node" fill="red">NA</text><text x="69.2" y="139.2" class="node" fill="#4A6FE3">1</text><text x="90" y="155.2" class="node" fill="red">NA</text><text x="110.7" y="174.6" class="node" fill="red">NA</text><text x="131.4" y="200.8" class="node" fill="red">NA</text><text x="152.2" y="240.6" class="node" fill="red">NA</text><text x="172.9" y="307.6" class="node" fill="red">NA</text><text x="193.7" y="429" class="node" fill="red">NA</text><text x="214.4" y="245.1" class="node" fill="red">NA</text><text x="235.1" y="291.3" class="node" fill="red">NA</text><text x="255.9" y="220.8" class="node" fill="red">NA</text><text x="276.6" y="230.2" class="node" fill="red">NA</text><text x="255.9" y="361.9" class="node" fill="#627DE1">0.94</text><text x="276.6" y="272.3" class="node" fill="#627DE1">0.94</text><text x="297.3" y="255.4" class="node" fill="red">NA</text><text x="297.3" y="289.2" class="node" fill="red">NA</text><text x="318.1" y="304.1" class="node" fill="red">NA</text><text x="338.8" y="321.4" class="node" fill="red">NA</text><text x="359.6" y="305.7" class="node" fill="red">NA</text><text x="359.6" y="337" class="node" fill="red">NA</text><text x="380.3" y="349.4" class="node" fill="#4A6FE3">1</text><text x="401" y="361.6" class="node" fill="red">NA</text><text x="421.8" y="373.4" class="node" fill="red">NA</text><text x="442.5" y="384.4" class="node" fill="red">NA</text><text x="463.3" y="393.8" class="node" fill="red">NA</text><text x="276.6" y="451.4" class="node" fill="red">NA</text><text x="297.3" y="423.7" class="node" fill="red">NA</text><text x="318.1" y="434.7" class="node" fill="red">NA</text><text x="338.8" y="444.2" class="node" fill="red">NA</text><text x="297.3" y="479.1" class="node" fill="red">NA</text><text x="318.1" y="495.2" class="node" fill="red">NA</text><text x="338.8" y="514.8" class="node" fill="red">NA</text><text x="359.6" y="541.3" class="node" fill="red">NA</text><text x="380.3" y="512.6" class="node" fill="red">NA</text><text x="401" y="524.4" class="node" fill="red">NA</text><text x="421.8" y="535.4" class="node" fill="red">NA</text><text x="442.5" y="544.9" class="node" fill="red">NA</text><text x="380.3" y="570" class="node" fill="red">NA</text><text x="214.4" y="612.9" class="node" fill="red">NA</text><text x="235.1" y="636.9" class="node" fill="red">NA</text><text x="255.9" y="612.5" class="node" fill="red">NA</text><text x="276.6" y="623.5" class="node" fill="red">NA</text><text x="297.3" y="633" class="node" fill="red">NA</text><text x="255.9" y="661.3" class="node" fill="red">NA</text><text x="276.6" y="670.7" class="node" fill="red">NA</text></svg>
