<svg xmlns="http://www.w3.org/2000/svg" version="1.1" width="682" height="682" class="tree" data-char="96"><text x="678" y="15.4" text-anchor="end" class="stepsLabel">Character adds <tspan class="score">2</tspan> to tree score</text><text x="678" y="27.8" text-anchor="end" class="stepsLabel"><tspan class="score">1</tspan> additional region</text><text x="678" y="40.2" text-anchor="end" class="stepsLabel">CI = 0.5; Fitch CI = 0.5; Fitch RI = 0.75</text><text x="678" y="65" text-anchor="end" class="stepsLabel"><tspan dy="16" fill="#34caaf">An optimal tree under:</tspan><tspan x="680" style="font-style:italic" class="thisAn" dy="1.2em">Equal weights</tspan><tspan x="680" style="font-style:italic" class="notThisAn" dy="1.2em">Implied weights, k = 2</tspan><tspan x="680" style="font-style:italic" class="notThisAn" dy="1.2em">IW, k = 3</tspan><tspan x="680" style="font-style:italic" class="notThisAn" dy="1.2em">IW, k = 4.5</tspan><tspan x="680" style="font-style:italic" class="notThisAn" dy="1.2em">IW, k = 7</tspan><tspan x="680" style="font-style:italic" class="notThisAn" dy="1.2em">IW, k = 10.5</tspan><tspan x="680" style="font-style:italic" class="notThisAn" dy="1.2em">IW, k = 16</tspan><tspan x="680" style="font-style:italic" class="notThisAn" dy="1.2em">IW, k = 24</tspan></text><text x="70" y="664.4" fill="lightgrey" class="flag">[-]</text><text x="92" y="664.4" fill="#ccc" class="taxonLabel">Serpula</text><text x="70" y="677" fill="lightgrey" class="flag">[-]</text><text x="92" y="677" fill="#ccc" class="taxonLabel">Sipunculus</text><text x="91.7" y="639.2" fill="lightgrey" class="flag">[-]</text><text x="113.7" y="639.2" fill="#ccc" class="taxonLabel">Dentalium</text><text x="91.7" y="651.8" fill="#e2e2a2" class="flag">[1]</text><text x="113.7" y="651.8" fill="#000" class="taxonLabel">Tonicella</text><text x="70" y="626.7" fill="lightgrey" class="flag">[-]</text><text x="92" y="626.7" fill="#ccc" class="taxonLabel">Wiwaxia corrugata</text><text x="395.3" y="601.5" fill="#91bfdb" class="flag">[2]</text><text x="417.3" y="601.5" fill="#000" class="taxonLabel">Antigonambonites planus</text><text x="395.3" y="614.1" fill="#91bfdb" class="flag">[2]</text><text x="417.3" y="614.1" fill="#000" class="taxonLabel">Coolinia pecten</text><text x="482" y="576.3" fill="#e2e2a2" class="flag">[1]</text><text x="504" y="576.3" fill="#000" class="taxonLabel">Orthis</text><text x="482" y="588.9" fill="lightgrey" class="flag">[-]</text><text x="504" y="588.9" fill="#ccc" class="taxonLabel">Terebratulina</text><text x="460.3" y="563.7" fill="#e2e2a2" class="flag">[1]</text><text x="482.3" y="563.7" fill="#000" class="taxonLabel">Alisina</text><text x="438.6" y="551.2" fill="#e2e2a2" class="flag">[1]</text><text x="460.6" y="551.2" fill="#000" class="taxonLabel">Glyptoria</text><text x="417" y="538.6" fill="#e2e2a2" class="flag">[1]</text><text x="439" y="538.6" fill="#000" class="taxonLabel">Nisusia sulcata</text><text x="395.3" y="526" fill="#91bfdb" class="flag">[2]</text><text x="417.3" y="526" fill="#000" class="taxonLabel">Kutorgina chengjiangensis</text><text x="351.9" y="513.4" fill="lightgrey" class="flag">[-]</text><text x="373.9" y="513.4" fill="#ccc" class="taxonLabel">Longtancunella chengjiangensis</text><text x="373.6" y="488.2" fill="lightgrey" class="flag">[-]</text><text x="395.6" y="488.2" fill="#ccc" class="taxonLabel">Yuganotheca elegans</text><text x="373.6" y="500.8" fill="#91bfdb" class="flag">[2]</text><text x="395.6" y="500.8" fill="#000" class="taxonLabel">Tomteluva perturbata</text><text x="351.9" y="475.6" fill="#91bfdb" class="flag">[2]</text><text x="373.9" y="475.6" fill="#000" class="taxonLabel">Salanygolina</text><text x="330.2" y="450.5" fill="lightgrey" class="flag">[-]</text><text x="352.2" y="450.5" fill="#ccc" class="taxonLabel">Askepasma toddense</text><text x="330.2" y="463.1" fill="lightgrey" class="flag">[-]</text><text x="352.2" y="463.1" fill="#ccc" class="taxonLabel">Micromitra</text><text x="395.3" y="425.3" fill="lightgrey" class="flag">[-]</text><text x="417.3" y="425.3" fill="#ccc" class="taxonLabel">Craniops</text><text x="395.3" y="437.9" fill="lightgrey" class="flag">[-]</text><text x="417.3" y="437.9" fill="#ccc" class="taxonLabel">Novocrania</text><text x="373.6" y="412.7" fill="lightgrey" class="flag">[-]</text><text x="395.6" y="412.7" fill="#ccc" class="taxonLabel">Ussunia</text><text x="351.9" y="400.1" fill="lightgrey" class="flag">[-]</text><text x="373.9" y="400.1" fill="#ccc" class="taxonLabel">Heliomedusa orienta</text><text x="330.2" y="387.5" fill="lightgrey" class="flag">[-]</text><text x="352.2" y="387.5" fill="#ccc" class="taxonLabel">Gasconsia</text><text x="438.6" y="362.4" fill="grey" class="flag">[?]</text><text x="460.6" y="362.4" fill="#999" class="taxonLabel">Mummpikia nuda</text><text x="438.6" y="375" fill="lightgrey" class="flag">[-]</text><text x="460.6" y="375" fill="#ccc" class="taxonLabel">Eoobolus</text><text x="417" y="349.8" fill="lightgrey" class="flag">[-]</text><text x="439" y="349.8" fill="#ccc" class="taxonLabel">Botsfordia</text><text x="395.3" y="337.2" fill="lightgrey" class="flag">[-]</text><text x="417.3" y="337.2" fill="#ccc" class="taxonLabel">Lingulellotreta malongensis</text><text x="438.6" y="312" fill="lightgrey" class="flag">[-]</text><text x="460.6" y="312" fill="#ccc" class="taxonLabel">Siphonobolus priscus</text><text x="438.6" y="324.6" fill="lightgrey" class="flag">[-]</text><text x="460.6" y="324.6" fill="#ccc" class="taxonLabel">Acanthotretella spinosa</text><text x="417" y="299.5" fill="lightgrey" class="flag">[-]</text><text x="439" y="299.5" fill="#ccc" class="taxonLabel">Clupeafumosus socialis</text><text x="395.3" y="286.9" fill="lightgrey" class="flag">[-]</text><text x="417.3" y="286.9" fill="#ccc" class="taxonLabel">Lingulosacculus</text><text x="351.9" y="274.3" fill="lightgrey" class="flag">[-]</text><text x="373.9" y="274.3" fill="#ccc" class="taxonLabel">Lingula</text><text x="351.9" y="249.1" fill="lightgrey" class="flag">[-]</text><text x="373.9" y="249.1" fill="#ccc" class="taxonLabel">Mickwitzia muralensis</text><text x="351.9" y="261.7" fill="lightgrey" class="flag">[-]</text><text x="373.9" y="261.7" fill="#ccc" class="taxonLabel">Pelagodiscus atlanticus</text><text x="265.2" y="236.5" fill="lightgrey" class="flag">[-]</text><text x="287.2" y="236.5" fill="#ccc" class="taxonLabel">Micrina</text><text x="373.6" y="211.4" fill="lightgrey" class="flag">[-]</text><text x="395.6" y="211.4" fill="#ccc" class="taxonLabel">Maxilites</text><text x="373.6" y="223.9" fill="lightgrey" class="flag">[-]</text><text x="395.6" y="223.9" fill="#ccc" class="taxonLabel">Pauxillites</text><text x="351.9" y="198.8" fill="lightgrey" class="flag">[-]</text><text x="373.9" y="198.8" fill="#ccc" class="taxonLabel">Haplophrentis carinatus</text><text x="330.2" y="186.2" fill="lightgrey" class="flag">[-]</text><text x="352.2" y="186.2" fill="#ccc" class="taxonLabel">Paramicrocornus</text><text x="330.2" y="161" fill="lightgrey" class="flag">[-]</text><text x="352.2" y="161" fill="#ccc" class="taxonLabel">Conotheca</text><text x="330.2" y="173.6" fill="lightgrey" class="flag">[-]</text><text x="352.2" y="173.6" fill="#ccc" class="taxonLabel">Bactrotheca</text><text x="286.9" y="148.4" fill="lightgrey" class="flag">[-]</text><text x="308.9" y="148.4" fill="#ccc" class="taxonLabel">Cupitheca holocyclata</text><text x="265.2" y="135.8" fill="lightgrey" class="flag">[-]</text><text x="287.2" y="135.8" fill="#ccc" class="taxonLabel">Pedunculotheca diania</text><text x="221.8" y="123.3" fill="lightgrey" class="flag">[-]</text><text x="243.8" y="123.3" fill="#ccc" class="taxonLabel">Paterimitra</text><text x="200.1" y="110.7" fill="lightgrey" class="flag">[-]</text><text x="222.1" y="110.7" fill="#ccc" class="taxonLabel">Halkieria evangelista</text><text x="178.5" y="98.1" fill="lightgrey" class="flag">[-]</text><text x="200.5" y="98.1" fill="#ccc" class="taxonLabel">Dailyatia</text><text x="156.8" y="85.5" fill="lightgrey" class="flag">[-]</text><text x="178.8" y="85.5" fill="#ccc" class="taxonLabel">Cotyledion tylodes</text><text x="135.1" y="72.9" fill="lightgrey" class="flag">[-]</text><text x="157.1" y="72.9" fill="#ccc" class="taxonLabel">Eccentrotheca</text><text x="113.4" y="60.3" fill="lightgrey" class="flag">[-]</text><text x="135.4" y="60.3" fill="#ccc" class="taxonLabel">Phoronis</text><text x="91.7" y="47.8" fill="lightgrey" class="flag">[-]</text><text x="113.7" y="47.8" fill="#ccc" class="taxonLabel">Namacalathus</text><text x="91.7" y="22.6" fill="lightgrey" class="flag">[-]</text><text x="113.7" y="22.6" fill="#ccc" class="taxonLabel">Amathia</text><text x="91.7" y="35.2" fill="lightgrey" class="flag">[-]</text><text x="113.7" y="35.2" fill="#ccc" class="taxonLabel">Flustra</text><text x="48.4" y="10" fill="lightgrey" class="flag">[-]</text><text x="70.4" y="10" fill="#ccc" class="taxonLabel">Loxosomella</text><path d="M5,337.4V24.5H26.7M26.7,24.5V7H48.4M26.7,24.5V42H48.4M48.4,42V25.9H70M70,25.9V19.6H91.7M70,25.9V32.2H91.7M48.4,42V58H70M70,58V44.8H91.7M70,58V71.3H91.7M91.7,71.3V57.3H113.4M91.7,71.3V85.3H113.4M113.4,85.3V69.9H135.1M113.4,85.3V100.7H135.1M135.1,100.7V82.5H156.8M135.1,100.7V118.8H156.8M156.8,118.8V95.1H178.5M156.8,118.8V142.5H178.5M178.5,142.5V107.7H200.1M178.5,142.5V177.3H200.1M200.1,177.3V120.3H221.8M200.1,177.3V234.4H221.8M221.8,234.4V147.6H243.5M243.5,147.6V132.8H265.2M243.5,147.6V162.3H265.2M265.2,162.3V145.4H286.9M265.2,162.3V179.3H286.9M286.9,179.3V164.3H308.5M308.5,164.3V158H330.2M308.5,164.3V170.6H330.2M286.9,179.3V194.2H308.5M308.5,194.2V183.2H330.2M308.5,194.2V205.2H330.2M330.2,205.2V195.8H351.9M330.2,205.2V214.7H351.9M351.9,214.7V208.4H373.6M351.9,214.7V220.9H373.6M221.8,234.4V321.2H243.5M243.5,321.2V233.5H265.2M243.5,321.2V408.8H265.2M265.2,408.8V335.2H286.9M286.9,335.2V274H308.5M308.5,274V252.4H330.2M330.2,252.4V246.1H351.9M330.2,252.4V258.7H351.9M308.5,274V295.7H330.2M330.2,295.7V271.3H351.9M330.2,295.7V320H351.9M351.9,320V294.9H373.6M373.6,294.9V283.9H395.3M373.6,294.9V305.9H395.3M395.3,305.9V296.5H417M395.3,305.9V315.3H417M417,315.3V309H438.6M417,315.3V321.6H438.6M351.9,320V345.2H373.6M373.6,345.2V334.2H395.3M373.6,345.2V356.2H395.3M395.3,356.2V346.8H417M395.3,356.2V365.7H417M417,365.7V359.4H438.6M417,365.7V372H438.6M286.9,335.2V396.3H308.5M308.5,396.3V384.5H330.2M308.5,396.3V408.1H330.2M330.2,408.1V397.1H351.9M330.2,408.1V419.2H351.9M351.9,419.2V409.7H373.6M351.9,419.2V428.6H373.6M373.6,428.6V422.3H395.3M373.6,428.6V434.9H395.3M265.2,408.8V482.4H286.9M286.9,482.4V453.8H308.5M308.5,453.8V447.5H330.2M308.5,453.8V460.1H330.2M351.9,491.5V485.2H373.6M330.2,540.2V510.4H351.9M460.3,579.6V585.9H482M5,337.4V650.4H26.7M26.7,650.4V633.1H48.4M48.4,633.1V623.7H70M48.4,633.1V642.5H70M70,642.5V636.2H91.7M26.7,650.4V667.7H48.4M48.4,667.7V661.4H70M48.4,667.7V674H70" stroke="lightgrey" class="inapplicable"></path><path d="M286.9,482.4V511.1H308.5M308.5,511.1V482.1H330.2M330.2,482.1V472.6H351.9M330.2,482.1V491.5H351.9M351.9,491.5V497.8H373.6M308.5,511.1V540.2H330.2M330.2,540.2V570H351.9M351.9,570V535.2H373.6M373.6,535.2V523H395.3M351.9,570V604.8H373.6M373.6,604.8V598.5H395.3M373.6,604.8V611.1H395.3" stroke="#91bfdb"></path><path d="M373.6,535.2V547.4H395.3M395.3,547.4V535.6H417M395.3,547.4V559.2H417M417,559.2V548.2H438.6M417,559.2V570.2H438.6M438.6,570.2V560.7H460.3M438.6,570.2V579.6H460.3M460.3,579.6V573.3H482M70,642.5V648.8H91.7" stroke="#e2e2a2"></path><text x="28.7" y="27.5" class="node" fill="#4A6FE3">1</text><text x="50.4" y="45" class="node" fill="#4A6FE3">1</text><text x="72" y="28.9" class="node" fill="#4A6FE3">1</text><text x="72" y="61" class="node" fill="#4A6FE3">1</text><text x="93.7" y="74.3" class="node" fill="#E6ABB6">0.32</text><text x="115.4" y="88.3" class="node" fill="#7388E1">0.89</text><text x="137.1" y="103.7" class="node" fill="#E498A7">0.26</text><text x="158.8" y="121.8" class="node" fill="#A8B1E2">0.71</text><text x="180.5" y="145.5" class="node" fill="#7388E1">0.89</text><text x="202.1" y="180.3" class="node" fill="#7388E1">0.89</text><text x="223.8" y="237.4" class="node" fill="#A8B1E2">0.71</text><text x="245.5" y="150.6" class="node" fill="#7388E1">0.89</text><text x="267.2" y="165.3" class="node" fill="#7388E1">0.89</text><text x="288.9" y="182.3" class="node" fill="#D2D4E3">0.57</text><text x="310.5" y="167.3" class="node" fill="#667FE1">0.93</text><text x="310.5" y="197.2" class="node" fill="#4A6FE3">1</text><text x="332.2" y="208.2" class="node" fill="#4A6FE3">1</text><text x="353.9" y="217.7" class="node" fill="#4A6FE3">1</text><text x="245.5" y="324.2" class="node" fill="#8998E1">0.82</text><text x="267.2" y="411.8" class="node" fill="#CFD2E3">0.58</text><text x="288.9" y="338.2" class="node" fill="#CFD2E3">0.58</text><text x="310.5" y="277" class="node" fill="#7A8DE1">0.87</text><text x="332.2" y="255.4" class="node" fill="#E6BAC2">0.37</text><text x="332.2" y="298.7" class="node" fill="#9AA6E2">0.76</text><text x="353.9" y="323" class="node" fill="#E38C9E">0.22</text><text x="375.6" y="297.9" class="node" fill="#DDDEE3">0.52</text><text x="397.3" y="308.9" class="node" fill="#DE728B">0.14</text><text x="419" y="318.3" class="node" fill="#4A6FE3">1</text><text x="375.6" y="348.2" class="node" fill="#E6ABB6">0.32</text><text x="397.3" y="359.2" class="node" fill="#D2D4E3">0.57</text><text x="419" y="368.7" class="node" fill="#E4D6D8">0.46</text><text x="310.5" y="399.3" class="node" fill="#AEB6E2">0.69</text><text x="332.2" y="411.1" class="node" fill="#E5A5B1">0.3</text><text x="353.9" y="422.2" class="node" fill="#8998E1">0.82</text><text x="375.6" y="431.6" class="node" fill="#8998E1">0.82</text><text x="288.9" y="485.4" class="node" fill="#9AA6E2">0.76</text><text x="310.5" y="456.8" class="node" fill="#768BE1">0.88</text><text x="310.5" y="514.1" class="node" fill="#7A8DE1">0.87</text><text x="332.2" y="485.1" class="node" fill="#E38FA0">0.23</text><text x="353.9" y="494.5" class="node" fill="#E6BDC5">0.38</text><text x="332.2" y="543.2" class="node" fill="#E6C1C7">0.39</text><text x="353.9" y="573" class="node" fill="#E6C1C7">0.39</text><text x="375.6" y="538.2" class="node" fill="#E6C1C7">0.39</text><text x="397.3" y="550.4" class="node" fill="#E17F94">0.18</text><text x="419" y="562.2" class="node" fill="#9AA6E2">0.76</text><text x="440.6" y="573.2" class="node" fill="#4A6FE3">1</text><text x="462.3" y="582.6" class="node" fill="#8C9BE1">0.81</text><text x="375.6" y="607.8" class="node" fill="#4A6FE3">1</text><text x="28.7" y="653.4" class="node" fill="#4A6FE3">1</text><text x="50.4" y="636.1" class="node" fill="#4A6FE3">1</text><text x="72" y="645.5" class="node" fill="#4A6FE3">1</text><text x="50.4" y="670.7" class="node" fill="#4A6FE3">1</text><circle cx="5" cy="337.4"/><text x="2" y="340.4" class="dud-step">Nonsensical Fitch step</text></svg>
