<svg xmlns="http://www.w3.org/2000/svg" version="1.1" width="682" height="612" class="tree" data-char="151"><text x="678" y="15.4" text-anchor="end" class="stepsLabel">Character adds <tspan class="score">3</tspan> to tree score</text><text x="678" y="27.8" text-anchor="end" class="stepsLabel"><tspan class="score">0</tspan> additional regions</text><text x="678" y="40.2" text-anchor="end" class="stepsLabel">CI = 0.67; Fitch CI = 0.67; Fitch RI = 0.67</text><text x="678" y="65" text-anchor="end" class="stepsLabel"><tspan dy="16" fill="#34caaf">An optimal tree under:</tspan><tspan x="680" style="font-style:italic" class="notThisAn" dy="1.2em">Equal weights</tspan><tspan x="680" style="font-style:italic" class="notThisAn" dy="1.2em">Implied weights, k = 2</tspan><tspan x="680" style="font-style:italic" class="notThisAn" dy="1.2em">IW, k = 3</tspan><tspan x="680" style="font-style:italic" class="thisAn" dy="1.2em">IW, k = 4.5</tspan><tspan x="680" style="font-style:italic" class="notThisAn" dy="1.2em">IW, k = 7</tspan><tspan x="680" style="font-style:italic" class="notThisAn" dy="1.2em">IW, k = 10.5</tspan><tspan x="680" style="font-style:italic" class="notThisAn" dy="1.2em">IW, k = 16</tspan><tspan x="680" style="font-style:italic" class="notThisAn" dy="1.2em">IW, k = 24</tspan></text><text x="100.4" y="594.3" fill="#fdae61" class="flag">[1]</text><text x="122.4" y="594.3" fill="#000" class="taxonLabel">Dentalium</text><text x="100.4" y="607" fill="#2c7bb6" class="flag">[3]</text><text x="122.4" y="607" fill="#000" class="taxonLabel">Tonicella</text><text x="76.6" y="581.6" fill="grey" class="flag">[?]</text><text x="98.6" y="581.6" fill="#999" class="taxonLabel">Wiwaxia corrugata</text><text x="76.6" y="556.2" fill="#fdae61" class="flag">[1]</text><text x="98.6" y="556.2" fill="#000" class="taxonLabel">Sipunculus</text><text x="76.6" y="568.9" fill="#fdae61" class="flag">[1]</text><text x="98.6" y="568.9" fill="#000" class="taxonLabel">Serpula</text><text x="148.1" y="518.1" fill="#abd9e9" class="flag">[2]</text><text x="170.1" y="518.1" fill="#000" class="taxonLabel">Phoronis</text><text x="148.1" y="530.8" fill="grey" class="flag">[?]</text><text x="170.1" y="530.8" fill="#999" class="taxonLabel">Namacalathus</text><text x="124.2" y="505.4" fill="grey" class="flag">[?]</text><text x="146.2" y="505.4" fill="#999" class="taxonLabel">Cotyledion tylodes</text><text x="291.2" y="480" fill="grey" class="flag">[?]</text><text x="313.2" y="480" fill="#999" class="taxonLabel">Mickwitzia muralensis</text><text x="291.2" y="492.7" fill="grey" class="flag">[?]</text><text x="313.2" y="492.7" fill="#999" class="taxonLabel">Heliomedusa orienta</text><text x="267.4" y="467.3" fill="grey" class="flag">[?]</text><text x="289.4" y="467.3" fill="#999" class="taxonLabel">Micrina</text><text x="315.1" y="441.9" fill="grey" class="flag">[?]</text><text x="337.1" y="441.9" fill="#999" class="taxonLabel">Askepasma toddense</text><text x="315.1" y="454.6" fill="grey" class="flag">[?]</text><text x="337.1" y="454.6" fill="#999" class="taxonLabel">Micromitra</text><text x="338.9" y="416.5" fill="grey" class="flag">[?]</text><text x="360.9" y="416.5" fill="#999" class="taxonLabel">Tomteluva perturbata</text><text x="338.9" y="429.2" fill="grey" class="flag">[?]</text><text x="360.9" y="429.2" fill="#999" class="taxonLabel">Salanygolina</text><text x="482" y="391.1" fill="grey" class="flag">[?]</text><text x="504" y="391.1" fill="#999" class="taxonLabel">Terebratulina</text><text x="482" y="403.8" fill="grey" class="flag">[?]</text><text x="504" y="403.8" fill="#999" class="taxonLabel">Orthis</text><text x="458.2" y="378.4" fill="grey" class="flag">[?]</text><text x="480.2" y="378.4" fill="#999" class="taxonLabel">Alisina</text><text x="434.3" y="365.7" fill="grey" class="flag">[?]</text><text x="456.3" y="365.7" fill="#999" class="taxonLabel">Longtancunella chengjiangensis</text><text x="410.5" y="353" fill="grey" class="flag">[?]</text><text x="432.5" y="353" fill="#999" class="taxonLabel">Glyptoria</text><text x="386.6" y="340.3" fill="grey" class="flag">[?]</text><text x="408.6" y="340.3" fill="#999" class="taxonLabel">Nisusia sulcata</text><text x="362.8" y="327.6" fill="grey" class="flag">[?]</text><text x="384.8" y="327.6" fill="#999" class="taxonLabel">Kutorgina chengjiangensis</text><text x="362.8" y="302.1" fill="grey" class="flag">[?]</text><text x="384.8" y="302.1" fill="#999" class="taxonLabel">Antigonambonites planus</text><text x="362.8" y="314.9" fill="grey" class="flag">[?]</text><text x="384.8" y="314.9" fill="#999" class="taxonLabel">Coolinia pecten</text><text x="362.8" y="276.7" fill="grey" class="flag">[?]</text><text x="384.8" y="276.7" fill="#999" class="taxonLabel">Mummpikia nuda</text><text x="362.8" y="289.4" fill="grey" class="flag">[?]</text><text x="384.8" y="289.4" fill="#999" class="taxonLabel">Botsfordia</text><text x="338.9" y="264" fill="grey" class="flag">[?]</text><text x="360.9" y="264" fill="#999" class="taxonLabel">Eoobolus</text><text x="386.6" y="238.6" fill="grey" class="flag">[?]</text><text x="408.6" y="238.6" fill="#999" class="taxonLabel">Lingula</text><text x="386.6" y="251.3" fill="grey" class="flag">[?]</text><text x="408.6" y="251.3" fill="#999" class="taxonLabel">Lingulellotreta malongensis</text><text x="434.3" y="213.2" fill="grey" class="flag">[?]</text><text x="456.3" y="213.2" fill="#999" class="taxonLabel">Siphonobolus priscus</text><text x="434.3" y="225.9" fill="grey" class="flag">[?]</text><text x="456.3" y="225.9" fill="#999" class="taxonLabel">Acanthotretella spinosa</text><text x="410.5" y="200.5" fill="grey" class="flag">[?]</text><text x="432.5" y="200.5" fill="#999" class="taxonLabel">Clupeafumosus socialis</text><text x="386.6" y="187.8" fill="grey" class="flag">[?]</text><text x="408.6" y="187.8" fill="#999" class="taxonLabel">Lingulosacculus</text><text x="338.9" y="175.1" fill="grey" class="flag">[?]</text><text x="360.9" y="175.1" fill="#999" class="taxonLabel">Pelagodiscus atlanticus</text><text x="362.8" y="149.7" fill="#fdae61" class="flag">[1]</text><text x="384.8" y="149.7" fill="#000" class="taxonLabel">Novocrania</text><text x="362.8" y="162.4" fill="grey" class="flag">[?]</text><text x="384.8" y="162.4" fill="#999" class="taxonLabel">Craniops</text><text x="338.9" y="137" fill="grey" class="flag">[?]</text><text x="360.9" y="137" fill="#999" class="taxonLabel">Ussunia</text><text x="315.1" y="124.3" fill="grey" class="flag">[?]</text><text x="337.1" y="124.3" fill="#999" class="taxonLabel">Gasconsia</text><text x="267.4" y="98.9" fill="grey" class="flag">[?]</text><text x="289.4" y="98.9" fill="#999" class="taxonLabel">Pedunculotheca diania</text><text x="267.4" y="111.6" fill="grey" class="flag">[?]</text><text x="289.4" y="111.6" fill="#999" class="taxonLabel">Haplophrentis carinatus</text><text x="243.5" y="86.2" fill="grey" class="flag">[?]</text><text x="265.5" y="86.2" fill="#999" class="taxonLabel">Yuganotheca elegans</text><text x="195.8" y="73.5" fill="grey" class="flag">[?]</text><text x="217.8" y="73.5" fill="#999" class="taxonLabel">Paterimitra</text><text x="172" y="60.8" fill="grey" class="flag">[?]</text><text x="194" y="60.8" fill="#999" class="taxonLabel">Halkieria evangelista</text><text x="148.1" y="48.1" fill="grey" class="flag">[?]</text><text x="170.1" y="48.1" fill="#999" class="taxonLabel">Dailyatia</text><text x="124.2" y="35.4" fill="grey" class="flag">[?]</text><text x="146.2" y="35.4" fill="#999" class="taxonLabel">Eccentrotheca</text><text x="100.4" y="10" fill="#abd9e9" class="flag">[2]</text><text x="122.4" y="10" fill="#000" class="taxonLabel">Flustra</text><text x="100.4" y="22.7" fill="#abd9e9" class="flag">[2]</text><text x="122.4" y="22.7" fill="#000" class="taxonLabel">Amathia</text><text x="52.7" y="543.5" fill="#abd9e9" class="flag">[2]</text><text x="74.7" y="543.5" fill="#000" class="taxonLabel">Loxosomella</text><path d="M5,459.1V344.3H28.9M28.9,344.3V148.2H52.7M52.7,148.2V13.4H76.6M76.6,13.4V7H100.4M76.6,13.4V19.7H100.4M52.7,148.2V283H76.6M76.6,283V54H100.4M76.6,283V511.9H100.4M100.4,511.9V502.4H124.2M100.4,511.9V521.4H124.2M124.2,521.4V515.1H148.1M124.2,521.4V527.8H148.1M28.9,344.3V540.5H52.7" stroke="#abd9e9"></path><path d="M100.4,54V32.4H124.2M100.4,54V75.7H124.2M124.2,75.7V45.1H148.1M124.2,75.7V106.2H148.1M148.1,106.2V57.8H172M148.1,106.2V154.6H172M172,154.6V70.5H195.8M172,154.6V238.6H195.8M195.8,238.6V92.7H219.7M219.7,92.7V83.2H243.5M219.7,92.7V102.3H243.5M243.5,102.3V95.9H267.4M243.5,102.3V108.6H267.4M195.8,238.6V384.6H219.7M219.7,384.6V295.3H243.5M243.5,295.3V182.7H267.4M267.4,182.7V132.4H291.2M291.2,132.4V121.3H315.1M291.2,132.4V143.5H315.1M315.1,143.5V134H338.9M315.1,143.5V153.1H338.9M338.9,153.1V159.4H362.8M267.4,182.7V233.1H291.2M291.2,233.1V195.5H315.1M315.1,195.5V172.1H338.9M315.1,195.5V219H338.9M338.9,219V195.9H362.8M362.8,195.9V184.8H386.6M362.8,195.9V207.1H386.6M386.6,207.1V197.5H410.5M386.6,207.1V216.6H410.5M410.5,216.6V210.2H434.3M410.5,216.6V222.9H434.3M338.9,219V242H362.8M362.8,242V235.6H386.6M362.8,242V248.3H386.6M291.2,233.1V270.6H315.1M315.1,270.6V261H338.9M315.1,270.6V280.1H338.9M338.9,280.1V273.7H362.8M338.9,280.1V286.4H362.8M243.5,295.3V407.9H267.4M267.4,407.9V370.5H291.2M291.2,370.5V321.3H315.1M315.1,321.3V305.5H338.9M338.9,305.5V299.1H362.8M338.9,305.5V311.9H362.8M315.1,321.3V337.1H338.9M338.9,337.1V324.6H362.8M338.9,337.1V349.6H362.8M362.8,349.6V337.3H386.6M362.8,349.6V361.9H386.6M386.6,361.9V350H410.5M386.6,361.9V373.8H410.5M410.5,373.8V362.7H434.3M410.5,373.8V384.9H434.3M434.3,384.9V375.4H458.2M434.3,384.9V394.4H458.2M458.2,394.4V388.1H482M458.2,394.4V400.8H482M291.2,370.5V419.8H315.1M315.1,419.8V413.5H338.9M315.1,419.8V426.2H338.9M267.4,407.9V445.2H291.2M291.2,445.2V438.9H315.1M291.2,445.2V451.6H315.1M219.7,384.6V473.8H243.5M243.5,473.8V464.3H267.4M243.5,473.8V483.3H267.4M267.4,483.3V477H291.2M267.4,483.3V489.7H291.2" stroke="darkgrey"></path><path d="M338.9,153.1V146.7H362.8M5,459.1V573.8H28.9M28.9,573.8V559.5H52.7M52.7,559.5V553.2H76.6M52.7,559.5V565.9H76.6M28.9,573.8V588.1H52.7M52.7,588.1V578.6H76.6M52.7,588.1V597.6H76.6M76.6,597.6V591.3H100.4" stroke="#fdae61"></path><path d="M76.6,597.6V604H100.4" stroke="#2c7bb6"></path><text x="7" y="462.1" class="node" fill="#4A6FE3">1</text><text x="30.9" y="347.3" class="node" fill="#4A6FE3">1</text><text x="54.7" y="151.2" class="node" fill="#4A6FE3">1</text><text x="78.6" y="16.4" class="node" fill="#4A6FE3">1</text><text x="78.6" y="286" class="node" fill="#4A6FE3">1</text><text x="102.4" y="57" class="node" fill="#DE728B">0.14</text><text x="126.2" y="78.7" class="node" fill="#D2D4E3">0.57</text><text x="150.1" y="109.2" class="node" fill="#C4C9E3">0.61</text><text x="174" y="157.6" class="node" fill="#4A6FE3">1</text><text x="197.8" y="241.6" class="node" fill="#DD6F88">0.13</text><text x="221.7" y="95.7" class="node" fill="#DD6F88">0.13</text><text x="245.5" y="105.3" class="node" fill="#4A6FE3">1</text><text x="221.7" y="387.6" class="node" fill="#DD6F88">0.13</text><text x="245.5" y="298.3" class="node" fill="#DD6F88">0.13</text><text x="269.4" y="185.7" class="node" fill="#B4BBE3">0.67</text><text x="293.2" y="135.4" class="node" fill="#4A6FE3">1</text><text x="317.1" y="146.5" class="node" fill="#4A6FE3">1</text><text x="340.9" y="156.1" class="node" fill="#4A6FE3">1</text><text x="293.2" y="236.1" class="node" fill="#B4BBE3">0.67</text><text x="317.1" y="198.5" class="node" fill="#DE728B">0.14</text><text x="340.9" y="222" class="node" fill="#E4D9DB">0.47</text><text x="364.8" y="198.9" class="node" fill="#7D8FE1">0.86</text><text x="388.6" y="210.1" class="node" fill="#E4D3D6">0.45</text><text x="412.5" y="219.6" class="node" fill="#4A6FE3">1</text><text x="364.8" y="245" class="node" fill="#E4D6D8">0.46</text><text x="317.1" y="273.6" class="node" fill="#E4D9DB">0.47</text><text x="340.9" y="283.1" class="node" fill="#E4D9DB">0.47</text><text x="269.4" y="410.9" class="node" fill="#DD6F88">0.13</text><text x="293.2" y="373.5" class="node" fill="#DD6F88">0.13</text><text x="317.1" y="324.3" class="node" fill="#9DA8E2">0.75</text><text x="340.9" y="308.5" class="node" fill="#4A6FE3">1</text><text x="340.9" y="340.1" class="node" fill="#9DA8E2">0.75</text><text x="364.8" y="352.6" class="node" fill="#9DA8E2">0.75</text><text x="388.6" y="364.9" class="node" fill="#4A6FE3">1</text><text x="412.5" y="376.8" class="node" fill="#4A6FE3">1</text><text x="436.3" y="387.9" class="node" fill="#4A6FE3">1</text><text x="460.2" y="397.4" class="node" fill="#4A6FE3">1</text><text x="317.1" y="422.8" class="node" fill="#DD6F88">0.13</text><text x="293.2" y="448.2" class="node" fill="#4A6FE3">1</text><text x="245.5" y="476.8" class="node" fill="#CFD2E3">0.58</text><text x="269.4" y="486.3" class="node" fill="#CFD2E3">0.58</text><text x="102.4" y="514.9" class="node" fill="#E5D0D3">0.44</text><text x="126.2" y="524.4" class="node" fill="#4A6FE3">1</text><text x="30.9" y="576.8" class="node" fill="#4A6FE3">1</text><text x="54.7" y="562.5" class="node" fill="#4A6FE3">1</text><text x="54.7" y="591.1" class="node" fill="#4A6FE3">1</text><text x="78.6" y="600.6" class="node" fill="#B4BBE3">0.67</text></svg>
