<svg xmlns="http://www.w3.org/2000/svg" version="1.1" width="682" height="682" class="tree" data-char="8"><text x="678" y="15.4" text-anchor="end" class="stepsLabel">Character adds <tspan class="score">4</tspan> to tree score</text><text x="678" y="27.8" text-anchor="end" class="stepsLabel"><tspan class="score">0</tspan> additional regions</text><text x="678" y="40.2" text-anchor="end" class="stepsLabel">CI = 0.5; Fitch CI = 0.5; Fitch RI = 0</text><text x="678" y="65" text-anchor="end" class="stepsLabel"><tspan dy="16" fill="#34caaf">An optimal tree under:</tspan><tspan x="680" style="font-style:italic" class="notThisAn" dy="1.2em">Implied weights, k = 3</tspan><tspan x="680" style="font-style:italic" class="notThisAn" dy="1.2em">IW, k = 4.5</tspan><tspan x="680" style="font-style:italic" class="notThisAn" dy="1.2em">IW, k = 7</tspan><tspan x="680" style="font-style:italic" class="notThisAn" dy="1.2em">IW, k = 10.5</tspan><tspan x="680" style="font-style:italic" class="notThisAn" dy="1.2em">IW, k = 16</tspan><tspan x="680" style="font-style:italic" class="notThisAn" dy="1.2em">IW, k = 24</tspan><tspan x="680" style="font-style:italic" class="thisAn" dy="1.2em">Equal weights</tspan></text><text x="76.6" y="664.4" fill="lightgrey" class="flag">[-]</text><text x="98.6" y="664.4" fill="#ccc" class="taxonLabel">Flustra</text><text x="76.6" y="677" fill="lightgrey" class="flag">[-]</text><text x="98.6" y="677" fill="#ccc" class="taxonLabel">Amathia</text><text x="100.4" y="639.2" fill="lightgrey" class="flag">[-]</text><text x="122.4" y="639.2" fill="#ccc" class="taxonLabel">Phoronis</text><text x="100.4" y="651.8" fill="grey" class="flag">[?]</text><text x="122.4" y="651.8" fill="#999" class="taxonLabel">Namacalathus</text><text x="315.1" y="526" fill="lightgrey" class="flag">[-]</text><text x="337.1" y="526" fill="#ccc" class="taxonLabel">Conotheca</text><text x="315.1" y="538.6" fill="lightgrey" class="flag">[-]</text><text x="337.1" y="538.6" fill="#ccc" class="taxonLabel">Bactrotheca</text><text x="291.2" y="551.2" fill="lightgrey" class="flag">[-]</text><text x="313.2" y="551.2" fill="#ccc" class="taxonLabel">Cupitheca holocyclata</text><text x="338.9" y="475.6" fill="lightgrey" class="flag">[-]</text><text x="360.9" y="475.6" fill="#ccc" class="taxonLabel">Pauxillites</text><text x="338.9" y="488.2" fill="grey" class="flag">[?]</text><text x="360.9" y="488.2" fill="#999" class="taxonLabel">Maxilites</text><text x="315.1" y="500.8" fill="lightgrey" class="flag">[-]</text><text x="337.1" y="500.8" fill="#ccc" class="taxonLabel">Haplophrentis carinatus</text><text x="291.2" y="513.4" fill="grey" class="flag">[?]</text><text x="313.2" y="513.4" fill="#999" class="taxonLabel">Paramicrocornus</text><text x="243.5" y="563.7" fill="lightgrey" class="flag">[-]</text><text x="265.5" y="563.7" fill="#ccc" class="taxonLabel">Pedunculotheca diania</text><text x="315.1" y="425.3" fill="#abd9e9" class="flag">[2]</text><text x="337.1" y="425.3" fill="#000" class="taxonLabel">Mickwitzia muralensis</text><text x="315.1" y="437.9" fill="grey" class="flag">[?]</text><text x="337.1" y="437.9" fill="#999" class="taxonLabel">Heliomedusa orienta</text><text x="291.2" y="450.5" fill="#fdae61" class="flag">[1]</text><text x="313.2" y="450.5" fill="#000" class="taxonLabel">Micrina</text><text x="338.9" y="400.1" fill="#abd9e9" class="flag">[2]</text><text x="360.9" y="400.1" fill="#000" class="taxonLabel">Micromitra</text><text x="338.9" y="412.7" fill="#abd9e9" class="flag">[2]</text><text x="360.9" y="412.7" fill="#000" class="taxonLabel">Askepasma toddense</text><text x="386.6" y="362.4" fill="#abd9e9" class="flag">[2]</text><text x="408.6" y="362.4" fill="#000" class="taxonLabel">Coolinia pecten</text><text x="386.6" y="375" fill="#abd9e9" class="flag">[2]</text><text x="408.6" y="375" fill="#000" class="taxonLabel">Antigonambonites planus</text><text x="434.3" y="324.6" fill="grey" class="flag">[?]</text><text x="456.3" y="324.6" fill="#999" class="taxonLabel">Nisusia sulcata</text><text x="434.3" y="337.2" fill="grey" class="flag">[?]</text><text x="456.3" y="337.2" fill="#999" class="taxonLabel">Kutorgina chengjiangensis</text><text x="410.5" y="349.8" fill="grey" class="flag">[?]</text><text x="432.5" y="349.8" fill="#999" class="taxonLabel">Tomteluva perturbata</text><text x="482" y="261.7" fill="#abd9e9" class="flag">[2]</text><text x="504" y="261.7" fill="#000" class="taxonLabel">Terebratulina</text><text x="482" y="274.3" fill="grey" class="flag">[?]</text><text x="504" y="274.3" fill="#999" class="taxonLabel">Orthis</text><text x="458.2" y="286.9" fill="grey" class="flag">[?]</text><text x="480.2" y="286.9" fill="#999" class="taxonLabel">Alisina</text><text x="434.3" y="299.5" fill="grey" class="flag">[?]</text><text x="456.3" y="299.5" fill="#999" class="taxonLabel">Longtancunella chengjiangensis</text><text x="410.5" y="312" fill="grey" class="flag">[?]</text><text x="432.5" y="312" fill="#999" class="taxonLabel">Glyptoria</text><text x="338.9" y="387.5" fill="#abd9e9" class="flag">[2]</text><text x="360.9" y="387.5" fill="#000" class="taxonLabel">Salanygolina</text><text x="386.6" y="211.4" fill="#2c7bb6" class="flag">[3]</text><text x="408.6" y="211.4" fill="#000" class="taxonLabel">Novocrania</text><text x="386.6" y="223.9" fill="grey" class="flag">[?]</text><text x="408.6" y="223.9" fill="#999" class="taxonLabel">Craniops</text><text x="362.8" y="236.5" fill="grey" class="flag">[?]</text><text x="384.8" y="236.5" fill="#999" class="taxonLabel">Ussunia</text><text x="338.9" y="249.1" fill="grey" class="flag">[?]</text><text x="360.9" y="249.1" fill="#999" class="taxonLabel">Gasconsia</text><text x="434.3" y="148.4" fill="#2c7bb6" class="flag">[3]</text><text x="456.3" y="148.4" fill="#000" class="taxonLabel">Pelagodiscus atlanticus</text><text x="434.3" y="161" fill="grey" class="flag">[?]</text><text x="456.3" y="161" fill="#999" class="taxonLabel">Mummpikia nuda</text><text x="482" y="110.7" fill="#abd9e9" class="flag">[2]</text><text x="504" y="110.7" fill="#000" class="taxonLabel">Siphonobolus priscus</text><text x="482" y="123.3" fill="grey" class="flag">[?]</text><text x="504" y="123.3" fill="#999" class="taxonLabel">Acanthotretella spinosa</text><text x="482" y="85.5" fill="grey" class="flag">[?]</text><text x="504" y="85.5" fill="#999" class="taxonLabel">Lingulosacculus</text><text x="482" y="98.1" fill="#abd9e9" class="flag">[2]</text><text x="504" y="98.1" fill="#000" class="taxonLabel">Clupeafumosus socialis</text><text x="434.3" y="135.8" fill="grey" class="flag">[?]</text><text x="456.3" y="135.8" fill="#999" class="taxonLabel">Lingulellotreta malongensis</text><text x="386.6" y="173.6" fill="#fdae61" class="flag">[1]</text><text x="408.6" y="173.6" fill="#000" class="taxonLabel">Botsfordia</text><text x="362.8" y="186.2" fill="#abd9e9" class="flag">[2]</text><text x="384.8" y="186.2" fill="#000" class="taxonLabel">Eoobolus</text><text x="338.9" y="198.8" fill="lightgrey" class="flag">[-]</text><text x="360.9" y="198.8" fill="#ccc" class="taxonLabel">Lingula</text><text x="243.5" y="463.1" fill="grey" class="flag">[?]</text><text x="265.5" y="463.1" fill="#999" class="taxonLabel">Yuganotheca elegans</text><text x="195.8" y="576.3" fill="lightgrey" class="flag">[-]</text><text x="217.8" y="576.3" fill="#ccc" class="taxonLabel">Paterimitra</text><text x="172" y="588.9" fill="grey" class="flag">[?]</text><text x="194" y="588.9" fill="#999" class="taxonLabel">Halkieria evangelista</text><text x="148.1" y="601.5" fill="lightgrey" class="flag">[-]</text><text x="170.1" y="601.5" fill="#ccc" class="taxonLabel">Dailyatia</text><text x="124.2" y="614.1" fill="grey" class="flag">[?]</text><text x="146.2" y="614.1" fill="#999" class="taxonLabel">Cotyledion tylodes</text><text x="100.4" y="626.7" fill="lightgrey" class="flag">[-]</text><text x="122.4" y="626.7" fill="#ccc" class="taxonLabel">Eccentrotheca</text><text x="100.4" y="47.8" fill="lightgrey" class="flag">[-]</text><text x="122.4" y="47.8" fill="#ccc" class="taxonLabel">Sipunculus</text><text x="100.4" y="60.3" fill="lightgrey" class="flag">[-]</text><text x="122.4" y="60.3" fill="#ccc" class="taxonLabel">Serpula</text><text x="124.2" y="10" fill="lightgrey" class="flag">[-]</text><text x="146.2" y="10" fill="#ccc" class="taxonLabel">Tonicella</text><text x="124.2" y="22.6" fill="lightgrey" class="flag">[-]</text><text x="146.2" y="22.6" fill="#ccc" class="taxonLabel">Dentalium</text><text x="100.4" y="35.2" fill="lightgrey" class="flag">[-]</text><text x="122.4" y="35.2" fill="#ccc" class="taxonLabel">Wiwaxia corrugata</text><text x="52.7" y="72.9" fill="lightgrey" class="flag">[-]</text><text x="74.7" y="72.9" fill="#ccc" class="taxonLabel">Loxosomella</text><path d="M5,350.1V53.4H28.9M28.9,53.4V36.9H52.7M52.7,36.9V22.7H76.6M76.6,22.7V13.3H100.4M100.4,13.3V7H124.2M100.4,13.3V19.6H124.2M76.6,22.7V32.2H100.4M52.7,36.9V51H76.6M76.6,51V44.8H100.4M76.6,51V57.3H100.4M28.9,53.4V69.9H52.7M5,350.1V646.7H28.9M28.9,646.7V625.7H52.7M52.7,625.7V608.8H76.6M76.6,608.8V594H100.4M100.4,594V577H124.2M124.2,577V555.5H148.1M148.1,555.5V525H172M172,525V476.7H195.8M315.1,181.8V195.8H338.9M195.8,476.7V539.9H219.7M219.7,539.9V519H243.5M243.5,519V499.4H267.4M267.4,499.4V488.4H291.2M291.2,488.4V478.9H315.1M315.1,478.9V472.6H338.9M315.1,478.9V485.2H338.9M291.2,488.4V497.8H315.1M267.4,499.4V510.4H291.2M243.5,519V538.7H267.4M267.4,538.7V529.3H291.2M291.2,529.3V523H315.1M291.2,529.3V535.6H315.1M267.4,538.7V548.2H291.2M219.7,539.9V560.7H243.5M172,525V573.3H195.8M148.1,555.5V585.9H172M124.2,577V598.5H148.1M100.4,594V611.1H124.2M76.6,608.8V623.7H100.4M52.7,625.7V642.5H76.6M76.6,642.5V636.2H100.4M76.6,642.5V648.8H100.4M28.9,646.7V667.7H52.7M52.7,667.7V661.4H76.6M52.7,667.7V674H76.6" stroke="lightgrey" class="inapplicable"></path><path d="M195.8,476.7V413.5H219.7M219.7,413.5V366.9H243.5M243.5,366.9V295.8H267.4M267.4,295.8V208.5H291.2M291.2,208.5V181.8H315.1M315.1,181.8V167.9H338.9M338.9,167.9V152.5H362.8M362.8,152.5V134.4H386.6M386.6,134.4V117.1H410.5M410.5,117.1V101.4H434.3M434.3,101.4V88.8H458.2M458.2,88.8V82.5H482M458.2,88.8V95.1H482M434.3,101.4V114H458.2M458.2,114V107.7H482M458.2,114V120.3H482M410.5,117.1V132.8H434.3M386.6,134.4V151.7H410.5M338.9,167.9V183.2H362.8M291.2,208.5V235.1H315.1M267.4,295.8V383.2H291.2M291.2,383.2V363H315.1M315.1,363V341.5H338.9M338.9,341.5V317.3H362.8M362.8,317.3V297.2H386.6M386.6,297.2V285.4H410.5M410.5,285.4V274.4H434.3M434.3,274.4V265H458.2M458.2,265V258.7H482M458.2,265V271.3H482M434.3,274.4V283.9H458.2M410.5,285.4V296.5H434.3M386.6,297.2V309H410.5M362.8,317.3V337.4H386.6M386.6,337.4V327.9H410.5M410.5,327.9V321.6H434.3M410.5,327.9V334.2H434.3M386.6,337.4V346.8H410.5M338.9,341.5V365.7H362.8M362.8,365.7V359.4H386.6M362.8,365.7V372H386.6M315.1,363V384.5H338.9M291.2,383.2V403.4H315.1M315.1,403.4V397.1H338.9M315.1,403.4V409.7H338.9M243.5,366.9V438H267.4M267.4,438V428.6H291.2M291.2,428.6V422.3H315.1M291.2,428.6V434.9H315.1M219.7,413.5V460.1H243.5" stroke="#abd9e9"></path><path d="M410.5,151.7V145.4H434.3M362.8,214.7V208.4H386.6" stroke="#2c7bb6"></path><path d="M410.5,151.7V158H434.3M315.1,235.1V224.1H338.9M338.9,224.1V214.7H362.8M362.8,214.7V220.9H386.6M338.9,224.1V233.5H362.8M315.1,235.1V246.1H338.9" stroke="darkgrey"></path><path d="M362.8,152.5V170.6H386.6M267.4,438V447.5H291.2" stroke="#fdae61"></path><text x="30.9" y="56.4" class="node" fill="#4A6FE3">1</text><text x="54.7" y="39.9" class="node" fill="#4A6FE3">1</text><text x="78.6" y="25.7" class="node" fill="#4A6FE3">1</text><text x="102.4" y="16.3" class="node" fill="#4A6FE3">1</text><text x="78.6" y="54" class="node" fill="#4A6FE3">1</text><text x="30.9" y="649.7" class="node" fill="#4A6FE3">1</text><text x="54.7" y="628.7" class="node" fill="#4A6FE3">1</text><text x="78.6" y="611.8" class="node" fill="#627DE1">0.94</text><text x="102.4" y="597" class="node" fill="#E6AEB8">0.33</text><text x="126.2" y="580" class="node" fill="#627DE1">0.94</text><text x="150.1" y="558.5" class="node" fill="#627DE1">0.94</text><text x="174" y="528" class="node" fill="#627DE1">0.94</text><text x="197.8" y="479.7" class="node" fill="#627DE1">0.94</text><text x="221.7" y="416.5" class="node" fill="#4A6FE3">1</text><text x="245.5" y="369.9" class="node" fill="#5374E2">0.98</text><text x="269.4" y="298.8" class="node" fill="#627DE1">0.94</text><text x="293.2" y="211.5" class="node" fill="#627DE1">0.94</text><text x="317.1" y="184.8" class="node" fill="#627DE1">0.94</text><text x="340.9" y="170.9" class="node" fill="#667FE1">0.93</text><text x="364.8" y="155.5" class="node" fill="#667FE1">0.93</text><text x="388.6" y="137.4" class="node" fill="#667FE1">0.93</text><text x="412.5" y="120.1" class="node" fill="#627DE1">0.94</text><text x="436.3" y="104.4" class="node" fill="#4A6FE3">1</text><text x="460.2" y="91.8" class="node" fill="#E5A8B3">0.31</text><text x="460.2" y="117" class="node" fill="#4A6FE3">1</text><text x="412.5" y="154.7" class="node" fill="#667FE1">0.93</text><text x="317.1" y="238.1" class="node" fill="#627DE1">0.94</text><text x="340.9" y="227.1" class="node" fill="#4A6FE3">1</text><text x="364.8" y="217.7" class="node" fill="#4A6FE3">1</text><text x="293.2" y="386.2" class="node" fill="#5B78E2">0.96</text><text x="317.1" y="366" class="node" fill="#4A6FE3">1</text><text x="340.9" y="344.5" class="node" fill="#5B78E2">0.96</text><text x="364.8" y="320.3" class="node" fill="#5F7BE1">0.95</text><text x="388.6" y="300.2" class="node" fill="#4A6FE3">1</text><text x="412.5" y="288.4" class="node" fill="#4A6FE3">1</text><text x="436.3" y="277.4" class="node" fill="#4A6FE3">1</text><text x="460.2" y="268" class="node" fill="#5B78E2">0.96</text><text x="388.6" y="340.4" class="node" fill="#E59FAC">0.28</text><text x="412.5" y="330.9" class="node" fill="#95A1E2">0.78</text><text x="364.8" y="368.7" class="node" fill="#4A6FE3">1</text><text x="317.1" y="406.4" class="node" fill="#5B78E2">0.96</text><text x="269.4" y="441" class="node" fill="#627DE1">0.94</text><text x="293.2" y="431.6" class="node" fill="#627DE1">0.94</text><text x="221.7" y="542.9" class="node" fill="#627DE1">0.94</text><text x="245.5" y="522" class="node" fill="#627DE1">0.94</text><text x="269.4" y="502.4" class="node" fill="#929FE1">0.79</text><text x="293.2" y="491.4" class="node" fill="#4A6FE3">1</text><text x="317.1" y="481.9" class="node" fill="#4A6FE3">1</text><text x="269.4" y="541.7" class="node" fill="#627DE1">0.94</text><text x="293.2" y="532.3" class="node" fill="#4A6FE3">1</text><text x="78.6" y="645.5" class="node" fill="#E6B4BD">0.35</text><text x="54.7" y="670.7" class="node" fill="#4A6FE3">1</text></svg>
