<svg xmlns="http://www.w3.org/2000/svg" version="1.1" width="682" height="612" class="tree" data-char="196"><text x="678" y="15.4" text-anchor="end" class="stepsLabel">Character adds <tspan class="score">2</tspan> to tree score</text><text x="678" y="27.8" text-anchor="end" class="stepsLabel"><tspan class="score">0</tspan> additional regions</text><text x="678" y="40.2" text-anchor="end" class="stepsLabel">CI = 0.5; Fitch CI = 0.5; Fitch RI = 0.75</text><text x="678" y="65" text-anchor="end" class="stepsLabel"><tspan dy="16">An optimal tree under:</tspan><tspan x="680" style="font-style:italic" class="notThisAn" dy="1.2em">Equal weights</tspan><tspan x="680" style="font-style:italic" class="thisAn" dy="1.2em">Implied weights, k = 2</tspan><tspan x="680" style="font-style:italic" class="notThisAn" dy="1.2em">IW, k = 3</tspan><tspan x="680" style="font-style:italic" class="notThisAn" dy="1.2em">IW, k = 4.5</tspan><tspan x="680" style="font-style:italic" class="notThisAn" dy="1.2em">IW, k = 7</tspan><tspan x="680" style="font-style:italic" class="notThisAn" dy="1.2em">IW, k = 10.5</tspan><tspan x="680" style="font-style:italic" class="notThisAn" dy="1.2em">IW, k = 16</tspan><tspan x="680" style="font-style:italic" class="notThisAn" dy="1.2em">IW, k = 24</tspan></text><text x="95.9" y="594.3" fill="grey" class="flag">[?]</text><text x="117.9" y="594.3" fill="#999" class="taxonLabel">Wiwaxia corrugata</text><text x="95.9" y="607" fill="#91bfdb" class="flag">[1]</text><text x="117.9" y="607" fill="#000" class="taxonLabel">Tonicella</text><text x="73.1" y="581.6" fill="#91bfdb" class="flag">[1]</text><text x="95.1" y="581.6" fill="#000" class="taxonLabel">Dentalium</text><text x="73.1" y="556.2" fill="#91bfdb" class="flag">[1]</text><text x="95.1" y="556.2" fill="#000" class="taxonLabel">Serpula</text><text x="73.1" y="568.9" fill="#91bfdb" class="flag">[1]</text><text x="95.1" y="568.9" fill="#000" class="taxonLabel">Sipunculus</text><text x="141.3" y="530.8" fill="grey" class="flag">[?]</text><text x="163.3" y="530.8" fill="#999" class="taxonLabel">Halkieria evangelista</text><text x="141.3" y="543.5" fill="grey" class="flag">[?]</text><text x="163.3" y="543.5" fill="#999" class="taxonLabel">Dailyatia</text><text x="118.6" y="518.1" fill="#fc8d59" class="flag">[0]</text><text x="140.6" y="518.1" fill="#000" class="taxonLabel">Loxosomella</text><text x="95.9" y="505.4" fill="grey" class="flag">[?]</text><text x="117.9" y="505.4" fill="#999" class="taxonLabel">Cotyledion tylodes</text><text x="73.1" y="492.7" fill="grey" class="flag">[?]</text><text x="95.1" y="492.7" fill="#999" class="taxonLabel">Eccentrotheca</text><text x="164" y="467.3" fill="grey" class="flag">[?]</text><text x="186" y="467.3" fill="#999" class="taxonLabel">Pedunculotheca diania</text><text x="164" y="480" fill="grey" class="flag">[?]</text><text x="186" y="480" fill="#999" class="taxonLabel">Haplophrentis carinatus</text><text x="254.9" y="441.9" fill="#fc8d59" class="flag">[0]</text><text x="276.9" y="441.9" fill="#000" class="taxonLabel">Pelagodiscus atlanticus</text><text x="254.9" y="454.6" fill="grey" class="flag">[?]</text><text x="276.9" y="454.6" fill="#999" class="taxonLabel">Mickwitzia muralensis</text><text x="300.3" y="416.5" fill="grey" class="flag">[?]</text><text x="322.3" y="416.5" fill="#999" class="taxonLabel">Mummpikia nuda</text><text x="300.3" y="429.2" fill="grey" class="flag">[?]</text><text x="322.3" y="429.2" fill="#999" class="taxonLabel">Botsfordia</text><text x="277.6" y="403.8" fill="grey" class="flag">[?]</text><text x="299.6" y="403.8" fill="#999" class="taxonLabel">Eoobolus</text><text x="345.7" y="378.4" fill="grey" class="flag">[?]</text><text x="367.7" y="378.4" fill="#999" class="taxonLabel">Siphonobolus priscus</text><text x="345.7" y="391.1" fill="grey" class="flag">[?]</text><text x="367.7" y="391.1" fill="#999" class="taxonLabel">Acanthotretella spinosa</text><text x="323" y="365.7" fill="grey" class="flag">[?]</text><text x="345" y="365.7" fill="#999" class="taxonLabel">Lingulosacculus</text><text x="300.3" y="353" fill="grey" class="flag">[?]</text><text x="322.3" y="353" fill="#999" class="taxonLabel">Clupeafumosus socialis</text><text x="300.3" y="327.6" fill="#fc8d59" class="flag">[0]</text><text x="322.3" y="327.6" fill="#000" class="taxonLabel">Lingula</text><text x="300.3" y="340.3" fill="grey" class="flag">[?]</text><text x="322.3" y="340.3" fill="#999" class="taxonLabel">Lingulellotreta malongensis</text><text x="482" y="302.1" fill="grey" class="flag">[?]</text><text x="504" y="302.1" fill="#999" class="taxonLabel">Orthis</text><text x="482" y="314.9" fill="#fc8d59" class="flag">[0]</text><text x="504" y="314.9" fill="#000" class="taxonLabel">Terebratulina</text><text x="459.3" y="289.4" fill="grey" class="flag">[?]</text><text x="481.3" y="289.4" fill="#999" class="taxonLabel">Alisina</text><text x="436.6" y="276.7" fill="grey" class="flag">[?]</text><text x="458.6" y="276.7" fill="#999" class="taxonLabel">Longtancunella chengjiangensis</text><text x="413.9" y="264" fill="grey" class="flag">[?]</text><text x="435.9" y="264" fill="#999" class="taxonLabel">Glyptoria</text><text x="391.1" y="251.3" fill="grey" class="flag">[?]</text><text x="413.1" y="251.3" fill="#999" class="taxonLabel">Tomteluva perturbata</text><text x="368.4" y="238.6" fill="grey" class="flag">[?]</text><text x="390.4" y="238.6" fill="#999" class="taxonLabel">Nisusia sulcata</text><text x="345.7" y="225.9" fill="grey" class="flag">[?]</text><text x="367.7" y="225.9" fill="#999" class="taxonLabel">Kutorgina chengjiangensis</text><text x="345.7" y="200.5" fill="grey" class="flag">[?]</text><text x="367.7" y="200.5" fill="#999" class="taxonLabel">Coolinia pecten</text><text x="345.7" y="213.2" fill="grey" class="flag">[?]</text><text x="367.7" y="213.2" fill="#999" class="taxonLabel">Antigonambonites planus</text><text x="300.3" y="187.8" fill="grey" class="flag">[?]</text><text x="322.3" y="187.8" fill="#999" class="taxonLabel">Yuganotheca elegans</text><text x="277.6" y="175.1" fill="grey" class="flag">[?]</text><text x="299.6" y="175.1" fill="#999" class="taxonLabel">Salanygolina</text><text x="277.6" y="149.7" fill="grey" class="flag">[?]</text><text x="299.6" y="149.7" fill="#999" class="taxonLabel">Micromitra</text><text x="277.6" y="162.4" fill="grey" class="flag">[?]</text><text x="299.6" y="162.4" fill="#999" class="taxonLabel">Askepasma toddense</text><text x="300.3" y="124.3" fill="#fc8d59" class="flag">[0]</text><text x="322.3" y="124.3" fill="#000" class="taxonLabel">Novocrania</text><text x="300.3" y="137" fill="grey" class="flag">[?]</text><text x="322.3" y="137" fill="#999" class="taxonLabel">Craniops</text><text x="277.6" y="111.6" fill="grey" class="flag">[?]</text><text x="299.6" y="111.6" fill="#999" class="taxonLabel">Ussunia</text><text x="254.9" y="98.9" fill="grey" class="flag">[?]</text><text x="276.9" y="98.9" fill="#999" class="taxonLabel">Gasconsia</text><text x="186.7" y="86.2" fill="grey" class="flag">[?]</text><text x="208.7" y="86.2" fill="#999" class="taxonLabel">Micrina</text><text x="164" y="73.5" fill="grey" class="flag">[?]</text><text x="186" y="73.5" fill="#999" class="taxonLabel">Paterimitra</text><text x="118.6" y="60.8" fill="grey" class="flag">[?]</text><text x="140.6" y="60.8" fill="#999" class="taxonLabel">Heliomedusa orienta</text><text x="118.6" y="35.4" fill="grey" class="flag">[?]</text><text x="140.6" y="35.4" fill="#999" class="taxonLabel">Namacalathus</text><text x="118.6" y="48.1" fill="#91bfdb" class="flag">[1]</text><text x="140.6" y="48.1" fill="#000" class="taxonLabel">Phoronis</text><text x="95.9" y="10" fill="#fc8d59" class="flag">[0]</text><text x="117.9" y="10" fill="#000" class="taxonLabel">Flustra</text><text x="95.9" y="22.7" fill="grey" class="flag">[?]</text><text x="117.9" y="22.7" fill="#999" class="taxonLabel">Amathia</text><path d="M5,427.5V281.2H27.7M27.7,281.2V60.8H50.4M50.4,60.8V13.4H73.1M73.1,13.4V7H95.9M73.1,13.4V19.7H95.9M50.4,60.8V108.3H73.1M73.1,108.3V38.8H95.9M73.1,108.3V177.8H95.9M95.9,177.8V57.8H118.6M95.9,177.8V297.7H118.6M118.6,297.7V124.8H141.3M141.3,124.8V70.5H164M141.3,124.8V179.2H164M164,179.2V83.2H186.7M164,179.2V275.1H186.7M186.7,275.1V138.6H209.4M209.4,138.6V107H232.1M232.1,107V95.9H254.9M232.1,107V118.1H254.9M254.9,118.1V108.6H277.6M254.9,118.1V127.7H277.6M277.6,127.7V121.3H300.3M277.6,127.7V134H300.3M209.4,138.6V170.1H232.1M232.1,170.1V153.1H254.9M254.9,153.1V146.7H277.6M254.9,153.1V159.4H277.6M232.1,170.1V187.2H254.9M254.9,187.2V172.1H277.6M254.9,187.2V202.3H277.6M277.6,202.3V184.8H300.3M277.6,202.3V219.7H300.3M300.3,219.7V203.9H323M323,203.9V197.5H345.7M323,203.9V210.2H345.7M300.3,219.7V235.5H323M323,235.5V222.9H345.7M323,235.5V248.1H345.7M345.7,248.1V235.6H368.4M345.7,248.1V260.6H368.4M368.4,260.6V248.3H391.1M368.4,260.6V273H391.1M391.1,273V261H413.9M391.1,273V284.9H413.9M413.9,284.9V273.7H436.6M413.9,284.9V296H436.6M436.6,296V286.4H459.3M436.6,296V305.5H459.3M459.3,305.5V299.1H482M459.3,305.5V311.9H482M186.7,275.1V411.7H209.4M209.4,411.7V378.1H232.1M232.1,378.1V346H254.9M254.9,346V330.9H277.6M277.6,330.9V324.6H300.3M277.6,330.9V337.3H300.3M254.9,346V361.1H277.6M277.6,361.1V350H300.3M277.6,361.1V372.2H300.3M300.3,372.2V362.7H323M300.3,372.2V381.7H323M323,381.7V375.4H345.7M323,381.7V388.1H345.7M232.1,378.1V410.3H254.9M254.9,410.3V400.8H277.6M254.9,410.3V419.8H277.6M277.6,419.8V413.5H300.3M277.6,419.8V426.2H300.3M209.4,411.7V445.2H232.1M232.1,445.2V438.9H254.9M232.1,445.2V451.6H254.9M118.6,297.7V470.6H141.3M141.3,470.6V464.3H164M141.3,470.6V477H164M27.7,281.2V501.6H50.4M50.4,501.6V489.7H73.1M50.4,501.6V513.5H73.1M73.1,513.5V502.4H95.9M73.1,513.5V524.6H95.9M95.9,524.6V515.1H118.6M95.9,524.6V534.1H118.6M118.6,534.1V527.8H141.3M118.6,534.1V540.5H141.3" stroke="#fc8d59"></path><path d="M95.9,38.8V32.4H118.6" stroke="darkgrey"></path><path d="M95.9,38.8V45.1H118.6M5,427.5V573.8H27.7M27.7,573.8V559.5H50.4M50.4,559.5V553.2H73.1M50.4,559.5V565.9H73.1M27.7,573.8V588.1H50.4M50.4,588.1V578.6H73.1M50.4,588.1V597.6H73.1M73.1,597.6V591.3H95.9M73.1,597.6V604H95.9" stroke="#91bfdb"></path><text x="7" y="430.5" class="node" fill="#4A6FE3">1</text><text x="29.7" y="284.2" class="node" fill="#4A6FE3">1</text><text x="52.4" y="63.8" class="node" fill="#DD6F88">0.13</text><text x="75.1" y="16.4" class="node" fill="#4A6FE3">1</text><text x="75.1" y="111.3" class="node" fill="#DD6F88">0.13</text><text x="97.9" y="41.8" class="node" fill="#4A6FE3">1</text><text x="97.9" y="180.8" class="node" fill="#E4D9DB">0.47</text><text x="120.6" y="300.7" class="node" fill="#DF798F">0.16</text><text x="143.3" y="127.8" class="node" fill="#DF798F">0.16</text><text x="166" y="182.2" class="node" fill="#DF798F">0.16</text><text x="188.7" y="278.1" class="node" fill="#DD6F88">0.13</text><text x="211.4" y="141.6" class="node" fill="#DD6F88">0.13</text><text x="234.1" y="110" class="node" fill="#E38FA0">0.23</text><text x="256.9" y="121.1" class="node" fill="#E4D9DB">0.47</text><text x="279.6" y="130.7" class="node" fill="#4A6FE3">1</text><text x="234.1" y="173.1" class="node" fill="#667FE1">0.93</text><text x="256.9" y="156.1" class="node" fill="#4A6FE3">1</text><text x="256.9" y="190.2" class="node" fill="#667FE1">0.93</text><text x="279.6" y="205.3" class="node" fill="#E5D0D3">0.44</text><text x="302.3" y="222.7" class="node" fill="#E07C92">0.17</text><text x="325" y="206.9" class="node" fill="#4A6FE3">1</text><text x="325" y="238.5" class="node" fill="#DD6F88">0.13</text><text x="347.7" y="251.1" class="node" fill="#DD6F88">0.13</text><text x="370.4" y="263.6" class="node" fill="#DD6F88">0.13</text><text x="393.1" y="276" class="node" fill="#C7CBE3">0.6</text><text x="415.9" y="287.9" class="node" fill="#C7CBE3">0.6</text><text x="438.6" y="299" class="node" fill="#4A6FE3">1</text><text x="461.3" y="308.5" class="node" fill="#8696E1">0.83</text><text x="211.4" y="414.7" class="node" fill="#E38C9E">0.22</text><text x="234.1" y="381.1" class="node" fill="#9DA8E2">0.75</text><text x="256.9" y="349" class="node" fill="#E6BDC5">0.38</text><text x="279.6" y="333.9" class="node" fill="#E6BDC5">0.38</text><text x="279.6" y="364.1" class="node" fill="#8F9DE1">0.8</text><text x="302.3" y="375.2" class="node" fill="#E59FAC">0.28</text><text x="325" y="384.7" class="node" fill="#4A6FE3">1</text><text x="256.9" y="413.3" class="node" fill="#E4D9DB">0.47</text><text x="279.6" y="422.8" class="node" fill="#E6BDC5">0.38</text><text x="234.1" y="448.2" class="node" fill="#9DA8E2">0.75</text><text x="143.3" y="473.6" class="node" fill="#4A6FE3">1</text><text x="52.4" y="504.6" class="node" fill="#DD6F88">0.13</text><text x="75.1" y="516.5" class="node" fill="#D64F73">0.04</text><text x="97.9" y="527.6" class="node" fill="#D75376">0.05</text><text x="120.6" y="537.1" class="node" fill="#E28699">0.2</text><text x="29.7" y="576.8" class="node" fill="#4A6FE3">1</text><text x="52.4" y="562.5" class="node" fill="#4A6FE3">1</text><text x="52.4" y="591.1" class="node" fill="#4A6FE3">1</text><text x="75.1" y="600.6" class="node" fill="#DD6F88">0.13</text></svg>
