<svg xmlns="http://www.w3.org/2000/svg" version="1.1" width="682" height="682" class="tree" data-char="0"><text x="678" y="15.4" text-anchor="end" class="stepsLabel">Character adds <tspan class="score">4</tspan> to tree score</text><text x="678" y="27.8" text-anchor="end" class="stepsLabel"><tspan class="score">0</tspan> additional regions</text><text x="678" y="40.2" text-anchor="end" class="stepsLabel"></text><text x="678" y="65" text-anchor="end" class="stepsLabel"><tspan dy="16" fill="#34caaf">An optimal tree under:</tspan><tspan x="680" style="font-style:italic" class="notThisAn" dy="1.2em">Implied weights, k = 3</tspan><tspan x="680" style="font-style:italic" class="notThisAn" dy="1.2em">IW, k = 4.5</tspan><tspan x="680" style="font-style:italic" class="notThisAn" dy="1.2em">IW, k = 7</tspan><tspan x="680" style="font-style:italic" class="thisAn" dy="1.2em">IW, k = 10.5</tspan><tspan x="680" style="font-style:italic" class="thisAn" dy="1.2em">IW, k = 16</tspan><tspan x="680" style="font-style:italic" class="thisAn" dy="1.2em">IW, k = 24</tspan><tspan x="680" style="font-style:italic" class="thisAn" dy="1.2em">Equal weights</tspan></text><text x="70" y="664.4" fill="#fc8d59" class="flag">[0]</text><text x="92" y="664.4" fill="#000" class="taxonLabel">Flustra</text><text x="70" y="677" fill="#fc8d59" class="flag">[0]</text><text x="92" y="677" fill="#000" class="taxonLabel">Amathia</text><text x="308.5" y="526" fill="#91bfdb" class="flag">[1]</text><text x="330.5" y="526" fill="#000" class="taxonLabel">Conotheca</text><text x="308.5" y="538.6" fill="#91bfdb" class="flag">[1]</text><text x="330.5" y="538.6" fill="#000" class="taxonLabel">Bactrotheca</text><text x="286.9" y="551.2" fill="grey" class="flag">[?]</text><text x="308.9" y="551.2" fill="#999" class="taxonLabel">Cupitheca holocyclata</text><text x="330.2" y="475.6" fill="#91bfdb" class="flag">[1]</text><text x="352.2" y="475.6" fill="#000" class="taxonLabel">Pauxillites</text><text x="330.2" y="488.2" fill="#91bfdb" class="flag">[1]</text><text x="352.2" y="488.2" fill="#000" class="taxonLabel">Maxilites</text><text x="308.5" y="500.8" fill="#91bfdb" class="flag">[1]</text><text x="330.5" y="500.8" fill="#000" class="taxonLabel">Haplophrentis carinatus</text><text x="286.9" y="513.4" fill="#91bfdb" class="flag">[1]</text><text x="308.9" y="513.4" fill="#000" class="taxonLabel">Paramicrocornus</text><text x="243.5" y="563.7" fill="#91bfdb" class="flag">[1]</text><text x="265.5" y="563.7" fill="#000" class="taxonLabel">Pedunculotheca diania</text><text x="308.5" y="425.3" fill="#fc8d59" class="flag">[0]</text><text x="330.5" y="425.3" fill="#000" class="taxonLabel">Mickwitzia muralensis</text><text x="308.5" y="437.9" fill="#fc8d59" class="flag">[0]</text><text x="330.5" y="437.9" fill="#000" class="taxonLabel">Heliomedusa orienta</text><text x="286.9" y="450.5" fill="#fc8d59" class="flag">[0]</text><text x="308.9" y="450.5" fill="#000" class="taxonLabel">Micrina</text><text x="330.2" y="400.1" fill="#fc8d59" class="flag">[0]</text><text x="352.2" y="400.1" fill="#000" class="taxonLabel">Micromitra</text><text x="330.2" y="412.7" fill="#fc8d59" class="flag">[0]</text><text x="352.2" y="412.7" fill="#000" class="taxonLabel">Askepasma toddense</text><text x="373.6" y="362.4" fill="#91bfdb" class="flag">[1]</text><text x="395.6" y="362.4" fill="#000" class="taxonLabel">Coolinia pecten</text><text x="373.6" y="375" fill="#91bfdb" class="flag">[1]</text><text x="395.6" y="375" fill="#000" class="taxonLabel">Antigonambonites planus</text><text x="395.3" y="337.2" fill="#fc8d59" class="flag">[0]</text><text x="417.3" y="337.2" fill="#000" class="taxonLabel">Nisusia sulcata</text><text x="395.3" y="349.8" fill="#fc8d59" class="flag">[0]</text><text x="417.3" y="349.8" fill="#000" class="taxonLabel">Kutorgina chengjiangensis</text><text x="482" y="261.7" fill="#91bfdb" class="flag">[1]</text><text x="504" y="261.7" fill="#000" class="taxonLabel">Terebratulina</text><text x="482" y="274.3" fill="#91bfdb" class="flag">[1]</text><text x="504" y="274.3" fill="#000" class="taxonLabel">Orthis</text><text x="460.3" y="286.9" fill="#fc8d59" class="flag">[0]</text><text x="482.3" y="286.9" fill="#000" class="taxonLabel">Alisina</text><text x="438.6" y="299.5" fill="#fc8d59" class="flag">[0]</text><text x="460.6" y="299.5" fill="#000" class="taxonLabel">Longtancunella chengjiangensis</text><text x="417" y="312" fill="#fc8d59" class="flag">[0]</text><text x="439" y="312" fill="#000" class="taxonLabel">Glyptoria</text><text x="395.3" y="324.6" fill="#91bfdb" class="flag">[1]</text><text x="417.3" y="324.6" fill="#000" class="taxonLabel">Tomteluva perturbata</text><text x="330.2" y="387.5" fill="#fc8d59" class="flag">[0]</text><text x="352.2" y="387.5" fill="#000" class="taxonLabel">Salanygolina</text><text x="373.6" y="211.4" fill="#fc8d59" class="flag">[0]</text><text x="395.6" y="211.4" fill="#000" class="taxonLabel">Novocrania</text><text x="373.6" y="223.9" fill="#fc8d59" class="flag">[0]</text><text x="395.6" y="223.9" fill="#000" class="taxonLabel">Craniops</text><text x="351.9" y="236.5" fill="#fc8d59" class="flag">[0]</text><text x="373.9" y="236.5" fill="#000" class="taxonLabel">Ussunia</text><text x="330.2" y="249.1" fill="#fc8d59" class="flag">[0]</text><text x="352.2" y="249.1" fill="#000" class="taxonLabel">Gasconsia</text><text x="417" y="148.4" fill="#fc8d59" class="flag">[0]</text><text x="439" y="148.4" fill="#000" class="taxonLabel">Pelagodiscus atlanticus</text><text x="417" y="161" fill="#fc8d59" class="flag">[0]</text><text x="439" y="161" fill="#000" class="taxonLabel">Mummpikia nuda</text><text x="482" y="85.5" fill="#fc8d59" class="flag">[0]</text><text x="504" y="85.5" fill="#000" class="taxonLabel">Siphonobolus priscus</text><text x="482" y="98.1" fill="#fc8d59" class="flag">[0]</text><text x="504" y="98.1" fill="#000" class="taxonLabel">Acanthotretella spinosa</text><text x="460.3" y="110.7" fill="#fc8d59" class="flag">[0]</text><text x="482.3" y="110.7" fill="#000" class="taxonLabel">Lingulosacculus</text><text x="438.6" y="123.3" fill="#fc8d59" class="flag">[0]</text><text x="460.6" y="123.3" fill="#000" class="taxonLabel">Clupeafumosus socialis</text><text x="417" y="135.8" fill="#fc8d59" class="flag">[0]</text><text x="439" y="135.8" fill="#000" class="taxonLabel">Lingulellotreta malongensis</text><text x="373.6" y="173.6" fill="#fc8d59" class="flag">[0]</text><text x="395.6" y="173.6" fill="#000" class="taxonLabel">Botsfordia</text><text x="351.9" y="186.2" fill="#fc8d59" class="flag">[0]</text><text x="373.9" y="186.2" fill="#000" class="taxonLabel">Eoobolus</text><text x="330.2" y="198.8" fill="#fc8d59" class="flag">[0]</text><text x="352.2" y="198.8" fill="#000" class="taxonLabel">Lingula</text><text x="243.5" y="463.1" fill="#fc8d59" class="flag">[0]</text><text x="265.5" y="463.1" fill="#000" class="taxonLabel">Yuganotheca elegans</text><text x="200.1" y="576.3" fill="#fc8d59" class="flag">[0]</text><text x="222.1" y="576.3" fill="#000" class="taxonLabel">Paterimitra</text><text x="178.5" y="588.9" fill="#fc8d59" class="flag">[0]</text><text x="200.5" y="588.9" fill="#000" class="taxonLabel">Halkieria evangelista</text><text x="156.8" y="601.5" fill="#fc8d59" class="flag">[0]</text><text x="178.8" y="601.5" fill="#000" class="taxonLabel">Dailyatia</text><text x="135.1" y="614.1" fill="#fc8d59" class="flag">[0]</text><text x="157.1" y="614.1" fill="#000" class="taxonLabel">Eccentrotheca</text><text x="113.4" y="626.7" fill="#fc8d59" class="flag">[0]</text><text x="135.4" y="626.7" fill="#000" class="taxonLabel">Cotyledion tylodes</text><text x="91.7" y="639.2" fill="#fc8d59" class="flag">[0]</text><text x="113.7" y="639.2" fill="#000" class="taxonLabel">Namacalathus</text><text x="70" y="651.8" fill="#fc8d59" class="flag">[0]</text><text x="92" y="651.8" fill="#000" class="taxonLabel">Phoronis</text><text x="91.7" y="47.8" fill="#fc8d59" class="flag">[0]</text><text x="113.7" y="47.8" fill="#000" class="taxonLabel">Sipunculus</text><text x="91.7" y="60.3" fill="#fc8d59" class="flag">[0]</text><text x="113.7" y="60.3" fill="#000" class="taxonLabel">Serpula</text><text x="113.4" y="10" fill="#fc8d59" class="flag">[0]</text><text x="135.4" y="10" fill="#000" class="taxonLabel">Tonicella</text><text x="113.4" y="22.6" fill="#fc8d59" class="flag">[0]</text><text x="135.4" y="22.6" fill="#000" class="taxonLabel">Dentalium</text><text x="91.7" y="35.2" fill="#fc8d59" class="flag">[0]</text><text x="113.7" y="35.2" fill="#000" class="taxonLabel">Wiwaxia corrugata</text><text x="48.4" y="72.9" fill="#fc8d59" class="flag">[0]</text><text x="70.4" y="72.9" fill="#000" class="taxonLabel">Loxosomella</text><path d="M5,352.6V53.4H26.7M26.7,53.4V36.9H48.4M48.4,36.9V22.7H70M70,22.7V13.3H91.7M91.7,13.3V7H113.4M91.7,13.3V19.6H113.4M70,22.7V32.2H91.7M48.4,36.9V51H70M70,51V44.8H91.7M70,51V57.3H91.7M26.7,53.4V69.9H48.4M5,352.6V651.7H26.7M26.7,651.7V635.7H48.4M48.4,635.7V622.5H70M70,622.5V608.8H91.7M91.7,608.8V594H113.4M113.4,594V577H135.1M135.1,577V555.5H156.8M156.8,555.5V525H178.5M178.5,525V476.8H200.1M200.1,476.8V413.6H221.8M221.8,413.6V367.2H243.5M243.5,367.2V296.4H265.2M265.2,296.4V208.6H286.9M286.9,208.6V182.1H308.5M308.5,182.1V168.3H330.2M330.2,168.3V153.5H351.9M351.9,153.5V136.4H373.6M373.6,136.4V121.1H395.3M395.3,121.1V109.3H417M417,109.3V98.2H438.6M438.6,98.2V88.8H460.3M460.3,88.8V82.5H482M460.3,88.8V95.1H482M438.6,98.2V107.7H460.3M417,109.3V120.3H438.6M395.3,121.1V132.8H417M373.6,136.4V151.7H395.3M395.3,151.7V145.4H417M395.3,151.7V158H417M351.9,153.5V170.6H373.6M330.2,168.3V183.2H351.9M308.5,182.1V195.8H330.2M286.9,208.6V235.1H308.5M308.5,235.1V224.1H330.2M330.2,224.1V214.7H351.9M351.9,214.7V208.4H373.6M351.9,214.7V220.9H373.6M330.2,224.1V233.5H351.9M308.5,235.1V246.1H330.2M265.2,296.4V384.2H286.9M286.9,384.2V364.9H308.5M308.5,364.9V345.3H330.2M330.2,345.3V325H351.9M351.9,325V309.4H373.6M373.6,309.4V297.2H395.3M395.3,297.2V285.4H417M417,285.4V274.4H438.6M438.6,274.4V283.9H460.3M417,285.4V296.5H438.6M395.3,297.2V309H417M351.9,325V340.5H373.6M373.6,340.5V334.2H395.3M373.6,340.5V346.8H395.3M308.5,364.9V384.5H330.2M286.9,384.2V403.4H308.5M308.5,403.4V397.1H330.2M308.5,403.4V409.7H330.2M243.5,367.2V438H265.2M265.2,438V428.6H286.9M286.9,428.6V422.3H308.5M286.9,428.6V434.9H308.5M265.2,438V447.5H286.9M221.8,413.6V460.1H243.5M178.5,525V573.3H200.1M156.8,555.5V585.9H178.5M135.1,577V598.5H156.8M113.4,594V611.1H135.1M91.7,608.8V623.7H113.4M70,622.5V636.2H91.7M48.4,635.7V648.8H70M26.7,651.7V667.7H48.4M48.4,667.7V661.4H70M48.4,667.7V674H70" stroke="#fc8d59"></path><path d="M438.6,274.4V265H460.3M460.3,265V258.7H482M460.3,265V271.3H482M373.6,309.4V321.6H395.3M330.2,345.3V365.7H351.9M351.9,365.7V359.4H373.6M351.9,365.7V372H373.6M200.1,476.8V539.9H221.8M221.8,539.9V519H243.5M243.5,519V499.4H265.2M265.2,499.4V488.4H286.9M286.9,488.4V478.9H308.5M308.5,478.9V472.6H330.2M308.5,478.9V485.2H330.2M286.9,488.4V497.8H308.5M265.2,499.4V510.4H286.9M243.5,519V538.7H265.2M265.2,538.7V529.3H286.9M286.9,529.3V523H308.5M286.9,529.3V535.6H308.5M265.2,538.7V548.2H286.9M221.8,539.9V560.7H243.5" stroke="#91bfdb"></path><text x="28.7" y="56.4" class="node" fill="#4A6FE3">1</text><text x="50.4" y="39.9" class="node" fill="#4A6FE3">1</text><text x="72" y="25.7" class="node" fill="#4A6FE3">1</text><text x="93.7" y="16.3" class="node" fill="#4A6FE3">1</text><text x="72" y="54" class="node" fill="#4A6FE3">1</text><text x="28.7" y="654.7" class="node" fill="#4A6FE3">1</text><text x="50.4" y="638.7" class="node" fill="#E5A8B3">0.31</text><text x="72" y="625.5" class="node" fill="#627DE1">0.94</text><text x="93.7" y="611.8" class="node" fill="#E5A8B3">0.31</text><text x="115.4" y="597" class="node" fill="#627DE1">0.94</text><text x="137.1" y="580" class="node" fill="#627DE1">0.94</text><text x="158.8" y="558.5" class="node" fill="#627DE1">0.94</text><text x="180.5" y="528" class="node" fill="#627DE1">0.94</text><text x="202.1" y="479.8" class="node" fill="#4A6FE3">1</text><text x="223.8" y="416.6" class="node" fill="#5374E2">0.98</text><text x="245.5" y="370.2" class="node" fill="#627DE1">0.94</text><text x="267.2" y="299.4" class="node" fill="#627DE1">0.94</text><text x="288.9" y="211.6" class="node" fill="#627DE1">0.94</text><text x="310.5" y="185.1" class="node" fill="#667FE1">0.93</text><text x="332.2" y="171.3" class="node" fill="#667FE1">0.93</text><text x="353.9" y="156.5" class="node" fill="#667FE1">0.93</text><text x="375.6" y="139.4" class="node" fill="#627DE1">0.94</text><text x="397.3" y="124.1" class="node" fill="#4A6FE3">1</text><text x="419" y="112.3" class="node" fill="#E6AEB8">0.33</text><text x="440.6" y="101.2" class="node" fill="#4A6FE3">1</text><text x="462.3" y="91.8" class="node" fill="#667FE1">0.93</text><text x="397.3" y="154.7" class="node" fill="#627DE1">0.94</text><text x="310.5" y="238.1" class="node" fill="#4A6FE3">1</text><text x="332.2" y="227.1" class="node" fill="#4A6FE3">1</text><text x="353.9" y="217.7" class="node" fill="#5B78E2">0.96</text><text x="288.9" y="387.2" class="node" fill="#4A6FE3">1</text><text x="310.5" y="367.9" class="node" fill="#5B78E2">0.96</text><text x="332.2" y="348.3" class="node" fill="#5F7BE1">0.95</text><text x="353.9" y="328" class="node" fill="#B4BBE3">0.67</text><text x="375.6" y="312.4" class="node" fill="#4A6FE3">1</text><text x="397.3" y="300.2" class="node" fill="#4A6FE3">1</text><text x="419" y="288.4" class="node" fill="#4A6FE3">1</text><text x="440.6" y="277.4" class="node" fill="#5B78E2">0.96</text><text x="462.3" y="268" class="node" fill="#95A1E2">0.78</text><text x="375.6" y="343.5" class="node" fill="#4A6FE3">1</text><text x="353.9" y="368.7" class="node" fill="#5B78E2">0.96</text><text x="310.5" y="406.4" class="node" fill="#627DE1">0.94</text><text x="267.2" y="441" class="node" fill="#627DE1">0.94</text><text x="288.9" y="431.6" class="node" fill="#627DE1">0.94</text><text x="223.8" y="542.9" class="node" fill="#627DE1">0.94</text><text x="245.5" y="522" class="node" fill="#929FE1">0.79</text><text x="267.2" y="502.4" class="node" fill="#4A6FE3">1</text><text x="288.9" y="491.4" class="node" fill="#4A6FE3">1</text><text x="310.5" y="481.9" class="node" fill="#627DE1">0.94</text><text x="267.2" y="541.7" class="node" fill="#4A6FE3">1</text><text x="288.9" y="532.3" class="node" fill="#4A6FE3">1</text><text x="50.4" y="670.7" class="node" fill="#4A6FE3">1</text></svg>
