<svg xmlns="http://www.w3.org/2000/svg" version="1.1" width="682" height="612" class="tree" data-char="132"><text x="678" y="14.1" text-anchor="end" class="stepsLabel">Character adds <tspan class="score">6</tspan> to tree score</text><text x="678" y="25.2" text-anchor="end" class="stepsLabel"><tspan class="score">0</tspan> additional regions</text><text x="678" y="36.3" text-anchor="end" class="stepsLabel">CI = 0.17; Fitch CI = 0.17; Fitch RI = 0.29</text><text x="678" y="58.5" text-anchor="end" class="stepsLabel"><tspan dy="16" fill="#34caaf">An optimal tree under:</tspan><tspan x="680" style="font-style:italic" class="thisAn" dy="1.2em">Equal weights</tspan><tspan x="680" style="font-style:italic" class="notThisAn" dy="1.2em">Implied weights, k = 2</tspan><tspan x="680" style="font-style:italic" class="notThisAn" dy="1.2em">IW, k = 3</tspan><tspan x="680" style="font-style:italic" class="notThisAn" dy="1.2em">IW, k = 4.5</tspan><tspan x="680" style="font-style:italic" class="notThisAn" dy="1.2em">IW, k = 7</tspan><tspan x="680" style="font-style:italic" class="notThisAn" dy="1.2em">IW, k = 10.5</tspan><tspan x="680" style="font-style:italic" class="notThisAn" dy="1.2em">IW, k = 16</tspan><tspan x="680" style="font-style:italic" class="notThisAn" dy="1.2em">IW, k = 24</tspan></text><text x="91.7" y="595.7" fill="#fc8d59" class="flag">[0]</text><text x="113.7" y="595.7" fill="#000" class="taxonLabel">Wiwaxia corrugata</text><text x="91.7" y="607" fill="#fc8d59" class="flag">[0]</text><text x="113.7" y="607" fill="#000" class="taxonLabel">Dentalium</text><text x="70" y="584.5" fill="#fc8d59" class="flag">[0]</text><text x="92" y="584.5" fill="#000" class="taxonLabel">Tonicella</text><text x="70" y="561.9" fill="#fc8d59" class="flag">[0]</text><text x="92" y="561.9" fill="#000" class="taxonLabel">Serpula</text><text x="70" y="573.2" fill="#fc8d59" class="flag">[0]</text><text x="92" y="573.2" fill="#000" class="taxonLabel">Sipunculus</text><text x="373.6" y="528.2" fill="#fc8d59" class="flag">[0]</text><text x="395.6" y="528.2" fill="#000" class="taxonLabel">Pelagodiscus atlanticus</text><text x="373.6" y="539.4" fill="#fc8d59" class="flag">[0]</text><text x="395.6" y="539.4" fill="#000" class="taxonLabel">Mummpikia nuda</text><text x="351.9" y="516.9" fill="#91bfdb" class="flag">[1]</text><text x="373.9" y="516.9" fill="#000" class="taxonLabel">Lingula</text><text x="395.3" y="494.4" fill="#91bfdb" class="flag">[1]</text><text x="417.3" y="494.4" fill="#000" class="taxonLabel">Acanthotretella spinosa</text><text x="395.3" y="505.6" fill="#91bfdb" class="flag">[1]</text><text x="417.3" y="505.6" fill="#000" class="taxonLabel">Siphonobolus priscus</text><text x="395.3" y="471.8" fill="#fc8d59" class="flag">[0]</text><text x="417.3" y="471.8" fill="#000" class="taxonLabel">Clupeafumosus socialis</text><text x="395.3" y="483.1" fill="#fc8d59" class="flag">[0]</text><text x="417.3" y="483.1" fill="#000" class="taxonLabel">Lingulosacculus</text><text x="351.9" y="460.6" fill="#fc8d59" class="flag">[0]</text><text x="373.9" y="460.6" fill="#000" class="taxonLabel">Lingulellotreta malongensis</text><text x="330.2" y="438" fill="#fc8d59" class="flag">[0]</text><text x="352.2" y="438" fill="#000" class="taxonLabel">Botsfordia</text><text x="330.2" y="449.3" fill="#fc8d59" class="flag">[0]</text><text x="352.2" y="449.3" fill="#000" class="taxonLabel">Eoobolus</text><text x="330.2" y="415.5" fill="#fc8d59" class="flag">[0]</text><text x="352.2" y="415.5" fill="#000" class="taxonLabel">Gasconsia</text><text x="330.2" y="426.8" fill="#fc8d59" class="flag">[0]</text><text x="352.2" y="426.8" fill="#000" class="taxonLabel">Micromitra</text><text x="395.3" y="393" fill="#fc8d59" class="flag">[0]</text><text x="417.3" y="393" fill="#000" class="taxonLabel">Craniops</text><text x="395.3" y="404.2" fill="#91bfdb" class="flag">[1]</text><text x="417.3" y="404.2" fill="#000" class="taxonLabel">Novocrania</text><text x="373.6" y="381.7" fill="grey" class="flag">[?]</text><text x="395.6" y="381.7" fill="#999" class="taxonLabel">Ussunia</text><text x="351.9" y="370.5" fill="#91bfdb" class="flag">[1]</text><text x="373.9" y="370.5" fill="#000" class="taxonLabel">Heliomedusa orienta</text><text x="330.2" y="359.2" fill="#91bfdb" class="flag">[1]</text><text x="352.2" y="359.2" fill="#000" class="taxonLabel">Mickwitzia muralensis</text><text x="373.6" y="336.7" fill="#fc8d59" class="flag">[0]</text><text x="395.6" y="336.7" fill="#000" class="taxonLabel">Coolinia pecten</text><text x="373.6" y="347.9" fill="#fc8d59" class="flag">[0]</text><text x="395.6" y="347.9" fill="#000" class="taxonLabel">Antigonambonites planus</text><text x="482" y="314.1" fill="#91bfdb" class="flag">[1]</text><text x="504" y="314.1" fill="#000" class="taxonLabel">Terebratulina</text><text x="482" y="325.4" fill="#fc8d59" class="flag">[0]</text><text x="504" y="325.4" fill="#000" class="taxonLabel">Orthis</text><text x="460.3" y="302.9" fill="#fc8d59" class="flag">[0]</text><text x="482.3" y="302.9" fill="#000" class="taxonLabel">Alisina</text><text x="438.6" y="291.6" fill="#fc8d59" class="flag">[0]</text><text x="460.6" y="291.6" fill="#000" class="taxonLabel">Longtancunella chengjiangensis</text><text x="417" y="280.3" fill="#fc8d59" class="flag">[0]</text><text x="439" y="280.3" fill="#000" class="taxonLabel">Glyptoria</text><text x="395.3" y="269.1" fill="#fc8d59" class="flag">[0]</text><text x="417.3" y="269.1" fill="#000" class="taxonLabel">Nisusia sulcata</text><text x="373.6" y="257.8" fill="#fc8d59" class="flag">[0]</text><text x="395.6" y="257.8" fill="#000" class="taxonLabel">Kutorgina chengjiangensis</text><text x="351.9" y="235.3" fill="grey" class="flag">[?]</text><text x="373.9" y="235.3" fill="#999" class="taxonLabel">Yuganotheca elegans</text><text x="351.9" y="246.5" fill="#fc8d59" class="flag">[0]</text><text x="373.9" y="246.5" fill="#000" class="taxonLabel">Tomteluva perturbata</text><text x="308.5" y="224" fill="#fc8d59" class="flag">[0]</text><text x="330.5" y="224" fill="#000" class="taxonLabel">Salanygolina</text><text x="286.9" y="212.8" fill="#fc8d59" class="flag">[0]</text><text x="308.9" y="212.8" fill="#000" class="taxonLabel">Askepasma toddense</text><text x="243.5" y="201.5" fill="#91bfdb" class="flag">[1]</text><text x="265.5" y="201.5" fill="#000" class="taxonLabel">Micrina</text><text x="373.6" y="179" fill="grey" class="flag">[?]</text><text x="395.6" y="179" fill="#999" class="taxonLabel">Pauxillites</text><text x="373.6" y="190.2" fill="grey" class="flag">[?]</text><text x="395.6" y="190.2" fill="#999" class="taxonLabel">Maxilites</text><text x="351.9" y="167.7" fill="grey" class="flag">[?]</text><text x="373.9" y="167.7" fill="#999" class="taxonLabel">Haplophrentis carinatus</text><text x="330.2" y="156.4" fill="#fc8d59" class="flag">[0]</text><text x="352.2" y="156.4" fill="#000" class="taxonLabel">Paramicrocornus</text><text x="308.5" y="145.2" fill="grey" class="flag">[?]</text><text x="330.5" y="145.2" fill="#999" class="taxonLabel">Probactrotheca</text><text x="286.9" y="133.9" fill="grey" class="flag">[?]</text><text x="308.9" y="133.9" fill="#999" class="taxonLabel">Decoritheca</text><text x="265.2" y="122.6" fill="grey" class="flag">[?]</text><text x="287.2" y="122.6" fill="#999" class="taxonLabel">Conotheca</text><text x="243.5" y="111.4" fill="grey" class="flag">[?]</text><text x="265.5" y="111.4" fill="#999" class="taxonLabel">Pedunculotheca diania</text><text x="200.1" y="100.1" fill="#fc8d59" class="flag">[0]</text><text x="222.1" y="100.1" fill="#000" class="taxonLabel">Paterimitra</text><text x="178.5" y="88.8" fill="#fc8d59" class="flag">[0]</text><text x="200.5" y="88.8" fill="#000" class="taxonLabel">Halkieria evangelista</text><text x="156.8" y="77.6" fill="#fc8d59" class="flag">[0]</text><text x="178.8" y="77.6" fill="#000" class="taxonLabel">Dailyatia</text><text x="135.1" y="66.3" fill="#fc8d59" class="flag">[0]</text><text x="157.1" y="66.3" fill="#000" class="taxonLabel">Phoronis</text><text x="113.4" y="55.1" fill="grey" class="flag">[?]</text><text x="135.4" y="55.1" fill="#999" class="taxonLabel">Cotyledion tylodes</text><text x="91.7" y="43.8" fill="#fc8d59" class="flag">[0]</text><text x="113.7" y="43.8" fill="#000" class="taxonLabel">Eccentrotheca</text><text x="113.4" y="10" fill="#fc8d59" class="flag">[0]</text><text x="135.4" y="10" fill="#000" class="taxonLabel">Flustra</text><text x="113.4" y="21.3" fill="#fc8d59" class="flag">[0]</text><text x="135.4" y="21.3" fill="#000" class="taxonLabel">Amathia</text><text x="91.7" y="32.5" fill="#fc8d59" class="flag">[0]</text><text x="113.7" y="32.5" fill="#000" class="taxonLabel">Namacalathus</text><text x="48.4" y="550.7" fill="#fc8d59" class="flag">[0]</text><text x="70.4" y="550.7" fill="#000" class="taxonLabel">Loxosomella</text><path d="M5,434.8V292.4H26.7M26.7,292.4V37.1H48.4M48.4,37.1V21.1H70M70,21.1V12.6H91.7M91.7,12.6V7H113.4M91.7,12.6V18.3H113.4M70,21.1V29.5H91.7M48.4,37.1V53.2H70M70,53.2V40.8H91.7M70,53.2V65.6H91.7M91.7,65.6V52.1H113.4M91.7,65.6V79.1H113.4M113.4,79.1V63.3H135.1M113.4,79.1V94.9H135.1M135.1,94.9V74.6H156.8M135.1,94.9V115.1H156.8M156.8,115.1V85.8H178.5M156.8,115.1V144.4H178.5M178.5,144.4V97.1H200.1M178.5,144.4V191.7H200.1M200.1,191.7V119.6H221.8M221.8,119.6V108.4H243.5M221.8,119.6V130.7H243.5M243.5,130.7V119.6H265.2M243.5,130.7V141.8H265.2M265.2,141.8V130.9H286.9M265.2,141.8V152.7H286.9M286.9,152.7V142.2H308.5M286.9,152.7V163.3H308.5M308.5,163.3V153.4H330.2M308.5,163.3V173.1H330.2M330.2,173.1V164.7H351.9M330.2,173.1V181.6H351.9M351.9,181.6V176H373.6M351.9,181.6V187.2H373.6M200.1,191.7V263.8H221.8M221.8,263.8V329.2H243.5M243.5,329.2V227.7H265.2M265.2,227.7V209.8H286.9M265.2,227.7V245.6H286.9M286.9,245.6V221H308.5M286.9,245.6V270.3H308.5M308.5,270.3V237.9H330.2M330.2,237.9V232.3H351.9M330.2,237.9V243.5H351.9M308.5,270.3V302.6H330.2M330.2,302.6V265.9H351.9M351.9,265.9V254.8H373.6M351.9,265.9V277H373.6M373.6,277V266.1H395.3M373.6,277V287.9H395.3M395.3,287.9V277.3H417M395.3,287.9V298.5H417M417,298.5V288.6H438.6M417,298.5V308.3H438.6M438.6,308.3V299.9H460.3M438.6,308.3V316.8H460.3M460.3,316.8V322.4H482M330.2,302.6V339.3H351.9M351.9,339.3V333.7H373.6M351.9,339.3V344.9H373.6M243.5,329.2V430.6H265.2M265.2,430.6V392.4H286.9M373.6,395.6V390H395.3M286.9,392.4V418.1H308.5M308.5,418.1V412.5H330.2M308.5,418.1V423.8H330.2M265.2,430.6V468.8H286.9M286.9,468.8V440.7H308.5M308.5,440.7V435H330.2M308.5,440.7V446.3H330.2M286.9,468.8V497H308.5M308.5,497V471.6H330.2M330.2,471.6V457.6H351.9M330.2,471.6V485.7H351.9M351.9,485.7V474.5H373.6M373.6,474.5V468.8H395.3M373.6,474.5V480.1H395.3M308.5,497V522.3H330.2M330.2,522.3V530.8H351.9M351.9,530.8V525.2H373.6M351.9,530.8V536.4H373.6M26.7,292.4V547.7H48.4M5,434.8V577.2H26.7M26.7,577.2V564.6H48.4M48.4,564.6V558.9H70M48.4,564.6V570.2H70M26.7,577.2V589.9H48.4M48.4,589.9V581.5H70M48.4,589.9V598.4H70M70,598.4V592.7H91.7M70,598.4V604H91.7" stroke="#fc8d59"></path><path d="M221.8,263.8V198.5H243.5M460.3,316.8V311.1H482M286.9,392.4V366.7H308.5M308.5,366.7V356.2H330.2M308.5,366.7V377.3H330.2M330.2,377.3V367.5H351.9M330.2,377.3V387.2H351.9M351.9,387.2V378.7H373.6M351.9,387.2V395.6H373.6M373.6,395.6V401.2H395.3M351.9,485.7V497H373.6M373.6,497V491.4H395.3M373.6,497V502.6H395.3M330.2,522.3V513.9H351.9" stroke="#91bfdb"></path><text x="7" y="437.8" class="node" fill="#4A6FE3">1</text><text x="28.7" y="295.4" class="node" fill="#4A6FE3">1</text><text x="50.4" y="40.1" class="node" fill="#4A6FE3">1</text><text x="72" y="24.1" class="node" fill="#E6B1BB">0.34</text><text x="93.7" y="15.6" class="node" fill="#4A6FE3">1</text><text x="72" y="56.2" class="node" fill="#E3DFE0">0.49</text><text x="93.7" y="68.6" class="node" fill="#E17F94">0.18</text><text x="115.4" y="82.1" class="node" fill="#DC6884">0.11</text><text x="137.1" y="97.9" class="node" fill="#E6C4C9">0.4</text><text x="158.8" y="118.1" class="node" fill="#A8B1E2">0.71</text><text x="180.5" y="147.4" class="node" fill="#A8B1E2">0.71</text><text x="202.1" y="194.7" class="node" fill="#A8B1E2">0.71</text><text x="223.8" y="122.6" class="node" fill="#A8B1E2">0.71</text><text x="245.5" y="133.7" class="node" fill="#4A6FE3">1</text><text x="267.2" y="144.8" class="node" fill="#E17F94">0.18</text><text x="288.9" y="155.7" class="node" fill="#DB6581">0.1</text><text x="310.5" y="166.3" class="node" fill="#7A8DE1">0.87</text><text x="332.2" y="176.1" class="node" fill="#E6B1BB">0.34</text><text x="353.9" y="184.6" class="node" fill="#4A6FE3">1</text><text x="223.8" y="266.8" class="node" fill="#667FE1">0.93</text><text x="245.5" y="332.2" class="node" fill="#D5D7E3">0.55</text><text x="267.2" y="230.7" class="node" fill="#ABB4E2">0.7</text><text x="288.9" y="248.6" class="node" fill="#97A4E2">0.77</text><text x="310.5" y="273.3" class="node" fill="#D2D4E3">0.57</text><text x="332.2" y="240.9" class="node" fill="#DDDEE3">0.52</text><text x="332.2" y="305.6" class="node" fill="#9AA6E2">0.76</text><text x="353.9" y="268.9" class="node" fill="#929FE1">0.79</text><text x="375.6" y="280" class="node" fill="#929FE1">0.79</text><text x="397.3" y="290.9" class="node" fill="#929FE1">0.79</text><text x="419" y="301.5" class="node" fill="#7A8DE1">0.87</text><text x="440.6" y="311.3" class="node" fill="#4A6FE3">1</text><text x="462.3" y="319.8" class="node" fill="#929FE1">0.79</text><text x="353.9" y="342.3" class="node" fill="#4A6FE3">1</text><text x="267.2" y="433.6" class="node" fill="#B9BFE3">0.65</text><text x="288.9" y="395.4" class="node" fill="#D2D4E3">0.57</text><text x="310.5" y="369.7" class="node" fill="#D2D4E3">0.57</text><text x="332.2" y="380.3" class="node" fill="#7A8DE1">0.87</text><text x="353.9" y="390.2" class="node" fill="#4A6FE3">1</text><text x="375.6" y="398.6" class="node" fill="#4A6FE3">1</text><text x="310.5" y="421.1" class="node" fill="#BCC2E3">0.64</text><text x="288.9" y="471.8" class="node" fill="#A3ADE2">0.73</text><text x="310.5" y="443.7" class="node" fill="#E5C7CC">0.41</text><text x="310.5" y="500" class="node" fill="#DDDEE3">0.52</text><text x="332.2" y="474.6" class="node" fill="#E392A2">0.24</text><text x="353.9" y="488.7" class="node" fill="#AEB6E2">0.69</text><text x="375.6" y="477.5" class="node" fill="#E498A7">0.26</text><text x="375.6" y="500" class="node" fill="#5776E2">0.97</text><text x="332.2" y="525.3" class="node" fill="#E6AEB8">0.33</text><text x="353.9" y="533.8" class="node" fill="#D2D4E3">0.56</text><text x="28.7" y="580.2" class="node" fill="#4A6FE3">1</text><text x="50.4" y="567.6" class="node" fill="#4A6FE3">1</text><text x="50.4" y="592.9" class="node" fill="#4A6FE3">1</text><text x="72" y="601.4" class="node" fill="#6D84E1">0.91</text></svg>
