<svg xmlns="http://www.w3.org/2000/svg" version="1.1" width="682" height="612" class="tree" data-char="121"><text x="678" y="14.1" text-anchor="end" class="stepsLabel">Character adds <tspan class="score">2</tspan> to tree score</text><text x="678" y="25.2" text-anchor="end" class="stepsLabel"><tspan class="score">0</tspan> additional regions</text><text x="678" y="36.3" text-anchor="end" class="stepsLabel">CI = 0.5; Fitch CI = 0.5; Fitch RI = 0.5</text><text x="678" y="58.5" text-anchor="end" class="stepsLabel"><tspan dy="16" fill="#34caaf">An optimal tree under:</tspan><tspan x="680" style="font-style:italic" class="notThisAn" dy="1.2em">Equal weights</tspan><tspan x="680" style="font-style:italic" class="notThisAn" dy="1.2em">Implied weights, k = 2</tspan><tspan x="680" style="font-style:italic" class="notThisAn" dy="1.2em">IW, k = 3</tspan><tspan x="680" style="font-style:italic" class="notThisAn" dy="1.2em">IW, k = 4.5</tspan><tspan x="680" style="font-style:italic" class="thisAn" dy="1.2em">IW, k = 7</tspan><tspan x="680" style="font-style:italic" class="notThisAn" dy="1.2em">IW, k = 10.5</tspan><tspan x="680" style="font-style:italic" class="notThisAn" dy="1.2em">IW, k = 16</tspan><tspan x="680" style="font-style:italic" class="notThisAn" dy="1.2em">IW, k = 24</tspan></text><text x="111" y="595.7" fill="#fc8d59" class="flag">[0]</text><text x="133" y="595.7" fill="#000" class="taxonLabel">Dentalium</text><text x="111" y="607" fill="#fc8d59" class="flag">[0]</text><text x="133" y="607" fill="#000" class="taxonLabel">Wiwaxia corrugata</text><text x="84.5" y="584.5" fill="#fc8d59" class="flag">[0]</text><text x="106.5" y="584.5" fill="#000" class="taxonLabel">Tonicella</text><text x="84.5" y="561.9" fill="#fc8d59" class="flag">[0]</text><text x="106.5" y="561.9" fill="#000" class="taxonLabel">Sipunculus</text><text x="84.5" y="573.2" fill="#fc8d59" class="flag">[0]</text><text x="106.5" y="573.2" fill="#000" class="taxonLabel">Serpula</text><text x="376" y="528.2" fill="#fc8d59" class="flag">[0]</text><text x="398" y="528.2" fill="#000" class="taxonLabel">Novocrania</text><text x="376" y="539.4" fill="#fc8d59" class="flag">[0]</text><text x="398" y="539.4" fill="#000" class="taxonLabel">Craniops</text><text x="349.5" y="516.9" fill="#fc8d59" class="flag">[0]</text><text x="371.5" y="516.9" fill="#000" class="taxonLabel">Ussunia</text><text x="323" y="505.6" fill="#fc8d59" class="flag">[0]</text><text x="345" y="505.6" fill="#000" class="taxonLabel">Heliomedusa orienta</text><text x="455.5" y="483.1" fill="#fc8d59" class="flag">[0]</text><text x="477.5" y="483.1" fill="#000" class="taxonLabel">Pauxillites</text><text x="455.5" y="494.4" fill="#fc8d59" class="flag">[0]</text><text x="477.5" y="494.4" fill="#000" class="taxonLabel">Maxilites</text><text x="429" y="471.8" fill="#fc8d59" class="flag">[0]</text><text x="451" y="471.8" fill="#000" class="taxonLabel">Paramicrocornus</text><text x="402.5" y="460.6" fill="#fc8d59" class="flag">[0]</text><text x="424.5" y="460.6" fill="#000" class="taxonLabel">Haplophrentis carinatus</text><text x="429" y="438" fill="#fc8d59" class="flag">[0]</text><text x="451" y="438" fill="#000" class="taxonLabel">Probactrotheca</text><text x="429" y="449.3" fill="#fc8d59" class="flag">[0]</text><text x="451" y="449.3" fill="#000" class="taxonLabel">Decoritheca</text><text x="402.5" y="426.8" fill="#fc8d59" class="flag">[0]</text><text x="424.5" y="426.8" fill="#000" class="taxonLabel">Conotheca</text><text x="349.5" y="415.5" fill="#fc8d59" class="flag">[0]</text><text x="371.5" y="415.5" fill="#000" class="taxonLabel">Pedunculotheca diania</text><text x="323" y="404.2" fill="#fc8d59" class="flag">[0]</text><text x="345" y="404.2" fill="#000" class="taxonLabel">Yuganotheca elegans</text><text x="349.5" y="381.7" fill="#fc8d59" class="flag">[0]</text><text x="371.5" y="381.7" fill="#000" class="taxonLabel">Pelagodiscus atlanticus</text><text x="349.5" y="393" fill="#fc8d59" class="flag">[0]</text><text x="371.5" y="393" fill="#000" class="taxonLabel">Mickwitzia muralensis</text><text x="402.5" y="359.2" fill="#fc8d59" class="flag">[0]</text><text x="424.5" y="359.2" fill="#000" class="taxonLabel">Mummpikia nuda</text><text x="402.5" y="370.5" fill="#fc8d59" class="flag">[0]</text><text x="424.5" y="370.5" fill="#000" class="taxonLabel">Botsfordia</text><text x="376" y="347.9" fill="#fc8d59" class="flag">[0]</text><text x="398" y="347.9" fill="#000" class="taxonLabel">Eoobolus</text><text x="455.5" y="325.4" fill="#91bfdb" class="flag">[1]</text><text x="477.5" y="325.4" fill="#000" class="taxonLabel">Siphonobolus priscus</text><text x="455.5" y="336.7" fill="#91bfdb" class="flag">[1]</text><text x="477.5" y="336.7" fill="#000" class="taxonLabel">Acanthotretella spinosa</text><text x="429" y="314.1" fill="#fc8d59" class="flag">[0]</text><text x="451" y="314.1" fill="#000" class="taxonLabel">Lingulosacculus</text><text x="402.5" y="302.9" fill="#fc8d59" class="flag">[0]</text><text x="424.5" y="302.9" fill="#000" class="taxonLabel">Clupeafumosus socialis</text><text x="402.5" y="280.3" fill="#fc8d59" class="flag">[0]</text><text x="424.5" y="280.3" fill="#000" class="taxonLabel">Lingula</text><text x="402.5" y="291.6" fill="#fc8d59" class="flag">[0]</text><text x="424.5" y="291.6" fill="#000" class="taxonLabel">Lingulellotreta malongensis</text><text x="323" y="257.8" fill="#fc8d59" class="flag">[0]</text><text x="345" y="257.8" fill="#000" class="taxonLabel">Micromitra</text><text x="323" y="269.1" fill="#fc8d59" class="flag">[0]</text><text x="345" y="269.1" fill="#000" class="taxonLabel">Gasconsia</text><text x="482" y="235.3" fill="#fc8d59" class="flag">[0]</text><text x="504" y="235.3" fill="#000" class="taxonLabel">Orthis</text><text x="482" y="246.5" fill="#fc8d59" class="flag">[0]</text><text x="504" y="246.5" fill="#000" class="taxonLabel">Terebratulina</text><text x="455.5" y="224" fill="#fc8d59" class="flag">[0]</text><text x="477.5" y="224" fill="#000" class="taxonLabel">Alisina</text><text x="429" y="212.8" fill="#fc8d59" class="flag">[0]</text><text x="451" y="212.8" fill="#000" class="taxonLabel">Longtancunella chengjiangensis</text><text x="402.5" y="201.5" fill="#fc8d59" class="flag">[0]</text><text x="424.5" y="201.5" fill="#000" class="taxonLabel">Glyptoria</text><text x="376" y="190.2" fill="#91bfdb" class="flag">[1]</text><text x="398" y="190.2" fill="#000" class="taxonLabel">Nisusia sulcata</text><text x="349.5" y="179" fill="#fc8d59" class="flag">[0]</text><text x="371.5" y="179" fill="#000" class="taxonLabel">Kutorgina chengjiangensis</text><text x="349.5" y="156.4" fill="#fc8d59" class="flag">[0]</text><text x="371.5" y="156.4" fill="#000" class="taxonLabel">Coolinia pecten</text><text x="349.5" y="167.7" fill="#fc8d59" class="flag">[0]</text><text x="371.5" y="167.7" fill="#000" class="taxonLabel">Antigonambonites planus</text><text x="323" y="133.9" fill="#fc8d59" class="flag">[0]</text><text x="345" y="133.9" fill="#000" class="taxonLabel">Salanygolina</text><text x="323" y="145.2" fill="#fc8d59" class="flag">[0]</text><text x="345" y="145.2" fill="#000" class="taxonLabel">Tomteluva perturbata</text><text x="270" y="122.6" fill="#fc8d59" class="flag">[0]</text><text x="292" y="122.6" fill="#000" class="taxonLabel">Askepasma toddense</text><text x="217" y="111.4" fill="#fc8d59" class="flag">[0]</text><text x="239" y="111.4" fill="#000" class="taxonLabel">Micrina</text><text x="190.5" y="100.1" fill="#fc8d59" class="flag">[0]</text><text x="212.5" y="100.1" fill="#000" class="taxonLabel">Paterimitra</text><text x="164" y="88.8" fill="#fc8d59" class="flag">[0]</text><text x="186" y="88.8" fill="#000" class="taxonLabel">Halkieria evangelista</text><text x="190.5" y="66.3" fill="#fc8d59" class="flag">[0]</text><text x="212.5" y="66.3" fill="#000" class="taxonLabel">Phoronis</text><text x="190.5" y="77.6" fill="#fc8d59" class="flag">[0]</text><text x="212.5" y="77.6" fill="#000" class="taxonLabel">Namacalathus</text><text x="190.5" y="43.8" fill="#fc8d59" class="flag">[0]</text><text x="212.5" y="43.8" fill="#000" class="taxonLabel">Dailyatia</text><text x="190.5" y="55.1" fill="#fc8d59" class="flag">[0]</text><text x="212.5" y="55.1" fill="#000" class="taxonLabel">Cotyledion tylodes</text><text x="111" y="32.5" fill="#fc8d59" class="flag">[0]</text><text x="133" y="32.5" fill="#000" class="taxonLabel">Eccentrotheca</text><text x="111" y="10" fill="#fc8d59" class="flag">[0]</text><text x="133" y="10" fill="#000" class="taxonLabel">Flustra</text><text x="111" y="21.3" fill="#fc8d59" class="flag">[0]</text><text x="133" y="21.3" fill="#000" class="taxonLabel">Amathia</text><text x="58" y="550.7" fill="#fc8d59" class="flag">[0]</text><text x="80" y="550.7" fill="#000" class="taxonLabel">Loxosomella</text><path d="M5,434.3V291.4H31.5M31.5,291.4V35.1H58M58,35.1V12.6H84.5M84.5,12.6V7H111M84.5,12.6V18.3H111M58,35.1V57.5H84.5M84.5,57.5V29.5H111M84.5,57.5V85.6H111M111,85.6V57.7H137.5M137.5,57.7V46.4H164M164,46.4V40.8H190.5M164,46.4V52.1H190.5M137.5,57.7V69H164M164,69V63.3H190.5M164,69V74.6H190.5M111,85.6V113.4H137.5M137.5,113.4V85.8H164M137.5,113.4V141H164M164,141V97.1H190.5M164,141V185H190.5M190.5,185V108.4H217M190.5,185V261.6H217M217,261.6V137.2H243.5M243.5,137.2V119.6H270M243.5,137.2V154.8H270M270,154.8V136.5H296.5M296.5,136.5V130.9H323M296.5,136.5V142.2H323M270,154.8V173.1H296.5M296.5,173.1V159.1H323M323,159.1V153.4H349.5M323,159.1V164.7H349.5M296.5,173.1V187.1H323M323,187.1V176H349.5M323,187.1V198.1H349.5M349.5,198.1V209.1H376M376,209.1V198.5H402.5M376,209.1V219.6H402.5M402.5,219.6V209.8H429M402.5,219.6V229.5H429M429,229.5V221H455.5M429,229.5V237.9H455.5M455.5,237.9V232.3H482M455.5,237.9V243.5H482M217,261.6V385.9H243.5M243.5,385.9V307.5H270M270,307.5V260.4H296.5M296.5,260.4V254.8H323M296.5,260.4V266.1H323M270,307.5V354.6H296.5M296.5,354.6V324.9H323M323,324.9V296.3H349.5M349.5,296.3V283H376M376,283V277.3H402.5M376,283V288.6H402.5M349.5,296.3V309.7H376M376,309.7V299.9H402.5M376,309.7V319.6H402.5M402.5,319.6V311.1H429M323,324.9V353.4H349.5M349.5,353.4V344.9H376M349.5,353.4V361.8H376M376,361.8V356.2H402.5M376,361.8V367.5H402.5M296.5,354.6V384.3H323M323,384.3V378.7H349.5M323,384.3V390H349.5M243.5,385.9V464.3H270M270,464.3V416.2H296.5M296.5,416.2V401.2H323M296.5,416.2V431.2H323M323,431.2V412.5H349.5M323,431.2V449.8H349.5M349.5,449.8V432.2H376M376,432.2V423.8H402.5M376,432.2V440.7H402.5M402.5,440.7V435H429M402.5,440.7V446.3H429M349.5,449.8V467.4H376M376,467.4V457.6H402.5M376,467.4V477.3H402.5M402.5,477.3V468.8H429M402.5,477.3V485.7H429M429,485.7V480.1H455.5M429,485.7V491.4H455.5M270,464.3V512.5H296.5M296.5,512.5V502.6H323M296.5,512.5V522.3H323M323,522.3V513.9H349.5M323,522.3V530.8H349.5M349.5,530.8V525.2H376M349.5,530.8V536.4H376M31.5,291.4V547.7H58M5,434.3V577.2H31.5M31.5,577.2V564.6H58M58,564.6V558.9H84.5M58,564.6V570.2H84.5M31.5,577.2V589.9H58M58,589.9V581.5H84.5M58,589.9V598.4H84.5M84.5,598.4V592.7H111M84.5,598.4V604H111" stroke="#fc8d59"></path><path d="M349.5,198.1V187.2H376M402.5,319.6V328H429M429,328V322.4H455.5M429,328V333.7H455.5" stroke="#91bfdb"></path><text x="7" y="437.3" class="node" fill="#4A6FE3">1</text><text x="33.5" y="294.4" class="node" fill="#4A6FE3">1</text><text x="60" y="38.1" class="node" fill="#4A6FE3">1</text><text x="86.5" y="15.6" class="node" fill="#4A6FE3">1</text><text x="86.5" y="60.5" class="node" fill="#B6BDE3">0.66</text><text x="113" y="88.6" class="node" fill="#D64F73">0.04</text><text x="139.5" y="60.7" class="node" fill="#DA5E7D">0.08</text><text x="166" y="49.4" class="node" fill="#E28699">0.2</text><text x="166" y="72" class="node" fill="#E6C1C7">0.39</text><text x="139.5" y="116.4" class="node" fill="#A8B1E2">0.71</text><text x="166" y="144" class="node" fill="#A8B1E2">0.71</text><text x="192.5" y="188" class="node" fill="#A8B1E2">0.71</text><text x="219" y="264.6" class="node" fill="#D95A7A">0.07</text><text x="245.5" y="140.2" class="node" fill="#D95A7A">0.07</text><text x="272" y="157.8" class="node" fill="#D95A7A">0.07</text><text x="298.5" y="139.5" class="node" fill="#D95A7A">0.07</text><text x="298.5" y="176.1" class="node" fill="#9AA6E2">0.76</text><text x="325" y="162.1" class="node" fill="#4A6FE3">1</text><text x="325" y="190.1" class="node" fill="#929FE1">0.79</text><text x="351.5" y="201.1" class="node" fill="#929FE1">0.79</text><text x="378" y="212.1" class="node" fill="#929FE1">0.79</text><text x="404.5" y="222.6" class="node" fill="#7A8DE1">0.87</text><text x="431" y="232.5" class="node" fill="#4A6FE3">1</text><text x="457.5" y="240.9" class="node" fill="#929FE1">0.79</text><text x="245.5" y="388.9" class="node" fill="#D95A7A">0.07</text><text x="272" y="310.5" class="node" fill="#D95A7A">0.07</text><text x="298.5" y="263.4" class="node" fill="#BCC2E3">0.64</text><text x="298.5" y="357.6" class="node" fill="#E49CAA">0.27</text><text x="325" y="327.9" class="node" fill="#E49CAA">0.27</text><text x="351.5" y="299.3" class="node" fill="#E4D6D8">0.46</text><text x="378" y="286" class="node" fill="#E6B4BD">0.35</text><text x="378" y="312.7" class="node" fill="#AEB6E2">0.69</text><text x="404.5" y="322.6" class="node" fill="#E59FAC">0.29</text><text x="431" y="331" class="node" fill="#5776E2">0.97</text><text x="351.5" y="356.4" class="node" fill="#E5D0D3">0.44</text><text x="378" y="364.8" class="node" fill="#E59FAC">0.28</text><text x="325" y="387.3" class="node" fill="#E49CAA">0.27</text><text x="272" y="467.3" class="node" fill="#D95A7A">0.07</text><text x="298.5" y="419.2" class="node" fill="#D95A7A">0.07</text><text x="325" y="434.2" class="node" fill="#A8B1E2">0.71</text><text x="351.5" y="452.8" class="node" fill="#4A6FE3">1</text><text x="378" y="435.2" class="node" fill="#E392A2">0.24</text><text x="404.5" y="443.7" class="node" fill="#E6B1BB">0.34</text><text x="378" y="470.4" class="node" fill="#7A8DE1">0.87</text><text x="404.5" y="480.3" class="node" fill="#C1C6E3">0.62</text><text x="431" y="488.7" class="node" fill="#4A6FE3">1</text><text x="298.5" y="515.5" class="node" fill="#7A8DE1">0.87</text><text x="325" y="525.3" class="node" fill="#4A6FE3">1</text><text x="351.5" y="533.8" class="node" fill="#4A6FE3">1</text><text x="33.5" y="580.2" class="node" fill="#4A6FE3">1</text><text x="60" y="567.6" class="node" fill="#4A6FE3">1</text><text x="60" y="592.9" class="node" fill="#4A6FE3">1</text><text x="86.5" y="601.4" class="node" fill="#6D84E1">0.91</text></svg>
