<svg xmlns="http://www.w3.org/2000/svg" version="1.1" width="682" height="682" class="tree" data-char="34"><text x="678" y="15.6" text-anchor="end" class="stepsLabel">Character adds <tspan class="score">7</tspan> to tree score</text><text x="678" y="28.2" text-anchor="end" class="stepsLabel"><tspan class="score">0</tspan> additional regions</text><text x="678" y="40.8" text-anchor="end" class="stepsLabel">CI = 0.43; Fitch CI = 0.43; Fitch RI = 0.5</text><text x="678" y="66" text-anchor="end" class="stepsLabel"><tspan dy="16" fill="#34caaf">An optimal tree under:</tspan><tspan x="680" style="font-style:italic" class="thisAn" dy="1.2em">Equal weights</tspan><tspan x="680" style="font-style:italic" class="notThisAn" dy="1.2em">Implied weights, k = 2</tspan><tspan x="680" style="font-style:italic" class="notThisAn" dy="1.2em">IW, k = 3</tspan><tspan x="680" style="font-style:italic" class="notThisAn" dy="1.2em">IW, k = 4.5</tspan><tspan x="680" style="font-style:italic" class="notThisAn" dy="1.2em">IW, k = 7</tspan><tspan x="680" style="font-style:italic" class="notThisAn" dy="1.2em">IW, k = 10.5</tspan><tspan x="680" style="font-style:italic" class="notThisAn" dy="1.2em">IW, k = 16</tspan><tspan x="680" style="font-style:italic" class="notThisAn" dy="1.2em">IW, k = 24</tspan></text><text x="76.6" y="664.2" fill="lightgrey" class="flag">[-]</text><text x="98.6" y="664.2" fill="#ccc" class="taxonLabel">Serpula</text><text x="76.6" y="677" fill="lightgrey" class="flag">[-]</text><text x="98.6" y="677" fill="#ccc" class="taxonLabel">Sipunculus</text><text x="100.4" y="638.5" fill="lightgrey" class="flag">[-]</text><text x="122.4" y="638.5" fill="#ccc" class="taxonLabel">Tonicella</text><text x="100.4" y="651.3" fill="lightgrey" class="flag">[-]</text><text x="122.4" y="651.3" fill="#ccc" class="taxonLabel">Dentalium</text><text x="76.6" y="625.7" fill="lightgrey" class="flag">[-]</text><text x="98.6" y="625.7" fill="#ccc" class="taxonLabel">Wiwaxia corrugata</text><text x="362.8" y="587.2" fill="grey" class="flag">[?]</text><text x="384.8" y="587.2" fill="#999" class="taxonLabel">Pauxillites</text><text x="362.8" y="600" fill="grey" class="flag">[?]</text><text x="384.8" y="600" fill="#999" class="taxonLabel">Maxilites</text><text x="338.9" y="574.4" fill="grey" class="flag">[?]</text><text x="360.9" y="574.4" fill="#999" class="taxonLabel">Haplophrentis carinatus</text><text x="315.1" y="561.6" fill="lightgrey" class="flag">[-]</text><text x="337.1" y="561.6" fill="#ccc" class="taxonLabel">Paramicrocornus</text><text x="291.2" y="548.7" fill="grey" class="flag">[?]</text><text x="313.2" y="548.7" fill="#999" class="taxonLabel">Bactrotheca</text><text x="267.4" y="535.9" fill="grey" class="flag">[?]</text><text x="289.4" y="535.9" fill="#999" class="taxonLabel">Conotheca</text><text x="243.5" y="523.1" fill="grey" class="flag">[?]</text><text x="265.5" y="523.1" fill="#999" class="taxonLabel">Pedunculotheca diania</text><text x="410.5" y="497.4" fill="#e2e2a2" class="flag">[2]</text><text x="432.5" y="497.4" fill="#000" class="taxonLabel">Pelagodiscus atlanticus</text><text x="410.5" y="510.2" fill="grey" class="flag">[?]</text><text x="432.5" y="510.2" fill="#999" class="taxonLabel">Mummpikia nuda</text><text x="482" y="471.8" fill="#abd9e9" class="flag">[3]</text><text x="504" y="471.8" fill="#000" class="taxonLabel">Siphonobolus priscus</text><text x="482" y="484.6" fill="#abd9e9" class="flag">[3]</text><text x="504" y="484.6" fill="#000" class="taxonLabel">Acanthotretella spinosa</text><text x="458.2" y="458.9" fill="#abd9e9" class="flag">[3]</text><text x="480.2" y="458.9" fill="#000" class="taxonLabel">Lingulosacculus</text><text x="434.3" y="446.1" fill="#fdae61" class="flag">[1]</text><text x="456.3" y="446.1" fill="#000" class="taxonLabel">Clupeafumosus socialis</text><text x="410.5" y="433.3" fill="#abd9e9" class="flag">[3]</text><text x="432.5" y="433.3" fill="#000" class="taxonLabel">Lingulellotreta malongensis</text><text x="362.8" y="420.5" fill="#abd9e9" class="flag">[3]</text><text x="384.8" y="420.5" fill="#000" class="taxonLabel">Botsfordia</text><text x="338.9" y="407.6" fill="#abd9e9" class="flag">[3]</text><text x="360.9" y="407.6" fill="#000" class="taxonLabel">Eoobolus</text><text x="315.1" y="394.8" fill="#e2e2a2" class="flag">[2]</text><text x="337.1" y="394.8" fill="#000" class="taxonLabel">Lingula</text><text x="410.5" y="369.2" fill="#fdae61" class="flag">[1]</text><text x="432.5" y="369.2" fill="#000" class="taxonLabel">Novocrania</text><text x="410.5" y="382" fill="grey" class="flag">[?]</text><text x="432.5" y="382" fill="#999" class="taxonLabel">Craniops</text><text x="386.6" y="356.3" fill="grey" class="flag">[?]</text><text x="408.6" y="356.3" fill="#999" class="taxonLabel">Ussunia</text><text x="362.8" y="343.5" fill="#fdae61" class="flag">[1]</text><text x="384.8" y="343.5" fill="#000" class="taxonLabel">Heliomedusa orienta</text><text x="338.9" y="330.7" fill="grey" class="flag">[?]</text><text x="360.9" y="330.7" fill="#999" class="taxonLabel">Mickwitzia muralensis</text><text x="338.9" y="305" fill="#2c7bb6" class="flag">[4]</text><text x="360.9" y="305" fill="#000" class="taxonLabel">Micromitra</text><text x="338.9" y="317.8" fill="grey" class="flag">[?]</text><text x="360.9" y="317.8" fill="#999" class="taxonLabel">Gasconsia</text><text x="458.2" y="279.4" fill="#2c7bb6" class="flag">[4]</text><text x="480.2" y="279.4" fill="#000" class="taxonLabel">Orthis</text><text x="458.2" y="292.2" fill="#fdae61" class="flag">[1]</text><text x="480.2" y="292.2" fill="#000" class="taxonLabel">Terebratulina</text><text x="434.3" y="266.5" fill="#abd9e9" class="flag">[3]</text><text x="456.3" y="266.5" fill="#000" class="taxonLabel">Alisina</text><text x="410.5" y="253.7" fill="#fdae61" class="flag">[1]</text><text x="432.5" y="253.7" fill="#000" class="taxonLabel">Glyptoria</text><text x="410.5" y="228.1" fill="grey" class="flag">[?]</text><text x="432.5" y="228.1" fill="#999" class="taxonLabel">Kutorgina chengjiangensis</text><text x="410.5" y="240.9" fill="#fdae61" class="flag">[1]</text><text x="432.5" y="240.9" fill="#000" class="taxonLabel">Nisusia sulcata</text><text x="386.6" y="202.4" fill="grey" class="flag">[?]</text><text x="408.6" y="202.4" fill="#999" class="taxonLabel">Antigonambonites planus</text><text x="386.6" y="215.2" fill="grey" class="flag">[?]</text><text x="408.6" y="215.2" fill="#999" class="taxonLabel">Coolinia pecten</text><text x="386.6" y="176.8" fill="grey" class="flag">[?]</text><text x="408.6" y="176.8" fill="#999" class="taxonLabel">Tomteluva perturbata</text><text x="386.6" y="189.6" fill="#fdae61" class="flag">[1]</text><text x="408.6" y="189.6" fill="#000" class="taxonLabel">Yuganotheca elegans</text><text x="362.8" y="163.9" fill="#fdae61" class="flag">[1]</text><text x="384.8" y="163.9" fill="#000" class="taxonLabel">Longtancunella chengjiangensis</text><text x="315.1" y="151.1" fill="grey" class="flag">[?]</text><text x="337.1" y="151.1" fill="#999" class="taxonLabel">Salanygolina</text><text x="291.2" y="138.3" fill="#fdae61" class="flag">[1]</text><text x="313.2" y="138.3" fill="#000" class="taxonLabel">Askepasma toddense</text><text x="243.5" y="125.4" fill="grey" class="flag">[?]</text><text x="265.5" y="125.4" fill="#999" class="taxonLabel">Micrina</text><text x="195.8" y="112.6" fill="lightgrey" class="flag">[-]</text><text x="217.8" y="112.6" fill="#ccc" class="taxonLabel">Paterimitra</text><text x="172" y="99.8" fill="lightgrey" class="flag">[-]</text><text x="194" y="99.8" fill="#ccc" class="taxonLabel">Halkieria evangelista</text><text x="172" y="74.1" fill="lightgrey" class="flag">[-]</text><text x="194" y="74.1" fill="#ccc" class="taxonLabel">Eccentrotheca</text><text x="172" y="87" fill="lightgrey" class="flag">[-]</text><text x="194" y="87" fill="#ccc" class="taxonLabel">Cotyledion tylodes</text><text x="124.2" y="61.3" fill="lightgrey" class="flag">[-]</text><text x="146.2" y="61.3" fill="#ccc" class="taxonLabel">Dailyatia</text><text x="124.2" y="35.7" fill="lightgrey" class="flag">[-]</text><text x="146.2" y="35.7" fill="#ccc" class="taxonLabel">Phoronis</text><text x="124.2" y="48.5" fill="lightgrey" class="flag">[-]</text><text x="146.2" y="48.5" fill="#ccc" class="taxonLabel">Namacalathus</text><text x="100.4" y="10" fill="lightgrey" class="flag">[-]</text><text x="122.4" y="10" fill="#ccc" class="taxonLabel">Flustra</text><text x="100.4" y="22.8" fill="lightgrey" class="flag">[-]</text><text x="122.4" y="22.8" fill="#ccc" class="taxonLabel">Amathia</text><text x="52.7" y="612.9" fill="lightgrey" class="flag">[-]</text><text x="74.7" y="612.9" fill="#ccc" class="taxonLabel">Loxosomella</text><path d="M5,487.2V324.4H28.9M28.9,324.4V39H52.7M52.7,39V13.4H76.6M76.6,13.4V7H100.4M76.6,13.4V19.8H100.4M52.7,39V64.6H76.6M76.6,64.6V39.1H100.4M100.4,39.1V32.7H124.2M100.4,39.1V45.5H124.2M76.6,64.6V90.1H100.4M100.4,90.1V58.3H124.2M100.4,90.1V121.9H124.2M124.2,121.9V77.5H148.1M148.1,77.5V71.1H172M148.1,77.5V84H172M124.2,121.9V166.3H148.1M148.1,166.3V96.8H172M148.1,166.3V235.8H172M172,235.8V109.6H195.8M172,235.8V362H195.8M195.8,362V532.7H219.7M219.7,532.7V520.1H243.5M219.7,532.7V545.3H243.5M243.5,545.3V532.9H267.4M243.5,545.3V557.8H267.4M267.4,557.8V545.7H291.2M267.4,557.8V569.8H291.2M291.2,569.8V558.6H315.1M291.2,569.8V581H315.1M315.1,581V571.4H338.9M315.1,581V590.6H338.9M338.9,590.6V584.2H362.8M338.9,590.6V597H362.8M28.9,324.4V609.9H52.7M5,487.2V649.9H28.9M28.9,649.9V632.3H52.7M52.7,632.3V622.7H76.6M52.7,632.3V641.9H76.6M76.6,641.9V635.5H100.4M76.6,641.9V648.3H100.4M28.9,649.9V667.6H52.7M52.7,667.6V661.2H76.6M52.7,667.6V674H76.6" stroke="lightgrey" class="inapplicable"></path><path d="M195.8,362V191.3H219.7M219.7,191.3V122.4H243.5M219.7,191.3V260.2H243.5M243.5,260.2V154.3H267.4M267.4,154.3V135.3H291.2M267.4,154.3V173.2H291.2M291.2,173.2V148.1H315.1M291.2,173.2V198.4H315.1M315.1,198.4V170.5H338.9M338.9,170.5V160.9H362.8M338.9,170.5V180.2H362.8M362.8,180.2V173.8H386.6M362.8,180.2V186.6H386.6M315.1,198.4V226.3H338.9M338.9,226.3V205.8H362.8M362.8,205.8V199.4H386.6M362.8,205.8V212.2H386.6M338.9,226.3V246.7H362.8M362.8,246.7V231.5H386.6M386.6,231.5V225.1H410.5M386.6,231.5V237.9H410.5M362.8,246.7V261.9H386.6M386.6,261.9V250.7H410.5M386.6,261.9V273.2H410.5M410.5,273.2V282.8H434.3M434.3,282.8V289.2H458.2M243.5,260.2V366.1H267.4M267.4,366.1V324.1H291.2M291.2,324.1V308.4H315.1M291.2,324.1V339.7H315.1M315.1,339.7V327.7H338.9M315.1,339.7V351.7H338.9M338.9,351.7V340.5H362.8M338.9,351.7V362.9H362.8M362.8,362.9V353.3H386.6M362.8,362.9V372.6H386.6M386.6,372.6V366.2H410.5M386.6,372.6V379H410.5M267.4,366.1V408.2H291.2M410.5,454.3V443.1H434.3" stroke="#fdae61"></path><path d="M410.5,273.2V263.5H434.3M291.2,408.2V424.6H315.1M315.1,424.6V404.6H338.9M315.1,424.6V444.5H338.9M338.9,444.5V417.5H362.8M338.9,444.5V471.6H362.8M362.8,471.6V442.3H386.6M386.6,442.3V430.3H410.5M386.6,442.3V454.3H410.5M410.5,454.3V465.6H434.3M434.3,465.6V455.9H458.2M434.3,465.6V475.2H458.2M458.2,475.2V468.8H482M458.2,475.2V481.6H482M362.8,471.6V500.8H386.6" stroke="#abd9e9"></path><path d="M434.3,282.8V276.4H458.2M315.1,308.4V302H338.9" stroke="#2c7bb6"></path><path d="M315.1,308.4V314.8H338.9M386.6,500.8V507.2H410.5" stroke="darkgrey"></path><path d="M291.2,408.2V391.8H315.1M386.6,500.8V494.4H410.5" stroke="#e2e2a2"></path><text x="7" y="490.2" class="node" fill="#4A6FE3">1</text><text x="30.9" y="327.4" class="node" fill="#4A6FE3">1</text><text x="54.7" y="42" class="node" fill="#4A6FE3">1</text><text x="78.6" y="16.4" class="node" fill="#4A6FE3">1</text><text x="78.6" y="67.6" class="node" fill="#4A6FE3">1</text><text x="102.4" y="42.1" class="node" fill="#E5D0D3">0.44</text><text x="102.4" y="93.1" class="node" fill="#9AA6E2">0.76</text><text x="126.2" y="124.9" class="node" fill="#DF758D">0.15</text><text x="150.1" y="80.5" class="node" fill="#E5A8B3">0.31</text><text x="150.1" y="169.3" class="node" fill="#9AA6E2">0.76</text><text x="174" y="238.8" class="node" fill="#4A6FE3">1</text><text x="197.8" y="365" class="node" fill="#4A6FE3">1</text><text x="221.7" y="194.3" class="node" fill="#9AA6E2">0.76</text><text x="245.5" y="263.2" class="node" fill="#C7CBE3">0.6</text><text x="269.4" y="157.3" class="node" fill="#D7D9E3">0.54</text><text x="293.2" y="176.2" class="node" fill="#9AA6E2">0.76</text><text x="317.1" y="201.4" class="node" fill="#E4D6D8">0.46</text><text x="340.9" y="173.5" class="node" fill="#DD6F88">0.13</text><text x="364.8" y="183.2" class="node" fill="#C1C6E3">0.62</text><text x="340.9" y="229.3" class="node" fill="#E5CDD1">0.43</text><text x="364.8" y="208.8" class="node" fill="#4A6FE3">1</text><text x="364.8" y="249.7" class="node" fill="#E6C1C7">0.39</text><text x="388.6" y="234.5" class="node" fill="#CFD2E3">0.58</text><text x="388.6" y="264.9" class="node" fill="#E3DFE0">0.49</text><text x="412.5" y="276.2" class="node" fill="#627DE1">0.94</text><text x="436.3" y="285.8" class="node" fill="#E2E2E2">0.5</text><text x="269.4" y="369.1" class="node" fill="#D7D9E3">0.54</text><text x="293.2" y="327.1" class="node" fill="#D7D9E3">0.54</text><text x="317.1" y="311.4" class="node" fill="#D7D9E3">0.54</text><text x="317.1" y="342.7" class="node" fill="#D7D9E3">0.54</text><text x="340.9" y="354.7" class="node" fill="#9AA6E2">0.76</text><text x="364.8" y="365.9" class="node" fill="#4A6FE3">1</text><text x="388.6" y="375.6" class="node" fill="#4A6FE3">1</text><text x="293.2" y="411.2" class="node" fill="#95A1E2">0.78</text><text x="317.1" y="427.6" class="node" fill="#E4D9DB">0.47</text><text x="340.9" y="447.5" class="node" fill="#E4D9DB">0.47</text><text x="364.8" y="474.6" class="node" fill="#E4D9DB">0.47</text><text x="388.6" y="445.3" class="node" fill="#E2E2E2">0.5</text><text x="412.5" y="457.3" class="node" fill="#9AA6E2">0.76</text><text x="436.3" y="468.6" class="node" fill="#E59FAC">0.28</text><text x="460.2" y="478.2" class="node" fill="#4F72E2">0.99</text><text x="388.6" y="503.8" class="node" fill="#DDDEE3">0.52</text><text x="221.7" y="535.7" class="node" fill="#4A6FE3">1</text><text x="245.5" y="548.3" class="node" fill="#9AA6E2">0.76</text><text x="269.4" y="560.8" class="node" fill="#E392A2">0.24</text><text x="293.2" y="572.8" class="node" fill="#4A6FE3">1</text><text x="317.1" y="584" class="node" fill="#4A6FE3">1</text><text x="340.9" y="593.6" class="node" fill="#4A6FE3">1</text><text x="30.9" y="652.9" class="node" fill="#4A6FE3">1</text><text x="54.7" y="635.3" class="node" fill="#4A6FE3">1</text><text x="78.6" y="644.9" class="node" fill="#4A6FE3">1</text><text x="54.7" y="670.6" class="node" fill="#4A6FE3">1</text></svg>
