<svg xmlns="http://www.w3.org/2000/svg" version="1.1" width="682" height="612" class="tree" data-char="2"><text x="678" y="14.1" text-anchor="end" class="stepsLabel">Character adds <tspan class="score">5</tspan> to tree score</text><text x="678" y="25.2" text-anchor="end" class="stepsLabel"><tspan class="score">0</tspan> additional regions</text><text x="678" y="36.3" text-anchor="end" class="stepsLabel">CI = 0.6; Fitch CI = 0.6; Fitch RI = 0.6</text><text x="678" y="58.5" text-anchor="end" class="stepsLabel"><tspan dy="16" fill="#34caaf">An optimal tree under:</tspan><tspan x="680" style="font-style:italic" class="notThisAn" dy="1.2em">Equal weights</tspan><tspan x="680" style="font-style:italic" class="notThisAn" dy="1.2em">Implied weights, k = 2</tspan><tspan x="680" style="font-style:italic" class="thisAn" dy="1.2em">IW, k = 3</tspan><tspan x="680" style="font-style:italic" class="notThisAn" dy="1.2em">IW, k = 4.5</tspan><tspan x="680" style="font-style:italic" class="notThisAn" dy="1.2em">IW, k = 7</tspan><tspan x="680" style="font-style:italic" class="notThisAn" dy="1.2em">IW, k = 10.5</tspan><tspan x="680" style="font-style:italic" class="notThisAn" dy="1.2em">IW, k = 16</tspan><tspan x="680" style="font-style:italic" class="notThisAn" dy="1.2em">IW, k = 24</tspan></text><text x="117.2" y="595.7" fill="grey" class="flag">[?]</text><text x="139.2" y="595.7" fill="#999" class="taxonLabel">Wiwaxia corrugata</text><text x="117.2" y="607" fill="lightgrey" class="flag">[-]</text><text x="139.2" y="607" fill="#ccc" class="taxonLabel">Dentalium</text><text x="89.2" y="584.5" fill="lightgrey" class="flag">[-]</text><text x="111.2" y="584.5" fill="#ccc" class="taxonLabel">Tonicella</text><text x="89.2" y="561.9" fill="lightgrey" class="flag">[-]</text><text x="111.2" y="561.9" fill="#ccc" class="taxonLabel">Serpula</text><text x="89.2" y="573.2" fill="lightgrey" class="flag">[-]</text><text x="111.2" y="573.2" fill="#ccc" class="taxonLabel">Sipunculus</text><text x="341.7" y="528.2" fill="lightgrey" class="flag">[-]</text><text x="363.7" y="528.2" fill="#ccc" class="taxonLabel">Tomteluva perturbata</text><text x="341.7" y="539.4" fill="grey" class="flag">[?]</text><text x="363.7" y="539.4" fill="#999" class="taxonLabel">Yuganotheca elegans</text><text x="313.6" y="516.9" fill="#e2e2a2" class="flag">[2]</text><text x="335.6" y="516.9" fill="#000" class="taxonLabel">Salanygolina</text><text x="341.7" y="494.4" fill="#fdae61" class="flag">[1]</text><text x="363.7" y="494.4" fill="#000" class="taxonLabel">Antigonambonites planus</text><text x="341.7" y="505.6" fill="#fdae61" class="flag">[1]</text><text x="363.7" y="505.6" fill="#000" class="taxonLabel">Coolinia pecten</text><text x="482" y="471.8" fill="lightgrey" class="flag">[-]</text><text x="504" y="471.8" fill="#ccc" class="taxonLabel">Terebratulina</text><text x="482" y="483.1" fill="lightgrey" class="flag">[-]</text><text x="504" y="483.1" fill="#ccc" class="taxonLabel">Orthis</text><text x="453.9" y="460.6" fill="lightgrey" class="flag">[-]</text><text x="475.9" y="460.6" fill="#ccc" class="taxonLabel">Alisina</text><text x="425.9" y="449.3" fill="grey" class="flag">[?]</text><text x="447.9" y="449.3" fill="#999" class="taxonLabel">Longtancunella chengjiangensis</text><text x="397.8" y="438" fill="lightgrey" class="flag">[-]</text><text x="419.8" y="438" fill="#ccc" class="taxonLabel">Glyptoria</text><text x="369.8" y="426.8" fill="lightgrey" class="flag">[-]</text><text x="391.8" y="426.8" fill="#ccc" class="taxonLabel">Nisusia sulcata</text><text x="341.7" y="415.5" fill="lightgrey" class="flag">[-]</text><text x="363.7" y="415.5" fill="#ccc" class="taxonLabel">Kutorgina chengjiangensis</text><text x="257.5" y="404.2" fill="#fdae61" class="flag">[1]</text><text x="279.5" y="404.2" fill="#000" class="taxonLabel">Askepasma toddense</text><text x="313.6" y="381.7" fill="#fdae61" class="flag">[1]</text><text x="335.6" y="381.7" fill="#000" class="taxonLabel">Pelagodiscus atlanticus</text><text x="313.6" y="393" fill="#e2e2a2" class="flag">[2]</text><text x="335.6" y="393" fill="#000" class="taxonLabel">Mickwitzia muralensis</text><text x="369.8" y="359.2" fill="grey" class="flag">[?]</text><text x="391.8" y="359.2" fill="#999" class="taxonLabel">Mummpikia nuda</text><text x="369.8" y="370.5" fill="#fdae61" class="flag">[1]</text><text x="391.8" y="370.5" fill="#000" class="taxonLabel">Botsfordia</text><text x="341.7" y="347.9" fill="#fdae61" class="flag">[1]</text><text x="363.7" y="347.9" fill="#000" class="taxonLabel">Eoobolus</text><text x="369.8" y="325.4" fill="#fdae61" class="flag">[1]</text><text x="391.8" y="325.4" fill="#000" class="taxonLabel">Lingulellotreta malongensis</text><text x="369.8" y="336.7" fill="#fdae61" class="flag">[1]</text><text x="391.8" y="336.7" fill="#000" class="taxonLabel">Lingula</text><text x="425.9" y="302.9" fill="grey" class="flag">[?]</text><text x="447.9" y="302.9" fill="#999" class="taxonLabel">Acanthotretella spinosa</text><text x="425.9" y="314.1" fill="#fdae61" class="flag">[1]</text><text x="447.9" y="314.1" fill="#000" class="taxonLabel">Siphonobolus priscus</text><text x="397.8" y="291.6" fill="grey" class="flag">[?]</text><text x="419.8" y="291.6" fill="#999" class="taxonLabel">Lingulosacculus</text><text x="369.8" y="280.3" fill="#fdae61" class="flag">[1]</text><text x="391.8" y="280.3" fill="#000" class="taxonLabel">Clupeafumosus socialis</text><text x="369.8" y="257.8" fill="#fdae61" class="flag">[1]</text><text x="391.8" y="257.8" fill="#000" class="taxonLabel">Craniops</text><text x="369.8" y="269.1" fill="lightgrey" class="flag">[-]</text><text x="391.8" y="269.1" fill="#ccc" class="taxonLabel">Novocrania</text><text x="341.7" y="246.5" fill="grey" class="flag">[?]</text><text x="363.7" y="246.5" fill="#999" class="taxonLabel">Ussunia</text><text x="313.6" y="235.3" fill="grey" class="flag">[?]</text><text x="335.6" y="235.3" fill="#999" class="taxonLabel">Gasconsia</text><text x="285.6" y="224" fill="#fdae61" class="flag">[1]</text><text x="307.6" y="224" fill="#000" class="taxonLabel">Micromitra</text><text x="229.5" y="201.5" fill="#fdae61" class="flag">[1]</text><text x="251.5" y="201.5" fill="#000" class="taxonLabel">Micrina</text><text x="229.5" y="212.8" fill="grey" class="flag">[?]</text><text x="251.5" y="212.8" fill="#999" class="taxonLabel">Heliomedusa orienta</text><text x="173.4" y="190.2" fill="#e2e2a2" class="flag">[2]</text><text x="195.4" y="190.2" fill="#000" class="taxonLabel">Paterimitra</text><text x="145.3" y="179" fill="#fdae61" class="flag">[1]</text><text x="167.3" y="179" fill="#000" class="taxonLabel">Pedunculotheca diania</text><text x="201.4" y="156.4" fill="lightgrey" class="flag">[-]</text><text x="223.4" y="156.4" fill="#ccc" class="taxonLabel">Dailyatia</text><text x="201.4" y="167.7" fill="grey" class="flag">[?]</text><text x="223.4" y="167.7" fill="#999" class="taxonLabel">Halkieria evangelista</text><text x="229.5" y="133.9" fill="grey" class="flag">[?]</text><text x="251.5" y="133.9" fill="#999" class="taxonLabel">Namacalathus</text><text x="229.5" y="145.2" fill="lightgrey" class="flag">[-]</text><text x="251.5" y="145.2" fill="#ccc" class="taxonLabel">Phoronis</text><text x="229.5" y="111.4" fill="grey" class="flag">[?]</text><text x="251.5" y="111.4" fill="#999" class="taxonLabel">Cotyledion tylodes</text><text x="229.5" y="122.6" fill="grey" class="flag">[?]</text><text x="251.5" y="122.6" fill="#999" class="taxonLabel">Eccentrotheca</text><text x="257.5" y="88.8" fill="grey" class="flag">[?]</text><text x="279.5" y="88.8" fill="#999" class="taxonLabel">Maxilites</text><text x="257.5" y="100.1" fill="#abd9e9" class="flag">[3]</text><text x="279.5" y="100.1" fill="#000" class="taxonLabel">Pauxillites</text><text x="229.5" y="77.6" fill="#abd9e9" class="flag">[3]</text><text x="251.5" y="77.6" fill="#000" class="taxonLabel">Haplophrentis carinatus</text><text x="201.4" y="66.3" fill="grey" class="flag">[?]</text><text x="223.4" y="66.3" fill="#999" class="taxonLabel">Paramicrocornus</text><text x="229.5" y="43.8" fill="#abd9e9" class="flag">[3]</text><text x="251.5" y="43.8" fill="#000" class="taxonLabel">Conotheca</text><text x="229.5" y="55.1" fill="#abd9e9" class="flag">[3]</text><text x="251.5" y="55.1" fill="#000" class="taxonLabel">Probactrotheca</text><text x="201.4" y="32.5" fill="#2c7bb6" class="flag">[4]</text><text x="223.4" y="32.5" fill="#000" class="taxonLabel">Decoritheca</text><text x="117.2" y="10" fill="lightgrey" class="flag">[-]</text><text x="139.2" y="10" fill="#ccc" class="taxonLabel">Flustra</text><text x="117.2" y="21.3" fill="lightgrey" class="flag">[-]</text><text x="139.2" y="21.3" fill="#ccc" class="taxonLabel">Amathia</text><text x="61.1" y="550.7" fill="lightgrey" class="flag">[-]</text><text x="83.1" y="550.7" fill="#ccc" class="taxonLabel">Loxosomella</text><path d="M5,446.2V315.2H33.1M33.1,315.2V82.7H61.1M61.1,82.7V12.6H89.2M89.2,12.6V7H117.2M89.2,12.6V18.3H117.2M117.2,98.9V142.2H145.3M145.3,142.2V125.3H173.4M173.4,125.3V114H201.4M201.4,114V108.4H229.5M201.4,114V119.6H229.5M173.4,125.3V136.5H201.4M201.4,136.5V130.9H229.5M201.4,136.5V142.2H229.5M145.3,142.2V159.1H173.4M173.4,159.1V153.4H201.4M173.4,159.1V164.7H201.4M341.7,260.4V266.1H369.8M285.6,460.3V423.6H313.6M313.6,423.6V412.5H341.7M313.6,423.6V434.7H341.7M341.7,434.7V423.8H369.8M341.7,434.7V445.6H369.8M369.8,445.6V435H397.8M369.8,445.6V456.2H397.8M397.8,456.2V446.3H425.9M397.8,456.2V466H425.9M425.9,466V457.6H453.9M425.9,466V474.5H453.9M453.9,474.5V468.8H482M453.9,474.5V480.1H482M285.6,522.3V530.8H313.6M313.6,530.8V525.2H341.7M313.6,530.8V536.4H341.7M33.1,315.2V547.7H61.1M5,446.2V577.2H33.1M33.1,577.2V564.6H61.1M61.1,564.6V558.9H89.2M61.1,564.6V570.2H89.2M33.1,577.2V589.9H61.1M61.1,589.9V581.5H89.2M61.1,589.9V598.4H89.2M89.2,598.4V592.7H117.2M89.2,598.4V604H117.2" stroke="lightgrey" class="inapplicable"></path><path d="M61.1,82.7V152.7H89.2M89.2,152.7V98.9H117.2" stroke="darkgrey"></path><path d="M117.2,98.9V55.6H145.3M145.3,55.6V38H173.4M173.4,38V46.4H201.4M201.4,46.4V40.8H229.5M201.4,46.4V52.1H229.5M145.3,55.6V73.2H173.4M173.4,73.2V63.3H201.4M173.4,73.2V83H201.4M201.4,83V74.6H229.5M201.4,83V91.5H229.5M229.5,91.5V85.8H257.5M229.5,91.5V97.1H257.5" stroke="#abd9e9"></path><path d="M173.4,38V29.5H201.4" stroke="#2c7bb6"></path><path d="M89.2,152.7V206.6H117.2M117.2,206.6V176H145.3M117.2,206.6V237.2H145.3M145.3,237.2V287.3H173.4M173.4,287.3V204.1H201.4M201.4,204.1V198.5H229.5M201.4,204.1V209.8H229.5M173.4,287.3V370.4H201.4M201.4,370.4V294.5H229.5M229.5,294.5V231.6H257.5M257.5,231.6V221H285.6M257.5,231.6V242.1H285.6M285.6,242.1V232.3H313.6M285.6,242.1V252H313.6M313.6,252V243.5H341.7M313.6,252V260.4H341.7M341.7,260.4V254.8H369.8M229.5,294.5V357.4H257.5M257.5,357.4V330.5H285.6M285.6,330.5V307.6H313.6M313.6,307.6V287.2H341.7M341.7,287.2V277.3H369.8M341.7,287.2V297.1H369.8M369.8,297.1V288.6H397.8M369.8,297.1V305.5H397.8M397.8,305.5V299.9H425.9M397.8,305.5V311.1H425.9M313.6,307.6V328H341.7M341.7,328V322.4H369.8M341.7,328V333.7H369.8M285.6,330.5V353.4H313.6M313.6,353.4V344.9H341.7M313.6,353.4V361.8H341.7M341.7,361.8V356.2H369.8M341.7,361.8V367.5H369.8M257.5,357.4V384.3H285.6M285.6,384.3V378.7H313.6M201.4,370.4V446.3H229.5M229.5,446.3V401.2H257.5M229.5,446.3V491.3H257.5M257.5,491.3V460.3H285.6M285.6,460.3V497H313.6M313.6,497V491.4H341.7M313.6,497V502.6H341.7M257.5,491.3V522.3H285.6" stroke="#fdae61"></path><path d="M145.3,237.2V187.2H173.4M285.6,384.3V390H313.6M285.6,522.3V513.9H313.6" stroke="#e2e2a2"></path><text x="7" y="449.2" class="node" fill="#4A6FE3">1</text><text x="35.1" y="318.2" class="node" fill="#4A6FE3">1</text><text x="63.1" y="85.7" class="node" fill="#4A6FE3">1</text><text x="91.2" y="15.6" class="node" fill="#4A6FE3">1</text><text x="91.2" y="155.7" class="node" fill="#B6BDE3">0.66</text><text x="119.2" y="101.9" class="node" fill="#E59FAC">0.29</text><text x="147.3" y="58.6" class="node" fill="#4A6FE3">1</text><text x="175.4" y="41" class="node" fill="#E392A2">0.24</text><text x="203.4" y="49.4" class="node" fill="#D7D9E3">0.54</text><text x="175.4" y="76.2" class="node" fill="#7A8DE1">0.87</text><text x="203.4" y="86" class="node" fill="#E6B1BB">0.34</text><text x="231.5" y="94.5" class="node" fill="#4A6FE3">1</text><text x="147.3" y="145.2" class="node" fill="#E59FAC">0.29</text><text x="175.4" y="128.3" class="node" fill="#E59FAC">0.29</text><text x="203.4" y="117" class="node" fill="#E392A2">0.24</text><text x="203.4" y="139.5" class="node" fill="#E6C1C7">0.39</text><text x="175.4" y="162.1" class="node" fill="#E59FAC">0.29</text><text x="119.2" y="209.6" class="node" fill="#E59FAC">0.29</text><text x="147.3" y="240.2" class="node" fill="#E59FAC">0.29</text><text x="175.4" y="290.3" class="node" fill="#667FE1">0.93</text><text x="203.4" y="207.1" class="node" fill="#DD6F88">0.13</text><text x="203.4" y="373.4" class="node" fill="#DD6F88">0.13</text><text x="231.5" y="297.5" class="node" fill="#DD6F88">0.13</text><text x="259.5" y="234.6" class="node" fill="#DD6F88">0.13</text><text x="287.6" y="245.1" class="node" fill="#DD6F88">0.13</text><text x="315.6" y="255" class="node" fill="#4A6FE3">1</text><text x="343.7" y="263.4" class="node" fill="#4A6FE3">1</text><text x="259.5" y="360.4" class="node" fill="#E49CAA">0.27</text><text x="287.6" y="333.5" class="node" fill="#E49CAA">0.27</text><text x="315.6" y="310.6" class="node" fill="#E4D6D8">0.46</text><text x="343.7" y="290.2" class="node" fill="#AEB6E2">0.69</text><text x="371.8" y="300.1" class="node" fill="#E59FAC">0.29</text><text x="399.8" y="308.5" class="node" fill="#5776E2">0.97</text><text x="343.7" y="331" class="node" fill="#E6B4BD">0.35</text><text x="315.6" y="356.4" class="node" fill="#E5D0D3">0.44</text><text x="343.7" y="364.8" class="node" fill="#E59FAC">0.28</text><text x="287.6" y="387.3" class="node" fill="#E49CAA">0.27</text><text x="231.5" y="449.3" class="node" fill="#ABB4E2">0.7</text><text x="259.5" y="494.3" class="node" fill="#97A4E2">0.77</text><text x="287.6" y="463.3" class="node" fill="#9AA6E2">0.76</text><text x="315.6" y="426.6" class="node" fill="#929FE1">0.79</text><text x="343.7" y="437.7" class="node" fill="#929FE1">0.79</text><text x="371.8" y="448.6" class="node" fill="#929FE1">0.79</text><text x="399.8" y="459.2" class="node" fill="#7A8DE1">0.87</text><text x="427.9" y="469" class="node" fill="#4A6FE3">1</text><text x="455.9" y="477.5" class="node" fill="#929FE1">0.79</text><text x="315.6" y="500" class="node" fill="#4A6FE3">1</text><text x="287.6" y="525.3" class="node" fill="#E28699">0.2</text><text x="315.6" y="533.8" class="node" fill="#DDDEE3">0.52</text><text x="35.1" y="580.2" class="node" fill="#4A6FE3">1</text><text x="63.1" y="567.6" class="node" fill="#4A6FE3">1</text><text x="63.1" y="592.9" class="node" fill="#4A6FE3">1</text><text x="91.2" y="601.4" class="node" fill="#6D84E1">0.91</text></svg>
