<svg xmlns="http://www.w3.org/2000/svg" version="1.1" width="682" height="612" class="tree" data-char="78"><text x="678" y="15.4" text-anchor="end" class="stepsLabel">Character adds <tspan class="score">1</tspan> to tree score</text><text x="678" y="27.8" text-anchor="end" class="stepsLabel"><tspan class="score">0</tspan> additional regions</text><text x="678" y="40.2" text-anchor="end" class="stepsLabel">CI = 1; Fitch CI = 1; Fitch RI = 1</text><text x="678" y="65" text-anchor="end" class="stepsLabel"><tspan dy="16">An optimal tree under:</tspan><tspan x="680" style="font-style:italic" class="notThisAn" dy="1.2em">Equal weights</tspan><tspan x="680" style="font-style:italic" class="notThisAn" dy="1.2em">Implied weights, k = 2</tspan><tspan x="680" style="font-style:italic" class="notThisAn" dy="1.2em">IW, k = 3</tspan><tspan x="680" style="font-style:italic" class="notThisAn" dy="1.2em">IW, k = 4.5</tspan><tspan x="680" style="font-style:italic" class="notThisAn" dy="1.2em">IW, k = 7</tspan><tspan x="680" style="font-style:italic" class="notThisAn" dy="1.2em">IW, k = 10.5</tspan><tspan x="680" style="font-style:italic" class="thisAn" dy="1.2em">IW, k = 16</tspan><tspan x="680" style="font-style:italic" class="notThisAn" dy="1.2em">IW, k = 24</tspan></text><text x="80.3" y="594.3" fill="#fc8d59" class="flag">[0]</text><text x="102.3" y="594.3" fill="#000" class="taxonLabel">Sipunculus</text><text x="80.3" y="607" fill="#fc8d59" class="flag">[0]</text><text x="102.3" y="607" fill="#000" class="taxonLabel">Serpula</text><text x="105.4" y="568.9" fill="#fc8d59" class="flag">[0]</text><text x="127.4" y="568.9" fill="#000" class="taxonLabel">Dentalium</text><text x="105.4" y="581.6" fill="#fc8d59" class="flag">[0]</text><text x="127.4" y="581.6" fill="#000" class="taxonLabel">Tonicella</text><text x="80.3" y="556.2" fill="#fc8d59" class="flag">[0]</text><text x="102.3" y="556.2" fill="#000" class="taxonLabel">Wiwaxia corrugata</text><text x="230.9" y="518.1" fill="grey" class="flag">[?]</text><text x="252.9" y="518.1" fill="#999" class="taxonLabel">Haplophrentis carinatus</text><text x="230.9" y="530.8" fill="grey" class="flag">[?]</text><text x="252.9" y="530.8" fill="#999" class="taxonLabel">Pedunculotheca diania</text><text x="356.5" y="492.7" fill="grey" class="flag">[?]</text><text x="378.5" y="492.7" fill="#999" class="taxonLabel">Tomteluva perturbata</text><text x="356.5" y="505.4" fill="grey" class="flag">[?]</text><text x="378.5" y="505.4" fill="#999" class="taxonLabel">Yuganotheca elegans</text><text x="331.4" y="480" fill="#fc8d59" class="flag">[0]</text><text x="353.4" y="480" fill="#000" class="taxonLabel">Salanygolina</text><text x="482" y="454.6" fill="#fc8d59" class="flag">[0]</text><text x="504" y="454.6" fill="#000" class="taxonLabel">Orthis</text><text x="482" y="467.3" fill="#fc8d59" class="flag">[0]</text><text x="504" y="467.3" fill="#000" class="taxonLabel">Terebratulina</text><text x="456.9" y="441.9" fill="#fc8d59" class="flag">[0]</text><text x="478.9" y="441.9" fill="#000" class="taxonLabel">Alisina</text><text x="431.8" y="429.2" fill="grey" class="flag">[?]</text><text x="453.8" y="429.2" fill="#999" class="taxonLabel">Longtancunella chengjiangensis</text><text x="406.7" y="416.5" fill="#fc8d59" class="flag">[0]</text><text x="428.7" y="416.5" fill="#000" class="taxonLabel">Glyptoria</text><text x="381.6" y="403.8" fill="#fc8d59" class="flag">[0]</text><text x="403.6" y="403.8" fill="#000" class="taxonLabel">Nisusia sulcata</text><text x="356.5" y="391.1" fill="#fc8d59" class="flag">[0]</text><text x="378.5" y="391.1" fill="#000" class="taxonLabel">Kutorgina chengjiangensis</text><text x="356.5" y="365.7" fill="#fc8d59" class="flag">[0]</text><text x="378.5" y="365.7" fill="#000" class="taxonLabel">Coolinia pecten</text><text x="356.5" y="378.4" fill="#fc8d59" class="flag">[0]</text><text x="378.5" y="378.4" fill="#000" class="taxonLabel">Antigonambonites planus</text><text x="306.3" y="340.3" fill="#fc8d59" class="flag">[0]</text><text x="328.3" y="340.3" fill="#000" class="taxonLabel">Micromitra</text><text x="306.3" y="353" fill="grey" class="flag">[?]</text><text x="328.3" y="353" fill="#999" class="taxonLabel">Askepasma toddense</text><text x="406.7" y="314.9" fill="grey" class="flag">[?]</text><text x="428.7" y="314.9" fill="#999" class="taxonLabel">Siphonobolus priscus</text><text x="406.7" y="327.6" fill="#91bfdb" class="flag">[1]</text><text x="428.7" y="327.6" fill="#000" class="taxonLabel">Acanthotretella spinosa</text><text x="406.7" y="289.4" fill="#91bfdb" class="flag">[1]</text><text x="428.7" y="289.4" fill="#000" class="taxonLabel">Clupeafumosus socialis</text><text x="406.7" y="302.1" fill="#91bfdb" class="flag">[1]</text><text x="428.7" y="302.1" fill="#000" class="taxonLabel">Lingulosacculus</text><text x="431.8" y="264" fill="grey" class="flag">[?]</text><text x="453.8" y="264" fill="#999" class="taxonLabel">Eoobolus</text><text x="431.8" y="276.7" fill="grey" class="flag">[?]</text><text x="453.8" y="276.7" fill="#999" class="taxonLabel">Mummpikia nuda</text><text x="406.7" y="251.3" fill="grey" class="flag">[?]</text><text x="428.7" y="251.3" fill="#999" class="taxonLabel">Botsfordia</text><text x="381.6" y="238.6" fill="#91bfdb" class="flag">[1]</text><text x="403.6" y="238.6" fill="#000" class="taxonLabel">Lingulellotreta malongensis</text><text x="331.4" y="225.9" fill="#91bfdb" class="flag">[1]</text><text x="353.4" y="225.9" fill="#000" class="taxonLabel">Lingula</text><text x="331.4" y="200.5" fill="grey" class="flag">[?]</text><text x="353.4" y="200.5" fill="#999" class="taxonLabel">Mickwitzia muralensis</text><text x="331.4" y="213.2" fill="#91bfdb" class="flag">[1]</text><text x="353.4" y="213.2" fill="#000" class="taxonLabel">Pelagodiscus atlanticus</text><text x="381.6" y="175.1" fill="grey" class="flag">[?]</text><text x="403.6" y="175.1" fill="#999" class="taxonLabel">Craniops</text><text x="381.6" y="187.8" fill="#fc8d59" class="flag">[0]</text><text x="403.6" y="187.8" fill="#000" class="taxonLabel">Novocrania</text><text x="356.5" y="162.4" fill="grey" class="flag">[?]</text><text x="378.5" y="162.4" fill="#999" class="taxonLabel">Ussunia</text><text x="331.4" y="149.7" fill="grey" class="flag">[?]</text><text x="353.4" y="149.7" fill="#999" class="taxonLabel">Heliomedusa orienta</text><text x="306.3" y="137" fill="#fc8d59" class="flag">[0]</text><text x="328.3" y="137" fill="#000" class="taxonLabel">Gasconsia</text><text x="230.9" y="124.3" fill="grey" class="flag">[?]</text><text x="252.9" y="124.3" fill="#999" class="taxonLabel">Micrina</text><text x="180.7" y="111.6" fill="grey" class="flag">[?]</text><text x="202.7" y="111.6" fill="#999" class="taxonLabel">Paterimitra</text><text x="155.6" y="98.9" fill="#fc8d59" class="flag">[0]</text><text x="177.6" y="98.9" fill="#000" class="taxonLabel">Halkieria evangelista</text><text x="130.5" y="86.2" fill="#fc8d59" class="flag">[0]</text><text x="152.5" y="86.2" fill="#000" class="taxonLabel">Dailyatia</text><text x="155.6" y="60.8" fill="#fc8d59" class="flag">[0]</text><text x="177.6" y="60.8" fill="#000" class="taxonLabel">Namacalathus</text><text x="155.6" y="73.5" fill="#fc8d59" class="flag">[0]</text><text x="177.6" y="73.5" fill="#000" class="taxonLabel">Phoronis</text><text x="155.6" y="35.4" fill="#fc8d59" class="flag">[0]</text><text x="177.6" y="35.4" fill="#000" class="taxonLabel">Eccentrotheca</text><text x="155.6" y="48.1" fill="#fc8d59" class="flag">[0]</text><text x="177.6" y="48.1" fill="#000" class="taxonLabel">Cotyledion tylodes</text><text x="105.4" y="10" fill="#fc8d59" class="flag">[0]</text><text x="127.4" y="10" fill="#000" class="taxonLabel">Flustra</text><text x="105.4" y="22.7" fill="#fc8d59" class="flag">[0]</text><text x="127.4" y="22.7" fill="#000" class="taxonLabel">Amathia</text><text x="55.2" y="543.5" fill="#fc8d59" class="flag">[0]</text><text x="77.2" y="543.5" fill="#000" class="taxonLabel">Loxosomella</text><path d="M5,437.9V295.6H30.1M30.1,295.6V50.7H55.2M55.2,50.7V13.4H80.3M80.3,13.4V7H105.4M80.3,13.4V19.7H105.4M55.2,50.7V88H80.3M80.3,88V51.5H105.4M105.4,51.5V38.8H130.5M130.5,38.8V32.4H155.6M130.5,38.8V45.1H155.6M105.4,51.5V64.2H130.5M130.5,64.2V57.8H155.6M130.5,64.2V70.5H155.6M80.3,88V124.5H105.4M105.4,124.5V83.2H130.5M105.4,124.5V165.9H130.5M130.5,165.9V95.9H155.6M130.5,165.9V235.8H155.6M155.6,235.8V108.6H180.7M155.6,235.8V363H180.7M180.7,363V204.6H205.8M205.8,204.6V121.3H230.9M205.8,204.6V288H230.9M230.9,288V186.3H256.1M256.1,186.3V145.9H281.2M281.2,145.9V134H306.3M281.2,145.9V157.8H306.3M306.3,157.8V146.7H331.4M306.3,157.8V169H331.4M331.4,169V159.4H356.5M331.4,169V178.5H356.5M356.5,178.5V172.1H381.6M356.5,178.5V184.8H381.6M230.9,288V389.6H256.1M256.1,389.6V343.6H281.2M281.2,343.6V337.3H306.3M281.2,343.6V350H306.3M256.1,389.6V435.6H281.2M281.2,435.6V384.8H306.3M306.3,384.8V369H331.4M331.4,369V362.7H356.5M331.4,369V375.4H356.5M306.3,384.8V400.6H331.4M331.4,400.6V388.1H356.5M331.4,400.6V413.1H356.5M356.5,413.1V400.8H381.6M356.5,413.1V425.4H381.6M381.6,425.4V413.5H406.7M381.6,425.4V437.3H406.7M406.7,437.3V426.2H431.8M406.7,437.3V448.4H431.8M431.8,448.4V438.9H456.9M431.8,448.4V457.9H456.9M456.9,457.9V451.6H482M456.9,457.9V464.3H482M281.2,435.6V486.5H306.3M306.3,486.5V477H331.4M306.3,486.5V496H331.4M331.4,496V489.7H356.5M331.4,496V502.4H356.5M180.7,363V521.4H205.8M205.8,521.4V515.1H230.9M205.8,521.4V527.8H230.9M30.1,295.6V540.5H55.2M5,437.9V580.2H30.1M30.1,580.2V562.7H55.2M55.2,562.7V553.2H80.3M55.2,562.7V572.2H80.3M80.3,572.2V565.9H105.4M80.3,572.2V578.6H105.4M30.1,580.2V597.6H55.2M55.2,597.6V591.3H80.3M55.2,597.6V604H80.3" stroke="#fc8d59"></path><path d="M256.1,186.3V226.7H281.2M281.2,226.7V203.9H306.3M306.3,203.9V197.5H331.4M306.3,203.9V210.2H331.4M281.2,226.7V249.5H306.3M306.3,249.5V222.9H331.4M306.3,249.5V276.1H331.4M331.4,276.1V246.8H356.5M356.5,246.8V235.6H381.6M356.5,246.8V257.9H381.6M381.6,257.9V248.3H406.7M381.6,257.9V267.4H406.7M406.7,267.4V261H431.8M406.7,267.4V273.7H431.8M331.4,276.1V305.5H356.5M356.5,305.5V292.8H381.6M381.6,292.8V286.4H406.7M381.6,292.8V299.1H406.7M356.5,305.5V318.2H381.6M381.6,318.2V311.9H406.7M381.6,318.2V324.6H406.7" stroke="#91bfdb"></path><text x="7" y="440.9" class="node" fill="#4A6FE3">1</text><text x="32.1" y="298.6" class="node" fill="#4A6FE3">1</text><text x="57.2" y="53.7" class="node" fill="#E0E0E2">0.51</text><text x="82.3" y="16.4" class="node" fill="#4A6FE3">1</text><text x="82.3" y="91" class="node" fill="#E0E0E2">0.51</text><text x="107.4" y="54.5" class="node" fill="#E5A5B1">0.3</text><text x="132.5" y="41.8" class="node" fill="#E07C92">0.17</text><text x="132.5" y="67.2" class="node" fill="#4A6FE3">1</text><text x="107.4" y="127.5" class="node" fill="#A8B1E2">0.71</text><text x="132.5" y="168.9" class="node" fill="#D2D4E3">0.57</text><text x="157.6" y="238.8" class="node" fill="#4F72E2">0.99</text><text x="182.7" y="366" class="node" fill="#BFC4E3">0.63</text><text x="207.8" y="207.6" class="node" fill="#E3DFE0">0.49</text><text x="232.9" y="291" class="node" fill="#E6AEB8">0.33</text><text x="258.1" y="189.3" class="node" fill="#E17F94">0.18</text><text x="283.2" y="148.9" class="node" fill="#E3DFE0">0.49</text><text x="308.3" y="160.8" class="node" fill="#E3DFE0">0.49</text><text x="333.4" y="172" class="node" fill="#4F72E2">0.99</text><text x="358.5" y="181.5" class="node" fill="#4A6FE3">1</text><text x="283.2" y="229.7" class="node" fill="#E4D6D8">0.46</text><text x="308.3" y="206.9" class="node" fill="#E3DCDD">0.48</text><text x="308.3" y="252.5" class="node" fill="#E3DCDD">0.48</text><text x="333.4" y="279.1" class="node" fill="#E2899B">0.21</text><text x="358.5" y="249.8" class="node" fill="#E28699">0.2</text><text x="383.6" y="260.9" class="node" fill="#4F72E2">0.99</text><text x="408.7" y="270.4" class="node" fill="#E28699">0.2</text><text x="358.5" y="308.5" class="node" fill="#4A6FE3">1</text><text x="383.6" y="295.8" class="node" fill="#E6B4BD">0.35</text><text x="383.6" y="321.2" class="node" fill="#4A6FE3">1</text><text x="258.1" y="392.6" class="node" fill="#8091E1">0.85</text><text x="283.2" y="346.6" class="node" fill="#4A6FE3">1</text><text x="283.2" y="438.6" class="node" fill="#8091E1">0.85</text><text x="308.3" y="387.8" class="node" fill="#A3ADE2">0.73</text><text x="333.4" y="372" class="node" fill="#4A6FE3">1</text><text x="333.4" y="403.6" class="node" fill="#A6AFE2">0.72</text><text x="358.5" y="416.1" class="node" fill="#A6AFE2">0.72</text><text x="383.6" y="428.4" class="node" fill="#4F72E2">0.99</text><text x="408.7" y="440.3" class="node" fill="#4F72E2">0.99</text><text x="433.8" y="451.4" class="node" fill="#4A6FE3">1</text><text x="458.9" y="460.9" class="node" fill="#4F72E2">0.99</text><text x="308.3" y="489.5" class="node" fill="#D2D4E3">0.57</text><text x="333.4" y="499" class="node" fill="#CACDE3">0.59</text><text x="207.8" y="524.4" class="node" fill="#4A6FE3">1</text><text x="32.1" y="583.2" class="node" fill="#4A6FE3">1</text><text x="57.2" y="565.7" class="node" fill="#4A6FE3">1</text><text x="82.3" y="575.2" class="node" fill="#A3ADE2">0.73</text><text x="57.2" y="600.6" class="node" fill="#4A6FE3">1</text></svg>
