<svg xmlns="http://www.w3.org/2000/svg" version="1.1" width="682" height="612" class="tree" data-char="113"><text x="678" y="16" text-anchor="end" class="stepsLabel">Character adds <tspan class="score">5</tspan> to tree score</text><text x="678" y="29" text-anchor="end" class="stepsLabel"><tspan class="score">0</tspan> additional regions</text><text x="678" y="42" text-anchor="end" class="stepsLabel">CI = 0.6; Fitch CI = 0.6; Fitch RI = 0.6</text><text x="678" y="68" text-anchor="end" class="stepsLabel"><tspan dy="16">An optimal tree under:</tspan><tspan x="680" style="font-style:italic" class="thisAn" dy="1.2em">Equal weights</tspan><tspan x="680" style="font-style:italic" class="notThisAn" dy="1.2em">Implied weights, k = 2</tspan><tspan x="680" style="font-style:italic" class="notThisAn" dy="1.2em">IW, k = 3</tspan><tspan x="680" style="font-style:italic" class="notThisAn" dy="1.2em">IW, k = 4.5</tspan><tspan x="680" style="font-style:italic" class="notThisAn" dy="1.2em">IW, k = 7</tspan><tspan x="680" style="font-style:italic" class="notThisAn" dy="1.2em">IW, k = 10.5</tspan></text><text x="94.4" y="593.7" fill="lightgrey" class="flag">[-]</text><text x="116.4" y="593.7" fill="lightgrey" class="taxonLabel">Serpula</text><text x="94.4" y="607" fill="lightgrey" class="flag">[-]</text><text x="116.4" y="607" fill="lightgrey" class="taxonLabel">Sipunculus</text><text x="124.2" y="567.2" fill="lightgrey" class="flag">[-]</text><text x="146.2" y="567.2" fill="lightgrey" class="taxonLabel">Wiwaxia corrugata</text><text x="124.2" y="580.5" fill="lightgrey" class="flag">[-]</text><text x="146.2" y="580.5" fill="lightgrey" class="taxonLabel">Dentalium</text><text x="94.4" y="553.9" fill="#2c7bb6" class="flag">[4]</text><text x="116.4" y="553.9" fill="#000" class="taxonLabel">Tonicella</text><text x="422.4" y="514.1" fill="#e2e2a2" class="flag">[2]</text><text x="444.4" y="514.1" fill="#000" class="taxonLabel">Siphonobolus priscus</text><text x="422.4" y="527.4" fill="lightgrey" class="flag">[-]</text><text x="444.4" y="527.4" fill="lightgrey" class="taxonLabel">Acanthotretella spinosa</text><text x="422.4" y="487.6" fill="#e2e2a2" class="flag">[2]</text><text x="444.4" y="487.6" fill="#000" class="taxonLabel">Clupeafumosus socialis</text><text x="422.4" y="500.9" fill="lightgrey" class="flag">[-]</text><text x="444.4" y="500.9" fill="lightgrey" class="taxonLabel">Lingulosacculus</text><text x="362.8" y="474.3" fill="grey" class="flag">[?]</text><text x="384.8" y="474.3" fill="grey" class="taxonLabel">Lingulellotreta malongensis</text><text x="332.9" y="461.1" fill="#e2e2a2" class="flag">[2]</text><text x="354.9" y="461.1" fill="#000" class="taxonLabel">Botsfordia</text><text x="303.1" y="447.8" fill="#fdae61" class="flag">[1]</text><text x="325.1" y="447.8" fill="#000" class="taxonLabel">Mummpikia nuda</text><text x="273.3" y="434.5" fill="#e2e2a2" class="flag">[2]</text><text x="295.3" y="434.5" fill="#000" class="taxonLabel">Eoobolus</text><text x="243.5" y="421.3" fill="#e2e2a2" class="flag">[2]</text><text x="265.5" y="421.3" fill="#000" class="taxonLabel">Lingula</text><text x="273.3" y="394.7" fill="#e2e2a2" class="flag">[2]</text><text x="295.3" y="394.7" fill="#000" class="taxonLabel">Pelagodiscus atlanticus</text><text x="273.3" y="408" fill="#e2e2a2" class="flag">[2]</text><text x="295.3" y="408" fill="#000" class="taxonLabel">Mickwitzia muralensis</text><text x="243.5" y="381.5" fill="#e2e2a2" class="flag">[2]</text><text x="265.5" y="381.5" fill="#000" class="taxonLabel">Micrina</text><text x="273.3" y="354.9" fill="#abd9e9" class="flag">[3]</text><text x="295.3" y="354.9" fill="#000" class="taxonLabel">Askepasma toddense</text><text x="273.3" y="368.2" fill="#abd9e9" class="flag">[3]</text><text x="295.3" y="368.2" fill="#000" class="taxonLabel">Micromitra</text><text x="482" y="328.4" fill="#e2e2a2" class="flag">[2]</text><text x="504" y="328.4" fill="#000" class="taxonLabel">Terebratulina</text><text x="482" y="341.7" fill="grey" class="flag">[?]</text><text x="504" y="341.7" fill="grey" class="taxonLabel">Alisina</text><text x="452.2" y="315.1" fill="#e2e2a2" class="flag">[2]</text><text x="474.2" y="315.1" fill="#000" class="taxonLabel">Orthis</text><text x="422.4" y="301.9" fill="#e2e2a2" class="flag">[2]</text><text x="444.4" y="301.9" fill="#000" class="taxonLabel">Glyptoria</text><text x="392.6" y="288.6" fill="#e2e2a2" class="flag">[2]</text><text x="414.6" y="288.6" fill="#000" class="taxonLabel">Nisusia sulcata</text><text x="362.8" y="275.3" fill="#e2e2a2" class="flag">[2]</text><text x="384.8" y="275.3" fill="#000" class="taxonLabel">Kutorgina chengjiangensis</text><text x="362.8" y="248.8" fill="#e2e2a2" class="flag">[2]</text><text x="384.8" y="248.8" fill="#000" class="taxonLabel">Coolinia pecten</text><text x="362.8" y="262.1" fill="#2c7bb6" class="flag">[4]</text><text x="384.8" y="262.1" fill="#000" class="taxonLabel">Antigonambonites planus</text><text x="303.1" y="235.5" fill="grey" class="flag">[?]</text><text x="325.1" y="235.5" fill="grey" class="taxonLabel">Longtancunella chengjiangensis</text><text x="332.9" y="209" fill="grey" class="flag">[?]</text><text x="354.9" y="209" fill="grey" class="taxonLabel">Tomteluva perturbata</text><text x="332.9" y="222.3" fill="lightgrey" class="flag">[-]</text><text x="354.9" y="222.3" fill="lightgrey" class="taxonLabel">Yuganotheca elegans</text><text x="303.1" y="195.7" fill="#e2e2a2" class="flag">[2]</text><text x="325.1" y="195.7" fill="#000" class="taxonLabel">Salanygolina</text><text x="303.1" y="169.2" fill="#e2e2a2" class="flag">[2]</text><text x="325.1" y="169.2" fill="#000" class="taxonLabel">Craniops</text><text x="303.1" y="182.5" fill="#e2e2a2" class="flag">[2]</text><text x="325.1" y="182.5" fill="#000" class="taxonLabel">Novocrania</text><text x="273.3" y="155.9" fill="grey" class="flag">[?]</text><text x="295.3" y="155.9" fill="grey" class="taxonLabel">Ussunia</text><text x="243.5" y="142.7" fill="#e2e2a2" class="flag">[2]</text><text x="265.5" y="142.7" fill="#000" class="taxonLabel">Gasconsia</text><text x="213.7" y="116.1" fill="#e2e2a2" class="flag">[2]</text><text x="235.7" y="116.1" fill="#000" class="taxonLabel">Haplophrentis carinatus</text><text x="213.7" y="129.4" fill="#e2e2a2" class="flag">[2]</text><text x="235.7" y="129.4" fill="#000" class="taxonLabel">Pedunculotheca diania</text><text x="183.9" y="102.9" fill="#e2e2a2" class="flag">[2]</text><text x="205.9" y="102.9" fill="#000" class="taxonLabel">Paterimitra</text><text x="124.2" y="89.6" fill="grey" class="flag">[?]</text><text x="146.2" y="89.6" fill="grey" class="taxonLabel">Heliomedusa orienta</text><text x="183.9" y="63.1" fill="#fdae61" class="flag">[1]</text><text x="205.9" y="63.1" fill="#000" class="taxonLabel">Dailyatia</text><text x="183.9" y="76.3" fill="#fdae61" class="flag">[1]</text><text x="205.9" y="76.3" fill="#000" class="taxonLabel">Eccentrotheca</text><text x="154.1" y="49.8" fill="grey" class="flag">[?]</text><text x="176.1" y="49.8" fill="grey" class="taxonLabel">Cotyledion tylodes</text><text x="183.9" y="10" fill="lightgrey" class="flag">[-]</text><text x="205.9" y="10" fill="lightgrey" class="taxonLabel">Flustra</text><text x="183.9" y="23.3" fill="lightgrey" class="flag">[-]</text><text x="205.9" y="23.3" fill="lightgrey" class="taxonLabel">Loxosomella</text><text x="154.1" y="36.5" fill="lightgrey" class="flag">[-]</text><text x="176.1" y="36.5" fill="lightgrey" class="taxonLabel">Phoronis</text><text x="64.6" y="540.7" fill="#fdae61" class="flag">[1]</text><text x="86.6" y="540.7" fill="#000" class="taxonLabel">Halkieria evangelista</text><path d="M5,447.7V316.3H34.8M34.8,316.3V95H64.6M64.6,95V40.2H94.4M94.4,40.2V56.8H124.2M124.2,56.8V46.8H154.1M124.2,56.8V66.7H154.1M154.1,66.7V60.1H183.9M154.1,66.7V73.3H183.9M64.6,95V149.8H94.4M273.3,458.9V444.8H303.1M34.8,316.3V537.7H64.6" stroke="#fdae61"></path><path d="M94.4,40.2V23.6H124.2M124.2,23.6V13.6H154.1M154.1,13.6V7H183.9M154.1,13.6V20.3H183.9M124.2,23.6V33.5H154.1M273.3,202.7V212.6H303.1M303.1,212.6V206H332.9M303.1,212.6V219.3H332.9M392.6,491.2V497.9H422.4M392.6,517.8V524.4H422.4M64.6,560.9V570.8H94.4M94.4,570.8V564.2H124.2M94.4,570.8V577.5H124.2M34.8,579.1V597.4H64.6M64.6,597.4V590.7H94.4M64.6,597.4V604H94.4" stroke="lightgrey" class="inapplicable"></path><path d="M94.4,149.8V86.6H124.2M5,447.7V579.1H34.8M34.8,579.1V560.9H64.6" stroke="darkgrey"></path><path d="M94.4,149.8V212.9H124.2M124.2,212.9V109.8H154.1M154.1,109.8V99.9H183.9M154.1,109.8V119.8H183.9M183.9,119.8V113.1H213.7M183.9,119.8V126.4H213.7M124.2,212.9V316H154.1M154.1,316V221.9H183.9M183.9,221.9V151.3H213.7M213.7,151.3V139.7H243.5M213.7,151.3V162.9H243.5M243.5,162.9V152.9H273.3M243.5,162.9V172.8H273.3M273.3,172.8V166.2H303.1M273.3,172.8V179.5H303.1M183.9,221.9V292.6H213.7M213.7,292.6V226.7H243.5M243.5,226.7V202.7H273.3M273.3,202.7V192.7H303.1M243.5,226.7V250.7H273.3M273.3,250.7V232.5H303.1M273.3,250.7V268.8H303.1M303.1,268.8V252.4H332.9M332.9,252.4V245.8H362.8M303.1,268.8V285.2H332.9M332.9,285.2V272.3H362.8M332.9,285.2V298H362.8M362.8,298V285.6H392.6M362.8,298V310.5H392.6M392.6,310.5V298.9H422.4M392.6,310.5V322.1H422.4M422.4,322.1V312.1H452.2M422.4,322.1V332H452.2M452.2,332V325.4H482M452.2,332V338.7H482M154.1,316V410.1H183.9M183.9,410.1V388.4H213.7M213.7,388.4V378.5H243.5M213.7,388.4V398.4H243.5M243.5,398.4V391.7H273.3M243.5,398.4V405H273.3M183.9,410.1V431.7H213.7M213.7,431.7V418.3H243.5M213.7,431.7V445.2H243.5M243.5,445.2V431.5H273.3M243.5,445.2V458.9H273.3M273.3,458.9V473H303.1M303.1,473V458.1H332.9M303.1,473V487.9H332.9M332.9,487.9V471.3H362.8M332.9,487.9V504.5H362.8M362.8,504.5V491.2H392.6M392.6,491.2V484.6H422.4M362.8,504.5V517.8H392.6M392.6,517.8V511.1H422.4" stroke="#e2e2a2"></path><path d="M332.9,252.4V259.1H362.8M64.6,560.9V550.9H94.4" stroke="#2c7bb6"></path><path d="M213.7,292.6V358.6H243.5M243.5,358.6V351.9H273.3M243.5,358.6V365.2H273.3" stroke="#abd9e9"></path><text x="7" y="450.7" class="node" fill="#4A6FE3">1</text><text x="36.8" y="319.3" class="node" fill="#4A6FE3">1</text><text x="66.6" y="98" class="node" fill="#8091E1">0.85</text><text x="96.4" y="43.2" class="node" fill="#8091E1">0.85</text><text x="126.2" y="26.6" class="node" fill="#4A6FE3">1</text><text x="156.1" y="16.6" class="node" fill="#4A6FE3">1</text><text x="126.2" y="59.8" class="node" fill="#8091E1">0.85</text><text x="156.1" y="69.7" class="node" fill="#8091E1">0.85</text><text x="96.4" y="152.8" class="node" fill="#8091E1">0.85</text><text x="126.2" y="215.9" class="node" fill="#8091E1">0.85</text><text x="156.1" y="112.8" class="node" fill="#B4BBE3">0.67</text><text x="185.9" y="122.8" class="node" fill="#4A6FE3">1</text><text x="156.1" y="319" class="node" fill="#4A6FE3">1</text><text x="185.9" y="224.9" class="node" fill="#4A6FE3">1</text><text x="215.7" y="154.3" class="node" fill="#4A6FE3">1</text><text x="245.5" y="165.9" class="node" fill="#4A6FE3">1</text><text x="275.3" y="175.8" class="node" fill="#4A6FE3">1</text><text x="215.7" y="295.6" class="node" fill="#A0ABE2">0.74</text><text x="245.5" y="229.7" class="node" fill="#8C9BE1">0.81</text><text x="275.3" y="205.7" class="node" fill="#BFC4E3">0.63</text><text x="305.1" y="215.6" class="node" fill="#627DE1">0.94</text><text x="275.3" y="253.7" class="node" fill="#4A6FE3">1</text><text x="305.1" y="271.8" class="node" fill="#E4D9DB">0.47</text><text x="334.9" y="255.4" class="node" fill="#4A6FE3">1</text><text x="334.9" y="288.2" class="node" fill="#E4D9DB">0.47</text><text x="364.8" y="301" class="node" fill="#E4D9DB">0.47</text><text x="394.6" y="313.5" class="node" fill="#E4D9DB">0.47</text><text x="424.4" y="325.1" class="node" fill="#4A6FE3">1</text><text x="454.2" y="335" class="node" fill="#E38FA0">0.23</text><text x="245.5" y="361.6" class="node" fill="#4A6FE3">1</text><text x="185.9" y="413.1" class="node" fill="#B4BBE3">0.67</text><text x="215.7" y="391.4" class="node" fill="#B4BBE3">0.67</text><text x="245.5" y="401.4" class="node" fill="#ABB4E2">0.7</text><text x="215.7" y="434.7" class="node" fill="#ABB4E2">0.7</text><text x="245.5" y="448.2" class="node" fill="#ABB4E2">0.7</text><text x="275.3" y="461.9" class="node" fill="#B4BBE3">0.67</text><text x="305.1" y="476" class="node" fill="#B4BBE3">0.67</text><text x="334.9" y="490.9" class="node" fill="#B4BBE3">0.67</text><text x="364.8" y="507.5" class="node" fill="#E5CACE">0.42</text><text x="394.6" y="494.2" class="node" fill="#E07C92">0.17</text><text x="394.6" y="520.8" class="node" fill="#4A6FE3">1</text><text x="36.8" y="582.1" class="node" fill="#4A6FE3">1</text><text x="66.6" y="563.9" class="node" fill="#E4D9DB">0.47</text><text x="96.4" y="573.8" class="node" fill="#E4D9DB">0.47</text><text x="66.6" y="600.4" class="node" fill="#A6AFE2">0.72</text></svg>
