<svg xmlns="http://www.w3.org/2000/svg" version="1.1" width="682" height="682" class="tree" data-char="170"><text x="678" y="15.6" text-anchor="end" class="stepsLabel">Character adds <tspan class="score">1</tspan> to tree score</text><text x="678" y="28.2" text-anchor="end" class="stepsLabel"><tspan class="score">0</tspan> additional regions</text><text x="678" y="40.8" text-anchor="end" class="stepsLabel">CI = 1; Fitch CI = 1; Fitch RI = 1</text><text x="678" y="66" text-anchor="end" class="stepsLabel"><tspan dy="16" fill="#34caaf">An optimal tree under:</tspan><tspan x="680" style="font-style:italic" class="notThisAn" dy="1.2em">Equal weights</tspan><tspan x="680" style="font-style:italic" class="notThisAn" dy="1.2em">Implied weights, k = 2</tspan><tspan x="680" style="font-style:italic" class="notThisAn" dy="1.2em">IW, k = 3</tspan><tspan x="680" style="font-style:italic" class="notThisAn" dy="1.2em">IW, k = 4.5</tspan><tspan x="680" style="font-style:italic" class="thisAn" dy="1.2em">IW, k = 7</tspan><tspan x="680" style="font-style:italic" class="notThisAn" dy="1.2em">IW, k = 10.5</tspan><tspan x="680" style="font-style:italic" class="notThisAn" dy="1.2em">IW, k = 16</tspan><tspan x="680" style="font-style:italic" class="notThisAn" dy="1.2em">IW, k = 24</tspan></text><text x="100.4" y="664.2" fill="#91bfdb" class="flag">[1]</text><text x="122.4" y="664.2" fill="#000" class="taxonLabel">Tonicella</text><text x="100.4" y="677" fill="#91bfdb" class="flag">[1]</text><text x="122.4" y="677" fill="#000" class="taxonLabel">Dentalium</text><text x="76.6" y="651.3" fill="grey" class="flag">[?]</text><text x="98.6" y="651.3" fill="#999" class="taxonLabel">Wiwaxia corrugata</text><text x="76.6" y="625.7" fill="#91bfdb" class="flag">[1]</text><text x="98.6" y="625.7" fill="#000" class="taxonLabel">Serpula</text><text x="76.6" y="638.5" fill="#91bfdb" class="flag">[1]</text><text x="98.6" y="638.5" fill="#000" class="taxonLabel">Sipunculus</text><text x="362.8" y="587.2" fill="grey" class="flag">[?]</text><text x="384.8" y="587.2" fill="#999" class="taxonLabel">Maxilites</text><text x="362.8" y="600" fill="grey" class="flag">[?]</text><text x="384.8" y="600" fill="#999" class="taxonLabel">Pauxillites</text><text x="338.9" y="574.4" fill="grey" class="flag">[?]</text><text x="360.9" y="574.4" fill="#999" class="taxonLabel">Haplophrentis carinatus</text><text x="315.1" y="561.6" fill="grey" class="flag">[?]</text><text x="337.1" y="561.6" fill="#999" class="taxonLabel">Paramicrocornus</text><text x="315.1" y="535.9" fill="grey" class="flag">[?]</text><text x="337.1" y="535.9" fill="#999" class="taxonLabel">Bactrotheca</text><text x="315.1" y="548.7" fill="grey" class="flag">[?]</text><text x="337.1" y="548.7" fill="#999" class="taxonLabel">Conotheca</text><text x="267.4" y="523.1" fill="grey" class="flag">[?]</text><text x="289.4" y="523.1" fill="#999" class="taxonLabel">Pedunculotheca diania</text><text x="338.9" y="497.4" fill="grey" class="flag">[?]</text><text x="360.9" y="497.4" fill="#999" class="taxonLabel">Micromitra</text><text x="338.9" y="510.2" fill="grey" class="flag">[?]</text><text x="360.9" y="510.2" fill="#999" class="taxonLabel">Askepasma toddense</text><text x="482" y="471.8" fill="grey" class="flag">[?]</text><text x="504" y="471.8" fill="#999" class="taxonLabel">Terebratulina</text><text x="482" y="484.6" fill="grey" class="flag">[?]</text><text x="504" y="484.6" fill="#999" class="taxonLabel">Orthis</text><text x="458.2" y="458.9" fill="grey" class="flag">[?]</text><text x="480.2" y="458.9" fill="#999" class="taxonLabel">Alisina</text><text x="434.3" y="446.1" fill="grey" class="flag">[?]</text><text x="456.3" y="446.1" fill="#999" class="taxonLabel">Longtancunella chengjiangensis</text><text x="410.5" y="433.3" fill="grey" class="flag">[?]</text><text x="432.5" y="433.3" fill="#999" class="taxonLabel">Glyptoria</text><text x="386.6" y="420.5" fill="grey" class="flag">[?]</text><text x="408.6" y="420.5" fill="#999" class="taxonLabel">Nisusia sulcata</text><text x="362.8" y="407.6" fill="grey" class="flag">[?]</text><text x="384.8" y="407.6" fill="#999" class="taxonLabel">Kutorgina chengjiangensis</text><text x="386.6" y="382" fill="grey" class="flag">[?]</text><text x="408.6" y="382" fill="#999" class="taxonLabel">Antigonambonites planus</text><text x="386.6" y="394.8" fill="grey" class="flag">[?]</text><text x="408.6" y="394.8" fill="#999" class="taxonLabel">Coolinia pecten</text><text x="410.5" y="356.3" fill="grey" class="flag">[?]</text><text x="432.5" y="356.3" fill="#999" class="taxonLabel">Yuganotheca elegans</text><text x="410.5" y="369.2" fill="grey" class="flag">[?]</text><text x="432.5" y="369.2" fill="#999" class="taxonLabel">Tomteluva perturbata</text><text x="386.6" y="343.5" fill="grey" class="flag">[?]</text><text x="408.6" y="343.5" fill="#999" class="taxonLabel">Salanygolina</text><text x="410.5" y="317.8" fill="grey" class="flag">[?]</text><text x="432.5" y="317.8" fill="#999" class="taxonLabel">Craniops</text><text x="410.5" y="330.7" fill="#fc8d59" class="flag">[0]</text><text x="432.5" y="330.7" fill="#000" class="taxonLabel">Novocrania</text><text x="386.6" y="305" fill="grey" class="flag">[?]</text><text x="408.6" y="305" fill="#999" class="taxonLabel">Ussunia</text><text x="362.8" y="292.2" fill="grey" class="flag">[?]</text><text x="384.8" y="292.2" fill="#999" class="taxonLabel">Heliomedusa orienta</text><text x="338.9" y="279.4" fill="grey" class="flag">[?]</text><text x="360.9" y="279.4" fill="#999" class="taxonLabel">Gasconsia</text><text x="362.8" y="253.7" fill="grey" class="flag">[?]</text><text x="384.8" y="253.7" fill="#999" class="taxonLabel">Pelagodiscus atlanticus</text><text x="362.8" y="266.5" fill="grey" class="flag">[?]</text><text x="384.8" y="266.5" fill="#999" class="taxonLabel">Mickwitzia muralensis</text><text x="410.5" y="228.1" fill="grey" class="flag">[?]</text><text x="432.5" y="228.1" fill="#999" class="taxonLabel">Mummpikia nuda</text><text x="410.5" y="240.9" fill="grey" class="flag">[?]</text><text x="432.5" y="240.9" fill="#999" class="taxonLabel">Botsfordia</text><text x="386.6" y="215.2" fill="grey" class="flag">[?]</text><text x="408.6" y="215.2" fill="#999" class="taxonLabel">Eoobolus</text><text x="410.5" y="189.6" fill="grey" class="flag">[?]</text><text x="432.5" y="189.6" fill="#999" class="taxonLabel">Lingulellotreta malongensis</text><text x="410.5" y="202.4" fill="#fc8d59" class="flag">[0]</text><text x="432.5" y="202.4" fill="#000" class="taxonLabel">Lingula</text><text x="458.2" y="163.9" fill="grey" class="flag">[?]</text><text x="480.2" y="163.9" fill="#999" class="taxonLabel">Acanthotretella spinosa</text><text x="458.2" y="176.8" fill="grey" class="flag">[?]</text><text x="480.2" y="176.8" fill="#999" class="taxonLabel">Siphonobolus priscus</text><text x="434.3" y="151.1" fill="grey" class="flag">[?]</text><text x="456.3" y="151.1" fill="#999" class="taxonLabel">Clupeafumosus socialis</text><text x="410.5" y="138.3" fill="grey" class="flag">[?]</text><text x="432.5" y="138.3" fill="#999" class="taxonLabel">Lingulosacculus</text><text x="267.4" y="125.4" fill="grey" class="flag">[?]</text><text x="289.4" y="125.4" fill="#999" class="taxonLabel">Micrina</text><text x="219.7" y="112.6" fill="grey" class="flag">[?]</text><text x="241.7" y="112.6" fill="#999" class="taxonLabel">Paterimitra</text><text x="195.8" y="99.8" fill="grey" class="flag">[?]</text><text x="217.8" y="99.8" fill="#999" class="taxonLabel">Halkieria evangelista</text><text x="172" y="87" fill="grey" class="flag">[?]</text><text x="194" y="87" fill="#999" class="taxonLabel">Dailyatia</text><text x="172" y="61.3" fill="grey" class="flag">[?]</text><text x="194" y="61.3" fill="#999" class="taxonLabel">Eccentrotheca</text><text x="172" y="74.1" fill="grey" class="flag">[?]</text><text x="194" y="74.1" fill="#999" class="taxonLabel">Cotyledion tylodes</text><text x="124.2" y="48.5" fill="grey" class="flag">[?]</text><text x="146.2" y="48.5" fill="#999" class="taxonLabel">Namacalathus</text><text x="100.4" y="35.7" fill="#91bfdb" class="flag">[1]</text><text x="122.4" y="35.7" fill="#000" class="taxonLabel">Phoronis</text><text x="100.4" y="10" fill="#91bfdb" class="flag">[1]</text><text x="122.4" y="10" fill="#000" class="taxonLabel">Flustra</text><text x="100.4" y="22.8" fill="#91bfdb" class="flag">[1]</text><text x="122.4" y="22.8" fill="#000" class="taxonLabel">Amathia</text><text x="52.7" y="612.9" fill="#91bfdb" class="flag">[1]</text><text x="74.7" y="612.9" fill="#000" class="taxonLabel">Loxosomella</text><path d="M5,482.4V321.2H28.9M28.9,321.2V32.6H52.7M52.7,32.6V13.4H76.6M76.6,13.4V7H100.4M76.6,13.4V19.8H100.4M52.7,32.6V51.8H76.6M76.6,51.8V32.7H100.4M76.6,51.8V71H100.4M28.9,321.2V609.9H52.7M5,482.4V643.5H28.9M28.9,643.5V629.1H52.7M52.7,629.1V622.7H76.6M52.7,629.1V635.5H76.6M28.9,643.5V658H52.7M52.7,658V648.3H76.6M52.7,658V667.6H76.6M76.6,667.6V661.2H100.4M76.6,667.6V674H100.4" stroke="#91bfdb"></path><path d="M100.4,71V45.5H124.2M100.4,71V96.5H124.2M124.2,96.5V64.7H148.1M148.1,64.7V58.3H172M148.1,64.7V71.1H172M124.2,96.5V128.3H148.1M148.1,128.3V84H172M148.1,128.3V172.6H172M172,172.6V96.8H195.8M172,172.6V248.4H195.8M195.8,248.4V109.6H219.7M195.8,248.4V387.3H219.7M219.7,387.3V237.2H243.5M243.5,237.2V122.4H267.4M243.5,237.2V352H267.4M267.4,352V446.7H291.2M291.2,446.7V392.5H315.1M315.1,392.5V367.8H338.9M338.9,367.8V350.1H362.8M362.8,350.1V340.5H386.6M362.8,350.1V359.7H386.6M386.6,359.7V353.3H410.5M386.6,359.7V366.2H410.5M338.9,367.8V385.4H362.8M362.8,385.4V379H386.6M362.8,385.4V391.8H386.6M315.1,392.5V417.3H338.9M338.9,417.3V404.6H362.8M338.9,417.3V429.9H362.8M362.8,429.9V417.5H386.6M362.8,429.9V442.3H386.6M386.6,442.3V430.3H410.5M386.6,442.3V454.3H410.5M410.5,454.3V443.1H434.3M410.5,454.3V465.6H434.3M434.3,465.6V455.9H458.2M434.3,465.6V475.2H458.2M458.2,475.2V468.8H482M458.2,475.2V481.6H482M291.2,446.7V500.8H315.1M315.1,500.8V494.4H338.9M315.1,500.8V507.2H338.9M219.7,387.3V537.3H243.5M243.5,537.3V520.1H267.4M243.5,537.3V554.5H267.4M267.4,554.5V539.3H291.2M291.2,539.3V532.9H315.1M291.2,539.3V545.7H315.1M267.4,554.5V569.8H291.2M291.2,569.8V558.6H315.1M291.2,569.8V581H315.1M315.1,581V571.4H338.9M315.1,581V590.6H338.9M338.9,590.6V584.2H362.8M338.9,590.6V597H362.8" stroke="darkgrey"></path><path d="M267.4,352V257.4H291.2M291.2,257.4V226.5H315.1M315.1,226.5V195.8H338.9M338.9,195.8V169.7H362.8M362.8,169.7V146.5H386.6M386.6,146.5V135.3H410.5M386.6,146.5V157.7H410.5M410.5,157.7V148.1H434.3M410.5,157.7V167.3H434.3M434.3,167.3V160.9H458.2M434.3,167.3V173.8H458.2M362.8,169.7V193H386.6M386.6,193V186.6H410.5M386.6,193V199.4H410.5M338.9,195.8V221.9H362.8M362.8,221.9V212.2H386.6M362.8,221.9V231.5H386.6M386.6,231.5V225.1H410.5M386.6,231.5V237.9H410.5M315.1,226.5V257.1H338.9M338.9,257.1V250.7H362.8M338.9,257.1V263.5H362.8M291.2,257.4V288.4H315.1M315.1,288.4V276.4H338.9M315.1,288.4V300.4H338.9M338.9,300.4V289.2H362.8M338.9,300.4V311.6H362.8M362.8,311.6V302H386.6M362.8,311.6V321.3H386.6M386.6,321.3V314.8H410.5M386.6,321.3V327.7H410.5" stroke="#fc8d59"></path><text x="7" y="485.4" class="node" fill="#4A6FE3">1</text><text x="30.9" y="324.2" class="node" fill="#4A6FE3">1</text><text x="54.7" y="35.6" class="node" fill="#4A6FE3">1</text><text x="78.6" y="16.4" class="node" fill="#4A6FE3">1</text><text x="78.6" y="54.8" class="node" fill="#4A6FE3">1</text><text x="102.4" y="74" class="node" fill="#E6BAC2">0.37</text><text x="126.2" y="99.5" class="node" fill="#4A6FE3">1</text><text x="150.1" y="67.7" class="node" fill="#E6B4BD">0.35</text><text x="150.1" y="131.3" class="node" fill="#AEB6E2">0.69</text><text x="174" y="175.6" class="node" fill="#4A6FE3">1</text><text x="197.8" y="251.4" class="node" fill="#4A6FE3">1</text><text x="221.7" y="390.3" class="node" fill="#4A6FE3">1</text><text x="245.5" y="240.2" class="node" fill="#4A6FE3">1</text><text x="269.4" y="355" class="node" fill="#95A1E2">0.78</text><text x="293.2" y="260.4" class="node" fill="#E59FAC">0.29</text><text x="317.1" y="229.5" class="node" fill="#E59FAC">0.29</text><text x="340.9" y="198.8" class="node" fill="#E6ABB6">0.32</text><text x="364.8" y="172.7" class="node" fill="#E6ABB6">0.32</text><text x="388.6" y="149.5" class="node" fill="#4F72E2">0.99</text><text x="412.5" y="160.7" class="node" fill="#E6B4BD">0.35</text><text x="436.3" y="170.3" class="node" fill="#4F72E2">0.99</text><text x="388.6" y="196" class="node" fill="#E5A5B1">0.3</text><text x="364.8" y="224.9" class="node" fill="#E6ABB6">0.32</text><text x="388.6" y="234.5" class="node" fill="#E59FAC">0.29</text><text x="340.9" y="260.1" class="node" fill="#E59FAC">0.29</text><text x="317.1" y="291.4" class="node" fill="#E59FAC">0.29</text><text x="340.9" y="303.4" class="node" fill="#4A6FE3">1</text><text x="364.8" y="314.6" class="node" fill="#4A6FE3">1</text><text x="388.6" y="324.3" class="node" fill="#4A6FE3">1</text><text x="293.2" y="449.7" class="node" fill="#E59FAC">0.29</text><text x="317.1" y="395.5" class="node" fill="#4A6FE3">1</text><text x="340.9" y="370.8" class="node" fill="#E5A8B3">0.31</text><text x="364.8" y="353.1" class="node" fill="#E6BDC5">0.38</text><text x="388.6" y="362.7" class="node" fill="#8C9BE1">0.81</text><text x="364.8" y="388.4" class="node" fill="#4A6FE3">1</text><text x="340.9" y="420.3" class="node" fill="#E6B4BD">0.35</text><text x="364.8" y="432.9" class="node" fill="#E6ABB6">0.32</text><text x="388.6" y="445.3" class="node" fill="#E6BAC2">0.37</text><text x="412.5" y="457.3" class="node" fill="#E6BAC2">0.37</text><text x="436.3" y="468.6" class="node" fill="#6982E1">0.92</text><text x="460.2" y="478.2" class="node" fill="#B9BFE3">0.65</text><text x="317.1" y="503.8" class="node" fill="#E59FAC">0.29</text><text x="245.5" y="540.3" class="node" fill="#4A6FE3">1</text><text x="269.4" y="557.5" class="node" fill="#4A6FE3">1</text><text x="293.2" y="542.3" class="node" fill="#E6B4BD">0.35</text><text x="293.2" y="572.8" class="node" fill="#4A6FE3">1</text><text x="317.1" y="584" class="node" fill="#4A6FE3">1</text><text x="340.9" y="593.6" class="node" fill="#4A6FE3">1</text><text x="30.9" y="646.5" class="node" fill="#4A6FE3">1</text><text x="54.7" y="632.1" class="node" fill="#4A6FE3">1</text><text x="54.7" y="661" class="node" fill="#4A6FE3">1</text><text x="78.6" y="670.6" class="node" fill="#4A6FE3">1</text></svg>
