<svg xmlns="http://www.w3.org/2000/svg" version="1.1" width="682" height="612" class="tree" data-char="29"><text x="678" y="14.3" text-anchor="end" class="stepsLabel">Character adds <tspan class="score">4</tspan> to tree score</text><text x="678" y="25.6" text-anchor="end" class="stepsLabel"><tspan class="score">0</tspan> additional regions</text><text x="678" y="36.9" text-anchor="end" class="stepsLabel">CI = 0.25; Fitch CI = 0.25; Fitch RI = 0.4</text><text x="678" y="59.5" text-anchor="end" class="stepsLabel"><tspan dy="16" fill="#34caaf">An optimal tree under:</tspan><tspan x="680" style="font-style:italic" class="thisAn" dy="1.2em">Equal weights</tspan><tspan x="680" style="font-style:italic" class="notThisAn" dy="1.2em">Implied weights, k = 2</tspan><tspan x="680" style="font-style:italic" class="notThisAn" dy="1.2em">IW, k = 3</tspan><tspan x="680" style="font-style:italic" class="notThisAn" dy="1.2em">IW, k = 4.5</tspan><tspan x="680" style="font-style:italic" class="notThisAn" dy="1.2em">IW, k = 7</tspan><tspan x="680" style="font-style:italic" class="notThisAn" dy="1.2em">IW, k = 10.5</tspan><tspan x="680" style="font-style:italic" class="notThisAn" dy="1.2em">IW, k = 16</tspan><tspan x="680" style="font-style:italic" class="notThisAn" dy="1.2em">IW, k = 24</tspan></text><text x="91.7" y="595.5" fill="lightgrey" class="flag">[-]</text><text x="113.7" y="595.5" fill="#ccc" class="taxonLabel">Dentalium</text><text x="91.7" y="607" fill="lightgrey" class="flag">[-]</text><text x="113.7" y="607" fill="#ccc" class="taxonLabel">Wiwaxia corrugata</text><text x="70" y="584" fill="lightgrey" class="flag">[-]</text><text x="92" y="584" fill="#ccc" class="taxonLabel">Tonicella</text><text x="70" y="561.1" fill="lightgrey" class="flag">[-]</text><text x="92" y="561.1" fill="#ccc" class="taxonLabel">Sipunculus</text><text x="70" y="572.6" fill="lightgrey" class="flag">[-]</text><text x="92" y="572.6" fill="#ccc" class="taxonLabel">Serpula</text><text x="438.6" y="526.6" fill="#e2e2a2" class="flag">[1]</text><text x="460.6" y="526.6" fill="#000" class="taxonLabel">Acanthotretella spinosa</text><text x="438.6" y="538.1" fill="grey" class="flag">[?]</text><text x="460.6" y="538.1" fill="#999" class="taxonLabel">Siphonobolus priscus</text><text x="417" y="515.2" fill="grey" class="flag">[?]</text><text x="439" y="515.2" fill="#999" class="taxonLabel">Clupeafumosus socialis</text><text x="417" y="492.2" fill="grey" class="flag">[?]</text><text x="439" y="492.2" fill="#999" class="taxonLabel">Lingulosacculus</text><text x="417" y="503.7" fill="#e2e2a2" class="flag">[1]</text><text x="439" y="503.7" fill="#000" class="taxonLabel">Lingulellotreta malongensis</text><text x="373.6" y="480.7" fill="grey" class="flag">[?]</text><text x="395.6" y="480.7" fill="#999" class="taxonLabel">Botsfordia</text><text x="351.9" y="469.2" fill="grey" class="flag">[?]</text><text x="373.9" y="469.2" fill="#999" class="taxonLabel">Mummpikia nuda</text><text x="330.2" y="457.7" fill="grey" class="flag">[?]</text><text x="352.2" y="457.7" fill="#999" class="taxonLabel">Eoobolus</text><text x="308.5" y="446.3" fill="#91bfdb" class="flag">[2]</text><text x="330.5" y="446.3" fill="#000" class="taxonLabel">Lingula</text><text x="308.5" y="423.3" fill="#e2e2a2" class="flag">[1]</text><text x="330.5" y="423.3" fill="#000" class="taxonLabel">Pelagodiscus atlanticus</text><text x="308.5" y="434.8" fill="grey" class="flag">[?]</text><text x="330.5" y="434.8" fill="#999" class="taxonLabel">Mickwitzia muralensis</text><text x="351.9" y="400.3" fill="grey" class="flag">[?]</text><text x="373.9" y="400.3" fill="#999" class="taxonLabel">Tomteluva perturbata</text><text x="351.9" y="411.8" fill="#91bfdb" class="flag">[2]</text><text x="373.9" y="411.8" fill="#000" class="taxonLabel">Yuganotheca elegans</text><text x="395.3" y="377.4" fill="#91bfdb" class="flag">[2]</text><text x="417.3" y="377.4" fill="#000" class="taxonLabel">Antigonambonites planus</text><text x="395.3" y="388.9" fill="grey" class="flag">[?]</text><text x="417.3" y="388.9" fill="#999" class="taxonLabel">Coolinia pecten</text><text x="482" y="354.4" fill="#e2e2a2" class="flag">[1]</text><text x="504" y="354.4" fill="#000" class="taxonLabel">Terebratulina</text><text x="482" y="365.9" fill="grey" class="flag">[?]</text><text x="504" y="365.9" fill="#999" class="taxonLabel">Orthis</text><text x="460.3" y="342.9" fill="#91bfdb" class="flag">[2]</text><text x="482.3" y="342.9" fill="#000" class="taxonLabel">Alisina</text><text x="438.6" y="331.5" fill="grey" class="flag">[?]</text><text x="460.6" y="331.5" fill="#999" class="taxonLabel">Glyptoria</text><text x="417" y="320" fill="#91bfdb" class="flag">[2]</text><text x="439" y="320" fill="#000" class="taxonLabel">Nisusia sulcata</text><text x="395.3" y="308.5" fill="#e2e2a2" class="flag">[1]</text><text x="417.3" y="308.5" fill="#000" class="taxonLabel">Kutorgina chengjiangensis</text><text x="351.9" y="297" fill="#91bfdb" class="flag">[2]</text><text x="373.9" y="297" fill="#000" class="taxonLabel">Longtancunella chengjiangensis</text><text x="308.5" y="285.5" fill="grey" class="flag">[?]</text><text x="330.5" y="285.5" fill="#999" class="taxonLabel">Salanygolina</text><text x="308.5" y="262.6" fill="grey" class="flag">[?]</text><text x="330.5" y="262.6" fill="#999" class="taxonLabel">Askepasma toddense</text><text x="308.5" y="274.1" fill="grey" class="flag">[?]</text><text x="330.5" y="274.1" fill="#999" class="taxonLabel">Micromitra</text><text x="373.6" y="239.6" fill="lightgrey" class="flag">[-]</text><text x="395.6" y="239.6" fill="#ccc" class="taxonLabel">Pauxillites</text><text x="373.6" y="251.1" fill="lightgrey" class="flag">[-]</text><text x="395.6" y="251.1" fill="#ccc" class="taxonLabel">Maxilites</text><text x="351.9" y="228.1" fill="lightgrey" class="flag">[-]</text><text x="373.9" y="228.1" fill="#ccc" class="taxonLabel">Haplophrentis carinatus</text><text x="373.6" y="205.2" fill="lightgrey" class="flag">[-]</text><text x="395.6" y="205.2" fill="#ccc" class="taxonLabel">Probactrotheca</text><text x="373.6" y="216.7" fill="lightgrey" class="flag">[-]</text><text x="395.6" y="216.7" fill="#ccc" class="taxonLabel">Conotheca</text><text x="351.9" y="193.7" fill="lightgrey" class="flag">[-]</text><text x="373.9" y="193.7" fill="#ccc" class="taxonLabel">Decoritheca</text><text x="308.5" y="182.2" fill="#e2e2a2" class="flag">[1]</text><text x="330.5" y="182.2" fill="#000" class="taxonLabel">Pedunculotheca diania</text><text x="286.9" y="170.7" fill="grey" class="flag">[?]</text><text x="308.9" y="170.7" fill="#999" class="taxonLabel">Paterimitra</text><text x="265.2" y="159.2" fill="grey" class="flag">[?]</text><text x="287.2" y="159.2" fill="#999" class="taxonLabel">Micrina</text><text x="221.8" y="147.8" fill="lightgrey" class="flag">[-]</text><text x="243.8" y="147.8" fill="#ccc" class="taxonLabel">Heliomedusa orienta</text><text x="200.1" y="136.3" fill="lightgrey" class="flag">[-]</text><text x="222.1" y="136.3" fill="#ccc" class="taxonLabel">Gasconsia</text><text x="221.8" y="113.3" fill="lightgrey" class="flag">[-]</text><text x="243.8" y="113.3" fill="#ccc" class="taxonLabel">Craniops</text><text x="221.8" y="124.8" fill="lightgrey" class="flag">[-]</text><text x="243.8" y="124.8" fill="#ccc" class="taxonLabel">Novocrania</text><text x="200.1" y="101.8" fill="lightgrey" class="flag">[-]</text><text x="222.1" y="101.8" fill="#ccc" class="taxonLabel">Ussunia</text><text x="156.8" y="90.4" fill="lightgrey" class="flag">[-]</text><text x="178.8" y="90.4" fill="#ccc" class="taxonLabel">Halkieria evangelista</text><text x="156.8" y="67.4" fill="lightgrey" class="flag">[-]</text><text x="178.8" y="67.4" fill="#ccc" class="taxonLabel">Cotyledion tylodes</text><text x="156.8" y="78.9" fill="lightgrey" class="flag">[-]</text><text x="178.8" y="78.9" fill="#ccc" class="taxonLabel">Namacalathus</text><text x="135.1" y="44.4" fill="grey" class="flag">[?]</text><text x="157.1" y="44.4" fill="#999" class="taxonLabel">Eccentrotheca</text><text x="135.1" y="55.9" fill="grey" class="flag">[?]</text><text x="157.1" y="55.9" fill="#999" class="taxonLabel">Dailyatia</text><text x="91.7" y="33" fill="lightgrey" class="flag">[-]</text><text x="113.7" y="33" fill="#ccc" class="taxonLabel">Phoronis</text><text x="91.7" y="10" fill="lightgrey" class="flag">[-]</text><text x="113.7" y="10" fill="#ccc" class="taxonLabel">Flustra</text><text x="91.7" y="21.5" fill="lightgrey" class="flag">[-]</text><text x="113.7" y="21.5" fill="#ccc" class="taxonLabel">Amathia</text><text x="48.4" y="549.6" fill="lightgrey" class="flag">[-]</text><text x="70.4" y="549.6" fill="#ccc" class="taxonLabel">Loxosomella</text><path d="M5,432.8V288.9H26.7M26.7,288.9V31.2H48.4M48.4,31.2V12.7H70M70,12.7V7H91.7M70,12.7V18.5H91.7M48.4,31.2V49.7H70M70,49.7V30H91.7M70,49.7V69.4H91.7M91.7,69.4V47.2H113.4M113.4,47.2V41.4H135.1M113.4,47.2V52.9H135.1M91.7,69.4V91.6H113.4M113.4,91.6V70.1H135.1M135.1,70.1V64.4H156.8M135.1,70.1V75.9H156.8M113.4,91.6V113H135.1M135.1,113V87.4H156.8M135.1,113V138.7H156.8M156.8,138.7V107.5H178.5M178.5,107.5V98.8H200.1M178.5,107.5V116.1H200.1M200.1,116.1V110.3H221.8M200.1,116.1V121.8H221.8M156.8,138.7V169.9H178.5M178.5,169.9V133.3H200.1M178.5,169.9V206.6H200.1M200.1,206.6V144.8H221.8M286.9,197.9V216.5H308.5M308.5,216.5V199.3H330.2M330.2,199.3V190.7H351.9M330.2,199.3V207.9H351.9M351.9,207.9V202.2H373.6M351.9,207.9V213.7H373.6M308.5,216.5V233.7H330.2M330.2,233.7V225.1H351.9M330.2,233.7V242.4H351.9M351.9,242.4V236.6H373.6M351.9,242.4V248.1H373.6M26.7,288.9V546.6H48.4M5,432.8V576.7H26.7M26.7,576.7V563.8H48.4M48.4,563.8V558.1H70M48.4,563.8V569.6H70M26.7,576.7V589.6H48.4M48.4,589.6V581H70M48.4,589.6V598.3H70M70,598.3V592.5H91.7M70,598.3V604H91.7" stroke="lightgrey" class="inapplicable"></path><path d="M200.1,206.6V268.4H221.8M221.8,268.4V169.5H243.5M243.5,169.5V156.2H265.2M243.5,169.5V182.8H265.2M265.2,182.8V167.7H286.9M265.2,182.8V197.9H286.9M286.9,197.9V179.2H308.5M221.8,268.4V367.2H243.5M243.5,367.2V293.8H265.2M373.6,316.6V305.5H395.3M460.3,357.2V351.4H482M243.5,367.2V440.6H265.2M265.2,440.6V426H286.9M286.9,426V420.3H308.5M286.9,426V431.8H308.5M265.2,440.6V455.2H286.9M286.9,455.2V467.1H308.5M308.5,467.1V454.7H330.2M308.5,467.1V479.5H330.2M330.2,479.5V466.2H351.9M330.2,479.5V492.8H351.9M351.9,492.8V477.7H373.6M351.9,492.8V507.8H373.6M373.6,507.8V494.9H395.3M395.3,494.9V489.2H417M395.3,494.9V500.7H417M373.6,507.8V520.8H395.3M395.3,520.8V512.2H417M395.3,520.8V529.4H417M417,529.4V523.6H438.6M417,529.4V535.1H438.6" stroke="#e2e2a2"></path><path d="M265.2,293.8V265.3H286.9M286.9,265.3V259.6H308.5M286.9,265.3V271.1H308.5M265.2,293.8V322.3H286.9M286.9,322.3V282.5H308.5M460.3,357.2V362.9H482" stroke="darkgrey"></path><path d="M286.9,322.3V362.1H308.5M308.5,362.1V321.2H330.2M330.2,321.2V294H351.9M330.2,321.2V348.4H351.9M351.9,348.4V316.6H373.6M373.6,316.6V327.7H395.3M395.3,327.7V317H417M395.3,327.7V338.5H417M417,338.5V328.5H438.6M417,338.5V348.6H438.6M438.6,348.6V339.9H460.3M438.6,348.6V357.2H460.3M351.9,348.4V380.1H373.6M373.6,380.1V374.4H395.3M373.6,380.1V385.9H395.3M308.5,362.1V403.1H330.2M330.2,403.1V397.3H351.9M330.2,403.1V408.8H351.9M286.9,455.2V443.3H308.5" stroke="#91bfdb"></path><text x="7" y="435.8" class="node" fill="#4A6FE3">1</text><text x="28.7" y="291.9" class="node" fill="#4A6FE3">1</text><text x="50.4" y="34.2" class="node" fill="#4A6FE3">1</text><text x="72" y="15.7" class="node" fill="#4A6FE3">1</text><text x="72" y="52.7" class="node" fill="#4A6FE3">1</text><text x="93.7" y="72.4" class="node" fill="#4A6FE3">1</text><text x="115.4" y="50.2" class="node" fill="#E59FAC">0.29</text><text x="115.4" y="94.6" class="node" fill="#7388E1">0.89</text><text x="137.1" y="73.1" class="node" fill="#7388E1">0.89</text><text x="137.1" y="116" class="node" fill="#4A6FE3">1</text><text x="158.8" y="141.7" class="node" fill="#4A6FE3">1</text><text x="180.5" y="110.5" class="node" fill="#4A6FE3">1</text><text x="202.1" y="119.1" class="node" fill="#4A6FE3">1</text><text x="180.5" y="172.9" class="node" fill="#4A6FE3">1</text><text x="202.1" y="209.6" class="node" fill="#4A6FE3">1</text><text x="223.8" y="271.4" class="node" fill="#4A6FE3">1</text><text x="245.5" y="172.5" class="node" fill="#4A6FE3">1</text><text x="267.2" y="185.8" class="node" fill="#4A6FE3">1</text><text x="288.9" y="200.9" class="node" fill="#4A6FE3">1</text><text x="310.5" y="219.5" class="node" fill="#4A6FE3">1</text><text x="332.2" y="202.3" class="node" fill="#DE728B">0.14</text><text x="353.9" y="210.9" class="node" fill="#4A6FE3">1</text><text x="332.2" y="236.7" class="node" fill="#E3DFE0">0.49</text><text x="353.9" y="245.4" class="node" fill="#4A6FE3">1</text><text x="245.5" y="370.2" class="node" fill="#4A6FE3">1</text><text x="267.2" y="296.8" class="node" fill="#6982E1">0.92</text><text x="288.9" y="268.3" class="node" fill="#4A6FE3">1</text><text x="288.9" y="325.3" class="node" fill="#4A6FE3">1</text><text x="310.5" y="365.1" class="node" fill="#E5D0D3">0.44</text><text x="332.2" y="324.2" class="node" fill="#B1B8E2">0.68</text><text x="353.9" y="351.4" class="node" fill="#8F9DE1">0.8</text><text x="375.6" y="319.6" class="node" fill="#8394E1">0.84</text><text x="397.3" y="330.7" class="node" fill="#C7CBE3">0.6</text><text x="419" y="341.5" class="node" fill="#6D84E1">0.91</text><text x="440.6" y="351.6" class="node" fill="#667FE1">0.93</text><text x="462.3" y="360.2" class="node" fill="#C4C9E3">0.61</text><text x="375.6" y="383.1" class="node" fill="#4A6FE3">1</text><text x="332.2" y="406.1" class="node" fill="#5374E2">0.98</text><text x="267.2" y="443.6" class="node" fill="#4A6FE3">1</text><text x="288.9" y="429" class="node" fill="#4A6FE3">1</text><text x="288.9" y="458.2" class="node" fill="#4A6FE3">1</text><text x="310.5" y="470.1" class="node" fill="#4A6FE3">1</text><text x="332.2" y="482.5" class="node" fill="#8091E1">0.85</text><text x="353.9" y="495.8" class="node" fill="#8091E1">0.85</text><text x="375.6" y="510.8" class="node" fill="#8091E1">0.85</text><text x="397.3" y="497.9" class="node" fill="#E38FA0">0.23</text><text x="397.3" y="523.8" class="node" fill="#D2D4E3">0.57</text><text x="419" y="532.4" class="node" fill="#4A6FE3">1</text><text x="28.7" y="579.7" class="node" fill="#4A6FE3">1</text><text x="50.4" y="566.8" class="node" fill="#4A6FE3">1</text><text x="50.4" y="592.6" class="node" fill="#4A6FE3">1</text><text x="72" y="601.3" class="node" fill="#4A6FE3">1</text></svg>
