<svg xmlns="http://www.w3.org/2000/svg" version="1.1" width="682" height="612" class="tree" data-char="37"><text x="678" y="15.7" text-anchor="end" class="stepsLabel">Character adds <tspan class="score">1</tspan> to tree score</text><text x="678" y="28.4" text-anchor="end" class="stepsLabel"><tspan class="score">0</tspan> additional regions</text><text x="678" y="41.1" text-anchor="end" class="stepsLabel">CI = 1; Fitch CI = 1; Fitch RI = 1</text><text x="678" y="66.5" text-anchor="end" class="stepsLabel"><tspan dy="16">An optimal tree under:</tspan><tspan x="680" style="font-style:italic" class="notThisAn" dy="1.2em">Equal weights</tspan><tspan x="680" style="font-style:italic" class="notThisAn" dy="1.2em">Implied weights, k = 2</tspan><tspan x="680" style="font-style:italic" class="notThisAn" dy="1.2em">IW, k = 3</tspan><tspan x="680" style="font-style:italic" class="thisAn" dy="1.2em">IW, k = 4.5</tspan><tspan x="680" style="font-style:italic" class="notThisAn" dy="1.2em">IW, k = 7</tspan><tspan x="680" style="font-style:italic" class="notThisAn" dy="1.2em">IW, k = 10.5</tspan><tspan x="680" style="font-style:italic" class="notThisAn" dy="1.2em">IW, k = 16</tspan><tspan x="680" style="font-style:italic" class="notThisAn" dy="1.2em">IW, k = 24</tspan></text><text x="95.9" y="594" fill="#fc8d59" class="flag">[0]</text><text x="117.9" y="594" fill="#000" class="taxonLabel">Tonicella</text><text x="95.9" y="607" fill="#fc8d59" class="flag">[0]</text><text x="117.9" y="607" fill="#000" class="taxonLabel">Dentalium</text><text x="73.1" y="581" fill="#fc8d59" class="flag">[0]</text><text x="95.1" y="581" fill="#000" class="taxonLabel">Wiwaxia corrugata</text><text x="73.1" y="555.1" fill="#fc8d59" class="flag">[0]</text><text x="95.1" y="555.1" fill="#000" class="taxonLabel">Sipunculus</text><text x="73.1" y="568.1" fill="#fc8d59" class="flag">[0]</text><text x="95.1" y="568.1" fill="#000" class="taxonLabel">Serpula</text><text x="209.4" y="516.2" fill="grey" class="flag">[?]</text><text x="231.4" y="516.2" fill="#999" class="taxonLabel">Haplophrentis carinatus</text><text x="209.4" y="529.1" fill="grey" class="flag">[?]</text><text x="231.4" y="529.1" fill="#999" class="taxonLabel">Pedunculotheca diania</text><text x="345.7" y="490.2" fill="grey" class="flag">[?]</text><text x="367.7" y="490.2" fill="#999" class="taxonLabel">Craniops</text><text x="345.7" y="503.2" fill="#fc8d59" class="flag">[0]</text><text x="367.7" y="503.2" fill="#000" class="taxonLabel">Novocrania</text><text x="323" y="477.2" fill="grey" class="flag">[?]</text><text x="345" y="477.2" fill="#999" class="taxonLabel">Ussunia</text><text x="300.3" y="464.2" fill="grey" class="flag">[?]</text><text x="322.3" y="464.2" fill="#999" class="taxonLabel">Gasconsia</text><text x="323" y="438.3" fill="grey" class="flag">[?]</text><text x="345" y="438.3" fill="#999" class="taxonLabel">Micromitra</text><text x="323" y="451.3" fill="grey" class="flag">[?]</text><text x="345" y="451.3" fill="#999" class="taxonLabel">Askepasma toddense</text><text x="482" y="412.3" fill="#fc8d59" class="flag">[0]</text><text x="504" y="412.3" fill="#000" class="taxonLabel">Terebratulina</text><text x="482" y="425.3" fill="grey" class="flag">[?]</text><text x="504" y="425.3" fill="#999" class="taxonLabel">Orthis</text><text x="459.3" y="399.3" fill="grey" class="flag">[?]</text><text x="481.3" y="399.3" fill="#999" class="taxonLabel">Alisina</text><text x="436.6" y="386.4" fill="grey" class="flag">[?]</text><text x="458.6" y="386.4" fill="#999" class="taxonLabel">Longtancunella chengjiangensis</text><text x="413.9" y="373.4" fill="grey" class="flag">[?]</text><text x="435.9" y="373.4" fill="#999" class="taxonLabel">Glyptoria</text><text x="391.1" y="360.4" fill="grey" class="flag">[?]</text><text x="413.1" y="360.4" fill="#999" class="taxonLabel">Nisusia sulcata</text><text x="368.4" y="347.4" fill="grey" class="flag">[?]</text><text x="390.4" y="347.4" fill="#999" class="taxonLabel">Kutorgina chengjiangensis</text><text x="368.4" y="321.5" fill="grey" class="flag">[?]</text><text x="390.4" y="321.5" fill="#999" class="taxonLabel">Coolinia pecten</text><text x="368.4" y="334.5" fill="grey" class="flag">[?]</text><text x="390.4" y="334.5" fill="#999" class="taxonLabel">Antigonambonites planus</text><text x="368.4" y="295.5" fill="grey" class="flag">[?]</text><text x="390.4" y="295.5" fill="#999" class="taxonLabel">Yuganotheca elegans</text><text x="368.4" y="308.5" fill="grey" class="flag">[?]</text><text x="390.4" y="308.5" fill="#999" class="taxonLabel">Tomteluva perturbata</text><text x="345.7" y="282.5" fill="grey" class="flag">[?]</text><text x="367.7" y="282.5" fill="#999" class="taxonLabel">Salanygolina</text><text x="300.3" y="256.6" fill="grey" class="flag">[?]</text><text x="322.3" y="256.6" fill="#999" class="taxonLabel">Mickwitzia muralensis</text><text x="300.3" y="269.6" fill="#91bfdb" class="flag">[1]</text><text x="322.3" y="269.6" fill="#000" class="taxonLabel">Pelagodiscus atlanticus</text><text x="345.7" y="230.6" fill="grey" class="flag">[?]</text><text x="367.7" y="230.6" fill="#999" class="taxonLabel">Botsfordia</text><text x="345.7" y="243.6" fill="grey" class="flag">[?]</text><text x="367.7" y="243.6" fill="#999" class="taxonLabel">Mummpikia nuda</text><text x="323" y="217.7" fill="grey" class="flag">[?]</text><text x="345" y="217.7" fill="#999" class="taxonLabel">Eoobolus</text><text x="391.1" y="191.7" fill="grey" class="flag">[?]</text><text x="413.1" y="191.7" fill="#999" class="taxonLabel">Siphonobolus priscus</text><text x="391.1" y="204.7" fill="grey" class="flag">[?]</text><text x="413.1" y="204.7" fill="#999" class="taxonLabel">Acanthotretella spinosa</text><text x="368.4" y="178.7" fill="grey" class="flag">[?]</text><text x="390.4" y="178.7" fill="#999" class="taxonLabel">Clupeafumosus socialis</text><text x="345.7" y="165.7" fill="grey" class="flag">[?]</text><text x="367.7" y="165.7" fill="#999" class="taxonLabel">Lingulosacculus</text><text x="345.7" y="139.8" fill="grey" class="flag">[?]</text><text x="367.7" y="139.8" fill="#999" class="taxonLabel">Lingulellotreta malongensis</text><text x="345.7" y="152.8" fill="#91bfdb" class="flag">[1]</text><text x="367.7" y="152.8" fill="#000" class="taxonLabel">Lingula</text><text x="232.1" y="126.8" fill="grey" class="flag">[?]</text><text x="254.1" y="126.8" fill="#999" class="taxonLabel">Micrina</text><text x="209.4" y="113.8" fill="grey" class="flag">[?]</text><text x="231.4" y="113.8" fill="#999" class="taxonLabel">Paterimitra</text><text x="164" y="100.8" fill="grey" class="flag">[?]</text><text x="186" y="100.8" fill="#999" class="taxonLabel">Heliomedusa orienta</text><text x="164" y="74.9" fill="grey" class="flag">[?]</text><text x="186" y="74.9" fill="#999" class="taxonLabel">Dailyatia</text><text x="164" y="87.9" fill="grey" class="flag">[?]</text><text x="186" y="87.9" fill="#999" class="taxonLabel">Halkieria evangelista</text><text x="141.3" y="48.9" fill="grey" class="flag">[?]</text><text x="163.3" y="48.9" fill="#999" class="taxonLabel">Cotyledion tylodes</text><text x="141.3" y="61.9" fill="grey" class="flag">[?]</text><text x="163.3" y="61.9" fill="#999" class="taxonLabel">Eccentrotheca</text><text x="118.6" y="23" fill="grey" class="flag">[?]</text><text x="140.6" y="23" fill="#999" class="taxonLabel">Namacalathus</text><text x="118.6" y="36" fill="#fc8d59" class="flag">[0]</text><text x="140.6" y="36" fill="#000" class="taxonLabel">Phoronis</text><text x="73.1" y="10" fill="#fc8d59" class="flag">[0]</text><text x="95.1" y="10" fill="#000" class="taxonLabel">Flustra</text><text x="50.4" y="542.1" fill="#fc8d59" class="flag">[0]</text><text x="72.4" y="542.1" fill="#000" class="taxonLabel">Loxosomella</text><path d="M5,430.2V287.2H27.7M27.7,287.2V35.4H50.4M50.4,35.4V7H73.1M50.4,35.4V63.7H73.1M73.1,63.7V26.5H95.9M95.9,26.5V20H118.6M95.9,26.5V33H118.6M73.1,63.7V101H95.9M95.9,101V52.4H118.6M118.6,52.4V45.9H141.3M118.6,52.4V58.9H141.3M95.9,101V149.6H118.6M118.6,149.6V78.4H141.3M141.3,78.4V71.9H164M141.3,78.4V84.9H164M118.6,149.6V220.8H141.3M141.3,220.8V97.8H164M141.3,220.8V343.7H164M164,343.7V167.8H186.7M186.7,167.8V110.8H209.4M186.7,167.8V224.7H209.4M209.4,224.7V123.8H232.1M209.4,224.7V325.7H232.1M232.1,325.7V425.5H254.9M254.9,425.5V378.5H277.6M277.6,378.5V315.2H300.3M300.3,315.2V289.3H323M323,289.3V279.5H345.7M323,289.3V299H345.7M345.7,299V292.5H368.4M345.7,299V305.5H368.4M300.3,315.2V341.1H323M323,341.1V325H345.7M345.7,325V318.5H368.4M345.7,325V331.5H368.4M323,341.1V357.2H345.7M345.7,357.2V344.4H368.4M345.7,357.2V370H368.4M368.4,370V357.4H391.1M368.4,370V382.6H391.1M391.1,382.6V370.4H413.9M391.1,382.6V394.7H413.9M413.9,394.7V383.4H436.6M413.9,394.7V406.1H436.6M436.6,406.1V396.3H459.3M436.6,406.1V415.8H459.3M459.3,415.8V409.3H482M459.3,415.8V422.3H482M277.6,378.5V441.8H300.3M300.3,441.8V435.3H323M300.3,441.8V448.3H323M254.9,425.5V472.6H277.6M277.6,472.6V461.2H300.3M277.6,472.6V484H300.3M300.3,484V474.2H323M300.3,484V493.7H323M323,493.7V487.2H345.7M323,493.7V500.2H345.7M164,343.7V519.6H186.7M186.7,519.6V513.2H209.4M186.7,519.6V526.1H209.4M27.7,287.2V539.1H50.4M5,430.2V573.2H27.7M27.7,573.2V558.6H50.4M50.4,558.6V552.1H73.1M50.4,558.6V565.1H73.1M27.7,573.2V587.8H50.4M50.4,587.8V578H73.1M50.4,587.8V597.5H73.1M73.1,597.5V591H95.9M73.1,597.5V604H95.9" stroke="#fc8d59"></path><path d="M232.1,325.7V225.8H254.9M254.9,225.8V191.5H277.6M277.6,191.5V158.7H300.3M300.3,158.7V143.3H323M323,143.3V136.8H345.7M323,143.3V149.8H345.7M300.3,158.7V174.1H323M323,174.1V162.7H345.7M323,174.1V185.5H345.7M345.7,185.5V175.7H368.4M345.7,185.5V195.2H368.4M368.4,195.2V188.7H391.1M368.4,195.2V201.7H391.1M277.6,191.5V224.4H300.3M300.3,224.4V214.7H323M300.3,224.4V234.1H323M323,234.1V227.6H345.7M323,234.1V240.6H345.7M254.9,225.8V260.1H277.6M277.6,260.1V253.6H300.3M277.6,260.1V266.6H300.3" stroke="#91bfdb"></path><text x="7" y="433.2" class="node" fill="#4A6FE3">1</text><text x="29.7" y="290.2" class="node" fill="#4A6FE3">1</text><text x="52.4" y="38.4" class="node" fill="#6982E1">0.92</text><text x="75.1" y="66.7" class="node" fill="#6982E1">0.92</text><text x="97.9" y="29.5" class="node" fill="#E6BAC2">0.37</text><text x="97.9" y="104" class="node" fill="#6982E1">0.92</text><text x="120.6" y="55.4" class="node" fill="#E49CAA">0.27</text><text x="120.6" y="152.6" class="node" fill="#BFC4E3">0.63</text><text x="143.3" y="81.4" class="node" fill="#E0E0E2">0.51</text><text x="143.3" y="223.8" class="node" fill="#4A6FE3">1</text><text x="166" y="346.7" class="node" fill="#E6BDC5">0.38</text><text x="188.7" y="170.8" class="node" fill="#E6BDC5">0.38</text><text x="211.4" y="227.7" class="node" fill="#E6BDC5">0.38</text><text x="234.1" y="328.7" class="node" fill="#E6BDC5">0.38</text><text x="256.9" y="228.8" class="node" fill="#E0E0E2">0.51</text><text x="279.6" y="194.5" class="node" fill="#4A6FE3">1</text><text x="302.3" y="161.7" class="node" fill="#E6BDC5">0.38</text><text x="325" y="146.3" class="node" fill="#E6BDC5">0.38</text><text x="325" y="177.1" class="node" fill="#8F9DE1">0.8</text><text x="347.7" y="188.5" class="node" fill="#E3DFE0">0.49</text><text x="370.4" y="198.2" class="node" fill="#4A6FE3">1</text><text x="302.3" y="227.4" class="node" fill="#E0E0E2">0.51</text><text x="325" y="237.1" class="node" fill="#E6BDC5">0.38</text><text x="279.6" y="263.1" class="node" fill="#4A6FE3">1</text><text x="256.9" y="428.5" class="node" fill="#E6BDC5">0.38</text><text x="279.6" y="381.5" class="node" fill="#D7D9E3">0.54</text><text x="302.3" y="318.2" class="node" fill="#4A6FE3">1</text><text x="325" y="292.3" class="node" fill="#929FE1">0.79</text><text x="347.7" y="302" class="node" fill="#7D8FE1">0.86</text><text x="325" y="344.1" class="node" fill="#8394E1">0.84</text><text x="347.7" y="328" class="node" fill="#4A6FE3">1</text><text x="347.7" y="360.2" class="node" fill="#8C9BE1">0.81</text><text x="370.4" y="373" class="node" fill="#8C9BE1">0.81</text><text x="393.1" y="385.6" class="node" fill="#7388E1">0.89</text><text x="415.9" y="397.7" class="node" fill="#7388E1">0.89</text><text x="438.6" y="409.1" class="node" fill="#4A6FE3">1</text><text x="461.3" y="418.8" class="node" fill="#667FE1">0.93</text><text x="302.3" y="444.8" class="node" fill="#B9BFE3">0.65</text><text x="279.6" y="475.6" class="node" fill="#E6BDC5">0.38</text><text x="302.3" y="487" class="node" fill="#627DE1">0.94</text><text x="325" y="496.7" class="node" fill="#4A6FE3">1</text><text x="188.7" y="522.6" class="node" fill="#4A6FE3">1</text><text x="29.7" y="576.2" class="node" fill="#4A6FE3">1</text><text x="52.4" y="561.6" class="node" fill="#4A6FE3">1</text><text x="52.4" y="590.8" class="node" fill="#4A6FE3">1</text><text x="75.1" y="600.5" class="node" fill="#8696E1">0.83</text></svg>
