<svg xmlns="http://www.w3.org/2000/svg" version="1.1" width="682" height="612" class="tree" data-char="98"><text x="678" y="15.7" text-anchor="end" class="stepsLabel">Character adds <tspan class="score">3</tspan> to tree score</text><text x="678" y="28.4" text-anchor="end" class="stepsLabel"><tspan class="score">1</tspan> additional region</text><text x="678" y="41.1" text-anchor="end" class="stepsLabel">CI = 0.67; Fitch CI = 1; Fitch RI = 1</text><text x="678" y="66.5" text-anchor="end" class="stepsLabel"><tspan dy="16">An optimal tree under:</tspan><tspan x="680" style="font-style:italic" class="thisAn" dy="1.2em">Equal weights</tspan><tspan x="680" style="font-style:italic" class="notThisAn" dy="1.2em">Implied weights, k = 2</tspan><tspan x="680" style="font-style:italic" class="notThisAn" dy="1.2em">IW, k = 3</tspan><tspan x="680" style="font-style:italic" class="notThisAn" dy="1.2em">IW, k = 4.5</tspan><tspan x="680" style="font-style:italic" class="notThisAn" dy="1.2em">IW, k = 7</tspan><tspan x="680" style="font-style:italic" class="notThisAn" dy="1.2em">IW, k = 10.5</tspan><tspan x="680" style="font-style:italic" class="notThisAn" dy="1.2em">IW, k = 16</tspan><tspan x="680" style="font-style:italic" class="notThisAn" dy="1.2em">IW, k = 24</tspan></text><text x="70" y="594" fill="lightgrey" class="flag">[-]</text><text x="92" y="594" fill="lightgrey" class="taxonLabel">Sipunculus</text><text x="70" y="607" fill="lightgrey" class="flag">[-]</text><text x="92" y="607" fill="lightgrey" class="taxonLabel">Serpula</text><text x="91.7" y="568.1" fill="lightgrey" class="flag">[-]</text><text x="113.7" y="568.1" fill="lightgrey" class="taxonLabel">Tonicella</text><text x="91.7" y="581" fill="lightgrey" class="flag">[-]</text><text x="113.7" y="581" fill="lightgrey" class="taxonLabel">Dentalium</text><text x="70" y="555.1" fill="lightgrey" class="flag">[-]</text><text x="92" y="555.1" fill="lightgrey" class="taxonLabel">Wiwaxia corrugata</text><text x="482" y="516.2" fill="lightgrey" class="flag">[-]</text><text x="504" y="516.2" fill="lightgrey" class="taxonLabel">Alisina</text><text x="482" y="529.1" fill="lightgrey" class="flag">[-]</text><text x="504" y="529.1" fill="lightgrey" class="taxonLabel">Terebratulina</text><text x="460.3" y="503.2" fill="lightgrey" class="flag">[-]</text><text x="482.3" y="503.2" fill="lightgrey" class="taxonLabel">Orthis</text><text x="438.6" y="490.2" fill="lightgrey" class="flag">[-]</text><text x="460.6" y="490.2" fill="lightgrey" class="taxonLabel">Glyptoria</text><text x="417" y="477.2" fill="lightgrey" class="flag">[-]</text><text x="439" y="477.2" fill="lightgrey" class="taxonLabel">Nisusia sulcata</text><text x="395.3" y="464.2" fill="grey" class="flag">[?]</text><text x="417.3" y="464.2" fill="grey" class="taxonLabel">Kutorgina chengjiangensis</text><text x="395.3" y="438.3" fill="lightgrey" class="flag">[-]</text><text x="417.3" y="438.3" fill="lightgrey" class="taxonLabel">Antigonambonites planus</text><text x="395.3" y="451.3" fill="lightgrey" class="flag">[-]</text><text x="417.3" y="451.3" fill="lightgrey" class="taxonLabel">Coolinia pecten</text><text x="351.9" y="425.3" fill="grey" class="flag">[?]</text><text x="373.9" y="425.3" fill="grey" class="taxonLabel">Longtancunella chengjiangensis</text><text x="351.9" y="399.3" fill="lightgrey" class="flag">[-]</text><text x="373.9" y="399.3" fill="lightgrey" class="taxonLabel">Tomteluva perturbata</text><text x="351.9" y="412.3" fill="grey" class="flag">[?]</text><text x="373.9" y="412.3" fill="grey" class="taxonLabel">Yuganotheca elegans</text><text x="308.5" y="386.4" fill="lightgrey" class="flag">[-]</text><text x="330.5" y="386.4" fill="lightgrey" class="taxonLabel">Salanygolina</text><text x="330.2" y="360.4" fill="lightgrey" class="flag">[-]</text><text x="352.2" y="360.4" fill="lightgrey" class="taxonLabel">Micromitra</text><text x="330.2" y="373.4" fill="lightgrey" class="flag">[-]</text><text x="352.2" y="373.4" fill="lightgrey" class="taxonLabel">Gasconsia</text><text x="308.5" y="347.4" fill="lightgrey" class="flag">[-]</text><text x="330.5" y="347.4" fill="lightgrey" class="taxonLabel">Askepasma toddense</text><text x="438.6" y="321.5" fill="#abd9e9" class="flag">[2]</text><text x="460.6" y="321.5" fill="#000" class="taxonLabel">Siphonobolus priscus</text><text x="438.6" y="334.5" fill="lightgrey" class="flag">[-]</text><text x="460.6" y="334.5" fill="lightgrey" class="taxonLabel">Acanthotretella spinosa</text><text x="438.6" y="295.5" fill="#abd9e9" class="flag">[2]</text><text x="460.6" y="295.5" fill="#000" class="taxonLabel">Lingulosacculus</text><text x="438.6" y="308.5" fill="#abd9e9" class="flag">[2]</text><text x="460.6" y="308.5" fill="#000" class="taxonLabel">Clupeafumosus socialis</text><text x="395.3" y="282.5" fill="#fdae61" class="flag">[1]</text><text x="417.3" y="282.5" fill="#000" class="taxonLabel">Lingulellotreta malongensis</text><text x="373.6" y="269.6" fill="lightgrey" class="flag">[-]</text><text x="395.6" y="269.6" fill="lightgrey" class="taxonLabel">Botsfordia</text><text x="351.9" y="256.6" fill="lightgrey" class="flag">[-]</text><text x="373.9" y="256.6" fill="lightgrey" class="taxonLabel">Mummpikia nuda</text><text x="330.2" y="243.6" fill="lightgrey" class="flag">[-]</text><text x="352.2" y="243.6" fill="lightgrey" class="taxonLabel">Eoobolus</text><text x="308.5" y="230.6" fill="lightgrey" class="flag">[-]</text><text x="330.5" y="230.6" fill="lightgrey" class="taxonLabel">Lingula</text><text x="330.2" y="204.7" fill="#2c7bb6" class="flag">[3]</text><text x="352.2" y="204.7" fill="#000" class="taxonLabel">Mickwitzia muralensis</text><text x="330.2" y="217.7" fill="#fdae61" class="flag">[1]</text><text x="352.2" y="217.7" fill="#000" class="taxonLabel">Pelagodiscus atlanticus</text><text x="308.5" y="191.7" fill="lightgrey" class="flag">[-]</text><text x="330.5" y="191.7" fill="lightgrey" class="taxonLabel">Micrina</text><text x="286.9" y="165.7" fill="lightgrey" class="flag">[-]</text><text x="308.9" y="165.7" fill="lightgrey" class="taxonLabel">Pedunculotheca diania</text><text x="286.9" y="178.7" fill="lightgrey" class="flag">[-]</text><text x="308.9" y="178.7" fill="lightgrey" class="taxonLabel">Haplophrentis carinatus</text><text x="265.2" y="152.8" fill="lightgrey" class="flag">[-]</text><text x="287.2" y="152.8" fill="lightgrey" class="taxonLabel">Paterimitra</text><text x="221.8" y="139.8" fill="lightgrey" class="flag">[-]</text><text x="243.8" y="139.8" fill="lightgrey" class="taxonLabel">Heliomedusa orienta</text><text x="243.5" y="113.8" fill="lightgrey" class="flag">[-]</text><text x="265.5" y="113.8" fill="lightgrey" class="taxonLabel">Craniops</text><text x="243.5" y="126.8" fill="lightgrey" class="flag">[-]</text><text x="265.5" y="126.8" fill="lightgrey" class="taxonLabel">Novocrania</text><text x="221.8" y="100.8" fill="lightgrey" class="flag">[-]</text><text x="243.8" y="100.8" fill="lightgrey" class="taxonLabel">Ussunia</text><text x="178.5" y="87.9" fill="lightgrey" class="flag">[-]</text><text x="200.5" y="87.9" fill="lightgrey" class="taxonLabel">Halkieria evangelista</text><text x="156.8" y="74.9" fill="lightgrey" class="flag">[-]</text><text x="178.8" y="74.9" fill="lightgrey" class="taxonLabel">Dailyatia</text><text x="135.1" y="61.9" fill="lightgrey" class="flag">[-]</text><text x="157.1" y="61.9" fill="lightgrey" class="taxonLabel">Cotyledion tylodes</text><text x="113.4" y="48.9" fill="lightgrey" class="flag">[-]</text><text x="135.4" y="48.9" fill="lightgrey" class="taxonLabel">Eccentrotheca</text><text x="113.4" y="23" fill="lightgrey" class="flag">[-]</text><text x="135.4" y="23" fill="lightgrey" class="taxonLabel">Phoronis</text><text x="113.4" y="36" fill="lightgrey" class="flag">[-]</text><text x="135.4" y="36" fill="lightgrey" class="taxonLabel">Namacalathus</text><text x="70" y="10" fill="lightgrey" class="flag">[-]</text><text x="92" y="10" fill="lightgrey" class="taxonLabel">Flustra</text><text x="48.4" y="542.1" fill="lightgrey" class="flag">[-]</text><text x="70.4" y="542.1" fill="lightgrey" class="taxonLabel">Loxosomella</text><path d="M5,431V282.2H26.7M26.7,282.2V25.4H48.4M48.4,25.4V7H70M48.4,25.4V43.8H70M70,43.8V26.5H91.7M91.7,26.5V20H113.4M91.7,26.5V33H113.4M70,43.8V61.1H91.7M91.7,61.1V45.9H113.4M91.7,61.1V76.2H113.4M113.4,76.2V58.9H135.1M113.4,76.2V93.5H135.1M135.1,93.5V71.9H156.8M135.1,93.5V115.1H156.8M156.8,115.1V84.9H178.5M156.8,115.1V145.3H178.5M178.5,145.3V107.6H200.1M200.1,107.6V97.8H221.8M200.1,107.6V117.3H221.8M221.8,117.3V110.8H243.5M221.8,117.3V123.8H243.5M178.5,145.3V183H200.1M200.1,183V136.8H221.8M200.1,183V229.2H221.8M221.8,229.2V159.5H243.5M243.5,159.5V149.8H265.2M243.5,159.5V169.2H265.2M265.2,169.2V162.7H286.9M265.2,169.2V175.7H286.9M221.8,229.2V299H243.5M243.5,299V219.6H265.2M265.2,219.6V198.4H286.9M286.9,198.4V188.7H308.5M265.2,219.6V240.8H286.9M286.9,240.8V227.6H308.5M286.9,240.8V254H308.5M308.5,254V240.6H330.2M308.5,254V267.4H330.2M330.2,267.4V253.6H351.9M330.2,267.4V281.2H351.9M351.9,281.2V266.6H373.6M417,325V331.5H438.6M243.5,299V378.3H265.2M265.2,378.3V354.2H286.9M286.9,354.2V344.4H308.5M286.9,354.2V363.9H308.5M308.5,363.9V357.4H330.2M308.5,363.9V370.4H330.2M265.2,378.3V402.4H286.9M286.9,402.4V383.4H308.5M286.9,402.4V421.4H308.5M308.5,421.4V402.8H330.2M330.2,402.8V396.3H351.9M330.2,402.8V409.3H351.9M308.5,421.4V440H330.2M330.2,440V422.3H351.9M330.2,440V457.8H351.9M351.9,457.8V441.8H373.6M373.6,441.8V435.3H395.3M373.6,441.8V448.3H395.3M351.9,457.8V473.8H373.6M373.6,473.8V461.2H395.3M373.6,473.8V486.4H395.3M395.3,486.4V474.2H417M395.3,486.4V498.6H417M417,498.6V487.2H438.6M417,498.6V509.9H438.6M438.6,509.9V500.2H460.3M438.6,509.9V519.6H460.3M460.3,519.6V513.2H482M460.3,519.6V526.1H482M26.7,282.2V539.1H48.4M5,431V579.7H26.7M26.7,579.7V561.8H48.4M48.4,561.8V552.1H70M48.4,561.8V571.6H70M70,571.6V565.1H91.7M70,571.6V578H91.7M26.7,579.7V597.5H48.4M48.4,597.5V591H70M48.4,597.5V604H70" stroke="lightgrey" class="inapplicable"></path><path d="M286.9,198.4V208.2H308.5M351.9,281.2V295.8H373.6" stroke="darkgrey"></path><path d="M308.5,208.2V201.7H330.2" stroke="#2c7bb6"></path><path d="M308.5,208.2V214.7H330.2M373.6,295.8V279.5H395.3" stroke="#fdae61"></path><path d="M373.6,295.8V312H395.3M395.3,312V299H417M417,299V292.5H438.6M417,299V305.5H438.6M395.3,312V325H417M417,325V318.5H438.6" stroke="#abd9e9"></path><text x="7" y="434" class="node" fill="#4A6FE3">1</text><text x="28.7" y="285.2" class="node" fill="#4A6FE3">1</text><text x="50.4" y="28.4" class="node" fill="#5776E2">0.97</text><text x="72" y="46.8" class="node" fill="#5776E2">0.97</text><text x="93.7" y="29.5" class="node" fill="#6982E1">0.92</text><text x="93.7" y="64.1" class="node" fill="#5776E2">0.97</text><text x="115.4" y="79.2" class="node" fill="#E4D9DB">0.47</text><text x="137.1" y="96.5" class="node" fill="#8F9DE1">0.8</text><text x="158.8" y="118.1" class="node" fill="#E5A8B3">0.31</text><text x="180.5" y="148.3" class="node" fill="#4A6FE3">1</text><text x="202.1" y="110.6" class="node" fill="#9DA8E2">0.75</text><text x="223.8" y="120.3" class="node" fill="#4A6FE3">1</text><text x="202.1" y="186" class="node" fill="#8998E1">0.82</text><text x="223.8" y="232.2" class="node" fill="#8998E1">0.82</text><text x="245.5" y="162.5" class="node" fill="#E6B7C0">0.36</text><text x="267.2" y="172.2" class="node" fill="#4A6FE3">1</text><text x="245.5" y="302" class="node" fill="#8998E1">0.82</text><text x="267.2" y="222.6" class="node" fill="#8696E1">0.83</text><text x="288.9" y="201.4" class="node" fill="#8696E1">0.83</text><text x="310.5" y="211.2" class="node" fill="#4A6FE3">1</text><text x="288.9" y="243.8" class="node" fill="#4A6FE3">1</text><text x="310.5" y="257" class="node" fill="#5776E2">0.97</text><text x="332.2" y="270.4" class="node" fill="#8696E1">0.83</text><text x="353.9" y="284.2" class="node" fill="#8696E1">0.83</text><text x="375.6" y="298.8" class="node" fill="#8696E1">0.83</text><text x="397.3" y="315" class="node" fill="#A3ADE2">0.73</text><text x="419" y="302" class="node" fill="#E495A5">0.25</text><text x="419" y="328" class="node" fill="#4A6FE3">1</text><text x="267.2" y="381.3" class="node" fill="#8998E1">0.82</text><text x="288.9" y="357.2" class="node" fill="#E59FAC">0.29</text><text x="310.5" y="366.9" class="node" fill="#D2D4E3">0.57</text><text x="288.9" y="405.4" class="node" fill="#4A6FE3">1</text><text x="310.5" y="424.4" class="node" fill="#E17F94">0.18</text><text x="332.2" y="405.8" class="node" fill="#5374E2">0.98</text><text x="332.2" y="443" class="node" fill="#6982E1">0.92</text><text x="353.9" y="460.8" class="node" fill="#B1B8E2">0.68</text><text x="375.6" y="444.8" class="node" fill="#4A6FE3">1</text><text x="375.6" y="476.8" class="node" fill="#B1B8E2">0.68</text><text x="397.3" y="489.4" class="node" fill="#B1B8E2">0.68</text><text x="419" y="501.6" class="node" fill="#B1B8E2">0.68</text><text x="440.6" y="512.9" class="node" fill="#4A6FE3">1</text><text x="462.3" y="522.6" class="node" fill="#E6AEB8">0.33</text><text x="28.7" y="582.7" class="node" fill="#4A6FE3">1</text><text x="50.4" y="564.8" class="node" fill="#4A6FE3">1</text><text x="72" y="574.6" class="node" fill="#4A6FE3">1</text><text x="50.4" y="600.5" class="node" fill="#4A6FE3">1</text></svg>
