<svg xmlns="http://www.w3.org/2000/svg" version="1.1" width="682" height="682" class="tree" data-char="55"><text x="678" y="15.4" text-anchor="end" class="stepsLabel">Character adds <tspan class="score">1</tspan> to tree score</text><text x="678" y="27.8" text-anchor="end" class="stepsLabel"><tspan class="score">0</tspan> additional regions</text><text x="678" y="40.2" text-anchor="end" class="stepsLabel">CI = 1; Fitch CI = 1; Fitch RI = 1</text><text x="678" y="65" text-anchor="end" class="stepsLabel"><tspan dy="16" fill="#34caaf">An optimal tree under:</tspan><tspan x="680" style="font-style:italic" class="thisAn" dy="1.2em">Equal weights</tspan><tspan x="680" style="font-style:italic" class="notThisAn" dy="1.2em">Implied weights, k = 3</tspan><tspan x="680" style="font-style:italic" class="notThisAn" dy="1.2em">IW, k = 4.5</tspan><tspan x="680" style="font-style:italic" class="notThisAn" dy="1.2em">IW, k = 7</tspan><tspan x="680" style="font-style:italic" class="notThisAn" dy="1.2em">IW, k = 10.5</tspan><tspan x="680" style="font-style:italic" class="notThisAn" dy="1.2em">IW, k = 16</tspan><tspan x="680" style="font-style:italic" class="notThisAn" dy="1.2em">IW, k = 24</tspan></text><text x="73.1" y="664.4" fill="#fc8d59" class="flag">[0]</text><text x="95.1" y="664.4" fill="#000" class="taxonLabel">Sipunculus</text><text x="73.1" y="677" fill="#fc8d59" class="flag">[0]</text><text x="95.1" y="677" fill="#000" class="taxonLabel">Serpula</text><text x="95.9" y="639.2" fill="#91bfdb" class="flag">[1]</text><text x="117.9" y="639.2" fill="#000" class="taxonLabel">Tonicella</text><text x="95.9" y="651.8" fill="#91bfdb" class="flag">[1]</text><text x="117.9" y="651.8" fill="#000" class="taxonLabel">Dentalium</text><text x="73.1" y="626.7" fill="#91bfdb" class="flag">[1]</text><text x="95.1" y="626.7" fill="#000" class="taxonLabel">Wiwaxia corrugata</text><text x="300.3" y="601.5" fill="grey" class="flag">[?]</text><text x="322.3" y="601.5" fill="#999" class="taxonLabel">Mickwitzia muralensis</text><text x="300.3" y="614.1" fill="#fc8d59" class="flag">[0]</text><text x="322.3" y="614.1" fill="#000" class="taxonLabel">Heliomedusa orienta</text><text x="277.6" y="588.9" fill="grey" class="flag">[?]</text><text x="299.6" y="588.9" fill="#999" class="taxonLabel">Micrina</text><text x="391.1" y="563.7" fill="grey" class="flag">[?]</text><text x="413.1" y="563.7" fill="#999" class="taxonLabel">Nisusia sulcata</text><text x="391.1" y="576.3" fill="#fc8d59" class="flag">[0]</text><text x="413.1" y="576.3" fill="#000" class="taxonLabel">Kutorgina chengjiangensis</text><text x="482" y="538.6" fill="#fc8d59" class="flag">[0]</text><text x="504" y="538.6" fill="#000" class="taxonLabel">Terebratulina</text><text x="482" y="551.2" fill="grey" class="flag">[?]</text><text x="504" y="551.2" fill="#999" class="taxonLabel">Orthis</text><text x="459.3" y="526" fill="grey" class="flag">[?]</text><text x="481.3" y="526" fill="#999" class="taxonLabel">Alisina</text><text x="436.6" y="513.4" fill="#fc8d59" class="flag">[0]</text><text x="458.6" y="513.4" fill="#000" class="taxonLabel">Longtancunella chengjiangensis</text><text x="413.9" y="500.8" fill="grey" class="flag">[?]</text><text x="435.9" y="500.8" fill="#999" class="taxonLabel">Glyptoria</text><text x="391.1" y="488.2" fill="grey" class="flag">[?]</text><text x="413.1" y="488.2" fill="#999" class="taxonLabel">Tomteluva perturbata</text><text x="368.4" y="463.1" fill="grey" class="flag">[?]</text><text x="390.4" y="463.1" fill="#999" class="taxonLabel">Antigonambonites planus</text><text x="368.4" y="475.6" fill="grey" class="flag">[?]</text><text x="390.4" y="475.6" fill="#999" class="taxonLabel">Coolinia pecten</text><text x="323" y="450.5" fill="grey" class="flag">[?]</text><text x="345" y="450.5" fill="#999" class="taxonLabel">Salanygolina</text><text x="323" y="425.3" fill="grey" class="flag">[?]</text><text x="345" y="425.3" fill="#999" class="taxonLabel">Micromitra</text><text x="323" y="437.9" fill="grey" class="flag">[?]</text><text x="345" y="437.9" fill="#999" class="taxonLabel">Askepasma toddense</text><text x="482" y="400.1" fill="grey" class="flag">[?]</text><text x="504" y="400.1" fill="#999" class="taxonLabel">Siphonobolus priscus</text><text x="482" y="412.7" fill="#fc8d59" class="flag">[0]</text><text x="504" y="412.7" fill="#000" class="taxonLabel">Acanthotretella spinosa</text><text x="459.3" y="387.5" fill="grey" class="flag">[?]</text><text x="481.3" y="387.5" fill="#999" class="taxonLabel">Clupeafumosus socialis</text><text x="436.6" y="375" fill="#fc8d59" class="flag">[0]</text><text x="458.6" y="375" fill="#000" class="taxonLabel">Lingulosacculus</text><text x="413.9" y="362.4" fill="#fc8d59" class="flag">[0]</text><text x="435.9" y="362.4" fill="#000" class="taxonLabel">Lingulellotreta malongensis</text><text x="413.9" y="337.2" fill="grey" class="flag">[?]</text><text x="435.9" y="337.2" fill="#999" class="taxonLabel">Mummpikia nuda</text><text x="413.9" y="349.8" fill="#fc8d59" class="flag">[0]</text><text x="435.9" y="349.8" fill="#000" class="taxonLabel">Pelagodiscus atlanticus</text><text x="368.4" y="324.6" fill="grey" class="flag">[?]</text><text x="390.4" y="324.6" fill="#999" class="taxonLabel">Botsfordia</text><text x="345.7" y="312" fill="grey" class="flag">[?]</text><text x="367.7" y="312" fill="#999" class="taxonLabel">Eoobolus</text><text x="323" y="299.5" fill="#fc8d59" class="flag">[0]</text><text x="345" y="299.5" fill="#000" class="taxonLabel">Lingula</text><text x="368.4" y="274.3" fill="#fc8d59" class="flag">[0]</text><text x="390.4" y="274.3" fill="#000" class="taxonLabel">Novocrania</text><text x="368.4" y="286.9" fill="grey" class="flag">[?]</text><text x="390.4" y="286.9" fill="#999" class="taxonLabel">Craniops</text><text x="345.7" y="261.7" fill="grey" class="flag">[?]</text><text x="367.7" y="261.7" fill="#999" class="taxonLabel">Ussunia</text><text x="323" y="249.1" fill="grey" class="flag">[?]</text><text x="345" y="249.1" fill="#999" class="taxonLabel">Gasconsia</text><text x="232.1" y="236.5" fill="#fc8d59" class="flag">[0]</text><text x="254.1" y="236.5" fill="#000" class="taxonLabel">Yuganotheca elegans</text><text x="300.3" y="211.4" fill="grey" class="flag">[?]</text><text x="322.3" y="211.4" fill="#999" class="taxonLabel">Pauxillites</text><text x="300.3" y="223.9" fill="grey" class="flag">[?]</text><text x="322.3" y="223.9" fill="#999" class="taxonLabel">Maxilites</text><text x="277.6" y="198.8" fill="#fc8d59" class="flag">[0]</text><text x="299.6" y="198.8" fill="#000" class="taxonLabel">Haplophrentis carinatus</text><text x="323" y="173.6" fill="grey" class="flag">[?]</text><text x="345" y="173.6" fill="#999" class="taxonLabel">Bactrotheca</text><text x="323" y="186.2" fill="grey" class="flag">[?]</text><text x="345" y="186.2" fill="#999" class="taxonLabel">Conotheca</text><text x="300.3" y="161" fill="grey" class="flag">[?]</text><text x="322.3" y="161" fill="#999" class="taxonLabel">Cupitheca holocyclata</text><text x="277.6" y="148.4" fill="grey" class="flag">[?]</text><text x="299.6" y="148.4" fill="#999" class="taxonLabel">Paramicrocornus</text><text x="232.1" y="135.8" fill="grey" class="flag">[?]</text><text x="254.1" y="135.8" fill="#999" class="taxonLabel">Pedunculotheca diania</text><text x="186.7" y="123.3" fill="grey" class="flag">[?]</text><text x="208.7" y="123.3" fill="#999" class="taxonLabel">Paterimitra</text><text x="164" y="110.7" fill="grey" class="flag">[?]</text><text x="186" y="110.7" fill="#999" class="taxonLabel">Halkieria evangelista</text><text x="141.3" y="98.1" fill="grey" class="flag">[?]</text><text x="163.3" y="98.1" fill="#999" class="taxonLabel">Dailyatia</text><text x="141.3" y="72.9" fill="grey" class="flag">[?]</text><text x="163.3" y="72.9" fill="#999" class="taxonLabel">Eccentrotheca</text><text x="141.3" y="85.5" fill="#fc8d59" class="flag">[0]</text><text x="163.3" y="85.5" fill="#000" class="taxonLabel">Cotyledion tylodes</text><text x="118.6" y="47.8" fill="#fc8d59" class="flag">[0]</text><text x="140.6" y="47.8" fill="#000" class="taxonLabel">Phoronis</text><text x="118.6" y="60.3" fill="grey" class="flag">[?]</text><text x="140.6" y="60.3" fill="#999" class="taxonLabel">Namacalathus</text><text x="95.9" y="22.6" fill="#fc8d59" class="flag">[0]</text><text x="117.9" y="22.6" fill="#000" class="taxonLabel">Amathia</text><text x="95.9" y="35.2" fill="#fc8d59" class="flag">[0]</text><text x="117.9" y="35.2" fill="#000" class="taxonLabel">Flustra</text><text x="50.4" y="10" fill="#fc8d59" class="flag">[0]</text><text x="72.4" y="10" fill="#000" class="taxonLabel">Loxosomella</text><path d="M5,339.6V28.7H27.7M27.7,28.7V7H50.4M27.7,28.7V50.4H50.4M50.4,50.4V25.9H73.1M73.1,25.9V19.6H95.9M73.1,25.9V32.2H95.9M50.4,50.4V75H73.1M73.1,75V51H95.9M95.9,51V44.8H118.6M95.9,51V57.3H118.6M73.1,75V98.9H95.9M95.9,98.9V76.2H118.6M118.6,76.2V69.9H141.3M118.6,76.2V82.5H141.3M95.9,98.9V121.6H118.6M118.6,121.6V95.1H141.3M118.6,121.6V148.2H141.3M141.3,148.2V107.7H164M141.3,148.2V188.7H164M164,188.7V120.3H186.7M164,188.7V257.1H186.7M186.7,257.1V156.8H209.4M209.4,156.8V132.8H232.1M209.4,156.8V180.8H232.1M232.1,180.8V156.4H254.9M254.9,156.4V145.4H277.6M254.9,156.4V167.5H277.6M277.6,167.5V158H300.3M277.6,167.5V176.9H300.3M300.3,176.9V170.6H323M300.3,176.9V183.2H323M232.1,180.8V205.2H254.9M254.9,205.2V195.8H277.6M254.9,205.2V214.7H277.6M277.6,214.7V208.4H300.3M277.6,214.7V220.9H300.3M186.7,257.1V357.4H209.4M209.4,357.4V233.5H232.1M209.4,357.4V481.3H232.1M232.1,481.3V367.3H254.9M254.9,367.3V283.6H277.6M277.6,283.6V257.1H300.3M300.3,257.1V246.1H323M300.3,257.1V268.1H323M323,268.1V258.7H345.7M323,268.1V277.6H345.7M345.7,277.6V271.3H368.4M345.7,277.6V283.9H368.4M277.6,283.6V310.2H300.3M300.3,310.2V296.5H323M300.3,310.2V323.9H323M323,323.9V309H345.7M323,323.9V338.7H345.7M345.7,338.7V321.6H368.4M345.7,338.7V355.8H368.4M368.4,355.8V340.5H391.1M391.1,340.5V334.2H413.9M391.1,340.5V346.8H413.9M368.4,355.8V371.2H391.1M391.1,371.2V359.4H413.9M391.1,371.2V383H413.9M413.9,383V372H436.6M413.9,383V394H436.6M436.6,394V384.5H459.3M436.6,394V403.4H459.3M459.3,403.4V397.1H482M459.3,403.4V409.7H482M254.9,367.3V451H277.6M277.6,451V428.6H300.3M300.3,428.6V422.3H323M300.3,428.6V434.9H323M277.6,451V473.4H300.3M300.3,473.4V447.5H323M300.3,473.4V499.3H323M323,499.3V466.3H345.7M345.7,466.3V460.1H368.4M345.7,466.3V472.6H368.4M323,499.3V532.2H345.7M345.7,532.2V497.4H368.4M368.4,497.4V485.2H391.1M368.4,497.4V509.6H391.1M391.1,509.6V497.8H413.9M391.1,509.6V521.4H413.9M413.9,521.4V510.4H436.6M413.9,521.4V532.4H436.6M436.6,532.4V523H459.3M436.6,532.4V541.9H459.3M459.3,541.9V535.6H482M459.3,541.9V548.2H482M345.7,532.2V567H368.4M368.4,567V560.7H391.1M368.4,567V573.3H391.1M232.1,481.3V595.3H254.9M254.9,595.3V585.9H277.6M254.9,595.3V604.8H277.6M277.6,604.8V598.5H300.3M277.6,604.8V611.1H300.3M5,339.6V650.4H27.7M27.7,650.4V667.7H50.4M50.4,667.7V661.4H73.1M50.4,667.7V674H73.1" stroke="#fc8d59"></path><path d="M27.7,650.4V633.1H50.4M50.4,633.1V623.7H73.1M50.4,633.1V642.5H73.1M73.1,642.5V636.2H95.9M73.1,642.5V648.8H95.9" stroke="#91bfdb"></path><text x="29.7" y="31.7" class="node" fill="#4A6FE3">1</text><text x="52.4" y="53.4" class="node" fill="#4A6FE3">1</text><text x="75.1" y="28.9" class="node" fill="#4A6FE3">1</text><text x="75.1" y="78" class="node" fill="#4A6FE3">1</text><text x="97.9" y="54" class="node" fill="#E6B1BB">0.34</text><text x="97.9" y="101.9" class="node" fill="#5F7BE1">0.95</text><text x="120.6" y="79.2" class="node" fill="#E5A5B1">0.3</text><text x="120.6" y="124.6" class="node" fill="#5F7BE1">0.95</text><text x="143.3" y="151.2" class="node" fill="#5F7BE1">0.95</text><text x="166" y="191.7" class="node" fill="#5F7BE1">0.95</text><text x="188.7" y="260.1" class="node" fill="#5F7BE1">0.95</text><text x="211.4" y="159.8" class="node" fill="#5F7BE1">0.95</text><text x="234.1" y="183.8" class="node" fill="#5F7BE1">0.95</text><text x="256.9" y="159.4" class="node" fill="#E38C9E">0.22</text><text x="279.6" y="170.5" class="node" fill="#5F7BE1">0.95</text><text x="302.3" y="179.9" class="node" fill="#4A6FE3">1</text><text x="256.9" y="208.2" class="node" fill="#4A6FE3">1</text><text x="279.6" y="217.7" class="node" fill="#4A6FE3">1</text><text x="211.4" y="360.4" class="node" fill="#4A6FE3">1</text><text x="234.1" y="484.3" class="node" fill="#5374E2">0.98</text><text x="256.9" y="370.3" class="node" fill="#5F7BE1">0.95</text><text x="279.6" y="286.6" class="node" fill="#5F7BE1">0.95</text><text x="302.3" y="260.1" class="node" fill="#5F7BE1">0.95</text><text x="325" y="271.1" class="node" fill="#4A6FE3">1</text><text x="347.7" y="280.6" class="node" fill="#4A6FE3">1</text><text x="302.3" y="313.2" class="node" fill="#5F7BE1">0.95</text><text x="325" y="326.9" class="node" fill="#5F7BE1">0.95</text><text x="347.7" y="341.7" class="node" fill="#5F7BE1">0.95</text><text x="370.4" y="358.8" class="node" fill="#5F7BE1">0.95</text><text x="393.1" y="343.5" class="node" fill="#5F7BE1">0.95</text><text x="393.1" y="374.2" class="node" fill="#5F7BE1">0.95</text><text x="415.9" y="386" class="node" fill="#4A6FE3">1</text><text x="438.6" y="397" class="node" fill="#E6B7C0">0.36</text><text x="461.3" y="406.4" class="node" fill="#4A6FE3">1</text><text x="279.6" y="454" class="node" fill="#5B78E2">0.96</text><text x="302.3" y="431.6" class="node" fill="#5B78E2">0.96</text><text x="302.3" y="476.4" class="node" fill="#4A6FE3">1</text><text x="325" y="502.3" class="node" fill="#5B78E2">0.96</text><text x="347.7" y="469.3" class="node" fill="#4A6FE3">1</text><text x="347.7" y="535.2" class="node" fill="#5F7BE1">0.95</text><text x="370.4" y="500.4" class="node" fill="#B6BDE3">0.66</text><text x="393.1" y="512.6" class="node" fill="#4A6FE3">1</text><text x="415.9" y="524.4" class="node" fill="#4A6FE3">1</text><text x="438.6" y="535.4" class="node" fill="#4A6FE3">1</text><text x="461.3" y="544.9" class="node" fill="#5B78E2">0.96</text><text x="370.4" y="570" class="node" fill="#95A1E2">0.78</text><text x="256.9" y="598.3" class="node" fill="#5F7BE1">0.95</text><text x="279.6" y="607.8" class="node" fill="#5F7BE1">0.95</text><text x="29.7" y="653.4" class="node" fill="#4A6FE3">1</text><text x="52.4" y="636.1" class="node" fill="#4A6FE3">1</text><text x="75.1" y="645.5" class="node" fill="#4A6FE3">1</text><text x="52.4" y="670.7" class="node" fill="#4A6FE3">1</text></svg>
