<svg xmlns="http://www.w3.org/2000/svg" version="1.1" width="682" height="682" class="tree" data-char="91"><text x="678" y="15.6" text-anchor="end" class="stepsLabel">Character adds <tspan class="score">3</tspan> to tree score</text><text x="678" y="28.2" text-anchor="end" class="stepsLabel"><tspan class="score">1</tspan> additional region</text><text x="678" y="40.8" text-anchor="end" class="stepsLabel">CI = 0.33; Fitch CI = 0.33; Fitch RI = 0.5</text><text x="678" y="66" text-anchor="end" class="stepsLabel"><tspan dy="16" fill="#34caaf">An optimal tree under:</tspan><tspan x="680" style="font-style:italic" class="thisAn" dy="1.2em">Equal weights</tspan><tspan x="680" style="font-style:italic" class="notThisAn" dy="1.2em">Implied weights, k = 2</tspan><tspan x="680" style="font-style:italic" class="notThisAn" dy="1.2em">IW, k = 3</tspan><tspan x="680" style="font-style:italic" class="notThisAn" dy="1.2em">IW, k = 4.5</tspan><tspan x="680" style="font-style:italic" class="notThisAn" dy="1.2em">IW, k = 7</tspan><tspan x="680" style="font-style:italic" class="notThisAn" dy="1.2em">IW, k = 10.5</tspan><tspan x="680" style="font-style:italic" class="notThisAn" dy="1.2em">IW, k = 16</tspan><tspan x="680" style="font-style:italic" class="notThisAn" dy="1.2em">IW, k = 24</tspan></text><text x="91.7" y="664.2" fill="#e2e2a2" class="flag">[1]</text><text x="113.7" y="664.2" fill="#000" class="taxonLabel">Tonicella</text><text x="91.7" y="677" fill="lightgrey" class="flag">[-]</text><text x="113.7" y="677" fill="#ccc" class="taxonLabel">Dentalium</text><text x="70" y="651.3" fill="lightgrey" class="flag">[-]</text><text x="92" y="651.3" fill="#ccc" class="taxonLabel">Wiwaxia corrugata</text><text x="70" y="625.7" fill="lightgrey" class="flag">[-]</text><text x="92" y="625.7" fill="#ccc" class="taxonLabel">Sipunculus</text><text x="70" y="638.5" fill="lightgrey" class="flag">[-]</text><text x="92" y="638.5" fill="#ccc" class="taxonLabel">Serpula</text><text x="373.6" y="587.2" fill="lightgrey" class="flag">[-]</text><text x="395.6" y="587.2" fill="#ccc" class="taxonLabel">Pauxillites</text><text x="373.6" y="600" fill="lightgrey" class="flag">[-]</text><text x="395.6" y="600" fill="#ccc" class="taxonLabel">Maxilites</text><text x="351.9" y="574.4" fill="lightgrey" class="flag">[-]</text><text x="373.9" y="574.4" fill="#ccc" class="taxonLabel">Haplophrentis carinatus</text><text x="330.2" y="561.6" fill="lightgrey" class="flag">[-]</text><text x="352.2" y="561.6" fill="#ccc" class="taxonLabel">Paramicrocornus</text><text x="308.5" y="548.7" fill="lightgrey" class="flag">[-]</text><text x="330.5" y="548.7" fill="#ccc" class="taxonLabel">Conotheca</text><text x="286.9" y="535.9" fill="lightgrey" class="flag">[-]</text><text x="308.9" y="535.9" fill="#ccc" class="taxonLabel">Bactrotheca</text><text x="265.2" y="523.1" fill="lightgrey" class="flag">[-]</text><text x="287.2" y="523.1" fill="#ccc" class="taxonLabel">Pedunculotheca diania</text><text x="330.2" y="497.4" fill="lightgrey" class="flag">[-]</text><text x="352.2" y="497.4" fill="#ccc" class="taxonLabel">Pelagodiscus atlanticus</text><text x="330.2" y="510.2" fill="grey" class="flag">[?]</text><text x="352.2" y="510.2" fill="#999" class="taxonLabel">Mummpikia nuda</text><text x="438.6" y="471.8" fill="lightgrey" class="flag">[-]</text><text x="460.6" y="471.8" fill="#ccc" class="taxonLabel">Siphonobolus priscus</text><text x="438.6" y="484.6" fill="lightgrey" class="flag">[-]</text><text x="460.6" y="484.6" fill="#ccc" class="taxonLabel">Acanthotretella spinosa</text><text x="438.6" y="446.1" fill="lightgrey" class="flag">[-]</text><text x="460.6" y="446.1" fill="#ccc" class="taxonLabel">Lingulosacculus</text><text x="438.6" y="458.9" fill="lightgrey" class="flag">[-]</text><text x="460.6" y="458.9" fill="#ccc" class="taxonLabel">Clupeafumosus socialis</text><text x="395.3" y="433.3" fill="lightgrey" class="flag">[-]</text><text x="417.3" y="433.3" fill="#ccc" class="taxonLabel">Lingulellotreta malongensis</text><text x="373.6" y="420.5" fill="lightgrey" class="flag">[-]</text><text x="395.6" y="420.5" fill="#ccc" class="taxonLabel">Botsfordia</text><text x="351.9" y="407.6" fill="lightgrey" class="flag">[-]</text><text x="373.9" y="407.6" fill="#ccc" class="taxonLabel">Lingula</text><text x="330.2" y="394.8" fill="lightgrey" class="flag">[-]</text><text x="352.2" y="394.8" fill="#ccc" class="taxonLabel">Eoobolus</text><text x="395.3" y="369.2" fill="lightgrey" class="flag">[-]</text><text x="417.3" y="369.2" fill="#ccc" class="taxonLabel">Craniops</text><text x="395.3" y="382" fill="lightgrey" class="flag">[-]</text><text x="417.3" y="382" fill="#ccc" class="taxonLabel">Novocrania</text><text x="373.6" y="356.3" fill="lightgrey" class="flag">[-]</text><text x="395.6" y="356.3" fill="#ccc" class="taxonLabel">Ussunia</text><text x="351.9" y="343.5" fill="lightgrey" class="flag">[-]</text><text x="373.9" y="343.5" fill="#ccc" class="taxonLabel">Heliomedusa orienta</text><text x="330.2" y="330.7" fill="lightgrey" class="flag">[-]</text><text x="352.2" y="330.7" fill="#ccc" class="taxonLabel">Mickwitzia muralensis</text><text x="330.2" y="305" fill="lightgrey" class="flag">[-]</text><text x="352.2" y="305" fill="#ccc" class="taxonLabel">Micromitra</text><text x="330.2" y="317.8" fill="lightgrey" class="flag">[-]</text><text x="352.2" y="317.8" fill="#ccc" class="taxonLabel">Gasconsia</text><text x="482" y="279.4" fill="lightgrey" class="flag">[-]</text><text x="504" y="279.4" fill="#ccc" class="taxonLabel">Terebratulina</text><text x="482" y="292.2" fill="#e2e2a2" class="flag">[1]</text><text x="504" y="292.2" fill="#000" class="taxonLabel">Orthis</text><text x="460.3" y="266.5" fill="#e2e2a2" class="flag">[1]</text><text x="482.3" y="266.5" fill="#000" class="taxonLabel">Alisina</text><text x="438.6" y="253.7" fill="#e2e2a2" class="flag">[1]</text><text x="460.6" y="253.7" fill="#000" class="taxonLabel">Glyptoria</text><text x="438.6" y="228.1" fill="#e2e2a2" class="flag">[1]</text><text x="460.6" y="228.1" fill="#000" class="taxonLabel">Nisusia sulcata</text><text x="438.6" y="240.9" fill="#91bfdb" class="flag">[2]</text><text x="460.6" y="240.9" fill="#000" class="taxonLabel">Kutorgina chengjiangensis</text><text x="417" y="202.4" fill="#91bfdb" class="flag">[2]</text><text x="439" y="202.4" fill="#000" class="taxonLabel">Antigonambonites planus</text><text x="417" y="215.2" fill="#91bfdb" class="flag">[2]</text><text x="439" y="215.2" fill="#000" class="taxonLabel">Coolinia pecten</text><text x="373.6" y="189.6" fill="lightgrey" class="flag">[-]</text><text x="395.6" y="189.6" fill="#ccc" class="taxonLabel">Longtancunella chengjiangensis</text><text x="373.6" y="163.9" fill="#91bfdb" class="flag">[2]</text><text x="395.6" y="163.9" fill="#000" class="taxonLabel">Tomteluva perturbata</text><text x="373.6" y="176.8" fill="lightgrey" class="flag">[-]</text><text x="395.6" y="176.8" fill="#ccc" class="taxonLabel">Yuganotheca elegans</text><text x="330.2" y="151.1" fill="#91bfdb" class="flag">[2]</text><text x="352.2" y="151.1" fill="#000" class="taxonLabel">Salanygolina</text><text x="308.5" y="138.3" fill="lightgrey" class="flag">[-]</text><text x="330.5" y="138.3" fill="#ccc" class="taxonLabel">Askepasma toddense</text><text x="286.9" y="125.4" fill="lightgrey" class="flag">[-]</text><text x="308.9" y="125.4" fill="#ccc" class="taxonLabel">Micrina</text><text x="221.8" y="112.6" fill="lightgrey" class="flag">[-]</text><text x="243.8" y="112.6" fill="#ccc" class="taxonLabel">Paterimitra</text><text x="200.1" y="99.8" fill="lightgrey" class="flag">[-]</text><text x="222.1" y="99.8" fill="#ccc" class="taxonLabel">Halkieria evangelista</text><text x="178.5" y="87" fill="lightgrey" class="flag">[-]</text><text x="200.5" y="87" fill="#ccc" class="taxonLabel">Dailyatia</text><text x="156.8" y="74.1" fill="lightgrey" class="flag">[-]</text><text x="178.8" y="74.1" fill="#ccc" class="taxonLabel">Eccentrotheca</text><text x="135.1" y="61.3" fill="lightgrey" class="flag">[-]</text><text x="157.1" y="61.3" fill="#ccc" class="taxonLabel">Cotyledion tylodes</text><text x="113.4" y="48.5" fill="lightgrey" class="flag">[-]</text><text x="135.4" y="48.5" fill="#ccc" class="taxonLabel">Namacalathus</text><text x="91.7" y="35.7" fill="lightgrey" class="flag">[-]</text><text x="113.7" y="35.7" fill="#ccc" class="taxonLabel">Phoronis</text><text x="91.7" y="10" fill="lightgrey" class="flag">[-]</text><text x="113.7" y="10" fill="#ccc" class="taxonLabel">Flustra</text><text x="91.7" y="22.8" fill="lightgrey" class="flag">[-]</text><text x="113.7" y="22.8" fill="#ccc" class="taxonLabel">Amathia</text><text x="48.4" y="612.9" fill="lightgrey" class="flag">[-]</text><text x="70.4" y="612.9" fill="#ccc" class="taxonLabel">Loxosomella</text><path d="M5,481.9V320.2H26.7M26.7,320.2V30.5H48.4M48.4,30.5V13.4H70M70,13.4V7H91.7M70,13.4V19.8H91.7M48.4,30.5V47.5H70M70,47.5V32.7H91.7M70,47.5V62.4H91.7M91.7,62.4V45.5H113.4M91.7,62.4V79.3H113.4M113.4,79.3V58.3H135.1M113.4,79.3V100.4H135.1M135.1,100.4V71.1H156.8M135.1,100.4V129.6H156.8M156.8,129.6V84H178.5M156.8,129.6V175.2H178.5M178.5,175.2V96.8H200.1M178.5,175.2V253.7H200.1M200.1,253.7V109.6H221.8M200.1,253.7V397.7H221.8M221.8,397.7V262.7H243.5M243.5,262.7V136.9H265.2M265.2,136.9V122.4H286.9M265.2,136.9V151.4H286.9M286.9,151.4V135.3H308.5M351.9,167.3V173.8H373.6M351.9,206.4V186.6H373.6M460.3,282.8V276.4H482M243.5,262.7V388.5H265.2M265.2,388.5V324.1H286.9M286.9,324.1V308.4H308.5M308.5,308.4V302H330.2M308.5,308.4V314.8H330.2M286.9,324.1V339.7H308.5M308.5,339.7V327.7H330.2M308.5,339.7V351.7H330.2M330.2,351.7V340.5H351.9M330.2,351.7V362.9H351.9M351.9,362.9V353.3H373.6M351.9,362.9V372.6H373.6M373.6,372.6V366.2H395.3M373.6,372.6V379H395.3M265.2,388.5V452.9H286.9M286.9,452.9V405H308.5M308.5,405V391.8H330.2M308.5,405V418.3H330.2M330.2,418.3V404.6H351.9M330.2,418.3V431.9H351.9M351.9,431.9V417.5H373.6M351.9,431.9V446.3H373.6M373.6,446.3V430.3H395.3M373.6,446.3V462.4H395.3M395.3,462.4V449.5H417M417,449.5V443.1H438.6M417,449.5V455.9H438.6M395.3,462.4V475.2H417M417,475.2V468.8H438.6M417,475.2V481.6H438.6M286.9,452.9V500.8H308.5M308.5,500.8V494.4H330.2M308.5,500.8V507.2H330.2M221.8,397.7V532.7H243.5M243.5,532.7V520.1H265.2M243.5,532.7V545.3H265.2M265.2,545.3V532.9H286.9M265.2,545.3V557.8H286.9M286.9,557.8V545.7H308.5M286.9,557.8V569.8H308.5M308.5,569.8V558.6H330.2M308.5,569.8V581H330.2M330.2,581V571.4H351.9M330.2,581V590.6H351.9M351.9,590.6V584.2H373.6M351.9,590.6V597H373.6M26.7,320.2V609.9H48.4M5,481.9V643.5H26.7M26.7,643.5V629.1H48.4M48.4,629.1V622.7H70M48.4,629.1V635.5H70M26.7,643.5V658H48.4M48.4,658V648.3H70M48.4,658V667.6H70M70,667.6V674H91.7" stroke="lightgrey" class="inapplicable"></path><path d="M286.9,151.4V167.5H308.5M308.5,167.5V148.1H330.2M308.5,167.5V186.9H330.2M330.2,186.9V167.3H351.9M351.9,167.3V160.9H373.6M330.2,186.9V206.4H351.9M351.9,206.4V226.3H373.6M373.6,226.3V205.8H395.3M395.3,205.8V199.4H417M395.3,205.8V212.2H417M373.6,226.3V246.7H395.3M417,231.5V237.9H438.6" stroke="#91bfdb"></path><path d="M395.3,246.7V231.5H417" stroke="darkgrey"></path><path d="M417,231.5V225.1H438.6M395.3,246.7V261.9H417M417,261.9V250.7H438.6M417,261.9V273.2H438.6M438.6,273.2V263.5H460.3M438.6,273.2V282.8H460.3M460.3,282.8V289.2H482M70,667.6V661.2H91.7" stroke="#e2e2a2"></path><text x="7" y="484.9" class="node" fill="#4A6FE3">1</text><text x="28.7" y="323.2" class="node" fill="#4A6FE3">1</text><text x="50.4" y="33.5" class="node" fill="#4A6FE3">1</text><text x="72" y="16.4" class="node" fill="#4A6FE3">1</text><text x="72" y="50.5" class="node" fill="#4A6FE3">1</text><text x="93.7" y="65.4" class="node" fill="#E59FAC">0.29</text><text x="115.4" y="82.3" class="node" fill="#8998E1">0.82</text><text x="137.1" y="103.4" class="node" fill="#E5A5B1">0.3</text><text x="158.8" y="132.6" class="node" fill="#8998E1">0.82</text><text x="180.5" y="178.2" class="node" fill="#8998E1">0.82</text><text x="202.1" y="256.7" class="node" fill="#4F72E2">0.99</text><text x="223.8" y="400.7" class="node" fill="#4F72E2">0.99</text><text x="245.5" y="265.7" class="node" fill="#8998E1">0.82</text><text x="267.2" y="139.9" class="node" fill="#DD6C86">0.12</text><text x="288.9" y="154.4" class="node" fill="#E6C4C9">0.4</text><text x="310.5" y="170.5" class="node" fill="#9AA6E2">0.76</text><text x="332.2" y="189.9" class="node" fill="#E6B1BB">0.34</text><text x="353.9" y="170.3" class="node" fill="#B9BFE3">0.65</text><text x="353.9" y="209.4" class="node" fill="#E498A7">0.26</text><text x="375.6" y="229.3" class="node" fill="#E5C7CC">0.41</text><text x="397.3" y="208.8" class="node" fill="#4A6FE3">1</text><text x="397.3" y="249.7" class="node" fill="#E6BDC5">0.38</text><text x="419" y="234.5" class="node" fill="#E2E2E2">0.5</text><text x="419" y="264.9" class="node" fill="#E4D3D6">0.45</text><text x="440.6" y="276.2" class="node" fill="#5B78E2">0.96</text><text x="462.3" y="285.8" class="node" fill="#BFC4E3">0.63</text><text x="267.2" y="391.5" class="node" fill="#E5C7CC">0.41</text><text x="288.9" y="327.1" class="node" fill="#E5C7CC">0.41</text><text x="310.5" y="311.4" class="node" fill="#E6C4C9">0.4</text><text x="310.5" y="342.7" class="node" fill="#E5C7CC">0.41</text><text x="332.2" y="354.7" class="node" fill="#8696E1">0.83</text><text x="353.9" y="365.9" class="node" fill="#4A6FE3">1</text><text x="375.6" y="375.6" class="node" fill="#4A6FE3">1</text><text x="288.9" y="455.9" class="node" fill="#9DA8E2">0.75</text><text x="310.5" y="408" class="node" fill="#D4486F">0.02</text><text x="332.2" y="421.3" class="node" fill="#D4486F">0.02</text><text x="353.9" y="434.9" class="node" fill="#D4486F">0.02</text><text x="375.6" y="449.3" class="node" fill="#E6BAC2">0.37</text><text x="397.3" y="465.4" class="node" fill="#97A4E2">0.77</text><text x="419" y="452.5" class="node" fill="#E5A5B1">0.3</text><text x="419" y="478.2" class="node" fill="#4F72E2">0.99</text><text x="310.5" y="503.8" class="node" fill="#E3DFE0">0.49</text><text x="245.5" y="535.7" class="node" fill="#4F72E2">0.99</text><text x="267.2" y="548.3" class="node" fill="#8696E1">0.83</text><text x="288.9" y="560.8" class="node" fill="#E495A5">0.25</text><text x="310.5" y="572.8" class="node" fill="#4A6FE3">1</text><text x="332.2" y="584" class="node" fill="#4A6FE3">1</text><text x="353.9" y="593.6" class="node" fill="#4A6FE3">1</text><text x="28.7" y="646.5" class="node" fill="#4A6FE3">1</text><text x="50.4" y="632.1" class="node" fill="#4A6FE3">1</text><text x="50.4" y="661" class="node" fill="#4A6FE3">1</text><text x="72" y="670.6" class="node" fill="#4A6FE3">1</text></svg>
