<svg xmlns="http://www.w3.org/2000/svg" version="1.1" width="682" height="612" class="tree" data-char="3"><text x="678" y="14.3" text-anchor="end" class="stepsLabel">Character adds <tspan class="score">4</tspan> to tree score</text><text x="678" y="25.6" text-anchor="end" class="stepsLabel"><tspan class="score">0</tspan> additional regions</text><text x="678" y="36.9" text-anchor="end" class="stepsLabel">CI = 0.25; Fitch CI = 0.25; Fitch RI = 0</text><text x="678" y="59.5" text-anchor="end" class="stepsLabel"><tspan dy="16" fill="#34caaf">An optimal tree under:</tspan><tspan x="680" style="font-style:italic" class="thisAn" dy="1.2em">Equal weights</tspan><tspan x="680" style="font-style:italic" class="notThisAn" dy="1.2em">Implied weights, k = 2</tspan><tspan x="680" style="font-style:italic" class="notThisAn" dy="1.2em">IW, k = 3</tspan><tspan x="680" style="font-style:italic" class="notThisAn" dy="1.2em">IW, k = 4.5</tspan><tspan x="680" style="font-style:italic" class="notThisAn" dy="1.2em">IW, k = 7</tspan><tspan x="680" style="font-style:italic" class="notThisAn" dy="1.2em">IW, k = 10.5</tspan><tspan x="680" style="font-style:italic" class="notThisAn" dy="1.2em">IW, k = 16</tspan><tspan x="680" style="font-style:italic" class="notThisAn" dy="1.2em">IW, k = 24</tspan></text><text x="100.4" y="595.5" fill="lightgrey" class="flag">[-]</text><text x="122.4" y="595.5" fill="#ccc" class="taxonLabel">Dentalium</text><text x="100.4" y="607" fill="grey" class="flag">[?]</text><text x="122.4" y="607" fill="#999" class="taxonLabel">Wiwaxia corrugata</text><text x="76.6" y="584" fill="lightgrey" class="flag">[-]</text><text x="98.6" y="584" fill="#ccc" class="taxonLabel">Tonicella</text><text x="76.6" y="561.1" fill="lightgrey" class="flag">[-]</text><text x="98.6" y="561.1" fill="#ccc" class="taxonLabel">Serpula</text><text x="76.6" y="572.6" fill="lightgrey" class="flag">[-]</text><text x="98.6" y="572.6" fill="#ccc" class="taxonLabel">Sipunculus</text><text x="482" y="526.6" fill="grey" class="flag">[?]</text><text x="504" y="526.6" fill="#999" class="taxonLabel">Acanthotretella spinosa</text><text x="482" y="538.1" fill="#91bfdb" class="flag">[2]</text><text x="504" y="538.1" fill="#000" class="taxonLabel">Siphonobolus priscus</text><text x="458.2" y="515.2" fill="#91bfdb" class="flag">[2]</text><text x="480.2" y="515.2" fill="#000" class="taxonLabel">Clupeafumosus socialis</text><text x="458.2" y="492.2" fill="#e2e2a2" class="flag">[1]</text><text x="480.2" y="492.2" fill="#000" class="taxonLabel">Lingulellotreta malongensis</text><text x="458.2" y="503.7" fill="grey" class="flag">[?]</text><text x="480.2" y="503.7" fill="#999" class="taxonLabel">Lingulosacculus</text><text x="410.5" y="480.7" fill="#91bfdb" class="flag">[2]</text><text x="432.5" y="480.7" fill="#000" class="taxonLabel">Botsfordia</text><text x="386.6" y="469.2" fill="grey" class="flag">[?]</text><text x="408.6" y="469.2" fill="#999" class="taxonLabel">Mummpikia nuda</text><text x="362.8" y="457.7" fill="#91bfdb" class="flag">[2]</text><text x="384.8" y="457.7" fill="#000" class="taxonLabel">Eoobolus</text><text x="338.9" y="446.3" fill="#e2e2a2" class="flag">[1]</text><text x="360.9" y="446.3" fill="#000" class="taxonLabel">Lingula</text><text x="338.9" y="423.3" fill="#91bfdb" class="flag">[2]</text><text x="360.9" y="423.3" fill="#000" class="taxonLabel">Pelagodiscus atlanticus</text><text x="338.9" y="434.8" fill="#91bfdb" class="flag">[2]</text><text x="360.9" y="434.8" fill="#000" class="taxonLabel">Mickwitzia muralensis</text><text x="386.6" y="400.3" fill="lightgrey" class="flag">[-]</text><text x="408.6" y="400.3" fill="#ccc" class="taxonLabel">Tomteluva perturbata</text><text x="386.6" y="411.8" fill="grey" class="flag">[?]</text><text x="408.6" y="411.8" fill="#999" class="taxonLabel">Yuganotheca elegans</text><text x="362.8" y="388.9" fill="#91bfdb" class="flag">[2]</text><text x="384.8" y="388.9" fill="#000" class="taxonLabel">Salanygolina</text><text x="410.5" y="365.9" fill="#91bfdb" class="flag">[2]</text><text x="432.5" y="365.9" fill="#000" class="taxonLabel">Antigonambonites planus</text><text x="410.5" y="377.4" fill="#91bfdb" class="flag">[2]</text><text x="432.5" y="377.4" fill="#000" class="taxonLabel">Coolinia pecten</text><text x="482" y="342.9" fill="lightgrey" class="flag">[-]</text><text x="504" y="342.9" fill="#ccc" class="taxonLabel">Orthis</text><text x="482" y="354.4" fill="lightgrey" class="flag">[-]</text><text x="504" y="354.4" fill="#ccc" class="taxonLabel">Terebratulina</text><text x="458.2" y="331.5" fill="lightgrey" class="flag">[-]</text><text x="480.2" y="331.5" fill="#ccc" class="taxonLabel">Alisina</text><text x="434.3" y="320" fill="lightgrey" class="flag">[-]</text><text x="456.3" y="320" fill="#ccc" class="taxonLabel">Glyptoria</text><text x="434.3" y="297" fill="lightgrey" class="flag">[-]</text><text x="456.3" y="297" fill="#ccc" class="taxonLabel">Kutorgina chengjiangensis</text><text x="434.3" y="308.5" fill="lightgrey" class="flag">[-]</text><text x="456.3" y="308.5" fill="#ccc" class="taxonLabel">Nisusia sulcata</text><text x="362.8" y="285.5" fill="grey" class="flag">[?]</text><text x="384.8" y="285.5" fill="#999" class="taxonLabel">Longtancunella chengjiangensis</text><text x="338.9" y="262.6" fill="#91bfdb" class="flag">[2]</text><text x="360.9" y="262.6" fill="#000" class="taxonLabel">Askepasma toddense</text><text x="338.9" y="274.1" fill="#91bfdb" class="flag">[2]</text><text x="360.9" y="274.1" fill="#000" class="taxonLabel">Micromitra</text><text x="410.5" y="239.6" fill="#e2e2a2" class="flag">[1]</text><text x="432.5" y="239.6" fill="#000" class="taxonLabel">Pauxillites</text><text x="410.5" y="251.1" fill="grey" class="flag">[?]</text><text x="432.5" y="251.1" fill="#999" class="taxonLabel">Maxilites</text><text x="386.6" y="228.1" fill="#91bfdb" class="flag">[2]</text><text x="408.6" y="228.1" fill="#000" class="taxonLabel">Haplophrentis carinatus</text><text x="410.5" y="205.2" fill="#e2e2a2" class="flag">[1]</text><text x="432.5" y="205.2" fill="#000" class="taxonLabel">Conotheca</text><text x="410.5" y="216.7" fill="grey" class="flag">[?]</text><text x="432.5" y="216.7" fill="#999" class="taxonLabel">Probactrotheca</text><text x="386.6" y="193.7" fill="grey" class="flag">[?]</text><text x="408.6" y="193.7" fill="#999" class="taxonLabel">Decoritheca</text><text x="338.9" y="182.2" fill="grey" class="flag">[12]</text><text x="360.9" y="182.2" fill="#999" class="taxonLabel">Pedunculotheca diania</text><text x="315.1" y="170.7" fill="#91bfdb" class="flag">[2]</text><text x="337.1" y="170.7" fill="#000" class="taxonLabel">Paterimitra</text><text x="291.2" y="159.2" fill="#91bfdb" class="flag">[2]</text><text x="313.2" y="159.2" fill="#000" class="taxonLabel">Micrina</text><text x="243.5" y="147.8" fill="grey" class="flag">[?]</text><text x="265.5" y="147.8" fill="#999" class="taxonLabel">Heliomedusa orienta</text><text x="219.7" y="136.3" fill="grey" class="flag">[?]</text><text x="241.7" y="136.3" fill="#999" class="taxonLabel">Gasconsia</text><text x="243.5" y="113.3" fill="#91bfdb" class="flag">[2]</text><text x="265.5" y="113.3" fill="#000" class="taxonLabel">Craniops</text><text x="243.5" y="124.8" fill="lightgrey" class="flag">[-]</text><text x="265.5" y="124.8" fill="#ccc" class="taxonLabel">Novocrania</text><text x="219.7" y="101.8" fill="grey" class="flag">[?]</text><text x="241.7" y="101.8" fill="#999" class="taxonLabel">Ussunia</text><text x="172" y="90.4" fill="grey" class="flag">[?]</text><text x="194" y="90.4" fill="#999" class="taxonLabel">Halkieria evangelista</text><text x="172" y="67.4" fill="grey" class="flag">[?]</text><text x="194" y="67.4" fill="#999" class="taxonLabel">Cotyledion tylodes</text><text x="172" y="78.9" fill="grey" class="flag">[?]</text><text x="194" y="78.9" fill="#999" class="taxonLabel">Namacalathus</text><text x="148.1" y="44.4" fill="grey" class="flag">[?]</text><text x="170.1" y="44.4" fill="#999" class="taxonLabel">Eccentrotheca</text><text x="148.1" y="55.9" fill="lightgrey" class="flag">[-]</text><text x="170.1" y="55.9" fill="#ccc" class="taxonLabel">Dailyatia</text><text x="100.4" y="33" fill="lightgrey" class="flag">[-]</text><text x="122.4" y="33" fill="#ccc" class="taxonLabel">Phoronis</text><text x="100.4" y="10" fill="lightgrey" class="flag">[-]</text><text x="122.4" y="10" fill="#ccc" class="taxonLabel">Flustra</text><text x="100.4" y="21.5" fill="lightgrey" class="flag">[-]</text><text x="122.4" y="21.5" fill="#ccc" class="taxonLabel">Amathia</text><text x="52.7" y="549.6" fill="lightgrey" class="flag">[-]</text><text x="74.7" y="549.6" fill="#ccc" class="taxonLabel">Loxosomella</text><path d="M5,432.8V288.9H28.9M28.9,288.9V31.2H52.7M52.7,31.2V12.7H76.6M76.6,12.7V7H100.4M76.6,12.7V18.5H100.4M52.7,31.2V49.7H76.6M76.6,49.7V30H100.4M76.6,49.7V69.4H100.4M100.4,69.4V47.2H124.2M124.2,47.2V41.4H148.1M124.2,47.2V52.9H148.1M219.7,116.1V121.8H243.5M362.8,341V313.4H386.6M386.6,313.4V299.8H410.5M410.5,299.8V294H434.3M410.5,299.8V305.5H434.3M386.6,313.4V327H410.5M410.5,327V317H434.3M410.5,327V337.1H434.3M434.3,337.1V328.5H458.2M434.3,337.1V345.7H458.2M458.2,345.7V339.9H482M458.2,345.7V351.4H482M338.9,394.5V403.1H362.8M362.8,403.1V397.3H386.6M362.8,403.1V408.8H386.6M28.9,288.9V546.6H52.7M5,432.8V576.7H28.9M28.9,576.7V563.8H52.7M52.7,563.8V558.1H76.6M52.7,563.8V569.6H76.6M28.9,576.7V589.6H52.7M52.7,589.6V581H76.6M52.7,589.6V598.3H76.6M76.6,598.3V592.5H100.4M76.6,598.3V604H100.4" stroke="lightgrey" class="inapplicable"></path><path d="M100.4,69.4V91.7H124.2M124.2,91.7V70.1H148.1M148.1,70.1V64.4H172M148.1,70.1V75.9H172M124.2,91.7V113.3H148.1M148.1,113.3V87.4H172M148.1,113.3V139.2H172M172,139.2V107.5H195.8M195.8,107.5V98.8H219.7M195.8,107.5V116.1H219.7M219.7,116.1V110.3H243.5M172,139.2V170.9H195.8M195.8,170.9V133.3H219.7M195.8,170.9V208.5H219.7M219.7,208.5V144.8H243.5M219.7,208.5V272.2H243.5M243.5,272.2V169.5H267.4M267.4,169.5V156.2H291.2M267.4,169.5V182.8H291.2M291.2,182.8V167.7H315.1M291.2,182.8V197.9H315.1M362.8,233.7V225.1H386.6M243.5,272.2V374.9H267.4M267.4,374.9V309.2H291.2M291.2,309.2V265.3H315.1M315.1,265.3V259.6H338.9M315.1,265.3V271.1H338.9M291.2,309.2V353.1H315.1M315.1,353.1V311.8H338.9M338.9,311.8V282.5H362.8M338.9,311.8V341H362.8M362.8,341V368.6H386.6M386.6,368.6V362.9H410.5M386.6,368.6V374.4H410.5M315.1,353.1V394.5H338.9M338.9,394.5V385.9H362.8M267.4,374.9V440.6H291.2M291.2,440.6V426H315.1M315.1,426V420.3H338.9M315.1,426V431.8H338.9M291.2,440.6V455.2H315.1M315.1,455.2V467.1H338.9M338.9,467.1V454.7H362.8M338.9,467.1V479.5H362.8M362.8,479.5V466.2H386.6M362.8,479.5V492.8H386.6M386.6,492.8V477.7H410.5M386.6,492.8V507.8H410.5M410.5,507.8V494.9H434.3M410.5,507.8V520.8H434.3M434.3,520.8V512.2H458.2M434.3,520.8V529.4H458.2M458.2,529.4V523.6H482M458.2,529.4V535.1H482" stroke="#91bfdb"></path><path d="M315.1,197.9V179.2H338.9M315.1,197.9V216.5H338.9M338.9,216.5V199.3H362.8M362.8,199.3V190.7H386.6M362.8,199.3V207.9H386.6M386.6,207.9V213.7H410.5M338.9,216.5V233.7H362.8M362.8,233.7V242.4H386.6M386.6,242.4V248.1H410.5M434.3,494.9V500.7H458.2" stroke="darkgrey"></path><path d="M386.6,207.9V202.2H410.5M386.6,242.4V236.6H410.5M315.1,455.2V443.3H338.9M434.3,494.9V489.2H458.2" stroke="#e2e2a2"></path><text x="7" y="435.8" class="node" fill="#4A6FE3">1</text><text x="30.9" y="291.9" class="node" fill="#4A6FE3">1</text><text x="54.7" y="34.2" class="node" fill="#4A6FE3">1</text><text x="78.6" y="15.7" class="node" fill="#4A6FE3">1</text><text x="78.6" y="52.7" class="node" fill="#4A6FE3">1</text><text x="102.4" y="72.4" class="node" fill="#4A6FE3">1</text><text x="126.2" y="50.2" class="node" fill="#E59FAC">0.29</text><text x="126.2" y="94.7" class="node" fill="#7388E1">0.89</text><text x="150.1" y="73.1" class="node" fill="#7388E1">0.89</text><text x="150.1" y="116.3" class="node" fill="#4A6FE3">1</text><text x="174" y="142.2" class="node" fill="#4A6FE3">1</text><text x="197.8" y="110.5" class="node" fill="#4A6FE3">1</text><text x="221.7" y="119.1" class="node" fill="#4A6FE3">1</text><text x="197.8" y="173.9" class="node" fill="#4A6FE3">1</text><text x="221.7" y="211.5" class="node" fill="#4A6FE3">1</text><text x="245.5" y="275.2" class="node" fill="#4A6FE3">1</text><text x="269.4" y="172.5" class="node" fill="#4A6FE3">1</text><text x="293.2" y="185.8" class="node" fill="#4A6FE3">1</text><text x="317.1" y="200.9" class="node" fill="#4A6FE3">1</text><text x="340.9" y="219.5" class="node" fill="#4A6FE3">1</text><text x="364.8" y="202.3" class="node" fill="#DE728B">0.14</text><text x="388.6" y="210.9" class="node" fill="#4A6FE3">1</text><text x="364.8" y="236.7" class="node" fill="#E3DFE0">0.49</text><text x="388.6" y="245.4" class="node" fill="#4A6FE3">1</text><text x="269.4" y="377.9" class="node" fill="#4A6FE3">1</text><text x="293.2" y="312.2" class="node" fill="#6982E1">0.92</text><text x="317.1" y="268.3" class="node" fill="#4A6FE3">1</text><text x="317.1" y="356.1" class="node" fill="#4A6FE3">1</text><text x="340.9" y="314.8" class="node" fill="#B1B8E2">0.68</text><text x="364.8" y="344" class="node" fill="#8F9DE1">0.8</text><text x="388.6" y="316.4" class="node" fill="#8394E1">0.84</text><text x="412.5" y="302.8" class="node" fill="#E5A8B3">0.31</text><text x="412.5" y="330" class="node" fill="#6D84E1">0.91</text><text x="436.3" y="340.1" class="node" fill="#667FE1">0.93</text><text x="460.2" y="348.7" class="node" fill="#C4C9E3">0.61</text><text x="388.6" y="371.6" class="node" fill="#4A6FE3">1</text><text x="340.9" y="397.5" class="node" fill="#E5D0D3">0.44</text><text x="364.8" y="406.1" class="node" fill="#5374E2">0.98</text><text x="293.2" y="443.6" class="node" fill="#4A6FE3">1</text><text x="317.1" y="429" class="node" fill="#4A6FE3">1</text><text x="317.1" y="458.2" class="node" fill="#4A6FE3">1</text><text x="340.9" y="470.1" class="node" fill="#4A6FE3">1</text><text x="364.8" y="482.5" class="node" fill="#8091E1">0.85</text><text x="388.6" y="495.8" class="node" fill="#8091E1">0.85</text><text x="412.5" y="510.8" class="node" fill="#8091E1">0.85</text><text x="436.3" y="497.9" class="node" fill="#E38FA0">0.23</text><text x="436.3" y="523.8" class="node" fill="#D2D4E3">0.57</text><text x="460.2" y="532.4" class="node" fill="#4A6FE3">1</text><text x="30.9" y="579.7" class="node" fill="#4A6FE3">1</text><text x="54.7" y="566.8" class="node" fill="#4A6FE3">1</text><text x="54.7" y="592.6" class="node" fill="#4A6FE3">1</text><text x="78.6" y="601.3" class="node" fill="#4A6FE3">1</text></svg>
