<svg xmlns="http://www.w3.org/2000/svg" version="1.1" width="682" height="612" class="tree" data-char="174"><text x="678" y="16" text-anchor="end" class="stepsLabel">Character adds <tspan class="score">1</tspan> to tree score</text><text x="678" y="29" text-anchor="end" class="stepsLabel"><tspan class="score">0</tspan> additional regions</text><text x="678" y="42" text-anchor="end" class="stepsLabel">CI = 1; Fitch CI = 1; Fitch RI = n/a</text><text x="678" y="68" text-anchor="end" class="stepsLabel"><tspan dy="16">An optimal tree under:</tspan><tspan x="680" style="font-style:italic" class="notThisAn" dy="1.2em">Equal weights</tspan><tspan x="680" style="font-style:italic" class="thisAn" dy="1.2em">Implied weights, k = 2</tspan><tspan x="680" style="font-style:italic" class="notThisAn" dy="1.2em">IW, k = 3</tspan><tspan x="680" style="font-style:italic" class="notThisAn" dy="1.2em">IW, k = 4.5</tspan><tspan x="680" style="font-style:italic" class="notThisAn" dy="1.2em">IW, k = 7</tspan><tspan x="680" style="font-style:italic" class="notThisAn" dy="1.2em">IW, k = 10.5</tspan><tspan x="680" style="font-style:italic" class="notThisAn" dy="1.2em">IW, k = 16</tspan><tspan x="680" style="font-style:italic" class="notThisAn" dy="1.2em">IW, k = 24</tspan></text><text x="154.1" y="593.7" fill="grey" class="flag">[?]</text><text x="176.1" y="593.7" fill="grey" class="taxonLabel">Dailyatia</text><text x="154.1" y="607" fill="grey" class="flag">[?]</text><text x="176.1" y="607" fill="grey" class="taxonLabel">Halkieria evangelista</text><text x="124.2" y="580.5" fill="#91bfdb" class="flag">[1]</text><text x="146.2" y="580.5" fill="#111" class="taxonLabel">Tonicella</text><text x="124.2" y="553.9" fill="#91bfdb" class="flag">[1]</text><text x="146.2" y="553.9" fill="#111" class="taxonLabel">Dentalium</text><text x="124.2" y="567.2" fill="grey" class="flag">[?]</text><text x="146.2" y="567.2" fill="grey" class="taxonLabel">Wiwaxia corrugata</text><text x="94.4" y="527.4" fill="#91bfdb" class="flag">[1]</text><text x="116.4" y="527.4" fill="#111" class="taxonLabel">Serpula</text><text x="94.4" y="540.7" fill="#91bfdb" class="flag">[1]</text><text x="116.4" y="540.7" fill="#111" class="taxonLabel">Sipunculus</text><text x="183.9" y="500.9" fill="grey" class="flag">[?]</text><text x="205.9" y="500.9" fill="grey" class="taxonLabel">Mickwitzia muralensis</text><text x="183.9" y="514.1" fill="grey" class="flag">[?]</text><text x="205.9" y="514.1" fill="grey" class="taxonLabel">Heliomedusa orienta</text><text x="303.1" y="474.3" fill="grey" class="flag">[?]</text><text x="325.1" y="474.3" fill="grey" class="taxonLabel">Yuganotheca elegans</text><text x="303.1" y="487.6" fill="grey" class="flag">[?]</text><text x="325.1" y="487.6" fill="grey" class="taxonLabel">Tomteluva perturbata</text><text x="273.3" y="461.1" fill="grey" class="flag">[?]</text><text x="295.3" y="461.1" fill="grey" class="taxonLabel">Salanygolina</text><text x="332.9" y="434.5" fill="grey" class="flag">[?]</text><text x="354.9" y="434.5" fill="grey" class="taxonLabel">Micromitra</text><text x="332.9" y="447.8" fill="grey" class="flag">[?]</text><text x="354.9" y="447.8" fill="grey" class="taxonLabel">Askepasma toddense</text><text x="392.6" y="408" fill="grey" class="flag">[?]</text><text x="414.6" y="408" fill="grey" class="taxonLabel">Craniops</text><text x="392.6" y="421.3" fill="#91bfdb" class="flag">[1]</text><text x="414.6" y="421.3" fill="#111" class="taxonLabel">Novocrania</text><text x="362.8" y="394.7" fill="grey" class="flag">[?]</text><text x="384.8" y="394.7" fill="grey" class="taxonLabel">Ussunia</text><text x="332.9" y="381.5" fill="grey" class="flag">[?]</text><text x="354.9" y="381.5" fill="grey" class="taxonLabel">Gasconsia</text><text x="332.9" y="354.9" fill="grey" class="flag">[?]</text><text x="354.9" y="354.9" fill="grey" class="taxonLabel">Antigonambonites planus</text><text x="332.9" y="368.2" fill="grey" class="flag">[?]</text><text x="354.9" y="368.2" fill="grey" class="taxonLabel">Coolinia pecten</text><text x="482" y="328.4" fill="#91bfdb" class="flag">[1]</text><text x="504" y="328.4" fill="#111" class="taxonLabel">Terebratulina</text><text x="482" y="341.7" fill="grey" class="flag">[?]</text><text x="504" y="341.7" fill="grey" class="taxonLabel">Orthis</text><text x="452.2" y="315.1" fill="grey" class="flag">[?]</text><text x="474.2" y="315.1" fill="grey" class="taxonLabel">Alisina</text><text x="422.4" y="301.9" fill="grey" class="flag">[?]</text><text x="444.4" y="301.9" fill="grey" class="taxonLabel">Longtancunella chengjiangensis</text><text x="392.6" y="288.6" fill="grey" class="flag">[?]</text><text x="414.6" y="288.6" fill="grey" class="taxonLabel">Glyptoria</text><text x="362.8" y="275.3" fill="grey" class="flag">[?]</text><text x="384.8" y="275.3" fill="grey" class="taxonLabel">Nisusia sulcata</text><text x="332.9" y="262.1" fill="grey" class="flag">[?]</text><text x="354.9" y="262.1" fill="grey" class="taxonLabel">Kutorgina chengjiangensis</text><text x="303.1" y="235.5" fill="grey" class="flag">[?]</text><text x="325.1" y="235.5" fill="grey" class="taxonLabel">Siphonobolus priscus</text><text x="303.1" y="248.8" fill="grey" class="flag">[?]</text><text x="325.1" y="248.8" fill="grey" class="taxonLabel">Acanthotretella spinosa</text><text x="422.4" y="209" fill="grey" class="flag">[?]</text><text x="444.4" y="209" fill="grey" class="taxonLabel">Mummpikia nuda</text><text x="422.4" y="222.3" fill="grey" class="flag">[?]</text><text x="444.4" y="222.3" fill="grey" class="taxonLabel">Eoobolus</text><text x="392.6" y="195.7" fill="grey" class="flag">[?]</text><text x="414.6" y="195.7" fill="grey" class="taxonLabel">Botsfordia</text><text x="362.8" y="182.5" fill="grey" class="flag">[?]</text><text x="384.8" y="182.5" fill="grey" class="taxonLabel">Lingulellotreta malongensis</text><text x="362.8" y="155.9" fill="#91bfdb" class="flag">[1]</text><text x="384.8" y="155.9" fill="#111" class="taxonLabel">Pelagodiscus atlanticus</text><text x="362.8" y="169.2" fill="#91bfdb" class="flag">[1]</text><text x="384.8" y="169.2" fill="#111" class="taxonLabel">Lingula</text><text x="303.1" y="142.7" fill="grey" class="flag">[?]</text><text x="325.1" y="142.7" fill="grey" class="taxonLabel">Lingulosacculus</text><text x="243.5" y="129.4" fill="grey" class="flag">[?]</text><text x="265.5" y="129.4" fill="grey" class="taxonLabel">Clupeafumosus socialis</text><text x="213.7" y="102.9" fill="grey" class="flag">[?]</text><text x="235.7" y="102.9" fill="grey" class="taxonLabel">Haplophrentis carinatus</text><text x="213.7" y="116.1" fill="grey" class="flag">[?]</text><text x="235.7" y="116.1" fill="grey" class="taxonLabel">Pedunculotheca diania</text><text x="124.2" y="89.6" fill="grey" class="flag">[?]</text><text x="146.2" y="89.6" fill="grey" class="taxonLabel">Micrina</text><text x="94.4" y="76.3" fill="grey" class="flag">[?]</text><text x="116.4" y="76.3" fill="grey" class="taxonLabel">Paterimitra</text><text x="124.2" y="49.8" fill="grey" class="flag">[?]</text><text x="146.2" y="49.8" fill="grey" class="taxonLabel">Cotyledion tylodes</text><text x="124.2" y="63.1" fill="grey" class="flag">[?]</text><text x="146.2" y="63.1" fill="grey" class="taxonLabel">Eccentrotheca</text><text x="154.1" y="10" fill="#91bfdb" class="flag">[1]</text><text x="176.1" y="10" fill="#111" class="taxonLabel">Flustra</text><text x="154.1" y="23.3" fill="#fc8d59" class="flag">[0]</text><text x="176.1" y="23.3" fill="#111" class="taxonLabel">Loxosomella</text><text x="124.2" y="36.5" fill="#91bfdb" class="flag">[1]</text><text x="146.2" y="36.5" fill="#111" class="taxonLabel">Phoronis</text><path d="M5,322V92.3H34.8M34.8,92.3V38.5H64.6M64.6,38.5V23.6H94.4M94.4,23.6V13.6H124.2M124.2,13.6V7H154.1M94.4,23.6V33.5H124.2M64.6,38.5V53.4H94.4M94.4,53.4V46.8H124.2M94.4,53.4V60.1H124.2M34.8,92.3V146.1H64.6M64.6,146.1V73.3H94.4M64.6,146.1V218.9H94.4M94.4,218.9V86.6H124.2M94.4,218.9V351.2H124.2M124.2,351.2V197.9H154.1M154.1,197.9V106.5H183.9M183.9,106.5V99.9H213.7M183.9,106.5V113.1H213.7M154.1,197.9V289.4H183.9M183.9,289.4V162.4H213.7M213.7,162.4V126.4H243.5M213.7,162.4V198.3H243.5M243.5,198.3V157.5H273.3M273.3,157.5V139.7H303.1M273.3,157.5V175.3H303.1M303.1,175.3V159.6H332.9M332.9,159.6V152.9H362.8M332.9,159.6V166.2H362.8M303.1,175.3V191.1H332.9M332.9,191.1V179.5H362.8M332.9,191.1V202.7H362.8M362.8,202.7V192.7H392.6M362.8,202.7V212.6H392.6M392.6,212.6V206H422.4M392.6,212.6V219.3H422.4M243.5,198.3V239.2H273.3M273.3,239.2V232.5H303.1M273.3,239.2V245.8H303.1M183.9,289.4V416.4H213.7M213.7,416.4V364.7H243.5M243.5,364.7V315.3H273.3M273.3,315.3V272.1H303.1M303.1,272.1V259.1H332.9M303.1,272.1V285.2H332.9M332.9,285.2V272.3H362.8M332.9,285.2V298H362.8M362.8,298V285.6H392.6M362.8,298V310.5H392.6M392.6,310.5V298.9H422.4M392.6,310.5V322.1H422.4M422.4,322.1V312.1H452.2M422.4,322.1V332H452.2M452.2,332V325.4H482M452.2,332V338.7H482M273.3,315.3V358.6H303.1M303.1,358.6V351.9H332.9M303.1,358.6V365.2H332.9M243.5,364.7V414.1H273.3M273.3,414.1V390.1H303.1M303.1,390.1V378.5H332.9M303.1,390.1V401.7H332.9M332.9,401.7V391.7H362.8M332.9,401.7V411.6H362.8M362.8,411.6V405H392.6M362.8,411.6V418.3H392.6M273.3,414.1V438.2H303.1M303.1,438.2V431.5H332.9M303.1,438.2V444.8H332.9M213.7,416.4V468H243.5M243.5,468V458.1H273.3M243.5,468V478H273.3M273.3,478V471.3H303.1M273.3,478V484.6H303.1M124.2,351.2V504.5H154.1M154.1,504.5V497.9H183.9M154.1,504.5V511.1H183.9M5,322V551.8H34.8M34.8,551.8V531H64.6M64.6,531V524.4H94.4M64.6,531V537.7H94.4M34.8,551.8V572.5H64.6M64.6,572.5V557.6H94.4M94.4,557.6V550.9H124.2M94.4,557.6V564.2H124.2M64.6,572.5V587.4H94.4M94.4,587.4V577.5H124.2M94.4,587.4V597.4H124.2M124.2,597.4V590.7H154.1M124.2,597.4V604H154.1" stroke="#91bfdb"></path><path d="M124.2,13.6V20.3H154.1" stroke="#fc8d59"></path><text x="7" y="325" class="node" fill="#4A6FE3">1</text><text x="36.8" y="95.3" class="node" fill="#D54C71">0.03</text><text x="66.6" y="41.5" class="node" fill="#D54C71">0.03</text><text x="96.4" y="26.6" class="node" fill="#E17F94">0.18</text><text x="126.2" y="16.6" class="node" fill="#E17F94">0.18</text><text x="96.4" y="56.4" class="node" fill="#E495A5">0.25</text><text x="66.6" y="149.1" class="node" fill="#4A6FE3">1</text><text x="96.4" y="221.9" class="node" fill="#D54C71">0.03</text><text x="126.2" y="354.2" class="node" fill="#D54C71">0.03</text><text x="156.1" y="200.9" class="node" fill="#D54C71">0.03</text><text x="185.9" y="109.5" class="node" fill="#4A6FE3">1</text><text x="185.9" y="292.4" class="node" fill="#E17F94">0.18</text><text x="215.7" y="165.4" class="node" fill="#E17F94">0.18</text><text x="245.5" y="201.3" class="node" fill="#E17F94">0.18</text><text x="275.3" y="160.5" class="node" fill="#D85778">0.06</text><text x="305.1" y="178.3" class="node" fill="#E17F94">0.18</text><text x="334.9" y="162.6" class="node" fill="#E17F94">0.18</text><text x="334.9" y="194.1" class="node" fill="#E18297">0.19</text><text x="364.8" y="205.7" class="node" fill="#E18297">0.19</text><text x="394.6" y="215.6" class="node" fill="#E18297">0.19</text><text x="275.3" y="242.2" class="node" fill="#4A6FE3">1</text><text x="215.7" y="419.4" class="node" fill="#4A6FE3">1</text><text x="245.5" y="367.7" class="node" fill="#D54C71">0.03</text><text x="275.3" y="318.3" class="node" fill="#4A6FE3">1</text><text x="305.1" y="275.1" class="node" fill="#ABB4E2">0.7</text><text x="334.9" y="288.2" class="node" fill="#ABB4E2">0.7</text><text x="364.8" y="301" class="node" fill="#ABB4E2">0.7</text><text x="394.6" y="313.5" class="node" fill="#ABB4E2">0.7</text><text x="424.4" y="325.1" class="node" fill="#4A6FE3">1</text><text x="454.2" y="335" class="node" fill="#768BE1">0.88</text><text x="305.1" y="361.6" class="node" fill="#4A6FE3">1</text><text x="275.3" y="417.1" class="node" fill="#DA5E7D">0.08</text><text x="305.1" y="393.1" class="node" fill="#4A6FE3">1</text><text x="334.9" y="404.7" class="node" fill="#4A6FE3">1</text><text x="364.8" y="414.6" class="node" fill="#4A6FE3">1</text><text x="305.1" y="441.2" class="node" fill="#4A6FE3">1</text><text x="245.5" y="471" class="node" fill="#9AA6E2">0.76</text><text x="275.3" y="481" class="node" fill="#5B78E2">0.96</text><text x="156.1" y="507.5" class="node" fill="#D54C71">0.03</text><text x="36.8" y="554.8" class="node" fill="#D54C71">0.03</text><text x="66.6" y="534" class="node" fill="#4A6FE3">1</text><text x="66.6" y="575.5" class="node" fill="#D54C71">0.03</text><text x="96.4" y="560.6" class="node" fill="#D54C71">0.03</text><text x="96.4" y="590.4" class="node" fill="#E17F94">0.18</text><text x="126.2" y="600.4" class="node" fill="#667FE1">0.93</text></svg>
