<svg xmlns="http://www.w3.org/2000/svg" version="1.1" width="682" height="612" class="tree" data-char="178"><text x="678" y="15.7" text-anchor="end" class="stepsLabel">Character adds <tspan class="score">2</tspan> to tree score</text><text x="678" y="28.4" text-anchor="end" class="stepsLabel"><tspan class="score">0</tspan> additional regions</text><text x="678" y="41.1" text-anchor="end" class="stepsLabel">CI = 0.5; Fitch CI = 0.5; Fitch RI = 0</text><text x="678" y="66.5" text-anchor="end" class="stepsLabel"><tspan dy="16">An optimal tree under:</tspan><tspan x="680" style="font-style:italic" class="notThisAn" dy="1.2em">Equal weights</tspan><tspan x="680" style="font-style:italic" class="thisAn" dy="1.2em">Implied weights, k = 2</tspan><tspan x="680" style="font-style:italic" class="notThisAn" dy="1.2em">IW, k = 3</tspan><tspan x="680" style="font-style:italic" class="notThisAn" dy="1.2em">IW, k = 4.5</tspan><tspan x="680" style="font-style:italic" class="notThisAn" dy="1.2em">IW, k = 7</tspan><tspan x="680" style="font-style:italic" class="notThisAn" dy="1.2em">IW, k = 10.5</tspan><tspan x="680" style="font-style:italic" class="notThisAn" dy="1.2em">IW, k = 16</tspan><tspan x="680" style="font-style:italic" class="notThisAn" dy="1.2em">IW, k = 24</tspan></text><text x="100.4" y="594" fill="grey" class="flag">[?]</text><text x="122.4" y="594" fill="#999" class="taxonLabel">Wiwaxia corrugata</text><text x="100.4" y="607" fill="#91bfdb" class="flag">[1]</text><text x="122.4" y="607" fill="#000" class="taxonLabel">Tonicella</text><text x="76.6" y="581" fill="#91bfdb" class="flag">[1]</text><text x="98.6" y="581" fill="#000" class="taxonLabel">Dentalium</text><text x="76.6" y="555.1" fill="#91bfdb" class="flag">[1]</text><text x="98.6" y="555.1" fill="#000" class="taxonLabel">Serpula</text><text x="76.6" y="568.1" fill="#91bfdb" class="flag">[1]</text><text x="98.6" y="568.1" fill="#000" class="taxonLabel">Sipunculus</text><text x="148.1" y="529.1" fill="grey" class="flag">[?]</text><text x="170.1" y="529.1" fill="#999" class="taxonLabel">Pedunculotheca diania</text><text x="148.1" y="542.1" fill="grey" class="flag">[?]</text><text x="170.1" y="542.1" fill="#999" class="taxonLabel">Haplophrentis carinatus</text><text x="243.5" y="503.2" fill="grey" class="flag">[?]</text><text x="265.5" y="503.2" fill="#999" class="taxonLabel">Mickwitzia muralensis</text><text x="243.5" y="516.2" fill="grey" class="flag">[?]</text><text x="265.5" y="516.2" fill="#999" class="taxonLabel">Pelagodiscus atlanticus</text><text x="291.2" y="477.2" fill="grey" class="flag">[?]</text><text x="313.2" y="477.2" fill="#999" class="taxonLabel">Botsfordia</text><text x="291.2" y="490.2" fill="grey" class="flag">[?]</text><text x="313.2" y="490.2" fill="#999" class="taxonLabel">Mummpikia nuda</text><text x="267.4" y="464.2" fill="grey" class="flag">[?]</text><text x="289.4" y="464.2" fill="#999" class="taxonLabel">Eoobolus</text><text x="315.1" y="438.3" fill="grey" class="flag">[?]</text><text x="337.1" y="438.3" fill="#999" class="taxonLabel">Acanthotretella spinosa</text><text x="315.1" y="451.3" fill="grey" class="flag">[?]</text><text x="337.1" y="451.3" fill="#999" class="taxonLabel">Siphonobolus priscus</text><text x="315.1" y="412.3" fill="grey" class="flag">[?]</text><text x="337.1" y="412.3" fill="#999" class="taxonLabel">Lingulosacculus</text><text x="315.1" y="425.3" fill="grey" class="flag">[?]</text><text x="337.1" y="425.3" fill="#999" class="taxonLabel">Clupeafumosus socialis</text><text x="291.2" y="386.4" fill="#91bfdb" class="flag">[1]</text><text x="313.2" y="386.4" fill="#000" class="taxonLabel">Lingula</text><text x="291.2" y="399.3" fill="grey" class="flag">[?]</text><text x="313.2" y="399.3" fill="#999" class="taxonLabel">Lingulellotreta malongensis</text><text x="338.9" y="360.4" fill="grey" class="flag">[?]</text><text x="360.9" y="360.4" fill="#999" class="taxonLabel">Coolinia pecten</text><text x="338.9" y="373.4" fill="grey" class="flag">[?]</text><text x="360.9" y="373.4" fill="#999" class="taxonLabel">Antigonambonites planus</text><text x="482" y="334.5" fill="grey" class="flag">[?]</text><text x="504" y="334.5" fill="#999" class="taxonLabel">Terebratulina</text><text x="482" y="347.4" fill="grey" class="flag">[?]</text><text x="504" y="347.4" fill="#999" class="taxonLabel">Orthis</text><text x="458.2" y="321.5" fill="grey" class="flag">[?]</text><text x="480.2" y="321.5" fill="#999" class="taxonLabel">Alisina</text><text x="434.3" y="308.5" fill="grey" class="flag">[?]</text><text x="456.3" y="308.5" fill="#999" class="taxonLabel">Longtancunella chengjiangensis</text><text x="410.5" y="295.5" fill="grey" class="flag">[?]</text><text x="432.5" y="295.5" fill="#999" class="taxonLabel">Glyptoria</text><text x="386.6" y="282.5" fill="grey" class="flag">[?]</text><text x="408.6" y="282.5" fill="#999" class="taxonLabel">Tomteluva perturbata</text><text x="362.8" y="269.6" fill="grey" class="flag">[?]</text><text x="384.8" y="269.6" fill="#999" class="taxonLabel">Nisusia sulcata</text><text x="338.9" y="256.6" fill="grey" class="flag">[?]</text><text x="360.9" y="256.6" fill="#999" class="taxonLabel">Kutorgina chengjiangensis</text><text x="291.2" y="243.6" fill="grey" class="flag">[?]</text><text x="313.2" y="243.6" fill="#999" class="taxonLabel">Yuganotheca elegans</text><text x="267.4" y="230.6" fill="grey" class="flag">[?]</text><text x="289.4" y="230.6" fill="#999" class="taxonLabel">Salanygolina</text><text x="267.4" y="204.7" fill="grey" class="flag">[?]</text><text x="289.4" y="204.7" fill="#999" class="taxonLabel">Micromitra</text><text x="267.4" y="217.7" fill="grey" class="flag">[?]</text><text x="289.4" y="217.7" fill="#999" class="taxonLabel">Askepasma toddense</text><text x="291.2" y="178.7" fill="#91bfdb" class="flag">[1]</text><text x="313.2" y="178.7" fill="#000" class="taxonLabel">Novocrania</text><text x="291.2" y="191.7" fill="grey" class="flag">[?]</text><text x="313.2" y="191.7" fill="#999" class="taxonLabel">Craniops</text><text x="267.4" y="165.7" fill="grey" class="flag">[?]</text><text x="289.4" y="165.7" fill="#999" class="taxonLabel">Ussunia</text><text x="243.5" y="152.8" fill="grey" class="flag">[?]</text><text x="265.5" y="152.8" fill="#999" class="taxonLabel">Gasconsia</text><text x="172" y="139.8" fill="grey" class="flag">[?]</text><text x="194" y="139.8" fill="#999" class="taxonLabel">Micrina</text><text x="148.1" y="126.8" fill="grey" class="flag">[?]</text><text x="170.1" y="126.8" fill="#999" class="taxonLabel">Paterimitra</text><text x="100.4" y="113.8" fill="grey" class="flag">[?]</text><text x="122.4" y="113.8" fill="#999" class="taxonLabel">Heliomedusa orienta</text><text x="76.6" y="100.8" fill="#fc8d59" class="flag">[0]</text><text x="98.6" y="100.8" fill="#000" class="taxonLabel">Phoronis</text><text x="100.4" y="74.9" fill="grey" class="flag">[?]</text><text x="122.4" y="74.9" fill="#999" class="taxonLabel">Halkieria evangelista</text><text x="100.4" y="87.9" fill="grey" class="flag">[?]</text><text x="122.4" y="87.9" fill="#999" class="taxonLabel">Dailyatia</text><text x="148.1" y="48.9" fill="grey" class="flag">[?]</text><text x="170.1" y="48.9" fill="#999" class="taxonLabel">Cotyledion tylodes</text><text x="148.1" y="61.9" fill="grey" class="flag">[?]</text><text x="170.1" y="61.9" fill="#999" class="taxonLabel">Eccentrotheca</text><text x="124.2" y="36" fill="#91bfdb" class="flag">[1]</text><text x="146.2" y="36" fill="#000" class="taxonLabel">Loxosomella</text><text x="124.2" y="10" fill="#fc8d59" class="flag">[0]</text><text x="146.2" y="10" fill="#000" class="taxonLabel">Flustra</text><text x="124.2" y="23" fill="grey" class="flag">[?]</text><text x="146.2" y="23" fill="#999" class="taxonLabel">Namacalathus</text><path d="M5,341.3V109.5H28.9M28.9,109.5V53.2H52.7M52.7,53.2V28.1H76.6M76.6,28.1V13.5H100.4M76.6,28.1V42.7H100.4M100.4,42.7V33H124.2M100.4,42.7V52.4H124.2M124.2,52.4V45.9H148.1M124.2,52.4V58.9H148.1M52.7,53.2V78.4H76.6M76.6,78.4V71.9H100.4M76.6,78.4V84.9H100.4M28.9,109.5V165.7H52.7M52.7,165.7V233.5H76.6M76.6,233.5V110.8H100.4M76.6,233.5V356.2H100.4M100.4,356.2V179.7H124.2M124.2,179.7V123.8H148.1M124.2,179.7V235.7H148.1M148.1,235.7V136.8H172M148.1,235.7V334.6H172M172,334.6V195.8H195.8M195.8,195.8V161.1H219.7M219.7,161.1V149.8H243.5M219.7,161.1V172.5H243.5M243.5,172.5V162.7H267.4M243.5,172.5V182.2H267.4M267.4,182.2V175.7H291.2M267.4,182.2V188.7H291.2M195.8,195.8V230.5H219.7M219.7,230.5V208.2H243.5M243.5,208.2V201.7H267.4M243.5,208.2V214.7H267.4M219.7,230.5V252.8H243.5M243.5,252.8V227.6H267.4M243.5,252.8V277.9H267.4M267.4,277.9V240.6H291.2M267.4,277.9V315.2H291.2M291.2,315.2V266.5H315.1M315.1,266.5V253.6H338.9M315.1,266.5V279.3H338.9M338.9,279.3V266.6H362.8M338.9,279.3V292.1H362.8M362.8,292.1V279.5H386.6M362.8,292.1V304.7H386.6M386.6,304.7V292.5H410.5M386.6,304.7V316.9H410.5M410.5,316.9V305.5H434.3M410.5,316.9V328.2H434.3M434.3,328.2V318.5H458.2M434.3,328.2V337.9H458.2M458.2,337.9V331.5H482M458.2,337.9V344.4H482M291.2,315.2V363.9H315.1M315.1,363.9V357.4H338.9M315.1,363.9V370.4H338.9M172,334.6V473.4H195.8M195.8,473.4V440.1H219.7M219.7,440.1V409.3H243.5M243.5,409.3V389.9H267.4M267.4,389.9V383.4H291.2M267.4,389.9V396.3H291.2M243.5,409.3V428.8H267.4M267.4,428.8V415.8H291.2M291.2,415.8V409.3H315.1M291.2,415.8V422.3H315.1M267.4,428.8V441.8H291.2M291.2,441.8V435.3H315.1M291.2,441.8V448.3H315.1M219.7,440.1V471H243.5M243.5,471V461.2H267.4M243.5,471V480.7H267.4M267.4,480.7V474.2H291.2M267.4,480.7V487.2H291.2M195.8,473.4V506.7H219.7M219.7,506.7V500.2H243.5M219.7,506.7V513.2H243.5M100.4,356.2V532.6H124.2M124.2,532.6V526.1H148.1M124.2,532.6V539.1H148.1M5,341.3V573.2H28.9M28.9,573.2V558.6H52.7M52.7,558.6V552.1H76.6M52.7,558.6V565.1H76.6M28.9,573.2V587.8H52.7M52.7,587.8V578H76.6M52.7,587.8V597.5H76.6M76.6,597.5V591H100.4M76.6,597.5V604H100.4" stroke="#91bfdb"></path><path d="M100.4,13.5V7H124.2M52.7,165.7V97.8H76.6" stroke="#fc8d59"></path><path d="M100.4,13.5V20H124.2" stroke="darkgrey"></path><text x="7" y="344.3" class="node" fill="#4A6FE3">1</text><text x="30.9" y="112.5" class="node" fill="#4A6FE3">1</text><text x="54.7" y="56.2" class="node" fill="#D95A7A">0.07</text><text x="78.6" y="31.1" class="node" fill="#D4486F">0.02</text><text x="102.4" y="16.5" class="node" fill="#D85778">0.06</text><text x="102.4" y="45.7" class="node" fill="#D54C71">0.03</text><text x="126.2" y="55.4" class="node" fill="#E49CAA">0.27</text><text x="78.6" y="81.4" class="node" fill="#E0E0E2">0.51</text><text x="54.7" y="168.7" class="node" fill="#D95A7A">0.07</text><text x="78.6" y="236.5" class="node" fill="#4A6FE3">1</text><text x="102.4" y="359.2" class="node" fill="#E6BDC5">0.38</text><text x="126.2" y="182.7" class="node" fill="#E6BDC5">0.38</text><text x="150.1" y="238.7" class="node" fill="#E6BDC5">0.38</text><text x="174" y="337.6" class="node" fill="#E6BDC5">0.38</text><text x="197.8" y="198.8" class="node" fill="#E6BDC5">0.38</text><text x="221.7" y="164.1" class="node" fill="#E6BDC5">0.38</text><text x="245.5" y="175.5" class="node" fill="#627DE1">0.94</text><text x="269.4" y="185.2" class="node" fill="#4A6FE3">1</text><text x="221.7" y="233.5" class="node" fill="#D7D9E3">0.54</text><text x="245.5" y="211.2" class="node" fill="#B9BFE3">0.65</text><text x="245.5" y="255.8" class="node" fill="#4A6FE3">1</text><text x="269.4" y="280.9" class="node" fill="#E2899B">0.21</text><text x="293.2" y="318.2" class="node" fill="#DE728B">0.14</text><text x="317.1" y="269.5" class="node" fill="#DA5E7D">0.08</text><text x="340.9" y="282.3" class="node" fill="#DA5E7D">0.08</text><text x="364.8" y="295.1" class="node" fill="#DA5E7D">0.08</text><text x="388.6" y="307.7" class="node" fill="#7388E1">0.89</text><text x="412.5" y="319.9" class="node" fill="#7388E1">0.89</text><text x="436.3" y="331.2" class="node" fill="#4A6FE3">1</text><text x="460.2" y="340.9" class="node" fill="#667FE1">0.93</text><text x="317.1" y="366.9" class="node" fill="#4A6FE3">1</text><text x="197.8" y="476.4" class="node" fill="#E0E0E2">0.51</text><text x="221.7" y="443.1" class="node" fill="#4A6FE3">1</text><text x="245.5" y="412.3" class="node" fill="#E6BDC5">0.38</text><text x="269.4" y="392.9" class="node" fill="#E6BDC5">0.38</text><text x="269.4" y="431.8" class="node" fill="#8F9DE1">0.8</text><text x="293.2" y="418.8" class="node" fill="#E495A5">0.25</text><text x="293.2" y="444.8" class="node" fill="#4A6FE3">1</text><text x="245.5" y="474" class="node" fill="#E0E0E2">0.51</text><text x="269.4" y="483.7" class="node" fill="#E6BDC5">0.38</text><text x="221.7" y="509.7" class="node" fill="#4A6FE3">1</text><text x="126.2" y="535.6" class="node" fill="#4A6FE3">1</text><text x="30.9" y="576.2" class="node" fill="#4A6FE3">1</text><text x="54.7" y="561.6" class="node" fill="#4A6FE3">1</text><text x="54.7" y="590.8" class="node" fill="#4A6FE3">1</text><text x="78.6" y="600.5" class="node" fill="#E07C92">0.17</text></svg>
