<svg xmlns="http://www.w3.org/2000/svg" version="1.1" width="682" height="612" class="tree" data-char="156"><text x="678" y="15.7" text-anchor="end" class="stepsLabel">Character adds <tspan class="score">2</tspan> to tree score</text><text x="678" y="28.4" text-anchor="end" class="stepsLabel"><tspan class="score">0</tspan> additional regions</text><text x="678" y="41.1" text-anchor="end" class="stepsLabel">CI = 0.5; Fitch CI = 0.5; Fitch RI = 0.67</text><text x="678" y="66.5" text-anchor="end" class="stepsLabel"><tspan dy="16">An optimal tree under:</tspan><tspan x="680" style="font-style:italic" class="thisAn" dy="1.2em">Equal weights</tspan><tspan x="680" style="font-style:italic" class="notThisAn" dy="1.2em">Implied weights, k = 2</tspan><tspan x="680" style="font-style:italic" class="notThisAn" dy="1.2em">IW, k = 3</tspan><tspan x="680" style="font-style:italic" class="notThisAn" dy="1.2em">IW, k = 4.5</tspan><tspan x="680" style="font-style:italic" class="notThisAn" dy="1.2em">IW, k = 7</tspan><tspan x="680" style="font-style:italic" class="notThisAn" dy="1.2em">IW, k = 10.5</tspan><tspan x="680" style="font-style:italic" class="notThisAn" dy="1.2em">IW, k = 16</tspan><tspan x="680" style="font-style:italic" class="notThisAn" dy="1.2em">IW, k = 24</tspan></text><text x="88" y="594" fill="#91bfdb" class="flag">[1]</text><text x="110" y="594" fill="#000" class="taxonLabel">Dentalium</text><text x="88" y="607" fill="#91bfdb" class="flag">[1]</text><text x="110" y="607" fill="#000" class="taxonLabel">Tonicella</text><text x="67.2" y="581" fill="grey" class="flag">[?]</text><text x="89.2" y="581" fill="grey" class="taxonLabel">Wiwaxia corrugata</text><text x="67.2" y="555.1" fill="#fc8d59" class="flag">[0]</text><text x="89.2" y="555.1" fill="#000" class="taxonLabel">Sipunculus</text><text x="67.2" y="568.1" fill="#91bfdb" class="flag">[1]</text><text x="89.2" y="568.1" fill="#000" class="taxonLabel">Serpula</text><text x="316.1" y="516.2" fill="grey" class="flag">[?]</text><text x="338.1" y="516.2" fill="grey" class="taxonLabel">Gasconsia</text><text x="316.1" y="529.1" fill="grey" class="flag">[?]</text><text x="338.1" y="529.1" fill="grey" class="taxonLabel">Micromitra</text><text x="378.3" y="490.2" fill="grey" class="flag">[?]</text><text x="400.3" y="490.2" fill="grey" class="taxonLabel">Yuganotheca elegans</text><text x="378.3" y="503.2" fill="grey" class="flag">[?]</text><text x="400.3" y="503.2" fill="grey" class="taxonLabel">Tomteluva perturbata</text><text x="357.6" y="477.2" fill="grey" class="flag">[?]</text><text x="379.6" y="477.2" fill="grey" class="taxonLabel">Salanygolina</text><text x="482" y="451.3" fill="grey" class="flag">[?]</text><text x="504" y="451.3" fill="grey" class="taxonLabel">Terebratulina</text><text x="482" y="464.2" fill="grey" class="flag">[?]</text><text x="504" y="464.2" fill="grey" class="taxonLabel">Orthis</text><text x="461.3" y="438.3" fill="grey" class="flag">[?]</text><text x="483.3" y="438.3" fill="grey" class="taxonLabel">Alisina</text><text x="440.5" y="425.3" fill="grey" class="flag">[?]</text><text x="462.5" y="425.3" fill="grey" class="taxonLabel">Longtancunella chengjiangensis</text><text x="419.8" y="412.3" fill="grey" class="flag">[?]</text><text x="441.8" y="412.3" fill="grey" class="taxonLabel">Glyptoria</text><text x="399" y="399.3" fill="grey" class="flag">[?]</text><text x="421" y="399.3" fill="grey" class="taxonLabel">Nisusia sulcata</text><text x="378.3" y="386.4" fill="grey" class="flag">[?]</text><text x="400.3" y="386.4" fill="grey" class="taxonLabel">Kutorgina chengjiangensis</text><text x="378.3" y="360.4" fill="grey" class="flag">[?]</text><text x="400.3" y="360.4" fill="grey" class="taxonLabel">Coolinia pecten</text><text x="378.3" y="373.4" fill="grey" class="flag">[?]</text><text x="400.3" y="373.4" fill="grey" class="taxonLabel">Antigonambonites planus</text><text x="316.1" y="347.4" fill="grey" class="flag">[?]</text><text x="338.1" y="347.4" fill="grey" class="taxonLabel">Askepasma toddense</text><text x="440.5" y="321.5" fill="grey" class="flag">[?]</text><text x="462.5" y="321.5" fill="grey" class="taxonLabel">Siphonobolus priscus</text><text x="440.5" y="334.5" fill="grey" class="flag">[?]</text><text x="462.5" y="334.5" fill="grey" class="taxonLabel">Acanthotretella spinosa</text><text x="419.8" y="308.5" fill="grey" class="flag">[?]</text><text x="441.8" y="308.5" fill="grey" class="taxonLabel">Clupeafumosus socialis</text><text x="419.8" y="282.5" fill="grey" class="flag">[?]</text><text x="441.8" y="282.5" fill="grey" class="taxonLabel">Lingulosacculus</text><text x="419.8" y="295.5" fill="grey" class="flag">[?]</text><text x="441.8" y="295.5" fill="grey" class="taxonLabel">Lingulellotreta malongensis</text><text x="378.3" y="269.6" fill="grey" class="flag">[?]</text><text x="400.3" y="269.6" fill="grey" class="taxonLabel">Botsfordia</text><text x="357.6" y="256.6" fill="grey" class="flag">[?]</text><text x="379.6" y="256.6" fill="grey" class="taxonLabel">Mummpikia nuda</text><text x="336.8" y="243.6" fill="grey" class="flag">[?]</text><text x="358.8" y="243.6" fill="grey" class="taxonLabel">Eoobolus</text><text x="316.1" y="230.6" fill="#fc8d59" class="flag">[0]</text><text x="338.1" y="230.6" fill="#000" class="taxonLabel">Lingula</text><text x="336.8" y="204.7" fill="grey" class="flag">[?]</text><text x="358.8" y="204.7" fill="grey" class="taxonLabel">Pelagodiscus atlanticus</text><text x="336.8" y="217.7" fill="grey" class="flag">[?]</text><text x="358.8" y="217.7" fill="grey" class="taxonLabel">Mickwitzia muralensis</text><text x="316.1" y="191.7" fill="grey" class="flag">[?]</text><text x="338.1" y="191.7" fill="grey" class="taxonLabel">Micrina</text><text x="295.3" y="165.7" fill="grey" class="flag">[?]</text><text x="317.3" y="165.7" fill="grey" class="taxonLabel">Pedunculotheca diania</text><text x="295.3" y="178.7" fill="grey" class="flag">[?]</text><text x="317.3" y="178.7" fill="grey" class="taxonLabel">Haplophrentis carinatus</text><text x="274.6" y="152.8" fill="grey" class="flag">[?]</text><text x="296.6" y="152.8" fill="grey" class="taxonLabel">Paterimitra</text><text x="233.1" y="139.8" fill="grey" class="flag">[?]</text><text x="255.1" y="139.8" fill="grey" class="taxonLabel">Heliomedusa orienta</text><text x="253.9" y="113.8" fill="grey" class="flag">[?]</text><text x="275.9" y="113.8" fill="grey" class="taxonLabel">Craniops</text><text x="253.9" y="126.8" fill="#fc8d59" class="flag">[0]</text><text x="275.9" y="126.8" fill="#000" class="taxonLabel">Novocrania</text><text x="233.1" y="100.8" fill="grey" class="flag">[?]</text><text x="255.1" y="100.8" fill="grey" class="taxonLabel">Ussunia</text><text x="191.7" y="87.9" fill="grey" class="flag">[?]</text><text x="213.7" y="87.9" fill="grey" class="taxonLabel">Halkieria evangelista</text><text x="170.9" y="74.9" fill="grey" class="flag">[?]</text><text x="192.9" y="74.9" fill="grey" class="taxonLabel">Cotyledion tylodes</text><text x="150.2" y="61.9" fill="grey" class="flag">[?]</text><text x="172.2" y="61.9" fill="grey" class="taxonLabel">Dailyatia</text><text x="129.4" y="48.9" fill="grey" class="flag">[?]</text><text x="151.4" y="48.9" fill="grey" class="taxonLabel">Eccentrotheca</text><text x="108.7" y="36" fill="#fc8d59" class="flag">[0]</text><text x="130.7" y="36" fill="#000" class="taxonLabel">Phoronis</text><text x="88" y="23" fill="grey" class="flag">[?]</text><text x="110" y="23" fill="grey" class="taxonLabel">Namacalathus</text><text x="67.2" y="10" fill="#fc8d59" class="flag">[0]</text><text x="89.2" y="10" fill="#000" class="taxonLabel">Flustra</text><text x="46.5" y="542.1" fill="#91bfdb" class="flag">[1]</text><text x="68.5" y="542.1" fill="#000" class="taxonLabel">Loxosomella</text><path d="M5,426.4V279.7H25.7M25.7,279.7V539.1H46.5M5,426.4V573.2H25.7M25.7,573.2V558.6H46.5M46.5,558.6V565.1H67.2M25.7,573.2V587.8H46.5M46.5,587.8V578H67.2M46.5,587.8V597.5H67.2M67.2,597.5V591H88M67.2,597.5V604H88" stroke="#91bfdb"></path><path d="M25.7,279.7V20.3H46.5M46.5,20.3V7H67.2M46.5,20.3V33.6H67.2M67.2,33.6V20H88M67.2,33.6V47.2H88M88,47.2V33H108.7M88,47.2V61.4H108.7M108.7,61.4V45.9H129.4M108.7,61.4V76.8H129.4M129.4,76.8V58.9H150.2M129.4,76.8V94.7H150.2M150.2,94.7V71.9H170.9M150.2,94.7V117.4H170.9M170.9,117.4V84.9H191.7M170.9,117.4V150H191.7M191.7,150V107.6H212.4M212.4,107.6V97.8H233.1M212.4,107.6V117.3H233.1M233.1,117.3V110.8H253.9M233.1,117.3V123.8H253.9M191.7,150V192.5H212.4M212.4,192.5V136.8H233.1M212.4,192.5V248.2H233.1M233.1,248.2V159.5H253.9M253.9,159.5V149.8H274.6M253.9,159.5V169.2H274.6M274.6,169.2V162.7H295.3M274.6,169.2V175.7H295.3M233.1,248.2V336.8H253.9M253.9,336.8V219.8H274.6M274.6,219.8V198.4H295.3M295.3,198.4V188.7H316.1M295.3,198.4V208.2H316.1M316.1,208.2V201.7H336.8M316.1,208.2V214.7H336.8M274.6,219.8V241.1H295.3M295.3,241.1V227.6H316.1M295.3,241.1V254.6H316.1M316.1,254.6V240.6H336.8M316.1,254.6V268.6H336.8M336.8,268.6V253.6H357.6M336.8,268.6V283.6H357.6M357.6,283.6V266.6H378.3M357.6,283.6V300.6H378.3M378.3,300.6V286H399M399,286V279.5H419.8M399,286V292.5H419.8M378.3,300.6V315.2H399M399,315.2V305.5H419.8M399,315.2V325H419.8M419.8,325V318.5H440.5M419.8,325V331.5H440.5M253.9,336.8V453.9H274.6M274.6,453.9V388.2H295.3M295.3,388.2V344.4H316.1M295.3,388.2V432H316.1M316.1,432V380H336.8M336.8,380V363.9H357.6M357.6,363.9V357.4H378.3M357.6,363.9V370.4H378.3M336.8,380V396.1H357.6M357.6,396.1V383.4H378.3M357.6,396.1V408.9H378.3M378.3,408.9V396.3H399M378.3,408.9V421.5H399M399,421.5V409.3H419.8M399,421.5V433.7H419.8M419.8,433.7V422.3H440.5M419.8,433.7V445H440.5M440.5,445V435.3H461.3M440.5,445V454.8H461.3M461.3,454.8V448.3H482M461.3,454.8V461.2H482M316.1,432V484H336.8M336.8,484V474.2H357.6M336.8,484V493.7H357.6M357.6,493.7V487.2H378.3M357.6,493.7V500.2H378.3M274.6,453.9V519.6H295.3M295.3,519.6V513.2H316.1M295.3,519.6V526.1H316.1M46.5,558.6V552.1H67.2" stroke="#fc8d59"></path><text x="7" y="429.4" class="node" fill="#4A6FE3">1</text><text x="27.7" y="282.7" class="node" fill="#4A6FE3">1</text><text x="48.5" y="23.3" class="node" fill="#6D84E1">0.91</text><text x="69.2" y="36.6" class="node" fill="#6D84E1">0.91</text><text x="90" y="50.2" class="node" fill="#E6ABB6">0.32</text><text x="110.7" y="64.4" class="node" fill="#6D84E1">0.91</text><text x="131.4" y="79.8" class="node" fill="#E38FA0">0.23</text><text x="152.2" y="97.7" class="node" fill="#DC6884">0.11</text><text x="172.9" y="120.4" class="node" fill="#E5CACE">0.42</text><text x="193.7" y="153" class="node" fill="#4A6FE3">1</text><text x="214.4" y="110.6" class="node" fill="#667FE1">0.93</text><text x="235.1" y="120.3" class="node" fill="#4A6FE3">1</text><text x="214.4" y="195.5" class="node" fill="#D2D4E3">0.56</text><text x="235.1" y="251.2" class="node" fill="#D2D4E3">0.56</text><text x="255.9" y="162.5" class="node" fill="#E38FA0">0.23</text><text x="276.6" y="172.2" class="node" fill="#4A6FE3">1</text><text x="255.9" y="339.8" class="node" fill="#D2D4E3">0.56</text><text x="276.6" y="222.8" class="node" fill="#D2D4E3">0.56</text><text x="297.3" y="201.4" class="node" fill="#D2D4E3">0.56</text><text x="318.1" y="211.2" class="node" fill="#4A6FE3">1</text><text x="297.3" y="244.1" class="node" fill="#4A6FE3">1</text><text x="318.1" y="257.6" class="node" fill="#D2D4E3">0.57</text><text x="338.8" y="271.6" class="node" fill="#D2D4E3">0.56</text><text x="359.6" y="286.6" class="node" fill="#D2D4E3">0.56</text><text x="380.3" y="303.6" class="node" fill="#D2D4E3">0.56</text><text x="401" y="289" class="node" fill="#DD6F88">0.13</text><text x="401" y="318.2" class="node" fill="#DDDEE3">0.52</text><text x="421.8" y="328" class="node" fill="#4A6FE3">1</text><text x="276.6" y="456.9" class="node" fill="#D2D4E3">0.56</text><text x="297.3" y="391.2" class="node" fill="#D95A7A">0.07</text><text x="318.1" y="435" class="node" fill="#4A6FE3">1</text><text x="338.8" y="383" class="node" fill="#8998E1">0.82</text><text x="359.6" y="366.9" class="node" fill="#4A6FE3">1</text><text x="359.6" y="399.1" class="node" fill="#929FE1">0.79</text><text x="380.3" y="411.9" class="node" fill="#929FE1">0.79</text><text x="401" y="424.5" class="node" fill="#768BE1">0.88</text><text x="421.8" y="436.7" class="node" fill="#768BE1">0.88</text><text x="442.5" y="448" class="node" fill="#4A6FE3">1</text><text x="463.3" y="457.8" class="node" fill="#6982E1">0.92</text><text x="338.8" y="487" class="node" fill="#9AA6E2">0.76</text><text x="359.6" y="496.7" class="node" fill="#8394E1">0.84</text><text x="297.3" y="522.6" class="node" fill="#E6B1BB">0.34</text><text x="27.7" y="576.2" class="node" fill="#4A6FE3">1</text><text x="48.5" y="561.6" class="node" fill="#4A6FE3">1</text><text x="48.5" y="590.8" class="node" fill="#4A6FE3">1</text><text x="69.2" y="600.5" class="node" fill="#8F9DE1">0.8</text></svg>
