<svg xmlns="http://www.w3.org/2000/svg" version="1.1" width="682" height="612" class="tree" data-char="203"><text x="678" y="16" text-anchor="end" class="stepsLabel">Character adds <tspan class="score">1</tspan> to tree score</text><text x="678" y="29" text-anchor="end" class="stepsLabel"><tspan class="score">0</tspan> additional regions</text><text x="678" y="42" text-anchor="end" class="stepsLabel">CI = 1; Fitch CI = 1; Fitch RI = 1</text><text x="678" y="68" text-anchor="end" class="stepsLabel"><tspan dy="16">An optimal tree under:</tspan><tspan x="680" style="font-style:italic" class="notThisAn" dy="1.2em">Equal weights</tspan><tspan x="680" style="font-style:italic" class="notThisAn" dy="1.2em">Implied weights, k = 2</tspan><tspan x="680" style="font-style:italic" class="thisAn" dy="1.2em">IW, k = 3</tspan><tspan x="680" style="font-style:italic" class="notThisAn" dy="1.2em">IW, k = 4.5</tspan><tspan x="680" style="font-style:italic" class="notThisAn" dy="1.2em">IW, k = 7</tspan><tspan x="680" style="font-style:italic" class="notThisAn" dy="1.2em">IW, k = 10.5</tspan><tspan x="680" style="font-style:italic" class="notThisAn" dy="1.2em">IW, k = 16</tspan><tspan x="680" style="font-style:italic" class="notThisAn" dy="1.2em">IW, k = 24</tspan></text><text x="91.7" y="593.7" fill="#91bfdb" class="flag">[1]</text><text x="113.7" y="593.7" fill="#000" class="taxonLabel">Tonicella</text><text x="91.7" y="607" fill="grey" class="flag">[?]</text><text x="113.7" y="607" fill="grey" class="taxonLabel">Wiwaxia corrugata</text><text x="70" y="580.5" fill="#91bfdb" class="flag">[1]</text><text x="92" y="580.5" fill="#000" class="taxonLabel">Dentalium</text><text x="70" y="553.9" fill="#91bfdb" class="flag">[1]</text><text x="92" y="553.9" fill="#000" class="taxonLabel">Sipunculus</text><text x="70" y="567.2" fill="#91bfdb" class="flag">[1]</text><text x="92" y="567.2" fill="#000" class="taxonLabel">Serpula</text><text x="178.5" y="514.1" fill="grey" class="flag">[?]</text><text x="200.5" y="514.1" fill="grey" class="taxonLabel">Halkieria evangelista</text><text x="178.5" y="527.4" fill="grey" class="flag">[?]</text><text x="200.5" y="527.4" fill="grey" class="taxonLabel">Dailyatia</text><text x="373.6" y="487.6" fill="grey" class="flag">[?]</text><text x="395.6" y="487.6" fill="grey" class="taxonLabel">Acanthotretella spinosa</text><text x="373.6" y="500.9" fill="grey" class="flag">[?]</text><text x="395.6" y="500.9" fill="grey" class="taxonLabel">Siphonobolus priscus</text><text x="395.3" y="461.1" fill="#fc8d59" class="flag">[0]</text><text x="417.3" y="461.1" fill="#000" class="taxonLabel">Lingula</text><text x="395.3" y="474.3" fill="#fc8d59" class="flag">[0]</text><text x="417.3" y="474.3" fill="#000" class="taxonLabel">Pelagodiscus atlanticus</text><text x="438.6" y="434.5" fill="grey" class="flag">[?]</text><text x="460.6" y="434.5" fill="grey" class="taxonLabel">Eoobolus</text><text x="438.6" y="447.8" fill="grey" class="flag">[?]</text><text x="460.6" y="447.8" fill="grey" class="taxonLabel">Mummpikia nuda</text><text x="417" y="421.3" fill="grey" class="flag">[?]</text><text x="439" y="421.3" fill="grey" class="taxonLabel">Botsfordia</text><text x="395.3" y="408" fill="grey" class="flag">[?]</text><text x="417.3" y="408" fill="grey" class="taxonLabel">Lingulellotreta malongensis</text><text x="330.2" y="394.7" fill="grey" class="flag">[?]</text><text x="352.2" y="394.7" fill="grey" class="taxonLabel">Lingulosacculus</text><text x="308.5" y="381.5" fill="grey" class="flag">[?]</text><text x="330.5" y="381.5" fill="grey" class="taxonLabel">Clupeafumosus socialis</text><text x="373.6" y="354.9" fill="grey" class="flag">[?]</text><text x="395.6" y="354.9" fill="grey" class="taxonLabel">Coolinia pecten</text><text x="373.6" y="368.2" fill="grey" class="flag">[?]</text><text x="395.6" y="368.2" fill="grey" class="taxonLabel">Antigonambonites planus</text><text x="482" y="328.4" fill="#fc8d59" class="flag">[0]</text><text x="504" y="328.4" fill="#000" class="taxonLabel">Terebratulina</text><text x="482" y="341.7" fill="grey" class="flag">[?]</text><text x="504" y="341.7" fill="grey" class="taxonLabel">Orthis</text><text x="460.3" y="315.1" fill="grey" class="flag">[?]</text><text x="482.3" y="315.1" fill="grey" class="taxonLabel">Alisina</text><text x="438.6" y="301.9" fill="grey" class="flag">[?]</text><text x="460.6" y="301.9" fill="grey" class="taxonLabel">Longtancunella chengjiangensis</text><text x="417" y="288.6" fill="grey" class="flag">[?]</text><text x="439" y="288.6" fill="grey" class="taxonLabel">Glyptoria</text><text x="395.3" y="275.3" fill="grey" class="flag">[?]</text><text x="417.3" y="275.3" fill="grey" class="taxonLabel">Nisusia sulcata</text><text x="373.6" y="262.1" fill="grey" class="flag">[?]</text><text x="395.6" y="262.1" fill="grey" class="taxonLabel">Kutorgina chengjiangensis</text><text x="373.6" y="235.5" fill="grey" class="flag">[?]</text><text x="395.6" y="235.5" fill="grey" class="taxonLabel">Tomteluva perturbata</text><text x="373.6" y="248.8" fill="grey" class="flag">[?]</text><text x="395.6" y="248.8" fill="grey" class="taxonLabel">Yuganotheca elegans</text><text x="351.9" y="222.3" fill="grey" class="flag">[?]</text><text x="373.9" y="222.3" fill="grey" class="taxonLabel">Salanygolina</text><text x="351.9" y="195.7" fill="grey" class="flag">[?]</text><text x="373.9" y="195.7" fill="grey" class="taxonLabel">Askepasma toddense</text><text x="351.9" y="209" fill="grey" class="flag">[?]</text><text x="373.9" y="209" fill="grey" class="taxonLabel">Micromitra</text><text x="395.3" y="169.2" fill="grey" class="flag">[?]</text><text x="417.3" y="169.2" fill="grey" class="taxonLabel">Craniops</text><text x="395.3" y="182.5" fill="#fc8d59" class="flag">[0]</text><text x="417.3" y="182.5" fill="#000" class="taxonLabel">Novocrania</text><text x="373.6" y="155.9" fill="grey" class="flag">[?]</text><text x="395.6" y="155.9" fill="grey" class="taxonLabel">Ussunia</text><text x="351.9" y="142.7" fill="grey" class="flag">[?]</text><text x="373.9" y="142.7" fill="grey" class="taxonLabel">Gasconsia</text><text x="286.9" y="116.1" fill="grey" class="flag">[?]</text><text x="308.9" y="116.1" fill="grey" class="taxonLabel">Haplophrentis carinatus</text><text x="286.9" y="129.4" fill="grey" class="flag">[?]</text><text x="308.9" y="129.4" fill="grey" class="taxonLabel">Pedunculotheca diania</text><text x="243.5" y="102.9" fill="grey" class="flag">[?]</text><text x="265.5" y="102.9" fill="grey" class="taxonLabel">Micrina</text><text x="221.8" y="89.6" fill="grey" class="flag">[?]</text><text x="243.8" y="89.6" fill="grey" class="taxonLabel">Heliomedusa orienta</text><text x="200.1" y="76.3" fill="grey" class="flag">[?]</text><text x="222.1" y="76.3" fill="grey" class="taxonLabel">Mickwitzia muralensis</text><text x="178.5" y="63.1" fill="grey" class="flag">[?]</text><text x="200.5" y="63.1" fill="grey" class="taxonLabel">Paterimitra</text><text x="135.1" y="49.8" fill="grey" class="flag">[?]</text><text x="157.1" y="49.8" fill="grey" class="taxonLabel">Eccentrotheca</text><text x="113.4" y="36.5" fill="grey" class="flag">[?]</text><text x="135.4" y="36.5" fill="grey" class="taxonLabel">Cotyledion tylodes</text><text x="91.7" y="23.3" fill="grey" class="flag">[?]</text><text x="113.7" y="23.3" fill="grey" class="taxonLabel">Phoronis</text><text x="70" y="10" fill="#91bfdb" class="flag">[1]</text><text x="92" y="10" fill="#000" class="taxonLabel">Flustra</text><text x="48.4" y="540.7" fill="#91bfdb" class="flag">[1]</text><text x="70.4" y="540.7" fill="#000" class="taxonLabel">Loxosomella</text><path d="M5,429.2V286H26.7M26.7,286V34.3H48.4M48.4,34.3V7H70M48.4,34.3V61.7H70M26.7,286V537.7H48.4M5,429.2V572.5H26.7M26.7,572.5V557.6H48.4M48.4,557.6V550.9H70M48.4,557.6V564.2H70M26.7,572.5V587.4H48.4M48.4,587.4V577.5H70M48.4,587.4V597.4H70M70,597.4V590.7H91.7M70,597.4V604H91.7" stroke="#91bfdb"></path><path d="M70,61.7V20.3H91.7M70,61.7V103.1H91.7M91.7,103.1V33.5H113.4M91.7,103.1V172.6H113.4M113.4,172.6V46.8H135.1M113.4,172.6V298.4H135.1M135.1,298.4V79H156.8M156.8,79V60.1H178.5M156.8,79V97.9H178.5M178.5,97.9V73.3H200.1M178.5,97.9V122.5H200.1M200.1,122.5V86.6H221.8M200.1,122.5V158.3H221.8M221.8,158.3V99.9H243.5M221.8,158.3V216.7H243.5M243.5,216.7V119.8H265.2M265.2,119.8V113.1H286.9M265.2,119.8V126.4H286.9M135.1,298.4V517.8H156.8M156.8,517.8V511.1H178.5M156.8,517.8V524.4H178.5" stroke="darkgrey"></path><path d="M243.5,216.7V313.7H265.2M265.2,313.7V223.8H286.9M286.9,223.8V175.3H308.5M308.5,175.3V151.3H330.2M330.2,151.3V139.7H351.9M330.2,151.3V162.9H351.9M351.9,162.9V152.9H373.6M351.9,162.9V172.8H373.6M373.6,172.8V166.2H395.3M373.6,172.8V179.5H395.3M308.5,175.3V199.4H330.2M330.2,199.4V192.7H351.9M330.2,199.4V206H351.9M286.9,223.8V272.3H308.5M308.5,272.3V229.2H330.2M330.2,229.2V219.3H351.9M330.2,229.2V239.2H351.9M351.9,239.2V232.5H373.6M351.9,239.2V245.8H373.6M308.5,272.3V315.3H330.2M330.2,315.3V272.1H351.9M351.9,272.1V259.1H373.6M351.9,272.1V285.2H373.6M373.6,285.2V272.3H395.3M373.6,285.2V298H395.3M395.3,298V285.6H417M395.3,298V310.5H417M417,310.5V298.9H438.6M417,310.5V322.1H438.6M438.6,322.1V312.1H460.3M438.6,322.1V332H460.3M460.3,332V325.4H482M460.3,332V338.7H482M330.2,315.3V358.6H351.9M351.9,358.6V351.9H373.6M351.9,358.6V365.2H373.6M265.2,313.7V403.7H286.9M286.9,403.7V378.5H308.5M286.9,403.7V428.8H308.5M308.5,428.8V391.7H330.2M308.5,428.8V465.9H330.2M330.2,465.9V440.7H351.9M351.9,440.7V416.6H373.6M373.6,416.6V405H395.3M373.6,416.6V428.2H395.3M395.3,428.2V418.3H417M395.3,428.2V438.2H417M417,438.2V431.5H438.6M417,438.2V444.8H438.6M351.9,440.7V464.7H373.6M373.6,464.7V458.1H395.3M373.6,464.7V471.3H395.3M330.2,465.9V491.2H351.9M351.9,491.2V484.6H373.6M351.9,491.2V497.9H373.6" stroke="#fc8d59"></path><text x="7" y="432.2" class="node" fill="#4A6FE3">1</text><text x="28.7" y="289" class="node" fill="#4A6FE3">1</text><text x="50.4" y="37.3" class="node" fill="#4A6FE3">1</text><text x="72" y="64.7" class="node" fill="#4A6FE3">1</text><text x="93.7" y="106.1" class="node" fill="#4A6FE3">1</text><text x="115.4" y="175.6" class="node" fill="#E6ABB6">0.32</text><text x="137.1" y="301.4" class="node" fill="#4A6FE3">1</text><text x="158.8" y="82" class="node" fill="#4A6FE3">1</text><text x="180.5" y="100.9" class="node" fill="#E495A5">0.25</text><text x="202.1" y="125.5" class="node" fill="#E495A5">0.25</text><text x="223.8" y="161.3" class="node" fill="#E495A5">0.25</text><text x="245.5" y="219.7" class="node" fill="#E495A5">0.25</text><text x="267.2" y="122.8" class="node" fill="#4A6FE3">1</text><text x="267.2" y="316.7" class="node" fill="#E495A5">0.25</text><text x="288.9" y="226.8" class="node" fill="#4A6FE3">1</text><text x="310.5" y="178.3" class="node" fill="#DD6F88">0.13</text><text x="332.2" y="154.3" class="node" fill="#4A6FE3">1</text><text x="353.9" y="165.9" class="node" fill="#4A6FE3">1</text><text x="375.6" y="175.8" class="node" fill="#4A6FE3">1</text><text x="332.2" y="202.4" class="node" fill="#4A6FE3">1</text><text x="310.5" y="275.3" class="node" fill="#667FE1">0.93</text><text x="332.2" y="232.2" class="node" fill="#A0ABE2">0.74</text><text x="353.9" y="242.2" class="node" fill="#7388E1">0.89</text><text x="332.2" y="318.3" class="node" fill="#4A6FE3">1</text><text x="353.9" y="275.1" class="node" fill="#7A8DE1">0.87</text><text x="375.6" y="288.2" class="node" fill="#7A8DE1">0.87</text><text x="397.3" y="301" class="node" fill="#7A8DE1">0.87</text><text x="419" y="313.5" class="node" fill="#7A8DE1">0.87</text><text x="440.6" y="325.1" class="node" fill="#4A6FE3">1</text><text x="462.3" y="335" class="node" fill="#5B78E2">0.96</text><text x="353.9" y="361.6" class="node" fill="#4A6FE3">1</text><text x="288.9" y="406.7" class="node" fill="#E495A5">0.25</text><text x="310.5" y="431.8" class="node" fill="#E495A5">0.25</text><text x="332.2" y="468.9" class="node" fill="#DA5E7D">0.08</text><text x="353.9" y="443.7" class="node" fill="#E495A5">0.25</text><text x="375.6" y="419.6" class="node" fill="#E495A5">0.25</text><text x="397.3" y="431.2" class="node" fill="#E6AEB8">0.33</text><text x="419" y="441.2" class="node" fill="#E495A5">0.25</text><text x="375.6" y="467.7" class="node" fill="#E495A5">0.25</text><text x="353.9" y="494.2" class="node" fill="#4A6FE3">1</text><text x="158.8" y="520.8" class="node" fill="#4A6FE3">1</text><text x="28.7" y="575.5" class="node" fill="#4A6FE3">1</text><text x="50.4" y="560.6" class="node" fill="#4A6FE3">1</text><text x="50.4" y="590.4" class="node" fill="#4A6FE3">1</text><text x="72" y="600.4" class="node" fill="#97A4E2">0.77</text></svg>
