<svg xmlns="http://www.w3.org/2000/svg" version="1.1" width="682" height="612" class="tree" data-char="83"><text x="678" y="15.4" text-anchor="end" class="stepsLabel">Character adds <tspan class="score">1</tspan> to tree score</text><text x="678" y="27.8" text-anchor="end" class="stepsLabel"><tspan class="score">0</tspan> additional regions</text><text x="678" y="40.2" text-anchor="end" class="stepsLabel">CI = 1; Fitch CI = 1; Fitch RI = n/a</text><text x="678" y="65" text-anchor="end" class="stepsLabel"><tspan dy="16" fill="#34caaf">An optimal tree under:</tspan><tspan x="680" style="font-style:italic" class="thisAn" dy="1.2em">Equal weights</tspan><tspan x="680" style="font-style:italic" class="notThisAn" dy="1.2em">Implied weights, k = 2</tspan><tspan x="680" style="font-style:italic" class="notThisAn" dy="1.2em">IW, k = 3</tspan><tspan x="680" style="font-style:italic" class="notThisAn" dy="1.2em">IW, k = 4.5</tspan><tspan x="680" style="font-style:italic" class="notThisAn" dy="1.2em">IW, k = 7</tspan><tspan x="680" style="font-style:italic" class="notThisAn" dy="1.2em">IW, k = 10.5</tspan><tspan x="680" style="font-style:italic" class="notThisAn" dy="1.2em">IW, k = 16</tspan><tspan x="680" style="font-style:italic" class="notThisAn" dy="1.2em">IW, k = 24</tspan></text><text x="84.5" y="594.3" fill="lightgrey" class="flag">[-]</text><text x="106.5" y="594.3" fill="#ccc" class="taxonLabel">Sipunculus</text><text x="84.5" y="607" fill="lightgrey" class="flag">[-]</text><text x="106.5" y="607" fill="#ccc" class="taxonLabel">Serpula</text><text x="111" y="568.9" fill="lightgrey" class="flag">[-]</text><text x="133" y="568.9" fill="#ccc" class="taxonLabel">Dentalium</text><text x="111" y="581.6" fill="lightgrey" class="flag">[-]</text><text x="133" y="581.6" fill="#ccc" class="taxonLabel">Tonicella</text><text x="84.5" y="556.2" fill="lightgrey" class="flag">[-]</text><text x="106.5" y="556.2" fill="#ccc" class="taxonLabel">Wiwaxia corrugata</text><text x="296.5" y="518.1" fill="lightgrey" class="flag">[-]</text><text x="318.5" y="518.1" fill="#ccc" class="taxonLabel">Mummpikia nuda</text><text x="296.5" y="530.8" fill="lightgrey" class="flag">[-]</text><text x="318.5" y="530.8" fill="#ccc" class="taxonLabel">Pelagodiscus atlanticus</text><text x="429" y="492.7" fill="lightgrey" class="flag">[-]</text><text x="451" y="492.7" fill="#ccc" class="taxonLabel">Siphonobolus priscus</text><text x="429" y="505.4" fill="lightgrey" class="flag">[-]</text><text x="451" y="505.4" fill="#ccc" class="taxonLabel">Acanthotretella spinosa</text><text x="429" y="467.3" fill="lightgrey" class="flag">[-]</text><text x="451" y="467.3" fill="#ccc" class="taxonLabel">Clupeafumosus socialis</text><text x="429" y="480" fill="lightgrey" class="flag">[-]</text><text x="451" y="480" fill="#ccc" class="taxonLabel">Lingulosacculus</text><text x="376" y="454.6" fill="lightgrey" class="flag">[-]</text><text x="398" y="454.6" fill="#ccc" class="taxonLabel">Lingulellotreta malongensis</text><text x="349.5" y="441.9" fill="lightgrey" class="flag">[-]</text><text x="371.5" y="441.9" fill="#ccc" class="taxonLabel">Botsfordia</text><text x="323" y="429.2" fill="lightgrey" class="flag">[-]</text><text x="345" y="429.2" fill="#ccc" class="taxonLabel">Lingula</text><text x="296.5" y="416.5" fill="lightgrey" class="flag">[-]</text><text x="318.5" y="416.5" fill="#ccc" class="taxonLabel">Eoobolus</text><text x="323" y="391.1" fill="lightgrey" class="flag">[-]</text><text x="345" y="391.1" fill="#ccc" class="taxonLabel">Novocrania</text><text x="323" y="403.8" fill="lightgrey" class="flag">[-]</text><text x="345" y="403.8" fill="#ccc" class="taxonLabel">Craniops</text><text x="296.5" y="378.4" fill="lightgrey" class="flag">[-]</text><text x="318.5" y="378.4" fill="#ccc" class="taxonLabel">Ussunia</text><text x="270" y="365.7" fill="lightgrey" class="flag">[-]</text><text x="292" y="365.7" fill="#ccc" class="taxonLabel">Gasconsia</text><text x="349.5" y="340.3" fill="lightgrey" class="flag">[-]</text><text x="371.5" y="340.3" fill="#ccc" class="taxonLabel">Tomteluva perturbata</text><text x="349.5" y="353" fill="lightgrey" class="flag">[-]</text><text x="371.5" y="353" fill="#ccc" class="taxonLabel">Yuganotheca elegans</text><text x="323" y="327.6" fill="lightgrey" class="flag">[-]</text><text x="345" y="327.6" fill="#ccc" class="taxonLabel">Salanygolina</text><text x="482" y="302.1" fill="lightgrey" class="flag">[-]</text><text x="504" y="302.1" fill="#ccc" class="taxonLabel">Terebratulina</text><text x="482" y="314.9" fill="lightgrey" class="flag">[-]</text><text x="504" y="314.9" fill="#ccc" class="taxonLabel">Orthis</text><text x="455.5" y="289.4" fill="lightgrey" class="flag">[-]</text><text x="477.5" y="289.4" fill="#ccc" class="taxonLabel">Alisina</text><text x="429" y="276.7" fill="lightgrey" class="flag">[-]</text><text x="451" y="276.7" fill="#ccc" class="taxonLabel">Longtancunella chengjiangensis</text><text x="402.5" y="264" fill="lightgrey" class="flag">[-]</text><text x="424.5" y="264" fill="#ccc" class="taxonLabel">Glyptoria</text><text x="376" y="251.3" fill="lightgrey" class="flag">[-]</text><text x="398" y="251.3" fill="#ccc" class="taxonLabel">Nisusia sulcata</text><text x="349.5" y="238.6" fill="lightgrey" class="flag">[-]</text><text x="371.5" y="238.6" fill="#ccc" class="taxonLabel">Kutorgina chengjiangensis</text><text x="349.5" y="213.2" fill="lightgrey" class="flag">[-]</text><text x="371.5" y="213.2" fill="#ccc" class="taxonLabel">Coolinia pecten</text><text x="349.5" y="225.9" fill="lightgrey" class="flag">[-]</text><text x="371.5" y="225.9" fill="#ccc" class="taxonLabel">Antigonambonites planus</text><text x="296.5" y="187.8" fill="lightgrey" class="flag">[-]</text><text x="318.5" y="187.8" fill="#ccc" class="taxonLabel">Askepasma toddense</text><text x="296.5" y="200.5" fill="lightgrey" class="flag">[-]</text><text x="318.5" y="200.5" fill="#ccc" class="taxonLabel">Micromitra</text><text x="296.5" y="162.4" fill="#fc8d59" class="flag">[0]</text><text x="318.5" y="162.4" fill="#000" class="taxonLabel">Pedunculotheca diania</text><text x="296.5" y="175.1" fill="#91bfdb" class="flag">[1]</text><text x="318.5" y="175.1" fill="#000" class="taxonLabel">Haplophrentis carinatus</text><text x="270" y="149.7" fill="lightgrey" class="flag">[-]</text><text x="292" y="149.7" fill="#ccc" class="taxonLabel">Paterimitra</text><text x="243.5" y="124.3" fill="lightgrey" class="flag">[-]</text><text x="265.5" y="124.3" fill="#ccc" class="taxonLabel">Mickwitzia muralensis</text><text x="243.5" y="137" fill="lightgrey" class="flag">[-]</text><text x="265.5" y="137" fill="#ccc" class="taxonLabel">Heliomedusa orienta</text><text x="217" y="111.6" fill="lightgrey" class="flag">[-]</text><text x="239" y="111.6" fill="#ccc" class="taxonLabel">Micrina</text><text x="164" y="98.9" fill="lightgrey" class="flag">[-]</text><text x="186" y="98.9" fill="#ccc" class="taxonLabel">Halkieria evangelista</text><text x="137.5" y="86.2" fill="lightgrey" class="flag">[-]</text><text x="159.5" y="86.2" fill="#ccc" class="taxonLabel">Eccentrotheca</text><text x="190.5" y="60.8" fill="lightgrey" class="flag">[-]</text><text x="212.5" y="60.8" fill="#ccc" class="taxonLabel">Phoronis</text><text x="190.5" y="73.5" fill="lightgrey" class="flag">[-]</text><text x="212.5" y="73.5" fill="#ccc" class="taxonLabel">Namacalathus</text><text x="164" y="48.1" fill="lightgrey" class="flag">[-]</text><text x="186" y="48.1" fill="#ccc" class="taxonLabel">Cotyledion tylodes</text><text x="137.5" y="35.4" fill="lightgrey" class="flag">[-]</text><text x="159.5" y="35.4" fill="#ccc" class="taxonLabel">Dailyatia</text><text x="111" y="10" fill="lightgrey" class="flag">[-]</text><text x="133" y="10" fill="#ccc" class="taxonLabel">Flustra</text><text x="111" y="22.7" fill="lightgrey" class="flag">[-]</text><text x="133" y="22.7" fill="#ccc" class="taxonLabel">Amathia</text><text x="58" y="543.5" fill="lightgrey" class="flag">[-]</text><text x="80" y="543.5" fill="#ccc" class="taxonLabel">Loxosomella</text><path d="M5,437V293.9H31.5M31.5,293.9V47.3H58M58,47.3V13.4H84.5M84.5,13.4V7H111M84.5,13.4V19.7H111M58,47.3V81.3H84.5M84.5,81.3V43.5H111M111,43.5V32.4H137.5M111,43.5V54.6H137.5M137.5,54.6V45.1H164M137.5,54.6V64.2H164M164,64.2V57.8H190.5M164,64.2V70.5H190.5M84.5,81.3V119.1H111M111,119.1V83.2H137.5M111,119.1V155.1H137.5M137.5,155.1V95.9H164M137.5,155.1V214.2H164M164,214.2V118.1H190.5M190.5,118.1V108.6H217M190.5,118.1V127.7H217M217,127.7V121.3H243.5M217,127.7V134H243.5M164,214.2V310.3H190.5M190.5,310.3V196.7H217M217,196.7V156.2H243.5M243.5,156.2V146.7H270M217,196.7V237.2H243.5M243.5,237.2V191.2H270M270,191.2V184.8H296.5M270,191.2V197.5H296.5M243.5,237.2V283.2H270M270,283.2V232.4H296.5M296.5,232.4V216.6H323M323,216.6V210.2H349.5M323,216.6V222.9H349.5M296.5,232.4V248.1H323M323,248.1V235.6H349.5M323,248.1V260.6H349.5M349.5,260.6V248.3H376M349.5,260.6V273H376M376,273V261H402.5M376,273V284.9H402.5M402.5,284.9V273.7H429M402.5,284.9V296H429M429,296V286.4H455.5M429,296V305.5H455.5M455.5,305.5V299.1H482M455.5,305.5V311.9H482M270,283.2V334.1H296.5M296.5,334.1V324.6H323M296.5,334.1V343.6H323M323,343.6V337.3H349.5M323,343.6V350H349.5M190.5,310.3V423.9H217M217,423.9V373.8H243.5M243.5,373.8V362.7H270M243.5,373.8V384.9H270M270,384.9V375.4H296.5M270,384.9V394.4H296.5M296.5,394.4V388.1H323M296.5,394.4V400.8H323M217,423.9V474H243.5M243.5,474V426.6H270M270,426.6V413.5H296.5M270,426.6V439.7H296.5M296.5,439.7V426.2H323M296.5,439.7V453.2H323M323,453.2V438.9H349.5M323,453.2V467.5H349.5M349.5,467.5V451.6H376M349.5,467.5V483.3H376M376,483.3V470.6H402.5M402.5,470.6V464.3H429M402.5,470.6V477H429M376,483.3V496H402.5M402.5,496V489.7H429M402.5,496V502.4H429M243.5,474V521.4H270M270,521.4V515.1H296.5M270,521.4V527.8H296.5M31.5,293.9V540.5H58M5,437V580.2H31.5M31.5,580.2V562.7H58M58,562.7V553.2H84.5M58,562.7V572.2H84.5M84.5,572.2V565.9H111M84.5,572.2V578.6H111M31.5,580.2V597.6H58M58,597.6V591.3H84.5M58,597.6V604H84.5" stroke="lightgrey" class="inapplicable"></path><path d="M243.5,156.2V165.8H270" stroke="darkgrey"></path><path d="M270,165.8V159.4H296.5" stroke="#fc8d59"></path><path d="M270,165.8V172.1H296.5" stroke="#91bfdb"></path><text x="7" y="440" class="node" fill="#4A6FE3">1</text><text x="33.5" y="296.9" class="node" fill="#4A6FE3">1</text><text x="60" y="50.3" class="node" fill="#4A6FE3">1</text><text x="86.5" y="16.4" class="node" fill="#4A6FE3">1</text><text x="86.5" y="84.3" class="node" fill="#4A6FE3">1</text><text x="113" y="46.5" class="node" fill="#E28699">0.2</text><text x="139.5" y="57.6" class="node" fill="#E5D0D3">0.44</text><text x="166" y="67.2" class="node" fill="#4A6FE3">1</text><text x="113" y="122.1" class="node" fill="#D95A7A">0.07</text><text x="139.5" y="158.1" class="node" fill="#C4C9E3">0.61</text><text x="166" y="217.2" class="node" fill="#4A6FE3">1</text><text x="192.5" y="121.1" class="node" fill="#CFD2E3">0.58</text><text x="219" y="130.7" class="node" fill="#CFD2E3">0.58</text><text x="192.5" y="313.3" class="node" fill="#E4D6D8">0.46</text><text x="219" y="199.7" class="node" fill="#E4D6D8">0.46</text><text x="245.5" y="159.2" class="node" fill="#DDDEE3">0.52</text><text x="272" y="168.8" class="node" fill="#4A6FE3">1</text><text x="245.5" y="240.2" class="node" fill="#7A8DE1">0.87</text><text x="272" y="194.2" class="node" fill="#4A6FE3">1</text><text x="272" y="286.2" class="node" fill="#7A8DE1">0.87</text><text x="298.5" y="235.4" class="node" fill="#9DA8E2">0.75</text><text x="325" y="219.6" class="node" fill="#4A6FE3">1</text><text x="325" y="251.1" class="node" fill="#9DA8E2">0.75</text><text x="351.5" y="263.6" class="node" fill="#9DA8E2">0.75</text><text x="378" y="276" class="node" fill="#4A6FE3">1</text><text x="404.5" y="287.9" class="node" fill="#4A6FE3">1</text><text x="431" y="299" class="node" fill="#4A6FE3">1</text><text x="457.5" y="308.5" class="node" fill="#4A6FE3">1</text><text x="298.5" y="337.1" class="node" fill="#D5D7E3">0.55</text><text x="325" y="346.6" class="node" fill="#D2D4E3">0.56</text><text x="219" y="426.9" class="node" fill="#B4BBE3">0.67</text><text x="245.5" y="376.8" class="node" fill="#4A6FE3">1</text><text x="272" y="387.9" class="node" fill="#4A6FE3">1</text><text x="298.5" y="397.4" class="node" fill="#4A6FE3">1</text><text x="245.5" y="477" class="node" fill="#B4BBE3">0.67</text><text x="272" y="429.6" class="node" fill="#DDDEE3">0.52</text><text x="298.5" y="442.7" class="node" fill="#DDDEE3">0.52</text><text x="325" y="456.2" class="node" fill="#DDDEE3">0.52</text><text x="351.5" y="470.5" class="node" fill="#D7D9E3">0.54</text><text x="378" y="486.3" class="node" fill="#7D8FE1">0.86</text><text x="404.5" y="473.6" class="node" fill="#E5A8B3">0.31</text><text x="404.5" y="499" class="node" fill="#4A6FE3">1</text><text x="272" y="524.4" class="node" fill="#DADBE3">0.53</text><text x="33.5" y="583.2" class="node" fill="#4A6FE3">1</text><text x="60" y="565.7" class="node" fill="#4A6FE3">1</text><text x="86.5" y="575.2" class="node" fill="#B4BBE3">0.67</text><text x="60" y="600.6" class="node" fill="#4A6FE3">1</text></svg>
