<svg xmlns="http://www.w3.org/2000/svg" version="1.1" width="682" height="612" class="tree" data-char="163"><text x="678" y="15.4" text-anchor="end" class="stepsLabel">Character adds <tspan class="score">2</tspan> to tree score</text><text x="678" y="27.8" text-anchor="end" class="stepsLabel"><tspan class="score">0</tspan> additional regions</text><text x="678" y="40.2" text-anchor="end" class="stepsLabel">CI = 0.5; Fitch CI = 0.5; Fitch RI = 0</text><text x="678" y="65" text-anchor="end" class="stepsLabel"><tspan dy="16">An optimal tree under:</tspan><tspan x="680" style="font-style:italic" class="notThisAn" dy="1.2em">Equal weights</tspan><tspan x="680" style="font-style:italic" class="notThisAn" dy="1.2em">Implied weights, k = 2</tspan><tspan x="680" style="font-style:italic" class="notThisAn" dy="1.2em">IW, k = 3</tspan><tspan x="680" style="font-style:italic" class="thisAn" dy="1.2em">IW, k = 4.5</tspan><tspan x="680" style="font-style:italic" class="notThisAn" dy="1.2em">IW, k = 7</tspan><tspan x="680" style="font-style:italic" class="notThisAn" dy="1.2em">IW, k = 10.5</tspan><tspan x="680" style="font-style:italic" class="notThisAn" dy="1.2em">IW, k = 16</tspan><tspan x="680" style="font-style:italic" class="notThisAn" dy="1.2em">IW, k = 24</tspan></text><text x="80.3" y="594.3" fill="#fc8d59" class="flag">[0]</text><text x="102.3" y="594.3" fill="#000" class="taxonLabel">Sipunculus</text><text x="80.3" y="607" fill="#fc8d59" class="flag">[0]</text><text x="102.3" y="607" fill="#000" class="taxonLabel">Serpula</text><text x="105.4" y="568.9" fill="#fc8d59" class="flag">[0]</text><text x="127.4" y="568.9" fill="#000" class="taxonLabel">Tonicella</text><text x="105.4" y="581.6" fill="#fc8d59" class="flag">[0]</text><text x="127.4" y="581.6" fill="#000" class="taxonLabel">Dentalium</text><text x="80.3" y="556.2" fill="grey" class="flag">[?]</text><text x="102.3" y="556.2" fill="#999" class="taxonLabel">Wiwaxia corrugata</text><text x="80.3" y="530.8" fill="#91bfdb" class="flag">[1]</text><text x="102.3" y="530.8" fill="#000" class="taxonLabel">Loxosomella</text><text x="80.3" y="543.5" fill="grey" class="flag">[?]</text><text x="102.3" y="543.5" fill="#999" class="taxonLabel">Cotyledion tylodes</text><text x="205.8" y="505.4" fill="grey" class="flag">[?]</text><text x="227.8" y="505.4" fill="#999" class="taxonLabel">Haplophrentis carinatus</text><text x="205.8" y="518.1" fill="grey" class="flag">[?]</text><text x="227.8" y="518.1" fill="#999" class="taxonLabel">Pedunculotheca diania</text><text x="256.1" y="480" fill="grey" class="flag">[?]</text><text x="278.1" y="480" fill="#999" class="taxonLabel">Micrina</text><text x="256.1" y="492.7" fill="grey" class="flag">[?]</text><text x="278.1" y="492.7" fill="#999" class="taxonLabel">Mickwitzia muralensis</text><text x="306.3" y="454.6" fill="grey" class="flag">[?]</text><text x="328.3" y="454.6" fill="#999" class="taxonLabel">Micromitra</text><text x="306.3" y="467.3" fill="grey" class="flag">[?]</text><text x="328.3" y="467.3" fill="#999" class="taxonLabel">Askepasma toddense</text><text x="356.5" y="429.2" fill="grey" class="flag">[?]</text><text x="378.5" y="429.2" fill="#999" class="taxonLabel">Tomteluva perturbata</text><text x="356.5" y="441.9" fill="grey" class="flag">[?]</text><text x="378.5" y="441.9" fill="#999" class="taxonLabel">Yuganotheca elegans</text><text x="331.4" y="416.5" fill="grey" class="flag">[?]</text><text x="353.4" y="416.5" fill="#999" class="taxonLabel">Salanygolina</text><text x="482" y="391.1" fill="grey" class="flag">[?]</text><text x="504" y="391.1" fill="#999" class="taxonLabel">Orthis</text><text x="482" y="403.8" fill="#fc8d59" class="flag">[0]</text><text x="504" y="403.8" fill="#000" class="taxonLabel">Terebratulina</text><text x="456.9" y="378.4" fill="grey" class="flag">[?]</text><text x="478.9" y="378.4" fill="#999" class="taxonLabel">Alisina</text><text x="431.8" y="365.7" fill="grey" class="flag">[?]</text><text x="453.8" y="365.7" fill="#999" class="taxonLabel">Longtancunella chengjiangensis</text><text x="406.7" y="353" fill="grey" class="flag">[?]</text><text x="428.7" y="353" fill="#999" class="taxonLabel">Glyptoria</text><text x="381.6" y="340.3" fill="grey" class="flag">[?]</text><text x="403.6" y="340.3" fill="#999" class="taxonLabel">Nisusia sulcata</text><text x="356.5" y="327.6" fill="grey" class="flag">[?]</text><text x="378.5" y="327.6" fill="#999" class="taxonLabel">Kutorgina chengjiangensis</text><text x="356.5" y="302.1" fill="grey" class="flag">[?]</text><text x="378.5" y="302.1" fill="#999" class="taxonLabel">Antigonambonites planus</text><text x="356.5" y="314.9" fill="grey" class="flag">[?]</text><text x="378.5" y="314.9" fill="#999" class="taxonLabel">Coolinia pecten</text><text x="356.5" y="276.7" fill="#fc8d59" class="flag">[0]</text><text x="378.5" y="276.7" fill="#000" class="taxonLabel">Novocrania</text><text x="356.5" y="289.4" fill="grey" class="flag">[?]</text><text x="378.5" y="289.4" fill="#999" class="taxonLabel">Craniops</text><text x="331.4" y="264" fill="grey" class="flag">[?]</text><text x="353.4" y="264" fill="#999" class="taxonLabel">Ussunia</text><text x="306.3" y="251.3" fill="grey" class="flag">[?]</text><text x="328.3" y="251.3" fill="#999" class="taxonLabel">Gasconsia</text><text x="356.5" y="225.9" fill="grey" class="flag">[?]</text><text x="378.5" y="225.9" fill="#999" class="taxonLabel">Botsfordia</text><text x="356.5" y="238.6" fill="grey" class="flag">[?]</text><text x="378.5" y="238.6" fill="#999" class="taxonLabel">Mummpikia nuda</text><text x="331.4" y="213.2" fill="grey" class="flag">[?]</text><text x="353.4" y="213.2" fill="#999" class="taxonLabel">Eoobolus</text><text x="431.8" y="187.8" fill="grey" class="flag">[?]</text><text x="453.8" y="187.8" fill="#999" class="taxonLabel">Acanthotretella spinosa</text><text x="431.8" y="200.5" fill="grey" class="flag">[?]</text><text x="453.8" y="200.5" fill="#999" class="taxonLabel">Siphonobolus priscus</text><text x="406.7" y="175.1" fill="grey" class="flag">[?]</text><text x="428.7" y="175.1" fill="#999" class="taxonLabel">Clupeafumosus socialis</text><text x="381.6" y="162.4" fill="grey" class="flag">[?]</text><text x="403.6" y="162.4" fill="#999" class="taxonLabel">Lingulosacculus</text><text x="381.6" y="137" fill="#fc8d59" class="flag">[0]</text><text x="403.6" y="137" fill="#000" class="taxonLabel">Lingula</text><text x="381.6" y="149.7" fill="grey" class="flag">[?]</text><text x="403.6" y="149.7" fill="#999" class="taxonLabel">Lingulellotreta malongensis</text><text x="331.4" y="124.3" fill="grey" class="flag">[?]</text><text x="353.4" y="124.3" fill="#999" class="taxonLabel">Pelagodiscus atlanticus</text><text x="205.8" y="111.6" fill="grey" class="flag">[?]</text><text x="227.8" y="111.6" fill="#999" class="taxonLabel">Paterimitra</text><text x="155.6" y="98.9" fill="grey" class="flag">[?]</text><text x="177.6" y="98.9" fill="#999" class="taxonLabel">Heliomedusa orienta</text><text x="155.6" y="73.5" fill="grey" class="flag">[?]</text><text x="177.6" y="73.5" fill="#999" class="taxonLabel">Halkieria evangelista</text><text x="155.6" y="86.2" fill="grey" class="flag">[?]</text><text x="177.6" y="86.2" fill="#999" class="taxonLabel">Dailyatia</text><text x="130.5" y="48.1" fill="grey" class="flag">[?]</text><text x="152.5" y="48.1" fill="#999" class="taxonLabel">Namacalathus</text><text x="130.5" y="60.8" fill="#91bfdb" class="flag">[1]</text><text x="152.5" y="60.8" fill="#000" class="taxonLabel">Phoronis</text><text x="130.5" y="10" fill="#fc8d59" class="flag">[0]</text><text x="152.5" y="10" fill="#000" class="taxonLabel">Flustra</text><text x="130.5" y="22.7" fill="#fc8d59" class="flag">[0]</text><text x="152.5" y="22.7" fill="#000" class="taxonLabel">Amathia</text><text x="105.4" y="35.4" fill="grey" class="flag">[?]</text><text x="127.4" y="35.4" fill="#999" class="taxonLabel">Eccentrotheca</text><path d="M5,439.6V298.9H30.1M30.1,298.9V63.8H55.2M55.2,63.8V22.9H80.3M80.3,22.9V13.4H105.4M105.4,13.4V7H130.5M105.4,13.4V19.7H130.5M80.3,22.9V32.4H105.4M55.2,63.8V104.6H80.3M80.3,104.6V51.5H105.4M80.3,104.6V157.8H105.4M105.4,157.8V76.9H130.5M130.5,76.9V70.5H155.6M130.5,76.9V83.2H155.6M105.4,157.8V238.7H130.5M130.5,238.7V95.9H155.6M130.5,238.7V381.6H155.6M155.6,381.6V254.4H180.7M180.7,254.4V108.6H205.8M180.7,254.4V400.2H205.8M205.8,400.2V317.1H230.9M230.9,317.1V219.3H256.1M256.1,219.3V179.1H281.2M281.2,179.1V138.4H306.3M306.3,138.4V121.3H331.4M306.3,138.4V155.5H331.4M331.4,155.5V140.4H356.5M356.5,140.4V134H381.6M356.5,140.4V146.7H381.6M331.4,155.5V170.5H356.5M356.5,170.5V159.4H381.6M356.5,170.5V181.7H381.6M381.6,181.7V172.1H406.7M381.6,181.7V191.2H406.7M406.7,191.2V184.8H431.8M406.7,191.2V197.5H431.8M281.2,179.1V219.8H306.3M306.3,219.8V210.2H331.4M306.3,219.8V229.3H331.4M331.4,229.3V222.9H356.5M331.4,229.3V235.6H356.5M256.1,219.3V259.5H281.2M281.2,259.5V248.3H306.3M281.2,259.5V270.6H306.3M306.3,270.6V261H331.4M306.3,270.6V280.1H331.4M331.4,280.1V273.7H356.5M331.4,280.1V286.4H356.5M230.9,317.1V415H256.1M256.1,415V372.1H281.2M281.2,372.1V321.3H306.3M306.3,321.3V305.5H331.4M331.4,305.5V299.1H356.5M331.4,305.5V311.9H356.5M306.3,321.3V337.1H331.4M331.4,337.1V324.6H356.5M331.4,337.1V349.6H356.5M356.5,349.6V337.3H381.6M356.5,349.6V361.9H381.6M381.6,361.9V350H406.7M381.6,361.9V373.8H406.7M406.7,373.8V362.7H431.8M406.7,373.8V384.9H431.8M431.8,384.9V375.4H456.9M431.8,384.9V394.4H456.9M456.9,394.4V388.1H482M456.9,394.4V400.8H482M281.2,372.1V423H306.3M306.3,423V413.5H331.4M306.3,423V432.5H331.4M331.4,432.5V426.2H356.5M331.4,432.5V438.9H356.5M256.1,415V457.9H281.2M281.2,457.9V451.6H306.3M281.2,457.9V464.3H306.3M205.8,400.2V483.3H230.9M230.9,483.3V477H256.1M230.9,483.3V489.7H256.1M155.6,381.6V508.7H180.7M180.7,508.7V502.4H205.8M180.7,508.7V515.1H205.8M30.1,298.9V534.1H55.2M5,439.6V580.2H30.1M30.1,580.2V562.7H55.2M55.2,562.7V553.2H80.3M55.2,562.7V572.2H80.3M80.3,572.2V565.9H105.4M80.3,572.2V578.6H105.4M30.1,580.2V597.6H55.2M55.2,597.6V591.3H80.3M55.2,597.6V604H80.3" stroke="#fc8d59"></path><path d="M105.4,51.5V45.1H130.5M55.2,534.1V540.5H80.3" stroke="darkgrey"></path><path d="M105.4,51.5V57.8H130.5M55.2,534.1V527.8H80.3" stroke="#91bfdb"></path><text x="7" y="442.6" class="node" fill="#4A6FE3">1</text><text x="32.1" y="301.9" class="node" fill="#4A6FE3">1</text><text x="57.2" y="66.8" class="node" fill="#E38C9E">0.22</text><text x="82.3" y="25.9" class="node" fill="#D64F73">0.04</text><text x="107.4" y="16.4" class="node" fill="#4A6FE3">1</text><text x="82.3" y="107.6" class="node" fill="#DF758D">0.15</text><text x="107.4" y="54.5" class="node" fill="#4A6FE3">1</text><text x="107.4" y="160.8" class="node" fill="#A8B1E2">0.71</text><text x="132.5" y="79.9" class="node" fill="#E5C7CC">0.41</text><text x="132.5" y="241.7" class="node" fill="#4F72E2">0.99</text><text x="157.6" y="384.6" class="node" fill="#E6B4BD">0.35</text><text x="182.7" y="257.4" class="node" fill="#E6B4BD">0.35</text><text x="207.8" y="403.2" class="node" fill="#E6B4BD">0.35</text><text x="232.9" y="320.1" class="node" fill="#D95A7A">0.07</text><text x="258.1" y="222.3" class="node" fill="#E38C9E">0.22</text><text x="283.2" y="182.1" class="node" fill="#DDDEE3">0.52</text><text x="308.3" y="141.4" class="node" fill="#DDDEE3">0.52</text><text x="333.4" y="158.5" class="node" fill="#929FE1">0.79</text><text x="358.5" y="143.4" class="node" fill="#929FE1">0.79</text><text x="358.5" y="173.5" class="node" fill="#4A6FE3">1</text><text x="383.6" y="184.7" class="node" fill="#E6AEB8">0.33</text><text x="408.7" y="194.2" class="node" fill="#4A6FE3">1</text><text x="308.3" y="222.8" class="node" fill="#4F72E2">0.99</text><text x="333.4" y="232.3" class="node" fill="#929FE1">0.79</text><text x="283.2" y="262.5" class="node" fill="#E2E2E2">0.5</text><text x="308.3" y="273.6" class="node" fill="#4F72E2">0.99</text><text x="333.4" y="283.1" class="node" fill="#4A6FE3">1</text><text x="258.1" y="418" class="node" fill="#8091E1">0.85</text><text x="283.2" y="375.1" class="node" fill="#8091E1">0.85</text><text x="308.3" y="324.3" class="node" fill="#A3ADE2">0.73</text><text x="333.4" y="308.5" class="node" fill="#4A6FE3">1</text><text x="333.4" y="340.1" class="node" fill="#A6AFE2">0.72</text><text x="358.5" y="352.6" class="node" fill="#A6AFE2">0.72</text><text x="383.6" y="364.9" class="node" fill="#4F72E2">0.99</text><text x="408.7" y="376.8" class="node" fill="#4F72E2">0.99</text><text x="433.8" y="387.9" class="node" fill="#4A6FE3">1</text><text x="458.9" y="397.4" class="node" fill="#4F72E2">0.99</text><text x="308.3" y="426" class="node" fill="#D2D4E3">0.57</text><text x="333.4" y="435.5" class="node" fill="#CACDE3">0.59</text><text x="283.2" y="460.9" class="node" fill="#4A6FE3">1</text><text x="232.9" y="486.3" class="node" fill="#E38FA0">0.23</text><text x="182.7" y="511.7" class="node" fill="#4A6FE3">1</text><text x="57.2" y="537.1" class="node" fill="#E498A7">0.26</text><text x="32.1" y="583.2" class="node" fill="#4A6FE3">1</text><text x="57.2" y="565.7" class="node" fill="#4A6FE3">1</text><text x="82.3" y="575.2" class="node" fill="#A3ADE2">0.73</text><text x="57.2" y="600.6" class="node" fill="#4A6FE3">1</text></svg>
