<svg xmlns="http://www.w3.org/2000/svg" version="1.1" width="682" height="612" class="tree" data-char="52"><text x="678" y="15.4" text-anchor="end" class="stepsLabel">Character adds <tspan class="score">1</tspan> to tree score</text><text x="678" y="27.8" text-anchor="end" class="stepsLabel"><tspan class="score">0</tspan> additional regions</text><text x="678" y="40.2" text-anchor="end" class="stepsLabel">CI = 1; Fitch CI = 1; Fitch RI = 1</text><text x="678" y="65" text-anchor="end" class="stepsLabel"><tspan dy="16" fill="#34caaf">An optimal tree under:</tspan><tspan x="680" style="font-style:italic" class="thisAn" dy="1.2em">Equal weights</tspan><tspan x="680" style="font-style:italic" class="notThisAn" dy="1.2em">Implied weights, k = 2</tspan><tspan x="680" style="font-style:italic" class="notThisAn" dy="1.2em">IW, k = 3</tspan><tspan x="680" style="font-style:italic" class="notThisAn" dy="1.2em">IW, k = 4.5</tspan><tspan x="680" style="font-style:italic" class="notThisAn" dy="1.2em">IW, k = 7</tspan><tspan x="680" style="font-style:italic" class="notThisAn" dy="1.2em">IW, k = 10.5</tspan><tspan x="680" style="font-style:italic" class="notThisAn" dy="1.2em">IW, k = 16</tspan><tspan x="680" style="font-style:italic" class="notThisAn" dy="1.2em">IW, k = 24</tspan></text><text x="117.2" y="594.3" fill="#91bfdb" class="flag">[1]</text><text x="139.2" y="594.3" fill="#000" class="taxonLabel">Dentalium</text><text x="117.2" y="607" fill="#91bfdb" class="flag">[1]</text><text x="139.2" y="607" fill="#000" class="taxonLabel">Tonicella</text><text x="89.2" y="581.6" fill="grey" class="flag">[?]</text><text x="111.2" y="581.6" fill="#999" class="taxonLabel">Wiwaxia corrugata</text><text x="89.2" y="556.2" fill="#fc8d59" class="flag">[0]</text><text x="111.2" y="556.2" fill="#000" class="taxonLabel">Sipunculus</text><text x="89.2" y="568.9" fill="#fc8d59" class="flag">[0]</text><text x="111.2" y="568.9" fill="#000" class="taxonLabel">Serpula</text><text x="341.7" y="518.1" fill="grey" class="flag">[?]</text><text x="363.7" y="518.1" fill="#999" class="taxonLabel">Yuganotheca elegans</text><text x="341.7" y="530.8" fill="grey" class="flag">[?]</text><text x="363.7" y="530.8" fill="#999" class="taxonLabel">Tomteluva perturbata</text><text x="313.6" y="505.4" fill="grey" class="flag">[?]</text><text x="335.6" y="505.4" fill="#999" class="taxonLabel">Salanygolina</text><text x="482" y="480" fill="grey" class="flag">[?]</text><text x="504" y="480" fill="#999" class="taxonLabel">Orthis</text><text x="482" y="492.7" fill="#fc8d59" class="flag">[0]</text><text x="504" y="492.7" fill="#000" class="taxonLabel">Terebratulina</text><text x="453.9" y="467.3" fill="grey" class="flag">[?]</text><text x="475.9" y="467.3" fill="#999" class="taxonLabel">Alisina</text><text x="425.9" y="454.6" fill="grey" class="flag">[?]</text><text x="447.9" y="454.6" fill="#999" class="taxonLabel">Longtancunella chengjiangensis</text><text x="397.8" y="441.9" fill="grey" class="flag">[?]</text><text x="419.8" y="441.9" fill="#999" class="taxonLabel">Glyptoria</text><text x="369.8" y="429.2" fill="grey" class="flag">[?]</text><text x="391.8" y="429.2" fill="#999" class="taxonLabel">Nisusia sulcata</text><text x="341.7" y="416.5" fill="grey" class="flag">[?]</text><text x="363.7" y="416.5" fill="#999" class="taxonLabel">Kutorgina chengjiangensis</text><text x="341.7" y="391.1" fill="grey" class="flag">[?]</text><text x="363.7" y="391.1" fill="#999" class="taxonLabel">Antigonambonites planus</text><text x="341.7" y="403.8" fill="grey" class="flag">[?]</text><text x="363.7" y="403.8" fill="#999" class="taxonLabel">Coolinia pecten</text><text x="285.6" y="365.7" fill="grey" class="flag">[?]</text><text x="307.6" y="365.7" fill="#999" class="taxonLabel">Askepasma toddense</text><text x="285.6" y="378.4" fill="grey" class="flag">[?]</text><text x="307.6" y="378.4" fill="#999" class="taxonLabel">Micromitra</text><text x="285.6" y="340.3" fill="grey" class="flag">[?]</text><text x="307.6" y="340.3" fill="#999" class="taxonLabel">Haplophrentis carinatus</text><text x="285.6" y="353" fill="grey" class="flag">[?]</text><text x="307.6" y="353" fill="#999" class="taxonLabel">Pedunculotheca diania</text><text x="257.5" y="327.6" fill="grey" class="flag">[?]</text><text x="279.5" y="327.6" fill="#999" class="taxonLabel">Paterimitra</text><text x="285.6" y="302.1" fill="#fc8d59" class="flag">[0]</text><text x="307.6" y="302.1" fill="#000" class="taxonLabel">Pelagodiscus atlanticus</text><text x="285.6" y="314.9" fill="grey" class="flag">[?]</text><text x="307.6" y="314.9" fill="#999" class="taxonLabel">Mummpikia nuda</text><text x="453.9" y="276.7" fill="grey" class="flag">[?]</text><text x="475.9" y="276.7" fill="#999" class="taxonLabel">Acanthotretella spinosa</text><text x="453.9" y="289.4" fill="grey" class="flag">[?]</text><text x="475.9" y="289.4" fill="#999" class="taxonLabel">Siphonobolus priscus</text><text x="425.9" y="264" fill="grey" class="flag">[?]</text><text x="447.9" y="264" fill="#999" class="taxonLabel">Lingulosacculus</text><text x="397.8" y="251.3" fill="grey" class="flag">[?]</text><text x="419.8" y="251.3" fill="#999" class="taxonLabel">Clupeafumosus socialis</text><text x="369.8" y="238.6" fill="grey" class="flag">[?]</text><text x="391.8" y="238.6" fill="#999" class="taxonLabel">Lingulellotreta malongensis</text><text x="341.7" y="225.9" fill="grey" class="flag">[?]</text><text x="363.7" y="225.9" fill="#999" class="taxonLabel">Botsfordia</text><text x="313.6" y="213.2" fill="#fc8d59" class="flag">[0]</text><text x="335.6" y="213.2" fill="#000" class="taxonLabel">Lingula</text><text x="285.6" y="200.5" fill="grey" class="flag">[?]</text><text x="307.6" y="200.5" fill="#999" class="taxonLabel">Eoobolus</text><text x="313.6" y="175.1" fill="grey" class="flag">[?]</text><text x="335.6" y="175.1" fill="#999" class="taxonLabel">Craniops</text><text x="313.6" y="187.8" fill="#fc8d59" class="flag">[0]</text><text x="335.6" y="187.8" fill="#000" class="taxonLabel">Novocrania</text><text x="285.6" y="162.4" fill="grey" class="flag">[?]</text><text x="307.6" y="162.4" fill="#999" class="taxonLabel">Ussunia</text><text x="257.5" y="149.7" fill="grey" class="flag">[?]</text><text x="279.5" y="149.7" fill="#999" class="taxonLabel">Gasconsia</text><text x="229.5" y="124.3" fill="grey" class="flag">[?]</text><text x="251.5" y="124.3" fill="#999" class="taxonLabel">Heliomedusa orienta</text><text x="229.5" y="137" fill="grey" class="flag">[?]</text><text x="251.5" y="137" fill="#999" class="taxonLabel">Mickwitzia muralensis</text><text x="201.4" y="111.6" fill="grey" class="flag">[?]</text><text x="223.4" y="111.6" fill="#999" class="taxonLabel">Micrina</text><text x="145.3" y="98.9" fill="grey" class="flag">[?]</text><text x="167.3" y="98.9" fill="#999" class="taxonLabel">Halkieria evangelista</text><text x="229.5" y="73.5" fill="grey" class="flag">[?]</text><text x="251.5" y="73.5" fill="#999" class="taxonLabel">Namacalathus</text><text x="229.5" y="86.2" fill="#fc8d59" class="flag">[0]</text><text x="251.5" y="86.2" fill="#000" class="taxonLabel">Phoronis</text><text x="201.4" y="60.8" fill="grey" class="flag">[?]</text><text x="223.4" y="60.8" fill="#999" class="taxonLabel">Dailyatia</text><text x="173.4" y="48.1" fill="grey" class="flag">[?]</text><text x="195.4" y="48.1" fill="#999" class="taxonLabel">Eccentrotheca</text><text x="145.3" y="35.4" fill="grey" class="flag">[?]</text><text x="167.3" y="35.4" fill="#999" class="taxonLabel">Cotyledion tylodes</text><text x="117.2" y="10" fill="#fc8d59" class="flag">[0]</text><text x="139.2" y="10" fill="#000" class="taxonLabel">Flustra</text><text x="117.2" y="22.7" fill="#fc8d59" class="flag">[0]</text><text x="139.2" y="22.7" fill="#000" class="taxonLabel">Amathia</text><text x="61.1" y="543.5" fill="#fc8d59" class="flag">[0]</text><text x="83.1" y="543.5" fill="#000" class="taxonLabel">Loxosomella</text><path d="M5,435.9V297.9H33.1M33.1,297.9V55.3H61.1M61.1,55.3V13.4H89.2M89.2,13.4V7H117.2M89.2,13.4V19.7H117.2M61.1,55.3V97.3H89.2M89.2,97.3V44.3H117.2M117.2,44.3V32.4H145.3M117.2,44.3V56.2H145.3M145.3,56.2V45.1H173.4M145.3,56.2V67.3H173.4M173.4,67.3V57.8H201.4M173.4,67.3V76.9H201.4M201.4,76.9V70.5H229.5M201.4,76.9V83.2H229.5M89.2,97.3V150.3H117.2M117.2,150.3V95.9H145.3M117.2,150.3V204.7H145.3M145.3,204.7V118.1H173.4M173.4,118.1V108.6H201.4M173.4,118.1V127.7H201.4M201.4,127.7V121.3H229.5M201.4,127.7V134H229.5M145.3,204.7V291.2H173.4M173.4,291.2V207.8H201.4M201.4,207.8V157.8H229.5M229.5,157.8V146.7H257.5M229.5,157.8V169H257.5M257.5,169V159.4H285.6M257.5,169V178.5H285.6M285.6,178.5V172.1H313.6M285.6,178.5V184.8H313.6M201.4,207.8V257.8H229.5M229.5,257.8V210.1H257.5M257.5,210.1V197.5H285.6M257.5,210.1V222.7H285.6M285.6,222.7V210.2H313.6M285.6,222.7V235.2H313.6M313.6,235.2V222.9H341.7M313.6,235.2V247.5H341.7M341.7,247.5V235.6H369.8M341.7,247.5V259.5H369.8M369.8,259.5V248.3H397.8M369.8,259.5V270.6H397.8M397.8,270.6V261H425.9M397.8,270.6V280.1H425.9M425.9,280.1V273.7H453.9M425.9,280.1V286.4H453.9M229.5,257.8V305.5H257.5M257.5,305.5V299.1H285.6M257.5,305.5V311.9H285.6M173.4,291.2V374.6H201.4M201.4,374.6V334.1H229.5M229.5,334.1V324.6H257.5M229.5,334.1V343.6H257.5M257.5,343.6V337.3H285.6M257.5,343.6V350H285.6M201.4,374.6V415H229.5M229.5,415V369H257.5M257.5,369V362.7H285.6M257.5,369V375.4H285.6M229.5,415V461.1H257.5M257.5,461.1V410.2H285.6M285.6,410.2V394.4H313.6M313.6,394.4V388.1H341.7M313.6,394.4V400.8H341.7M285.6,410.2V426H313.6M313.6,426V413.5H341.7M313.6,426V438.5H341.7M341.7,438.5V426.2H369.8M341.7,438.5V450.8H369.8M369.8,450.8V438.9H397.8M369.8,450.8V462.7H397.8M397.8,462.7V451.6H425.9M397.8,462.7V473.8H425.9M425.9,473.8V464.3H453.9M425.9,473.8V483.3H453.9M453.9,483.3V477H482M453.9,483.3V489.7H482M257.5,461.1V511.9H285.6M285.6,511.9V502.4H313.6M285.6,511.9V521.4H313.6M313.6,521.4V515.1H341.7M313.6,521.4V527.8H341.7M33.1,297.9V540.5H61.1M5,435.9V573.8H33.1M33.1,573.8V559.5H61.1M61.1,559.5V553.2H89.2M61.1,559.5V565.9H89.2M33.1,573.8V588.1H61.1" stroke="#fc8d59"></path><path d="M61.1,588.1V578.6H89.2" stroke="darkgrey"></path><path d="M61.1,588.1V597.6H89.2M89.2,597.6V591.3H117.2M89.2,597.6V604H117.2" stroke="#91bfdb"></path><text x="7" y="438.9" class="node" fill="#4A6FE3">1</text><text x="35.1" y="300.9" class="node" fill="#4A6FE3">1</text><text x="63.1" y="58.3" class="node" fill="#4A6FE3">1</text><text x="91.2" y="16.4" class="node" fill="#4A6FE3">1</text><text x="91.2" y="100.3" class="node" fill="#4A6FE3">1</text><text x="119.2" y="47.3" class="node" fill="#E38FA0">0.23</text><text x="147.3" y="59.2" class="node" fill="#D85778">0.06</text><text x="175.4" y="70.3" class="node" fill="#DD6C86">0.12</text><text x="203.4" y="79.9" class="node" fill="#4A6FE3">1</text><text x="119.2" y="153.3" class="node" fill="#C4C9E3">0.61</text><text x="147.3" y="207.7" class="node" fill="#4A6FE3">1</text><text x="175.4" y="121.1" class="node" fill="#CFD2E3">0.58</text><text x="203.4" y="130.7" class="node" fill="#CFD2E3">0.58</text><text x="175.4" y="294.2" class="node" fill="#E4D6D8">0.46</text><text x="203.4" y="210.8" class="node" fill="#B4BBE3">0.67</text><text x="231.5" y="160.8" class="node" fill="#4A6FE3">1</text><text x="259.5" y="172" class="node" fill="#4A6FE3">1</text><text x="287.6" y="181.5" class="node" fill="#4A6FE3">1</text><text x="231.5" y="260.8" class="node" fill="#B4BBE3">0.67</text><text x="259.5" y="213.1" class="node" fill="#DDDEE3">0.52</text><text x="287.6" y="225.7" class="node" fill="#DDDEE3">0.52</text><text x="315.6" y="238.2" class="node" fill="#DDDEE3">0.52</text><text x="343.7" y="250.5" class="node" fill="#D7D9E3">0.54</text><text x="371.8" y="262.5" class="node" fill="#7D8FE1">0.86</text><text x="399.8" y="273.6" class="node" fill="#E392A2">0.24</text><text x="427.9" y="283.1" class="node" fill="#4A6FE3">1</text><text x="259.5" y="308.5" class="node" fill="#DADBE3">0.53</text><text x="203.4" y="377.6" class="node" fill="#E4D6D8">0.46</text><text x="231.5" y="337.1" class="node" fill="#DDDEE3">0.52</text><text x="259.5" y="346.6" class="node" fill="#4A6FE3">1</text><text x="231.5" y="418" class="node" fill="#7A8DE1">0.87</text><text x="259.5" y="372" class="node" fill="#4A6FE3">1</text><text x="259.5" y="464.1" class="node" fill="#7A8DE1">0.87</text><text x="287.6" y="413.2" class="node" fill="#9DA8E2">0.75</text><text x="315.6" y="397.4" class="node" fill="#4A6FE3">1</text><text x="315.6" y="429" class="node" fill="#9DA8E2">0.75</text><text x="343.7" y="441.5" class="node" fill="#9DA8E2">0.75</text><text x="371.8" y="453.8" class="node" fill="#4A6FE3">1</text><text x="399.8" y="465.7" class="node" fill="#4A6FE3">1</text><text x="427.9" y="476.8" class="node" fill="#4A6FE3">1</text><text x="455.9" y="486.3" class="node" fill="#4A6FE3">1</text><text x="287.6" y="514.9" class="node" fill="#D5D7E3">0.55</text><text x="315.6" y="524.4" class="node" fill="#D2D4E3">0.56</text><text x="35.1" y="576.8" class="node" fill="#4A6FE3">1</text><text x="63.1" y="562.5" class="node" fill="#4A6FE3">1</text><text x="63.1" y="591.1" class="node" fill="#4A6FE3">1</text><text x="91.2" y="600.6" class="node" fill="#B4BBE3">0.67</text></svg>
