<svg xmlns="http://www.w3.org/2000/svg" version="1.1" width="682" height="612" class="tree" data-char="91"><text x="678" y="15.7" text-anchor="end" class="stepsLabel">Character adds <tspan class="score">6</tspan> to tree score</text><text x="678" y="28.4" text-anchor="end" class="stepsLabel"><tspan class="score">1</tspan> additional region</text><text x="678" y="41.1" text-anchor="end" class="stepsLabel">CI = 0.33; Fitch CI = 0.33; Fitch RI = 0.5</text><text x="678" y="66.5" text-anchor="end" class="stepsLabel"><tspan dy="16">An optimal tree under:</tspan><tspan x="680" style="font-style:italic" class="thisAn" dy="1.2em">Equal weights</tspan><tspan x="680" style="font-style:italic" class="notThisAn" dy="1.2em">Implied weights, k = 2</tspan><tspan x="680" style="font-style:italic" class="notThisAn" dy="1.2em">IW, k = 3</tspan><tspan x="680" style="font-style:italic" class="notThisAn" dy="1.2em">IW, k = 4.5</tspan><tspan x="680" style="font-style:italic" class="notThisAn" dy="1.2em">IW, k = 7</tspan><tspan x="680" style="font-style:italic" class="notThisAn" dy="1.2em">IW, k = 10.5</tspan><tspan x="680" style="font-style:italic" class="notThisAn" dy="1.2em">IW, k = 16</tspan><tspan x="680" style="font-style:italic" class="notThisAn" dy="1.2em">IW, k = 24</tspan></text><text x="70" y="594" fill="lightgrey" class="flag">[-]</text><text x="92" y="594" fill="lightgrey" class="taxonLabel">Sipunculus</text><text x="70" y="607" fill="lightgrey" class="flag">[-]</text><text x="92" y="607" fill="lightgrey" class="taxonLabel">Serpula</text><text x="91.7" y="568.1" fill="#fdae61" class="flag">[1]</text><text x="113.7" y="568.1" fill="#000" class="taxonLabel">Tonicella</text><text x="91.7" y="581" fill="lightgrey" class="flag">[-]</text><text x="113.7" y="581" fill="lightgrey" class="taxonLabel">Dentalium</text><text x="70" y="555.1" fill="lightgrey" class="flag">[-]</text><text x="92" y="555.1" fill="lightgrey" class="taxonLabel">Wiwaxia corrugata</text><text x="243.5" y="516.2" fill="#fdae61" class="flag">[1]</text><text x="265.5" y="516.2" fill="#000" class="taxonLabel">Pedunculotheca diania</text><text x="243.5" y="529.1" fill="#fdae61" class="flag">[1]</text><text x="265.5" y="529.1" fill="#000" class="taxonLabel">Haplophrentis carinatus</text><text x="330.2" y="490.2" fill="#fdae61" class="flag">[1]</text><text x="352.2" y="490.2" fill="#000" class="taxonLabel">Pelagodiscus atlanticus</text><text x="330.2" y="503.2" fill="#fdae61" class="flag">[1]</text><text x="352.2" y="503.2" fill="#000" class="taxonLabel">Mickwitzia muralensis</text><text x="308.5" y="477.2" fill="#abd9e9" class="flag">[2]</text><text x="330.5" y="477.2" fill="#000" class="taxonLabel">Micrina</text><text x="438.6" y="451.3" fill="grey" class="flag">[12]</text><text x="460.6" y="451.3" fill="grey" class="taxonLabel">Siphonobolus priscus</text><text x="438.6" y="464.2" fill="#abd9e9" class="flag">[2]</text><text x="460.6" y="464.2" fill="#000" class="taxonLabel">Acanthotretella spinosa</text><text x="438.6" y="425.3" fill="#abd9e9" class="flag">[2]</text><text x="460.6" y="425.3" fill="#000" class="taxonLabel">Lingulosacculus</text><text x="438.6" y="438.3" fill="grey" class="flag">[12]</text><text x="460.6" y="438.3" fill="grey" class="taxonLabel">Clupeafumosus socialis</text><text x="395.3" y="412.3" fill="#abd9e9" class="flag">[2]</text><text x="417.3" y="412.3" fill="#000" class="taxonLabel">Lingulellotreta malongensis</text><text x="373.6" y="399.3" fill="#abd9e9" class="flag">[2]</text><text x="395.6" y="399.3" fill="#000" class="taxonLabel">Botsfordia</text><text x="351.9" y="386.4" fill="#abd9e9" class="flag">[2]</text><text x="373.9" y="386.4" fill="#000" class="taxonLabel">Mummpikia nuda</text><text x="330.2" y="373.4" fill="#abd9e9" class="flag">[2]</text><text x="352.2" y="373.4" fill="#000" class="taxonLabel">Eoobolus</text><text x="308.5" y="360.4" fill="#2c7bb6" class="flag">[3]</text><text x="330.5" y="360.4" fill="#000" class="taxonLabel">Lingula</text><text x="308.5" y="334.5" fill="#abd9e9" class="flag">[2]</text><text x="330.5" y="334.5" fill="#000" class="taxonLabel">Micromitra</text><text x="308.5" y="347.4" fill="#abd9e9" class="flag">[2]</text><text x="330.5" y="347.4" fill="#000" class="taxonLabel">Gasconsia</text><text x="395.3" y="308.5" fill="#abd9e9" class="flag">[2]</text><text x="417.3" y="308.5" fill="#000" class="taxonLabel">Antigonambonites planus</text><text x="395.3" y="321.5" fill="#abd9e9" class="flag">[2]</text><text x="417.3" y="321.5" fill="#000" class="taxonLabel">Coolinia pecten</text><text x="482" y="282.5" fill="#abd9e9" class="flag">[2]</text><text x="504" y="282.5" fill="#000" class="taxonLabel">Terebratulina</text><text x="482" y="295.5" fill="#abd9e9" class="flag">[2]</text><text x="504" y="295.5" fill="#000" class="taxonLabel">Orthis</text><text x="460.3" y="269.6" fill="#abd9e9" class="flag">[2]</text><text x="482.3" y="269.6" fill="#000" class="taxonLabel">Alisina</text><text x="438.6" y="256.6" fill="#abd9e9" class="flag">[2]</text><text x="460.6" y="256.6" fill="#000" class="taxonLabel">Glyptoria</text><text x="417" y="243.6" fill="#abd9e9" class="flag">[2]</text><text x="439" y="243.6" fill="#000" class="taxonLabel">Nisusia sulcata</text><text x="395.3" y="230.6" fill="#abd9e9" class="flag">[2]</text><text x="417.3" y="230.6" fill="#000" class="taxonLabel">Kutorgina chengjiangensis</text><text x="351.9" y="217.7" fill="#abd9e9" class="flag">[2]</text><text x="373.9" y="217.7" fill="#000" class="taxonLabel">Longtancunella chengjiangensis</text><text x="373.6" y="191.7" fill="#fdae61" class="flag">[1]</text><text x="395.6" y="191.7" fill="#000" class="taxonLabel">Tomteluva perturbata</text><text x="373.6" y="204.7" fill="#fdae61" class="flag">[1]</text><text x="395.6" y="204.7" fill="#000" class="taxonLabel">Yuganotheca elegans</text><text x="351.9" y="178.7" fill="#abd9e9" class="flag">[2]</text><text x="373.9" y="178.7" fill="#000" class="taxonLabel">Salanygolina</text><text x="308.5" y="165.7" fill="#abd9e9" class="flag">[2]</text><text x="330.5" y="165.7" fill="#000" class="taxonLabel">Askepasma toddense</text><text x="243.5" y="152.8" fill="#abd9e9" class="flag">[2]</text><text x="265.5" y="152.8" fill="#000" class="taxonLabel">Paterimitra</text><text x="200.1" y="139.8" fill="#abd9e9" class="flag">[2]</text><text x="222.1" y="139.8" fill="#000" class="taxonLabel">Heliomedusa orienta</text><text x="221.8" y="113.8" fill="#fdae61" class="flag">[1]</text><text x="243.8" y="113.8" fill="#000" class="taxonLabel">Craniops</text><text x="221.8" y="126.8" fill="#fdae61" class="flag">[1]</text><text x="243.8" y="126.8" fill="#000" class="taxonLabel">Novocrania</text><text x="200.1" y="100.8" fill="#abd9e9" class="flag">[2]</text><text x="222.1" y="100.8" fill="#000" class="taxonLabel">Ussunia</text><text x="156.8" y="87.9" fill="#abd9e9" class="flag">[2]</text><text x="178.8" y="87.9" fill="#000" class="taxonLabel">Halkieria evangelista</text><text x="156.8" y="61.9" fill="lightgrey" class="flag">[-]</text><text x="178.8" y="61.9" fill="lightgrey" class="taxonLabel">Cotyledion tylodes</text><text x="156.8" y="74.9" fill="lightgrey" class="flag">[-]</text><text x="178.8" y="74.9" fill="lightgrey" class="taxonLabel">Dailyatia</text><text x="113.4" y="48.9" fill="lightgrey" class="flag">[-]</text><text x="135.4" y="48.9" fill="lightgrey" class="taxonLabel">Eccentrotheca</text><text x="113.4" y="23" fill="lightgrey" class="flag">[-]</text><text x="135.4" y="23" fill="lightgrey" class="taxonLabel">Phoronis</text><text x="113.4" y="36" fill="lightgrey" class="flag">[-]</text><text x="135.4" y="36" fill="lightgrey" class="taxonLabel">Namacalathus</text><text x="70" y="10" fill="lightgrey" class="flag">[-]</text><text x="92" y="10" fill="lightgrey" class="taxonLabel">Flustra</text><text x="48.4" y="542.1" fill="lightgrey" class="flag">[-]</text><text x="70.4" y="542.1" fill="lightgrey" class="taxonLabel">Loxosomella</text><path d="M5,431.7V283.7H26.7M26.7,283.7V28.3H48.4M48.4,28.3V7H70M48.4,28.3V49.7H70M70,49.7V26.5H91.7M91.7,26.5V20H113.4M91.7,26.5V33H113.4M70,49.7V72.9H91.7M91.7,72.9V45.9H113.4M91.7,72.9V99.9H113.4M113.4,99.9V65.4H135.1M135.1,65.4V58.9H156.8M135.1,65.4V71.9H156.8M26.7,283.7V539.1H48.4M5,431.7V579.7H26.7M26.7,579.7V561.8H48.4M48.4,561.8V552.1H70M48.4,561.8V571.6H70M70,571.6V578H91.7M26.7,579.7V597.5H48.4M48.4,597.5V591H70M48.4,597.5V604H70" stroke="lightgrey" class="inapplicable"></path><path d="M113.4,99.9V134.4H135.1M135.1,134.4V84.9H156.8M135.1,134.4V183.9H156.8M156.8,183.9V107.6H178.5M178.5,107.6V97.8H200.1M156.8,183.9V260.2H178.5M178.5,260.2V136.8H200.1M178.5,260.2V383.6H200.1M200.1,383.6V247.6H221.8M221.8,247.6V149.8H243.5M221.8,247.6V345.4H243.5M243.5,345.4V263.5H265.2M265.2,263.5V189.1H286.9M286.9,189.1V162.7H308.5M286.9,189.1V215.4H308.5M308.5,215.4V185.5H330.2M330.2,185.5V175.7H351.9M308.5,215.4V245.4H330.2M330.2,245.4V214.7H351.9M330.2,245.4V276.1H351.9M351.9,276.1V240.2H373.6M373.6,240.2V227.6H395.3M373.6,240.2V252.8H395.3M395.3,252.8V240.6H417M395.3,252.8V264.9H417M417,264.9V253.6H438.6M417,264.9V276.3H438.6M438.6,276.3V266.6H460.3M438.6,276.3V286H460.3M460.3,286V279.5H482M460.3,286V292.5H482M351.9,276.1V312H373.6M373.6,312V305.5H395.3M373.6,312V318.5H395.3M265.2,263.5V337.9H286.9M286.9,337.9V331.5H308.5M286.9,337.9V344.4H308.5M243.5,345.4V427.3H265.2M265.2,427.3V370.6H286.9M286.9,370.6V383.8H308.5M308.5,383.8V370.4H330.2M308.5,383.8V397.2H330.2M330.2,397.2V383.4H351.9M330.2,397.2V410.9H351.9M351.9,410.9V396.3H373.6M351.9,410.9V425.5H373.6M373.6,425.5V409.3H395.3M373.6,425.5V441.8H395.3M395.3,441.8V428.8H417M417,428.8V422.3H438.6M417,428.8V435.3H438.6M395.3,441.8V454.8H417M417,454.8V448.3H438.6M417,454.8V461.2H438.6M265.2,427.3V484H286.9M286.9,484V474.2H308.5" stroke="#abd9e9"></path><path d="M178.5,107.6V117.3H200.1M200.1,117.3V110.8H221.8M200.1,117.3V123.8H221.8M330.2,185.5V195.2H351.9M351.9,195.2V188.7H373.6M351.9,195.2V201.7H373.6M286.9,484V493.7H308.5M308.5,493.7V487.2H330.2M308.5,493.7V500.2H330.2M200.1,383.6V519.6H221.8M221.8,519.6V513.2H243.5M221.8,519.6V526.1H243.5M70,571.6V565.1H91.7" stroke="#fdae61"></path><path d="M286.9,370.6V357.4H308.5" stroke="#2c7bb6"></path><text x="7" y="434.7" class="node" fill="#4A6FE3">1</text><text x="28.7" y="286.7" class="node" fill="#4A6FE3">1</text><text x="50.4" y="31.3" class="node" fill="#5776E2">0.97</text><text x="72" y="52.7" class="node" fill="#5776E2">0.97</text><text x="93.7" y="29.5" class="node" fill="#6982E1">0.92</text><text x="93.7" y="75.9" class="node" fill="#5776E2">0.97</text><text x="115.4" y="102.9" class="node" fill="#E4D9DB">0.47</text><text x="137.1" y="68.4" class="node" fill="#DB6581">0.1</text><text x="137.1" y="137.4" class="node" fill="#E5A8B3">0.31</text><text x="158.8" y="186.9" class="node" fill="#4A6FE3">1</text><text x="180.5" y="110.6" class="node" fill="#9DA8E2">0.75</text><text x="202.1" y="120.3" class="node" fill="#4A6FE3">1</text><text x="180.5" y="263.2" class="node" fill="#8998E1">0.82</text><text x="202.1" y="386.6" class="node" fill="#8998E1">0.82</text><text x="223.8" y="250.6" class="node" fill="#E4D9DB">0.47</text><text x="245.5" y="348.4" class="node" fill="#8998E1">0.82</text><text x="267.2" y="266.5" class="node" fill="#8998E1">0.82</text><text x="288.9" y="192.1" class="node" fill="#E17F94">0.18</text><text x="310.5" y="218.4" class="node" fill="#4A6FE3">1</text><text x="332.2" y="188.5" class="node" fill="#8998E1">0.82</text><text x="353.9" y="198.2" class="node" fill="#5374E2">0.98</text><text x="332.2" y="248.4" class="node" fill="#6982E1">0.92</text><text x="353.9" y="279.1" class="node" fill="#B1B8E2">0.68</text><text x="375.6" y="243.2" class="node" fill="#B1B8E2">0.68</text><text x="397.3" y="255.8" class="node" fill="#B1B8E2">0.68</text><text x="419" y="267.9" class="node" fill="#B1B8E2">0.68</text><text x="440.6" y="279.3" class="node" fill="#4A6FE3">1</text><text x="462.3" y="289" class="node" fill="#B4BBE3">0.67</text><text x="375.6" y="315" class="node" fill="#4A6FE3">1</text><text x="288.9" y="340.9" class="node" fill="#D2D4E3">0.57</text><text x="267.2" y="430.3" class="node" fill="#8696E1">0.83</text><text x="288.9" y="373.6" class="node" fill="#4A6FE3">1</text><text x="310.5" y="386.8" class="node" fill="#5776E2">0.97</text><text x="332.2" y="400.2" class="node" fill="#8696E1">0.83</text><text x="353.9" y="413.9" class="node" fill="#8696E1">0.83</text><text x="375.6" y="428.5" class="node" fill="#8696E1">0.83</text><text x="397.3" y="444.8" class="node" fill="#A3ADE2">0.73</text><text x="419" y="431.8" class="node" fill="#E495A5">0.25</text><text x="419" y="457.8" class="node" fill="#4A6FE3">1</text><text x="288.9" y="487" class="node" fill="#8696E1">0.83</text><text x="310.5" y="496.7" class="node" fill="#4A6FE3">1</text><text x="223.8" y="522.6" class="node" fill="#4A6FE3">1</text><text x="28.7" y="582.7" class="node" fill="#4A6FE3">1</text><text x="50.4" y="564.8" class="node" fill="#4A6FE3">1</text><text x="72" y="574.6" class="node" fill="#4A6FE3">1</text><text x="50.4" y="600.5" class="node" fill="#4A6FE3">1</text></svg>
