<svg xmlns="http://www.w3.org/2000/svg" version="1.1" width="682" height="682" class="tree" data-char="205"><text x="678" y="15.6" text-anchor="end" class="stepsLabel">Character adds <tspan class="score">3</tspan> to tree score</text><text x="678" y="28.2" text-anchor="end" class="stepsLabel"><tspan class="score">0</tspan> additional regions</text><text x="678" y="40.8" text-anchor="end" class="stepsLabel">CI = 0.33; Fitch CI = 0.33; Fitch RI = 0.33</text><text x="678" y="66" text-anchor="end" class="stepsLabel"><tspan dy="16" fill="#34caaf">An optimal tree under:</tspan><tspan x="680" style="font-style:italic" class="notThisAn" dy="1.2em">Equal weights</tspan><tspan x="680" style="font-style:italic" class="notThisAn" dy="1.2em">Implied weights, k = 2</tspan><tspan x="680" style="font-style:italic" class="notThisAn" dy="1.2em">IW, k = 3</tspan><tspan x="680" style="font-style:italic" class="notThisAn" dy="1.2em">IW, k = 4.5</tspan><tspan x="680" style="font-style:italic" class="notThisAn" dy="1.2em">IW, k = 7</tspan><tspan x="680" style="font-style:italic" class="thisAn" dy="1.2em">IW, k = 10.5</tspan><tspan x="680" style="font-style:italic" class="notThisAn" dy="1.2em">IW, k = 16</tspan><tspan x="680" style="font-style:italic" class="notThisAn" dy="1.2em">IW, k = 24</tspan></text><text x="105.4" y="664.2" fill="#fc8d59" class="flag">[0]</text><text x="127.4" y="664.2" fill="#000" class="taxonLabel">Tonicella</text><text x="105.4" y="677" fill="#fc8d59" class="flag">[0]</text><text x="127.4" y="677" fill="#000" class="taxonLabel">Dentalium</text><text x="80.3" y="651.3" fill="grey" class="flag">[?]</text><text x="102.3" y="651.3" fill="#999" class="taxonLabel">Wiwaxia corrugata</text><text x="80.3" y="625.7" fill="#91bfdb" class="flag">[1]</text><text x="102.3" y="625.7" fill="#000" class="taxonLabel">Sipunculus</text><text x="80.3" y="638.5" fill="#91bfdb" class="flag">[1]</text><text x="102.3" y="638.5" fill="#000" class="taxonLabel">Serpula</text><text x="381.6" y="587.2" fill="grey" class="flag">[?]</text><text x="403.6" y="587.2" fill="#999" class="taxonLabel">Pauxillites</text><text x="381.6" y="600" fill="grey" class="flag">[?]</text><text x="403.6" y="600" fill="#999" class="taxonLabel">Maxilites</text><text x="356.5" y="574.4" fill="grey" class="flag">[?]</text><text x="378.5" y="574.4" fill="#999" class="taxonLabel">Haplophrentis carinatus</text><text x="331.4" y="561.6" fill="grey" class="flag">[?]</text><text x="353.4" y="561.6" fill="#999" class="taxonLabel">Paramicrocornus</text><text x="306.3" y="548.7" fill="grey" class="flag">[?]</text><text x="328.3" y="548.7" fill="#999" class="taxonLabel">Conotheca</text><text x="281.2" y="535.9" fill="grey" class="flag">[?]</text><text x="303.2" y="535.9" fill="#999" class="taxonLabel">Bactrotheca</text><text x="256.1" y="523.1" fill="grey" class="flag">[?]</text><text x="278.1" y="523.1" fill="#999" class="taxonLabel">Pedunculotheca diania</text><text x="482" y="497.4" fill="grey" class="flag">[?]</text><text x="504" y="497.4" fill="#999" class="taxonLabel">Orthis</text><text x="482" y="510.2" fill="#fc8d59" class="flag">[0]</text><text x="504" y="510.2" fill="#000" class="taxonLabel">Terebratulina</text><text x="456.9" y="484.6" fill="grey" class="flag">[?]</text><text x="478.9" y="484.6" fill="#999" class="taxonLabel">Alisina</text><text x="431.8" y="471.8" fill="grey" class="flag">[?]</text><text x="453.8" y="471.8" fill="#999" class="taxonLabel">Longtancunella chengjiangensis</text><text x="406.7" y="458.9" fill="grey" class="flag">[?]</text><text x="428.7" y="458.9" fill="#999" class="taxonLabel">Glyptoria</text><text x="381.6" y="446.1" fill="grey" class="flag">[?]</text><text x="403.6" y="446.1" fill="#999" class="taxonLabel">Nisusia sulcata</text><text x="356.5" y="433.3" fill="grey" class="flag">[?]</text><text x="378.5" y="433.3" fill="#999" class="taxonLabel">Kutorgina chengjiangensis</text><text x="406.7" y="407.6" fill="grey" class="flag">[?]</text><text x="428.7" y="407.6" fill="#999" class="taxonLabel">Yuganotheca elegans</text><text x="406.7" y="420.5" fill="grey" class="flag">[?]</text><text x="428.7" y="420.5" fill="#999" class="taxonLabel">Tomteluva perturbata</text><text x="381.6" y="394.8" fill="grey" class="flag">[?]</text><text x="403.6" y="394.8" fill="#999" class="taxonLabel">Salanygolina</text><text x="381.6" y="369.2" fill="grey" class="flag">[?]</text><text x="403.6" y="369.2" fill="#999" class="taxonLabel">Antigonambonites planus</text><text x="381.6" y="382" fill="grey" class="flag">[?]</text><text x="403.6" y="382" fill="#999" class="taxonLabel">Coolinia pecten</text><text x="331.4" y="343.5" fill="grey" class="flag">[?]</text><text x="353.4" y="343.5" fill="#999" class="taxonLabel">Askepasma toddense</text><text x="331.4" y="356.3" fill="grey" class="flag">[?]</text><text x="353.4" y="356.3" fill="#999" class="taxonLabel">Micromitra</text><text x="431.8" y="317.8" fill="grey" class="flag">[?]</text><text x="453.8" y="317.8" fill="#999" class="taxonLabel">Mummpikia nuda</text><text x="431.8" y="330.7" fill="#fc8d59" class="flag">[0]</text><text x="453.8" y="330.7" fill="#000" class="taxonLabel">Pelagodiscus atlanticus</text><text x="406.7" y="305" fill="#fc8d59" class="flag">[0]</text><text x="428.7" y="305" fill="#000" class="taxonLabel">Lingula</text><text x="381.6" y="292.2" fill="grey" class="flag">[?]</text><text x="403.6" y="292.2" fill="#999" class="taxonLabel">Lingulellotreta malongensis</text><text x="406.7" y="266.5" fill="grey" class="flag">[?]</text><text x="428.7" y="266.5" fill="#999" class="taxonLabel">Acanthotretella spinosa</text><text x="406.7" y="279.4" fill="grey" class="flag">[?]</text><text x="428.7" y="279.4" fill="#999" class="taxonLabel">Siphonobolus priscus</text><text x="406.7" y="240.9" fill="grey" class="flag">[?]</text><text x="428.7" y="240.9" fill="#999" class="taxonLabel">Clupeafumosus socialis</text><text x="406.7" y="253.7" fill="grey" class="flag">[?]</text><text x="428.7" y="253.7" fill="#999" class="taxonLabel">Lingulosacculus</text><text x="356.5" y="215.2" fill="grey" class="flag">[?]</text><text x="378.5" y="215.2" fill="#999" class="taxonLabel">Eoobolus</text><text x="356.5" y="228.1" fill="grey" class="flag">[?]</text><text x="378.5" y="228.1" fill="#999" class="taxonLabel">Botsfordia</text><text x="406.7" y="189.6" fill="grey" class="flag">[?]</text><text x="428.7" y="189.6" fill="#999" class="taxonLabel">Craniops</text><text x="406.7" y="202.4" fill="grey" class="flag">[?]</text><text x="428.7" y="202.4" fill="#999" class="taxonLabel">Novocrania</text><text x="381.6" y="176.8" fill="grey" class="flag">[?]</text><text x="403.6" y="176.8" fill="#999" class="taxonLabel">Ussunia</text><text x="356.5" y="163.9" fill="grey" class="flag">[?]</text><text x="378.5" y="163.9" fill="#999" class="taxonLabel">Heliomedusa orienta</text><text x="331.4" y="151.1" fill="grey" class="flag">[?]</text><text x="353.4" y="151.1" fill="#999" class="taxonLabel">Gasconsia</text><text x="281.2" y="125.4" fill="grey" class="flag">[?]</text><text x="303.2" y="125.4" fill="#999" class="taxonLabel">Mickwitzia muralensis</text><text x="281.2" y="138.3" fill="grey" class="flag">[?]</text><text x="303.2" y="138.3" fill="#999" class="taxonLabel">Micrina</text><text x="205.8" y="112.6" fill="grey" class="flag">[?]</text><text x="227.8" y="112.6" fill="#999" class="taxonLabel">Paterimitra</text><text x="180.7" y="99.8" fill="grey" class="flag">[?]</text><text x="202.7" y="99.8" fill="#999" class="taxonLabel">Halkieria evangelista</text><text x="155.6" y="87" fill="grey" class="flag">[?]</text><text x="177.6" y="87" fill="#999" class="taxonLabel">Dailyatia</text><text x="155.6" y="61.3" fill="grey" class="flag">[?]</text><text x="177.6" y="61.3" fill="#999" class="taxonLabel">Cotyledion tylodes</text><text x="155.6" y="74.1" fill="grey" class="flag">[?]</text><text x="177.6" y="74.1" fill="#999" class="taxonLabel">Eccentrotheca</text><text x="130.5" y="35.7" fill="grey" class="flag">[?]</text><text x="152.5" y="35.7" fill="#999" class="taxonLabel">Namacalathus</text><text x="130.5" y="48.5" fill="#91bfdb" class="flag">[1]</text><text x="152.5" y="48.5" fill="#000" class="taxonLabel">Phoronis</text><text x="105.4" y="10" fill="#fc8d59" class="flag">[0]</text><text x="127.4" y="10" fill="#000" class="taxonLabel">Flustra</text><text x="105.4" y="22.8" fill="#fc8d59" class="flag">[0]</text><text x="127.4" y="22.8" fill="#000" class="taxonLabel">Amathia</text><text x="55.2" y="612.9" fill="#91bfdb" class="flag">[1]</text><text x="77.2" y="612.9" fill="#000" class="taxonLabel">Loxosomella</text><path d="M5,484.3V325.1H30.1M30.1,325.1V40.4H55.2M55.2,40.4V67.3H80.3M80.3,67.3V39.1H105.4M105.4,39.1V32.7H130.5M80.3,67.3V95.5H105.4M105.4,95.5V64.7H130.5M130.5,64.7V58.3H155.6M130.5,64.7V71.1H155.6M105.4,95.5V126.3H130.5M130.5,126.3V84H155.6M130.5,126.3V168.7H155.6M155.6,168.7V96.8H180.7M155.6,168.7V240.7H180.7M180.7,240.7V109.6H205.8M180.7,240.7V371.7H205.8M205.8,371.7V210.8H230.9M230.9,210.8V128.9H256.1M256.1,128.9V122.4H281.2M256.1,128.9V135.3H281.2M205.8,371.7V532.7H230.9M230.9,532.7V520.1H256.1M230.9,532.7V545.3H256.1M256.1,545.3V532.9H281.2M256.1,545.3V557.8H281.2M281.2,557.8V545.7H306.3M281.2,557.8V569.8H306.3M306.3,569.8V558.6H331.4M306.3,569.8V581H331.4M331.4,581V571.4H356.5M331.4,581V590.6H356.5M356.5,590.6V584.2H381.6M356.5,590.6V597H381.6M5,484.3V643.5H30.1M30.1,643.5V658H55.2M55.2,658V648.3H80.3" stroke="darkgrey"></path><path d="M55.2,40.4V13.4H80.3M80.3,13.4V7H105.4M80.3,13.4V19.8H105.4M230.9,210.8V292.7H256.1M256.1,292.7V204.4H281.2M281.2,204.4V160.1H306.3M306.3,160.1V148.1H331.4M306.3,160.1V172.1H331.4M331.4,172.1V160.9H356.5M331.4,172.1V183.4H356.5M356.5,183.4V173.8H381.6M356.5,183.4V193H381.6M381.6,193V186.6H406.7M381.6,193V199.4H406.7M281.2,204.4V248.7H306.3M306.3,248.7V218.6H331.4M331.4,218.6V212.2H356.5M331.4,218.6V225.1H356.5M306.3,248.7V278.8H331.4M331.4,278.8V257.1H356.5M356.5,257.1V244.3H381.6M381.6,244.3V237.9H406.7M381.6,244.3V250.7H406.7M356.5,257.1V270H381.6M381.6,270V263.5H406.7M381.6,270V276.4H406.7M331.4,278.8V300.4H356.5M356.5,300.4V289.2H381.6M356.5,300.4V311.6H381.6M381.6,311.6V302H406.7M381.6,311.6V321.3H406.7M406.7,321.3V314.8H431.8M406.7,321.3V327.7H431.8M256.1,292.7V380.9H281.2M281.2,380.9V346.9H306.3M306.3,346.9V340.5H331.4M306.3,346.9V353.3H331.4M281.2,380.9V415H306.3M306.3,415V387H331.4M331.4,387V372.6H356.5M356.5,372.6V366.2H381.6M356.5,372.6V379H381.6M331.4,387V401.4H356.5M356.5,401.4V391.8H381.6M356.5,401.4V411H381.6M381.6,411V404.6H406.7M381.6,411V417.5H406.7M306.3,415V442.9H331.4M331.4,442.9V430.3H356.5M331.4,442.9V455.5H356.5M356.5,455.5V443.1H381.6M356.5,455.5V468H381.6M381.6,468V455.9H406.7M381.6,468V480H406.7M406.7,480V468.8H431.8M406.7,480V491.2H431.8M431.8,491.2V481.6H456.9M431.8,491.2V500.8H456.9M456.9,500.8V494.4H482M456.9,500.8V507.2H482M55.2,658V667.6H80.3M80.3,667.6V661.2H105.4M80.3,667.6V674H105.4" stroke="#fc8d59"></path><path d="M105.4,39.1V45.5H130.5M30.1,325.1V609.9H55.2M30.1,643.5V629.1H55.2M55.2,629.1V622.7H80.3M55.2,629.1V635.5H80.3" stroke="#91bfdb"></path><text x="7" y="487.3" class="node" fill="#4A6FE3">1</text><text x="32.1" y="328.1" class="node" fill="#4A6FE3">1</text><text x="57.2" y="43.4" class="node" fill="#4A6FE3">1</text><text x="82.3" y="16.4" class="node" fill="#4A6FE3">1</text><text x="82.3" y="70.3" class="node" fill="#4A6FE3">1</text><text x="107.4" y="42.1" class="node" fill="#E4D6D8">0.46</text><text x="107.4" y="98.5" class="node" fill="#8998E1">0.82</text><text x="132.5" y="67.7" class="node" fill="#E5A8B3">0.31</text><text x="132.5" y="129.3" class="node" fill="#8998E1">0.82</text><text x="157.6" y="171.7" class="node" fill="#8998E1">0.82</text><text x="182.7" y="243.7" class="node" fill="#4F72E2">0.99</text><text x="207.8" y="374.7" class="node" fill="#4F72E2">0.99</text><text x="232.9" y="213.8" class="node" fill="#8998E1">0.82</text><text x="258.1" y="131.9" class="node" fill="#E07C92">0.17</text><text x="258.1" y="295.7" class="node" fill="#E07C92">0.17</text><text x="283.2" y="207.4" class="node" fill="#E07C92">0.17</text><text x="308.3" y="163.1" class="node" fill="#E5CACE">0.42</text><text x="333.4" y="175.1" class="node" fill="#8696E1">0.83</text><text x="358.5" y="186.4" class="node" fill="#4A6FE3">1</text><text x="383.6" y="196" class="node" fill="#4A6FE3">1</text><text x="308.3" y="251.7" class="node" fill="#9DA8E2">0.75</text><text x="333.4" y="221.6" class="node" fill="#DC6884">0.11</text><text x="333.4" y="281.8" class="node" fill="#DD6C86">0.12</text><text x="358.5" y="260.1" class="node" fill="#97A4E2">0.77</text><text x="383.6" y="247.3" class="node" fill="#E5A5B1">0.3</text><text x="383.6" y="273" class="node" fill="#4F72E2">0.99</text><text x="358.5" y="303.4" class="node" fill="#DB6581">0.1</text><text x="383.6" y="314.6" class="node" fill="#DB6581">0.1</text><text x="408.7" y="324.3" class="node" fill="#E3DFE0">0.49</text><text x="283.2" y="383.9" class="node" fill="#E6B7C0">0.36</text><text x="308.3" y="349.9" class="node" fill="#CACDE3">0.59</text><text x="308.3" y="418" class="node" fill="#9AA6E2">0.76</text><text x="333.4" y="390" class="node" fill="#E59FAC">0.28</text><text x="358.5" y="375.6" class="node" fill="#4A6FE3">1</text><text x="358.5" y="404.4" class="node" fill="#E5C7CC">0.41</text><text x="383.6" y="414" class="node" fill="#B9BFE3">0.65</text><text x="333.4" y="445.9" class="node" fill="#E5A5B1">0.3</text><text x="358.5" y="458.5" class="node" fill="#E59FAC">0.28</text><text x="383.6" y="471" class="node" fill="#E6BDC5">0.38</text><text x="408.7" y="483" class="node" fill="#E5D0D3">0.44</text><text x="433.8" y="494.2" class="node" fill="#5B78E2">0.96</text><text x="458.9" y="503.8" class="node" fill="#BFC4E3">0.63</text><text x="232.9" y="535.7" class="node" fill="#4F72E2">0.99</text><text x="258.1" y="548.3" class="node" fill="#8696E1">0.83</text><text x="283.2" y="560.8" class="node" fill="#E495A5">0.25</text><text x="308.3" y="572.8" class="node" fill="#4A6FE3">1</text><text x="333.4" y="584" class="node" fill="#4A6FE3">1</text><text x="358.5" y="593.6" class="node" fill="#4A6FE3">1</text><text x="32.1" y="646.5" class="node" fill="#4A6FE3">1</text><text x="57.2" y="632.1" class="node" fill="#4A6FE3">1</text><text x="57.2" y="661" class="node" fill="#4A6FE3">1</text><text x="82.3" y="670.6" class="node" fill="#4A6FE3">1</text></svg>
