<svg xmlns="http://www.w3.org/2000/svg" version="1.1" width="682" height="612" class="tree" data-char="190"><text x="678" y="15.4" text-anchor="end" class="stepsLabel">Character adds <tspan class="score">2</tspan> to tree score</text><text x="678" y="27.8" text-anchor="end" class="stepsLabel"><tspan class="score">0</tspan> additional regions</text><text x="678" y="40.2" text-anchor="end" class="stepsLabel">CI = 0.5; Fitch CI = 0.5; Fitch RI = 0.67</text><text x="678" y="65" text-anchor="end" class="stepsLabel"><tspan dy="16">An optimal tree under:</tspan><tspan x="680" style="font-style:italic" class="notThisAn" dy="1.2em">Equal weights</tspan><tspan x="680" style="font-style:italic" class="notThisAn" dy="1.2em">Implied weights, k = 2</tspan><tspan x="680" style="font-style:italic" class="notThisAn" dy="1.2em">IW, k = 3</tspan><tspan x="680" style="font-style:italic" class="notThisAn" dy="1.2em">IW, k = 4.5</tspan><tspan x="680" style="font-style:italic" class="notThisAn" dy="1.2em">IW, k = 7</tspan><tspan x="680" style="font-style:italic" class="thisAn" dy="1.2em">IW, k = 10.5</tspan><tspan x="680" style="font-style:italic" class="notThisAn" dy="1.2em">IW, k = 16</tspan><tspan x="680" style="font-style:italic" class="notThisAn" dy="1.2em">IW, k = 24</tspan></text><text x="76.6" y="594.3" fill="#fc8d59" class="flag">[0]</text><text x="98.6" y="594.3" fill="#000" class="taxonLabel">Serpula</text><text x="76.6" y="607" fill="#91bfdb" class="flag">[1]</text><text x="98.6" y="607" fill="#000" class="taxonLabel">Sipunculus</text><text x="100.4" y="568.9" fill="#91bfdb" class="flag">[1]</text><text x="122.4" y="568.9" fill="#000" class="taxonLabel">Tonicella</text><text x="100.4" y="581.6" fill="#91bfdb" class="flag">[1]</text><text x="122.4" y="581.6" fill="#000" class="taxonLabel">Dentalium</text><text x="76.6" y="556.2" fill="grey" class="flag">[?]</text><text x="98.6" y="556.2" fill="#999" class="taxonLabel">Wiwaxia corrugata</text><text x="219.7" y="518.1" fill="grey" class="flag">[?]</text><text x="241.7" y="518.1" fill="#999" class="taxonLabel">Haplophrentis carinatus</text><text x="219.7" y="530.8" fill="grey" class="flag">[?]</text><text x="241.7" y="530.8" fill="#999" class="taxonLabel">Pedunculotheca diania</text><text x="386.6" y="492.7" fill="grey" class="flag">[?]</text><text x="408.6" y="492.7" fill="#999" class="taxonLabel">Craniops</text><text x="386.6" y="505.4" fill="#fc8d59" class="flag">[0]</text><text x="408.6" y="505.4" fill="#000" class="taxonLabel">Novocrania</text><text x="362.8" y="480" fill="grey" class="flag">[?]</text><text x="384.8" y="480" fill="#999" class="taxonLabel">Ussunia</text><text x="338.9" y="467.3" fill="grey" class="flag">[?]</text><text x="360.9" y="467.3" fill="#999" class="taxonLabel">Heliomedusa orienta</text><text x="315.1" y="454.6" fill="grey" class="flag">[?]</text><text x="337.1" y="454.6" fill="#999" class="taxonLabel">Gasconsia</text><text x="362.8" y="429.2" fill="grey" class="flag">[?]</text><text x="384.8" y="429.2" fill="#999" class="taxonLabel">Mummpikia nuda</text><text x="362.8" y="441.9" fill="grey" class="flag">[?]</text><text x="384.8" y="441.9" fill="#999" class="taxonLabel">Botsfordia</text><text x="338.9" y="416.5" fill="grey" class="flag">[?]</text><text x="360.9" y="416.5" fill="#999" class="taxonLabel">Eoobolus</text><text x="410.5" y="391.1" fill="grey" class="flag">[?]</text><text x="432.5" y="391.1" fill="#999" class="taxonLabel">Acanthotretella spinosa</text><text x="410.5" y="403.8" fill="grey" class="flag">[?]</text><text x="432.5" y="403.8" fill="#999" class="taxonLabel">Siphonobolus priscus</text><text x="410.5" y="365.7" fill="grey" class="flag">[?]</text><text x="432.5" y="365.7" fill="#999" class="taxonLabel">Lingulosacculus</text><text x="410.5" y="378.4" fill="grey" class="flag">[?]</text><text x="432.5" y="378.4" fill="#999" class="taxonLabel">Clupeafumosus socialis</text><text x="386.6" y="340.3" fill="#fc8d59" class="flag">[0]</text><text x="408.6" y="340.3" fill="#000" class="taxonLabel">Lingula</text><text x="386.6" y="353" fill="grey" class="flag">[?]</text><text x="408.6" y="353" fill="#999" class="taxonLabel">Lingulellotreta malongensis</text><text x="338.9" y="327.6" fill="grey" class="flag">[?]</text><text x="360.9" y="327.6" fill="#999" class="taxonLabel">Pelagodiscus atlanticus</text><text x="315.1" y="302.1" fill="grey" class="flag">[?]</text><text x="337.1" y="302.1" fill="#999" class="taxonLabel">Micromitra</text><text x="315.1" y="314.9" fill="grey" class="flag">[?]</text><text x="337.1" y="314.9" fill="#999" class="taxonLabel">Askepasma toddense</text><text x="362.8" y="276.7" fill="grey" class="flag">[?]</text><text x="384.8" y="276.7" fill="#999" class="taxonLabel">Coolinia pecten</text><text x="362.8" y="289.4" fill="grey" class="flag">[?]</text><text x="384.8" y="289.4" fill="#999" class="taxonLabel">Antigonambonites planus</text><text x="482" y="251.3" fill="grey" class="flag">[?]</text><text x="504" y="251.3" fill="#999" class="taxonLabel">Orthis</text><text x="482" y="264" fill="#fc8d59" class="flag">[0]</text><text x="504" y="264" fill="#000" class="taxonLabel">Terebratulina</text><text x="458.2" y="238.6" fill="grey" class="flag">[?]</text><text x="480.2" y="238.6" fill="#999" class="taxonLabel">Alisina</text><text x="434.3" y="225.9" fill="grey" class="flag">[?]</text><text x="456.3" y="225.9" fill="#999" class="taxonLabel">Longtancunella chengjiangensis</text><text x="410.5" y="213.2" fill="grey" class="flag">[?]</text><text x="432.5" y="213.2" fill="#999" class="taxonLabel">Glyptoria</text><text x="386.6" y="200.5" fill="grey" class="flag">[?]</text><text x="408.6" y="200.5" fill="#999" class="taxonLabel">Nisusia sulcata</text><text x="362.8" y="187.8" fill="grey" class="flag">[?]</text><text x="384.8" y="187.8" fill="#999" class="taxonLabel">Kutorgina chengjiangensis</text><text x="362.8" y="162.4" fill="grey" class="flag">[?]</text><text x="384.8" y="162.4" fill="#999" class="taxonLabel">Yuganotheca elegans</text><text x="362.8" y="175.1" fill="grey" class="flag">[?]</text><text x="384.8" y="175.1" fill="#999" class="taxonLabel">Tomteluva perturbata</text><text x="338.9" y="149.7" fill="grey" class="flag">[?]</text><text x="360.9" y="149.7" fill="#999" class="taxonLabel">Salanygolina</text><text x="243.5" y="137" fill="grey" class="flag">[?]</text><text x="265.5" y="137" fill="#999" class="taxonLabel">Mickwitzia muralensis</text><text x="219.7" y="124.3" fill="grey" class="flag">[?]</text><text x="241.7" y="124.3" fill="#999" class="taxonLabel">Micrina</text><text x="172" y="111.6" fill="grey" class="flag">[?]</text><text x="194" y="111.6" fill="#999" class="taxonLabel">Paterimitra</text><text x="148.1" y="98.9" fill="grey" class="flag">[?]</text><text x="170.1" y="98.9" fill="#999" class="taxonLabel">Halkieria evangelista</text><text x="124.2" y="86.2" fill="grey" class="flag">[?]</text><text x="146.2" y="86.2" fill="#999" class="taxonLabel">Dailyatia</text><text x="172" y="60.8" fill="#fc8d59" class="flag">[0]</text><text x="194" y="60.8" fill="#000" class="taxonLabel">Phoronis</text><text x="172" y="73.5" fill="grey" class="flag">[?]</text><text x="194" y="73.5" fill="#999" class="taxonLabel">Namacalathus</text><text x="148.1" y="48.1" fill="grey" class="flag">[?]</text><text x="170.1" y="48.1" fill="#999" class="taxonLabel">Eccentrotheca</text><text x="124.2" y="35.4" fill="grey" class="flag">[?]</text><text x="146.2" y="35.4" fill="#999" class="taxonLabel">Cotyledion tylodes</text><text x="100.4" y="10" fill="#fc8d59" class="flag">[0]</text><text x="122.4" y="10" fill="#000" class="taxonLabel">Flustra</text><text x="100.4" y="22.7" fill="#fc8d59" class="flag">[0]</text><text x="122.4" y="22.7" fill="#000" class="taxonLabel">Amathia</text><text x="52.7" y="543.5" fill="#91bfdb" class="flag">[1]</text><text x="74.7" y="543.5" fill="#000" class="taxonLabel">Loxosomella</text><path d="M5,437.3V294.4H28.9M28.9,294.4V540.5H52.7M5,437.3V580.2H28.9M28.9,580.2V562.7H52.7M52.7,562.7V553.2H76.6M52.7,562.7V572.2H76.6M76.6,572.2V565.9H100.4M76.6,572.2V578.6H100.4M28.9,580.2V597.6H52.7M52.7,597.6V604H76.6" stroke="#91bfdb"></path><path d="M28.9,294.4V48.3H52.7M52.7,48.3V13.4H76.6M76.6,13.4V7H100.4M76.6,13.4V19.7H100.4M52.7,48.3V83.2H76.6M76.6,83.2V43.5H100.4M100.4,43.5V32.4H124.2M100.4,43.5V54.6H124.2M124.2,54.6V45.1H148.1M124.2,54.6V64.2H148.1M148.1,64.2V57.8H172M148.1,64.2V70.5H172M76.6,83.2V122.9H100.4M100.4,122.9V83.2H124.2M100.4,122.9V162.6H124.2M124.2,162.6V95.9H148.1M124.2,162.6V229.3H148.1M148.1,229.3V108.6H172M148.1,229.3V350H172M172,350V178.5H195.8M195.8,178.5V121.3H219.7M195.8,178.5V235.7H219.7M219.7,235.7V134H243.5M219.7,235.7V337.4H243.5M243.5,337.4V251.5H267.4M267.4,251.5V197.5H291.2M291.2,197.5V156.2H315.1M315.1,156.2V146.7H338.9M315.1,156.2V165.8H338.9M338.9,165.8V159.4H362.8M338.9,165.8V172.1H362.8M291.2,197.5V238.7H315.1M315.1,238.7V197.3H338.9M338.9,197.3V184.8H362.8M338.9,197.3V209.8H362.8M362.8,209.8V197.5H386.6M362.8,209.8V222.1H386.6M386.6,222.1V210.2H410.5M386.6,222.1V234.1H410.5M410.5,234.1V222.9H434.3M410.5,234.1V245.2H434.3M434.3,245.2V235.6H458.2M434.3,245.2V254.7H458.2M458.2,254.7V248.3H482M458.2,254.7V261H482M315.1,238.7V280.1H338.9M338.9,280.1V273.7H362.8M338.9,280.1V286.4H362.8M267.4,251.5V305.5H291.2M291.2,305.5V299.1H315.1M291.2,305.5V311.9H315.1M243.5,337.4V423.4H267.4M267.4,423.4V383.3H291.2M291.2,383.3V343.6H315.1M315.1,343.6V324.6H338.9M315.1,343.6V362.7H338.9M338.9,362.7V343.6H362.8M362.8,343.6V337.3H386.6M362.8,343.6V350H386.6M338.9,362.7V381.7H362.8M362.8,381.7V369H386.6M386.6,369V362.7H410.5M386.6,369V375.4H410.5M362.8,381.7V394.4H386.6M386.6,394.4V388.1H410.5M386.6,394.4V400.8H410.5M291.2,383.3V423H315.1M315.1,423V413.5H338.9M315.1,423V432.5H338.9M338.9,432.5V426.2H362.8M338.9,432.5V438.9H362.8M267.4,423.4V463.5H291.2M291.2,463.5V451.6H315.1M291.2,463.5V475.4H315.1M315.1,475.4V464.3H338.9M315.1,475.4V486.5H338.9M338.9,486.5V477H362.8M338.9,486.5V496H362.8M362.8,496V489.7H386.6M362.8,496V502.4H386.6M172,350V521.4H195.8M195.8,521.4V515.1H219.7M195.8,521.4V527.8H219.7M52.7,597.6V591.3H76.6" stroke="#fc8d59"></path><text x="7" y="440.3" class="node" fill="#4A6FE3">1</text><text x="30.9" y="297.4" class="node" fill="#4A6FE3">1</text><text x="54.7" y="51.3" class="node" fill="#97A4E2">0.77</text><text x="78.6" y="16.4" class="node" fill="#4A6FE3">1</text><text x="78.6" y="86.2" class="node" fill="#97A4E2">0.77</text><text x="102.4" y="46.5" class="node" fill="#E5A8B3">0.31</text><text x="126.2" y="57.6" class="node" fill="#DF798F">0.16</text><text x="150.1" y="67.2" class="node" fill="#4A6FE3">1</text><text x="102.4" y="125.9" class="node" fill="#E6B1BB">0.34</text><text x="126.2" y="165.6" class="node" fill="#E49CAA">0.27</text><text x="150.1" y="232.3" class="node" fill="#E4D9DB">0.47</text><text x="174" y="353" class="node" fill="#E5A5B1">0.3</text><text x="197.8" y="181.5" class="node" fill="#E38FA0">0.23</text><text x="221.7" y="238.7" class="node" fill="#DF798F">0.16</text><text x="245.5" y="340.4" class="node" fill="#DF758D">0.15</text><text x="269.4" y="254.5" class="node" fill="#667FE1">0.93</text><text x="293.2" y="200.5" class="node" fill="#667FE1">0.93</text><text x="317.1" y="159.2" class="node" fill="#E3DFE0">0.49</text><text x="340.9" y="168.8" class="node" fill="#9AA6E2">0.76</text><text x="317.1" y="241.7" class="node" fill="#7A8DE1">0.87</text><text x="340.9" y="200.3" class="node" fill="#E4D9DB">0.47</text><text x="364.8" y="212.8" class="node" fill="#E4D9DB">0.47</text><text x="388.6" y="225.1" class="node" fill="#C7CBE3">0.6</text><text x="412.5" y="237.1" class="node" fill="#C7CBE3">0.6</text><text x="436.3" y="248.2" class="node" fill="#4A6FE3">1</text><text x="460.2" y="257.7" class="node" fill="#8696E1">0.83</text><text x="340.9" y="283.1" class="node" fill="#4A6FE3">1</text><text x="293.2" y="308.5" class="node" fill="#4A6FE3">1</text><text x="269.4" y="426.4" class="node" fill="#DF758D">0.15</text><text x="293.2" y="386.3" class="node" fill="#E495A5">0.25</text><text x="317.1" y="346.6" class="node" fill="#E495A5">0.25</text><text x="340.9" y="365.7" class="node" fill="#E6BDC5">0.38</text><text x="364.8" y="346.6" class="node" fill="#E6BDC5">0.38</text><text x="364.8" y="384.7" class="node" fill="#8F9DE1">0.8</text><text x="388.6" y="372" class="node" fill="#E49CAA">0.27</text><text x="388.6" y="397.4" class="node" fill="#4A6FE3">1</text><text x="317.1" y="426" class="node" fill="#E4D9DB">0.47</text><text x="340.9" y="435.5" class="node" fill="#E6BDC5">0.38</text><text x="293.2" y="466.5" class="node" fill="#E38FA0">0.23</text><text x="317.1" y="478.4" class="node" fill="#E38FA0">0.23</text><text x="340.9" y="489.5" class="node" fill="#E4D9DB">0.47</text><text x="364.8" y="499" class="node" fill="#4A6FE3">1</text><text x="197.8" y="524.4" class="node" fill="#4A6FE3">1</text><text x="30.9" y="583.2" class="node" fill="#4A6FE3">1</text><text x="54.7" y="565.7" class="node" fill="#4A6FE3">1</text><text x="78.6" y="575.2" class="node" fill="#7A8DE1">0.87</text><text x="54.7" y="600.6" class="node" fill="#4A6FE3">1</text></svg>
