<svg xmlns="http://www.w3.org/2000/svg" version="1.1" width="682" height="525"><defs><style type="text/css"><![CDATA[text.taxonLabel{font-style:italic}text.nodeLabel{font-size:8pt}svg {font-family: "Arial", sans-serif;font-size:9pt}.bold,.annot{font-weight:bold}.hidden{display:none}.annot{text-anchor:middle;opacity:0.55}circle{r:5px;fill:#f2e259;stroke:black;stroke-width:2px;}]]></style></defs><g transform="translate(682 525)"><text x="0" y="0" text-anchor="end" class="stepsLabel"><tspan x="0" dy="-1.2em" fill="#aaaaaa">Problematica</tspan><tspan x="0" dy="-1.2em" fill="#777777">Orthothecides</tspan><tspan x="0" dy="-1.2em" fill="#444444">Hyolithides</tspan><tspan x="0" dy="-1.2em" fill="#99A700">Craniiforms</tspan><tspan x="0" dy="-1.2em" fill="#00BAAE">Paterinids</tspan><tspan x="0" dy="-1.2em" fill="#00B3D7">Chileids</tspan><tspan x="0" dy="-1.2em" fill="#52A2EF">Kutorginiids</tspan><tspan x="0" dy="-1.2em" fill="#AF8BF2">Rhynchonellates</tspan><tspan x="0" dy="-1.2em" fill="#00B97B">Discinids</tspan><tspan x="0" dy="-1.2em" fill="#55B23A">Lingulids</tspan><tspan x="0" dy="-1.2em" fill="#E18758">Phoronids</tspan><tspan x="0" dy="-1.2em" fill="#C49800">Tommotiids</tspan><tspan x="0" dy="-1.2em" fill="#DE77DD">Outgroup</tspan><tspan x="0" dy="-1.2em" class="bold">Key to colours:</tspan></text></g><g id="legend" transform="translate(15.15 33.13)"><text x="0" y="0"><tspan x="0" dy="16.57" class="annot"> </tspan><tspan x="2em">Carbonate mineralogy</tspan><tspan x="0" dy="16.57" class="annot">Pe</tspan><tspan x="2em">Pedicle</tspan><tspan x="0" dy="16.57" class="annot">Um</tspan><tspan x="2em">Migration of pedicle to valve umbo</tspan><tspan x="0" dy="16.57" class="annot">Co</tspan><tspan x="2em">Coelom lost in pedicle</tspan><tspan x="0" dy="16.57" class="annot">D</tspan><tspan x="2em">Delthyrium surrounds pedicle</tspan><tspan x="0" dy="16.57" class="annot">St</tspan><tspan x="2em">Strophic hinge; planar cardinal area</tspan><tspan x="0" dy="16.57" class="annot">A</tspan><tspan x="2em">Anterior-coiling lophophore</tspan><tspan x="0" dy="16.57" class="annot">L</tspan><tspan x="2em">Low ventral interarea; attached</tspan><tspan x="0" dy="16.57" class="annot">  </tspan><tspan x="2em">setulose larvae</tspan><tspan x="0" dy="16.57" class="annot">*</tspan><tspan x="2em">Brachiopod crown group</tspan></text></g><text x="85.9" y="375.4" fill="#DE77DD" class="taxonLabel"><tspan class="hidden">[1] </tspan>Flustra</text><text x="85.9" y="386.5" fill="#DE77DD" class="taxonLabel"><tspan class="hidden">[2] </tspan>Amathia</text><text x="340.6" y="408.6" fill="#777777" class="taxonLabel"><tspan class="hidden">[3] </tspan>Conotheca</text><text x="340.6" y="419.6" fill="#777777" class="taxonLabel"><tspan class="hidden">[4] </tspan>Bactrotheca</text><text x="312.3" y="430.7" fill="#777777" class="taxonLabel"><tspan class="hidden">[5] </tspan>Cupitheca holocyclata</text><text x="368.9" y="364.4" fill="#444444" class="taxonLabel"><tspan class="hidden">[6] </tspan>Pauxillites</text><text x="368.9" y="375.4" fill="#444444" class="taxonLabel"><tspan class="hidden">[7] </tspan>Maxilites</text><text x="340.6" y="386.5" fill="#444444" class="taxonLabel"><tspan class="hidden">[8] </tspan>Haplophrentis carinatus</text><text x="312.3" y="397.5" fill="#444444" class="taxonLabel"><tspan class="hidden">[9] </tspan>Paramicrocornus</text><text x="255.7" y="441.7" fill="black" class="taxonLabel bold"><tspan class="hidden">[10] </tspan>Pedunculotheca diania</text><text x="340.6" y="320.2" fill="#C49800" class="taxonLabel"><tspan class="hidden">[11] </tspan>Mickwitzia muralensis</text><text x="340.6" y="331.3" fill="#C49800" class="taxonLabel"><tspan class="hidden">[12] </tspan>Heliomedusa orienta</text><text x="312.3" y="342.3" fill="#C49800" class="taxonLabel"><tspan class="hidden">[13] </tspan>Micrina</text><text x="368.9" y="298.1" fill="#00BAAE" class="taxonLabel"><tspan class="hidden">[14] </tspan>Micromitra</text><text x="368.9" y="309.2" fill="#00BAAE" class="taxonLabel"><tspan class="hidden">[15] </tspan>Askepasma toddense</text><text x="425.5" y="265" fill="#00B3D7" class="taxonLabel"><tspan class="hidden">[16] </tspan>Coolinia pecten</text><text x="425.5" y="276" fill="#00B3D7" class="taxonLabel"><tspan class="hidden">[17] </tspan>Antigonambonites planus</text><text x="453.8" y="242.9" fill="#52A2EF" class="taxonLabel"><tspan class="hidden">[18] </tspan>Nisusia sulcata</text><text x="453.8" y="254" fill="#52A2EF" class="taxonLabel"><tspan class="hidden">[19] </tspan>Kutorgina chengjiangensis</text><text x="567" y="176.7" fill="#AF8BF2" class="taxonLabel"><tspan class="hidden">[20] </tspan>Terebratulina</text><text x="567" y="187.7" fill="#AF8BF2" class="taxonLabel"><tspan class="hidden">[21] </tspan>Orthis</text><text x="538.7" y="198.7" fill="#aaaaaa" class="taxonLabel"><tspan class="hidden">[22] </tspan>Alisina</text><text x="510.4" y="209.8" fill="#aaaaaa" class="taxonLabel"><tspan class="hidden">[23] </tspan>Longtancunella chengjiangensis</text><text x="482.1" y="220.8" fill="#AF8BF2" class="taxonLabel"><tspan class="hidden">[24] </tspan>Glyptoria</text><text x="453.8" y="231.9" fill="#aaaaaa" class="taxonLabel"><tspan class="hidden">[25] </tspan>Tomteluva perturbata</text><text x="368.9" y="287.1" fill="#00B3D7" class="taxonLabel"><tspan class="hidden">[26] </tspan>Salanygolina</text><text x="425.5" y="132.5" fill="#99A700" class="taxonLabel"><tspan class="hidden">[27] </tspan>Novocrania</text><text x="425.5" y="143.5" fill="#99A700" class="taxonLabel"><tspan class="hidden">[28] </tspan>Craniops</text><text x="397.2" y="154.6" fill="#99A700" class="taxonLabel"><tspan class="hidden">[29] </tspan>Ussunia</text><text x="368.9" y="165.6" fill="#99A700" class="taxonLabel"><tspan class="hidden">[30] </tspan>Gasconsia</text><text x="482.1" y="77.3" fill="#00B97B" class="taxonLabel"><tspan class="hidden">[31] </tspan>Pelagodiscus atlanticus</text><text x="482.1" y="88.3" fill="#aaaaaa" class="taxonLabel"><tspan class="hidden">[32] </tspan>Mummpikia nuda</text><text x="538.7" y="22" fill="#55B23A" class="taxonLabel"><tspan class="hidden">[33] </tspan>Siphonobolus priscus</text><text x="538.7" y="33.1" fill="#55B23A" class="taxonLabel"><tspan class="hidden">[34] </tspan>Acanthotretella spinosa</text><text x="510.4" y="44.1" fill="#aaaaaa" class="taxonLabel"><tspan class="hidden">[35] </tspan>Lingulosacculus</text><text x="510.4" y="55.2" fill="#55B23A" class="taxonLabel"><tspan class="hidden">[36] </tspan>Clupeafumosus socialis</text><text x="482.1" y="66.2" fill="#55B23A" class="taxonLabel"><tspan class="hidden">[37] </tspan>Lingulellotreta malongensis</text><text x="425.5" y="99.3" fill="#55B23A" class="taxonLabel"><tspan class="hidden">[38] </tspan>Botsfordia</text><text x="397.2" y="110.4" fill="#55B23A" class="taxonLabel"><tspan class="hidden">[39] </tspan>Eoobolus</text><text x="368.9" y="121.4" fill="#55B23A" class="taxonLabel"><tspan class="hidden">[40] </tspan>Lingula</text><text x="255.7" y="353.3" fill="#aaaaaa" class="taxonLabel"><tspan class="hidden">[41] </tspan>Yuganotheca elegans</text><text x="199.1" y="452.7" fill="#C49800" class="taxonLabel"><tspan class="hidden">[42] </tspan>Paterimitra</text><text x="170.8" y="463.8" fill="#aaaaaa" class="taxonLabel"><tspan class="hidden">[43] </tspan>Halkieria evangelista</text><text x="142.5" y="474.8" fill="#C49800" class="taxonLabel"><tspan class="hidden">[44] </tspan>Dailyatia</text><text x="114.2" y="485.9" fill="#aaaaaa" class="taxonLabel"><tspan class="hidden">[45] </tspan>Cotyledion tylodes</text><text x="114.2" y="496.9" fill="#C49800" class="taxonLabel"><tspan class="hidden">[46] </tspan>Eccentrotheca</text><text x="85.9" y="508" fill="#E18758" class="taxonLabel"><tspan class="hidden">[47] </tspan>Phoronis</text><text x="85.9" y="519" fill="#aaaaaa" class="taxonLabel"><tspan class="hidden">[48] </tspan>Namacalathus</text><text x="114.2" y="265" fill="#DE77DD" class="taxonLabel"><tspan class="hidden">[49] </tspan>Sipunculus</text><text x="114.2" y="276" fill="#DE77DD" class="taxonLabel"><tspan class="hidden">[50] </tspan>Serpula</text><text x="142.5" y="231.9" fill="#DE77DD" class="taxonLabel"><tspan class="hidden">[51] </tspan>Tonicella</text><text x="142.5" y="242.9" fill="#DE77DD" class="taxonLabel"><tspan class="hidden">[52] </tspan>Dentalium</text><text x="114.2" y="254" fill="#aaaaaa" class="taxonLabel"><tspan class="hidden">[53] </tspan>Wiwaxia corrugata</text><text x="57.6" y="287.1" fill="#DE77DD" class="taxonLabel"><tspan class="hidden">[54] </tspan>Loxosomella</text><path d="M1,353.1V268.6H29.3M29.3,268.6V254.1H57.6M57.6,254.1V241.7H85.9M85.9,241.7V233.4H114.2M114.2,233.4V227.9H142.5M114.2,233.4V238.9H142.5M85.9,241.7V250H114.2M57.6,254.1V266.5H85.9M85.9,266.5V261H114.2M85.9,266.5V272H114.2M29.3,268.6V283.1H57.6M1,353.1V437.6H29.3M29.3,437.6V498.2H57.6M57.6,498.2V475.6H85.9M85.9,475.6V452H114.2M114.2,452V433.1H142.5M142.5,433.1V406.4H170.8M170.8,406.4V364H199.1M199.1,364V308.6H227.4M227.4,308.6V267.9H255.7M255.7,267.9V205.7H284M284,205.7V128.6H312.3M312.3,128.6V105.3H340.6M340.6,105.3V93.2H368.9M368.9,93.2V79.9H397.2M397.2,79.9V64.5H425.5M425.5,64.5V50.3H453.8M453.8,50.3V38.3H482.1M482.1,38.3V23.6H510.4M510.4,23.6V18H538.7M510.4,23.6V29.1H538.7M482.1,38.3V40.1H510.4M482.1,38.3V51.2H510.4M453.8,50.3V62.2H482.1M425.5,64.5V78.8H453.8M453.8,78.8V73.3H482.1M453.8,78.8V84.3H482.1M397.2,79.9V95.3H425.5M368.9,93.2V106.4H397.2M340.6,105.3V117.4H368.9M312.3,128.6V151.9H340.6M340.6,151.9V142.3H368.9M368.9,142.3V134H397.2M397.2,134V128.5H425.5M397.2,134V139.5H425.5M368.9,142.3V150.6H397.2M340.6,151.9V161.6H368.9M284,205.7V282.8H312.3M312.3,282.8V265.9H340.6M340.6,265.9V248.7H368.9M368.9,248.7V230.8H397.2M397.2,230.8V217.2H425.5M425.5,217.2V206.5H453.8M453.8,206.5V196.1H482.1M482.1,196.1V186.5H510.4M510.4,186.5V178.2H538.7M538.7,178.2V172.7H567M538.7,178.2V183.7H567M510.4,186.5V194.7H538.7M482.1,196.1V205.8H510.4M453.8,206.5V216.8H482.1M425.5,217.2V227.9H453.8M397.2,230.8V244.4H425.5M425.5,244.4V238.9H453.8M425.5,244.4V250H453.8M368.9,248.7V266.5H397.2M397.2,266.5V261H425.5M397.2,266.5V272H425.5M340.6,265.9V283.1H368.9M312.3,282.8V299.7H340.6M340.6,299.7V294.1H368.9M340.6,299.7V305.2H368.9M255.7,267.9V330H284M284,330V321.7H312.3M312.3,321.7V316.2H340.6M312.3,321.7V327.3H340.6M284,330V338.3H312.3M227.4,308.6V349.3H255.7M199.1,364V419.4H227.4M227.4,419.4V401.1H255.7M255.7,401.1V383.9H284M284,383.9V374.2H312.3M312.3,374.2V365.9H340.6M340.6,365.9V360.4H368.9M340.6,365.9V371.4H368.9M312.3,374.2V382.5H340.6M284,383.9V393.5H312.3M255.7,401.1V418.4H284M284,418.4V410.1H312.3M312.3,410.1V404.6H340.6M312.3,410.1V415.6H340.6M284,418.4V426.7H312.3M227.4,419.4V437.7H255.7M170.8,406.4V448.7H199.1M142.5,433.1V459.8H170.8M114.2,452V470.8H142.5M85.9,475.6V481.9H114.2M85.9,475.6V492.9H114.2M57.6,498.2V504H85.9M57.6,498.2V515H85.9M29.3,437.6V377H57.6M57.6,377V371.4H85.9M57.6,377V382.5H85.9" stroke="#888" fill="none"></path><circle cx="15.15" cy="29.1304347826087"></circle><circle cx="156.65" cy="459.8"></circle><circle cx="213.25" cy="419.4"></circle><circle cx="326.45" cy="151.9"></circle><circle cx="354.75" cy="248.7"></circle><circle cx="467.95" cy="84.3"></circle><circle cx="100.05" cy="233.4"></circle><text x="31.3" y="272.6" class="nodeLabel"><tspan class="hidden">[56] </tspan><tspan  fill="#5374E2">98</tspan>/<tspan  fill="#E49CAA">27</tspan></text><text x="59.6" y="258.1" class="nodeLabel"><tspan class="hidden">[57] </tspan><tspan  fill="#5374E2">98</tspan>/<tspan  fill="#5F7BE1">95</tspan></text><text x="87.9" y="245.7" class="nodeLabel"><tspan class="hidden">[58] </tspan><tspan  fill="#5374E2">98</tspan>/<tspan  fill="#5776E2">97</tspan></text><text x="116.2" y="237.4" class="nodeLabel"><tspan class="hidden">[59] </tspan><tspan  fill="#5374E2">98</tspan>/<tspan  fill="#667FE1">93</tspan></text><text x="87.9" y="270.5" class="nodeLabel"><tspan class="hidden">[60] </tspan><tspan  fill="#5374E2">98</tspan>/<tspan  fill="#E3DCDD">48</tspan></text><text x="31.3" y="441.6" class="nodeLabel"><tspan class="hidden">[61] </tspan><tspan  fill="#5374E2">98</tspan>/<tspan  fill="#E49CAA">27</tspan></text><text x="59.6" y="502.2" class="nodeLabel"><tspan class="hidden">[62] </tspan><tspan  fill="#5374E2">98</tspan>/<tspan  fill="#D3446C">1</tspan></text><text x="87.9" y="479.6" class="nodeLabel"><tspan class="hidden">[63] </tspan><tspan  fill="#768BE1">88</tspan>/<tspan  fill="#D33F6A">0</tspan></text><text x="116.2" y="456" class="nodeLabel"><tspan class="hidden">[64] </tspan><tspan  fill="#A6AFE2">72</tspan>/<tspan  fill="#D3446C">1</tspan></text><text x="144.5" y="437.1" class="nodeLabel"><tspan class="hidden">[65] </tspan><tspan  fill="#768BE1">88</tspan>/<tspan  fill="#D3446C">1</tspan></text><text x="172.8" y="410.4" class="nodeLabel"><tspan class="hidden">[66] </tspan><tspan  fill="#768BE1">88</tspan>/<tspan  fill="#7086E1">90</tspan></text><text x="201.1" y="368" class="nodeLabel"><tspan class="hidden">[67] </tspan><tspan  fill="#A6AFE2">72</tspan>/<tspan  fill="#DC6884">11</tspan></text><text x="229.4" y="312.6" class="nodeLabel"><tspan class="hidden">[68] </tspan><tspan  fill="#8998E1">82</tspan>/<tspan  fill="#DB6581">10</tspan></text><text x="257.7" y="271.9" class="nodeLabel"><tspan class="hidden">[69] </tspan><tspan  fill="#D2D4E3">57</tspan>/<tspan  fill="red">0</tspan></text><text x="286" y="209.7" class="nodeLabel"><tspan class="hidden">[70] </tspan><tspan  fill="#D2D4E3">56</tspan>/<tspan  fill="red">0</tspan></text><text x="314.3" y="132.6" class="nodeLabel"><tspan class="hidden">[71] </tspan><tspan  fill="#D2D4E3">57</tspan>/<tspan  fill="#D33F6A">0</tspan></text><text x="342.6" y="109.3" class="nodeLabel"><tspan class="hidden">[72] </tspan><tspan  fill="#B4BBE3">67</tspan>/<tspan  fill="#CACDE3">59</tspan></text><text x="370.9" y="97.2" class="nodeLabel"><tspan class="hidden">[73] </tspan><tspan  fill="#D2D4E3">56</tspan>/<tspan  fill="#D4486F">2</tspan></text><text x="399.2" y="83.9" class="nodeLabel"><tspan class="hidden">[74] </tspan><tspan  fill="#D2D4E3">56</tspan>/<tspan  fill="red">0</tspan></text><text x="427.5" y="68.5" class="nodeLabel"><tspan class="hidden">[75] </tspan><tspan  fill="#D2D4E3">56</tspan>/<tspan  fill="#D33F6A">0</tspan></text><text x="455.8" y="54.3" class="nodeLabel"><tspan class="hidden">[76] </tspan><tspan  fill="#D2D4E3">56</tspan>/<tspan  fill="#DF758D">15</tspan></text><text x="484.1" y="42.3" class="nodeLabel"><tspan class="hidden">[77] </tspan><tspan  fill="#768BE1">88</tspan>/<tspan  fill="#E0E0E2">51</tspan></text><text x="512.4" y="27.6" class="nodeLabel"><tspan class="hidden">[78] </tspan><tspan  fill="#5374E2">98</tspan>/<tspan  fill="#E4D9DB">47</tspan></text><text x="455.8" y="82.8" class="nodeLabel"><tspan class="hidden">[79] </tspan><tspan  fill="#D2D4E3">56</tspan>/<tspan  fill="#D54C71">3</tspan></text><text x="342.6" y="155.9" class="nodeLabel"><tspan class="hidden">[80] </tspan><tspan  fill="#D2D4E3">57</tspan>/<tspan  fill="#D33F6A">0</tspan></text><text x="370.9" y="146.3" class="nodeLabel"><tspan class="hidden">[81] </tspan><tspan  fill="#8998E1">82</tspan>/<tspan  fill="#D95A7A">7</tspan></text><text x="399.2" y="138" class="nodeLabel"><tspan class="hidden">[82] </tspan><tspan  fill="#8998E1">82</tspan>/<tspan  fill="#E17F94">18</tspan></text><text x="314.3" y="286.8" class="nodeLabel"><tspan class="hidden">[83] </tspan><tspan  fill="#D2D4E3">56</tspan>/<tspan  fill="#D3446C">1</tspan></text><text x="342.6" y="269.9" class="nodeLabel"><tspan class="hidden">[84] </tspan><tspan  fill="#D2D4E3">57</tspan>/<tspan  fill="#D4486F">2</tspan></text><text x="370.9" y="252.7" class="nodeLabel"><tspan class="hidden">[85] </tspan><tspan  fill="#D2D4E3">56</tspan>/<tspan  fill="#D3446C">1</tspan></text><text x="399.2" y="234.8" class="nodeLabel"><tspan class="hidden">[86] </tspan><tspan  fill="#E0E0E2">51</tspan>/<tspan  fill="#D4486F">2</tspan></text><text x="427.5" y="221.2" class="nodeLabel"><tspan class="hidden">[87] </tspan><tspan  fill="#E38FA0">23</tspan>/<tspan  fill="#D33F6A">0</tspan></text><text x="455.8" y="210.5" class="nodeLabel"><tspan class="hidden">[88] </tspan><tspan  fill="#B4BBE3">67</tspan>/<tspan  fill="#DD6F88">13</tspan></text><text x="484.1" y="200.1" class="nodeLabel"><tspan class="hidden">[89] </tspan><tspan  fill="#D2D4E3">56</tspan>/<tspan  fill="#DD6C86">12</tspan></text><text x="512.4" y="190.5" class="nodeLabel"><tspan class="hidden">[90] </tspan><tspan  fill="#5374E2">98</tspan>/<tspan  fill="#7086E1">90</tspan></text><text x="540.7" y="182.2" class="nodeLabel"><tspan class="hidden">[91] </tspan><tspan  fill="#5776E2">97</tspan>/<tspan  fill="#E6BAC2">37</tspan></text><text x="427.5" y="248.4" class="nodeLabel"><tspan class="hidden">[92] </tspan><tspan  fill="#97A4E2">77</tspan>/<tspan  fill="#CFD2E3">58</tspan></text><text x="399.2" y="270.5" class="nodeLabel"><tspan class="hidden">[93] </tspan><tspan  fill="#5374E2">98</tspan>/<tspan  fill="#5776E2">97</tspan></text><text x="342.6" y="303.7" class="nodeLabel"><tspan class="hidden">[94] </tspan><tspan  fill="#7A8DE1">87</tspan>/<tspan  fill="#8C9BE1">81</tspan></text><text x="286" y="334" class="nodeLabel"><tspan class="hidden">[95] </tspan><tspan  fill="#D2D4E3">56</tspan>/<tspan  fill="#D64F73">4</tspan></text><text x="314.3" y="325.7" class="nodeLabel"><tspan class="hidden">[96] </tspan><tspan  fill="#D2D4E3">57</tspan>/<tspan  fill="#E4D6D8">46</tspan></text><text x="229.4" y="423.4" class="nodeLabel"><tspan class="hidden">[97] </tspan><tspan  fill="#768BE1">88</tspan>/<tspan  fill="#5374E2">98</tspan></text><text x="257.7" y="405.1" class="nodeLabel"><tspan class="hidden">[98] </tspan><tspan  fill="#768BE1">88</tspan>/<tspan  fill="#DB617F">9</tspan></text><text x="286" y="387.9" class="nodeLabel"><tspan class="hidden">[99] </tspan><tspan  fill="#9AA6E2">76</tspan>/<tspan  fill="#4F72E2">99</tspan></text><text x="314.3" y="378.2" class="nodeLabel"><tspan class="hidden">[100] </tspan><tspan  fill="#5374E2">98</tspan>/<tspan  fill="#4F72E2">99</tspan></text><text x="342.6" y="369.9" class="nodeLabel"><tspan class="hidden">[101] </tspan><tspan  fill="#5374E2">98</tspan>/<tspan  fill="#7D8FE1">86</tspan></text><text x="286" y="422.4" class="nodeLabel"><tspan class="hidden">[102] </tspan><tspan  fill="#D2D4E3">57</tspan>/<tspan  fill="#D54C71">3</tspan></text><text x="314.3" y="414.1" class="nodeLabel"><tspan class="hidden">[103] </tspan><tspan  fill="#6982E1">92</tspan>/<tspan  fill="#A0ABE2">74</tspan></text><text x="59.6" y="381" class="nodeLabel"><tspan class="hidden">[104] </tspan><tspan  fill="#5374E2">98</tspan>/<tspan  fill="#6982E1">92</tspan></text>

<text x="156.65" y="400.88" class="annot">Pe+</text>



<text x="241.55" y="395.58" class="annot">Pe-</text>



<text x="326.45" y="146.38" class="annot">Pe-</text>



<text x="241.55" y="343.78" class="annot">Um</text>



<text x="241.55" y="432.18" class="annot">Um</text>



<text x="326.45" y="260.38" class="annot">Um</text>



<text x="467.95" y="190.58" class="annot">Co</text>



<text x="411.35" y="58.98" class="annot">D</text>



<text x="298.15" y="277.28" class="annot">St</text>



<text x="269.85" y="200.18" class="annot">*</text>



<text x="241.55" y="262.38" class="annot">L</text>



<text x="213.25" y="303.08" class="annot">A</text>

</svg>
