<svg version="1" xmlns="http://www.w3.org/2000/svg" width="933.333" height="933.333" viewBox="0 0 700.000000 700.000000"><path d="M338.7 24.5c-7.6 2.1-18.4 7.7-29.2 15-26.4 18.1-34.1 22.7-45.2 26.9-4.4 1.7-8.1 3.8-9.4 5.4-1.7 2.3-3.5 2.9-12.2 4.4-5.6.9-19 4.2-29.7 7.3-10.8 3.1-27.1 6.9-36.5 8.5-21.5 3.7-23.4 4.1-24.1 5.1-.3.5 1.3.9 3.6.9 4.8 0 4.6.8-1.2 5.1-5.1 3.6-6.6 3.7-7 .1-.5-4.1-3.8-3.9-18.9 1.3-7.4 2.6-17.4 6-22.4 7.6-18.6 6.2-36.9 16.6-53.3 30.3-10.3 8.7-15.8 15-22.7 26.1-10.6 16.9-23.8 53-27.5 75-2.1 12.2-2.2 15.4-1.8 50 .5 35.6.6 37.4 3.1 48.5 1.5 6.3 3.6 18.2 4.7 26.5 1.5 11.3 2.5 15.6 4 17.7 4.8 6.4 7.4 15.2 11 36.4 2.3 13.1 6.8 24.9 13.7 34.9 5.5 8.2 8.5 14.4 12.6 26.1 7 19.7 9.2 23.5 22.9 38.7 4.9 5.4 9.8 11.8 10.8 14.3 4.1 9.4 10.8 16.8 25.5 28.1 9.1 7 12.5 10.4 18.5 18.8 7.1 9.9 11 13.4 21.2 18.6 6.6 3.4 13.1 8 20.5 14.2 22.1 18.9 27.3 22.1 40.3 25.1 4.1 1 9.3 2.5 11.5 3.3 2.2.9 7.6 1.8 12 2.2 4.6.3 7.9 1 7.7 1.6-.2.5-2.1.9-4.3.8-3.3-.2-4 .1-3.7 1.5.8 3.9 13.8 8.1 25.8 8.2 6.5 0 13.1 1.7 22 5.5 12.7 5.4 19.6 6.5 28.7 4.4 4.5-1.1 5.9-.9 15.4 2.1 13.5 4.2 22.1 6 29 6 7.3 0 14.8-2.6 15.9-5.5.5-1.2 1.6-2.5 2.5-2.9 3.3-1.2 13.7-.6 22.8 1.5 14.2 3.2 25 2.3 39.2-3.1 6.1-2.3 17.7-5.7 25.9-7.6 15.6-3.5 26.9-8 30.7-12l2.2-2.3-2.7-1c-3-1.2-3.3-2.3-1-4.2 1.2-1 2-1 3.5-.1 1 .7 3 1.2 4.3 1.2 2.7 0 8.6-4.4 8.6-6.5 0-.9 1.6-1.2 5.3-1.1 7.5.2 14.6-2.8 15.3-6.3.7-3.5 5.2-6.3 7.6-4.8 2.4 1.6 8-2.6 22.3-16.8 19.4-19.3 38.6-44.3 41.9-54.5 1-3 3.1-7.2 4.7-9.2 1.6-2 2.9-4.3 2.9-5 0-1.3 8.2-7.8 9.7-7.8.4 0 1.5.8 2.5 1.7 1.8 1.6 1.8 1.6 1.2-.3-.4-1-1.3-2.8-2.1-3.9-2.9-4.3-.3-4.8 3.9-.8l2.8 2.7v-3.1c0-2.4 1.3-4.4 5.8-8.9 6.1-6.3 12.3-15.1 14.8-20.9 1.2-3 1.2-4 .2-6.2-1.6-3.3-6.1-4.9-9.4-3.4-3 1.3-3.3 5.1-.4 5.1 2.6 0 4.9 4.5 3.2 6.2-.9.9-1.6.7-3-.5-1.7-1.6-2-1.6-3.2-.2-1.8 2.2-3.9 1.8-5.1-.9-.9-2-.5-3.7 2.5-10.5 2.5-5.5 3.6-9.2 3.5-11.9-.2-2.1.1-4.3.5-5 .9-1.5 4.8-1.6 6.2-.2.7.7 2.2 0 4.4-2 6.4-5.4 6.8-3.3 1 4.7-4.4 6.2-4.9 8.2-2.2 10.5 4.2 3.7 7.6 2.6 9.2-3 .5-2.1 3.2-7.9 6-12.8 2.7-4.9 5-9.9 5-11 0-1.2.9-3.3 2-4.7 2.4-3.1 2.5-3.9.4-9.4-1.4-3.5-1.4-4.6-.4-5.8 1.6-2 3-.3 3 3.7 0 1.5.5 3 1.1 3.4 3.3 2 4.1-9.2.9-12.1-2.9-2.6-2.5-4.3 1.2-4.7 4.6-.4 7.3-4.6 7.3-11.1 0-2.9-.4-6-.9-6.9-.6-1.3 0-2 2.7-3.2 5.8-2.4 7-5.3 6.8-16.2-.1-6.8.5-11.7 2-17.7 1.9-7.5 2-8.9.9-16.2-1.2-7.8-1.2-8.2 1.2-13 4.7-9.4 6.2-16.1 6-28-.1-6.1.3-14.6.9-18.9 1.9-14.5 1.3-34.7-1.5-48.6-1.3-6.9-3.2-17.5-4.1-23.5-1-7-3.6-16.8-7.1-27.2-3-8.9-5.4-17.5-5.4-19.2 0-4.8-3.5-14.5-7.1-19.7-1.8-2.7-7.7-9.8-13.1-15.7-5.4-5.9-10.5-11.8-11.4-13.2-1.8-2.8-13.2-10.8-18.6-13-3.4-1.4-3.8-1.4-4.7.2-.9 1.7-1.3 1.7-6.5-.1-6.8-2.3-8.7-4.1-4.5-4.1 4.2 0 3.7-1.6-1.3-4.5-2.5-1.4-6.5-3.7-8.9-5.2-12.1-7.3-38.1-13.2-73.4-16.8-38.8-3.9-65.5-8.3-82-13.6-11.8-3.9-33.2-14.4-39.5-19.6-12.2-9.9-31.3-21.5-40.7-24.7-7.3-2.5-21.8-2.7-29.6-.6zm40.6 24.7c-.2.5-1.4.8-2.6.8-1.2 0-4.2.9-6.6 2-5.4 2.5-9.2 2.5-12.2.1-2.3-1.9-2.4-1.9-.5-4 2.1-2.3 4.6-2.7 6.3-1 2.2 2.2 6.1.2 7.3-3.7l1.2-3.6 3.8 4.3c2.1 2.4 3.6 4.7 3.3 5.1zM333.5 45c.6 2.9.8 3 7 3 5.4 0 6.6.3 7.5 2 1.6 3-1.2 3.6-7.5 1.6-6.2-1.9-10.5-5-10.5-7.5 0-4.2 2.5-3.5 3.5.9zM329 58.3c0 3.6 1.5 5.4 6.4 7.9 2.9 1.5 2.9 1.6.7 2.3-2.5.8-2.5 3.2.1 4.9 2.4 1.5 6.2-2.4 7.8-8 1.2-4.3 3.5-7.3 4.6-6.1.4.3 1 2.7 1.5 5.3 1.1 5.8 4.5 11.4 6.9 11.4 1.2 0 3-2 5-5.5 1.7-3 3.5-5.5 3.9-5.5.4 0 1.5 1.8 2.4 4 2.5 6.4 5.7 5 7.2-3.3.8-4.4 2.2-4.6 6.4-1.1 3.7 3.1 3.9 5 .9 6-1.3.4-3.7 1.7-5.4 3-7.1 5.5-22.1 6.6-37.9 3-5.3-1.3-7.8-2.5-10.3-5-3.7-3.7-5.1-9.3-3.3-13.9 1.4-3.7 3.1-3.4 3.1.6zm64.8-2.1c2 2 1.4 7.5-1 9.8-2.3 2.1-5.1 2.9-3 .8.7-.7 1.2-3.6 1.2-6.5 0-5.4.6-6.3 2.8-4.1zM295 65.5c0 .2-.9 1.9-2 3.7-2 3.3-2.7 6.8-1.3 6.8.4 0 2.4-1.7 4.5-3.7s4-3.4 4.3-3.2c.2.3-.8 2.6-2.4 5-1.5 2.5-3.4 6.2-4.1 8.3-1.4 4.5-2.8 4.2-5.7-1-3.1-5.3-3.9-10-2.2-12.1 1.9-2.2 8.9-5.3 8.9-3.8zm118.4 9.7c2.2 3.2 2 5.5-.9 8.3-1.6 1.7-3.5 2.5-6 2.5-4.1 0-4.8-1.1-4.3-6.6l.3-3.9 1.8 3.2c2.8 5.3 5.6 3.6 5.7-3.5 0-2.8 1.4-2.8 3.4 0zm-107.8 5.9c-.3 3.4-.6 8.2-.6 10.5 0 5-1.5 5.7-3.2 1.6-.7-1.5-2.1-3.7-3.2-5l-2-2.2 2.3-2.8c1.2-1.5 2.9-3.9 3.9-5.4 2.7-4.4 3.5-3.3 2.8 3.3zm22.3-.8c1.7 5.4 2.4 17 1.2 20.1-1.1 2.7-1.4 2.8-6.2 2.4-6.4-.7-7.6-1.8-5.4-5.2.9-1.4 2.1-5.8 2.6-9.7 1.4-11.2 5.4-15.1 7.8-7.6zm-51.4-.8c-1 .9-2.6 3.4-3.5 5.7-2.1 5.7-4.5 7-7.1 3.9-2.7-3.3-2.5-6.1.4-6.1 1.3 0 3.8-1.1 5.7-2.5 1.9-1.4 4.1-2.5 4.9-2.5 1.3.1 1.2.4-.4 1.5zm-32.5-.1c0 .2-1.9 1.5-4.3 2.9-2.3 1.4-5.1 3.5-6.2 4.7-1.8 2-1.8 2.2-.2 3.1.9.6 1.7 2 1.7 3.2 0 1.3.5 2.8 1.1 3.4.7.7.1 1.9-2.1 4.2-4.4 4.3-5.2 4-4.4-1.9.4-3.2.2-6.1-.6-8.1-1.2-2.7-1.1-3.3.8-5.1 2.7-2.7 14.2-7.9 14.2-6.4zm139.6 4.1c.5 2 1.2 2.5 3.8 2.5 2 0 4.7 1.1 6.9 2.7 4.3 3.3 4.5 3.9 1.4 4.6-1.2.4-5.6 2.8-9.6 5.4-6.7 4.2-8 4.7-12.7 4.5-3.4-.1-8.1.7-13.5 2.4-8.3 2.6-10.3 2.7-23.1.8-3.4-.5-3.8-.9-3.8-3.4 0-6 2.8-8.1 5.1-3.8 1.1 2 1.2 2.1 2.5.4.7-1 1.8-4.9 2.5-8.7.7-3.9 1.7-7.3 2.2-7.6 1.5-.9 3.6 2.6 5.3 8.7 2.3 8.5 4.1 12 6.2 12 3.4 0 5.4-3.6 6.6-11.9.6-4.4 1.4-8.2 1.7-8.5.3-.3 1.8 2.1 3.4 5.4 6 12.6 10.8 13.2 11.3 1.4.1-3.8.4-7.5.7-8.2.7-2 2.4-1.4 3.1 1.3zm-129 2c1.5.5 1.5.7 0 3-.9 1.3-1.6 4-1.6 5.8 0 1.9-.7 4-1.5 4.7-1.3 1.1-1.5.8-1.5-1.7 0-1.7-.9-3.8-2-4.8-2.7-2.5-2.6-6.3.3-7.4 1.2-.5 2.8-.7 3.5-.5.6.2 1.9.6 2.8.9zm27.2 5.7c-1.3 2.4-3 6.3-3.9 8.8l-1.6 4.5-1.6-3.2c-2.7-5.1-2.2-7.8 2-11.2 2.1-1.7 4.6-3.1 5.5-3.1 1.7 0 1.7.3-.4 4.2zm30.8 8.4c-.4 1.5-1.4 2.4-2.6 2.4-2.5 0-2.5-.5.2-6.1 2.3-4.5 2.3-4.5 2.6-1.6.2 1.7.1 4-.2 5.3zm154.7-2.4c.7 2.4-.1 4.8-1.6 4.8s-4.7-3.1-4.7-4.5c0-3.6 5.4-3.9 6.3-.3zm-287.2-.4c-7.8 5.4-7.9 7.3-.4 6.2l4.8-.8-5.3 4.9c-3 2.7-6.2 5.4-7.3 5.9-1.7 1-1.9.7-1.9-2.4 0-1.9.5-5.7 1.1-8.5.9-4.5 1.3-5 4.7-5.9 5.7-1.5 7-1.3 4.3.6zM296.5 99c.8 3.8-.2 8.5-2.2 10.6-1.4 1.4-1.4 2 0 6.5.9 2.7 1.4 5.6 1.1 6.4-.9 2.3-4.3 1.8-5.5-.9-.6-1.3-2.9-3.3-5-4.5-5.3-3-6.9-4.8-6.9-7.7 0-3.1 2.5-4.1 4.9-2 2.1 2 3.1 2 3.1.3 0-.8 1.8-3.2 4-5.5 2.2-2.2 4-4.8 4-5.7 0-2.6 1.8-.8 2.5 2.5zm117 2.4c.9 2.4 2 6.8 2.3 9.7.7 5.4.7 5.4 4.5 5.9l3.9.5-2.4 2.1c-2.9 2.5-7.4 5.4-8.6 5.4-1.1 0-5.2-18.6-5.2-23.4 0-6.2 3.2-6.4 5.5-.2zM218 100c0 1.5-5 6-6.6 6-1.9 0-1.7-3 .3-5.2 1.7-1.9 6.3-2.5 6.3-.8zm45 .4c0 .8-.4 1.7-.9 2.1-.5.3-1.7 2.7-2.6 5.4-2 6.3-5.4 8-7.5 4-1.9-3.4-.3-6.7 4.7-9.9 5.3-3.4 6.3-3.6 6.3-1.6zm292.7 2.9c.4.4 1.8 1.5 3 2.5 2.3 1.7 4.5 8.4 5.8 17.6.7 4.3.6 4.6-1.4 4.6-2.6 0-6.8-2.6-8.1-5.1-.9-1.6-.6-1.7 2.6-1.2 3.1.5 3.6.4 3.2-1.3-.2-1.1-2-2.5-4.8-3.5-5.5-2-6.2-3.7-1.9-4.6 2.6-.5 2.9-.8 1.7-1.7-2.3-1.7-3.8-5.2-3.8-8.8.1-3.1.1-3.2 1.5-1.3.8 1.1 1.8 2.3 2.2 2.8zm-127.3-1.1c2.1 2.9 2.1 6.8 0 6.8-1.4 0-4.4-5.4-4.4-8 0-1.8 2.8-1.1 4.4 1.2zM249 103.4c0 .6-16.1 13.6-16.9 13.6-1.6 0-4.3-3.9-3.6-5.1 1.6-2.5 20.5-10.4 20.5-8.5zm327.5 7.8c2.7 1.2 3.9 3.4 2.4 4.4-.6.3-3.1-.2-5.5-1.1-4.5-1.7-5.3-2.8-6.8-8.9l-.7-2.9 4.1 3.7c2.3 2 5.2 4.2 6.5 4.8zm-35-3.5c1.9 9.1 2 9.2 7.8 11.3 1.6.5 2.5 1.4 2.2 2-1.3 2.1-6.3.9-13.2-3.3-7.1-4.1-7.2-4.2-4.5-5.1 3.2-1.1 4.2-2.3 4.2-5.4 0-3.2 2.8-2.8 3.5.5zm42.3-1.1c1.2.8 2.9 2.8 3.7 4.3.8 1.6 2.8 3.4 4.4 4.1 2.9 1.1 7.1 6 5.3 6-2.3 0-19.2-13.3-19.2-15.1 0-1.4 3.3-1.1 5.8.7zm-420.4 3.3c.5.8-9.2 8.5-20.1 15.9-6.1 4.2-6.9 2.4-2.2-5 1.8-2.7 3.2-6.3 3.3-7.9.1-3.1.6-3.5 2.2-1.9.6.6 3.4.5 7.9-.4 8.9-1.8 8.3-1.7 8.9-.7zm54.6.1c0 .5-.9 2.4-2 4.2-3.2 5.3-2.8 5.5 6.4 3.2l2.5-.6-1.5 4.3c-2.2 6.5-11.7 24.2-13.1 24.7-2.6.8-2.6-2.9 0-5.6 1.9-2 2.4-3.1 1.7-4.2-1.3-2-1.3-15.6 0-19.9 1.3-4.7 6-9.5 6-6.1zm49.5 5.8c-2.7 7.2-7.2 15.7-9 17.2-1.5 1.3-2 1.1-4.2-1.4-3.1-3.7-2.9-9.5.4-11.2 1.2-.6 4.8-3.5 7.9-6.5 6.4-6 7.6-5.5 4.9 1.9zm128.3-1.5c.4-.6 1.6-1.3 2.7-1.5 1.7-.3 2.1.4 2.6 4.7.3 2.7 1.6 7.1 2.9 9.8 1.9 3.7 2.1 5 1.2 5.9-1.6 1.6-13 2.2-16.6.9l-2.9-1.2.7-7.2c.3-4 .9-9.4 1.3-12l.6-4.8 3.4 3.3c2.2 2.2 3.6 2.9 4.1 2.1zm-198.4-3.5c.9 1.4-2.1 4.8-5.3 6.2-6.2 2.5-8.5-1.6-2.8-5 3.3-2.1 7.2-2.6 8.1-1.2zm175.7 13.3c2.4 9.5 3.4 11.9 5.9 14.1 1.7 1.6 3.7 2.8 4.5 2.8 2 0 1.9 1.6-.1 2.4-2 .8-12.2.8-16 0l-2.9-.5.7-12.2c.3-6.7.9-14.1 1.3-16.6.6-3.9.8-4.2 2.2-2.8.8.8 2.8 6.6 4.4 12.8zm-48.3-1.8c.2 8.6 0 9.9-1.8 11.7-1.1 1.1-3 2-4.2 2-4.6-.1-16-2-18.1-3.2-2.1-1.1-2.1-1.1-.2-1.9 1.1-.4 4.9-.8 8.5-.8 3.6-.1 7-.5 7.6-.9.7-.4 1.7-3.4 2.4-6.6 2.8-13.8 5.4-13.9 5.8-.3zm160-6.2c4.2 3.1 5.5 5.9 2.7 5.9-1.6 0-9.5-6.7-9.5-8.1 0-1.7 2.6-.9 6.8 2.2zm-135 5.2c3 7.9 5.6 21 4.8 24.2-.6 2.5-1 2.7-3.9 2-1.8-.4-7-1.3-11.7-1.9-9.8-1.3-9.9-1.4-7.7-11.1l1.5-6 .7 6.3c1.5 12.3 4.5 8.9 10.5-11.6 1.1-3.9 2.5-7.2 3-7.2s1.7 2.4 2.8 5.3zm122.9-3.7c.8 2.2-1.4 6.6-3.3 6.2-.8-.2-2.3-1.6-3.2-3.1-1.5-2.4-1.5-2.9-.2-3.7 2.3-1.5 6-1.2 6.7.6zm-273.7.5c0 1.9-2.2 5.3-8.4 12.8l-6 7.4-.9-3.2c-.4-1.8-.7-4.9-.5-6.9.3-3.4.8-4 5.7-6.4 3-1.6 5.9-3.2 6.5-3.8 1.3-1.3 3.6-1.3 3.6.1zm44.9 6.7c-.7 2-2.2 5.3-3.5 7.2-1.2 1.9-2.5 5-2.9 6.8-.5 2.6-1.1 3.3-2.8 3-2.4-.3-6.7-6.1-6.7-8.9 0-2.5 6.5-9.6 12-13.1 4.3-2.8 4.5-2.8 4.8-.8.2 1.1-.2 3.7-.9 5.8zm-72.1-.1c-6.3 6.5-10.6 12.9-9.4 14.1.3.3 3.1-.3 6.1-1.3 5.8-2 7.2-1.7 5.7 1.2-1.4 2.5-12.8 13.3-14.1 13.3-1.9 0-1.8-14.8 0-18.3 1.4-2.5.2-3.9-2.1-2.7-1 .5-6.7 5-12.5 10-10.4 8.8-15.5 11.7-12.1 6.8.9-1.2 1.8-4.8 2.2-8 .4-3.2 1.2-6.2 1.8-6.6.6-.5 3.3-1.4 5.9-2.1 2.7-.6 5.9-1.8 7.2-2.7 1.5-1 3.5-1.3 6.1-.8 3.5.5 4.1.3 6.1-2.4 2.4-3.3 9.6-7.2 13.3-7.2 2.2 0 1.8.7-4.2 6.7zm272.2-2.5c1.9 1.3 3.5 2.9 3.8 3.5.4 1.5-2.4 1.7-3.3.3-.3-.6-1.6-1-2.9-1-2.5 0-4.6-1.7-4.6-3.7s3.3-1.5 7 .9zm-311-.3c0 1.8-21.8 20.1-23.9 20.1-1.7 0-1.4-.9 3.2-9.5 3.8-7 4.7-8 6.9-7.7 1.4.1 4.5-.6 6.9-1.7 4.9-2.2 6.9-2.5 6.9-1.2zm138.9 12.5l-3.2 11.5-3.1-2.6c-5.1-4.3-5.2-5.1-.8-8.9 2.2-1.9 5.3-5.4 6.8-7.8 1.6-2.5 3-4.3 3.2-4.1.2.2-1.1 5.5-2.9 11.9zm342.2-8.4c5.4 1.5 6.8 3.8 8.9 14.9 2.4 12.3 2.4 13.1.4 13.1-1.6 0-4.4-2.8-9.7-9.4-2.7-3.3-2.7-3.6-1-4.2 2.9-1.1 5.3-3.6 5.3-5.5 0-1-2-3.2-4.5-4.9-6.4-4.4-6.2-5.9.6-4zm-327.5 2.6c1.4 5.4-2 25.9-4.7 28.8-.8.9-4.7-1.2-8.6-4.6l-2.1-2 3.3-7.9c6.5-15.4 10.6-20.3 12.1-14.3zm183.5 7.9c1.7 3.8 1.7 5.5-.1 5.5-1.2 0-6-9.4-6-11.6 0-1.5.2-1.5 2.1.2 1.2 1 3 3.7 4 5.9zm130.8-3.5c1.2 1.7 3.1 5.2 4.2 7.8 1.1 2.6 3 5.7 4.1 6.9l2.1 2.3h-2.6c-4.2 0-9.5-5.4-11.2-11.5-1.4-4.8-1.3-8.5.4-8.5.4 0 1.7 1.4 3 3zm-495.1.4c.3 1.2-1.6 3.7-5.2 7.2-7.7 7.5-9.8 7.1-5.5-1.1 3.8-7.4 9.8-10.8 10.7-6.1zm318.8-.1c.3.8.8 4.3 1.2 7.8l.7 6.4 4.3.3c4.8.4 5.3 1.4 1.7 3-5.7 2.6-9.3.8-11.6-5.6-1.8-5.3 1.7-16.9 3.7-11.9zM204 135.9c0 .6-1.5 2.5-3.3 4.3-1.9 1.8-6.2 6.6-9.7 10.6-3.4 4-6.8 7.1-7.4 6.9-.6-.2-1.7-3.7-2.3-7.8-1-5.8-1-7.6 0-8.6 1.4-1.4 6.7-2 8.5-.9.7.4 2.9-.5 5.4-2.3 4-3 8.8-4.1 8.8-2.2zm347.4.7c.9 2.2-1.1 5.4-3.5 5.4-2.7 0-3.5-2.7-1.4-5 2.2-2.4 4.1-2.6 4.9-.4zm-298.9 8c-.8 4.7-9.4 21.6-10.6 20.8-1.6-1-6.9-10.8-6.9-12.8 0-2.3 2.7-5.6 4.6-5.6.8 0 4-2.4 7.1-5.2 5.5-5 5.8-5.1 6.1-2.9.2 1.3.1 3.9-.3 5.7zm237.3-4.9c.6 1.5 1.2 4.5 1.2 6.7l-.1 4.1-2-3.8c-1.1-2.1-2.7-4.1-3.4-4.4-1.5-.5-2-3.4-.8-4.6 1.4-1.5 3.9-.5 5.1 2zm161.8.4c1.6 1.7 4.4 3.8 6.2 4.5 3.2 1.4 4.4 3.4 2 3.4-3.2 0-12.8-7.3-12.8-9.7 0-2.1 1.4-1.5 4.6 1.8zm-133 4.5c2.5 6-1.5 7.5-5.2 1.9-1.3-2-1.4-2.8-.4-4 2-2.5 4-1.7 5.6 2.1zm-433.2-1.8c.7 1.2-.5 2.6-5.9 6.2-2.7 1.9-6.6 4.9-8.7 6.8-2.1 1.9-4.1 3.3-4.4 3-.2-.3 1.1-2.9 3.1-5.8 1.9-2.8 3.5-5.6 3.5-6.1 0-2.8 11-6.4 12.4-4.1zm43.7.9c-.5 1-6.2 7-12.6 13.3-10.1 9.9-11.6 11.1-11.1 8.5.5-2.3 3.4-17.1 3.6-18.2.1-1 5.6-2.9 11-3.9 9.5-1.8 10.3-1.7 9.1.3zm98.1 2.3c-.5 3-6.7 18.5-8.8 21.7-.8 1.3-2.1 2.3-2.9 2.3-1.9 0-4.5-5.1-4.5-8.7 0-4.5 4.1-11.5 8.9-15.1 5.1-3.8 7.8-3.9 7.3-.2zm231.2 1.4c4.5 3.6 6.7 7.5 6 10.3-.3 1.2-.1 2.4.5 2.7 2.2 1.4.8 14.5-1.6 15.3-2.1.7-7.3-11.9-7.3-17.9 0-3.8-1-5.8-2.6-5.1-1.1.4-1.4-.6-1.4-4.7 0-5.7-.1-5.7 6.4-.6zm118.3-2.8c.3.8-.2 3.2-1.2 5.3-1 2.3-1.4 4.8-1 6 .9 2.8-1.2 2.8-4.2-.1-2.8-2.6-2.9-4-.3-6.3 1.1-1 2-2.9 2-4.2 0-1.6.6-2.3 2-2.3 1.1 0 2.3.7 2.7 1.6zM403 145c2.2 1.2 3.5 5.3 5.1 16.2 1.3 9.1.8 10.2-5.2 11.8-2.2.6-5.4 2.4-7.3 4-3.4 3-7.6 4-7.6 1.8 0-.7 1.1-2.4 2.5-3.8 2.4-2.5 2.6-3.6 3.1-14.6.7-16.2.8-16.4 4.5-16.4 1.7 0 3.9.5 4.9 1zm-82 1c1.2.8 1.5 3.4 1.2 15.2-.3 20.8-1.8 23.9-8.3 18.3-1.7-1.4-5.1-3.1-7.5-3.7-5.5-1.5-5.5-2.5-.5-12.1 2.1-4 4.2-9.2 4.6-11.5 1-6 6.1-9 10.5-6.2zm222.9 2.1c3.5 1.2 3.7 2.3 1.7 9-1.3 4.1-1.2 5.1.4 9.7 2.3 6.3 1.1 6.7-4.7 1.7-5.6-4.7-11.3-12.7-11.3-15.6l.1-2.4 2.2 2.8c2.8 3.3 3.7 2.7 3.7-2.5 0-3.3.3-3.8 2.4-3.8 1.2 0 3.7.5 5.5 1.1zm-246 12c-1.6 15.9-1.5 15.8-6.3 11.4l-2.7-2.5 2-3.7c1-2.1 2.4-5.8 3.1-8.3 1.2-4.6 3.8-9.5 4.6-8.7.3.2 0 5.6-.7 11.8zm77.6-7c3.3 3.7 4.6 6 8.6 15.8.8 1.8 1.2 2.1 2.3 1.1 1.2-.9 1.3-.7.9 1-.8 2.8-5.7 6.4-12.3 8.9-3 1.2-5.6 2.1-5.7 2.1-.6 0-.2-31.7.4-32.3 1.2-1.2 2-.7 5.8 3.4zm268.3-.4c1.1 1.6 3.5 6.3 5.5 10.5 4.4 9.7 6.2 10.1 7.2 1.8.4-3.3 1.1-6 1.6-6 2.2 0 12.5 20 13.1 25.5.2 2.1-.2 3-1.4 3.3-1.3.2-1.8-.3-1.8-1.7 0-3.6-6.7-9.9-12.2-11.6-10-2.9-16.1-9-17.4-17.2-1.1-7.4 1.7-9.8 5.4-4.6zm-293.9 1c1.5 3.8 7.1 28.9 7.1 31.9 0 2-.5 2.4-2.7 2.4-5-.1-17.7-2-18.5-2.8-.8-.8 3.5-22.9 5.3-27.2 3.1-7.4 6.8-9.2 8.8-4.3zm-290.3 2c-1.5 5.6-10.7 16.3-14.2 16.3-2.4 0-1.5-2.8 1.7-5 1.7-1.3 3.4-3.3 3.9-4.6.5-1.3 1.6-2.4 2.3-2.4.8 0 2.2-1.6 3.3-3.5 2.2-4.1 3.9-4.6 3-.8zm87.8-.5c-1.3 4.4-4.2 9.3-6.9 11.8-4.1 3.8-9.3 15-7 15 .2 0 2.6-1.3 5.1-3 5.7-3.6 11.2-4.9 12.4-2.9 1 1.5-.1 3.9-4.5 9.4-4.9 6.2-5.2 7.2-1.2 4.2 2.1-1.6 4.2-2.7 4.7-2.5 1 .3-13 24.8-14.2 24.8-.4 0-1-1.7-1.3-3.8-.4-2-2-8.5-3.5-14.5l-2.8-10.7 1.9-6.8c1-3.7 1.9-8.9 1.9-11.5 0-6.6 3.3-10 9.2-9.5 2.6.1 4.3-.2 4.6-1 .7-2.2 2.3-1.2 1.6 1zM179 154c0 4.5-3.6 13.1-7.5 17.9-7.8 9.8-11.7 15.8-11.3 17.7.3 1.6 1.4.9 6.3-3.7 15.7-14.6 17.2-11.8 3.9 7.3-3 4.3-5.4 8.2-5.4 8.8 0 .6-1.1 2.8-2.5 4.8-2.3 3.3-3.4 9.2-1.9 9.2.4 0 6.5-4.3 13.5-9.6 14.6-10.9 16.6-11.4 15.4-3.7-.4 2.6-1.7 6.8-3 9.3-1.2 2.5-2.6 5.6-3 7-.4 1.4-1.6 3.7-2.6 5.2-2.1 2.9-2.4 4.3-.9 3.3 1.7-1 1.1.9-1.9 6.6-1.6 3-3.4 7.3-4.1 9.7-1.7 6.4-3.4 4.8-4-3.9-.6-8.4-.6-8.4-7.1-15.9-2.5-3-5.2-6.5-5.8-7.7-1.9-3.7-1.3-8.9 1.3-12l2.5-2.8-2.5-2c-3.7-3.1-4.7-10.3-2.2-17.2 1.8-5.3 1.8-6 .4-13.3-1.8-8.8-1.9-10-.7-11.9.7-1.1 1.3-1.1 3.2.3 3.4 2.3 6.7 2 12.4-1.4 5.2-3 7.5-3.7 7.5-2zm-79.7 1.5c4.3.9 3.4 3.9-2.3 8.2-2.7 2-5 4.2-5 4.8 0 2-5.8 10.4-8.5 12.1-3.6 2.3-4.1 1.2-1.7-3.8 1.1-2.4 2.8-7.8 3.7-12 1.7-7.9 2.5-9.3 6-10 2.1-.4 3-.3 7.8.7zm161.7-1.1c0 .3-1.3 4.5-3 9.4-4.3 13-3.9 23.5.8 18.8.9-.9 3.3-4.9 5.2-8.8 4.1-8.2 6.6-10.5 9.5-8.4 1.7 1.2 1.8 2.3.8 19-1 18.1-2.1 22.5-4.7 18.1-1.7-2.9-6.6-7.6-12.1-11.5-3.6-2.5-5.1-4.3-5.3-6.2-.4-3.1-3.6-5.8-10.1-8.4-4.1-1.6-4.3-1.6-6.1.2-1 1-3 5.7-4.5 10.4s-2.9 8.7-3.1 8.9c-.6.7-3.5-2.2-8.6-8.2-5.7-6.9-5.9-6.3 4.9-14.3 4-3 7.8-6.3 8.5-7.4 1.5-2.4 2.8-2.6 2.8-.5 0 1.6 6.7 6.5 9 6.5.8 0 4.4-4.1 7.9-9 5.4-7.6 8.1-10.5 8.1-8.6zm335.5 6.8c-1.1 9.7-1.5 10.8-3.7 10.8-1.1 0-4.3-2.3-7.1-5.1-2.9-2.8-4.4-4.8-3.4-4.5 5.9 1.9 6.7 1.9 7.6-.7.8-2 4.2-4.7 6.9-5.6.2-.1.1 2.3-.3 5.1zm-399.5-3c0 3.4-3.6 12.2-5.2 12.6-1 .2-1.8 1-1.8 1.6 0 .6-.7 2.2-1.6 3.4-1.3 1.8-1.9 2.1-3 1.1-3.3-2.8-.2-12.3 5.6-17.3 3.3-2.7 6-3.4 6-1.4zm287.7 2.3c2-1.4 2.7-1.5 3.4-.4 1 1.7 2.9 12.7 2.9 17-.1 3.3-.1 3.3-1.6 1.4-2.4-3-8.4-16.4-8.3-18.3.1-1.5.2-1.5.6.1.4 1.7.6 1.7 3 .2zm-152.8 8.2c-.1 4.3-.4 10.9-.8 14.8l-.6 7-2.2-2.3c-1.7-1.6-2.3-3.4-2.3-6.9 0-5.3 3.8-20.3 5.1-20.3.5 0 .8 3.5.8 7.7zm107.5-1.5c1.3 3.2 3.8 7.9 5.5 10.6 1.7 2.7 3.1 5.6 3.1 6.5 0 1.1.8 1.7 2.5 1.7 3 0 3.2-1.8 1-8-1.6-4.6-2-9-.7-9 .4 0 1.6 1.4 2.6 3.1 1 1.7 3.2 4.6 4.8 6.5l3.1 3.5-2.3 2.4c-1.3 1.3-2.8 3.4-3.4 4.6-.8 1.7-2.6 2.5-6.8 3.4-4.3.8-7 2.2-10.9 5.5-4 3.4-5.3 4-6 2.9-1.9-3.1-3.1-12.9-2.7-23.5.3-10.3.5-11.5 2.8-13.9 1.3-1.4 3-2.4 3.8-2.3.7.2 2.4 2.9 3.6 6zm-312.3-.5c-.5 1-5.7 8.1-11.5 15.8-5.8 7.6-10.6 14.7-10.6 15.6 0 2.5-2.6 4.4-3.4 2.3-.8-2-.6-21.2.3-24.2.5-1.9 2.7-3.1 11-6.3 5.7-2.1 10.7-4.1 10.9-4.4.3-.3 1.4-.5 2.4-.5 1.5 0 1.7.4.9 1.7zm392.3.5c.3 1.3.9 5.9 1.2 10.3l.5 8-2.8-3.2c-1.6-1.8-4.6-6.1-6.6-9.5l-3.7-6.3 4.2-.6c2.4-.3 4.8-.7 5.4-.7.7-.1 1.4.8 1.8 2zm94.5-.3c1.2.7 1.2 2.3 0 10.2l-1.4 9.4-3.7-6c-2-3.3-3.3-6.2-2.7-6.3.5-.2.9-1.9.9-3.7 0-2.4.5-3.5 1.8-3.8 2.8-.8 3.6-.7 5.1.2zm-536.5 5c.6.9-4 7.7-6.7 10-2.2 1.8-2.1 1.2.7-5.4 2.3-5.1 4.6-6.9 6-4.6zm400.1 4.3c2.4 4.6 2.8 6.8 3.3 16.5.3 8.4.2 11.3-.7 11.3-.7 0-1.8-1.5-2.6-3.3-.7-1.8-2.3-4.1-3.4-5.1-2.9-2.7-2.8-5.6.4-5.6h2.4l-2.4-5.3c-2.7-5.7-3.2-10.6-1.3-12.5.7-.7 1.3-1.2 1.4-1.2.1 0 1.4 2.4 2.9 5.2zm154-4.2c.3.6-.5 1.4-1.9 2-1.9.7-2.6 1.7-2.6 3.5 0 1.4-.3 2.5-.7 2.5-1.6-.1-4.3-2.8-4.3-4.3 0-3.3 7.9-6.3 9.5-3.7zm-422.8 2.2c1.3 1 .6 4.1-.8 3.3-1.6-1-3.7 4-4.7 11.4-1 7.1-3.3 12-6 12.9-.7.2-1.2-.6-1.2-1.7 0-3.5-2.6-8.6-6.5-13-2.1-2.3-3.6-4.3-3.4-4.5.2-.2 2-1.1 3.9-2.1 1.9-.9 4.9-3 6.5-4.5 4.2-3.9 8.7-4.6 12.2-1.8zm354.1 2c1.4 3.1.6 7.8-1.4 7.8-1.4 0-6.4-6-6.4-7.8 0-1.4 3.1-3.2 5-2.9.8.1 2.1 1.4 2.8 2.9zm16.2.2c0 1.1-3.1 10.2-5.7 16.6-.9 2.4-2.3-5-1.6-8.8.9-5.1 7.3-12 7.3-7.8zm-518.2 3.4c.6 4.1-3.9 17-7.3 21-1.8 2-3.6 3.4-4.1 3-.7-.8 2.3-12.1 5.8-21.6 2.1-5.6 5-6.9 5.6-2.4zm481.1-.9c1.2.8 1.2 1.9.2 6.8-.6 3.2-1.6 8.7-2.1 12.2-.5 3.6-1.4 6.9-1.9 7.4-1.6 1.6-5.5-7.9-5.7-14-.2-2.8-1-6.5-1.8-8.2-.9-1.6-1.6-3.2-1.6-3.6 0-1.1 2.4-.4 4.2 1.2 1.7 1.5 1.8 1.5 1.8-.5 0-1.7.6-2.2 2.8-2.2 1.5 0 3.3.4 4.1.9zm94.8 5.1c.7 2.3 1.5 8.4 1.8 13.4l.6 9.1-3.6-4c-4.1-4.5-9.5-13.5-9.5-15.8 0-1.9 6.8-7.9 8.3-7.4.6.2 1.7 2.3 2.4 4.7zm-230.2 3.6c2.2 4.4 3.1 5.5 4.7 5.1 1.4-.4 2.5.5 4.3 3.1 3.3 5 7.8 17.3 6.7 18.4-.4.4-3.9 1.7-7.7 2.7-7 2-7.6 2.4-10.7 8-2.3 4.1-5.9 4.1-9.5 0-4.4-4.8-5.7-5.2-8.7-2.4-1.5 1.4-3.1 2.5-3.7 2.5-.5 0-3.3 1.6-6.2 3.5-2.8 1.9-5.7 3.5-6.4 3.5-2.2 0-1.4-5.5 1.3-9.5 2-3 2.3-4 1.2-4.6-.9-.6-1.3-3.7-1.3-11.3.1-9.3.3-10.8 2.2-12.8 1.2-1.3 2.6-3.6 3.2-5.1.6-1.6 1.7-2.7 2.4-2.5 2.8 1 7.5 8.8 9.1 15.4 1.9 7.5 7.6 20.7 9.5 21.9 1.9 1.1 2.2.2 2.8-6.7.4-4.4 1.2-7 2.6-8.6l2.1-2.3-2.2-.6c-1.9-.4-2.2-1.2-2.2-5 0-3.7.3-4.4 1.6-3.9 1.4.5 1.5-.3.9-7.5-.8-9.4-.1-9.6 4-1.3zm-93.1-2.4c2 3.1 3.5 12.9 4.2 28 .8 17.3 2.5 17.1 6.3-.7 1.2-5.4 2.4-10.1 2.7-10.4 1.3-1.3 2.7 2.5 3.6 9.6 1.7 14 2.2 15.7 4.2 16.1 2.2.5 3.6-1.3 3.6-4.6 0-1.3.6-3.6 1.4-5 .8-1.5 1.9-6.7 2.5-11.6 1.2-10.4 3-13.9 6.8-13.4 3.8.4 6.2 4.4 6.9 11.5.4 3.9 1.1 6.3 1.9 6.3 1.7 0 3.5 4.5 3.5 9 0 2.1.5 6.2 1.1 9 .8 3.9.8 5.5-.1 6.3-.9.9-1.6.6-3-1.1-2.9-3.5-7-4.2-24.8-4.2-16.8 0-21.1-.8-24.1-4.4-2.7-3.2-7.1-4.7-16.3-5.5-9-.8-9.3-1-12.5-4.6-4-4.6-5.1-9-2.9-11.4.9-1 1.6-2.4 1.6-3.2 0-1.9 6.5-15.5 7.8-16.3.6-.3 1.3-.3 1.5.1.8 1.3-1.3 18.4-2.8 22.7-1.3 3.6-1.2 4.2.6 6.8 3.5 4.9 6.1 3.4 7.9-4.7 2-8.9 6.5-21.8 8.3-24.2 2.5-3.1 8.1-3.2 10.1-.1zm197.8 1.8c1.3 1.9 4 4.6 6.1 5.9 3.9 2.5 4.7 5 2.3 7-.8.7-1.7 3.8-2.1 7-.9 7.4-2 9.3-4 6.7-3.2-4.2-5.7-13.2-6.3-22-.5-9.8.1-10.5 4-4.6zm-413.8.2c-.3 1.3-2.8 5.3-5.4 8.9-2.6 3.6-5.5 8-6.4 9.7-3.4 6.7-12.3 10.6-11.2 5 .3-1.3.8-4.1 1.1-6.3.4-2.2 1.5-5.5 2.6-7.3 1-1.8 1.9-3.9 1.9-4.7 0-.8 1.8-1.9 4.3-2.6 2.3-.6 5.3-1.9 6.7-3 1.4-1 3.5-1.9 4.8-1.9 2 0 2.2.4 1.6 2.2zM43.1 190c2.5 1.4 2.4 3.7-.1 4.5-2.4.8-7 6.5-7 8.7 0 .9 1 1.8 2.2 2.1 1.8.5 1.9.8.8 2.2-1.5 1.8-8.2 5.5-10 5.5-2 0-.9-1.8 1.5-2.4 2.1-.5 2.5-1.2 2.5-4.4.1-5 1.8-12.2 3.6-15 1.6-2.4 3.5-2.8 6.5-1.2zm200.9 1.4c0 1.4-.9 6.4-2.1 11.2-2.2 9.2-2 14.3.6 16.4 1.3 1.1 1.4 1 1-.2-.6-1.6 10.9-18.6 13.2-19.5 2-.8 5.2 2.5 6.4 6.8.9 2.9.8 6.1-.6 14.9-.9 6.1-1.4 12.2-1.1 13.6 1 3.9 8.6 4.7 8.6.9 0-.9 1-3.9 2.1-6.6 1.5-3.5 2.6-4.8 3.6-4.5.8.4 2.3.6 3.4.6 2.3 0 2.5 3.5.5 12.9-1.5 6.9-2.5 8.1-7 8.1-4.2 0-9-3.4-14.1-10-4-5.2-9.3-9-12.5-9-1.9 0-11.2-10.2-14.9-16.3l-3.3-5.7 2.7-3.5c3.2-4.2 11.6-12.5 12.7-12.5.5 0 .8 1.1.8 2.4zm309 .9c.9.7 2.3 2.3 3.3 3.6 2.9 4.2-1.6 7-5.5 3.4-2-1.8-2.5-5.3-.7-5.3.6 0 .9-.7.5-1.5-.7-1.8.3-1.9 2.4-.2zm-126.2 6c4.4 10 5.1 16.7 1.8 16.7-1.6 0-1.7-.3-3.5-11-.6-3.6-1.4-7.6-1.8-8.9-1-3.8 1.4-1.6 3.5 3.2zm230.8 2.9c1.5 4.6 3.7 10.7 5 13.7 2.5 5.5 3.1 9.1 1.5 9.1-1.3 0-8.8-8.4-12.1-13.7-3.4-5.3-3.8-9.8-1.5-14.3 2.5-4.9 4.1-3.7 7.1 5.2zM126 197.5c1.9 2.3.6 14.7-2.1 19.8-2.4 4.7-11.8 16.7-13.1 16.7-.4 0-.8-2.1-.8-4.8-.1-6.2-1.9-10.9-6.5-17.2-4.4-6-5.1-5 7.9-11.5 9.4-4.8 12.6-5.4 14.6-3zm93.4 3.7c0 2.8-1.1 7.1-2.9 10.9-1.6 3.5-3.6 9.5-4.5 13.3-1.6 7.3-3.3 9.3-4.5 5.4-.4-1.3-2.7-5.1-5.1-8.5-2.4-3.4-4.4-6.6-4.4-7.2 0-.6 2.5-2.9 5.5-5.1 3-2.2 5.5-4.7 5.5-5.5 0-1.7 8-8.7 9.4-8.2.6.2 1.1 2.4 1 4.9zm251.5 3.3c2.5 4.1 3.2 9.3 1.8 13.4-2.4 7-4.5 4.3-6.7-8.9-.6-3.6-1.3-7.9-1.6-9.5l-.6-3 2.6 2.5c1.5 1.3 3.5 3.8 4.5 5.5zm24.1-2.4c0 1 .9 2.1 2 2.4 1.9.6 4.6 4.2 3.8 5.1-.7.7-7.7-4.6-8.8-6.7-.6-1.1-.8-2.9-.4-4.1.6-2.1.7-2.1 2-.3.8 1 1.4 2.7 1.4 3.6zm-43.9 1.1c4.3 5.9 7 12.5 6.3 15.3-.5 2 0 2.5 4 4 5.2 2 7.9 4.6 7.1 6.7-.3.8-3.8 3.1-7.7 5.2-3.8 2.1-9.3 5.9-12 8.3-6.1 5.4-11.4 8.1-12.8 6.7-.6-.6-2-5.5-3.2-11-1.9-9.2-1.9-10.2-.5-13.7.9-2 2-3.7 2.5-3.7s1.4 3.6 2 8.1c1.2 8.1 3.6 13.9 5.8 13.9 1.7 0 2.1-9.3 1.2-26.9-.8-14.6-.3-17.1 2.8-17.1.8 0 2.8 1.9 4.5 4.2zm112.5 3.8c.8 5.1 2.6 7.5 4.9 6.6 1.7-.6 1.7-.7-.1-2.7l-1.9-2.1 3.5.7c1.9.4 3.9 1 4.3 1.5.4.4.1 4.7-.7 9.6-.9 4.9-1.9 11.8-2.4 15.4l-.8 6.5-1.8-6c-1-3.3-2.7-9.4-3.7-13.5-1.1-4.1-3-9.1-4.4-11-2.2-3-2.3-3.6-1-5 .8-.9 1.5-2.2 1.5-2.8 0-.7.4-1.2 1-1.2.5 0 1.3 1.8 1.6 4zm58.2.1c.2 1.8-.4 7.3-1.3 12-1 4.8-1.6 10.8-1.4 13.3.3 2.5.1 4.6-.3 4.6-1.1 0-6.7-7.8-9-12.6l-2.1-4.1 2.2-2.2c1.1-1.1 2.1-2.7 2.1-3.5 0-.8.7-1.6 1.5-2 1.1-.4 1.4-1.3.9-3.1-.5-1.9-.2-2.5 1-2.5.9 0 2.1-.9 2.8-2 1.8-2.8 3.2-2 3.6 2.1zm-23.8 3c1.6 6 .8 7.5-3 5.3-3.7-2.2-4.7-4.4-1.9-4.4 1.1 0 1.9-.6 1.8-1.3-.6-5.1 1.7-4.9 3.1.4zm-529 .1c0 3.8-2.2 12.3-4 15.8-2.4 4.8-5.2 7-8.7 7-3.2 0-4.3.8-8.3 6l-1.9 2.5-.1-12.2c0-9.4.3-12.5 1.5-13.6 2-2.1 5.4-1 6.1 2 1.1 4.1 4.5 2.6 6.5-2.7 1-2.8 2.8-5.2 4.5-6.2 4-2.4 4.4-2.3 4.4 1.4zm82.5 1.8c-.9 1.8-2.3 5-3.1 7.2-.7 2.2-2.3 5.2-3.4 6.8-1.1 1.5-1.7 3.5-1.4 4.4.4.9-.7 3.3-2.5 5.8-4.5 6-2 6.1 7.8.4 8.7-5.1 12.2-5.7 14.5-2.4 2.5 3.5 2 8-1.4 12.6-3.6 4.9-3.6 5.2-1 5.2s2.5 1.4-.2 3.2c-1.8 1.2-2 1.8-1.1 2.9.9 1.1.8 2.2-.2 4.6-2.3 5.4-8.8 7.3-9.9 2.9-.3-1.4-2.8-5.3-5.5-8.8-6.5-8.6-7.9-11.4-9.6-20.2-.7-4.1-2.1-8.8-2.9-10.5-2.2-4.1-2-5 1.2-5.7 1.5-.4 5-2.3 7.7-4.2 9.2-6.6 11.8-8.2 12.2-7.8.3.2-.3 1.9-1.2 3.6zm379.6-1.3c4.1 2.4 5.4 7.7 4.3 17.3-1.3 10.7-3 10.1-7-2.5-5.1-15.6-4.4-19 2.7-14.8zm-510.2 3.2c-1.9 2.2-4.2 5-5.1 6.3l-1.7 2.3-.1-2.2c0-2.6 6.5-10.3 8.7-10.3 1 0 .4 1.3-1.8 3.9zm654.5-.7c1.4 2.3 5.6 15.4 5.6 17.7 0 .6-.7 1.1-1.5 1.1-3 0-8.5-11.9-8.5-18.4 0-3.3 2.4-3.5 4.4-.4zm-167.6 3.9c-.4 2.7-.2 2.9 2.8 2.9 6 0 5.3 2.5-1.6 6.2-4.1 2.1-4.6 2.8-6.6 9.2l-2.1 6.9-.8-7.6c-.5-5.5-1.1-7.7-2-7.7-1.5 0-3.2-6.6-2.1-7.7.3-.4 2 .3 3.6 1.5 4.3 3.2 5.5 2.7 3-1.2l-2.1-3.5 2.1-2.1c1.7-1.7 2.4-1.8 4.1-.9 1.6.8 2 1.8 1.7 4zm-408.9 2c1.7.6 3.6 1.9 4.1 2.9 1.5 2.8 1.2 10.6-.4 12.3-.8.7-1.6 2.4-1.8 3.6-.6 4.3-2.3 2.5-5.1-5.4-1.5-4.4-3.4-8.3-4.2-8.8-2-1.1-1.9-3.4.3-4.6 2.2-1.3 3.2-1.3 7.1 0zm131.1 1.8c1.6 3 1.2 6.2-1.4 12.7-1.3 3.2-3.2 9.7-4.1 14.4-.9 4.7-2 8.9-2.5 9.3-1.4 1.5-14-13.7-14-17.1 0-.6 1.1-1.2 2.4-1.2 2.7 0 5.3-3 10.1-11.5 4.9-8.7 7.4-10.5 9.5-6.6zm407.7-.3c.7 1.9-2.3 21.4-3.5 22.6-.5.5-1.4-.3-2.2-1.6-.7-1.4-2.6-3-4.1-3.5-3-1-4-3.1-1.4-3.1 1.2 0 3.5-5.5 3.5-8.7 0-1.5 4.9-7.3 6.1-7.3.5 0 1.2.7 1.6 1.6zm-216.1 5.1c.4 1.6 1.7 4.9 3 7.5 1.3 2.6 2.4 5.5 2.4 6.4 0 .9.8 3.8 1.7 6.3 1.9 5.4 1.2 8.7-1.5 7.6-5.1-2-8.1-1.7-16.2 2-7.2 3.3-9.1 3.7-15.5 3.6-7-.1-7.5 0-12.6 3.9-2.9 2.2-6.2 4-7.2 4-1.6 0-1.8-.7-1.5-5.8.3-5.1.5-5.7 2.6-6 2.8-.4 3.7-2.3 2.7-6-.4-1.5-1-2.1-1.2-1.5-.3.7-.9 1.3-1.4 1.3-1.5 0-1-6.7.6-8 .8-.7 2.4-3.2 3.5-5.6 3.3-7.7 8.5-4.9 10.4 5.6 1.1 5.7 3.1 7.9 3.1 3.3-.1-3.8 1.3-1.1 2.7 5.2 1.7 7.6 3.6 8.2 8.6 2.7 3.5-3.9 3.6-4.1 3.7-12.8.2-9.4.9-12.4 3-12.4.7 0 2.3-.9 3.6-2 3.3-2.7 4.7-2.5 5.5.7zm64 3.3c1.5 3.3 3.3 6.5 4 7.1.8.6 1.4 2.2 1.4 3.4 0 1.8 1.2 2.9 5.4 5l5.5 2.7-3.2 2.7c-6.2 5.3-10.6 8.3-11.5 7.7-.5-.3-1.2-3.6-1.6-7.3-.4-4-1.5-8.1-2.8-10.1-2.8-4.5-3.9-17.2-1.5-17.2 1 0 2.6 2.3 4.3 6zm-398.2-.8c2.5 3.5 2 9.9-1 14.3-2.4 3.6-2.4 3.7-.5 3.2 3.1-.8 2.7 2-1.4 8.3-3.4 5.4-4.4 7.4-7.1 13.7-.7 1.8-2.1 3.3-3 3.3-1.3 0-1.5-.8-1-4.3 2.1-15.2 1.8-27.2-1-37.4-.5-2-.2-2.2 3.7-2.6 9.4-.8 9.8-.7 11.3 1.5zm216.6.9c0 .6.7.9 1.5.5 2.6-.9 3.6 3 4.5 17.2.5 7.5.9 13.8 1 13.9.3 1.4 3.8 3.3 6 3.3 3.7 0 5-2.3 5-8.7 0-2.7.6-5.8 1.4-6.8 1.3-1.8 1.4-1.8 2.4.1.6 1.1 1.3 4.7 1.7 7.9.8 7.8-.4 9.6-7.1 10.2-4.2.4-6.3-.1-13.9-3.5-6.5-2.9-11-4.2-16-4.7-9.2-.8-11.5-1.3-11.5-2.5 0-.6 1.4-1.3 3.1-1.7 2.1-.4 3.8-1.7 5.1-3.9 1.1-1.8 2.8-3.6 3.8-3.9 1.5-.5 1.7-1 .7-4-.9-2.9-.6-4.1 1.7-8.8 2.8-5.7 5.9-8.1 8.9-6.5.9.5 1.7 1.4 1.7 1.9zm290.5.4c1.1 1.2 3 2.6 4.3 3 3.3 1 2.9 4.2-3 20.5-5.2 14.1-5.3 14.3-6 10.5-.4-2.2-.7-5.8-.7-8.1-.1-4.3-5-14.9-8-17.1-.9-.6-1.3-1.5-.9-1.9.4-.4 3.5 1 6.9 3 3.3 2.1 6.3 3.6 6.5 3.3.3-.3-1.3-2.3-3.5-4.5-2.3-2.2-4.1-4.8-4.1-5.8 0-1.4.9-1 3.8 1.9 2.1 2 4.1 3.7 4.5 3.7 1.7 0 .4-2.9-2.8-6-4.1-4-4.7-6.5-1.2-5.5 1.2.4 3.1 1.7 4.2 3zM37.6 229c1.8 0 3.5.4 3.9.9 1.7 2.8-6.2 17.7-14.4 27.1l-3 3.5 1.5-4.3c.8-2.4 1.7-9.1 2.1-14.9.5-8.6 1-11 2.6-12.6 1.4-1.4 2.2-1.6 3-.8.6.6 2.6 1.1 4.3 1.1zm163.3.6c2.9 3.6 2.6 7.9-.9 17.1-1.6 4.3-4.3 13.1-6.1 19.5-1.8 6.5-3.6 11.8-4 11.8-.4 0-2.3-2.6-4.3-5.8-1.9-3.1-5.7-7.9-8.5-10.5-2.8-2.7-5.1-5.2-5.1-5.6 0-.4 3.4-4.6 7.5-9.4 4.1-4.8 7.5-9.3 7.5-10 0-2.1 8.6-9.6 11.2-9.7.4 0 1.6 1.2 2.7 2.6zm-72.4 6.4c-.4 1.9-.8 5.1-1 7-.2 1.9-1.7 7.3-3.4 11.9-1.7 4.6-2.9 8.6-2.7 8.8.3.3 4-.7 8.2-2.1 7.1-2.3 8-2.4 10-1.1 2.7 1.8 3.9 6.7 3 12.7-.4 2.4-.8 5.7-.9 7.5-.1 1.7-1.2 4.2-2.4 5.5-1.5 1.6-2 3.1-1.6 4.6.3 1.5-.3 3.6-2.1 6.2-1.4 2.2-2.6 4.7-2.6 5.7 0 1.4.4 1.2 2.6-.8l2.6-2.4-.8 3c-.8 3.7-4 10.1-5.3 11-1.7 1-3.4-7.6-3.3-16.3.1-9.5-1.2-13.8-6.8-23.2-2.1-3.6-4.9-10.3-6.1-14.9-1.3-4.6-3.5-10.2-5-12.5-3.3-4.9-2.7-6.1 3.6-7.1 3.2-.4 4.8-1.3 5.6-2.8.6-1.2 2.3-3.5 3.8-5 2.4-2.6 2.6-2.7 3.9-1 .9 1.2 1.1 3 .7 5.3zm520.9-3.8c.8 3.2-.4 10-1.8 9.5-2.2-.7-1.9-11.7.3-11.7.5 0 1.1 1 1.5 2.2zm-400.8 2.9c3.8 2.3 4 3.2 2.4 13.6-.6 3.8-1.3 11.2-1.6 16.6-.4 6.9-1 10-1.9 10.4-.8.2-3.2-1-5.4-2.7-2.3-1.9-6.2-3.8-9.3-4.5-5.2-1.2-5.3-1.3-5.2-4.7.1-2 1.2-5.3 2.5-7.4 2.2-3.5 2.4-3.7 2.7-1.7.7 4.5 2.2 2.2 2.2-3.2 0-3.1.4-5.5 1-5.5s2.4-2.9 4-6.5 3.4-6.5 4.1-6.5c.6 0 2.7.9 4.5 2.1zm100.6 3.9c.4 0 .8-.5.8-1 0-1.6 7.8 2.8 9.5 5.3.8 1.3 2.2 6.3 3 11.3 2 11.4 2.3 12.4 4.8 15.1 2 2.2 2 2.3.1 2.3-1 0-5.1-.9-8.9-2-4.1-1.2-10-2-14.2-2-3.9 0-7.4-.3-7.6-.8-.8-1.1 4.8-22.4 7.3-27.8 2.1-4.6 2.3-4.8 3.3-2.7.5 1.3 1.4 2.3 1.9 2.3zm177.8 3.2c2.6 2.4 2.5 4-.1 6.4-2.5 2.3-4.5 6-6.9 12.8-1.5 4.2-1.9 4.8-2.5 3.1-.4-1.1-2.1-5-3.6-8.7-1.6-3.6-2.9-7.5-2.9-8.6 0-3.1 2.9-5.4 5.6-4.8 1.3.4 2.4.5 2.4.4 0-.2-.4-1.8-.9-3.6l-1-3.3 4 2.3c2.2 1.2 4.8 3 5.9 4zm23-.2c.5 4.4.6 4.4 2 2.2 1.8-2.7 4.8-2.8 11.1-.6l4.6 1.7-3.8 3.8c-4.4 4.4-7.7 10.5-10.8 20.1-1.3 3.8-2.6 6.8-3 6.8-.4 0-4.5 3.1-9 7-4.6 3.8-8.7 7-9.2 7-1 0-1.6-2.4-2.4-10.5-.3-3.3-1.2-7-2-8.2-2.2-3.2-1.9-3.7 2.5-5.7l4-1.7 5.6 4c5.6 4 8.7 5 9.9 3.1.5-.7-4.2-21.7-7.1-31.8-.6-2.2-.4-2.3 3.2-2 3.8.3 3.9.4 4.4 4.8zm113.2 2.5c.5 4.3-.4 16.6-1.8 25-.9 5.5-1.9 2.6-3.2-10-1-9.2-.7-13.5 1.4-20.4.8-2.6 3.1.8 3.6 5.4zM67.4 244c-.5 2.1-.3 3 .6 3 2.2 0 .5 17.1-2.7 27l-2.7 8.5-.8-10.5c-.4-5.8-1.7-14.1-2.9-18.5-2.6-10.1-2.6-10-1.4-10 .6 0 .9.6.9 1.2-.3 2 1.8 1.5 5.1-1.2 3.9-3.2 4.6-3.1 3.9.5zm398.5.4c2.2 1.7 5.3 9.5 4.6 11.6-.4 1.3-1.5 2-3.1 2-1.5 0-2.4.6-2.4 1.5 0 2.1 2.7 3 4.5 1.5.8-.7 2.6-1 3.9-.6 2.8.7 12.8 9.4 12.1 10.6-.3.5-3.6 2-7.5 3.5-9 3.4-11 5.1-15.6 13-3.4 5.8-4.4 6.7-9 8.4-2.8 1.1-6.7 2.9-8.5 4-2.9 1.8-4.4 2-9.5 1.5-7.8-.8-16 1-19 4.3-1.3 1.4-2.8 2.2-3.3 1.8-1.6-.9-1.3-7.1.4-8.9.9-.9 1.1-1.7.5-2.1-.5-.3-1-3.5-1-7s-.4-6.7-1-7c-4.3-2.6 5.9-21.5 11.5-21.5 3.1 0 3.7 1.2 7.3 15.1 3.7 14.2 6 19.9 7.1 18 .6-1 1.3-.6 2.9 1.3 1.1 1.4 2.5 2.6 3.1 2.6 3.2 0 4.5-10.8 1.9-15-1.5-2.3-3.9-15.3-3.8-20.3.1-2 .4-1.8 3.3 1.5 2.1 2.3 4 6.2 5.4 11 2.1 6.9 6.2 17.3 6.7 16.6.4-.6-1.2-34.4-1.9-41.6-.7-6.8-.6-7 1.7-7.5 2.9-.5 6.9.3 8.7 1.7zm-365 1.7c-2.4 3.4-2.9 8.3-1.1 10.1.9.9 2.2.6 5.2-1.1 3.6-2 4.1-2.1 4.7-.6.9 2.5-4.3 20.5-6.6 22.8-1.2 1.2-2.5-1.5-4.1-8.3-.7-3-2.2-7.1-3.3-9-1.7-3.1-1.8-4-.7-7.9 1.1-4.3 4.9-9.1 7-9.1.6 0 .1 1.4-1.1 3.1zM18 254.4c.5.5.1 2.1-1 3.6s-2.4 3.9-3 5.4c-.5 1.4-1.4 2.6-2 2.6-1.6 0-1.2-3.2 1-7.3 1.1-2 2-4.7 2-6 0-3.2 1.4-4.4 1.8-1.5.2 1.2.8 2.7 1.2 3.2zm602.1 6.7c-1.6 6.3-3.5 15-4.2 19.3l-1.2 8-5.4-5.8c-5.2-5.6-6.7-8.3-3.9-7.3 2.7 1.1 2.6-.6-.4-5.8-4-7-3.9-8.5.5-8.5 4.5 0 9.2-2.3 10-5 .4-1.1 2-2.7 3.6-3.5 1.6-.9 2.9-2.1 2.9-2.7 0-.6.2-.9.5-.6.3.2-.8 5.6-2.4 11.9zm54.2-9.9c.7 2.6-1.6 16.7-3.2 19.7-1.3 2.4-3.1 2.8-3.1.6 0-.8.9-6.1 2-11.7 1.1-5.7 2-10.4 2-10.6 0-.1.4-.2.9-.2s1.1 1 1.4 2.2zm-404.7 6.5c.3 1.6.8 3.5 1 4.4.2.8-.5 4.4-1.7 8-3 9.1-3 16.6-.1 20.3 3.3 4.3 2 4.3-3.6.2-3.3-2.3-6.1-3.6-8.1-3.6-4 0-9.1-2.6-9.1-4.5 0-1 1-1.5 2.9-1.5 3.9 0 6.2-3.1 10.1-13.3 4.6-12.2 4.8-12.7 6.5-12.7.8 0 1.7 1.2 2.1 2.7zm-214.4 4.8c1.7 5.8-1.4 21.1-5.1 25.7l-1.9 2.3-1-2.6c-1.3-3.4-3.1-21.5-2.4-24.3.9-3.6 2.4-4.7 6-4.4 3 .3 3.7.8 4.4 3.3zm158.4 0c.4.8-.6 7.7-2 15.3-3.6 18.4-4.2 24.2-2.7 24.2 2.1 0 5.9-4.7 7-8.6 1.7-6.1 2.7-7.1 5-5.7 1.9 1.2 2.1.9 3.2-3 2.4-9 3.5-11.2 5.6-11.5 3.7-.5 5.6 2.5 4.8 7.7-.5 3.7-.4 4.4.6 3.3.7-.6 1.9-1.2 2.7-1.2 2 0 .8 6-2.4 12.7-1.9 4-2.3 5.7-1.5 7.1.6 1.1 2 4.9 3.2 8.6 2.8 8.5 5.2 10.1 8.7 6 1.3-1.6 4.5-6.5 7.1-10.9 6.7-11.6 7.5-11 8.2 6 .3 7.7.9 15.2 1.4 16.7.4 1.8.3 2.8-.4 2.8-.6 0-1.8-1.2-2.8-2.8-2.7-4.4-4.3-5.2-10.9-5.2-8.5 0-10.7-1.1-14.7-6.9-5.3-7.9-9.1-10.1-19.9-11.7-7-.9-9.5 0-11.5 4.4-1.5 3.3-1.7 3.4-2 1.4-.3-1.2.5-3.7 1.6-5.6 1.2-1.8 2.1-4.2 2.1-5.3 0-2.2-4.9-10.3-9.8-16.3l-3.4-4h2.9c3.3 0 6.1-2.6 11.3-10.5 5.7-8.7 7.5-10.1 8.6-7zm294.1 4.2c2.6 2.7 5.7 5.3 6.8 5.9 1.8 1 1.5 1.6-5 8.6-4.3 4.6-9.1 11.3-12.5 17.3-3 5.4-6.8 11.1-8.5 12.6-13.8 12.5-13 12-20.1 13-3.8.5-9.3 2.1-12.2 3.4-3 1.4-6.1 2.5-6.8 2.5-1.9 0-1.8-2.7.1-3.7.9-.5 2.3-4.4 3.3-9.1 1.6-7.5 3.2-9.9 3.2-5 0 1.1.5 1.6 1 1.3.6-.3 1-2.5 1.1-4.8v-4.2l2.2 2.8c1.2 1.6 2.7 4.5 3.2 6.5.8 2.6 1.7 3.8 3.2 4 1.9.3 2.2-.3 2.9-5.4.3-3.1.4-9 .1-13-.4-4-.3-7.5.2-7.8.4-.3 1.8 2.9 3.1 7s2.8 7.7 3.2 8c1.1.7 1 0-.7-7.1-1.8-7.4-1.9-15.9-.2-17.3 2.4-2 5.6.7 10.4 8.9 2.7 4.6 5.4 8.4 6 8.6.7.3 2-1.1 3-2.9 1.3-2.5 1.8-6.6 2.3-17.8.3-8 .9-15.1 1.3-15.8 1.5-2.3 4.6-1.2 9.4 3.5zm-207.6.6c4.8 7.7 5.2 9.1 6 21.5.5 9.1 1.1 12.8 2.3 14.1 3.5 3.8-1.9 4.2-10.4.6-4.6-1.9-7.7-2.5-13.5-2.5-7.7 0-11.5-1.1-11.5-3.3 0-.7.8-1.7 1.8-2.4 1.1-.6 3.4-5.3 5.3-10.5 3-8.5 3.9-9.9 9.9-15.5 3.6-3.4 6.7-6.3 7-6.3.3 0 1.7 1.9 3.1 4.3zm274.7 1.3c3.4 2.5 8.3 5.4 10.9 6.4 6.4 2.4 6.6 4.4.9 11.1-2.5 3-6.2 8-8.3 11.2-4.1 6.5-5.1 6.1-5.2-1.9-.1-2.3-1.4-7.3-3-11-3.7-8.8-6.4-18.1-5.6-19.4 1.2-2 4.2-.9 10.3 3.6zm106.8-.9c.3 1.6 1.3 4.2 2.1 5.9 1.4 2.8 1.4 3.7-.1 10.4-2.2 9.9-4.7 12.8-6.1 7.2-.3-1.5-1.4-3.5-2.2-4.4-2-2.2-1.4-8.1 1.7-16.1 2.4-6.3 3.7-7.1 4.6-3zM392.2 270c1 1.4 2.4 5.3 3 8.8 1.1 6.1 1.2 6.2 4.4 6.2 4.2 0 4.9 1.3 2.8 4.8-1.5 2.7-1.5 3.3.5 11.2 1.1 4.6 2.1 8.6 2.1 9 0 .3-3.6.1-7.9-.4-7.2-.8-8.5-.7-13.8 1.3-9.4 3.6-9 3.6-10.3-.3-1.3-4-.2-7.1 3-8.1 1.3-.4 2.1-1.8 2.5-4.3 1.3-8.8 4.5-22.1 6.4-26.5 2.3-5.4 4.2-5.8 7.3-1.7zm-212 13.5c-.1 7.7-.5 17.9-.8 22.7-.5 7.6-.4 8.9 1 9.4 2.3.9 5.8-2.6 9.5-9.6 3.6-6.8 5.5-8.7 6.8-6.8.4.7 1 10.6 1.3 22 .3 11.3.9 21 1.3 21.5 1 1 3-1.5 6.3-8 1.4-2.6 3.2-5.1 4-5.4.9-.3 3.1-3.8 5-7.6 3.8-7.8 4.9-9 7.9-8 2.5.7 3.5 2.1 3.5 5.1 0 1.2.7 3.4 1.6 4.8 1.5 2.2 1.5 3.3.4 9.9-1 6-1 7.8 0 9 1.6 1.9 1.8 17.1.3 18.6-.9.9-1.5.2-2.6-2.3-2.4-5.8-8.8-9.3-18.9-10.4-3.5-.4-6.9-1.2-7.7-1.8-.8-.6-2.9-4.3-4.7-8.1-4-8.7-6.9-12.5-12.7-17-3.3-2.5-5-4.8-6.2-8.2-3.3-9.3-4.5-11.2-12.4-19.7-4.5-4.7-8.1-8.8-8.1-9.2 0-.9 12.7-12.6 15.4-14.1 1.2-.7 3.9-1.2 6.1-1l4 .2-.3 14zm-86.4-11.3c.9.9.4 2.4-1.8 6.4-2.5 4.4-2.9 5.6-2 7.6.9 1.9.7 3.3-.9 7.2-1.2 2.6-2.1 5.8-2.1 7 0 2.7-3.7 7.9-5.1 7.1-.5-.4-.9-4.1-.9-8.4 0-6.8-.4-8.6-3.5-14.8-4.1-8.3-4.4-9.8-1.5-8.3 1.6.9 3.4.5 8.8-1.9 7.8-3.5 7.4-3.5 9-1.9zm533.7 1.8c.3.5 2.6 1 5 1 2.8 0 4.5.5 4.8 1.4 1.3 3.4-4.9 23.6-7.2 23.6-1.1 0-1.7-1.8-2.6-8.2-.4-3.1-1.3-5.3-2.6-6.2-2.5-1.7-3.7-8.9-1.9-11.1 1.4-1.7 3.6-2 4.5-.5zM325 278c0 1.6-.5 4-1.1 5.4-.9 2-.8 3.3.4 6.4 2.4 6 3.2 13.9 1.7 15.7-1 1.2-1 2.1-.1 4.1 1.1 2.5 1.1 2.5-2.7 1.9-8-1.3-8.2-1.4-8.2-4.1 0-5.9 3.3-24.2 5-28.2 2.2-5 5-5.7 5-1.2zm28-1.4c5.1 2 6.4 4.5 9 17.1 1.2 5.4 3.1 11.1 4.2 12.7 1.9 2.7 2 3 .5 4.1-1 .7-7 1.5-14.4 1.8-7.1.3-13.8.9-15 1.3-3.2.9-3-1.9.3-4.5 1.9-1.5 3-3.8 4-8.3 1.6-7.7 1.8-16.2.3-18.9-1.2-2.3.2-4.6 3.6-5.9 2.8-1.2 3-1.2 7.5.6zM40.2 280c1 4.5 0 12.6-2 16.5-.9 1.6-1.6 3.8-1.7 4.7-.2 1.9-5.2 8.8-6.4 8.8-1.3 0-2.1-3.9-2.1-11-.1-3.6-.5-9.7-.9-13.5-.5-3.9-.7-7.2-.5-7.4.2-.2 1.2.3 2.2 1.2 2.8 2.6 5.9 2.2 6.6-.9 1-3.7 3.8-2.7 4.8 1.6zm62.5 5.2c-.3 3.3 2.5 3.3 7.2.2 3.6-2.4 4.6-2.6 8.3-1.8 3.3.7 4.3 1.4 4.8 3.3.5 2.4-2.3 34-3.4 38.7-1.2 4.5-3.3 2.7-4.5-3.7-1.4-7.9-6.5-19.1-11.8-25.6-4.7-5.7-5-6.6-4-10.6.9-3.3 3.8-3.7 3.4-.5zm548.2 12.7c-.5 3.6-1.9 8.6-3.1 11.3-2.1 4.8-3.8 6.3-3.8 3.1 0-.9-.7-2.4-1.6-3.4-1.8-2-2.3-11.2-.6-13.2.7-.8 1-2.2.6-3.1-.4-1.1.1-1.9 1.7-2.5 1.3-.5 3.3-1.9 4.4-3.1l2-2.2.7 3.4c.4 1.8.3 6.2-.3 9.7zm-132.7-8.4c.9 2 .8 2.8-.5 4.3-2 2.2-2.4 6.3-.5 4.4 1.7-1.7 7.7-1.5 8.4.3.4.8 1.5 1.5 2.5 1.5s1.9.4 1.9.8c0 .5-4.4 5.2-9.7 10.6-9.7 9.6-9.8 9.7-10.5 6.9-1.1-3.7-1.2-19.4-.3-22.4.4-1.3 1.6-3 2.6-3.7 1.1-.7 1.9-2.2 1.9-3.3 0-2.7 2.8-2.4 4.2.6zm27.6 6c.6 3.3 1.2 4.1 3.4 4.3 1.4.2 3.8 1.6 5.4 3.3 1.6 1.7 3.8 2.9 5.3 2.9 1.4 0 4.6 1.3 7 2.9 4.2 2.8 7.1 3.1 7.1.8 0-.8.3-.8 1-.1 2 2-.9 6.5-9.3 14.8-7.5 7.4-9.1 9.8-12.3 18.4-.6 1.6-1-.4-1.1-6.6-.2-9.6-2.8-22.5-7.4-36-1.6-4.7-2.6-8.9-2.3-9.4 1-1.5 2.3.4 3.2 4.7zM23 297.1c0 1.3-4.2 4.9-5.7 4.9-2.2 0-1.6-6.7.8-9.1l2.1-2.1 1.4 2.7c.8 1.5 1.4 3.1 1.4 3.6zm43.4-1.6c-.7 2.9.2 3.1 5.1 1.1 3.2-1.4 3.5-1.3 3.5.2 0 3.5-2.9 12.4-5.4 16.6-1.4 2.4-2.4 4.5-2.3 4.7.1.2-.3-.2-1-1-.7-.7-1.7-3.7-2.4-6.6-1-4.6-.9-5.5.7-8l1.8-2.8-4.2.7c-4.3.6-4.3.6-4-2 .2-1.9.9-2.8 2.3-2.9 1.1-.1 2.9-.6 4-1.3 2.7-1.5 2.6-1.6 1.9 1.3zm596.9 2.4c.9 4.2-1 14.2-3.1 17.1-2.4 3.1-6.2 3.9-6.2 1.3 0-1 1.4-5.4 3-9.6 1.7-4.3 3-8.7 3-9.8 0-3 2.7-2.2 3.3 1zm-499.8 4.6c3.7 4.8 3.7 11.2-.1 16.6-2.3 3.4-2.6 4.5-2 8.5.8 6-.4 18.6-1.7 18.1-.6-.2-2.4-3.6-4.1-7.6-3-7.1-3.4-7.5-11.6-13-7.8-5.1-11.2-9.1-7.8-9.1 2 0 10.8-6.2 16.9-11.9 3-2.8 5.9-5 6.6-5.1.7 0 2.4 1.6 3.8 3.5zm451.3 3.9c-1 3.9-5.1 9.9-10.7 15.9l-4.6 4.9 3.5 2.9c1.9 1.6 4.2 2.9 5.1 2.9 2.4 0 4.2-2.6 3.4-5-.6-1.8-.4-1.9 2.2-1 5 1.9 13.3 6.5 13.3 7.4 0 .5-1.3 3-2.9 5.5-4 6.3-5.9 12.6-7.6 24.5-.8 5.6-1.5 10.4-1.5 10.8 0 .5-.4.8-.9.8s-1.2-2.1-1.6-4.6c-1.1-7.9-3.5-15.9-5-17-2-1.5-1.9-3.8 0-3 1.8.7 1.8.7 0-3.7-.8-1.9-1.2-3.7-.9-4 1.6-1.6-4.3-12.7-6.7-12.7-.9 0-2.2 2.6-4.3 8.5-1.3 3.4-2.4-.2-3.5-11.3-.6-5.5-2-12.5-3.1-15.3-1.7-4.7-1.8-5.5-.5-6.9 1.3-1.4 1.3-1.9-.1-3.8-.8-1.2-1.2-2.2-.9-2.2 1.8 0 8.6 4.3 10.8 7 3.1 3.7 5 3.9 4.1.5-.6-2.4-.4-2.5 4-2.5 4.1 0 4.7-.3 6.3-3.3l1.7-3.2.6 2.5c.4 1.4.3 3.8-.2 5.4zM8 303.6c-1.4 3.6-1.3 3.7 2 3.2 3.6-.5 3.7-.1.5 4.2-4.4 6-5.5 5.9-5.5-.4 0-6 1.5-11 3-10.1.6.4.6 1.5 0 3.1zm14.2 2.8c-1.7 2.8-1.8 3.5-.6 4 .8.3 1.4 1.7 1.4 3 0 1.4.8 3 1.8 3.6 1.9 1.2-3.2.6-10.2-1.2l-3.9-1 3.2-1.9c1.7-1 3.1-2.7 3.1-3.8 0-2.7 5-8.5 6.3-7.2.6.6.3 2.1-1.1 4.5zm82.3 8.9c.5 2.3 1.7 4.2 3.3 5.3l2.6 1.7-2.8 2.4c-2.2 1.9-2.6 2.7-1.6 3.8.8 1 .9 2.3.2 4.7-1 3.3-2.3 9.7-4.4 21.5-.9 5.4-1.3 6-2.5 4.7-2.2-2.1-4.6-.3-8.7 6.5-2 3.2-4.3 6.2-5.2 6.5-1.1.4-1.3 1.4-.9 4 .7 3.3-.7 7.6-2.4 7.6-.8 0-1.3-.9-4.5-10-.9-2.5-4.3-8.1-7.6-12.5l-6.1-8 4.8-4.3C76 342.6 83.1 337 84.1 337c1.2 0 1.1 3.7-.2 6.1-1 1.9-.9 2 1.1.9 2.4-1.3 5-.7 5 1.1 0 .6-1.7 2.6-3.7 4.5-4.3 4-3.9 5.1 1.1 3 5.1-2.1 4.8.3-.4 3.3-4.3 2.4-5.2 4.1-2.2 4.1 2.4 0 11-5.7 12.3-8.2 1.8-3.4-1.4-11.6-7.4-18.9-9.3-11.2-11.2-17.3-5.9-18.5 1.5-.4 4.9-2.2 7.5-4.1 7.6-5.4 8.8-5.6 10.8-1.8 1 1.8 2.1 4.8 2.4 6.8zm184.7-8.9c2.8 2.1 3.8 6.2 3.9 15.4.1 9.9 1.3 7.9 2.5-4 .4-3.8.8-6.7 1-6.5.2.2.9 5 1.4 10.8 1.2 11.9 3.5 22 5.3 23.1 1.7 1 8.9-.2 10.6-1.7 1.2-1.2 1.2-2.5-.1-9.5-1.1-6.3-1.2-8-.2-7.6 1.5.6 2.4-1.5 2.4-5.5 0-3.2 2.6-5.1 4-2.9 1.1 1.7 3 17.3 3 24.2v5.5l-5.2.7c-11.9 1.4-14.5.9-24.3-4.4-8.5-4.6-9.8-5-16.1-5-8.6 0-10.4-1-7.8-3.8 1.1-1.2 3.5-6.2 5.3-11.2 2-5.2 4.2-9.5 5.3-10.1 1-.5 2.7-2.8 3.8-4.9 2.2-4.4 2.7-4.6 5.2-2.6zm143.2 3.7c1.4 1.1 3.3 3.4 4.2 5.1.9 1.7 2.1 2.7 2.9 2.5 3.1-1.2 7.7 5.1 5.1 7.1-.6.5-3.8 1.3-7.1 1.7-6.9.8-13.2 3.3-15.9 6.4-2.9 3.2-3.7 2.6-3.4-2.7.2-3.4.7-4.7 1.8-4.7 1.2 0 1.4-1.2 1.2-5.7-.4-5.3-.2-5.7 2-6 1.3-.2 2.4-1.1 2.7-2.3.3-1.9 1.8-3.4 3.2-3.5.4 0 1.8.9 3.3 2.1zM59 312.7c0 2.1-.5 9-1 15.3-1.9 21-4.8 27.3-6.2 13.4-.4-3.8-1.7-11.3-3-16.7-2.5-11.1-2.2-12.5 3.3-14.4 5.9-2.1 6.9-1.7 6.9 2.4zm336.8 4.8c.7 1.4 1.2 3.1 1.2 3.7 0 1.4 4 5.8 5.3 5.8 1.5 0 7.7 3.2 7.7 4 0 .4-.9 1-2 1.3-3.4.9-2.5 3.7 1.3 3.7 1.7 0 3.8.4 4.6.9 2.5 1.6-1 2.5-11.6 3.1-10.2.6-10.3.6-17 5.3l-6.8 4.6-.3-5.6c-.2-4 .1-6 1.3-7.3 1-1.1 1.8-4.1 2-7.2.3-4 .9-5.6 2.5-6.7 1.1-.7 2-1.9 2-2.5 0-.6.7-2.2 1.6-3.4 2.2-3.2 6.7-3 8.2.3zm275.2-.4c0 1.1-1.1 5.9-2.4 10.7-1.3 4.8-2.7 9.9-3 11.4-.8 3.5-1.9 3.6-3.4.3-2.7-6-.9-15.2 4.4-21.4 3-3.6 4.4-3.9 4.4-1zm-312.3 1.3c.7.6 1.9 5.9 2.6 11.8 1.6 12.1 3.7 16.6 8.5 18.7 1.8.8 3.1 2 2.9 2.5-.6 1.9-4.7 1.8-11.7-.3-8.7-2.7-10.3-2.6-21.7.5-9.1 2.5-13.2 2.7-8.2.4 4.1-1.9 6.8-7.1 8.4-15.8 1.5-8.6 4.2-15.9 6.6-17.8 3-2.5 10-2.5 12.6 0zm137.3.7c.7 1.1.9 3.2.5 4.6l-.6 2.5 3-1.8c3-1.8 3.1-1.7 5.4.4 1.3 1.2 2.9 2.2 3.5 2.2.7 0 1.2.6 1.2 1.2-.1 3.8-1.6 5.8-7.1 8.8-3.2 1.9-6.9 4.4-8.1 5.7-2.5 2.7-8.1 16.1-7.2 17.4 1.4 2.3-2.8 4.9-8 4.9-2.9 0-7 .9-9.4 2-7.4 3.3-8 2.3-10.2-17.3-1-9.7-.2-13.7 2.8-13.7 2.4 0 6.9 4.8 10.1 10.8 2.2 4 3.1 4.7 5.9 5 5.5.5 6.2-.8 6.2-11.7 0-11.2 1.1-15.9 4.6-20.1 3-3.5 5.9-3.9 7.4-.9zm-459.4 7.4c-.4 1.2.3 1.5 2.9 1.5 4.2 0 8 4.1 6.5 7-.6 1-1 4.9-1 8.7 0 4.6-.7 8.2-2 11.2-1.1 2.4-2 6.2-2 8.6 0 7.1-4.3 16.5-7.6 16.5-1.8 0-1.8-2.4 0-3.9 1.1-.9 1.2-5.1.8-21.9-.3-14-.1-22.1.7-25 .7-2.3 1.4-4.2 1.7-4.2.4 0 .4.7 0 1.5zm149.3 8.2c2.1 8.1 2.3 15 .6 26.3-2 13.7-1.8 18.3.8 18.8 2.9.6 6.5-3.5 11.3-12.9 5.1-9.8 7.2-12.2 11-12.2 3.5 0 4.4 1.7 4.4 8.5 0 4.7.3 5.8 1.6 5.8 1.5 0 1.6.9 1 6.2-2.3 23-1.8 30 2.2 30.6 1.6.3 2.2-.2 2.2-1.6 0-2.3 1.8-3.2 6.1-3.2 1.7 0 4-.5 5.1-1.1 2-1.1 2.1-1.2.4-2.5-1.5-1-1.7-2.1-1.1-5.5.6-3.7.9-4.1 2-2.6 1.8 2.4 2.5 1 2.5-4.9 0-4.8.2-5.2 2.7-5.7 4.2-.8 6 .7 5.5 4.2-.3 2.2 0 3.1 1 3.1.8 0 2.2.6 3.1 1.3 1.5 1 1.6 1.7.6 4.5-.7 2.1-1.8 3.2-3 3.2-2.7 0-2.4 1.8 1.6 7.6 2.5 3.6 3.9 7 4.6 11.4 1 6.6 2.4 10 3.8 10 1.2 0 3.4-5.8 6.1-15.8 2.4-8.8 3.2-10.1 5.5-8.2 1.7 1.4 1.9.9 2.9-5 1-5.4 2.1-6.8 4.6-5.3 2.5 1.7 3 1.6 3-.2s3.4-3.7 5.3-2.9c1 .3 1.6 3.1 2 9.7.4 5.1 1.6 12.6 2.7 16.7 3.5 12.5 3.7 14.7 2.8 20.7-1 6.1-2.8 9.6-2.8 5.2 0-1.3-1.1-4.7-2.4-7.6-3.1-6.5-4.1-6.8-20-5.9-13.9.7-13.3.9-19.5-7.6-6.2-8.7-7.4-9.2-18.9-8.5-9.7.5-9.7.5-14.2-2.7-3.4-2.4-4.6-4.1-5.2-6.9-.4-2.1-1.8-5.1-3-6.7-2.5-3.4-9.2-7-13-7-3.7 0-8.8-5.6-13.6-14.7-4.7-9-5.4-9.8-12.5-13.3-6-2.9-6.9-4.7-3-5.5 5.5-1.2 7.2-2.7 8.8-7.6 1.9-5.5 8.8-13.9 11.5-13.9 1.4 0 2.2 1.1 2.9 3.7zm65.1-.6c0 1.7 1.2 5.1 2.6 7.5 2.7 4.6 2.7 6.7-.1 4.4-1.3-1.1-1.5-.7-1.5 2.6 0 2.2.4 5.5 1 7.4 1 3.6 6.9 9.9 8.7 9.3 2.1-.7 2.3 2.8.3 4.5-1.7 1.4-1.9 2.4-1.4 6.2l.6 4.5-5.1-4.9-5-5-9.6-.6c-10.7-.7-13.6-2.1-11.6-5.9.6-1.1 2-2.5 3.1-3.1 1.8-1 2-.7 2 2 0 1.6.4 3 .8 3 1.4 0 2.9-4.1 6.7-17.8 3.6-12.5 5.6-17.2 7.5-17.2.6 0 1 1.4 1 3.1zm276.5 1.6c3.1 8.8 3.5 9.5 5.2 9.1.9-.2 2.1-1.8 2.7-3.6 1.3-3.8 3.2-5.3 5.5-4.4 2.2.8 3.1 2.3 3.1 5.5 0 1.7.7 3 1.8 3.4 5.6 2 4.8 4.4-2.3 7.7-4.5 2-6.4 3.9-12.1 11.5-6.4 8.6-7 9.2-13.6 11.7-4.9 1.8-8.7 4.2-12.9 8.1-3.8 3.6-6 5-6.3 4.2-.3-1.3-2.4-18.1-3.3-27.9-.6-5.5 1.5-7.9 7.5-8.7 3.5-.5 4.1-.2 6 2.4 1.1 1.6 2.4 4.1 2.7 5.5.9 3.4 3 5.2 7.7 6.7 2.1.7 4 1.7 4.3 2.2 1.5 2.4 2.7.7 2.1-3.1-.4-2.5-.2-4 .4-4 1.5 0 1.2-4.3-1.1-13.5-1.4-5.6-1.9-9.4-1.4-11.2.5-1.5.7-3.6.6-4.6-.5-3.5 1.8-1.5 3.4 3zm-379.8 1.2c1.5 2.2 2.3 4.9 2.3 7.7 0 6.3-2.7 18.3-5.2 23.1-1.8 3.4-2 4.8-1.2 8 .8 3.3 1.3 3.8 3.8 3.8s3.7-1 7.6-6.5l4.6-6.5 5.7-.3c5-.3 6 0 8.2 2.2 2.9 2.9 3.3 7.2 1 13.6-2.1 6-2 19.4.2 23.1 1 1.6 2.2 2.9 2.8 2.9.6 0 3.9-2.9 7.5-6.5 3.5-3.5 6.6-6.3 6.8-6 .3.2 1.8-.3 3.5-1.1 2.7-1.4 3.1-1.4 4.6 0 1.3 1.3 1.7 4.3 2 14.1.1 6.9.7 12.5 1.2 12.5s1.5-1.2 2.2-2.7c1.1-2.5 1.2-1.9 1.7 6.2.4 8 .7 9 2.5 9.4 1.1.2 2.4.9 2.8 1.7 1.8 3.2 5.7.2 5.7-4.4 0-1.1.7-2.2 1.4-2.5.8-.3 2-2.3 2.5-4.5 1.1-3.9 4.6-8.1 5.7-6.9.4.4 1.9-.2 3.4-1.3 3.5-2.5 6.7-2.6 7.4-.3.3 1 .5 5.6.4 10.3 0 9 1.1 13.1 5.8 19.9 2.2 3.2 3.3 9.1 1.8 9.1-.3 0-2.7-1.9-5.2-4.1-7.1-6.3-12.6-8.2-30.4-10.4-6.2-.8-9.8-4.3-9.8-9.6 0-2.8-.4-3.9-1.5-3.9-.8 0-2.2-1.2-3.2-2.8-4.4-7.1-9.9-11.2-15.1-11.2-4 0-10-6.1-15.1-15.4-2.2-4-4.6-7.7-5.3-8.3-.7-.7-4.5-1.9-8.3-2.9-10.5-2.6-11.7-4.3-14.5-19.3l-2.3-12.4-5.4-5.9c-3.2-3.5-5.3-6.6-5.1-7.6.4-1.7 1.1-1.8 5.9-.6 2.2.5 3.3-.1 6.5-3.6 4.5-4.9 6.9-4.9 10.1-.1zm286.1-1.1c.4 2.5 3 3 3.8.7 1.2-3 3.4-1.6 3.4 2 0 1.9.4 3.5.9 3.5 2.3 0 4.1 3.4 4.1 7.6 0 2.4.5 4.4 1.1 4.4 2.5 0 11 25.3 9.1 27.2-.6.6-4.2.3-9.7-.7-5.5-1.1-10.8-1.4-14.4-1.1-7.1.8-8.9-.2-6.7-3.6 1.1-1.8 1.8-6.9 2.5-20.8.5-10.2 1.2-19.3 1.6-20.3 1-2.4 3.9-1.7 4.3 1.1zm-149.4 8.8c2.6 1 3.8 4.2 5 12.8 1.5 10.1 3.6 11.4 3.6 2.2 0-3.6.4-6.6.9-6.6 1.6 0 3.1 6.2 3.1 12.9 0 16.4 3.5 25.2 9.4 23.7 1.5-.4 2.9-1.4 3.2-2.4.3-.9 1.2-3.2 2-5 1.3-3.1 1.3-3.3-1.1-4.2-1.5-.6-2.5-1.7-2.5-2.8 0-5.3 6.7-18.2 9.5-18.2 1 0 1.5 1.4 1.7 4.7.3 4.4.5 4.8 3.1 5.1 3.7.5 3.4 2.5-.8 4.5-3.6 1.7-4.6 4.1-2 5.1.8.3 1.8 2.4 2.1 4.6.4 2.2 2 5.7 3.6 7.7 3.9 5 2.3 6.1-4.2 2.8-5.1-2.6-5.4-2.6-9.4-1.1-2.3.9-5.1 1.6-6.3 1.6-1.1 0-5.8-2.5-10.3-5.5-7.6-5.1-8.7-5.5-13.9-5.4-3.1 0-8 .4-10.9.8-6.2.9-6.1 2.2-1.7-12.9 3.4-11.5 7.5-20.1 11.1-22.9 3-2.4 2.7-2.3 4.8-1.5zm300 5c2.6 2 6 3.9 7.4 4.3 4.3 1.2 3.8 3.7-1.4 7.3-2.6 1.8-8.2 6.4-12.3 10.1l-7.6 6.8-.7-2.8c-.4-1.5-1.1-5.5-1.4-8.8-.6-5.4-.6-5.9.9-4.7 1.4 1.2 1.6.8 1.5-3.6 0-5.9 1.3-8.6 5-10.5 3.7-2 3.4-2.1 8.6 1.9zm47-2c.9.3 1.6 1.2 1.6 2s1.6 1.6 4.1 2c5.6.9 8.2 3.2 7.4 6.6-1.2 4.9-16.3 20.7-18.5 19.3-.5-.3-1.7-2-2.5-3.6-1.4-2.6-1.4-4.3-.3-13.5 1.4-12.5 2.9-14.8 8.2-12.8zm-232.1 2.9c.9.8 1.8 3.3 2.2 5.5.4 2.3 1.7 5.3 3 6.8 2.2 2.5 2.3 2.6 4.8.9 1.5-.9 3.4-1.7 4.4-1.7 1.4 0 1.2.5-1 2.8-1.5 1.5-2.7 3.3-2.7 3.9 0 .6-.8 2.1-1.8 3.4-1.8 2.3-1.8 2.5.4 5.6 2.1 3.1 2.2 3.2 2.8 1 .3-1.2.6-3.4.6-4.9 0-7.7 4.6-1 5.7 8.3.7 5.9-1 7.1-6.3 4.5-5.3-2.5-14.8-2.1-21.2.9-9.1 4.2-14.8 2.8-9.8-2.4 1.7-1.8 2.6-3.9 2.7-6.2.1-4.5 1.3-7.4 3-7.4 1.1 0 1.3-1.3 1-5.8-.3-5.2-.1-5.9 1.8-6.4 1.4-.4 2.2-1.6 2.7-4.2.3-2 .7-4.2.9-4.9.6-1.7 5-1.5 6.8.3zM131 357.2c4 4.3 3.9 7-.8 26.3-3.2 13.3-5 19.6-6.2 20.8-.4.5-1.5-2.4-2.4-6.3-2.3-10.1-3.5-12.5-10-20.5-6.5-8.1-6.8-10.2-1.2-12.8 2.1-1 4-2.6 4.3-3.6.3-1.2 1.2-1.7 2.6-1.4 1.3.3 3.7-.6 5.7-2 4.4-3.2 5.4-3.2 8-.5zm-101-.6c0 .3-1.9 4.6-4.2 9.5-4.2 9.1-4.5 12.4-.7 7.6 2.2-2.9 5.9-3.6 5.9-1.3 0 1.8-6.8 7.8-8.3 7.3-1.6-.5-2.1-6.2-.8-9.8 1-2.8.9-2.9-1.4-2.3-3.7.9-3.1-1.1 2.1-6.6 4-4.3 7.4-6.3 7.4-4.4zm326.6 2.9c1.6 2.4 1.6 5.9-.1 9.9-.7 1.6-.5 1.8 1.3 1.4 2.3-.6 2.5-.3 3.7 6.2.4 1.9 1.6 5 2.7 6.7 1.1 1.8 1.7 3.7 1.3 4.3-.3.5-4.4 1-9.1 1-6.9 0-9.8.5-15.1 2.6-3.9 1.6-6.8 2.3-7.4 1.7-.6-.6-.5-3 .1-6.2 1.5-8 1.2-11.2-1.1-13.7l-2-2.2 2.7-2.1c5.2-4.1 6.4-2.6 6.4 7.7.1 8.6 1.5 6.3 2.4-3.7.8-8.8 1.5-12.1 2.7-12.1.5 0 .9 1.2.9 2.6 0 2.2.2 2.5 1.5 1.4.8-.7 1.5-2.2 1.5-3.4 0-4.8 4.9-6.2 7.6-2.1zm-287 7.8c.2.2 1 3 1.6 6.1 1 4.5.9 6.5-.1 10.4-.8 2.6-1.3 5.6-1.2 6.7.6 6 .3 8.8-1.3 12.4-2 4.3-4.4 6-5.8 3.9-.4-.7-.8-6.1-.8-12 0-8.8-.5-12.1-2.5-18.2-3.7-11-3.7-11 3.6-10.3 3.3.3 6.3.7 6.5 1zm582.1 4.8c-.8 1.9-3.2 6.2-5.5 9.7-2.2 3.5-4.9 8.4-5.9 11-2.1 5.8-5.2 11.2-6.3 11.2-1.2 0-2.3-12.1-1.8-18 .6-5.5 4.2-11.7 8.7-14.7 2.1-1.4 10.8-3.4 11.9-2.7.2.1-.3 1.7-1.1 3.5zm-93.4 3.1c3.5 5.3 4.2 5.8 7.4 5.8 3 0 3.4.2 2.3 1.5-.7.8-3.8 2.9-6.9 4.7-8.7 4.9-13.7 9.3-17.6 15.8-3.9 6.5-4.1 6.6-13.5 7.5-11.5 1.2-15.3 4.1-20 15.3-2.4 5.5-7.6 10.9-11.3 11.6-1.2.2-5.2.8-8.9 1.4-4.6.7-8 1.9-11.1 4.1l-4.5 3.1-.6-9.3c-.4-5-.9-11.4-1.2-14.1-.5-4.2-.4-4.8 1-4.3 1.3.5 1.6-.1 1.4-3.1-.3-9.1 3.9-11.1 8.7-4.2 2 2.8 3.1 3.8 3.9 3 2.1-2.1 3.5-.9 5 4.3.8 2.9 2.7 6.4 4.1 7.7 1.4 1.3 2.5 2.8 2.5 3.4.1 4.8 5.5 4.2 6.5-.7.4-1.8 1.2-3.8 1.8-4.5.7-.9.6-5-.3-13.2-1.5-14.6-.8-21.5 2.6-23.6 2.8-1.9 8.9-2.1 10.9-.4 1.9 1.6.8 3.3-1.6 2.7-2.7-.7-2.5 4.1.4 8.3 2.1 3.1 7.2 5.7 15.4 7.7 2.5.6 3-.8 4.2-10 .5-4.7.8-5.2 3.4-5.5 1.5-.2 2.7-.5 2.7-.6 0-.2-1.1-3.8-2.5-8.1-1.3-4.3-2.3-8.1-2-8.3.7-.7 6.9 1.7 9.5 3.8l2.5 1.9-4.3-.6c-4.2-.6-5.9.8-2.6 2.1.9.3 1.4 1.3 1.1 2.1-.5 1.1-.1 1.2 1.9.5 1.4-.6 4.3-1 6.5-1 2.1 0 3.9-.3 3.9-.8 0-1-6.2-7.5-8.5-8.8-2.4-1.3-1.1-3.6 1.8-3.2 1.4.2 3.7 2.5 6 6zm39.7-3.9c2.1-.5 2.3-.3 1.3.8-2.1 2.1-1.6 2.5 5 3.8 8.9 1.8 9.7 2.4 6.8 5.5-1.3 1.4-4.2 3.3-6.5 4.2-3.5 1.3-4.8 2.8-9.4 10.5-2.9 4.9-6.2 11.5-7.3 14.7-3.7 10.8-7.4 14.3-16.4 15.7-5.8.9-11.4 4.3-15.3 9.5-1.9 2.5-3.8 4.6-4.2 4.8-1.3.5-2.1-3-1-4.3.8-1 .8-4.9-.1-13.9-1.1-11.2-1-12.9.5-16.9 3.3-8.6 11-8.5 16.6.3 3.5 5.4 9.3 11 11.4 11 2.1 0 3.4-2.1 4.4-7.6.7-4.1.5-6.6-1-12-3-11.1-.9-22.4 4.2-22.4 1.3 0 2-.7 2-2 0-2.7 3.1-4.2 5-2.5 1 .9 2.6 1.2 4 .8zm-117.4 6.5c1.7 2.6 4.3 6.8 5.8 9.4 1.4 2.5 4.4 6.1 6.7 7.9 3.4 2.7 3.8 3.4 2.5 4.1-1.3.7-19.7 2.7-26.5 2.8-1.1 0-1.3-2.3-.9-12.3.5-12.8 1.2-15.7 3.1-13.8 1.6 1.6 2.7 1.3 2.7-.7 0-4.6 2.6-3.6 6.6 2.6zM56.2 406.1c-.6 9.2-1.6 17.7-2.2 18.9-.9 1.8-.9 2.8.1 4.6 1.6 3.1-.2 5.5-2.9 3.8-1.7-1.1-1.9-2-4-21.9-.6-5-2-11.8-3.2-15.2-2.3-6.7-2.2-7.8 1.1-8.6 1.5-.4 1.9-.2 1.5.9-1 2.5.9 1.5 4.9-2.7l4-4 .9 3.7c.5 2.3.5 10.4-.2 20.5zM111 388c0 1.6.8 4.3 1.9 6 1.8 3 1.8 3.3.1 9.9-1.1 3.9-2.1 12.9-2.5 21.5-.5 9.4-1.1 14.6-1.8 14.3-.6-.2-2.6-4-4.4-8.4-2.7-6.5-4.6-9.2-9.1-13.5-6.6-6.2-11.2-11.6-11.2-13.2 0-1.2 5.4-3.6 7.8-3.6.7 0 1.2 1.2 1.2 2.6v2.7l1.9-2.4c2.9-3.8 6.2-10.9 5.6-11.9-.3-.6 0-1 .8-1 .7 0 2.6-1.4 4.2-3 3.7-3.8 5.5-3.9 5.5 0zm332.2-1.3c1.7.3 3.1 1.5 3.9 3.5.7 1.7 2.7 4.4 4.5 6.2 1.7 1.7 3.7 5 4.3 7.2.7 2.6 2.1 4.8 3.7 5.9 4.2 2.7 1.6 3.8-10.5 4.4-10.4.6-11.1.8-14 3.5-2.7 2.6-3.1 2.7-3.7 1.2-1-2.6.2-21.4 1.7-26.6 1.7-5.9 2.8-7.3 5.3-6.5 1.2.4 3.3.9 4.8 1.2zm217.6 2.9c.2 1.2-1.3 3.8-3.6 6.5-9 10.3-14.8 19.5-8.9 14.2 1.2-1.1 4.9-3.8 8.3-6.1 3.3-2.2 6.8-5.2 7.8-6.6 1.8-2.9 6.2-3.7 5.2-1-.3.9-.6 1.9-.6 2.4s-2.5 4.1-5.6 8.2c-6.6 8.6-11.9 18-12.9 22.5-1.2 6-2.5 4.6-2.5-2.9 0-4-.4-7.9-.9-8.7-1.5-2.3-3.9-.5-5.2 3.9l-1.3 4.2-1.7-3.4c-1-1.9-2.9-3.9-4.4-4.6-2.3-1-2.6-1.7-2.3-5 .4-4.4 1.9-4.6 3.2-.2 1.5 5.2 4 3.5 4.9-3.5 1.1-7.4 3.2-13.6 5.8-16.9 1.7-2.1 2.9-2.6 6.5-2.6 3.1 0 4.6-.5 5.1-1.5.7-2.1 2.7-1.3 3.1 1.1zm-259 3c1.2.8 3.4 3.8 4.7 6.5 1.7 3.3 3.2 4.9 4.4 4.9 2.8 0 5.1 2.7 5.1 5.9 0 1.6.7 3.4 1.4 4.1.8.6 2 2.7 2.6 4.5.8 2.5 2 3.7 4.6 4.7 3.2 1.1 3.3 1.4 1.8 2.5-2.9 2.1-8.5 1.5-16.3-1.8-10.3-4.3-16.9-4.3-25.1-.1-3.3 1.8-6.2 3.2-6.5 3.2-1.5 0-.1-2.9 2.9-6 4.4-4.5 5.5-8 2.7-8-1.8 0-2-.5-1.5-3.3 1-5.8 2.5-9.7 3.7-9.7.7 0 2.6 1.7 4.4 3.7l3.2 3.8.1-6.3c0-9.7 2.5-12.4 7.8-8.6zM155 395c0 1.3.7 2 2 2 3.5 0 5.5 9.4 3 14-.7 1.4-.7 2.5.1 3.9 1 1.4 1 3.4 0 8.7-2.3 12.6-2.5 18.1-.7 20.9.9 1.4 2.3 2.5 3.1 2.5 2.2 0 6.3-4.9 9.1-10.8 2.6-5.5 10.2-13.7 13.7-14.8 2.4-.8 4.7 1.8 4.7 5.3 0 1.3.6 2.3 1.4 2.3 2.1 0 2.6 2.3 2.6 13.1 0 5.6.4 9.9.9 9.9.6 0 2-2.8 3.2-6.2 2.1-5.7 2.4-5.9 3-3.5.8 3 1.3 8.7 1 13-.1 2-.7 3.1-2.1 3.4-2.4.6-2.6 2.8-.5 3.7 1.3.5 1.5 2 1.3 7.8l-.3 7.3 3.3.3c2.8.3 3.2 0 3.2-2 0-3.1 3.2-8.2 7-11 3-2.1 3.1-2.5 2.5-7.1-1-7 .1-8 8.9-7.1 3.9.4 7.4 1.2 7.9 1.8 1.1 1.6-.3 8.8-2 10.8-1.3 1.5-1.3 2.5-.3 6.9.9 3.5 1.9 5.3 3.1 5.6 1.5.4 1.9 1.7 2.1 8.1.3 7.4.4 7.7 3.7 9.9 2.8 1.9 3 2.3 1.3 2.3-2.1 0-7-3.7-14-10.8L223 481l-10.5.2c-9.2.2-10.8 0-13.2-1.8-1.5-1.1-3.1-3.4-3.5-5.1-.5-1.8-1.8-3.4-3.3-4.1-1.4-.7-3.4-2.9-4.3-5-3.8-8.5-8.1-11.7-16.7-12.7-7.4-.9-10.2-2.3-14.8-7.4-4.3-4.8-6.7-9.2-6.7-12.4 0-4.1-6.7-10.7-14.7-14.3-4-1.9-7.3-3.8-7.3-4.3s1.5-1.3 3.3-1.7c1.7-.3 4.8-1.5 6.7-2.5 1.9-1.1 4.3-1.9 5.3-1.9 1.7 0 1.7-.2-.4-1.8l-2.2-1.9 5.4-5.6c5.7-5.9 8.9-7.2 8.9-3.7zm199.5 0c.3 1 .9 4.8 1.3 8.2l.8 6.3 1.8-3.4 1.8-3.3 1.4 2.7c.8 1.5 2.2 6 3.3 9.9 2.4 9.6 4.1 12.8 7.4 14.4 1.5.7 2.4 1.8 2.1 2.4-1.1 1.7-8.2.2-12.3-2.6-5.3-3.7-11.1-3.5-21.7.9-8.8 3.7-13.4 4.4-13.4 2.2 0-.7.8-4 1.9-7.3 1-3.2 2.4-7.8 3-10.2.9-3.1 3-6 8.2-11.2 3.9-3.9 7.7-7 8.5-7 .8 0 1.9-.9 2.6-2 1.6-2.5 2.5-2.5 3.3 0zm253.2-.5c1.1.8 3.5 3.6 5.3 6.2 2.9 4.5 3.4 4.8 7.3 4.8 3.2 0 4.2.4 4.5 1.8.6 3.1-4.2 9-10.4 12.7-9 5.4-13 9.9-14.5 16.5-.7 3.1-1.8 6.3-2.5 7.3-1.2 1.5-1.3 1.4-1.4-1.1 0-1.5-.6-3.6-1.2-4.7-1.1-1.6-.9-2.2.6-3.3 1.5-1.1 1.7-2.1 1.2-4.8-1.9-10-1.9-11.6 0-13.5 1.6-1.6 1.8-2.7 1.2-6.9-.8-5.8.5-11.8 3.3-14.6 2.3-2.3 3.8-2.4 6.6-.4zm-289.3 4.1c.3.8 1.3 6.8 2.1 13.2.8 6.4 1.7 13.4 2.1 15.4l.6 3.8H316c-5.7 0-7.7.4-9.7 2-3.1 2.4-9.3 2.7-9.3.5 0-.8.4-1.5.9-1.5s1.6-2 2.4-4.4c.8-2.4 2.5-5.4 3.6-6.5 1.3-1.3 2.1-3.4 2.1-5.5 0-2.6 1-4.6 4-8.1 2.2-2.5 4-5.6 4-6.9 0-3.7 3.2-5.2 4.4-2zM39 406.1c0 1.6.5 2.9 1 2.9.6 0 1 2.2 1 4.8 0 2.6.5 5.3 1.1 5.9 1.5 1.5-1.5 6.6-3.4 6-1.8-.5-5.1-21.8-3.6-22.8 2.1-1.3 3.9.2 3.9 3.2zm28 15.4c0 2.4.3 2.5 5.9 2.5 3.8 0 6.1.4 6.4 1.2.3.9 1.5.3 3.6-1.6 2.8-2.7 3.4-2.9 6.8-2 3.4.8 3.8 1.2 3.7 3.9 0 1.7-.4 4.3-.9 5.9-.7 2.7-.7 2.8 1.4 1.7 1.2-.7 2.6-.9 3.1-.6 2.4 1.5-.3 20.3-3.1 22-.5.4-.9 4.5-.9 9.1 0 6.4-.3 8.5-1.2 8.2-2-.6-5.5-8.7-6.3-14.2-.9-7.1-4.6-14.2-11.8-22.7-9.5-11.3-11.9-15.9-8.2-15.9.9 0 1.5.9 1.5 2.5zm461.5 2.1c2.3 5.5 8.2 12.4 14.2 16.5 3 2.1 4.2 3.6 3.9 4.6-.4 1-.2 1.3.8 1 1.9-.8 3.2 2.9 1.7 4.7-.6.7-3.8 1.6-7.1 2-4.8.6-6.8 1.4-10.7 4.5-2.6 2.1-5.9 5-7.2 6.5-1.4 1.4-2.8 2.6-3.1 2.6-.4 0-1-2.7-1.3-6-.3-3.4-1-6.7-1.6-7.4-.8-1-.8-3.5 0-9.2.6-4.3.8-10.2.4-13.1-.5-3.9-.3-5.3.8-6 .8-.4 1.9-1.8 2.6-3.1 1.9-3.6 4.5-2.7 6.6 2.4zm-76.8-1.6c1.7.6 3.6 2.3 4.2 3.7.7 1.5 2.5 4.3 4 6.2 1.6 2 3.6 6.1 4.6 9.1 1 3.2 2.8 6.4 4.3 7.7 3.8 3.2 2.2 4.2-9.4 5.7-7.8 1-11.1 2-15.7 4.6-4 2.2-6.2 2.9-6.9 2.2-1.4-1.4.8-32.3 2.6-36.3 1.5-3.4 7-4.7 12.3-2.9zm173 4c-7.2 5.5-9 7.7-13.6 16.7-4.3 8.6-5.6 9.1-4.7 1.7 1-8.4 3.4-16.2 5.9-18.4 1.1-1.1 2.3-2 2.6-2 .3-.1 2.9-.7 5.6-1.5 2.8-.7 6.3-1.4 7.9-1.4 2.7-.1 2.4.3-3.7 4.9zm-486.9 4.2c1.4 1.6 2.3 4.3 2.8 8.5.6 5.9.8 6.2 2.7 5.2 1.9-1.1 2-.9 1.4 2.7-.3 2.2-1.3 7.3-2.2 11.4-1 4.1-1.7 11.2-1.7 15.8 0 10.3-1.6 10.7-6.2 1.7-4.3-8.4-8-12.9-14.8-18.2l-5.9-4.5 1.9-3.1c1-1.8 3.4-4.2 5.3-5.5 1.8-1.3 3.7-3.6 4.1-5.1.9-3.2 7.4-11.1 9.2-11.1.7 0 2.2 1 3.4 2.2zm269-.4c1.5 1 3.2 6.6 3.2 10.6 0 4.4 1.8 1.9 2.2-2.9l.3-4 1.8 5.6c.9 3.1 2.4 6 3.2 6.3 1.6.6 2.4 2.2 6 11.9 1.5 4.2 2.4 5.1 6.2 6.8 4.3 1.8 5 3.9 1.3 3.9-1.1 0-5.4-1.5-9.7-3.4-4.3-1.8-8.5-3.6-9.3-3.8-2.2-.7-7.1 1.6-17.3 8.2-5 3.2-9.3 5.7-9.5 5.6-.4-.5 2.7-36.3 3.4-39.2.7-2.7 1.4-3 3.2-1.2.9.9 1.2.5 1.2-2V429h6.3c3.4 0 6.8.4 7.5.8zm229.8 7.8c-1.5 3.2-4.9 7.9-7.6 10.6-5.5 5.4-12.3 14.9-14.6 20.4-3.7 8.8-4.7-1.8-1.4-15.4 3.8-15.9 9.1-21.4 15.9-16.6 2.3 1.6 2.3 1.6 1.9-1.7-.3-3.3-.2-3.4 3-3.1 2.4.3 3.4-.1 3.9-1.5.7-1.7.8-1.7 1.1-.1.2 1-.8 4.3-2.2 7.4zM274 434c.4 1.7.8 2.1 1.4 1.2 1.1-1.8 2.4-1.5 3.1.9.4 1.3 0 2.7-1.1 4-.9 1-1.3 1.9-.7 1.9 2.6 0 4.5 3.2 6.3 10.9 1.1 4.6 2.3 8.8 2.6 9.3 1.1 1.7 2.4-1.5 2.5-6.2l.1-4.5.9 4c.6 2.2.9 5.8.7 8-.3 3.5-.6 4-3 4.3-1.9.2-2.8-.2-3.3-1.6-1.1-3.6-8-5.5-20.8-6-10.5-.4-11.8-.6-11.3-2.1.3-.9 2-5.9 3.7-11.1l3.2-9.5 1.2 4 1.1 4 1.7-5c2.6-7.7 4.3-9.7 8-9.3 2.4.2 3.3.9 3.7 2.8zm299.2 2.6c1.8 2 3.7 4.2 4.1 5 1.1 1.9 2.7 1.8 2.7-.3 0-1.3 1-.8 3.8 1.9 2 2 5.2 4.3 7 5.3 2.7 1.3 3.1 1.9 2.2 3-.7.8-2.8 1.7-4.9 2-9.2 1.4-11.5 2.7-19.2 10.2l-7.7 7.5-.7-5.7c-1-7.7-.1-23.5 1.5-26.5 3.6-7 6.5-7.6 11.2-2.4zm-217.4.9c.7 1.4 1.5 5.1 1.8 8.3.7 6.4 2.3 10.5 2.4 6.1 0-1.5.7-3.2 1.5-3.9 1.3-1.1 1.6-.7 2.2 2 .5 3 .7 3.1 1.9 1.5s1.3-1.5 1.9 1.1c.3 1.6 1.2 4.2 2 5.7.8 1.6 1.5 3.9 1.5 5.1 0 1.2 1.6 3.7 3.6 5.7 2 1.8 4.5 4.7 5.7 6.3l2.1 2.9-3.8-.6c-2.1-.3-8.3-2.9-13.7-5.7-11.5-5.9-14.6-6.2-27.5-2.8-8.2 2.2-8.6 2.2-14.8.5-3.7-1-10.1-1.7-15-1.7-7.1 0-8.8-.3-9.3-1.6-.3-.9-.1-2.5.5-3.5.7-1 1.2-3.7 1.2-5.9 0-2.6.5-4.3 1.5-4.6.8-.3 2.3-2.1 3.4-4s2.7-3.4 3.5-3.4c.9 0 2-1.7 2.7-4 .9-2.8 1.8-4 3.1-4 2.5 0 4.4 4.7 5.2 13 .3 3.6 1.6 9.1 2.8 12.2 2.1 5.4 2.3 5.6 4 4.1 1.7-1.5 1.9-1.5 3.3.3s1.6 1.8 2.8.2c.8-1 1.9-5 2.7-9 .7-4 1.7-8.2 2.3-9.3 1-1.9 1.1-1.8 2.3 1l1.2 3 .7-4c1.1-6.3 1.5-7.3 4.2-10.5 3.3-4 8.4-4.2 10.1-.5zM74 445c0 1.1.7 2 1.5 2 1.1 0 1.5 1.1 1.5 3.9 0 2.9.4 4 1.9 4.4 1.5.4 1.9 1.8 2.5 9.3 1 13.6.9 26.5-.1 27.5-2.2 2.2-5.5-6-8.3-20.2-1.2-6.1-3-11.7-4.8-15-4.2-7.6-4.8-9.9-2.5-9.9 1 0 2.9-.9 4.3-2 3.2-2.5 4-2.5 4 0zm419.5 3.4c.9 1.3 1.9 4.3 2.3 6.7.7 3.7.9 4.1 1.6 2.1 1.2-3.6 3.1-2.6 7 3.7 2.8 4.6 4 5.8 5.5 5.4 1.3-.3 2.5.4 3.7 2.2 1.7 2.6 1.7 2.8.1 4-.9.7-3.9 1.5-6.6 1.8-9 1.1-17.5 6.8-19.1 12.9-.6 2.2-1.6 3.8-2.3 3.5-2.7-.9-3.6-14.7-2.1-31.5.8-8.1 1.2-9.6 3.3-11.3 3.1-2.5 4.7-2.4 6.6.5zM643 447c0 .5-2.5 3.7-5.5 7.1-3 3.4-5.5 6.6-5.5 7.2 0 .5-1.3 3.9-3 7.4-1.6 3.4-3 8-3 10 0 3.4-2.2 7.3-4.2 7.3-1.1 0-1-10.9.2-19.5 1-7.2 3.2-10.5 7-10.5.9 0 4.3-2.3 7.4-5 6-5.2 6.6-5.6 6.6-4zm-39.6 12.9c-2.3 8.4-3.7 9.3-6.3 4.2-2.6-5-2.6-5.9-.1-3.6 2.7 2.4 4.4 1.4 5.9-3.5 1.9-6.5 2.5-3.9.5 2.9zm-542.9 1.2c0 2.7-.4 3.4-1.9 3.4-3.1 0-4.3-3-2.1-5.5 2.5-2.8 4-2 4 2.1zM182 463c.6 1.2 1.3 6 1.4 10.8.2 4.8 1.1 11.3 2 14.5l1.7 5.8-2.9 2.7c-2.7 2.5-5.1 8.6-3.9 9.9.3.3 1.3-.9 2.2-2.6 1.5-3.1 2.9-3.9 3.9-2.3.3.5-.1 3.1-.9 5.8-.8 2.7-1.7 6.2-2 7.7-.8 3.8-2.3 3.1-6.5-2.8-1.9-2.7-5.7-7.2-8.3-10.1-4.1-4.5-5.7-5.5-10.4-6.5-3.1-.7-6.4-2-7.5-2.8-1.9-1.6-1.9-1.7 0-6.1 1.1-2.5 3.4-6.4 5.3-8.7 1.9-2.3 4.6-6.2 6.1-8.7 1.9-3.3 3.4-4.6 4.9-4.6 1.2 0 3.1-.8 4.2-1.8 1.9-1.7 2-1.6 1.5 3.6l-.5 5.3 2.4-4.3c4.3-7.5 5.5-8.2 7.3-4.8zm409.4 1.1c3.4 4 5.8 8.7 5.1 9.8-.3.5-4 2.3-8.3 4-14.7 6-17.2 7.4-17.2 9.3 0 1-.5 1.8-1.1 1.8-1.6 0-.6-16.5 1.1-20.2 1.6-3.3 10-7.8 14.6-7.8 2.4 0 3.9.8 5.8 3.1zm-135.6.5c2 1.4 2.2 1.4 2.2 0 0-2.3 3.3-1.9 5.7.6 2.1 2.3 3.1 4.8 5.8 15 1.1 3.9 2.4 6.4 4.6 8.3 1.7 1.4 2.9 2.8 2.6 3.2-.3.3-4.6.9-9.4 1.4-10.5 1.1-11.3 1.3-17.1 5-2.5 1.6-5.4 2.9-6.4 2.9-2.6 0-2.3-3.8.8-8.3 2.5-3.7 2.5-3.9.7-5.2-1.5-1.1-1.8-2.7-1.8-8.7 0-6.2.4-7.8 2.3-10.3 2.1-2.6 5.7-5.4 7.2-5.5.3 0 1.6.7 2.8 1.6zm81.7 0c.8.4 3 2.7 4.7 5.3 1.8 2.5 5.5 6.7 8.2 9.3 3.3 3.1 4.7 5 4.1 5.6-.6.6-3.7 1.7-7 2.7-7.7 2.2-15 6.1-18.1 9.8l-2.4 2.9v-8.9c.1-12.2 1.6-23.2 3.6-25.5 1.8-1.9 4-2.3 6.9-1.2zm-470.3 3.1c2.3 2.1 2.2 4.7-.6 10.8-2 4.3-2.5 4.7-3.1 3-.4-1.1-1.4-3.5-2.1-5.4-1.9-4.5-1.8-5.7.6-8.1 2.4-2.4 2.8-2.5 5.2-.3zm53-.4c7.4 2.6 10.1 9.2 7.3 17.7-1.6 4.7-1.6 5.3-.1 6.9 1.5 1.6 1.5 2.1 0 5.7-.9 2.1-1.7 6.7-1.7 10.2 0 3.4-.5 6.1-1 5.9-.5-.1-2.5-4.1-4.4-8.7-4-9.8-5.9-12.1-13-16.2-7.5-4.2-8.1-5.2-5.8-9.5 1.1-1.9 3-4.3 4.3-5.2 1.3-.9 4.1-3.1 6.1-4.8 4.2-3.8 3.6-3.6 8.3-2zM275 467c3.1 1.7 5.2 15.1 2.9 18.8-.9 1.4-.8 2.6.6 5.1.9 1.8 1.4 3.6 1 3.9-.8.8-32.5 1-33 .2-.1-.3 1.2-5 2.9-10.5 2.5-7.9 3.6-9.9 4.9-9.7 1.1.2 2.1-.8 2.9-2.5 2.3-5.4 3.7-6.3 10-6.3 3.3 0 6.8.4 7.8 1zm135.2 1.9l1.5-2.3 2.5 3.9c1.4 2.2 2.8 5.3 3.2 6.9.4 1.7 1.8 3.9 3 5.1 1.5 1.4 2.9 4.8 4.1 9.6 2.4 10 2.8 10.6 8.1 12.1 2.6.7 4.7 1.7 4.8 2.3.2 1.7-10.8 1.7-17.9 0-9.1-2.1-13.1-1.9-19.2 1-2.9 1.3-5.5 2-5.7 1.6-.3-.4-.9-2.8-1.3-5.2l-.7-4.4-.7 5.4c-.9 6.6-2.6 8.8-5.4 6.7-1.8-1.3-1.9-1.8-.7-6.3.7-2.6 2.6-6.4 4.2-8.4 1.8-2.2 3.2-5.7 3.9-9.2 1-5.6 4.2-13 6-14.1.5-.4 1.3.4 1.7 1.6.7 2.2.7 2.2 1.5.3.4-1.1.8-3.1.8-4.6.1-1.4.7-3.1 1.4-3.8 1-1 1.4-.7 2.3 1.4l1.1 2.6 1.5-2.2zm-96.2 8.3c3 3.3 3.6 6.7 1.7 10.1-2.4 4-2.1 7.1.8 10.5 2.9 3.5 3.2 5.9.8 6.6-8.5 2.3-30.3 1.1-33.1-1.9-1.4-1.5-1.5-1.8-.3-2.3.8-.2 3.3-2.2 5.6-4.3 4.8-4.4 6-4.8 6.8-1.9.6 2.5 2.7 2.6 2.8.2.5-14.4 1.1-18.1 2.8-15.3 1.3 2.1 5.6.9 5.9-1.7.4-2.9 3.5-2.9 6.2 0zm36.2-.5c1.7 1.5 1.8 1.5 1.8-.1 0-3.5 2.6-.8 7.5 8 2.8 4.9 7.2 11.8 9.8 15.3 2.6 3.5 4.7 6.7 4.7 7.2 0 1.6-2.6.9-6-1.6-4.5-3.3-7-3.2-23.1 1-7.4 1.9-14.2 3.5-15.1 3.5-2.7 0-2.1-2.9.6-3.6 2.5-.6 2.7-1 4.1-9.6.3-2.1 1.5-4.4 2.6-5.1 1.2-.9 2.2-3 2.5-5.3 1-7.3 1.4-8.4 4.2-9.8 3.5-2 4.2-1.9 6.4.1zm258.6 2.6c.5 2.6-7.7 10.6-14.3 13.9-3.3 1.7-9.3 5.3-13.2 8l-7.3 4.9v-4.4c0-10.9 14-21.8 26-20.4 4.4.5 5 .4 5-1.2 0-3.4 3.2-4.1 3.8-.8zM71 484.7c0 3.2.7 8.3 1.5 11.3 1.7 6.5 1.8 8 .5 8-1.5 0-4.6-6.9-5.9-12.9-1.3-6.1 0-12.1 2.5-12.1 1 0 1.4 1.5 1.4 5.7zm-10.6 1.4c1.5 7.8.1 12.6-2.4 8-1.1-2.2-1.4-9.4-.3-10.4 1.3-1.4 2.1-.6 2.7 2.4zm442.8-.4c.8 1 4.1 6.2 7.2 11.6 3.2 5.4 6.4 10.1 7.2 10.4.9.3 2.6.1 4-.5 2.8-1.3 2.9-1.1.9 2.8-2.2 4.2-5.8 6.6-14.5 9.5-4.3 1.4-9 3.5-10.4 4.6-5.1 4-5.8 2.3-4.6-12.1 1.4-15.7 2.9-25.1 4.1-26.7 1.6-1.8 4.3-1.6 6.1.4zm-280.1 2.6c2.5 1.9 3.7 4.9 3.9 10.2.3 6.6 0 12.3-.7 10.7-.9-2.2-3-1.3-4.3 1.8-1.1 2.5-.9 3.2.8 5.5 1.1 1.4 2.4 4 2.8 5.8.3 1.8 1.6 4.4 2.8 5.8 1.1 1.4 3.3 4.7 4.8 7.3 4.5 7.6 6.8 6 11.7-8.5 1.5-4.7 4.1-11.1 5.7-14.2 3.1-6.4 9.3-12.7 12.4-12.7 3 0 10 3.8 10 5.4 0 .7-1.2 3.9-2.6 7-1.4 3.1-2.4 6.2-2.1 6.9.3.6 1-.1 1.6-1.7.9-2.2 1.5-2.6 2.3-1.8.8.8.8 3.1-.2 8.5-1.2 7.3-1.2 7.7 1.3 12.8 2.9 6.2 4.1 10.9 2.9 10.9-.5 0-2.7-1.4-4.8-3.1-7.8-6.2-12-7.2-17.6-4.3-1.7.9-6.7 2.3-11.2 3-6.8 1.2-8.1 1.2-8.8.1-2.7-4.9-15.2-20.7-16.3-20.7-2 0-2.8 8.6-2.1 22.6.3 6.5.6 13.4.7 15.2.1 4.1 1.3 3.4 4.4-2.6l2.4-4.7.1 13.4v13.4l-7.7-7.5c-11.6-11.2-14.1-12-28.2-9.7-6.2 1-12.1.5-12.1-1 0-.4 1.6-1.5 3.5-2.4 1.9-.9 5-3.7 6.7-6.2 2.4-3.4 3.5-4.2 4.4-3.4 1 .8 1.8.3 3.4-2.3 1.1-1.8 2-3.8 2-4.5 0-.6 1.1-2 2.4-3 1.3-1 3.1-3.4 4.1-5.3.9-1.9 3.3-5 5.2-6.8 4.9-4.6 4.2-6.7-2.2-6.6-2.8.1-7.8.5-11.2.9-4.5.6-6.3.5-6.3-.4 0-.6.6-1.1 1.4-1.1 2.6 0 6.3-3.9 7.5-8 1-3.3 2-4.5 4.7-5.6 3.5-1.5 5.4-4.5 5.4-8.7 0-1.2.5-2.9 1-3.7.9-1.3 1.2-1.3 2.4.2.7 1 1.6 1.8 2 1.8.3 0 2-2.3 3.7-5 3.1-5.1 5.1-6 8-3.7zm-112.2 10.5c1.6 2.6 2.8 6.6 3.8 13.2.7 5.2 1.5 10 1.7 10.6.8 2.1-1.6 9.4-3 9.4-.8 0-2.4-2-3.6-4.5-1.2-2.5-2.8-4.5-3.5-4.5-2 0-1.6 8.4.7 17.1 1.1 4.1 1.9 8.1 1.9 8.9 0 2.8-6.8-6.2-8.5-11.2-.9-2.7-2.3-5.2-3.1-5.5-.9-.4-1.3-1.4-.9-2.8.4-1.7 0-2.5-2-3.4-2-.9-2.5-1.7-2.2-3.9.2-1.7-.2-2.6-.9-2.5-.7.2-1.7-.6-2.3-1.7-.6-1.1-2.4-2.7-4-3.5-1.7-.9-3-2.2-3-3 0-1.9 4-1.9 6.6 0 1 .8 2.9 1.5 4.2 1.5 1.3 0 2.2.6 2.2 1.5 0 .8.5 1.5 1 1.5.6 0 1.9.9 2.9 1.9 1.7 1.7 2.1 1.8 3.1.5 2.8-3.3-1.3-9-13.5-18.9-5.5-4.4-4.7-5.4 2.7-3.1 3.9 1.1 5.1 1.1 7.2.1 5.9-3.1 9.3-2.5 12.5 2.3zm442.1-1.7c0 .5-.8.6-1.7.2-1.5-.5-1.6-.3-.5.8.6.7 3.3 1.6 6 1.9 4.2.4 4.7.8 4.7 2.9 0 2.1-.9 2.7-6.5 4.6-5.1 1.7-6.6 2.6-6.8 4.3-.4 2.5 2.3 4.1 4 2.4.8-.8 1.9-.5 4 .9 2.7 2 3 2 4.7.5 1.9-1.8 11.1-2.3 11.1-.6 0 1.2-3 4.3-6.3 6.5-1.4.9-5.5 2.4-9.2 3.5-3.8 1.1-8.6 3.2-10.7 4.7-4.7 3.2-7.1 2.4-7.6-2.6-.3-2.5.4-3.9 3.2-6.7 4.8-4.8 4.7-7.1-.1-8-5.2-.9-6.3-2-6.3-6.4 0-3.2.6-4.4 3.8-7 2-1.7 5.1-3.4 6.7-3.9 3-.8 7.5.4 7.5 2zm59.8 1.6c-.2 1.2-2.7 2.6-7.8 4.2-7 2.3-8.1 3.1-16.8 11.9-5.2 5.1-9.6 9.1-9.9 8.8-.8-.7 2.4-14.1 4.2-18 2.7-5.7 10-8.2 24.3-8.5 5.5-.1 6.3.1 6 1.6zm-148 1.9c1.8.8 3.2 2 3.2 2.6 0 .6 1.5 2.5 3.4 4.2 2.6 2.4 4.3 5.6 7.2 13.6 2.5 7 4.7 11.4 6.6 13.2l2.8 2.6-2.6 2.1c-3.3 2.6-3.3 2.6-13.9.1-9.4-2.2-10.9-2.1-20.2 2.1-3.4 1.5-6.4 2.5-6.7 2.2-.3-.4-.6-2.7-.5-5.2 0-4.6.5-4.3 2.4 1.4.5 1.6.9 1.4 3-2.1 1.3-2.2 3.5-4.6 4.9-5.2 2.4-1.1 2.6-1.6 2.5-7.4l-.1-6.3-1.3 5c-.7 2.9-1.3 4-1.4 2.7 0-1.3-.8-3.9-1.7-5.8-1.3-2.8-1.5-4.3-.6-7.7.9-3.8 1.1-4 1.7-1.9.9 2.9 2.5 1.1 2.5-2.8 0-2.7 3.4-9 4.8-9 .5 0 2.3.7 4 1.6zm-302.1 4.6c2.5 2.7 5.1 9.9 5.5 15.4.3 3.5.1 3.9-2 3.6-1.6-.2-2.5.4-3.2 2.4-.6 1.5-.8 3.5-.4 4.3.4 1.1.8 1.2 1.1.3.5-1.3 4.1-1.6 6.8-.6 1.3.5.8 1.3-2.5 4.1-4.4 3.8-5.5 6.5-1.6 3.9 3.5-2.2 4.2-.4 1.5 4.3-2.6 4.6-2.2 11.7.7 13.8 1.7 1.2 1.6 1.3-.4 1.3-3.2 0-6.4-3.6-6.1-6.8.5-4.1-17-21.4-26.6-26.5-7.9-4.1-6.1-5 3.5-1.7 3.2 1.1 5.9 1.5 6.4 1 1.7-1.7 1.9-10.4.2-12.5-1.6-1.9-1.6-1.9-1 .8.8 3.4-1.8 7.7-4.6 7.7-2.5 0-2.6-2.9-.4-7.3 3-5.8 4-6.4 9.4-5.9 2.7.2 5.7.1 6.7-.2 1.6-.7 1.5-.9-.7-2.1-2.5-1.4-2.4-1.4 1.6-1.5 3 0 4.6.6 6.1 2.2zM622 510c0 2.4-2.7 8-3.8 8-1.5 0-3.2-2.4-3.2-4.6 0-2.3 3.3-5.4 5.7-5.4.7 0 1.3.9 1.3 2zm-312.3 4.3c1.2 2.3 1.8 6.6 2.1 15.5l.4 12.3 2.8-2.6c3.4-3.3 5.7-2.5 3.4 1.1-1.3 1.8-1.5 3.7-1 7.5l.7 5.2-2.8-.7c-6.9-1.7-13.7-1.7-22.8-.2-11 1.9-12.9 1.3-10.1-2.8 1.6-2.5 2.1-2.8 5.5-3 1.8-.1 3.8-6 5.3-15 1.4-8.2 4.2-13.3 7.8-13.8 1.8-.2 2.6-1 2.8-2.8.5-3 2.1-5.2 3.3-4.4.5.3 1.7 2 2.6 3.7zm108.4-2.2c4.7 1.2 5.5 2.3 6.3 8.9.8 6.2 1.9 8.6 3.5 7.6.7-.5 1.1.7 1.1 3.7 0 5.8 2.6 14.3 5.2 16.9 1.6 1.6 1.8 2.2.7 2.9-2.2 1.4-6.2 1-12.5-1.1-8.4-3-17-2.8-24 .4-3.1 1.4-6.2 2.6-6.9 2.6-.6 0-2.3.9-3.6 2.1-2.1 1.9-3.2 2-9.3 1.5-3.8-.4-10.6-1.6-15-2.7-9.9-2.5-13.9-2.2-23.9 2.1-5.6 2.5-8 3.1-8.8 2.3-1.6-1.6.3-12.1 4.5-25.3 1.9-5.8 3.9-12.3 4.5-14.5 1.1-4.3 4.1-6.7 9.7-7.9 4.8-1.1 5.7 1 7 15.1.6 6.8 1.6 12.9 2.2 13.5 1.2 1.2 3.6-3.7 4.9-10l.7-3.7.7 4.5c.4 2.5.8 6.9.8 9.8.1 6.3 2 11.3 5.2 13.6 3 2.1 11.2 2.1 12.9.1.7-.9 1.7-5.7 2.1-10.6.8-10.1 2.2-13.2 3.6-7.8.5 1.9 1.5 3.4 2.2 3.4.6 0 1.6.6 2 1.4.6.8 1.1-1.8 1.5-7 1-12.4 1.4-13.8 4.6-15.4 2.6-1.4 3-1.3 3.8.2.8 1.3 1.1 1 1.7-1.8 1.6-7.5 1.8-7.6 12.6-4.8zm188 .5c-1.2 1.5-2.1 3.3-2.1 4.1 0 .9-2 3.4-4.5 5.7-4.3 3.9-6.4 7-10.1 14.6-2.4 5.2-6.4 7-6.4 3 0-3.2 3.7-13 6.5-17 1.4-2 2.5-4.3 2.5-5.2 0-2.3 1.8-3.2 3.5-1.8 1.2 1 1.6.9 2-.4.3-.9.7-2.3 1-3.2.3-.9 1.1-1.4 2-1 .8.3 2.5.1 3.7-.4 3.7-1.4 4.1-1.1 1.9 1.6zm4 10.1c-6.1 7.3-11.8 15.8-13.8 20.6-2.3 5.6-7.8 13.7-9.3 13.7-1.5 0-1.2-3.6.5-5 .8-.7 1.5-2.4 1.5-3.9 0-3.4 5.8-15.6 9.6-20 3.1-3.7 10.9-9.1 13.2-9.1.9 0 .3 1.4-1.7 3.7zm-90.6 3.4c1.9 1.7 3.5 3.7 3.5 4.4 0 1.8-5.3 6.1-10.9 8.9-5.7 2.9-15 6-15.8 5.3-.9-.9 2.6-10.2 5.7-15.1 3.4-5.3 6.8-6.1 10.7-2.4l2.3 2.1v-3.1c0-1.8.2-3.2.5-3.2.2 0 2 1.4 4 3.1zm42.3 5.7l.3 2.2 2.6-2c3.1-2.4 9.3-2.8 9.3-.5 0 2.1-7.5 7.3-12.4 8.6-5 1.3-9.7 5.5-14.7 13.4l-3.9 6 .7-10c.8-13.5 2.1-15.7 10.8-19.2 4.3-1.7 6.9-1.2 7.3 1.5zM149.4 542c1.8 1.7 3.7 4.1 4 5.5.4 1.4 1.1 2.5 1.6 2.5.6 0 1 3.5 1 8.2 0 7 .4 8.7 2.4 11.7 3 4.5 3.8 7.2 2.7 9-1.2 1.9-2.8.6-3.6-3.1-1.5-6.6-18.5-21.1-27.4-23.4-5.5-1.4-7.1-4.4-2.2-4.4 1.6 0 3.3.5 3.7 1.2.5.8 1.1.6 2-.6.7-1 1.7-1.5 2.3-1.2.6.4 1.3-.4 1.7-1.8.3-1.3 1.2-2.7 2-3 .8-.3 1.4-1.2 1.4-2.1 0-2.6 4.7-1.7 8.4 1.5zm318 5.6l4.7 3.5 1.8-2.2c2-2.5 4.1-1.9 4.1 1.2 0 1.1.7 3.3 1.5 4.9l1.5 2.9-5.7 1.6c-15.8 4.4-19.3 5.7-24.3 9.3-8.5 6.1-11.1 6.6-25 5.2-14.8-1.6-18.2-1.1-26 3.4-3.4 2-6.7 3.5-7.2 3.4-.5-.2 1-3 3.5-6.3 3.1-4.3 4.6-7.3 5-10.5.8-6 4.2-9 10.2-9 3.5 0 4.8.5 6.4 2.6 1.2 1.5 2.1 3.3 2.1 4 0 1.7 3.2 3.4 6.5 3.4 1.8 0 2.8.7 3.5 2.5 1.2 3.2 5 4.7 9.8 3.7 2.9-.6 4.1-1.5 5.4-4.2 1-1.9 2.4-3.5 3-3.5.9 0 1.4-1.9 1.6-5.3.3-5.3 1.5-6.5 4-4 .9.9 1.2.2 1.2-3.3 0-2.5.5-5 1.2-5.7 2.2-2.2 6.4-1.3 11.2 2.4zm-205.6.4c.2 1.4 1.1 3.3 2 4.3.9 1 1.9 4.6 2.3 8.5.5 4.9 1.2 7 2.8 8.3 2.9 2.4 3 3.7.1 5.2-1.4.7-2.7 2.1-2.9 3.2-.3 1.7-.1 1.8 1.4.5 2.4-2 3.7.4 3 5.7-.6 3.8-.3 4.6 3.1 8.2 4.7 5.2 3 5.3-3.2.1-9.9-8.2-14.6-9.3-28.9-6.4-7.3 1.4-8.5 1.4-11.8 0-2-.8-3.7-1.9-3.7-2.5 0-.5 2.6-1.1 5.7-1.3 4.9-.3 5.8-.6 6.2-2.3.2-1.1.9-2.4 1.7-2.8.8-.4 1.4-2 1.4-3.5 0-6.8 2.9-9.5 3.1-2.9.1 2.8.2 2.6 1.4-1.8.7-2.8 2.1-8.5 3-12.8 2.1-9.4 3.3-10.9 8.9-10.5 3.5.3 4.1.7 4.4 2.8zm261-.4c5.6 2.8 6.9 5.4 2.6 5.4-2.2 0-9.4 2.7-9.4 3.5 0 .1 1.8 2.1 4 4.3 2.2 2.2 4 4.4 4 5 0 .6-1.1 2.4-2.5 4.1-2.4 2.8-7.5 5.2-13.7 6.5-1.6.4-3.4 1.8-4.2 3.4-.8 1.5-2.4 3.6-3.6 4.7l-2.3 2 .8-2.5c.4-1.4 1.8-4.5 3.1-7s2.4-5.5 2.4-6.8c0-1.5 1.7-4.1 4.7-6.9 3.9-3.8 4.4-4.7 3-5.4-1-.6-3.4-.3-6.9 1.1-6.3 2.4-6.8 2.4-6.8.5 0-3.7 13.4-14.5 18.1-14.5.8 0 3.8 1.2 6.7 2.6zm55.8-.3c.4.4-.4 2-1.8 3.5s-2.8 3.5-3.1 4.4c-.8 2.4-7.3 6.4-15.9 9.9-4 1.7-8.8 4.4-10.7 6.2l-3.4 3.2 2.6-4.5c1.3-2.5 3.2-6.8 4.1-9.7 1-2.8 2.3-5.4 3.1-5.7.8-.3 1.8-2 2.3-3.8.5-2.2 1.6-3.5 3.3-4 3.1-.9 18.5-.6 19.5.5zM308 563.9c0 3.8 2.4 6.8 6.8 8.1 5.6 1.9 5.8 2.6 1.2 5.5-3.4 2.2-4.1 3.1-3.7 5.1.3 1.6 0 2.4-.9 2.4-1.7 0-1.8 3.4-.1 4.8.6.5 2.3 1.2 3.6 1.4 3.2.4 3.9 2.8 1.2 3.5-3.2.8-2.3 4.4 1.4 5.6 1.7.5 3.8 1.6 4.7 2.4 1.2 1.1 2.8 1.3 5.5.8 5.6-.9 7-2 5.4-3.9-1.9-2.2-.7-5.6 3.4-10.1l3.6-4-.4 9.3c-.4 10.8-1.1 12-8.3 12.8-4.5.6-5.7.2-15.8-5l-10.9-5.6h-12.3c-6.8 0-12.4-.2-12.4-.5s1.6-2.9 3.5-5.8 4.3-8.7 5.6-13.2c3.8-14.3 8.6-22 10.5-17 1 2.4 3.3 1.7 4-1.2l.7-2.6 1.9 2.2c1 1.3 1.8 3.5 1.8 5zm274.5-2.3c-4.5 3.3-25.7 15.6-26.1 15.1-2.2-2.2 12.7-13.4 23.1-17.3 3.8-1.5 5.9.1 3 2.2zm-226.1.6c2.1 3.4 4 13.8 2.7 15.1-.5.5-7.6 1.2-16.2 1.5l-15.2.5 4.5-4.2c2.5-2.2 4.9-5.5 5.4-7.3 1.9-6.4 15.6-10.5 18.8-5.6zm176.4 1.8c1.2 1.2 2.2 3 2.2 4 0 1.6-.7 2-3.5 2-3.6 0-3.8-.3-4.9-5.3-.6-2.3-.3-2.7 1.7-2.7 1.3 0 3.3.9 4.5 2zm-396.4.7c6.7 1.1 16.8 13.1 15 17.7-1 2.5-2.3 1.9-7.9-3.2-7.6-7-16.7-13.2-19.5-13.3l-2.5-.1 2.5-.8c3.2-1 7.5-1.1 12.4-.3zM474 569c1.5 1.6 3.4 3 4.1 3 .8 0 .7-.6-.4-1.8-2.2-2.4-2.1-3.2.2-3.2 3.5 0 5.1 1.2 5.1 3.6 0 2.7 0 2.7 3.4 1.4 3.5-1.3 4.4.6 1.7 3.3-1.7 1.7-3.4 2.2-9 2.3-4.5.1-10.4 1.3-16.9 3.3-11.4 3.5-12.2 3.6-12.2 1.7 0-2.4 9.7-12.2 14.2-14.4 5.7-2.8 6.5-2.7 9.8.8zm-272.4 1c.6 2.6 1 2.9 4.3 2.7 3.3-.2 3.8.1 5.5 3.8 3.5 7.1 3.2 32.1-.3 26.6-.5-.8-1.2-3.2-1.7-5.5l-.8-4.1-.4 3.2c-.2 1.8-.5 3.3-.7 3.3-.3 0-2.5-1.4-4.9-3.1-4.8-3.4-10.3-4.7-19.8-4.8-3.2-.1-5.8-.3-5.8-.6s2-3.5 4.4-7.2c9.9-15.3 18.8-21.6 20.2-14.3zm378.8 2.2c-6.6 11.4-14.2 19.1-25.4 25.6-5.2 3-10.3 6.2-11.3 7-1.6 1.4-2 1.3-4.5-1.1-3.5-3.3-7.2-3.6-7.2-.6 0 1.1 1 2.9 2.2 3.8l2.2 1.8-2 3.4c-2.4 4.1-6.7 7.1-14.2 10-6.6 2.5-18.5 5.9-19 5.5-.2-.2 1.8-1.6 4.3-3.1 3.3-1.9 5.2-3.9 6.5-6.8 1.8-4.2 4.7-7.5 8.5-9.5 1.6-.9 2.4-.7 4.2 1 2 1.9 2.3 1.9 2.9.4.3-.9.3-2.8 0-4.2-.6-2.3-1-2.6-3.9-2-1.8.3-6.9 2.4-11.4 4.6-4.6 2.1-8.3 3.7-8.3 3.4 0-.4 7.9-11.3 11-15.1 1.2-1.4 15-4.6 18.2-4.1 1.5.2 3.4 2 5.3 5 1.7 2.6 3.4 4.7 3.8 4.7 1.9.2 14.6-8.9 15.1-10.7.4-1.1 1.6-2.2 2.6-2.5 1.1-.3 2-1.4 2-2.4 0-2.7 5.6-9.1 10.9-12.4 4.7-3 8.8-3.9 7.5-1.7zm-52.5 4.2c.6.7 3.4 1.6 6.1 2 2.7.4 5.2 1.2 5.6 1.8 1.6 2.5-6.8 6.4-17.8 8.2-2 .4-6.2 2.4-9.5 4.6-3.2 2.2-6.4 4-7 4-1.8 0-1.6-3.7.1-4.3.8-.3 3.2-3.9 5.5-8 3.6-6.6 4.6-7.6 7.9-8.5 5.4-1.4 7.8-1.4 9.1.2zm-106.6 3.2c2.2.7 2.2 2 0 3.2-1.4.8-1 1.6 3 5.8l4.7 4.9v-3.3c0-4 .9-4 3.5.1 2.2 3.5 6.1 4.8 7.1 2.3.8-2 3.4-2.1 3.4-.1 0 .8-1.4 2.2-3.2 3.1-3.3 1.7-3.6 1.7-23.9-.2-6.4-.6-6.9-.5-12.6 3-3.2 2-6.2 3.6-6.6 3.6-1 0-.9-4.4.3-7.4.5-1.4 1.6-2.6 2.3-2.6.7 0 2.1-1.8 3.1-4.1s3.6-5.3 5.9-7c4.2-3 6.3-3.2 13-1.3zM140 584.2c1.4 2.3 1.6 3.6.9 5-1.3 2.3-2.9 2.3-2.9-.1 0-1-.9-3-2-4.4-1.1-1.4-2-3.2-2-4.1 0-2.5 3.6-.2 6 3.6zm215.6 2.2c3.4 2.3 5.6 7.3 5.8 13l.1 5.1-6.5.3c-3.6.2-8 0-9.7-.3l-3.3-.6v-20.2l5.6.6c3 .3 6.6 1.3 8 2.1zm126.5.3c.9.8 3 1.8 4.5 2.2 6.2 1.6 1.8 3.5-10.8 4.7-6.7.5-8.4 1.4-18.7 8.9-5 3.7-6.5 3.3-5.6-1.2.4-2.1 1.3-4.9 2-6.4 1.3-2.5 7.8-7.1 13.5-9.7 3.2-1.4 12.9-.5 15.1 1.5zm-226.5 6l.7 3.6 1.9-2.6c1.1-1.5 2.4-2.7 2.8-2.7 1.5 0 2.3 6.6 1 9-.9 1.6-.9 2.5 0 3.5 1.7 2 5 15.1 5 19.4v3.5l-2.9-3.1c-4.1-4.6-9.8-5.2-23.2-2.5-10.4 2.1-15.3 2-14.6-.2.2-.6 1.2-1.3 2.3-1.5 3.1-.5 4.2-2 4.9-6.4.9-5.1 1.5-6.3 2.5-4.7.4.7 2.5-1 5.9-4.9 2.9-3.3 6.1-6.3 7.1-6.6 1.2-.4 2.2-1.9 2.6-4.1.8-4.5 3.1-4.4 4 .3zm116.6 12c1.3 1.4 4.1 3.5 6.3 4.6l4 2.2-2.9.3c-4.9.6-9.4-.7-11.6-3.5-1.6-2-2-4-2-9.2l.1-6.6 1.9 4.9c1.1 2.7 2.9 6 4.2 7.3zm-178.4-5.8c2.8 1.5 6.2 6 6.2 8.2 0 1 1 3 2.3 4.5 2 2.3 2.6 2.5 4.4 1.6 2.3-1.3 3.3 0 3.3 4.2 0 1.2.7 3.2 1.6 4.4 1.8 2.6 2 2.6-8.1.7-13.4-2.6-27.5-10.5-27.5-15.4 0-2.4 5.5-9 8.4-10.1 2.2-.7 5.8 0 9.4 1.9zm285.8 1.4c.9 2.8 1.6 3.2 5 3.5 6.1.4 8.4 1.1 8.4 2.7 0 2.8-5.5 4.5-14.9 4.5-7.7 0-9.7.4-13.8 2.5-2.6 1.4-5.8 3.9-7.1 5.5-2.6 3.4-5.2 3.9-5.2 1.2 0-2 7-13.5 8.9-14.7.7-.4 1.8-.1 2.6.5 1.2 1 1.5.9 1.5-.8 0-2.4 4.7-6.4 6.9-6 .9.2 1.7 1.4 1.9 2.6.5 3.2 2.8 2.1 2.4-1.1-.4-2.9.6-5.2 1.7-4.2.3.4 1.1 2.1 1.7 3.8zm-51.6 5.1l7.4 3.4-4.4.6c-18.1 2.3-26.4 3.7-29.6 5.1-2 .8-3.9 1.4-4.1 1.2-.5-.6 4.9-7.8 8.7-11.6 3.3-3.2 3.6-3.3 9-2.8 3.2.4 8.8 2.1 13 4.1zM303 607c0 2.1.5 4.2 1 4.5.6.4 1-.5 1-1.9 0-3.5 1.6-3.3 2.3.3.7 3.5-.2 7.3-2 8.4-.7.4-1.3 1.7-1.3 2.7 0 1.7.7 2 4.4 2 2.5 0 4.7.4 5.1.9 1.3 2.3-4.1 3.1-20.1 3.1h-16.6l.6-2.3c.4-1.2 1.1-5.2 1.5-8.8.9-7.1 1.6-8.9 3.3-8.9.7 0 .8 1.6.3 4.6-.9 6.4 1.1 5.5 5-2.2 3.4-6.8 5.8-7.6 6.5-2.4l.5 3.5 1.4-3.3c1.3-3.2 4.7-5.5 6.4-4.5.4.2.7 2.2.7 4.3zm56.6 8c1.6.6 2.6 2.8 4.3 9.3 1.3 4.8 3.1 9.3 4.2 10.3 1.8 1.7 2 1.6 4.4-.6l2.5-2.3v2.5c0 3.3 1.8 4 8.1 2.8 6.5-1.2 7.9-1.2 7.9 0 0 1.6-8.3 3.2-14 2.7-3-.3-9.8-2.2-15-4.2-13.3-5.2-19.3-5.6-29-1.7-4.2 1.6-8.6 3.2-9.9 3.3-4.2.7-3.4-1.7 1.9-5.5 4.4-3.1 5-4 5-7.1 0-2.8.4-3.5 2-3.5 1.1 0 3 1 4.1 2.1 2.6 2.6 3.9 1.2 3.9-4.3 0-2.2.6-4 1.5-4.5 1.7-1 15-.4 18.1.7zm70.8 7c2.6 3.7 4.3 5 6 5 2.7 0 4.2 1.5 2.7 2.5-.5.3-6.3-.2-12.8-1-10.7-1.5-21.5-1.4-27.8.1-1.3.3-.1-1.3 3.3-4.5 5.7-5.4 9.5-6.8 19.4-7l5.6-.1 3.6 5zm57.3-3.9c4.3.6 8.2 1.4 8.7 1.9 1 1-4.2 2.5-14.9 4-10.1 1.5-13.7 3-19.1 8-4.3 4-8.4 5.2-8.4 2.6 0-.7.7-1.9 1.6-2.7.8-.7 2.6-3.4 3.9-6 3.6-7.1 6.5-8.9 14.1-8.9 3.4 0 9.8.5 14.1 1.1zm-233.9 9.7c.2 2.3 1 3.6 2.7 4.4 2.2 1 4.5 4.6 4.5 7.2 0 2.9-23.9 3.7-27.8 1-2.1-1.4-2.1-1.7-.7-5.2 1.8-4.4 4-6.2 7.3-6.2 1.3 0 3.8-1.1 5.4-2.6 2-1.6 4-2.4 5.7-2.2 2.1.2 2.7.9 2.9 3.6zm-50.4 1.1c2.3 1.9.3 5.1-3.3 5.1-3 0-9.2-3.6-9.9-5.9-.4-1.1.8-1.3 5.6-.9 3.3.2 6.7 1 7.6 1.7zm289.6 2.3c-1.9 1.2-6.4 4.3-10 6.9-8.6 6.2-13.6 8.6-21.6 10.5-10 2.3-11.7 1.6-6.1-2.3 2.5-1.8 5.7-5.3 7.1-7.8 4.2-7 10.1-9.1 26.6-9.4l7.5-.1-3.5 2.2zm-281.6 1c2.3 3.2 2 3.8-1.4 3.8-3.2 0-4.7-1.8-3.6-4.5.8-2.2 3.3-1.8 5 .7zM298 634c.9.5 1.7 3.1 2 6.7l.5 5.8 1.7-3.5c.9-1.9 1.8-4.4 2-5.4.6-3.6 2.7-2.8 3.9 1.5 1.8 6 5.8 9.5 12.3 10.9 5.8 1.2 9.8.6 11.7-1.6.6-.8 1.9-1.4 2.9-1.4s3.7-2.3 6-5c2.7-3.2 5-5 6.4-5 2.6 0 15.2 5.9 21.2 10 3.1 2 6.4 3.2 12.1 4 4.3.6 10.9 1.8 14.7 2.7 8.2 1.8 8.6 1.5 8.6-6.7 0-3.7.7-6.6 2-8.8 1.8-2.9 2.5-3.3 5.7-3 2.9.2 3.9.9 5.4 3.8l1.9 3.5v-3.7c0-2 .5-4 1.1-4.3 2.2-1.4 7.8.7 11.9 4.5 4.7 4.3 5.5 4.7 6.3 2.7.4-.7.8-.3 1.3 1.1.3 1.2 1.8 2.9 3.3 3.7 2.5 1.4 2.5 1.4-2.5 1.5-5.1 0-11.7 1.9-20.9 6-4.8 2.2-5.6 2.3-47 2.4-37.7 0-42.6-.2-48-1.8-4.5-1.3-11.5-2-27.8-2.6-24.1-.8-26.2-1.4-21.3-5.6 2.2-1.9 3.1-2.2 4.2-1.3 1.1.9 1.4.6 1.4-2 0-4.4 1.6-7 5.3-8.6 3.7-1.6 9.5-1.9 11.7-.5zm-47.5 15c1.5 1.6 1.6 2.2.5 3.5-1.8 2.2-7.4 1.6-7.8-.8-.8-4.3 4.2-6.2 7.3-2.7zm40.7 9.6c2.8 1.5 3.6 1.5 9-.1 6.7-1.9 10.2-1.4 11.8 1.5 1.5 2.8-.2 3.4-11.2 3.8-10.7.5-14.8-.9-14.8-4.8 0-2.4 1.1-2.5 5.2-.4zm80.7 4c1.1 1-7.6 8.5-11.6 10-9.2 3.5-24.7-1.7-19-6.4 3.7-3.1 28.3-6 30.6-3.6zm50.9 2.6c.4 3.5-2.7 5.2-8.3 4.5-4.6-.7-9.5-2.6-9.5-3.8 0-1 11-3.8 14.5-3.6 2.5.2 3.1.7 3.3 2.9z"/><path d="M445 204.7c0 2.1 4.1 8.3 5.6 8.3 2.3 0 2.2-1.3-.4-5.6-2.7-4.5-5.2-5.8-5.2-2.7zM417.6 516.5c-.3.9-.6 5.3-.6 9.7 0 7 .2 7.9 1.8 7.6 3.5-.7 4.1-17.4.6-18.5-.6-.2-1.4.3-1.8 1.2z"/></svg>